<svg viewBox="0 0 24 24" xmlns="http://www.w3.org/2000/svg" xmlns:xlink="http://www.w3.org/1999/xlink" width="24.000000" height="24.000000" fill="none">
	<rect id="操作图标/24/全局导航-新" width="24.000000" height="24.000000" x="0.000000" y="0.000000" />
	<path id="形状结合" d="M20 4.25049C20.4142 4.25049 20.75 4.58627 20.75 5.00049C20.75 5.38018 20.4678 5.69398 20.1018 5.74364L20 5.75049L4 5.75049C3.58579 5.75049 3.25 5.4147 3.25 5.00049C3.25 4.62079 3.53215 4.307 3.89823 4.25733L4 4.25049L20 4.25049ZM20 11.2495C20.4142 11.2495 20.75 11.5853 20.75 11.9995C20.75 12.3792 20.4678 12.693 20.1018 12.7426L20 12.7495L4 12.7495C3.58579 12.7495 3.25 12.4137 3.25 11.9995C3.25 11.6198 3.53215 11.306 3.89823 11.2563L4 11.2495L20 11.2495ZM20 18.2495C20.4142 18.2495 20.75 18.5853 20.75 18.9995C20.75 19.3792 20.4678 19.693 20.1018 19.7426L20 19.7495L4 19.7495C3.58579 19.7495 3.25 19.4137 3.25 18.9995C3.25 18.6198 3.53215 18.306 3.89823 18.2563L4 18.2495L20 18.2495Z" fill="rgb(25,25,25)" fill-rule="evenodd" />
	<path id="形状结合" d="M20.75 5.00049C20.75 5.38018 20.4678 5.69398 20.1018 5.74364L20 5.75049L4 5.75049C3.58579 5.75049 3.25 5.4147 3.25 5.00049C3.25 4.62079 3.53215 4.307 3.89823 4.25733L4 4.25049L20 4.25049C20.4142 4.25049 20.75 4.58627 20.75 5.00049ZM20.75 11.9995C20.75 12.3792 20.4678 12.693 20.1018 12.7426L20 12.7495L4 12.7495C3.58579 12.7495 3.25 12.4137 3.25 11.9995C3.25 11.6198 3.53215 11.306 3.89823 11.2563L4 11.2495L20 11.2495C20.4142 11.2495 20.75 11.5853 20.75 11.9995ZM20.75 18.9995C20.75 19.3792 20.4678 19.693 20.1018 19.7426L20 19.7495L4 19.7495C3.58579 19.7495 3.25 19.4137 3.25 18.9995C3.25 18.6198 3.53215 18.306 3.89823 18.2563L4 18.2495L20 18.2495C20.4142 18.2495 20.75 18.5853 20.75 18.9995Z" fill-rule="evenodd" stroke="rgb(0,0,0)" stroke-opacity="0" stroke-width="1" />
</svg>
