<svg viewBox="0 0 16 16" xmlns="http://www.w3.org/2000/svg" xmlns:xlink="http://www.w3.org/1999/xlink" width="16.000000" height="16.000000" fill="none">
	<rect id="操作图标/账号中心" width="16.000000" height="16.000000" x="0.000000" y="0.000000" />
	<path id="形状结合" d="M1.60983 2C1.91856 2 2.1737 2.23347 2.21409 2.53638L2.21965 13.3794C2.21965 13.7222 1.94662 14 1.60983 14C1.30109 14 1.04595 13.7651 1.00557 13.4622L1 2.62059C1 2.27785 1.27303 2 1.60983 2ZM8.85756 2C12.0856 2 14.9005 4.53202 14.9973 7.81455C15.0973 11.2121 12.4214 13.9982 9.10474 13.9982L5.97734 13.9982C4.98942 13.9982 4.18852 13.1839 4.18852 12.1786L4.18852 3.82041C4.18852 2.81505 4.98942 2 5.97734 2L8.85756 2ZM8.85756 3.24119L5.97734 3.24119C5.66348 3.24119 5.40817 3.50101 5.40817 3.82041L5.40817 12.1786C5.40817 12.498 5.66348 12.757 5.97734 12.757L9.10474 12.757C10.3805 12.757 11.5725 12.2448 12.4604 11.3122C13.3483 10.3813 13.8167 9.15255 13.7784 7.85179C13.7028 5.30984 11.4961 3.24119 8.85756 3.24119Z" fill="rgb(25,25,25)" fill-rule="evenodd" />
	<path id="形状结合" d="M2.21409 2.53638L2.21965 13.3794C2.21965 13.7222 1.94662 14 1.60983 14C1.30109 14 1.04595 13.7651 1.00557 13.4622L1 2.62059C1 2.27785 1.27303 2 1.60983 2C1.91856 2 2.1737 2.23347 2.21409 2.53638ZM14.9973 7.81455C15.0973 11.2121 12.4214 13.9982 9.10474 13.9982L5.97734 13.9982C4.98942 13.9982 4.18852 13.1839 4.18852 12.1786L4.18852 3.82041C4.18852 2.81505 4.98942 2 5.97734 2L8.85756 2C12.0856 2 14.9005 4.53202 14.9973 7.81455ZM5.97734 3.24119C5.66348 3.24119 5.40817 3.50101 5.40817 3.82041L5.40817 12.1786C5.40817 12.498 5.66348 12.757 5.97734 12.757L9.10474 12.757C10.3805 12.757 11.5725 12.2448 12.4604 11.3122C13.3483 10.3813 13.8167 9.15255 13.7784 7.85179C13.7028 5.30984 11.4961 3.24119 8.85756 3.24119L5.97734 3.24119Z" fill-rule="evenodd" stroke="rgb(0,0,0)" stroke-opacity="0" stroke-width="1" />
</svg>
