<svg viewBox="0 0 16 16" xmlns="http://www.w3.org/2000/svg" xmlns:xlink="http://www.w3.org/1999/xlink" width="16.000000" height="16.000000" fill="none">
	<rect id="操作图标/瞄准(ai-object-tracking)" width="16.000000" height="16.000000" x="0.000000" y="0.000000" />
	<g id="ai-object-tracking">
		<path id="形状结合" d="M8 0.5C8.24546 0.5 8.44961 0.676875 8.49194 0.910124L8.5 1L8.5009 2.02061C11.4151 2.26147 13.7385 4.58492 13.9794 7.4991L15 7.5C15.2761 7.5 15.5 7.72386 15.5 8C15.5 8.24546 15.3231 8.44961 15.0899 8.49194L15 8.5L13.9795 8.4999C13.7391 11.4145 11.4154 13.7385 8.5009 13.9794L8.5 15C8.5 15.2761 8.27614 15.5 8 15.5C7.75454 15.5 7.55039 15.3231 7.50806 15.0899L7.5 15L7.5001 13.9795C4.58545 13.7391 2.26149 11.4154 2.02061 8.5009L1 8.5C0.723858 8.5 0.5 8.27614 0.5 8C0.5 7.75454 0.676875 7.55039 0.910124 7.50806L1 7.5L2.02053 7.5001C2.26096 4.58512 4.58512 2.26096 7.5001 2.02053L7.5 1C7.5 0.723858 7.72386 0.5 8 0.5ZM8.5007 3.02476L8.5 4C8.5 4.27614 8.27614 4.5 8 4.5C7.75454 4.5 7.55039 4.32312 7.50806 4.08988L7.5 4L7.5003 3.02466C5.13785 3.25907 3.25907 5.13785 3.02466 7.5003L4 7.5C4.27614 7.5 4.5 7.72386 4.5 8C4.5 8.24546 4.32312 8.44961 4.08988 8.49194L4 8.5L3.02476 8.5007C3.2596 10.8627 5.13819 12.741 7.5003 12.9753L7.5 12C7.5 11.7239 7.72386 11.5 8 11.5C8.24546 11.5 8.44961 11.6769 8.49194 11.9101L8.5 12L8.5007 12.9752C10.8627 12.7404 12.741 10.8618 12.9753 8.4997L12 8.5C11.7239 8.5 11.5 8.27614 11.5 8C11.5 7.75454 11.6769 7.55039 11.9101 7.50806L12 7.5L12.9752 7.4993C12.7404 5.13765 10.8623 3.25957 8.5007 3.02476ZM8 6C9.10457 6 10 6.89543 10 8C10 9.10457 9.10457 10 8 10C6.89543 10 6 9.10457 6 8C6 6.89543 6.89543 6 8 6ZM8 7C7.44772 7 7 7.44772 7 8C7 8.55229 7.44772 9 8 9C8.55229 9 9 8.55229 9 8C9 7.44772 8.55229 7 8 7Z" fill="rgb(25,25,25)" fill-rule="nonzero" />
	</g>
</svg>
