<svg viewBox="0 0 16 16" xmlns="http://www.w3.org/2000/svg" xmlns:xlink="http://www.w3.org/1999/xlink" width="16.000000" height="16.000000" fill="none" customFrame="#000000">
	<rect id="操作图标/基线" width="16.000000" height="16.000000" x="0.000000" y="0.000000" />
	<path id="形状结合" d="M11.5347 3.21625C11.4739 2.16657 10.6032 1.33374 9.53809 1.33374L4.03809 1.33374L3.92057 1.33714C2.87066 1.39798 2.03809 2.26884 2.03809 3.33374L2.03809 12.6677L2.04148 12.7852C2.1023 13.8348 2.97287 14.6671 4.03809 14.6671L7.03809 14.6671L7.10593 14.6625C7.34998 14.6294 7.53809 14.4202 7.53809 14.1671C7.53809 13.8909 7.31423 13.6671 7.03809 13.6671L4.03809 13.6671L3.94175 13.6625C3.43453 13.6141 3.03809 13.1872 3.03809 12.6677L3.03809 3.33374L3.04266 3.23746C3.09112 2.73048 3.51831 2.33374 4.03809 2.33374L9.53809 2.33374L9.63439 2.33832C10.1415 2.38679 10.5381 2.8141 10.5381 3.33374L10.5381 6.83594L10.5427 6.90378C10.5758 7.14783 10.785 7.33594 11.0381 7.33594C11.3142 7.33594 11.5381 7.11208 11.5381 6.83594L11.5381 3.33374L11.5347 3.21625ZM9.62519 4.54078C9.62519 4.26464 9.40133 4.04078 9.12519 4.04078L4.45852 4.04078L4.39067 4.04535C4.14662 4.07846 3.95852 4.28765 3.95852 4.54078C3.95852 4.81693 4.18238 5.04078 4.45852 5.04078L9.12519 5.04078L9.19303 5.03622C9.43708 5.00311 9.62519 4.79391 9.62519 4.54078ZM4.26182 8.90364L4.92849 8.90364C5.11249 8.90364 5.26182 8.75364 5.26182 8.5703L5.26182 7.90297C5.26182 7.71964 5.11249 7.5703 4.92849 7.5703L4.26182 7.5703C4.07782 7.5703 3.92849 7.71964 3.92849 7.90297L3.92849 8.5703C3.92849 8.75364 4.07782 8.90364 4.26182 8.90364ZM6.92881 8.90364L7.59548 8.90364C7.77948 8.90364 7.92881 8.75364 7.92881 8.5703L7.92881 7.90364C7.92881 7.71964 7.77948 7.5703 7.59548 7.5703L6.92881 7.5703C6.74481 7.5703 6.59548 7.71964 6.59548 7.90364L6.59548 8.5703C6.59548 8.75364 6.74481 8.90364 6.92881 8.90364ZM12.8611 9.77368C12.8611 8.79429 12.0671 8.00034 11.0877 8.00034C10.1084 8.00034 9.3144 8.79429 9.3144 9.77368L9.3144 10.2088C8.66508 10.2984 8.16504 10.8556 8.16504 11.5296L8.16504 13.3339C8.16504 14.0702 8.76199 14.6672 9.49837 14.6672L12.5917 14.6672C13.3281 14.6672 13.925 14.0702 13.925 13.3339L13.925 11.5296C13.925 10.8855 13.4683 10.3481 12.8611 10.2235L12.8611 9.77368ZM11.8416 10.1962L11.8419 9.77367C11.8419 9.37505 11.5403 9.04686 11.1529 9.00488L11.0686 9.00034C10.67 9.00034 10.3418 9.30195 10.2998 9.68941L10.2953 9.77367L10.295 10.1962L11.8416 10.1962ZM4.92849 11.5703L4.26182 11.5703C4.07782 11.5703 3.92849 11.4203 3.92849 11.2369L3.92849 10.5703C3.92849 10.3863 4.07782 10.2369 4.26182 10.2369L4.92849 10.2369C5.11249 10.2369 5.26182 10.3863 5.26182 10.5703L5.26182 11.2369C5.26182 11.4203 5.11249 11.5703 4.92849 11.5703ZM12.5917 11.1962L9.49837 11.1962C9.33473 11.1962 9.19863 11.3142 9.17041 11.4697L9.16504 11.5296L9.16504 13.3339C9.16504 13.4975 9.28295 13.6336 9.43845 13.6618L9.49837 13.6672L12.5917 13.6672C12.7553 13.6672 12.8914 13.5493 12.9197 13.3938L12.925 13.3339L12.925 11.5296C12.925 11.3659 12.8071 11.2298 12.6516 11.2016L12.5917 11.1962ZM11.4444 11.9317C11.7206 11.9317 11.9444 12.1556 11.9444 12.4317C11.9444 12.6849 11.7563 12.894 11.5123 12.9272L11.4444 12.9317L10.6844 12.9317C10.4083 12.9317 10.1844 12.7079 10.1844 12.4317C10.1844 12.1786 10.3725 11.9694 10.6166 11.9363L10.6844 11.9317L11.4444 11.9317Z" fill="rgb(25,25,25)" fill-rule="evenodd" />
</svg>
