<svg viewBox="0 0 16 16" xmlns="http://www.w3.org/2000/svg" xmlns:xlink="http://www.w3.org/1999/xlink" width="16.000000" height="16.000000" fill="none">
	<rect id="操作图标/批量操作(ipd-batch-process)" width="16.000000" height="16.000000" x="0.000000" y="0.000000" />
	<path id="矢量 809" d="M13.5 3.5C14.0523 3.5 14.5 3.94772 14.5 4.5L14.5 13.5C14.5 14.0523 14.0523 14.5 13.5 14.5L4.5 14.5C3.94772 14.5 3.5 14.0523 3.5 13.5L3.5 4.5C3.5 3.94772 3.94772 3.5 4.5 3.5L13.5 3.5ZM13.5 4.5L4.5 4.5L4.5 13.5L13.5 13.5L13.5 4.5ZM12 1.5C12.2761 1.5 12.5 1.72386 12.5 2C12.5 2.24546 12.3231 2.44961 12.0899 2.49194L12 2.5L3 2.5C2.75454 2.5 2.55039 2.67688 2.50806 2.91012L2.5 3L2.5 12C2.5 12.2761 2.27614 12.5 2 12.5C1.75454 12.5 1.55039 12.3231 1.50806 12.0899L1.5 12L1.5 3C1.5 2.2203 2.09489 1.57955 2.85554 1.50687L3 1.5L12 1.5ZM11.7787 6.83281C11.9554 7.00314 11.9797 7.27217 11.8483 7.46949L11.7917 7.53979L8.6663 10.7827C8.49373 10.9617 8.22044 10.984 8.02291 10.8478L7.95273 10.7893L6.14645 8.98297C5.95118 8.7877 5.95118 8.47112 6.14645 8.27586C6.32001 8.10229 6.58944 8.08301 6.78431 8.21801L6.85355 8.27586L8.299 9.722L11.0717 6.84585C11.2633 6.64702 11.5799 6.64118 11.7787 6.83281Z" fill="rgb(25,25,25)" fill-rule="nonzero" />
</svg>
