<svg width="16" height="16" viewBox="0 0 16 16" fill="none" xmlns="http://www.w3.org/2000/svg">
<path fill-rule="evenodd" clip-rule="evenodd" d="M12.8536 6.10364L8.7072 10.2501C8.65676 10.3005 8.60227 10.3447 8.54372 10.3826C8.49113 10.4167 8.43527 10.4457 8.37614 10.4697C8.31777 10.4934 8.25825 10.5113 8.19757 10.5235C8.13305 10.5365 8.06722 10.543 8.00009 10.543C7.93296 10.543 7.86714 10.5365 7.80261 10.5235C7.74194 10.5113 7.68242 10.4934 7.62405 10.4697C7.56492 10.4457 7.50905 10.4167 7.45646 10.3826C7.39792 10.3447 7.34343 10.3005 7.29299 10.2501L3.14654 6.10364C2.94855 5.90565 2.94855 5.59453 3.14654 5.39654C3.34453 5.19855 3.65566 5.19855 3.85365 5.39654L8.00009 9.54298L12.1465 5.39654C12.3445 5.19855 12.6557 5.19855 12.8536 5.39654C13.0516 5.59453 13.0516 5.90565 12.8536 6.10364Z" fill="#252B3A"/>
</svg>
