<svg viewBox="0 0 16 16" xmlns="http://www.w3.org/2000/svg" xmlns:xlink="http://www.w3.org/1999/xlink" width="16.000000" height="16.000000" fill="none">
	<rect id="操作图标/close" width="16.000000" height="16.000000" x="0.000000" y="0.000000" />
	<path id="形状结合" d="M3.28431 2.58859L8 7.293L12.6464 2.64645C12.8417 2.45118 13.1583 2.45118 13.3536 2.64645C13.5271 2.82001 13.5464 3.08944 13.4114 3.28431L8.707 8L13.3536 12.6464C13.5488 12.8417 13.5488 13.1583 13.3536 13.3536C13.18 13.5271 12.9106 13.5464 12.7157 13.4114L8 8.707L3.35355 13.3536C3.15829 13.5488 2.84171 13.5488 2.64645 13.3536C2.47288 13.18 2.4536 12.9106 2.58859 12.7157L7.293 8L2.64645 3.35355C2.45118 3.15829 2.45118 2.84171 2.64645 2.64645C2.82001 2.47288 3.08944 2.4536 3.28431 2.58859Z" fill="rgb(25,25,25)" fill-rule="evenodd" />
	<path id="形状结合" d="M8 7.293L12.6464 2.64645C12.8417 2.45118 13.1583 2.45118 13.3536 2.64645C13.5271 2.82001 13.5464 3.08944 13.4114 3.28431L8.707 8L13.3536 12.6464C13.5488 12.8417 13.5488 13.1583 13.3536 13.3536C13.18 13.5271 12.9106 13.5464 12.7157 13.4114L8 8.707L3.35355 13.3536C3.15829 13.5488 2.84171 13.5488 2.64645 13.3536C2.47288 13.18 2.4536 12.9106 2.58859 12.7157L7.293 8L2.64645 3.35355C2.45118 3.15829 2.45118 2.84171 2.64645 2.64645C2.82001 2.47288 3.08944 2.4536 3.28431 2.58859L8 7.293Z" fill-rule="evenodd" stroke="rgb(0,0,0)" stroke-opacity="0" stroke-width="1" />
</svg>
