<svg viewBox="0 0 16 16" xmlns="http://www.w3.org/2000/svg" xmlns:xlink="http://www.w3.org/1999/xlink" width="16.000000" height="16.000000" fill="none">
	<rect id="操作图标/代码展开到底" width="16.000000" height="16.000000" x="0.000000" y="0.000000" />
	<path id="形状结合" d="M10.6365 7.6058L8.343 11.4283C8.22934 11.6178 7.98363 11.6792 7.7942 11.5655C7.7379 11.5318 7.69078 11.4846 7.657 11.4283L5.36348 7.6058C5.24982 7.41637 5.31125 7.17066 5.50068 7.057C5.56284 7.0197 5.63398 7 5.70648 7L10.2935 7C10.5144 7 10.6935 7.17909 10.6935 7.4C10.6935 7.4725 10.6738 7.54363 10.6365 7.6058ZM14.5 4C14.7761 4 15 4.22386 15 4.5C15 4.77614 14.7761 5 14.5 5L1.5 5C1.22386 5 1 4.77614 1 4.5C1 4.22386 1.22386 4 1.5 4L14.5 4Z" fill="rgb(25,25,25)" fill-rule="evenodd" />
	<path id="形状结合" d="M8.343 11.4283C8.22934 11.6178 7.98363 11.6792 7.7942 11.5655C7.7379 11.5318 7.69078 11.4846 7.657 11.4283L5.36348 7.6058C5.24982 7.41637 5.31125 7.17066 5.50068 7.057C5.56284 7.0197 5.63398 7 5.70648 7L10.2935 7C10.5144 7 10.6935 7.17909 10.6935 7.4C10.6935 7.4725 10.6738 7.54363 10.6365 7.6058L8.343 11.4283ZM15 4.5C15 4.77614 14.7761 5 14.5 5L1.5 5C1.22386 5 1 4.77614 1 4.5C1 4.22386 1.22386 4 1.5 4L14.5 4C14.7761 4 15 4.22386 15 4.5Z" fill-rule="evenodd" stroke="rgb(0,0,0)" stroke-opacity="0" stroke-width="1" />
</svg>
