<svg viewBox="0 0 16 16" xmlns="http://www.w3.org/2000/svg" xmlns:xlink="http://www.w3.org/1999/xlink" width="16.000000" height="16.000000" fill="none">
	<rect id="操作图标/代码检查" width="16.000000" height="16.000000" x="0.000000" y="0.000000" />
	<path id="形状结合" d="M5.2 4.60003C5.42091 4.43434 5.73431 4.47911 5.9 4.70003C6.04728 4.89639 6.02826 5.16584 5.86707 5.33966L2.333 8.00003L5.8 10.6C5.99637 10.7473 6.05356 11.0113 5.94748 11.2233C5.8002 11.4197 5.48873 11.5536 5.27673 11.4475L1.2 8.40003C0.96 8.22003 0.936 7.87803 1.128 7.66563L5.2 4.60003ZM10.8 11.4C10.5791 11.5657 10.2657 11.5209 10.1 11.3C9.95275 11.1037 9.97176 10.8342 10.133 10.6604L13.667 8.00103L10.2 5.40003C10.0037 5.25275 9.94647 4.98876 10.0525 4.77676C10.1998 4.58039 10.5113 4.44646 10.7233 4.55254L14.8 7.60003C15.04 7.78003 15.064 8.12203 14.872 8.33443L10.8 11.4ZM8.56202 3.50389C8.80558 3.53433 8.98622 3.73516 8.99929 3.97186L7.99614 12.062C7.96189 12.3361 7.71199 12.5304 7.43798 12.4962C7.19442 12.4657 7.01378 12.2649 7.00071 12.0282L8.00386 3.93801C8.03431 3.69444 8.32532 3.51696 8.56202 3.50389Z" fill="rgb(25,25,25)" fill-rule="evenodd" />
	<path id="形状结合" d="M5.9 4.70003C6.04728 4.89639 6.02826 5.16584 5.86707 5.33966L2.333 8.00003L5.8 10.6C5.99637 10.7473 6.05356 11.0113 5.94748 11.2233C5.8002 11.4197 5.48873 11.5536 5.27673 11.4475L1.2 8.40003C0.96 8.22003 0.936 7.87803 1.128 7.66563L5.2 4.60003C5.42091 4.43434 5.73431 4.47911 5.9 4.70003ZM10.1 11.3C9.95275 11.1037 9.97176 10.8342 10.133 10.6604L13.667 8.00103L10.2 5.40003C10.0037 5.25275 9.94647 4.98876 10.0525 4.77676C10.1998 4.58039 10.5113 4.44646 10.7233 4.55254L14.8 7.60003C15.04 7.78003 15.064 8.12203 14.872 8.33443L10.8 11.4C10.5791 11.5657 10.2657 11.5209 10.1 11.3ZM8.99929 3.97186L7.99614 12.062C7.96189 12.3361 7.71199 12.5304 7.43798 12.4962C7.19442 12.4657 7.01378 12.2649 7.00071 12.0282L8.00386 3.93801C8.03431 3.69444 8.32532 3.51696 8.56202 3.50389C8.80558 3.53433 8.98622 3.73516 8.99929 3.97186Z" fill-rule="evenodd" stroke="rgb(0,0,0)" stroke-opacity="0" stroke-width="1" />
</svg>
