<svg viewBox="0 0 16 16" xmlns="http://www.w3.org/2000/svg" xmlns:xlink="http://www.w3.org/1999/xlink" width="16.000000" height="16.000000" fill="none">
	<rect id="操作图标/截止日期" width="16.000000" height="16.000000" x="0.000000" y="0.000000" />
	<path id="形状结合" d="M4 0.5C4 0.223858 4.22386 0 4.5 0C4.77614 0 5 0.223858 5 0.5L5 1L11 1L11 0.5C11 0.223858 11.2239 0 11.5 0C11.7761 0 12 0.223858 12 0.5L12 1L14 1C15.1046 1 16 1.89543 16 3L16 14C16 15.1046 15.1046 16 14 16L2 16C0.895431 16 0 15.1046 0 14L0 3C0 1.89543 0.895431 1 2 1L4 1L4 0.5ZM11 2L11 2.5C11 2.77614 11.2239 3 11.5 3C11.7761 3 12 2.77614 12 2.5L12 2L14 2C14.5523 2 15 2.44772 15 3L15 4L1 4L1 3C1 2.44772 1.44772 2 2 2L4 2L4 2.5C4 2.77614 4.22386 3 4.5 3C4.77614 3 5 2.77614 5 2.5L5 2L11 2ZM1 14L1 5L15 5L15 14C15 14.5523 14.5523 15 14 15L2 15C1.44772 15 1 14.5523 1 14ZM3.5 7C3.22386 7 3 7.22386 3 7.5C3 7.77614 3.22386 8 3.5 8L4.5 8C4.77614 8 5 7.77614 5 7.5C5 7.22386 4.77614 7 4.5 7L3.5 7ZM8.5 7L7.5 7C7.22386 7 7 7.22386 7 7.5C7 7.77614 7.22386 8 7.5 8L8.5 8C8.77614 8 9 7.77614 9 7.5C9 7.22386 8.77614 7 8.5 7ZM13 7.5C13 7.22386 12.7761 7 12.5 7L11.5 7C11.2239 7 11 7.22386 11 7.5C11 7.77614 11.2239 8 11.5 8L12.5 8C12.7761 8 13 7.77614 13 7.5ZM3.5 10C3.22386 10 3 10.2239 3 10.5C3 10.7761 3.22386 11 3.5 11L4.5 11C4.77614 11 5 10.7761 5 10.5C5 10.2239 4.77614 10 4.5 10L3.5 10ZM8.5 10L7.5 10C7.22386 10 7 10.2239 7 10.5C7 10.7761 7.22386 11 7.5 11L8.5 11C8.77614 11 9 10.7761 9 10.5C9 10.2239 8.77614 10 8.5 10ZM13 10.5C13 10.2239 12.7761 10 12.5 10L11.5 10C11.2239 10 11 10.2239 11 10.5C11 10.7761 11.2239 11 11.5 11L12.5 11C12.7761 11 13 10.7761 13 10.5Z" fill="rgb(25,25,25)" fill-rule="evenodd" />
</svg>
