<svg viewBox="0 0 16 16" xmlns="http://www.w3.org/2000/svg" xmlns:xlink="http://www.w3.org/1999/xlink" width="16.000000" height="16.000000" fill="none">
	<rect id="操作图标/英切中" width="16.000000" height="16.000000" x="0.000000" y="0.000000" />
	<path id="形状结合" d="M8.00072 5.60096C9.26877 5.60096 10.3091 6.58841 10.3936 7.83527L10.3991 7.99932L10.3991 13.6008C10.3991 14.8681 9.41164 15.9098 8.16477 15.9945L8.00072 16L2.39918 16C1.13189 16 0.0901588 15.0111 0.00554815 13.7648L0 13.6008L0 7.99932C0 6.73127 0.988926 5.69099 2.23522 5.6065L2.39918 5.60096L8.00072 5.60096ZM5.20718 7.53895L5.09317 7.54647C4.83222 7.58127 4.60978 7.7348 4.48869 7.96414L4.44318 8.06695L2.6416 13.0269C2.58777 13.3105 2.72072 13.6934 3.0008 13.7957C3.068 13.8197 3.1376 13.8317 3.2056 13.8317C3.42049 13.8317 3.62314 13.7153 3.72993 13.5233L4.07119 12.6061L6.34278 12.6061L6.64438 13.4365C6.73318 13.6797 6.96278 13.8317 7.20837 13.8317C7.27637 13.8317 7.34597 13.8197 7.41317 13.7957C7.69325 13.6934 7.85215 13.4046 7.79832 13.1209L5.97079 8.06695C5.85399 7.74535 5.55479 7.53895 5.20718 7.53895ZM5.2068 9.47972L5.90599 11.4061L4.50798 11.4061L5.2068 9.47972ZM13.6 0C14.8681 0 15.9098 0.988921 15.9945 2.23591L16 2.39996L16 8.00228C16 9.27033 15.0111 10.3121 13.7641 10.3967L13.6 10.4022L11.1992 10.4022L11.1992 9.20226L13.6 9.20226C14.2203 9.20226 14.7322 8.72907 14.7938 8.12478L14.8 8.00228L14.8 2.39996C14.8 1.77972 14.3268 1.26776 13.7225 1.20619L13.6 1.19998L7.99768 1.19998C7.37744 1.19998 6.86547 1.67318 6.8039 2.27746L6.79769 2.39996L6.79769 4.80073L5.5977 4.80073L5.5977 2.39996C5.5977 1.13192 6.58663 0.0901598 7.83362 0.00554818L7.99768 0L13.6 0ZM11.3447 2.37479L11.4131 2.82478L11.4695 3.27478L13.7943 3.27478L13.7943 4.22436L12.8951 4.22436C12.6111 5.20755 12.1863 5.97394 11.6199 6.52433C12.2199 6.89152 12.9695 7.16672 13.8695 7.34912C13.6199 7.68191 13.4111 8.00751 13.2447 8.3243C12.4539 8.08301 11.7708 7.80395 11.1953 7.4871L11.1975 7.19682C11.1975 6.70694 11.0501 6.25105 10.7974 5.87114C11.2613 5.42435 11.5861 4.87395 11.7701 4.22436L9.81967 4.22436C9.98832 4.69495 10.2053 5.11348 10.4708 5.47965C10.0821 5.09993 9.56533 4.85194 8.99218 4.80614L8.885 4.68401C8.86903 4.64337 8.85332 4.60241 8.83786 4.56111L8.71992 4.22436L7.81993 4.22436L7.81993 3.27478L10.3447 3.27478C10.3279 3.17478 10.2943 3.03318 10.2447 2.84918C10.2178 2.68919 10.191 2.56656 10.1645 2.48132L11.3447 2.37479Z" fill="rgb(25,25,25)" fill-rule="nonzero" />
	<path id="形状结合" d="M10.3936 7.83527L10.3991 7.99932L10.3991 13.6008C10.3991 14.8681 9.41164 15.9098 8.16477 15.9945L8.00072 16L2.39918 16C1.13189 16 0.0901588 15.0111 0.00554815 13.7648L0 13.6008L0 7.99932C0 6.73127 0.988926 5.69099 2.23522 5.6065L2.39918 5.60096L8.00072 5.60096C9.26877 5.60096 10.3091 6.58841 10.3936 7.83527ZM5.09317 7.54647C4.83222 7.58127 4.60978 7.7348 4.48869 7.96414L4.44318 8.06695L2.6416 13.0269C2.58777 13.3105 2.72072 13.6934 3.0008 13.7957C3.068 13.8197 3.1376 13.8317 3.2056 13.8317C3.42049 13.8317 3.62314 13.7153 3.72993 13.5233L4.07119 12.6061L6.34278 12.6061L6.64438 13.4365C6.73318 13.6797 6.96278 13.8317 7.20837 13.8317C7.27637 13.8317 7.34597 13.8197 7.41317 13.7957C7.69325 13.6934 7.85215 13.4046 7.79832 13.1209L5.97079 8.06695C5.85399 7.74535 5.55479 7.53895 5.20718 7.53895L5.09317 7.54647ZM5.90599 11.4061L4.50798 11.4061L5.2068 9.47972L5.90599 11.4061ZM15.9945 2.23591L16 2.39996L16 8.00228C16 9.27033 15.0111 10.3121 13.7641 10.3967L13.6 10.4022L11.1992 10.4022L11.1992 9.20226L13.6 9.20226C14.2203 9.20226 14.7322 8.72907 14.7938 8.12478L14.8 8.00228L14.8 2.39996C14.8 1.77972 14.3268 1.26776 13.7225 1.20619L13.6 1.19998L7.99768 1.19998C7.37744 1.19998 6.86547 1.67318 6.8039 2.27746L6.79769 2.39996L6.79769 4.80073L5.5977 4.80073L5.5977 2.39996C5.5977 1.13192 6.58663 0.0901598 7.83362 0.00554818L7.99768 0L13.6 0C14.8681 0 15.9098 0.988921 15.9945 2.23591ZM11.4131 2.82478L11.4695 3.27478L13.7943 3.27478L13.7943 4.22436L12.8951 4.22436C12.6111 5.20755 12.1863 5.97394 11.6199 6.52433C12.2199 6.89152 12.9695 7.16672 13.8695 7.34912C13.6199 7.68191 13.4111 8.00751 13.2447 8.3243C12.4539 8.08301 11.7708 7.80395 11.1953 7.4871L11.1975 7.19682C11.1975 6.70694 11.0501 6.25105 10.7974 5.87114C11.2613 5.42435 11.5861 4.87395 11.7701 4.22436L9.81967 4.22436C9.98832 4.69495 10.2053 5.11348 10.4708 5.47965C10.0821 5.09993 9.56533 4.85194 8.99218 4.80614L8.885 4.68401C8.86903 4.64337 8.85332 4.60241 8.83786 4.56111L8.71992 4.22436L7.81993 4.22436L7.81993 3.27478L10.3447 3.27478C10.3279 3.17478 10.2943 3.03318 10.2447 2.84918C10.2178 2.68919 10.191 2.56656 10.1645 2.48132L11.3447 2.37479L11.4131 2.82478Z" fill-rule="nonzero" stroke="rgb(0,0,0)" stroke-opacity="0" stroke-width="1" />
</svg>
