<svg viewBox="0 0 16 16" xmlns="http://www.w3.org/2000/svg" xmlns:xlink="http://www.w3.org/1999/xlink" width="16.000000" height="16.000000" fill="none">
	<rect id="操作图标/执行" width="16.000000" height="16.000000" x="0.000000" y="0.000000" />
	<path id="形状结合" d="M13.849 8.49989C13.7688 8.62914 13.6601 8.7384 13.5314 8.81938L4.53438 13.8462C4.06614 14.1407 3.44795 13.9996 3.1536 13.5311C3.05324 13.3713 3 13.1865 3 12.9978L3 3.0021C3 2.44866 3.44835 2 4.00141 2C4.18821 2 4.37129 2.05228 4.52996 2.15095L13.527 7.11984C13.9967 7.41194 14.1409 8.02981 13.849 8.49989ZM12.6833 7.79693L4.2981 3.16596C4.20141 3.11256 4.07974 3.14765 4.02634 3.24434L4.00141 12.6569C4.00141 12.7674 4.09096 12.8569 4.20141 12.8569L12.6841 8.1466C12.7806 8.09272 12.7372 7.89336 12.6833 7.79693Z" fill="rgb(25,25,25)" fill-rule="evenodd" />
	<path id="形状结合" d="M13.5314 8.81938L4.53438 13.8462C4.06614 14.1407 3.44795 13.9996 3.1536 13.5311C3.05324 13.3713 3 13.1865 3 12.9978L3 3.0021C3 2.44866 3.44835 2 4.00141 2C4.18821 2 4.37129 2.05228 4.52996 2.15095L13.527 7.11984C13.9967 7.41194 14.1409 8.02981 13.849 8.49989C13.7688 8.62914 13.6601 8.7384 13.5314 8.81938ZM4.2981 3.16596C4.20141 3.11256 4.07974 3.14765 4.02634 3.24434L4.00141 12.6569C4.00141 12.7674 4.09096 12.8569 4.20141 12.8569L12.6841 8.1466C12.7806 8.09272 12.7372 7.89336 12.6833 7.79693L4.2981 3.16596Z" fill-rule="evenodd" stroke="rgb(0,0,0)" stroke-opacity="0" stroke-width="1" />
</svg>
