<svg viewBox="0 0 16 16" xmlns="http://www.w3.org/2000/svg" xmlns:xlink="http://www.w3.org/1999/xlink" width="16.000000" height="16.000000" fill="none">
	<rect id="操作图标/文件" width="16.000000" height="16.000000" x="0.000000" y="0.000000" />
	<path id="形状结合" d="M10 1L14 5L14 14C14 14.5523 13.5523 15 13 15L3 15C2.44772 15 2 14.5523 2 14L2 2C2 1.44772 2.44772 1 3 1L10 1ZM9 2L3 2L3 14L13 14L13 6L9 6L9 2ZM5.28431 6.58859L7.35355 8.64645C7.52712 8.82001 7.5464 9.08944 7.41141 9.28431L5.35355 11.3536C5.15829 11.5488 4.84171 11.5488 4.64645 11.3536C4.47288 11.18 4.4536 10.9106 4.58859 10.7157L6.293 9L4.64645 7.35355C4.47288 7.17999 4.4536 6.91056 4.58859 6.71569C4.76216 6.54213 5.08944 6.4536 5.28431 6.58859ZM11 10L11 11L8 11L8 10L11 10ZM10 2.416L10 5L12.586 5L10 2.416Z" fill="rgb(25,25,25)" fill-rule="evenodd" />
	<path id="形状结合" d="M14 5L14 14C14 14.5523 13.5523 15 13 15L3 15C2.44772 15 2 14.5523 2 14L2 2C2 1.44772 2.44772 1 3 1L10 1L14 5ZM3 2L3 14L13 14L13 6L9 6L9 2L3 2ZM7.35355 8.64645C7.52712 8.82001 7.5464 9.08944 7.41141 9.28431L5.35355 11.3536C5.15829 11.5488 4.84171 11.5488 4.64645 11.3536C4.47288 11.18 4.4536 10.9106 4.58859 10.7157L6.293 9L4.64645 7.35355C4.47288 7.17999 4.4536 6.91056 4.58859 6.71569C4.76216 6.54213 5.08944 6.4536 5.28431 6.58859L7.35355 8.64645ZM11 11L8 11L8 10L11 10L11 11ZM10 5L12.586 5L10 2.416L10 5Z" fill-rule="evenodd" stroke="rgb(0,0,0)" stroke-opacity="0" stroke-width="1" />
</svg>
