<svg viewBox="0 0 16 16" xmlns="http://www.w3.org/2000/svg" xmlns:xlink="http://www.w3.org/1999/xlink" width="16.000000" height="16.000000" fill="none">
	<rect id="操作图标/筛选-面性" width="16.000000" height="16.000000" x="0.000000" y="0.000000" />
	<path id="形状结合" d="M2.55733 1.00122L13.4373 1.00122C13.9673 1.00122 14.3973 1.42122 14.3973 1.95122C14.3973 2.19122 14.2973 2.42122 14.1373 2.59122L9.90733 7.17122L9.90733 12.2512C9.90733 12.5812 9.74733 12.8812 9.47733 13.0512L6.52733 14.9512C6.37733 15.0412 6.18733 15.0012 6.08733 14.8512C6.05733 14.8012 6.03733 14.7412 6.03733 14.6812L6.03733 7.17122L1.84733 2.59122C1.49733 2.20122 1.52733 1.60122 1.90733 1.24122C2.08733 1.08122 2.31733 1.00122 2.55733 1.00122Z" fill="rgb(25,25,25)" fill-rule="evenodd" />
</svg>
