<svg viewBox="0 0 16 16" xmlns="http://www.w3.org/2000/svg" xmlns:xlink="http://www.w3.org/1999/xlink" width="16.000000" height="16.000000" fill="none">
	<rect id="操作图标/关注我们" width="16.000000" height="16.000000" x="0.000000" y="0.000000" />
	<path id="形状结合" d="M7.98356 1.41992C10.0086 1.41992 11.6502 3.06159 11.6502 5.08659C11.6502 6.40309 10.9566 7.55742 9.91473 8.20409C10.7923 8.4694 11.6054 8.91343 12.3031 9.50826C12.4391 9.62407 12.503 9.80366 12.4707 9.97937C12.4384 10.1551 12.3149 10.3002 12.1466 10.3601C11.9782 10.42 11.7908 10.3856 11.6547 10.2698C10.6311 9.3964 9.3291 8.91765 7.98356 8.91992C5.03556 8.91992 2.58623 11.1804 2.33756 14.0983C2.31129 14.371 2.07044 14.5718 1.79745 14.5485C1.52446 14.5253 1.32102 14.2867 1.34123 14.0134C1.57739 11.2428 3.49823 8.97676 6.05289 8.20426C5.01106 7.55792 4.31689 6.40326 4.31689 5.08659C4.31689 3.06159 5.95856 1.41992 7.98356 1.41992ZM14.4827 11.2228C14.5762 11.3108 14.6458 11.4494 14.6458 11.5778C14.6458 11.7062 14.5928 11.8289 14.4994 11.9169L11.9641 14.3069C11.8682 14.3975 11.7403 14.4464 11.6084 14.4429C11.4765 14.4464 11.3485 14.3975 11.2526 14.3069L9.79656 12.9344C9.7031 12.8464 9.65012 12.7237 9.65012 12.5953C9.65012 12.4669 9.7031 12.3441 9.79656 12.2561C9.98917 12.0745 10.3068 12.0587 10.4994 12.2403L11.6084 13.2856L13.7967 11.2228C13.9893 11.0412 14.2901 11.0412 14.4827 11.2228ZM7.98356 2.41992C6.51073 2.41992 5.31689 3.61376 5.31689 5.08659C5.31689 6.55942 6.51073 7.75326 7.98356 7.75326C9.45639 7.75326 10.6502 6.55942 10.6502 5.08659C10.6502 3.61376 9.45639 2.41992 7.98356 2.41992Z" fill="rgb(25,25,25)" fill-rule="evenodd" />
</svg>
