<svg viewBox="0 0 16 16" xmlns="http://www.w3.org/2000/svg" xmlns:xlink="http://www.w3.org/1999/xlink" width="16.000000" height="16.000000" fill="none">
	<rect id="操作图标/导入" width="16.000000" height="16.000000" x="0.000000" y="0.000000" />
	<path id="形状结合" d="M6.33333 1.5C6.60948 1.5 6.83333 1.72386 6.83333 2C6.83333 2.24546 6.65646 2.44961 6.42321 2.49194L3 2.5C2.75454 2.5 2.55039 2.67688 2.50806 2.91012L2.5 13C2.5 13.2455 2.67687 13.4496 2.91012 13.4919L13 13.5C13.2455 13.5 13.4496 13.3231 13.4919 13.0899L13.5 9.66667C13.5 9.39052 13.7239 9.16667 14 9.16667C14.2455 9.16667 14.4496 9.34354 14.4919 9.57679L14.5 13C14.5 13.7797 13.9051 14.4205 13.1445 14.4931L13 14.5L3 14.5C2.2203 14.5 1.57955 13.9051 1.50687 13.1445L1.5 13L1.5 3C1.5 2.22031 2.09489 1.57955 2.85554 1.50687L3 1.5L6.33333 1.5ZM14.0911 2.14764C14.1937 2.40403 14.069 2.69501 13.8126 2.79757L13.3767 2.97626C13.3066 3.00583 13.2376 3.03532 13.1697 3.06479L12.7765 3.24164C12.7131 3.27118 12.6509 3.3008 12.5897 3.33053L12.235 3.51066C10.6925 4.3309 9.86126 5.30429 8.99998 7.36585L8.80779 7.84227L8.61281 8.35679L8.41322 8.9117L8.20722 9.50928L11.049 8.59867C11.2819 8.52105 11.5315 8.62429 11.6454 8.83218C11.723 9.06505 11.6559 9.39737 11.448 9.51129L7.36525 10.8807C7.13239 10.9583 6.88279 10.8551 6.76886 10.6472L5.39947 6.56446C5.31214 6.30249 5.45372 6.01933 5.71569 5.93201C5.94856 5.85438 6.19816 5.95763 6.31209 6.16552L7.295 9.089L7.37503 8.85326L7.5915 8.24218L7.8038 7.6731L8.01372 7.14377C9.13017 4.42272 10.2222 3.30267 12.5204 2.25961L12.9658 2.06456L13.4412 1.86909C13.6976 1.76654 13.9886 1.89124 14.0911 2.14764Z" fill="rgb(25,25,25)" fill-rule="nonzero" />
	<path id="形状结合" d="M6.83333 2C6.83333 2.24546 6.65646 2.44961 6.42321 2.49194L3 2.5C2.75454 2.5 2.55039 2.67688 2.50806 2.91012L2.5 13C2.5 13.2455 2.67687 13.4496 2.91012 13.4919L13 13.5C13.2455 13.5 13.4496 13.3231 13.4919 13.0899L13.5 9.66667C13.5 9.39052 13.7239 9.16667 14 9.16667C14.2455 9.16667 14.4496 9.34354 14.4919 9.57679L14.5 13C14.5 13.7797 13.9051 14.4205 13.1445 14.4931L13 14.5L3 14.5C2.2203 14.5 1.57955 13.9051 1.50687 13.1445L1.5 13L1.5 3C1.5 2.22031 2.09489 1.57955 2.85554 1.50687L3 1.5L6.33333 1.5C6.60948 1.5 6.83333 1.72386 6.83333 2ZM13.8126 2.79757L13.3767 2.97626C13.3066 3.00583 13.2376 3.03532 13.1697 3.06479L12.7765 3.24164C12.7131 3.27118 12.6509 3.3008 12.5897 3.33053L12.235 3.51066C10.6925 4.3309 9.86126 5.30429 8.99998 7.36585L8.80779 7.84227L8.61281 8.35679L8.41322 8.9117L8.20722 9.50928L11.049 8.59867C11.2819 8.52105 11.5315 8.62429 11.6454 8.83218C11.723 9.06505 11.6559 9.39737 11.448 9.51129L7.36525 10.8807C7.13239 10.9583 6.88279 10.8551 6.76886 10.6472L5.39947 6.56446C5.31214 6.30249 5.45372 6.01933 5.71569 5.93201C5.94856 5.85438 6.19816 5.95763 6.31209 6.16552L7.295 9.089L7.37503 8.85326L7.5915 8.24218L7.8038 7.6731L8.01372 7.14377C9.13017 4.42272 10.2222 3.30267 12.5204 2.25961L12.9658 2.06456L13.4412 1.86909C13.6976 1.76654 13.9886 1.89124 14.0911 2.14764C14.1937 2.40403 14.069 2.69501 13.8126 2.79757Z" fill-rule="nonzero" stroke="rgb(0,0,0)" stroke-opacity="0" stroke-width="1" />
</svg>
