<svg viewBox="0 0 16 16" xmlns="http://www.w3.org/2000/svg" xmlns:xlink="http://www.w3.org/1999/xlink" width="16.000000" height="16.000000" fill="none">
	<rect id="操作图标/跳转" width="16.000000" height="16.000000" x="0.000000" y="0.000000" />
	<path id="形状结合" d="M14.4819 2C14.7362 2 14.9478 2.1833 14.9917 2.42501L15 10.8085C15 11.0947 14.768 11.3267 14.4819 11.3267C14.2275 11.3267 14.0159 11.1434 13.9721 10.9017L13.9629 3.84107C12.7294 6.10814 11.2222 8.13257 9.4419 9.91285C7.50617 11.8486 5.30705 13.5199 2.84579 14.9263C2.57475 15.0812 2.22946 14.9871 2.07457 14.716C1.91969 14.445 2.01386 14.0997 2.28491 13.9448C4.6597 12.5878 6.77849 10.9775 8.64251 9.11346C10.4141 7.34192 11.9034 5.31715 13.1113 3.03744L6.19147 3.0363C5.9371 3.0363 5.72554 2.853 5.68167 2.61129C5.68167 2.35692 5.85662 2.05222 6.09833 2.00835L14.4819 2Z" opacity="0" fill="rgb(25,25,25)" fill-rule="nonzero" />
	<path id="形状结合" d="M14.9917 2.42501L15 10.8085C15 11.0947 14.768 11.3267 14.4819 11.3267C14.2275 11.3267 14.0159 11.1434 13.9721 10.9017L13.9629 3.84107C12.7294 6.10814 11.2222 8.13257 9.4419 9.91285C7.50617 11.8486 5.30705 13.5199 2.84579 14.9263C2.57475 15.0812 2.22946 14.9871 2.07457 14.716C1.91969 14.445 2.01386 14.0997 2.28491 13.9448C4.6597 12.5878 6.77849 10.9775 8.64251 9.11346C10.4141 7.34192 11.9034 5.31715 13.1113 3.03744L6.19147 3.0363C5.9371 3.0363 5.72554 2.853 5.68167 2.61129C5.68167 2.35692 5.85662 2.05222 6.09833 2.00835L14.4819 2C14.7362 2 14.9478 2.1833 14.9917 2.42501Z" opacity="0" fill-rule="nonzero" stroke="rgb(0,0,0)" stroke-opacity="0" stroke-width="1" />
	<path id="jump-to" d="M6.91667 2L6.91667 3.08333L4.20833 3.08333C3.35813 3.08333 2.66886 3.72258 2.59071 4.55092L2.58333 4.70833L2.58333 12.2917C2.58333 13.1356 3.22626 13.8304 4.05157 13.9092L4.20833 13.9167L11.7917 13.9167C12.6317 13.9167 13.3299 13.2678 13.4092 12.4474L13.4167 12.2917L13.4167 9.58333L14.5 9.58333L14.5 12.2917C14.5 13.7229 13.3779 14.9022 11.9692 14.9942L11.7917 15L4.20833 15C2.76993 15 1.59726 13.881 1.50575 12.4696L1.5 12.2917L1.5 4.70833C1.5 3.26675 2.61208 2.09701 4.02961 2.00573L4.20833 2L6.91667 2ZM13.9583 2C14.2242 2 14.4454 2.19161 14.4913 2.4443L14.5 6.33333L13.4167 6.33333L13.4167 3.846L8.20934 9.04585L7.44399 8.27915L12.6475 3.08333L10.1667 3.08333L10.1667 2L13.9583 2Z" fill="rgb(25,25,25)" fill-rule="nonzero" />
	<path id="jump-to" d="M6.91667 3.08333L4.20833 3.08333C3.35813 3.08333 2.66886 3.72258 2.59071 4.55092L2.58333 4.70833L2.58333 12.2917C2.58333 13.1356 3.22626 13.8304 4.05157 13.9092L4.20833 13.9167L11.7917 13.9167C12.6317 13.9167 13.3299 13.2678 13.4092 12.4474L13.4167 12.2917L13.4167 9.58333L14.5 9.58333L14.5 12.2917C14.5 13.7229 13.3779 14.9022 11.9692 14.9942L11.7917 15L4.20833 15C2.76993 15 1.59726 13.881 1.50575 12.4696L1.5 12.2917L1.5 4.70833C1.5 3.26675 2.61208 2.09701 4.02961 2.00573L4.20833 2L6.91667 2L6.91667 3.08333ZM14.4913 2.4443L14.5 6.33333L13.4167 6.33333L13.4167 3.846L8.20934 9.04585L7.44399 8.27915L12.6475 3.08333L10.1667 3.08333L10.1667 2L13.9583 2C14.2242 2 14.4454 2.19161 14.4913 2.4443Z" fill-rule="nonzero" stroke="rgb(0,0,0)" stroke-opacity="0" stroke-width="1" />
</svg>
