<svg viewBox="0 0 16 16" xmlns="http://www.w3.org/2000/svg" xmlns:xlink="http://www.w3.org/1999/xlink" width="16.000000" height="16.000000" fill="none">
	<rect id="操作图标/位置(location-new)" width="16.000000" height="16.000000" x="0.000000" y="0.000000" />
	<g id="DevUI风格图标汇总-220907">
		<g id="API-starter-图标入库记录-220919">
			<g id="project/收藏">
				<path id="形状结合" d="M8 1C11.3137 1 14 3.68629 14 7C14 9.07607 12.2337 11.8506 8.70106 15.3236C8.34189 15.6767 7.78264 15.7038 7.39269 15.4051L7.29895 15.3236L6.98266 15.0098C3.66089 11.6831 2 9.01316 2 7C2 3.68629 4.68629 1 8 1ZM8 2C5.23858 2 3 4.23858 3 7C3 8.61779 4.44368 10.9907 7.38758 13.9971L7.68697 14.2999L8 14.6105L8.30031 14.3126C11.4534 11.1561 13 8.67589 13 7C13 4.23858 10.7614 2 8 2ZM8 4C9.65685 4 11 5.34315 11 7C11 8.65685 9.65685 10 8 10C6.34315 10 5 8.65685 5 7C5 5.34315 6.34315 4 8 4ZM8 5C6.89543 5 6 5.89543 6 7C6 8.10457 6.89543 9 8 9C9.10457 9 10 8.10457 10 7C10 5.89543 9.10457 5 8 5Z" fill="rgb(25,25,25)" fill-rule="nonzero" />
			</g>
		</g>
	</g>
</svg>
