<svg viewBox="0 0 16 16" xmlns="http://www.w3.org/2000/svg" xmlns:xlink="http://www.w3.org/1999/xlink" width="16.000000" height="16.000000" fill="none">
	<rect id="操作图标/最小化" width="16.000000" height="16.000000" x="0.000000" y="0.000000" />
	<path id="形状结合" d="M0.646295 0.646417C0.448305 0.844407 0.448305 1.15553 0.646295 1.35352L5.79274 6.49997L2.01457 6.49997C1.73457 6.49997 1.51457 6.71997 1.51457 6.99997C1.51457 7.27997 1.73457 7.49997 2.01457 7.49997L6.99985 7.49997Q7.20695 7.49997 7.3534 7.35352Q7.49985 7.20708 7.49985 6.99997L7.49985 2.01269C7.49985 1.73269 7.27985 1.51269 6.99985 1.51269C6.71985 1.51269 6.49985 1.73269 6.49985 2.01269L6.49985 5.79286L1.3534 0.646417C1.15541 0.448427 0.844285 0.448427 0.646295 0.646417ZM10.207 9.49997L13.9851 9.49997C14.2651 9.49997 14.4851 9.27997 14.4851 8.99997C14.4851 8.71997 14.2651 8.49997 13.9851 8.49997L8.99985 8.49997Q8.79274 8.49997 8.64629 8.64642Q8.49985 8.79286 8.49985 8.99997L8.49985 13.9872C8.49985 14.2672 8.71985 14.4872 8.99985 14.4872C9.27985 14.4872 9.49985 14.2672 9.49985 13.9872L9.49985 10.2071L14.6463 15.3535C14.8443 15.5515 15.1554 15.5515 15.3534 15.3535C15.5514 15.1555 15.5514 14.8444 15.3534 14.6464L10.207 9.49997Z" fill="rgb(25,25,25)" fill-rule="evenodd" />
</svg>
