<svg viewBox="0 0 16 16" xmlns="http://www.w3.org/2000/svg" xmlns:xlink="http://www.w3.org/1999/xlink" width="16.000000" height="16.000000" fill="none">
	<rect id="操作图标/通知" width="16.000000" height="16.000000" x="0.000000" y="0.000000" />
	<path id="形状结合" d="M13.6486 9.15544C13.6165 9.0787 13.6002 8.99731 13.5995 8.91127L13.5826 6.82029C13.5819 6.77607 13.5785 6.62956 13.578 6.53898C13.5773 6.40513 13.5766 6.16291 13.5759 5.8123C13.5753 5.09232 13.4357 4.40322 13.157 3.74501C12.888 3.10945 12.5086 2.54666 12.0188 2.05662C11.7582 1.79596 11.4771 1.56658 11.1755 1.36848C10.91 1.19406 10.6285 1.04389 10.3311 0.917959C10.032 0.791329 9.72659 0.693473 9.41478 0.624391C9.04048 0.541464 8.65699 0.5 8.26431 0.5C7.86827 0.5 7.48161 0.542073 7.10434 0.626217C6.79542 0.695116 6.4928 0.792222 6.19647 0.917535C5.89606 1.04457 5.61193 1.19631 5.34407 1.37275C5.04521 1.5696 4.76661 1.7972 4.50826 2.05555C4.24991 2.3139 4.02231 2.5925 3.82545 2.89136C3.64901 3.15922 3.49728 3.44336 3.37024 3.74376C3.24493 4.04009 3.14783 4.3427 3.07893 4.65161C2.99478 5.02889 2.95271 5.41555 2.95271 5.8116L2.95271 8.87568C2.95271 8.97531 2.93193 9.06993 2.89039 9.15951L1.54683 12.0413C1.53122 12.0748 1.51951 12.1091 1.51171 12.1443C1.5039 12.1796 1.5 12.2156 1.5 12.2526C1.5 12.5859 1.66667 12.7526 2 12.7526L5.43885 12.7526C5.43925 13.1242 5.51141 13.48 5.65533 13.8201C5.72123 13.9758 5.79993 14.1231 5.89145 14.2619C5.99332 14.4164 6.11107 14.5605 6.2447 14.6942C6.49835 14.9478 6.7897 15.1443 7.11877 15.2835C7.45979 15.4278 7.81666 15.5 8.18936 15.5C8.56207 15.5 8.91893 15.4278 9.25996 15.2835C9.58902 15.1443 9.88038 14.9478 10.134 14.6942C10.2676 14.5605 10.3854 14.4165 10.4873 14.2619C10.5788 14.1231 10.6575 13.9758 10.7234 13.8201C10.8673 13.48 10.9395 13.1242 10.9399 12.7526L14.3778 12.7526C14.4435 12.7526 14.5067 12.7401 14.5675 12.7152C14.8759 12.5888 14.9669 12.3714 14.8405 12.0629L13.6486 9.15544ZM6.43956 12.8005C6.44567 13.0195 6.49124 13.2294 6.57626 13.4304C6.61683 13.5262 6.66508 13.6171 6.72099 13.703C6.78718 13.8047 6.86412 13.8994 6.9518 13.987C7.11356 14.1488 7.29913 14.274 7.5085 14.3626C7.60286 14.4025 7.69921 14.4338 7.79755 14.4563C7.92482 14.4854 8.05542 14.5 8.18936 14.5C8.42681 14.5 8.65376 14.4542 8.87023 14.3626C9.0796 14.274 9.26517 14.1488 9.42692 13.987C9.58868 13.8253 9.71386 13.6397 9.80247 13.4304C9.88749 13.2294 9.93306 13.0195 9.93917 12.8005L6.43956 12.8005ZM12.5996 8.91885C12.6012 9.1359 12.6434 9.34349 12.726 9.54113L13.6325 11.7526L2.78478 11.7526L3.79673 9.58207C3.90071 9.35784 3.95271 9.12238 3.95271 8.87568L3.95271 5.8116C3.95271 5.22644 4.06556 4.66699 4.29127 4.13325C4.39299 3.89272 4.51425 3.66501 4.65507 3.45012C4.81623 3.20418 5.00299 2.97503 5.21536 2.76266C5.42774 2.55028 5.6569 2.36351 5.90284 2.20236C6.11773 2.06154 6.34544 1.94028 6.58596 1.83857C6.82007 1.73956 7.05913 1.66227 7.30314 1.6067C7.61543 1.53557 7.93582 1.5 8.26431 1.5C8.58936 1.5 8.90651 1.53493 9.21578 1.60479C9.4626 1.66055 9.70441 1.73855 9.94118 1.83881C10.1788 1.93941 10.4039 2.05912 10.6165 2.19793C10.8652 2.36032 11.0969 2.54886 11.3115 2.76356C11.5235 2.97571 11.7101 3.20457 11.8712 3.45015C12.0124 3.66553 12.1341 3.89376 12.2361 4.13485C12.4622 4.66873 12.5754 5.22817 12.5759 5.81315C12.5766 6.16571 12.5773 6.4095 12.578 6.54452C12.5785 6.63853 12.5792 6.70931 12.5799 6.75686L12.5996 8.91885Z" fill="rgb(25,25,25)" fill-rule="evenodd" />
</svg>
