<svg viewBox="0 0 16 16" xmlns="http://www.w3.org/2000/svg" xmlns:xlink="http://www.w3.org/1999/xlink" width="16.000000" height="16.000000" fill="none">
	<rect id="操作图标/个人资料" width="16.000000" height="16.000000" x="0.000000" y="0.000000" />
	<path id="形状结合" d="M7.5 1.5C9.70914 1.5 11.5 3.29086 11.5 5.5C11.5 6.97067 10.7063 8.25596 9.52392 8.95092C10.2452 9.28976 10.8878 9.81364 11.398 10.4847C11.5652 10.7045 11.5225 11.0182 11.3026 11.1853C11.0828 11.3525 10.7691 11.3098 10.602 11.0899C9.83856 10.0859 8.72496 9.5 7.52928 9.5C5.3156 9.5 3.5 11.5043 3.5 14C3.5 14.2761 3.27614 14.5 3 14.5C2.72386 14.5 2.5 14.2761 2.5 14C2.5 11.7567 3.73018 9.8178 5.50239 8.9641C4.30523 8.27459 3.5 6.98133 3.5 5.5C3.5 3.29086 5.29086 1.5 7.5 1.5ZM12.6503 11.1089C12.7958 10.9637 13.0318 10.9637 13.1773 11.1089L13.3091 11.241C13.4547 11.3863 13.4547 11.6226 13.3091 11.7682L11.2419 13.8351C11.0963 13.9808 10.3012 14.5401 10.1559 14.3943L10.024 14.2626C9.87843 14.1169 10.4375 13.3217 10.5831 13.1764L12.6503 11.1089ZM7.5 2.5C5.84315 2.5 4.5 3.84315 4.5 5.5C4.5 7.15685 5.84315 8.5 7.5 8.5C9.15685 8.5 10.5 7.15685 10.5 5.5C10.5 3.84315 9.15685 2.5 7.5 2.5Z" fill="rgb(25,25,25)" fill-rule="evenodd" />
	<path id="形状结合" d="M11.5 5.5C11.5 6.97067 10.7063 8.25596 9.52392 8.95092C10.2452 9.28976 10.8878 9.81364 11.398 10.4847C11.5652 10.7045 11.5225 11.0182 11.3026 11.1853C11.0828 11.3525 10.7691 11.3098 10.602 11.0899C9.83856 10.0859 8.72496 9.5 7.52928 9.5C5.3156 9.5 3.5 11.5043 3.5 14C3.5 14.2761 3.27614 14.5 3 14.5C2.72386 14.5 2.5 14.2761 2.5 14C2.5 11.7567 3.73018 9.8178 5.50239 8.9641C4.30523 8.27459 3.5 6.98133 3.5 5.5C3.5 3.29086 5.29086 1.5 7.5 1.5C9.70914 1.5 11.5 3.29086 11.5 5.5ZM13.1773 11.1089L13.3091 11.241C13.4547 11.3863 13.4547 11.6226 13.3091 11.7682L11.2419 13.8351C11.0963 13.9808 10.3012 14.5401 10.1559 14.3943L10.024 14.2626C9.87843 14.1169 10.4375 13.3217 10.5831 13.1764L12.6503 11.1089C12.7958 10.9637 13.0318 10.9637 13.1773 11.1089ZM4.5 5.5C4.5 7.15685 5.84315 8.5 7.5 8.5C9.15685 8.5 10.5 7.15685 10.5 5.5C10.5 3.84315 9.15685 2.5 7.5 2.5C5.84315 2.5 4.5 3.84315 4.5 5.5Z" fill-rule="evenodd" stroke="rgb(0,0,0)" stroke-opacity="0" stroke-width="1" />
</svg>
