<svg viewBox="0 0 16 16" xmlns="http://www.w3.org/2000/svg" xmlns:xlink="http://www.w3.org/1999/xlink" width="16.000000" height="16.000000" fill="none">
	<rect id="操作图标/项目" width="16.000000" height="16.000000" x="0.000000" y="0.000000" />
	<path id="形状结合" d="M12 8.5C13.9327 8.5 15.5 10.0676 15.5 12.0005C15.5 13.9333 13.9328 15.5 12 15.5C10.0673 15.5 8.5 13.9324 8.5 11.9995C8.5 10.0667 10.0672 8.5 12 8.5ZM12 1C13.0544 1 13.9182 1.81588 13.9945 2.85074L14 3L14 7.5C14 7.77614 13.7761 8 13.5 8C13.2545 8 13.0504 7.82312 13.0081 7.58988L13 3C13 2.48716 12.614 2.06449 12.1166 2.00673L12 2L4 2C3.48716 2 3.06449 2.38604 3.00673 2.88338L3 3L3 13C3 13.5128 3.38604 13.9355 3.88338 13.9933L4 14L8 14C8.27614 14 8.5 14.2239 8.5 14.5C8.5 14.7455 8.32312 14.9496 8.08988 14.9919L4 15C2.94564 15 2.08183 14.1841 2.00549 13.1493L2 13L2 3C2 1.94564 2.81588 1.08183 3.85074 1.00549L4 1L12 1ZM12 9.5C10.6194 9.5 9.5 10.619 9.5 11.9995C9.5 13.3802 10.6196 14.5 12 14.5C13.3806 14.5 14.5 13.381 14.5 12.0005C14.5 10.6198 13.3804 9.5 12 9.5ZM11.5909 10.0254C11.8363 10.0254 12.0405 10.2023 12.0828 10.4355L12.0899 12.0254L13.0909 12.0254C13.367 12.0254 13.5909 12.2493 13.5909 12.5254C13.5909 12.7709 13.414 12.975 13.1808 13.0174L11.5909 13.0254C11.3147 13.0254 11.0909 12.8016 11.0909 12.5254L11.0909 10.5254C11.0909 10.2493 11.3147 10.0254 11.5909 10.0254ZM8.5 7C8.77614 7 9 7.22386 9 7.5C9 7.77614 8.77614 8 8.5 8L5.5 8C5.22386 8 5 7.77614 5 7.5C5 7.22386 5.22386 7 5.5 7L8.5 7ZM10.5 4C10.7761 4 11 4.22386 11 4.5C11 4.77614 10.7761 5 10.5 5L5.5 5C5.22386 5 5 4.77614 5 4.5C5 4.22386 5.22386 4 5.5 4L10.5 4Z" fill="rgb(25,25,25)" fill-rule="nonzero" />
	<path id="形状结合" d="M15.5 12.0005C15.5 13.9333 13.9328 15.5 12 15.5C10.0673 15.5 8.5 13.9324 8.5 11.9995C8.5 10.0667 10.0672 8.5 12 8.5C13.9327 8.5 15.5 10.0676 15.5 12.0005ZM13.9945 2.85074L14 3L14 7.5C14 7.77614 13.7761 8 13.5 8C13.2545 8 13.0504 7.82312 13.0081 7.58988L13 3C13 2.48716 12.614 2.06449 12.1166 2.00673L12 2L4 2C3.48716 2 3.06449 2.38604 3.00673 2.88338L3 3L3 13C3 13.5128 3.38604 13.9355 3.88338 13.9933L4 14L8 14C8.27614 14 8.5 14.2239 8.5 14.5C8.5 14.7455 8.32312 14.9496 8.08988 14.9919L4 15C2.94564 15 2.08183 14.1841 2.00549 13.1493L2 13L2 3C2 1.94564 2.81588 1.08183 3.85074 1.00549L4 1L12 1C13.0544 1 13.9182 1.81588 13.9945 2.85074ZM9.5 11.9995C9.5 13.3802 10.6196 14.5 12 14.5C13.3806 14.5 14.5 13.381 14.5 12.0005C14.5 10.6198 13.3804 9.5 12 9.5C10.6194 9.5 9.5 10.619 9.5 11.9995ZM12.0828 10.4355L12.0899 12.0254L13.0909 12.0254C13.367 12.0254 13.5909 12.2493 13.5909 12.5254C13.5909 12.7709 13.414 12.975 13.1808 13.0174L11.5909 13.0254C11.3147 13.0254 11.0909 12.8016 11.0909 12.5254L11.0909 10.5254C11.0909 10.2493 11.3147 10.0254 11.5909 10.0254C11.8363 10.0254 12.0405 10.2023 12.0828 10.4355ZM9 7.5C9 7.77614 8.77614 8 8.5 8L5.5 8C5.22386 8 5 7.77614 5 7.5C5 7.22386 5.22386 7 5.5 7L8.5 7C8.77614 7 9 7.22386 9 7.5ZM11 4.5C11 4.77614 10.7761 5 10.5 5L5.5 5C5.22386 5 5 4.77614 5 4.5C5 4.22386 5.22386 4 5.5 4L10.5 4C10.7761 4 11 4.22386 11 4.5Z" fill-rule="nonzero" stroke="rgb(0,0,0)" stroke-opacity="0" stroke-width="1" />
</svg>
