<svg viewBox="0 0 16 16" xmlns="http://www.w3.org/2000/svg" xmlns:xlink="http://www.w3.org/1999/xlink" width="16.000000" height="16.000000" fill="none">
	<rect id="操作图标/项目管理" width="16.000000" height="16.000000" x="0.000000" y="0.000000" />
	<path id="形状结合" d="M3 1.69194e-32L10.5 1.69194e-32C10.8148 -5.782e-17 11.1111 0.148194 11.3 0.4L13.8 3.73333C13.9298 3.90643 14 4.11696 14 4.33333L14 15C14 15.5523 13.5523 16 13 16L3 16C2.44772 16 2 15.5523 2 15L2 1C2 0.447715 2.44772 1.01453e-16 3 1.69194e-32ZM3 1L3 15L13 15L13 4.33333L10.5 1L3 1ZM5.5 7C5.77614 7 6 7.22386 6 7.5C6 7.77614 5.77614 8 5.5 8C5.22386 8 5 7.77614 5 7.5C5 7.22386 5.22386 7 5.5 7ZM7.5 7L10.5 7C10.7761 7 11 7.22386 11 7.5C11 7.77614 10.7761 8 10.5 8L7.5 8C7.22386 8 7 7.77614 7 7.5C7 7.22386 7.22386 7 7.5 7ZM5.5 10C5.77614 10 6 10.2239 6 10.5C6 10.7761 5.77614 11 5.5 11C5.22386 11 5 10.7761 5 10.5C5 10.2239 5.22386 10 5.5 10ZM7.5 10L10.5 10C10.7761 10 11 10.2239 11 10.5C11 10.7761 10.7761 11 10.5 11L7.5 11C7.22386 11 7 10.7761 7 10.5C7 10.2239 7.22386 10 7.5 10Z" fill="rgb(25,25,25)" fill-rule="evenodd" />
	<path id="形状结合" d="M10.5 1.69194e-32C10.8148 -5.782e-17 11.1111 0.148194 11.3 0.4L13.8 3.73333C13.9298 3.90643 14 4.11696 14 4.33333L14 15C14 15.5523 13.5523 16 13 16L3 16C2.44772 16 2 15.5523 2 15L2 1C2 0.447715 2.44772 1.01453e-16 3 1.69194e-32L10.5 1.69194e-32ZM3 15L13 15L13 4.33333L10.5 1L3 1L3 15ZM6 7.5C6 7.77614 5.77614 8 5.5 8C5.22386 8 5 7.77614 5 7.5C5 7.22386 5.22386 7 5.5 7C5.77614 7 6 7.22386 6 7.5ZM10.5 7C10.7761 7 11 7.22386 11 7.5C11 7.77614 10.7761 8 10.5 8L7.5 8C7.22386 8 7 7.77614 7 7.5C7 7.22386 7.22386 7 7.5 7L10.5 7ZM6 10.5C6 10.7761 5.77614 11 5.5 11C5.22386 11 5 10.7761 5 10.5C5 10.2239 5.22386 10 5.5 10C5.77614 10 6 10.2239 6 10.5ZM10.5 10C10.7761 10 11 10.2239 11 10.5C11 10.7761 10.7761 11 10.5 11L7.5 11C7.22386 11 7 10.7761 7 10.5C7 10.2239 7.22386 10 7.5 10L10.5 10Z" fill-rule="evenodd" stroke="rgb(0,0,0)" stroke-opacity="0" stroke-width="1" />
</svg>
