<svg viewBox="0 0 16 16" xmlns="http://www.w3.org/2000/svg" xmlns:xlink="http://www.w3.org/1999/xlink" width="16.000000" height="16.000000" fill="none">
	<rect id="操作图标/Readme" width="16.000000" height="16.000000" x="0.000000" y="0.000000" />
	<path id="形状结合" d="M6.5 1.5C7.09757 1.5 7.63393 1.76207 8.00041 2.17755C8.36607 1.76207 8.90243 1.5 9.5 1.5L14.5 1.5C15.0523 1.5 15.5 1.94772 15.5 2.5L15.5 12.5C15.5 13.0523 15.0523 13.5 14.5 13.5L9.5 13.5C8.94771 13.5 8.5 13.9477 8.5 14.5L7.5 14.5C7.5 13.9477 7.05228 13.5 6.5 13.5L1.5 13.5C0.947715 13.5 0.5 13.0523 0.5 12.5L0.5 2.5C0.5 1.94772 0.947715 1.5 1.5 1.5L6.5 1.5ZM6.5 2.5L1.5 2.5L1.5 12.5L6.5 12.5C6.86448 12.5 7.20618 12.5975 7.50046 12.7678L7.5 3.5C7.5 2.94772 7.05228 2.5 6.5 2.5ZM14.5 2.5L9.5 2.5C8.94771 2.5 8.5 2.94772 8.5 3.5L8.49983 12.7678C8.7939 12.5975 9.13557 12.5 9.5 12.5L14.5 12.5L14.5 2.5Z" fill="rgb(25,25,25)" fill-rule="evenodd" />
	<path id="形状结合" d="M8.00041 2.17755C8.36607 1.76207 8.90243 1.5 9.5 1.5L14.5 1.5C15.0523 1.5 15.5 1.94772 15.5 2.5L15.5 12.5C15.5 13.0523 15.0523 13.5 14.5 13.5L9.5 13.5C8.94771 13.5 8.5 13.9477 8.5 14.5L7.5 14.5C7.5 13.9477 7.05228 13.5 6.5 13.5L1.5 13.5C0.947715 13.5 0.5 13.0523 0.5 12.5L0.5 2.5C0.5 1.94772 0.947715 1.5 1.5 1.5L6.5 1.5C7.09757 1.5 7.63393 1.76207 8.00041 2.17755ZM1.5 2.5L1.5 12.5L6.5 12.5C6.86448 12.5 7.20618 12.5975 7.50046 12.7678L7.5 3.5C7.5 2.94772 7.05228 2.5 6.5 2.5L1.5 2.5ZM9.5 2.5C8.94771 2.5 8.5 2.94772 8.5 3.5L8.49983 12.7678C8.7939 12.5975 9.13557 12.5 9.5 12.5L14.5 12.5L14.5 2.5L9.5 2.5Z" fill-rule="evenodd" stroke="rgb(0,0,0)" stroke-opacity="0" stroke-width="1" />
</svg>
