<svg viewBox="0 0 16 16" xmlns="http://www.w3.org/2000/svg" xmlns:xlink="http://www.w3.org/1999/xlink" width="16.000000" height="16.000000" fill="none">
	<rect id="操作图标/最近执行" width="16.000000" height="16.000000" x="0.000000" y="0.000000" />
	<path id="形状结合" d="M8 1C9.85652 1 11.637 1.7375 12.9497 3.05027C14.2625 4.36303 15 6.14352 15 8.00005C15 11.8661 11.866 15.0001 8 15.0001C4.13401 15.0001 1 11.8661 1 8.00005C1 4.13403 4.13401 1 8 1ZM8 2.00001C4.68629 2.00001 2 4.68632 2 8.00005C2 11.3138 4.68629 14.0001 8 14.0001C11.3137 14.0001 14 11.3138 14 8.00005C14 4.68632 11.3137 2.00001 8 2.00001ZM6.20571 4.57145C6.38354 4.5755 6.55709 4.62678 6.70857 4.72003L10.8743 7.12576C11.1856 7.30685 11.3772 7.63986 11.3772 8.00005C11.3772 8.36023 11.1856 8.69324 10.8743 8.87434L6.70857 11.2801C6.39655 11.463 6.01034 11.4642 5.69712 11.2834C5.38389 11.1026 5.19189 10.7675 5.19426 10.4058L5.19426 5.58289C5.19426 5.02429 5.64712 4.57145 6.20571 4.57145ZM6.33714 5.82575L6.33714 10.1743L10.1029 8.00005L6.33714 5.82575Z" fill="rgb(25,25,25)" fill-rule="evenodd" />
	<path id="形状结合" d="M12.9497 3.05027C14.2625 4.36303 15 6.14352 15 8.00005C15 11.8661 11.866 15.0001 8 15.0001C4.13401 15.0001 1 11.8661 1 8.00005C1 4.13403 4.13401 1 8 1C9.85652 1 11.637 1.7375 12.9497 3.05027ZM2 8.00005C2 11.3138 4.68629 14.0001 8 14.0001C11.3137 14.0001 14 11.3138 14 8.00005C14 4.68632 11.3137 2.00001 8 2.00001C4.68629 2.00001 2 4.68632 2 8.00005ZM6.70857 4.72003L10.8743 7.12576C11.1856 7.30685 11.3772 7.63986 11.3772 8.00005C11.3772 8.36023 11.1856 8.69324 10.8743 8.87434L6.70857 11.2801C6.39655 11.463 6.01034 11.4642 5.69712 11.2834C5.38389 11.1026 5.19189 10.7675 5.19426 10.4058L5.19426 5.58289C5.19426 5.02429 5.64712 4.57145 6.20571 4.57145C6.38354 4.5755 6.55709 4.62678 6.70857 4.72003ZM6.33714 10.1743L10.1029 8.00005L6.33714 5.82575L6.33714 10.1743Z" fill-rule="evenodd" stroke="rgb(0,0,0)" stroke-opacity="0" stroke-width="1" />
</svg>
