<svg viewBox="0 0 16 16" xmlns="http://www.w3.org/2000/svg" xmlns:xlink="http://www.w3.org/1999/xlink" width="16.000000" height="16.000000" fill="none">
	<rect id="操作图标/拒绝" width="16.000000" height="16.000000" x="0.000000" y="0.000000" />
	<path id="形状结合" d="M12 1C13.0544 1 13.9182 1.81588 13.9945 2.85074L14 3L14 7.5C14 7.77614 13.7761 8 13.5 8C13.2545 8 13.0504 7.82312 13.0081 7.58988L13 3C13 2.48716 12.614 2.06449 12.1166 2.00673L12 2L4 2C3.48716 2 3.06449 2.38604 3.00673 2.88338L3 3L3 13C3 13.5128 3.38604 13.9355 3.88338 13.9933L4 14L6.5 14C6.77614 14 7 14.2239 7 14.5C7 14.7455 6.82312 14.9496 6.58988 14.9919L4 15C2.94564 15 2.08183 14.1841 2.00549 13.1493L2 13L2 3C2 1.94564 2.81588 1.08183 3.85074 1.00549L4 1L12 1ZM10.7843 10.0886L12.5 11.793L14.1464 10.1464C14.3413 10.0114 14.68 9.97288 14.8536 10.1464C15.0488 10.3417 15.0488 10.6583 14.8536 10.8536L13.207 12.5L14.8536 14.1464C15.0488 14.3417 15.0488 14.6583 14.8536 14.8536C14.68 15.0271 14.4106 15.0464 14.2157 14.9114L12.5 13.207L10.8536 14.8536C10.6587 14.9886 10.32 15.0271 10.1464 14.8536C9.95118 14.6583 9.95118 14.3417 10.1464 14.1464L11.793 12.5L10.1464 10.8536C9.95118 10.6583 9.95118 10.3417 10.1464 10.1464C10.32 9.97288 10.5894 9.9536 10.7843 10.0886ZM8.5 7C8.77614 7 9 7.22386 9 7.5C9 7.77614 8.77614 8 8.5 8L5.5 8C5.22386 8 5 7.77614 5 7.5C5 7.22386 5.22386 7 5.5 7L8.5 7ZM10.5 4C10.7761 4 11 4.22386 11 4.5C11 4.77614 10.7761 5 10.5 5L5.5 5C5.22386 5 5 4.77614 5 4.5C5 4.22386 5.22386 4 5.5 4L10.5 4Z" fill="rgb(25,25,25)" fill-rule="nonzero" />
	<path id="形状结合" d="M13.9945 2.85074L14 3L14 7.5C14 7.77614 13.7761 8 13.5 8C13.2545 8 13.0504 7.82312 13.0081 7.58988L13 3C13 2.48716 12.614 2.06449 12.1166 2.00673L12 2L4 2C3.48716 2 3.06449 2.38604 3.00673 2.88338L3 3L3 13C3 13.5128 3.38604 13.9355 3.88338 13.9933L4 14L6.5 14C6.77614 14 7 14.2239 7 14.5C7 14.7455 6.82312 14.9496 6.58988 14.9919L4 15C2.94564 15 2.08183 14.1841 2.00549 13.1493L2 13L2 3C2 1.94564 2.81588 1.08183 3.85074 1.00549L4 1L12 1C13.0544 1 13.9182 1.81588 13.9945 2.85074ZM12.5 11.793L14.1464 10.1464C14.3413 10.0114 14.68 9.97288 14.8536 10.1464C15.0488 10.3417 15.0488 10.6583 14.8536 10.8536L13.207 12.5L14.8536 14.1464C15.0488 14.3417 15.0488 14.6583 14.8536 14.8536C14.68 15.0271 14.4106 15.0464 14.2157 14.9114L12.5 13.207L10.8536 14.8536C10.6587 14.9886 10.32 15.0271 10.1464 14.8536C9.95118 14.6583 9.95118 14.3417 10.1464 14.1464L11.793 12.5L10.1464 10.8536C9.95118 10.6583 9.95118 10.3417 10.1464 10.1464C10.32 9.97288 10.5894 9.9536 10.7843 10.0886L12.5 11.793ZM9 7.5C9 7.77614 8.77614 8 8.5 8L5.5 8C5.22386 8 5 7.77614 5 7.5C5 7.22386 5.22386 7 5.5 7L8.5 7C8.77614 7 9 7.22386 9 7.5ZM11 4.5C11 4.77614 10.7761 5 10.5 5L5.5 5C5.22386 5 5 4.77614 5 4.5C5 4.22386 5.22386 4 5.5 4L10.5 4C10.7761 4 11 4.22386 11 4.5Z" fill-rule="nonzero" stroke="rgb(0,0,0)" stroke-opacity="0" stroke-width="1" />
</svg>
