<svg viewBox="0 0 16 16" xmlns="http://www.w3.org/2000/svg" xmlns:xlink="http://www.w3.org/1999/xlink" width="16.000000" height="16.000000" fill="none">
	<rect id="操作图标/评审人" width="16.000000" height="16.000000" x="0.000000" y="0.000000" />
	<path id="形状结合" d="M15.3536 8.64645C15.5271 8.82001 15.5464 9.08944 15.4114 9.28431L11.3536 13.3536C11.18 13.5271 10.9106 13.5464 10.7157 13.4114L8.64645 11.3536C8.45118 11.1583 8.45118 10.8417 8.64645 10.6464C8.82001 10.4729 9.08944 10.4536 9.28431 10.5886L11 12.293L14.6464 8.64645C14.8417 8.45119 15.1583 8.45119 15.3536 8.64645ZM8 2C9.65685 2 11 3.34315 11 5C11 5.95581 10.553 6.80722 9.85667 7.35659C10.4909 7.61015 11.061 7.99 11.536 8.46505L10.8294 9.17257C10.1055 8.44813 9.10508 8 8 8C5.79086 8 4 9.79086 4 12L3 12C3 9.89452 4.30139 8.093 6.14367 7.35594C5.44699 6.80722 5 5.95581 5 5C5 3.34315 6.34315 2 8 2ZM8 3C6.89543 3 6 3.89543 6 5C6 6.10457 6.89543 7 8 7C9.10457 7 10 6.10457 10 5C10 3.89543 9.10457 3 8 3Z" fill="rgb(25,25,25)" fill-rule="evenodd" />
	<path id="形状结合" d="M15.4114 9.28431L11.3536 13.3536C11.18 13.5271 10.9106 13.5464 10.7157 13.4114L8.64645 11.3536C8.45118 11.1583 8.45118 10.8417 8.64645 10.6464C8.82001 10.4729 9.08944 10.4536 9.28431 10.5886L11 12.293L14.6464 8.64645C14.8417 8.45119 15.1583 8.45119 15.3536 8.64645C15.5271 8.82001 15.5464 9.08944 15.4114 9.28431ZM11 5C11 5.95581 10.553 6.80722 9.85667 7.35659C10.4909 7.61015 11.061 7.99 11.536 8.46505L10.8294 9.17257C10.1055 8.44813 9.10508 8 8 8C5.79086 8 4 9.79086 4 12L3 12C3 9.89452 4.30139 8.093 6.14367 7.35594C5.44699 6.80722 5 5.95581 5 5C5 3.34315 6.34315 2 8 2C9.65685 2 11 3.34315 11 5ZM6 5C6 6.10457 6.89543 7 8 7C9.10457 7 10 6.10457 10 5C10 3.89543 9.10457 3 8 3C6.89543 3 6 3.89543 6 5Z" fill-rule="evenodd" stroke="rgb(0,0,0)" stroke-opacity="0" stroke-width="1" />
</svg>
