<svg viewBox="0 0 16 16" xmlns="http://www.w3.org/2000/svg" xmlns:xlink="http://www.w3.org/1999/xlink" width="16.000000" height="16.000000" fill="none">
	<rect id="操作图标/撤销" width="16.000000" height="16.000000" x="0.000000" y="0.000000" />
	<path id="形状结合" d="M10.5536 8.94645C10.7271 9.12001 10.7464 9.38944 10.6114 9.58431L10.206 10L12.5 10C13.8807 10 15 11.1193 15 12.5C15 13.8255 13.9685 14.91 12.6644 14.9947L12.5 15L9.5 15C9.22386 15 9 14.7761 9 14.5C9 14.2545 9.17688 14.0504 9.41012 14.0081L12.5 14C13.3284 14 14 13.3284 14 12.5C14 11.7203 13.4051 11.0796 12.6445 11.0069L12.5 11L10.207 11L10.5536 11.3464C10.7271 11.52 10.7464 11.7894 10.6114 11.9843C10.4378 12.1579 10.1106 12.2464 9.91569 12.1114L8.64645 10.8536C8.47288 10.68 8.4536 10.4106 8.58859 10.2157L9.84645 8.94645C10.0417 8.75118 10.3583 8.75118 10.5536 8.94645ZM12 1C13.0544 1 13.9182 1.81588 13.9945 2.85074L14 3L14 7.5C14 7.77614 13.7761 8 13.5 8C13.2545 8 13.0504 7.82312 13.0081 7.58988L13 3C13 2.48716 12.614 2.06449 12.1166 2.00673L12 2L4 2C3.48716 2 3.06449 2.38604 3.00673 2.88338L3 3L3 13C3 13.5128 3.38604 13.9355 3.88338 13.9933L4 14L6.5 14C6.77614 14 7 14.2239 7 14.5C7 14.7455 6.82312 14.9496 6.58988 14.9919L4 15C2.94564 15 2.08183 14.1841 2.00549 13.1493L2 13L2 3C2 1.94564 2.81588 1.08183 3.85074 1.00549L4 1L12 1ZM8.5 7C8.77614 7 9 7.22386 9 7.5C9 7.77614 8.77614 8 8.5 8L5.5 8C5.22386 8 5 7.77614 5 7.5C5 7.22386 5.22386 7 5.5 7L8.5 7ZM10.5 4C10.7761 4 11 4.22386 11 4.5C11 4.77614 10.7761 5 10.5 5L5.5 5C5.22386 5 5 4.77614 5 4.5C5 4.22386 5.22386 4 5.5 4L10.5 4Z" fill="rgb(25,25,25)" fill-rule="nonzero" />
	<path id="形状结合" d="M10.6114 9.58431L10.206 10L12.5 10C13.8807 10 15 11.1193 15 12.5C15 13.8255 13.9685 14.91 12.6644 14.9947L12.5 15L9.5 15C9.22386 15 9 14.7761 9 14.5C9 14.2545 9.17688 14.0504 9.41012 14.0081L12.5 14C13.3284 14 14 13.3284 14 12.5C14 11.7203 13.4051 11.0796 12.6445 11.0069L12.5 11L10.207 11L10.5536 11.3464C10.7271 11.52 10.7464 11.7894 10.6114 11.9843C10.4378 12.1579 10.1106 12.2464 9.91569 12.1114L8.64645 10.8536C8.47288 10.68 8.4536 10.4106 8.58859 10.2157L9.84645 8.94645C10.0417 8.75118 10.3583 8.75118 10.5536 8.94645C10.7271 9.12001 10.7464 9.38944 10.6114 9.58431ZM13.9945 2.85074L14 3L14 7.5C14 7.77614 13.7761 8 13.5 8C13.2545 8 13.0504 7.82312 13.0081 7.58988L13 3C13 2.48716 12.614 2.06449 12.1166 2.00673L12 2L4 2C3.48716 2 3.06449 2.38604 3.00673 2.88338L3 3L3 13C3 13.5128 3.38604 13.9355 3.88338 13.9933L4 14L6.5 14C6.77614 14 7 14.2239 7 14.5C7 14.7455 6.82312 14.9496 6.58988 14.9919L4 15C2.94564 15 2.08183 14.1841 2.00549 13.1493L2 13L2 3C2 1.94564 2.81588 1.08183 3.85074 1.00549L4 1L12 1C13.0544 1 13.9182 1.81588 13.9945 2.85074ZM9 7.5C9 7.77614 8.77614 8 8.5 8L5.5 8C5.22386 8 5 7.77614 5 7.5C5 7.22386 5.22386 7 5.5 7L8.5 7C8.77614 7 9 7.22386 9 7.5ZM11 4.5C11 4.77614 10.7761 5 10.5 5L5.5 5C5.22386 5 5 4.77614 5 4.5C5 4.22386 5.22386 4 5.5 4L10.5 4C10.7761 4 11 4.22386 11 4.5Z" fill-rule="nonzero" stroke="rgb(0,0,0)" stroke-opacity="0" stroke-width="1" />
</svg>
