<svg viewBox="0 0 16 16" xmlns="http://www.w3.org/2000/svg" xmlns:xlink="http://www.w3.org/1999/xlink" width="16.000000" height="16.000000" fill="none">
	<rect id="操作图标/运行动态" width="16.000000" height="16.000000" x="0.000000" y="0.000000" />
	<path id="形状结合" d="M1.5 3C1.74546 3 1.94961 3.17688 1.99194 3.41012L2 13.5C2 13.7455 2.17688 13.9496 2.41012 13.9919L14.9148 13.9997C14.7243 14.539 14.2342 14.9368 13.6445 14.9931L13.5 15L2.5 15C1.7203 15 1.07955 14.4051 1.00687 13.6445L1 13.5L1 3.5C1 3.22386 1.22386 3 1.5 3ZM13.5 1C14.2797 1 14.9204 1.59489 14.9931 2.35554L15 2.5L15 12.5C15 12.7761 14.7761 13 14.5 13C14.2545 13 14.0504 12.8231 14.0081 12.5899L14 2.5C14 2.25454 13.8231 2.05039 13.5899 2.00806L1.08525 2.00029C1.27573 1.46102 1.76582 1.06322 2.35554 1.00687L2.5 1L13.5 1ZM5 4C5 3.60065 5.44507 3.36246 5.77735 3.58397L11.7774 7.58397C12.0742 7.78189 12.0742 8.21811 11.7774 8.41603L5.77735 12.416C5.44507 12.6375 5 12.3993 5 12L5 4ZM6 4.934L6 11.065L10.598 8L6 4.934Z" fill="rgb(25,25,25)" fill-rule="evenodd" />
	<path id="形状结合" d="M1.99194 3.41012L2 13.5C2 13.7455 2.17688 13.9496 2.41012 13.9919L14.9148 13.9997C14.7243 14.539 14.2342 14.9368 13.6445 14.9931L13.5 15L2.5 15C1.7203 15 1.07955 14.4051 1.00687 13.6445L1 13.5L1 3.5C1 3.22386 1.22386 3 1.5 3C1.74546 3 1.94961 3.17688 1.99194 3.41012ZM14.9931 2.35554L15 2.5L15 12.5C15 12.7761 14.7761 13 14.5 13C14.2545 13 14.0504 12.8231 14.0081 12.5899L14 2.5C14 2.25454 13.8231 2.05039 13.5899 2.00806L1.08525 2.00029C1.27573 1.46102 1.76582 1.06322 2.35554 1.00687L2.5 1L13.5 1C14.2797 1 14.9204 1.59489 14.9931 2.35554ZM5.77735 3.58397L11.7774 7.58397C12.0742 7.78189 12.0742 8.21811 11.7774 8.41603L5.77735 12.416C5.44507 12.6375 5 12.3993 5 12L5 4C5 3.60065 5.44507 3.36246 5.77735 3.58397ZM6 11.065L10.598 8L6 4.934L6 11.065Z" fill-rule="evenodd" stroke="rgb(0,0,0)" stroke-opacity="0" stroke-width="1" />
</svg>
