<svg viewBox="0 0 16 16" xmlns="http://www.w3.org/2000/svg" xmlns:xlink="http://www.w3.org/1999/xlink" width="16.000000" height="16.000000" fill="none" customFrame="#000000">
	<rect id="操作图标/发送" width="16.000000" height="16.000000" x="0.000000" y="0.000000" />
	<path id="形状结合" d="M9.43959 12.3966C9.54292 12.4399 9.65159 12.4606 9.75892 12.4606C9.97559 12.4606 10.1876 12.3759 10.3469 12.2159L14.2089 8.35391C14.5343 8.02925 14.5343 7.50058 14.2089 7.17525L10.3476 3.31325C10.1083 3.07458 9.75159 3.00258 9.43959 3.13258C9.12692 3.26191 8.92492 3.56391 8.92492 3.90258L8.92492 5.60844C2.32802 5.90236 1.57558 12.3123 1.56842 12.3794C1.53975 12.6534 1.73908 12.8994 2.01308 12.9287C2.26575 12.9287 2.53642 12.7407 2.56308 12.4834C2.56442 12.4693 2.72842 11 3.65508 9.53135C4.88508 7.58468 6.81708 6.59802 9.39908 6.59802C9.67508 6.59802 9.92492 6.37391 9.92492 6.09791L9.92492 4.30525L13.3843 7.76458L9.92492 11.2246L9.92492 9.43125C9.92492 9.15525 9.70092 8.93125 9.42492 8.93125C7.36759 8.93125 5.58641 9.27472 4.18175 9.95072C3.93308 10.0707 3.82841 10.3694 3.94841 10.6181C4.03441 10.7974 4.21308 10.9014 4.39908 10.9014C4.47175 10.9014 4.54575 10.8861 4.61575 10.8521C5.77778 10.2927 7.22561 9.98562 8.92492 9.93795L8.92492 11.6266C8.92492 11.9652 9.12692 12.2672 9.43959 12.3966Z" fill="rgb(25,25,25)" fill-rule="evenodd" />
</svg>
