<svg viewBox="0 0 16 16" xmlns="http://www.w3.org/2000/svg" xmlns:xlink="http://www.w3.org/1999/xlink" width="16.000000" height="16.000000" fill="none">
	<rect id="操作图标/分享" width="16.000000" height="16.000000" x="0.000000" y="0.000000" />
	<path id="形状结合" d="M6.38047 9.826C5.83207 10.5399 4.96977 11 4 11C2.34315 11 1 9.65685 1 8C1 6.34315 2.34315 5 4 5C4.96977 5 5.83207 5.46014 6.38047 6.174L10.1006 4.2045C10.0351 3.98106 10 3.74463 10 3.5C10 2.11929 11.1193 1 12.5 1C13.8807 1 15 2.11929 15 3.5C15 4.88071 13.8807 6 12.5 6C11.7223 6 11.0276 5.64491 10.569 5.08801L6.84895 7.05748C6.94696 7.35388 7 7.67074 7 8C7 8.32926 6.94696 8.64612 6.84895 8.94252L10.569 10.912C11.0276 10.3551 11.7223 10 12.5 10C13.8807 10 15 11.1193 15 12.5C15 13.8807 13.8807 15 12.5 15C11.1193 15 10 13.8807 10 12.5C10 12.2554 10.0351 12.0189 10.1006 11.7955L6.38047 9.826ZM4 10C5.10457 10 6 9.10457 6 8C6 6.89543 5.10457 6 4 6C2.89543 6 2 6.89543 2 8C2 9.10457 2.89543 10 4 10ZM12.5 14C13.3284 14 14 13.3284 14 12.5C14 11.6716 13.3284 11 12.5 11C11.6716 11 11 11.6716 11 12.5C11 13.3284 11.6716 14 12.5 14ZM12.5 5C13.3284 5 14 4.32843 14 3.5C14 2.67157 13.3284 2 12.5 2C11.6716 2 11 2.67157 11 3.5C11 4.32843 11.6716 5 12.5 5Z" fill="rgb(25,25,25)" fill-rule="nonzero" />
	<path id="形状结合" d="M4 11C2.34315 11 1 9.65685 1 8C1 6.34315 2.34315 5 4 5C4.96977 5 5.83207 5.46014 6.38047 6.174L10.1006 4.2045C10.0351 3.98106 10 3.74463 10 3.5C10 2.11929 11.1193 1 12.5 1C13.8807 1 15 2.11929 15 3.5C15 4.88071 13.8807 6 12.5 6C11.7223 6 11.0276 5.64491 10.569 5.08801L6.84895 7.05748C6.94696 7.35388 7 7.67074 7 8C7 8.32926 6.94696 8.64612 6.84895 8.94252L10.569 10.912C11.0276 10.3551 11.7223 10 12.5 10C13.8807 10 15 11.1193 15 12.5C15 13.8807 13.8807 15 12.5 15C11.1193 15 10 13.8807 10 12.5C10 12.2554 10.0351 12.0189 10.1006 11.7955L6.38047 9.826C5.83207 10.5399 4.96977 11 4 11ZM6 8C6 6.89543 5.10457 6 4 6C2.89543 6 2 6.89543 2 8C2 9.10457 2.89543 10 4 10C5.10457 10 6 9.10457 6 8ZM14 12.5C14 11.6716 13.3284 11 12.5 11C11.6716 11 11 11.6716 11 12.5C11 13.3284 11.6716 14 12.5 14C13.3284 14 14 13.3284 14 12.5ZM14 3.5C14 2.67157 13.3284 2 12.5 2C11.6716 2 11 2.67157 11 3.5C11 4.32843 11.6716 5 12.5 5C13.3284 5 14 4.32843 14 3.5Z" fill-rule="nonzero" stroke="rgb(0,0,0)" stroke-opacity="0" stroke-width="1" />
</svg>
