<svg viewBox="0 0 16 16" xmlns="http://www.w3.org/2000/svg" xmlns:xlink="http://www.w3.org/1999/xlink" width="16.000000" height="16.000000" fill="none">
	<rect id="操作图标/排序-降序" width="16.000000" height="16.000000" x="0.000000" y="0.000000" />
	<path id="合并" d="M8.5912 1.34927L12.417 5.81268C12.973 6.46135 12.5121 7.46347 11.6577 7.46347L4.00616 7.46347C3.15181 7.46347 2.6909 6.46135 3.2469 5.81268L7.07268 1.34927C7.47178 0.883658 8.1921 0.883658 8.5912 1.34927ZM11.6577 6.46347L7.83194 2.00006L4.00616 6.46347L11.6577 6.46347ZM12.4174 10.1127L8.59127 14.5775C8.19217 15.0433 7.47171 15.0433 7.07261 14.5775L3.24651 10.1127C2.69061 9.46402 3.15154 8.46202 4.00584 8.46202L11.658 8.46202C12.5123 8.46202 12.9733 9.46402 12.4174 10.1127Z" fill="rgb(25,25,25)" fill-rule="evenodd" />
</svg>
