<svg viewBox="0 0 16 16" xmlns="http://www.w3.org/2000/svg" xmlns:xlink="http://www.w3.org/1999/xlink" width="16.000000" height="16.000000" fill="none">
	<rect id="操作图标/商店" width="16.000000" height="16.000000" x="0.000000" y="0.000000" />
	<path id="形状结合" d="M12.0013 2C13.1049 2 14 2.89533 14 3.99933L14 12.0007C14 13.1047 13.1049 14 12.0013 14L3.99867 14C2.89505 14 2 13.1047 2 12.0007L2 3.99933C2 2.89533 2.89505 2 3.99867 2L12.0013 2ZM12.0013 3L3.99867 3C3.44741 3 3 3.44754 3 3.99933L3 12.0007C3 12.5525 3.44741 13 3.99867 13L12.0013 13C12.5526 13 13 12.5525 13 12.0007L13 3.99933C13 3.44754 12.5526 3 12.0013 3ZM10.6667 4.83333C10.9428 4.83333 11.1667 5.05719 11.1667 5.33333C11.1667 7.08214 9.74881 8.5 8 8.5C6.25119 8.5 4.83333 7.08214 4.83333 5.33333C4.83333 5.05719 5.05719 4.83333 5.33333 4.83333C5.60948 4.83333 5.83333 5.05719 5.83333 5.33333C5.83333 6.52986 6.80348 7.5 8 7.5C9.19652 7.5 10.1667 6.52986 10.1667 5.33333C10.1667 5.05719 10.3905 4.83333 10.6667 4.83333Z" fill="rgb(25,25,25)" fill-rule="evenodd" />
	<path id="形状结合" d="M14 3.99933L14 12.0007C14 13.1047 13.1049 14 12.0013 14L3.99867 14C2.89505 14 2 13.1047 2 12.0007L2 3.99933C2 2.89533 2.89505 2 3.99867 2L12.0013 2C13.1049 2 14 2.89533 14 3.99933ZM3.99867 3C3.44741 3 3 3.44754 3 3.99933L3 12.0007C3 12.5525 3.44741 13 3.99867 13L12.0013 13C12.5526 13 13 12.5525 13 12.0007L13 3.99933C13 3.44754 12.5526 3 12.0013 3L3.99867 3ZM11.1667 5.33333C11.1667 7.08214 9.74881 8.5 8 8.5C6.25119 8.5 4.83333 7.08214 4.83333 5.33333C4.83333 5.05719 5.05719 4.83333 5.33333 4.83333C5.60948 4.83333 5.83333 5.05719 5.83333 5.33333C5.83333 6.52986 6.80348 7.5 8 7.5C9.19652 7.5 10.1667 6.52986 10.1667 5.33333C10.1667 5.05719 10.3905 4.83333 10.6667 4.83333C10.9428 4.83333 11.1667 5.05719 11.1667 5.33333Z" fill-rule="evenodd" stroke="rgb(0,0,0)" stroke-opacity="0" stroke-width="1" />
</svg>
