<svg viewBox="0 0 16 16" xmlns="http://www.w3.org/2000/svg" xmlns:xlink="http://www.w3.org/1999/xlink" width="16.000000" height="16.000000" fill="none">
	<rect id="操作图标/标签" width="16.000000" height="16.000000" x="0.000000" y="0.000000" />
	<path id="形状结合" d="M7.24264 1C7.77307 1 8.28178 1.21071 8.65685 1.58579L14.435 7.36396C15.2161 8.14501 15.2161 9.41134 14.435 10.1924L10.1924 14.435C9.41134 15.2161 8.14501 15.2161 7.36396 14.435L1.58579 8.65685C1.21071 8.28178 1 7.77307 1 7.24264L1 2C1 1.44772 1.44772 1 2 1L7.24264 1ZM7.24264 2L2 2L2 7.24264C2 7.46365 2.07316 7.67712 2.20608 7.85067L8.07107 13.7279C8.43155 14.0884 8.99878 14.1161 9.39107 13.8111L13.7279 9.48528C14.0884 9.1248 14.1161 8.55757 13.8111 8.16528L7.94975 2.29289C7.76221 2.10536 7.50786 2 7.24264 2ZM5.5 4C6.32843 4 7 4.67157 7 5.5C7 6.32843 6.32843 7 5.5 7C4.67157 7 4 6.32843 4 5.5C4 4.67157 4.67157 4 5.5 4ZM5.5 5C5.22386 5 5 5.22386 5 5.5C5 5.77614 5.22386 6 5.5 6C5.77614 6 6 5.77614 6 5.5C6 5.22386 5.77614 5 5.5 5Z" fill="rgb(25,25,25)" fill-rule="evenodd" />
	<path id="形状结合" d="M8.65685 1.58579L14.435 7.36396C15.2161 8.14501 15.2161 9.41134 14.435 10.1924L10.1924 14.435C9.41134 15.2161 8.14501 15.2161 7.36396 14.435L1.58579 8.65685C1.21071 8.28178 1 7.77307 1 7.24264L1 2C1 1.44772 1.44772 1 2 1L7.24264 1C7.77307 1 8.28178 1.21071 8.65685 1.58579ZM2 2L2 7.24264C2 7.46365 2.07316 7.67712 2.20608 7.85067L8.07107 13.7279C8.43155 14.0884 8.99878 14.1161 9.39107 13.8111L13.7279 9.48528C14.0884 9.1248 14.1161 8.55757 13.8111 8.16528L7.94975 2.29289C7.76221 2.10536 7.50786 2 7.24264 2L2 2ZM7 5.5C7 6.32843 6.32843 7 5.5 7C4.67157 7 4 6.32843 4 5.5C4 4.67157 4.67157 4 5.5 4C6.32843 4 7 4.67157 7 5.5ZM5 5.5C5 5.77614 5.22386 6 5.5 6C5.77614 6 6 5.77614 6 5.5C6 5.22386 5.77614 5 5.5 5C5.22386 5 5 5.22386 5 5.5Z" fill-rule="evenodd" stroke="rgb(0,0,0)" stroke-opacity="0" stroke-width="1" />
</svg>
