<svg viewBox="0 0 16 16" xmlns="http://www.w3.org/2000/svg" xmlns:xlink="http://www.w3.org/1999/xlink" width="16.000000" height="16.000000" fill="none">
	<rect id="操作图标/撤销删除" width="16.000000" height="16.000000" x="0.000000" y="0.000000" />
	<path id="形状结合" d="M9.2655 1.33331C9.8829 1.33331 10.4329 1.71013 10.6588 2.27621L10.6973 2.38452L11.0335 3.45931L14.1668 3.45998C14.443 3.45998 14.6668 3.68384 14.6668 3.95998C14.6668 4.21311 14.4775 4.42231 14.2335 4.45542L10.6668 4.45998L10.5636 4.44932C10.554 4.44514 10.4546 4.41283 10.4453 4.40823C10.4321 4.39831 10.3411 4.33966 10.3289 4.32853C10.3192 4.3137 10.2313 4.20641 10.2234 4.19113L9.743 2.68338C9.68501 2.49816 9.52596 2.36562 9.33743 2.33846L6.7355 2.33331C6.54039 2.33331 6.36646 2.44505 6.28428 2.6166L5.81057 4.10964C5.80525 4.11887 5.75636 4.22712 5.75043 4.23606L5.65565 4.34244C5.64097 4.35126 5.55854 4.40693 5.54277 4.41421C5.5266 4.41873 5.43697 4.44954 5.42029 4.45249L3.5515 4.45931L4.36301 12.7666C4.41093 13.2458 4.79208 13.6153 5.26288 13.66L10.6428 13.6666C11.1248 13.6666 11.5328 13.3241 11.624 12.86L12.336 5.57705C12.3634 5.30227 12.6085 5.10179 12.8832 5.12926C13.1351 5.15444 13.3246 5.36241 13.3332 5.60855L12.633 12.8666C12.5348 13.8501 11.7356 14.6098 10.7606 14.6666L5.35816 14.6666C4.37017 14.6666 3.53664 13.9442 3.3831 12.98L3.36798 12.8666L2.5465 4.45931L1.8335 4.45998C1.55735 4.45998 1.3335 4.23612 1.3335 3.95998C1.3335 3.70685 1.52278 3.49765 1.76683 3.46454L2.93386 3.45919C2.97136 3.45544 3.02486 3.45401 3.06077 3.45836L4.9655 3.45931L5.30367 2.38458C5.48816 1.79535 6.0122 1.38403 6.62051 1.33768L6.7355 1.33331L9.2655 1.33331ZM7.83274 6.57047L7.83588 7.50117L7.95296 7.51274C9.53537 7.69459 10.5537 8.64435 10.9446 10.293L10.9828 10.466L11.0165 10.644L11.0411 10.7957C11.1169 11.3011 10.4422 11.5433 10.1793 11.1051C9.76932 10.4218 9.06548 10.0243 8.04164 9.90857L7.83588 9.88972L7.83682 10.7191C7.83682 11.0622 7.48885 11.2707 7.19721 11.1533L7.08451 11.0885L4.99765 9.00675C4.83194 8.84105 4.81687 8.58174 4.95245 8.39902L7.04002 6.30429C7.31858 6.02573 7.78447 6.19797 7.83274 6.57047ZM6.90231 7.76124L5.98767 8.67651L6.90231 9.59115L6.90331 9.40613C6.90331 9.19321 7.04668 9.01098 7.24876 8.95584L7.37007 8.93938C8.12522 8.93938 8.7843 9.04821 9.34391 9.26643L9.53513 9.3475C9.12621 8.84725 8.46609 8.47944 7.67976 8.4245L7.5082 8.41605L7.37007 8.41404C7.13377 8.41404 6.93848 8.23845 6.90758 8.01069L6.90231 7.76124Z" fill="rgb(25,25,25)" fill-rule="evenodd" />
	<path id="形状结合" d="M10.6588 2.27621L10.6973 2.38452L11.0335 3.45931L14.1668 3.45998C14.443 3.45998 14.6668 3.68384 14.6668 3.95998C14.6668 4.21311 14.4775 4.42231 14.2335 4.45542L10.6668 4.45998L10.5636 4.44932C10.554 4.44514 10.4546 4.41283 10.4453 4.40823C10.4321 4.39831 10.3411 4.33966 10.3289 4.32853C10.3192 4.3137 10.2313 4.20641 10.2234 4.19113L9.743 2.68338C9.68501 2.49816 9.52596 2.36562 9.33743 2.33846L6.7355 2.33331C6.54039 2.33331 6.36646 2.44505 6.28428 2.6166L5.81057 4.10964C5.80525 4.11887 5.75636 4.22712 5.75043 4.23606L5.65565 4.34244C5.64097 4.35126 5.55854 4.40693 5.54277 4.41421C5.5266 4.41873 5.43697 4.44954 5.42029 4.45249L3.5515 4.45931L4.36301 12.7666C4.41093 13.2458 4.79208 13.6153 5.26288 13.66L10.6428 13.6666C11.1248 13.6666 11.5328 13.3241 11.624 12.86L12.336 5.57705C12.3634 5.30227 12.6085 5.10179 12.8832 5.12926C13.1351 5.15444 13.3246 5.36241 13.3332 5.60855L12.633 12.8666C12.5348 13.8501 11.7356 14.6098 10.7606 14.6666L5.35816 14.6666C4.37017 14.6666 3.53664 13.9442 3.3831 12.98L3.36798 12.8666L2.5465 4.45931L1.8335 4.45998C1.55735 4.45998 1.3335 4.23612 1.3335 3.95998C1.3335 3.70685 1.52278 3.49765 1.76683 3.46454L2.93386 3.45919C2.97136 3.45544 3.02486 3.45401 3.06077 3.45836L4.9655 3.45931L5.30367 2.38458C5.48816 1.79535 6.0122 1.38403 6.62051 1.33768L6.7355 1.33331L9.2655 1.33331C9.8829 1.33331 10.4329 1.71013 10.6588 2.27621ZM7.83588 7.50117L7.95296 7.51274C9.53537 7.69459 10.5537 8.64435 10.9446 10.293L10.9828 10.466L11.0165 10.644L11.0411 10.7957C11.1169 11.3011 10.4422 11.5433 10.1793 11.1051C9.76932 10.4218 9.06548 10.0243 8.04164 9.90857L7.83588 9.88972L7.83682 10.7191C7.83682 11.0622 7.48885 11.2707 7.19721 11.1533L7.08451 11.0885L4.99765 9.00675C4.83194 8.84105 4.81687 8.58174 4.95245 8.39902L7.04002 6.30429C7.31858 6.02573 7.78447 6.19797 7.83274 6.57047L7.83588 7.50117ZM5.98767 8.67651L6.90231 9.59115L6.90331 9.40613C6.90331 9.19321 7.04668 9.01098 7.24876 8.95584L7.37007 8.93938C8.12522 8.93938 8.7843 9.04821 9.34391 9.26643L9.53513 9.3475C9.12621 8.84725 8.46609 8.47944 7.67976 8.4245L7.5082 8.41605L7.37007 8.41404C7.13377 8.41404 6.93848 8.23845 6.90758 8.01069L6.90231 7.76124L5.98767 8.67651Z" fill-rule="evenodd" stroke="rgb(0,0,0)" stroke-opacity="0" stroke-width="1" />
</svg>
