<svg viewBox="0 0 16 16" xmlns="http://www.w3.org/2000/svg" xmlns:xlink="http://www.w3.org/1999/xlink" width="16.000000" height="16.000000" fill="none">
	<rect id="操作图标/更新" width="16.000000" height="16.000000" x="0.000000" y="0.000000" />
	<path id="形状结合" d="M3.52856 12.0009C4.62718 13.2279 6.22342 14 8 14C11.3137 14 14 11.3137 14 7.99999C14 7.65935 13.9716 7.32534 13.9171 7.00019L14.9291 6.99999C14.9758 7.3266 15 7.66048 15 7.99999C15 11.866 11.866 15 8 15C6.0408 15 4.26959 14.1951 2.999 12.898L3 14.5C3 14.7761 2.77614 15 2.5 15C2.22386 15 2 14.7761 2 14.5L2 11.5C2 11.2239 2.22386 11 2.5 11L5.5 11C5.77614 11 6 11.2239 6 11.5C6 11.7761 5.77614 12 5.5 12L3.52856 12.0009ZM13.5 1C13.7761 1 14 1.22386 14 1.5L14 4.5C14 4.74546 13.8231 4.94961 13.5899 4.99194L10.5 5C10.2239 5 10 4.77614 10 4.5C10 4.22386 10.2239 4 10.5 4L12.4723 4.00013C11.3737 2.77256 9.77706 2 8 2C4.68629 2 2 4.68629 2 8C2 8.34099 2.02845 8.67534 2.08309 9.00081L1.07103 9.00101C1.02422 8.67409 1 8.33987 1 8C1 4.13401 4.13401 1 8 1C9.95956 1 11.7311 1.80519 13.0017 3.10275L13 1.5C13 1.22386 13.2239 1 13.5 1Z" fill="rgb(25,25,25)" fill-rule="evenodd" />
	<path id="形状结合" d="M8 14C11.3137 14 14 11.3137 14 7.99999C14 7.65935 13.9716 7.32534 13.9171 7.00019L14.9291 6.99999C14.9758 7.3266 15 7.66048 15 7.99999C15 11.866 11.866 15 8 15C6.0408 15 4.26959 14.1951 2.999 12.898L3 14.5C3 14.7761 2.77614 15 2.5 15C2.22386 15 2 14.7761 2 14.5L2 11.5C2 11.2239 2.22386 11 2.5 11L5.5 11C5.77614 11 6 11.2239 6 11.5C6 11.7761 5.77614 12 5.5 12L3.52856 12.0009C4.62718 13.2279 6.22342 14 8 14ZM14 1.5L14 4.5C14 4.74546 13.8231 4.94961 13.5899 4.99194L10.5 5C10.2239 5 10 4.77614 10 4.5C10 4.22386 10.2239 4 10.5 4L12.4723 4.00013C11.3737 2.77256 9.77706 2 8 2C4.68629 2 2 4.68629 2 8C2 8.34099 2.02845 8.67534 2.08309 9.00081L1.07103 9.00101C1.02422 8.67409 1 8.33987 1 8C1 4.13401 4.13401 1 8 1C9.95956 1 11.7311 1.80519 13.0017 3.10275L13 1.5C13 1.22386 13.2239 1 13.5 1C13.7761 1 14 1.22386 14 1.5Z" fill-rule="evenodd" stroke="rgb(0,0,0)" stroke-opacity="0" stroke-width="1" />
</svg>
