<svg viewBox="0 0 16 16" xmlns="http://www.w3.org/2000/svg" xmlns:xlink="http://www.w3.org/1999/xlink" width="16.000000" height="16.000000" fill="none">
	<rect id="操作图标/语音" width="16.000000" height="16.000000" x="0.000000" y="0.000000" />
	<g id="voice-input">
		<path id="矢量 796" d="M11.2385 6.90454C11.2385 7.12435 11.2153 7.33903 11.1689 7.54858C11.1304 7.72382 11.0754 7.89545 11.0044 8.06351C10.9329 8.23245 10.8474 8.39224 10.748 8.54282C10.6382 8.70969 10.5107 8.8653 10.3665 9.00961C10.2222 9.15393 10.0667 9.28116 9.89966 9.39124C9.74902 9.49057 9.58936 9.57596 9.42041 9.6474C9.25244 9.71851 9.08081 9.77338 8.90552 9.8121C8.69604 9.85837 8.4812 9.88156 8.26147 9.88156C8.04175 9.88156 7.8269 9.8584 7.61743 9.8121C7.4423 9.77339 7.27067 9.71849 7.10254 9.6474C6.93359 9.57596 6.77393 9.49054 6.62329 9.3912C6.4563 9.28113 6.30078 9.15393 6.15649 9.00961C6.01213 8.8653 5.88493 8.70971 5.7749 8.54282C5.67554 8.39224 5.59009 8.23245 5.51855 8.06351C5.44751 7.89542 5.39258 7.72379 5.354 7.54858C5.30762 7.33907 5.28442 7.12427 5.28442 6.90454L5.28442 4.0737C5.28442 3.85389 5.30762 3.63921 5.354 3.42966C5.39258 3.25446 5.44751 3.08279 5.51855 2.91473C5.59001 2.74577 5.67546 2.586 5.7749 2.43542C5.88493 2.26855 6.01213 2.11292 6.15649 1.96863C6.3007 1.82432 6.4563 1.69712 6.62329 1.58704C6.77384 1.48771 6.93359 1.40229 7.10254 1.33084C7.27051 1.25974 7.44214 1.20486 7.61743 1.16614C7.8269 1.11987 8.04175 1.09668 8.26147 1.09668C8.4812 1.09668 8.6958 1.11981 8.90527 1.16608C9.08057 1.20479 9.25244 1.25976 9.42041 1.33084C9.58936 1.40231 9.74927 1.4877 9.89966 1.58704C10.0667 1.69712 10.2222 1.82432 10.3665 1.96863C10.5107 2.11295 10.6379 2.26852 10.748 2.43542C10.8473 2.58598 10.9329 2.74579 11.0044 2.91473C11.0754 3.08279 11.1304 3.25446 11.1689 3.42966C11.2153 3.63921 11.2385 3.85389 11.2385 4.0737L11.2385 6.90454ZM10.2385 6.90454L10.2385 4.0737C10.2385 3.92146 10.2218 3.77305 10.1885 3.62848C10.1631 3.51819 10.128 3.41013 10.0833 3.30429C10.0371 3.19519 9.98218 3.09183 9.91846 2.9942C9.84424 2.88022 9.75781 2.77408 9.65942 2.67572C9.56112 2.57739 9.455 2.49104 9.34106 2.41666C9.24341 2.35294 9.13989 2.29797 9.03076 2.25183C8.92497 2.20707 8.81689 2.172 8.70654 2.14661C8.56201 2.11331 8.41382 2.09668 8.26147 2.09668C8.10938 2.09668 7.96094 2.11331 7.81641 2.14661C7.70605 2.172 7.5979 2.20706 7.49219 2.25183C7.38298 2.29797 7.27962 2.35291 7.18213 2.41663C7.06812 2.49103 6.96191 2.57739 6.86353 2.67572C6.76514 2.77408 6.67871 2.88025 6.60449 2.9942C6.54077 3.09186 6.48584 3.19519 6.4397 3.30429C6.39494 3.41013 6.35986 3.5182 6.33447 3.62851C6.30111 3.77308 6.28442 3.92148 6.28442 4.0737L6.28442 6.90454C6.28442 7.05676 6.30103 7.20517 6.33447 7.34973C6.35986 7.4599 6.39494 7.56822 6.4397 7.67395C6.48584 7.78305 6.54077 7.88641 6.60449 7.98404C6.67871 8.09802 6.76514 8.20416 6.86353 8.30252C6.96191 8.40085 7.06812 8.48721 7.18213 8.56161C7.27954 8.62534 7.38306 8.68027 7.49219 8.72641C7.5979 8.77118 7.70605 8.80624 7.81641 8.83163C7.96094 8.86493 8.10938 8.88156 8.26147 8.88156C8.41382 8.88156 8.56201 8.86493 8.70679 8.83163C8.81689 8.80624 8.92505 8.77118 9.03076 8.72641C9.13997 8.68027 9.24341 8.62534 9.34106 8.56161C9.45483 8.48721 9.56104 8.40085 9.65942 8.30252C9.75781 8.20416 9.84424 8.09802 9.91846 7.98404C9.98218 7.88641 10.0371 7.78305 10.0833 7.67395C10.1282 7.56812 10.1631 7.46005 10.1885 7.34973C10.2219 7.20517 10.2385 7.05679 10.2385 6.90454ZM3.45435 6.55054C3.45435 6.27054 3.23438 6.05054 2.95435 6.05054C2.67432 6.05054 2.45435 6.27054 2.45435 6.55054C2.45435 7.06289 2.51156 7.56174 2.62598 8.04709C2.69727 8.34952 2.79102 8.6467 2.90674 8.93863C3.0861 9.3912 3.31112 9.81211 3.58179 10.2014C3.75146 10.4453 3.93872 10.6769 4.14429 10.8959C4.49927 11.2747 4.88965 11.5969 5.31543 11.8625C5.53141 11.9973 5.75643 12.1175 5.99048 12.2231C6.35889 12.3893 6.73608 12.5131 7.12231 12.5946C7.33293 12.639 7.54614 12.6709 7.76196 12.6902L7.76196 14.5966C7.76196 14.8767 7.98193 15.0966 8.26196 15.0966C8.54199 15.0966 8.76196 14.8767 8.76196 14.5966L8.76196 12.6902C8.97795 12.6709 9.19132 12.6391 9.4021 12.5946C9.78833 12.5131 10.1656 12.3893 10.5339 12.2231C10.7681 12.1175 10.9932 11.9973 11.209 11.8625C11.6348 11.5969 12.0251 11.2747 12.3801 10.8959C12.5857 10.6769 12.7729 10.4454 12.9426 10.2015C13.2133 9.81221 13.4383 9.39127 13.6177 8.93863C13.7336 8.6467 13.8271 8.34955 13.8984 8.04715C14.0129 7.56178 14.0701 7.06289 14.0701 6.55054C14.0701 6.27054 13.8501 6.05054 13.5701 6.05054C13.29 6.05054 13.0701 6.27054 13.0701 6.55054C13.0701 6.99929 13.0184 7.43543 12.915 7.85898C12.8562 8.10007 12.7805 8.3371 12.6882 8.57004C12.532 8.96378 12.3352 9.3287 12.0974 9.66483C11.9619 9.8566 11.813 10.039 11.6506 10.212C11.3411 10.5423 10.9998 10.8205 10.627 11.0464C10.4651 11.1447 10.2966 11.2331 10.1226 11.3116C9.81958 11.4483 9.50928 11.55 9.19165 11.6167C8.88859 11.6804 8.57878 11.7122 8.26221 11.7122C7.9458 11.7122 7.63599 11.6804 7.33276 11.6167C7.01514 11.55 6.70483 11.4483 6.40186 11.3116C6.22778 11.2331 6.05957 11.1447 5.89771 11.0464C5.52466 10.8205 5.18335 10.5423 4.87378 10.212C4.71167 10.039 4.56274 9.8566 4.427 9.66479C4.18937 9.32872 3.99243 8.9638 3.83618 8.57004C3.7439 8.3371 3.66821 8.10007 3.60938 7.85892C3.50602 7.43541 3.45435 6.99929 3.45435 6.55054Z" fill="rgb(25,25,25)" fill-rule="nonzero" />
	</g>
</svg>
