<svg viewBox="0 0 48 48" xmlns="http://www.w3.org/2000/svg" xmlns:xlink="http://www.w3.org/1999/xlink" width="48.000000" height="48.000000" fill="none" customFrame="#000000">
	<rect id="项目首字母图标/1-48px*48px" width="48.000000" height="48.000000" x="0.000000" y="0.000000" />
	<rect id="矩形" width="48.000000" height="48.000000" x="0.000000" y="0.000000" opacity="0" fill="rgb(216,216,216)" />
	<rect id="矩形" width="47.000000" height="47.000000" x="0.500000" y="0.500000" opacity="0" stroke="rgb(151,151,151)" stroke-opacity="0" stroke-width="1" />
	<g id="1">
		<path id="路径" d="M29.0005 17.739L28.9998 40.6666L20.6665 40.6666L20.667 23.7498C24.2285 23.0267 27.2401 20.7893 29.0005 17.739Z" fill="rgb(218,95,95)" fill-rule="evenodd" />
		<rect id="矩形" width="5.833333" height="5.833333" x="20.666504" y="34.833374" fill="rgb(40,133,139)" />
		<path id="路径" d="M29.0007 17.739L29 40.6666L26.5 40.6666L26.5006 20.8165C27.488 19.9326 28.3341 18.8941 29.0007 17.739Z" fill="rgb(85,203,170)" fill-rule="evenodd" />
		<rect id="矩形" width="2.500000" height="10.000000" x="29.000000" y="30.666626" fill="rgb(238,186,91)" />
		<path id="路径" d="M29 7.33337L29 11.5C29 17.3977 24.2873 22.1946 18.4224 22.3304L18.1667 22.3334L14 22.3334L14 14L18.1667 14C19.4981 14 20.5864 12.9593 20.6624 11.6469L20.6667 11.5L20.6667 7.33337L29 7.33337Z" fill="rgb(231,131,89)" fill-rule="evenodd" />
		<path id="路径" d="M25.6668 10.6666L25.6668 11.5C25.6668 15.5681 22.4278 18.8798 18.388 18.9968L18.1668 19L17.3335 19L17.3335 17.3333L18.1668 17.3333C21.3214 17.3333 23.8911 14.8293 23.9968 11.7005L24.0002 11.5L24.0002 10.6666L25.6668 10.6666Z" fill="rgb(255,255,255)" fill-rule="evenodd" />
	</g>
</svg>
