<svg viewBox="0 0 48 48" xmlns="http://www.w3.org/2000/svg" xmlns:xlink="http://www.w3.org/1999/xlink" width="48.000000" height="48.000000" fill="none" customFrame="#000000">
	<rect id="项目首字母图标/4-48px*48px" width="48.000000" height="48.000000" x="0.000000" y="0.000000" />
	<rect id="矩形" width="48.000000" height="48.000000" x="0.000000" y="0.000000" opacity="0" fill="rgb(216,216,216)" />
	<rect id="矩形" width="47.000000" height="47.000000" x="0.500000" y="0.500000" opacity="0" stroke="rgb(151,151,151)" stroke-opacity="0" stroke-width="1" />
	<g id="4">
		<path id="形状结合" d="M23.7586 7.38867L14.7222 7.38867L7.92387 23.6001L7.80242 23.9087C7.49707 24.7378 7.34033 25.6153 7.34033 26.5006C7.34033 30.6427 10.6982 34.0006 14.8403 34.0006L21.4998 34.0002L21.4998 25.6666L16.0937 25.6666L23.7586 7.38867ZM25.6612 38.2221L25.6612 40.6672L33.9946 40.6672L33.9946 34L39.8279 34.0006L39.8279 25.6672L33.9946 25.6666L33.9946 14.0006L25.6612 14.0006L25.6612 24.0554L25.6665 24.0554L25.6665 38.2221L25.6612 38.2221Z" fill="rgb(178,126,245)" fill-rule="evenodd" />
		<rect id="矩形" width="8.333333" height="15.000000" x="25.666260" y="25.666626" fill="rgb(231,131,89)" />
		<rect id="矩形" width="8.333333" height="8.333333" x="25.666260" y="25.666626" fill="rgb(84,59,186)" />
		<rect id="矩形备份 61" width="8.333333" height="15.000000" x="25.666260" y="10.666626" fill="rgb(85,203,170)" />
		<path id="形状结合" d="M14.7213 7.38892L23.7578 7.38892L16.0928 25.6671L21.4974 25.6671L21.4974 34.0007L14.8394 34.0011C10.6972 34.0011 7.33936 30.6432 7.33936 26.5011C7.33936 25.6157 7.49609 24.7383 7.80144 23.9092L7.9229 23.6006L14.7213 7.38892Z" fill="rgb(108,163,244)" fill-rule="evenodd" />
		<path id="形状结合" d="M18.7551 10.7219L16.9478 10.7219L11.0073 24.8878L10.922 25.1087C10.7641 25.5547 10.6831 26.0249 10.6831 26.4991C10.6831 28.8003 12.5486 30.6658 14.8498 30.6658L18.1655 30.6658L18.1655 28.9991L14.8498 28.9991L14.7029 28.9949C13.3905 28.9188 12.3498 27.8305 12.3498 26.4991C12.3498 26.1671 12.4159 25.8385 12.5443 25.5323L18.7551 10.7219ZM29.004 30.6658L29.0032 30.6658L29.0032 28.9991L29.004 28.9991L29.004 13.9991L30.6707 13.9991L30.6707 28.9991L36.504 28.9991L36.504 30.6658L30.6707 30.6658L30.6707 40.6658L29.004 40.6658L29.004 30.6658ZM21.5032 30.6658L21.4988 30.6658L21.4988 28.9991L21.5032 28.9991L21.5032 30.6658Z" fill="rgb(255,255,255)" fill-rule="evenodd" />
	</g>
</svg>
