<svg viewBox="0 0 48 48" xmlns="http://www.w3.org/2000/svg" xmlns:xlink="http://www.w3.org/1999/xlink" width="48.000000" height="48.000000" fill="none" customFrame="#000000">
	<rect id="项目首字母图标/6-48px*48px" width="48.000000" height="48.000000" x="0.000000" y="0.000000" />
	<rect id="矩形" width="48.000000" height="48.000000" x="0.000000" y="0.000000" opacity="0" fill="rgb(216,216,216)" />
	<rect id="矩形" width="47.000000" height="47.000000" x="0.500000" y="0.500000" opacity="0" stroke="rgb(151,151,151)" stroke-opacity="0" stroke-width="1" />
	<g id="6">
		<path id="形状结合" d="M34.8384 7.33398L34.8384 15.6673L18.1717 15.6673C16.8403 15.6673 15.752 16.7081 15.676 18.0204L15.6717 18.1673L15.6717 19L15.6707 19L15.6707 29.8335C15.6707 31.1649 16.7115 32.2532 18.0238 32.3293L18.1707 32.3335L28.2749 32.3335C29.5981 32.3335 30.6707 31.2608 30.6707 29.9377C30.6707 28.6617 29.6733 27.6188 28.4157 27.5459L28.2749 27.5418L19.8374 27.5418L19.8374 19.209L28.2759 19.209C34.1156 19.209 38.8656 23.8744 39.002 29.6812L39.005 29.9382C39.005 35.7778 34.3397 40.5278 28.5328 40.6643L28.2759 40.6673L18.1717 40.6673C12.2741 40.6673 7.47719 35.9547 7.34134 30.0897L7.33838 29.834L7.33838 18.1673C7.33838 12.2697 12.051 7.47279 17.916 7.33694L18.1717 7.33398L34.8384 7.33398Z" fill="rgb(238,186,91)" fill-rule="evenodd" />
		<path id="形状结合" d="M15.67 29.8335L15.67 29.8337C15.67 31.1651 16.7108 32.2534 18.0231 32.3294L18.17 32.3337L19.8328 32.3337L19.8328 40.6668L18.0517 40.6668C12.2093 40.6033 7.47651 35.9149 7.34158 30.0899L7.33862 29.8342L7.33862 29.8335L15.67 29.8335Z" fill="rgb(144,57,121)" fill-rule="evenodd" />
		<rect id="矩形" width="16.666666" height="8.333333" x="18.166748" y="7.333374" fill="rgb(97,212,220)" />
		<path id="形状结合" d="M19.8328 32.3334L28.2742 32.3334C29.5974 32.3334 30.67 31.2607 30.67 29.9375C30.67 28.6616 29.6726 27.6186 28.4149 27.5458L28.2742 27.5417L19.8367 27.5417L19.8367 19.2087L28.2761 19.2087C34.1158 19.2087 38.8658 23.8741 39.0023 29.681L39.0053 29.9379C39.0053 35.7776 34.3399 40.5276 28.533 40.6641L28.2761 40.6671L19.8328 40.6671L19.8328 32.3334Z" fill="rgb(178,126,245)" fill-rule="evenodd" />
		<path id="形状结合" d="M36.4753 36.8596L39.5804 38.2396C41.3009 35.8756 42.3274 32.9201 42.3274 29.6135L42.3274 29.6021C42.2556 26.5504 41.2122 23.7389 39.4941 21.4657L36.3442 22.8656C37.9486 24.6942 38.9413 27.0728 39.0026 29.6818L39.0056 29.9387C39.0056 32.5761 38.0539 34.9913 36.4753 36.8596Z" fill="rgb(85,203,170)" fill-rule="evenodd" />
		<path id="形状结合" d="M18.1665 10.6661L17.9454 10.6693C13.9055 10.7863 10.6665 14.098 10.6665 18.1661L10.6665 29.8328L10.6697 30.0539C10.7867 34.0938 14.0983 37.3328 18.1665 37.3328L19.8319 37.3328L19.8319 35.6661L18.168 35.6661L17.9674 35.6628C14.8386 35.5571 12.3346 32.9873 12.3346 29.8328L12.3346 28.9993L12.333 28.9993L12.333 18.9993L12.3332 18.9993L12.3332 18.1661L12.3366 17.9656C12.4423 14.8368 15.012 12.3328 18.1665 12.3328L18.1665 10.6661ZM23.1652 37.3328L28.2707 37.3328L28.4887 37.3297C32.4725 37.2143 35.6665 33.9486 35.6665 29.937L35.6634 29.7189C35.548 25.7352 32.2823 22.5411 28.2707 22.5411L23.1652 22.5411L23.1652 24.2078L28.2721 24.2078L28.4691 24.2111C31.542 24.3149 34.0013 26.8388 34.0013 29.937C34.0013 33.1011 31.4363 35.6661 28.2721 35.6661L23.1652 35.6661L23.1652 37.3328Z" fill="rgb(255,255,255)" fill-rule="evenodd" />
		<path id="形状结合" d="M18.168 7.3335L18.168 15.6668C16.8384 15.6688 15.7522 16.7088 15.6762 18.0199L15.672 18.1668L15.672 18.9993L7.33862 18.9993L7.33862 18.1668C7.33862 12.2692 12.0513 7.47226 17.9162 7.33641L18.168 7.3335Z" fill="rgb(234,113,143)" fill-rule="evenodd" />
	</g>
</svg>
