<svg viewBox="0 0 48 48" xmlns="http://www.w3.org/2000/svg" xmlns:xlink="http://www.w3.org/1999/xlink" width="48.000000" height="48.000000" fill="none" customFrame="#000000">
	<rect id="项目首字母图标/7-48px*48px" width="48.000000" height="48.000000" x="0.000000" y="0.000000" />
	<rect id="矩形" width="48.000000" height="48.000000" x="0.000000" y="0.000000" opacity="0" fill="rgb(216,216,216)" />
	<rect id="矩形" width="47.000000" height="47.000000" x="0.500000" y="0.500000" opacity="0" stroke="rgb(151,151,151)" stroke-opacity="0" stroke-width="1" />
	<g id="7">
		<path id="形状" d="M39.0684 14.8335C39.0684 10.6914 35.7105 7.3335 31.5684 7.3335L8.99683 7.3335L8.99683 15.6668L30.1268 15.6668L21.981 29.8335L31.5943 29.8335L38.0702 18.572L38.2156 18.3069C38.7751 17.2362 39.0684 16.0446 39.0684 14.8335ZM25.3645 40.6662L29.1978 33.9995L19.5845 33.9995L15.7512 40.6662L25.3645 40.6662Z" fill="rgb(105,99,240)" fill-rule="evenodd" />
		<rect id="矩形" width="6.666667" height="8.333333" x="9.000244" y="7.333374" fill="rgb(238,186,91)" />
		<path id="形状结合" d="M15.7517 40.6674L19.5855 34L29.199 34L25.365 40.6674L15.7517 40.6674Z" fill="rgb(255,143,206)" fill-rule="evenodd" />
		<path id="形状结合" d="M24.4706 34L20.8804 40.6674L15.7529 40.6674L19.5867 34L24.4706 34Z" fill="rgb(144,57,121)" fill-rule="evenodd" />
		<path id="形状结合" d="M18.9983 12.3334L31.5732 12.3334L31.7201 12.3377C33.0324 12.4137 34.0732 13.502 34.0732 14.8334C34.0732 15.2708 33.9585 15.7005 33.7404 16.0796L27.7482 26.5006L29.6707 26.5006L35.1853 16.9104L35.3 16.6967C35.5888 16.1192 35.7398 15.4813 35.7398 14.8334C35.7398 12.5322 33.8744 10.6667 31.5732 10.6667L18.9983 10.6667L18.9983 12.3334Z" fill="rgb(255,255,255)" fill-rule="evenodd" />
	</g>
</svg>
