<svg viewBox="0 0 48 48" xmlns="http://www.w3.org/2000/svg" xmlns:xlink="http://www.w3.org/1999/xlink" width="48.000000" height="48.000000" fill="none" customFrame="#000000">
	<rect id="项目首字母图标/C-48px*48px" width="48.000000" height="48.000000" x="0.000000" y="0.000000" />
	<rect id="矩形" width="48.000000" height="48.000000" x="0.000000" y="0.000000" opacity="0" fill="rgb(216,216,216)" />
	<rect id="矩形" width="47.000000" height="47.000000" x="0.500000" y="0.500000" opacity="0" stroke="rgb(151,151,151)" stroke-opacity="0" stroke-width="1" />
	<g id="c">
		<path id="Path" d="M39.8332 32.3334L39.8332 40.6667L18.9998 40.6667C13.0168 40.6667 8.1665 35.8165 8.1665 29.8334C8.1665 29.2666 8.1665 7.33337 8.1665 7.33337L16.4998 7.33337L16.4998 29.0334L16.5039 29.1664C16.5879 30.875 17.9583 32.2453 19.6668 32.3293L19.8332 32.3334L39.8332 32.3334Z" fill="rgb(105,99,240)" fill-rule="evenodd" />
		<path id="Path" d="M16.4998 27.3339L16.4998 29.0334L16.5039 29.1664C16.5879 30.8749 17.9583 32.2453 19.6668 32.3293L19.8332 32.3334L21.499 32.333L21.499 40.6664L18.9998 40.6667C13.0168 40.6667 8.1665 35.8164 8.1665 29.8334L8.1665 27.3339L16.4998 27.3339Z" fill="rgb(218,95,95)" fill-rule="evenodd" />
		<rect id="Rectangle" width="2.500000" height="16.666666" x="5.666504" y="7.333374" fill="rgb(135,214,220)" />
		<rect id="Rectangle" width="1.500000" height="15.666666" x="6.166504" y="7.833374" stroke="rgb(151,151,151)" stroke-opacity="0" stroke-width="1" />
		<rect id="Rectangle" width="2.500000" height="16.666666" x="8.166504" y="7.333374" fill="rgb(85,203,170)" />
		<path id="Path" d="M39.8332 29L39.8332 30.6692L27.0557 30.6671L27.0557 29L39.8332 29Z" fill="rgb(255,143,206)" fill-rule="evenodd" />
		<path id="Path" d="M38.3148 7.245C40.7045 9.18122 42.2538 12.114 42.3302 15.411L42.3331 15.6667L42.3331 16.5L39.8331 16.5L39.83 16.2597C39.7569 13.4168 38.3893 10.8958 36.2949 9.26428L38.3148 7.245Z" fill="rgb(234,216,131)" fill-rule="evenodd" />
		<path id="Path" d="M30.6665 7.33337C35.6488 7.33337 39.7026 11.3082 39.8301 16.2597L39.8332 16.5L39.8332 20.6667L31.4998 20.6667L31.4998 16.5C31.4998 16.0727 31.1781 15.7205 30.7637 15.6723L30.6665 15.6667L20.6665 15.6667L20.6665 7.33337L30.6665 7.33337Z" fill="rgb(85,203,170)" fill-rule="evenodd" />
		<path id="Path" d="M13.1667 27.3334L13.1667 29.1011C13.231 30.9161 13.772 32.6583 14.8747 33.8059C16.0415 35.0202 17.8242 35.6003 19.5984 35.6626L36.5001 35.666L36.5001 37.3334L19.0001 37.3334C16.929 37.3334 15.054 36.4939 13.6968 35.1367C12.3395 33.7794 11.6292 31.9044 11.6292 29.8334C11.6292 29.3563 11.5205 27.3334 11.5205 27.3334L13.1667 27.3334Z" fill="rgb(255,255,255)" fill-rule="evenodd" />
		<path id="Path" d="M13.1667 29.1011L13.1667 27.3334L11.5205 27.3334C11.5205 27.3334 11.5454 27.7974 11.5714 28.3334C11.5997 28.9165 11.6292 29.5848 11.6292 29.8334C11.6292 31.9044 12.3395 33.7794 13.6968 35.1367C15.054 36.4939 16.929 37.3334 19.0001 37.3334L36.5001 37.3334L36.5001 35.666L19.5984 35.6626C17.8242 35.6003 16.0415 35.0202 14.8747 33.8059C13.772 32.6583 13.231 30.9161 13.1667 29.1011Z" fill="rgb(151,151,151)" fill-opacity="0" fill-rule="evenodd" />
		<path id="Path" d="M30.6667 10.6666C33.8212 10.6666 36.3909 13.1706 36.4966 16.2994L36.5 16.5L36.5 17.3333L34.8333 17.3333L34.8333 16.5C34.8333 14.2593 33.0647 12.4318 30.8474 12.3371L30.6667 12.3333L24 12.3333L24 10.6666L30.6667 10.6666Z" fill="rgb(255,255,255)" fill-rule="evenodd" />
		<path id="Path" d="M34.8333 16.5L34.8333 17.3333L36.5 17.3333L36.5 16.5L36.4972 16.3333L36.4966 16.2994C36.3909 13.1706 33.8212 10.6666 30.6667 10.6666L24 10.6666L24 12.3333L30.6667 12.3333L30.8474 12.3371C33.0647 12.4318 34.8333 14.2593 34.8333 16.5Z" fill="rgb(151,151,151)" fill-opacity="0" fill-rule="evenodd" />
	</g>
</svg>
