<svg viewBox="0 0 48 48" xmlns="http://www.w3.org/2000/svg" xmlns:xlink="http://www.w3.org/1999/xlink" width="48.000000" height="48.000000" fill="none" customFrame="#000000">
	<rect id="项目首字母图标/L-48px*48px" width="48.000000" height="48.000000" x="0.000000" y="0.000000" />
	<rect id="矩形" width="48.000000" height="48.000000" x="0.000000" y="0.000000" opacity="0" fill="rgb(216,216,216)" />
	<rect id="矩形" width="47.000000" height="47.000000" x="0.500000" y="0.500000" opacity="0" stroke="rgb(151,151,151)" stroke-opacity="0" stroke-width="1" />
	<g id="l">
		<path id="Path" d="M19.8333 30.6666C19.8333 32.5614 21.0981 34.1609 22.8295 34.6666L16.6888 40.8066C13.6114 38.5838 11.5861 34.9945 11.5027 30.9282L11.5 30.6666L19.8333 30.6666Z" fill="rgb(234,216,131)" fill-rule="evenodd" />
		<path id="Path" d="M23.3333 -1.03621e-13L23.3333 12.5C23.3333 18.3976 18.6207 23.1945 12.7557 23.3304L12.5 23.3333L1.89432e-13 23.3333L1.89432e-13 15L12.5 15C13.8314 15 14.9197 13.9592 14.9958 12.6469L15 12.5L15 -1.03621e-13L23.3333 -1.03621e-13Z" fill="rgb(108,163,244)" fill-rule="evenodd" transform="matrix(-1,0,0,1,37.3335,17.3334)" />
		<rect id="Rectangle" width="8.333333" height="6.666667" x="14.000000" y="7.333374" fill="rgb(218,95,95)" />
		<rect id="Rectangle" width="2.500000" height="6.666667" x="19.833496" y="7.333374" fill="rgb(255,143,206)" />
		<path id="Path" d="M19.0002 20.6666L19.0002 29.7886C19.0002 32.9154 21.4619 35.4731 24.5621 35.6157L24.7608 35.6215L34.0105 35.7367L33.9898 37.4032L24.7401 37.288C20.708 37.2378 17.4517 34.0126 17.3366 30.0078L17.3335 29.7886L17.3335 20.6666L19.0002 20.6666Z" fill="rgb(255,255,255)" fill-rule="evenodd" />
		<path id="Path" d="M32.9899 37.3908L24.7401 37.288C20.708 37.2378 17.4517 34.0126 17.3366 30.0078L17.3335 29.7886L17.3335 20.6666L19.0002 20.6666L19.0002 29.7886C19.0002 32.9154 21.4619 35.4731 24.5621 35.6157L24.7608 35.6215L33.0106 35.7242L34.0105 35.7367L34.0022 36.4033L33.9981 36.7366L33.9898 37.4032L32.9899 37.3908Z" fill="rgb(151,151,151)" fill-opacity="0" fill-rule="evenodd" />
	</g>
</svg>
