<svg viewBox="0 0 32 32" xmlns="http://www.w3.org/2000/svg" xmlns:xlink="http://www.w3.org/1999/xlink" width="32.000000" height="32.000000" fill="none" customFrame="#000000">
	<defs>
		<filter id="pixso_custom_mask_type_outline">
			<feColorMatrix type="matrix" values="0 0 0 0 1 0 0 0 0 1 0 0 0 0 1 0 0 0 1 0 " />
		</filter>
		<clipPath id="clipPath_15">
			<rect width="15.000000" height="16.000000" x="9.000000" y="11.000000" fill="rgb(255,255,255)" />
		</clipPath>
	</defs>
	<mask id="mask_22" width="24.000000" height="28.000000" x="4.000000" y="2.000000" maskUnits="userSpaceOnUse">
		<g filter="url(#pixso_custom_mask_type_outline)">
			<path id="蒙版" d="M7 2L20 2L28 10L28 27C28 28.6569 26.6569 30 25 30L7 30C5.34315 30 4 28.6569 4 27L4 5C4 3.34315 5.34315 2 7 2Z" fill="rgb(255,255,255)" fill-rule="evenodd" />
			<path id="蒙版" d="M20 2L7 2C5.34315 2 4 3.34315 4 5L4 27C4 28.6569 5.34315 30 7 30L25 30C26.6569 30 28 28.6569 28 27L28 10L20 2ZM19.5858 3L27 10.4142L27 27Q27 27.2366 26.9472 27.4607Q26.909 27.6227 26.8432 27.7782Q26.7744 27.9409 26.6798 28.0869Q26.5657 28.2627 26.4142 28.4142Q26.2627 28.5657 26.0869 28.6797Q25.9409 28.7744 25.7782 28.8432Q25.6227 28.909 25.4607 28.9472Q25.2366 29 25 29L7 29Q6.76343 29 6.53931 28.9472Q6.37731 28.909 6.22182 28.8432Q6.05905 28.7744 5.91306 28.6797Q5.73727 28.5657 5.58579 28.4142Q5.43429 28.2627 5.32027 28.0869Q5.22559 27.9409 5.15676 27.7782Q5.091 27.6227 5.05282 27.4607Q5 27.2366 5 27L5 5Q5 4.76342 5.05282 4.53929Q5.09099 4.3773 5.15676 4.22182Q5.22561 4.05904 5.32031 3.91303Q5.43432 3.73726 5.58579 3.58579Q5.73726 3.43431 5.91303 3.32031Q6.05904 3.22561 6.22182 3.15676Q6.3773 3.09099 6.53929 3.05282Q6.76342 3 7 3L19.5858 3Z" fill="rgb(223,225,230)" fill-opacity="0" fill-rule="evenodd" />
		</g>
	</mask>
	<rect id="雪碧图/32px/drawing board" width="32.000000" height="32.000000" x="0.000000" y="0.000000" fill="rgb(255,255,255)" fill-opacity="0" />
	<g id="组合 3858">
		<rect id="矩形" width="32.000000" height="32.000000" x="0.000000" y="0.000000" fill="rgb(0,0,0)" fill-opacity="0" />
		<rect id="矩形" width="31.000000" height="31.000000" x="0.500000" y="0.500000" stroke="rgb(151,151,151)" stroke-opacity="0" stroke-width="1" />
		<g id="路径" showMaskRef="url(#show_mask_16)" mask="url(#mask_22)">
			<g id="show_mask_16">
				<path id="蒙版" d="M7 2L20 2L28 10L28 27C28 28.6569 26.6569 30 25 30L7 30C5.34315 30 4 28.6569 4 27L4 5C4 3.34315 5.34315 2 7 2Z" fill="rgb(92,179,0)" fill-rule="evenodd" />
				<path id="蒙版" d="M20 2L7 2C5.34315 2 4 3.34315 4 5L4 27C4 28.6569 5.34315 30 7 30L25 30C26.6569 30 28 28.6569 28 27L28 10L20 2ZM19.5858 3L27 10.4142L27 27Q27 27.2366 26.9472 27.4607Q26.909 27.6227 26.8432 27.7782Q26.7744 27.9409 26.6798 28.0869Q26.5657 28.2627 26.4142 28.4142Q26.2627 28.5657 26.0869 28.6797Q25.9409 28.7744 25.7782 28.8432Q25.6227 28.909 25.4607 28.9472Q25.2366 29 25 29L7 29Q6.76343 29 6.53931 28.9472Q6.37731 28.909 6.22182 28.8432Q6.05905 28.7744 5.91306 28.6797Q5.73727 28.5657 5.58579 28.4142Q5.43429 28.2627 5.32027 28.0869Q5.22559 27.9409 5.15676 27.7782Q5.091 27.6227 5.05282 27.4607Q5 27.2366 5 27L5 5Q5 4.76342 5.05282 4.53929Q5.09099 4.3773 5.15676 4.22182Q5.22561 4.05904 5.32031 3.91303Q5.43432 3.73726 5.58579 3.58579Q5.73726 3.43431 5.91303 3.32031Q6.05904 3.22561 6.22182 3.15676Q6.3773 3.09099 6.53929 3.05282Q6.76342 3 7 3L19.5858 3Z" fill="rgb(223,225,230)" fill-opacity="0" fill-rule="evenodd" />
			</g>
			<g id="svg" clip-path="url(#clipPath_15)" customFrame="url(#clipPath_15)">
				<rect id="svg" width="15.000000" height="16.000000" x="9.000000" y="11.000000" />
				<g id="ic_public_office_brush-画笔/base/ic_public_office_brush1">
					<path id="path6" d="M13.5333 23.4382L9.875 24.8333L11.4169 20.7952L19.1124 13.1001C19.8016 12.4109 20.919 12.411 21.6081 13.1002C22.2973 13.7894 22.2973 14.9069 21.6081 15.5961L14.8912 22.3175" stroke="rgb(255,255,255)" stroke-linecap="round" stroke-linejoin="round" stroke-width="1.5" />
					<line id="path7" x1="0" x2="3.51560974" y1="0" y2="0" stroke="rgb(255,255,255)" stroke-linecap="square" stroke-linejoin="round" stroke-width="1.5" transform="matrix(0.705038,0.70917,-0.70917,0.705038,18.5347,13.6929)" />
					<path id="path8" d="M16.3501 23.632C16.7621 24.4423 17.2822 24.8475 17.9105 24.8475C18.8918 24.8475 19.3342 23.6954 20.1977 23.632C20.7734 23.5898 21.3469 23.8969 21.9183 24.5533" stroke="rgb(255,255,255)" stroke-linecap="round" stroke-linejoin="round" stroke-width="1.5" />
					<path id="矢量 793" d="M14 25.0878C14.1434 25.1785 14.5505 25.3054 15.0323 25.0878C15.514 24.8703 17.7849 24 18.2151 24C18.6452 24 18.7828 24.272 18.6452 24.6346C18.5075 24.9972 17.957 25.6318 18.129 25.9037C18.3011 26.1756 19.9355 25.8131 20.6237 25.5411C21.3118 25.2691 21.828 25.3598 22 25.5411" opacity="0" stroke="rgb(255,255,255)" stroke-linecap="round" stroke-width="1.5" />
					<path id="path9" d="M20.1849 23.4575C20.8232 23.4106 21.4459 23.7441 22.0503 24.4384C22.1137 24.5113 22.1061 24.6219 22.0332 24.6853C21.9603 24.7488 21.8497 24.7411 21.7863 24.6682C21.2478 24.0496 20.7235 23.7689 20.2105 23.8065C19.9376 23.8265 19.7196 23.9568 19.338 24.287C19.2903 24.3284 19.2903 24.3284 19.2421 24.3704C18.6985 24.8433 18.3888 25.0225 17.9105 25.0225C17.2076 25.0225 16.6332 24.5751 16.1941 23.7113C16.1503 23.6251 16.1846 23.5198 16.2708 23.476C16.3569 23.4322 16.4623 23.4665 16.5061 23.5527C16.8908 24.3095 17.3568 24.6725 17.9105 24.6725C18.2771 24.6725 18.5295 24.5264 19.0123 24.1063C19.0605 24.0644 19.0605 24.0644 19.109 24.0223C19.5446 23.6454 19.8136 23.4847 20.1849 23.4575Z" fill="rgb(255,255,255)" fill-opacity="0" fill-rule="nonzero" />
					<path id="path9" d="M22.0503 24.4384C22.1137 24.5113 22.1061 24.6219 22.0332 24.6853C21.9603 24.7488 21.8497 24.7411 21.7863 24.6682C21.2478 24.0496 20.7235 23.7689 20.2105 23.8065C19.9376 23.8265 19.7196 23.9568 19.338 24.287C19.2903 24.3284 19.2903 24.3284 19.2421 24.3704C18.6985 24.8433 18.3888 25.0225 17.9105 25.0225C17.2076 25.0225 16.6332 24.5751 16.1941 23.7113C16.1503 23.6251 16.1846 23.5198 16.2708 23.476C16.3569 23.4322 16.4623 23.4665 16.5061 23.5527C16.8908 24.3095 17.3568 24.6725 17.9105 24.6725C18.2771 24.6725 18.5295 24.5264 19.0123 24.1063C19.0605 24.0644 19.0605 24.0644 19.109 24.0223C19.5446 23.6454 19.8136 23.4847 20.1849 23.4575C20.8232 23.4106 21.4459 23.7441 22.0503 24.4384Z" fill-rule="nonzero" stroke="rgb(255,255,255)" stroke-opacity="0" stroke-linejoin="round" stroke-width="0.699999988" />
				</g>
			</g>
			<path id="路径" d="M28 10L21.5 10C20.6716 10 20 9.32843 20 8.5L20 2" fill="rgb(185,230,131)" fill-rule="evenodd" />
			<path id="路径" d="M28 10L21.5 10C20.6716 10 20 9.32843 20 8.5L20 2L21 3L21 8.5Q21 8.60355 21.0366 8.69194Q21.0732 8.78033 21.1464 8.85355Q21.2197 8.92678 21.3081 8.96339Q21.3964 9 21.5 9L27 9L28 10Z" fill="rgb(223,225,230)" fill-opacity="0" fill-rule="evenodd" />
			<path id="路径 6" d="M8.5 21.3938L12.2173 17.4814L16.3341 22L23.5 14" opacity="0" fill="rgb(216,216,216)" fill-opacity="0" fill-rule="evenodd" />
			<path id="路径 6" d="M8.5 21.3938L12.2173 17.4814L16.3341 22L23.5 14" opacity="0" fill-rule="evenodd" stroke="rgb(255,255,255)" stroke-width="1.5" />
		</g>
	</g>
</svg>
