<svg viewBox="0 0 88 88" xmlns="http://www.w3.org/2000/svg" xmlns:xlink="http://www.w3.org/1999/xlink" width="88.000000" height="88.000000" fill="none" customFrame="#000000">
	<defs>
		<filter id="pixso_custom_mask_type_outline">
			<feColorMatrix type="matrix" values="0 0 0 0 1 0 0 0 0 1 0 0 0 0 1 0 0 0 1 0 " />
		</filter>
	</defs>
	<mask id="mask_51" width="88.000000" height="88.000000" x="0.000000" y="0.000000" maskUnits="userSpaceOnUse">
		<g filter="url(#pixso_custom_mask_type_outline)">
			<circle id="蒙版" cx="44" cy="44" r="44" fill="rgb(255,255,255)" />
		</g>
	</mask>
	<rect id="人物头像/男人5" width="88.000000" height="88.000000" x="0.000000" y="0.000000" />
	<circle id="蒙版" cx="44" cy="44" r="44" fill="rgb(252,205,203)" />
	<g mask="url(#mask_51)">
		<g id="编组 4">
			<g id="编组 3">
				<path id="路径" d="M52.8038 52.9262L52.7909 53.2924C52.7696 53.8402 52.7333 54.6109 52.6915 55.4182L52.6389 56.4002C52.6243 56.6642 52.6047 56.9472 52.5896 57.2294L52.585 57.3185L52.5792 57.4447C52.5471 58.1855 52.5637 58.8867 52.8038 59.1882C53.1582 59.633 53.6276 59.8343 54.3167 59.9623L55.3608 60.1534L55.7848 60.2324C56.7809 60.4206 57.7048 60.6193 57.9976 60.8075L57.9929 60.8582L57.7738 60.8274C57.5432 60.7951 57.416 60.8385 57.3504 60.9382C56.7322 61.3394 56.2676 62.659 56.2499 62.9113C56.1398 64.4894 55.8377 66.0228 55.2955 67.5147C54.7863 68.9158 54.0135 70.0359 53.0076 70.8986L53.2711 70.8985C52.3628 71.6982 51.266 72.2658 50.0114 72.6343C48.0707 73.2044 46.1276 73.4969 44.1861 73.505L44.0672 73.505L43.9768 73.5045L43.8865 73.505L43.7676 73.505C41.8261 73.4969 39.883 73.2044 37.9423 72.6343C36.6877 72.2658 35.5909 71.6982 34.6826 70.8985L34.946 70.8986C33.9402 70.0359 33.1674 68.9158 32.6582 67.5147C32.116 66.0228 31.8139 64.4894 31.7038 62.9113C31.6861 62.659 31.2215 61.3394 30.6033 60.9382C30.5376 60.8385 30.4105 60.7951 30.1799 60.8274L29.9608 60.8582L29.9561 60.8075C30.2582 60.6133 31.2321 60.408 32.264 60.2145L32.5929 60.1534L33.637 59.9623C34.3261 59.8343 34.7955 59.633 35.1499 59.1882C35.381 58.8981 35.405 58.2379 35.3779 57.5283L35.3727 57.4027L35.3687 57.3185L35.3641 57.2294C35.349 56.9472 35.3294 56.6642 35.3148 56.4002L35.2622 55.4182L35.218 54.5352C35.1862 53.8758 35.1614 53.2978 35.1499 52.9262C35.3729 53.1352 35.5614 53.3792 35.8024 53.5695L35.8206 52.7239C35.9697 53.003 36.7686 53.4522 37.6072 53.9392L37.8218 54.0643C38.6986 54.5777 49.2286 54.5943 50.0914 54.088L50.8847 53.6264C51.5035 53.2638 52.0166 52.942 52.1331 52.7239L52.1513 51.8507C52.3923 51.6604 52.5808 53.1352 52.8038 52.9262Z" fill="rgb(252,188,165)" fill-rule="evenodd" />
				<path id="形状结合" d="M52.806 52.9266L52.793 53.2928C52.7718 53.8406 52.7355 54.6113 52.6937 55.4186L52.6411 56.4006C52.6265 56.6646 52.6069 56.9476 52.5918 57.2299L52.5872 57.3189L52.5813 57.4451C52.5739 57.6172 52.5691 57.7873 52.5691 57.9507C52.5691 58.4903 52.6217 58.9572 52.806 59.1887C53.1604 59.6334 53.6298 59.8347 54.3188 59.9627L55.363 60.1538L55.787 60.2328C56.783 60.421 57.7069 60.6197 57.9998 60.8079L57.995 60.8586L57.776 60.8278C57.5454 60.7955 57.4182 60.8389 57.3526 60.9386C56.7344 61.3398 56.2698 62.6594 56.2521 62.9117C56.1686 64.1083 55.9747 65.2792 55.6495 66.4258L55.5706 66.4062C55.1518 66.3016 54.6775 66.1804 54.1921 66.0548L53.7251 65.9336L52.7071 65.6666C51.8128 65.4306 48.5955 64.79 44.7353 62.514C40.8752 60.2379 35.7806 53.8167 35.4199 53.203C35.5559 53.3477 35.6929 53.4915 35.8547 53.6099C38.4985 55.544 41.4099 56.6149 44.7353 56.4435C46.6659 56.344 48.4286 55.7559 50.0963 54.8183C50.9511 54.3377 51.7103 53.7306 52.4515 53.0979L52.6254 52.9486C52.6449 52.9294 52.6645 52.9097 52.6843 52.8896C52.7241 52.946 52.7644 52.9656 52.806 52.9266Z" fill="rgb(223,132,104)" fill-rule="evenodd" />
				<g id="编组 17">
					<path id="Fill 53备份" d="M60.2846 37.1647C60.661 37.0734 61.0361 36.9825 61.4335 36.9883C62.4346 37.0028 63.2778 37.5883 63.6303 38.5355C63.8973 39.2534 63.9029 39.9894 63.752 40.722C63.4401 42.2365 62.9309 43.6707 61.8211 44.805C60.5172 46.1381 58.9429 46.4168 57.2079 45.8712C56.8753 45.7665 56.8303 45.8399 56.8256 46.1249C56.8237 46.2432 56.7806 46.3609 56.7563 46.4789C56.6242 47.047 56.3324 47.5664 56.2474 48.1489C56.0692 48.5364 55.8668 48.9134 55.7386 49.3226C55.4313 50.2386 54.8833 51.0175 54.324 51.788C54.0976 52.0997 53.8449 52.3923 53.6041 52.6935C53.2279 53.4796 52.4815 53.892 51.8305 54.3777C50.6698 55.2435 49.4085 55.9491 48.0126 56.3769C46.9075 56.7155 45.7817 56.8972 44.6176 56.9247C42.8241 56.967 41.0902 56.7102 39.4041 56.1096C38.6473 55.84 37.8935 55.5114 37.2409 55.074C35.8517 54.1429 34.3451 52.4625 34.1756 52.2986C32.8959 51.0614 32.1014 49.5416 31.6101 47.8486C31.4584 47.3254 31.3109 46.801 31.1672 46.2756C31.0528 45.8574 31.0057 45.8322 30.5822 45.9602C29.4523 46.3017 28.3682 46.2405 27.3135 45.6565C26.4419 45.1738 25.807 44.4723 25.34 43.6216C24.5852 42.2467 24.1732 40.775 24.2418 39.1903C24.2931 38.0053 24.9477 37.1645 26.0178 36.9615C26.4702 36.8757 26.9364 36.8578 27.3739 37.0716C27.5895 37.0926 27.7587 37.2311 27.9549 37.3014C28.1575 37.2841 28.2895 37.4103 28.4097 37.5415C28.4994 37.6394 28.5913 37.7291 28.7075 37.7929C29.4179 38.3155 30.0661 38.9122 30.7399 39.529C30.7473 39.4015 30.7416 39.2765 30.7361 39.154C30.7239 38.8856 30.7123 38.6295 30.8407 38.3872C30.8722 38.3227 30.9124 38.2616 30.9394 38.1955C30.9555 37.2968 31.12 36.4159 31.409 35.5727C31.9531 33.985 32.1585 32.3615 32.1201 30.6951C32.0921 29.479 32.4098 28.3711 33.1494 27.3901C33.8375 26.4773 34.6805 25.7361 35.6333 25.1175C36.5786 24.5036 37.6065 24.1481 38.7492 24.1545C38.8593 24.1551 38.9685 24.1335 39.0782 24.1119C39.2278 24.0824 39.3784 24.0527 39.5335 24.0787C40.7813 24.0371 42.029 24.0259 43.2767 24.0842C43.2967 24.0806 43.3159 24.083 43.3346 24.0911C43.5486 24.0851 43.7308 24.1704 43.9144 24.272C44.9152 24.8255 45.8074 25.5358 46.7175 26.2183C47.25 26.6175 47.7938 27.0022 48.3118 27.4209C48.6423 27.5532 48.9156 27.7781 49.2031 27.978C50.523 28.8955 52.0105 29.4446 53.5137 29.9639C53.7953 30.0612 54.0995 30.108 54.3491 30.2896C54.5709 30.4063 54.8594 30.3995 55.0106 30.6468C55.434 31.011 55.7218 31.4472 55.743 32.0253C55.7378 32.0331 55.734 32.0444 55.7301 32.0562C55.7342 32.0539 55.739 32.0489 55.7445 32.0433C55.7588 32.0283 55.7777 32.0085 55.8012 32.0223C56.0562 32.1344 56.1096 32.3928 56.1885 32.6098C56.7052 34.0303 57.1456 35.468 57.2416 36.9941C57.2564 37.2294 57.2802 37.4641 57.304 37.6989C57.3445 38.0977 57.3849 38.4967 57.3811 38.8986C57.4216 39.0897 57.418 39.2836 57.4141 39.4939C57.4127 39.5693 57.4113 39.6468 57.4118 39.7271C57.7931 39.4396 58.1632 39.1959 58.4868 38.8896C58.5036 38.8737 58.5201 38.8575 58.5367 38.8412C58.6487 38.7314 58.762 38.6204 58.9404 38.6218C58.9443 38.6233 58.9475 38.625 58.9512 38.6265C59.265 38.2045 59.4779 37.7307 59.6562 37.2392C59.6843 37.2336 59.7124 37.2263 59.7404 37.2189C59.8398 37.1929 59.9391 37.1668 60.042 37.2225C60.1231 37.2039 60.2039 37.1843 60.2846 37.1647ZM26.6817 39.5677C26.3235 39.4324 25.9504 39.3168 25.5871 39.5557C26.0781 39.1909 26.6015 39.1332 27.1772 39.3165C27.445 39.4017 27.6975 39.5174 27.951 39.6348C27.9686 39.643 27.9863 39.6517 28.0041 39.6604C28.1032 39.709 28.2047 39.7588 28.3158 39.7288C28.3906 39.8827 28.5424 39.9471 28.6765 40.0349C28.9992 40.2461 29.3736 40.364 29.685 40.596C29.6877 40.5975 29.6901 40.5994 29.6927 40.601C29.6492 40.6892 29.6626 40.791 29.6758 40.8914C29.6775 40.9045 29.6793 40.9175 29.6808 40.9305C29.8021 41.9243 29.9209 42.9185 30.16 43.8008C29.5213 42.6977 28.948 41.457 28.0071 40.4492C27.6368 40.0524 27.1866 39.7585 26.6817 39.5677ZM58.7814 42.0653C59.1834 41.4852 59.6531 40.9582 60.1815 40.4898C60.5931 40.125 61.0535 39.8299 61.5913 39.6812C62.0671 39.5497 62.3173 39.6235 62.5868 39.9798C62.0377 39.2243 61.3967 39.0507 60.4871 39.4308C59.8769 39.6857 59.3721 40.1136 58.8328 40.4846C58.8053 40.5036 58.7778 40.5233 58.7503 40.5431C58.585 40.6618 58.4157 40.7835 58.2015 40.7565C58.2036 40.7608 58.2051 40.7649 58.2073 40.7693C58.1974 40.8583 58.1937 40.9485 58.19 41.0388C58.179 41.3063 58.168 41.5739 57.9954 41.8082C57.9805 41.8182 57.9663 41.826 57.9522 41.8329C58.0685 41.933 58.0563 42.0729 58.0373 42.2062C57.9603 42.7472 57.8593 43.2836 57.7121 43.7276C58.0245 43.208 58.3911 42.6283 58.7814 42.0653Z" fill="rgb(252,188,165)" fill-rule="evenodd" />
					<g id="编组 18备份">
						<path id="路径-101备份 (边框)" d="M50.2957 38.4465C49.7457 38.481 49.2067 38.691 48.6787 39.0766C48.5657 39.1592 48.5417 39.3129 48.6243 39.4259C48.7068 39.539 48.8605 39.563 48.9736 39.4804C49.4504 39.1322 49.931 38.9527 50.4152 38.9421C50.4892 38.9404 50.5632 38.9427 50.6373 38.949C51.0701 38.9854 51.4659 39.0948 51.8245 39.2772C51.9442 39.338 52.0597 39.407 52.1712 39.4841C52.2863 39.5637 52.4393 39.5359 52.519 39.4207C52.5987 39.3056 52.5708 39.1526 52.4557 39.0729C52.3087 38.9712 52.1557 38.8817 51.9969 38.8043C51.5955 38.6088 51.1563 38.4909 50.6793 38.4507C50.5508 38.4399 50.423 38.4385 50.2957 38.4465Z" fill="rgb(24,24,24)" fill-rule="evenodd" />
						<path id="路径-101备份-3备份 (边框)" d="M1.33477 0.0329967C0.91745 0.0949398 0.51307 0.244095 0.121635 0.480462C0.00178938 0.55283 -0.035514 0.703854 0.0368541 0.8237C0.109222 0.943545 0.260247 0.980848 0.380092 0.90848C0.72543 0.699949 1.0814 0.571286 1.448 0.522491C1.63293 0.497876 1.82057 0.493585 2.01091 0.509619C2.36129 0.539134 2.68574 0.623917 2.98427 0.763967C3.17274 0.852386 3.35087 0.962834 3.51867 1.09531C3.62855 1.18206 3.78305 1.16389 3.8698 1.05401C3.95656 0.944123 3.93838 0.789625 3.8285 0.702873C3.62155 0.539492 3.40162 0.404497 3.16869 0.297887C2.82503 0.140598 2.4531 0.0450968 2.05288 0.0113839C1.8094 -0.00912618 1.57003 -0.00192191 1.33477 0.0329967Z" fill="rgb(24,24,24)" fill-rule="evenodd" transform="matrix(-1,0,0,1,39.6814,38.4395)" />
						<path id="椭圆形备份-33备份" d="M37.7155 40.7C38.323 40.7 38.8155 40.2075 38.8155 39.6C38.8155 38.9925 38.323 38.5 37.7155 38.5C37.108 38.5 36.6155 38.9925 36.6155 39.6C36.6155 40.2075 37.108 40.7 37.7155 40.7Z" fill="rgb(24,24,24)" fill-rule="evenodd" />
						<path id="椭圆形备份-34备份" d="M50.4755 40.7C51.083 40.7 51.5755 40.2075 51.5755 39.6C51.5755 38.9925 51.083 38.5 50.4755 38.5C49.868 38.5 49.3755 38.9925 49.3755 39.6C49.3755 40.2075 49.868 40.7 50.4755 40.7Z" fill="rgb(24,24,24)" fill-rule="evenodd" />
						<path id="Fill-250备份" d="M0.345325 3.23962e-05C0.0165467 0.00615077 -0.124704 0.0961214 0.133307 0.632645C0.391318 1.16917 1.33476 2.36857 2.8565 2.46268C4.37824 2.55679 5.43503 1.50951 5.83015 1.03101C6.22527 0.552503 6.15583 0.140886 5.54492 0.363624C4.93401 0.586361 4.48529 1.02874 2.93073 0.942565C1.37617 0.856387 0.674103 -0.00608602 0.345325 3.23962e-05Z" fill="rgb(223,132,104)" fill-rule="evenodd" transform="matrix(0.997564,-0.0697565,0.0697565,0.997564,41.1855,43.7363)" />
						<path id="路径-98备份" d="M43.0664 50.9798C43.4541 51.2597 43.895 51.3996 44.3891 51.3996C44.8832 51.3996 45.3223 51.2597 45.7064 50.9798" fill-rule="evenodd" stroke="rgb(223,132,104)" stroke-linecap="round" stroke-width="0.5" />
						<path id="路径-97备份" d="M40.8203 48.3652C41.9076 48.9254 43.0364 49.2055 44.2067 49.2055C45.3771 49.2055 46.5062 48.9254 47.594 48.3652" fill-rule="evenodd" stroke="rgb(223,132,104)" stroke-linecap="round" stroke-width="0.5" />
						<path id="Fill 4057备份" d="M54.5977 36.6156C54.2657 35.6865 53.8415 34.83 52.8674 34.4C52.2915 34.1457 51.6799 34.0517 51.0605 33.9924C49.9673 33.8878 48.8965 34.0154 47.8554 34.3507C47.2983 34.5301 47.1472 34.9261 47.3221 35.5907C47.4391 36.0357 47.6522 36.1382 48.2711 36.0222C49.0243 35.8812 49.7749 35.7203 50.5401 35.6639C51.9842 35.5571 53.3954 35.6069 54.5977 36.6156" fill="rgb(11,4,8)" fill-rule="evenodd" />
						<path id="Fill 4063备份" d="M40.2509 34.3864C38.7976 33.9378 37.3125 33.8764 35.8191 34.1503C34.487 34.3945 33.8266 35.3113 33.498 36.553C34.1861 35.9558 34.9922 35.6822 35.8829 35.6297C36.2738 35.5782 36.6648 35.5802 37.0559 35.6279C37.3951 35.7343 37.7523 35.7072 38.1 35.763C38.6281 35.8478 39.1618 35.9036 39.6796 36.041C40.1691 36.1709 40.6341 35.9614 40.7924 35.5124C40.9855 34.9651 40.8215 34.5625 40.2509 34.3864" fill="rgb(11,4,8)" fill-rule="evenodd" />
					</g>
					<path id="Fill 493备份" d="M30.9384 38.446C30.8269 38.8969 30.9199 39.3519 30.9302 39.8642C30.1307 39.1743 29.3718 38.5193 28.6127 37.8643C28.1856 37.2889 28.0663 36.5966 27.9148 35.9266C27.3505 33.4304 26.826 30.9257 26.1799 28.4479C25.9203 27.4524 25.6222 26.4595 25.5102 25.4311C25.4383 24.7709 25.3528 24.1041 25.5594 23.448C25.7328 23.0642 25.8336 22.6512 26.021 22.2726C26.035 22.2211 26.06 22.1753 26.0945 22.1352C26.2152 21.9198 26.3717 21.7266 26.4875 21.5079C26.5322 21.4396 26.598 21.3887 26.6416 21.3195C26.7556 21.1423 26.9298 21.0093 27.0128 20.8093C27.2006 20.5327 27.4365 20.305 27.7123 20.1172C28.2446 19.7393 28.7949 19.3946 29.3875 19.1148C30.1214 18.7683 30.8954 18.5403 31.662 18.287C32.3019 18.0755 32.9745 17.9561 33.5692 17.6152C33.7192 17.5291 33.8688 17.4492 33.8902 17.2523C34.4105 15.8023 35.252 14.5905 36.4855 13.6467C37.3324 12.9988 38.1923 12.367 39.0269 11.7037C40.0259 10.9097 41.1256 10.6794 42.3711 10.9172C43.5532 11.1428 44.6992 11.478 45.8304 11.8779C46.3096 12.0473 46.7944 12.201 47.2932 12.3053C47.5475 12.3471 47.7958 12.4436 48.0607 12.3907C48.1167 12.37 48.1703 12.3789 48.2225 12.4043C48.3322 12.4499 48.2264 12.4925 48.2206 12.5365C47.9793 12.8197 47.8155 12.8771 47.5494 12.8437C49.634 13.2093 51.7647 13.927 53.8285 14.8586C55.241 15.4962 56.5492 16.2978 57.7479 17.2833C59.3303 18.5842 60.3743 20.1876 60.6253 22.2576C60.713 22.9807 60.7461 23.7057 60.7851 24.4326C60.8645 25.9137 60.8392 27.3942 60.8472 28.8751C60.8586 30.9936 60.5713 33.0825 60.2232 35.1658C60.1093 35.8469 59.9745 36.5229 59.7976 37.1903C59.6874 37.5884 59.5246 37.9645 59.3188 38.3222C59.2271 38.4813 59.1336 38.639 58.9248 38.6631C58.4325 39.1439 57.9067 39.5815 57.2762 39.9685L57.2762 38.9631C57.3367 38.8938 57.3423 38.8095 57.3407 38.7237C57.3045 36.6685 57.0351 34.6512 56.342 32.7059C56.1164 32.0727 55.7465 31.517 55.3476 30.9812C55.2611 30.8652 55.1727 30.7441 55.004 30.7438C54.7632 30.6309 54.5044 30.5497 54.3037 30.3618C54.2128 30.2219 54.0739 30.1597 53.9221 30.1043C52.7753 29.6849 51.6109 29.3061 50.534 28.7181C49.8637 28.352 49.2321 27.9281 48.7038 27.3669C47.7856 26.4939 46.9869 25.4967 45.9493 24.7477C45.5051 24.427 45.0391 24.2091 44.4758 24.2291C44.0818 24.2431 43.6928 24.0577 43.2924 24.1902C43.2505 24.1964 43.2093 24.1958 43.1674 24.1918C41.9841 24.091 40.8022 24.0576 39.622 24.2165C38.9977 24.2973 38.3643 24.2872 37.7429 24.409C36.549 24.643 35.5688 25.2773 34.6532 26.0372C34.0807 26.5124 33.5829 27.0538 33.1514 27.6621C32.5536 28.5049 32.2979 29.4511 32.2659 30.466C32.235 31.4467 32.3021 32.4302 32.1175 33.4049C31.9865 34.097 31.7937 34.7715 31.6145 35.4509C31.3744 36.3614 31.0479 37.2533 31.0003 38.2077C30.9964 38.2848 31.012 38.381 30.9384 38.446" fill="rgb(60,78,78)" fill-rule="evenodd" />
					<path id="Fill 497备份" d="M56.2474 48.1488C56.1742 47.518 56.5605 47.0274 56.7563 46.4788C56.6903 47.0671 56.4904 47.6145 56.2474 48.1488" fill="rgb(239,181,155)" fill-rule="evenodd" />
					<path id="Fill 513备份" d="M58.0744 40.7245C58.7609 40.4767 59.2653 39.9413 59.8799 39.5787C60.3365 39.3094 60.8033 39.0975 61.3432 39.0848C62.0805 39.0677 62.7508 39.6692 62.7161 40.3526C62.5605 40.106 62.4661 39.8196 62.1509 39.7735C61.8802 39.7338 61.6226 39.795 61.3708 39.9005C60.3911 40.311 59.7172 41.0797 59.0996 41.8924C58.6457 42.4895 58.266 43.1431 57.8506 43.7697C57.7405 43.9359 57.6643 44.1328 57.4207 44.2713C57.6421 43.4235 57.8943 42.6383 57.9255 41.8107L58.0744 40.7245Z" fill="rgb(223,132,104)" fill-rule="evenodd" />
					<path id="Fill 515备份" d="M29.7818 40.4975C29.9124 41.7474 30.0689 42.9929 30.4234 44.217C30.0663 44.1635 30.0527 43.8725 29.9226 43.6555C29.3991 42.783 28.9479 41.8667 28.3313 41.0496C27.8974 40.4748 27.368 40.0317 26.7183 39.7259C26.5051 39.6257 26.2778 39.5867 26.0503 39.5659C25.7155 39.5352 25.4699 39.6959 25.2964 40.0156C25.3644 39.3949 25.9958 38.984 26.6656 39.0607C27.2969 39.1329 27.845 39.4119 28.3955 39.6936C28.7373 39.9142 29.0845 40.1255 29.4634 40.2779C29.5872 40.3277 29.7084 40.3766 29.7818 40.4975" fill="rgb(223,132,104)" fill-rule="evenodd" />
					<path id="Fill 523备份" d="M55.743 32.0251C55.499 31.5656 55.2548 31.1061 55.0107 30.6466C55.1736 30.5277 55.223 30.7024 55.2945 30.771C56.0936 31.5361 56.5005 32.5151 56.7874 33.5558C57.2445 35.2142 57.4405 36.9053 57.4065 38.6239C57.4041 38.7474 57.4554 38.9028 57.2763 38.9631C57.2382 36.8586 56.855 34.82 56.1106 32.8503C56.0041 32.5682 55.9112 32.2799 55.743 32.0251" fill="rgb(11,12,13)" fill-rule="evenodd" />
					<path id="Fill 533备份" d="M48.2292 27.5012C46.5975 26.3648 45.095 25.0428 43.3347 24.091C43.3875 24.0651 43.4414 24.0148 43.4929 24.0172C44.4442 24.0605 45.3889 24.0464 46.1972 24.7325C47.1319 25.5259 47.9637 26.413 48.7955 27.305C48.6772 27.5738 48.4185 27.4373 48.2292 27.5012" fill="rgb(37,35,33)" fill-rule="evenodd" />
					<path id="Fill 535备份" d="M48.229 27.5015C48.3597 27.2683 48.6192 27.4067 48.7954 27.3052C49.6961 28.1155 50.7091 28.7418 51.8413 29.1763C52.6445 29.4845 53.4451 29.7993 54.244 30.1184C54.2983 30.1401 54.5042 30.1193 54.349 30.2896C53.6292 30.1904 52.965 29.8966 52.2845 29.6701C51.3244 29.3507 50.4107 28.9106 49.5454 28.3825C49.0951 28.1078 48.6671 27.7963 48.229 27.5015" fill="rgb(12,12,12)" fill-rule="evenodd" />
					<path id="Fill 537备份" d="M43.2768 24.1166C42.029 24.114 40.7814 24.1113 39.5337 24.1087C40.7 23.9396 41.8689 24.0299 43.037 24.037C43.1201 24.0375 43.2075 24.0257 43.2768 24.1166" fill="rgb(239,181,155)" fill-rule="evenodd" />
					<path id="Fill 539备份" d="M55.282 49.3944C55.2852 49.4935 55.2594 49.5582 55.1767 49.572C55.1031 49.5844 55.0745 49.5233 55.061 49.4659C55.0431 49.3898 55.0699 49.315 55.1445 49.2947C55.2295 49.2715 55.262 49.3451 55.282 49.3944" fill="rgb(239,181,155)" fill-rule="evenodd" />
				</g>
			</g>
			<g id="编组 6">
				<path id="Fill 4033备份" d="M56.3734 60.5673C56.496 60.2546 56.6458 60.1593 56.9993 60.2252C59.8848 60.7633 62.7604 61.3403 65.5488 62.2783C67.9345 63.0809 70.0219 64.3986 71.9308 66.0213C74.1726 67.9274 75.8467 70.3003 77.4643 72.7222C77.6531 73.0049 77.6088 73.2244 77.3999 73.4663C76.453 74.5629 75.4445 75.6011 74.3789 76.5798C72.9045 77.9339 71.3667 79.2131 69.6967 80.3239C68.4072 81.1815 67.0928 81.999 65.7298 82.735C65.2844 82.9755 65.2808 82.9476 65.236 82.4394C65.0655 80.507 64.88 78.5758 64.6987 76.6442C64.6935 76.5891 64.688 76.5251 64.5916 76.5042C64.4914 76.6861 64.6064 76.8619 64.6188 77.0372C64.706 78.2745 64.7927 79.5118 64.8884 80.7484C64.9379 81.3882 64.9995 82.0273 65.067 82.6655C65.0971 82.9515 64.9911 83.1196 64.7317 83.252C62.4918 84.3961 60.1845 85.3756 57.8065 86.1972C55.6617 86.9381 53.4776 87.5047 51.2358 87.8519C49.954 88.0504 48.6691 88.2248 47.3775 88.3475C47.2753 88.3572 47.1723 88.3559 47.0893 88.4297L39.3731 88.4297C38.7705 88.3458 38.1682 88.2616 37.5655 88.1784C35.1446 87.8445 32.7862 87.2566 30.4611 86.5043C27.633 85.5892 24.895 84.4696 22.2715 83.0722C21.7303 82.7839 21.2028 82.4702 20.665 82.1755C20.4216 82.0421 20.329 81.86 20.3294 81.5736C20.3311 79.9798 20.451 78.3933 20.5854 76.807C20.5993 76.6422 20.639 76.469 20.4644 76.3086C20.395 77.0215 20.3099 77.7333 20.2599 78.4476C20.1896 79.452 20.1413 80.458 20.092 81.4637C20.0714 81.8836 19.8458 81.6413 19.7254 81.5674C18.4056 80.7572 17.1201 79.8978 15.8958 78.945C14.9034 78.1726 13.9409 77.3657 13.0477 76.4844C12.1959 75.6439 11.4023 74.7446 10.578 73.8762C10.3707 73.6578 10.4953 73.482 10.6129 73.29C11.3307 72.1181 12.1125 70.9911 12.9561 69.9065C13.9959 68.5695 15.0359 67.2346 16.2595 66.0533C18.2052 64.1747 20.4311 62.8167 23.0446 62.0365C25.7268 61.2358 28.4682 60.7823 31.2188 60.3445C31.6073 60.2826 31.9969 60.2274 32.3855 60.1663C32.6965 60.1176 32.8664 60.2455 32.9718 60.5467C33.1591 61.0821 33.3371 61.6259 33.6732 62.0956C33.982 62.5412 35.5766 64.5511 36.5766 65.1793C37.8793 65.9974 39.3032 66.5143 40.8007 66.8187C42.1615 67.0955 43.5408 67.2552 44.9326 67.1821C47.131 67.0665 49.2935 66.7737 51.2775 65.72C51.5077 65.5977 51.7896 65.5789 51.9736 65.3678C53.1494 64.7018 54.937 63.1405 55.3396 62.5412C55.7451 61.9151 56.1011 61.2614 56.3734 60.5673Z" fill="rgb(213,104,130)" fill-rule="evenodd" />
				<path id="形状结合" d="M20.8644 75.5703C20.8644 75.5703 20.5103 81.6755 20.5103 83.2519C20.5103 84.8284 19.5181 82.5777 19.5181 82.5777C19.5181 82.5777 20.2817 77.1984 20.2817 76.506C20.2817 75.8136 20.8644 75.5703 20.8644 75.5703ZM64.3799 75.5703C64.3799 75.5703 64.734 81.6755 64.734 83.2519C64.734 84.8284 65.7262 82.5777 65.7262 82.5777C65.7262 82.5777 64.9626 77.1984 64.9626 76.506C64.9626 75.8136 64.3799 75.5703 64.3799 75.5703Z" fill="rgb(137,30,76)" fill-rule="evenodd" />
				<path id="形状结合" d="M20.8644 75.5703C20.8644 75.5703 20.5103 81.6755 20.5103 83.2519C20.5103 84.8284 19.5181 82.5777 19.5181 82.5777C19.5181 82.5777 20.2817 77.1984 20.2817 76.506C20.2817 75.8136 20.8644 75.5703 20.8644 75.5703ZM64.734 83.2519C64.734 81.6755 64.3799 75.5703 64.3799 75.5703C64.3799 75.5703 64.9626 75.8136 64.9626 76.506C64.9626 77.1984 65.7262 82.5777 65.7262 82.5777C65.7262 82.5777 64.734 84.8284 64.734 83.2519Z" fill="rgb(151,151,151)" fill-opacity="0" fill-rule="evenodd" />
			</g>
		</g>
	</g>
</svg>
