<svg viewBox="0 0 88 88" xmlns="http://www.w3.org/2000/svg" xmlns:xlink="http://www.w3.org/1999/xlink" width="88.000000" height="88.000000" fill="none" customFrame="#000000">
	<defs>
		<filter id="pixso_custom_mask_type_outline">
			<feColorMatrix type="matrix" values="0 0 0 0 1 0 0 0 0 1 0 0 0 0 1 0 0 0 1 0 " />
		</filter>
	</defs>
	<mask id="mask_49" width="88.000000" height="88.000000" x="0.000000" y="0.000000" maskUnits="userSpaceOnUse">
		<g filter="url(#pixso_custom_mask_type_outline)">
			<circle id="蒙版" cx="44" cy="44" r="44" fill="rgb(255,255,255)" />
		</g>
	</mask>
	<rect id="人物头像/女人2" width="88.000000" height="88.000000" x="0.000000" y="0.000000" />
	<circle id="蒙版" cx="44" cy="44" r="44" fill="rgb(215,203,253)" />
	<g mask="url(#mask_49)">
		<g id="编组 4">
			<g id="编组 11备份 3">
				<path id="路径" d="M41.2121 58.2798C41.4942 58.4808 41.7844 58.6685 42.0798 58.8477L43.7312 58.6652L44.0749 58.6622C48.1583 58.6294 50.9268 58.7122 52.3803 58.9107C52.5535 59.3188 52.7652 59.7111 53.0183 60.0859C53.5232 60.8338 54.2263 61.3563 55.021 61.7644L55.1184 61.8006C55.2479 61.8497 55.3746 61.9041 55.4832 61.9951L55.6233 62.0081L56.2023 62.1446C56.3597 62.2063 56.5137 62.2785 56.6747 62.328C57.4587 62.5691 58.2433 62.8084 59.0292 63.0432C59.1426 62.9892 59.2567 63.0273 59.3709 63.0734L59.4031 63.0866C59.4225 63.0946 59.4418 63.1025 59.4612 63.1101L56.5443 71.3711L52.42 73.9597L51.1579 75.6734L39.9426 76.5663L32.888 72.6093L32.7107 71.6074L32.4843 71.5617L31.9655 70.9239L31.6743 70.5643C30.2003 68.7399 29.4546 67.7569 29.4374 67.6154L29.4368 67.6006C29.4265 67.4091 29.1643 65.9739 28.65 63.2951L28.7814 63.2125L29.1473 63.1099C29.9998 62.8725 31.6216 62.4243 32.0979 62.2219C32.6601 61.9831 32.9476 61.8091 33.3522 61.5629C34.5788 60.8163 35.9084 59.4832 36.3576 58.1035C36.4614 57.7847 36.6239 57.0405 36.7499 56.2765L36.7722 56.1388L36.7868 56.0453L36.8021 55.9445L36.8203 55.8201C36.9282 55.0627 36.9805 54.3666 36.8813 54.1399L36.8734 54.1302C36.8395 54.0906 36.7396 53.9946 36.6109 53.8744C36.5736 53.8187 36.5309 53.7652 36.4838 53.7131L36.2314 53.433L36.1103 53.2973C35.5666 52.6853 35.0465 52.0551 34.6513 51.3292C34.0002 50.1332 39.775 57.2562 41.2121 58.2798Z" fill="rgb(255,202,186)" fill-rule="evenodd" />
				<path id="路径" d="M51.8971 53.7442L51.896 53.7573C51.8957 53.7646 51.8956 53.772 51.8958 53.7795L51.9001 53.7454C51.8463 54.1774 51.8088 54.6084 51.8016 55.0376C51.7732 55.4896 51.7777 55.9415 51.8175 56.3934C51.7976 56.6973 51.8461 56.9951 51.9003 57.2919C52.084 58.2985 52.4453 59.2373 53.0182 60.0859C53.5232 60.8337 54.2262 61.3563 55.0209 61.7643L55.0859 61.7884C55.2265 61.8408 55.3655 61.8965 55.4831 61.995L55.6233 62.008L56.2022 62.1446C56.3596 62.2062 56.5136 62.2784 56.6747 62.3279C57.1737 62.4815 57.6731 62.6342 58.1728 62.7855L58.1501 62.9385C58.1208 63.142 58.0746 63.478 58.0208 63.8723L57.7888 65.5701C57.752 65.8363 57.7172 66.0864 57.6867 66.3013L57.6424 66.608C57.609 66.8354 57.5851 66.9843 57.5764 67.0108C57.4925 67.1254 54.4186 66.8623 52.3658 67.3151C50.6762 67.6877 49.0608 68.2253 47.4535 68.8279L47.4311 68.8368C47.3156 68.8843 47.1569 68.9722 47.0955 68.835C47.0214 68.6702 47.2246 68.6052 47.3422 68.5338C48.5239 67.8158 49.836 67.4653 50.9873 67.2016C50.5485 67.2483 50.0442 67.0771 49.4472 66.5976C48.9312 66.1343 48.6705 65.5265 48.4795 64.8837L48.466 64.8377C47.961 63.1046 46.9601 61.7604 45.4024 60.8234C44.3388 60.1837 43.2238 59.6387 42.1564 59.0062C41.1565 58.4139 40.2468 57.7075 39.405 56.9142C38.6444 56.1974 37.9197 55.4433 37.223 54.6632C37.1604 54.5931 37.0982 54.5223 37.0449 54.4454L37.0191 54.4064C37.0117 54.3948 37.0035 54.3831 36.9949 54.3713L36.9653 54.3317C36.9467 54.3069 36.9281 54.2817 36.9132 54.256C36.9065 54.2172 36.8981 54.1836 36.8877 54.1559L36.8821 54.1422C36.8854 54.1135 36.8988 54.0844 36.9268 54.055C37.0231 53.9541 37.1196 54.0159 37.2045 54.0851L37.2571 54.1289C37.2624 54.1332 37.2676 54.1375 37.2728 54.1415C37.5687 54.3751 37.8748 54.5952 38.1721 54.8265C39.4335 55.808 40.8126 56.5684 42.3636 56.9747C44.2186 57.4607 46.0297 57.2831 47.7752 56.4953C49.1464 55.8764 50.3474 55.0084 51.4235 53.9641L51.5594 53.8315C51.7201 53.677 51.7402 53.6844 51.8971 53.7442Z" fill="rgb(237,154,129)" fill-rule="evenodd" />
				<path id="Fill 4347" d="M36.0466 67.0306C36.0024 67.0051 35.9581 66.9798 35.9141 66.9544C36.1244 66.7762 36.3469 66.9318 36.5347 66.9751C38.0715 67.3287 39.6153 67.6693 41.0353 68.3948C41.1539 68.4555 41.2657 68.5292 41.3789 68.5998C41.4378 68.6364 41.4929 68.6793 41.5225 68.7814C41.0569 68.639 40.595 68.4833 40.1251 68.3573C39.3296 68.1439 38.5447 67.8858 37.7271 67.7613C37.2307 67.5977 36.7343 67.434 36.1866 67.2535C36.4723 67.1415 36.6899 67.3635 36.9282 67.2776C36.6533 67.1287 36.3575 67.055 36.0466 67.0306" fill="rgb(226,140,118)" fill-rule="evenodd" />
				<g id="编组 11">
					<path id="Fill 83备份" d="M60.7973 36.097C60.8513 36.3136 60.9053 36.5302 60.9592 36.7469C60.9978 37.1357 61.002 37.5244 60.9574 37.9132C60.6563 39.7435 59.9055 41.4043 59.0309 43.0185C58.7937 43.5301 58.5565 44.0418 58.3194 44.5535C58.2001 44.8064 58.0921 45.0655 57.9588 45.3111C57.7783 45.6434 57.4941 45.8695 57.1513 46.0236C56.8839 46.0664 56.6165 46.0656 56.349 46.0241C56.1017 45.9385 56.0471 46.0839 55.9924 46.2293C55.9718 46.2842 55.9512 46.3391 55.9202 46.3815C55.8098 47.1567 55.5086 47.8751 55.2596 48.6093C54.5743 50.6299 53.3607 52.3099 51.899 53.8307L51.8637 53.8249L51.828 53.8276C51.2169 54.4088 50.5551 54.9279 49.8522 55.3915C48.6323 56.196 47.3364 56.8353 45.8901 57.122C45.5593 57.1876 45.2209 57.2149 44.8859 57.2598C44.4983 57.3079 44.1108 57.3069 43.7232 57.2602C42.5157 57.2336 41.3944 56.8649 40.3081 56.3777C39.7784 56.1401 39.2551 55.8832 38.7623 55.5717C38.1748 55.135 37.5825 54.7045 37.0017 54.2589C36.6873 54.0177 36.3619 53.7849 36.1147 53.4668L36.1147 53.4666C36.0346 53.4152 35.9544 53.3643 35.8522 53.3793C35.242 52.6471 34.5689 51.9691 34.0758 51.1383C33.4533 50.0898 32.9904 48.9778 32.6432 47.8155C32.4292 47.0992 32.2502 46.3724 32.0554 45.6502C32.0384 45.5196 31.9638 45.4566 31.876 45.5759C31.6039 45.9456 31.2537 46.128 30.8074 45.9974C30.3157 45.8536 30.0816 45.4276 29.85 45.0139C29.5776 44.5275 29.3949 43.9996 29.1531 43.4999C28.7483 42.6634 28.3203 41.8376 27.8842 41.0168C27.7894 40.8382 27.7245 40.6544 27.6561 40.4687C27.4722 39.8678 27.2758 39.2704 27.1079 38.6652C26.9242 38.0034 26.8761 37.3272 26.9966 36.6474C27.0682 36.2436 27.2341 35.8812 27.5621 35.6173C27.9611 35.2962 28.3694 35.3652 28.6357 35.801C28.9227 36.2709 29.0685 36.8009 29.2511 37.3143C29.4338 37.8281 29.6075 38.3452 29.7853 38.8607C29.9162 39.0059 29.8682 39.2471 30.0547 39.3623L30.0707 39.3702C29.9984 37.6429 30.4324 35.9951 30.8791 34.3534C31.4983 32.0777 32.3506 29.9009 33.7294 27.9621C34.251 27.2285 34.7997 26.5143 35.4404 25.8799C36.3383 24.9914 37.2512 24.118 38.1576 23.2381C38.307 23.0705 38.4563 22.9029 38.6057 22.7352C38.2986 21.2079 38.1601 19.6633 38.1581 18.1025C38.2868 18.843 38.4039 19.5856 38.5468 20.3231C38.7709 21.4795 38.9749 22.64 39.4573 23.731C40.3995 25.8618 41.9613 27.3655 44.0377 28.3817C45.7223 29.2061 47.4919 29.8212 49.2199 30.5386C50.2083 30.9489 51.1884 31.376 52.1372 31.8716C53.3145 32.4866 54.3307 33.3081 55.2104 34.2999C55.3371 34.4428 55.4435 34.6037 55.5594 34.7562C56.4423 35.8704 56.8643 37.1798 57.1532 38.5429L57.1551 38.5516C57.2423 38.9634 57.3302 39.378 57.3054 39.8046C57.3125 40.0004 57.3263 40.1959 57.3401 40.3913C57.366 40.7578 57.3918 41.1242 57.3735 41.4924C57.2796 41.7313 57.2606 41.9841 57.2316 42.235C57.2352 42.2381 57.2388 42.2411 57.2423 42.2442C57.3439 42.3856 57.3147 42.5372 57.2857 42.6879C57.2827 42.7037 57.2796 42.7195 57.2767 42.7353C57.209 43.1048 57.0677 43.4558 56.9813 43.878C57.1665 43.7692 57.2648 43.6324 57.3173 43.487C57.4595 43.0943 57.7194 42.8162 58.0473 42.5653C58.3963 42.2983 58.6261 41.9167 58.8627 41.5477C58.8779 41.524 58.8921 41.4977 58.9064 41.4711C58.9658 41.3605 59.0291 41.2427 59.1916 41.2668C59.191 41.2653 59.1907 41.2638 59.1901 41.2622C59.0888 41.1017 59.1588 40.958 59.2248 40.8222C59.2368 40.7978 59.2485 40.7735 59.2592 40.7495C59.7454 39.6521 59.9342 38.504 59.8736 37.3102C59.8721 37.2796 59.8716 37.249 59.8711 37.2184C59.8701 37.1521 59.8691 37.0858 59.8571 37.0201C59.8274 36.8575 59.7489 36.8406 59.6404 36.9554C59.5145 37.0884 59.4251 37.2478 59.3354 37.406C59.0427 37.9228 58.7499 38.4396 58.4344 38.9429C58.3508 39.0765 58.2653 39.2133 58.1164 39.2839C58.1117 39.2861 58.107 39.2884 58.1022 39.2907C58.0339 39.3238 57.9485 39.3652 57.9349 39.222C58.2517 38.3417 58.5689 37.4616 58.8849 36.5811C58.9798 36.3169 59.0943 36.0627 59.2471 35.8266C59.632 35.2316 60.2269 35.2285 60.6252 35.8206C60.6856 35.9107 60.74 36.0048 60.7973 36.097ZM44.8815 29.3464C44.9052 29.3442 44.9296 29.3393 44.9555 29.3301C44.9614 29.3648 44.9745 29.3927 44.9915 29.417C44.955 29.3934 44.9182 29.37 44.8815 29.3464ZM46.411 30.2139C46.1541 30.0702 45.894 29.9323 45.6363 29.7901C45.8821 29.934 46.1304 30.0732 46.3856 30.2008C46.7451 30.3967 47.1047 30.5924 47.4633 30.7898C47.1143 30.5948 46.764 30.4018 46.411 30.2139ZM50.114 32.3343C50.558 32.6144 50.9951 32.9056 51.4231 33.2117C51 32.9011 50.5625 32.6105 50.114 32.3343ZM47.6069 36.4649C47.591 36.4646 47.575 36.4643 47.559 36.4641C47.3775 36.4613 47.1972 36.4586 47.1216 36.2409C47.0415 36.0105 47.1081 35.8103 47.2831 35.6482C47.4186 35.5225 47.5813 35.4359 47.7575 35.3859C49.1482 34.9911 50.5542 34.8141 51.9982 35.0484C52.4815 35.1268 52.9183 35.3491 53.3956 35.4349C53.4199 35.431 53.4425 35.4229 53.4643 35.4128C53.6804 35.6355 53.7626 35.9799 54.1149 36.1472C53.9492 35.8265 53.7442 35.595 53.5462 35.3588C53.5387 35.3596 53.5312 35.3603 53.5236 35.3611C53.5556 35.3083 53.5554 35.2625 53.5382 35.2195C53.9407 35.7593 54.2743 36.3467 54.5575 36.9684C54.5008 36.8732 54.445 36.7774 54.3936 36.6794C54.2652 36.4344 54.0915 36.276 53.794 36.3148C53.2191 36.0812 52.6334 35.8917 52.0032 35.901C50.7999 35.9187 49.6288 36.1457 48.4697 36.4497C48.4608 36.4351 48.4478 36.4195 48.4288 36.4025C48.2561 36.3342 48.0915 36.3748 47.9267 36.4154C47.8209 36.4415 47.715 36.4676 47.6069 36.4649ZM50.9298 39.1929C51.0332 38.9933 51.0666 38.7802 51.0378 38.5576C50.9722 38.0499 51.0435 37.9916 51.534 38.1492C51.8981 38.2661 52.1875 38.4955 52.4523 38.7642C52.2814 38.3403 51.9681 38.0805 51.547 37.9311C51.4236 37.8873 51.2431 37.8886 51.2302 37.7055C51.227 37.7059 51.2241 37.7063 51.2209 37.7067C51.0829 37.8484 50.9032 37.8356 50.7355 37.8237C50.726 37.823 50.7165 37.8223 50.7071 37.8217C50.0044 37.7736 49.363 37.9478 48.7694 38.3177C48.6716 38.3786 48.5692 38.4277 48.4535 38.4286C48.4505 38.4423 48.4436 38.46 48.4368 38.4776C48.4135 38.5371 48.3904 38.596 48.5216 38.5008C48.7286 38.3502 48.9491 38.2244 49.1887 38.1341C49.2807 38.0995 49.38 38.0759 49.461 38.1583C49.5459 38.2448 49.503 38.3399 49.461 38.4277C49.382 38.5936 49.3159 38.7586 49.3503 38.9507C49.4218 39.3491 49.6623 39.6094 50.0229 39.6667C50.3788 39.7234 50.7566 39.5274 50.9298 39.1929ZM39.9082 55.6324C39.9112 55.633 39.914 55.6339 39.917 55.6345C39.9974 55.6512 40.0532 55.6992 40.1103 55.7532C40.0424 55.7139 39.9751 55.6734 39.9082 55.6324Z" fill="rgb(255,202,186)" fill-rule="evenodd" />
					<path id="Fill 3147备份" d="M60.9603 37.9139C60.9612 37.5251 60.962 37.1364 60.9627 36.7476C61.1041 37.1365 61.1091 37.5253 60.9603 37.9139" fill="rgb(90,61,51)" fill-rule="evenodd" />
					<path id="形状结合" d="M71.8982 64.3824C71.7323 63.4889 71.4716 62.632 70.9874 61.8501C70.075 60.3762 68.7445 59.375 67.278 58.5195C66.2283 57.9073 65.1284 57.3862 64.1858 56.5887C61.6906 54.4776 60.802 51.7738 61.1747 48.6011C61.3148 47.4084 61.9581 46.408 62.5505 45.395C63.1031 44.4501 63.6517 43.5025 63.9374 42.4305C64.0967 41.8332 64.124 41.216 64.2419 40.613C64.2903 39.9328 64.2912 39.2526 64.2411 38.5725C64.208 38.2475 64.1859 37.9209 64.1399 37.5977C63.9772 36.4539 63.7579 35.321 63.5144 34.1911C62.9166 31.4183 62.3456 28.6419 61.1778 26.0297C60.1046 23.6289 58.6876 21.4644 56.9092 19.5279C54.8568 17.2932 52.3991 15.6903 49.5196 14.7406C47.8987 14.2061 46.2227 13.95 44.5249 13.823C44.4152 13.8149 44.3056 13.8037 44.196 13.7925C43.7951 13.7516 43.3943 13.7106 42.9933 13.8216C42.9205 13.8242 42.8475 13.8267 42.7746 13.8293C42.417 13.7486 42.0727 13.7655 41.7526 13.9654C41.3571 13.9789 40.9865 14.1119 40.6086 14.2074C38.8738 14.6461 37.1371 15.0824 35.4937 15.8092C34.2515 16.3585 33.1676 17.1334 32.275 18.1647C31.8517 18.3333 31.6964 18.7154 31.5357 19.093C31.4159 19.262 31.2962 19.4309 31.1765 19.6C30.865 20.1286 30.4047 20.5308 29.9441 20.9065C29.1697 21.5381 28.4142 22.1723 27.7764 22.9536C26.6507 24.3323 25.9013 25.9053 25.2696 27.5471C24.7252 28.962 24.3842 30.4365 24.0349 31.9056C23.8328 32.756 23.6946 33.6248 23.5853 34.4926C23.5728 34.5915 23.5598 34.6905 23.5468 34.7895C23.4712 35.3657 23.3951 35.9446 23.4217 36.5296C23.3762 37.1606 23.3795 37.7916 23.4192 38.4227C23.459 39.0414 23.4988 39.6583 23.569 40.2763C23.651 40.9985 23.8436 41.6934 23.9782 42.3993C24.1634 43.3704 24.465 44.32 24.7026 45.2829C25.4566 48.337 24.8841 51.1405 23.1317 53.7176C22.435 54.7421 21.6721 55.7214 20.9589 56.735C19.5292 58.767 18.3334 60.9103 17.848 63.3863C17.6475 64.4093 17.4999 65.4335 17.5371 66.4659L17.5429 66.4638C19.8875 65.586 22.3091 64.956 24.7106 64.2618C24.7993 64.2362 24.885 64.2047 24.9714 64.1735C25.7561 63.9721 26.5133 63.6732 27.3109 63.5164C27.3343 63.5172 27.3564 63.5193 27.3779 63.5222C27.5802 63.2946 27.8728 63.2331 28.1972 63.3575C28.1969 63.3668 28.1966 63.3761 28.1963 63.3854C28.3631 63.3361 28.5299 63.2866 28.6968 63.2372C28.7217 63.2356 28.7484 63.2246 28.7728 63.2148C29.3787 63.0416 31.5357 62.4606 32.0978 62.2218C32.66 61.983 32.9475 61.8089 33.3521 61.5628C34.5787 60.8162 35.9083 59.4831 36.3575 58.1033C36.5859 57.4015 37.0991 54.6378 36.8812 54.1398C36.8035 54.0344 35.7828 53.1225 35.6737 53.0091C34.3236 51.6044 33.4113 49.9522 32.8469 48.0929C32.5963 47.2673 32.4094 46.4249 32.1476 45.6034C31.9875 45.3524 31.8361 45.478 31.6859 45.6027C31.681 45.6068 31.6761 45.6109 31.6712 45.6149C31.1866 46.0157 30.7191 45.9759 30.3173 45.4976C30.0903 45.2273 29.8892 44.9376 29.7591 44.6087C29.2236 43.2539 28.4385 42.021 27.8493 40.6927C27.8081 40.5995 27.7688 40.5022 27.6671 40.458C27.773 40.3146 27.7179 40.1764 27.6646 40.0426C27.6529 40.0133 27.6413 39.9841 27.6315 39.9552C27.4713 39.4833 27.3067 39.0123 27.2014 38.5252C27.0594 37.8679 26.9805 37.2056 27.1597 36.5406C27.2534 36.1929 27.4 35.8751 27.7241 35.6792C28.0374 35.4897 28.3028 35.5476 28.5124 35.8469C28.6529 36.0474 28.7459 36.2727 28.8315 36.5004C29.1264 37.2847 29.3664 38.089 29.6861 38.8643C29.8007 39.0466 29.7591 39.3363 30.0525 39.3952C30.0892 39.3809 30.1178 39.3568 30.1376 39.3227C30.2018 39.0865 30.1982 38.8467 30.1946 38.6064C30.1921 38.4345 30.1895 38.2624 30.2117 38.0911C30.4639 36.1437 30.9769 34.2615 31.6143 32.4114C32.3627 30.2387 33.4873 28.2816 34.9977 26.5417C35.9968 25.3907 37.1991 24.4481 38.2229 23.3246C38.4088 23.1404 38.613 22.9703 38.6898 22.7042C38.7187 22.5358 38.6843 22.3708 38.6506 22.2091L38.6483 22.1982C38.383 20.9234 38.3362 19.6228 38.1811 18.3983C38.2664 18.8477 38.262 19.3689 38.3535 19.8829C38.6327 21.4513 38.9116 23.0085 39.6846 24.4418C40.4548 25.87 41.5009 27.013 42.8739 27.8619C44.0469 28.5872 45.3152 29.1129 46.5918 29.6241C48.3739 30.3377 50.1854 30.9844 51.8894 31.8812C53.2919 32.6194 54.5399 33.5463 55.48 34.8451C55.7891 35.2783 56.0833 35.7183 56.2966 36.2113C56.8004 37.3763 57.1049 38.5887 57.2089 39.8522C57.2592 39.9971 57.2629 40.1467 57.2666 40.2965C57.2682 40.3595 57.2698 40.4226 57.2748 40.4853C57.2815 40.5684 57.2984 40.6587 57.3948 40.6821C57.4714 40.7007 57.501 40.6426 57.5292 40.5875C57.5337 40.5786 57.5382 40.5698 57.5429 40.5614C57.6745 40.1155 57.8459 39.6854 58.0368 39.2623C58.3638 38.4815 58.6367 37.6812 58.9056 36.8793C59.0245 36.5246 59.1453 36.1683 59.3762 35.8637C59.7224 35.407 60.0595 35.3933 60.4553 35.8131C60.5462 35.9095 60.5929 36.0649 60.7424 36.093C60.693 36.2614 60.7425 36.4144 60.792 36.5673C60.815 36.6384 60.838 36.7095 60.8511 36.7822C60.9483 37.1446 60.9483 37.5075 60.8543 37.8708C60.5409 39.6846 59.8169 41.344 58.9473 42.9488C58.6986 43.46 58.4787 43.9842 58.2416 44.5006C58.1453 44.6563 58.0856 44.8294 58.0063 44.993C57.8045 45.4093 57.5297 45.7541 57.0768 45.9197C56.8288 46.0266 56.5796 45.9792 56.3306 45.9241C56.0243 45.8943 55.9137 46.0988 55.8343 46.3399C55.789 46.5657 55.7576 46.7947 55.6932 47.015C54.9856 49.4392 53.8827 51.6427 52.0841 53.4567C52.0778 53.463 52.0714 53.4694 52.0651 53.4758C51.9689 53.5719 51.8696 53.6711 51.9019 53.8315C51.8736 54.164 51.8454 54.4966 51.8172 54.8291C51.7726 55.3506 51.7715 55.872 51.8174 56.3933C51.7976 56.6971 51.8461 56.995 51.9003 57.2918C52.084 58.2984 52.4452 59.2372 53.0182 60.0858C53.5231 60.8336 54.2262 61.3562 55.0208 61.7642C55.1833 61.8246 55.3473 61.8812 55.4831 61.9949C55.5298 61.9992 55.5765 62.0035 55.6232 62.0079C55.8162 62.0535 56.0092 62.099 56.2022 62.1445C56.3596 62.2061 56.5136 62.2783 56.6746 62.3278C57.4582 62.5689 58.2423 62.808 59.0277 63.0429C59.1524 62.9828 59.278 63.0344 59.4035 63.0859C59.4892 63.1211 59.5749 63.1563 59.6603 63.1561C62.3018 63.977 64.9522 64.7686 67.6158 65.517C69.0848 65.9297 70.5273 66.4043 71.916 67.01C71.9352 66.8949 71.9557 66.7801 71.9799 66.6661C72.0281 66.059 72.0271 65.4517 71.9805 64.8445C71.9531 64.6905 71.9268 64.5362 71.8982 64.3824Z" fill="rgb(90,61,51)" fill-rule="evenodd" />
					<path id="Fill 3151备份" d="M57.9378 39.2227C58.2307 39.2481 58.2667 38.9755 58.3679 38.8153C58.7182 38.2609 59.0361 37.6861 59.368 37.12C59.4171 37.0362 59.4745 36.9573 59.5283 36.8762C59.6027 36.7644 59.6716 36.6328 59.8392 36.6852C60.0011 36.7358 59.9967 36.8825 60.0034 37.0169C60.0654 38.2812 59.9512 39.517 59.4192 40.6874C59.334 40.8748 59.268 41.0709 59.193 41.2629C58.881 41.6776 58.6813 42.1827 58.2768 42.5185C57.875 42.852 57.5233 43.2025 57.3279 43.6999C57.2491 43.9004 57.0929 44.0646 56.8153 44.0925C56.9106 43.4719 57.1987 42.9105 57.2277 42.2937C57.0417 42.0129 57.1912 41.7427 57.2521 41.4694C57.3276 41.138 57.447 40.8159 57.4615 40.4717C57.5589 40.032 57.7345 39.6221 57.9378 39.2227" fill="rgb(230,133,110)" fill-rule="evenodd" />
					<path id="Fill 3153备份" d="M45.4835 19.5892C47.9815 19.8829 50.2445 20.7864 52.3118 22.2065C55.4795 24.3822 57.8045 27.25 59.3588 30.7539C59.3803 30.8285 59.3494 30.8467 59.2818 30.8253C57.3521 26.6585 54.4727 23.3659 50.3558 21.2475C48.8036 20.4487 47.1499 19.9135 45.3974 19.7355C45.3029 19.7259 45.2113 19.688 45.1184 19.6633C45.2081 19.4805 45.3538 19.5745 45.4835 19.5892" fill="rgb(217,166,135)" fill-rule="evenodd" />
					<path id="Fill 3155备份" d="M41.1642 18.8825C43.6948 17.9471 46.1659 18.2825 48.607 19.2615C46.1529 18.5602 43.6855 18.1457 41.1642 18.8825" fill="rgb(200,150,117)" fill-rule="evenodd" />
					<path id="Fill 3157备份" d="M45.4834 19.5892C45.3649 19.6296 45.2241 19.5603 45.1184 19.6633C44.8876 19.682 44.6601 19.6582 44.4326 19.6177C44.209 19.5779 43.9838 19.5474 43.7615 19.4888C44.3403 19.4467 44.914 19.4787 45.4834 19.5892" fill="rgb(175,127,100)" fill-rule="evenodd" />
					<path id="Fill 3159备份" d="M57.3764 41.4931C57.1952 40.9368 57.3284 40.3678 57.3083 39.8052C57.3874 40.0399 57.3454 40.2861 57.3779 40.5252C57.3848 40.5767 57.3971 40.6267 57.4398 40.5411C57.4505 40.5197 57.4544 40.495 57.4615 40.4718C57.5736 40.8238 57.447 41.1561 57.3764 41.4931" fill="rgb(252,196,173)" fill-rule="evenodd" />
					<path id="Fill 3161备份" d="M59.2817 30.8253C59.3074 30.8015 59.333 30.7778 59.3586 30.7539C59.658 31.1907 59.7489 31.7063 59.8612 32.2169C59.668 31.753 59.4749 31.2892 59.2817 30.8253" fill="rgb(160,124,105)" fill-rule="evenodd" />
					<path id="Fill 3163备份" d="M46.4357 29.952C48.4694 31.0351 50.5127 32.1056 52.2957 33.5888C53.3951 34.5032 54.2407 35.6146 54.7575 36.96C54.6266 37.0245 54.6155 37.031 54.5753 36.9624C54.4902 36.817 54.3931 36.6791 54.3092 36.533C54.1809 36.3095 54.0043 36.1619 53.7247 36.1959C53.3175 36.1218 52.949 35.9217 52.5344 35.8603C51.7503 35.7441 50.9855 35.8726 50.2189 35.991C49.7869 36.0577 49.3611 36.161 48.9314 36.2427C48.7748 36.2724 48.6201 36.3019 48.4669 36.2309C48.1809 36.2831 47.8963 36.3449 47.6086 36.3844C47.3591 36.4187 47.1061 36.4106 46.9955 36.123C46.8809 35.8247 46.9221 35.5479 47.1707 35.3256C47.3085 35.2025 47.4714 35.1163 47.6472 35.0644C49.2451 34.5938 50.8588 34.409 52.5036 34.8042C52.8246 34.8814 53.1272 35.0048 53.4211 35.1521C53.6324 35.2265 53.6911 35.4377 53.8032 35.5762C53.7335 35.4352 53.5943 35.3142 53.5461 35.1392C52.705 34.0664 51.6855 33.1978 50.5376 32.4676C49.174 31.6002 47.7624 30.8162 46.3569 30.0213C46.3485 29.9587 46.3537 29.9117 46.4357 29.952" fill="rgb(42,19,13)" fill-rule="evenodd" />
					<path id="Fill 3165备份" d="M41.075 36.3012C40.8466 36.6284 40.39 36.6938 39.9422 36.5606C38.5036 36.1326 37.0363 35.8414 35.5284 36.0109C34.8557 36.0866 34.1697 36.1773 33.5498 36.5118C33.4533 36.5639 33.3847 36.6461 33.2863 36.6867C33.1359 36.5504 33.2986 36.4678 33.3528 36.3866C33.7012 35.8646 34.1958 35.5229 34.7643 35.2768C35.7874 34.8336 36.8653 34.8014 37.9516 34.8655C38.8018 34.9157 39.6478 35.0173 40.4565 35.3038C40.9953 35.4948 41.1317 35.7357 41.075 36.3012" fill="rgb(42,19,12)" fill-rule="evenodd" />
					<path id="Fill 3167备份" d="M39.7809 39.1673C39.5942 38.6935 39.1611 38.5097 38.7522 38.3014C38.5745 38.2109 38.5218 38.2876 38.5327 38.4749C38.546 38.7017 38.5682 38.931 38.4636 39.1524C38.2424 39.6207 37.905 39.8235 37.3232 39.7951C36.8857 39.7736 36.7475 39.4123 36.5892 39.0958C36.4403 38.7985 36.4918 38.5073 36.7286 38.2201C36.211 38.1521 35.8886 38.4373 35.5652 38.7157C35.4921 38.7787 35.4274 38.8526 35.3657 38.9272C35.3091 38.9957 35.2953 39.1198 35.1548 39.0589C35.0262 39.0032 35.0122 38.8925 35.04 38.7869C35.1113 38.5163 35.2582 38.2952 35.5018 38.1416C36.5152 37.503 38.6511 37.3912 39.6884 38.5062C39.6129 38.5678 39.5453 38.6089 39.6448 38.7289C39.7414 38.8457 39.9147 38.9676 39.7809 39.1673" fill="rgb(43,19,11)" fill-rule="evenodd" />
					<path id="Fill 3169备份" d="M48.3934 38.425C49.2211 37.7332 50.1904 37.599 51.2213 37.7066C51.5139 37.8184 51.8287 37.8782 52.0865 38.0722C52.4178 38.3214 52.6394 38.6255 52.5781 39.0908C52.204 38.5691 51.7294 38.2348 51.0466 38.1556C51.1853 38.4409 51.2153 38.7143 51.1379 38.9968C51.0569 39.2927 50.896 39.5243 50.6247 39.6725C50.2595 39.8718 49.7987 39.8324 49.5351 39.5819C49.1667 39.2321 49.1361 38.819 49.4328 38.2029C49.0498 38.2559 48.7769 38.4146 48.1944 38.9281C48.1308 38.6971 48.379 38.6045 48.3934 38.425" fill="rgb(45,20,13)" fill-rule="evenodd" />
					<path id="Fill 3171备份" d="M46.0763 44.0884C46.7958 45.1124 46.229 45.8448 45.5159 46.2786C45.1385 46.5082 44.7871 46.7999 44.3047 46.827C43.9716 46.8456 43.7075 46.7315 43.5715 46.4586C43.418 46.1506 43.1625 45.9937 42.8976 45.8238C42.7039 45.6998 42.5057 45.576 42.3633 45.3906C42.2897 45.2947 42.2189 45.1762 42.3253 45.0612C42.4264 44.952 42.5411 44.9931 42.6558 45.058C42.8671 45.1777 43.0779 45.3001 43.2977 45.4024C43.709 45.5938 44.1339 45.644 44.5708 45.4831C44.7417 45.4202 44.9126 45.3557 45.0874 45.3052C45.6866 45.1321 46.2175 44.9048 46.0763 44.0884" fill="rgb(227,139,117)" fill-rule="evenodd" />
					<path id="Fill 3173备份" d="M39.5734 48.5076C42.6051 49.6886 45.6195 49.7932 48.63 48.3591C48.1842 48.939 45.5409 49.7654 44.1575 49.7434C42.5384 49.7177 41.0399 49.1992 39.5734 48.5076" fill="rgb(207,106,87)" fill-rule="evenodd" />
					<path id="Fill 3175备份" d="M42.047 50.5541C43.4688 51.1163 44.8845 51.286 46.3452 50.4854C45.852 51.5665 43.9967 52.2278 42.047 50.5541" fill="rgb(225,138,114)" fill-rule="evenodd" />
					<path id="Fill 3177备份" d="M46.4357 29.9518L46.357 30.0211C44.9153 29.2445 43.4516 28.5047 42.1395 27.5105C41.9915 27.3982 41.9935 27.3955 41.9703 27.2454C42.9131 27.9505 43.9255 28.543 44.9636 29.0943C45.4543 29.3801 45.945 29.666 46.4357 29.9518" fill="rgb(85,55,47)" fill-rule="evenodd" />
				</g>
			</g>
			<g id="编组 14">
				<path id="Fill 3121备份" d="M51.8607 87.5512C50.751 87.6755 49.6427 87.8008 48.5292 87.8975C46.0923 88.1092 43.6517 88.1153 41.2143 88.0476C39.3053 87.9946 37.3983 87.8333 35.5011 87.5518C34.1978 87.3583 32.9142 87.0727 31.6156 86.8632C30.7999 86.5154 29.912 86.4142 29.0796 86.1223C28.8108 86.028 28.5005 86.0051 28.3991 85.6656C28.1657 85.4899 28.1913 85.2296 28.2005 84.9897C28.2458 83.8095 28.3208 82.2006 28.4133 81.0236C28.4831 80.1362 28.5334 79.2461 28.5508 78.3597C28.5947 76.1479 28.5614 73.9344 28.5681 71.7216C28.5697 71.1983 28.4213 70.6855 28.4773 70.1605C28.5474 69.7993 28.5478 69.4414 28.4203 69.0901C28.2699 68.209 28.2031 67.3209 28.2093 66.4271C28.2698 66.0178 28.2742 65.611 28.153 65.2099C28.1518 64.599 27.9626 63.9942 28.0877 63.3783C28.1774 63.1706 28.3404 63.0782 28.5612 63.077C28.9453 63.1561 28.9352 63.4886 28.9597 63.7609C28.9912 64.1116 29.0451 64.4536 29.1442 64.7895C29.4291 66.4543 30.1594 67.9092 31.2481 69.1875C31.7684 69.7985 32.3824 70.3117 33.0404 70.7705C35.3808 72.4022 38.0034 73.2371 40.8178 73.5527C43.3107 73.8322 45.7903 73.8156 48.2463 73.2633C50.6953 72.7127 52.942 71.715 54.9134 70.1399C55.1884 69.9202 55.5023 69.7452 55.7218 69.4589C56.9673 68.5114 57.4502 67.1747 57.6612 65.6926C57.7796 64.8601 57.8708 64.0253 57.9481 63.1885C57.965 63.0048 57.9866 62.8168 58.1993 62.738C58.5198 62.7109 58.7486 62.835 58.8668 63.1417C58.9988 63.802 58.8553 64.4601 58.8081 65.1117C58.6454 67.3601 58.3614 69.6 58.2164 71.8489C58.0732 74.0702 58.0324 76.3005 58.1174 78.5257C58.1851 80.3028 58.2705 82.5099 58.3742 84.2859C58.3889 84.5394 58.5949 85.459 58.3742 85.6656C58.3465 86.8416 58.1733 86.193 57.0133 86.4956C56.6024 86.6027 56.1993 86.7406 55.7928 86.8644C54.4844 87.1066 53.1861 87.403 51.8607 87.5512Z" fill="rgb(253,253,253)" fill-rule="evenodd" />
				<path id="Fill 3123备份" d="M78.53 71.6265C77.4221 70.4423 76.1852 69.4211 74.8152 68.5447C72.5861 67.1186 70.1401 66.227 67.616 65.5178C64.9524 64.7694 62.302 63.9778 59.6605 63.1568C59.4196 63.1576 59.1767 62.8763 58.9376 63.1084C58.9364 63.1069 58.9354 63.1055 58.9343 63.1041C58.8803 63.0437 58.8213 63.0373 58.7571 63.0877C58.6751 64.2335 58.6203 65.3819 58.5063 66.5245C58.1539 70.0546 57.8707 73.5854 57.921 77.1396C57.9561 79.627 58.1545 82.1064 58.2024 84.5921C58.2024 85.0991 58.2024 85.1977 58.3453 85.5963C60.1547 85.0394 61.9463 84.4403 63.6307 83.5582C64.5591 83.1564 65.4467 82.6725 66.3239 82.1744C69.1537 80.5676 71.7638 78.6474 74.2497 76.5538C74.5009 76.4956 74.6697 76.3113 74.8483 76.1488C76.0923 75.0163 77.2436 73.7918 78.3856 72.5589C78.5547 72.3762 78.7634 72.1883 78.7151 71.8885C78.6737 71.7869 78.6037 71.7053 78.53 71.6265Z" fill="rgb(87,117,169)" fill-rule="evenodd" />
				<path id="Fill 3125备份" d="M28.5774 69.0673C28.5094 68.1818 28.4413 67.2961 28.3733 66.4107C28.2688 66.0079 28.3986 65.5917 28.3019 65.1886C28.3818 64.5716 28.1701 63.9719 28.1935 63.3581C27.8691 63.2337 27.5765 63.2952 27.3742 63.5229C27.3528 63.5199 27.3306 63.5179 27.3072 63.517C26.5097 63.6739 25.7524 63.9728 24.9677 64.1741C24.8813 64.2053 24.7956 64.2369 24.707 64.2624C22.3055 64.9566 19.8838 65.5866 17.5392 66.4644C15.1577 67.356 12.8788 68.4383 10.921 70.1027C10.513 70.5308 10.0935 70.9477 9.74519 71.4282C9.57872 71.6459 9.41575 71.8661 9.24475 72.0802C9.06415 72.3064 9.06507 72.499 9.27143 72.7256C10.9861 74.6082 12.7873 76.3981 14.8054 77.9596C14.867 78.0271 14.9211 78.1038 14.9913 78.1606C16.8244 79.6404 18.7893 80.9305 20.8341 82.09C23.0969 83.3733 25.4306 84.5174 27.9302 85.2821C28.0856 85.3297 28.2563 85.3851 28.3991 85.2358C28.3628 83.8368 28.5094 82.4462 28.5988 81.0536C28.8332 77.4035 28.8277 73.7534 28.6507 70.102C28.5479 69.7626 28.6742 69.4071 28.5774 69.0673" fill="rgb(87,117,169)" fill-rule="evenodd" />
				<path id="Fill 3129备份" d="M55.5449 74.741C52.8747 76.6855 49.7852 77.6252 46.5324 78.0163C40.9158 78.6917 35.3485 77.2021 32.4843 75.2583C40.1404 79.037 47.8755 79.1503 55.5449 74.741" fill="rgb(186,191,198)" fill-rule="evenodd" />
			</g>
		</g>
	</g>
</svg>
