<svg viewBox="0 0 80 80" xmlns="http://www.w3.org/2000/svg" xmlns:xlink="http://www.w3.org/1999/xlink" width="80.000000" height="80.000000" fill="none" customFrame="#000000">
	<rect id="动态" width="80.000000" height="80.000000" x="0.000000" y="0.000000" fill="rgb(255,255,255)" fill-opacity="0" />
	<path id="形状结合" d="M11.499 12.5C10.1183 12.5 8.99902 13.6193 8.99902 15C8.99902 16.3807 10.1183 17.5 11.499 17.5C12.8797 17.5 13.999 16.3807 13.999 15C13.999 13.6193 12.8797 12.5 11.499 12.5ZM21.499 15C21.499 16.4 22.599 17.5 23.999 17.5L68.999 17.5C70.399 17.5 71.499 16.4 71.499 15C71.499 13.6 70.399 12.5 68.999 12.5L23.999 12.5C22.599 12.5 21.499 13.6 21.499 15ZM8.99902 40C8.99902 38.6193 10.1183 37.5 11.499 37.5C12.8797 37.5 13.999 38.6193 13.999 40C13.999 41.3807 12.8797 42.5 11.499 42.5C10.1183 42.5 8.99902 41.3807 8.99902 40ZM23.999 42.5L56.9012 42.1623C58.3012 42.1623 59.4012 41.0623 59.4012 39.6623C59.4012 38.2623 58.3012 37.1623 56.9012 37.1623L23.999 37.5C22.599 37.5 21.499 38.6 21.499 40C21.499 41.4 22.599 42.5 23.999 42.5ZM11.499 62.5C10.1183 62.5 8.99902 63.6193 8.99902 65C8.99902 66.3807 10.1183 67.5 11.499 67.5C12.8797 67.5 13.999 66.3807 13.999 65C13.999 63.6193 12.8797 62.5 11.499 62.5ZM68.999 62.5L23.999 62.5C22.599 62.5 21.499 63.6 21.499 65C21.499 66.4 22.599 67.5 23.999 67.5L68.999 67.5C70.399 67.5 71.499 66.4 71.499 65C71.499 63.6 70.399 62.5 68.999 62.5Z" fill="rgb(0,0,0)" fill-rule="evenodd" />
</svg>
