<svg viewBox="0 0 50 50" xmlns="http://www.w3.org/2000/svg" xmlns:xlink="http://www.w3.org/1999/xlink" width="50.000000" height="50.000000" fill="none">
	<rect id="操作图标/添加节点" width="50.000000" height="50.000000" x="0.000000" y="0.000000" />
	<path id="形状结合" d="M35.9375 27.3438C36.8004 27.3438 37.5 28.0433 37.5 28.9062L37.5 35.1562L43.75 35.1562C44.6129 35.1562 45.3125 35.8558 45.3125 36.7188C45.3125 37.5817 44.6129 38.2812 43.75 38.2812L37.5 38.2812L37.5 44.5312C37.5 45.3942 36.8004 46.0938 35.9375 46.0938C35.0746 46.0938 34.375 45.3942 34.375 44.5312L34.375 38.2812L28.125 38.2812C27.2621 38.2812 26.5625 37.5817 26.5625 36.7188C26.5625 35.8558 27.2621 35.1562 28.125 35.1562L34.375 35.1562L34.375 28.9062C34.375 28.0433 35.0746 27.3438 35.9375 27.3438ZM42.1875 3.90625C43.9134 3.90625 45.3125 5.30536 45.3125 7.03125L45.3125 16.4062C45.3125 18.1321 43.9134 19.5312 42.1875 19.5312L14.0625 19.5312L14.0625 35.1562L21.875 35.1562C22.7379 35.1562 23.4375 35.8558 23.4375 36.7188C23.4375 37.5817 22.7379 38.2812 21.875 38.2812L12.5 38.2812C11.6371 38.2812 10.9375 37.5817 10.9375 36.7188L10.9375 19.5312L7.8125 19.5312C6.08661 19.5312 4.6875 18.1321 4.6875 16.4062L4.6875 7.03125C4.6875 5.30536 6.08661 3.90625 7.8125 3.90625L42.1875 3.90625ZM42.1875 7.03125L7.8125 7.03125L7.8125 16.4062L42.1875 16.4062L42.1875 7.03125Z" fill="rgb(0,0,0)" fill-rule="evenodd" />
	<path id="形状结合" d="M37.5 28.9062L37.5 35.1562L43.75 35.1562C44.6129 35.1562 45.3125 35.8558 45.3125 36.7188C45.3125 37.5817 44.6129 38.2812 43.75 38.2812L37.5 38.2812L37.5 44.5312C37.5 45.3942 36.8004 46.0938 35.9375 46.0938C35.0746 46.0938 34.375 45.3942 34.375 44.5312L34.375 38.2812L28.125 38.2812C27.2621 38.2812 26.5625 37.5817 26.5625 36.7188C26.5625 35.8558 27.2621 35.1562 28.125 35.1562L34.375 35.1562L34.375 28.9062C34.375 28.0433 35.0746 27.3438 35.9375 27.3438C36.8004 27.3438 37.5 28.0433 37.5 28.9062ZM45.3125 7.03125L45.3125 16.4062C45.3125 18.1321 43.9134 19.5312 42.1875 19.5312L14.0625 19.5312L14.0625 35.1562L21.875 35.1562C22.7379 35.1562 23.4375 35.8558 23.4375 36.7188C23.4375 37.5817 22.7379 38.2812 21.875 38.2812L12.5 38.2812C11.6371 38.2812 10.9375 37.5817 10.9375 36.7188L10.9375 19.5312L7.8125 19.5312C6.08661 19.5312 4.6875 18.1321 4.6875 16.4062L4.6875 7.03125C4.6875 5.30536 6.08661 3.90625 7.8125 3.90625L42.1875 3.90625C43.9134 3.90625 45.3125 5.30536 45.3125 7.03125ZM7.8125 7.03125L7.8125 16.4062L42.1875 16.4062L42.1875 7.03125L7.8125 7.03125Z" fill-rule="evenodd" stroke="rgb(0,0,0)" stroke-opacity="0" stroke-width="3" />
</svg>
