<svg viewBox="0 0 80 80" xmlns="http://www.w3.org/2000/svg" xmlns:xlink="http://www.w3.org/1999/xlink" width="80.000000" height="80.000000" fill="none">
	<rect id="api" width="80.000000" height="80.000000" x="0.000000" y="0.000000" />
	<path id="_形状结合" d="M36.9461 10.9535C39.1461 11.1035 40.4461 13.7035 41.5461 16.9035L41.9961 18.3035L43.2961 22.6535L43.5461 23.5035L44.0961 25.3535L44.5961 27.3035L45.0961 29.3035L45.5461 31.3035L45.9461 33.2535C46.3961 35.7535 46.6461 37.8535 46.4461 38.9535C46.0461 41.3535 43.2461 39.7535 40.5961 36.4035L38.8961 34.1035L38.1961 33.2535C37.1461 31.9535 36.5461 31.6035 35.8461 31.6535L35.1961 31.7535L34.0461 32.6535L33.5961 33.2035L32.8461 34.2535L31.6461 36.1035L29.9961 38.7535L27.8961 42.3035L24.6461 47.9535L23.2961 50.3535L22.0461 52.6035L20.3961 55.7035L18.4961 59.4535L15.0461 66.4035L14.5461 67.3535L14.0461 68.2035L13.6461 68.9035L13.2461 69.5035C12.5961 70.3035 12.0961 70.5535 11.5961 70.1535C11.2961 69.9535 11.0961 69.3035 10.9961 68.4035L10.9961 67.5035C10.9961 67.2035 10.9961 66.8535 10.9961 66.5035L10.9961 65.3035L11.1961 64.0035L11.3461 62.6035L11.5961 61.0035L11.8961 59.3535L12.2461 57.5535C12.2461 57.2535 12.3461 56.9535 12.3961 56.6035L12.8461 54.7035L13.5961 51.6035L14.1461 49.4535L14.7961 47.2535L15.4961 44.9535L16.1961 42.6035C16.3461 42.2035 16.4961 41.8035 16.5961 41.4035L17.4461 39.0035L18.2961 36.5535C18.5961 35.7035 18.9461 34.8535 19.2461 34.0535C19.5961 33.1535 19.9461 32.3035 20.2461 31.5035L21.2961 29.1535C22.0961 27.2535 22.9461 25.5035 23.7961 23.9535L24.7461 22.2035C27.8961 16.8035 30.7961 13.7535 33.1961 12.2035L33.8961 11.8035C35.0961 11.1535 36.0961 10.9035 36.9461 10.9535ZM43.5461 10.9535C44.0461 10.9535 44.8461 11.4535 45.9461 12.5035L46.5961 13.2035L47.0961 13.7535L47.5961 14.3535L48.0961 15.0035L48.8961 16.0535L49.4961 16.8035L50.3461 18.0535L50.9961 18.9535L51.5961 19.8535L52.5461 21.3535L53.1961 22.4035L54.1961 24.0035L54.8961 25.1535L56.2461 27.5535L56.9461 28.8035L57.6461 30.0535L58.3461 31.3535L59.0461 32.7035L60.3961 35.5035L61.0961 36.9035L61.7961 38.4035L62.4961 39.8535L63.4961 42.1535L64.4461 44.4535C65.0461 45.9035 65.5961 47.3535 66.0461 48.7035L66.4961 50.0035C67.0961 51.7035 67.5461 53.3035 67.8961 54.8035L68.1461 55.9035C68.3461 56.8035 68.4961 57.6035 68.5961 58.4035L68.7461 59.3535L68.8461 60.2535L68.8461 61.1035L68.9461 61.9035C68.9961 62.4535 68.9961 62.9535 68.9461 63.4035L68.9461 64.7535L68.7461 65.6535L68.6461 66.2035C68.5961 66.4535 68.5461 66.7035 68.4461 66.9535C68.4461 66.9535 68.1461 67.8035 68.0461 68.0035C67.7961 68.5535 67.2961 69.3035 66.9461 69.6035C65.4461 70.9535 62.9961 70.2535 60.2461 68.9035L59.0461 68.3035L57.8461 67.6535L54.5961 65.8535L53.6461 65.3535L52.1461 64.5035L51.0961 63.9035L50.0461 63.3035L48.9961 62.6535L47.9461 61.9535L46.4461 60.9535L45.4961 60.3035L44.5961 59.6535C44.1961 59.3535 43.7961 59.1035 43.4461 58.8035L42.4961 58.0535C41.9461 57.5535 41.4961 57.1035 41.2461 56.7535C40.0961 55.1035 42.0461 54.2535 45.0961 54.3035L45.7961 54.3035L46.6461 54.4035L47.5961 54.5535L49.2461 54.8035L50.5961 54.9535L51.3461 55.0535C52.2961 55.0535 53.1961 54.8535 53.5461 54.4035L53.9961 53.3535L53.9961 52.7535L53.9461 51.8035L53.8461 51.2535L53.6961 50.4035L53.4461 49.1035L53.1461 47.8535L52.7461 46.0035L52.1461 43.8035L51.3461 40.6535L49.9461 35.4035L49.0461 32.3035L48.4461 30.1535L47.7961 28.1535L47.0461 25.6535L45.9461 22.3035L44.0461 16.6535L43.5961 15.3035L43.3961 14.7535L43.1961 13.9535L43.0461 13.0035C42.6961 11.7035 42.8461 11.0535 43.5461 10.9535ZM52.4961 29.3535L53.0461 31.2035L53.9461 34.3035L55.3461 39.6035L56.1961 42.8035L56.7461 45.0535L57.1961 46.9535L57.4961 48.3035L57.7961 49.7035L57.9461 50.6535L58.0461 51.3535L58.1461 52.1535L58.1461 53.9535L57.9961 54.6035L57.7461 55.3035L57.4961 55.9035C58.4461 59.4035 59.2961 62.3535 60.3461 64.3035L61.2961 64.8035L62.0461 65.2035C62.8461 65.5535 63.4961 65.8535 63.9961 66.0035L64.5461 65.6535L64.6961 64.8535L64.7961 63.9035L64.7961 63.3035L64.8461 62.7035L64.8461 62.1535L64.7961 61.4535L64.6961 60.2535L64.4961 59.0535L64.3461 57.9535L64.0961 56.8035L63.8461 55.7535C63.6461 54.8535 63.3461 53.8535 63.0461 52.8535L62.5961 51.3035L62.1461 50.0535C61.8461 49.2035 61.5461 48.3035 61.1961 47.4035L60.6461 46.0535L59.9961 44.5535L59.3961 43.0535L58.6961 41.6035L58.0461 40.1535L56.6961 37.3535L56.0461 35.9535L55.3461 34.6035L53.9961 32.0535L53.0461 31.2035L52.4961 29.3535ZM55.3961 58.2535L54.8961 58.5535C54.1461 58.9035 53.3461 59.1035 52.3961 59.1535L51.6461 59.1535L52.1961 59.7035L53.1961 60.3035L54.6461 61.1535L55.5961 61.7035L56.6461 62.2535C56.1461 61.0035 55.8461 59.7535 55.3961 58.2535ZM36.3461 15.1535C35.5961 15.5035 34.0961 16.5535 32.5461 18.2535C29.4461 21.7535 26.1961 27.5035 23.0961 35.5035C21.2461 40.4035 19.6461 45.3035 18.3461 49.9035L17.8961 51.5535C18.3461 50.7035 19.0461 49.4535 19.5461 48.5535L21.0461 45.9035L24.5461 39.8035L26.7961 35.9535L27.9461 34.1035L28.6461 33.0035L29.2961 32.1035L29.8961 31.2535L30.4461 30.5535L30.9461 29.9535L31.4461 29.4035L32.3461 28.6035L33.4461 28.0035L34.8461 27.6035C36.7461 24.5035 37.7461 21.7035 37.9461 19.1535C37.5461 18.0035 37.0461 16.6035 36.6961 15.9535L36.3461 15.1535ZM38.0961 27.0535L37.7961 27.6035C38.7461 27.9035 39.6461 28.5535 40.6961 29.8035C40.2961 28.0035 40.0961 26.3035 39.5461 24.6535L39.3961 24.0535C39.0461 25.0535 38.5961 26.0535 38.0961 27.0535Z" fill="rgb(25,25,25)" fill-rule="nonzero" />
</svg>
