<svg viewBox="0 0 80 80" xmlns="http://www.w3.org/2000/svg" xmlns:xlink="http://www.w3.org/1999/xlink" width="80.000000" height="80.000000" fill="none">
	<mask id="mask_20" width="80.000000" height="80.000000" x="0.000000" y="0.000000" maskUnits="userSpaceOnUse">
		<g filter="url(#pixso_custom_mask_type_luminance)">
			<g id="mask-4">
				<path id="path-3" d="M80 0L80 80L0 80L0 0L80 0ZM65 16.6667L15 16.6667C8.55668 16.6667 3.33333 21.89 3.33333 28.3333L3.33333 35L3.33887 35.192L3.35008 35.3863L3.36681 35.5789L3.41054 35.8774C3.82958 38.2403 5.89009 40 8.33333 40L25.8583 40L25.8732 40.0391C27.9723 45.912 33.5571 50 40 50L40.4573 49.9928L40.9144 49.9705C46.9859 49.5845 52.11 45.6272 54.1071 40.1095L54.1433 40L71.6667 40C74.4281 40 76.6667 37.7614 76.6667 35L76.6667 28.3333C76.6667 21.89 71.4433 16.6667 65 16.6667ZM65 20C69.6024 20 73.3333 23.731 73.3333 28.3333L73.3333 35C73.3333 35.9205 72.5871 36.6667 71.6667 36.6667L51.5467 36.6667L51.5012 36.9693C50.587 42.3468 45.993 46.471 40.4011 46.6599L40 46.6667C34.2279 46.6667 29.4348 42.4748 28.4988 36.9693L28.4517 36.6667L8.33333 36.6667C7.47861 36.6667 6.77415 36.0233 6.67788 35.1944L6.66667 35L6.66667 28.3333C6.66667 23.731 10.3976 20 15 20L65 20Z" fill="rgb(255,255,255)" fill-rule="evenodd" />
			</g>
		</g>
	</mask>
	<defs>
		<filter id="pixso_custom_mask_type_luminance">
			<feColorMatrix type="matrix" values="1 0 0 0 0 0 1 0 0 0 0 0 1 0 0 0 0 0 1 0 " />
		</filter>
	</defs>
	<mask id="mask_19" width="80.003593" height="80.000000" x="-0.001465" y="0.000000" maskUnits="userSpaceOnUse">
		<g filter="url(#pixso_custom_mask_type_luminance)">
			<g id="mask-2">
				<path id="path-1" d="M-0.00146484 69.9589C2.68563 74.0019 7.28164 76.6667 12.5 76.6667L67.5 76.6667C72.7177 76.6667 77.3132 74.0026 80.0005 69.9605L80 80L4.60593e-05 80L-0.00146484 69.9589ZM30 33.3333C30.9205 33.3333 31.6667 34.0795 31.6667 35C31.6667 39.6024 35.3977 43.3333 40 43.3333C44.6024 43.3333 48.3334 39.6024 48.3334 35C48.3334 34.0795 49.0796 33.3333 50 33.3333L70.8334 33.3333C75.4357 33.3333 79.1667 37.0643 79.1667 41.6667L79.1667 61.6667C79.1667 68.11 73.9434 73.3333 67.5 73.3333L12.5 73.3333C6.05672 73.3333 0.833379 68.11 0.833379 61.6667L0.833379 41.6667C0.833379 37.0643 4.56434 33.3333 9.16671 33.3333L30 33.3333ZM80 0L80.0021 34.4516C77.8658 31.7406 74.5529 30 70.8334 30L50 30C47.2386 30 45 32.2386 45 35C45 37.7614 42.7615 40 40 40C37.2386 40 35 37.7614 35 35C35 32.2386 32.7615 30 30 30L9.16671 30C5.44799 30 2.13564 31.7399 -0.000719809 34.45L4.60593e-05 0L80 0Z" fill="rgb(255,255,255)" fill-rule="evenodd" />
			</g>
		</g>
	</mask>
	<rect id="已归档" width="80.000000" height="80.000000" x="0.000000" y="0.000000" />
	<g id="ic_huawei_cloud_archived_item-归档项目/base/ic_huawei_cloud_archived_item">
		<path id="path1" d="M2.50911 39.9695C2.50911 34.111 2.48861 28.2525 2.50911 22.394C2.49733 19.5591 2.84577 16.7342 3.54606 13.9871C5.08098 8.17261 8.86848 4.72197 14.6772 3.38331C17.5897 2.75402 20.5645 2.45919 23.5439 2.50453C34.7785 2.50453 46.0141 2.50453 57.2506 2.50453C60.0884 2.48692 62.918 2.81148 65.678 3.47118C71.6625 4.9358 75.2537 8.72623 76.6217 14.6902C77.2367 17.5088 77.5305 20.388 77.4975 23.2728C77.4975 34.6285 77.4975 45.9851 77.4975 57.3428C77.5128 60.1532 77.1893 62.9552 76.5338 65.6882C75.0692 71.6755 71.2612 75.2492 65.2972 76.6171C62.3843 77.244 59.4098 77.5388 56.4305 77.4959C45.2427 77.4959 34.056 77.4959 22.8702 77.4959C20.0108 77.5192 17.1588 77.1996 14.3754 76.5439C8.36465 75.0793 4.75584 71.2713 3.39081 65.2781C2.69366 62.2317 2.50911 59.1765 2.50911 56.0949C2.50911 50.7207 2.50911 45.3456 2.50911 39.9695Z" fill="rgb(255,255,255)" fill-opacity="0" fill-rule="nonzero" />
		<path id="path1" d="M2.50911 22.394C2.49733 19.5591 2.84577 16.7342 3.54606 13.9871C5.08098 8.17261 8.86848 4.72197 14.6772 3.38331C17.5897 2.75402 20.5645 2.45919 23.5439 2.50453C34.7785 2.50453 46.0141 2.50453 57.2506 2.50453C60.0884 2.48692 62.918 2.81148 65.678 3.47118C71.6625 4.9358 75.2537 8.72623 76.6217 14.6902C77.2367 17.5088 77.5305 20.388 77.4975 23.2728C77.4975 34.6285 77.4975 45.9851 77.4975 57.3428C77.5128 60.1532 77.1893 62.9552 76.5338 65.6882C75.0692 71.6755 71.2612 75.2492 65.2972 76.6171C62.3843 77.244 59.4098 77.5388 56.4305 77.4959C45.2427 77.4959 34.056 77.4959 22.8702 77.4959C20.0108 77.5192 17.1588 77.1996 14.3754 76.5439C8.36465 75.0793 4.75584 71.2713 3.39081 65.2781C2.69366 62.2317 2.50911 59.1765 2.50911 56.0949C2.50911 50.7207 2.50911 45.3456 2.50911 39.9695C2.50911 34.111 2.48861 28.2525 2.50911 22.394Z" fill-rule="nonzero" stroke="rgb(255,255,255)" stroke-opacity="0" stroke-width="3" />
		<path id="path2" d="M2.50911 22.394C2.49733 19.5591 2.84577 16.7342 3.54606 13.9871C5.08098 8.17261 8.86848 4.72197 14.6772 3.38331C17.5897 2.75402 20.5645 2.45919 23.5439 2.50453C34.7785 2.50453 46.0141 2.50453 57.2506 2.50453C60.0884 2.48692 62.918 2.81148 65.678 3.47118C71.6625 4.9358 75.2537 8.72623 76.6217 14.6902C77.2367 17.5088 77.5305 20.388 77.4975 23.2728C77.4975 34.6285 77.4975 45.9851 77.4975 57.3428C77.5128 60.1532 77.1893 62.9552 76.5338 65.6882C75.0692 71.6755 71.2612 75.2492 65.2972 76.6171C62.3843 77.244 59.4098 77.5388 56.4305 77.4959C45.2427 77.4959 34.056 77.4959 22.8702 77.4959C20.0108 77.5192 17.1588 77.1996 14.3754 76.5439C8.36465 75.0793 4.75584 71.2713 3.39081 65.2781C2.69366 62.2317 2.50911 59.1765 2.50911 56.0949C2.50911 50.7207 2.50911 45.3456 2.50911 39.9695C2.50911 34.111 2.48861 28.2525 2.50911 22.394Z" opacity="0.200000003" fill-rule="nonzero" stroke="rgb(255,255,255)" stroke-opacity="0" stroke-width="3" />
		<circle id="path3" cx="40" cy="40" r="40" fill="rgb(255,255,255)" fill-opacity="0" />
		<path id="path4" d="M71.6667 28.3334L71.6667 35.0001L50 35.0001C50 40.5229 45.5229 45.0001 40 45.0001C34.4772 45.0001 30 40.5229 30 35.0001L8.33337 35.0001L8.33337 28.3334C8.33337 24.6515 11.3181 21.6667 15 21.6667L65 21.6667C68.6819 21.6667 71.6667 24.6515 71.6667 28.3334Z" fill-rule="evenodd" stroke="rgb(0,0,0)" stroke-linejoin="round" stroke-width="3" />
		<path id="path5" d="M77.5 41.6667L77.5 61.6667C77.5 67.1895 73.0229 71.6667 67.5 71.6667L12.5 71.6667C6.97715 71.6667 2.5 67.1895 2.5 61.6667L2.5 41.6667C2.5 37.9848 5.48477 35 9.16667 35L30 35C30 40.5229 34.4771 45 40 45C45.5229 45 50 40.5229 50 35L70.8333 35C74.5152 35 77.5 37.9848 77.5 41.6667Z" fill-rule="evenodd" stroke="rgb(0,0,0)" stroke-linejoin="round" stroke-width="3" />
		<path id="path6" d="M58.3333 8.33325C62.0152 8.33325 65 11.318 65 14.9999L65 21.6666L15 21.6666L15 14.9999C15 11.318 17.9848 8.33325 21.6667 8.33325L58.3333 8.33325Z" fill-rule="evenodd" stroke="rgb(0,0,0)" stroke-linejoin="round" stroke-width="3" />
		<g id="path7" />
		<g id="mask" mask="url(#mask_19)">
			<path id="path8" d="M65 21.6667C68.6819 21.6667 71.6667 24.6515 71.6667 28.3334L71.6667 31.6667L46.4568 31.6672C46.5938 32.1997 46.6667 32.7581 46.6667 33.3334C46.6667 37.0153 43.6819 40.0001 40 40.0001C36.3181 40.0001 33.3334 37.0153 33.3334 33.3334C33.3334 32.7581 33.4063 32.1997 33.5433 31.6672L8.33337 31.6667L8.33337 28.3334C8.33337 24.6515 11.3181 21.6667 15 21.6667L65 21.6667Z" fill="rgb(255,255,255)" fill-opacity="0" fill-rule="evenodd" />
			<path id="path8" d="M71.6667 28.3334L71.6667 31.6667L46.4568 31.6672C46.5938 32.1997 46.6667 32.7581 46.6667 33.3334C46.6667 37.0153 43.6819 40.0001 40 40.0001C36.3181 40.0001 33.3334 37.0153 33.3334 33.3334C33.3334 32.7581 33.4063 32.1997 33.5433 31.6672L8.33337 31.6667L8.33337 28.3334C8.33337 24.6515 11.3181 21.6667 15 21.6667L65 21.6667C68.6819 21.6667 71.6667 24.6515 71.6667 28.3334Z" fill-rule="evenodd" stroke="rgb(255,255,255)" stroke-opacity="0" stroke-linejoin="round" stroke-width="3" />
		</g>
		<path id="path9" d="M70.8333 35C74.5152 35 77.5 37.9848 77.5 41.6667L77.5 61.6667C77.5 67.1895 73.0229 71.6667 67.5 71.6667L12.5 71.6667C6.97715 71.6667 2.5 67.1895 2.5 61.6667L2.5 41.6667C2.5 37.9848 5.48477 35 9.16667 35L30 35C30 40.5229 34.4771 45 40 45C45.5229 45 50 40.5229 50 35L70.8333 35Z" fill="rgb(255,255,255)" fill-opacity="0" fill-rule="evenodd" />
		<path id="path9" d="M77.5 41.6667L77.5 61.6667C77.5 67.1895 73.0229 71.6667 67.5 71.6667L12.5 71.6667C6.97715 71.6667 2.5 67.1895 2.5 61.6667L2.5 41.6667C2.5 37.9848 5.48477 35 9.16667 35L30 35C30 40.5229 34.4771 45 40 45C45.5229 45 50 40.5229 50 35L70.8333 35C74.5152 35 77.5 37.9848 77.5 41.6667Z" fill-rule="evenodd" stroke="rgb(255,255,255)" stroke-opacity="0" stroke-linejoin="round" stroke-width="3" />
		<line id="path10" x1="30.0000648" x2="50.0000648" y1="58.3334961" y2="58.3334961" stroke="rgb(0,0,0)" stroke-linecap="round" stroke-linejoin="round" stroke-width="3" />
		<g id="path11" />
		<g id="mask" mask="url(#mask_20)">
			<path id="path12" d="M21.6667 8.33325L58.3333 8.33325C62.0152 8.33325 65 11.318 65 14.9999L65 18.3333L15 18.3333L15 14.9999C15 11.318 17.9848 8.33325 21.6667 8.33325Z" fill="rgb(255,255,255)" fill-opacity="0" fill-rule="evenodd" />
			<path id="path12" d="M58.3333 8.33325C62.0152 8.33325 65 11.318 65 14.9999L65 18.3333L15 18.3333L15 14.9999C15 11.318 17.9848 8.33325 21.6667 8.33325L58.3333 8.33325Z" fill-rule="evenodd" stroke="rgb(255,255,255)" stroke-opacity="0" stroke-linejoin="round" stroke-width="3" />
		</g>
	</g>
</svg>
