<svg viewBox="0 0 59 59" xmlns="http://www.w3.org/2000/svg" xmlns:xlink="http://www.w3.org/1999/xlink" width="59.000000" height="59.000000" fill="none" customFrame="#000000">
	<rect id="操作图标/构架" width="59.000000" height="59.000000" x="0.000000" y="0.000000" fill="rgb(255,255,255)" fill-opacity="0" />
	<path id="形状结合" d="M11.0625 6.63745L5.53125 6.63745C4.49875 6.63745 3.6875 7.4487 3.6875 8.4812C3.6875 9.5137 4.49875 10.325 5.53125 10.325L11.0625 10.325C12.095 10.325 12.9062 9.5137 12.9062 8.4812C12.9062 7.4487 12.095 6.63745 11.0625 6.63745ZM41.9057 6.63745L18.4339 6.63745C17.4014 6.63745 16.5901 7.4487 16.5901 8.4812C16.5901 9.5137 17.4014 10.325 18.4339 10.325L24.751 10.325L24.751 28.5856L24.751 43.5125C24.751 44.1905 24.8222 44.853 24.9646 45.4997C25.0846 46.0444 25.2552 46.5789 25.4762 47.1014C25.6979 47.6255 25.9629 48.1211 26.2712 48.5881C26.6116 49.1038 27.0051 49.5851 27.4511 50.0311C27.8971 50.4771 28.3779 50.8703 28.8936 51.2107C29.3608 51.5191 29.8565 51.7842 30.3808 52.006C30.9033 52.227 31.437 52.3975 31.9817 52.5175C32.6287 52.6599 33.2914 52.7312 33.9698 52.7312L41.9121 52.7312C42.9446 52.7312 43.7558 51.92 43.7558 50.8875C43.7558 49.8549 42.9446 49.0437 41.9121 49.0437L33.9698 49.0437C33.5407 49.0437 33.1225 48.9965 32.7153 48.902C32.4098 48.8312 32.1104 48.7337 31.8173 48.6098C31.5138 48.4814 31.2261 48.3287 30.9542 48.1516C30.6339 47.9429 30.3349 47.6999 30.0586 47.4236C29.7821 47.1471 29.5394 46.8486 29.3306 46.528C29.1536 46.2562 29.0008 45.9684 28.8724 45.6649C28.7486 45.372 28.6512 45.073 28.5804 44.7678C28.4859 44.3605 28.4385 43.9416 28.4385 43.5125L28.4385 30.6062L41.9039 30.6062C42.9364 30.6062 43.7477 29.795 43.7477 28.7625C43.7477 27.7299 42.9364 26.9187 41.9039 26.9187L28.4385 26.9187L28.4385 10.325L41.9057 10.325C42.9382 10.325 43.7495 9.5137 43.7495 8.4812C43.7495 7.4487 42.9382 6.63745 41.9057 6.63745ZM49.5652 6.63745L53.9909 6.63745C55.0234 6.63745 55.8347 7.4487 55.8347 8.4812C55.8347 9.5137 55.0234 10.325 53.9909 10.325L49.5652 10.325C48.5327 10.325 47.7214 9.5137 47.7214 8.4812C47.7214 7.4487 48.5327 6.63745 49.5652 6.63745ZM49.5652 26.9187L53.9909 26.9187C55.0234 26.9187 55.8347 27.73 55.8347 28.7625C55.8347 29.795 55.0234 30.6062 53.9909 30.6062L49.5652 30.6062C48.5327 30.6062 47.7214 29.795 47.7214 28.7625C47.7214 27.7299 48.5327 26.9187 49.5652 26.9187ZM53.9909 49.0437L49.5652 49.0437C48.5327 49.0437 47.7214 49.855 47.7214 50.8875C47.7214 51.9199 48.5327 52.7312 49.5652 52.7312L53.9909 52.7312C55.0234 52.7312 55.8347 51.9199 55.8347 50.8875C55.8347 49.855 55.0234 49.0437 53.9909 49.0437Z" fill="rgb(0,0,0)" fill-rule="evenodd" />
</svg>
