<svg viewBox="0 0 24 24" xmlns="http://www.w3.org/2000/svg" xmlns:xlink="http://www.w3.org/1999/xlink" width="24.000000" height="24.000000" fill="none" customFrame="#000000">
	<defs>
		<clipPath id="clipPath_5">
			<rect width="19.999882" height="20.000002" x="2.000000" y="2.000000" fill="rgb(255,255,255)" />
		</clipPath>
		<radialGradient id="paint_radial_5" cx="0" cy="0" r="1" gradientUnits="userSpaceOnUse" gradientTransform="matrix(-6.99992,5.91398,-10.911,-12.9145,8.99991,21.1629)">
			<stop stop-color="rgb(214.018,155.787,7.78246)" offset="0" stop-opacity="1" />
			<stop stop-color="rgb(251.585,201.245,73.1883)" offset="1" stop-opacity="1" />
		</radialGradient>
		<linearGradient id="paint_linear_6" x1="12.0032015" x2="12.0032015" y1="7.83105469" y2="11.9977026" gradientUnits="userSpaceOnUse">
			<stop stop-color="rgb(0,0,0)" offset="0" stop-opacity="1" />
			<stop stop-color="rgb(0,0,0)" offset="1" stop-opacity="0" />
		</linearGradient>
	</defs>
	<rect id="制品仓库" width="24.000000" height="24.000000" x="0.000000" y="0.000000" />
	<g id="组合 1956">
		<rect id="矩形 991" width="24.000000" height="24.000000" x="0.000000" y="0.000000" opacity="0" fill="rgb(196,196,196)" />
		<g id="制品仓库" customFrame="url(#clipPath_5)">
			<rect id="制品仓库" width="19.999882" height="20.000002" x="2.000000" y="2.000000" fill="rgb(255,255,255)" fill-opacity="0" />
			<rect id="制品仓库" width="19.999882" height="20.000002" x="2.000000" y="2.000000" fill="rgb(0,0,0)" fill-opacity="0" />
			<rect id="制品仓库" width="19.999882" height="20.000002" x="2.000000" y="2.000000" stroke="rgb(206.049,205.843,205.843)" stroke-opacity="0" stroke-width="0.799995422" />
			<path id="矢量 403" d="M4.08655 7.83105L12.1917 7.83105L19.9181 7.83105C20.1482 7.83105 20.3347 8.0176 20.3347 8.24765L20.3347 18.6646C20.3347 20.0451 19.2155 21.1643 17.835 21.1643L6.16966 21.1643C4.78909 21.1643 3.66992 20.0451 3.66992 18.6646L3.66992 8.24765C3.66992 8.0176 3.85645 7.83105 4.08655 7.83105Z" fill="url(#paint_radial_5)" fill-rule="evenodd" />
			<path id="矩形 1731" d="M3.66992 7.83105L20.3365 7.83105L20.3365 11.9977L3.66992 11.9977L3.66992 7.83105Z" opacity="0.209999993" fill="url(#paint_linear_6)" fill-rule="evenodd" />
			<g id="组合 2991" />
			<g id="组合 2993">
				<rect id="矩形 1172" width="4.999935" height="3.499954" x="6.500000" y="15.874023" rx="0.757498" fill="rgb(0,0,0)" fill-opacity="0.200000003" />
				<rect id="矩形 1173" width="4.999935" height="3.499954" x="12.499756" y="15.874023" rx="0.757498" fill="rgb(0,0,0)" fill-opacity="0.200000003" />
				<rect id="矩形 1171" width="4.999935" height="3.499954" x="8.500000" y="11.374023" rx="0.757498" fill="rgb(0,0,0)" fill-opacity="0.200000003" />
			</g>
			<g id="组合 2993">
				<rect id="矩形 1172" width="4.999935" height="3.499954" x="6.500000" y="14.874023" rx="0.757498" fill="rgb(252,240,194)" />
				<rect id="矩形 1173" width="4.999935" height="3.499954" x="12.499756" y="14.874023" rx="0.757498" fill="rgb(252,240,194)" />
				<rect id="矩形 1171" width="4.999935" height="3.499954" x="8.500000" y="10.374023" rx="0.757498" fill="rgb(252,240,194)" />
			</g>
			<path id="多边形 2" d="M10.7064 2.78365L2.44561 7.78851C2.08501 8.00695 2.23988 8.56145 2.66149 8.56145L21.3443 8.56145C21.766 8.56145 21.9208 8.0069 21.5601 7.78846L13.2967 2.78348C12.5005 2.30128 11.5024 2.30134 10.7064 2.78365Z" fill="rgb(166,119,17)" fill-rule="evenodd" />
		</g>
	</g>
</svg>
