<svg viewBox="0 0 80 80" xmlns="http://www.w3.org/2000/svg" xmlns:xlink="http://www.w3.org/1999/xlink" width="80.000000" height="80.000000" fill="none">
	<rect id="最佳实践" width="80.000000" height="80.000000" x="0.000000" y="0.000000" />
	<path id="形状结合" d="M65 10C70.5229 10 75 14.4772 75 20L75 60C75 65.5228 70.5229 70 65 70L15 70C9.47715 70 5 65.5228 5 60L5 20C5 14.4772 9.47715 10 15 10L65 10ZM65 15L15 15C12.4358 15 10.3225 16.9302 10.0336 19.4169L10 20L10 60C10 62.5642 11.9302 64.6775 14.4169 64.9664L15 65L65 65C67.5642 65 69.6775 63.0698 69.9664 60.5831L70 60L70 20C70 17.4358 68.0698 15.3225 65.5831 15.0336L65 15ZM60 50L60 55L20 55L20 50L60 50ZM40 20L43.8606 29.6863L54.2658 30.3647L46.2466 37.0297L48.8168 47.1353L40 41.5681L31.1832 47.1353L33.7534 37.0297L25.7342 30.3647L36.1394 29.6863L40 20Z" fill="rgb(0,0,0)" fill-rule="evenodd" />
</svg>
