<svg viewBox="0 0 80 80" xmlns="http://www.w3.org/2000/svg" xmlns:xlink="http://www.w3.org/1999/xlink" width="80.000000" height="80.000000" fill="none" customFrame="#000000">
	<rect id="项目首字母图标/C-48px*48px" width="80.000000" height="80.000000" x="0.000000" y="0.000000" />
	<rect id="矩形" width="80.000000" height="80.000000" x="0.000000" y="0.000000" opacity="0" fill="rgb(216,216,216)" />
	<rect id="矩形" width="77.000000" height="77.000000" x="1.500000" y="1.500000" opacity="0" stroke="rgb(151,151,151)" stroke-opacity="0" stroke-width="3" />
	<g id="c">
		<path id="Path" d="M66.3886 53.8888L66.3886 67.7777L31.6664 67.7777C21.6946 67.7777 13.6108 59.694 13.6108 49.7222C13.6108 48.7776 13.6108 12.2222 13.6108 12.2222L27.4997 12.2222L27.4997 48.3888L27.5065 48.6106C27.6465 51.4581 29.9304 53.7421 32.778 53.882L33.0553 53.8888L66.3886 53.8888Z" fill="rgb(105,99,240)" fill-rule="evenodd" />
		<path id="Path" d="M27.4997 45.5564L27.4997 48.3889L27.5065 48.6106C27.6465 51.4582 29.9304 53.7421 32.778 53.8821L33.0553 53.8889L35.8317 53.8883L35.8317 67.7772L31.6664 67.7778C21.6946 67.7778 13.6108 59.694 13.6108 49.7222L13.6108 45.5564L27.4997 45.5564Z" fill="rgb(218,95,95)" fill-rule="evenodd" />
		<rect id="Rectangle" width="4.166667" height="27.777777" x="9.444214" y="12.222168" fill="rgb(135,214,220)" />
		<rect id="Rectangle" width="1.166667" height="24.777777" x="10.944214" y="13.722168" stroke="rgb(151,151,151)" stroke-opacity="0" stroke-width="3" />
		<rect id="Rectangle" width="4.166667" height="27.777777" x="13.610840" y="12.222168" fill="rgb(85,203,170)" />
		<path id="Path" d="M66.3886 48.3333L66.3886 51.1152L45.0928 51.1118L45.0928 48.3333L66.3886 48.3333Z" fill="rgb(255,143,206)" fill-rule="evenodd" />
		<path id="Path" d="M63.858 12.075C67.8409 15.302 70.423 20.19 70.5503 25.6849L70.5552 26.1111L70.5552 27.5L66.3886 27.5L66.3834 27.0994C66.2615 22.3612 63.9823 18.1596 60.4916 15.4404L63.858 12.075Z" fill="rgb(234,216,131)" fill-rule="evenodd" />
		<path id="Path" d="M51.1109 12.2222C59.4146 12.2222 66.1711 18.8468 66.3835 27.0994L66.3887 27.4999L66.3887 34.4444L52.4998 34.4444L52.4998 27.4999C52.4998 26.7877 51.9636 26.2006 51.2729 26.1204L51.1109 26.1111L34.4442 26.1111L34.4442 12.2222L51.1109 12.2222Z" fill="rgb(85,203,170)" fill-rule="evenodd" />
		<path id="Path" d="M21.9445 45.5557L21.9445 48.5019C22.0516 51.5269 22.9533 54.4305 24.7911 56.3432C26.7358 58.367 29.7069 59.3338 32.664 59.4377L60.8334 59.4434L60.8334 62.2223L31.6667 62.2223C28.2149 62.2223 25.09 60.8232 22.8279 58.5612C20.5658 56.2991 19.3819 53.1741 19.3819 49.7223C19.3819 48.9272 19.2008 45.5557 19.2008 45.5557L21.9445 45.5557Z" fill="rgb(255,255,255)" fill-rule="evenodd" />
		<path id="Path" d="M19.2008 45.5557C19.2008 45.5557 19.2936 47.2822 19.3463 48.5557C19.3673 49.0617 19.3819 49.4962 19.3819 49.7223C19.3819 53.1741 20.5658 56.2991 22.8279 58.5612C23.6506 59.3838 24.5874 60.0924 25.6126 60.661C26.5447 61.178 27.5498 61.5793 28.6086 61.8455C29.5873 62.0916 30.6117 62.2223 31.6667 62.2223L60.8334 62.2223L60.8334 59.4434L32.664 59.4377C31.5818 59.3997 30.4977 59.2461 29.4627 58.9674C28.5937 58.7334 27.7592 58.4112 26.9896 57.9951C26.1714 57.5528 25.4265 57.0044 24.7911 56.3432C22.9533 54.4305 22.0516 51.5269 21.9445 48.5019L21.9445 45.5557L19.2008 45.5557Z" fill="rgb(151,151,151)" fill-opacity="0" fill-rule="evenodd" />
		<path id="Path" d="M51.1111 17.7778C56.3687 17.7778 60.6515 21.9511 60.8277 27.1658L60.8333 27.5001L60.8333 28.8889L58.0556 28.8889L58.0556 27.5001C58.0556 23.7657 55.1079 20.7198 51.4123 20.562L51.1111 20.5556L40 20.5556L40 17.7778L51.1111 17.7778Z" fill="rgb(255,255,255)" fill-rule="evenodd" />
		<path id="Path" d="M58.0556 28.8889L60.8333 28.8889L60.8333 27.5001L60.8277 27.1658C60.813 26.7324 60.77 26.3062 60.7005 25.8889C59.9329 21.2862 55.9317 17.7778 51.1111 17.7778L40 17.7778L40 20.5556L51.1111 20.5556L51.4123 20.562C55.1079 20.7198 58.0556 23.7657 58.0556 27.5001L58.0556 28.8889Z" fill="rgb(151,151,151)" fill-opacity="0" fill-rule="evenodd" />
	</g>
</svg>
