<svg viewBox="0 0 24 24" xmlns="http://www.w3.org/2000/svg" xmlns:xlink="http://www.w3.org/1999/xlink" width="24.000000" height="24.000000" fill="none" customFrame="#000000">
	<defs>
		<clipPath id="clipPath_3">
			<rect width="19.999912" height="20.000002" x="2.000000" y="2.000000" fill="rgb(255,255,255)" />
		</clipPath>
		<radialGradient id="paint_radial_3" cx="0" cy="0" r="1" gradientUnits="userSpaceOnUse" gradientTransform="matrix(6.99992,-9.91541,13.6337,9.62489,16.1628,11.25)">
			<stop stop-color="rgb(103.159,153.773,255)" offset="0.0362472385" stop-opacity="1" />
			<stop stop-color="rgb(57,121,249)" offset="1" stop-opacity="1" />
		</radialGradient>
		<linearGradient id="paint_linear_3" x1="8.32808495" x2="8.32808495" y1="0" y2="1.9999758" gradientUnits="userSpaceOnUse">
			<stop stop-color="rgb(0,0,0)" offset="0" stop-opacity="1" />
			<stop stop-color="rgb(0,0,0)" offset="1" stop-opacity="0" />
		</linearGradient>
	</defs>
	<rect id="代码管理" width="24.000000" height="24.000000" x="0.000000" y="0.000000" />
	<g id="组合 1959">
		<rect id="矩形 989" width="24.000000" height="24.000000" x="0.000000" y="0.000000" opacity="0" fill="rgb(196,196,196)" />
		<g id="代码管理" customFrame="url(#clipPath_3)">
			<rect id="代码管理" width="19.999912" height="20.000002" x="2.000000" y="2.000000" fill="rgb(255,255,255)" fill-opacity="0" />
			<rect id="代码管理" width="19.999912" height="20.000002" x="2.000000" y="2.000000" fill="rgb(0,0,0)" fill-opacity="0" />
			<rect id="代码管理" width="19.999912" height="20.000002" x="2.000000" y="2.000000" stroke="rgb(201.438,201.294,201.496)" stroke-opacity="0" stroke-width="0.487802804" />
			<path id="矩形 1718" d="M6.16891 2.83008L17.8353 2.83008C19.2162 2.83008 20.3352 3.94994 20.3352 5.33005L20.3352 8.24994C20.3352 8.47991 20.1487 8.66497 19.9187 8.66497L4.08544 8.66497C3.85544 8.66497 3.66895 8.47991 3.66895 8.24994L3.66895 5.33005C3.66895 3.94994 4.78792 2.83008 6.16891 2.83008Z" fill="rgb(9,80,222)" fill-rule="evenodd" />
			<path id="矩形 1717" d="M3.25146 7.83008L20.7518 7.83008C20.9817 7.83008 21.1682 8.02002 21.1682 8.25L21.1682 18.6649C21.1682 20.0448 20.0488 21.1649 18.6683 21.1649L5.33493 21.1649C3.95445 21.1649 2.83496 20.0448 2.83496 18.6649L2.83496 8.25C2.83496 8.02002 3.02148 7.83008 3.25146 7.83008Z" fill="url(#paint_radial_3)" fill-rule="evenodd" />
			<g id="组合 2968">
				<path id="矩形 1719" d="M3.33332 4.16665L0.83333 4.16665C0.277777 4.16665 0 3.88887 0 3.33332L0 0.83333L1.66666 0.83333L1.66666 3.33332L0.83333 3.33332L0.83333 2.49999L3.33332 2.49999L3.33332 4.16665ZM0 0.83333C0 0.366666 0.366666 0 0.83333 0C1.29999 0 1.66666 0.366666 1.66666 0.83333L0 0.83333ZM3.33332 2.49999C3.79999 2.49999 4.16665 2.86666 4.16665 3.33332C4.16665 3.79999 3.79999 4.16665 3.33332 4.16665L3.33332 2.49999Z" fill="rgb(0,0,0)" fill-opacity="0.200000003" fill-rule="nonzero" transform="matrix(0.707107,0.707107,-0.707107,0.707107,7.7666,12.3516)" />
				<path id="矩形 1720" d="M3.33332 4.16665L0.83333 4.16665C0.277777 4.16665 0 3.88887 0 3.33332L0 0.83333L1.66666 0.83333L1.66666 3.33332L0.83333 3.33332L0.83333 2.49999L3.33332 2.49999L3.33332 4.16665ZM0 0.83333C0 0.366666 0.366666 0 0.83333 0C1.29999 0 1.66666 0.366666 1.66666 0.83333L0 0.83333ZM3.33332 2.49999C3.79999 2.49999 4.16665 2.86666 4.16665 3.33332C4.16665 3.79999 3.79999 4.16665 3.33332 4.16665L3.33332 2.49999Z" fill="rgb(0,0,0)" fill-opacity="0.200000003" fill-rule="nonzero" transform="matrix(-0.707107,0.707107,0.707107,0.707107,16.0984,12.3516)" />
				<path id="矩形 1721" d="M0.83333 0L5.83293 0L5.83293 1.66666L0.83333 1.66666L0.83333 0ZM0.83333 1.66666C0.366665 1.66666 0 1.29999 0 0.83333C0 0.366665 0.366665 0 0.83333 0L0.83333 1.66666ZM5.83293 0C6.29961 0 6.66626 0.366665 6.66626 0.83333C6.66626 1.29999 6.29961 1.66666 5.83293 1.66666L5.83293 0Z" fill="rgb(0,0,0)" fill-opacity="0.200000003" fill-rule="nonzero" transform="matrix(0.34143,-0.939907,-0.939907,-0.34143,11.5972,18.7679)" />
			</g>
			<g id="组合 2969">
				<path id="矩形 1719" d="M3.33332 4.16665L0.83333 4.16665C0.277777 4.16665 0 3.88887 0 3.33332L0 0.83333L1.66666 0.83333L1.66666 3.33332L0.83333 3.33332L0.83333 2.49999L3.33332 2.49999L3.33332 4.16665ZM0 0.83333C0 0.366666 0.366666 0 0.83333 0C1.29999 0 1.66666 0.366666 1.66666 0.83333L0 0.83333ZM3.33332 2.49999C3.79999 2.49999 4.16665 2.86666 4.16665 3.33332C4.16665 3.79999 3.79999 4.16665 3.33332 4.16665L3.33332 2.49999Z" fill="rgb(206,222,253)" fill-rule="nonzero" transform="matrix(0.707107,0.707107,-0.707107,0.707107,7.7666,11.3516)" />
				<path id="矩形 1720" d="M3.33332 4.16665L0.83333 4.16665C0.277777 4.16665 0 3.88887 0 3.33332L0 0.83333L1.66666 0.83333L1.66666 3.33332L0.83333 3.33332L0.83333 2.49999L3.33332 2.49999L3.33332 4.16665ZM0 0.83333C0 0.366666 0.366666 0 0.83333 0C1.29999 0 1.66666 0.366666 1.66666 0.83333L0 0.83333ZM3.33332 2.49999C3.79999 2.49999 4.16665 2.86666 4.16665 3.33332C4.16665 3.79999 3.79999 4.16665 3.33332 4.16665L3.33332 2.49999Z" fill="rgb(206,222,253)" fill-rule="nonzero" transform="matrix(-0.707107,0.707107,0.707107,0.707107,16.0984,11.3516)" />
				<path id="矩形 1721" d="M0.83333 0L5.83293 0L5.83293 1.66666L0.83333 1.66666L0.83333 0ZM0.83333 1.66666C0.366665 1.66666 0 1.29999 0 0.83333C0 0.366665 0.366665 0 0.83333 0L0.83333 1.66666ZM5.83293 0C6.29961 0 6.66626 0.366665 6.66626 0.83333C6.66626 1.29999 6.29961 1.66666 5.83293 1.66666L5.83293 0Z" fill="rgb(206,222,253)" fill-rule="nonzero" transform="matrix(0.34143,-0.939907,-0.939907,-0.34143,11.5972,17.7679)" />
			</g>
			<path id="直线 63" d="M10.335 5.33008L13.667 5.33008" stroke="rgb(206,222,253)" stroke-linecap="round" stroke-width="1.666659" />
			<rect id="矩形 1734" width="16.656172" height="1.999991" x="0.000000" y="0.000000" opacity="0.239999995" fill="url(#paint_linear_3)" transform="matrix(1,0,0,-1,3.67285,7.81055)" />
		</g>
	</g>
</svg>
