<svg viewBox="0 0 80 80" xmlns="http://www.w3.org/2000/svg" xmlns:xlink="http://www.w3.org/1999/xlink" width="80.000000" height="80.000000" fill="none">
	<rect id="代码" width="80.000000" height="80.000000" x="0.000000" y="0.000000" />
	<g id="ic_public_code_1_1">
		<path id="ic_public_code_2_0" d="M2.50911 39.9695C2.50911 34.111 2.48861 28.2525 2.50911 22.394C2.49733 19.5591 2.84577 16.7342 3.54606 13.9871C5.08098 8.17261 8.86848 4.72197 14.6772 3.38331C17.5897 2.75402 20.5645 2.45919 23.5439 2.50453C34.7785 2.50453 46.0141 2.50453 57.2506 2.50453C60.0884 2.48692 62.918 2.81148 65.678 3.47118C71.6625 4.9358 75.2537 8.72623 76.6217 14.6902C77.2367 17.5088 77.5305 20.388 77.4975 23.2728C77.4975 34.6285 77.4975 45.9851 77.4975 57.3428C77.5128 60.1532 77.1893 62.9552 76.5338 65.6882C75.0692 71.6755 71.2612 75.2492 65.2972 76.6171C62.3843 77.244 59.4098 77.5388 56.4305 77.4959C45.2427 77.4959 34.056 77.4959 22.8702 77.4959C20.0108 77.5192 17.1588 77.1996 14.3754 76.5439C8.36465 75.0793 4.75584 71.2713 3.39081 65.2781C2.69366 62.2317 2.50911 59.1765 2.50911 56.0949C2.50911 50.7207 2.50911 45.3456 2.50911 39.9695Z" fill="rgb(255,255,255)" fill-opacity="0" fill-rule="nonzero" />
		<path id="ic_public_code_2_0" d="M2.50911 22.394C2.49733 19.5591 2.84577 16.7342 3.54606 13.9871C5.08098 8.17261 8.86848 4.72197 14.6772 3.38331C17.5897 2.75402 20.5645 2.45919 23.5439 2.50453C34.7785 2.50453 46.0141 2.50453 57.2506 2.50453C60.0884 2.48692 62.918 2.81148 65.678 3.47118C71.6625 4.9358 75.2537 8.72623 76.6217 14.6902C77.2367 17.5088 77.5305 20.388 77.4975 23.2728C77.4975 34.6285 77.4975 45.9851 77.4975 57.3428C77.5128 60.1532 77.1893 62.9552 76.5338 65.6882C75.0692 71.6755 71.2612 75.2492 65.2972 76.6171C62.3843 77.244 59.4098 77.5388 56.4305 77.4959C45.2427 77.4959 34.056 77.4959 22.8702 77.4959C20.0108 77.5192 17.1588 77.1996 14.3754 76.5439C8.36465 75.0793 4.75584 71.2713 3.39081 65.2781C2.69366 62.2317 2.50911 59.1765 2.50911 56.0949C2.50911 50.7207 2.50911 45.3456 2.50911 39.9695C2.50911 34.111 2.48861 28.2525 2.50911 22.394Z" fill-rule="nonzero" stroke="rgb(255,255,255)" stroke-opacity="0" stroke-width="3" />
		<path id="ic_public_code_2_1" d="M2.50911 22.394C2.49733 19.5591 2.84577 16.7342 3.54606 13.9871C5.08098 8.17261 8.86848 4.72197 14.6772 3.38331C17.5897 2.75402 20.5645 2.45919 23.5439 2.50453C34.7785 2.50453 46.0141 2.50453 57.2506 2.50453C60.0884 2.48692 62.918 2.81148 65.678 3.47118C71.6625 4.9358 75.2537 8.72623 76.6217 14.6902C77.2367 17.5088 77.5305 20.388 77.4975 23.2728C77.4975 34.6285 77.4975 45.9851 77.4975 57.3428C77.5128 60.1532 77.1893 62.9552 76.5338 65.6882C75.0692 71.6755 71.2612 75.2492 65.2972 76.6171C62.3843 77.244 59.4098 77.5388 56.4305 77.4959C45.2427 77.4959 34.056 77.4959 22.8702 77.4959C20.0108 77.5192 17.1588 77.1996 14.3754 76.5439C8.36465 75.0793 4.75584 71.2713 3.39081 65.2781C2.69366 62.2317 2.50911 59.1765 2.50911 56.0949C2.50911 50.7207 2.50911 45.3456 2.50911 39.9695C2.50911 34.111 2.48861 28.2525 2.50911 22.394Z" opacity="0.200000003" fill-rule="nonzero" stroke="rgb(255,255,255)" stroke-opacity="0" stroke-width="3" />
		<circle id="ic_public_code_2_2" cx="40" cy="40" r="40" fill="rgb(255,255,255)" fill-opacity="0" />
		<path id="ic_public_code_2_3" d="M56.6667 21.6667L71.4681 36.4649C73.4217 38.4165 73.4221 41.5823 71.4697 43.5352C71.4694 43.5354 71.4692 43.5357 71.4681 43.5352L56.6667 58.3334M23.3374 21.6667L8.53596 36.4649C6.58236 38.4165 6.58201 41.5823 8.53442 43.5352C8.53467 43.5354 8.53493 43.5357 8.53596 43.5352L23.3374 58.3334" fill-rule="evenodd" stroke="rgb(0,0,0)" stroke-linecap="round" stroke-linejoin="round" stroke-width="3" />
		<path id="ic_public_code_2_4" d="M55.4881 20.4883C56.1389 19.8373 57.1941 19.8372 57.8451 20.488L72.646 35.2857C75.251 37.8881 75.2517 42.1095 72.6483 44.7135L57.8451 59.512C57.2442 60.1127 56.2988 60.1588 55.645 59.6504L55.4881 59.5117C54.8373 58.8608 54.8374 57.8055 55.4883 57.1547L70.2897 42.3565L70.305 42.3417L70.4857 42.1447C71.5277 40.9078 71.5273 39.0918 70.4846 37.8554L70.2897 37.6435L55.4883 22.8453C54.8374 22.1945 54.8373 21.1392 55.4881 20.4883ZM22.159 20.488C22.8099 19.8372 23.8652 19.8373 24.516 20.4883C25.1668 21.1392 25.1667 22.1945 24.5158 22.8453L9.71387 37.644C8.41183 38.9447 8.41144 41.0549 9.71304 42.3568L9.6967 42.3417L9.71433 42.3565L24.5158 57.1547C25.1667 57.8055 25.1668 58.8608 24.516 59.5117C23.8652 60.1627 22.8099 60.1628 22.159 59.512L7.36003 44.7167C4.8391 42.1963 4.75594 38.1677 7.1058 35.5517L7.35757 35.2862L22.159 20.488Z" fill="rgb(255,255,255)" fill-opacity="0" fill-rule="nonzero" />
		<path id="ic_public_code_2_4" d="M57.8451 20.488L72.646 35.2857C75.251 37.8881 75.2517 42.1095 72.6483 44.7135L57.8451 59.512C57.2442 60.1127 56.2988 60.1588 55.645 59.6504L55.4881 59.5117C54.8373 58.8608 54.8374 57.8055 55.4883 57.1547L70.2897 42.3565L70.305 42.3417L70.4857 42.1447C71.5277 40.9078 71.5273 39.0918 70.4846 37.8554L70.2897 37.6435L55.4883 22.8453C54.8374 22.1945 54.8373 21.1392 55.4881 20.4883C56.1389 19.8373 57.1941 19.8372 57.8451 20.488ZM24.516 20.4883C25.1668 21.1392 25.1667 22.1945 24.5158 22.8453L9.71387 37.644C8.41183 38.9447 8.41144 41.0549 9.71304 42.3568L9.6967 42.3417L9.71433 42.3565L24.5158 57.1547C25.1667 57.8055 25.1668 58.8608 24.516 59.5117C23.8652 60.1627 22.8099 60.1628 22.159 59.512L7.36003 44.7167C4.8391 42.1963 4.75594 38.1677 7.1058 35.5517L7.35757 35.2862L22.159 20.488C22.8099 19.8372 23.8652 19.8373 24.516 20.4883Z" fill-rule="nonzero" stroke="rgb(255,255,255)" stroke-opacity="0" stroke-linejoin="round" stroke-width="3" />
		<line id="ic_public_code_2_5" x1="4.04111972e-07" x2="37.1184196" y1="0" y2="0" stroke="rgb(0,0,0)" stroke-linecap="round" stroke-linejoin="round" stroke-width="3" transform="matrix(0.359211,-0.933256,0.933256,0.359211,33.3334,57.3205)" />
		<path id="ic_public_code_2_6" d="M38.0743 0.0205262C38.9836 -0.122649 39.8368 0.498397 39.98 1.40767C40.1231 2.31694 39.5021 3.17011 38.5928 3.31329L1.92615 9.08679C1.01687 9.22996 0.1637 8.60892 0.0205263 7.69965C-0.122647 6.79038 0.498398 5.9372 1.40767 5.79402L38.0743 0.0205262Z" fill="rgb(255,255,255)" fill-opacity="0" fill-rule="nonzero" transform="matrix(0.5,-0.866025,0.866025,0.5,26.0563,55.0439)" />
		<path id="ic_public_code_2_6" d="M39.98 1.40767C40.1231 2.31694 39.5021 3.17011 38.5928 3.31329L1.92615 9.08679C1.01687 9.22996 0.1637 8.60892 0.0205263 7.69965C-0.122647 6.79038 0.498398 5.9372 1.40767 5.79402L38.0743 0.0205262C38.9836 -0.122649 39.8368 0.498397 39.98 1.40767Z" fill-rule="nonzero" stroke="rgb(255,255,255)" stroke-opacity="0" stroke-width="3" transform="matrix(0.5,-0.866025,0.866025,0.5,26.0563,55.0439)" />
	</g>
</svg>
