<svg viewBox="0 0 80 80" xmlns="http://www.w3.org/2000/svg" xmlns:xlink="http://www.w3.org/1999/xlink" width="80.000000" height="80.000000" fill="none" customFrame="#000000">
	<rect id="common_chatpush_line" width="80.000000" height="80.000000" x="0.000000" y="0.000000" fill="rgb(51,51,51)" fill-opacity="0" />
	<path id="合并" d="M34.9999 10C34.9999 10.2209 35.0142 10.4385 35.0434 10.6513C34.0563 10.8908 33.4283 11.1047 33.4283 11.1047C25.6107 13.8232 19.9998 21.2563 19.9998 30L19.9998 46.0623C19.9998 48.9816 18.7241 51.7551 16.5077 53.6549L10.6664 58.6617C10.2337 59.2387 9.99976 59.9404 9.99976 60.6617C9.99976 62.5026 11.4921 63.995 13.3331 63.995L29.0131 63.995C29.0429 64.61 29.1228 65.214 29.2528 65.8069C29.3961 66.4603 29.6003 67.1004 29.8654 67.7271C30.1308 68.3545 30.4481 68.9475 30.8173 69.5063C31.2228 70.1198 31.6909 70.692 32.2217 71.2227C32.7524 71.7534 33.3246 72.2216 33.9381 72.627C34.4968 72.9963 35.0899 73.3136 35.7173 73.579C36.344 73.8441 36.9841 74.0483 37.6375 74.1916C38.4065 74.3602 39.1939 74.4445 39.9998 74.4445C40.8058 74.4445 41.5933 74.3602 42.3623 74.1915C43.0157 74.0482 43.6557 73.8441 44.2824 73.579C44.9098 73.3136 45.5029 72.9963 46.0616 72.627C46.6751 72.2216 47.2473 71.7535 47.778 71.2227C48.3088 70.692 48.7769 70.1198 49.1824 69.5063C49.5516 68.9475 49.8689 68.3545 50.1343 67.7271C50.3994 67.1003 50.6036 66.4603 50.7469 65.8069C50.8769 65.2139 50.9568 64.61 50.9866 63.995L66.6664 63.995C67.3877 63.995 68.0894 63.7611 68.6664 63.3283C70.1392 62.2238 70.4377 60.1344 69.3331 58.6617L63.4918 53.6549C61.2754 51.7551 59.9998 48.9816 59.9998 46.0623L59.9998 30C59.9998 21.2563 54.3888 13.8232 46.5751 11.1062C46.5751 11.1062 45.9462 10.8916 44.9578 10.6514C44.9855 10.4382 44.9999 10.2208 44.9999 10C44.9999 7.23858 42.7613 5 39.9998 5C37.2384 5 34.9999 7.23858 34.9999 10ZM34.3652 63.995L45.6345 63.995C45.6099 64.2579 45.5709 64.5198 45.5177 64.7464C45.4455 65.0536 45.347 65.3546 45.2223 65.6494C45.092 65.9576 44.9371 66.2498 44.7578 66.5261Q44.4351 67.0231 44.0068 67.4515C43.7212 67.7371 43.4127 67.9874 43.0813 68.2025C42.805 68.3819 42.5128 68.5367 42.2048 68.667C41.9099 68.7917 41.6089 68.8901 41.3017 68.9623C40.8794 69.0616 40.4455 69.1112 39.9998 69.1112C39.5543 69.1112 39.1203 69.0616 38.698 68.9623C38.3908 68.8902 38.0898 68.7917 37.7949 68.667C37.4868 68.5367 37.1946 68.3818 36.9183 68.2025C36.587 67.9874 36.2785 67.7371 35.9929 67.4515C35.7073 67.1659 35.457 66.8574 35.2419 66.526C35.0625 66.2497 34.9077 65.9576 34.7774 65.6494C34.6527 65.3546 34.5542 65.0536 34.482 64.7464C34.4288 64.5198 34.3898 64.2579 34.3652 63.995ZM20.6595 57.995L59.3401 57.995Q56.731 55.6801 55.3966 52.7788C54.4654 50.7541 53.9998 48.5153 53.9998 46.0623L53.9998 30C53.9998 26.6564 53.2084 23.8796 51.6257 21.6693C50.0654 19.4904 47.7359 17.8621 44.6374 16.7847C43.3057 16.3303 41.9653 16.0732 40.6162 16.0135C40.412 16.0044 40.2076 15.9999 40.003 15.9999C39.5833 15.9999 39.1652 16.0186 38.7488 16.056Q37.0554 16.2079 35.399 16.7718Q30.7053 18.404 28.3555 21.7048Q25.9998 25.0139 25.9998 30L25.9998 46.0623C25.9998 48.5153 25.5341 50.7541 24.6029 52.7788C23.7133 54.713 22.3988 56.4517 20.6595 57.995Z" fill="rgb(51,51,51)" fill-rule="evenodd" />
</svg>
