<svg viewBox="0 0 24 24" xmlns="http://www.w3.org/2000/svg" xmlns:xlink="http://www.w3.org/1999/xlink" width="24.000000" height="24.000000" fill="none" customFrame="#000000">
	<mask id="mask_0" width="19.833925" height="10.818640" x="2.107422" y="8.797852" maskUnits="userSpaceOnUse">
		<g filter="url(#pixso_custom_mask_type_alpha)">
			<g id="mask_0">
				<g id="g">
					<path id="矩形 1809" d="M3.30519 14.7196L11.7216 8.89243C11.9037 8.76633 12.145 8.76633 12.3272 8.89243L20.7436 14.7196C20.8527 14.7951 20.9296 14.9087 20.9593 15.0381L21.9345 19.2909C21.977 19.4767 21.8162 19.6456 21.6286 19.6122L12.1176 17.9196C12.0559 17.9086 11.9928 17.9086 11.9312 17.9196L2.42017 19.6122C2.23256 19.6456 2.07174 19.4767 2.11433 19.2909L3.08951 15.0381C3.11916 14.9087 3.19609 14.7951 3.30519 14.7196Z" fill="rgb(16,117,163)" fill-rule="evenodd" />
				</g>
			</g>
		</g>
	</mask>
	<defs>
		<clipPath id="clipPath_4">
			<rect width="19.999756" height="19.999758" x="2.000000" y="2.000000" fill="rgb(255,255,255)" />
		</clipPath>
		<filter id="pixso_custom_mask_type_alpha">
			<feColorMatrix type="matrix" values="0 0 0 0 1 0 0 0 0 1 0 0 0 0 1 0 0 0 1 0 " />
		</filter>
		<linearGradient id="paint_linear_4" x1="5.07272148" x2="6.31718302" y1="1.03904796" y2="5.37053967" gradientUnits="userSpaceOnUse">
			<stop stop-color="rgb(0,0,0)" offset="0" stop-opacity="1" />
			<stop stop-color="rgb(0,0,0)" offset="1" stop-opacity="0" />
		</linearGradient>
		<linearGradient id="paint_linear_5" x1="4.2557478" x2="4.62988901" y1="3.14497948" y2="6.61613083" gradientUnits="userSpaceOnUse">
			<stop stop-color="rgb(0,0,0)" offset="0" stop-opacity="1" />
			<stop stop-color="rgb(0,0,0)" offset="1" stop-opacity="0" />
		</linearGradient>
		<radialGradient id="paint_radial_4" cx="0" cy="0" r="1" gradientUnits="userSpaceOnUse" gradientTransform="matrix(3.81501,-7.89155,9.63423,4.65747,14.3473,6.73494)">
			<stop stop-color="rgb(51,188,242)" offset="0" stop-opacity="1" />
			<stop stop-color="rgb(2.99605,158.44,219.71)" offset="1" stop-opacity="1" />
		</radialGradient>
	</defs>
	<rect id="持续交付" width="24.000000" height="24.000000" x="0.000000" y="0.000000" />
	<g id="组合 1955">
		<rect id="矩形 992" width="24.000000" height="24.000000" x="0.000000" y="0.000000" opacity="0" fill="rgb(196,196,196)" />
		<g id="持续交付" customFrame="url(#clipPath_4)">
			<rect id="持续交付" width="19.999756" height="19.999758" x="2.000000" y="2.000000" fill="rgb(255,255,255)" fill-opacity="0" />
			<rect id="持续交付" width="19.999756" height="19.999758" x="2.000000" y="2.000000" fill="rgb(0,0,0)" fill-opacity="0" />
			<rect id="持续交付" width="19.999756" height="19.999758" x="2.000000" y="2.000000" stroke="rgb(183,183,183)" stroke-opacity="0" stroke-width="0.487798959" />
			<g id="组合 3909">
				<path id="矩形 1809" d="M3.30519 14.7196L11.7216 8.89243C11.9037 8.76633 12.145 8.76633 12.3272 8.89243L20.7436 14.7196C20.8527 14.7951 20.9296 14.9087 20.9593 15.0381L21.9345 19.2909C21.977 19.4767 21.8162 19.6456 21.6286 19.6122L12.1176 17.9196C12.0559 17.9086 11.9928 17.9086 11.9312 17.9196L2.42017 19.6122C2.23256 19.6456 2.07174 19.4767 2.11433 19.2909L3.08951 15.0381C3.11916 14.9087 3.19609 14.7951 3.30519 14.7196Z" fill="rgb(16,117,163)" fill-rule="evenodd" />
				<g id="mask" mask="url(#mask_0)">
					<g id="蒙版">
						<path id="矩形 1731" d="M0 0L8.51115 0L8.51115 5.38724L0 5.38724L0 0Z" opacity="0.209999993" fill="url(#paint_linear_4)" fill-rule="evenodd" transform="matrix(0.059544,0.998226,-0.998226,0.059544,8.33398,11.2109)" />
						<path id="矩形 1810" d="M0 0L8.51115 0L8.51115 6.29057L0 6.29057L0 0Z" opacity="0.209999993" fill="url(#paint_linear_5)" fill-rule="evenodd" transform="matrix(-0.0700296,0.997545,0.997545,0.0700296,14.5312,11.0059)" />
					</g>
				</g>
				<path id="合并" d="M11.8857 2C13.0009 2 17.9432 5.46053 18.7371 8.80937C18.7459 8.84727 18.7498 8.88607 18.7498 8.92502C18.7498 8.94592 18.7488 8.96672 18.7488 8.98746C18.7401 9.54571 18.6727 10.0746 18.5545 10.572L17.6053 18.277C17.5887 18.4103 17.4755 18.5103 17.3417 18.5103L6.65918 18.5103C6.52438 18.5103 6.41112 18.4103 6.3955 18.277L5.45898 10.6854C5.33105 10.1551 5.25976 9.58831 5.25097 8.98746C5.25097 8.96032 5.25 8.93302 5.25 8.90572C5.25 8.87797 5.26265 8.81377 5.26265 8.78622C5.82897 5.4446 10.7731 2 11.8857 2Z" fill="url(#paint_radial_4)" fill-rule="evenodd" />
			</g>
			<g id="组合 3917">
				<path id="多边形 9" d="M2.30277 0.031324L4.43266 2.28568C4.49291 2.34944 4.4477 2.45435 4.35997 2.45435L0.100197 2.45435C0.0124697 2.45435 -0.0327377 2.34944 0.0275095 2.28568L2.1574 0.031324C2.19686 -0.0104413 2.26331 -0.0104413 2.30277 0.031324Z" fill="rgb(16,117,163)" fill-rule="evenodd" transform="matrix(-1,0,0,-1,14.2305,21.9528)" />
				<path id="多边形 10" d="M1.42055 0.0316988L2.66786 1.36558C2.72761 1.42948 2.6823 1.53388 2.59482 1.53388L0.100197 1.53388C0.0127149 1.53388 -0.0325941 1.42948 0.0271567 1.36558L1.27447 0.0316988C1.31399 -0.0105663 1.38103 -0.0105663 1.42055 0.0316988Z" fill="rgb(16,117,163)" fill-rule="evenodd" transform="matrix(-1,0,0,-1,10.075,21.0355)" />
				<path id="多边形 11" d="M1.42055 0.0316988L2.66786 1.36558C2.72761 1.42948 2.6823 1.53388 2.59482 1.53388L0.100197 1.53388C0.0127149 1.53388 -0.0325941 1.42948 0.0271567 1.36558L1.27447 0.0316988C1.31399 -0.0105663 1.38103 -0.0105663 1.42055 0.0316988Z" fill="rgb(16,117,163)" fill-rule="evenodd" transform="matrix(-1,0,0,-1,16.6198,21.0355)" />
			</g>
			<circle id="椭圆 205" cx="11.9999695" cy="9.24996948" r="2.49996948" fill="rgb(0,0,0)" fill-opacity="0.156862751" />
			<circle id="椭圆 206" cx="11.9999695" cy="8.24996948" r="2.49996948" fill="rgb(214,246,255)" />
			<g id="组合 3918">
				<circle id="椭圆 208" cx="11.9999943" cy="16.4999943" r="0.499993891" fill="rgb(165,230,250)" />
				<circle id="椭圆 210" cx="14.4997501" cy="16.4999943" r="0.499993891" fill="rgb(165,230,250)" />
				<circle id="椭圆 209" cx="9.49999428" cy="16.4999943" r="0.499993891" fill="rgb(165,230,250)" />
			</g>
		</g>
	</g>
</svg>
