<svg viewBox="0 0 80 80" xmlns="http://www.w3.org/2000/svg" xmlns:xlink="http://www.w3.org/1999/xlink" width="80.000000" height="80.000000" fill="none" customFrame="#000000">
	<rect id="项目首字母图标/D-48px*48px" width="80.000000" height="80.000000" x="0.000000" y="0.000000" />
	<rect id="矩形" width="80.000000" height="80.000000" x="0.000000" y="0.000000" opacity="0" fill="rgb(216,216,216)" />
	<rect id="矩形" width="77.000000" height="77.000000" x="1.500000" y="1.500000" opacity="0" stroke="rgb(151,151,151)" stroke-opacity="0" stroke-width="3" />
	<g id="d">
		<rect id="Rectangle" width="13.888888" height="55.555553" x="13.610840" y="12.222168" fill="rgb(178,126,245)" />
		<rect id="Rectangle" width="2.777778" height="36.111111" x="19.166626" y="17.777832" fill="rgb(255,255,255)" />
		<rect id="Rectangle" width="-0.222222" height="33.111111" x="20.666626" y="19.277832" stroke="rgb(151,151,151)" stroke-opacity="0" stroke-width="3" />
		<rect id="Rectangle" width="9.722222" height="13.888888" x="17.777466" y="53.888916" fill="rgb(84,59,186)" />
		<rect id="Rectangle" width="4.166667" height="27.777777" x="13.610840" y="40.000000" fill="rgb(255,143,206)" />
		<rect id="Rectangle" width="4.166667" height="27.777777" x="9.444214" y="40.000000" fill="rgb(135,214,220)" />
		<rect id="Rectangle" width="1.166667" height="24.777777" x="10.944214" y="41.500000" stroke="rgb(151,151,151)" stroke-opacity="0" stroke-width="3" />
		<path id="Path" d="M42.7778 12.2222C58.119 12.2222 70.5556 24.6587 70.5556 39.9999C70.5556 55.1814 58.3768 67.5183 43.2562 67.7737L42.7778 67.7777L27.5 67.7777L27.5 53.8888L42.7778 53.8888C50.4484 53.8888 56.6667 47.6706 56.6667 39.9999C56.6667 32.4593 50.6574 26.3223 43.1665 26.1164L42.7778 26.1111L33.0556 26.1111L33.0556 12.2222L42.7778 12.2222Z" fill="rgb(218,95,95)" fill-rule="evenodd" />
		<path id="Path" d="M42.7778 17.7778C55.0508 17.7778 65 27.7271 65 40.0001C65 52.1269 55.2862 61.9851 43.2151 62.2181L42.7778 62.2223L27.5 62.2223L27.5 59.4445L42.7778 59.4445C53.5166 59.4445 62.2222 50.7389 62.2222 40.0001C62.2222 29.4063 53.7503 20.7913 43.212 20.5604L42.7778 20.5556L38.6111 20.5556L38.6111 17.7778L42.7778 17.7778Z" fill="rgb(255,255,255)" fill-rule="evenodd" />
		<path id="Path" d="M27.5 59.4445L27.5 62.2223L42.7778 62.2223L43.2151 62.2181C55.2862 61.9851 65 52.1269 65 40.0001C65 27.7271 55.0508 17.7778 42.7778 17.7778L38.6111 17.7778L38.6111 20.5556L42.7778 20.5556L43.212 20.5604C53.7503 20.7913 62.2222 29.4063 62.2222 40.0001C62.2222 50.7389 53.5166 59.4445 42.7778 59.4445L27.5 59.4445Z" fill="rgb(151,151,151)" fill-opacity="0" fill-rule="evenodd" />
		<rect id="Rectangle" width="20.833332" height="2.777778" x="6.666626" y="59.444336" fill="rgb(234,216,131)" />
	</g>
</svg>
