<svg viewBox="0 0 24 24" xmlns="http://www.w3.org/2000/svg" xmlns:xlink="http://www.w3.org/1999/xlink" width="24.000000" height="24.000000" fill="none">
	<defs>
		<clipPath id="clipPath_0">
			<rect width="19.999912" height="20.000002" x="2.000000" y="2.000000" fill="rgb(255,255,255)" />
		</clipPath>
		<linearGradient id="paint_linear_0" x1="11.9986992" x2="11.9986992" y1="17" y2="18.9999752" gradientUnits="userSpaceOnUse">
			<stop stop-color="rgb(0,0,0)" offset="0" stop-opacity="1" />
			<stop stop-color="rgb(0,0,0)" offset="1" stop-opacity="0" />
		</linearGradient>
		<radialGradient id="paint_radial_0" cx="0" cy="0" r="1" gradientUnits="userSpaceOnUse" gradientTransform="matrix(5.16524,-10.4987,13.5866,6.68445,17.1639,6.49996)">
			<stop stop-color="rgb(204.836,135.376,234.509)" offset="0" stop-opacity="1" />
			<stop stop-color="rgb(186,83,230)" offset="1" stop-opacity="1" />
		</radialGradient>
	</defs>
	<rect id="仪表盘" width="24.000000" height="24.000000" x="0.000000" y="0.000000" />
	<rect id="矩形 987" width="24.000000" height="24.000000" x="0.000000" y="0.000000" opacity="0" fill="rgb(255,254.866,254.745)" />
	<g id="仪表盘" customFrame="url(#clipPath_0)">
		<rect id="仪表盘" width="19.999912" height="20.000002" x="2.000000" y="2.000000" fill="rgb(255,255,255)" fill-opacity="0" />
		<rect id="仪表盘" width="19.999912" height="20.000002" x="2.000000" y="2.000000" fill="rgb(0,0,0)" fill-opacity="0" />
		<rect id="仪表盘" width="19.999912" height="20.000002" x="2.000000" y="2.000000" stroke="rgb(201.438,201.294,201.496)" stroke-opacity="0" stroke-width="0.487802804" />
		<path id="矢量 402" d="M17.7258 19.5349L16.2598 16.75L7.74639 16.75L6.2819 19.5349C5.77791 20.2099 6.25741 21.165 7.09639 21.165L16.9108 21.165C17.7503 21.165 18.2293 20.2099 17.7258 19.5349Z" fill="rgb(107,16,145)" fill-rule="evenodd" />
		<path id="矩形 1733" d="M7.60367 17L16.3926 17L17.4426 19L6.55469 19L7.60367 17Z" opacity="0.230000004" fill="url(#paint_linear_0)" fill-rule="evenodd" />
		<path id="矩形 1129" d="M5.332 2.83008L18.6653 2.83008C20.0463 2.83008 21.1653 3.94994 21.1653 5.33005L21.1653 14.4999C21.1653 15.8797 20.0463 16.9998 18.6653 16.9998L5.332 16.9998C3.95102 16.9998 2.83203 15.8797 2.83203 14.4999L2.83203 5.33005C2.83203 3.94994 3.95102 2.83008 5.332 2.83008Z" fill="url(#paint_radial_0)" fill-rule="evenodd" />
		<path id="矩形 1757" d="M0.279229 2.75082L3.05708 0.250829C3.4287 -0.0836165 3.80031 -0.0836115 4.17191 0.250854L6.94951 2.75084L6.39206 3.37018L5.83467 2.75082L8.61254 0.250829L9.72732 1.48954L6.94946 3.98953C6.57786 4.32398 6.20627 4.32397 5.83465 3.98951L3.05705 1.48952L3.61448 0.870187L4.17189 1.48954L1.39404 3.98953L0.279229 2.75082ZM8.61254 0.250829C8.95938 -0.0613168 9.47713 -0.0340571 9.78927 0.312784C10.1014 0.659622 10.0742 1.1774 9.72732 1.48954L8.61254 0.250829ZM1.39404 3.98953C1.0472 4.30168 0.529421 4.27442 0.217275 3.92758C-0.0948717 3.58074 -0.067612 3.06297 0.279229 2.75082L1.39404 3.98953Z" fill="rgb(0,0,0)" fill-opacity="0.200000003" fill-rule="nonzero" transform="matrix(-1,0,0,-1,17.0842,13.3701)" />
		<path id="矩形 1130" d="M0.279229 2.75082L3.05708 0.250829C3.4287 -0.0836165 3.80031 -0.0836115 4.17191 0.250854L6.94951 2.75084L6.39206 3.37018L5.83467 2.75082L8.61254 0.250829L9.72732 1.48954L6.94946 3.98953C6.57786 4.32398 6.20627 4.32397 5.83465 3.98951L3.05705 1.48952L3.61448 0.870187L4.17189 1.48954L1.39404 3.98953L0.279229 2.75082ZM8.61254 0.250829C8.95938 -0.0613168 9.47713 -0.0340571 9.78927 0.312784C10.1014 0.659622 10.0742 1.1774 9.72732 1.48954L8.61254 0.250829ZM1.39404 3.98953C1.0472 4.30168 0.529421 4.27442 0.217275 3.92758C-0.0948717 3.58074 -0.067612 3.06297 0.279229 2.75082L1.39404 3.98953Z" fill="rgb(244,224,252)" fill-rule="nonzero" transform="matrix(-1,0,0,-1,17.0042,12.04)" />
	</g>
</svg>
