<svg viewBox="0 0 80 80" xmlns="http://www.w3.org/2000/svg" xmlns:xlink="http://www.w3.org/1999/xlink" width="80.000000" height="80.000000" fill="none">
	<rect id="深度思考 1" width="80.000000" height="80.000000" x="0.000000" y="0.000000" />
	<rect id="操作图标/深度思考" width="80.000000" height="80.000000" x="0.000000" y="0.000000" />
	<g id="deepthinking">
		<path id="矢量 799" d="M40.0049 3.9082C41.4051 3.9082 42.5049 5.0082 42.5049 6.4082L42.5049 10.3144C42.5049 11.7144 41.4051 12.8144 40.0049 12.8144C38.6047 12.8144 37.5049 11.7144 37.5049 10.3144L37.5049 6.4082C37.5049 5.0082 38.6047 3.9082 40.0049 3.9082ZM14.4824 14.4798C15.4724 13.4898 17.0288 13.4898 18.0188 14.4798L20.78 17.2419C21.77 18.2319 21.77 19.7876 20.78 20.7776C19.79 21.7674 18.2349 21.7674 17.2449 20.7776L14.4824 18.0154C13.4924 17.0254 13.4924 15.4698 14.4824 14.4798ZM62.7649 20.7776L65.5273 18.0154C66.5173 17.0254 66.5173 15.4698 65.5273 14.4798C64.5373 13.4898 62.9822 13.4898 61.9922 14.4798L59.2298 17.2419C58.2398 18.2318 58.2398 19.7874 59.2298 20.7774C60.2198 21.7674 61.7749 21.7674 62.7649 20.7776ZM57.1204 56.122C56.0791 57.2167 54.928 58.2078 53.6693 59.0958L53.6669 65.2398C53.6669 65.5938 53.6316 65.94 53.5596 66.2787C53.4936 66.5876 53.3984 66.89 53.274 67.1862C53.1507 67.4762 53.0042 67.7502 52.832 68.008C52.6502 68.282 52.4402 68.5376 52.2033 68.7749C51.9653 69.012 51.7102 69.222 51.4367 69.404C51.178 69.5756 50.9044 69.7227 50.614 69.8453C50.3211 69.9698 50.0207 70.0647 49.7144 70.1302C49.3727 70.2029 49.0233 70.2393 48.6669 70.2393L31.3331 70.2393C30.9767 70.2393 30.6273 70.2031 30.2856 70.1302C29.9793 70.0647 29.6789 69.9698 29.386 69.8453C29.0956 69.7227 28.822 69.5758 28.5644 69.4044C28.2898 69.222 28.0347 69.0122 27.7967 68.7749C27.5598 68.5373 27.3498 68.2818 27.168 68.008C26.9958 67.7502 26.8493 67.4762 26.726 67.186C26.6029 66.8925 26.5076 66.5924 26.4416 66.2862C26.3696 65.9449 26.3331 65.596 26.3331 65.2391L26.3307 59.0958C25.0724 58.208 23.9222 57.2167 22.8796 56.1225C21.5686 54.746 20.4285 53.2053 19.4604 51.5025C18.4782 49.7747 17.7328 47.9822 17.2241 46.1249C16.6789 44.1325 16.4062 42.0651 16.4062 39.9233C16.4062 38.1867 16.5898 36.4907 16.9568 34.8353C17.2632 33.4504 17.699 32.094 18.2629 30.766C18.8184 29.4582 19.4788 28.2202 20.2466 27.0516C21.1304 25.7058 22.155 24.4524 23.3202 23.2913C24.4516 22.1643 25.6702 21.1694 26.9762 20.3068C28.1824 19.51 29.4629 18.8258 30.8178 18.2547C32.1302 17.7021 33.468 17.2735 34.8351 16.9688C36.5149 16.5942 38.2364 16.407 40 16.407C41.7636 16.407 43.4851 16.5942 45.1649 16.9688C46.532 17.2735 47.8698 17.7021 49.1809 18.2547C50.5371 18.826 51.8176 19.5098 53.0238 20.3067C54.3298 21.1694 55.5484 22.1643 56.6798 23.2913C57.8456 24.4522 58.8696 25.7058 59.7533 27.0513C60.5213 28.2198 61.1816 29.4582 61.7371 30.766C62.3011 32.0938 62.7364 33.45 63.0431 34.8349C63.4102 36.4904 63.5938 38.1867 63.5938 39.9233C63.5938 42.0653 63.3216 44.1329 62.7758 46.1256C62.2669 47.9827 61.5222 49.7749 60.5396 51.5025C59.5716 53.2056 58.4313 54.7456 57.1204 56.122ZM48.7476 57.1276C48.8004 56.9253 48.8789 56.73 48.9831 56.5413C49.1931 56.164 49.4811 55.8613 49.8473 55.6331C51.2158 54.7804 52.4378 53.7882 53.5131 52.6565C54.5411 51.5753 55.4333 50.3669 56.1938 49.0311C56.958 47.6867 57.5391 46.292 57.9382 44.8467C58.3753 43.266 58.5938 41.6249 58.5938 39.9233C58.5938 38.5256 58.4431 37.162 58.142 35.8327C57.9016 34.7733 57.566 33.7358 57.1351 32.7198C56.7064 31.7116 56.1987 30.7558 55.6104 29.8522C54.9049 28.7711 54.0858 27.7649 53.1507 26.8336C52.2498 25.9356 51.278 25.1438 50.2369 24.4589C49.2944 23.8396 48.296 23.3076 47.24 22.8624C46.2391 22.4404 45.2173 22.1104 44.1749 21.8719C42.8191 21.562 41.4267 21.407 40 21.407C38.5733 21.407 37.1822 21.562 35.8264 21.8719C34.7827 22.1102 33.7609 22.4404 32.76 22.8624C31.704 23.3076 30.7056 23.8396 29.7631 24.4589C28.7222 25.1438 27.7502 25.9358 26.8493 26.8336C25.9142 27.7649 25.0951 28.7711 24.3896 29.8522C23.8013 30.7558 23.2936 31.7116 22.8649 32.7198C22.434 33.7358 22.0984 34.7733 21.8579 35.8329C21.5568 37.1622 21.4062 38.5258 21.4062 39.9233C21.4062 41.6245 21.6244 43.2653 22.0606 44.846C22.4602 46.2916 23.042 47.6867 23.8062 49.0311C24.5667 50.3669 25.4589 51.5753 26.4869 52.6565C27.5622 53.7882 28.7842 54.7804 30.1527 55.6331C30.5189 55.8613 30.8069 56.164 31.0169 56.5413C31.2256 56.9185 31.3307 57.3229 31.3307 57.7542L31.3331 65.2393L48.6669 65.2384L48.6693 57.7544C48.6693 57.5387 48.6956 57.3296 48.7476 57.1276ZM10.3174 37.502L6.41113 37.502C5.01098 37.502 3.91113 38.602 3.91113 40.002C3.91113 41.402 5.01098 42.502 6.41113 42.502L10.3174 42.502C11.7175 42.502 12.8174 41.402 12.8174 40.002C12.8174 38.602 11.7175 37.502 10.3174 37.502ZM73.5987 37.502L69.6925 37.502C68.2922 37.502 67.1924 38.602 67.1924 40.002C67.1924 41.402 68.2922 42.502 69.6925 42.502L73.5987 42.502C74.9989 42.502 76.0987 41.402 76.0987 40.002C76.0987 38.602 74.9989 37.502 73.5987 37.502ZM28.8307 72.038C27.4304 72.038 26.3307 73.138 26.3307 74.538C26.3307 75.938 27.4304 77.038 28.8307 77.038L51.1644 77.038C52.5647 77.038 53.6644 75.938 53.6644 74.538C53.6644 73.138 52.5647 72.038 51.1644 72.038L28.8307 72.038Z" fill="rgb(25,25,25)" fill-rule="nonzero" />
	</g>
</svg>
