<svg viewBox="0 0 75 75" xmlns="http://www.w3.org/2000/svg" xmlns:xlink="http://www.w3.org/1999/xlink" width="75.000000" height="75.000000" fill="none">
	<rect id="默项目" width="75.000000" height="75.000000" x="0.000000" y="0.000000" />
	<path id="path1" d="M-1.35633e-05 37.4687C-1.35633e-05 31.6093 -0.0156386 25.7499 -1.35633e-05 19.8905C-0.0156386 17.0468 0.343736 14.2187 1.03124 11.4843C2.57811 5.67179 6.35936 2.21867 12.1719 0.874916C15.0781 0.249916 18.0625 -0.0469587 21.0312 -8.37073e-05C32.2656 -8.37073e-05 43.5 -8.37073e-05 54.75 -8.37073e-05C57.5781 -0.0157087 60.4062 0.296791 63.1719 0.968666C69.1562 2.42179 72.75 6.21867 74.1094 12.1874C74.7344 14.9999 75.0156 17.8749 74.9844 20.7655C74.9844 32.1249 74.9844 43.4843 74.9844 54.828C75 57.6405 74.6875 60.453 74.0312 63.1874C72.5625 69.1718 68.75 72.7343 62.7969 74.1093C59.875 74.7343 56.9062 75.0312 53.9219 74.9843C42.7344 74.9843 31.5469 74.9843 20.3594 74.9843C17.5 75.0155 14.6562 74.6874 11.875 74.0312C5.85936 72.578 2.24999 68.7655 0.890611 62.7655C0.187486 59.7187 -1.35633e-05 56.6718 -1.35633e-05 53.5937C-1.35633e-05 48.2187 -1.35633e-05 42.8437 -1.35633e-05 37.4687Z" fill="rgb(255,255,255)" fill-opacity="0" fill-rule="evenodd" />
	<circle id="path2" cx="37.5" cy="37.5" r="37.5" fill="rgb(255,255,255)" fill-opacity="0" />
	<path id="path3" d="M69.5312 14.8438L69.5312 60.1562C69.5312 65.3281 65.3281 69.5312 60.1562 69.5312L14.8438 69.5312C9.65625 69.5312 5.46875 65.3281 5.46875 60.1562L5.46875 14.8438C5.46875 9.65625 9.65625 5.46875 14.8438 5.46875L60.1562 5.46875C65.3281 5.46875 69.5312 9.65625 69.5312 14.8438Z" fill-rule="nonzero" stroke="rgb(51,61,72)" stroke-width="3" />
	<path id="路径 4" d="M23.4375 37.5L60.9375 37.5" stroke="rgb(51,61,72)" stroke-linecap="round" stroke-linejoin="round" stroke-width="3" />
	<path id="路径 4" d="M14.0625 37.5L15.625 37.5" stroke="rgb(51,61,72)" stroke-linecap="round" stroke-linejoin="round" stroke-width="3" />
	<path id="路径 4" d="M23.4375 51.5625L60.9375 51.5625" stroke="rgb(51,61,72)" stroke-linecap="round" stroke-linejoin="round" stroke-width="3" />
	<path id="路径 4" d="M14.0625 51.5625L15.625 51.5625" stroke="rgb(51,61,72)" stroke-linecap="round" stroke-linejoin="round" stroke-width="3" />
	<path id="矢量 309" d="M5.46875 23.4375L69.5312 23.4375" stroke="rgb(51,61,72)" stroke-linecap="round" stroke-linejoin="round" stroke-width="3" />
	<path id="减去顶层" d="M60.1562 3.125L14.8438 3.125C8.37173 3.125 3.125 8.37164 3.125 14.8438L3.125 22.6562L71.875 22.6562L71.875 14.8438C71.875 8.37164 66.6283 3.125 60.1562 3.125ZM60.9375 10.5469L50 10.5469C48.6875 10.5469 47.6562 11.5781 47.6562 12.8906C47.6562 14.2031 48.6875 15.2344 50 15.2344L60.9375 15.2344C62.25 15.2344 63.2812 14.2031 63.2812 12.8906C63.2812 11.5781 62.25 10.5469 60.9375 10.5469Z" fill="rgb(51,61,72)" fill-opacity="0" fill-rule="evenodd" />
	<path id="减去顶层" d="M3.125 27.3438L71.875 27.3438L71.875 60.1562C71.875 66.6284 66.6283 71.875 60.1562 71.875L14.8438 71.875C8.37173 71.875 3.125 66.6284 3.125 60.1562L3.125 27.3438ZM15.625 36.7188L14.0625 36.7188C12.75 36.7188 11.7188 37.75 11.7188 39.0625C11.7188 40.375 12.75 41.4062 14.0625 41.4062L15.625 41.4062C16.9375 41.4062 17.9688 40.375 17.9688 39.0625C17.9688 37.75 16.9375 36.7188 15.625 36.7188ZM23.4375 36.7188L60.9375 36.7188C62.25 36.7188 63.2812 37.75 63.2812 39.0625C63.2812 40.375 62.25 41.4062 60.9375 41.4062L23.4375 41.4062C22.125 41.4062 21.0938 40.375 21.0938 39.0625C21.0938 37.75 22.125 36.7188 23.4375 36.7188ZM15.625 50.7812L14.0625 50.7812C12.75 50.7812 11.7188 51.8125 11.7188 53.125C11.7188 54.4375 12.75 55.4688 14.0625 55.4688L15.625 55.4688C16.9375 55.4688 17.9688 54.4375 17.9688 53.125C17.9688 51.8125 16.9375 50.7812 15.625 50.7812ZM23.4375 50.7812L60.9375 50.7812C62.25 50.7812 63.2812 51.8125 63.2812 53.125C63.2812 54.4375 62.25 55.4688 60.9375 55.4688L23.4375 55.4688C22.125 55.4688 21.0938 54.4375 21.0938 53.125C21.0938 51.8125 22.125 50.7812 23.4375 50.7812Z" fill="rgb(51,61,72)" fill-opacity="0" fill-rule="evenodd" />
</svg>
