<svg viewBox="0 0 14.9961 14.7858" xmlns="http://www.w3.org/2000/svg" xmlns:xlink="http://www.w3.org/1999/xlink" width="14.996094" height="14.785767" fill="none" customFrame="#000000">
	<rect id="缺陷" width="14.996094" height="14.785645" x="0.000000" y="0.000000" />
	<path id="矢量 741" d="M3.9532 3.96406C4.03718 3.98809 4.12478 4 4.2148 4L4.2148 3C4.2148 3.00391 4.24358 3.03613 4.24238 3.04004C4.28159 2.95215 4.324 2.86406 4.37119 2.77617C4.4784 2.57617 4.60918 2.38809 4.7636 2.21211C4.8104 2.15606 4.85918 2.1041 4.90999 2.05215C5.0896 1.86816 5.2928 1.70801 5.5156 1.56406C5.60159 1.51211 5.68919 1.46016 5.7792 1.41211C5.98999 1.3041 6.2128 1.21602 6.44519 1.14805C6.56238 1.11211 6.67998 1.08418 6.8 1.06406C7.02798 1.02012 7.25999 1 7.496 1C7.72798 1 7.95198 1.02012 8.176 1.06016C8.3 1.08418 8.424 1.11211 8.544 1.14805C8.776 1.21602 8.996 1.3 9.20398 1.40801C9.296 1.45606 9.38799 1.50801 9.47601 1.56406C9.7 1.70801 9.90398 1.87207 10.084 2.05606C10.132 2.1041 10.18 2.15606 10.228 2.21211C10.38 2.38809 10.512 2.58008 10.624 2.78008C10.664 2.85606 10.7 2.93613 10.736 3.01211L10.816 3.9961L10.892 3.98809C10.964 3.97598 11.08 3.95215 11.148 3.92402C11.216 3.8961 11.276 3.86016 11.34 3.81602C11.396 3.77617 11.444 3.72813 11.492 3.68008C11.54 3.62402 11.584 3.56406 11.62 3.5C11.66 3.43203 11.688 3.36406 11.708 3.28809C11.728 3.22402 11.74 3.16016 11.744 3.09219C11.744 3.06817 11.744 3.04004 11.744 3.01602C11.744 2.98008 11.744 2.94805 11.74 2.91211C11.728 2.82402 11.704 2.73203 11.664 2.64414C11.608 2.50801 11.544 2.38008 11.472 2.25215C11.332 2.0041 11.168 1.77207 10.984 1.55606C10.904 1.46406 10.824 1.38008 10.74 1.29609C10.516 1.08008 10.276 0.888086 10.008 0.720117C9.87998 0.640039 9.748 0.564063 9.616 0.496094C9.36399 0.37207 9.1 0.268164 8.824 0.188086C8.65999 0.140039 8.48799 0.1 8.32 0.0681641C8.048 0.0240234 7.776 0 7.496 0C7.23999 0 6.98666 0.0200521 6.73599 0.0601563C6.70933 0.0627604 6.684 0.0667318 6.65999 0.0720703C6.49199 0.1 6.32798 0.140039 6.16599 0.188086C5.8888 0.268164 5.62278 0.37207 5.36919 0.5C5.2364 0.568164 5.10559 0.640039 4.9804 0.720117C4.7148 0.888086 4.47239 1.08008 4.25398 1.29609C4.17639 1.3707 4.102 1.44805 4.03079 1.52813C3.84558 1.74414 3.66199 1.99609 3.5252 2.24004C3.4512 2.37207 3.38279 2.50801 3.32239 2.64805C3.28718 2.73203 3.2636 2.81602 3.25198 2.9041C3.24678 2.94004 3.24439 2.98008 3.24439 3.02012C3.24439 3.05606 3.24639 3.09219 3.25 3.13203C3.25759 3.2041 3.27319 3.27617 3.29678 3.34414C3.324 3.42012 3.35918 3.49219 3.40598 3.56406C3.4512 3.63203 3.50398 3.6961 3.56438 3.74805C3.61919 3.8 3.67759 3.84004 3.74199 3.87617C3.8104 3.91602 3.88079 3.94414 3.9532 3.96406ZM12.512 6.06817L14.444 4.78418C14.588 4.68418 14.668 4.52813 14.668 4.36817C14.668 4.27207 14.64 4.17617 14.58 4.08809C14.424 3.85606 14.12 3.7961 13.888 3.95215L11.94 5.24805C11.86 5.18008 11.78 5.11602 11.692 5.06016C11.58 4.98418 11.464 4.92012 11.34 4.86817C11.216 4.81602 11.092 4.78008 10.964 4.74805C10.812 4.71602 10.656 4.7 10.496 4.7L4.496 4.7C4.33198 4.7 4.172 4.71602 4.0156 4.75215C3.89238 4.78008 3.77158 4.82012 3.65239 4.86817C3.5272 4.92403 3.40798 4.98809 3.29678 5.06016C3.2116 5.11602 3.13079 5.18008 3.05359 5.24805L1.10918 3.95215C0.876783 3.7961 0.572388 3.85606 0.415991 4.09219C0.358399 4.17617 0.330786 4.27617 0.330786 4.37207C0.330786 4.53203 0.408789 4.68809 0.554785 4.78418L2.48079 6.06817C2.43919 6.17207 2.4064 6.27617 2.38279 6.38418C2.34758 6.54004 2.32998 6.7 2.32998 6.86817L2.32998 8.1961L0.5 8.1961C0.220801 8.1961 0 8.41602 0 8.6961C0 8.97618 0.220801 9.1961 0.5 9.1961L2.33799 9.1961C2.35398 9.54004 2.394 9.88008 2.45679 10.2121C2.53718 10.632 2.65598 11.0481 2.81238 11.4522C2.8584 11.5721 2.90759 11.6922 2.95999 11.8121L1.58399 12.5961C1.42039 12.6881 1.32959 12.8561 1.32959 13.0281C1.32959 13.1121 1.35198 13.2 1.39839 13.2801C1.53718 13.524 1.83599 13.6041 2.07998 13.4641L3.246 12.8L3.42959 12.6922C3.65159 13.0522 3.90798 13.3881 4.19519 13.708L4.42 13.9561C4.44519 13.9842 4.47439 14.008 4.50559 14.032C4.53919 14.0522 4.57239 14.0721 4.60918 14.0842C4.63679 14.0961 4.7148 14.1361 4.84158 14.2041C5.0096 14.2961 5.13479 14.3602 5.2208 14.4C5.37119 14.4682 5.50398 14.5121 5.61919 14.524C6.04678 14.6561 6.55479 14.7361 7.13999 14.7721C7.75999 14.8041 8.392 14.7801 9.03599 14.7C9.22798 14.6881 9.48399 14.608 9.80398 14.4641C10.16 14.3 10.412 14.1281 10.572 13.9522L10.796 13.708C11.08 13.3881 11.34 13.0481 11.564 12.6922L11.748 12.8L12.912 13.4641C13.156 13.6041 13.456 13.524 13.592 13.2801C13.64 13.2 13.664 13.1121 13.664 13.0281C13.664 12.8561 13.572 12.6922 13.408 12.5961L12.248 11.9281L12.032 11.808C12.084 11.6922 12.132 11.5721 12.18 11.4522C12.34 11.0361 12.464 10.608 12.544 10.1762C12.604 9.85215 12.64 9.52813 12.656 9.1961L14.496 9.1961C14.776 9.1961 14.996 8.97618 14.996 8.6961C14.996 8.41602 14.776 8.1961 14.496 8.1961L12.664 8.1961L12.664 6.86817C12.664 6.7041 12.648 6.54414 12.612 6.39219C12.588 6.28008 12.552 6.17617 12.512 6.06817ZM3.32998 8.85215L3.32998 6.86817C3.32998 6.76817 3.34158 6.67617 3.36318 6.58418C3.37879 6.52403 3.39839 6.46817 3.422 6.41211C3.4492 6.34414 3.4824 6.28418 3.52158 6.22403C3.56438 6.15606 3.61319 6.0961 3.67 6.04004C3.72639 5.98418 3.7888 5.93203 3.85359 5.88809C3.91199 5.85215 3.97439 5.82012 4.0408 5.79219C4.09758 5.76817 4.1544 5.74805 4.21279 5.73203C4.30479 5.71211 4.40039 5.7 4.496 5.7L10.496 5.7C10.588 5.7 10.68 5.70801 10.768 5.73203C10.832 5.74414 10.892 5.76406 10.952 5.79219C11.016 5.82012 11.08 5.85215 11.136 5.88809C11.2 5.93203 11.264 5.98418 11.324 6.04004C11.3827 6.09877 11.4333 6.16146 11.476 6.22813C11.512 6.28418 11.544 6.34805 11.572 6.41211C11.596 6.46817 11.616 6.52813 11.632 6.58809C11.652 6.68008 11.664 6.77207 11.664 6.86817L11.664 8.85215C11.664 9.24004 11.628 9.62012 11.56 9.99219C11.492 10.3641 11.388 10.732 11.248 11.0961C11.108 11.4522 10.94 11.7922 10.744 12.116C10.544 12.44 10.312 12.7481 10.052 13.0361L9.82798 13.2842C9.80398 13.3121 9.75198 13.3522 9.676 13.3961C9.592 13.4522 9.496 13.5041 9.38399 13.5522C9.27998 13.6041 9.17998 13.64 9.092 13.6682C9.05598 13.6801 9.02 13.6922 8.996 13.6961C8.98399 13.6961 8.944 13.7041 8.93199 13.7041C8.61599 13.7441 8.30398 13.7721 7.996 13.7801L7.996 10.2C7.996 9.92012 7.776 9.7 7.496 9.7C7.22 9.7 6.996 9.92012 6.996 10.2L6.996 13.7602C6.55879 13.724 6.18198 13.6561 5.86919 13.5561C5.84359 13.5481 5.81813 13.5428 5.7928 13.54C5.7772 13.5361 5.7616 13.5361 5.744 13.532C5.71841 13.524 5.67759 13.508 5.63679 13.4922C5.57239 13.4602 5.4668 13.408 5.32039 13.3281C5.2284 13.2801 5.1544 13.24 5.09158 13.208L4.9376 13.0361C4.67959 12.7522 4.4512 12.4481 4.25398 12.1281C4.05479 11.8 3.88479 11.4561 3.746 11.0961C3.61118 10.7441 3.5096 10.3922 3.44119 10.0281C3.36719 9.64414 3.32998 9.25215 3.32998 8.85215Z" fill="rgb(25,25,25)" fill-rule="evenodd" />
</svg>
