<svg viewBox="0 0 16 16" xmlns="http://www.w3.org/2000/svg" xmlns:xlink="http://www.w3.org/1999/xlink" width="16.000000" height="16.000000" fill="none" customFrame="#000000">
	<rect id="研发需求" width="15.999982" height="16.000006" x="0.000000" y="0.000000" fill="rgb(255,255,255)" fill-opacity="0" />
	<rect id="R&amp;D-Requirements-研发需求" width="15.999982" height="16.000006" x="0.000000" y="0.000000" fill="rgb(0,0,0)" fill-opacity="0" />
	<path id="矢量 739" d="M11.5 2.66504L11.5 1.33301C11.5 1.24902 11.4904 1.16504 11.4728 1.08105C11.4572 1.01309 11.4356 0.945117 11.408 0.877149C11.3788 0.808985 11.3456 0.745117 11.3048 0.685156C11.2616 0.621094 11.2128 0.561133 11.1564 0.505078C11.1016 0.453125 11.0428 0.400977 10.9784 0.361133C10.918 0.321094 10.8536 0.285156 10.7872 0.257031C10.7443 0.238411 10.7006 0.223763 10.656 0.213086C10.6296 0.205013 10.603 0.198372 10.576 0.193164C10.498 0.173047 10.416 0.165039 10.334 0.165039L5.66602 0.165039C5.58003 0.165039 5.49402 0.177148 5.41004 0.193164C5.34363 0.208984 5.27722 0.229102 5.21282 0.257031C5.14243 0.285156 5.07803 0.321094 5.01763 0.361133C4.95523 0.403711 4.89656 0.451693 4.84163 0.505078C4.78723 0.561133 4.73843 0.621094 4.69522 0.685156C4.65442 0.745117 4.62122 0.808985 4.59163 0.877149C4.56443 0.945117 4.54282 1.00898 4.52722 1.07715C4.50962 1.16113 4.50003 1.24512 4.50003 1.33301L4.50003 2.66504C4.50003 2.74902 4.50762 2.8291 4.52522 2.90899C4.54082 2.98106 4.56243 3.04902 4.59163 3.12109C4.61922 3.18516 4.65442 3.24902 4.69321 3.31309C4.73215 3.36908 4.79202 3.44102 4.84002 3.48906C4.89644 3.54512 4.95723 3.59707 5.02163 3.63711C5.08003 3.67715 5.14443 3.71309 5.21082 3.74102C5.27722 3.76914 5.34563 3.78906 5.41602 3.80508C5.49802 3.825 5.58203 3.83301 5.66602 3.83301L10.334 3.83301C10.414 3.83301 10.494 3.825 10.5724 3.80899C10.6444 3.79317 10.7168 3.76914 10.7872 3.74102C10.8536 3.71172 10.916 3.67839 10.9744 3.64102C11.0408 3.59707 11.1016 3.54512 11.158 3.48906C11.2148 3.43301 11.2636 3.37305 11.3068 3.30899C11.3456 3.24902 11.3788 3.18516 11.408 3.12109C11.4376 3.04902 11.4608 2.97715 11.4764 2.90508C11.4922 2.82774 11.5 2.74772 11.5 2.66504ZM10.4864 1.26914C10.496 1.28906 10.5 1.30898 10.5 1.33301L10.5 2.66504C10.5 2.68516 10.496 2.70508 10.4904 2.725C10.4824 2.74512 10.4688 2.76504 10.4512 2.78516C10.4316 2.80098 10.412 2.81309 10.3904 2.82109C10.3732 2.8291 10.3536 2.83301 10.334 2.83301L5.66602 2.83301C5.64243 2.83301 5.62122 2.8291 5.60164 2.82109C5.5859 2.81315 5.56162 2.79844 5.54883 2.78516C5.53323 2.76914 5.51963 2.74902 5.51162 2.7291C5.50389 2.71035 5.50003 2.689 5.50003 2.66504L5.50003 1.33301C5.50003 1.30508 5.50603 1.28106 5.51563 1.26113C5.52363 1.24512 5.53323 1.2291 5.54883 1.21309C5.56243 1.20098 5.57803 1.18906 5.59563 1.18106C5.61724 1.16914 5.64082 1.16504 5.66602 1.16504L10.334 1.16504C10.3556 1.16504 10.3768 1.16914 10.3964 1.17715C10.416 1.18516 10.4356 1.19707 10.4512 1.21309C10.4668 1.2291 10.4784 1.24902 10.4864 1.26914ZM3.50003 2.53711L3.50003 1.52109C3.42564 1.53301 3.35361 1.54512 3.28123 1.56113C3.13682 1.59316 2.99602 1.63711 2.85723 1.69707C2.71482 1.75703 2.57803 1.8291 2.44922 1.91309C2.31243 2.00508 2.18362 2.11309 2.06243 2.23301C1.9491 2.34499 1.84816 2.46634 1.75962 2.59707C1.67563 2.7252 1.59001 2.88106 1.52722 3.025C1.47083 3.16504 1.42563 3.30508 1.39243 3.44902C1.35164 3.6291 1.33203 3.81309 1.33203 4.00098L1.33203 13.333C1.33203 13.5091 1.34989 13.6811 1.38562 13.849C1.41721 13.9971 1.46882 14.165 1.52722 14.3051C1.58804 14.449 1.66003 14.5852 1.74402 14.709C1.83604 14.849 1.94321 14.9811 2.06243 15.101C2.1747 15.2131 2.29536 15.3131 2.42441 15.401C2.55122 15.485 2.71482 15.5772 2.85723 15.6371C2.99802 15.6971 3.14082 15.741 3.28723 15.7731C3.46482 15.8131 3.64644 15.833 3.83203 15.833L12.166 15.833C12.3476 15.833 12.5252 15.8131 12.6972 15.7772C12.8476 15.7451 12.994 15.6971 13.1388 15.6371C13.2792 15.5772 13.412 15.5051 13.5392 15.4211C13.6702 15.3331 13.818 15.2157 13.9316 15.101C14.0548 14.9811 14.162 14.849 14.254 14.7051C14.338 14.5811 14.408 14.449 14.4688 14.3051C14.5292 14.1611 14.576 14.017 14.6072 13.865C14.6422 13.6997 14.666 13.5037 14.666 13.333L14.666 4.00098C14.666 3.81309 14.6464 3.63301 14.6056 3.45703C14.574 3.30899 14.5272 3.16504 14.4688 3.025C14.408 2.88516 14.336 2.74902 14.252 2.62109C14.16 2.48106 14.0528 2.35313 13.9316 2.23301C13.8124 2.11309 13.6816 2.00508 13.5428 1.91309C13.416 1.8291 13.2812 1.75703 13.1388 1.69707C12.996 1.63711 12.8516 1.58906 12.7032 1.55703C12.6368 1.54375 12.5684 1.53177 12.498 1.52109L12.506 2.53711C12.588 2.55703 12.67 2.58516 12.748 2.61699C12.832 2.65313 12.91 2.69317 12.9844 2.74102C13.0704 2.79707 13.1504 2.86504 13.2244 2.93711C13.3008 3.01309 13.3672 3.09316 13.424 3.18106L13.4512 3.225C13.4884 3.28906 13.5216 3.35313 13.5468 3.41699C13.58 3.49317 13.6072 3.57305 13.6248 3.65313C13.6524 3.76504 13.666 3.88106 13.666 4.00098L13.666 13.333C13.666 13.449 13.6524 13.557 13.6288 13.665C13.6094 13.7505 13.582 13.8344 13.5468 13.917C13.5303 13.9571 13.5118 13.9958 13.4912 14.033C13.4707 14.0731 13.4483 14.1118 13.424 14.149C13.3672 14.2371 13.3008 14.317 13.2244 14.3932C13.1504 14.4691 13.0684 14.5371 12.9804 14.5932C12.9064 14.641 12.83 14.6811 12.748 14.717C12.666 14.749 12.584 14.7772 12.498 14.7971C12.3904 14.8211 12.2792 14.833 12.166 14.833L3.83203 14.833C3.71283 14.833 3.59762 14.8197 3.48643 14.7932C3.40442 14.7731 3.32603 14.749 3.24802 14.717C3.16402 14.6824 3.08589 14.6411 3.01362 14.5932C2.92564 14.533 2.84563 14.4691 2.77163 14.3932C2.69522 14.3211 2.63084 14.2371 2.57402 14.1531C2.52722 14.0772 2.48442 14.001 2.44922 13.917C2.41602 13.8371 2.38882 13.757 2.37122 13.6731C2.34363 13.5611 2.33203 13.449 2.33203 13.333L2.33203 4.00098C2.33203 3.88106 2.34563 3.76113 2.37322 3.64902C2.37856 3.62507 2.38456 3.60241 2.39124 3.58106C2.4075 3.52507 2.42682 3.47038 2.44922 3.41699C2.48442 3.33301 2.52722 3.25313 2.57603 3.17715C2.63284 3.09316 2.69722 3.01309 2.76963 2.93711C2.84363 2.86504 2.92402 2.80098 3.00762 2.74512C3.08403 2.69707 3.16401 2.65313 3.24602 2.61699C3.32402 2.58516 3.42002 2.55723 3.50003 2.53711ZM7.25203 10.9131L9.32803 7.24512C9.46482 7.00508 9.38284 6.70508 9.13882 6.56504C8.89444 6.4291 8.59563 6.50899 8.45723 6.75313L6.38084 10.4211C6.24402 10.665 6.32603 10.965 6.57044 11.101C6.81443 11.241 7.11323 11.157 7.25203 10.9131ZM9.76162 6.70098C9.96082 6.50508 10.2736 6.50899 10.4688 6.70508L12.174 8.44512C12.266 8.54922 12.324 8.68907 12.3164 8.825C12.3068 8.96504 12.252 9.07715 12.1484 9.16914L10.1836 10.909C9.97442 11.0932 9.66402 11.0772 9.47842 10.865C9.29282 10.657 9.31043 10.3451 9.52163 10.1611L11.0916 8.76914L9.75403 7.40899C9.55843 7.20899 9.56243 6.89707 9.76162 6.70098ZM4.70723 8.83301L6.00403 7.53711C6.20122 7.34102 6.20122 7.0291 6.00403 6.8291C5.80484 6.63301 5.49402 6.63301 5.29683 6.8291L3.64644 8.48106C3.54883 8.57715 3.50003 8.69707 3.50003 8.83301C3.50003 8.97305 3.54883 9.08907 3.64644 9.18906L5.29683 10.8371C5.49402 11.0371 5.80484 11.0371 6.00403 10.8371C6.20122 10.641 6.20122 10.3291 6.00403 10.1291L4.70723 8.83301Z" fill="rgb(25,25,25)" fill-rule="evenodd" />
</svg>
