<svg viewBox="0 0 80 80" xmlns="http://www.w3.org/2000/svg" xmlns:xlink="http://www.w3.org/1999/xlink" width="80.000000" height="80.000000" fill="none">
	<rect id="事件触发 1" width="80.000000" height="80.000000" x="0.000000" y="0.000000" />
	<rect id="操作图标/事件触发" width="80.000000" height="80.000000" x="0.000000" y="0.000000" />
	<path id="形状结合" d="M65.3438 57.8435C64.2982 58.8841 62.6258 58.9421 61.5105 57.9766C60.984 57.5268 60.6582 56.8861 60.6051 56.1961C60.552 55.5061 60.7758 54.8235 61.2271 54.2983L61.8938 53.5328C70.2831 42.3715 68.7916 26.6683 58.4502 17.2817C48.1089 7.89501 32.314 7.90714 21.9871 17.3097C11.6603 26.7123 10.1928 42.4177 18.5994 53.5659L19.0677 54.1986C19.9701 55.3708 19.7855 57.0452 18.6494 57.9932C18.126 58.445 17.4193 58.6846 16.7298 58.6281C16.0403 58.5719 15.4023 58.241 14.9594 57.7104C4.23131 44.4726 5.57346 25.2052 18.0336 13.5782C30.4938 1.95126 49.8338 1.91945 62.3322 13.5053C74.8307 25.0912 76.0282 44.5703 65.3438 57.8435ZM54.3756 45.111C53.7404 46.3795 52.106 47.2228 50.7822 46.7088C49.4869 46.2008 48.8471 44.7417 49.3522 43.4466L50.434 40.6837C51.9307 36.2055 50.3467 31.2752 46.5204 28.5026C42.6942 25.7299 37.5093 25.755 33.7104 28.5648C29.9116 31.3746 28.3756 36.3201 29.9158 40.7835L30.9309 43.3632C31.1807 43.9979 31.1671 44.7059 30.8931 45.3303C30.6191 45.955 30.1073 46.445 29.4709 46.6921C28.1058 47.2063 26.5407 46.559 25.9876 45.2108C23.164 40.1888 23.2204 34.0479 26.1356 29.0783C29.0507 24.1088 34.3869 21.0568 40.154 21.0604C45.9027 21.0591 51.2242 24.0906 54.1489 29.0328C57.0789 33.9746 57.162 40.0919 54.3756 45.111ZM38.4276 48.4063C38.8907 47.8677 39.5662 47.5577 40.2773 47.5577C40.9884 47.5577 41.6642 47.8677 42.1273 48.4063L63.7438 71.3917C64.2398 72.0401 64.3127 72.9175 63.9304 73.6386C63.524 74.369 62.7571 74.8263 61.9204 74.837L18.6244 74.837C17.7746 74.8326 16.9944 74.367 16.5877 73.6219C16.1662 72.9381 16.1662 72.0755 16.5877 71.3917L38.4276 48.4063ZM40.304 53.0668L23.1909 70.5261L57.3571 70.5261L40.304 53.0668Z" fill="rgb(0,0,0)" fill-rule="evenodd" />
	<path id="形状结合" d="M60.6051 56.1961C60.552 55.5061 60.7758 54.8235 61.2271 54.2983L61.8938 53.5328C70.2831 42.3715 68.7916 26.6683 58.4502 17.2817C48.1089 7.89501 32.314 7.90714 21.9871 17.3097C11.6603 26.7123 10.1928 42.4177 18.5994 53.5659L19.0677 54.1986C19.9701 55.3708 19.7855 57.0452 18.6494 57.9932C18.126 58.445 17.4193 58.6846 16.7298 58.6281C16.0403 58.5719 15.4023 58.241 14.9594 57.7104C4.23131 44.4726 5.57346 25.2052 18.0336 13.5782C30.4938 1.95126 49.8338 1.91945 62.3322 13.5053C74.8307 25.0912 76.0282 44.5703 65.3438 57.8435C64.2982 58.8841 62.6258 58.9421 61.5105 57.9766C60.984 57.5268 60.6582 56.8861 60.6051 56.1961ZM49.3522 43.4466L50.434 40.6837C51.9307 36.2055 50.3467 31.2752 46.5204 28.5026C42.6942 25.7299 37.5093 25.755 33.7104 28.5648C29.9116 31.3746 28.3756 36.3201 29.9158 40.7835L30.9309 43.3632C31.1807 43.9979 31.1671 44.7059 30.8931 45.3303C30.6191 45.955 30.1073 46.445 29.4709 46.6921C28.1058 47.2063 26.5407 46.559 25.9876 45.2108C23.164 40.1888 23.2204 34.0479 26.1356 29.0783C29.0507 24.1088 34.3869 21.0568 40.154 21.0604C45.9027 21.0591 51.2242 24.0906 54.1489 29.0328C57.0789 33.9746 57.162 40.0919 54.3756 45.111C53.7404 46.3795 52.106 47.2228 50.7822 46.7088C49.4869 46.2008 48.8471 44.7417 49.3522 43.4466ZM42.1273 48.4063L63.7438 71.3917C64.2398 72.0401 64.3127 72.9175 63.9304 73.6386C63.524 74.369 62.7571 74.8263 61.9204 74.837L18.6244 74.837C17.7746 74.8326 16.9944 74.367 16.5877 73.6219C16.1662 72.9381 16.1662 72.0755 16.5877 71.3917L38.4276 48.4063C38.8907 47.8677 39.5662 47.5577 40.2773 47.5577C40.9884 47.5577 41.6642 47.8677 42.1273 48.4063ZM57.3571 70.5261L40.304 53.0668L23.1909 70.5261L57.3571 70.5261Z" fill-rule="evenodd" stroke="rgb(0,0,0)" stroke-opacity="0" stroke-width="3" />
</svg>
