<svg viewBox="0 0 80 80" xmlns="http://www.w3.org/2000/svg" xmlns:xlink="http://www.w3.org/1999/xlink" width="80.000000" height="80.000000" fill="none">
	<rect id="执行 1" width="80.000000" height="80.000000" x="0.000000" y="0.000000" />
	<rect id="操作图标/执行" width="80.000000" height="80.000000" x="0.000000" y="0.000000" />
	<path id="形状结合" d="M69.2451 42.4996C68.8438 43.1458 68.3007 43.692 67.6571 44.0969L22.6718 69.2309C20.3307 70.7036 17.2398 69.9982 15.768 67.6556C15.2662 66.8567 15 65.9324 15 64.9889L15 15.0105C15 12.2433 17.2417 10 20.0071 10C20.9411 10 21.8565 10.2614 22.6498 10.7547L67.6349 35.5991C69.9838 37.0598 70.7047 40.1491 69.2451 42.4996ZM63.4165 38.9847L21.4905 15.8298C21.0071 15.5628 20.3987 15.7382 20.1317 16.2217L20.0071 63.2847C20.0071 63.8369 20.4548 64.2847 21.0071 64.2847L63.4207 40.7329C63.9029 40.4636 63.6858 39.4667 63.4165 38.9847Z" fill="rgb(0,0,0)" fill-rule="evenodd" />
	<path id="形状结合" d="M22.6718 69.2309C20.3307 70.7036 17.2398 69.9982 15.768 67.6556C15.2662 66.8567 15 65.9324 15 64.9889L15 15.0105C15 12.2433 17.2417 10 20.0071 10C20.9411 10 21.8565 10.2614 22.6498 10.7547L67.6349 35.5991C69.9838 37.0598 70.7047 40.1491 69.2451 42.4996C68.8438 43.1458 68.3007 43.692 67.6571 44.0969L22.6718 69.2309ZM20.1317 16.2217L20.0071 63.2847C20.0071 63.8369 20.4548 64.2847 21.0071 64.2847L63.4207 40.7329C63.9029 40.4636 63.6858 39.4667 63.4165 38.9847L21.4905 15.8298C21.0071 15.5628 20.3987 15.7382 20.1317 16.2217Z" fill-rule="evenodd" stroke="rgb(0,0,0)" stroke-opacity="0" stroke-width="3" />
</svg>
