<svg viewBox="0 0 80 80" xmlns="http://www.w3.org/2000/svg" xmlns:xlink="http://www.w3.org/1999/xlink" width="80.000000" height="80.000000" fill="none" customFrame="#000000">
	<rect id="项目首字母图标/F-48px*48px" width="80.000000" height="80.000000" x="0.000000" y="0.000000" />
	<rect id="矩形" width="80.000000" height="80.000000" x="0.000000" y="0.000000" opacity="0" fill="rgb(216,216,216)" />
	<rect id="矩形" width="77.000000" height="77.000000" x="1.500000" y="1.500000" opacity="0" stroke="rgb(151,151,151)" stroke-opacity="0" stroke-width="3" />
	<g id="f">
		<path id="Path" d="M66.3892 12.2222L66.3892 26.1111L34.4447 26.1111C32.2257 26.1111 30.4119 27.8457 30.2851 30.0329L30.278 30.2777L30.278 67.7777L16.3892 67.7777L16.3892 30.2777C16.3892 20.4484 24.2436 12.4535 34.0185 12.2271L34.4447 12.2222L66.3892 12.2222Z" fill="rgb(234,113,143)" fill-rule="evenodd" />
		<path id="Path" d="M38.6114 12.2222L38.6114 26.1111L34.4447 26.1111C32.2257 26.1111 30.4119 27.8457 30.2851 30.0329L30.278 30.2777L30.278 33.0555L16.3892 33.0555L16.3892 30.2777C16.3892 20.4484 24.2436 12.4535 34.0185 12.2271L34.4447 12.2222L38.6114 12.2222Z" fill="rgb(105,99,240)" fill-rule="evenodd" />
		<rect id="Rectangle" width="4.166667" height="27.777777" x="16.390015" y="26.106934" fill="rgb(85,203,170)" />
		<rect id="Rectangle Copy 2" width="25.000000" height="13.888888" x="30.277466" y="33.055664" fill="rgb(108,163,244)" />
		<rect id="Rectangle" width="9.722222" height="13.888888" x="20.556641" y="33.051270" fill="rgb(144,57,121)" />
		<rect id="Rectangle" width="4.166667" height="13.888888" x="16.390015" y="33.051270" fill="rgb(40,133,139)" />
		<rect id="Rectangle" width="4.166667" height="27.777777" x="12.223267" y="26.106934" fill="rgb(135,214,220)" />
		<rect id="Rectangle" width="1.166667" height="24.777777" x="13.723267" y="27.606934" stroke="rgb(151,151,151)" stroke-opacity="0" stroke-width="3" />
		<path id="Path" d="M30.2777 38.6069L30.2777 41.3889L9.4458 41.3855L9.4458 38.6069L30.2777 38.6069Z" fill="rgb(234,216,131)" fill-rule="evenodd" />
		<path id="Path" d="M60.8331 17.7778L60.8331 20.5556L34.4442 20.5556C29.1866 20.5556 24.9038 24.7289 24.7276 29.9436L24.722 30.2778L24.722 33.0556L21.9442 33.0556L21.9442 30.2778C21.9442 23.4976 27.3426 17.9781 34.0757 17.7832L34.4442 17.7778L60.8331 17.7778Z" fill="rgb(255,255,255)" fill-rule="evenodd" />
		<path id="Path" d="M21.9442 33.0556L24.722 33.0556L24.722 30.2778L24.7276 29.9436C24.9038 24.7289 29.1866 20.5556 34.4442 20.5556L60.8331 20.5556L60.8331 17.7778L34.4442 17.7778L34.0757 17.7832C27.4163 17.976 22.0626 23.3773 21.9461 30.0556C21.9449 30.1295 21.9442 30.2036 21.9442 30.2778L21.9442 33.0556Z" fill="rgb(151,151,151)" fill-opacity="0" fill-rule="evenodd" />
		<rect id="Rectangle" width="19.444445" height="2.777778" x="30.277466" y="38.611084" fill="rgb(255,255,255)" />
		<rect id="Rectangle" width="16.444445" height="-0.222222" x="31.777466" y="40.111084" stroke="rgb(151,151,151)" stroke-opacity="0" stroke-width="3" />
	</g>
</svg>
