<svg viewBox="0 0 80 80" xmlns="http://www.w3.org/2000/svg" xmlns:xlink="http://www.w3.org/1999/xlink" width="80.000000" height="80.000000" fill="none" customFrame="#000000">
	<rect id="常见问题" width="80.000000" height="80.000000" x="0.000000" y="0.000000" />
	<path id="矢量 33" d="M5 40C5 20.6702 20.67 5 40 5C59.33 5 75 20.6702 75 40C75 59.3298 59.33 75 40 75C20.67 75 5 59.3298 5 40ZM10 40C10 23.4314 23.4315 10 40 10C56.5685 10 70 23.4314 70 40C70 56.5686 56.5685 70 40 70C23.4315 70 10 56.5686 10 40ZM37.3923 48.3209L37.3923 42.1994C37.3923 41.366 37.6007 40.741 38.0173 40.3244C38.434 39.9078 39.059 39.6994 39.8923 39.6994C40.3795 39.6994 40.8538 39.6451 41.3152 39.5364C41.6457 39.4586 41.9695 39.3527 42.2868 39.2194C42.6345 39.0729 42.9635 38.898 43.2737 38.6945C43.6192 38.468 43.9413 38.2059 44.2403 37.9083C44.5576 37.5928 44.8346 37.2513 45.0714 36.8835C45.2575 36.5948 45.4187 36.29 45.5551 35.9689C45.6932 35.6442 45.8015 35.3125 45.8801 34.9738C45.9834 34.5276 46.0351 34.0695 46.0351 33.5995C46.0351 33.1299 45.9834 32.6718 45.8801 32.2256C45.8015 31.8869 45.6933 31.5552 45.5551 31.2302C45.4188 30.9094 45.2575 30.6046 45.0714 30.3159C44.8346 29.9481 44.5576 29.6066 44.2403 29.2911C43.9413 28.9935 43.619 28.7311 43.2736 28.5046C42.9634 28.3011 42.6344 28.1262 42.2868 27.98C41.9695 27.8464 41.6457 27.7408 41.3152 27.663C40.8537 27.5543 40.3795 27.5 39.8924 27.5C39.4053 27.5 38.931 27.5543 38.4695 27.663C38.1391 27.7408 37.8153 27.8467 37.498 27.98C37.1503 28.1265 36.8213 28.3014 36.5111 28.5049C36.1656 28.7314 35.8434 28.9935 35.5444 29.2911C35.2272 29.6066 34.9502 29.9481 34.7134 30.3159C34.5273 30.6046 34.366 30.9094 34.2297 31.2302C34.0916 31.5552 33.9832 31.8869 33.9047 32.2256C33.8013 32.6718 33.7497 33.1296 33.7497 33.5995C33.7497 34.9997 32.6497 36.0995 31.2497 36.0995C29.8497 36.0995 28.7497 34.9997 28.7497 33.5995C28.7497 32.7902 28.8343 31.9995 29.0034 31.2271C29.149 30.5624 29.3572 29.9115 29.6281 29.2743C29.8919 28.6539 30.2062 28.0667 30.5711 27.5128C30.9874 26.8808 31.4697 26.2921 32.0177 25.7468C32.5467 25.2203 33.1161 24.7549 33.7261 24.3509C34.3009 23.9703 34.9117 23.6438 35.5585 23.3716C36.1856 23.1076 36.826 22.9037 37.4796 22.7597C38.2648 22.5867 39.0691 22.5 39.8924 22.5C40.7157 22.5 41.5202 22.5867 42.3055 22.7597C42.9589 22.9037 43.5992 23.1076 44.2263 23.3716C44.873 23.6438 45.4839 23.9703 46.0587 24.3512C46.6687 24.7552 47.2381 25.2203 47.767 25.7468C48.3147 26.2915 48.7975 26.8811 49.2137 27.5128C49.5786 28.0667 49.8929 28.6539 50.1566 29.2743C50.4276 29.9115 50.6358 30.5627 50.7814 31.2274C50.9505 31.9998 51.0351 32.7905 51.0351 33.5995C51.0351 34.4086 50.9504 35.2002 50.7813 35.9723C50.6358 36.637 50.4275 37.2879 50.1566 37.9251C49.8929 38.5455 49.5786 39.1327 49.2137 39.6866C48.7974 40.3186 48.3151 40.9073 47.767 41.4526C47.2381 41.9791 46.6685 42.4442 46.0587 42.8482C45.4839 43.2291 44.873 43.5556 44.2263 43.8278C43.627 44.0799 43.0157 44.2773 42.3923 44.4202L42.3923 48.3209C42.3923 49.7208 41.2924 50.8209 39.8923 50.8209C38.4924 50.8209 37.3923 49.7208 37.3923 48.3209ZM36.8749 55.7837C36.8749 54.238 38.1342 52.9852 39.6874 52.9852C41.2408 52.9852 42.4999 54.238 42.4999 55.7837C42.4999 57.3291 41.2408 58.5822 39.6874 58.5822C38.1342 58.5822 36.8749 57.3291 36.8749 55.7837Z" fill="rgb(0,0,0)" fill-rule="evenodd" />
</svg>
