<svg viewBox="0 0 70 70" xmlns="http://www.w3.org/2000/svg" xmlns:xlink="http://www.w3.org/1999/xlink" width="70.000000" height="70.000000" fill="none">
	<rect id="操作图标/收藏" width="70.000000" height="70.000000" x="0.000000" y="0.000000" />
	<path id="形状结合" d="M36.8568 6.35179C37.7835 6.78588 38.5287 7.5311 38.9628 8.45781L44.9691 21.28L59.0198 23.03C61.4175 23.3287 63.1191 25.5145 62.8205 27.9122C62.694 28.9277 62.2155 29.8668 61.4683 30.566L51.1297 40.2406L53.8073 54.1443C54.2642 56.517 52.7112 58.8108 50.3385 59.2677C49.3336 59.4612 48.2927 59.2964 47.3968 58.8018L35.0009 51.9588L22.6051 58.8018C20.4897 59.9695 17.8283 59.2014 16.6605 57.086C16.166 56.1901 16.0011 55.1492 16.1946 54.1443L18.8721 40.2406L8.53354 30.566C6.76928 28.915 6.67742 26.1465 8.32837 24.3822C9.02758 23.635 9.96661 23.1565 10.9821 23.03L25.0328 21.28L31.0391 8.45781C32.064 6.26973 34.6687 5.32683 36.8568 6.35179ZM35.0009 10.3162L28.9947 23.1359C28.4367 24.327 27.3779 25.1944 26.1226 25.5172L25.5735 25.6215L11.5228 27.3715L21.8614 37.0461C22.8218 37.9448 23.3197 39.2198 23.2387 40.5134L23.1682 41.0679L20.4907 54.9716L32.8866 48.1287C34.038 47.493 35.4045 47.4135 36.6098 47.8903L37.1153 48.1287L49.5112 54.9716L46.8337 41.0679C46.5849 39.7763 46.9316 38.4522 47.7575 37.4532L58.479 27.3715L44.4284 25.6215C43.1231 25.4589 41.9709 24.72 41.2761 23.6259L41.0072 23.1359L35.0009 10.3162Z" fill="rgb(0,0,0)" fill-rule="evenodd" />
	<path id="形状结合" d="M38.9628 8.45781L44.9691 21.28L59.0198 23.03C61.4175 23.3287 63.1191 25.5145 62.8205 27.9122C62.694 28.9277 62.2155 29.8668 61.4683 30.566L51.1297 40.2406L53.8073 54.1443C54.2642 56.517 52.7112 58.8108 50.3385 59.2677C49.3336 59.4612 48.2927 59.2964 47.3968 58.8018L35.0009 51.9588L22.6051 58.8018C20.4897 59.9695 17.8283 59.2014 16.6605 57.086C16.166 56.1901 16.0011 55.1492 16.1946 54.1443L18.8721 40.2406L8.53354 30.566C6.76928 28.915 6.67742 26.1465 8.32837 24.3822C9.02758 23.635 9.96661 23.1565 10.9821 23.03L25.0328 21.28L31.0391 8.45781C32.064 6.26973 34.6687 5.32683 36.8568 6.35179C37.7835 6.78588 38.5287 7.5311 38.9628 8.45781ZM28.9947 23.1359C28.4367 24.327 27.3779 25.1944 26.1226 25.5172L25.5735 25.6215L11.5228 27.3715L21.8614 37.0461C22.8218 37.9448 23.3197 39.2198 23.2387 40.5134L23.1682 41.0679L20.4907 54.9716L32.8866 48.1287C34.038 47.493 35.4045 47.4135 36.6098 47.8903L37.1153 48.1287L49.5112 54.9716L46.8337 41.0679C46.5849 39.7763 46.9316 38.4522 47.7575 37.4532L58.479 27.3715L44.4284 25.6215C43.1231 25.4589 41.9709 24.72 41.2761 23.6259L41.0072 23.1359L35.0009 10.3162L28.9947 23.1359Z" fill-rule="evenodd" stroke="rgb(0,0,0)" stroke-opacity="0" stroke-width="3" />
</svg>
