<svg viewBox="0 0 16 16" xmlns="http://www.w3.org/2000/svg" xmlns:xlink="http://www.w3.org/1999/xlink" width="16.000000" height="16.000000" fill="none" customFrame="#000000">
	<rect id="特性树" width="15.999982" height="16.000006" x="0.000000" y="0.000000" fill="rgb(255,255,255)" fill-opacity="0" />
	<rect id="Feature-Tree-特性树" width="15.999982" height="16.000006" x="0.000000" y="0.000000" />
	<path id="矢量 738" d="M6.39038 4.17676L6.39038 5.17266C6.39038 5.34863 6.35557 5.5086 6.28718 5.64863C6.27517 5.67676 6.25957 5.70469 6.24397 5.73262C6.18757 5.82461 6.12117 5.90059 6.03919 5.96074C5.97078 6.00879 5.88279 6.05664 5.80479 6.07676C5.74998 6.09277 5.69317 6.10059 5.63477 6.10059L4.46878 6.10059L4.46878 10.6406C4.46878 10.7486 4.48037 10.8566 4.50598 10.9607C4.52359 11.0406 4.54878 11.1166 4.57998 11.1928C4.61318 11.2688 4.65237 11.3447 4.69917 11.4166C4.75198 11.4967 4.81438 11.5727 4.88477 11.6447C4.95518 11.7166 5.03118 11.7768 5.11318 11.8326C5.18357 11.8768 5.25757 11.9166 5.33599 11.9486C5.40798 11.9807 5.48438 12.0047 5.56038 12.0207C5.66797 12.0486 5.77717 12.0607 5.88877 12.0607L9.70877 12.0607L9.70877 10.8287C9.70877 10.6794 9.7361 10.5434 9.79077 10.4207C9.82598 10.3447 9.86917 10.2727 9.92398 10.2086C9.97437 10.1447 10.0332 10.0887 10.0976 10.0447C10.1268 10.0246 10.16 10.0047 10.1932 9.98868C10.254 9.95664 10.3144 9.93672 10.3768 9.92071C10.4356 9.9086 10.496 9.90059 10.5584 9.90059L13.6992 9.90059C13.7576 9.90059 13.8144 9.90469 13.8712 9.9166C13.9376 9.93262 14 9.95664 14.0624 9.98868C14.0956 10.0047 14.1268 10.0246 14.1564 10.0447C14.2207 10.09 14.2792 10.1434 14.332 10.2047C14.3888 10.2768 14.4356 10.3486 14.4688 10.4287C14.5216 10.5486 14.5488 10.6807 14.5488 10.8287L14.5488 13.8127C14.5488 13.9527 14.5236 14.0807 14.4744 14.2006C14.4396 14.2807 14.3924 14.3607 14.334 14.4326C14.2792 14.4967 14.2208 14.5527 14.1524 14.5967C14.1248 14.6166 14.0956 14.6326 14.0664 14.6486C14.002 14.6848 13.9356 14.7086 13.8672 14.7207C13.8124 14.7326 13.7576 14.7406 13.6992 14.7406L10.5584 14.7406C10.498 14.7406 10.4396 14.7326 10.3808 14.7207C10.3164 14.7047 10.252 14.6807 10.1912 14.6527C10.16 14.6326 10.1288 14.6166 10.0996 14.5967C10.0332 14.5486 9.97437 14.4967 9.92198 14.4287C9.86519 14.3607 9.82039 14.2887 9.78719 14.2086C9.73438 14.0887 9.70877 13.9566 9.70877 13.8127L9.70877 13.0607L5.88877 13.0607C5.72184 13.0607 5.55838 13.0447 5.39837 13.0127C5.25796 12.9807 5.08198 12.9287 4.94517 12.8688C4.80838 12.8127 4.67759 12.7406 4.55479 12.6607C4.41997 12.5727 4.29277 12.4688 4.17559 12.3486C4.06038 12.2326 3.95718 12.1086 3.86917 11.9727C3.78718 11.8486 3.71677 11.7207 3.65798 11.5807C3.60159 11.4447 3.55679 11.3047 3.52517 11.1607C3.48838 10.9928 3.46878 10.8166 3.46878 10.6406L3.46878 6.10059L2.30679 6.10059C2.24597 6.10059 2.18757 6.09277 2.13279 6.07676C2.05679 6.05664 1.98638 6.0207 1.91797 5.97266C1.83997 5.9125 1.74998 5.8207 1.69517 5.72871C1.68157 5.7086 1.66997 5.68477 1.65798 5.66074C1.58599 5.5166 1.55078 5.35274 1.55078 5.17266L1.55078 2.18477C1.55078 1.99668 1.58997 1.82871 1.66597 1.68066C1.67559 1.66074 1.68557 1.64473 1.69517 1.62461C1.74984 1.53398 1.81624 1.45931 1.89438 1.40059C1.96079 1.35664 2.05837 1.30059 2.13079 1.28066C2.18757 1.26875 2.24597 1.26074 2.30679 1.26074L5.63477 1.26074C5.69317 1.26074 5.74998 1.26465 5.80679 1.28066C5.88079 1.30059 5.95318 1.33672 6.01958 1.38066C6.09798 1.43672 6.18958 1.53262 6.24397 1.62461C6.25598 1.64473 6.26958 1.66875 6.27918 1.69277C6.35172 1.83678 6.39038 2.00339 6.39038 2.18477L6.39038 3.17676L9.70877 3.17676L9.70877 2.18477C9.70877 2.03802 9.7361 1.90202 9.79077 1.77676C9.82598 1.70469 9.86917 1.63262 9.92398 1.56465C9.97437 1.50469 10.0332 1.44863 10.0976 1.40469C10.1268 1.38477 10.16 1.36465 10.1932 1.34473C10.254 1.3166 10.3144 1.29277 10.3768 1.28066C10.4356 1.26465 10.496 1.26074 10.5584 1.26074L13.6992 1.26074C13.7576 1.26074 13.8144 1.26465 13.8712 1.27676C13.9376 1.29277 14 1.3166 14.0624 1.34863C14.0956 1.36465 14.1268 1.38066 14.1564 1.40469C14.2207 1.4474 14.2792 1.50072 14.332 1.56465C14.3888 1.63262 14.4356 1.70859 14.4688 1.78477C14.5216 1.90859 14.5488 2.04063 14.5488 2.18477L14.5488 5.17266C14.5488 5.3127 14.5236 5.44063 14.4744 5.56074C14.4396 5.64063 14.3924 5.7166 14.334 5.78867C14.2792 5.85664 14.2208 5.9127 14.1524 5.95664C14.1248 5.97676 14.0956 5.99277 14.0664 6.0086C14.002 6.04063 13.9356 6.06875 13.8672 6.08067C13.8124 6.09277 13.7576 6.10059 13.6992 6.10059L10.5584 6.10059C10.498 6.10059 10.4396 6.09277 10.3808 6.08067C10.3164 6.06465 10.252 6.04063 10.1912 6.0086C10.16 5.99277 10.1288 5.97676 10.0996 5.95664C10.0332 5.9086 9.97437 5.85274 9.92198 5.78867C9.86519 5.72071 9.82039 5.64473 9.78719 5.56875C9.73438 5.44863 9.70877 5.3166 9.70877 5.17266L9.70877 4.17676L6.39038 4.17676ZM5.39038 5.10059L5.39038 2.26074L2.55078 2.26074L2.55078 5.10059L5.39038 5.10059ZM13.5488 5.10059L13.5488 2.26074L10.7088 2.26074L10.7088 5.10059L13.5488 5.10059ZM13.5488 10.9006L13.5488 13.7406L10.7088 13.7406L10.7088 10.9006L13.5488 10.9006Z" fill="rgb(25,25,25)" fill-rule="evenodd" />
</svg>
