<svg viewBox="0 0 80 80" xmlns="http://www.w3.org/2000/svg" xmlns:xlink="http://www.w3.org/1999/xlink" width="80.000000" height="80.000000" fill="none">
	<mask id="mask_4" width="80.000000" height="80.000000" x="0.000000" y="0.000000" maskUnits="userSpaceOnUse">
		<g filter="url(#pixso_custom_mask_type_alpha)">
			<g id="clip687_58153">
				<rect id="filled" width="80.000000" height="80.000000" x="0.000000" y="0.000000" fill="rgb(0,0,0)" />
			</g>
		</g>
	</mask>
	<mask id="mask_3" width="80.000000" height="80.000000" x="0.000000" y="0.000000" maskUnits="userSpaceOnUse">
		<g filter="url(#pixso_custom_mask_type_alpha)">
			<g id="clip687_58151">
				<rect id="border" width="80.000000" height="80.000000" x="0.000000" y="0.000000" fill="rgb(0,0,0)" />
			</g>
		</g>
	</mask>
	<mask id="mask_2" width="80.000000" height="80.000000" x="0.000000" y="0.000000" maskUnits="userSpaceOnUse">
		<g filter="url(#pixso_custom_mask_type_alpha)">
			<g id="clip687_58147">
				<rect id="support" width="80.000000" height="80.000000" x="0.000000" y="0.000000" fill="rgb(0,0,0)" />
			</g>
		</g>
	</mask>
	<defs>
		<filter id="pixso_custom_mask_type_alpha">
			<feColorMatrix type="matrix" values="0 0 0 0 1 0 0 0 0 1 0 0 0 0 1 0 0 0 1 0 " />
		</filter>
	</defs>
	<mask id="mask_1" width="80.000000" height="80.000000" x="0.000000" y="0.000000" maskUnits="userSpaceOnUse">
		<g filter="url(#pixso_custom_mask_type_alpha)">
			<g id="clip687_58146">
				<rect id="过滤_icon_filter/model/filled/过滤_icon_filter1" width="80.000000" height="80.000000" x="0.000000" y="0.000000" fill="rgb(0,0,0)" />
			</g>
		</g>
	</mask>
	<rect id="ic_gts_filter" width="80.000000" height="80.000000" x="0.000000" y="0.000000" />
	<rect id="过滤_icon_filter/model/filled/过滤_icon_filter1" width="80.000000" height="80.000000" x="0.000000" y="0.000000" fill="rgb(255,255,255)" fill-opacity="1" />
	<g id="clip path group" mask="url(#mask_1)">
		<g id="组合 2">
			<g id="clip path group" mask="url(#mask_2)">
				<g id="组合 4">
					<path id="path1" d="M2.21534e-05 39.9667C2.21534e-05 33.7167 -0.0166445 27.4667 2.21534e-05 21.2167C-0.0166445 18.1667 0.366689 15.15 1.10002 12.2333C2.75002 6.03332 6.78336 2.34999 12.9834 0.916656C16.0834 0.24999 19.2667 -0.0666769 22.4334 -1.0252e-05C34.4167 -1.0252e-05 46.3834 -1.0252e-05 58.4 -1.0252e-05C61.4 -0.0333436 64.4333 0.29999 67.3667 1.01666C73.75 2.56666 77.6 6.61666 79.0333 12.9833C79.7167 15.9833 80 19.05 79.9834 22.1333C79.9834 34.25 79.9834 46.3667 79.9834 58.4667C80 61.4667 79.6667 64.4667 78.9667 67.3833C77.4 73.7833 73.3334 77.5667 66.9834 79.0333C63.8667 79.7 60.6834 80.0333 57.5 79.9833C45.5667 79.9833 33.65 79.9833 21.7167 79.9833C18.6667 80.0167 15.6334 79.65 12.65 78.95C6.25002 77.4167 2.40002 73.35 0.950022 66.9333C0.200022 63.7 2.21534e-05 60.45 2.21534e-05 57.15C2.21534e-05 51.4167 2.21534e-05 45.6833 2.21534e-05 39.9667Z" fill="rgb(255,255,255)" fill-opacity="0" fill-rule="evenodd" />
					<circle id="path2" cx="40" cy="40" r="40" fill="rgb(255,255,255)" fill-opacity="0" />
				</g>
			</g>
			<g id="clip path group" mask="url(#mask_3)">
				<g id="组合 6">
					<path id="icon_filter" d="M46.7667 75C46.2 75 45.65 74.8167 45.1833 74.5L30.9 63.5667C30.3167 63.1 29.9833 62.4 30 61.6667L30 38.5333L7.21667 16.5333C5.96667 15.3333 5.01667 13.4 5 11.6667C5.05 7.96666 8.06667 4.99999 11.7667 4.99999L68.2 4.99999C69.9667 4.98333 71.6667 5.66666 72.9167 6.89999C74.2167 8.14999 74.95 9.86666 75 11.6667C74.9833 13.1167 74.4833 14.5333 73.5833 15.6667L73 16.3167L49.35 39.0333L49.25 72.55C49.2667 73.5 48.7 74.35 47.8333 74.7167C47.5 74.8833 47.1333 74.9833 46.7667 75ZM11.25 12.3667L33.9333 34.6C34.9667 35.6167 35.6167 36.95 35.7833 38.3833L35.8333 39.1L35.8333 61L43.4333 66.9167L43.4333 39.8167L43.45 39.2C43.5833 37.9667 44.05 36.8 44.8333 35.8333L45.3333 35.3333L68.8667 12.2667C68.8667 12.0167 69.05 11.3 68.8667 11.1167L68.2 10.85L11.8 10.85C11.5333 10.8333 11.3 10.9333 11.1167 11.1167C10.9667 11.25 10.8667 11.4333 10.8167 11.6167C10.8333 11.8333 11.0833 12.2167 11.25 12.3667Z" fill="rgb(255,255,255)" fill-opacity="1" fill-rule="evenodd" />
				</g>
			</g>
			<g id="clip path group" mask="url(#mask_4)">
				<g id="组合 8">
					<path id="icon_filter" d="M68.0833 4.98333C69.8833 4.96666 71.6333 5.65 72.9167 6.9C74.2167 8.15 74.9667 9.86666 75 11.6667C74.9833 13.1167 74.5 14.5333 73.5833 15.6667L73 16.3167L49.35 39.0333L49.25 72.5667C49.25 73.5 48.7 74.3667 47.8167 74.7333C47.5 74.9 47.1333 74.9833 46.75 75C46.2 75 45.65 74.8167 45.1833 74.5L30.9 63.55C30.3167 63.1 29.9833 62.4 30 61.65L30 38.5333L7.2 16.5333C5.96667 15.3333 5.01667 13.4 5 11.6667C5.01667 9.86666 5.76667 8.15 7.06667 6.9C8.35 5.65 10.1 4.96666 11.9 4.98333L68.0833 4.98333Z" fill="rgb(214,216,218)" fill-rule="evenodd" />
				</g>
			</g>
		</g>
	</g>
</svg>
