<svg viewBox="0 0 80 80" xmlns="http://www.w3.org/2000/svg" xmlns:xlink="http://www.w3.org/1999/xlink" width="80.000000" height="80.000000" fill="none">
	<mask id="mask_18" width="80.000000" height="80.000000" x="0.000000" y="0.000000" maskUnits="userSpaceOnUse">
		<g filter="url(#pixso_custom_mask_type_alpha)">
			<g id="clip575_12810">
				<rect id="矩形 4" width="80.000000" height="80.000000" x="0.000000" y="0.000000" fill="rgb(0,0,0)" />
			</g>
		</g>
	</mask>
	<mask id="mask_17" width="80.000000" height="80.000000" x="0.000000" y="0.000000" maskUnits="userSpaceOnUse">
		<g filter="url(#pixso_custom_mask_type_alpha)">
			<g id="clip575_12808">
				<rect id="矩形 3" width="80.000000" height="80.000000" x="0.000000" y="0.000000" fill="rgb(0,0,0)" />
			</g>
		</g>
	</mask>
	<mask id="mask_16" width="80.000000" height="80.000000" x="0.000000" y="0.000000" maskUnits="userSpaceOnUse">
		<g filter="url(#pixso_custom_mask_type_alpha)">
			<g id="clip575_12803">
				<rect id="矩形 2" width="80.000000" height="80.000000" x="0.000000" y="0.000000" fill="rgb(0,0,0)" />
			</g>
		</g>
	</mask>
	<defs>
		<filter id="pixso_custom_mask_type_alpha">
			<feColorMatrix type="matrix" values="0 0 0 0 1 0 0 0 0 1 0 0 0 0 1 0 0 0 1 0 " />
		</filter>
	</defs>
	<mask id="mask_15" width="80.000000" height="80.000000" x="0.000000" y="0.000000" maskUnits="userSpaceOnUse">
		<g filter="url(#pixso_custom_mask_type_alpha)">
			<g id="clip575_12802">
				<rect id="矩形 5" width="80.000000" height="80.000000" x="0.000000" y="0.000000" fill="rgb(0,0,0)" />
			</g>
		</g>
	</mask>
	<rect id="通用参考" width="80.000000" height="80.000000" x="0.000000" y="0.000000" />
	<rect id="矩形 1" width="80.000000" height="80.000000" x="0.000000" y="0.000000" fill="rgb(255,255,255)" fill-opacity="0" />
	<g id="clip path group" mask="url(#mask_15)">
		<g id="组合 11">
			<g id="clip path group" mask="url(#mask_16)">
				<g id="组合 13">
					<path id="矢量 310" d="M-3.88813e-05 39.9667C-3.88813e-05 33.7167 -0.0167055 27.4667 -3.88813e-05 21.2167C-0.0167055 18.1833 0.366628 15.1667 1.09996 12.25C2.74996 6.04999 6.7833 2.34999 12.9833 0.933325C16.0833 0.266659 19.2666 -0.0500079 22.4333 -7.90739e-06C34.4166 -7.90739e-06 46.3833 -7.90739e-06 58.4 -7.90739e-06C61.4 -0.0166746 64.4333 0.299992 67.3666 1.03333C73.75 2.58333 77.6 6.61666 79.0333 13C79.7166 16 80 19.05 79.9833 22.15C79.9833 34.2667 79.9833 46.3833 79.9833 58.4833C80 61.4833 79.6666 64.4667 78.9666 67.3833C77.4 73.7833 73.3333 77.5833 66.9833 79.05C63.8666 79.7167 60.6833 80.0333 57.5 79.9833C45.5666 79.9833 33.65 79.9833 21.7166 79.9833C18.6666 80.0167 15.6333 79.6667 12.65 78.9667C6.24996 77.4167 2.39996 73.35 0.949961 66.9333C0.199961 63.7 -3.88813e-05 60.45 -3.88813e-05 57.1667C-3.88813e-05 51.4333 -3.88813e-05 45.6833 -3.88813e-05 39.9667Z" fill="rgb(255,255,255)" fill-opacity="0" fill-rule="evenodd" />
					<circle id="椭圆 1" cx="40" cy="40" r="40" fill="rgb(255,255,255)" fill-opacity="0" />
				</g>
			</g>
			<g id="clip path group" mask="url(#mask_17)">
				<g id="组合 15">
					<path id="矢量 311" d="M56.5 6.66663C61.9167 6.66663 66.3334 10.8833 66.65 16.2333L66.6667 16.8333L66.6667 20.7333C66.6667 22.1166 65.55 23.2333 64.1667 23.2333C62.9 23.2333 61.85 22.2833 61.6834 21.0666L61.6667 20.7333L61.6667 16.8333C61.6667 14.1333 59.6 11.9166 56.9667 11.6833L56.5 11.6666L23.5 11.6666C20.8 11.6666 18.5834 13.7166 18.35 16.35L18.3334 16.8333L18.3334 63.15C18.3334 65.85 20.4 68.0666 23.0334 68.3L23.5 68.3333L56.5 68.3333C59.1834 68.3333 61.4 66.2666 61.65 63.6333L61.6667 63.15L61.6667 29.0833C61.6667 27.7 62.7834 26.5833 64.1667 26.5833C65.4334 26.5833 66.4667 27.5166 66.6334 28.75L66.6667 29.0833L66.6667 63.15C66.6667 68.5666 62.4334 73 57.0834 73.3L56.5 73.3333L23.5 73.3333C18.0834 73.3333 13.65 69.1 13.35 63.75L13.3334 63.15L13.3334 16.8333C13.3334 11.4166 17.5667 6.98329 22.9 6.68329L23.5 6.66663L56.5 6.66663ZM50.8334 58.7166C52.2167 58.7166 53.3334 59.8333 53.3334 61.2166C53.3334 62.6 52.2167 63.7166 50.8334 63.7166L29.1667 63.7166C27.7834 63.7166 26.6667 62.6 26.6667 61.2166C26.6667 59.8333 27.7834 58.7166 29.1667 58.7166L50.8334 58.7166ZM50.8334 49.4C52.2167 49.4 53.3334 50.5166 53.3334 51.9C53.3334 53.2666 52.2167 54.4 50.8334 54.4L29.1667 54.4C27.7834 54.4 26.6667 53.2666 26.6667 51.9C26.6667 50.5166 27.7834 49.4 29.1667 49.4L50.8334 49.4ZM50.8334 40.0666C52.2167 40.0666 53.3334 41.1833 53.3334 42.5666C53.3334 43.9333 52.2167 45.0666 50.8334 45.0666L29.1667 45.0666C27.7834 45.0666 26.6667 43.9333 26.6667 42.5666C26.6667 41.1833 27.7834 40.0666 29.1667 40.0666L50.8334 40.0666ZM53 16.0333C55.4834 16.0333 57.5 18.05 57.5 20.5333L57.5 29.8666C57.5 32.35 55.4834 34.3666 53 34.3666L27 34.3666C24.5167 34.3666 22.5 32.35 22.5 29.8666L22.5 20.5333C22.5 18.05 24.5167 16.0333 27 16.0333L53 16.0333ZM52.5 21.0333L27.5 21.0333L27.5 29.3666L52.5 29.3666L52.5 21.0333Z" fill="rgb(0,0,0)" fill-rule="evenodd" />
					<path id="矢量 312" d="M50.8333 58.7167C52.2167 58.7167 53.3333 59.8333 53.3333 61.2167C53.3333 62.6 52.2167 63.7167 50.8333 63.7167L29.1667 63.7167C27.7833 63.7167 26.6667 62.6 26.6667 61.2167C26.6667 59.8333 27.7833 58.7167 29.1667 58.7167L50.8333 58.7167ZM50.8333 49.4C52.2167 49.4 53.3333 50.5167 53.3333 51.9C53.3333 53.2667 52.2167 54.4 50.8333 54.4L29.1667 54.4C27.7833 54.4 26.6667 53.2667 26.6667 51.9C26.6667 50.5167 27.7833 49.4 29.1667 49.4L50.8333 49.4ZM50.8333 40.0667C52.2167 40.0667 53.3333 41.1833 53.3333 42.5667C53.3333 43.9333 52.2167 45.0667 50.8333 45.0667L29.1667 45.0667C27.7833 45.0667 26.6667 43.9333 26.6667 42.5667C26.6667 41.1833 27.7833 40.0667 29.1667 40.0667L50.8333 40.0667ZM53 16.0333C55.4833 16.0333 57.5 18.05 57.5 20.5333L57.5 29.8667C57.5 32.35 55.4833 34.3667 53 34.3667L27 34.3667C24.5167 34.3667 22.5 32.35 22.5 29.8667L22.5 20.5333C22.5 18.05 24.5167 16.0333 27 16.0333L53 16.0333ZM52.5 21.0333L27.5 21.0333L27.5 29.3667L52.5 29.3667L52.5 21.0333Z" fill="rgb(0,0,0)" fill-rule="evenodd" />
				</g>
			</g>
			<g id="clip path group" mask="url(#mask_18)">
				<g id="组合 17">
					<path id="矢量 313" d="M56.6667 6.66663C62.1834 6.66663 66.6667 11.1333 66.6667 16.6666L66.6667 63.3333C66.6667 68.85 62.1834 73.3333 56.6667 73.3333L23.3334 73.3333C17.8 73.3333 13.3334 68.85 13.3334 63.3333L13.3334 16.6666C13.3334 11.1333 17.8 6.66663 23.3334 6.66663L56.6667 6.66663ZM50.8334 58.7166L29.1667 58.7166C27.7834 58.7166 26.6667 59.8333 26.6667 61.2166C26.6667 62.4833 27.6 63.5333 28.8167 63.7L29.1667 63.7166L50.8334 63.7166C52.2167 63.7166 53.3334 62.6 53.3334 61.2166C53.3334 59.8333 52.2167 58.7166 50.8334 58.7166ZM50.8334 49.4L29.1667 49.4C27.7834 49.4 26.6667 50.5166 26.6667 51.9C26.6667 53.15 27.6 54.2 28.8167 54.3666L29.1667 54.4L50.8334 54.4C52.2167 54.4 53.3334 53.2666 53.3334 51.9C53.3334 50.5166 52.2167 49.4 50.8334 49.4ZM50.8334 40.0666L29.1667 40.0666C27.7834 40.0666 26.6667 41.1833 26.6667 42.5666C26.6667 43.8166 27.6 44.8666 28.8167 45.0333L29.1667 45.0666L50.8334 45.0666C52.2167 45.0666 53.3334 43.9333 53.3334 42.5666C53.3334 41.1833 52.2167 40.0666 50.8334 40.0666ZM53 18.5333L27 18.5333C25.8834 18.5333 25 19.4333 25 20.5333L25 29.8666C25 30.9833 25.8834 31.8666 27 31.8666L53 31.8666C54.1 31.8666 55 30.9833 55 29.8666L55 20.5333C55 19.4333 54.1 18.5333 53 18.5333Z" fill="rgb(255,255,255)" fill-opacity="0" fill-rule="evenodd" />
				</g>
			</g>
		</g>
	</g>
</svg>
