<svg viewBox="0 0 80 80" xmlns="http://www.w3.org/2000/svg" xmlns:xlink="http://www.w3.org/1999/xlink" width="80.000000" height="80.000000" fill="none">
	<rect id="操作图标/24/全局导航-新" width="80.000000" height="80.000000" x="0.000000" y="0.000000" />
	<path id="形状结合" d="M66.6667 14.168C68.0474 14.168 69.1667 15.2873 69.1667 16.668C69.1667 17.9336 68.2262 18.9796 67.0059 19.1451L66.6667 19.168L13.3333 19.168C11.9526 19.168 10.8333 18.0487 10.8333 16.668C10.8333 15.4023 11.7739 14.3563 12.9941 14.1908L13.3333 14.168L66.6667 14.168ZM66.6667 37.498C68.0474 37.498 69.1667 38.6173 69.1667 39.998C69.1667 41.2636 68.2262 42.3096 67.0059 42.4751L66.6667 42.498L13.3333 42.498C11.9526 42.498 10.8333 41.3787 10.8333 39.998C10.8333 38.7323 11.7739 37.6863 12.9941 37.5208L13.3333 37.498L66.6667 37.498ZM66.6667 60.8313C68.0474 60.8313 69.1667 61.9506 69.1667 63.3313C69.1667 64.597 68.2262 65.6429 67.0059 65.8085L66.6667 65.8313L13.3333 65.8313C11.9526 65.8313 10.8333 64.712 10.8333 63.3313C10.8333 62.0657 11.7739 61.0197 12.9941 60.8541L13.3333 60.8313L66.6667 60.8313Z" fill="rgb(25,25,25)" fill-rule="evenodd" />
	<path id="形状结合" d="M69.1667 16.668C69.1667 17.9336 68.2262 18.9796 67.0059 19.1451L66.6667 19.168L13.3333 19.168C11.9526 19.168 10.8333 18.0487 10.8333 16.668C10.8333 15.4023 11.7739 14.3563 12.9941 14.1908L13.3333 14.168L66.6667 14.168C68.0474 14.168 69.1667 15.2873 69.1667 16.668ZM69.1667 39.998C69.1667 41.2636 68.2262 42.3096 67.0059 42.4751L66.6667 42.498L13.3333 42.498C11.9526 42.498 10.8333 41.3787 10.8333 39.998C10.8333 38.7323 11.7739 37.6863 12.9941 37.5208L13.3333 37.498L66.6667 37.498C68.0474 37.498 69.1667 38.6173 69.1667 39.998ZM69.1667 63.3313C69.1667 64.597 68.2262 65.6429 67.0059 65.8085L66.6667 65.8313L13.3333 65.8313C11.9526 65.8313 10.8333 64.712 10.8333 63.3313C10.8333 62.0657 11.7739 61.0197 12.9941 60.8541L13.3333 60.8313L66.6667 60.8313C68.0474 60.8313 69.1667 61.9506 69.1667 63.3313Z" fill-rule="evenodd" stroke="rgb(0,0,0)" stroke-opacity="0" stroke-width="3" />
</svg>
