<svg viewBox="0 0 80 80" xmlns="http://www.w3.org/2000/svg" xmlns:xlink="http://www.w3.org/1999/xlink" width="80.000000" height="80.000000" fill="none" customFrame="#000000">
	<rect id="Home" width="80.000000" height="80.000000" x="0.000000" y="0.000000" />
	<path id="path1" d="M0.00972071 39.9674C0.00972071 33.7184 -0.0121509 27.4693 0.00972071 21.2203C-0.00285159 18.1964 0.368817 15.1832 1.1158 12.2529C2.75305 6.05078 6.79305 2.3701 12.989 0.942191C16.0957 0.270959 19.2688 -0.0435276 22.4469 0.00483665C34.4304 0.00483665 46.415 0.00483665 58.4007 0.00483665C61.4276 -0.0139535 64.4458 0.332241 67.3899 1.03593C73.7733 2.59819 77.604 6.64131 79.0631 13.0028C79.7191 16.0094 80.0325 19.0806 79.9973 22.1577C79.9973 34.2704 79.9973 46.3841 79.9973 58.4989C80.0137 61.4967 79.6686 64.4855 78.9694 67.4007C77.4071 73.7872 73.3452 77.5991 66.9837 79.0582C63.8766 79.7269 60.7037 80.0414 57.5258 79.9956C45.5922 79.9956 33.6597 79.9956 21.7282 79.9956C18.6781 80.0205 15.6361 79.6796 12.6671 78.9801C6.25563 77.4178 2.40622 73.356 0.9502 66.9632C0.206565 63.7137 0.00972071 60.4548 0.00972071 57.1679C0.00972071 51.4354 0.00972071 45.7019 0.00972071 39.9674Z" fill-rule="evenodd" />
	<path id="路径" d="M44.8563 9.06012L45.2675 9.44162L69.4276 33.8323C71.2318 35.6537 72.31 38.0608 72.4771 40.6038L72.5 41.3004L72.5 61.8893C72.5 67.5472 68.0727 72.171 62.4939 72.4832L61.8919 72.5L49.1667 72.5C47.786 72.5 46.6667 71.3807 46.6667 70C46.6667 68.7344 47.6072 67.6884 48.8274 67.5228L49.1667 67.5L61.8919 67.5C64.826 67.5 67.2341 65.2456 67.4794 62.3734L67.5 61.8893L67.5 41.3004C67.5 40.006 67.0529 38.7575 66.2439 37.7617L65.8753 37.351L41.7152 12.9603C41.1916 12.4318 40.3818 12.3573 39.7777 12.7425L39.5328 12.9357L14.2146 37.3696C13.2559 38.2948 12.6622 39.5264 12.5287 40.8403L12.5 41.4077L12.5 61.8893C12.5 64.8251 14.7537 67.234 17.6242 67.4794L18.1081 67.5L28.3333 67.5L28.3333 52.351C28.3333 45.9807 33.5658 40.8333 40 40.8333C46.2198 40.8333 51.3165 45.6433 51.6494 51.7182L51.6667 52.351L51.6667 59.6302C51.6667 61.0109 50.5474 62.1302 49.1667 62.1302C47.901 62.1302 46.855 61.1897 46.6895 59.9694L46.6667 59.6302L46.6667 52.351C46.6667 48.7607 43.691 45.8333 40 45.8333C36.4768 45.8333 33.6053 48.5006 33.3516 51.8658L33.3333 52.351L33.3333 70C33.3333 71.3807 32.214 72.5 30.8333 72.5L30.68 72.49L30.5297 72.5L18.1081 72.5C12.4513 72.5 7.82885 68.0712 7.51679 62.4914L7.5 61.8893L7.5 41.4077C7.5 38.7678 8.48345 36.2317 10.2434 34.2871L10.7425 33.7717L36.0607 9.33792C38.5054 6.9786 42.316 6.8959 44.8563 9.06012Z" fill="rgb(0,0,0)" fill-rule="evenodd" />
</svg>
