<svg viewBox="0 0 80 80" xmlns="http://www.w3.org/2000/svg" xmlns:xlink="http://www.w3.org/1999/xlink" width="80.000000" height="80.000000" fill="none" customFrame="#000000">
	<defs>
		<linearGradient id="paint_linear_14" x1="27.499897" x2="27.499897" y1="18.3338337" y2="51.66716" gradientUnits="userSpaceOnUse">
			<stop stop-color="rgb(226,57,33)" offset="0" stop-opacity="1" />
			<stop stop-color="rgb(176,7,6)" offset="1" stop-opacity="1" />
		</linearGradient>
		<linearGradient id="paint_linear_15" x1="14.3873014" x2="31.0737076" y1="16.7076874" y2="36.881176" gradientUnits="userSpaceOnUse">
			<stop stop-color="rgb(255,255,255)" offset="0" stop-opacity="1" />
			<stop stop-color="rgb(199,30,18)" offset="1" stop-opacity="1" />
		</linearGradient>
		<linearGradient id="paint_linear_16" x1="10.8333378" x2="10.8333378" y1="-0.3859258" y2="32.2189674" gradientUnits="userSpaceOnUse">
			<stop stop-color="rgb(220,51,30)" offset="0" stop-opacity="1" />
			<stop stop-color="rgb(180,11,8)" offset="1" stop-opacity="1" />
		</linearGradient>
	</defs>
	<rect id="华为开源镜像站 1" width="80.000000" height="80.000000" x="0.000000" y="0.000000" />
	<rect id="2.5D 服务图标/其他服务/华为开源镜像站" width="80.000000" height="80.000000" x="0.000000" y="0.000000" />
	<rect id="矩形" width="80.000000" height="80.000000" x="0.000000" y="0.000000" opacity="0" fill="rgb(216,216,216)" />
	<rect id="矩形" width="76.250000" height="76.250000" x="1.875000" y="1.875000" opacity="0" stroke="rgb(151,151,151)" stroke-opacity="0" stroke-width="3" />
	<path id="路径" d="M66.6289 8.33398C69.3637 8.33398 71.6667 10.637 71.6667 13.3719L71.6667 50.5082C71.6667 52.9552 70.0834 55.834 67.9244 56.9855L43.7425 70.8036C42.735 71.3795 41.4395 71.6674 40.0001 71.6674C38.5607 71.6674 37.2652 71.3795 36.2576 70.8036L12.0759 56.9855C9.91676 55.69 8.33344 52.9552 8.33344 50.5082L8.33344 13.3719C8.33344 10.637 10.6365 8.33398 13.3714 8.33398L66.6289 8.33398Z" fill="rgb(253,222,221)" fill-rule="evenodd" />
	<path id="路径" d="M67.9244 56.9855C70.0834 55.834 71.6667 52.9552 71.6667 50.5082L71.6667 13.3719C71.6667 10.637 69.3637 8.33398 66.6289 8.33398L13.3714 8.33398C10.6365 8.33398 8.33344 10.637 8.33344 13.3719L8.33344 50.5082C8.33344 52.9552 9.91676 55.69 12.0759 56.9855L36.2576 70.8036C37.2652 71.3795 38.5607 71.6674 40.0001 71.6674C41.4395 71.6674 42.735 71.3795 43.7425 70.8036L67.9244 56.9855ZM67.9125 13.2744C67.9153 13.3067 67.9167 13.3392 67.9167 13.3719L67.9167 50.5082C67.9167 50.7599 67.872 51.0412 67.7824 51.352C67.6814 51.7023 67.536 52.0442 67.3463 52.3775C67.1597 52.7052 66.95 52.9902 66.7171 53.2324C66.5235 53.4336 66.3377 53.5817 66.1596 53.6766L66.1114 53.7025L41.882 67.5477C41.7041 67.6494 41.476 67.7321 41.1976 67.7957C40.8429 67.8768 40.4437 67.9174 40.0001 67.9174C39.5565 67.9174 39.1573 67.8768 38.8025 67.7957C38.5242 67.7321 38.2961 67.6494 38.1182 67.5477L13.9364 53.7296C13.743 53.613 13.5314 53.4334 13.3015 53.1909C13.052 52.9278 12.832 52.6314 12.6415 52.3018C12.4534 51.9764 12.3105 51.6473 12.2128 51.3145C12.1266 51.0206 12.0834 50.7518 12.0834 50.5082L12.0834 13.3719C12.0834 13.3393 12.0849 13.3068 12.0877 13.2745C12.0984 13.1527 12.1292 13.0326 12.1801 12.9144C12.1911 12.8889 12.2028 12.8638 12.2153 12.8391C12.2816 12.7082 12.3693 12.5882 12.4785 12.479C12.5877 12.3698 12.7077 12.2821 12.8386 12.2159C12.8633 12.2034 12.8883 12.1917 12.9137 12.1807C13.0321 12.1298 13.1521 12.0989 13.2739 12.0882C13.3062 12.0854 13.3387 12.084 13.3714 12.084L66.6289 12.084C66.6615 12.084 66.6939 12.0854 66.7262 12.0882C66.8481 12.0989 66.9681 12.1297 67.0864 12.1807C67.1119 12.1917 67.137 12.2034 67.1618 12.2159C67.2926 12.2822 67.4126 12.3699 67.5217 12.479C67.6309 12.5882 67.7186 12.7082 67.7849 12.8391C67.7974 12.8638 67.8091 12.8889 67.8201 12.9144C67.871 13.0326 67.9018 13.1526 67.9125 13.2744Z" fill="rgb(199,0,11)" fill-opacity="0" fill-rule="evenodd" />
	<path id="矩形" d="M19.3548 18.7473L36.3548 21.3627C37.493 21.5378 38.3333 22.5173 38.3333 23.669L38.3333 46.332C38.3333 47.4837 37.493 48.4631 36.3548 48.6382L19.3548 51.2536C17.9413 51.4711 16.6666 50.3775 16.6666 48.9475L16.6666 21.0536C16.6666 19.6235 17.9413 18.53 19.3548 18.7473Z" fill="url(#paint_linear_14)" fill-rule="evenodd" />
	<path id="矩形" d="M36.3548 21.3627L19.3548 18.7473C17.9413 18.53 16.6666 19.6235 16.6666 21.0536L16.6666 48.9475C16.6666 50.3775 17.9413 51.4711 19.3548 51.2536L36.3548 48.6382C37.493 48.4631 38.3333 47.4837 38.3333 46.332L38.3333 23.669C38.3333 22.5173 37.493 21.5378 36.3548 21.3627ZM34.5833 24.8843L20.4166 22.7048L20.4166 47.2961L34.5833 45.1166L34.5833 24.8843Z" fill="url(#paint_linear_15)" fill-opacity="0" fill-rule="evenodd" />
	<path id="矩形备份" d="M2.68814 0.0276337L19.6881 2.64302C20.8264 2.81814 21.6666 3.79755 21.6666 4.94922L21.6666 27.6123C21.6666 28.764 20.8264 29.7433 19.6881 29.9184L2.68814 32.5338C1.2747 32.7513 0 31.6577 0 30.2277L0 2.33384C0 0.903762 1.2747 -0.189818 2.68814 0.0276337Z" fill="rgb(248,134,127)" fill-rule="evenodd" transform="matrix(-1,0,0,1,63.3334,18.7197)" />
	<path id="矩形备份" d="M0 3.49607L0 2.33384C0 1.97631 0.0796685 1.63984 0.221256 1.3396L2.33596 2.3369L1.67181 0.0951381C1.99009 0.000848062 2.33477 -0.0267294 2.68814 0.0276331L3.75064 0.191096L3.34715 2.81376L3.613 2.93915C3.6682 2.82211 3.70672 2.70211 3.72855 2.57915C3.74285 2.49865 3.75 2.41688 3.75 2.33384L3.75 3.49607L3.24218 3.49607L3.18042 3.89749L2.11791 3.73402C2.19999 3.74665 2.28189 3.75202 2.36363 3.75014C2.48848 3.74725 2.61295 3.72742 2.73703 3.69066L2.67938 3.49607L0 3.49607ZM0 8.14505L0 5.82056L3.75 5.82056L3.75 8.14505L0 8.14505ZM0 12.7941L0 10.4695L3.75 10.4695L3.75 12.7941L0 12.7941ZM0 17.443L0 15.1185L3.75 15.1185L3.75 17.443L0 17.443ZM0 22.092L0 19.7675L3.75 19.7675L3.75 22.092L0 22.092ZM0 26.741L0 24.4165L3.75 24.4165L3.75 26.741L0 26.741ZM0.221256 31.2218C0.0796685 30.9217 0 30.5852 0 30.2277L0 29.0655L2.67938 29.0655L2.73703 28.8708C2.61291 28.8341 2.4884 28.8142 2.3635 28.8113C2.28181 28.8095 2.19995 28.8149 2.11791 28.8275L3.18041 28.664L3.24218 29.0655L3.75 29.0655L3.75 30.2277C3.75 30.1446 3.74285 30.0628 3.72855 29.9823C3.70671 29.8593 3.66819 29.7393 3.613 29.6223L3.34715 29.7477L3.75064 32.3703L2.68814 32.5338C2.33477 32.5882 1.99009 32.5606 1.67181 32.4663L2.33596 30.2246L0.221256 31.2218ZM8.00064 31.7166L5.87564 32.0435L5.30541 28.3371L7.43041 28.0102L8.00064 31.7166ZM12.2506 31.0627L10.1256 31.3896L9.55541 27.6832L11.6804 27.3563L12.2506 31.0627ZM16.5006 30.4088L14.3756 30.7358L13.8054 27.0293L15.9304 26.7025L16.5006 30.4088ZM20.4775 29.6462C20.2386 29.7806 19.9728 29.8747 19.6881 29.9185L18.6256 30.082L18.1788 27.177L18.008 27.1127C17.9732 27.2054 17.9483 27.2996 17.9334 27.3953C17.9222 27.4667 17.9166 27.5391 17.9166 27.6123L17.9166 26.4791L18.0714 26.4791L18.0554 26.3756L19.1179 26.2121C19.0456 26.2232 18.9751 26.2396 18.9062 26.2615C18.8138 26.2908 18.7245 26.3297 18.6381 26.3783L18.6947 26.4791L21.6666 26.4791L21.6666 27.6123C21.6666 27.9002 21.6141 28.1773 21.5176 28.4338L19.332 27.6111L20.4775 29.6462ZM21.6666 21.9465L21.6666 24.2128L17.9166 24.2128L17.9166 21.9465L21.6666 21.9465ZM21.6666 17.4139L21.6666 19.6802L17.9166 19.6802L17.9166 17.4139L21.6666 17.4139ZM21.6666 12.8813L21.6666 15.1476L17.9166 15.1476L17.9166 12.8813L21.6666 12.8813ZM21.6666 8.34867L21.6666 10.615L17.9166 10.615L17.9166 8.34867L21.6666 8.34867ZM21.5176 4.12764C21.6141 4.38415 21.6666 4.6613 21.6666 4.94922L21.6666 6.08238L18.6947 6.08238L18.638 6.18316C18.7243 6.23175 18.8137 6.2707 18.9062 6.3C18.9751 6.32183 19.0456 6.3383 19.1179 6.34941L18.0554 6.18595L18.0714 6.08238L17.9166 6.08238L17.9166 4.94922C17.9166 5.0224 17.9222 5.09472 17.9334 5.16617C17.9483 5.26193 17.9732 5.35612 18.008 5.44877L18.1788 5.38451L18.6256 2.47956L19.6881 2.64301C19.9728 2.6868 20.2386 2.78085 20.4775 2.91529L19.332 4.95039L21.5176 4.12764ZM14.3756 1.82571L16.5006 2.15264L15.9304 5.85903L13.8054 5.5321L14.3756 1.82571ZM10.1256 1.17186L12.2506 1.49879L11.6804 5.20519L9.55542 4.87826L10.1256 1.17186ZM5.87564 0.518018L8.00064 0.844942L7.43043 4.55134L5.30542 4.22441L5.87564 0.518018Z" fill="url(#paint_linear_16)" fill-opacity="0" fill-rule="evenodd" transform="matrix(-1,0,0,1,63.3334,18.7197)" />
</svg>
