<svg viewBox="0 0 80 80" xmlns="http://www.w3.org/2000/svg" xmlns:xlink="http://www.w3.org/1999/xlink" width="80.000000" height="80.000000" fill="none" customFrame="#000000">
	<rect id="项目首字母图标/I-48px*48px" width="80.000000" height="80.000000" x="0.000000" y="0.000000" />
	<rect id="矩形" width="80.000000" height="80.000000" x="0.000000" y="0.000000" opacity="0" fill="rgb(216,216,216)" />
	<rect id="矩形" width="77.000000" height="77.000000" x="1.500000" y="1.500000" opacity="0" stroke="rgb(151,151,151)" stroke-opacity="0" stroke-width="3" />
	<g id="i">
		<rect id="Rectangle" width="13.888888" height="22.222221" x="33.055786" y="31.666748" fill="rgb(108,163,244)" />
		<rect id="Rectangle" width="33.333332" height="13.888888" x="23.333374" y="12.222168" fill="rgb(218,95,95)" />
		<rect id="Rectangle Copy 7" width="33.333332" height="13.888888" x="23.333374" y="53.888916" fill="rgb(178,126,245)" />
		<rect id="Rectangle" width="13.888888" height="5.555555" x="33.055786" y="12.222168" fill="rgb(84,59,186)" />
		<rect id="Rectangle Copy 11" width="13.888888" height="5.555555" x="33.055786" y="20.555664" fill="rgb(36,95,155)" />
		<rect id="Rectangle Copy 8" width="13.888888" height="5.555555" x="33.055786" y="62.222168" fill="rgb(84,59,186)" />
		<rect id="Rectangle Copy 12" width="13.888888" height="5.555555" x="33.055786" y="53.888916" fill="rgb(36,95,155)" />
		<rect id="Rectangle" width="2.777778" height="5.555555" x="38.610840" y="20.555664" fill="rgb(255,255,255)" />
		<rect id="Rectangle" width="-0.222222" height="2.555555" x="40.110840" y="22.055664" stroke="rgb(151,151,151)" stroke-opacity="0" stroke-width="3" />
		<rect id="Rectangle Copy 10" width="2.777778" height="22.222221" x="38.610840" y="37.222168" fill="rgb(255,255,255)" />
		<rect id="Rectangle Copy 10" width="-0.222222" height="19.222221" x="40.110840" y="38.722168" stroke="rgb(151,151,151)" stroke-opacity="0" stroke-width="3" />
		<rect id="Rectangle" width="33.333332" height="2.777778" x="23.333374" y="17.777832" fill="rgb(255,255,255)" />
		<rect id="Rectangle" width="30.333332" height="-0.222222" x="24.833374" y="19.277832" stroke="rgb(151,151,151)" stroke-opacity="0" stroke-width="3" />
		<rect id="Rectangle Copy 9" width="33.333332" height="2.777778" x="23.333374" y="59.444336" fill="rgb(255,255,255)" />
		<rect id="Rectangle Copy 9" width="30.333332" height="-0.222222" x="24.833374" y="60.944336" stroke="rgb(151,151,151)" stroke-opacity="0" stroke-width="3" />
	</g>
</svg>
