<svg viewBox="0 0 74 74" xmlns="http://www.w3.org/2000/svg" xmlns:xlink="http://www.w3.org/1999/xlink" width="74.000000" height="74.000000" fill="none">
	<rect id="ic_square_lined" width="74.000000" height="74.000000" x="0.000000" y="0.000000" />
	<rect id="HotSpot" width="74.000000" height="74.000000" x="0.000000" y="0.000000" opacity="0" />
	<path id="形状结合备份-2" d="M28.1354 38.9271C31.9656 38.9271 35.0729 42.0344 35.0729 45.8646L35.0729 57.8156C35.0729 61.6456 31.9657 64.75 28.1354 64.75L16.1844 64.75C12.3543 64.75 9.25 61.6457 9.25 57.8156L9.25 45.8646C9.25 42.0343 12.3544 38.9271 16.1844 38.9271L28.1354 38.9271ZM57.8125 38.9271C61.6427 38.9271 64.75 42.0344 64.75 45.8646L64.75 57.8156C64.75 61.6456 61.6428 64.75 57.8125 64.75L45.8615 64.75C42.0313 64.75 38.9271 61.6457 38.9271 57.8156L38.9271 45.8646C38.9271 42.0343 42.0314 38.9271 45.8615 38.9271L57.8125 38.9271ZM28.1354 43.5521L16.1844 43.5521C14.9096 43.5521 13.875 44.5877 13.875 45.8646L13.875 57.8156C13.875 59.0914 14.9086 60.125 16.1844 60.125L28.1354 60.125C29.4123 60.125 30.4479 59.0904 30.4479 57.8156L30.4479 45.8646C30.4479 44.5887 29.4113 43.5521 28.1354 43.5521ZM57.8125 43.5521L45.8615 43.5521C44.5867 43.5521 43.5521 44.5877 43.5521 45.8646L43.5521 57.8156C43.5521 59.0914 44.5857 60.125 45.8615 60.125L57.8125 60.125C59.0894 60.125 60.125 59.0904 60.125 57.8156L60.125 45.8646C60.125 44.5887 59.0883 43.5521 57.8125 43.5521ZM28.1354 9.25C31.9656 9.25 35.0729 12.3573 35.0729 16.1875L35.0729 28.1385C35.0729 31.9685 31.9657 35.0729 28.1354 35.0729L16.1844 35.0729C12.3543 35.0729 9.25 31.9687 9.25 28.1385L9.25 16.1875C9.25 12.3572 12.3544 9.25 16.1844 9.25L28.1354 9.25ZM57.811 9.25C60.0984 9.25 62.2019 10.3663 63.4899 12.2009C64.2238 13.2462 63.9713 14.6884 62.9261 15.4223C61.9758 16.0894 60.6975 15.9414 59.9215 15.1237C59.5526 14.5981 58.7704 13.9858 58.1343 13.8973L57.811 13.875L45.863 13.875C44.6907 13.875 43.7245 14.7435 43.5716 15.8733L43.5505 16.1875L43.5505 28.1354C43.5505 29.3061 44.4201 30.2737 45.5491 30.4268L45.863 30.4479L57.811 30.4479C58.9821 30.4479 59.9493 29.5779 60.1024 28.4492L60.1235 28.1354L60.1235 21.2561C60.1235 19.9789 61.1588 18.9436 62.436 18.9436C63.6067 18.9436 64.5742 19.8135 64.7273 20.9423L64.7485 21.2561L64.7485 28.1354C64.7485 31.8068 61.8967 34.8128 58.286 35.0569L57.811 35.0729L45.863 35.0729C42.1903 35.0729 39.1856 32.2199 38.9415 28.6103L38.9255 28.1354L38.9255 16.1875C38.9255 12.514 41.7765 9.50995 45.3879 9.266L45.863 9.25L57.811 9.25ZM28.1354 13.875L16.1844 13.875C14.9096 13.875 13.875 14.9106 13.875 16.1875L13.875 28.1385C13.875 29.4143 14.9086 30.4479 16.1844 30.4479L28.1354 30.4479C29.4123 30.4479 30.4479 29.4133 30.4479 28.1385L30.4479 16.1875C30.4479 14.9117 29.4113 13.875 28.1354 13.875Z" fill="rgb(0,0,0)" fill-rule="evenodd" />
</svg>
