<svg viewBox="0 0 80 80" xmlns="http://www.w3.org/2000/svg" xmlns:xlink="http://www.w3.org/1999/xlink" width="80.000000" height="80.000000" fill="none" customFrame="#000000">
	<rect id="项目首字母图标/J-48px*48px" width="80.000000" height="80.000000" x="0.000000" y="0.000000" />
	<rect id="矩形" width="80.000000" height="80.000000" x="0.000000" y="0.000000" opacity="0" fill="rgb(216,216,216)" />
	<rect id="矩形" width="77.000000" height="77.000000" x="1.500000" y="1.500000" opacity="0" stroke="rgb(151,151,151)" stroke-opacity="0" stroke-width="3" />
	<g id="j">
		<path id="Path" d="M60.8336 26.1111L60.8336 49.7222C60.8336 59.5515 52.9792 67.5464 43.2043 67.7728L42.7781 67.7777L37.2225 67.7777L37.2225 53.8889L42.7781 53.8889C44.9971 53.8889 46.811 52.1543 46.9377 49.967L46.9448 49.7222L46.9448 26.1111L60.8336 26.1111Z" fill="rgb(85,203,170)" fill-rule="evenodd" />
		<rect id="Rectangle" width="13.888888" height="13.888888" x="17.777466" y="53.888916" fill="rgb(218,95,95)" />
		<rect id="Rectangle" width="13.888888" height="33.333332" x="46.944214" y="12.222168" fill="rgb(218,95,95)" />
		<rect id="Rectangle" width="13.888888" height="13.888888" x="46.944214" y="12.222168" fill="rgb(85,203,170)" />
		<rect id="Rectangle" width="13.888888" height="13.888888" x="33.055786" y="12.222168" fill="rgb(108,163,244)" />
		<rect id="Rectangle" width="18.055555" height="2.777778" x="38.610840" y="17.777832" fill="rgb(255,255,255)" />
		<rect id="Rectangle" width="15.055555" height="-0.222222" x="40.110840" y="19.277832" stroke="rgb(151,151,151)" stroke-opacity="0" stroke-width="3" />
		<rect id="Rectangle" width="4.166667" height="27.777777" x="56.666626" y="12.222168" fill="rgb(255,143,206)" />
		<rect id="Rectangle Copy 13" width="4.166667" height="27.777777" x="60.833374" y="12.222168" fill="rgb(234,216,131)" />
		<path id="Path" d="M55.2775 26.1111L55.2775 49.7222C55.2775 56.5025 49.8791 62.0219 43.146 62.2169L42.7775 62.2222L42.7775 59.4444C48.035 59.4444 52.3179 55.2711 52.494 50.0564L52.4997 49.7222L52.4997 26.1111L55.2775 26.1111Z" fill="rgb(255,255,255)" fill-rule="evenodd" />
		<path id="Path" d="M45.7775 61.8599C44.931 62.0684 44.0505 62.1907 43.146 62.2169L42.7775 62.2222L42.7775 59.4444C48.035 59.4444 52.3179 55.2711 52.494 50.0564L52.4997 49.7222L52.4997 26.1111L55.2775 26.1111L55.2775 49.7222C55.2775 55.5916 51.2321 60.5162 45.7775 61.8599Z" fill="rgb(151,151,151)" fill-opacity="0" fill-rule="evenodd" />
	</g>
</svg>
