<svg viewBox="0 0 80 80" xmlns="http://www.w3.org/2000/svg" xmlns:xlink="http://www.w3.org/1999/xlink" width="80.000000" height="80.000000" fill="none" customFrame="#000000">
	<rect id="关联工作项" width="80.000000" height="80.000000" x="0.000000" y="0.000000" fill="rgb(255,255,255)" fill-opacity="0" />
	<path id="形状结合" d="M20 5L50 5L70 25L70 65C70 70.5229 65.5228 75 60 75L20 75C14.4772 75 10 70.5229 10 65L10 15C10 9.47715 14.4772 5 20 5ZM47.5 10L20 10C19.5868 10 19.1855 10.048 18.7961 10.1441C18.5442 10.2063 18.2973 10.2885 18.0553 10.3909C17.7933 10.5017 17.5442 10.6327 17.3081 10.7839C17.0057 10.9776 16.7245 11.2045 16.4645 11.4645C16.2045 11.7245 15.9776 12.0057 15.7839 12.3081C15.6327 12.5442 15.5017 12.7933 15.3909 13.0553C15.2885 13.2973 15.2063 13.5442 15.1441 13.7961C15.048 14.1855 15 14.5868 15 15L15 65C15 65.4132 15.0481 65.8145 15.1442 66.204C15.2063 66.4559 15.2885 66.7028 15.3909 66.9447C15.5017 67.2067 15.6327 67.4558 15.7839 67.6919C15.9776 67.9943 16.2045 68.2755 16.4645 68.5355C16.7245 68.7955 17.0057 69.0224 17.3082 69.2161C17.5443 69.3673 17.7933 69.4983 18.0553 69.6091C18.2973 69.7115 18.5442 69.7937 18.7961 69.8559C19.1856 69.952 19.5869 70 20 70L60 70C60.4131 70 60.8144 69.952 61.2038 69.8559C61.4556 69.7938 61.7028 69.7114 61.9447 69.6091C62.2066 69.4984 62.4555 69.3674 62.6916 69.2163C62.9941 69.0225 63.2754 68.7956 63.5355 68.5355C63.7955 68.2756 64.0223 67.9944 64.216 67.6919C64.3673 67.4558 64.4983 67.2067 64.6091 66.9447C64.7115 66.7027 64.7937 66.4557 64.8559 66.2038C64.952 65.8144 65 65.4131 65 65L65 27.5L55 27.5C54.4556 27.5 53.9235 27.4435 53.4037 27.3305C52.9533 27.2326 52.5118 27.0923 52.0799 26.9096C51.6497 26.7276 51.2431 26.5099 50.8603 26.2563C50.4446 25.9809 50.0565 25.6631 49.6967 25.3033C49.337 24.9436 49.0195 24.556 48.7442 24.1404C48.4906 23.7575 48.2724 23.3504 48.0904 22.9201C47.9078 22.4885 47.7676 22.0476 47.6697 21.5976C47.5567 21.0777 47.5 20.5444 47.5 20L47.5 10ZM60.4289 22.5L52.5 14.5711L52.5 20C52.5 20.3452 52.561 20.6651 52.6831 20.9597C52.8051 21.2544 52.9882 21.5237 53.2322 21.7678C53.4763 22.0118 53.7456 22.1948 54.0402 22.3169C54.3348 22.4389 54.6548 22.5 55 22.5L60.4289 22.5ZM42.5 32.5L22.5 32.5C21.1 32.5 20 33.6 20 35C20 36.4 21.1 37.5 22.5 37.5L42.5 37.5C43.9 37.5 45 36.4 45 35C45 33.6 43.9 32.5 42.5 32.5ZM22.5 47.4608L57.6318 47.4608C59.0318 47.4608 60.1318 48.5608 60.1318 49.9608C60.1318 51.3608 59.0318 52.4608 57.6318 52.4608L22.5 52.4608C21.1 52.4608 20 51.3608 20 49.9608C20 48.5608 21.1 47.4608 22.5 47.4608Z" fill="rgb(0,0,0)" fill-rule="evenodd" />
</svg>
