<svg viewBox="0 0 80 80" xmlns="http://www.w3.org/2000/svg" xmlns:xlink="http://www.w3.org/1999/xlink" width="80.000000" height="80.000000" fill="none" customFrame="#000000">
	<rect id="框类/region" width="80.000000" height="80.000000" x="0.000000" y="0.000000" />
	<path id="Fill" d="M39.9998 5C24.8197 5.01846 12.5183 17.3198 12.4998 32.5C12.4912 38.4582 14.4377 44.2546 18.0406 49C18.0406 49 18.7906 49.9863 18.9111 50.1292L39.9998 75L61.0973 50.1185C61.2083 49.9853 61.9591 48.999 61.9591 48.999L61.9628 48.993C65.5636 44.2494 67.5087 38.4555 67.4998 32.5C67.4814 17.3198 55.18 5.01846 39.9998 5ZM50 32.5C50 26.9772 45.5228 22.5 40 22.5C34.4771 22.5 30 26.9772 30 32.5C30 38.0229 34.4771 42.5 40 42.5C45.5228 42.5 50 38.0229 50 32.5Z" fill="rgb(25,25,25)" fill-rule="evenodd" />
</svg>
