<svg viewBox="0 0 80 80" xmlns="http://www.w3.org/2000/svg" xmlns:xlink="http://www.w3.org/1999/xlink" width="80.000000" height="80.000000" fill="none">
	<rect id="成员" width="80.000000" height="80.000000" x="0.000000" y="0.000000" />
	<path id="形状结合" d="M28.6939 44.1695L51.3061 44.1695L52.58 44.1776L54.8503 44.218L56.7925 44.299C60.0831 44.4902 61.9728 44.9334 63.8548 45.8923C66.503 47.2417 68.7112 49.3055 70.2354 51.8399L70.8726 53.0075L71.3088 53.9742L71.5965 54.7647L71.9365 56.0544L72.1803 57.5656L72.2969 58.7497L72.3821 60.1129L72.4405 61.6872L72.4766 63.5051L72.5 70C72.5 71.2273 71.6156 72.248 70.4494 72.4597L10 72.5C8.77217 72.5 7.75118 71.6149 7.54004 70.4481L7.5109 64.0867L7.55137 61.8164L7.6323 59.8742C7.82358 56.5836 8.26679 54.6939 9.22573 52.8119C10.7437 49.8326 13.166 47.4103 16.1452 45.8923C17.9931 44.9508 19.8482 44.5065 23.0294 44.3096L24.1408 44.2528L26.2407 44.1933L28.6939 44.1695ZM51.2975 49.1695L28.7112 49.1695L25.596 49.2086L23.9159 49.27L23.1796 49.313L21.8892 49.4272C20.3172 49.6058 19.3032 49.8949 18.4151 50.3473C16.3767 51.386 14.7194 53.0433 13.6808 55.0818C13.364 55.7034 13.1274 56.3868 12.9526 57.2797L12.8328 57.9911L12.6986 59.1711L12.6464 59.8445L12.5687 61.3833L12.5097 64.2475L12.5 67.5L67.5 67.5L67.4865 64.4962L67.4361 61.7062L67.3351 59.5646L67.233 58.4301L67.0982 57.4832L66.9733 56.8719L66.826 56.3267L66.5921 55.673L66.3193 55.0818C65.2807 53.0434 63.6233 51.386 61.5849 50.3474C60.8745 49.9854 60.0834 49.728 58.9911 49.548L58.1119 49.4272L56.8226 49.313L56.087 49.27L53.4557 49.1892L51.2975 49.1695ZM40 7.5C47.824 7.5 54.1667 13.8426 54.1667 21.6667C54.1667 29.4907 47.824 35.8333 40 35.8333C32.176 35.8333 25.8333 29.4907 25.8333 21.6667C25.8333 13.8426 32.176 7.5 40 7.5ZM40 12.5C34.9374 12.5 30.8333 16.6041 30.8333 21.6667C30.8333 26.7293 34.9374 30.8333 40 30.8333C45.0626 30.8333 49.1667 26.7293 49.1667 21.6667C49.1667 16.6041 45.0626 12.5 40 12.5Z" fill="rgb(0,0,0)" fill-rule="evenodd" />
	<path id="形状结合" d="M51.3061 44.1695L52.58 44.1776L54.8503 44.218L56.7925 44.299C60.0831 44.4902 61.9728 44.9334 63.8548 45.8923C66.503 47.2417 68.7112 49.3055 70.2354 51.8399L70.8726 53.0075L71.3088 53.9742L71.5965 54.7647L71.9365 56.0544L72.1803 57.5656L72.2969 58.7497L72.3821 60.1129L72.4405 61.6872L72.4766 63.5051L72.5 70C72.5 71.2273 71.6156 72.248 70.4494 72.4597L10 72.5C8.77217 72.5 7.75118 71.6149 7.54004 70.4481L7.5109 64.0867L7.55137 61.8164L7.6323 59.8742C7.82358 56.5836 8.26679 54.6939 9.22573 52.8119C10.7437 49.8326 13.166 47.4103 16.1452 45.8923C17.9931 44.9508 19.8482 44.5065 23.0294 44.3096L24.1408 44.2528L26.2407 44.1933L28.6939 44.1695L51.3061 44.1695ZM28.7112 49.1695L25.596 49.2086L23.9159 49.27L23.1796 49.313L21.8892 49.4272C20.3172 49.6058 19.3032 49.8949 18.4151 50.3473C16.3767 51.386 14.7194 53.0433 13.6808 55.0818C13.364 55.7034 13.1274 56.3868 12.9526 57.2797L12.8328 57.9911L12.6986 59.1711L12.6464 59.8445L12.5687 61.3833L12.5097 64.2475L12.5 67.5L67.5 67.5L67.4865 64.4962L67.4361 61.7062L67.3351 59.5646L67.233 58.4301L67.0982 57.4832L66.9733 56.8719L66.826 56.3267L66.5921 55.673L66.3193 55.0818C65.2807 53.0434 63.6233 51.386 61.5849 50.3474C60.8745 49.9854 60.0834 49.728 58.9911 49.548L58.1119 49.4272L56.8226 49.313L56.087 49.27L53.4557 49.1892L51.2975 49.1695L28.7112 49.1695ZM54.1667 21.6667C54.1667 29.4907 47.824 35.8333 40 35.8333C32.176 35.8333 25.8333 29.4907 25.8333 21.6667C25.8333 13.8426 32.176 7.5 40 7.5C47.824 7.5 54.1667 13.8426 54.1667 21.6667ZM30.8333 21.6667C30.8333 26.7293 34.9374 30.8333 40 30.8333C45.0626 30.8333 49.1667 26.7293 49.1667 21.6667C49.1667 16.6041 45.0626 12.5 40 12.5C34.9374 12.5 30.8333 16.6041 30.8333 21.6667Z" fill-rule="evenodd" stroke="rgb(0,0,0)" stroke-opacity="0" stroke-width="3" />
</svg>
