<svg viewBox="0 0 80 80" xmlns="http://www.w3.org/2000/svg" xmlns:xlink="http://www.w3.org/1999/xlink" width="80.000000" height="80.000000" fill="none" customFrame="#000000">
	<rect id="菜单 1" width="80.000000" height="80.000000" x="0.000000" y="0.000000" />
	<rect id="操作图标/菜单" width="80.000000" height="80.000000" x="0.000000" y="0.000000" fill="rgb(255,255,255)" fill-opacity="0" />
	<path id="形状结合" d="M11.499 12.5C10.1183 12.5 8.99902 13.6193 8.99902 15C8.99902 16.3807 10.1183 17.5001 11.499 17.5001C12.8797 17.5001 13.999 16.3807 13.999 15C13.999 13.6193 12.8797 12.5 11.499 12.5ZM21.4991 15C21.4991 16.4 22.599 17.5001 23.999 17.5001L68.999 17.5001C70.399 17.5001 71.4991 16.4 71.4991 15C71.4991 13.6 70.399 12.5 68.999 12.5L23.999 12.5C22.599 12.5 21.4991 13.6 21.4991 15ZM8.99902 40C8.99902 38.6193 10.1183 37.5001 11.499 37.5001C12.8797 37.5001 13.999 38.6193 13.999 40C13.999 41.3807 12.8797 42.4999 11.499 42.4999C10.1183 42.4999 8.99902 41.3807 8.99902 40ZM23.999 42.4999L68.999 42.4999C70.399 42.4999 71.4991 41.4 71.4991 40C71.4991 38.6 70.399 37.5001 68.999 37.5001L23.999 37.5001C22.599 37.5001 21.4991 38.6 21.4991 40C21.4991 41.4 22.599 42.4999 23.999 42.4999ZM11.499 62.4999C10.1183 62.4999 8.99902 63.6193 8.99902 65C8.99902 66.3807 10.1183 67.5001 11.499 67.5001C12.8797 67.5001 13.999 66.3807 13.999 65C13.999 63.6193 12.8797 62.4999 11.499 62.4999ZM68.999 62.4999L23.999 62.4999C22.599 62.4999 21.4991 63.6 21.4991 65C21.4991 66.4 22.599 67.5001 23.999 67.5001L68.999 67.5001C70.399 67.5001 71.4991 66.4 71.4991 65C71.4991 63.6 70.399 62.4999 68.999 62.4999Z" fill="rgb(0,0,0)" fill-rule="evenodd" />
</svg>
