<svg viewBox="0 0 80 80" xmlns="http://www.w3.org/2000/svg" xmlns:xlink="http://www.w3.org/1999/xlink" width="80.000000" height="80.000000" fill="none">
	<rect id="合并请求" width="80.000000" height="80.000000" x="0.000000" y="0.000000" />
	<rect id="ic_dev_merge_request-合并/base/ic_public_merge_request" width="80.000000" height="80.000000" x="0.000000" y="0.000000" fill="rgb(255,255,255)" fill-opacity="0" />
	<path id="path1" d="M-3.88818e-05 39.9667C-3.88818e-05 33.7167 -0.0167055 27.4667 -3.88818e-05 21.2167C-0.0167055 18.1833 0.366628 15.1667 1.09996 12.25C2.74996 6.04999 6.7833 2.36666 12.9833 0.933325C16.0833 0.266659 19.2666 -0.0500079 22.4333 -7.90786e-06C34.4166 -7.90786e-06 46.4 -7.90786e-06 58.4 -7.90786e-06C61.4166 -0.0166746 64.4333 0.316659 67.3833 1.03333C73.7666 2.58333 77.6 6.63333 79.05 13C79.7166 16 80.0166 19.0667 79.9833 22.15C79.9833 34.2667 79.9833 46.3833 79.9833 58.4833C80 61.4833 79.6666 64.4833 78.9666 67.4C77.4 73.7833 73.3333 77.5833 66.9833 79.05C63.8666 79.7167 60.7 80.0333 57.5166 79.9833C45.5833 79.9833 33.65 79.9833 21.7166 79.9833C18.6666 80.0166 15.6333 79.6667 12.6666 78.9667C6.24996 77.4167 2.39996 73.35 0.949961 66.95C0.199961 63.7 -3.88818e-05 60.45 -3.88818e-05 57.1667C-3.88818e-05 51.4333 -3.88818e-05 45.7 -3.88818e-05 39.9667Z" fill="rgb(255,255,255)" fill-opacity="0" fill-rule="evenodd" />
	<circle id="path2" cx="40" cy="40" r="40" fill="rgb(255,255,255)" fill-opacity="0" />
	<path id="path3" d="M15 23.3333L15 57.5M35 15L55 15C60.5167 15 65 19.4667 65 25L65 57.5" fill-rule="nonzero" stroke="rgb(25,25,25)" stroke-width="3" />
	<path id="path4" d="M45 5L36.2834 13.7C35.5834 14.4 35.6334 15.5333 36.4 16.1667L45 23.3333" fill-rule="nonzero" stroke="rgb(25,25,25)" stroke-linecap="round" stroke-width="3" />
	<circle id="path5" cx="65.833374" cy="65.833313" r="7.5" fill="rgb(255,255,255)" fill-opacity="0" />
	<circle id="path5" cx="65.833374" cy="65.833313" r="7.5" stroke="rgb(25,25,25)" stroke-width="3" />
	<circle id="path6" cx="14.999999" cy="14.999999" r="7.49999905" fill="rgb(255,255,255)" fill-opacity="0" />
	<circle id="path6" cx="14.999999" cy="14.999999" r="7.49999905" stroke="rgb(25,25,25)" stroke-width="3" />
	<ellipse id="path7" rx="7.499998" ry="7.500000" cx="15.8333721" cy="65.833313" fill="rgb(255,255,255)" fill-opacity="0" />
	<ellipse id="path7" rx="7.499998" ry="7.500000" cx="15.8333721" cy="65.833313" stroke="rgb(25,25,25)" stroke-width="3" />
</svg>
