<svg viewBox="0 0 80 80" xmlns="http://www.w3.org/2000/svg" xmlns:xlink="http://www.w3.org/1999/xlink" width="80.000000" height="80.000000" fill="none">
	<rect id="最小化 1" width="80.000000" height="80.000000" x="0.000000" y="0.000000" />
	<rect id="操作图标/最小化" width="80.000000" height="80.000000" x="0.000000" y="0.000000" />
	<path id="形状结合" d="M3.42828 3.4295C2.54832 4.30945 2.54832 5.69223 3.42828 6.57219L29.6347 32.7787L10.0732 32.7787C8.82879 32.7787 7.85101 33.7564 7.85101 35.0009C7.85101 36.2453 8.82879 37.2231 10.0732 37.2231L34.9996 37.2231C35.6132 37.2231 36.137 37.0061 36.5709 36.5722C37.0048 36.1383 37.2218 35.6145 37.2218 35.0009L37.2218 10.0645C37.2218 8.82001 36.244 7.84223 34.9996 7.84223C33.7551 7.84223 32.7774 8.82001 32.7774 10.0645L32.7774 29.636L6.57099 3.4295C5.69103 2.54954 4.30823 2.54954 3.42828 3.4295ZM50.3645 47.2231L69.926 47.2231C71.1705 47.2231 72.1483 46.2453 72.1483 45.0009C72.1483 43.7564 71.1705 42.7787 69.926 42.7787L44.9996 42.7787C44.386 42.7787 43.8622 42.9956 43.4282 43.4295C42.9943 43.8635 42.7774 44.3872 42.7774 45.0009L42.7774 69.9373C42.7774 71.1818 43.7551 72.1595 44.9996 72.1595C46.244 72.1595 47.2218 71.1818 47.2218 69.9373L47.2218 50.3658L73.4283 76.5722C74.3083 77.4522 75.6909 77.4522 76.5709 76.5722C77.4509 75.6922 77.4509 74.3095 76.5709 73.4295L50.3645 47.2231Z" fill="rgb(25,25,25)" fill-rule="evenodd" />
</svg>
