<svg viewBox="0 0 80 80" xmlns="http://www.w3.org/2000/svg" xmlns:xlink="http://www.w3.org/1999/xlink" width="80.000000" height="80.000000" fill="none">
	<rect id="我创建的 1" width="80.000000" height="80.000000" x="0.000000" y="0.000000" />
	<rect id="操作图标/我创建的" width="80.000000" height="80.000000" x="0.000000" y="0.000000" />
	<path id="形状结合" d="M28.6941 44.1696L51.3061 44.1696L52.5801 44.1776L54.8503 44.218L56.7925 44.2989C60.0832 44.4902 61.9728 44.9333 63.855 45.8922C66.5032 47.2418 68.7112 49.3056 70.2354 51.84L70.8728 53.0076L71.309 53.9742L71.5965 54.7647L71.9365 56.0544L72.1803 57.5656L72.297 58.7498L72.3823 60.1129L72.4406 61.6873L72.4768 63.5051L72.5001 70C72.5001 71.2273 71.6157 72.248 70.4494 72.4598L10.0001 72.5C8.77227 72.5 7.75128 71.6149 7.54014 70.448L7.51099 64.0867L7.55148 61.8164L7.63241 59.8742C7.82368 56.5836 8.26688 54.694 9.22583 52.8118C10.7438 49.8327 13.1661 47.4102 16.1453 45.8922C17.9932 44.9509 19.8483 44.5064 23.0294 44.3096L24.1408 44.2529L26.2408 44.1933L28.6941 44.1696ZM51.2977 49.1696L28.7112 49.1696L25.5961 49.2087L23.9159 49.27L23.1797 49.3131L21.8893 49.4271C20.3173 49.6058 19.3033 49.8949 18.4153 50.3473C16.3768 51.386 14.7195 53.0433 13.6809 55.0818C13.3641 55.7033 13.1275 56.3869 12.9527 57.2798L12.8329 57.9911L12.6987 59.1711L12.6465 59.8444L12.5688 61.3833L12.5098 64.2476L12.5001 67.5L67.5001 67.5L67.4865 64.4962L67.4361 61.7062L67.3352 59.5647L67.233 58.43L67.0983 57.4831L66.9734 56.872L66.8261 56.3267L66.5921 55.6729L66.3194 55.0818C65.2808 53.0433 63.6234 51.386 61.585 50.3473C60.8745 49.9853 60.0834 49.728 58.9912 49.548L58.1121 49.4271L56.8228 49.3131L56.087 49.27L53.4559 49.1891L51.2977 49.1696ZM40.0001 7.5C47.8241 7.5 54.1668 13.8426 54.1668 21.6667C54.1668 29.4907 47.8241 35.8333 40.0001 35.8333C32.1761 35.8333 25.8334 29.4907 25.8334 21.6667C25.8334 13.8426 32.1761 7.5 40.0001 7.5ZM40.0001 12.5C34.9374 12.5 30.8334 16.604 30.8334 21.6667C30.8334 26.7293 34.9374 30.8333 40.0001 30.8333C45.0628 30.8333 49.1668 26.7293 49.1668 21.6667C49.1668 16.604 45.0628 12.5 40.0001 12.5Z" fill="rgb(0,0,0)" fill-rule="evenodd" />
	<path id="形状结合" d="M52.5801 44.1776L54.8503 44.218L56.7925 44.2989C60.0832 44.4902 61.9728 44.9333 63.855 45.8922C66.5032 47.2418 68.7112 49.3056 70.2354 51.84L70.8728 53.0076L71.309 53.9742L71.5965 54.7647L71.9365 56.0544L72.1803 57.5656L72.297 58.7498L72.3823 60.1129L72.4406 61.6873L72.4768 63.5051L72.5001 70C72.5001 71.2273 71.6157 72.248 70.4494 72.4598L10.0001 72.5C8.77227 72.5 7.75128 71.6149 7.54014 70.448L7.51099 64.0867L7.55148 61.8164L7.63241 59.8742C7.82368 56.5836 8.26688 54.694 9.22583 52.8118C10.7438 49.8327 13.1661 47.4102 16.1453 45.8922C17.9932 44.9509 19.8483 44.5064 23.0294 44.3096L24.1408 44.2529L26.2408 44.1933L28.6941 44.1696L51.3061 44.1696L52.5801 44.1776ZM25.5961 49.2087L23.9159 49.27L23.1797 49.3131L21.8893 49.4271C20.3173 49.6058 19.3033 49.8949 18.4153 50.3473C16.3768 51.386 14.7195 53.0433 13.6809 55.0818C13.3641 55.7033 13.1275 56.3869 12.9527 57.2798L12.8329 57.9911L12.6987 59.1711L12.6465 59.8444L12.5688 61.3833L12.5098 64.2476L12.5001 67.5L67.5001 67.5L67.4865 64.4962L67.4361 61.7062L67.3352 59.5647L67.233 58.43L67.0983 57.4831L66.9734 56.872L66.8261 56.3267L66.5921 55.6729L66.3194 55.0818C65.2808 53.0433 63.6234 51.386 61.585 50.3473C60.8745 49.9853 60.0834 49.728 58.9912 49.548L58.1121 49.4271L56.8228 49.3131L56.087 49.27L53.4559 49.1891L51.2977 49.1696L28.7112 49.1696L25.5961 49.2087ZM40.0001 35.8333C32.1761 35.8333 25.8334 29.4907 25.8334 21.6667C25.8334 13.8426 32.1761 7.5 40.0001 7.5C47.8241 7.5 54.1668 13.8426 54.1668 21.6667C54.1668 29.4907 47.8241 35.8333 40.0001 35.8333ZM40.0001 30.8333C45.0628 30.8333 49.1668 26.7293 49.1668 21.6667C49.1668 16.604 45.0628 12.5 40.0001 12.5C34.9374 12.5 30.8334 16.604 30.8334 21.6667C30.8334 26.7293 34.9374 30.8333 40.0001 30.8333Z" fill-rule="evenodd" stroke="rgb(0,0,0)" stroke-opacity="0" stroke-width="3" />
</svg>
