<svg viewBox="0 0 80 80" xmlns="http://www.w3.org/2000/svg" xmlns:xlink="http://www.w3.org/1999/xlink" width="80.000000" height="80.000000" fill="none">
	<rect id="我的关注" width="80.000000" height="80.000000" x="0.000000" y="0.000000" />
	<path id="形状结合" d="M42.122 7.25922C43.1811 7.75533 44.0328 8.60701 44.5289 9.66611L51.3932 24.3201L67.4512 26.3201C70.1914 26.6614 72.1361 29.1595 71.7948 31.8997C71.6503 33.0603 71.1035 34.1335 70.2495 34.9326L58.434 45.9892L61.494 61.8793C62.0162 64.5909 60.2413 67.2124 57.5297 67.7346C56.3813 67.9557 55.1917 67.7673 54.1678 67.2021L40.0011 59.3815L25.8344 67.2021C23.4168 68.5367 20.3752 67.6587 19.0406 65.2412C18.4754 64.2173 18.287 63.0277 18.5081 61.8793L21.5682 45.9892L9.75261 34.9326C7.73632 33.0458 7.63133 29.8817 9.51813 27.8654C10.3172 27.0114 11.3904 26.4646 12.551 26.3201L28.6089 24.3201L35.4732 9.66611C36.6446 7.16544 39.6214 6.08784 42.122 7.25922ZM40.0011 11.79L33.1368 26.441C32.4991 27.8023 31.2891 28.7937 29.8545 29.1625L29.2269 29.2817L13.169 31.2817L24.9845 42.3384C26.0821 43.3655 26.651 44.8227 26.5585 46.3011L26.4779 46.9347L23.4179 62.8248L37.5846 55.0042C38.9006 54.2778 40.4623 54.1869 41.8397 54.7318L42.4175 55.0042L56.5842 62.8248L53.5242 46.9347C53.2399 45.4587 53.6362 43.9454 54.58 42.8037L66.8332 31.2817L50.7753 29.2817C49.2836 29.0959 47.9668 28.2515 47.1727 27.001L46.8654 26.441L40.0011 11.79Z" fill="rgb(25,25,25)" fill-rule="evenodd" />
	<path id="形状结合" d="M44.5289 9.66611L51.3932 24.3201L67.4512 26.3201C70.1914 26.6614 72.1361 29.1595 71.7948 31.8997C71.6503 33.0603 71.1035 34.1335 70.2495 34.9326L58.434 45.9892L61.494 61.8793C62.0162 64.5909 60.2413 67.2124 57.5297 67.7346C56.3813 67.9557 55.1917 67.7673 54.1678 67.2021L40.0011 59.3815L25.8344 67.2021C23.4168 68.5367 20.3752 67.6587 19.0406 65.2412C18.4754 64.2173 18.287 63.0277 18.5081 61.8793L21.5682 45.9892L9.75261 34.9326C7.73632 33.0458 7.63133 29.8817 9.51813 27.8654C10.3172 27.0114 11.3904 26.4646 12.551 26.3201L28.6089 24.3201L35.4732 9.66611C36.6446 7.16544 39.6214 6.08784 42.122 7.25922C43.1811 7.75533 44.0328 8.60701 44.5289 9.66611ZM33.1368 26.441C32.4991 27.8023 31.2891 28.7937 29.8545 29.1625L29.2269 29.2817L13.169 31.2817L24.9845 42.3384C26.0821 43.3655 26.651 44.8227 26.5585 46.3011L26.4779 46.9347L23.4179 62.8248L37.5846 55.0042C38.9006 54.2778 40.4623 54.1869 41.8397 54.7318L42.4175 55.0042L56.5842 62.8248L53.5242 46.9347C53.2399 45.4587 53.6362 43.9454 54.58 42.8037L66.8332 31.2817L50.7753 29.2817C49.2836 29.0959 47.9668 28.2515 47.1727 27.001L46.8654 26.441L40.0011 11.79L33.1368 26.441Z" fill-rule="evenodd" stroke="rgb(0,0,0)" stroke-opacity="0" stroke-width="3" />
</svg>
