<svg viewBox="0 0 76 76" xmlns="http://www.w3.org/2000/svg" xmlns:xlink="http://www.w3.org/1999/xlink" width="76.000000" height="76.000000" fill="none" customFrame="#000000">
	<mask id="mask_14" width="76.000000" height="76.000000" x="0.000000" y="0.000000" maskUnits="userSpaceOnUse">
		<g filter="url(#pixso_custom_mask_type_outline)">
			<rect id="蒙版" width="76.000000" height="76.000000" x="0.000000" y="0.000000" rx="6.333333" fill="rgb(255,255,255)" fill-opacity="0" />
			<rect id="蒙版" width="73.000000" height="73.000000" x="1.500000" y="1.500000" rx="4.833333" stroke="rgb(255,255,255)" stroke-width="3" />
		</g>
	</mask>
	<mask id="mask_13" width="18.208305" height="37.999943" x="12.667053" y="12.666748" maskUnits="userSpaceOnUse">
		<g filter="url(#pixso_custom_mask_type_outline)">
			<path id="蒙版" d="M25.5122 50.6667L30.8754 12.6667L18.0302 12.6667L12.6671 50.6667L25.5122 50.6667Z" fill="rgb(255,255,255)" fill-rule="evenodd" />
		</g>
	</mask>
	<mask id="mask_12" width="52.913963" height="31.666616" x="13.585510" y="12.666748" maskUnits="userSpaceOnUse">
		<g filter="url(#pixso_custom_mask_type_outline)">
			<path id="蒙版" d="M50.6484 44.3334L13.5855 44.216L15.3697 31.5366L50.6484 31.654C52.3858 31.654 53.8059 30.2435 53.8059 28.5001C53.8059 26.7646 52.3858 25.3461 50.6484 25.3461L35.3368 25.3461L37.1218 12.6667L50.6484 12.6667C59.3911 12.6667 66.4995 19.7751 66.4995 28.5001C66.4995 37.2329 59.3911 44.3334 50.6484 44.3334Z" fill="rgb(255,255,255)" fill-rule="evenodd" />
		</g>
	</mask>
	<mask id="mask_11" width="76.000000" height="76.000000" x="0.000000" y="0.000000" maskUnits="userSpaceOnUse">
		<g filter="url(#pixso_custom_mask_type_outline)">
			<rect id="蒙版" width="76.000000" height="76.000000" x="0.000000" y="0.000000" rx="6.333333" fill="rgb(255,255,255)" />
			<rect id="蒙版" width="73.000000" height="73.000000" x="1.500000" y="1.500000" rx="4.833333" stroke="rgb(236,247,249)" stroke-opacity="0" stroke-width="3" />
		</g>
	</mask>
	<defs>
		<filter id="pixso_custom_mask_type_outline">
			<feColorMatrix type="matrix" values="0 0 0 0 1 0 0 0 0 1 0 0 0 0 1 0 0 0 1 0 " />
		</filter>
		<linearGradient id="paint_linear_10" x1="70.1942596" x2="13.5855026" y1="35.7573471" y2="35.7573471" gradientUnits="userSpaceOnUse">
			<stop stop-color="rgb(233,12,108)" offset="0" stop-opacity="1" />
			<stop stop-color="rgb(202,33,126)" offset="0.794811487" stop-opacity="1" />
			<stop stop-color="rgb(184,51,152)" offset="1" stop-opacity="1" />
		</linearGradient>
		<linearGradient id="paint_linear_11" x1="70.4697571" x2="13.7536621" y1="37.8099365" y2="37.8099365" gradientUnits="userSpaceOnUse">
			<stop stop-color="rgb(255,44,135)" offset="0" stop-opacity="1" />
			<stop stop-color="rgb(202,33,126)" offset="0.454236776" stop-opacity="1" />
			<stop stop-color="rgb(184,51,152)" offset="1" stop-opacity="1" />
		</linearGradient>
		<linearGradient id="paint_linear_12" x1="42.5605507" x2="27.4474106" y1="42.1423111" y2="32.3969116" gradientUnits="userSpaceOnUse">
			<stop stop-color="rgb(0,0,0)" offset="0" stop-opacity="0" />
			<stop stop-color="rgb(119,33,33)" offset="1" stop-opacity="1" />
		</linearGradient>
		<linearGradient id="paint_linear_13" x1="44.0971985" x2="28.5386219" y1="36.730072" y2="43.51297" gradientUnits="userSpaceOnUse">
			<stop stop-color="rgb(37,43,58)" offset="0" stop-opacity="1" />
			<stop stop-color="rgb(37,43,58)" offset="1" stop-opacity="1" />
		</linearGradient>
		<linearGradient id="paint_linear_14" x1="18.1124268" x2="25.8329983" y1="50.6666832" y2="12.6667442" gradientUnits="userSpaceOnUse">
			<stop stop-color="rgb(192,42,140)" offset="0" stop-opacity="1" />
			<stop stop-color="rgb(242,39,167)" offset="1" stop-opacity="1" />
		</linearGradient>
		<linearGradient id="paint_linear_15" x1="28.2044258" x2="16.1582069" y1="31.5366192" y2="47.0712051" gradientUnits="userSpaceOnUse">
			<stop stop-color="rgb(244,54,255)" offset="0" stop-opacity="1" />
			<stop stop-color="rgb(255,18,0)" offset="1" stop-opacity="1" />
		</linearGradient>
		<linearGradient id="paint_linear_16" x1="47.565834" x2="-3.81469727e-06" y1="9.37615204" y2="-1.90734863e-06" gradientUnits="userSpaceOnUse">
			<stop stop-color="rgb(255,255,255)" offset="0" stop-opacity="0" />
			<stop stop-color="rgb(255,255,255)" offset="1" stop-opacity="1" />
		</linearGradient>
	</defs>
	<mask id="mask_10" width="76.000000" height="76.000000" x="0.000000" y="0.000000" maskUnits="userSpaceOnUse">
		<g filter="url(#pixso_custom_mask_type_outline)">
			<rect id="蒙版" width="76.000000" height="76.000000" x="0.000000" y="0.000000" rx="6.333333" fill="rgb(255,255,255)" />
			<rect id="蒙版" width="73.000000" height="73.000000" x="1.500000" y="1.500000" rx="4.833333" stroke="rgb(239,226,238)" stroke-opacity="0" stroke-width="3" />
		</g>
	</mask>
	<rect id="工程首字母图标/P-32x33" width="76.000000" height="76.000000" x="0.000000" y="0.000000" />
	<rect id="矩形" width="76.000000" height="76.000000" x="0.000000" y="0.000000" rx="6.333333" fill="rgb(255,255,255)" />
	<rect id="矩形" width="73.000000" height="73.000000" x="1.500000" y="1.500000" rx="4.833333" stroke="rgb(151,151,151)" stroke-opacity="0" stroke-width="3" />
	<g id="形状" showMaskRef="url(#show_mask_0)" mask="url(#mask_10)">
		<g id="show_mask_0">
			<rect id="蒙版" width="76.000000" height="76.000000" x="0.000000" y="0.000000" rx="6.333333" fill="rgb(255,255,255)" />
			<rect id="蒙版" width="73.000000" height="73.000000" x="1.500000" y="1.500000" rx="4.833333" stroke="rgb(239,226,238)" stroke-opacity="0" stroke-width="3" />
		</g>
		<g id="Fill 5" showMaskRef="url(#show_mask_1)" mask="url(#mask_11)">
			<g id="show_mask_1">
				<rect id="蒙版" width="76.000000" height="76.000000" x="0.000000" y="0.000000" rx="6.333333" fill="rgb(255,255,255)" />
				<rect id="蒙版" width="73.000000" height="73.000000" x="1.500000" y="1.500000" rx="4.833333" stroke="rgb(236,247,249)" stroke-opacity="0" stroke-width="3" />
			</g>
			<path id="形状结合" d="M91.3832 -29.9674L89.6496 -30.1351L89.5918 -29.5897C88.5552 -20.588 83.811 -15.998 75.4659 -14.7568C71.1162 -14.1098 66.1078 -14.3311 59.6851 -15.3802L58.2343 -15.627L56.735 -15.9009L55.1855 -16.2018L53.584 -16.5298C53.3126 -16.5867 53.039 -16.6447 52.7631 -16.7038L51.0799 -17.072C50.7947 -17.1356 50.5072 -17.2003 50.2172 -17.2661L48.4483 -17.6744L45.1201 -18.4737L34.9794 -21.0028L30.9649 -21.9813L28.5003 -22.5546L26.6875 -22.9504L25.0248 -23.2862L23.5761 -23.5558L22.2622 -23.7848C15.7975 -24.8826 11.8564 -23.7746 9.82795 -20.533C8.85264 -18.9744 8.38588 -17.3768 8.17009 -14.7246L8.11262 -13.8963L8.06867 -12.9986L8.03669 -12.0255L8.00777 -10.4109L7.97391 -6.6282L7.94319 -5.58721C7.617 2.74036 5.41012 6.83393 -1.36983 8.52892C-4.15736 9.2258 -7.12438 9.2105 -10.2557 8.53106C-17.5113 6.95673 -25.3541 1.92701 -33.2951 -5.47907C-36.7299 -8.68257 -39.9511 -12.1175 -42.8644 -15.5523L-43.8461 -16.7244L-44.7508 -17.8325L-45.5759 -18.8702L-46.1683 -19.6343L-46.5323 -20.1175L-47.9349 -19.085L-47.3396 -18.3006L-46.5373 -17.2773C-46.3975 -17.1015 -46.2543 -16.9226 -46.1078 -16.7407L-45.189 -15.6153L-44.1926 -14.4258C-44.1516 -14.3775 -44.1106 -14.3292 -44.0695 -14.2809L-45.0974 -13.4594L-44.8237 -13.1226L-43.6446 -11.724C-43.4994 -11.5551 -43.3508 -11.3833 -43.1988 -11.2087L-42.2461 -10.1282C-41.9152 -9.75735 -41.5711 -9.37629 -41.2143 -8.98598C-41.1725 -8.94026 -41.1307 -8.89454 -41.0888 -8.84882L-42.2593 -7.83449L-41.5512 -7.04058L-40.2912 -5.67722C-40.1339 -5.50982 -39.973 -5.33972 -39.8087 -5.16704L-38.7824 -4.10091L-38.2394 -3.54644C-35.0814 -0.340178 -31.6199 2.86596 -27.9616 5.86031C-21.1226 11.4581 -14.4031 15.6586 -8.07184 17.8904C-2.86804 19.7248 1.93435 20.1687 6.23756 19.014C12.529 17.3256 15.132 13.6825 16.0257 6.88973L16.1371 5.9438L16.2285 4.95815C16.2421 4.79053 16.2549 4.62123 16.267 4.45023L16.3303 3.40374C16.3485 3.04804 16.3638 2.68545 16.3764 2.31584L16.4632 -0.779957L16.5004 -1.81924L16.5697 -3.22659L16.6269 -4.07228L16.6944 -4.85074C16.9261 -7.21559 17.334 -8.65695 18.1131 -10.0083C19.6642 -12.6988 22.6786 -13.8814 28.0273 -13.3962L28.5007 -13.3523L29.5856 -13.2438L30.8354 -13.1035L32.4661 -12.8944L34.2228 -12.6396L35.3702 -12.4599L37.4927 -12.1075L41.0387 -11.4837L50.644 -9.72451L53.1418 -9.28174L54.9323 -8.97651L56.6567 -8.69417L58.3176 -8.43486L59.9176 -8.19868L61.4597 -7.98575C61.712 -7.95221 61.962 -7.91964 62.2097 -7.88805L63.6698 -7.71023L65.0784 -7.55596L66.4386 -7.42537L67.7528 -7.31857C67.9682 -7.30275 68.1817 -7.28794 68.3936 -7.27412L69.6441 -7.20322C69.8491 -7.19341 70.0526 -7.1846 70.2545 -7.1768L71.4473 -7.14207C73.9928 -7.09308 76.2916 -7.21494 78.4675 -7.5131C87.139 -8.70133 92.4256 -12.898 93.9064 -20.8219L92.1944 -21.1418L92.1008 -20.6724C90.656 -13.8621 86.0354 -10.3081 78.231 -9.23864C75.6483 -8.88474 72.8622 -8.79067 69.6514 -8.94798L68.427 -9.01874L67.1602 -9.11296C66.9454 -9.13062 66.7287 -9.14924 66.5101 -9.16884L65.1749 -9.29808C64.7218 -9.34504 64.2605 -9.39586 63.7907 -9.45054L62.3551 -9.62613C62.1113 -9.65731 61.8654 -9.68946 61.6171 -9.72256L60.0994 -9.93263L58.5237 -10.1656L56.8875 -10.4213L55.188 -10.6997L53.4229 -11.0007L51.5894 -11.3241L41.3174 -13.2032L38.2119 -13.7514L36.4285 -14.0525L34.4501 -14.367L33.0181 -14.5766L31.3491 -14.796L29.4541 -15.0086L28.1847 -15.1307C22.2163 -15.6721 18.5354 -14.2281 16.6042 -10.8782C15.6955 -9.30186 15.2322 -7.71767 14.9753 -5.19685L14.9008 -4.36859C14.8894 -4.22499 14.8785 -4.07854 14.8681 -3.92907L14.811 -2.99522L14.7635 -1.98285L14.7238 -0.88546L14.6152 2.79751L14.5619 3.84447L14.4914 4.84553C14.4781 5.0086 14.4641 5.1698 14.4493 5.32915L14.3509 6.26318C13.5925 12.6481 11.3526 15.838 5.78615 17.3318C1.85881 18.3857 -2.59627 17.9739 -7.49282 16.2478C-13.6025 14.0942 -20.1622 9.99347 -26.8584 4.51255C-27.6233 3.88652 -28.3796 3.2509 -29.1263 2.60775C-22.4223 8.16822 -15.8252 12.1783 -9.57312 14.0546C-5.21844 15.3615 -1.12574 15.5924 2.64514 14.6161C9.57426 12.8221 12.1926 8.68765 12.8725 0.945606L12.9475 -0.0410309C12.9693 -0.376234 12.9879 -0.717793 13.0034 -1.0658L13.0412 -2.12925L13.093 -5.01566L13.1305 -6.62616L13.1653 -7.59385L13.2096 -8.48361L13.2647 -9.30131L13.3319 -10.0528L13.4126 -10.7441C13.6471 -12.5122 14.0398 -13.6998 14.7057 -14.8084C16.2764 -17.4234 19.4013 -18.4692 24.9976 -17.7315L25.8836 -17.6117L27.6075 -17.3579L29.3685 -17.0662L31.288 -16.7141L33.0962 -16.358L36.5689 -15.6355L47.4004 -13.2854L50.6287 -12.6078L52.4411 -12.243L54.1906 -11.9041L55.8796 -11.591L57.5103 -11.3039L59.0853 -11.043C59.3432 -11.0017 59.599 -10.9615 59.8525 -10.9224L61.348 -10.701C67.7187 -9.79853 72.6814 -9.64135 77.095 -10.2752C86.0715 -11.5645 91.4135 -16.3523 92.6463 -25.399L90.9205 -25.6342L90.8458 -25.1249C89.6011 -17.2278 84.9197 -13.1586 76.8474 -11.9992C73.2556 -11.4833 69.2363 -11.518 64.295 -12.0801L62.9241 -12.2465C62.2269 -12.3362 61.5117 -12.4357 60.7772 -12.5449L59.2823 -12.7762L57.7338 -13.0333C57.4712 -13.0783 57.2062 -13.1244 56.9388 -13.1715L55.3059 -13.4672L53.6139 -13.7883L50.9602 -14.3178L49.1107 -14.7023L47.7644 -14.9886L38.4474 -17.0145L34.6244 -17.8235L33.0258 -18.1488L30.917 -18.5567L29.0462 -18.889L28.1618 -19.0339L26.7102 -19.2538L25.2253 -19.4582C19.0064 -20.278 15.1928 -19.0017 13.2127 -15.7052C12.2147 -14.0437 11.7519 -12.3557 11.5291 -9.48622L11.4717 -8.63321C11.4632 -8.48536 11.4551 -8.33457 11.4475 -8.18073L11.4068 -7.22006L11.3627 -5.62855L11.3278 -3.49383L11.2834 -1.63805L11.2367 -0.596296C11.218 -0.256535 11.1963 0.0757942 11.1712 0.400827L11.0859 1.3542C10.4002 8.03205 8.09154 11.4069 2.2086 12.93C-1.22983 13.8202 -5.00451 13.6073 -9.07248 12.3865C-14.8144 10.6632 -20.9399 7.01244 -27.1961 1.93825C-21.5377 6.18113 -15.9697 9.07344 -10.6251 10.2331C-7.24327 10.9669 -4.00742 10.9836 -0.947414 10.2186C6.62126 8.32642 9.22725 3.68689 9.66071 -5.01464L9.70185 -6.05717L9.71941 -6.80868L9.74388 -9.78605L9.76446 -11.3686L9.78863 -12.3215L9.82256 -13.1991L9.86746 -14.0066L9.92453 -14.7494L9.99498 -15.4329C10.2147 -17.2908 10.61 -18.4995 11.3044 -19.6091C12.8942 -22.1498 16.13 -23.0595 21.9706 -22.0677L23.0859 -21.8741L24.1632 -21.6772L25.5102 -21.4146L27.2177 -21.0551L29.4852 -20.541L33.1267 -19.6656L43.8295 -16.9976L47.1482 -16.1918L48.9755 -15.7635L50.7437 -15.3623C51.0336 -15.2977 51.3211 -15.2342 51.6063 -15.1719L53.2897 -14.8114C53.5657 -14.7536 53.8395 -14.697 54.111 -14.6414L55.7139 -14.322C55.9767 -14.2711 56.2374 -14.2213 56.496 -14.1726L58.0229 -13.8945C58.2732 -13.8505 58.5216 -13.8076 58.768 -13.7658L60.2232 -13.5293C60.4618 -13.4922 60.6986 -13.4562 60.9336 -13.4215L62.3214 -13.2268L63.6668 -13.0601C68.3036 -12.5261 72.1966 -12.5097 75.7221 -13.034C85.0065 -14.415 90.3982 -19.7889 91.3832 -29.9674ZM93.4726 -16.6612L95.1606 -16.2324C93.4314 -9.42501 88.2094 -5.82498 79.8395 -4.74749C78.687 -4.59913 77.5052 -4.49502 76.2706 -4.43438L75.199 -4.39303C74.1134 -4.36229 72.9842 -4.36331 71.7966 -4.39561L70.5891 -4.43833C70.3844 -4.44718 70.178 -4.45689 69.9697 -4.46746L68.6978 -4.54124L67.3787 -4.6356L66.0094 -4.75042L64.5864 -4.88559L63.1067 -5.04101L61.5668 -5.21656L59.1371 -5.5174L57.4326 -5.74281L54.7406 -6.11791L44.4702 -7.62464L40.8767 -8.12257L37.9022 -8.49591L36.4048 -8.66136L35.0086 -8.79686L33.6769 -8.90632L32.0473 -9.01246L31.0607 -9.0627C25.9628 -9.29762 23.0587 -7.97771 21.528 -5.21083L21.29 -4.75459C20.7629 -3.67939 20.4305 -2.51228 20.2052 -0.886282L20.115 -0.160259L20.0364 0.628376C20.0242 0.765388 20.0124 0.905277 20.001 1.04818L19.9369 1.94276L19.8806 2.91601L19.8074 4.5374L19.7235 6.73812L19.6688 7.83413C19.6584 8.0132 19.6473 8.19047 19.6356 8.36597L19.557 9.39777C19.5425 9.56624 19.5273 9.73296 19.5113 9.89795L19.4062 10.8673C18.5483 17.9841 16.0823 21.6708 9.83054 23.411C5.12777 24.7201 -0.277828 24.0871 -6.24312 21.8003C-12.1181 19.5481 -18.3525 15.7701 -24.7175 10.8938C-28.4574 8.02856 -32.0123 4.96056 -35.2676 1.89242L-36.3672 0.844662L-37.3847 -0.146568L-38.687 -1.45114L-39.4199 -2.2106L-38.1502 -3.40272L-37.0797 -2.30173L-36.1614 -1.38634L-35.1581 -0.408878L-34.073 0.624981C-30.8583 3.65488 -27.3474 6.68492 -23.6583 9.51121C-17.415 14.2943 -11.3156 17.9904 -5.61969 20.174C0.0260658 22.3383 5.06826 22.9288 9.3635 21.7332C14.7522 20.2332 16.8952 17.1124 17.674 10.6991L17.7761 9.76033L17.8609 8.77569C17.8737 8.6077 17.8858 8.43775 17.8972 8.26582L17.9583 7.21034L18.0908 3.89029L18.1418 2.80872L18.1993 1.8099C18.2095 1.64997 18.2201 1.49322 18.231 1.33952L18.3014 0.452801L18.3826 -0.367188L18.4761 -1.12686C18.76 -3.19985 19.2127 -4.62362 20.004 -6.05393C21.8859 -9.45564 25.4286 -11.0658 31.1408 -10.8025C31.817 -10.7714 32.475 -10.7348 33.1358 -10.6907L34.508 -10.5884L35.2307 -10.5259L36.3508 -10.4181L37.531 -10.2917L39.2301 -10.0907L41.1135 -9.84823L43.7942 -9.47985L49.042 -8.71778L54.0561 -7.97632L56.7693 -7.5914L59.3189 -7.25023L61.7157 -6.95313L63.2339 -6.77969L64.692 -6.62608L66.0932 -6.49237L67.4407 -6.37867L68.7376 -6.28507C68.9497 -6.27115 69.1599 -6.25807 69.3681 -6.24583L70.595 -6.18255L71.7791 -6.1396L72.9238 -6.11707C73.4867 -6.11093 74.036 -6.11248 74.5734 -6.12178L75.6329 -6.15071C75.807 -6.15726 75.9799 -6.16468 76.1517 -6.17296L77.1696 -6.23306C78.0075 -6.29183 78.8206 -6.37236 79.6171 -6.4749C87.1547 -7.44524 91.717 -10.4874 93.3552 -16.2257L93.4726 -16.6612ZM94.7612 -12.1977L96.4064 -11.6261C94.4633 -6.03266 89.4682 -3.18743 81.5692 -2.37307L80.8252 -2.30131L80.082 -2.23982L78.9609 -2.16699L78.2037 -2.13144L77.4343 -2.10634L76.6491 -2.09177L75.8443 -2.08775L75.0161 -2.09436L74.1608 -2.11163L72.819 -2.15766L71.8797 -2.20183L70.3943 -2.28844L68.806 -2.39964L67.1022 -2.53561L64.629 -2.75571L61.8981 -3.02055L58.8798 -3.33055L54.7686 -3.76534L51.7217 -4.07388L48.9684 -4.33246L47.0751 -4.49393L44.7517 -4.66636L43.6664 -4.73435L42.1215 -4.81376L41.1407 -4.85174L39.7322 -4.88643L38.8287 -4.8948L37.9485 -4.89145L37.0873 -4.87644L36.2407 -4.84984L35.4043 -4.81171L34.1595 -4.73306C29.322 -4.37703 26.5065 -2.72264 24.9822 0.211452C24.429 1.27626 24.0592 2.34734 23.7934 3.7489L23.6778 4.42042L23.5753 5.14596L23.484 5.93259C23.4697 6.06918 23.4557 6.20861 23.4421 6.35103L23.3646 7.24259L23.294 8.21296L23.1974 9.83176L23.1001 11.6845L23.0296 12.7662C23.0168 12.9427 23.0035 13.1172 22.9896 13.2899L22.8991 14.3036L22.7938 15.2732C21.9258 22.5404 19.6354 26.0134 13.4245 27.8082C8.42397 29.2532 2.49529 28.4643 -4.16604 25.8077C-9.6711 23.6122 -15.5102 20.2101 -21.486 15.9282C-25.3049 13.1917 -28.9501 10.2614 -32.2992 7.33102L-33.431 6.33029L-34.4792 5.38356L-35.4402 4.49622L-36.5791 3.41251L-35.3577 2.17091L-34.6251 2.87268L-33.7887 3.65302L-32.7975 4.55815L-31.7212 5.51987C-31.535 5.68457 -31.3453 5.85141 -31.1523 6.02026C-27.8431 8.91575 -24.241 11.8114 -20.4715 14.5124C-14.6011 18.7189 -8.87782 22.0535 -3.52085 24.1899C2.8131 26.716 8.37108 27.4555 12.941 26.135C18.4135 24.5535 20.3668 21.5228 21.116 14.6291L21.2109 13.6649C21.2255 13.5001 21.2396 13.3333 21.2532 13.1644L21.3281 12.1258L21.49 9.16607L21.5562 8.09157C21.5677 7.91958 21.5794 7.75105 21.5913 7.58582L21.6665 6.63302L21.7499 5.75267C21.7646 5.6116 21.7797 5.47326 21.7953 5.3375L21.8945 4.55285C21.912 4.42686 21.9301 4.30316 21.9487 4.18162L22.0677 3.47704L22.2023 2.81717C22.488 1.53753 22.8777 0.484558 23.4367 -0.591475C25.2565 -4.09437 28.6219 -6.07188 34.0316 -6.47003L34.8814 -6.52677L36.1625 -6.59004L37.0272 -6.61758L37.9057 -6.63332L38.8024 -6.63721L39.7217 -6.62919L40.6681 -6.6092L41.6461 -6.57717L42.66 -6.53305L44.2582 -6.44404L45.9622 -6.32748L47.7873 -6.18316L50.4348 -5.94717L53.3596 -5.66097L62.0346 -4.75735L64.086 -4.55655L65.9893 -4.38066L67.7566 -4.22951L69.4005 -4.10289L70.9331 -4.00061L72.3669 -3.92249L73.714 -3.86834L74.57 -3.84545L75.8002 -3.8308L76.5896 -3.83408L77.3588 -3.84772L78.1115 -3.87168L78.8511 -3.90589L79.9443 -3.97631L81.0289 -4.06947L81.3906 -4.10555C88.4897 -4.83744 92.8412 -7.22658 94.619 -11.8106L94.7612 -12.1977ZM96.0672 -7.7579L97.6336 -6.99644C95.4736 -2.55323 90.6527 -0.16988 83.2441 0.718901L82.1876 0.834208L81.3945 0.90834L80.5968 0.972702L79.791 1.02735L78.9732 1.07234L78.1398 1.10773L77.287 1.13358L76.4112 1.14995L75.0461 1.15685L73.6083 1.14275L72.6032 1.12178L71.5565 1.09161L69.9003 1.02926L67.5118 0.914499L64.8902 0.764025L62.0057 0.5783L53.7809 0.00640297L50.0455 -0.228258L48.3905 -0.319599L46.3701 -0.414917L44.9749 -0.466831L43.6657 -0.502205L42.0277 -0.524014L41.2447 -0.524193C39.827 -0.518026 38.4998 -0.476242 37.1385 -0.4006C30.3277 -0.0221958 27.9603 2.46077 26.9681 9.71552L26.8555 10.6092L26.7549 11.5496L26.6651 12.538L26.5849 13.5752L26.4245 16.0691L26.3414 17.1707L26.2459 18.2253C26.2289 18.3973 26.2113 18.5673 26.1931 18.7354L26.0766 19.7215C25.1465 26.9497 22.9083 30.4361 17.0182 32.205C11.799 33.7723 5.40783 32.8629 -1.90074 29.9155C-7.10255 27.8177 -12.6163 24.7487 -18.2696 20.9633C-22.1649 18.3552 -25.8968 15.5622 -29.336 12.769L-30.4987 11.8152L-31.5763 10.9128L-33.0094 9.68085L-33.6371 9.12563L-33.7381 9.0344L-32.5666 7.74557L-31.6539 8.55196L-30.4504 9.58395L-29.3866 10.4748C-29.0176 10.7806 -28.6346 11.095 -28.238 11.417C-24.8379 14.1785 -21.148 16.94 -17.3006 19.5161C-11.7395 23.2398 -6.32631 26.2528 -1.24934 28.3003C5.72638 31.1134 11.7455 31.9698 16.5173 30.5369C21.316 29.0958 23.309 26.342 24.2181 20.4385L24.3465 19.5291C24.3667 19.3735 24.3862 19.2159 24.4051 19.0563L24.5115 18.0734L24.605 17.0399C24.6196 16.8634 24.6336 16.6847 24.6472 16.5037L24.8881 12.8302C24.901 12.6497 24.914 12.4729 24.9272 12.2996L25.0086 11.3002L25.096 10.3777C25.1112 10.2299 25.1267 10.0851 25.1426 9.94303L25.2423 9.12265C25.5565 6.75412 26.0126 5.18789 26.8313 3.58012C28.6132 0.0808563 31.8619 -1.85179 37.0418 -2.13958L38.1715 -2.19498L39.2993 -2.23484L40.4408 -2.25894L41.6114 -2.26709L43.2441 -2.25278L44.5425 -2.22289L46.4015 -2.15711L48.4402 -2.06124L51.2967 -1.89836L55.2709 -1.63849L61.3424 -1.21233L65.6315 -0.936203L67.5554 -0.827549L69.9193 -0.713575L71.5571 -0.651497L72.5915 -0.621349L74.066 -0.593122L75.4587 -0.585442L76.3479 -0.591824L77.2098 -0.607466L78.0482 -0.632423L78.8666 -0.666746L79.6687 -0.710487L80.4581 -0.7637L81.6264 -0.861391L82.4001 -0.938507C89.428 -1.68339 93.8908 -3.72082 95.8872 -7.40743L96.0672 -7.7579ZM97.4082 -3.34843L98.8257 -2.33647C96.5292 0.880413 92.0763 2.64881 85.38 3.42142L84.3455 3.53149L83.633 3.59859C82.7699 3.67583 81.906 3.7383 81.0087 3.7869L79.6337 3.84953C79.399 3.85827 79.1612 3.86618 78.9198 3.87326L77.424 3.906C76.9082 3.9137 76.3739 3.91822 75.8171 3.91969L74.3324 3.91679L72.6069 3.8991L70.0664 3.85298L66.4411 3.7609L59.5679 3.5532L56.3126 3.47186L54.0867 3.43183L52.0252 3.41082L50.1098 3.40974C49.9044 3.41077 49.7013 3.41218 49.5005 3.41398L48.3219 3.42956L47.1918 3.45483L45.5759 3.51154L44.5433 3.56227L43.5403 3.62367L42.5613 3.69601L41.6009 3.77958L40.6536 3.87465L40.1832 3.92659C34.0619 4.62267 31.6898 7.0303 30.5615 13.4918L30.4212 14.3578C30.3767 14.6543 30.3343 14.9586 30.2938 15.271L30.178 16.2324L30.0726 17.2432L29.9763 18.3047L29.7669 20.9585C29.7511 21.1425 29.7349 21.3244 29.7183 21.5043L29.6137 22.5598C29.5954 22.7317 29.5766 22.9017 29.5573 23.0698L29.4357 24.0549C28.4554 31.4327 26.3412 34.8116 20.612 36.6015C15.2367 38.2808 8.42989 37.2851 0.511196 34.1191C-4.44037 32.1394 -9.68489 29.3653 -15.0698 25.9996C-19.0383 23.5192 -22.8532 20.8629 -26.3783 18.2065L-27.5705 17.2993L-28.6762 16.4411L-29.6916 15.6368L-30.8969 14.6551L-29.7767 13.3214L-29.2408 13.7628L-28.1134 14.6671L-27.0657 15.4886L-25.9299 16.3614C-25.7335 16.5109 -25.5335 16.6623 -25.3302 16.8155C-21.8431 19.4433 -18.0689 22.0712 -14.1467 24.5227C-8.84316 27.8376 -3.68692 30.5649 1.15778 32.5019C8.73944 35.5332 15.1769 36.4748 20.0926 34.9391C24.5225 33.5551 26.447 31.0588 27.4322 25.6154L27.5766 24.7545L27.7074 23.8456C27.7281 23.69 27.7484 23.5324 27.7681 23.3726L27.881 22.389L27.9835 21.3536L28.0768 20.265L28.2437 18.0919L28.3371 16.99L28.4333 15.9754C28.4497 15.8132 28.4663 15.6543 28.4832 15.4985L28.5875 14.6006L28.6998 13.7708C28.7193 13.6378 28.7392 13.5072 28.7596 13.3791L28.8876 12.6371C29.1558 11.2047 29.5018 10.066 29.9983 8.94477L30.2594 8.38431C31.9907 4.83981 35.0841 2.75354 39.9864 2.19607L40.9481 2.09306C41.109 2.07689 41.2703 2.06121 41.4321 2.04602L42.9052 1.92238L43.9118 1.85415L44.9444 1.79692L46.0085 1.75043L47.1098 1.71437L48.2537 1.68847L49.4459 1.67242L50.6919 1.66595L52.6737 1.67355L54.0783 1.68974L57.1126 1.74752L66.3959 2.01324L68.6748 2.06677L71.5424 2.11514L72.905 2.12892L74.8622 2.13587L76.7181 2.12563L78.4757 2.09735L80.1379 2.05021L81.7077 1.98337L82.7044 1.92745L83.6622 1.86216L84.582 1.78724L85.4647 1.70246L86.3111 1.60756L87.1222 1.5023L87.8988 1.38643L88.6418 1.25969L89.3521 1.12185C89.8149 1.0262 90.2565 0.922985 90.678 0.811867L91.2953 0.639225C91.3958 0.609451 91.495 0.579172 91.593 0.548386L92.1669 0.357506C92.7267 0.160437 93.2446 -0.0553322 93.7246 -0.290916L94.1922 -0.533146C94.875 -0.906519 95.4755 -1.32531 96.0071 -1.79327L96.3514 -2.11257C96.6858 -2.43924 96.9908 -2.78813 97.2705 -3.16036L97.4082 -3.34843ZM98.8147 1.03393L99.9536 2.35154C99.7094 2.56268 99.4558 2.76382 99.1909 2.95542L98.7848 3.23573C98.5081 3.41792 98.219 3.59081 97.9155 3.75486L97.4494 3.99439C97.3698 4.03323 97.2893 4.07153 97.2078 4.1093L96.7065 4.32964L96.1799 4.53761C95.91 4.63857 95.6302 4.73502 95.3393 4.82718L94.7429 5.00581C94.5391 5.06348 94.3302 5.1193 94.1159 5.17332L93.4568 5.33007C93.3442 5.35531 93.2302 5.38012 93.1148 5.40451L92.4048 5.54577L91.6589 5.67715L90.8756 5.799L90.0535 5.91167L89.191 6.01553L88.2866 6.11091L87.3387 6.19818L86.346 6.27769L85.3069 6.3498L84.2198 6.41485L83.0833 6.4732L81.2825 6.54893L80.0158 6.59208L77.3168 6.66234L75.8814 6.69016L72.8314 6.73294L63.8312 6.80846L61.9262 6.83694L60.1064 6.87419L58.3673 6.92086L56.7043 6.97765L55.1126 7.04523L53.5876 7.12426L52.1247 7.21541L50.7192 7.31937L49.3665 7.43681L48.0619 7.56839C47.8482 7.59153 47.6363 7.6153 47.4262 7.63969L46.1851 7.79376C45.9814 7.82074 45.7793 7.84838 45.5785 7.87669L44.3904 8.05475L43.2319 8.24966C37.8916 9.19883 35.5381 11.4656 34.2843 16.9397L34.1124 17.7438C34.085 17.8815 34.0581 18.0211 34.0317 18.1626L33.88 19.0344L33.7402 19.9529L33.6111 20.9193C33.5905 21.0844 33.5702 21.2516 33.5502 21.4209L33.4348 22.4615L33.3271 23.5531L33.1645 25.3137L33.05 26.4155L32.9275 27.4664L32.7954 28.4676C31.7439 35.9572 29.7483 39.1949 24.2075 40.9977C18.7268 42.7812 11.5421 41.7316 3.04364 38.4124C-1.70223 36.5588 -6.7249 34.0458 -11.8877 31.0372C-15.9258 28.684 -19.8194 26.1638 -23.4257 23.6435L-24.6457 22.7828L-25.778 21.9686L-27.2861 20.8572L-28.0541 20.2744L-26.9862 18.8985L-26.0219 19.6276L-24.7538 20.5599C-24.5748 20.6899 -24.3919 20.8221 -24.2054 20.9562L-23.042 21.7848C-22.8409 21.9267 -22.6362 22.0704 -22.4281 22.2159C-18.8586 24.7104 -15.0044 27.2051 -11.0108 29.5324C-5.92043 32.4988 -0.975883 34.9727 3.67727 36.7901C11.8352 39.9763 18.656 40.9727 23.6686 39.3415C27.7171 38.0242 29.5683 35.7919 30.6166 30.8601L30.7798 30.0364L30.9302 29.1637L31.0692 28.2403C31.1137 27.9239 31.1566 27.5987 31.198 27.2645L31.3181 26.2346L31.4307 25.1489L31.6481 22.7908L31.7546 21.7088L31.8625 20.711L31.9737 19.7902L32.0902 18.9386L32.214 18.1489L32.3471 17.4135C32.3701 17.2951 32.3937 17.1786 32.4177 17.0639L32.5685 16.3959C32.8575 15.2063 33.2184 14.1961 33.7068 13.1572C35.3882 9.58076 38.3188 7.35394 42.9272 6.53487L43.5155 6.43308L44.7122 6.24268L45.9398 6.06924L47.2028 5.91205C47.4166 5.88717 47.632 5.86293 47.8492 5.83934L49.1745 5.70522L50.5473 5.58562L51.9723 5.47982L53.4543 5.38712C53.7063 5.37273 53.9609 5.35885 54.2182 5.34547L55.7945 5.27112L58.2898 5.18066L60.0473 5.13338L62.8365 5.08025L72.7583 4.99155L75.0254 4.96114L76.4629 4.93572L79.1669 4.87121L81.0509 4.80967L82.2408 4.7618L83.3796 4.70812L84.9948 4.61603L86.0117 4.54649L87.4506 4.42918L88.79 4.2954L89.63 4.19655C89.7666 4.17941 89.9015 4.16194 90.0347 4.14412L90.8141 4.03304L91.5549 3.91343L92.2584 3.78498L92.9261 3.6474L93.5593 3.50039L94.1594 3.34363L94.7278 3.17684C94.9122 3.11953 95.0915 3.0605 95.266 2.9997L95.7753 2.81192L96.2571 2.6132L96.7128 2.40324C96.8604 2.33134 97.004 2.25752 97.1437 2.18172L97.5514 1.94836C97.8157 1.78877 98.0654 1.62108 98.3023 1.44488L98.6484 1.17417L98.8147 1.03393ZM100.314 5.42388L100.985 7.03084L100.576 7.19458C100.507 7.22115 100.437 7.24738 100.366 7.27325L99.9334 7.42441L99.4821 7.5676L99.0102 7.70314L98.5156 7.83139L97.9961 7.95266L97.4496 8.06728L96.874 8.1756L96.2671 8.27795L95.2935 8.42099L94.2376 8.55246L93.0922 8.67348L91.85 8.78517L90.0311 8.92154L87.4717 9.07555L86.3522 9.1331L82.6379 9.29621L72.7061 9.65534L69.1311 9.81023L67.8142 9.87845L66.339 9.96184L64.2303 10.0947C63.5406 10.1414 62.864 10.1906 62.2001 10.2424L60.2454 10.406C54.8118 10.8928 50.2546 11.5818 46.2831 12.5687C41.0925 13.8587 38.833 16.5015 37.5842 22.4296L37.4125 23.299C37.3849 23.4477 37.3579 23.5983 37.3314 23.7508L37.1779 24.6897C37.1533 24.8501 37.1291 25.0125 37.1053 25.1769L36.9673 26.1879L36.8382 27.2487L36.5379 30.0362L36.4077 31.1348L36.2705 32.1814C36.247 32.3516 36.2231 32.5197 36.1988 32.6857L36.0485 33.6571L35.8879 34.5803L35.7156 35.4566L35.5304 36.2875C34.3132 41.4094 32.2367 43.8891 27.8018 45.394C22.2571 47.2754 14.7243 46.2012 5.66933 42.7857C1.09238 41.0593 -3.74776 38.778 -8.72708 36.0764C-12.8311 33.8497 -16.7987 31.4649 -20.4814 29.08L-21.7275 28.2656L-22.8846 27.4952L-24.8128 26.175L-25.2127 25.8923L-24.1978 24.4769L-22.9637 25.3366L-21.9122 26.0502L-20.7678 26.8122L-19.5346 27.6182C-15.8876 29.98 -11.9579 32.342 -7.8965 34.5455C-2.98212 37.2119 1.78838 39.4604 6.28401 41.1561C14.9951 44.4419 22.1714 45.4652 27.2421 43.7447C31.3648 42.3457 33.1189 39.9198 34.1704 34.2863L34.3269 33.3941C34.3521 33.241 34.3769 33.0858 34.4013 32.9284L34.5437 31.9569L34.6783 30.9303L34.8066 29.847L35.047 27.5918L35.1792 26.4524C35.202 26.2666 35.2252 26.0829 35.2489 25.9012L35.3961 24.8352C35.4471 24.4879 35.5 24.1484 35.5551 23.8167L35.727 22.8447C37.0688 15.7254 39.6185 12.4304 45.8631 10.8785C50.6439 9.69038 56.2132 8.92939 63.0655 8.43051L65.1602 8.28854L68.7374 8.08601L72.0381 7.93859L83.1426 7.53254L85.5658 7.42638L87.7593 7.31415L89.7388 7.19352L91.5199 7.06217L92.7349 6.95522L93.8537 6.83994L94.8827 6.71535L95.8286 6.58047L96.4163 6.48436L96.972 6.38293L97.4975 6.27592L97.9948 6.16302C98.0755 6.14369 98.155 6.12411 98.2335 6.10427L98.6923 5.982L99.1277 5.85312C99.1985 5.83107 99.2683 5.80873 99.3373 5.7861L99.7415 5.64676L100.127 5.50007L100.314 5.42388ZM101.952 11.6323L101.882 9.89207L101.647 9.90126L99.7413 9.9556L91.1014 10.0973L87.1733 10.1824L84.3312 10.2635L81.0692 10.3871L79.2283 10.4756L76.8643 10.6136L75.1309 10.7339L73.982 10.8229L72.2527 10.9708L71.0864 11.0795L69.3006 11.2591L67.4207 11.465C60.2685 12.2901 54.0345 13.514 48.7983 15.2275C42.7804 17.1966 40.3609 20.9041 39.0158 28.5039L38.8427 29.5404C38.8148 29.7171 38.7874 29.8957 38.7604 30.0763L38.6038 31.1842C38.5533 31.5616 38.5043 31.9471 38.4567 32.341L38.1913 34.5258L37.9725 36.1272L37.8196 37.1233L37.6594 38.0644C37.6321 38.2167 37.6043 38.3669 37.5762 38.5148L37.4026 39.3767L37.2182 40.1881C36.1091 44.7775 34.3843 46.8841 30.8176 48.148C25.721 49.954 18.2121 48.9295 8.9668 45.5935C4.59829 44.0172 -0.0317039 41.9693 -4.8036 39.5626C-8.92845 37.4823 -12.9284 35.2524 -16.6472 33.0227L-17.9049 32.2619L-19.0727 31.5425L-20.1463 30.8687L-21.4075 30.0569L-22.369 31.5091L-19.9931 33.0211L-18.8131 33.748L-17.5428 34.5165C-13.7897 36.7667 -9.75346 39.0168 -5.58791 41.1177C-0.757439 43.554 3.93509 45.6295 8.37564 47.2318C17.9682 50.6931 25.8247 51.765 31.3993 49.7896C35.4267 48.3625 37.4343 46.0744 38.6899 41.4782L38.8981 40.6674C38.9316 40.5284 38.9646 40.3874 38.997 40.2445L39.1857 39.3628C39.2162 39.2118 39.2462 39.0588 39.2758 38.9036L39.4482 37.9474L39.6116 36.9396C39.6381 36.7672 39.6644 36.5926 39.6903 36.4157L39.8428 35.3272L39.9897 34.183L40.2579 31.9677L40.4085 30.8439L40.5685 29.7737C40.7612 28.5559 40.976 27.4447 41.223 26.4297L41.4428 25.5831C42.774 20.7792 44.9835 18.3083 49.34 16.8828C54.7529 15.1115 61.3022 13.8676 68.8781 13.0552C70.6982 12.8601 72.4147 12.6968 74.1252 12.5588L75.8373 12.4291L77.567 12.3147L79.3361 12.2143L81.7934 12.0996L84.4104 12.0037L87.2386 11.923L91.9889 11.8231L97.0199 11.7446L100.683 11.6749L101.952 11.6323ZM102.83 14.2993C90.9958 11.2435 66.9309 13.2684 51.7296 19.5815C46.2547 21.8554 43.9107 25.691 42.5148 33.003L42.317 34.0981L42.1312 35.2441L41.956 36.4425L41.6597 38.6178L41.4996 39.7305L41.3363 40.7832L41.1683 41.7781L40.9942 42.7169C40.9646 42.8688 40.9347 43.0184 40.9044 43.1659L40.7186 44.0242C39.5766 49.0183 37.9188 51.2435 34.3906 52.5513C29.2955 54.44 21.4732 53.4378 11.7096 50.0947C7.44108 48.6332 2.9217 46.7643 -1.73774 44.5836C-5.92098 42.6258 -9.98513 40.5274 -13.7694 38.4291L-15.0495 37.7131L-16.2385 37.0361L-17.821 36.1146L-18.618 35.6378L-19.5259 37.124L-19.4126 37.1929L-17.1069 38.5459L-15.9061 39.2296L-14.6139 39.9523C-10.7969 42.0688 -6.69801 44.1851 -2.47601 46.1611C2.23657 48.3666 6.81246 50.2589 11.1454 51.7425C21.2602 55.2057 29.4202 56.2512 34.996 54.1844C39.1053 52.6612 41.0315 50.1661 42.3022 44.9105L42.5027 44.0338L42.6932 43.1069L42.8751 42.1283C42.9048 41.9608 42.9342 41.7911 42.9633 41.6191L43.1351 40.5596L43.3018 39.4441L43.7659 36.0874C43.7946 35.8914 43.8236 35.6977 43.853 35.5064L44.0344 34.3865C44.0656 34.2044 44.0971 34.0246 44.1292 33.8471L44.3279 32.8085C44.3962 32.471 44.4668 32.1423 44.5398 31.822L44.7667 30.8863C46.0976 25.7241 48.2208 22.9247 52.3976 21.19C67.5057 14.9156 91.7309 12.9625 102.947 16.135L103.421 14.4591L102.83 14.2993ZM54.6589 23.9432C71.0574 15.5035 93.3879 13.0413 104.405 18.8169L104.877 19.0732L104.023 20.591C93.7771 14.8238 71.622 17.1717 55.4559 25.4918C51.0945 27.7365 49.0626 31.2804 47.7243 37.842L47.5073 38.9638C47.4722 39.1555 47.4375 39.3497 47.4032 39.5462L46.9856 42.1627L46.7791 43.5251L46.5961 44.6705L46.4102 45.7579L46.2198 46.789L46.0236 47.7657L45.8199 48.6896C44.5039 54.3781 42.656 57.0011 38.5933 58.5793C33.0404 60.7361 24.5935 59.7388 13.9689 56.3121C9.71696 54.9408 5.22899 53.212 0.605392 51.2081C-3.66749 49.3561 -7.82228 47.3725 -11.6961 45.3888L-13.6291 44.3862L-15.6137 43.327L-16.6841 42.7382L-15.8294 41.2207L-14.5216 41.9377L-13.4103 42.5323L-12.2023 43.1672L-10.9023 43.8386C-7.05978 45.8063 -2.93806 47.774 1.29801 49.61C5.8731 51.593 10.3097 53.3019 14.5035 54.6545C24.7726 57.9666 32.8923 58.9252 37.9627 56.9558C41.5154 55.5757 43.1027 53.1429 44.3107 47.4424L44.5035 46.489L44.6912 45.4762L44.8752 44.402L45.1477 42.6707L45.4822 40.4827C45.5813 39.8571 45.6839 39.2523 45.791 38.6674L46.0115 37.5242C46.0871 37.1519 46.1651 36.7882 46.2455 36.4328L46.4948 35.3918C47.9537 29.6322 50.2255 26.225 54.6589 23.9432ZM57.5897 28.3106C74.5441 17.6664 94.7664 14.873 105.858 23.3693L106.264 23.6891L105.17 25.044C94.8792 16.7315 75.1206 19.3609 58.5158 29.7857C54.5856 32.2533 52.6206 35.9135 51.2432 42.2547L50.9915 43.4754C50.9505 43.6842 50.9101 43.8958 50.8701 44.11L50.0704 48.7684L49.8641 49.9085L49.6553 50.9879L49.4424 52.0086L49.2238 52.9725C47.8548 58.7454 46.0698 61.3913 42.1921 62.9729C36.6832 65.2198 27.9632 64.2905 16.8387 60.9338C12.6429 59.6678 8.21597 58.0853 3.65417 56.2582C-0.663013 54.5292 -4.86597 52.6772 -8.78838 50.825L-10.1165 50.1926L-11.9325 49.309L-13.7243 48.4107L-13.8409 48.3505L-13.0391 46.8044L-12.4318 47.1141L-10.586 48.0298L-9.36184 48.6229L-8.04471 49.2501C-4.15214 51.0882 0.0193977 52.9263 4.30172 54.6414C8.81898 56.4506 13.1988 58.0163 17.3419 59.2664C28.1056 62.5142 36.5091 63.4098 41.5344 61.3602C44.748 60.0495 46.2988 57.7456 47.5391 52.5198L47.7489 51.5949L47.9542 50.6107L48.1564 49.5648L48.4573 47.876L48.9986 44.6711L49.0368 44.456C50.5243 36.0983 52.6354 31.4213 57.5897 28.3106ZM62.7966 31.024C62.0361 31.5582 61.2773 32.1122 60.5211 32.6855C56.1954 35.9652 54.1491 40.5963 52.6167 48.3586L51.8556 52.4569L51.6416 53.5807L51.4282 54.6413L51.2139 55.6408C51.1781 55.8024 51.1421 55.9615 51.1061 56.1182L50.8879 57.03C50.8512 57.1772 50.8144 57.3221 50.7773 57.4647L50.5521 58.2933C49.335 62.5696 47.8413 64.591 45.1051 65.7656C41.6431 67.2519 36.3733 67.3046 29.683 66.1294L28.3262 65.8781L26.9321 65.5943C25.9905 65.3945 25.0245 65.1733 24.0351 64.9312L22.5336 64.5525C21.7742 64.3554 21.0018 64.1467 20.217 63.9267C16.1013 62.7726 11.7524 61.3355 7.26673 59.6794C2.94563 58.0841 -1.26695 56.3743 -5.20031 54.6647L-5.87725 54.3692L-7.76867 53.5296L-9.17465 52.8904L-10.2493 52.3896L-10.999 53.9616L-9.9033 54.4723L-7.87192 55.3917L-5.89458 56.262C-1.9329 57.9839 2.30946 59.7058 6.66351 61.3133C11.1903 62.9845 15.5826 64.436 19.7467 65.6036C20.0107 65.6777 20.2734 65.7505 20.5347 65.822L22.0859 66.236L23.6036 66.6195C23.8537 66.6808 24.1025 66.7409 24.3498 66.7996L25.8164 67.1364C26.5411 67.2969 27.2528 67.4456 27.9512 67.5821L29.3301 67.8389C36.3623 69.0817 41.9545 69.0136 45.7922 67.366C48.9007 66.0316 50.6159 63.9182 51.9327 59.7716L52.1828 58.9433C52.2238 58.8009 52.2644 58.6563 52.3047 58.5094L52.5429 57.6012C52.6212 57.2892 52.6986 56.968 52.7752 56.6371L53.0031 55.6152C53.0408 55.4399 53.0784 55.2621 53.116 55.0819L53.3404 53.9694L53.5645 52.794L54.0806 49.9699L54.4632 48.0132C55.9024 41.0508 57.7996 36.9345 61.5733 34.0734C78.1657 21.4938 95.7464 18.6428 106.36 29.5097L107.606 28.2927L107.229 27.9139C96.8338 17.7046 80.733 19.3508 65.083 29.4813L63.9387 30.2377L62.7966 31.024ZM64.4678 36.1602C64.1306 36.4575 63.7934 36.7598 63.456 37.0668C59.7289 40.4594 57.7732 45.0056 56.2223 52.1797L55.963 53.414L55.2448 57.0385L55.0133 58.1678L54.6692 59.7422L54.4397 60.715L54.2087 61.629L53.9746 62.4862C53.9352 62.6244 53.8957 62.7604 53.8559 62.8941L53.6146 63.6699C52.4338 67.2932 51.024 69.1077 48.6747 70.1724C45.0126 71.8317 39.0688 71.8428 31.3778 70.4639L29.9603 70.1979C29.4814 70.1041 28.9963 70.0054 28.505 69.9016L27.0126 69.5754C26.7608 69.5185 26.5075 69.4605 26.2527 69.4012L24.7061 69.0307C24.1846 68.9023 23.6572 68.7691 23.1241 68.6311C19.0126 67.5669 14.6693 66.2455 10.1893 64.7248C5.83808 63.2479 1.59446 61.6651 -2.36916 60.0824L-3.71051 59.5423L-5.54418 58.7882L-7.45835 57.976L-8.15704 59.5714L-5.6231 60.6411L-4.36634 61.1558L-3.01503 61.6999C0.975422 63.2933 5.24721 64.8866 9.62954 66.3741C14.1478 67.9077 18.5314 69.2414 22.6877 70.3172C22.9566 70.3868 23.2242 70.4553 23.4903 70.5225L25.0698 70.9117Q25.4603 71.0054 25.8465 71.0954L27.3736 71.441L28.8651 71.757L30.3205 72.043C38.704 73.6229 45.2176 73.651 49.3936 71.7587C52.2596 70.46 53.9008 68.3917 55.2202 64.3879L55.4801 63.561L55.7329 62.6804L55.9804 61.744L56.2242 60.7498L56.4657 59.6957L56.7067 58.5796C56.747 58.3883 56.7872 58.1943 56.8275 57.9976L57.7558 53.3443L58.0791 51.8483C59.5334 45.4062 61.353 41.3362 64.6284 38.3548C66.1342 36.9842 67.6351 35.7146 69.128 34.5499L70.1219 33.789C71.1147 33.0437 72.1035 32.3454 73.0874 31.6951L74.0697 31.061C86.8176 23.0264 98.6887 23.1824 107.578 33.989L108.923 32.8826L108.566 32.4556C99.0053 21.2095 86.3432 21.225 73.0242 29.6654L72.0241 30.3142C71.8572 30.4249 71.6902 30.537 71.5232 30.6503L70.5198 31.346C70.3524 31.4645 70.1849 31.5844 70.0174 31.7055L69.0112 32.4474L68.0036 33.2199L66.9946 34.0227C66.4898 34.4316 65.9846 34.8517 65.4791 35.283L64.4678 36.1602ZM67.3675 40.4092L66.3955 41.4533C63.2339 44.9008 61.3946 49.3185 59.8564 55.9001L59.7459 56.378L59.4044 57.9183L58.6246 61.6137L58.3765 62.7484L58.1315 63.8182L57.8882 64.8252L57.6452 65.7714L57.4011 66.6591L57.1547 67.4901C57.1134 67.624 57.0719 67.7557 57.0302 67.8851L56.7776 68.6351C55.6289 71.8934 54.3037 73.591 52.2429 74.58C48.2874 76.478 41.3253 76.3948 32.1446 74.6763L30.6766 74.3914C30.4289 74.3417 30.1797 74.2908 29.9291 74.2389L28.4071 73.9138L26.85 73.5623L26.0585 73.3767C21.9272 72.3965 17.5634 71.1794 13.0623 69.779C8.691 68.4189 4.42793 66.9613 0.446144 65.5039L-1.53989 64.7678L-3.30733 64.0957L-4.66679 63.564L-5.31564 65.1803L-2.77148 66.1648L-0.842571 66.8858L1.58163 67.7677C5.08252 69.0232 8.77296 70.2684 12.5449 71.442C17.0818 72.8537 21.4834 74.0812 25.6564 75.0713C25.93 75.1363 26.2022 75.2001 26.4729 75.2627L28.079 75.6253C28.3437 75.6834 28.6069 75.7404 28.8686 75.7963L30.4204 76.1176L31.9354 76.411C41.4122 78.1795 48.6376 78.2417 52.9964 76.1502C55.7134 74.8464 57.296 72.7212 58.6394 68.5913L58.9051 67.7382C59.0367 67.298 59.1664 66.8369 59.2952 66.3538L59.552 65.3579L59.8079 64.3012L60.0646 63.1815L60.3237 61.9968L61.1065 58.2873L61.4436 56.767L61.7238 55.5773C63.1637 49.6617 64.8785 45.6843 67.6791 42.6305C67.9907 42.2907 68.3018 41.9564 68.6121 41.6277L69.5412 40.6583L70.4665 39.7225C70.7743 39.4162 71.0814 39.1155 71.3878 38.8206L72.3052 37.9529L73.2186 37.1196C73.8261 36.5756 74.431 36.0547 75.0331 35.5573L75.9342 34.8289C87.2594 25.8752 97.5914 25.3637 106.558 35.631C101.052 29.8403 95.2355 27.9209 89.158 29.5324C82.6668 31.2536 76.2071 36.8642 69.3398 45.8442C66.7106 49.2824 65.0154 53.5184 63.5255 59.4886L63.4086 59.9619L63.1727 60.9454L62.9268 62.0076L61.8549 66.7926L61.5873 67.9234L61.3233 68.9868L61.0615 69.985C61.0179 70.146 60.9744 70.3045 60.931 70.4603L60.6698 71.3649L60.4073 72.2097L60.1421 72.9969C58.9851 76.2869 57.7118 78.0175 55.8086 78.9885C53.519 80.1567 50.0886 80.6384 45.6972 80.5051L44.5299 80.4565C42.3504 80.3418 39.9546 80.0879 37.3622 79.7026L35.9288 79.4795L34.4571 79.2306C34.2087 79.1869 33.9586 79.1423 33.7071 79.0965L32.1793 78.8094L30.615 78.4973L29.0149 78.1603C24.8393 77.2589 20.4281 76.1364 15.8786 74.8429C11.4988 73.5977 7.22931 72.2633 3.24293 70.9289L1.89392 70.4735L0.0499458 69.8378L-1.87529 69.1528L-2.47578 70.7876L-2.35669 70.8312L0.68853 71.9021L2.69009 72.5805C6.70042 73.9229 10.9949 75.2652 15.4023 76.5182C19.9857 77.8213 24.4325 78.9528 28.6473 79.8628C28.9254 79.9228 29.2019 79.9818 29.4769 80.0397L31.1085 80.3744C31.6462 80.4816 32.1777 80.5846 32.7029 80.6832L34.2594 80.9658C34.5156 81.0107 34.7703 81.0545 35.0233 81.0972L36.5221 81.3397C37.0152 81.4161 37.5017 81.4879 37.9816 81.5552L39.4015 81.7431L40.781 81.9031L42.1197 82.0349C48.4904 82.6028 53.4105 82.1674 56.6001 80.5399C59.0753 79.2771 60.5864 77.1849 61.9235 73.1955L62.1979 72.3427L62.469 71.4337C62.5139 71.2774 62.5588 71.1186 62.6037 70.9574L62.8725 69.96L63.1418 68.9012L63.4131 67.7788L63.6881 66.5906L64.7478 61.8594L65.2153 59.9104C66.6526 54.1509 68.2692 50.1114 70.7233 46.9021C77.3755 38.2034 83.582 32.8128 89.6044 31.2159C94.6579 29.8759 99.5377 31.2715 104.29 35.8124C99.7858 31.9217 95.2267 30.7874 90.5955 32.2081C85.2185 33.8576 80.0735 38.7768 74.5526 46.8106L73.6539 48.1407L72.748 49.5252L72.2922 50.2378C70.1637 53.5903 68.6434 57.5759 67.2436 62.8981L66.9927 63.87L66.6064 65.433L65.2091 71.3679L64.9273 72.5023L64.6501 73.5693L64.3761 74.5709L64.1042 75.5092L63.833 76.3862C62.5668 80.3393 61.28 82.36 59.3738 83.399C56.957 84.7165 53.0959 85.2392 48.0403 85.0572L46.8525 85.0027C46.2482 84.9692 45.6281 84.9265 44.9929 84.8745L43.7021 84.7586C43.4836 84.7372 43.2634 84.7149 43.0416 84.6915L41.6911 84.5394C41.4627 84.512 41.2328 84.4837 41.0012 84.4544L39.5924 84.2667L38.1456 84.0555C37.6572 83.9813 37.1624 83.9031 36.6616 83.8212L35.141 83.5639L33.5845 83.284L31.9927 82.9816C27.7466 82.1543 23.2592 81.1176 18.6319 79.9194C14.257 78.7866 9.99634 77.5726 6.02097 76.3587L4.6758 75.9445L2.83748 75.3661L0.918575 74.7429L0.364727 76.3941L2.90012 77.2133L4.82392 77.8134L7.24278 78.5474C10.7367 79.5924 14.4233 80.6287 18.1953 81.6055C22.8549 82.812 27.3762 83.8565 31.6596 84.6911C32.2128 84.7989 32.7599 84.9028 33.3009 85.0029L34.9057 85.2915L36.4734 85.5565C36.7315 85.5987 36.9881 85.6399 37.2431 85.6801L38.7542 85.9091L40.2268 86.1138C40.7112 86.1779 41.1891 86.2379 41.6605 86.2937L43.0547 86.4486C43.9709 86.5435 44.8605 86.6214 45.7227 86.6819L46.9953 86.7597C52.8379 87.0611 57.3223 86.5011 60.2074 84.9282C62.1247 83.8831 63.4564 82.2162 64.6315 79.3367L64.9222 78.5912L65.208 77.7931C65.2553 77.6556 65.3024 77.5158 65.3494 77.3737L65.6304 76.493C65.6771 76.3414 65.7237 76.1874 65.7703 76.031L66.0499 75.0629C66.0965 74.8966 66.1432 74.7277 66.1899 74.5562L66.4715 73.4962L66.7561 72.3722L67.0455 71.1824L68.2988 65.8444L68.5557 64.7967L68.8043 63.8157L69.1554 62.4927C70.4503 57.7534 71.8604 54.1673 73.7625 51.1714C74.2152 50.4586 74.6645 49.7666 75.1108 49.0956L75.9994 47.7816C81.3078 40.0656 86.2025 35.3775 91.1062 33.8732C95.0731 32.6563 99.0394 33.6088 103.057 37.0348C99.3348 34.2688 95.6615 33.5975 92.0044 34.8901C87.5411 36.4676 83.4185 40.7784 79.0584 47.8706L78.3085 49.1137C77.3053 50.8075 76.2879 52.6467 75.2495 54.632C73.5932 57.7984 72.2845 61.44 71.0253 66.0531L70.8898 66.5539L70.4803 68.1172L70.0464 69.8456L68.7045 75.355L68.3988 76.5553L68.0993 77.6841L67.8049 78.7434C67.7562 78.9143 67.7076 79.0824 67.6592 79.2477L67.3699 80.2067L67.0824 81.1014C67.0346 81.2453 66.9868 81.3866 66.939 81.5253L66.6519 82.3274C66.604 82.4561 66.556 82.5823 66.5079 82.7061L66.2183 83.4202C65.2483 85.7057 64.2242 87.0558 62.9344 87.8117C60.5508 89.2087 56.5605 89.7966 51.2505 89.6684L50.0489 89.6281C49.845 89.6195 49.6394 89.6098 49.432 89.5993L48.1665 89.5241C47.5233 89.4807 46.8644 89.4287 46.1903 89.3682L44.8219 89.2359C44.5905 89.212 44.3575 89.1871 44.1227 89.1613L42.6947 88.9954C42.4534 88.966 42.2105 88.9355 41.966 88.9042L40.4798 88.7052C40.229 88.6703 39.9765 88.6344 39.7225 88.5976L38.1799 88.3661L36.6004 88.1131L34.9848 87.839C30.6407 87.0819 26.0469 86.1235 21.311 85.0105C16.9565 83.9871 12.7216 82.8904 8.77454 81.7938L6.19832 81.0657L3.71136 80.334L3.20224 81.9996L5.7162 82.7393L6.96489 83.0954L10.0262 83.9442C13.4954 84.8879 17.1593 85.8239 20.9126 86.706C25.6795 87.8263 30.3058 88.7914 34.6858 89.5548L36.352 89.8376L37.9805 90.0984C38.5171 90.1816 39.0472 90.2611 39.5709 90.3369L41.1226 90.5528C41.3779 90.5869 41.6317 90.62 41.8837 90.6522L43.3763 90.8337C43.8672 90.8903 44.3514 90.943 44.8288 90.9918L46.2408 91.1262C46.4727 91.1466 46.7029 91.166 46.9314 91.1844L48.2814 91.2827C48.503 91.2971 48.7228 91.3104 48.9408 91.3227L50.2278 91.3842L51.472 91.4208C56.9741 91.5286 61.1618 90.8693 63.815 89.3143C65.8687 88.1107 67.2568 85.9892 68.5917 82.0955L68.8877 81.2007L69.1835 80.2454L69.4805 79.2277C69.5302 79.0528 69.58 78.8751 69.6299 78.6947L69.9316 77.5793L70.2382 76.3962C70.3414 75.9903 70.4457 75.5728 70.5513 75.1433L71.8846 69.6694L72.1668 68.5521L72.5717 67.0062L72.952 65.6239C74.1052 61.5402 75.31 58.2739 76.7928 55.4392L77.558 53.9963C77.8118 53.5247 78.0642 53.0622 78.3155 52.6091L79.0656 51.2776C79.3145 50.843 79.5623 50.4177 79.809 50.0017L80.546 48.7814C80.6684 48.5827 80.7905 48.3863 80.9123 48.1922L81.6408 47.0553C85.3911 41.3253 88.9377 37.8212 92.5848 36.5322C95.801 35.3954 99.1141 36.0853 102.569 38.8428C99.4256 36.7592 96.3779 36.3707 93.3914 37.5844C89.0131 39.3638 85.1734 44.3185 81.0901 52.6853L80.4599 53.9995C80.2491 54.4465 80.0376 54.9026 79.8252 55.3677L79.1854 56.7901C79.0783 57.0317 78.971 57.2756 78.8634 57.5217L78.2147 59.0258C77.0055 61.8661 75.9524 65.0314 74.8956 68.8429L74.7499 69.3722L74.3103 71.0144L73.8443 72.821L72.2348 79.2451L71.7536 81.0796L71.4414 82.2144L71.135 83.2806C71.0843 83.4527 71.0338 83.622 70.9836 83.7885L70.6836 84.7551C70.6339 84.9108 70.5844 85.0639 70.5349 85.2142L70.2391 86.0852C69.0594 89.4445 67.9135 91.3251 66.4931 92.2271C64.12 93.7343 59.9103 94.394 54.2073 94.3056L53.0062 94.2766L51.7631 94.2265C51.5525 94.2164 51.3401 94.2055 51.1261 94.1936L49.8214 94.1122L48.4764 94.0101L47.0919 93.8875C46.8579 93.8654 46.6222 93.8424 46.385 93.8186L44.9424 93.6657C44.4551 93.6114 43.9616 93.5537 43.4619 93.4928L41.9441 93.3001L40.3899 93.0879C40.1278 93.0509 39.8643 93.0131 39.5993 92.9745L37.9915 92.7332C33.5198 92.0431 28.7874 91.1564 23.9104 90.1196C19.5937 89.2018 15.4037 88.2184 11.5043 87.235L9.56077 86.7384L7.83357 86.2849L6.50637 85.9259L6.03975 87.6039L9.75185 88.5863L12.5616 89.2943C16.0526 90.1583 19.7512 91.0159 23.5482 91.8232C28.4553 92.8664 33.2193 93.759 37.7258 94.4545L39.3848 94.7035L41.0066 94.9325L42.5906 95.1412C42.8514 95.1743 43.1107 95.2065 43.3683 95.2379L44.8948 95.4156L46.3822 95.5724C46.6268 95.5968 46.8698 95.6203 47.1111 95.6429L48.5391 95.7677C48.7738 95.7867 49.0067 95.8048 49.238 95.822L50.6053 95.9141C50.8298 95.9277 51.0526 95.9403 51.2736 95.9519L52.5791 96.0108L53.8428 96.0472C60.0556 96.1723 64.68 95.4419 67.4269 93.6973C69.1552 92.5997 70.4365 90.6373 71.6859 87.2299L71.9978 86.3476L72.3098 85.4031C72.3619 85.2404 72.4141 85.075 72.4663 84.9069L72.7812 83.8653C72.834 83.6861 72.8869 83.5042 72.94 83.3194L73.261 82.1761L73.5879 80.9626L74.0826 79.0458L75.3664 73.9053L75.8444 72.0336L76.4297 69.8322L76.8333 68.3857C77.7846 65.0509 78.7401 62.2381 79.8172 59.708L80.456 58.2272L81.0884 56.8014L81.7151 55.4303C81.819 55.2064 81.9228 54.9847 82.0263 54.7653L82.6451 53.4763L83.2592 52.2417C83.3612 52.0405 83.463 51.8415 83.5647 51.6448L84.1727 50.4918C87.5067 44.2992 90.682 40.5655 94.0472 39.1979C96.7148 38.1138 99.5408 38.6371 102.561 40.969C99.8523 39.3262 97.2628 39.1249 94.7597 40.294C91.1967 41.9581 88.1573 46.1608 85.0844 53.1717L84.5718 54.3662L84.058 55.613C83.9723 55.8251 83.8864 56.0395 83.8005 56.2561L83.2839 57.5818L82.7646 58.9605L82.2422 60.3925L81.7159 61.878L81.1853 63.4173C80.5748 65.2115 79.987 67.1201 79.3887 69.2297L78.8726 71.0891L78.5605 72.2611L75.781 83.1162L75.4893 84.2255L75.1459 85.4841C75.0893 85.6878 75.033 85.8884 74.977 86.086L74.6442 87.2356C74.5892 87.4213 74.5345 87.604 74.4801 87.7838L74.1559 88.8277L73.8364 89.8027C73.7306 90.1164 73.6254 90.4189 73.5207 90.7104L73.2079 91.5521C73.156 91.687 73.1042 91.8191 73.0524 91.9486L72.7423 92.694C71.8652 94.7165 70.9967 95.9865 70.047 96.6471C67.9347 98.1162 64.1227 98.8652 58.9103 98.9713L57.772 98.9843L56.5915 98.9777C56.191 98.9723 55.7836 98.9637 55.3694 98.9518L54.1065 98.9067C53.8926 98.8976 53.6771 98.8877 53.4599 98.877L52.1368 98.8035C51.913 98.7897 51.6875 98.7751 51.4605 98.7597L50.0787 98.6581C49.8452 98.6397 49.6101 98.6204 49.3734 98.6004L47.9345 98.4711C47.6916 98.4481 47.4471 98.4242 47.201 98.3997L45.7064 98.2431L44.1754 98.0685L42.6088 97.8762L41.0071 97.6661C36.3775 97.0404 31.4729 96.2197 26.4213 95.2511C22.1618 94.4343 18.0374 93.5591 14.2066 92.6839L11.1432 91.9683L9.30151 91.5188L8.87493 93.2074L11.3062 93.7975L13.156 94.2297L15.2758 94.7115C18.7066 95.4802 22.3476 96.2433 26.0933 96.9616C31.1745 97.9359 36.11 98.7618 40.7739 99.3921L42.4279 99.6091L44.0451 99.8077L45.6249 99.9878C45.885 100.016 46.1436 100.044 46.4006 100.071L47.9234 100.223L49.4075 100.355C49.6517 100.376 49.8941 100.395 50.135 100.414L51.5603 100.517L52.9457 100.601L54.2909 100.664C54.5117 100.673 54.7307 100.681 54.9481 100.688L56.2318 100.721C57.2843 100.74 58.2934 100.737 59.258 100.712L60.394 100.671C65.2231 100.447 68.8325 99.6133 71.0414 98.0769C72.0357 97.3854 72.9026 96.2993 73.7271 94.7023L74.0548 94.036C74.272 93.5733 74.487 93.0732 74.7014 92.5334L75.0228 91.6937L75.3444 90.7929C75.3981 90.6376 75.4519 90.4797 75.5057 90.3191L75.8301 89.3236L76.1578 88.2628L76.4899 87.1352L76.8279 85.939L77.3481 84.0126L80.3302 72.3804L80.8092 70.6143C80.9792 70.002 81.1478 69.4071 81.3159 68.8277L81.8193 67.1341C82.1548 66.0333 82.491 64.9867 82.8342 63.9783C82.9214 63.7219 83.0085 63.4677 83.0953 63.2158L83.6143 61.731L84.1292 60.2997L84.6404 58.9218L85.1482 57.5971L85.6531 56.3254L86.1556 55.1065C86.3227 54.709 86.4894 54.3203 86.6559 53.9403L87.1545 52.8266C87.4035 52.2829 87.6519 51.7587 87.9002 51.2541L88.3963 50.2709C90.7107 45.8035 93.0159 43.0307 95.4967 41.872C97.7277 40.83 100.157 41.229 102.812 43.2398C100.021 41.6756 97.4215 41.8796 94.9759 43.7646C93.0557 45.2446 91.3771 47.5802 89.7751 50.985L89.3761 51.8586L88.9797 52.7775C88.8479 53.0915 88.7165 53.4131 88.5853 53.7425L88.1924 54.7542L87.8004 55.8134L87.4087 56.9209L87.0168 58.0774L86.624 59.2836L86.2299 60.5404L85.8337 61.8483L85.435 63.2082L85.0332 64.6209L84.4233 66.8403L84.0112 68.3879L83.5939 69.9909L82.9571 72.5006L82.1262 75.8831L79.6343 85.8877L79.107 87.8825L78.583 89.7705L78.0735 91.5097L77.7412 92.5876L77.4142 93.601L77.0921 94.5504C77.0388 94.7033 76.9857 94.8536 76.9328 95.0013L76.6172 95.856C76.5649 95.9932 76.5128 96.1278 76.4608 96.2599L76.1508 97.0212L75.8438 97.721L75.5395 98.3599C74.8829 99.6789 74.2419 100.574 73.5965 101.072C72.1922 102.157 69.8926 102.894 66.8098 103.307L65.8615 103.421L64.867 103.516L63.8268 103.592C63.6497 103.603 63.4706 103.613 63.2898 103.622L62.1824 103.67C61.9941 103.676 61.804 103.682 61.6121 103.687L60.439 103.706C59.4435 103.715 58.4031 103.704 57.3198 103.674L55.9993 103.63L54.6382 103.567L53.2372 103.487L51.7969 103.389L50.318 103.274L48.8012 103.141L47.2472 102.991L45.6566 102.824L44.0302 102.641C39.2118 102.077 34.1009 101.318 28.8412 100.41C24.6597 99.6884 20.6228 98.9151 16.8821 98.142L15.6174 97.8781L13.3663 97.395L12.0986 97.1127L11.7093 98.8102L14.078 99.3314L15.8826 99.7133L17.9526 100.139C21.3042 100.818 24.8687 101.492 28.545 102.126C33.834 103.039 38.9756 103.803 43.828 104.371L45.5099 104.561L47.1537 104.733L48.759 104.888L50.3252 105.025L51.8519 105.144L53.3385 105.244L54.7846 105.325L56.1896 105.387C56.4203 105.396 56.6493 105.404 56.8765 105.411L58.219 105.445C58.6594 105.453 59.0928 105.457 59.5191 105.458L60.7765 105.452C67.3672 105.366 72.1096 104.422 74.6614 102.451C75.4822 101.816 76.2465 100.798 76.998 99.3383L77.3194 98.6857C77.5867 98.1192 77.8533 97.4953 78.121 96.8117L78.4429 95.9625L78.7667 95.0548C78.875 94.7424 78.9837 94.4202 79.0931 94.0878L79.4229 93.0604L79.7568 91.9716L80.0957 90.8205L80.4402 89.606C80.4982 89.3983 80.5564 89.1879 80.6149 88.9747L81.1495 86.9831L81.5311 85.4973L84.536 73.3759L85.0678 71.2562L85.4831 69.6449L86.0963 67.3315L86.4992 65.8573L87.0961 63.7465L87.4897 62.4054L87.8804 61.1164L88.2687 59.8789L88.6551 58.6923L89.0399 57.556L89.4238 56.4693C89.4877 56.2923 89.5516 56.1173 89.6155 55.9443L89.9987 54.9309C90.0626 54.766 90.1265 54.6031 90.1904 54.4422L90.5742 53.5006C91.1503 52.1237 91.7296 50.9058 92.3192 49.8373L92.7139 49.1471C93.7709 47.3649 94.8658 46.0484 96.0391 45.144C98.6445 43.1359 101.657 43.7087 105.168 47.3055L105.661 47.827C105.826 48.0075 105.993 48.1945 106.161 48.3881L106.667 48.989L107.179 49.6299L107.699 50.3111Q107.83 50.4865 107.961 50.6669L108.491 51.4091C108.668 51.6634 108.847 51.9244 109.027 52.1923L109.57 53.0168L110.12 53.8828Q110.259 54.1045 110.398 54.3315L110.959 55.2602C111.053 55.4185 111.147 55.5786 111.242 55.7404L111.813 56.7326C111.909 56.9015 112.005 57.0722 112.101 57.2446L112.683 58.3008L113.272 59.4L113.869 60.5424L114.472 61.7284L115.084 62.9581L115.702 64.232L116.328 65.5501L117.905 64.8095L117.27 63.4731L116.64 62.1786L116.016 60.9259L115.868 60.6361L116.631 60.2602L116.288 59.5676L115.605 58.2187L114.927 56.9184L114.513 56.1468L115.357 55.7083L115.002 55.032C114.379 53.852 113.761 52.7315 113.146 51.6699L114.08 51.1538L113.719 50.5068C113.064 49.3448 112.411 48.2473 111.761 47.2134L112.8 46.5953L112.431 45.9813C111.741 44.846 111.049 43.7801 110.357 42.7829L111.515 42.0318L111.143 41.4657C110.412 40.3671 109.674 39.3432 108.931 38.3933L110.224 37.4615L109.852 36.9528C99.7844 23.3834 87.8501 23.3095 75.0479 33.3217L74.098 34.0817C71.878 35.898 69.6328 38.013 67.3675 40.4092Z" opacity="0.100000001" fill="rgb(218,84,210)" fill-rule="evenodd" />
		</g>
	</g>
	<g id="P备份">
		<g id="路径 2" showMaskRef="url(#show_mask_2)" mask="url(#mask_12)">
			<path id="show_mask_2" d="M50.6484 44.3334L13.5855 44.216L15.3697 31.5366L50.6484 31.654C52.3858 31.654 53.8059 30.2435 53.8059 28.5001C53.8059 26.7646 52.3858 25.3461 50.6484 25.3461L35.3368 25.3461L37.1218 12.6667L50.6484 12.6667C59.3911 12.6667 66.4995 19.7751 66.4995 28.5001C66.4995 37.2329 59.3911 44.3334 50.6484 44.3334Z" fill="url(#paint_linear_10)" fill-rule="evenodd" />
			<path id="路径" d="M63.6441 18.8295C65.8479 21.3381 66.833 25.2469 66.7646 28.9848C66.7646 37.617 58.9657 44.7115 50.3666 44.8571L50.0945 44.8594L13.7537 44.3333L15.5341 31.6674L50.0945 31.6326C51.7757 31.6326 55.793 31.562 59.3368 28.7681C62.8805 25.9741 63.6441 18.8295 63.6441 18.8295Z" fill="url(#paint_linear_11)" fill-rule="evenodd" />
			<path id="路径 2" d="M28.2052 31.5792L26.4161 44.2554L44.0972 44.2975C44.0972 44.2975 36.4191 41.2865 33.2112 38.2877C30.0032 35.2889 28.2052 31.5792 28.2052 31.5792Z" fill="url(#paint_linear_12)" fill-rule="evenodd" />
			<path id="路径 2" d="M29.4448 44.2626L26.4161 44.2554L27.5439 36.2646L28.2052 31.5792C28.2052 31.5792 29.0753 33.3744 30.6849 35.4767C31.3891 36.3965 32.2348 37.375 33.2112 38.2877C34.3222 39.3263 35.9692 40.3663 37.6479 41.2822C40.8164 43.0109 44.0972 44.2975 44.0972 44.2975L36.8911 44.2804L29.4448 44.2626ZM29.8681 41.2636L32.0847 41.2689Q31.5802 40.8698 31.1625 40.4793Q30.6334 39.9847 30.1244 39.4473L29.8681 41.2636Z" fill="url(#paint_linear_13)" fill-opacity="0" fill-rule="evenodd" />
		</g>
		<g id="路径 3" showMaskRef="url(#show_mask_3)" mask="url(#mask_13)">
			<path id="show_mask_3" d="M25.5122 50.6667L30.8754 12.6667L18.0302 12.6667L12.6671 50.6667L25.5122 50.6667Z" fill="url(#paint_linear_14)" fill-rule="evenodd" />
			<path id="路径" d="M15.3697 31.5366L28.2044 31.5794L26.4153 44.2555L13.5855 44.2159L15.3697 31.5366Z" fill="url(#paint_linear_15)" fill-rule="evenodd" />
			<path id="路径 3" d="M45.9113 5.82567C45.9113 5.82567 36.661 5.38593 24.2488 6.88862C11.8367 8.39131 0 11.0378 0 11.0378C0 11.0378 2.34998 0.0479119 3.75575 0.00113174C5.16151 -0.0456484 46.1621 1.84121 46.1621 1.84121L45.9113 5.82567Z" opacity="0.600000024" fill="url(#paint_linear_16)" fill-rule="evenodd" transform="matrix(-0.156435,0.987688,0.987688,0.156435,14.9075,8.77521)" />
			<path id="路径 3" d="M24.2488 6.88862C36.661 5.38593 45.9113 5.82567 45.9113 5.82567L45.9736 4.83575L46.1621 1.84121C46.1621 1.84121 45.0416 1.78965 43.1648 1.70378C33.6884 1.27021 4.92912 -0.0379151 3.75575 0.00113174C2.85446 0.0311242 1.56504 4.55934 0.755669 7.80549C0.302637 9.62246 0 11.0378 0 11.0378C0 11.0378 1.19651 10.7702 3.2276 10.357C7.58484 9.47056 15.783 7.91355 24.2488 6.88862ZM4.02501 7.13681Q5.44315 6.85562 6.9181 6.57788Q16.0344 4.8612 23.8883 3.91037Q24.1121 3.88327 24.3362 3.8568L5.27947 3.06687Q4.81512 4.26975 4.2417 6.33837Q4.13362 6.72825 4.02501 7.13681Z" opacity="0.600000024" fill="rgb(151,151,151)" fill-opacity="0" fill-rule="evenodd" transform="matrix(-0.156435,0.987688,0.987688,0.156435,14.9075,8.77521)" />
		</g>
		<path id="Fill 171" d="M11.9583 57L11.0829 63.3333L23.6652 63.3333L24.5413 57L11.9583 57Z" fill="rgb(255,143,191)" fill-rule="evenodd" />
	</g>
	<g showMaskRef="url(#show_mask_4)" mask="url(#mask_14)">
		<g id="show_mask_4">
			<rect id="蒙版" width="76.000000" height="76.000000" x="0.000000" y="0.000000" rx="6.333333" fill="rgb(255,255,255)" fill-opacity="0" />
			<rect id="蒙版" width="73.000000" height="73.000000" x="1.500000" y="1.500000" rx="4.833333" stroke="rgb(251,237,250)" stroke-width="3" />
		</g>
	</g>
</svg>
