<svg viewBox="0 0 80 80" xmlns="http://www.w3.org/2000/svg" xmlns:xlink="http://www.w3.org/1999/xlink" width="80.000000" height="80.000000" fill="none" customFrame="#000000">
	<defs>
		<filter id="pixso_custom_mask_type_outline">
			<feColorMatrix type="matrix" values="0 0 0 0 1 0 0 0 0 1 0 0 0 0 1 0 0 0 1 0 " />
		</filter>
		<linearGradient id="paint_linear_0" x1="55.1365318" x2="51.943718" y1="62.1608925" y2="56.5241356" gradientUnits="userSpaceOnUse">
			<stop stop-color="rgb(195,204,215)" offset="0" stop-opacity="1" />
			<stop stop-color="rgb(233,241,251)" offset="0.46562618" stop-opacity="1" />
			<stop stop-color="rgb(195,204,215)" offset="1" stop-opacity="1" />
		</linearGradient>
		<linearGradient id="paint_linear_1" x1="39.279213" x2="52.4304581" y1="8.48757935" y2="47.1546211" gradientUnits="userSpaceOnUse">
			<stop stop-color="rgb(255,231,186)" offset="0" stop-opacity="1" />
			<stop stop-color="rgb(250,140,22)" offset="1" stop-opacity="1" />
		</linearGradient>
	</defs>
	<mask id="mask_0" width="57.013340" height="39.238556" x="11.856995" y="32.475494" maskUnits="userSpaceOnUse">
		<g filter="url(#pixso_custom_mask_type_outline)">
			<path id="形状结合" d="M28.6604 39.6753L19.6297 44.8866L28.6441 49.8725C28.7342 49.9234 28.8243 49.9756 28.9145 50.0279C29.5869 50.4179 30.2675 50.8125 31.035 50.7019C36.0363 49.9808 37.1023 42.1176 36.191 40.1041L36.0363 40.0012L27.0723 43.7454L28.6604 39.6753ZM11.857 49.3719L16.5658 46.6546L27.3941 52.7656C29.0391 53.6007 30.555 53.6149 32.3219 53.4798C41.6634 52.7656 44.1974 37.3974 40.6209 35.261L40.0978 34.9485L39.505 35.0894L39.4425 35.1081C39.3684 35.1335 39.2454 35.1826 39.0363 35.2721L32.0003 39.0714L32.7508 37.3149L37.1014 34.8044L41.1373 32.4755L65.402 46.5201L65.4009 46.5207C65.4502 46.5593 67.8039 48.4052 68.4622 49.8546C69.1275 51.3194 69.1386 54.28 67.2757 55.3555L39.0063 71.7141C39.0261 71.542 39.0363 71.3671 39.0363 71.1898C39.0363 67.4872 37.005 64.0831 33.7465 62.3249L14.4677 51.9226L14.2371 51.7922C13.2309 51.1964 12.4181 50.3562 11.857 49.3719Z" fill="rgb(255,255,255)" fill-rule="evenodd" />
			<path id="形状结合" d="M11.857 49.3719L16.5658 46.6546L27.3941 52.7656C29.0391 53.6007 30.555 53.6149 32.3219 53.4798C38.9738 52.9713 42.1739 45.0323 42.1739 39.7315C42.1739 37.5882 41.6507 35.8761 40.6209 35.261L40.0978 34.9485L39.505 35.0894L39.4425 35.1081C39.3684 35.1335 39.2454 35.1826 39.0363 35.2721L32.0003 39.0714L32.7508 37.3149L37.1014 34.8044L41.1373 32.4755L65.402 46.5201L65.4009 46.5207C65.4502 46.5593 67.8039 48.4052 68.4622 49.8546C68.7126 50.406 68.8703 51.1693 68.8703 51.9642C68.8703 53.2811 68.4374 54.6848 67.2757 55.3555L39.0063 71.7141C39.0261 71.542 39.0363 71.3671 39.0363 71.1898C39.0363 67.4872 37.005 64.0831 33.7465 62.3249L14.4677 51.9226L14.2371 51.7922C13.2309 51.1964 12.4181 50.3562 11.857 49.3719ZM45.0998 38.2353Q45.1235 38.4661 45.1397 38.7046C45.1628 39.0435 45.1744 39.3887 45.1744 39.7401C45.1744 40.5224 45.1171 41.3356 45.0026 42.1795C44.8361 43.4066 44.5588 44.6216 44.1708 45.8246C43.7574 47.1065 43.2394 48.3064 42.617 49.4242C41.9272 50.6631 41.1341 51.7544 40.2379 52.6981Q38.7153 54.3014 36.8813 55.2463Q35.9192 55.7421 34.8995 56.0428L34.8984 56.0431Q33.7603 56.3786 32.5506 56.4711C31.99 56.5139 31.4968 56.5377 31.0712 56.5424C30.5047 56.5487 29.9728 56.5238 29.4754 56.4676C29.3576 56.4542 29.2405 56.439 29.124 56.4218L35.1711 59.6847C36.219 60.2501 37.1713 60.945 38.0279 61.7695Q38.6458 62.364 39.1764 63.0282Q39.7305 63.7216 40.1895 64.4909Q40.6486 65.2602 40.9957 66.077L40.9958 66.0773L40.9959 66.0775Q41.1705 66.4882 41.3167 66.911L65.7185 52.7905C65.7758 52.686 65.8182 52.5352 65.8455 52.3383C65.8625 52.2159 65.871 52.0911 65.871 51.9641C65.871 51.8352 65.8623 51.7039 65.8448 51.5702Q65.8036 51.2558 65.7307 51.0952Q65.7158 51.0623 65.6553 50.9725C65.5904 50.8762 65.5076 50.7674 65.4067 50.6462C65.1999 50.3976 64.9408 50.1244 64.6295 49.8265C64.3906 49.598 64.1376 49.3708 63.8705 49.145Q63.7731 49.0626 63.6949 48.9983L45.0998 38.2353ZM19.6297 44.8866L28.6604 39.6753L27.0723 43.7454L36.0363 40.0012L36.191 40.1041C36.3813 40.5246 36.4854 41.2002 36.4854 42.0127C36.4854 45.0904 34.9918 50.1314 31.035 50.7019C30.2675 50.8125 29.5869 50.4179 28.9145 50.0279C28.8243 49.9756 28.7342 49.9234 28.6441 49.8725L19.6297 44.8866ZM28.5368 46.3848L30.0961 47.2473L30.4096 47.4271C30.6031 47.5392 30.7528 47.623 30.8589 47.6784C30.9941 47.6392 31.1231 47.5846 31.2461 47.5147C31.4559 47.3953 31.6593 47.2269 31.8564 47.0096Q32.1869 46.6452 32.4725 46.123C32.668 45.7656 32.8396 45.3678 32.9874 44.9295C33.0386 44.7774 33.0861 44.623 33.13 44.4663L28.5368 46.3848Z" fill="rgb(151,151,151)" fill-opacity="0" fill-rule="evenodd" />
		</g>
	</mask>
	<rect id="2.5D 服务图标/协同服务域/流水线 CloudPipeline" width="80.000000" height="80.000000" x="0.000000" y="0.000000" />
	<rect id="矩形备份 3" width="80.000000" height="80.000000" x="0.000000" y="0.000000" fill="rgb(255,255,255)" fill-opacity="0" />
	<rect id="矩形备份 3" width="77.000000" height="77.000000" x="1.500000" y="1.500000" stroke="rgb(151,151,151)" stroke-opacity="0" stroke-width="3" />
	<path id="形状结合" d="M35.8762 45.3759L28.1778 49.7697L28.5477 49.9787C29.3094 50.4091 30.1609 50.656 31.0347 50.6998C32.5714 50.777 34.5421 48.1894 35.8762 45.3759ZM19.5779 54.678L25.1439 51.5013L27.072 52.5907L27.3938 52.7636C28.4772 53.3166 29.6664 53.65 30.8843 53.696C37.7932 53.9571 41.3535 47.2981 42.133 41.8263L66.4985 55.7648L39.0001 71.761C39.0238 71.5733 39.036 71.3819 39.036 71.1877C39.036 67.4851 37.0047 64.081 33.7462 62.3228L19.5779 54.678ZM16.5077 56.4303L10.5023 59.8578L33.7623 72.5378C33.9881 72.6609 34.2412 72.7254 34.4983 72.7254C35.3475 72.7254 36.036 72.037 36.036 71.1877C36.036 68.6775 34.7063 66.3627 32.5552 65.0948L32.3216 64.963L16.5077 56.4303Z" fill="rgb(171,180,191)" fill-rule="evenodd" />
	<path id="形状结合" d="M19.5779 54.678L25.1439 51.5013L27.072 52.5907L27.3938 52.7636C28.4772 53.3166 29.6664 53.65 30.8843 53.696C37.7932 53.9571 41.3535 47.2981 42.133 41.8263L66.4985 55.7648L39.0001 71.761C39.0238 71.5733 39.036 71.3819 39.036 71.1877C39.036 67.4851 37.0047 64.081 33.7462 62.3228L19.5779 54.678ZM28.1778 49.7697L35.8762 45.3759C34.5421 48.1894 32.5714 50.777 31.0347 50.6998C30.1609 50.656 29.3094 50.4091 28.5477 49.9787L28.1778 49.7697ZM41.3262 66.9372L60.4948 55.7865L44.0827 46.3979C43.9953 46.644 43.9033 46.8888 43.8066 47.1324C43.1089 48.891 42.2236 50.4415 41.1506 51.784Q39.3244 54.0689 36.9528 55.3194L36.9485 55.3217Q36.939 55.3266 36.9296 55.3316Q36.8709 55.3624 36.8118 55.3926Q35.8425 55.8878 34.817 56.1959L34.817 56.1959L34.8169 56.1959Q32.8929 56.7741 30.771 56.6939Q30.6424 56.689 30.5141 56.6811L30.5139 56.6811Q29.9358 56.6455 29.3615 56.5481L35.1707 59.6826C36.2187 60.248 37.1709 60.943 38.0276 61.7674Q38.6453 62.3618 39.1758 63.0257L39.1759 63.0258L39.176 63.026Q39.7301 63.7195 40.1892 64.4889C40.6544 65.2684 41.0334 66.0845 41.3262 66.9372ZM10.5023 59.8578L16.5077 56.4303L32.3216 64.963L32.5552 65.0948C34.7063 66.3627 36.036 68.6775 36.036 71.1877C36.036 72.037 35.3475 72.7254 34.4983 72.7254C34.2412 72.7254 33.9881 72.6609 33.7623 72.5378L10.5023 59.8578Z" fill="rgb(151,151,151)" fill-opacity="0" fill-rule="evenodd" />
	<g id="CloudIDE备份 10">
		<g id="编组 34">
			<path id="形状结合" d="M32.4446 65.0333L32.4068 65.0563L35.6833 71.7596L35.9836 71.5881C36.0178 71.4607 36.036 71.3268 36.036 71.1887C36.036 68.6785 34.7064 66.3636 32.5552 65.0957L32.4446 65.0333ZM38.9525 69.8931L46.2729 65.7136L43.1677 58.5231L35.2585 63.325C37.2871 64.9487 38.6171 67.3034 38.9525 69.8931Z" fill="rgb(250,140,22)" fill-rule="evenodd" />
			<path id="形状结合" d="M46.2729 65.7136L38.9525 69.8931C38.6171 67.3034 37.2871 64.9487 35.2585 63.325L43.1677 58.5231L46.2729 65.7136ZM39.8957 64.0192Q40.1364 64.3875 40.3546 64.7749Q40.5395 65.1034 40.7042 65.4385L42.4547 64.439L41.7795 62.8755L39.8957 64.0192ZM32.4068 65.0563L32.4446 65.0333L32.5552 65.0957C34.7064 66.3636 36.036 68.6785 36.036 71.1887C36.036 71.3268 36.0178 71.4607 35.9836 71.5881L35.6833 71.7596L32.4068 65.0563Z" fill="rgb(151,151,151)" fill-opacity="0" fill-rule="evenodd" />
			<path id="形状结合" d="M32.4255 65.0228C31.7876 65.3704 31.3748 66.1915 31.3748 67.3199C31.3748 69.2128 32.5394 71.2477 33.9734 71.8682C34.8002 72.2259 35.5373 72.036 36.0135 71.4484C36.0278 71.3639 36.0353 71.2771 36.0353 71.1886C36.0353 68.6784 34.7057 66.3635 32.5545 65.0956L32.4255 65.0228Z" fill="rgb(255,192,105)" fill-rule="evenodd" />
			<path id="形状结合" d="M32.4255 65.0228C31.7876 65.3704 31.3748 66.1915 31.3748 67.3199C31.3748 69.2128 32.5394 71.2477 33.9734 71.8682C34.8002 72.2259 35.5373 72.036 36.0135 71.4484C36.0278 71.3639 36.0353 71.2771 36.0353 71.1886C36.0353 68.6784 34.7057 66.3635 32.5545 65.0956L32.4255 65.0228Z" fill="rgb(151,151,151)" fill-opacity="0" fill-rule="evenodd" />
			<path id="路径" d="M33.9741 69.7466C33.4067 69.5106 32.9459 68.7367 32.9459 68.0168C32.9459 67.2969 33.4057 66.9058 33.9741 67.1423C34.5426 67.3787 35.0024 68.1522 35.0024 68.8721C35.0024 69.592 34.5416 69.9826 33.9741 69.7466Z" fill="rgb(255,255,255)" fill-rule="evenodd" />
			<path id="路径" d="" fill="rgb(151,151,151)" fill-opacity="0" fill-rule="evenodd" />
		</g>
	</g>
	<g id="编组 36" showMaskRef="url(#show_mask_0)" mask="url(#mask_0)">
		<g id="show_mask_0">
			<path id="形状结合" d="M28.6604 39.6753L19.6297 44.8866L28.6441 49.8725C28.7342 49.9234 28.8243 49.9756 28.9145 50.0279C29.5869 50.4179 30.2675 50.8125 31.035 50.7019C36.0363 49.9808 37.1023 42.1176 36.191 40.1041L36.0363 40.0012L27.0723 43.7454L28.6604 39.6753ZM11.857 49.3719L16.5658 46.6546L27.3941 52.7656C29.0391 53.6007 30.555 53.6149 32.3219 53.4798C41.6634 52.7656 44.1974 37.3974 40.6209 35.261L40.0978 34.9485L39.505 35.0894L39.4425 35.1081C39.3684 35.1335 39.2454 35.1826 39.0363 35.2721L32.0003 39.0714L32.7508 37.3149L37.1014 34.8044L41.1373 32.4755L65.402 46.5201L65.4009 46.5207C65.4502 46.5593 67.8039 48.4052 68.4622 49.8546C69.1275 51.3194 69.1386 54.28 67.2757 55.3555L39.0063 71.7141C39.0261 71.542 39.0363 71.3671 39.0363 71.1898C39.0363 67.4872 37.005 64.0831 33.7465 62.3249L14.4677 51.9226L14.2371 51.7922C13.2309 51.1964 12.4181 50.3562 11.857 49.3719Z" fill="rgb(195,204,215)" fill-rule="evenodd" />
			<path id="形状结合" d="M11.857 49.3719L16.5658 46.6546L27.3941 52.7656C29.0391 53.6007 30.555 53.6149 32.3219 53.4798C38.9738 52.9713 42.1739 45.0323 42.1739 39.7315C42.1739 37.5882 41.6507 35.8761 40.6209 35.261L40.0978 34.9485L39.505 35.0894L39.4425 35.1081C39.3684 35.1335 39.2454 35.1826 39.0363 35.2721L32.0003 39.0714L32.7508 37.3149L37.1014 34.8044L41.1373 32.4755L65.402 46.5201L65.4009 46.5207C65.4502 46.5593 67.8039 48.4052 68.4622 49.8546C68.7126 50.406 68.8703 51.1693 68.8703 51.9642C68.8703 53.2811 68.4374 54.6848 67.2757 55.3555L39.0063 71.7141C39.0261 71.542 39.0363 71.3671 39.0363 71.1898C39.0363 67.4872 37.005 64.0831 33.7465 62.3249L14.4677 51.9226L14.2371 51.7922C13.2309 51.1964 12.4181 50.3562 11.857 49.3719ZM45.0998 38.2353Q45.1235 38.4661 45.1397 38.7046C45.1628 39.0435 45.1744 39.3887 45.1744 39.7401C45.1744 40.5224 45.1171 41.3356 45.0026 42.1795C44.8361 43.4066 44.5588 44.6216 44.1708 45.8246C43.7574 47.1065 43.2394 48.3064 42.617 49.4242C41.9272 50.6631 41.1341 51.7544 40.2379 52.6981Q38.7153 54.3014 36.8813 55.2463Q35.9192 55.7421 34.8995 56.0428L34.8984 56.0431Q33.7603 56.3786 32.5506 56.4711C31.99 56.5139 31.4968 56.5377 31.0712 56.5424C30.5047 56.5487 29.9728 56.5238 29.4754 56.4676C29.3576 56.4542 29.2405 56.439 29.124 56.4218L35.1711 59.6847C36.219 60.2501 37.1713 60.945 38.0279 61.7695Q38.6458 62.364 39.1764 63.0282Q39.7305 63.7216 40.1895 64.4909Q40.6486 65.2602 40.9957 66.077L40.9958 66.0773L40.9959 66.0775Q41.1705 66.4882 41.3167 66.911L65.7185 52.7905C65.7758 52.686 65.8182 52.5352 65.8455 52.3383C65.8625 52.2159 65.871 52.0911 65.871 51.9641C65.871 51.8352 65.8623 51.7039 65.8448 51.5702Q65.8036 51.2558 65.7307 51.0952Q65.7158 51.0623 65.6553 50.9725C65.5904 50.8762 65.5076 50.7674 65.4067 50.6462C65.1999 50.3976 64.9408 50.1244 64.6295 49.8265C64.3906 49.598 64.1376 49.3708 63.8705 49.145Q63.7731 49.0626 63.6949 48.9983L45.0998 38.2353ZM19.6297 44.8866L28.6604 39.6753L27.0723 43.7454L36.0363 40.0012L36.191 40.1041C36.3813 40.5246 36.4854 41.2002 36.4854 42.0127C36.4854 45.0904 34.9918 50.1314 31.035 50.7019C30.2675 50.8125 29.5869 50.4179 28.9145 50.0279C28.8243 49.9756 28.7342 49.9234 28.6441 49.8725L19.6297 44.8866ZM28.5368 46.3848L30.0961 47.2473L30.4096 47.4271C30.6031 47.5392 30.7528 47.623 30.8589 47.6784C30.9941 47.6392 31.1231 47.5846 31.2461 47.5147C31.4559 47.3953 31.6593 47.2269 31.8564 47.0096Q32.1869 46.6452 32.4725 46.123C32.668 45.7656 32.8396 45.3678 32.9874 44.9295C33.0386 44.7774 33.0861 44.623 33.13 44.4663L28.5368 46.3848Z" fill="rgb(151,151,151)" fill-opacity="0" fill-rule="evenodd" />
		</g>
		<path id="形状结合" d="M38.5093 73.3125C38.4045 75.028 37.7554 76.3058 36.7837 76.9526C38.0874 76.3383 43.5395 73.7437 47.6949 71.3807C58.0899 65.4695 71.9521 57.5361 71.9521 57.5361C73.815 56.4606 73.5574 51.6618 72.8921 50.197C72.2268 48.7322 68.0636 45.9606 68.0636 45.9606L36.4661 64.4685C38.0947 66.2872 39.0357 68.6691 39.0357 71.1892C39.0357 71.9564 38.8454 72.679 38.5093 73.3125Z" fill="url(#paint_linear_0)" fill-rule="evenodd" />
	</g>
	<path id="形状结合" d="M32.9092 28.9188L11.3939 41.4831C11.2102 41.5933 11.0419 41.7056 10.8876 41.8196C12.01 41.4027 13.2925 41.4388 14.4339 42.0116L19.7064 44.9279L28.5877 39.8939L32.9092 28.9188ZM36.9402 26.5648L32.9707 37.4096L41.9439 32.3235C41.9439 32.3235 41.173 30.6624 40.0983 28.8008C39.0235 26.9392 41.2487 24.0487 41.2487 24.0487L36.9402 26.5648ZM16.6121 46.6817L13.1543 44.7281C12.456 44.3336 11.5701 44.5798 11.1756 45.2782C11.0569 45.4881 10.9924 45.7244 10.988 45.9655C10.9653 47.1831 11.2774 48.3568 11.8594 49.3756L16.6121 46.6817Z" fill="rgb(195,204,215)" fill-rule="evenodd" />
	<path id="形状结合" d="M32.9707 37.4096L36.9402 26.5648L41.2487 24.0487C41.2487 24.0487 39.805 25.924 39.805 27.6265C39.805 28.0376 39.8892 28.4386 40.0983 28.8008C41.173 30.6624 41.9439 32.3235 41.9439 32.3235L32.9707 37.4096ZM11.3939 41.4831L32.9092 28.9188L28.5877 39.8939L19.7064 44.9279L14.4339 42.0116C13.2925 41.4388 12.01 41.4027 10.8876 41.8196C11.0419 41.7056 11.2102 41.5933 11.3939 41.4831ZM26.9458 35.8753L18.4781 40.8202L19.6885 41.4896L26.1851 37.8073L26.9458 35.8753ZM13.1543 44.7281L16.6121 46.6817L11.8594 49.3756C11.2972 48.3913 10.9868 47.2625 10.9868 46.0892C10.9868 46.048 10.9872 46.0068 10.988 45.9655C10.9924 45.7244 11.0569 45.4881 11.1756 45.2782C11.5701 44.5798 12.456 44.3336 13.1543 44.7281Z" fill="rgb(151,151,151)" fill-opacity="0" fill-rule="evenodd" />
	<g id="CloudIDE备份 10">
		<g id="编组 34">
			<path id="形状结合" d="M23.8228 38.5702L23.3296 37.4282L15.1383 42.4013L22.8488 46.666L26.4348 44.6187L26.0943 43.8303L25.0005 44.3266L22.2589 45.5742L23.8228 38.5702ZM19.7329 48.445L13.1549 44.7285C13.0677 44.6792 12.9776 44.64 12.8859 44.6103L15.8451 50.6647L19.7329 48.445Z" fill="rgb(250,140,22)" fill-rule="evenodd" />
			<path id="形状结合" d="M23.3296 37.4282L23.8228 38.5702L22.2589 45.5742L25.0005 44.3266L26.0943 43.8303L26.4348 44.6187L22.8488 46.666L15.1383 42.4013L23.3296 37.4282ZM13.1549 44.7285L19.7329 48.445L15.8451 50.6647L12.8859 44.6103C12.9776 44.64 13.0677 44.6792 13.1549 44.7285Z" fill="rgb(151,151,151)" fill-opacity="0" fill-rule="evenodd" />
			<path id="形状结合" d="M11.8916 44.648C11.6658 45.058 11.5364 45.5934 11.5364 46.2251C11.5364 48.118 12.701 50.1529 14.1351 50.7734C15.5691 51.3939 16.7338 50.3668 16.7338 48.4739C16.7338 47.8251 16.5973 47.1598 16.36 46.5405L13.1535 44.7288C12.7519 44.5019 12.2882 44.487 11.8916 44.648Z" fill="rgb(255,192,105)" fill-rule="evenodd" />
			<path id="形状结合" d="M11.8916 44.648C11.6658 45.058 11.5364 45.5934 11.5364 46.2251C11.5364 48.118 12.701 50.1529 14.1351 50.7734C15.5691 51.3939 16.7338 50.3668 16.7338 48.4739C16.7338 47.8251 16.5973 47.1598 16.36 46.5405L13.1535 44.7288C12.7519 44.5019 12.2882 44.487 11.8916 44.648Z" fill="rgb(151,151,151)" fill-opacity="0" fill-rule="evenodd" />
			<path id="路径" d="M14.1353 48.6564C13.5656 48.4195 13.103 47.6426 13.103 46.9199C13.103 46.1973 13.5646 45.8047 14.1353 46.042C14.7059 46.2793 15.1675 47.0558 15.1675 47.7785C15.1675 48.5011 14.7049 48.8933 14.1353 48.6564Z" fill="rgb(255,255,255)" fill-rule="evenodd" />
			<path id="路径" d="" fill="rgb(151,151,151)" fill-opacity="0" fill-rule="evenodd" />
		</g>
	</g>
	<path id="形状结合" d="M33.126 28.7243L10.7944 41.8158L10.8394 41.8383C11.9733 41.4021 13.2765 41.4308 14.4344 42.0119L14.6306 42.1165L28.5479 49.9796C29.3096 50.41 30.0354 50.7323 30.9092 50.7762C34.0144 50.932 37.7189 44.7285 36.191 40.103L36.0362 40.0001L27.0722 43.7442L33.126 28.7243ZM39.5694 48.0961L42.017 46.8954L55.8691 36.7986L37.7188 26.0319L37.0104 26.4472L32.034 39.0398L38.7723 35.3061C38.9814 35.2165 39.1044 35.1674 39.1785 35.1421L39.241 35.1233L39.8338 34.9825L40.3569 35.295C42.5109 36.5817 42.2879 43.166 39.5694 48.0961Z" fill="rgb(233,241,251)" fill-rule="evenodd" />
	<path id="形状结合" d="M42.017 46.8954L39.5694 48.0961C41.0698 45.3751 41.81 42.1502 41.81 39.5902C41.81 37.5117 41.3221 35.8715 40.3569 35.295L39.8338 34.9825L39.241 35.1233L39.1785 35.1421C39.1044 35.1674 38.9814 35.2165 38.7723 35.3061L32.034 39.0398L37.0104 26.4472L37.7188 26.0319L55.8691 36.7986L42.017 46.8954ZM10.7944 41.8158L33.126 28.7243L27.0722 43.7442L36.0362 40.0001L36.191 40.103C36.436 40.8446 36.5464 41.6268 36.5464 42.4168C36.5464 46.5542 33.5165 50.907 30.9092 50.7762C30.0354 50.7323 29.3096 50.41 28.5479 49.9796L14.6306 42.1165L14.4344 42.0119C13.2765 41.4308 11.9733 41.4021 10.8394 41.8383L10.7944 41.8158ZM44.7355 41.2015L50.4229 37.056L38.7743 30.1462L37.8713 32.4313Q38.0726 32.3497 38.2091 32.3031L38.2615 32.2852L38.4615 32.225L40.326 31.782L41.8954 32.7195C42.5764 33.1263 43.1445 33.6954 43.5998 34.4268C43.9467 34.9839 44.2196 35.6259 44.4185 36.3528Q44.8106 37.7858 44.8106 39.5727Q44.8106 40.0181 44.7863 40.4854C44.7739 40.7234 44.7569 40.9622 44.7355 41.2015ZM27.0556 35.7605L18.4297 40.8173L23.7955 43.8489L27.0556 35.7605ZM28.3903 46.4449L30.0236 47.3677Q30.45 47.6086 30.7088 47.7024C30.8 47.7354 30.8856 47.7581 30.9656 47.7703C31.0713 47.7224 31.1966 47.6382 31.3414 47.5178C31.5559 47.3395 31.7702 47.1134 31.9845 46.8394Q32.3407 46.3838 32.6395 45.8226C32.8481 45.4309 33.0236 45.0229 33.1661 44.5986C33.1854 44.5413 33.2039 44.484 33.2217 44.4269L28.3903 46.4449Z" fill="rgb(151,151,151)" fill-opacity="0" fill-rule="evenodd" />
	<path id="形状结合" d="M43.9251 8.48758L32.0001 39.0702L39.0361 35.2709C39.6221 41.6243 39.8336 50.1239 35.4668 52.6047C35.4668 52.6047 47.6038 46.6884 54.3262 41.6383C56.3168 39.6672 56.1266 33.9911 55.9597 29.0123C55.9156 27.6944 55.873 26.4253 55.873 25.2867L61.4492 22.1247L43.9251 8.48758Z" fill="url(#paint_linear_1)" fill-rule="evenodd" />
	<path id="形状结合" d="M32.0001 39.0702L43.9251 8.48758L61.4492 22.1247L55.873 25.2867C55.873 26.4253 55.9156 27.6944 55.9597 29.0123C56.0074 30.4359 56.0571 31.9165 56.0571 33.3511C56.0571 36.9341 55.7476 40.2308 54.3262 41.6383C47.6038 46.6884 35.4668 52.6047 35.4668 52.6047C38.5465 50.8551 39.349 46.1121 39.349 41.2395C39.349 39.2029 39.2088 37.1437 39.0361 35.2709L32.0001 39.0702ZM37.7629 32.549L41.6063 30.4736L42.0234 34.9954Q42.2933 37.9213 42.3391 40.2518Q42.3489 40.7506 42.3489 41.2323Q42.3489 43.7208 42.087 45.7511C43.8588 44.7698 45.4919 43.8254 46.9864 42.918Q50.1385 41.0042 52.267 39.4314C52.2829 39.4054 52.2994 39.3761 52.3166 39.3433C52.4045 39.1752 52.4875 38.958 52.5653 38.6918C52.7486 38.0652 52.8806 37.2404 52.9613 36.2173C53.0251 35.4085 53.057 34.4469 53.057 33.3326C53.057 33.1692 53.0563 33.0025 53.0549 32.8326C53.0483 32.0159 53.0172 30.776 52.9614 29.1128C52.932 28.2347 52.9118 27.5837 52.9008 27.1599C52.8823 26.4438 52.873 25.8195 52.873 25.2867L52.873 23.5392L56.0598 21.732L45.2583 13.3264L37.7629 32.549Z" fill="rgb(151,151,151)" fill-opacity="0" fill-rule="evenodd" />
</svg>
