<svg viewBox="0 0 16 16" xmlns="http://www.w3.org/2000/svg" xmlns:xlink="http://www.w3.org/1999/xlink" width="16.000000" height="16.000000" fill="none" customFrame="#000000">
	<rect id="计划管理" width="16.000000" height="16.000000" x="0.000000" y="0.000000" fill="rgb(255,255,255)" fill-opacity="0" />
	<g id="Plans-计划管理">
		<rect id="Plans-计划管理" width="16.000000" height="16.000000" x="0.000000" y="0.000000" />
		<path id="矢量 744" d="M5.39039 1.00098C5.67041 1.00098 5.89045 1.22112 5.89045 1.50104L5.89045 2.1853L10.1029 2.1853L10.1029 1.50104C10.1029 1.22112 10.327 1.00098 10.603 1.00098C10.8871 1.00098 11.1031 1.22112 11.1031 1.50104L11.1031 2.1853L12.4312 2.1853C12.5992 2.1853 12.7593 2.20112 12.9193 2.23726C13.0513 2.26519 13.1833 2.30914 13.3153 2.36521C13.4433 2.41717 13.5674 2.48534 13.6834 2.56132C13.8074 2.64532 13.9274 2.74123 14.0354 2.84925C14.1474 2.95727 14.2434 3.0774 14.3275 3.20535C14.4035 3.32138 14.4675 3.44131 14.5235 3.57336C14.5795 3.70131 14.6195 3.82945 14.6475 3.96149C14.6835 4.12538 14.7035 4.28946 14.7035 4.45745L14.7035 5.25364C14.7035 5.3896 14.6555 5.50563 14.5555 5.60564C14.4595 5.70155 14.3395 5.7496 14.2034 5.7496L4.45424 5.7496C4.17423 5.7496 3.95418 5.52965 3.95418 5.25364C3.95418 4.97353 4.17823 4.75358 4.45424 4.75358L13.7034 4.75358L13.7034 4.45745C13.7034 4.36148 13.6927 4.26947 13.6714 4.18144C13.6554 4.11477 13.63 4.02817 13.6034 3.96149C13.5754 3.89352 13.5394 3.82534 13.4993 3.76538C13.4473 3.68939 13.3953 3.62141 13.3314 3.55734C13.2673 3.49347 13.1953 3.43741 13.1233 3.38935C13.0633 3.34931 12.9953 3.31337 12.9273 3.28543C12.8553 3.25731 12.7873 3.23328 12.7193 3.21726C12.6273 3.19734 12.5272 3.18542 12.4312 3.18542L3.57015 3.18542C3.46613 3.18542 3.36612 3.19734 3.26611 3.22136C3.20209 3.23738 3.13811 3.25731 3.07409 3.28543C3.00206 3.31337 2.93409 3.34931 2.87006 3.39346C2.79803 3.43741 2.73006 3.49347 2.67004 3.55734C2.60602 3.62141 2.55001 3.68548 2.50601 3.75737C2.46201 3.82144 2.42602 3.88942 2.39799 3.96149C2.37132 4.02009 2.35133 4.08006 2.33802 4.1414C2.31399 4.2375 2.29797 4.35353 2.29797 4.45745L2.29797 12.7264C2.29797 12.8264 2.30999 12.9225 2.33001 13.0185C2.34598 13.0866 2.366 13.1546 2.39799 13.2226C2.42201 13.2839 2.4527 13.3426 2.49004 13.3986C2.53804 13.4707 2.60602 13.5627 2.67004 13.6265C2.73406 13.6906 2.80204 13.7467 2.87407 13.7947C2.93809 13.8346 3.00607 13.8707 3.07409 13.8986C3.13811 13.9266 3.20609 13.9506 3.27412 13.9666C3.37013 13.9867 3.46613 13.9987 3.57015 13.9987L12.4312 13.9987C12.5272 13.9987 12.6233 13.9906 12.7153 13.9666C12.7873 13.9506 12.8553 13.9307 12.9273 13.8986C12.9953 13.8707 13.0593 13.8346 13.1193 13.7947C13.1953 13.7467 13.2673 13.6906 13.3314 13.6265C13.3953 13.5627 13.4513 13.4906 13.4993 13.4185C13.5394 13.3546 13.5754 13.2906 13.6034 13.2226C13.6314 13.1546 13.6554 13.0825 13.6714 13.0104C13.6914 12.9184 13.7034 12.8225 13.7034 12.7264L13.7034 7.30585C13.7034 7.02574 13.9234 6.80579 14.2034 6.80579C14.4835 6.80579 14.7035 7.02574 14.7035 7.30585L14.7035 12.7264C14.7035 12.8905 14.6835 13.0546 14.6515 13.2105C14.6195 13.3466 14.5795 13.4826 14.5235 13.6105C14.4675 13.7387 14.4035 13.8627 14.3275 13.9746C14.2434 14.1026 14.1474 14.2227 14.0354 14.3346C13.9274 14.4427 13.8074 14.5427 13.6794 14.6267C13.5634 14.7026 13.4433 14.7667 13.3153 14.8187C13.1833 14.8747 13.0513 14.9187 12.9153 14.9468C12.7553 14.9828 12.5952 14.9988 12.4312 14.9988L3.57015 14.9988C3.40211 14.9988 3.23813 14.9828 3.07409 14.9468C2.94205 14.9148 2.81005 14.8747 2.68205 14.8187C2.55401 14.7667 2.43403 14.6987 2.318 14.6228C2.19 14.5388 2.06997 14.4427 1.96195 14.3346C1.84992 14.2227 1.75792 14.1067 1.67392 13.9787C1.59789 13.8627 1.52991 13.7426 1.4739 13.6105C1.42189 13.4826 1.37789 13.3505 1.34986 13.2146C1.31387 13.0585 1.29785 12.8946 1.29785 12.7264L1.29785 4.45745C1.29785 4.28556 1.31387 4.12147 1.34986 3.95739C1.3819 3.82534 1.42189 3.6974 1.4739 3.57336C1.52991 3.44131 1.59789 3.31727 1.67392 3.20125C1.75792 3.0774 1.85393 2.95727 1.96195 2.84925C2.0713 2.73999 2.18865 2.64402 2.31399 2.56132C2.43002 2.48534 2.55401 2.41717 2.68205 2.36521C2.81005 2.30914 2.93809 2.2693 3.07009 2.24117C3.23412 2.20112 3.39811 2.1853 3.57015 2.1853L4.89033 2.1853L4.89033 1.50104C4.89033 1.22112 5.11033 1.00098 5.39039 1.00098ZM4.45825 10.2703L11.5471 10.2703C11.8272 10.2703 12.0472 10.0501 12.0472 9.77021C12.0472 9.4901 11.8272 9.27015 11.5471 9.27015L4.45825 9.27015C4.17823 9.27015 3.95819 9.4901 3.95819 9.77021C3.95819 10.0501 4.17823 10.2703 4.45825 10.2703Z" fill="rgb(25,25,25)" fill-rule="evenodd" />
	</g>
</svg>
