<svg viewBox="0 0 80 80" xmlns="http://www.w3.org/2000/svg" xmlns:xlink="http://www.w3.org/1999/xlink" width="80.000000" height="80.000000" fill="none" customFrame="#000000">
	<rect id="Plus" width="80.000000" height="80.000000" x="0.000000" y="0.000000" />
	<path id="path1" d="M0.00972071 39.9674C0.00972071 33.7184 -0.0121509 27.4693 0.00972071 21.2203C-0.00285159 18.1964 0.368817 15.1832 1.1158 12.2529C2.75305 6.05078 6.79305 2.3701 12.989 0.942191C16.0957 0.270959 19.2688 -0.0435276 22.4469 0.00483665C34.4304 0.00483665 46.415 0.00483665 58.4007 0.00483665C61.4276 -0.0139535 64.4458 0.332241 67.3899 1.03593C73.7733 2.59819 77.604 6.64131 79.0631 13.0028C79.7191 16.0094 80.0325 19.0806 79.9973 22.1577C79.9973 34.2704 79.9973 46.3841 79.9973 58.4989C80.0137 61.4967 79.6686 64.4855 78.9694 67.4007C77.4071 73.7872 73.3452 77.5991 66.9837 79.0582C63.8766 79.7269 60.7037 80.0414 57.5258 79.9956C45.5922 79.9956 33.6597 79.9956 21.7282 79.9956C18.6781 80.0205 15.6361 79.6796 12.6671 78.9801C6.25563 77.4178 2.40622 73.356 0.9502 66.9632C0.206565 63.7137 0.00972071 60.4548 0.00972071 57.1679C0.00972071 51.4354 0.00972071 45.7019 0.00972071 39.9674Z" opacity="0" fill-rule="evenodd" />
	<path id="矢量 237" d="M42.4771 12.9943C42.3116 11.774 41.2656 10.8335 39.9999 10.8335C38.6192 10.8335 37.4999 11.9529 37.4999 13.3335L37.4999 37.5002L13.3333 37.5002L12.994 37.5229C11.7738 37.6886 10.8333 38.7345 10.8333 40.0002C10.8333 41.3808 11.9525 42.5002 13.3333 42.5002L37.4999 42.5002L37.4999 66.6668L37.5228 67.006C37.6883 68.2263 38.7343 69.1668 39.9999 69.1668C41.3806 69.1668 42.4999 68.0474 42.4999 66.6668L42.4999 42.5002L66.6666 42.5002L67.0058 42.4774C68.2261 42.3118 69.1666 41.2658 69.1666 40.0002C69.1666 38.6195 68.0473 37.5002 66.6666 37.5002L42.4999 37.5002L42.4999 13.3335L42.4771 12.9943Z" fill="rgb(0,0,0)" fill-rule="evenodd" />
</svg>
