<svg viewBox="0 0 80 80" xmlns="http://www.w3.org/2000/svg" xmlns:xlink="http://www.w3.org/1999/xlink" width="80.000000" height="80.000000" fill="none" customFrame="#000000">
	<defs>
		<clipPath id="clipPath_7">
			<rect width="80.000008" height="80.000008" x="0.000000" y="0.000000" fill="rgb(255,255,255)" />
		</clipPath>
	</defs>
	<rect id="雪碧图/16px/优先级-中" width="80.000000" height="80.000000" x="0.000000" y="0.000000" fill="rgb(255,255,255)" fill-opacity="0" />
	<g id="优先级-中" customFrame="url(#clipPath_7)">
		<rect id="优先级-中" width="80.000008" height="80.000008" x="0.000000" y="0.000000" fill="rgb(255,255,255)" fill-opacity="0" />
		<rect id="矩形 80" width="80.000008" height="80.000008" x="0.000000" y="0.000000" opacity="0" fill="rgb(255,255,255)" />
		<path id="合并" d="M15.0001 7.5L15.0001 70L12.5001 70C11.1194 70 10.0001 71.1193 10.0001 72.5C10.0001 73.8807 11.1194 75 12.5001 75L22.5001 75C23.8808 75 25.0001 73.8807 25.0001 72.5C25.0001 71.1193 23.8808 70 22.5001 70L20.0001 70L20.0001 40L66.3036 40C68.0535 40 69.2333 38.2108 68.544 36.6023L62.5001 22.5L68.2363 11.0276C69.0467 9.40689 67.8682 7.5 66.0562 7.5L20.0001 7.5C20.0001 6.11929 18.8808 5 17.5001 5C16.1194 5 15.0001 6.11929 15.0001 7.5Z" fill="rgb(255,183,0)" fill-rule="evenodd" />
	</g>
</svg>
