<svg viewBox="0 0 58 80" xmlns="http://www.w3.org/2000/svg" xmlns:xlink="http://www.w3.org/1999/xlink" width="58.000000" height="80.000000" fill="none" customFrame="#000000">
	<rect id="产品介绍" width="58.000000" height="80.000000" x="0.000000" y="0.000000" />
	<path id="search_things" d="M30.2344 67.5557Q33.0615 67.5557 35.4639 66.1201L49.8047 57.4775Q52.1338 56.1592 53.4814 53.7861Q54.8438 51.4131 54.8438 48.7178L54.8438 31.7402Q54.8438 29.0449 53.5254 26.7012Q52.207 24.3574 49.8633 23.0391L35.5225 14.2793Q33.1201 12.8438 30.3516 12.8438Q27.5977 12.8438 25.1367 14.2207L10.0781 23.0391Q7.79297 24.3574 6.44531 26.7305Q5.09766 29.1035 5.09766 31.7402L5.09766 48.7178Q5.09766 51.4131 6.44531 53.7568Q7.79297 56.1006 10.1367 57.4189L25.1953 66.1787Q27.5977 67.5557 30.2344 67.5557ZM27.0557 17.458Q28.623 16.623 30.3516 16.623Q32.0947 16.623 33.6035 17.5166L48.0029 26.2764Q49.4385 27.126 50.2734 28.5908Q51.123 30.0557 51.123 31.7402L51.123 48.7178Q51.123 50.4023 50.2441 51.9111Q49.3799 53.4053 47.9443 54.2402L33.5449 62.8828Q32.0361 63.7764 30.3223 63.7764Q28.623 63.7764 27.0557 62.9414L11.9971 54.2402Q10.5615 53.4053 9.68262 51.9111Q8.81836 50.4023 8.81836 48.7178L8.81836 31.7402Q8.81836 30.0557 9.68262 28.5908Q10.5615 27.126 11.9971 26.2764L27.0557 17.458ZM43.916 31.623Q43.5645 30.9639 42.8027 30.7588Q42.0557 30.5391 41.3379 30.9639L29.8242 37.8633L18.2373 30.9639Q17.5781 30.5391 16.8311 30.7588Q16.084 30.9639 15.6592 31.623Q15.2344 32.2822 15.4395 33.0293Q15.6592 33.7764 16.3184 34.2012L27.9639 41.1006L27.9639 52.5557Q27.9639 53.3467 28.4912 53.8887Q29.0332 54.416 29.8242 54.416Q30.6006 54.416 31.1426 53.8887Q31.6846 53.3467 31.6846 52.5557L31.6846 41.1006L43.2568 34.2012Q43.916 33.7764 44.1211 33.0293Q44.3408 32.2822 43.916 31.623Z" fill="rgb(0,0,0)" fill-rule="nonzero" />
</svg>
