<svg viewBox="0 0 24 24" xmlns="http://www.w3.org/2000/svg" xmlns:xlink="http://www.w3.org/1999/xlink" width="24.000000" height="24.000000" fill="none" customFrame="#000000">
	<defs>
		<clipPath id="clipPath_1">
			<rect width="19.999908" height="20.000002" x="2.000000" y="2.000000" fill="rgb(255,255,255)" />
		</clipPath>
		<radialGradient id="paint_radial_1" cx="0" cy="0" r="1" gradientUnits="userSpaceOnUse" gradientTransform="matrix(9.74988,-9.16786,12.2238,12.9998,16.6638,12)">
			<stop stop-color="rgb(255,172.241,77.6591)" offset="0" stop-opacity="1" />
			<stop stop-color="rgb(255,136,0)" offset="1" stop-opacity="1" />
		</radialGradient>
		<linearGradient id="paint_linear_1" x1="11.9980059" x2="11.9980059" y1="9.5" y2="11.4999762" gradientUnits="userSpaceOnUse">
			<stop stop-color="rgb(0,0,0)" offset="0" stop-opacity="1" />
			<stop stop-color="rgb(0,0,0)" offset="1" stop-opacity="0" />
		</linearGradient>
	</defs>
	<rect id="项目协作" width="24.000000" height="24.000000" x="0.000000" y="0.000000" />
	<g id="组合 1957">
		<rect id="矩形 990" width="24.000000" height="24.000000" x="0.000000" y="0.000000" opacity="0" fill="rgb(196,196,196)" />
		<g id="项目协作" customFrame="url(#clipPath_1)">
			<rect id="项目协作" width="19.999908" height="20.000002" x="2.000000" y="2.000000" fill="rgb(255,255,255)" fill-opacity="0" />
			<rect id="项目协作" width="19.999908" height="20.000002" x="2.000000" y="2.000000" fill="rgb(255,255,255)" fill-opacity="0" />
			<path id="矩形 1132" d="M4.08447 8.66992L19.9178 8.66992C20.1478 8.66992 20.3348 8.85498 20.3348 9.08496L20.3348 18.6698C20.3348 20.0499 19.2153 21.1698 17.8343 21.1698L6.16794 21.1698C4.78746 21.1698 3.66797 20.0499 3.66797 18.6698L3.66797 9.08496C3.66797 8.85498 3.85447 8.66992 4.08447 8.66992Z" fill="url(#paint_radial_1)" fill-rule="evenodd" />
			<path id="矩形 1132" d="M5.332 3.66992L18.6653 3.66992C20.0458 3.66992 21.1653 4.7849 21.1653 6.16989L21.1653 9.0849C21.1653 9.31487 20.9788 9.49993 20.7488 9.49993L3.24853 9.49993C3.01852 9.49993 2.83203 9.31487 2.83203 9.0849L2.83203 6.16989C2.83203 4.7849 3.95152 3.66992 5.332 3.66992Z" fill="rgb(166,77,0)" fill-rule="evenodd" />
			<path id="矩形 1138" d="M5.83324 4.58315L0.83325 4.58315C0.277752 4.58315 0 4.3054 0 3.74991L0 0.83325L1.6665 0.83325L1.6665 3.74991L0.83325 3.74991L0.83325 2.91666L5.83324 2.91666L5.83324 4.58315ZM0 0.83325C0 0.366631 0.366631 0 0.83325 0C1.29987 0 1.6665 0.366631 1.6665 0.83325L0 0.83325ZM5.83324 2.91666C6.29984 2.91666 6.66648 3.28329 6.66648 3.74991C6.66648 4.21653 6.29984 4.58315 5.83324 4.58315L5.83324 2.91666Z" fill="rgb(0,0,0)" fill-opacity="0.200000003" fill-rule="nonzero" transform="matrix(0.707107,-0.707107,0.707107,0.707107,8.23584,15.5352)" />
			<path id="矩形 1758" d="M5.83332 4.58332L0.83333 4.58332C0.277777 4.58332 0 4.30554 0 3.74999L0 0.83333L1.66666 0.83333L1.66666 3.74999L0.83333 3.74999L0.83333 2.91666L5.83332 2.91666L5.83332 4.58332ZM0 0.83333C0 0.366666 0.366666 0 0.83333 0C1.29999 0 1.66666 0.366666 1.66666 0.83333L0 0.83333ZM5.83332 2.91666C6.29997 2.91666 6.66666 3.28332 6.66666 3.74999C6.66666 4.21665 6.29997 4.58332 5.83332 4.58332L5.83332 2.91666Z" fill="rgb(255,235,209)" fill-rule="nonzero" transform="matrix(0.707107,-0.707107,0.707107,0.707107,8.16895,14.0352)" />
			<path id="矢量 393" d="M9.49997 3.24998C9.49997 2.56005 8.94048 2 8.24998 2C7.55949 2 7 2.56005 7 3.24998L7 5.74995C7 6.43989 7.55949 6.99994 8.24998 6.99994C8.94048 6.99994 9.49997 6.43989 9.49997 5.74995L9.49997 3.24998Z" fill="rgb(252,188,114)" fill-rule="evenodd" />
			<path id="矢量 396" d="M16.9997 3.24998C16.9997 2.56005 16.4402 2 15.7497 2C15.0592 2 14.4998 2.56005 14.4998 3.24998L14.4998 5.74995C14.4998 6.43989 15.0592 6.99994 15.7497 6.99994C16.4402 6.99994 16.9997 6.43989 16.9997 5.74995L16.9997 3.24998Z" fill="rgb(252,188,114)" fill-rule="evenodd" />
			<rect id="矩形 1731" width="16.683512" height="1.999976" x="3.656250" y="9.500000" opacity="0.209999993" fill="url(#paint_linear_1)" />
		</g>
	</g>
</svg>
