<svg viewBox="0 0 80 80" xmlns="http://www.w3.org/2000/svg" xmlns:xlink="http://www.w3.org/1999/xlink" width="80.000000" height="80.000000" fill="none" customFrame="#000000">
	<rect id="快速入门" width="80.000000" height="80.000000" x="0.000000" y="0.000000" fill="rgb(255,255,255)" fill-opacity="0" />
	<path id="Path" d="M67.4162 6.72514C52.5594 6.0342 38.0757 11.6312 27.5357 22.1677L25.592 24.1136L19.671 22.6882L19.05 22.5625C16.3519 22.1197 13.5837 22.9987 11.6315 24.951L7.39813 29.1843L7.15606 29.4647C6.42986 30.4435 6.51058 31.8324 7.3982 32.7199L47.2815 72.5999L47.5619 72.8419C48.5403 73.5679 49.9287 73.4875 50.8163 72.6006L55.0496 68.3706L55.4811 67.9058C57.2674 65.8327 57.9607 63.0123 57.3127 60.3287L56.107 53.8184C57.2898 52.7209 58.4388 51.5719 58.4388 51.5719C59.8037 50.2069 61.0054 48.7686 61.0054 48.7686C61.1066 48.6779 61.2018 48.5778 61.2896 48.4683C69.3402 38.4313 73.8747 25.4622 73.2772 12.5865C73.1306 9.43441 70.5664 6.87192 67.4162 6.72514ZM57.8445 44.7635C64.8505 35.7575 68.8122 24.2328 68.2826 12.8186C68.256 12.2462 67.7558 11.7464 67.1837 11.7197C54.165 11.1143 41.4617 15.8415 32.0066 24.7933L31.072 25.7025L28.1386 28.6392C27.76 29.0183 27.2898 29.2504 26.7992 29.3355C26.5851 29.373 26.3638 29.3828 26.1401 29.3619C26.003 29.3493 25.8668 29.3255 25.7329 29.2903L18.4992 27.5489C17.452 27.2961 16.3528 27.5369 15.5111 28.1844L15.167 28.4865L12.7006 30.9484L49.0472 67.2951L51.5148 64.8343C52.2888 64.0603 52.6559 62.9751 52.5055 61.8114L50.9312 53.3285C50.7407 52.3025 51.2062 51.3065 52.0309 50.7725C53.4936 49.4459 54.9032 48.0364 54.9032 48.0364C56.4942 46.4454 57.8274 44.75 57.8274 44.75L57.8445 44.7635ZM39.4424 27.045C35.7127 30.7746 35.7127 36.8276 39.4424 40.5572C43.1754 44.2902 49.2249 44.2902 52.9579 40.5572C56.6912 36.8284 56.6912 30.7738 52.9568 27.0439C49.2249 23.312 43.1754 23.312 39.4424 27.045ZM49.4224 30.5805C51.2024 32.3584 51.2024 35.2438 49.4234 37.0206C47.642 38.802 44.7583 38.802 42.9779 37.0217C41.2009 35.2447 41.2009 32.3576 42.9779 30.5805C44.7583 28.8002 47.642 28.8002 49.4224 30.5805ZM12.5606 47.8517C13.5369 46.8754 15.1198 46.8754 16.0961 47.8517C16.9836 48.7392 17.0643 50.1281 16.3381 51.1068L16.0961 51.3872L13.4194 54.0639C12.4431 55.0402 10.8602 55.0402 9.88389 54.0639C8.99633 53.1763 8.91564 51.7874 9.64182 50.8087L9.88389 50.5283L12.5606 47.8517ZM20.5883 55.8785C21.5649 54.9024 23.1478 54.9029 24.1238 55.8796C25.0111 56.7674 25.0914 58.1563 24.3649 59.1348L24.1227 59.4151L18.7694 64.7651C17.7928 65.7411 16.2099 65.7406 15.2339 64.764C14.3466 63.8762 14.2663 62.4873 14.9928 61.5088L15.235 61.2285L20.5883 55.8785ZM32.1524 63.9097C31.1761 62.9333 29.5932 62.9333 28.6169 63.9097L25.9402 66.5863L25.6981 66.8667C24.972 67.8454 25.0526 69.2343 25.9402 70.1219C26.9165 71.0982 28.4994 71.0982 29.4757 70.1219L32.1524 67.4452L32.3945 67.1648C33.1206 66.1861 33.04 64.7972 32.1524 63.9097Z" fill="rgb(0,0,0)" fill-rule="evenodd" />
</svg>
