<svg viewBox="0 0 80 80" xmlns="http://www.w3.org/2000/svg" xmlns:xlink="http://www.w3.org/1999/xlink" width="80.000000" height="80.000000" fill="none">
	<mask id="mask_9" width="80.000000" height="80.000000" x="0.000000" y="0.000000" maskUnits="userSpaceOnUse">
		<g filter="url(#pixso_custom_mask_type_alpha)">
			<g id="clip2918_12510">
				<rect id="矩形 22" width="80.000000" height="80.000000" x="0.000000" y="0.000000" fill="rgb(0,0,0)" />
			</g>
		</g>
	</mask>
	<mask id="mask_8" width="80.000000" height="80.000000" x="0.000000" y="0.000000" maskUnits="userSpaceOnUse">
		<g filter="url(#pixso_custom_mask_type_alpha)">
			<g id="clip2918_12508">
				<rect id="矩形 21" width="80.000000" height="80.000000" x="0.000000" y="0.000000" fill="rgb(0,0,0)" />
			</g>
		</g>
	</mask>
	<mask id="mask_7" width="80.000000" height="80.000000" x="0.000000" y="0.000000" maskUnits="userSpaceOnUse">
		<g filter="url(#pixso_custom_mask_type_alpha)">
			<g id="clip2918_12504">
				<rect id="矩形 20" width="80.000000" height="80.000000" x="0.000000" y="0.000000" fill="rgb(0,0,0)" />
			</g>
		</g>
	</mask>
	<defs>
		<filter id="pixso_custom_mask_type_alpha">
			<feColorMatrix type="matrix" values="0 0 0 0 1 0 0 0 0 1 0 0 0 0 1 0 0 0 1 0 " />
		</filter>
	</defs>
	<mask id="mask_6" width="80.000000" height="80.000000" x="0.000000" y="0.000000" maskUnits="userSpaceOnUse">
		<g filter="url(#pixso_custom_mask_type_alpha)">
			<g id="clip2918_12503">
				<rect id="矩形 23" width="80.000000" height="80.000000" x="0.000000" y="0.000000" fill="rgb(0,0,0)" />
			</g>
		</g>
	</mask>
	<rect id="仓库首页" width="80.000000" height="80.000000" x="0.000000" y="0.000000" />
	<rect id="矩形 19" width="80.000000" height="80.000000" x="0.000000" y="0.000000" fill="rgb(255,255,255)" fill-opacity="0" />
	<g id="clip path group" mask="url(#mask_6)">
		<g id="组合 35">
			<g id="clip path group" mask="url(#mask_7)">
				<g id="组合 37">
					<path id="矢量 324" d="M-3.88818e-05 39.9667C-3.88818e-05 33.7167 -0.0167055 27.4667 -3.88818e-05 21.2167C-0.0167055 18.1667 0.366628 15.15 1.09996 12.2333C2.74996 6.03332 6.7833 2.34999 12.9833 0.916656C16.0833 0.24999 19.2666 -0.0666769 22.4333 -1.0252e-05C34.4166 -1.0252e-05 46.3833 -1.0252e-05 58.4 -1.0252e-05C61.4 -0.0333436 64.4333 0.29999 67.3666 1.01666C73.75 2.56666 77.6 6.61666 79.0333 12.9833C79.7166 15.9833 80 19.05 79.9833 22.1333C79.9833 34.25 79.9833 46.3667 79.9833 58.4667C80 61.4667 79.6666 64.4667 78.9666 67.3833C77.4 73.7833 73.3333 77.5667 66.9833 79.0333C63.8666 79.7 60.6833 80.0333 57.5 79.9833C45.5666 79.9833 33.65 79.9833 21.7166 79.9833C18.6666 80.0167 15.6333 79.65 12.65 78.95C6.24996 77.4167 2.39996 73.35 0.949961 66.9333C0.199961 63.7 -3.88818e-05 60.45 -3.88818e-05 57.15C-3.88818e-05 51.4167 -3.88818e-05 45.6833 -3.88818e-05 39.9667Z" fill="rgb(255,255,255)" fill-opacity="0" fill-rule="evenodd" />
					<circle id="椭圆 4" cx="40" cy="40" r="40" fill="rgb(255,255,255)" fill-opacity="0" />
				</g>
			</g>
			<g id="clip path group" mask="url(#mask_8)">
				<g id="组合 39">
					<path id="矢量 325" d="M23.9 13.3333C25.6666 13.3333 27.3666 14.0333 28.6166 15.2833L39.0166 25.6833C39.6333 26.3166 40.4833 26.6666 41.3666 26.6666L62.4833 26.6666L62.5 25C62.5 22.8333 60.85 21.0666 58.75 20.85L58.3333 20.8333L39.9166 20.8333C38.55 20.8333 37.4166 19.7 37.4166 18.3333C37.4166 17.0666 38.3666 16.0166 39.5833 15.85L39.9166 15.8333L58.3333 15.8333C63.2 15.8333 67.1833 19.6333 67.4666 24.4333L67.5 25L67.5 26.7166C70.7666 27.1166 73.3333 29.9333 73.3333 33.3333L73.3333 56.6666C73.3333 62.1666 68.8333 66.6666 63.3333 66.6666L16.6666 66.6666C11.15 66.6666 6.66663 62.1666 6.66663 56.6666L6.66663 23.3333C6.66663 17.8333 11.15 13.3333 16.6666 13.3333L23.9 13.3333ZM23.9 18.3333L16.6666 18.3333C13.9 18.3333 11.6666 20.5666 11.6666 23.3333L11.6666 56.6666C11.6666 59.4166 13.9 61.6666 16.6666 61.6666L63.3333 61.6666C66.0833 61.6666 68.3333 59.4166 68.3333 56.6666L68.3333 33.3333C68.3333 32.4166 67.5666 31.6666 66.6666 31.6666L41.3666 31.6666C39.15 31.6666 37.05 30.8 35.4833 29.2166L25.0833 18.8166C24.75 18.5 24.3333 18.3333 23.9 18.3333Z" fill="rgb(0,0,0)" fill-rule="evenodd" />
				</g>
			</g>
			<g id="clip path group" mask="url(#mask_9)">
				<g id="组合 41">
					<path id="矢量 326" d="M58.3333 20.8333C60.6166 20.8333 62.5 22.7 62.5 25L62.5 26.6666L41.3833 26.6666C40.9333 26.6666 40.5 26.5666 40.1 26.4166C39.7 26.25 39.3333 26 39.0166 25.6833L34.1666 20.8333L58.3333 20.8333ZM67.5 26.7333L67.5 25C67.5 19.9333 63.3833 15.8333 58.3333 15.8333L29.1666 15.8333L27.6333 14.3C27.3333 13.9833 26.95 13.75 26.55 13.5833C26.15 13.4166 25.7166 13.3333 25.2833 13.3333L13.3333 13.3333C11.2833 13.3333 9.46663 14.2833 8.24996 15.7333C7.26663 16.8833 6.66663 18.3666 6.66663 20L6.66663 56.6666C6.66663 62.1666 11.1666 66.6666 16.6666 66.6666L63.3333 66.6666C66.3833 66.6666 69.1 65.2333 70.95 63.05C72.4 61.3166 73.3333 59.1 73.3333 56.6666L73.3333 33.3333C73.3333 29.95 70.7666 27.15 67.5 26.7333Z" fill="rgb(255,255,255)" fill-opacity="0" fill-rule="evenodd" />
				</g>
			</g>
		</g>
	</g>
</svg>
