<svg viewBox="0 0 80 80" xmlns="http://www.w3.org/2000/svg" xmlns:xlink="http://www.w3.org/1999/xlink" width="80.000000" height="80.000000" fill="none">
	<rect id="评审记录" width="80.000000" height="80.000000" x="0.000000" y="0.000000" />
	<path id="形状结合" d="M40 0C62.0914 0 80 17.9086 80 40C80 41.6949 79.8946 43.3653 79.6899 45.0048L74.6448 45.0051C74.8789 43.3704 75 41.6994 75 40C75 20.67 59.33 5 40 5C20.67 5 5 20.67 5 40C5 59.33 20.67 75 40 75L40 80C17.9086 80 0 62.0914 0 40C0 17.9086 17.9086 0 40 0ZM77.5 75C78.8807 75 80 76.1193 80 77.5C80 78.8807 78.8807 80 77.5 80L52.5 80C51.1193 80 50 78.8807 50 77.5C50 76.1193 51.1193 75 52.5 75L77.5 75ZM77.5 65C78.8807 65 80 66.1193 80 67.5C80 68.8807 78.8807 70 77.5 70L52.5 70C51.1193 70 50 68.8807 50 67.5C50 66.1193 51.1193 65 52.5 65L77.5 65ZM77.5 55C78.8807 55 80 56.1193 80 57.5C80 58.8807 78.8807 60 77.5 60L52.5 60C51.1193 60 50 58.8807 50 57.5C50 56.1193 51.1193 55 52.5 55L77.5 55ZM40 20L40 40L60 40L60 45L35 45L35 20L40 20Z" fill="rgb(0,0,0)" fill-rule="evenodd" />
	<path id="形状结合" d="M80 40C80 41.6949 79.8946 43.3653 79.6899 45.0048L74.6448 45.0051C74.8789 43.3704 75 41.6994 75 40C75 20.67 59.33 5 40 5C20.67 5 5 20.67 5 40C5 59.33 20.67 75 40 75L40 80C17.9086 80 0 62.0914 0 40C0 17.9086 17.9086 0 40 0C62.0914 0 80 17.9086 80 40ZM80 77.5C80 78.8807 78.8807 80 77.5 80L52.5 80C51.1193 80 50 78.8807 50 77.5C50 76.1193 51.1193 75 52.5 75L77.5 75C78.8807 75 80 76.1193 80 77.5ZM80 67.5C80 68.8807 78.8807 70 77.5 70L52.5 70C51.1193 70 50 68.8807 50 67.5C50 66.1193 51.1193 65 52.5 65L77.5 65C78.8807 65 80 66.1193 80 67.5ZM80 57.5C80 58.8807 78.8807 60 77.5 60L52.5 60C51.1193 60 50 58.8807 50 57.5C50 56.1193 51.1193 55 52.5 55L77.5 55C78.8807 55 80 56.1193 80 57.5ZM40 40L60 40L60 45L35 45L35 20L40 20L40 40Z" fill-rule="evenodd" stroke="rgb(0,0,0)" stroke-opacity="0" stroke-width="3" />
</svg>
