<svg viewBox="0 0 16 16" xmlns="http://www.w3.org/2000/svg" xmlns:xlink="http://www.w3.org/1999/xlink" width="16.000000" height="16.000000" fill="none" customFrame="#000000">
	<rect id="评审" width="16.000006" height="16.000006" x="0.000000" y="0.000000" fill="rgb(255,255,255)" fill-opacity="0" />
	<g id="Review-评审">
		<rect id="Review-评审" width="16.000006" height="16.000006" x="0.000000" y="0.000000" fill="rgb(0,0,0)" fill-opacity="0" />
		<path id="矢量 742" d="M4.85772 5.34903C5.03775 5.67305 5.30171 6.00899 5.6457 6.35313C5.86973 6.57715 6.02173 6.80899 6.10171 7.05313C6.15772 7.2211 6.17373 7.38516 6.15772 7.54102C6.15371 7.56504 6.14971 7.58907 6.1457 7.60899C6.11773 7.75313 6.06973 7.86914 5.99771 7.95703C5.98174 7.97715 5.96572 7.98907 5.95371 8.00098L3.78174 8.00098C3.60972 8.00098 3.4457 8.025 3.2937 8.08106C3.13774 8.13301 2.9937 8.21309 2.85772 8.31699C2.72173 8.425 2.60972 8.54512 2.52173 8.68106C2.43374 8.817 2.36572 8.96914 2.32573 9.13711L1.82573 11.1371C1.7937 11.2611 1.77773 11.3891 1.77773 11.5131C1.77773 11.617 1.7937 11.725 1.81772 11.8291C1.8417 11.9291 1.86973 12.0291 1.91372 12.1211C1.96172 12.2291 2.02573 12.3291 2.09771 12.425C2.17373 12.517 2.25371 12.601 2.3457 12.6731C2.42573 12.7371 2.51372 12.7932 2.60972 12.841C2.70571 12.8891 2.80171 12.9291 2.90571 12.9531C3.02573 12.9852 3.15371 13.001 3.28174 13.001L12.7217 13.001C12.8497 13.001 12.9737 12.9852 13.0977 12.9531C13.1977 12.9291 13.2977 12.8891 13.3937 12.841C13.4897 12.7932 13.5777 12.7371 13.6577 12.6731C13.7497 12.601 13.8297 12.517 13.9017 12.425C13.9777 12.3291 14.0377 12.2291 14.0857 12.1211C14.1297 12.0291 14.1617 11.9291 14.1857 11.8291C14.2097 11.7225 14.2217 11.6171 14.2217 11.5131C14.2217 11.3852 14.2057 11.2611 14.1777 11.1371L13.6777 9.13711C13.6337 8.96914 13.5697 8.817 13.4817 8.68106C13.3898 8.54512 13.2777 8.425 13.1417 8.31699C13.0097 8.21309 12.8617 8.13301 12.7097 8.08106C12.5537 8.025 12.3937 8.00098 12.2217 8.00098L10.0457 8.00098C10.0337 7.98907 10.0177 7.97715 10.0057 7.95703C9.93374 7.86914 9.88174 7.75313 9.85371 7.60899C9.84971 7.58907 9.84971 7.56504 9.84571 7.54102C9.82574 7.38516 9.84571 7.2211 9.90171 7.05313C9.97774 6.80899 10.1297 6.57715 10.3537 6.35313C10.6977 6.00899 10.9617 5.67305 11.1417 5.34903C11.3137 5.04102 11.4217 4.725 11.4697 4.39707C11.4897 4.26914 11.5017 4.13301 11.5017 4.00098C11.5017 3.74102 11.4737 3.48906 11.4217 3.24102C11.3737 3.03711 11.3097 2.83711 11.2257 2.63711C11.1417 2.44102 11.0417 2.25313 10.9257 2.07715C10.7937 1.88106 10.6457 1.69707 10.4737 1.525C10.3057 1.35703 10.1217 1.20508 9.92574 1.07715C9.88306 1.05046 9.84172 1.02376 9.80171 0.99707C9.6604 0.914388 9.51374 0.841081 9.36172 0.777149C9.16573 0.693164 8.96172 0.629102 8.75772 0.581055C8.51372 0.529102 8.25772 0.500977 8.00171 0.500977C7.7417 0.500977 7.48975 0.529102 7.24571 0.581055C7.03775 0.629102 6.83775 0.693164 6.63775 0.777149C6.44038 0.859701 6.25371 0.959701 6.07774 1.07715C5.87774 1.20508 5.6937 1.35703 5.52573 1.525C5.35371 1.69707 5.20571 1.88106 5.07774 2.07715C4.95772 2.25313 4.85772 2.44102 4.77373 2.63711C4.68975 2.83711 4.62573 3.03711 4.58174 3.24102C4.52839 3.48906 4.50171 3.74238 4.50171 4.00098C4.50171 4.13301 4.50972 4.26504 4.52974 4.39707C4.57774 4.7211 4.68574 5.04102 4.85772 5.34903ZM9.91773 8.99707C9.93374 8.99707 9.95371 9.00098 9.96973 9.00098L12.2217 9.00098C12.2777 9.00098 12.3337 9.00899 12.3817 9.0291C12.4337 9.04512 12.4817 9.07305 12.5257 9.10508C12.5737 9.14102 12.6097 9.18106 12.6417 9.2291C12.6697 9.27305 12.6897 9.325 12.7057 9.38106L13.2057 11.3811C13.2257 11.457 13.2297 11.533 13.2137 11.6051C13.1977 11.6772 13.1657 11.7451 13.1137 11.809C13.0657 11.8731 13.0057 11.9211 12.9377 11.9531C12.8737 11.9852 12.8017 12.001 12.7217 12.001L3.28174 12.001C3.19771 12.001 3.12573 11.9852 3.06172 11.9531C2.9937 11.9211 2.93374 11.8731 2.88574 11.809C2.83774 11.7451 2.80171 11.6772 2.78975 11.6051C2.77373 11.5358 2.77505 11.4558 2.7937 11.3811L3.2937 9.38106C3.30972 9.325 3.32974 9.27305 3.35772 9.2291C3.38975 9.18106 3.42974 9.14102 3.47373 9.10508C3.51773 9.07305 3.56572 9.04512 3.61773 9.0291C3.66973 9.00899 3.72173 9.00098 3.78174 9.00098L6.00171 9.00098C6.02573 9.00098 6.05371 8.99707 6.08174 8.99707C6.20571 8.98516 6.32974 8.94102 6.4457 8.87305C6.56172 8.80508 6.66973 8.71309 6.76572 8.59707C6.78574 8.57305 6.80571 8.54903 6.82573 8.5211C6.97505 8.31576 7.07905 8.06641 7.12974 7.78907C7.14971 7.68907 7.15772 7.58516 7.16172 7.48106C7.16973 7.23835 7.13239 6.98633 7.04971 6.74102C6.92173 6.34903 6.68975 5.98516 6.35371 5.64512L5.69771 6.30098L6.35371 5.64512C6.07373 5.36914 5.86572 5.10899 5.73374 4.86504C5.60171 4.63301 5.52974 4.39317 5.50571 4.14902C5.50305 4.10111 5.50171 4.05176 5.50171 4.00098C5.50171 3.80899 5.52173 3.625 5.56172 3.44102C5.59372 3.29974 5.63905 3.16244 5.69771 3.0291C5.75371 2.88906 5.82573 2.75703 5.90571 2.63711C5.99771 2.48906 6.10571 2.35703 6.23374 2.23301C6.35772 2.10898 6.48975 2.00098 6.63374 1.90508C6.75772 1.825 6.88975 1.75703 7.02573 1.69707C7.16172 1.63711 7.30171 1.59316 7.4417 1.56113C7.62173 1.52109 7.80972 1.50098 8.00171 1.50098C8.18975 1.50098 8.37774 1.52109 8.55772 1.56113C8.69771 1.59316 8.83775 1.63711 8.97373 1.69707C9.10972 1.75703 9.2417 1.825 9.36573 1.90508C9.50972 2.00098 9.64571 2.10898 9.76573 2.23301C9.8937 2.35703 10.0017 2.49316 10.0977 2.63711C10.1777 2.75703 10.2457 2.88906 10.3057 3.0291C10.3617 3.16113 10.4057 3.30098 10.4377 3.44102C10.4817 3.625 10.5017 3.80899 10.5017 4.00098C10.5017 4.05176 10.499 4.10248 10.4937 4.15313C10.4697 4.39707 10.3977 4.63301 10.2657 4.86504C10.1337 5.10899 9.92574 5.36914 9.64571 5.64512L10.3017 6.30098L9.64571 5.64512C9.30972 5.98516 9.07774 6.34903 8.94971 6.74102C8.86973 6.98633 8.83241 7.23034 8.83775 7.47305C8.8417 7.57715 8.85371 7.68907 8.86973 7.78907C8.92574 8.07305 9.02574 8.31309 9.17774 8.5211C9.1937 8.54903 9.21773 8.57305 9.23775 8.59707C9.33374 8.71309 9.43775 8.80508 9.55371 8.87305C9.67373 8.94102 9.7937 8.98516 9.91773 8.99707ZM2.00171 14.501L14.0017 14.501C14.2777 14.501 14.5017 14.7211 14.5017 15.001C14.5017 15.2811 14.2777 15.501 14.0017 15.501L2.00171 15.501C1.72173 15.501 1.50171 15.2811 1.50171 15.001C1.50171 14.7211 1.72173 14.501 2.00171 14.501Z" fill="rgb(25,25,25)" fill-rule="evenodd" />
	</g>
</svg>
