<svg viewBox="0 0 80 80" xmlns="http://www.w3.org/2000/svg" xmlns:xlink="http://www.w3.org/1999/xlink" width="80.000000" height="80.000000" fill="none" customFrame="#000000">
	<rect id="项目首字母图标/S-48px*48px" width="80.000000" height="80.000000" x="0.000000" y="0.000000" />
	<rect id="矩形" width="80.000000" height="80.000000" x="0.000000" y="0.000000" opacity="0" fill="rgb(216,216,216)" />
	<rect id="矩形" width="77.000000" height="77.000000" x="1.500000" y="1.500000" opacity="0" stroke="rgb(151,151,151)" stroke-opacity="0" stroke-width="3" />
	<g id="s">
		<path id="Path" d="M13.8889 0C13.8889 3.15803 15.9969 5.82371 18.8826 6.6667L8.64802 16.9C3.51894 13.1953 0.143564 7.21309 0.00446911 0.435872L0 0L13.8889 0Z" fill="rgb(234,216,131)" fill-rule="evenodd" transform="matrix(1,0,0,-1,8.05579,28.8889)" />
		<path id="Path" d="M49.7225 33.0555C59.6943 33.0555 67.7781 41.1392 67.7781 51.111C67.7781 60.9404 59.9237 68.9352 50.1487 69.1617L49.7225 69.1666L31.667 69.1666L31.667 55.2777L49.7225 55.2777C52.0237 55.2777 53.8892 53.4122 53.8892 51.111C53.8892 48.892 52.1546 47.0782 49.9674 46.9514L49.7225 46.9444L30.2781 46.9444C20.3063 46.9444 12.2225 38.8606 12.2225 28.8888C12.2225 19.0595 20.077 11.0646 29.8519 10.8382L30.2781 10.8333L48.3336 10.8333L48.3336 24.7221L30.2781 24.7221C27.9769 24.7221 26.1114 26.5876 26.1114 28.8888C26.1114 31.1078 27.846 32.9217 30.0333 33.0484L30.2781 33.0555L49.7225 33.0555Z" fill="rgb(218,95,95)" fill-rule="evenodd" />
		<path id="Path" d="M12.2225 28.8888C12.2225 19.0595 20.077 11.0646 29.8519 10.8382L30.2781 10.8333L34.4448 10.8333L34.4448 24.7221L30.2781 24.7221C28.0591 24.7221 26.2452 26.4568 26.1185 28.644L26.1114 28.8888L12.2225 28.8888Z" fill="rgb(178,126,245)" fill-rule="evenodd" />
		<rect id="Rectangle" width="11.111111" height="13.888888" x="53.889160" y="10.833252" fill="rgb(97,212,220)" />
		<rect id="Rectangle Copy 15" width="11.111111" height="13.888888" x="15.000000" y="55.277588" fill="rgb(85,203,170)" />
		<rect id="Rectangle" width="11.111111" height="6.944444" x="53.889160" y="10.833252" fill="rgb(84,59,186)" />
		<rect id="Rectangle Copy 20" width="11.111111" height="4.166667" x="15.000000" y="65.000000" fill="rgb(174,234,131)" />
		<path id="Path Copy 5" d="M0 18.0556C0 8.2262 7.85443 0.23135 17.6294 0.00493117L18.0556 0L22.2222 0L22.2222 13.8889L18.0556 13.8889C15.8366 13.8889 14.0227 15.6235 13.896 17.8107L13.8889 18.0556L0 18.0556Z" fill="rgb(238,186,91)" fill-rule="evenodd" transform="matrix(-1,0,0,-1,67.7775,69.1667)" />
		<path id="Path" d="M25 0L25 2.77778L12.5 2.77778C7.13057 2.77778 2.77778 7.13057 2.77778 12.5C2.77778 17.7576 6.95109 22.0404 12.1658 22.2166L12.5 22.2222L31.9444 22.2222C38.848 22.2222 44.4444 27.8187 44.4444 34.7222L41.6667 34.7222C41.6667 29.4646 37.4934 25.1818 32.2787 25.0056L31.9444 25L12.5 25C5.59644 25 0 19.4036 0 12.5C0 5.71972 5.39835 0.20029 12.1314 0.00532931L12.5 0L25 0Z" fill="rgb(255,255,255)" fill-rule="evenodd" transform="matrix(-1,0,0,-1,62.2225,63.6111)" />
		<path id="Path" d="M41.6667 34.7222L44.4444 34.7222C44.4444 33.6881 44.3189 32.6833 44.0821 31.7222C42.7384 26.2676 37.8139 22.2222 31.9444 22.2222L12.5 22.2222L12.1658 22.2166C6.95109 22.0404 2.77778 17.7576 2.77778 12.5C2.77778 7.13057 7.13057 2.77778 12.5 2.77778L25 2.77778L25 0L12.5 0L12.1314 0.00532931C5.39835 0.20029 0 5.71972 0 12.5C0 19.4036 5.59644 25 12.5 25L31.9444 25L32.2787 25.0056C37.4934 25.1818 41.6667 29.4646 41.6667 34.7222Z" fill="rgb(151,151,151)" fill-opacity="0" fill-rule="evenodd" transform="matrix(-1,0,0,-1,62.2225,63.6111)" />
	</g>
</svg>
