<svg viewBox="0 0 80 80" xmlns="http://www.w3.org/2000/svg" xmlns:xlink="http://www.w3.org/1999/xlink" width="80.000000" height="80.000000" fill="none">
	<rect id="操作图标/搜索" width="80.000000" height="80.000000" x="0.000000" y="0.000000" />
	<path id="形状结合" d="M36.8201 5C54.3939 5 68.6402 19.2463 68.6402 36.8201C68.6402 44.9669 65.5786 52.3986 60.5432 58.0275L72.9908 70.4733C74.0263 71.5089 74.0263 73.1878 72.9908 74.2233C72.0703 75.1438 70.6415 75.2461 69.608 74.5302L56.6943 61.6718C51.2488 66.0324 44.339 68.6402 36.8201 68.6402C19.2463 68.6402 5 54.3939 5 36.8201C5 19.2463 19.2463 5 36.8201 5ZM36.8201 10.3034C22.1753 10.3034 10.3034 22.1753 10.3034 36.8201C10.3034 51.4649 22.1753 63.3369 36.8201 63.3369C51.4649 63.3369 63.3369 51.4649 63.3369 36.8201C63.3369 22.1753 51.4649 10.3034 36.8201 10.3034Z" fill="rgb(147,147,147)" fill-rule="nonzero" />
	<path id="形状结合" d="M68.6402 36.8201C68.6402 44.9669 65.5786 52.3986 60.5432 58.0275L72.9908 70.4733C74.0263 71.5089 74.0263 73.1878 72.9908 74.2233C72.0703 75.1438 70.6415 75.2461 69.608 74.5302L56.6943 61.6718C51.2488 66.0324 44.339 68.6402 36.8201 68.6402C19.2463 68.6402 5 54.3939 5 36.8201C5 19.2463 19.2463 5 36.8201 5C54.3939 5 68.6402 19.2463 68.6402 36.8201ZM10.3034 36.8201C10.3034 51.4649 22.1753 63.3369 36.8201 63.3369C51.4649 63.3369 63.3369 51.4649 63.3369 36.8201C63.3369 22.1753 51.4649 10.3034 36.8201 10.3034C22.1753 10.3034 10.3034 22.1753 10.3034 36.8201Z" fill-rule="nonzero" stroke="rgb(0,0,0)" stroke-opacity="0" stroke-width="3" />
</svg>
