<svg viewBox="0 0 36 36" xmlns="http://www.w3.org/2000/svg" xmlns:xlink="http://www.w3.org/1999/xlink" width="36.000000" height="36.000000" fill="none">
	<rect id="操作图标/排序" width="36.000000" height="36.000000" x="0.000000" y="0.000000" />
	<path id="合并" d="M19.3259 3.03572L27.9339 13.0784C29.1849 14.5379 28.1478 16.7927 26.2255 16.7927L9.00953 16.7927C7.08724 16.7927 6.05019 14.5379 7.3012 13.0784L15.9092 3.03572C16.8072 1.98809 18.4279 1.98809 19.3259 3.03572ZM26.4154 14.38L17.8074 4.3373Q17.7699 4.29365 17.7225 4.27183Q17.675 4.25 17.6175 4.25Q17.56 4.25 17.5126 4.27182Q17.4651 4.29365 17.4277 4.3373L8.81972 14.38Q8.76759 14.4408 8.75826 14.5076Q8.74894 14.5744 8.7824 14.6471Q8.81587 14.7199 8.87265 14.7563Q8.92944 14.7927 9.00953 14.7927L26.2255 14.7927Q26.3056 14.7927 26.3624 14.7563Q26.4192 14.7199 26.4527 14.6471Q26.4861 14.5744 26.4768 14.5076Q26.4675 14.4408 26.4154 14.38ZM19.326 32.799L27.9348 22.7532C29.1855 21.2936 28.1484 19.0391 26.2263 19.0391L9.00881 19.0391C7.08663 19.0391 6.04954 21.2936 7.30031 22.7532L15.909 32.799C16.807 33.8469 18.428 33.8469 19.326 32.799ZM26.4161 21.4518L17.8074 31.4976Q17.77 31.5412 17.7225 31.5631Q17.675 31.5849 17.6175 31.5849Q17.56 31.5849 17.5126 31.5631Q17.4651 31.5412 17.4277 31.4976L8.81897 21.4518Q8.76686 21.3909 8.75754 21.3242Q8.74821 21.2574 8.78168 21.1846Q8.81516 21.1118 8.87194 21.0755Q8.92872 21.0391 9.00881 21.0391L26.2263 21.0391Q26.3064 21.0391 26.3631 21.0755Q26.4199 21.1118 26.4534 21.1846Q26.4869 21.2574 26.4775 21.3242Q26.4682 21.3909 26.4161 21.4518Z" fill="rgb(25,25,25)" fill-rule="evenodd" />
</svg>
