<svg viewBox="0 0 16 16" xmlns="http://www.w3.org/2000/svg" xmlns:xlink="http://www.w3.org/1999/xlink" width="16.000000" height="16.000000" fill="none" customFrame="#000000">
	<rect id="统计" width="16.000006" height="16.000006" x="0.000000" y="0.000000" fill="rgb(255,255,255)" fill-opacity="0" />
	<g id="Statistics-统计">
		<rect id="Statistics-统计" width="16.000006" height="16.000006" x="0.000000" y="0.000000" />
		<path id="矢量 743" d="M7.76172 1.54512C7.76172 1.53301 7.76172 1.52109 7.76573 1.50508C7.76573 1.49316 7.76573 1.48105 7.76973 1.46504C7.78975 1.3291 7.85772 1.22109 7.96973 1.14102C8.08174 1.06113 8.20572 1.03301 8.3417 1.05313C8.75772 1.12109 9.16573 1.22109 9.55772 1.34902C9.95772 1.48105 10.3457 1.64512 10.7217 1.84102C11.0657 2.02109 11.3937 2.22109 11.7017 2.44102C12.0577 2.69707 12.3898 2.98106 12.7017 3.29316C13.0177 3.60508 13.2977 3.93711 13.5537 4.29317C13.7777 4.60098 13.9777 4.9291 14.1537 5.27305C14.351 5.64909 14.515 6.03711 14.6457 6.43711C14.7777 6.83301 14.8777 7.23711 14.9457 7.65313C14.9497 7.66504 14.9497 7.67715 14.9497 7.69317C14.9497 7.8293 14.9017 7.98906 14.8057 8.08516C14.7057 8.18516 14.5898 8.23301 14.4497 8.23301L8.26172 8.23711C8.12173 8.23711 8.00572 8.18906 7.90972 8.08906C7.80972 7.99317 7.76172 7.87305 7.76172 7.73711L7.76172 1.54512ZM6.54971 2.13711C6.24307 2.21172 5.94707 2.30905 5.66172 2.4291C5.33374 2.56504 5.02173 2.73301 4.71773 2.925C4.44971 3.10098 4.1937 3.29707 3.95371 3.50899C3.70571 3.73711 3.47373 3.98106 3.26172 4.24902C3.03239 4.53444 2.83372 4.83581 2.66572 5.15313C2.52573 5.41699 2.40171 5.69317 2.29771 5.98106C2.20438 6.25046 2.12839 6.52376 2.06973 6.80098C1.98975 7.19317 1.94971 7.59707 1.94971 8.00508C1.94971 8.46504 2.00171 8.90899 2.10171 9.34512C2.17773 9.68906 2.28574 10.0291 2.42573 10.357C2.56973 10.6971 2.73774 11.0131 2.93775 11.317C3.16172 11.6611 3.42573 11.9811 3.72173 12.2811C4.02173 12.5772 4.3417 12.8371 4.68574 13.065C4.98574 13.2611 5.30571 13.433 5.6417 13.5731C5.97373 13.7131 6.30972 13.825 6.65371 13.901C7.08975 14.001 7.53775 14.049 7.9937 14.049C8.39771 14.049 8.7937 14.009 9.18174 13.933C9.44971 13.8811 9.71373 13.809 9.97373 13.717C10.2537 13.6211 10.5257 13.5051 10.7857 13.3691C11.0977 13.2051 11.3937 13.017 11.6777 12.7971C11.9377 12.5971 12.1817 12.3772 12.4017 12.141C12.6177 11.909 12.8177 11.665 12.9937 11.401C13.1937 11.109 13.3657 10.801 13.5097 10.4852C13.6297 10.2131 13.7337 9.9291 13.8137 9.63711C13.8898 9.36914 14.1617 9.217 14.4337 9.29317C14.7017 9.36504 14.8537 9.63711 14.7777 9.90899C14.6817 10.2531 14.5617 10.5852 14.4137 10.9051C14.2497 11.2731 14.0497 11.625 13.8217 11.9611C13.6137 12.2691 13.3817 12.557 13.1297 12.825C12.8697 13.101 12.5898 13.357 12.2857 13.5891C11.9617 13.841 11.6177 14.0611 11.2617 14.249C10.9497 14.409 10.6337 14.549 10.3017 14.6611C9.98575 14.7731 9.66973 14.857 9.34971 14.9211C8.90572 15.0051 8.45371 15.049 7.9937 15.049C7.46973 15.049 6.95772 14.9932 6.45772 14.8811C6.04571 14.7891 5.64571 14.6611 5.25371 14.4971C4.85772 14.3291 4.48174 14.125 4.12573 13.8932C3.72974 13.633 3.35772 13.3291 3.01372 12.9852C2.66973 12.641 2.36572 12.2731 2.10972 11.8731C1.87373 11.5211 1.67373 11.1451 1.50571 10.749C1.33774 10.3531 1.20972 9.95313 1.11772 9.54512C1.00972 9.04512 0.949707 8.5291 0.949707 8.00508C0.949707 7.53711 0.997705 7.08106 1.08574 6.6291C1.14971 6.29707 1.2417 5.96914 1.35772 5.64512C1.47773 5.30899 1.62173 4.98106 1.78975 4.66914C1.98574 4.30098 2.21773 3.95703 2.47774 3.625C2.72573 3.31699 2.9937 3.0291 3.28174 2.76914C3.56172 2.52109 3.86172 2.29316 4.17774 2.08516C4.52573 1.86113 4.88574 1.66914 5.26572 1.51309C5.60171 1.36914 5.95371 1.25313 6.31372 1.16504C6.58574 1.09707 6.85371 1.26113 6.91773 1.5291C6.98574 1.80508 6.82573 2.06914 6.54971 2.13711ZM8.76172 7.23711L8.76172 2.16113C8.92574 2.20098 9.08574 2.24902 9.24571 2.30098C9.5937 2.41699 9.93374 2.55703 10.2657 2.7291C10.5617 2.88516 10.8457 3.05703 11.1137 3.24902C11.4257 3.47305 11.7217 3.725 11.9977 4.00098C12.2737 4.27305 12.5257 4.56914 12.7457 4.88106C12.9324 5.14238 13.1177 5.44238 13.2697 5.73301C13.4417 6.06113 13.5817 6.40098 13.6977 6.75313C13.7497 6.90899 13.7977 7.06914 13.8377 7.23301L8.76172 7.23711Z" fill="rgb(25,25,25)" fill-rule="evenodd" />
	</g>
</svg>
