<svg viewBox="0 0 56 56" xmlns="http://www.w3.org/2000/svg" xmlns:xlink="http://www.w3.org/1999/xlink" width="56.000000" height="56.000000" fill="none" customFrame="#000000">
	<defs>
		<clipPath id="clipPath_9">
			<rect width="56.000000" height="56.000000" x="0.000000" y="0.000000" fill="rgb(255,255,255)" />
		</clipPath>
	</defs>
	<rect id="icon/其他/字幕设置_线" width="56.000000" height="56.000000" x="0.000000" y="0.000000" fill="rgb(255,255,255)" fill-opacity="0" />
	<g id=".公共工具/iC辅助/bg/浅色" customFrame="url(#clipPath_9)">
		<rect id=".公共工具/iC辅助/bg/浅色" width="56.000000" height="56.000000" x="0.000000" y="0.000000" />
		<rect id="矩形" width="56.000000" height="56.000000" x="0.000000" y="0.000000" opacity="0" fill="rgb(0,0,0)" />
		<rect id="矩形" width="53.000000" height="53.000000" x="1.500000" y="1.500000" opacity="0" stroke="rgb(151,151,151)" stroke-opacity="0" stroke-width="3" />
	</g>
	<path id="形状" d="M9.66 11.6666C10.1239 11.6666 10.5 12.0427 10.5 12.5066L10.5 14.3266C10.5 14.7905 10.1239 15.1666 9.66 15.1666L7.84 15.1666C7.37608 15.1666 7 14.7905 7 14.3266L7 12.5066C7 12.0427 7.37608 11.6666 7.84 11.6666L9.66 11.6666ZM49 12.6C49 12.0845 48.5821 11.6666 48.0667 11.6666L17.2667 11.6666C16.7512 11.6666 16.3333 12.0845 16.3333 12.6L16.3333 14.2333C16.3333 14.7488 16.7512 15.1666 17.2667 15.1666L48.0667 15.1666C48.5821 15.1666 49 14.7488 49 14.2333L49 12.6ZM10.5 27.09C10.5 26.626 10.1239 26.25 9.66 26.25L7.84 26.25C7.37608 26.25 7 26.626 7 27.09L7 28.91C7 29.3739 7.37608 29.75 7.84 29.75L9.66 29.75C10.1239 29.75 10.5 29.3739 10.5 28.91L10.5 27.09ZM48.0667 26.25C48.5821 26.25 49 26.6678 49 27.1833L49 28.8166C49 29.3321 48.5821 29.75 48.0667 29.75L17.2667 29.75C16.7512 29.75 16.3333 29.3321 16.3333 28.8166L16.3333 27.1833C16.3333 26.6678 16.7512 26.25 17.2667 26.25L48.0667 26.25ZM10.5 41.6733C10.5 41.2094 10.1239 40.8333 9.66 40.8333L7.84 40.8333C7.37608 40.8333 7 41.2094 7 41.6733L7 43.4933C7 43.9572 7.37608 44.3333 7.84 44.3333L9.66 44.3333C10.1239 44.3333 10.5 43.9572 10.5 43.4933L10.5 41.6733ZM49 41.7666C49 41.2512 48.5821 40.8333 48.0667 40.8333L17.2667 40.8333C16.7512 40.8333 16.3333 41.2512 16.3333 41.7666L16.3333 43.4C16.3333 43.9154 16.7512 44.3333 17.2667 44.3333L48.0667 44.3333C48.5821 44.3333 49 43.9154 49 43.4L49 41.7666Z" fill="rgb(51,51,51)" fill-rule="evenodd" />
</svg>
