<svg viewBox="0 0 80 80" xmlns="http://www.w3.org/2000/svg" xmlns:xlink="http://www.w3.org/1999/xlink" width="80.000000" height="80.000000" fill="none" customFrame="#000000">
	<rect id="Successful" width="80.000000" height="80.000000" x="0.000000" y="0.000000" />
	<path id="path1" d="M0.00972071 39.9674C0.00972071 33.7184 -0.0121509 27.4693 0.00972071 21.2203C-0.00285159 18.1964 0.368817 15.1832 1.1158 12.2529C2.75305 6.05078 6.79305 2.3701 12.989 0.942191C16.0957 0.270959 19.2688 -0.0435276 22.4469 0.00483665C34.4304 0.00483665 46.415 0.00483665 58.4007 0.00483665C61.4276 -0.0139535 64.4458 0.332241 67.3899 1.03593C73.7733 2.59819 77.604 6.64131 79.0631 13.0028C79.7191 16.0094 80.0325 19.0806 79.9973 22.1577C79.9973 34.2704 79.9973 46.3841 79.9973 58.4989C80.0137 61.4967 79.6686 64.4855 78.9694 67.4007C77.4071 73.7872 73.3452 77.5991 66.9837 79.0582C63.8766 79.7269 60.7037 80.0414 57.5258 79.9956C45.5922 79.9956 33.6597 79.9956 21.7282 79.9956C18.6781 80.0205 15.6361 79.6796 12.6671 78.9801C6.25563 77.4178 2.40622 73.356 0.9502 66.9632C0.206565 63.7137 0.00972071 60.4548 0.00972071 57.1679C0.00972071 51.4354 0.00972071 45.7019 0.00972071 39.9674Z" opacity="0" fill-rule="evenodd" />
	<path id="矢量 182" d="M40.0001 4.1665C47.7041 4.1665 55.0466 6.60659 61.1352 11.0602C62.2496 11.8754 62.4921 13.4397 61.677 14.5541C60.8619 15.6685 59.2977 15.911 58.1833 15.0959C52.9442 11.2637 46.6337 9.1665 40.0001 9.1665C22.9713 9.1665 9.16675 22.971 9.16675 39.9998C9.16675 57.0286 22.9713 70.8332 40.0001 70.8332C57.0289 70.8332 70.8334 57.0286 70.8334 39.9998C70.8334 33.3642 68.7349 27.0517 64.9005 21.8119C64.0852 20.6976 64.3274 19.1333 65.4417 18.3179C66.5559 17.5026 68.1202 17.7449 68.9355 18.8591C73.3918 24.9488 75.8334 32.2934 75.8334 39.9998C75.8334 59.7901 59.7903 75.8332 40.0001 75.8332C20.2098 75.8332 4.16675 59.7901 4.16675 39.9998C4.16675 20.2096 20.2098 4.1665 40.0001 4.1665ZM60.056 28.1881C59.0555 27.2367 57.473 27.2766 56.5217 28.2772L36.1467 49.7032L23.4785 36.3806C22.5184 35.63 20.8538 35.4265 19.9441 36.2914C18.9435 37.2428 18.9036 38.8252 19.855 39.8258L34.3359 55.0558C35.332 55.8268 37.0636 55.9981 37.9595 55.0558L60.1451 31.7225C60.8464 30.7257 60.9657 29.053 60.056 28.1881Z" fill="rgb(0,0,0)" fill-rule="evenodd" />
</svg>
