<svg viewBox="0 0 80 80" xmlns="http://www.w3.org/2000/svg" xmlns:xlink="http://www.w3.org/1999/xlink" width="80.000000" height="80.000000" fill="none">
	<mask id="mask_5" width="80.000000" height="80.000000" x="0.000000" y="0.000000" maskUnits="userSpaceOnUse">
		<g filter="url(#pixso_custom_mask_type_alpha)">
			<g id="clip432_17642">
				<rect id="矩形 27" width="80.000000" height="80.000000" x="0.000000" y="0.000000" fill="rgb(0,0,0)" />
			</g>
		</g>
	</mask>
	<mask id="mask_4" width="80.000000" height="80.000000" x="0.000000" y="0.000000" maskUnits="userSpaceOnUse">
		<g filter="url(#pixso_custom_mask_type_alpha)">
			<g id="clip432_17639">
				<rect id="矩形 26" width="80.000000" height="80.000000" x="0.000000" y="0.000000" fill="rgb(0,0,0)" />
			</g>
		</g>
	</mask>
	<mask id="mask_3" width="80.000000" height="80.000000" x="0.000000" y="0.000000" maskUnits="userSpaceOnUse">
		<g filter="url(#pixso_custom_mask_type_alpha)">
			<g id="clip432_17634">
				<rect id="矩形 25" width="80.000000" height="80.000000" x="0.000000" y="0.000000" fill="rgb(0,0,0)" />
			</g>
		</g>
	</mask>
	<defs>
		<filter id="pixso_custom_mask_type_alpha">
			<feColorMatrix type="matrix" values="0 0 0 0 1 0 0 0 0 1 0 0 0 0 1 0 0 0 1 0 " />
		</filter>
	</defs>
	<mask id="mask_2" width="80.000000" height="80.000000" x="0.000000" y="0.000000" maskUnits="userSpaceOnUse">
		<g filter="url(#pixso_custom_mask_type_alpha)">
			<g id="clip432_17633">
				<rect id="矩形 28" width="80.000000" height="80.000000" x="0.000000" y="0.000000" fill="rgb(0,0,0)" />
			</g>
		</g>
	</mask>
	<rect id="标签" width="80.000000" height="80.000000" x="0.000000" y="0.000000" />
	<rect id="矩形 24" width="80.000000" height="80.000000" x="0.000000" y="0.000000" fill="rgb(255,255,255)" fill-opacity="0" />
	<g id="clip path group" mask="url(#mask_2)">
		<g id="组合 43">
			<g id="clip path group" mask="url(#mask_3)">
				<g id="组合 45">
					<path id="矢量 327" d="M8.31876e-05 39.9667C8.31876e-05 33.7167 -0.0165835 27.4667 8.31876e-05 21.2167C-0.0165835 18.1833 0.36675 15.15 1.10008 12.2333C2.75008 6.05001 6.78342 2.36668 12.9834 0.933344C16.0834 0.266677 19.2667 -0.066656 22.4334 1.06487e-05C34.4167 1.06487e-05 46.3834 1.06487e-05 58.4001 1.06487e-05C61.4001 -0.0333227 64.4334 0.316677 67.3667 1.01668C73.7501 2.58334 77.6001 6.61668 79.0334 13C79.7167 15.9833 80.0001 19.0667 79.9834 22.15C79.9834 34.2667 79.9834 46.3833 79.9834 58.4833C80.0001 61.4833 79.6667 64.4833 78.9667 67.4C77.4001 73.7833 73.3334 77.5833 66.9834 79.05C63.8667 79.7167 60.6834 80.0333 57.5001 79.9833C45.5667 79.9833 33.6501 79.9833 21.7167 79.9833C18.6667 80.0167 15.6334 79.6667 12.6501 78.9667C6.25008 77.4167 2.40008 73.35 0.950083 66.9333C0.200083 63.7 8.31876e-05 60.45 8.31876e-05 57.1667C8.31876e-05 51.4333 8.31876e-05 45.7 8.31876e-05 39.9667Z" fill="rgb(255,255,255)" fill-opacity="0" fill-rule="evenodd" />
					<circle id="椭圆 5" cx="40" cy="40" r="40" fill="rgb(255,255,255)" fill-opacity="0" />
				</g>
			</g>
			<g id="clip path group" mask="url(#mask_4)">
				<g id="组合 47">
					<path id="矢量 328" d="M57.5 6.66669C61.4667 6.66669 64.7167 9.73335 64.9833 13.65L65 14.1667L65 69.4667C65 72.7167 61.4667 74.6667 58.75 73.0834L58.4 72.8667L45.7 63.7834C44.5833 62.9667 44.3167 61.4167 45.1167 60.2834C45.85 59.2667 47.2 58.9667 48.2833 59.5167L60 67.85L60 14.1667C60 12.8834 59.05 11.85 57.8333 11.6834L57.5 11.6667L22.5 11.6667C21.2333 11.6667 20.1833 12.6 20.0167 13.8167L20 14.1667L20 67.85L38.5333 54.6334C39.5667 53.9 40.95 54.05 41.8 54.9334C42.5167 55.95 42.6 57.6167 41.7333 58.4667L21.5667 72.8667C18.9167 74.75 15.3 73.0167 15.0167 69.8667L15 69.4667L15 14.1667C15 10.1834 18.0667 6.93335 21.9833 6.68335L22.5 6.66669L57.5 6.66669ZM46.6667 19.1667C48.0333 19.1667 49.1667 20.2834 49.1667 21.6667C49.1667 22.9334 48.2167 23.9667 47 24.1334L46.6667 24.1667L33.3333 24.1667C31.95 24.1667 30.8333 23.0334 30.8333 21.6667C30.8333 20.4 31.7667 19.35 32.9833 19.1834L33.3333 19.1667L46.6667 19.1667Z" fill="rgb(0,0,0)" fill-rule="evenodd" />
					<path id="矢量 329" d="M46.6666 19.1667C48.0332 19.1667 49.1666 20.2834 49.1666 21.6667C49.1666 22.9334 48.2166 23.9667 46.9999 24.1334L46.6666 24.1667L33.3333 24.1667C31.9499 24.1667 30.8333 23.0334 30.8333 21.6667C30.8333 20.4 31.7666 19.35 32.9833 19.1834L33.3333 19.1667L46.6666 19.1667Z" fill="rgb(0,0,0)" fill-rule="evenodd" />
				</g>
			</g>
			<g id="clip path group" mask="url(#mask_5)">
				<g id="组合 49">
					<path id="矢量 330" d="M46.6667 24L33.3333 24C31.95 24 30.8333 22.8833 30.8333 21.5C30.8333 20.1167 31.95 19 33.3333 19L46.6667 19C48.0333 19 49.1667 20.1167 49.1667 21.5C49.1667 22.8833 48.0333 24 46.6667 24ZM57.5 6.5L22.5 6.5C18.35 6.5 15 9.86667 15 14L15 69.3167C15 70.8833 15.85 72.3 17.25 73.0167C18.6333 73.7333 20.3 73.6167 21.5833 72.7L40 59.5833L58.4167 72.7167C59.1333 73.2333 59.9833 73.4833 60.8167 73.4833C61.4833 73.4833 62.1333 73.3333 62.7333 73.0167C64.1333 72.3 65 70.8833 65 69.3167L65 14C65 9.86667 61.6333 6.5 57.5 6.5Z" fill="rgb(255,255,255)" fill-opacity="0" fill-rule="evenodd" />
					<path id="矢量 331" d="M46.6666 24L33.3333 24C31.9499 24 30.8333 22.8833 30.8333 21.5C30.8333 20.1167 31.9499 19 33.3333 19L46.6666 19C48.0332 19 49.1666 20.1167 49.1666 21.5C49.1666 22.8833 48.0332 24 46.6666 24Z" fill="rgb(255,255,255)" fill-opacity="0" fill-rule="evenodd" />
				</g>
			</g>
		</g>
	</g>
</svg>
