<svg viewBox="0 0 16 16" xmlns="http://www.w3.org/2000/svg" xmlns:xlink="http://www.w3.org/1999/xlink" width="16.000000" height="16.000000" fill="none" customFrame="#000000">
	<rect id="任务" width="15.999982" height="16.000006" x="0.000000" y="0.000000" fill="rgb(255,255,255)" fill-opacity="0" />
	<rect id="Task-任务" width="15.999982" height="16.000006" x="0.000000" y="0.000000" fill="rgb(0,0,0)" fill-opacity="0" />
	<path id="矢量 740" d="M15.334 12.833L15.334 3.16504C15.334 2.98106 15.3144 2.79707 15.2752 2.62109C15.242 2.47715 15.1972 2.33301 15.1388 2.19316C15.0782 2.04915 15.006 1.91445 14.922 1.78906C14.83 1.64902 14.7228 1.51699 14.6016 1.39707C14.4804 1.27715 14.3516 1.16914 14.2128 1.07715C14.086 0.993164 13.9492 0.921094 13.8068 0.861133C13.7132 0.821029 13.618 0.787695 13.5212 0.761133C13.4724 0.747721 13.4228 0.735677 13.3732 0.725C13.2097 0.690365 13.0038 0.665039 12.834 0.665039L3.16797 0.665039C2.98037 0.665039 2.79678 0.685156 2.61719 0.725C2.47278 0.757031 2.33198 0.805078 2.19316 0.861133C2.05078 0.921094 1.91397 0.99707 1.78718 1.08105C1.64836 1.17305 1.51958 1.27715 1.40037 1.39707C1.27918 1.51699 1.17397 1.64512 1.08198 1.78516C0.997974 1.91309 0.925586 2.04902 0.863184 2.19316C0.806787 2.3291 0.75957 2.47305 0.728369 2.61699C0.687573 2.79316 0.667969 2.97715 0.667969 3.16504L0.667969 12.833C0.667969 13.017 0.687573 13.1971 0.726367 13.3691C0.757568 13.517 0.804785 13.665 0.863184 13.8051C0.923714 13.9491 0.99598 14.0837 1.07998 14.209C1.17197 14.349 1.27918 14.4811 1.39836 14.601C1.50663 14.7078 1.62264 14.8038 1.74639 14.8891C1.76025 14.897 1.77664 14.9104 1.79077 14.9211C1.91597 15.0051 2.05078 15.0772 2.19316 15.1371C2.33399 15.1971 2.47637 15.241 2.62317 15.2731C2.62903 15.2758 2.67424 15.2852 2.68037 15.2852C2.83957 15.3171 3.00264 15.333 3.16797 15.333L12.834 15.333C13.0156 15.333 13.1932 15.3131 13.3672 15.2772C13.5176 15.2451 13.664 15.1971 13.8068 15.1371C13.9492 15.0772 14.082 15.0051 14.2088 14.9211C14.3496 14.8291 14.4804 14.7211 14.6016 14.601C14.7244 14.4772 14.83 14.3451 14.924 14.2051C15.006 14.0811 15.078 13.9451 15.1368 13.8051C15.1992 13.6611 15.246 13.5131 15.2772 13.365C15.3164 13.1932 15.334 13.0131 15.334 12.833ZM14.2948 2.82109C14.3224 2.93301 14.334 3.04902 14.334 3.16504L14.334 12.833C14.334 12.9451 14.3224 13.057 14.2968 13.165C14.2772 13.249 14.252 13.333 14.2168 13.417C14.1816 13.4971 14.1405 13.5744 14.0936 13.649C14.0372 13.7371 13.9708 13.817 13.8944 13.8932C13.8184 13.9678 13.7364 14.0344 13.6484 14.0932C13.576 14.141 13.498 14.1811 13.418 14.2131C13.336 14.249 13.254 14.2772 13.168 14.2971C13.0604 14.3211 12.9492 14.333 12.834 14.333L3.16797 14.333C3.04878 14.333 2.93357 14.3211 2.82239 14.2932C2.74038 14.2731 2.66199 14.249 2.58399 14.2131C2.50198 14.1811 2.42398 14.1371 2.34959 14.0891C2.26157 14.033 2.18157 13.9691 2.10718 13.8932C2.03318 13.817 1.96677 13.7371 1.90999 13.6531C1.86118 13.5772 1.82039 13.4971 1.78518 13.417C1.75198 13.3371 1.72437 13.257 1.70718 13.1731C1.68157 13.0611 1.66797 12.949 1.66797 12.833L1.66797 3.16504C1.66797 3.04512 1.68157 2.9291 1.70877 2.81309C1.72823 2.73587 1.75452 2.6558 1.78518 2.58106C1.82039 2.49707 1.86318 2.41699 1.91199 2.34102C1.96877 2.25703 2.03318 2.17715 2.10718 2.10508C2.17957 2.0291 2.25957 1.96504 2.34358 1.90898C2.41997 1.86113 2.49998 1.81699 2.58399 1.78516C2.65798 1.75313 2.73638 1.725 2.81638 1.70508C2.92971 1.67839 3.04691 1.66504 3.16797 1.66504L12.834 1.66504C12.9512 1.66504 13.0644 1.67715 13.174 1.70508C13.2576 1.725 13.338 1.74902 13.418 1.78516C13.502 1.81699 13.58 1.86113 13.6544 1.90898C13.7404 1.96504 13.8204 2.0291 13.8944 2.10508C13.9708 2.18106 14.0352 2.26113 14.0916 2.34902C14.1408 2.42109 14.1816 2.50098 14.2168 2.58106C14.25 2.66113 14.2752 2.73711 14.2948 2.82109ZM5.68157 7.225L7.44917 4.79317C7.61519 4.56914 7.56638 4.26113 7.33997 4.09707C7.11319 3.93301 6.80679 3.98106 6.64077 4.20508L5.49998 5.77305L4.82039 5.20899C4.60557 5.0291 4.29478 5.05703 4.11519 5.27305C3.93757 5.48516 3.96477 5.79707 4.17957 5.97715L5.68157 7.225ZM8.00198 5.50098C8.00198 5.2211 8.22278 5.00098 8.50198 5.00098L11.502 5.00098C11.7812 5.00098 12.002 5.2211 12.002 5.50098C12.002 5.78106 11.7812 6.00098 11.502 6.00098L8.50198 6.00098C8.22278 6.00098 8.00198 5.78106 8.00198 5.50098ZM5.49998 9.00098C6.32798 9.00098 6.99998 9.67305 6.99998 10.501C6.99998 11.3291 6.32798 12.001 5.49998 12.001C4.67197 12.001 3.99998 11.3291 3.99998 10.501C3.99998 9.67305 4.67197 9.00098 5.49998 9.00098ZM5.49998 10.001C5.43157 10.001 5.36719 10.0131 5.30838 10.0371C5.24998 10.0611 5.19517 10.0971 5.14639 10.1451C5.09758 10.1971 5.06038 10.249 5.03718 10.309C5.01157 10.3691 4.99998 10.433 4.99998 10.501C4.99998 10.5691 5.01157 10.633 5.03718 10.6932C5.06038 10.7531 5.09758 10.8051 5.14639 10.8531C5.19517 10.901 5.24998 10.941 5.30838 10.965C5.36719 10.9891 5.43157 11.001 5.49998 11.001C5.56839 11.001 5.63279 10.9891 5.69119 10.965C5.74998 10.941 5.80479 10.901 5.85357 10.8531C5.90237 10.8051 5.93958 10.7531 5.96277 10.6932C5.98838 10.633 5.99998 10.5691 5.99998 10.501C5.99998 10.433 5.98838 10.3691 5.96277 10.309C5.93958 10.249 5.90237 10.1971 5.85357 10.1451C5.80479 10.0971 5.74998 10.0611 5.69119 10.0371C5.63279 10.0131 5.56839 10.001 5.49998 10.001ZM11.502 10.001L8.50198 10.001C8.22278 10.001 8.00198 10.2211 8.00198 10.501C8.00198 10.7811 8.22278 11.001 8.50198 11.001L11.502 11.001C11.7812 11.001 12.002 10.7811 12.002 10.501C12.002 10.2211 11.7812 10.001 11.502 10.001Z" fill="rgb(25,25,25)" fill-rule="evenodd" />
</svg>
