<svg viewBox="0 0 71 71" xmlns="http://www.w3.org/2000/svg" xmlns:xlink="http://www.w3.org/1999/xlink" width="71.000000" height="71.000000" fill="none" customFrame="#000000">
	<defs>
		<clipPath id="clipPath_8">
			<rect width="71.000000" height="71.000000" x="0.000000" y="0.000000" fill="rgb(255,255,255)" />
		</clipPath>
	</defs>
	<rect id="黑白切换2" width="71.000000" height="71.000000" x="0.000000" y="0.000000" />
	<g id="黑白切换2" customFrame="url(#clipPath_8)">
		<rect id="黑白切换2" width="71.000000" height="71.000000" x="0.000000" y="0.000000" fill="rgb(255,255,255)" fill-opacity="0" />
		<g id="编组 98">
			<rect id="矩形" width="71.000000" height="71.000000" x="0.000000" y="0.000000" fill="rgb(216,216,216)" fill-opacity="0" />
			<rect id="矩形" width="68.000000" height="68.000000" x="1.500000" y="1.500000" stroke="rgb(151,151,151)" stroke-opacity="0" stroke-width="3" />
			<path id="形状结合" d="M35.5002 5.89429C36.6439 5.89429 37.571 6.82143 37.571 7.96512L37.571 11.5151C37.571 12.6588 36.6439 13.586 35.5002 13.586C34.3565 13.586 33.4293 12.6588 33.4293 11.5151L33.4293 7.96512C33.4293 6.82143 34.3565 5.89429 35.5002 5.89429ZM17.0971 19.9599C17.9059 20.7686 19.217 20.7686 20.0258 19.9599C20.8345 19.1512 20.8345 17.84 20.0258 17.0313L17.5155 14.5211C16.7068 13.7124 15.3956 13.7124 14.5869 14.5211C13.7782 15.3298 13.7782 16.641 14.5869 17.4497L17.0971 19.9599ZM53.8172 19.9599C53.0085 20.7686 51.6973 20.7686 50.8886 19.9599C50.0799 19.1512 50.0799 17.84 50.8886 17.0313L53.3988 14.5211C54.2076 13.7124 55.5187 13.7124 56.3274 14.5211C57.1362 15.3298 57.1362 16.641 56.3274 17.4497L53.8172 19.9599ZM35.5002 15.6792C24.5534 15.6792 15.6793 24.5533 15.6793 35.5C15.6793 46.4468 24.5534 55.3209 35.5002 55.3209C46.4469 55.3209 55.321 46.4468 55.321 35.5C55.321 24.5533 46.4469 15.6792 35.5002 15.6792ZM35.5002 19.8209C44.1595 19.8209 51.1793 26.8407 51.1793 35.5C51.1793 44.1594 44.1595 51.1792 35.5002 51.1792C26.8408 51.1792 19.821 44.1594 19.821 35.5C19.821 26.8407 26.8408 19.8209 35.5002 19.8209ZM11.519 37.4805C12.6627 37.4805 13.5899 36.5534 13.5899 35.4097C13.5899 34.266 12.6627 33.3388 11.519 33.3388L7.96903 33.3388C6.82534 33.3388 5.89819 34.266 5.89819 35.4097C5.89819 36.5534 6.82534 37.4805 7.96903 37.4805L11.519 37.4805ZM62.9446 37.567C64.0883 37.567 65.0155 36.6399 65.0155 35.4962C65.0155 34.3525 64.0883 33.4253 62.9446 33.4253L59.3946 33.4253C58.2509 33.4253 57.3238 34.3525 57.3238 35.4962C57.3238 36.6399 58.2509 37.567 59.3946 37.567L62.9446 37.567ZM17.5152 56.3844C16.7065 57.1931 15.3953 57.1931 14.5866 56.3844C13.7779 55.5757 13.7779 54.2645 14.5866 53.4558L17.0968 50.9456C17.9055 50.1368 19.2167 50.1368 20.0254 50.9456C20.8341 51.7543 20.8341 53.0654 20.0254 53.8742L17.5152 56.3844ZM53.3992 56.3844C54.2079 57.1931 55.5191 57.1931 56.3278 56.3844C57.1365 55.5757 57.1365 54.2645 56.3278 53.4558L53.8176 50.9456C53.0089 50.1368 51.6977 50.1368 50.889 50.9456C50.0803 51.7543 50.0803 53.0654 50.889 53.8742L53.3992 56.3844ZM35.4135 57.3198C36.5572 57.3198 37.4843 58.2469 37.4843 59.3906L37.4843 62.9406C37.4843 64.0843 36.5572 65.0115 35.4135 65.0115C34.2698 65.0115 33.3427 64.0843 33.3427 62.9406L33.3427 59.3906C33.3427 58.2469 34.2698 57.3198 35.4135 57.3198Z" fill="rgb(0,0,0)" fill-opacity="0.800000012" fill-rule="evenodd" />
		</g>
	</g>
</svg>
