<svg viewBox="0 0 80 80" xmlns="http://www.w3.org/2000/svg" xmlns:xlink="http://www.w3.org/1999/xlink" width="80.000000" height="80.000000" fill="none">
	<rect id="用户指南" width="80.000000" height="80.000000" x="0.000000" y="0.000000" />
	<path id="形状结合" d="M56.389 7.5C61.8305 7.5 66.25 11.8833 66.25 17.2986L66.25 53.7008C66.25 59.1183 61.8315 63.4994 56.389 63.4994L24.8837 63.4994C23.503 63.4994 22.3837 62.3801 22.3837 60.9994C22.3837 59.6186 23.503 58.4994 24.8837 58.4994L56.389 58.4994C59.0796 58.4994 61.25 56.3473 61.25 53.7008L61.25 17.2986C61.25 14.654 59.0783 12.5 56.389 12.5L56.22 30.0015C56.2168 32.1356 53.7133 33.2848 52.093 31.8958L46.245 26.8777L40.3728 31.8962C38.8582 33.1887 36.5794 32.2703 36.2823 30.4077L36.25 29.9945L36.25 12.4977L23.611 12.5C20.9217 12.5 18.75 14.654 18.75 17.2986L18.75 62.6991C18.75 65.3476 20.9191 67.4977 23.611 67.4977L63.75 67.4977C65.1307 67.4977 66.25 68.617 66.25 69.9977C66.25 71.3784 65.1307 72.4977 63.75 72.4977L23.611 72.4977C18.1675 72.4977 13.75 68.119 13.75 62.6991L13.75 17.2986C13.75 11.8833 18.1695 7.5 23.611 7.5L56.389 7.5ZM51.2467 12.4977L41.25 12.4977L41.25 24.5727L44.6272 21.6928C45.4466 20.9936 46.6046 20.9074 47.5075 21.4335L47.877 21.6964L51.23 24.5677L51.2467 12.4977Z" fill="rgb(0,0,0)" fill-rule="nonzero" />
</svg>
