<svg viewBox="0 0 80 80" xmlns="http://www.w3.org/2000/svg" xmlns:xlink="http://www.w3.org/1999/xlink" width="80.000000" height="80.000000" fill="none">
	<rect id="用户论坛" width="80.000000" height="80.000000" x="0.000000" y="0.000000" />
	<path id="heart_house_fill" d="M13.0308 38.8635Q13.5544 39.3872 14.459 39.4189Q15.3635 39.4507 15.8872 38.9429L37.7231 18.2019Q39.3577 16.6467 41.5317 16.6467Q43.7058 16.6467 45.3403 18.2019L67.1763 38.8635Q67.7634 39.4507 68.6045 39.4507Q69.4456 39.4507 70.0327 38.8Q70.5564 38.2129 70.5564 37.3718Q70.5564 36.5308 69.9692 35.9436L48.1333 15.282Q46.3083 13.5205 43.8962 12.9016Q41.5 12.2827 39.0879 12.9016Q36.6917 13.5205 34.8667 15.282L13.0942 35.9436Q12.4436 36.5308 12.4436 37.3718Q12.4436 38.2129 13.0308 38.8635ZM64.177 40.498Q56.782 33.4045 49.3076 26.3904L44.3564 21.7725Q43.1187 20.5981 41.4683 20.5981Q39.8179 20.5981 38.5801 21.7725L18.8865 40.498Q18.3628 41.0217 18.093 41.6724Q17.8391 42.3071 17.8391 42.9578L17.8391 61.9373Q17.8391 63.6353 18.6484 65.0317Q19.4578 66.4282 20.8542 67.2375Q22.2666 68.0627 23.9487 68.0627L59.1147 68.0627Q60.7334 68.0627 62.1299 67.2375Q63.5422 66.4282 64.3516 65.0317Q65.1609 63.6353 65.1609 61.9373L65.1609 42.8943Q65.1609 42.1802 64.8911 41.5613Q64.6372 40.9424 64.177 40.498ZM45.7212 40.3076Q47.5461 40.3076 49.0378 41.1487Q50.593 42.0532 51.45 43.6084Q52.3545 45.2429 52.3545 46.925Q52.3545 48.4961 51.1167 50.6384Q50.0217 52.7808 48.1968 54.6692Q46.4988 56.5576 44.4834 57.9224Q42.7378 59.2078 41.5 59.2078Q40.4526 59.2078 38.5166 57.843Q36.5647 56.4783 34.6763 54.3994Q32.9148 52.5269 31.7563 50.5115Q30.6455 48.4961 30.6455 46.925Q30.6455 45.116 31.4866 43.6084Q32.5339 41.9897 33.8987 41.1487Q35.3904 40.3076 37.2788 40.3076Q37.8025 40.3076 38.707 40.4346L39.5481 40.6885Q40.3892 41.0217 41.5 41.7993Q42.468 41.0852 43.4519 40.6885Q43.7693 40.5615 44.1025 40.498Q44.8801 40.3076 45.7212 40.3076Z" fill="rgb(0,0,0)" fill-rule="nonzero" />
</svg>
