<svg viewBox="0 0 80 80" xmlns="http://www.w3.org/2000/svg" xmlns:xlink="http://www.w3.org/1999/xlink" width="80.000000" height="80.000000" fill="none" customFrame="#000000">
	<rect id="版本历程" width="80.000000" height="80.000000" x="0.000000" y="0.000000" fill="rgb(255,255,255)" fill-opacity="0" />
	<path id="合并" d="M10.0023 21.5385C10.0023 15.1693 15.1715 10.0001 21.5407 10.0001L58.4633 10.0001C64.8325 10.0001 70.0016 15.1693 70.0016 21.5385L70.0016 58.4611C70.0016 64.8303 64.8325 69.9995 58.4633 69.9995L21.5407 69.9995C15.1715 69.9995 10.0023 64.8303 10.0023 58.4611L10.0023 21.5385ZM47.7427 14.6155L47.7427 65.3841L21.5407 65.3841C17.7099 65.3841 14.6177 62.2918 14.6177 58.4611L14.6177 21.5385C14.6177 17.7077 17.7099 14.6155 21.5407 14.6155L47.7427 14.6155ZM50.7427 65.3841L50.7427 14.6155L58.4633 14.6155C62.294 14.6155 65.3863 17.7077 65.3863 21.5385L65.3863 58.4611C65.3863 62.2918 62.294 65.3841 58.4633 65.3841L50.7427 65.3841Z" fill="rgb(51,51,51)" fill-rule="evenodd" />
</svg>
