<svg viewBox="0 0 59 59" xmlns="http://www.w3.org/2000/svg" xmlns:xlink="http://www.w3.org/1999/xlink" width="59.000000" height="59.000000" fill="none" customFrame="#000000">
	<rect id="操作图标/竖版更多" width="59.000000" height="59.000000" x="0.000000" y="0.000000" />
	<path id="形状结合" d="M29.5 7.34692C27.462 7.34692 25.8125 8.99892 25.8125 11.0344C25.8125 13.0724 27.462 14.7219 29.5 14.7219C31.538 14.7219 33.1875 13.0724 33.1875 11.0344C33.1875 8.99892 31.538 7.34692 29.5 7.34692ZM29.5 25.8396C27.462 25.8396 25.8125 27.4891 25.8125 29.5271C25.8125 31.5626 27.462 33.2146 29.5 33.2146C31.538 33.2146 33.1875 31.5626 33.1875 29.5271C33.1875 27.4891 31.538 25.8396 29.5 25.8396ZM25.8125 47.9657C25.8125 45.9277 27.462 44.2782 29.5 44.2782C31.538 44.2782 33.1875 45.9277 33.1875 47.9657C33.1875 50.0037 31.538 51.6532 29.5 51.6532C27.462 51.6532 25.8125 50.0037 25.8125 47.9657Z" fill="rgb(0,0,0)" fill-rule="evenodd" />
</svg>
