<svg viewBox="0 0 80 80" xmlns="http://www.w3.org/2000/svg" xmlns:xlink="http://www.w3.org/1999/xlink" width="80.000000" height="80.000000" fill="none" customFrame="#000000">
	<defs>
		<g id="pixso_custom_effect_1">
			<effect visibility="visible" effectType="backgroundBlur" saturation="0" stdDeviation="3.90752769" />
		</g>
		<filter id="filter_1" width="53.333344" height="35.000000" x="13.333344" y="16.666992" filterUnits="userSpaceOnUse" customEffect="url(#pixso_custom_effect_1)" color-interpolation-filters="sRGB">
			<feFlood flood-opacity="0" result="BackgroundImageFix" />
			<feBlend result="shape" in="SourceGraphic" in2="BackgroundImageFix" mode="normal" />
		</filter>
		<clipPath id="outline_mask_1" transform="matrix(1,0,0,1,-13.3333,-16.667)">
			<g>
				<path d="M46.6667 16.667C48.5076 16.667 50 18.1594 50 20.0003L50 31.667L63.3333 31.667C65.1743 31.667 66.6667 33.1594 66.6667 35.0003L66.6667 48.3337C66.6667 50.1746 65.1743 51.667 63.3333 51.667L40 51.667C38.1591 51.667 36.6667 50.1746 36.6667 48.3337L36.6667 41.667L16.6667 41.667C14.8257 41.667 13.3333 40.1746 13.3333 38.3337L13.3333 20.0003C13.3333 18.1594 14.8257 16.667 16.6667 16.667L46.6667 16.667ZM23 25L33.6667 25C34.403 25 35 25.597 35 26.3333C35 27.0697 34.403 27.6666 33.6667 27.6666L23 27.6666C22.2637 27.6666 21.6667 27.0697 21.6667 26.3333C21.6667 25.597 22.2637 25 23 25ZM27 30.3337L23 30.3337C22.2637 30.3337 21.6667 30.9306 21.6667 31.667C21.6667 32.4033 22.2637 33.0003 23 33.0003L27 33.0003C27.7364 33.0003 28.3333 32.4033 28.3333 31.667C28.3333 30.9306 27.7364 30.3337 27 30.3337Z" fill="rgb(255,255,255)" fill-rule="evenodd" />
				<path d="" fill="rgb(255,255,255)" fill-rule="nonzero" />
			</g>
		</clipPath>
		<linearGradient id="paint_linear_2" x1="40.0000076" x2="40.0000076" y1="16.6669922" y2="51.6669922" gradientUnits="userSpaceOnUse">
			<stop stop-color="rgb(255,255,255)" offset="0" stop-opacity="0.800000012" />
			<stop stop-color="rgb(180,197,255)" offset="1" stop-opacity="0.101960786" />
		</linearGradient>
		<linearGradient id="paint_linear_3" x1="40.0000076" x2="40.0000076" y1="16.6669922" y2="51.6669922" gradientUnits="userSpaceOnUse">
			<stop stop-color="rgb(255,255,255)" offset="0" stop-opacity="0.800000012" />
			<stop stop-color="rgb(180,197,255)" offset="1" stop-opacity="0.501960814" />
		</linearGradient>
	</defs>
	<rect id="一级导航常驻菜单图标工作台 1" width="80.000000" height="80.000000" x="0.000000" y="0.000000" />
	<rect id="一级导航常驻菜单图标/工作台" width="80.000000" height="80.000000" x="0.000000" y="0.000000" fill="rgb(255,255,255)" fill-opacity="0" />
	<g id="02 General 通用/03 icon/02 导航类/01 一级导航服务图标/08 工作台/01 常规备份 10">
		<rect id="矩形" width="80.000000" height="80.000000" x="0.000000" y="0.000000" opacity="0" fill="rgb(216,216,216)" />
		<rect id="矩形" width="76.521736" height="76.521736" x="1.739136" y="1.739258" opacity="0" stroke="rgb(151,151,151)" stroke-opacity="0" stroke-width="3" />
		<rect id="矩形" width="53.333332" height="53.333332" x="13.333344" y="13.333008" opacity="0" fill="rgb(161,161,161)" />
		<rect id="矩形" width="49.855072" height="49.855072" x="15.072449" y="15.072266" opacity="0" stroke="rgb(151,151,151)" stroke-opacity="0" stroke-width="3" />
		<path id="形状结合" d="M21.6667 21.6624L37.6667 21.6624L37.6667 15.6624C37.6667 14.3737 38.7113 13.3291 40 13.3291C41.2887 13.3291 42.3333 14.3737 42.3333 15.6624L42.3333 21.6624L58.3333 21.6624C60.1743 21.6624 61.6667 23.1548 61.6667 24.9958L61.6667 49.9958C61.6667 51.8367 60.1743 53.3291 58.3333 53.3291L56.015 53.3291L60.8411 61.6882C61.4853 62.8042 61.103 64.2312 59.987 64.8757C58.871 65.5199 57.4439 65.1376 56.7995 64.0215L50.6263 53.3291L29.3607 53.3291L23.1874 64.0215C22.5431 65.1376 21.1161 65.5199 20 64.8755C18.884 64.2312 18.5016 62.8042 19.146 61.6882L23.9721 53.3291L21.6667 53.3291C19.8258 53.3291 18.3333 51.8367 18.3333 49.9958L18.3333 24.9958C18.3333 23.1548 19.8258 21.6624 21.6667 21.6624ZM23 24.9958L33.6667 24.9958C34.403 24.9958 35 25.5928 35 26.3291C35 27.0656 34.403 27.6624 33.6667 27.6624L23 27.6624C22.2637 27.6624 21.6667 27.0656 21.6667 26.3291C21.6667 25.5928 22.2637 24.9958 23 24.9958ZM27 30.3294L23 30.3294C22.2637 30.3294 21.6667 30.9264 21.6667 31.6628C21.6667 32.3991 22.2637 32.9961 23 32.9961L27 32.9961C27.7364 32.9961 28.3333 32.3991 28.3333 31.6628C28.3333 30.9264 27.7364 30.3294 27 30.3294Z" fill="rgb(94,124,224)" fill-rule="evenodd" />
		<g id="组合 18" filter="url(#filter_1)">
			<path id="形状结合" d="M46.6667 16.667C48.5076 16.667 50 18.1594 50 20.0003L50 31.667L63.3333 31.667C65.1743 31.667 66.6667 33.1594 66.6667 35.0003L66.6667 48.3337C66.6667 50.1746 65.1743 51.667 63.3333 51.667L40 51.667C38.1591 51.667 36.6667 50.1746 36.6667 48.3337L36.6667 41.667L16.6667 41.667C14.8257 41.667 13.3333 40.1746 13.3333 38.3337L13.3333 20.0003C13.3333 18.1594 14.8257 16.667 16.6667 16.667L46.6667 16.667ZM23 25L33.6667 25C34.403 25 35 25.597 35 26.3333C35 27.0697 34.403 27.6666 33.6667 27.6666L23 27.6666C22.2637 27.6666 21.6667 27.0697 21.6667 26.3333C21.6667 25.597 22.2637 25 23 25ZM27 30.3337L23 30.3337C22.2637 30.3337 21.6667 30.9306 21.6667 31.667C21.6667 32.4033 22.2637 33.0003 23 33.0003L27 33.0003C27.7364 33.0003 28.3333 32.4033 28.3333 31.667C28.3333 30.9306 27.7364 30.3337 27 30.3337Z" fill="rgb(94,124,224)" fill-opacity="0.200000003" fill-rule="evenodd" />
			<path id="形状结合" d="M46.6667 16.667C48.5076 16.667 50 18.1594 50 20.0003L50 31.667L63.3333 31.667C65.1743 31.667 66.6667 33.1594 66.6667 35.0003L66.6667 48.3337C66.6667 50.1746 65.1743 51.667 63.3333 51.667L40 51.667C38.1591 51.667 36.6667 50.1746 36.6667 48.3337L36.6667 41.667L16.6667 41.667C14.8257 41.667 13.3333 40.1746 13.3333 38.3337L13.3333 20.0003C13.3333 18.1594 14.8257 16.667 16.6667 16.667L46.6667 16.667ZM46.5217 20.1453L16.8116 20.1453L16.8116 38.1887L36.6667 38.1887C37.1469 38.1887 37.592 38.2736 38.002 38.4435C38.4119 38.6132 38.7866 38.8679 39.1262 39.2075C39.4658 39.5471 39.7205 39.9218 39.8902 40.3317C40.06 40.7417 40.1449 41.1868 40.1449 41.667L40.1449 48.1887L63.1884 48.1887L63.1884 35.1453L50 35.1453C49.5198 35.1453 49.0747 35.0603 48.6647 34.8905C48.2548 34.7208 47.8801 34.4661 47.5405 34.1265C47.2009 33.7869 46.9462 33.4122 46.7765 33.0022C46.6067 32.5923 46.5217 32.1472 46.5217 31.667L46.5217 20.1453ZM23 21.5217L33.6667 21.5217C34.0015 21.5217 34.3294 21.5552 34.6502 21.6221L34.6514 21.6224L34.6515 21.6224L34.6516 21.6224C34.9541 21.6856 35.2505 21.7786 35.5406 21.9013C35.8237 22.021 36.0907 22.1648 36.3417 22.3326L36.3417 22.3327C36.6013 22.5064 36.8438 22.7058 37.069 22.931C37.2942 23.1562 37.4937 23.3987 37.6674 23.6584C37.8352 23.9093 37.979 24.1763 38.0987 24.4593C38.2214 24.7496 38.3144 25.046 38.3776 25.3486C38.4447 25.6699 38.4783 25.9981 38.4783 26.3333C38.4783 26.6685 38.4447 26.9967 38.3776 27.3179L38.3776 27.318C38.3145 27.6206 38.2215 27.917 38.0987 28.2073C37.979 28.4904 37.8352 28.7574 37.6674 29.0083C37.4937 29.268 37.2942 29.5104 37.069 29.7356C36.8438 29.9608 36.6014 30.1602 36.3418 30.3339L36.3417 30.334C36.0907 30.5018 35.8237 30.6456 35.5406 30.7654C35.2504 30.8882 34.954 30.9811 34.6514 31.0443L34.6513 31.0444L34.6511 31.0444C34.33 31.1114 34.0018 31.1449 33.6667 31.1449L31.7839 31.1449C31.8024 31.317 31.8116 31.4911 31.8116 31.667C31.8116 32.0022 31.7781 32.3304 31.711 32.6516C31.6478 32.9543 31.5548 33.2507 31.432 33.541C31.3123 33.8241 31.1685 34.0911 31.0007 34.342C30.8269 34.6016 30.6275 34.8441 30.4023 35.0693C30.1771 35.2945 29.9347 35.4939 29.675 35.6677C29.4241 35.8355 29.1571 35.9793 28.874 36.099C28.5837 36.2218 28.2873 36.3148 27.9846 36.3779L27.9845 36.3779C27.6633 36.445 27.3352 36.4786 27 36.4786L23 36.4786C22.6648 36.4786 22.3366 36.445 22.0154 36.3779C21.7127 36.3148 21.4163 36.2218 21.126 36.099C20.843 35.9793 20.576 35.8355 20.3251 35.6677L20.325 35.6677C20.0654 35.494 19.8229 35.2945 19.5977 35.0693C19.3725 34.8441 19.173 34.6016 18.9993 34.342C18.8315 34.0911 18.6877 33.8241 18.568 33.541C18.4452 33.2507 18.3522 32.9543 18.2891 32.6517L18.2891 32.6516L18.2889 32.651C18.2219 32.33 18.1884 32.002 18.1884 31.667C18.1884 31.3318 18.222 31.0037 18.2891 30.6824C18.3522 30.3797 18.4452 30.0833 18.568 29.793C18.6864 29.513 18.8284 29.2487 18.9939 29.0002C18.8284 28.7516 18.6864 28.4873 18.568 28.2073C18.4452 27.917 18.3522 27.6206 18.2891 27.3179C18.222 26.9967 18.1884 26.6685 18.1884 26.3333C18.1884 25.9981 18.222 25.6699 18.2891 25.3487C18.3522 25.046 18.4452 24.7496 18.568 24.4593C18.6877 24.1763 18.8314 23.9093 18.9993 23.6584L18.9993 23.6583C19.1731 23.3987 19.3725 23.1562 19.5977 22.931C19.8229 22.7058 20.0652 22.5064 20.3249 22.3327L20.325 22.3327C20.5759 22.1648 20.8429 22.021 21.126 21.9013C21.4162 21.7786 21.7126 21.6856 22.0153 21.6224C22.3365 21.5553 22.6648 21.5217 23 21.5217ZM33.6667 25L23 25C22.2637 25 21.6667 25.597 21.6667 26.3333C21.6667 27.0697 22.2637 27.6666 23 27.6666L33.6667 27.6666C34.403 27.6666 35 27.0697 35 26.3333C35 25.597 34.403 25 33.6667 25ZM27 30.3337L23 30.3337C22.2637 30.3337 21.6667 30.9306 21.6667 31.667C21.6667 32.4033 22.2637 33.0003 23 33.0003L27 33.0003C27.7364 33.0003 28.3333 32.4033 28.3333 31.667C28.3333 30.9306 27.7364 30.3337 27 30.3337Z" fill="url(#paint_linear_2)" fill-opacity="0" fill-rule="evenodd" />
		</g>
		<g data-pixso-skip-parse="true">
			<foreignObject width="53.333344" height="35.000000" x="13.333344" y="16.666992">
				<div xmlns="http://www.w3.org/1999/xhtml" style="clip-path:url(#outline_mask_1);height:100%;backdrop-filter:blur(1.953764px);width:100%;-webkit-backdrop-filter:blur(1.953764px);" />
			</foreignObject>
		</g>
		<path id="形状结合" d="M50 20.0003C50 18.1594 48.5076 16.667 46.6667 16.667L16.6667 16.667C14.8257 16.667 13.3333 18.1594 13.3333 20.0003L13.3333 38.3337C13.3333 40.1746 14.8257 41.667 16.6667 41.667L36.6667 41.667L36.6667 48.3337C36.6667 50.1746 38.1591 51.667 40 51.667L63.3333 51.667C65.1743 51.667 66.6667 50.1746 66.6667 48.3337L66.6667 35.0003C66.6667 33.1594 65.1743 31.667 63.3333 31.667L50 31.667L50 20.0003Z" fill="rgb(94,124,224)" fill-opacity="0" fill-rule="evenodd" />
		<path id="形状结合" d="M46.6667 16.667C48.5076 16.667 50 18.1594 50 20.0003L50 31.667L63.3333 31.667C65.1743 31.667 66.6667 33.1594 66.6667 35.0003L66.6667 48.3337C66.6667 50.1746 65.1743 51.667 63.3333 51.667L40 51.667C38.1591 51.667 36.6667 50.1746 36.6667 48.3337L36.6667 41.667L16.6667 41.667C14.8257 41.667 13.3333 40.1746 13.3333 38.3337L13.3333 20.0003C13.3333 18.1594 14.8257 16.667 16.6667 16.667L46.6667 16.667ZM46.5217 31.667L46.5217 20.1453L16.8116 20.1453L16.8116 38.1887L36.6667 38.1887C37.1469 38.1887 37.592 38.2736 38.002 38.4435C38.4119 38.6132 38.7866 38.8679 39.1262 39.2075C39.4658 39.5471 39.7205 39.9218 39.8902 40.3317C40.06 40.7417 40.1449 41.1868 40.1449 41.667L40.1449 48.1887L63.1884 48.1887L63.1884 35.1453L50 35.1453C49.5198 35.1453 49.0747 35.0603 48.6647 34.8905C48.2548 34.7208 47.8801 34.4661 47.5405 34.1265C47.2009 33.7869 46.9462 33.4122 46.7765 33.0022C46.6067 32.5923 46.5217 32.1472 46.5217 31.667Z" fill="url(#paint_linear_3)" fill-rule="evenodd" />
	</g>
</svg>
