<svg viewBox="0 0 80 80" xmlns="http://www.w3.org/2000/svg" xmlns:xlink="http://www.w3.org/1999/xlink" width="80.000000" height="80.000000" fill="none" customFrame="#000000">
	<rect id="项目首字母图标/Z-48px*48px" width="80.000000" height="80.000000" x="0.000000" y="0.000000" />
	<rect id="矩形" width="80.000000" height="80.000000" x="0.000000" y="0.000000" opacity="0" fill="rgb(216,216,216)" />
	<rect id="矩形" width="77.000000" height="77.000000" x="1.500000" y="1.500000" opacity="0" stroke="rgb(151,151,151)" stroke-opacity="0" stroke-width="3" />
	<g id="z">
		<path id="路径" d="M58.3878 12.2222C63.7572 12.2222 68.11 16.575 68.11 21.9444C68.11 24.7905 66.8634 27.4867 64.7111 29.3293L64.4121 29.5752L33.7068 53.8143C33.0772 52.0684 32.0699 50.503 30.7835 49.2167C28.6198 47.053 25.6666 45.6788 22.393 45.5634L21.9447 45.5555C21.8804 45.5555 21.8162 45.556 21.7521 45.557L46.385 26.1111L28.8891 26.1111L28.8891 12.2222L58.3878 12.2222Z" fill="rgb(108,163,244)" fill-rule="evenodd" />
		<rect id="Rectangle" width="13.888888" height="13.888888" x="15.000000" y="12.222168" fill="rgb(238,186,91)" />
		<path id="路径" d="M33.7335 53.8891L48.3336 53.8889L48.3336 67.7778L29.8007 67.779C30.1438 67.5015 30.4719 67.2061 30.7836 66.8944C33.0456 64.6324 34.4447 61.5074 34.4447 58.0556C34.4447 56.5947 34.1941 55.1923 33.7335 53.8891Z" fill="rgb(85,203,170)" fill-rule="evenodd" />
		<path id="椭圆形备份 21" d="M21.9448 67.7777C27.3142 67.7777 31.667 63.4249 31.667 58.0555C31.667 52.686 27.3142 48.3333 21.9448 48.3333C16.5753 48.3333 12.2225 52.686 12.2225 58.0555C12.2225 63.4249 16.5753 67.7777 21.9448 67.7777Z" fill="rgb(218,95,95)" fill-rule="evenodd" />
		<circle id="椭圆形备份 22" cx="21.9441319" cy="58.055584" r="4.16666651" fill="rgb(255,255,255)" fill-opacity="0" />
		<circle id="椭圆形备份 22" cx="21.9441319" cy="58.055584" r="4.16666651" stroke="rgb(255,255,255)" stroke-width="3" />
		<rect id="Rectangle Copy 16" width="6.944444" height="18.055555" x="0.000000" y="0.000000" fill="rgb(105,99,240)" transform="matrix(0,1,-1,0,66.3892,60.8333)" />
		<rect id="Rectangle Copy 16备份" width="6.944444" height="18.055555" x="0.000000" y="0.000000" fill="rgb(231,131,89)" transform="matrix(0,1,-1,0,66.3892,53.8889)" />
		<rect id="矩形" width="2.777778" height="13.888888" x="48.333374" y="53.888916" fill="rgb(84,59,186)" />
		<path id="形状结合" d="M28.8881 20.5556L58.3881 20.5556L58.55 20.565C59.2408 20.6452 59.777 21.2322 59.777 21.9445C59.777 22.3696 59.5823 22.7712 59.2487 23.0346L31.2811 45.1139L33.2589 47.0917L60.9699 25.2148L61.178 25.0393C62.0512 24.2522 62.5547 23.1286 62.5547 21.9445C62.5547 19.6433 60.6893 17.7778 58.3881 17.7778L28.8881 17.7778L28.8881 20.5556Z" fill="rgb(255,255,255)" fill-rule="evenodd" />
		<path id="形状结合" d="M58.3881 20.5556L28.8881 20.5556L28.8881 17.7778L58.3881 17.7778C60.6893 17.7778 62.5547 19.6433 62.5547 21.9445C62.5547 23.1286 62.0512 24.2522 61.178 25.0393L60.9699 25.2148L33.2589 47.0917L31.2811 45.1139L59.2487 23.0346C59.5823 22.7712 59.777 22.3696 59.777 21.9445C59.777 21.2322 59.2408 20.6452 58.55 20.565L58.3881 20.5556Z" fill="rgb(151,151,151)" fill-opacity="0" fill-rule="evenodd" />
	</g>
</svg>
