<svg viewBox="0 0 80 80" xmlns="http://www.w3.org/2000/svg" xmlns:xlink="http://www.w3.org/1999/xlink" width="80.000000" height="80.000000" fill="none">
	<rect id="操作图标/中切英" width="80.000000" height="80.000000" x="0.000000" y="0.000000" />
	<path id="形状结合" d="M40.0036 28.0048C46.6195 28.0048 51.9955 33.3807 51.9955 39.9966L51.9955 68.0042C51.9955 74.6161 46.6195 80 40.0036 80L11.9959 80C5.38395 80 0 74.6161 0 68.0042L0 39.9966C0 33.3807 5.38395 28.0048 11.9959 28.0048L40.0036 28.0048ZM29.2077 38.5406L23.2078 38.7886C23.3718 39.2046 23.5398 39.9126 23.7078 40.9126C23.9558 41.8326 24.1238 42.5406 24.2078 43.0406L11.5839 43.0406L11.5839 47.7885L16.0838 47.7885C17.5838 52.3724 19.6638 56.2044 22.3318 59.2883C19.4958 61.0403 15.8318 62.5803 11.3319 63.9122C11.9959 64.7482 12.9599 66.1642 14.2079 68.1642C19.1198 66.4162 23.3718 64.9122 26.4557 62.9123C29.7077 64.9962 33.7917 66.7882 38.7076 68.2882C39.5396 66.7042 40.5836 65.0762 41.8316 63.4122C37.3316 62.5003 33.5837 61.1243 30.5837 59.2883C33.4157 56.5364 35.5396 52.7044 36.9596 47.7885L41.4556 47.7885L41.4556 43.0406L29.8317 43.0406C29.6637 41.5406 29.4557 40.0406 29.2077 38.5406ZM31.3345 47.7885C30.4145 51.0364 28.7905 53.7884 26.4585 56.0404C24.3706 53.7884 22.7466 51.0364 21.5826 47.7885L31.3345 47.7885ZM68.0001 0C74.6161 0 80 5.38392 80 11.9998L80 40.0114C80 46.6273 74.6161 52.0112 68.0001 52.0112L55.9962 52.0112L55.9962 46.0113L68.0001 46.0113C71.3081 46.0113 74.0001 43.3194 74.0001 40.0114L74.0001 11.9998C74.0001 8.69187 71.3081 5.99991 68.0001 5.99991L39.9884 5.99991C36.6804 5.99991 33.9885 8.69187 33.9885 11.9998L33.9885 24.0036L27.9885 24.0036L27.9885 11.9998C27.9885 5.38392 33.3725 0 39.9884 0L68.0001 0ZM53.9927 10.2666C55.7326 10.2666 57.2286 11.2986 57.8126 12.9066L66.8205 37.7062C67.3885 39.2622 66.5805 40.9822 65.0246 41.5502C64.6886 41.6702 64.3406 41.7302 64.0006 41.7302C62.7726 41.7302 61.6246 40.9702 61.1806 39.7542L59.6726 35.6023L55.3046 35.6023C54.6567 33.3543 53.5487 31.3263 52.0567 29.6024L57.4886 29.6024L53.9927 19.9705L50.9367 28.3864C49.4447 26.9784 47.6887 25.8664 45.7407 25.1144L50.1767 12.9106C50.7607 11.2986 52.2567 10.2666 53.9927 10.2666Z" fill="rgb(25,25,25)" fill-rule="nonzero" />
	<path id="形状结合" d="M51.9955 39.9966L51.9955 68.0042C51.9955 74.6161 46.6195 80 40.0036 80L11.9959 80C5.38395 80 0 74.6161 0 68.0042L0 39.9966C0 33.3807 5.38395 28.0048 11.9959 28.0048L40.0036 28.0048C46.6195 28.0048 51.9955 33.3807 51.9955 39.9966ZM23.2078 38.7886C23.3718 39.2046 23.5398 39.9126 23.7078 40.9126C23.9558 41.8326 24.1238 42.5406 24.2078 43.0406L11.5839 43.0406L11.5839 47.7885L16.0838 47.7885C17.5838 52.3724 19.6638 56.2044 22.3318 59.2883C19.4958 61.0403 15.8318 62.5803 11.3319 63.9122C11.9959 64.7482 12.9599 66.1642 14.2079 68.1642C19.1198 66.4162 23.3718 64.9122 26.4557 62.9123C29.7077 64.9962 33.7917 66.7882 38.7076 68.2882C39.5396 66.7042 40.5836 65.0762 41.8316 63.4122C37.3316 62.5003 33.5837 61.1243 30.5837 59.2883C33.4157 56.5364 35.5396 52.7044 36.9596 47.7885L41.4556 47.7885L41.4556 43.0406L29.8317 43.0406C29.6637 41.5406 29.4557 40.0406 29.2077 38.5406L23.2078 38.7886ZM26.4585 56.0404C24.3706 53.7884 22.7466 51.0364 21.5826 47.7885L31.3345 47.7885C30.4145 51.0364 28.7905 53.7884 26.4585 56.0404ZM80 11.9998L80 40.0114C80 46.6273 74.6161 52.0112 68.0001 52.0112L55.9962 52.0112L55.9962 46.0113L68.0001 46.0113C71.3081 46.0113 74.0001 43.3194 74.0001 40.0114L74.0001 11.9998C74.0001 8.69187 71.3081 5.99991 68.0001 5.99991L39.9884 5.99991C36.6804 5.99991 33.9885 8.69187 33.9885 11.9998L33.9885 24.0036L27.9885 24.0036L27.9885 11.9998C27.9885 5.38392 33.3725 0 39.9884 0L68.0001 0C74.6161 0 80 5.38392 80 11.9998ZM57.8126 12.9066L66.8205 37.7062C67.3885 39.2622 66.5805 40.9822 65.0246 41.5502C64.6886 41.6702 64.3406 41.7302 64.0006 41.7302C62.7726 41.7302 61.6246 40.9702 61.1806 39.7542L59.6726 35.6023L55.3046 35.6023C54.6567 33.3543 53.5487 31.3263 52.0567 29.6024L57.4886 29.6024L53.9927 19.9705L50.9367 28.3864C49.4447 26.9784 47.6887 25.8664 45.7407 25.1144L50.1767 12.9106C50.7607 11.2986 52.2567 10.2666 53.9927 10.2666C55.7326 10.2666 57.2286 11.2986 57.8126 12.9066Z" fill-rule="nonzero" stroke="rgb(0,0,0)" stroke-opacity="0" stroke-width="3" />
</svg>
