<svg viewBox="0 0 80 80" xmlns="http://www.w3.org/2000/svg" xmlns:xlink="http://www.w3.org/1999/xlink" width="80.000000" height="80.000000" fill="none">
	<rect id="操作图标/复制" width="80.000000" height="80.000000" x="0.000000" y="0.000000" />
	<path id="形状结合" d="M62.5 10C66.3985 10 69.6022 12.9744 69.9657 16.7777L70 17.5L70 52.5C70 56.3985 67.0256 59.6022 63.2223 59.9657L62.5 60L60 60L60 62.5C60 66.3985 57.0256 69.6022 53.2223 69.9657L52.5 70L17.5 70C13.3579 70 10 66.6421 10 62.5L10 27.5C10 23.3579 13.3579 20 17.5 20L20 20L20 17.5C20 13.6015 22.9744 10.3978 26.7777 10.0343L27.5 10L62.5 10ZM52.5 25L17.5 25C16.1193 25 15 26.1193 15 27.5L15 62.5C15 63.8807 16.1193 65 17.5 65L52.5 65C53.8807 65 55 63.8807 55 62.5L55 27.5C55 26.1193 53.8807 25 52.5 25ZM62.5 15L27.5 15C26.2727 15 25.252 15.8844 25.0403 17.0506L25 20L52.5 20C56.3985 20 59.6022 22.9744 59.9657 26.7777L60 27.5L60 55L62.5 55C63.7273 55 64.748 54.1156 64.9597 52.9494L65 17.5C65 16.2727 63.6662 15.2117 62.5 15Z" fill="rgb(0,0,0)" fill-rule="nonzero" />
	<path id="形状结合" d="M69.9657 16.7777L70 17.5L70 52.5C70 56.3985 67.0256 59.6022 63.2223 59.9657L62.5 60L60 60L60 62.5C60 66.3985 57.0256 69.6022 53.2223 69.9657L52.5 70L17.5 70C13.3579 70 10 66.6421 10 62.5L10 27.5C10 23.3579 13.3579 20 17.5 20L20 20L20 17.5C20 13.6015 22.9744 10.3978 26.7777 10.0343L27.5 10L62.5 10C66.3985 10 69.6022 12.9744 69.9657 16.7777ZM17.5 25C16.1193 25 15 26.1193 15 27.5L15 62.5C15 63.8807 16.1193 65 17.5 65L52.5 65C53.8807 65 55 63.8807 55 62.5L55 27.5C55 26.1193 53.8807 25 52.5 25L17.5 25ZM27.5 15C26.2727 15 25.252 15.8844 25.0403 17.0506L25 20L52.5 20C56.3985 20 59.6022 22.9744 59.9657 26.7777L60 27.5L60 55L62.5 55C63.7273 55 64.748 54.1156 64.9597 52.9494L65 17.5C65 16.2727 63.6662 15.2117 62.5 15L27.5 15Z" fill-rule="nonzero" stroke="rgb(0,0,0)" stroke-opacity="0" stroke-width="3" />
</svg>
