<svg viewBox="0 0 80 80" xmlns="http://www.w3.org/2000/svg" xmlns:xlink="http://www.w3.org/1999/xlink" width="80.000000" height="80.000000" fill="none">
	<rect id="收藏-follow" width="80.000000" height="80.000000" x="0.000000" y="0.000000" />
	<path id="路径" d="M42.4068 5.50282C43.9289 6.16632 45.1329 7.42053 45.7561 8.99141L52.068 24.8219C52.2137 25.19 52.5334 25.4319 52.8903 25.4615L69.2731 26.8311C72.7082 27.1183 75.252 30.2351 74.9801 33.7738C74.8519 35.4622 74.0841 37.0323 72.8404 38.1468L60.3585 49.3019C60.0681 49.5611 59.9367 49.9809 60.0284 50.3831L63.8421 67.0619C64.6311 70.5123 62.5819 73.9889 59.2366 74.8208C57.626 75.2217 55.9252 74.9416 54.5177 74.0436L40.4921 65.1053C40.1909 64.9113 39.8084 64.9113 39.5071 65.1053L25.4804 74.0436C22.5352 75.9201 18.6828 74.949 16.893 71.8926C16.0451 70.4412 15.7812 68.7079 16.158 67.0606L19.9717 50.3822C20.0642 49.9867 19.9372 49.571 19.6416 49.2998L7.1597 38.1447C4.56697 35.8295 4.26776 31.7806 6.48407 29.0812C7.54946 27.7801 9.0772 26.97 10.7278 26.8303L27.109 25.4615C27.4659 25.4312 27.7856 25.19 27.9314 24.8227L34.2428 8.99141C35.5582 5.69349 39.2156 4.11841 42.4068 5.50282ZM40.4168 10.0898C39.8463 9.84228 39.1711 10.1315 38.8873 10.843L32.5787 26.6673C31.7473 28.7619 29.8174 30.249 27.5253 30.4442L11.1494 31.8125C10.8512 31.8377 10.565 31.9895 10.3485 32.254C9.82821 32.8876 9.9028 33.8909 10.4915 34.4166L23.0218 45.6155C24.6529 47.1119 25.3426 49.3729 24.8459 51.4968L21.0321 68.1756C20.9384 68.5852 21.0042 69.0178 21.2077 69.366C21.5765 69.9959 22.2592 70.1673 22.7934 69.8269L36.8008 60.901C38.7503 59.6461 41.249 59.6461 43.1793 60.8887L57.2069 69.8284C57.4598 69.9897 57.7517 70.0378 58.03 69.9685C58.6894 69.8046 59.1589 69.0119 58.9679 68.1764L55.1534 51.4943C54.6622 49.3393 55.3633 47.0586 57.0267 45.5737L69.5035 34.4233C69.7825 34.1732 69.9635 33.8034 69.9948 33.3907C70.0598 32.5451 69.5043 31.8679 68.8566 31.8138L52.4761 30.4444C50.1838 30.2538 48.2498 28.761 47.4236 26.6737L41.1086 10.8353C41.016 10.6021 40.5933 10.234 40.4168 10.0898Z" fill="rgb(0,0,0)" fill-rule="nonzero" />
</svg>
