<svg viewBox="0 0 80 80" xmlns="http://www.w3.org/2000/svg" xmlns:xlink="http://www.w3.org/1999/xlink" width="80.000000" height="80.000000" fill="none">
	<rect id="版本历程" width="80.000000" height="80.000000" x="0.000000" y="0.000000" />
	<path id="形状结合" d="M18.57 15L18.5707 19.2292L14.2857 19.2308L14.2857 65.7692L65.7143 65.7692L65.7143 19.2308L61.4257 19.2292L61.425 15L65 15C67.7614 15 70 17.2386 70 20L70 65C70 67.7614 67.7614 70 65 70L15 70C12.2386 70 10 67.7614 10 65L10 20C10 17.2386 12.2386 15 15 15L18.57 15ZM35 35L50 45L35 55L35 35ZM27.5 10C28.8807 10 30 11.1193 30 12.5L30 22.5C30 23.8807 28.8807 25 27.5 25C26.1193 25 25 23.8807 25 22.5L25 12.5C25 11.1193 26.1193 10 27.5 10ZM57.5 10C58.8807 10 60 11.1193 60 12.5L60 22.5C60 23.8807 58.8807 25 57.5 25C56.1193 25 55 23.8807 55 22.5L55 12.5C55 11.1193 56.1193 10 57.5 10ZM48.57 15L48.5707 19.2292L31.4257 19.2292L31.425 15L48.57 15Z" fill="rgb(25,25,25)" fill-rule="evenodd" />
	<path id="形状结合" d="M18.5707 19.2292L14.2857 19.2308L14.2857 65.7692L65.7143 65.7692L65.7143 19.2308L61.4257 19.2292L61.425 15L65 15C67.7614 15 70 17.2386 70 20L70 65C70 67.7614 67.7614 70 65 70L15 70C12.2386 70 10 67.7614 10 65L10 20C10 17.2386 12.2386 15 15 15L18.57 15L18.5707 19.2292ZM50 45L35 55L35 35L50 45ZM30 12.5L30 22.5C30 23.8807 28.8807 25 27.5 25C26.1193 25 25 23.8807 25 22.5L25 12.5C25 11.1193 26.1193 10 27.5 10C28.8807 10 30 11.1193 30 12.5ZM60 12.5L60 22.5C60 23.8807 58.8807 25 57.5 25C56.1193 25 55 23.8807 55 22.5L55 12.5C55 11.1193 56.1193 10 57.5 10C58.8807 10 60 11.1193 60 12.5ZM48.5707 19.2292L31.4257 19.2292L31.425 15L48.57 15L48.5707 19.2292Z" fill-rule="evenodd" stroke="rgb(0,0,0)" stroke-opacity="0" stroke-width="3" />
</svg>
