<svg viewBox="0 0 80 80" xmlns="http://www.w3.org/2000/svg" xmlns:xlink="http://www.w3.org/1999/xlink" width="80.000000" height="80.000000" fill="none">
	<rect id="设置-setting" width="80.000000" height="80.000000" x="0.000000" y="0.000000" />
	<path id="形状结合" d="M44.379 5.98633C47.1166 5.98633 49.6398 7.4462 51.0727 9.93349L51.409 10.6143L53.4962 15.4863L54.5562 16.0963L59.8626 15.4616C62.1951 15.1812 64.5053 15.9869 66.2205 17.6982L66.7694 18.3019L67.2677 19.0031L71.7712 26.7562C73.1301 29.0981 73.1412 31.9766 71.731 34.4639L71.2634 35.1675L68.0662 39.4013L68.0662 40.5963L71.2636 44.8338C72.6801 46.7121 73.138 49.1178 72.5073 51.4609L72.2566 52.2388L71.8953 53.0219L67.3951 60.7871C66.0231 63.1516 63.493 64.5978 60.6209 64.5897L59.8625 64.5394L54.5562 63.9013L53.4962 64.5113L51.409 69.3867C50.4835 71.5444 48.6254 73.1366 46.2816 73.7601L45.4829 73.9315L44.6256 74.0104L35.6177 74.0147C32.88 74.0147 30.3566 72.5546 28.9238 70.0672L28.5876 69.3866L26.4962 64.5113L25.4362 63.9013L20.134 64.5394C17.8014 64.8198 15.4912 64.0141 13.7761 62.3028L13.2272 61.6991L12.7288 60.998L8.22532 53.2448C6.86651 50.9029 6.85539 48.0245 8.26546 45.5372L8.73285 44.8339L11.9262 40.5963L11.9262 39.4013L8.73305 35.1673C7.31648 33.289 6.85857 30.8832 7.48925 28.5401L7.73997 27.7622L8.10131 26.9791L12.6015 19.214C13.9735 16.8494 16.5036 15.4032 19.3757 15.4113L20.1338 15.4616L25.4362 16.0963L26.4962 15.4863L28.5875 10.6147C29.5129 8.45682 31.371 6.86449 33.715 6.24094L34.5137 6.06952L35.4179 5.99013L44.379 5.98633ZM35.6728 10.9772L35.1787 11.0226C34.2917 11.1705 33.5373 11.7586 33.1826 12.5858L30.7624 18.2264C30.5492 18.7234 30.1805 19.1378 29.7118 19.4075L27.2105 20.8469C26.7429 21.116 26.2009 21.2266 25.6653 21.1622L19.6843 20.4392L19.2212 20.4067C18.277 20.4055 17.4 20.9068 16.9263 21.7233L12.5746 29.2222L12.3618 29.6631C12.0493 30.4978 12.1834 31.4385 12.725 32.1567L16.4248 37.0624C16.7518 37.4961 16.9288 38.0245 16.9288 38.5677L16.9288 41.4326C16.9288 41.9757 16.7519 42.5041 16.4249 42.9377L12.82 47.7093L12.5337 48.1362C12.0791 48.9417 12.0829 49.9304 12.5501 50.7355L16.9017 58.2364L17.1759 58.6361C17.7472 59.326 18.6372 59.6833 19.537 59.5752L25.665 58.8381C26.2007 58.7737 26.7428 58.8843 27.2105 59.1534L29.7118 60.5927C30.1806 60.8625 30.5492 61.2769 30.7624 61.774L33.1202 67.2808L33.3232 67.6959C33.793 68.5086 34.6676 69.0151 35.6177 69.0151L44.3311 69.0151L44.818 68.9784C45.7049 68.8306 46.4593 68.2425 46.8138 67.4159L49.2333 61.7743C49.4465 61.2771 49.8152 60.8625 50.284 60.5927L52.7854 59.1534C53.253 58.8843 53.7951 58.7737 54.3308 58.8381L60.3123 59.5618L60.7753 59.5943C61.7196 59.5955 62.5966 59.0942 63.0703 58.2777L67.422 50.7788L67.6348 50.3379C67.9473 49.5032 67.8132 48.5625 67.2717 47.8444L63.5711 42.9379C63.244 42.5042 63.0671 41.9758 63.0671 41.4326L63.0671 38.5677C63.0671 38.0244 63.2441 37.4959 63.5712 37.0622L67.1765 32.2917L67.4628 31.8648C67.9175 31.0593 67.9136 30.0706 67.4465 29.2655L63.0948 21.7646L62.8206 21.3649C62.2493 20.675 61.3594 20.3177 60.4592 20.4259L54.3305 21.1622C53.7949 21.2266 53.2529 21.116 52.7854 20.8469L50.284 19.4075C49.8152 19.1378 49.4465 18.7232 49.2333 18.2261L46.8765 12.72L46.6734 12.305C46.2036 11.4923 45.329 10.9863 44.379 10.9863L35.6728 10.9772ZM40.1906 26.9236C47.4128 26.9236 53.2675 32.7783 53.2675 40.0005C53.2675 47.2227 47.4128 53.0774 40.1906 53.0774C32.9684 53.0774 27.1137 47.2227 27.1137 40.0005C27.1137 32.7783 32.9684 26.9236 40.1906 26.9236ZM40.1906 31.9236C35.7298 31.9236 32.1137 35.5397 32.1137 40.0005C32.1137 44.4613 35.7298 48.0774 40.1906 48.0774C44.6514 48.0774 48.2675 44.4613 48.2675 40.0005C48.2675 35.5397 44.6514 31.9236 40.1906 31.9236Z" fill="rgb(0,0,0)" fill-rule="nonzero" />
</svg>
