<svg viewBox="0 0 16 16" xmlns="http://www.w3.org/2000/svg" xmlns:xlink="http://www.w3.org/1999/xlink" width="16.000000" height="16.000000" fill="none">
	<rect id="2D 服务图标/api设计 apiDesign" width="16.000000" height="16.000000" x="0.000000" y="0.000000" />
	<g id="资源库">
		<g id="服务图标">
			<g id="icon-icon-api-designer-2d">
				<rect id="矩形" width="16.000000" height="16.000000" x="0.000000" y="0.000000" opacity="0" fill="rgb(216,216,216)" />
				<rect id="矩形" width="16.000000" height="16.000000" x="0.000000" y="0.000000" opacity="0" stroke="rgb(0,0,0)" stroke-opacity="0" stroke-width="1" />
				<path id="形状结合" d="M11 1L11 3L13 3L13 4L14.4 4C15.2837 4 16 4.71634 16 5.6L16 13C16 13.5523 15.5523 14 15 14L7.8 14L7.8 6.4C7.8 5.95817 7.44183 5.6 7 5.6L5.8 5.6C5.35817 5.6 5 5.95817 5 6.4L5 14L1 14C0.447715 14 6.76354e-17 13.5523 1.2261e-32 13L1.2261e-32 5.6C-1.08217e-16 4.71634 0.716344 4 1.6 4L3 4L3 3L5 3L5 1L11 1ZM7 6C7.22091 6 7.4 6.17909 7.4 6.4L7.4 14L5.4 14L5.4 6.4C5.4 6.17909 5.57909 6 5.8 6L7 6ZM3.6 6.1L2.4 6.1C1.95817 6.1 1.6 6.45817 1.6 6.9L1.6 12.1C1.6 12.5418 1.95817 12.9 2.4 12.9L3.6 12.9C4.04183 12.9 4.4 12.5418 4.4 12.1L4.4 6.9C4.4 6.45817 4.04183 6.1 3.6 6.1ZM10.4 6.1L9.2 6.1C8.75817 6.1 8.4 6.45817 8.4 6.9L8.4 12.1C8.4 12.5418 8.75817 12.9 9.2 12.9L10.4 12.9C10.8418 12.9 11.2 12.5418 11.2 12.1L11.2 6.9C11.2 6.45817 10.8418 6.1 10.4 6.1ZM13.8 6.1L12.6 6.1C12.1582 6.1 11.8 6.45817 11.8 6.9L11.8 12.1C11.8 12.5418 12.1582 12.9 12.6 12.9L13.8 12.9C14.2418 12.9 14.6 12.5418 14.6 12.1L14.6 6.9C14.6 6.45817 14.2418 6.1 13.8 6.1ZM3.6 6.5C3.82091 6.5 4 6.67909 4 6.9L4 12.1C4 12.3209 3.82091 12.5 3.6 12.5L2.4 12.5C2.17909 12.5 2 12.3209 2 12.1L2 6.9C2 6.67909 2.17909 6.5 2.4 6.5L3.6 6.5ZM10.4 6.5C10.6209 6.5 10.8 6.67909 10.8 6.9L10.8 12.1C10.8 12.3209 10.6209 12.5 10.4 12.5L9.2 12.5C8.97909 12.5 8.8 12.3209 8.8 12.1L8.8 6.9C8.8 6.67909 8.97909 6.5 9.2 6.5L10.4 6.5ZM13.8 6.5C14.0209 6.5 14.2 6.67909 14.2 6.9L14.2 12.1C14.2 12.3209 14.0209 12.5 13.8 12.5L12.6 12.5C12.3791 12.5 12.2 12.3209 12.2 12.1L12.2 6.9C12.2 6.67909 12.3791 6.5 12.6 6.5L13.8 6.5Z" fill="rgb(171,229,251)" fill-rule="evenodd" />
				<path id="形状结合" d="M11 3L13 3L13 4L14.4 4C15.2837 4 16 4.71634 16 5.6L16 13C16 13.5523 15.5523 14 15 14L7.8 14L7.8 6.4C7.8 5.95817 7.44183 5.6 7 5.6L5.8 5.6C5.35817 5.6 5 5.95817 5 6.4L5 14L1 14C0.447715 14 6.76354e-17 13.5523 1.2261e-32 13L1.2261e-32 5.6C-1.08217e-16 4.71634 0.716344 4 1.6 4L3 4L3 3L5 3L5 1L11 1L11 3ZM7.4 6.4L7.4 14L5.4 14L5.4 6.4C5.4 6.17909 5.57909 6 5.8 6L7 6C7.22091 6 7.4 6.17909 7.4 6.4ZM2.4 6.1C1.95817 6.1 1.6 6.45817 1.6 6.9L1.6 12.1C1.6 12.5418 1.95817 12.9 2.4 12.9L3.6 12.9C4.04183 12.9 4.4 12.5418 4.4 12.1L4.4 6.9C4.4 6.45817 4.04183 6.1 3.6 6.1L2.4 6.1ZM9.2 6.1C8.75817 6.1 8.4 6.45817 8.4 6.9L8.4 12.1C8.4 12.5418 8.75817 12.9 9.2 12.9L10.4 12.9C10.8418 12.9 11.2 12.5418 11.2 12.1L11.2 6.9C11.2 6.45817 10.8418 6.1 10.4 6.1L9.2 6.1ZM12.6 6.1C12.1582 6.1 11.8 6.45817 11.8 6.9L11.8 12.1C11.8 12.5418 12.1582 12.9 12.6 12.9L13.8 12.9C14.2418 12.9 14.6 12.5418 14.6 12.1L14.6 6.9C14.6 6.45817 14.2418 6.1 13.8 6.1L12.6 6.1ZM4 6.9L4 12.1C4 12.3209 3.82091 12.5 3.6 12.5L2.4 12.5C2.17909 12.5 2 12.3209 2 12.1L2 6.9C2 6.67909 2.17909 6.5 2.4 6.5L3.6 6.5C3.82091 6.5 4 6.67909 4 6.9ZM10.8 6.9L10.8 12.1C10.8 12.3209 10.6209 12.5 10.4 12.5L9.2 12.5C8.97909 12.5 8.8 12.3209 8.8 12.1L8.8 6.9C8.8 6.67909 8.97909 6.5 9.2 6.5L10.4 6.5C10.6209 6.5 10.8 6.67909 10.8 6.9ZM14.2 6.9L14.2 12.1C14.2 12.3209 14.0209 12.5 13.8 12.5L12.6 12.5C12.3791 12.5 12.2 12.3209 12.2 12.1L12.2 6.9C12.2 6.67909 12.3791 6.5 12.6 6.5L13.8 6.5C14.0209 6.5 14.2 6.67909 14.2 6.9Z" fill-rule="evenodd" stroke="rgb(0,0,0)" stroke-opacity="0" stroke-width="1" />
				<g id="编组">
					<g id="编组-2">
						<path id="矩形" d="M5.3999 7.5L7.3999 7.5L7.3999 14.5L5.3999 14.5L5.3999 7.5Z" fill="rgb(104,209,255)" fill-rule="evenodd" />
						<path id="矩形" d="M7.3999 7.5L7.3999 14.5L5.3999 14.5L5.3999 7.5L7.3999 7.5Z" fill-rule="evenodd" stroke="rgb(0,0,0)" stroke-opacity="0" stroke-width="1" />
						<path id="矩形备份-3" d="M5.7999 6L6.9999 6C7.22082 6 7.3999 6.17909 7.3999 6.4L7.3999 7.5L5.3999 7.5L5.3999 6.4C5.3999 6.17909 5.57899 6 5.7999 6Z" fill="rgb(55,167,227)" fill-rule="evenodd" />
						<path id="矩形备份-3" d="M6.9999 6C7.22082 6 7.3999 6.17909 7.3999 6.4L7.3999 7.5L5.3999 7.5L5.3999 6.4C5.3999 6.17909 5.57899 6 5.7999 6L6.9999 6Z" fill-rule="evenodd" stroke="rgb(0,0,0)" stroke-opacity="0" stroke-width="1" />
						<path id="矩形备份-2" d="M7.3999 14.5029L6.3999 15.9999L5.3999 14.5029L7.3999 14.5029Z" fill="rgb(55,167,227)" fill-rule="evenodd" />
						<path id="矩形备份-2" d="M6.3999 15.9999L5.3999 14.5029L7.3999 14.5029L6.3999 15.9999Z" fill-rule="evenodd" stroke="rgb(0,0,0)" stroke-opacity="0" stroke-width="1" />
					</g>
					<g id="编组-3">
						<rect id="矩形备份-4" width="2.000000" height="6.000000" x="2.000000" y="6.500000" fill="rgb(104,209,255)" />
						<rect id="矩形备份-4" width="2.000000" height="6.000000" x="2.000000" y="6.500000" stroke="rgb(0,0,0)" stroke-opacity="0" stroke-width="1" />
					</g>
					<g id="编组-4">
						<rect id="矩形备份-7" width="2.000000" height="6.000000" x="8.799805" y="6.500000" fill="rgb(104,209,255)" />
						<rect id="矩形备份-7" width="2.000000" height="6.000000" x="8.799805" y="6.500000" stroke="rgb(0,0,0)" stroke-opacity="0" stroke-width="1" />
					</g>
					<g id="编组-5">
						<rect id="矩形备份-10" width="2.000000" height="6.000000" x="12.200195" y="6.500000" fill="rgb(104,209,255)" />
						<rect id="矩形备份-10" width="2.000000" height="6.000000" x="12.200195" y="6.500000" stroke="rgb(0,0,0)" stroke-opacity="0" stroke-width="1" />
					</g>
				</g>
			</g>
		</g>
	</g>
</svg>
