<svg viewBox="0 0 16 16" xmlns="http://www.w3.org/2000/svg" xmlns:xlink="http://www.w3.org/1999/xlink" width="16.000000" height="16.000000" fill="none">
	<rect id="2D 服务图标/云服务管理VersionSet" width="16.000000" height="16.000000" x="0.000000" y="0.000000" />
	<g id="资源库">
		<g id="服务图标">
			<g id="icon-icon-version-set-2d">
				<rect id="矩形" width="16.000000" height="16.000000" x="0.000000" y="0.000000" opacity="0" fill="rgb(216,216,216)" />
				<rect id="矩形" width="16.000000" height="16.000000" x="0.000000" y="0.000000" opacity="0" stroke="rgb(0,0,0)" stroke-opacity="0" stroke-width="1" />
				<g id="编组-52">
					<path id="路径" d="M3.38351 9.3968L12.7379 9.3938C14.1646 9.3938 15.3251 8.22867 15.3251 6.79662C15.3251 5.46114 14.3026 4.34482 13.0076 4.20045C13.0105 4.11239 13.012 4.03164 13.012 3.96846C13.012 2.90834 12.6007 1.91181 11.8541 1.16228C11.1073 0.412748 10.1147 0 9.05864 0C8.24027 0 7.43555 0.279535 6.7313 0.808436C6.25053 1.16947 5.84651 1.62974 5.55557 2.14075C5.23624 1.97408 4.88261 1.88699 4.51618 1.88699C3.92941 1.88699 3.36537 2.16019 2.92795 2.65623C2.63636 2.98695 2.42844 3.38994 2.32746 3.80848C1.83215 4.00506 1.39147 4.34201 1.07137 4.77246C0.697593 5.27518 0.5 5.87326 0.5 6.50229C0.5 8.09838 1.79356 9.3968 3.38351 9.3968Z" fill="rgb(171,229,251)" fill-rule="evenodd" />
					<path id="路径" d="M12.7379 9.3938C14.1646 9.3938 15.3251 8.22867 15.3251 6.79662C15.3251 5.46114 14.3026 4.34482 13.0076 4.20045C13.0105 4.11239 13.012 4.03164 13.012 3.96846C13.012 2.90834 12.6007 1.91181 11.8541 1.16228C11.1073 0.412748 10.1147 0 9.05864 0C8.24027 0 7.43555 0.279535 6.7313 0.808436C6.25053 1.16947 5.84651 1.62974 5.55557 2.14075C5.23624 1.97408 4.88261 1.88699 4.51618 1.88699C3.92941 1.88699 3.36537 2.16019 2.92795 2.65623C2.63636 2.98695 2.42844 3.38994 2.32746 3.80848C1.83215 4.00506 1.39147 4.34201 1.07137 4.77246C0.697593 5.27518 0.5 5.87326 0.5 6.50229C0.5 8.09838 1.79356 9.3968 3.38351 9.3968L12.7379 9.3938Z" fill-rule="evenodd" stroke="rgb(0,0,0)" stroke-opacity="0" stroke-width="1" />
					<path id="路径" d="M3.00075 4.33676C3.08745 4.31209 3.16365 4.23597 3.17898 4.14269C3.30288 3.39209 3.95285 2.63212 4.73683 2.63212C5.05834 2.63212 5.36547 2.72967 5.62698 2.91414C5.76386 2.96493 6.00916 2.95855 6.07072 2.82567C6.60203 1.67766 7.78878 0.867676 8.9841 0.867676C10.7134 0.867676 12.1203 2.27995 12.1203 4.01589C12.1203 4.13444 12.1142 4.31887 12.1033 4.48025C12.0935 4.62486 12.1943 4.75315 12.3368 4.77705C13.3618 4.77705 14.2832 5.63152 14.2832 6.66049C14.2832 7.65694 13.501 8.4736 12.5206 8.52404L3.51182 8.52281C2.4113 8.43745 1.54199 7.5113 1.54199 6.38515C1.54199 5.45574 2.12638 4.62955 3.00075 4.33676Z" fill="rgb(171,229,251)" fill-rule="evenodd" />
					<path id="路径" d="M3.17898 4.14269C3.30288 3.39209 3.95285 2.63212 4.73683 2.63212C5.05834 2.63212 5.36547 2.72967 5.62698 2.91414C5.76386 2.96493 6.00916 2.95855 6.07072 2.82567C6.60203 1.67766 7.78878 0.867676 8.9841 0.867676C10.7134 0.867676 12.1203 2.27995 12.1203 4.01589C12.1203 4.13444 12.1142 4.31887 12.1033 4.48025C12.0935 4.62486 12.1943 4.75315 12.3368 4.77705C13.3618 4.77705 14.2832 5.63152 14.2832 6.66049C14.2832 7.65694 13.501 8.4736 12.5206 8.52404L3.51182 8.52281C2.4113 8.43745 1.54199 7.5113 1.54199 6.38515C1.54199 5.45574 2.12638 4.62955 3.00075 4.33676C3.08745 4.31209 3.16365 4.23597 3.17898 4.14269Z" fill-rule="evenodd" stroke="rgb(0,0,0)" stroke-opacity="0" stroke-width="1" />
				</g>
				<path id="路径-76" d="M0 5C1.5 5 1.5 0 3 0" stroke="rgb(104,209,255)" stroke-width="1" transform="matrix(0,1,-1,0,13,9.39697)" />
				<path id="路径-76备份" d="M0 5C1.5 5 1.5 0 3 0" stroke="rgb(104,209,255)" stroke-width="1" transform="matrix(0,1,1,0,3,9.39697)" />
				<rect id="矩形" width="3.000000" height="1.000000" x="0.000000" y="0.000000" fill="rgb(104,209,255)" transform="matrix(0,1,-1,0,8.5,9.39697)" />
				<rect id="矩形" width="3.000000" height="1.000000" x="0.000000" y="0.000000" stroke="rgb(0,0,0)" stroke-opacity="0" stroke-width="1" transform="matrix(0,1,-1,0,8.5,9.39697)" />
				<rect id="矩形" width="4.000000" height="3.000000" x="1.000000" y="12.000000" rx="0.600000" fill="rgb(55,167,227)" />
				<rect id="矩形" width="4.000000" height="3.000000" x="1.000000" y="12.000000" rx="0.600000" stroke="rgb(0,0,0)" stroke-opacity="0" stroke-width="1" />
				<rect id="矩形备份" width="4.000000" height="3.000000" x="6.000000" y="12.000000" rx="0.600000" fill="rgb(55,167,227)" />
				<rect id="矩形备份" width="4.000000" height="3.000000" x="6.000000" y="12.000000" rx="0.600000" stroke="rgb(0,0,0)" stroke-opacity="0" stroke-width="1" />
				<rect id="矩形备份-2" width="4.000000" height="3.000000" x="11.000000" y="12.000000" rx="0.600000" fill="rgb(55,167,227)" />
				<rect id="矩形备份-2" width="4.000000" height="3.000000" x="11.000000" y="12.000000" rx="0.600000" stroke="rgb(0,0,0)" stroke-opacity="0" stroke-width="1" />
			</g>
		</g>
	</g>
</svg>
