<svg viewBox="0 0 16 16" xmlns="http://www.w3.org/2000/svg" xmlns:xlink="http://www.w3.org/1999/xlink" width="16.000000" height="16.000000" fill="none" customFrame="#000000">
	<rect id="2D 服务图标/代码托管" width="16.000000" height="16.000000" x="0.000000" y="0.000000" />
	<g id="代码托管">
		<rect id="矩形" width="16.000000" height="16.000000" x="0.000000" y="0.000000" rx="2.000000" fill="rgb(171,229,251)" fill-opacity="0" />
		<rect id="矩形" width="15.000000" height="15.000000" x="0.500000" y="0.500000" rx="1.500000" stroke="rgb(151,151,151)" stroke-opacity="0" stroke-width="1" />
		<g id="codehub-60x60">
			<path id="矩形备份-12" d="M4.26922 3.12451L6.8423 3.12451C7.48179 3.12451 8.00019 3.57757 8.00019 4.13644C8.00019 4.6953 7.48179 5.14836 6.8423 5.14836L4.26922 5.14836C3.62973 5.14836 3.11133 4.6953 3.11133 4.13644C3.11133 3.57757 3.62973 3.12451 4.26922 3.12451Z" fill="rgb(55,167,227)" fill-rule="evenodd" />
			<path id="矩形备份-12" d="M6.8423 3.12451L4.26922 3.12451C3.62973 3.12451 3.11133 3.57757 3.11133 4.13644C3.11133 4.6953 3.62973 5.14836 4.26922 5.14836L6.8423 5.14836C7.48179 5.14836 8.00019 4.6953 8.00019 4.13644C8.00019 3.57757 7.48179 3.12451 6.8423 3.12451ZM4.26922 4.12451L6.8423 4.12451Q6.89353 4.12451 6.93322 4.13644Q6.89353 4.14836 6.8423 4.14836L4.26922 4.14836Q4.21799 4.14836 4.1783 4.13644Q4.21799 4.12451 4.26922 4.12451Z" fill="rgb(151,151,151)" fill-opacity="0" fill-rule="evenodd" />
			<path id="形状结合" d="M6.14004 3.12451C5.87593 3.19612 5.66498 3.37489 5.53664 3.59599L3.15029 7.77749L4.67657 10.4518L6.17555 10.4519C6.72783 10.4519 7.17554 10.9049 7.17554 11.4638C7.17554 12.0227 6.72783 12.4757 6.17555 12.4757L4.13743 12.4757C4.00087 12.4757 3.87071 12.448 3.75212 12.3979C3.53652 12.3201 3.34593 12.1673 3.22243 11.9509L1.16689 8.3481C1.14506 8.30984 1.12598 8.27074 1.10959 8.23104C0.960888 7.93593 0.958235 7.57286 1.13415 7.26454L3.22582 3.59599L3.24379 3.56572C3.36674 3.36651 3.55809 3.20991 3.79521 3.13556L3.83302 3.12451L6.14004 3.12451Z" fill="rgb(55,167,227)" fill-rule="evenodd" />
			<path id="形状结合" d="M4.65432 3.12451L3.83302 3.12451L3.79521 3.13556C3.55809 3.20991 3.36674 3.36651 3.24379 3.56572L3.22582 3.59599L1.13415 7.26454C0.958235 7.57286 0.960888 7.93593 1.10959 8.23104C1.12598 8.27074 1.14506 8.30984 1.16689 8.3481L3.22243 11.9509C3.34593 12.1673 3.53652 12.3201 3.75212 12.3979C3.87071 12.448 4.00087 12.4757 4.13743 12.4757L6.17555 12.4757C6.72783 12.4757 7.17554 12.0227 7.17554 11.4638C7.17554 10.9049 6.72783 10.4519 6.17555 10.4519L4.67657 10.4518L3.15029 7.77749L5.23501 4.12451L5.53664 3.59599C5.66498 3.37489 5.87593 3.19612 6.14004 3.12451L4.65432 3.12451ZM4.0756 4.12451L2.00272 7.7601Q2.00039 7.76418 1.99996 7.76845Q1.99965 7.77162 2.00038 7.77489L4.08363 4.12451L4.0756 4.12451ZM2.01549 7.80657L2.01957 7.81467L2.03394 7.84948Q2.03452 7.85088 2.03546 7.85254L4.09101 11.4553L4.09132 11.4572L4.11674 11.4663L4.13896 11.4757L6.17201 11.4757Q6.17554 11.4715 6.17554 11.4638Q6.17554 11.4561 6.17201 11.4519L4.09588 11.4518L2.01549 7.80657Z" fill="rgb(151,151,151)" fill-opacity="0" fill-rule="evenodd" />
			<path id="形状结合备份" d="M5.14004 0C4.87593 0.0716125 4.66498 0.250374 4.53664 0.471481L2.15029 4.65297L4.28781 8.39867C4.56395 8.88267 4.40007 9.50155 3.92178 9.78099C3.44349 10.0604 2.83191 9.89459 2.55576 9.4106L0.166888 5.22358C0.145062 5.18533 0.125984 5.14623 0.109594 5.10652C-0.0391119 4.81141 -0.0417652 4.44835 0.134147 4.14003L2.22582 0.471481L2.24379 0.441209C2.36674 0.242002 2.55809 0.0854018 2.79521 0.0110504L2.83302 0L5.14004 0Z" fill="rgb(55,167,227)" fill-rule="evenodd" transform="matrix(-1,0,0,-1,15,12.4756)" />
			<path id="形状结合备份" d="M3.65432 0L2.83302 0L2.79521 0.0110504C2.55809 0.0854018 2.36674 0.242002 2.24379 0.441209L2.22582 0.471481L0.134147 4.14003C-0.0417652 4.44835 -0.0391119 4.81141 0.109594 5.10652C0.125984 5.14623 0.145062 5.18533 0.166888 5.22358L2.55576 9.4106C2.83191 9.89459 3.44349 10.0604 3.92178 9.78099C4.40007 9.50155 4.56395 8.88267 4.28781 8.39867L2.15029 4.65297L4.23501 1L4.53664 0.471481C4.66498 0.250374 4.87593 0.0716125 5.14004 0L3.65432 0ZM3.0756 1L1.00272 4.63559Q1.00039 4.63967 0.999965 4.64394Q0.999649 4.64711 1.00038 4.65038L3.08363 1L3.0756 1ZM1.01531 4.6817L1.01957 4.69015L1.03394 4.72497Q1.03452 4.72637 1.03546 4.72802L3.42125 8.90963Q3.42256 8.90393 3.42121 8.89896Q3.42055 8.89655 3.41928 8.89431L1.01531 4.6817Z" fill="rgb(151,151,151)" fill-opacity="0" fill-rule="evenodd" transform="matrix(-1,0,0,-1,15,12.4756)" />
			<path id="路径" d="M7.04684 13.3036L7.02548 13.3281C6.88105 13.4884 6.68966 13.5895 6.47855 13.5992L6.44505 13.6C4.68514 13.6 3.88276 13.6 4.03789 13.6C4.2706 13.6 4.48149 13.489 4.63513 13.309L11.0761 2.29639L11.0974 2.27185C11.2419 2.11163 11.4333 2.01048 11.6444 2.00077L11.6779 2L14.085 2C13.8523 2 13.6414 2.11105 13.4878 2.29101L7.04684 13.3036Z" fill="rgb(104,209,255)" fill-rule="evenodd" />
			<path id="路径" d="M6.44505 13.6L4.03789 13.6C4.2706 13.6 4.48149 13.489 4.63513 13.309L5.0498 12.6L11.0761 2.29639L11.0974 2.27185C11.2419 2.11163 11.4333 2.01048 11.6444 2.00077L11.6779 2L14.085 2C13.8523 2 13.6414 2.11105 13.4878 2.29101L13.0731 3L7.04684 13.3036L7.02548 13.3281C6.88105 13.4884 6.68966 13.5895 6.47855 13.5992L6.44505 13.6ZM11.9147 3L6.29989 12.6L6.20828 12.6L11.823 3L11.9147 3Z" fill="rgb(151,151,151)" fill-opacity="0" fill-rule="evenodd" />
		</g>
	</g>
</svg>
