<svg viewBox="0 0 16 16" xmlns="http://www.w3.org/2000/svg" xmlns:xlink="http://www.w3.org/1999/xlink" width="16.000000" height="16.000000" fill="none" customFrame="#000000">
	<rect id="2D 服务图标/代码检查" width="16.000000" height="16.000000" x="0.000000" y="0.000000" />
	<g id="代码检查">
		<circle id="椭圆形" cx="8" cy="8" r="8" fill="rgb(225,219,255)" />
		<circle id="椭圆形" cx="8" cy="8" r="7.5" stroke="rgb(167,164,254)" stroke-width="1" />
		<circle id="椭圆形" cx="8" cy="8" r="4" fill="rgb(216,216,216)" fill-opacity="0" />
		<circle id="椭圆形" cx="8" cy="8" r="3.5" stroke="rgb(81,79,198)" stroke-width="1" />
		<rect id="矩形" width="1.000000" height="16.000000" x="7.500000" y="0.000000" fill="rgb(167,164,254)" />
		<rect id="矩形" width="0.000000" height="15.000000" x="8.000000" y="0.500000" stroke="rgb(151,151,151)" stroke-opacity="0" stroke-width="1" />
		<rect id="矩形" width="1.000000" height="8.000000" x="7.500000" y="4.000000" fill="rgb(81,79,198)" />
		<rect id="矩形" width="0.000000" height="7.000000" x="8.000000" y="4.500000" stroke="rgb(151,151,151)" stroke-opacity="0" stroke-width="1" />
		<rect id="矩形" width="16.000000" height="1.000000" x="0.000000" y="7.500000" fill="rgb(167,164,254)" />
		<rect id="矩形" width="15.000000" height="0.000000" x="0.500000" y="8.000000" stroke="rgb(151,151,151)" stroke-opacity="0" stroke-width="1" />
		<rect id="矩形" width="8.000000" height="1.000000" x="4.000000" y="7.500000" fill="rgb(81,79,198)" />
		<rect id="矩形" width="7.000000" height="0.000000" x="4.500000" y="8.000000" stroke="rgb(151,151,151)" stroke-opacity="0" stroke-width="1" />
		<path id="路径备份 8" d="M13.6569 2.34326C15.1046 3.79098 16 5.79098 16 8.00012C16 10.2093 15.1046 12.2093 13.6569 13.657L8 8.00012L13.6569 2.34326L13.6569 2.34326Z" opacity="0.200000003" fill="rgb(81,79,198)" fill-rule="evenodd" />
		<path id="路径备份 8" d="M14.8268 6.44004Q15 7.20035 15 8.00012Q15 8.79989 14.8268 9.56021Q14.6915 10.1544 14.4503 10.7245Q14.2034 11.3083 13.8619 11.8301Q13.7405 12.0155 13.6072 12.1931L9.41421 8.00012L13.6072 3.80711Q13.7405 3.98472 13.8619 4.17015Q14.2034 4.69197 14.4503 5.27571Q14.6915 5.84583 14.8268 6.44004ZM14.3199 3.09447C15.3729 4.44916 16 6.1514 16 8.00012C16 9.84883 15.3729 11.5511 14.3199 12.9058C14.1146 13.1699 13.8931 13.4208 13.6569 13.657L12.9497 12.9499L8.70711 8.70722L8 8.00012L8.70711 7.29301L12.9497 3.05037L13.6569 2.34326C13.8931 2.57946 14.1146 2.83036 14.3199 3.09447Z" opacity="0.200000003" fill="rgb(151,151,151)" fill-opacity="0" fill-rule="evenodd" />
	</g>
</svg>
