<svg viewBox="0 0 16 16" xmlns="http://www.w3.org/2000/svg" xmlns:xlink="http://www.w3.org/1999/xlink" width="16.000000" height="16.000000" fill="none">
	<rect id="2D 服务图标/数据库设计 DatabaseDesign" width="16.000000" height="16.000000" x="0.000000" y="0.000000" />
	<g id="资源库">
		<g id="服务图标">
			<g id="icon-icon-db-designer-2d">
				<rect id="矩形" width="16.000000" height="16.000000" x="0.000000" y="0.000000" opacity="0" fill="rgb(216,216,216)" />
				<rect id="矩形" width="16.000000" height="16.000000" x="0.000000" y="0.000000" opacity="0" stroke="rgb(0,0,0)" stroke-opacity="0" stroke-width="1" />
				<path id="形状结合" d="M3.99942 11.5356L7.08185 13.3138C6.81425 13.5212 6.61871 13.8171 6.53914 14.1575L3.6356 12.48C3.85539 12.2255 3.99106 11.8963 3.99942 11.5356ZM12.0015 11.5333C12.0015 11.9083 12.1374 12.218 12.3649 12.481L9.46052 14.1575C9.38094 13.817 9.18536 13.5211 8.91771 13.3137L12.0015 11.5333ZM1.9375 5.89123C2.11116 5.9615 2.30098 6.00019 2.49983 6.00019C2.65197 6.00019 2.79883 5.97754 2.9372 5.93543L2.9372 10.065C2.79883 10.0228 2.65197 10.0002 2.49983 10.0002C2.30098 10.0002 2.11116 10.0389 1.9375 10.1092L1.9375 5.89123ZM14.0621 5.89126L14.0621 10.1091C13.8884 10.0389 13.6987 10.0002 13.4998 10.0002C13.3473 10.0002 13.2001 10.023 13.0614 10.0653L13.0614 5.93512C13.2001 5.97743 13.3473 6.00019 13.4998 6.00019C13.6987 6.00019 13.8884 5.96151 14.0621 5.89126ZM9.46042 1.84326L12.3646 3.51966C12.1445 3.77435 12.0085 4.10391 12.0002 4.465L8.91873 2.68587C9.18575 2.47863 9.38088 2.18319 9.46042 1.84326ZM6.53924 1.84326C6.61877 2.18314 6.81386 2.47855 7.08082 2.68578L3.9975 4.46384L3.99296 4.35573C3.96261 4.03803 3.83315 3.74925 3.63586 3.52065L6.53924 1.84326Z" fill="rgb(171,229,251)" fill-rule="nonzero" />
				<path id="形状结合" d="M7.08185 13.3138C6.81425 13.5212 6.61871 13.8171 6.53914 14.1575L3.6356 12.48C3.85539 12.2255 3.99106 11.8963 3.99942 11.5356L7.08185 13.3138ZM12.3649 12.481L9.46052 14.1575C9.38094 13.817 9.18536 13.5211 8.91771 13.3137L12.0015 11.5333C12.0015 11.9083 12.1374 12.218 12.3649 12.481ZM2.49983 6.00019C2.65197 6.00019 2.79883 5.97754 2.9372 5.93543L2.9372 10.065C2.79883 10.0228 2.65197 10.0002 2.49983 10.0002C2.30098 10.0002 2.11116 10.0389 1.9375 10.1092L1.9375 5.89123C2.11116 5.9615 2.30098 6.00019 2.49983 6.00019ZM14.0621 10.1091C13.8884 10.0389 13.6987 10.0002 13.4998 10.0002C13.3473 10.0002 13.2001 10.023 13.0614 10.0653L13.0614 5.93512C13.2001 5.97743 13.3473 6.00019 13.4998 6.00019C13.6987 6.00019 13.8884 5.96151 14.0621 5.89126L14.0621 10.1091ZM12.3646 3.51966C12.1445 3.77435 12.0085 4.10391 12.0002 4.465L8.91873 2.68587C9.18575 2.47863 9.38088 2.18319 9.46042 1.84326L12.3646 3.51966ZM7.08082 2.68578L3.9975 4.46384L3.99296 4.35573C3.96261 4.03803 3.83315 3.74925 3.63586 3.52065L6.53924 1.84326C6.61877 2.18314 6.81386 2.47855 7.08082 2.68578Z" fill-rule="nonzero" stroke="rgb(0,0,0)" stroke-opacity="0" stroke-width="1" />
				<circle id="椭圆形" cx="8" cy="1.5" r="1" fill="rgb(0,0,0)" fill-opacity="0" />
				<circle id="椭圆形" cx="8" cy="1.5" r="1" stroke="rgb(104,209,255)" stroke-width="1" />
				<circle id="椭圆形备份-2" cx="2.5" cy="4.5" r="1" fill="rgb(0,0,0)" fill-opacity="0" />
				<circle id="椭圆形备份-2" cx="2.5" cy="4.5" r="1" stroke="rgb(104,209,255)" stroke-width="1" />
				<circle id="椭圆形备份-4" cx="13.5" cy="4.5" r="1" fill="rgb(0,0,0)" fill-opacity="0" />
				<circle id="椭圆形备份-4" cx="13.5" cy="4.5" r="1" stroke="rgb(104,209,255)" stroke-width="1" />
				<circle id="椭圆形备份-3" cx="2.5" cy="11.5" r="1" fill="rgb(0,0,0)" fill-opacity="0" />
				<circle id="椭圆形备份-3" cx="2.5" cy="11.5" r="1" stroke="rgb(104,209,255)" stroke-width="1" />
				<circle id="椭圆形备份-5" cx="13.5" cy="11.5" r="1" fill="rgb(0,0,0)" fill-opacity="0" />
				<circle id="椭圆形备份-5" cx="13.5" cy="11.5" r="1" stroke="rgb(104,209,255)" stroke-width="1" />
				<circle id="椭圆形备份" cx="8" cy="14.5" r="1" fill="rgb(0,0,0)" fill-opacity="0" />
				<circle id="椭圆形备份" cx="8" cy="14.5" r="1" stroke="rgb(104,209,255)" stroke-width="1" />
				<rect id="矩形" width="7.000000" height="1.600000" x="4.500000" y="5.000000" rx="0.800000" fill="rgb(55,167,227)" />
				<rect id="矩形" width="7.000000" height="1.600000" x="4.500000" y="5.000000" rx="0.800000" stroke="rgb(0,0,0)" stroke-opacity="0" stroke-width="1" />
				<rect id="矩形备份" width="7.000000" height="1.600000" x="4.500000" y="7.200195" rx="0.800000" fill="rgb(104,209,255)" />
				<rect id="矩形备份" width="7.000000" height="1.600000" x="4.500000" y="7.200195" rx="0.800000" stroke="rgb(0,0,0)" stroke-opacity="0" stroke-width="1" />
				<rect id="矩形备份-2" width="7.000000" height="1.600000" x="4.500000" y="9.399902" rx="0.800000" fill="rgb(104,209,255)" />
				<rect id="矩形备份-2" width="7.000000" height="1.600000" x="4.500000" y="9.399902" rx="0.800000" stroke="rgb(0,0,0)" stroke-opacity="0" stroke-width="1" />
			</g>
		</g>
	</g>
</svg>
