<svg viewBox="0 0 16 16" xmlns="http://www.w3.org/2000/svg" xmlns:xlink="http://www.w3.org/1999/xlink" width="16.000000" height="16.000000" fill="none" customFrame="#000000">
	<rect id="2D 服务图标/运维" width="16.000000" height="16.000000" x="0.000000" y="0.000000" />
	<g id="运维operation-￼maintenance">
		<rect id="矩形" width="16.000000" height="16.000000" x="0.000000" y="0.000000" opacity="0" fill="rgb(216,216,216)" />
		<rect id="矩形" width="15.000000" height="15.000000" x="0.500000" y="0.500000" opacity="0" stroke="rgb(151,151,151)" stroke-opacity="0" stroke-width="1" />
		<g id="编组">
			<path id="路径备份 6" d="M3.57861 11.2603L8.07861 13.7603L12.5786 11.2603L12.5786 6.26025L8.07861 3.76025L3.57861 6.26025L3.57861 11.2603Z" fill="rgb(181,245,236)" fill-rule="evenodd" />
			<path id="形状" d="M3.10379 13.4023L7.41454 15.7908C7.58496 15.8841 7.77626 15.9327 7.97184 15.932C8.16646 15.9319 8.35798 15.8834 8.52915 15.7908L12.8399 13.4023L12.89 13.4434C13.4561 13.9144 14.2439 14.0146 14.9099 13.7002C15.5346 13.4151 15.9312 12.7924 15.9312 12.112C15.9312 12.0778 15.9302 12.0435 15.9282 12.0091C15.8794 11.3002 15.3901 10.689 14.6877 10.4604L14.6248 10.4399L14.6248 5.66428C14.6235 5.28162 14.4117 4.92977 14.0675 4.73716L9.72722 2.33587L9.74777 2.26782C9.79934 2.10214 9.82438 1.93307 9.82438 1.76559C9.82438 1.26586 9.60147 0.78036 9.1956 0.441812C8.64531 -0.0115527 7.88715 -0.117735 7.23348 0.167012C6.57859 0.452085 6.15868 1.07745 6.15868 1.76573C6.15896 1.92932 6.18318 2.09198 6.23059 2.24855L6.24985 2.31661L1.87746 4.73844C1.53781 4.9228 1.32457 5.27657 1.32016 5.663L1.32016 10.4399L1.25595 10.4604C0.553546 10.6877 0.0630164 11.3002 0.0142203 12.0104C0.0122201 12.0446 0.0112305 12.0787 0.0112305 12.1127C0.0112305 12.7936 0.408466 13.4167 1.0338 13.7015C1.69978 14.0159 2.48759 13.9157 3.05371 13.4447L3.10379 13.4023ZM3.63086 11.716L3.63062 11.7149L3.63062 11.7162L3.63086 11.716ZM3.63086 11.716L3.64346 11.7765C3.66722 11.8908 3.6791 12.0064 3.6791 12.1221C3.6791 12.2378 3.66722 12.3537 3.64346 12.4686L3.63062 12.5303L7.97091 14.9354L12.3138 12.5341L12.3009 12.4699C12.2769 12.3565 12.265 12.2411 12.265 12.1258C12.265 12.0104 12.2769 11.8951 12.3009 11.7816L12.3138 11.7174L10.7805 10.8686L8.23544 12.2735C8.07158 12.362 7.8741 12.362 7.71024 12.2735L5.16385 10.8648L3.63086 11.716ZM14.1 11.3722C13.8963 11.3681 13.6993 11.4451 13.5524 11.5862C13.4055 11.7273 13.3207 11.921 13.3167 12.1247C13.3179 12.5395 13.6685 12.8759 14.1013 12.8759C14.534 12.8759 14.8846 12.5395 14.8846 12.1247C14.8761 11.7016 14.527 11.365 14.1038 11.3722L14.1 11.3722ZM1.84283 11.3722C1.41919 11.3643 1.06924 11.7011 1.06081 12.1247C1.06081 12.5395 1.41265 12.8759 1.84411 12.8759C2.27814 12.8759 2.62742 12.5395 2.6287 12.1247C2.62027 11.7011 2.27032 11.3643 1.84668 11.3722L1.84283 11.3722ZM5.68856 7.46606L5.68856 9.99576L7.97171 11.2606L10.2549 9.99576L10.2549 7.46606L7.97171 6.20121L5.68856 7.46606L5.68856 7.46606ZM9.06634 3.18969C8.91224 3.29884 8.74146 3.38231 8.5604 3.43881L8.49619 3.45807L8.49619 5.3303L11.04 6.73769C11.2057 6.82757 11.3071 6.99451 11.3071 7.17557L11.3071 9.99547L12.8416 10.8443L12.8917 10.8019C13.0746 10.649 13.2851 10.5326 13.5119 10.459L13.5761 10.4385L13.5761 5.62693L9.11385 3.15759L9.06505 3.19098L9.06634 3.18969ZM2.36939 5.62811L2.36939 10.4384L2.4336 10.4589C2.66089 10.5321 2.87276 10.649 3.05382 10.8018L3.10262 10.8442L4.63841 9.99536L4.63841 7.17418C4.64065 6.99272 4.74087 6.82668 4.90037 6.74015L7.44805 5.32891L7.44805 3.44641L7.38512 3.42458C7.21271 3.36771 7.04991 3.28501 6.9023 3.17931L6.8535 3.14207L2.36939 5.62682L2.36939 5.62811ZM7.99246 1.01567C7.67996 1.01218 7.3951 1.19419 7.26694 1.47923C7.22682 1.57233 7.20738 1.67044 7.20738 1.76766C7.20738 1.96511 7.28758 2.1589 7.43773 2.29977C7.66675 2.51597 8.00043 2.5796 8.29295 2.46286C8.58209 2.35249 8.77417 2.07634 8.77705 1.76687C8.76654 1.34334 8.41605 1.00777 7.99246 1.01567Z" fill="rgb(92,219,211)" fill-rule="evenodd" />
			<path id="路径" d="M8.00047 0.000318154C7.28466 -0.00779717 6.63214 0.416172 6.33859 1.08012C6.06007 1.73742 6.21651 2.50174 6.72979 2.99145C7.25439 3.49506 8.01872 3.64327 8.68875 3.37133C9.35106 3.11424 9.79103 2.471 9.79765 1.75013C9.77356 0.763594 8.97073 -0.0180781 8.00047 0.000318154L8.00047 0.000318154Z" fill="rgb(92,219,211)" fill-rule="evenodd" />
			<path id="路径" d="M14.1107 10.4271C13.6437 10.4177 13.192 10.5926 12.8551 10.9131C12.5182 11.2337 12.3237 11.6737 12.3145 12.1363C12.3174 13.0783 13.1213 13.8425 14.1137 13.8425C15.106 13.8425 15.91 13.0783 15.91 12.1363C15.8906 11.1752 15.0899 10.4109 14.1196 10.4271L14.1107 10.4271L14.1107 10.4271Z" fill="rgb(92,219,211)" fill-rule="evenodd" />
			<path id="路径" d="M1.79334 10.4271C0.821856 10.4092 0.01933 11.174 0 12.1362C0 13.0783 0.806854 13.8425 1.79628 13.8425C2.7916 13.8425 3.59256 13.0783 3.59551 12.1362C3.57618 11.174 2.77365 10.4092 1.80217 10.4271L1.79334 10.4271L1.79334 10.4271Z" fill="rgb(92,219,211)" fill-rule="evenodd" />
			<path id="路径" d="M4.67432 6.94376L4.67432 10.5842L7.95522 12.4044L11.2361 10.5842L11.2361 6.94376L7.95522 5.12354L4.67432 6.94376L4.67432 6.94376Z" fill="rgb(19,194,194)" fill-rule="evenodd" />
		</g>
	</g>
</svg>
