<svg viewBox="0 0 16 16" xmlns="http://www.w3.org/2000/svg" xmlns:xlink="http://www.w3.org/1999/xlink" width="16.000000" height="16.000000" fill="none" customFrame="#000000">
	<rect id="2D 服务图标/质量报告" width="16.000000" height="16.000000" x="0.000000" y="0.000000" />
	<g id="icon icon-quality-report-2d">
		<rect id="矩形" width="16.000000" height="16.000000" x="0.000000" y="0.000000" opacity="0" fill="rgb(216,216,216)" />
		<rect id="矩形" width="15.000000" height="15.000000" x="0.500000" y="0.500000" opacity="0" stroke="rgb(151,151,151)" stroke-opacity="0" stroke-width="1" />
		<path id="形状结合" d="M13 8.43896L13 14C13 14.5523 12.5523 15 12 15L10.0249 15L8.16403 13.7066C8.03854 13.6193 7.9637 13.4762 7.9637 13.3234L7.9637 9.35203C7.9637 9.14367 8.10183 8.96056 8.30217 8.90332L11.4637 8.00002L13 8.43896ZM13 7.22594L11.4622 6.78658L7.9802 7.78145C7.279 7.98179 6.79557 8.62268 6.79557 9.35194L6.79557 13.3233C6.79557 13.8582 7.05748 14.3592 7.49671 14.6645L7.97947 15L2 15C1.44772 15 1 14.5523 1 14L1 2C1 1.44772 1.44772 1 2 1L9 1L9 3C9 4.10457 9.89543 5 11 5L13 5L13 7.22594Z" fill="rgb(218,255,200)" fill-rule="evenodd" />
		<path id="形状结合" d="M13 7.22594L11.4622 6.78658L7.9802 7.78145C7.279 7.98179 6.79557 8.62268 6.79557 9.35194L6.79557 13.3233C6.79557 13.8582 7.05748 14.3592 7.49671 14.6645L7.97947 15L2 15C1.44772 15 1 14.5523 1 14L1 2C1 1.44772 1.44772 1 2 1L9 1L9 3C9 4.10457 9.89543 5 11 5L13 5L13 7.22594ZM10.6464 5.97965Q10.5024 5.96285 10.3615 5.93221Q10.0912 5.87347 9.83196 5.76383Q9.57377 5.65463 9.34405 5.50246Q9.09458 5.33722 8.87868 5.12132Q8.6629 4.90554 8.49772 4.65623L8.49754 4.65596Q8.34537 4.42623 8.23617 4.16804Q8.12653 3.90882 8.06779 3.63855L8.06778 3.63853Q8 3.32663 8 3L8 2L2 2L2 14L5.88286 14Q5.87644 13.9759 5.87048 13.9516L5.87047 13.9516Q5.79557 13.6466 5.79557 13.3233L5.79557 9.35194Q5.79557 9.12435 5.83374 8.90335L5.83375 8.90328L5.83376 8.90324Q5.86858 8.70167 5.93515 8.50559Q6.00149 8.31019 6.09613 8.12964Q6.19569 7.93968 6.32659 7.76615Q6.45748 7.59263 6.61276 7.44471L6.61278 7.44469Q6.76039 7.30409 6.93003 7.18664Q7.10029 7.06876 7.28454 6.9799L7.28456 6.97989L7.28461 6.97987Q7.48663 6.88245 7.70547 6.81992L10.6464 5.97965ZM13 8.43896L13 14C13 14.5523 12.5523 15 12 15L10.0249 15L8.16403 13.7066C8.03854 13.6193 7.9637 13.4762 7.9637 13.3234L7.9637 9.35203C7.9637 9.14367 8.10183 8.96056 8.30217 8.90332L11.4637 8.00002L13 8.43896ZM12 9.19327L11.4637 9.04004L8.96371 9.75432L8.96371 13.0446L10.3383 14L12 14L12 9.19327Z" fill="rgb(126,215,82)" fill-opacity="0" fill-rule="evenodd" />
		<path id="矩形" d="M10 1L13 4L11 4C10.4477 4 10 3.55228 10 3L10 1Z" fill="rgb(163,238,125)" fill-rule="evenodd" />
		<path id="矩形" d="M12 3L13 4L11 4C10.4477 4 10 3.55228 10 3L10 1L12 3Z" fill="rgb(255,255,255)" fill-opacity="0" fill-rule="evenodd" />
		<rect id="矩形" width="5.000000" height="1.600000" x="3.000000" y="4.000000" rx="0.800000" fill="rgb(163,238,125)" />
		<rect id="矩形" width="4.000000" height="0.600000" x="3.500000" y="4.500000" rx="0.300000" stroke="rgb(151,151,151)" stroke-opacity="0" stroke-width="1" />
		<path id="形状结合" d="M10.9973 8.13324C10.9991 8.15522 11 8.17745 11 8.1999C11 8.64173 10.6418 8.9999 10.2 8.9999L8.12404 8.9999C8.17445 8.95601 8.23479 8.92252 8.30217 8.90327L10.9973 8.13324ZM9.31543 7.3999L7.9802 7.7814C7.39463 7.9487 6.96093 8.42324 6.83382 8.9999L3.8 8.9999C3.35817 8.9999 3 8.64173 3 8.1999C3 7.75807 3.35817 7.3999 3.8 7.3999L9.31543 7.3999Z" fill="rgb(163,238,125)" fill-rule="evenodd" />
		<path id="形状结合" d="M9.31543 7.3999L7.9802 7.7814C7.39463 7.9487 6.96093 8.42324 6.83382 8.9999L3.8 8.9999C3.35817 8.9999 3 8.64173 3 8.1999C3 7.75807 3.35817 7.3999 3.8 7.3999L9.31543 7.3999ZM10.9973 8.13324C10.9991 8.15521 11 8.17743 11 8.19987L11 8.1999C11 8.64173 10.6418 8.9999 10.2 8.9999L8.12404 8.9999C8.17445 8.95601 8.23479 8.92252 8.30217 8.90327L10.9973 8.13324Z" fill="rgb(151,151,151)" fill-opacity="0" fill-rule="evenodd" />
		<path id="形状结合" d="M7.9637 11.3613C7.98729 11.4368 8 11.5171 8 11.6003C8 11.6835 7.98729 11.7638 7.9637 11.8392L7.9637 11.3613ZM6.79557 10.8003L6.79557 12.4003L3.8 12.4003C3.35817 12.4003 3 12.0421 3 11.6003C3 11.1585 3.35817 10.8003 3.8 10.8003L6.79557 10.8003Z" fill="rgb(163,238,125)" fill-rule="evenodd" />
		<path id="形状结合" d="M6.79557 10.8003L6.79557 12.4003L3.8 12.4003C3.35817 12.4003 3 12.0421 3 11.6003C3 11.1585 3.35817 10.8003 3.8 10.8003L6.79557 10.8003ZM7.9637 11.3613C7.98729 11.4368 8 11.5171 8 11.6003C8 11.6835 7.98729 11.7638 7.9637 11.8392L7.9637 11.3613Z" fill="rgb(151,151,151)" fill-opacity="0" fill-rule="evenodd" />
		<path id="矩形" d="M8.30233 8.9033L11.4639 8L14.6254 8.9033C14.8257 8.96054 14.9639 9.14365 14.9639 9.35201L14.9639 13.3233C14.9639 13.4762 14.889 13.6193 14.7635 13.7065L11.7302 15.8149C11.5701 15.9262 11.3576 15.9262 11.1975 15.8149L8.16419 13.7065C8.0387 13.6193 7.96387 13.4762 7.96387 13.3233L7.96387 9.35201C7.96387 9.14365 8.10199 8.96054 8.30233 8.9033Z" fill="rgb(126,215,82)" fill-rule="evenodd" />
		<path id="矩形" d="M11.4639 8L8.30233 8.9033C8.10199 8.96054 7.96387 9.14365 7.96387 9.35201L7.96387 13.3233C7.96387 13.4762 8.0387 13.6193 8.16419 13.7065L11.1975 15.8149C11.3576 15.9262 11.5701 15.9262 11.7302 15.8149L14.7635 13.7065C14.889 13.6193 14.9639 13.4762 14.9639 13.3233L14.9639 9.35201C14.9639 9.14365 14.8257 8.96054 14.6254 8.9033L11.4639 8ZM11.4639 9.04002L8.96387 9.7543L8.96387 13.0445L11.4639 14.7822L13.9639 13.0445L13.9639 9.7543L11.4639 9.04002Z" fill="rgb(255,255,255)" fill-opacity="0" fill-rule="evenodd" />
		<path id="形状结合" d="M2.50098 4C2.77712 4 3.00098 3.77614 3.00098 3.5L3.00098 0.5C3.00098 0.223858 2.77712 0 2.50098 0C2.22483 0 2.00098 0.223858 2.00098 0.5L2.00098 3L0.5 3C0.223858 3 0 3.22386 0 3.5C0 3.77614 0.223858 4 0.5 4L2.50098 4Z" fill="rgb(218,255,200)" fill-rule="evenodd" transform="matrix(0.707107,0.707107,-0.707107,0.707107,11.866,8.4834)" />
		<path id="形状结合" d="M3.00098 3.5C3.00098 3.77614 2.77712 4 2.50098 4L0.5 4C0.223858 4 0 3.77614 0 3.5C0 3.22386 0.223858 3 0.5 3L2.00098 3L2.00098 0.5C2.00098 0.223858 2.22483 0 2.50098 0C2.77712 0 3.00098 0.223858 3.00098 0.5L3.00098 3.5Z" fill="rgb(151,151,151)" fill-opacity="0" fill-rule="evenodd" transform="matrix(0.707107,0.707107,-0.707107,0.707107,11.866,8.4834)" />
	</g>
</svg>
