<svg viewBox="0 0 16 16" xmlns="http://www.w3.org/2000/svg" xmlns:xlink="http://www.w3.org/1999/xlink" width="16.000000" height="16.000000" fill="none">
	<rect id="2D 服务图标/服务树 ServiceTree" width="16.000000" height="16.000000" x="0.000000" y="0.000000" />
	<g id="资源库">
		<g id="服务图标">
			<g id="icon-icon-service-tree">
				<rect id="矩形" width="16.000000" height="16.000000" x="0.000000" y="0.000000" opacity="0" fill="rgb(216,216,216)" />
				<rect id="矩形" width="16.000000" height="16.000000" x="0.000000" y="0.000000" opacity="0" stroke="rgb(0,0,0)" stroke-opacity="0" stroke-width="1" />
				<rect id="矩形" width="11.000000" height="1.000000" x="2.500000" y="8.000000" fill="rgb(255,192,105)" />
				<rect id="矩形" width="11.000000" height="1.000000" x="2.500000" y="8.000000" stroke="rgb(0,0,0)" stroke-opacity="0" stroke-width="1" />
				<rect id="形状结合" width="10.000000" height="1.000000" x="0.000000" y="0.000000" rx="0.500000" fill="rgb(250,140,22)" transform="matrix(0,1,-1,0,8.5,4)" />
				<rect id="形状结合" width="10.000000" height="1.000000" x="0.000000" y="0.000000" rx="0.500000" stroke="rgb(0,0,0)" stroke-opacity="0" stroke-width="1" transform="matrix(0,1,-1,0,8.5,4)" />
				<path id="形状结合" d="M5 1.72421e-32C5.55228 -1.01453e-16 6 0.447715 6 1L6 4L4.73239 3.99993C4.38657 3.40217 3.74025 3 3 3C1.89543 3 1 3.89543 1 5C1 6.10457 1.89543 7 3 7C3.73984 7 4.38585 6.59828 4.73181 6.00108L6 6L6 9C6 9.55229 5.55228 10 5 10L1 10C0.447715 10 0 9.55229 0 9L0 1C0 0.447715 0.447715 1.01453e-16 1 1.72421e-32L5 1.72421e-32Z" fill="rgb(255,231,186)" fill-rule="evenodd" transform="matrix(0,1,-1,0,13,0.5)" />
				<path id="形状结合" d="M6 1L6 4L4.73239 3.99993C4.38657 3.40217 3.74025 3 3 3C1.89543 3 1 3.89543 1 5C1 6.10457 1.89543 7 3 7C3.73984 7 4.38585 6.59828 4.73181 6.00108L6 6L6 9C6 9.55229 5.55228 10 5 10L1 10C0.447715 10 0 9.55229 0 9L0 1C0 0.447715 0.447715 1.01453e-16 1 1.72421e-32L5 1.72421e-32C5.55228 -1.01453e-16 6 0.447715 6 1Z" fill-rule="evenodd" stroke="rgb(0,0,0)" stroke-opacity="0" stroke-width="1" transform="matrix(0,1,-1,0,13,0.5)" />
				<rect id="矩形" width="1.000000" height="6.000000" x="2.000000" y="8.000000" rx="0.500000" fill="rgb(255,192,105)" />
				<rect id="矩形" width="1.000000" height="6.000000" x="2.000000" y="8.000000" rx="0.500000" stroke="rgb(0,0,0)" stroke-opacity="0" stroke-width="1" />
				<rect id="矩形备份-3" width="1.000000" height="6.000000" x="13.000000" y="8.000000" rx="0.500000" fill="rgb(255,192,105)" />
				<rect id="矩形备份-3" width="1.000000" height="6.000000" x="13.000000" y="8.000000" rx="0.500000" stroke="rgb(0,0,0)" stroke-opacity="0" stroke-width="1" />
				<path id="形状结合" d="M8 2C8.82843 2 9.5 2.67157 9.5 3.5C9.5 4.32843 8.82843 5 8 5C7.17157 5 6.5 4.32843 6.5 3.5C6.5 2.67157 7.17157 2 8 2ZM8 3C7.72386 3 7.5 3.22386 7.5 3.5C7.5 3.77614 7.72386 4 8 4C8.27614 4 8.5 3.77614 8.5 3.5C8.5 3.22386 8.27614 3 8 3Z" fill="rgb(250,140,22)" fill-rule="evenodd" />
				<path id="形状结合" d="M9.5 3.5C9.5 4.32843 8.82843 5 8 5C7.17157 5 6.5 4.32843 6.5 3.5C6.5 2.67157 7.17157 2 8 2C8.82843 2 9.5 2.67157 9.5 3.5ZM7.5 3.5C7.5 3.77614 7.72386 4 8 4C8.27614 4 8.5 3.77614 8.5 3.5C8.5 3.22386 8.27614 3 8 3C7.72386 3 7.5 3.22386 7.5 3.5Z" fill-rule="evenodd" stroke="rgb(0,0,0)" stroke-opacity="0" stroke-width="1" />
				<rect id="矩形" width="5.000000" height="4.000000" x="5.500000" y="11.500000" rx="1.000000" fill="rgb(255,192,105)" />
				<rect id="矩形" width="5.000000" height="4.000000" x="5.500000" y="11.500000" rx="1.000000" stroke="rgb(0,0,0)" stroke-opacity="0" stroke-width="1" />
				<rect id="矩形备份" width="5.000000" height="4.000000" x="11.000000" y="11.500000" rx="1.000000" fill="rgb(255,231,186)" />
				<rect id="矩形备份" width="5.000000" height="4.000000" x="11.000000" y="11.500000" rx="1.000000" stroke="rgb(0,0,0)" stroke-opacity="0" stroke-width="1" />
				<rect id="矩形备份-2" width="5.000000" height="4.000000" x="0.000000" y="11.500000" rx="1.000000" fill="rgb(255,231,186)" />
				<rect id="矩形备份-2" width="5.000000" height="4.000000" x="0.000000" y="11.500000" rx="1.000000" stroke="rgb(0,0,0)" stroke-opacity="0" stroke-width="1" />
			</g>
		</g>
	</g>
</svg>
