<svg viewBox="0 0 16 16" xmlns="http://www.w3.org/2000/svg" xmlns:xlink="http://www.w3.org/1999/xlink" width="16.000000" height="16.000000" fill="none" customFrame="#000000">
	<rect id="状态图标/信息" width="16.000000" height="16.000000" x="0.000000" y="0.000000" fill="rgb(255,255,255)" fill-opacity="0" />
	<path id="减去顶层" />
	<path id="减去顶层" d="M15 8C15 4.13401 11.866 1 8 1C4.13401 1 1 4.13401 1 8C1 11.866 4.13401 15 8 15C11.866 15 15 11.866 15 8ZM7.9999 5.7938C7.50303 5.7938 7.0999 5.39067 7.0999 4.8938C7.0999 4.39692 7.50303 3.9938 7.9999 3.9938C8.49678 3.9938 8.8999 4.39692 8.8999 4.8938C8.8999 5.39067 8.49678 5.7938 7.9999 5.7938ZM8.4999 11.3439C8.4999 11.62 8.27604 11.8439 7.9999 11.8439C7.72376 11.8439 7.4999 11.62 7.4999 11.3439L7.4999 7.34387C7.4999 7.06773 7.72376 6.84387 7.9999 6.84387C8.27604 6.84387 8.4999 7.06773 8.4999 7.34387L8.4999 11.3439Z" fill="rgb(10,89,247)" fill-rule="evenodd" />
</svg>
