<svg viewBox="0 0 32 32" xmlns="http://www.w3.org/2000/svg" xmlns:xlink="http://www.w3.org/1999/xlink" width="32.000000" height="32.000000" fill="none" customFrame="#000000">
	<mask id="mask_147" width="8.386666" height="21.333334" x="3.333496" y="5.333374" maskUnits="userSpaceOnUse">
		<g filter="url(#pixso_custom_mask_type_outline)">
			<path id="蒙版" d="M6.3335 5.33337L3.3335 26.6667L8.72016 26.6667L11.7202 5.33337L6.3335 5.33337Z" fill="rgb(255,255,255)" fill-rule="evenodd" />
		</g>
	</mask>
	<mask id="mask_146" width="8.326667" height="21.333334" x="19.337891" y="5.333374" maskUnits="userSpaceOnUse">
		<g filter="url(#pixso_custom_mask_type_outline)">
			<path id="蒙版" d="M22.3379 5.33337L19.3379 26.6667L24.6646 26.6667L27.6646 5.33337L22.3379 5.33337Z" fill="rgb(255,255,255)" fill-rule="evenodd" />
		</g>
	</mask>
	<defs>
		<filter id="pixso_custom_mask_type_outline">
			<feColorMatrix type="matrix" values="0 0 0 0 1 0 0 0 0 1 0 0 0 0 1 0 0 0 1 0 " />
		</filter>
		<linearGradient id="paint_linear_353" x1="27.6645584" x2="20.1988983" y1="3.1874795" y2="22.507906" gradientUnits="userSpaceOnUse">
			<stop stop-color="rgb(54,176,255)" offset="0" stop-opacity="1" />
			<stop stop-color="rgb(195,255,250)" offset="1" stop-opacity="1" />
		</linearGradient>
		<linearGradient id="paint_linear_354" x1="27.3581085" x2="21.1837845" y1="10.0026598" y2="12.383193" gradientUnits="userSpaceOnUse">
			<stop stop-color="rgb(10,11,35)" offset="0" stop-opacity="1" />
			<stop stop-color="rgb(46,153,255)" offset="1" stop-opacity="0" />
		</linearGradient>
		<linearGradient id="paint_linear_355" x1="26.914711" x2="21.6949997" y1="12.4797888" y2="14.8674459" gradientUnits="userSpaceOnUse">
			<stop stop-color="rgb(37,43,58)" offset="0" stop-opacity="1" />
			<stop stop-color="rgb(37,43,58)" offset="1" stop-opacity="1" />
		</linearGradient>
		<linearGradient id="paint_linear_356" x1="25.0230751" x2="20.5433693" y1="21.4676571" y2="20.5142822" gradientUnits="userSpaceOnUse">
			<stop stop-color="rgb(10,11,35)" offset="0" stop-opacity="1" />
			<stop stop-color="rgb(46,153,255)" offset="1" stop-opacity="0" />
		</linearGradient>
		<linearGradient id="paint_linear_357" x1="25.4167614" x2="20.740921" y1="20.7706909" y2="21.2748775" gradientUnits="userSpaceOnUse">
			<stop stop-color="rgb(37,43,58)" offset="0" stop-opacity="1" />
			<stop stop-color="rgb(37,43,58)" offset="1" stop-opacity="1" />
		</linearGradient>
		<linearGradient id="paint_linear_358" x1="8.72376633" x2="7.16076612" y1="9.33705902" y2="24.2323875" gradientUnits="userSpaceOnUse">
			<stop stop-color="rgb(54,176,255)" offset="0" stop-opacity="1" />
			<stop stop-color="rgb(122,209,255)" offset="1" stop-opacity="1" />
		</linearGradient>
		<linearGradient id="paint_linear_359" x1="13.1590433" x2="2.52610683" y1="20.4986229" y2="17.8925743" gradientUnits="userSpaceOnUse">
			<stop stop-color="rgb(46,153,255)" offset="0" stop-opacity="0" />
			<stop stop-color="rgb(10,11,35)" offset="1" stop-opacity="1" />
		</linearGradient>
		<linearGradient id="paint_linear_360" x1="14.0996161" x2="5.37311363" y1="18.7634277" y2="21.0667801" gradientUnits="userSpaceOnUse">
			<stop stop-color="rgb(37,43,58)" offset="0" stop-opacity="1" />
			<stop stop-color="rgb(37,43,58)" offset="1" stop-opacity="1" />
		</linearGradient>
		<linearGradient id="paint_linear_361" x1="10.3580151" x2="4.4062705" y1="15.5029554" y2="11.8857117" gradientUnits="userSpaceOnUse">
			<stop stop-color="rgb(46,153,255)" offset="0" stop-opacity="0" />
			<stop stop-color="rgb(10,11,35)" offset="1" stop-opacity="1" />
		</linearGradient>
		<linearGradient id="paint_linear_362" x1="10.8844957" x2="5.99987221" y1="13.0944662" y2="16.291563" gradientUnits="userSpaceOnUse">
			<stop stop-color="rgb(37,43,58)" offset="0" stop-opacity="1" />
			<stop stop-color="rgb(37,43,58)" offset="1" stop-opacity="1" />
		</linearGradient>
		<linearGradient id="paint_linear_363" x1="14.6569376" x2="5.583498" y1="7.11734104" y2="8.87885475" gradientUnits="userSpaceOnUse">
			<stop stop-color="rgb(43,184,255)" offset="0" stop-opacity="1" />
			<stop stop-color="rgb(249,252,255)" offset="1" stop-opacity="1" />
		</linearGradient>
		<linearGradient id="paint_linear_364" x1="5.09361744" x2="16.535799" y1="22.7375183" y2="26.6665859" gradientUnits="userSpaceOnUse">
			<stop stop-color="rgb(68,159,248)" offset="0" stop-opacity="1" />
			<stop stop-color="rgb(75,211,255)" offset="1" stop-opacity="1" />
		</linearGradient>
		<linearGradient id="paint_linear_365" x1="27.2693253" x2="17.2932243" y1="6.31149673" y2="8.26349449" gradientUnits="userSpaceOnUse">
			<stop stop-color="rgb(255,255,255)" offset="0" stop-opacity="1" />
			<stop stop-color="rgb(255,255,255)" offset="1" stop-opacity="0" />
		</linearGradient>
		<linearGradient id="paint_linear_366" x1="9.68887901" x2="-0.492588997" y1="22.6009693" y2="25.1306515" gradientUnits="userSpaceOnUse">
			<stop stop-color="rgb(255,255,255)" offset="0" stop-opacity="1" />
			<stop stop-color="rgb(255,255,255)" offset="1" stop-opacity="0" />
		</linearGradient>
	</defs>
	<mask id="mask_145" width="32.000000" height="32.000000" x="0.000000" y="0.000000" maskUnits="userSpaceOnUse">
		<g filter="url(#pixso_custom_mask_type_outline)">
			<rect id="蒙版" width="32.000000" height="32.000000" x="0.000000" y="0.000000" rx="2.666667" fill="rgb(255,255,255)" />
			<rect id="蒙版" width="31.000000" height="31.000000" x="0.500000" y="0.500000" rx="2.166667" stroke="rgb(236,242,244)" stroke-opacity="0" stroke-width="1" />
		</g>
	</mask>
	<rect id="工程首字母图标/0-32x33" width="32.000000" height="32.000000" x="0.000000" y="0.000000" />
	<rect id="矩形" width="32.000000" height="32.000000" x="0.000000" y="0.000000" rx="2.666667" fill="rgb(255,255,255)" />
	<rect id="矩形" width="31.000000" height="31.000000" x="0.500000" y="0.500000" rx="2.166667" stroke="rgb(151,151,151)" stroke-opacity="0" stroke-width="1" />
	<g id="形状" showMaskRef="url(#show_mask_126)" mask="url(#mask_145)">
		<g id="show_mask_126">
			<rect id="蒙版" width="32.000000" height="32.000000" x="0.000000" y="0.000000" rx="2.666667" fill="rgb(255,255,255)" />
			<rect id="蒙版" width="31.000000" height="31.000000" x="0.500000" y="0.500000" rx="2.166667" stroke="rgb(236,242,244)" stroke-opacity="0" stroke-width="1" />
		</g>
		<path id="形状结合" d="M16.2846 0.46909L16.2846 -14.0002L17.284 -14.0002L17.284 0.0230894L23.2266 5.34576L25.942 2.46042L25.942 -9.40558L22.5713 -12.6869L23.27 -13.4036L26.942 -9.82758L26.942 2.85642L23.2866 6.74176L16.2846 0.46909ZM13.1337 9.48492L13.1337 -13.8491L14.133 -13.8491L14.133 9.08892L20.151 15.4989L22.7223 15.4989L22.7223 9.85759L29.1603 3.06092L29.1603 -10.4857L30.1603 -10.4857L30.1603 3.45892L23.7217 10.2563L23.7217 16.4989L19.7183 16.4989L13.1337 9.48492ZM-3.65558 -7.1008L0.88575 -2.66147L4.24175 -5.76013L10.9837 -5.76013L10.9837 -13.4968L9.98375 -13.4968L9.98375 -6.76013L3.85042 -6.76013L0.905083 -4.04013L-2.95625 -7.81547L-3.65558 -7.1008ZM6.69582 -9.66783L7.69582 -9.66783L7.69582 -12.8092L6.69582 -12.8092L6.69582 -9.66783ZM23.7572 -5.4309L20.2099 -8.7489L20.8932 -9.4789L22.7572 -7.73557L22.7572 -9.4049L20.1725 -11.9082L20.8685 -12.6269L23.7572 -9.82823L23.7572 -5.4309ZM3.68264 -9.66784L4.68264 -9.66784L4.68264 -11.7525L3.68264 -11.7525L3.68264 -9.66784ZM0.968266 -5.83846L-1.78907 -8.4718L-1.0984 -9.19446L0.958266 -7.23046L2.20227 -8.45113L0.682933 -10.1971L1.4376 -10.8531L3.57427 -8.39646L0.968266 -5.83846ZM7.6611 45.1315L6.6611 45.1315L6.6611 34.9682L32.2764 9.54083L32.2764 -8.5665L33.2764 -8.5665L33.2764 9.9575L7.6611 35.3848L7.6611 45.1315ZM22.8752 -3.4316L20.2585 -5.6376L20.9032 -6.4016L23.5198 -4.1956L22.8752 -3.4316ZM-11.139 1.68732L13.7417 26.252L20.847 19.0426L-4.68164 -6.21335L-5.38431 -5.50268L19.4344 19.0513L13.7317 24.8366L-10.437 0.975316L-11.139 1.68732ZM22.0549 22.834L26.6962 22.834L32.8516 16.4987L36.1982 16.4987L43.1229 9.80738L43.1229 3.08871L42.1229 3.08871L42.1229 9.38271L35.7942 15.4987L32.4289 15.4987L26.2736 21.834L24.4596 21.834L36.4962 9.73338L36.4962 -6.01929L35.4962 -6.01929L35.4962 9.32004L22.0549 22.834ZM16.6713 19.5716L-6.91207 -3.97843L-6.2054 -4.68577L17.3779 18.8642L16.6713 19.5716ZM10.9842 6.47857L9.98418 6.47857L9.98418 -2.6781L4.68285 -2.6781L4.68285 0.245903L3.68285 0.245903L3.68285 -3.6781L10.9842 -3.6781L10.9842 6.47857ZM22.8748 -0.247309L20.2462 -2.46331L20.8908 -3.22798L23.5195 -1.01131L22.8748 -0.247309ZM-9.98987 -0.181266L13.6261 23.0287L16.1335 20.6647L-7.76254 -2.95727L-8.4652 -2.2466L14.6941 20.6481L13.6401 21.6407L-9.2892 -0.895266L-9.98987 -0.181266ZM36.3498 13.2793L35.6431 12.5713L38.6811 9.542L38.6811 -2.49534L39.6811 -2.49534L39.6811 9.95733L36.3498 13.2793ZM6.83352 3.46487L7.83352 3.46487L7.83352 -0.166468L6.83352 -0.166468L6.83352 3.46487ZM22.8741 3.04042L20.2488 0.827086L20.8935 0.0624199L23.5188 2.27642L22.8741 3.04042ZM20.1453 6.98441L16.4473 3.59374L17.1226 2.85708L20.8213 6.24774L20.1453 6.98441ZM-12.1384 3.59598L-3.31304 12.2113L-14.443 12.2113L-14.443 13.2113L-0.857703 13.2113L-11.4397 2.87932L-12.1384 3.59598ZM-13.2849 6.3134L-9.96956 9.50407L-14.0469 9.50407L-14.0469 10.5041L-7.48822 10.5041L-12.5916 5.5934L-13.2849 6.3134ZM20.9833 14.056L16.4386 9.69004L17.1313 8.96871L19.9833 11.7087L19.9833 9.81471L16.4466 6.56404L17.1233 5.82804L20.9833 9.37538L20.9833 14.056ZM29.1607 9.74953L30.1607 9.74953L30.1607 6.20487L29.1607 6.20487L29.1607 9.74953ZM25.9854 12.9249L26.9854 12.9249L26.9854 9.38086L25.9854 9.38086L25.9854 12.9249ZM19.6401 29.0134L32.0121 41.386L32.7194 40.6787L20.6401 28.5994L20.6401 25.9507L29.8661 25.9507L45.3141 10.6007L44.6094 9.89137L29.4541 24.9507L19.6401 24.9507L19.6401 29.0134ZM38.3143 19.5469L42.8783 19.5469L45.8323 16.6343L45.1309 15.9223L42.4689 18.5469L40.6629 18.5469L45.7249 13.2823L45.0043 12.5896L38.3143 19.5469ZM-14.6665 16.4988L-14.6665 15.4988L1.12283 15.4988L4.97416 18.9968L4.97416 44.2261L3.9735 44.2261L3.9735 19.4395L0.736163 16.4988L-14.6665 16.4988ZM-14.5077 19.3757L-14.5077 18.3757L1.70301 18.3757L1.70301 22.7591L-1.82366 26.0117L-1.82366 29.2631L-7.98299 35.0277L-8.66632 34.2971L-6.5908 32.3549L-10.2644 32.3549L-10.2644 31.3549L-5.52215 31.3549L-2.82366 28.8298L-2.82366 25.5737L0.703011 22.3211L0.703011 19.3757L-14.5077 19.3757ZM30.0253 22.8821L29.296 22.1974L32.5753 18.7041L33.3046 19.3895L30.0253 22.8821ZM35.6091 21.7316L42.1958 21.7316L45.0098 18.9756L45.7091 19.691L42.6038 22.7316L36.0398 22.7316L29.8751 29.2383L23.1024 29.2383L23.1024 28.2383L29.4451 28.2383L35.6091 21.7316ZM11.9176 27.2838L5.99296 21.5992L6.68496 20.8778L12.6096 26.5625L11.9176 27.2838ZM-14.0717 22.6975L-1.94775 22.6975L-1.94775 21.6975L-14.0717 21.6975L-14.0717 22.6975ZM10.1372 28.7221L5.99315 24.7501L6.68515 24.0287L10.8292 28.0007L10.1372 28.7221ZM39.5521 29.2448L38.8108 28.5741L42.1781 24.8481L44.1961 24.8481L44.1961 25.8481L42.6221 25.8481L39.5521 29.2448ZM33.1476 29.2448L32.4056 28.5741L35.6249 25.0121L36.3669 25.6828L33.1476 29.2448ZM36.3322 29.2448L35.5902 28.5741L38.8095 25.0121L39.5515 25.6828L36.3322 29.2448ZM-9.09086 29.2383L-4.70086 29.2383L-4.70086 25.211L-5.70086 25.211L-5.70086 28.2383L-8.09086 28.2383L-8.09086 25.0443L-12.4475 25.0443L-12.4475 28.487L-11.4475 28.487L-11.4475 26.0443L-9.09086 26.0443L-9.09086 29.2383ZM-6.49706 36.7916L-7.18773 36.0676L0.500271 28.729L0.500271 25.211L1.50027 25.211L1.50027 29.1576L-6.49706 36.7916ZM6.45656 32.4022L7.45656 32.4022L7.45656 27.6762L6.45656 27.6762L6.45656 32.4022ZM30.1631 42.5853L16.4311 28.8866L17.1371 28.1786L30.8697 41.8773L30.1631 42.5853ZM-3.79384 39.2939L-3.08651 40.0013L1.49682 35.4179L1.49682 30.8706L-5.53584 37.7626L-4.83651 38.4773L0.496822 33.2506L0.496822 35.0039L-3.79384 39.2939ZM9.9841 34.9316L9.9841 45.8023L10.9841 45.8023L10.9841 35.3523L13.1348 33.2483L13.1348 46.2723L14.1341 46.2723L14.1341 30.8716L9.9841 34.9316ZM29.2971 36.237L29.2971 32.355L26.2358 32.355L26.2358 31.355L30.2971 31.355L30.2971 33.841L32.6644 31.4997L33.3678 32.2103L29.2971 36.237ZM33.3791 33.7232L37.2438 37.0945L37.9011 36.3405L34.8511 33.6805L36.2018 32.3552L41.0691 32.3552L41.0691 31.3552L35.7931 31.3552L33.3791 33.7232ZM28.0765 43.6139L16.4331 32.1073L17.1365 31.3966L28.7798 42.9033L28.0765 43.6139ZM30.402 36.6207L33.6787 40.1401L34.4107 39.4594L31.806 36.6607L32.7734 35.7354L35.6474 38.5474L36.346 37.8327L32.7814 34.3434L30.402 36.6207ZM16.4554 46.2722L17.4548 46.2722L17.4548 34.8335L16.4554 34.8335L16.4554 46.2722ZM1.49979 42.5996L0.499789 42.5996L0.499789 39.3176L-1.36221 41.303L-2.09154 40.619L1.49979 36.789L1.49979 42.5996ZM19.4694 45.92L20.4694 45.92L20.4694 39.5273L25.8921 44.682L26.5814 43.9566L19.4694 37.196L19.4694 45.92Z" opacity="0.100000001" fill="rgb(123,176,202)" fill-rule="evenodd" />
	</g>
	<rect id="蒙版" width="32.000000" height="32.000000" x="0.000000" y="0.000000" rx="2.666667" fill="rgb(255,255,255)" fill-opacity="0" />
	<rect id="蒙版" width="31.333334" height="31.333334" x="0.333333" y="0.333333" rx="2.333333" stroke="rgb(236,242,244)" stroke-width="0.666666687" />
	<g id="路径 27 + 路径 21 蒙版" showMaskRef="url(#show_mask_127)" mask="url(#mask_146)">
		<path id="show_mask_127" d="M22.3379 5.33337L19.3379 26.6667L24.6646 26.6667L27.6646 5.33337L22.3379 5.33337Z" fill="url(#paint_linear_353)" fill-rule="evenodd" />
		<path id="路径 27" d="M26.9147 10.6666C26.9147 10.6666 25.0803 11.0972 23.103 12.5896C21.1258 14.0819 20.9829 15.1436 20.9829 15.1436L21.6134 10.6666L26.9147 10.6666Z" opacity="0.400000006" fill="url(#paint_linear_354)" fill-rule="evenodd" />
		<path id="路径 27" d="M21.3091 12.8273L20.9833 15.1406L20.983 15.1432L20.9834 15.1406C20.9918 15.0883 21.1254 14.3682 22.2519 13.3041C22.4889 13.0801 22.77 12.841 23.103 12.5896C23.5927 12.22 24.0736 11.9155 24.52 11.6666C25.8764 10.9104 26.9147 10.6666 26.9147 10.6666L21.6134 10.6666L21.3091 12.8273ZM22.4606 11.8217Q22.4805 11.8065 22.5006 11.7914Q22.5842 11.7283 22.6686 11.6666L22.4825 11.6666L22.4606 11.8217Z" opacity="0.400000006" fill="url(#paint_linear_355)" fill-opacity="0" fill-rule="evenodd" />
		<path id="路径 21" d="M25.4168 21.3332L20.103 21.3332L20.2461 20.3878L25.4168 21.3332Z" opacity="0.200000003" fill="url(#paint_linear_356)" fill-rule="evenodd" />
		<path id="路径 21" d="M21.1144 21.3332L20.103 21.3332L20.2461 20.3878L25.4168 21.3332L21.1144 21.3332Z" opacity="0.200000003" fill="url(#paint_linear_357)" fill-opacity="0" fill-rule="evenodd" />
	</g>
	<g id="路径 3 + 路径 2 蒙版" showMaskRef="url(#show_mask_128)" mask="url(#mask_147)">
		<path id="show_mask_128" d="M6.3335 5.33337L3.3335 26.6667L8.72016 26.6667L11.7202 5.33337L6.3335 5.33337Z" fill="url(#paint_linear_358)" fill-rule="evenodd" />
		<path id="路径 3" d="M13.703 21.3332L4.18262 21.3332C4.18262 21.3332 6.752 20.7892 9.54808 19.5715C12.3442 18.3538 14.0996 17.0143 14.0996 17.0143L13.703 21.3332Z" fill="url(#paint_linear_359)" fill-rule="evenodd" />
		<path id="路径 3" d="M7.78006 21.3332L13.703 21.3332L13.9801 18.3156L14.0996 17.0143C14.0996 17.0143 13.7186 17.305 13.0289 17.7387C12.2381 18.2359 11.0415 18.9211 9.54808 19.5715C8.87744 19.8635 8.21983 20.1169 7.60759 20.3332C5.66727 21.0189 4.18262 21.3332 4.18262 21.3332L7.78006 21.3332ZM10.2971 20.3332L12.7906 20.3332L12.915 18.9783Q11.6563 19.7194 10.2971 20.3332Z" fill="url(#paint_linear_360)" fill-opacity="0" fill-rule="evenodd" />
		<path id="路径 2" d="M5.3335 10.6666C5.3335 10.6666 6.81103 10.9908 8.2185 12.5896C9.62597 14.1883 10.6109 16.6614 10.6109 16.6614L10.8845 10.6666L5.3335 10.6666Z" fill="url(#paint_linear_361)" fill-rule="evenodd" />
		<path id="路径 2" d="M9.77793 12.979Q9.37899 12.3944 8.96908 11.9288Q8.85067 11.7943 8.72873 11.6666L9.83782 11.6666L9.77793 12.979ZM10.7081 14.5316L10.6109 16.6614C10.6109 16.6614 10.2675 15.7991 9.69648 14.7638C9.30043 14.0457 8.7949 13.2443 8.2185 12.5896C7.89013 12.2166 7.55795 11.9129 7.24161 11.6666C6.20202 10.8572 5.3335 10.6666 5.3335 10.6666L10.8845 10.6666L10.8389 11.6666L10.7081 14.5316Z" fill="url(#paint_linear_362)" fill-opacity="0" fill-rule="evenodd" />
	</g>
	<path id="Fill 8" d="M6.3335 5.33337L5.5835 10.6664L14.9262 10.6664L15.6762 5.33337L6.3335 5.33337Z" fill="url(#paint_linear_363)" style="mix-blend-mode:multiply" fill-rule="evenodd" />
	<path id="Fill 9" d="M4.0835 21.3333L3.3335 26.6666L12.6762 26.6666L13.4262 21.3333L4.0835 21.3333Z" fill="url(#paint_linear_364)" style="mix-blend-mode:multiply" fill-rule="evenodd" />
	<path id="Fill 10" d="M16.0928 21.3333L15.3428 26.6666L24.6668 26.6666L25.4168 21.3333L16.0928 21.3333Z" fill="rgb(62,234,219)" fill-rule="evenodd" />
	<path id="Fill 11" d="M18.3403 5.33337L17.5903 10.6664L26.9147 10.6664L27.6647 5.33337L18.3403 5.33337Z" fill="rgb(62,234,219)" fill-rule="evenodd" />
	<path id="路径 49" d="M27.665 5.33337C27.665 5.33337 24.6032 5.924 22.055 6.98444C19.5069 8.04488 17.7759 9.44885 17.7759 9.44885L18.3406 5.33337L27.665 5.33337Z" opacity="0.60183692" fill="url(#paint_linear_365)" fill-rule="evenodd" />
	<path id="路径 49" d="M21.047 6.33337L19.2128 6.33337L19.0705 7.36994Q20.0408 6.79293 21.047 6.33337ZM23.837 6.33337C23.2446 6.52498 22.6364 6.74248 22.055 6.98444C20.7432 7.53038 19.6479 8.16738 18.8939 8.65697C18.1834 9.11836 17.7759 9.44885 17.7759 9.44885L17.9645 8.07439L18.3406 5.33337L27.665 5.33337C27.665 5.33337 25.841 5.68523 23.837 6.33337Z" opacity="0.60183692" fill="rgb(151,151,151)" fill-opacity="0" fill-rule="evenodd" />
	<path id="路径 31" d="M10.0927 21.3334C10.0927 21.3334 6.32871 22.8346 4.12333 24C1.91795 25.1655 0 26.6668 0 26.6668L0.849333 21.3334L10.0927 21.3334Z" opacity="0.400000006" fill="url(#paint_linear_366)" fill-rule="evenodd" />
	<path id="路径 31" d="M5.24325 22.3334Q4.32984 22.7599 3.65611 23.1159Q2.54707 23.702 1.36082 24.4802L1.70269 22.3334L5.24325 22.3334ZM7.48778 21.3334L0.849333 21.3334L0 26.6668C0 26.6668 0.441959 26.3208 1.14552 25.8322C1.9076 25.3028 2.97661 24.606 4.12333 24C5.15413 23.4553 6.52541 22.8372 7.6937 22.3334C9.02497 21.7592 10.0927 21.3334 10.0927 21.3334L7.48778 21.3334Z" opacity="0.400000006" fill="rgb(151,151,151)" fill-opacity="0" fill-rule="evenodd" />
</svg>
