<svg viewBox="0 0 32 32" xmlns="http://www.w3.org/2000/svg" xmlns:xlink="http://www.w3.org/1999/xlink" width="32.000000" height="32.000000" fill="none" customFrame="#000000">
	<mask id="mask_140" width="32.000000" height="32.000000" x="0.000000" y="0.000000" maskUnits="userSpaceOnUse">
		<g filter="url(#pixso_custom_mask_type_outline)">
			<rect id="蒙版" width="32.000000" height="32.000000" x="0.000000" y="0.000000" rx="2.666667" fill="rgb(255,255,255)" />
			<rect id="蒙版" width="31.000000" height="31.000000" x="0.500000" y="0.500000" rx="2.166667" stroke="rgb(236,247,249)" stroke-opacity="0" stroke-width="1" />
		</g>
	</mask>
	<defs>
		<filter id="pixso_custom_mask_type_outline">
			<feColorMatrix type="matrix" values="0 0 0 0 1 0 0 0 0 1 0 0 0 0 1 0 0 0 1 0 " />
		</filter>
		<linearGradient id="paint_linear_318" x1="10.9978971" x2="7.13831997" y1="5.34618998" y2="19.8930931" gradientUnits="userSpaceOnUse">
			<stop stop-color="rgb(138,255,231)" offset="0" stop-opacity="1" />
			<stop stop-color="rgb(0,193,255)" offset="1" stop-opacity="1" />
		</linearGradient>
		<linearGradient id="paint_linear_319" x1="16.696949" x2="9.36325645" y1="16.0128174" y2="20.858757" gradientUnits="userSpaceOnUse">
			<stop stop-color="rgb(138,255,231)" offset="0" stop-opacity="1" />
			<stop stop-color="rgb(0,193,255)" offset="1" stop-opacity="1" />
		</linearGradient>
		<linearGradient id="paint_linear_320" x1="24.5541687" x2="24.025135" y1="8.50564957" y2="23.8350964" gradientUnits="userSpaceOnUse">
			<stop stop-color="rgb(120,255,196)" offset="0" stop-opacity="1" />
			<stop stop-color="rgb(16,222,145)" offset="1" stop-opacity="1" />
		</linearGradient>
		<linearGradient id="paint_linear_321" x1="9.99978733" x2="7.03662491" y1="10.662178" y2="19.6355705" gradientUnits="userSpaceOnUse">
			<stop stop-color="rgb(0,13,17)" offset="0" stop-opacity="0" />
			<stop stop-color="rgb(0,13,17)" offset="1" stop-opacity="1" />
		</linearGradient>
		<linearGradient id="paint_linear_322" x1="11.2445002" x2="5.76036882" y1="12.1200275" y2="15.5978508" gradientUnits="userSpaceOnUse">
			<stop stop-color="rgb(37,43,58)" offset="0" stop-opacity="1" />
			<stop stop-color="rgb(37,43,58)" offset="1" stop-opacity="1" />
		</linearGradient>
		<linearGradient id="paint_linear_323" x1="27.64534" x2="21.7986755" y1="10.4134274" y2="20.525877" gradientUnits="userSpaceOnUse">
			<stop stop-color="rgb(255,255,255)" offset="0" stop-opacity="1" />
			<stop stop-color="rgb(255,255,255)" offset="1" stop-opacity="0" />
		</linearGradient>
		<linearGradient id="paint_linear_324" x1="17.785183" x2="4.36281872" y1="17.2801762" y2="19.8106041" gradientUnits="userSpaceOnUse">
			<stop stop-color="rgb(255,255,255)" offset="0" stop-opacity="1" />
			<stop stop-color="rgb(255,255,255)" offset="1" stop-opacity="0" />
		</linearGradient>
	</defs>
	<mask id="mask_139" width="32.000000" height="32.000000" x="0.000000" y="0.000000" maskUnits="userSpaceOnUse">
		<g filter="url(#pixso_custom_mask_type_outline)">
			<rect id="蒙版" width="32.000000" height="32.000000" x="0.000000" y="0.000000" rx="2.666667" fill="rgb(255,255,255)" />
			<rect id="蒙版" width="31.000000" height="31.000000" x="0.500000" y="0.500000" rx="2.166667" stroke="rgb(239,226,238)" stroke-opacity="0" stroke-width="1" />
		</g>
	</mask>
	<rect id="工程首字母图标/4-32x33" width="32.000000" height="32.000000" x="0.000000" y="0.000000" />
	<rect id="矩形" width="32.000000" height="32.000000" x="0.000000" y="0.000000" rx="2.666667" fill="rgb(255,255,255)" />
	<rect id="矩形" width="31.000000" height="31.000000" x="0.500000" y="0.500000" rx="2.166667" stroke="rgb(151,151,151)" stroke-opacity="0" stroke-width="1" />
	<g id="形状" showMaskRef="url(#show_mask_120)" mask="url(#mask_139)">
		<g id="show_mask_120">
			<rect id="蒙版" width="32.000000" height="32.000000" x="0.000000" y="0.000000" rx="2.666667" fill="rgb(255,255,255)" />
			<rect id="蒙版" width="31.000000" height="31.000000" x="0.500000" y="0.500000" rx="2.166667" stroke="rgb(239,226,238)" stroke-opacity="0" stroke-width="1" />
		</g>
		<g id="Fill 5" showMaskRef="url(#show_mask_121)" mask="url(#mask_140)">
			<g id="show_mask_121">
				<rect id="蒙版" width="32.000000" height="32.000000" x="0.000000" y="0.000000" rx="2.666667" fill="rgb(255,255,255)" />
				<rect id="蒙版" width="31.000000" height="31.000000" x="0.500000" y="0.500000" rx="2.166667" stroke="rgb(236,247,249)" stroke-opacity="0" stroke-width="1" />
			</g>
			<path id="形状结合" d="M16.1698 -5.33337C15.2832 -5.33337 14.4105 -5.27337 13.5518 -5.16871L2.24317 -0.209374C1.51584 0.409293 0.827171 1.07329 0.187838 1.78329L16.4018 -5.32737C16.3245 -5.32804 16.2478 -5.33337 16.1698 -5.33337ZM24.0898 6.53213L18.1338 26.5148L26.3018 35.1521C26.6051 34.9895 26.9038 34.8201 27.1985 34.6448L19.2571 26.2468L24.9605 7.1108L20.2551 27.2248L27.7778 34.2815C28.0658 34.0961 28.3485 33.9048 28.6271 33.7061L21.3605 26.8901L25.8691 7.61946L22.4071 27.7855L29.1098 33.3581C29.3818 33.1528 29.6491 32.9415 29.9105 32.7241L23.4905 27.3855L26.8111 8.0428L24.5818 28.1961L30.2925 32.3935C30.5491 32.1701 30.7991 31.9408 31.0451 31.7055L25.6391 27.7321L27.7778 8.39813L26.7698 28.4581L31.3471 31.4175C31.5878 31.1775 31.8225 30.9321 32.0511 30.6815L27.7978 27.9321L28.7651 8.6808L28.9638 28.5728L32.2678 30.4368C32.4925 30.1828 32.7118 29.9241 32.9245 29.6595L29.9578 27.9855L29.7671 8.87946L31.1551 28.5388L33.0718 29.4728C33.2818 29.2055 33.4851 28.9341 33.6825 28.6581L32.1125 27.8935L30.7778 8.9928L33.3365 28.3581L33.7685 28.5375C33.9645 28.2595 34.1531 27.9768 34.3351 27.6895L34.2525 27.6548L31.7898 9.01546L35.1578 26.2855C35.4185 25.7955 35.6605 25.2941 35.8831 24.7835L32.7951 8.9468L36.4998 23.2015C36.7098 22.5935 36.8951 21.9748 37.0505 21.3435L33.7865 8.7848L37.3785 19.7535C37.5098 18.9681 37.6025 18.1695 37.6465 17.3575L34.7465 8.50346L37.6718 15.8461C37.6531 14.6208 37.5318 13.4201 37.3158 12.2521L35.6738 8.12813L37.0631 11.0655C34.9611 2.44346 27.6658 -4.1392 18.6765 -5.1832L-1.46287 6.8508L-1.38087 5.14013L18.6565 -5.1852C18.0225 -5.25854 17.3805 -5.30187 16.7311 -5.3192L-1.67687 4.16746C-2.44621 5.30746 -3.10887 6.52546 -3.65087 7.80746L-4.99821 19.9761C-4.82754 20.9335 -4.59621 21.8701 -4.30287 22.7795L-2.40754 5.66346L-3.34221 25.2281C-3.06287 25.8288 -2.75621 26.4141 -2.42487 26.9835L-1.50021 7.63413L-1.18154 28.8848C-0.858207 29.3255 -0.516873 29.7521 -0.16154 30.1661L-0.472873 9.46013L1.26446 31.6761C1.61379 32.0121 1.97246 32.3381 2.34313 32.6495L0.691127 11.5201L3.86779 33.8161C4.23179 34.0708 4.60179 34.3181 4.98246 34.5508L2.01646 13.7308L6.51713 35.3981C6.88846 35.5848 7.26513 35.7628 7.64846 35.9288L3.45779 15.7555L9.15313 36.5095C9.52713 36.6388 9.90579 36.7568 10.2885 36.8655L5.00379 17.6075L11.7338 37.2261C12.1065 37.3041 12.4825 37.3741 12.8618 37.4328L6.63246 19.2728L14.2211 37.5941C14.5891 37.6275 14.9598 37.6508 15.3331 37.6655L8.33779 20.7775L16.5931 37.6761C16.9591 37.6688 17.3225 37.6521 17.6831 37.6275L9.46246 20.8015L21.1191 3.49413L10.1385 22.1761L18.8365 37.5161C19.1925 37.4721 19.5458 37.4195 19.8965 37.3581L11.2931 22.1848L21.7731 4.35546L12.0451 23.4841L20.9345 37.1501C21.2791 37.0721 21.6205 36.9861 21.9591 36.8921L13.1978 23.4235L22.4905 5.15013L14.0191 24.6448L22.8798 36.6135C23.2118 36.5048 23.5405 36.3875 23.8651 36.2628L15.1665 24.5128L23.2611 5.88613L16.0518 25.6541L24.6705 35.9381C24.9885 35.8015 25.3018 35.6568 25.6118 35.5055L17.1891 25.4548L24.0898 6.53213ZM5.98605 -2.77262C7.75538 -3.72529 9.67405 -4.43662 11.6974 -4.86462L5.98605 -2.77262ZM-0.503091 7.44286L-0.477758 9.16953L19.0976 -4.26914L-0.503091 7.44286ZM0.547442 9.67808L0.682108 11.3994L0.902109 11.2274L19.2248 -3.14392L0.547442 9.67808ZM1.74699 11.8361L1.98499 13.5094L19.2577 -1.89858L1.74699 11.8361ZM3.06917 13.8821L3.40584 15.5048L19.4198 -0.703884L3.06917 13.8821ZM4.50969 15.8095L4.93902 17.3742L19.6864 0.44883L4.50969 15.8095ZM6.06131 17.6088L6.57731 19.1148L20.0693 1.53151L6.06131 17.6088ZM7.71513 19.2748L8.31313 20.7182L20.5551 2.54149L7.71513 19.2748ZM-4.14567 9.10983L-5.33301 15.9252C-5.30567 13.5398 -4.88967 11.2485 -4.14567 9.10983Z" opacity="0.100000001" fill="rgb(35,228,154)" fill-rule="evenodd" />
		</g>
	</g>
	<rect id="蒙版" width="32.000000" height="32.000000" x="0.000000" y="0.000000" rx="2.666667" fill="rgb(255,255,255)" fill-opacity="0" />
	<rect id="蒙版" width="31.333334" height="31.333334" x="0.333333" y="0.333333" rx="2.333333" stroke="rgb(223,238,236)" stroke-width="0.666666687" />
	<path id="Fill 16" d="M6.51264 5.34619L4.69297 18.3212C4.46731 19.9259 5.71331 21.3592 7.33364 21.3592L9.65197 21.3592L11.8506 5.34619L6.51264 5.34619Z" fill="url(#paint_linear_318)" fill-rule="evenodd" />
	<path id="Fill 18" d="M17.5953 21.3462L7.33359 21.3472C5.71526 21.3472 4.46993 19.9175 4.69226 18.3148L5.01093 16.0128L18.3173 16.0202L17.5953 21.3462Z" fill="url(#paint_linear_319)" fill-rule="evenodd" />
	<path id="形状结合" d="M4.69297 18.3211L5.0167 16.0128L10.3856 16.0158L9.65365 21.3469L7.33075 21.3471C6.06465 21.3471 5.02684 20.4721 4.74154 19.3237C4.69245 19.1223 4.6665 18.9125 4.6665 18.6976C4.6665 18.5736 4.67515 18.4479 4.69297 18.3211Z" fill="rgb(14,255,165)" fill-rule="evenodd" />
	<path id="Fill 20" d="M22.4912 5.33337L19.4912 26.6667L24.8772 26.6667L27.8772 5.33337L22.4912 5.33337Z" fill="url(#paint_linear_320)" fill-rule="evenodd" />
	<path id="路径 30" d="M10.3861 16.0001L5.01221 16C5.01221 16 7.3148 14.9508 8.84223 13.3527C10.3697 11.7545 11.2445 9.479 11.2445 9.479L10.3861 16.0001Z" fill="url(#paint_linear_321)" fill-rule="evenodd" />
	<path id="路径 30" d="M7.08636 16L10.3861 16.0001L10.8636 12.3731L11.2445 9.479C11.2445 9.479 10.7672 10.7204 9.90228 12.0133C9.59617 12.4709 9.2415 12.9349 8.84223 13.3527C8.21935 14.0044 7.46756 14.5648 6.79559 15C5.81974 15.6321 5.01221 16 5.01221 16L7.08636 16ZM8.51216 15.0001L9.50913 15.0001L9.64636 13.9575Q9.60588 14.001 9.56516 14.0436Q9.09836 14.532 8.51216 15.0001Z" fill="url(#paint_linear_322)" fill-opacity="0" fill-rule="evenodd" />
	<path id="路径 45" d="M27.8772 5.34619L24.9419 5.34619L22.0815 26.6667L24.8772 26.6667L27.8772 5.34619Z" opacity="0.60183692" fill="url(#paint_linear_323)" fill-rule="evenodd" />
	<path id="路径 45" d="M25.8167 6.34619L23.2247 25.6667L24.0081 25.6667L26.7267 6.34619L25.8167 6.34619ZM26.8674 5.34619L24.9419 5.34619L22.2157 25.6667L22.0815 26.6667L24.8772 26.6667L27.7365 6.34619L27.8772 5.34619L26.8674 5.34619Z" opacity="0.60183692" fill="rgb(151,151,151)" fill-opacity="0" fill-rule="evenodd" />
	<path id="路径 46" d="M5.01221 16.0129C5.01221 16.0129 9.279 16.3417 12.6536 17.7723C16.0282 19.2028 17.5955 21.3472 17.5955 21.3472L18.3175 16.0122L5.01221 16.0129Z" opacity="0.60183692" fill="url(#paint_linear_324)" fill-rule="evenodd" />
	<path id="路径 46" d="M10.6125 16.0126L5.01221 16.0129C5.01221 16.0129 7.68181 16.2186 10.4678 17.0126C11.204 17.2224 11.9483 17.4733 12.6536 17.7723C14.584 18.5906 15.923 19.6425 16.7155 20.393C17.3084 20.9545 17.5955 21.3472 17.5955 21.3472L17.7734 20.0328L18.1822 17.0122L18.3175 16.0122L17.3084 16.0123L10.6125 16.0126ZM17.173 17.0123L13.4104 17.0125Q14.4491 17.4842 15.3928 18.0948Q16.1838 18.6068 16.8775 19.1959L17.173 17.0123Z" opacity="0.60183692" fill="rgb(151,151,151)" fill-opacity="0" fill-rule="evenodd" />
</svg>
