<svg viewBox="0 0 32 32" xmlns="http://www.w3.org/2000/svg" xmlns:xlink="http://www.w3.org/1999/xlink" width="32.000000" height="32.000000" fill="none" customFrame="#000000">
	<mask id="mask_135" width="32.000000" height="32.000000" x="0.000000" y="0.000000" maskUnits="userSpaceOnUse">
		<g filter="url(#pixso_custom_mask_type_outline)">
			<rect id="蒙版" width="32.000000" height="32.000000" x="0.000000" y="0.000000" rx="2.666667" fill="rgb(255,255,255)" />
			<rect id="蒙版" width="31.000000" height="31.000000" x="0.500000" y="0.500000" rx="2.166667" stroke="rgb(236,247,249)" stroke-opacity="0" stroke-width="1" />
		</g>
	</mask>
	<defs>
		<filter id="pixso_custom_mask_type_outline">
			<feColorMatrix type="matrix" values="0 0 0 0 1 0 0 0 0 1 0 0 0 0 1 0 0 0 1 0 " />
		</filter>
		<linearGradient id="paint_linear_294" x1="17.8821411" x2="17.208149" y1="19.8562279" y2="25.6047707" gradientUnits="userSpaceOnUse">
			<stop stop-color="rgb(120,255,196)" offset="0" stop-opacity="1" />
			<stop stop-color="rgb(16,222,145)" offset="1" stop-opacity="1" />
		</linearGradient>
		<linearGradient id="paint_linear_295" x1="26.2378254" x2="20.9095097" y1="5.33337402" y2="15.0234346" gradientUnits="userSpaceOnUse">
			<stop stop-color="rgb(138,255,231)" offset="0" stop-opacity="1" />
			<stop stop-color="rgb(0,193,255)" offset="1" stop-opacity="1" />
		</linearGradient>
		<linearGradient id="paint_linear_296" x1="24.7941208" x2="12.931035" y1="5.33337021" y2="10.1784039" gradientUnits="userSpaceOnUse">
			<stop stop-color="rgb(138,255,231)" offset="0" stop-opacity="1" />
			<stop stop-color="rgb(0,193,255)" offset="1" stop-opacity="1" />
		</linearGradient>
		<linearGradient id="paint_linear_297" x1="26.4767075" x2="19.3002033" y1="9.47408867" y2="16.3163567" gradientUnits="userSpaceOnUse">
			<stop stop-color="rgb(0,13,17)" offset="0" stop-opacity="1" />
			<stop stop-color="rgb(0,13,17)" offset="1" stop-opacity="0" />
		</linearGradient>
		<linearGradient id="paint_linear_298" x1="26.6652374" x2="18.9654675" y1="12.5382309" y2="15.0028515" gradientUnits="userSpaceOnUse">
			<stop stop-color="rgb(37,43,58)" offset="0" stop-opacity="1" />
			<stop stop-color="rgb(37,43,58)" offset="1" stop-opacity="1" />
		</linearGradient>
		<linearGradient id="paint_linear_299" x1="28.7400398" x2="5.66650581" y1="7.54162598" y2="5.33339119" gradientUnits="userSpaceOnUse">
			<stop stop-color="rgb(255,255,255)" offset="0" stop-opacity="1" />
			<stop stop-color="rgb(255,255,255)" offset="1" stop-opacity="0" />
		</linearGradient>
	</defs>
	<mask id="mask_134" width="32.000000" height="32.000000" x="0.000000" y="0.000000" maskUnits="userSpaceOnUse">
		<g filter="url(#pixso_custom_mask_type_outline)">
			<rect id="蒙版" width="32.000000" height="32.000000" x="0.000000" y="0.000000" rx="2.666667" fill="rgb(255,255,255)" />
			<rect id="蒙版" width="31.000000" height="31.000000" x="0.500000" y="0.500000" rx="2.166667" stroke="rgb(239,226,238)" stroke-opacity="0" stroke-width="1" />
		</g>
	</mask>
	<rect id="工程首字母图标/7-32x33" width="32.000000" height="32.000000" x="0.000000" y="0.000000" />
	<rect id="矩形" width="32.000000" height="32.000000" x="0.000000" y="0.000000" rx="2.666667" fill="rgb(255,255,255)" />
	<rect id="矩形" width="31.000000" height="31.000000" x="0.500000" y="0.500000" rx="2.166667" stroke="rgb(151,151,151)" stroke-opacity="0" stroke-width="1" />
	<g id="形状" showMaskRef="url(#show_mask_115)" mask="url(#mask_134)">
		<g id="show_mask_115">
			<rect id="蒙版" width="32.000000" height="32.000000" x="0.000000" y="0.000000" rx="2.666667" fill="rgb(255,255,255)" />
			<rect id="蒙版" width="31.000000" height="31.000000" x="0.500000" y="0.500000" rx="2.166667" stroke="rgb(239,226,238)" stroke-opacity="0" stroke-width="1" />
		</g>
		<g id="Fill 5" showMaskRef="url(#show_mask_116)" mask="url(#mask_135)">
			<g id="show_mask_116">
				<rect id="蒙版" width="32.000000" height="32.000000" x="0.000000" y="0.000000" rx="2.666667" fill="rgb(255,255,255)" />
				<rect id="蒙版" width="31.000000" height="31.000000" x="0.500000" y="0.500000" rx="2.166667" stroke="rgb(236,247,249)" stroke-opacity="0" stroke-width="1" />
			</g>
			<path id="形状结合" d="M16.1698 -5.33337C15.2832 -5.33337 14.4105 -5.27337 13.5518 -5.16871L2.24317 -0.209374C1.51584 0.409293 0.827171 1.07329 0.187838 1.78329L16.4018 -5.32737C16.3245 -5.32804 16.2478 -5.33337 16.1698 -5.33337ZM24.0898 6.53213L18.1338 26.5148L26.3018 35.1521C26.6051 34.9895 26.9038 34.8201 27.1985 34.6448L19.2571 26.2468L24.9605 7.1108L20.2551 27.2248L27.7778 34.2815C28.0658 34.0961 28.3485 33.9048 28.6271 33.7061L21.3605 26.8901L25.8691 7.61946L22.4071 27.7855L29.1098 33.3581C29.3818 33.1528 29.6491 32.9415 29.9105 32.7241L23.4905 27.3855L26.8111 8.0428L24.5818 28.1961L30.2925 32.3935C30.5491 32.1701 30.7991 31.9408 31.0451 31.7055L25.6391 27.7321L27.7778 8.39813L26.7698 28.4581L31.3471 31.4175C31.5878 31.1775 31.8225 30.9321 32.0511 30.6815L27.7978 27.9321L28.7651 8.6808L28.9638 28.5728L32.2678 30.4368C32.4925 30.1828 32.7118 29.9241 32.9245 29.6595L29.9578 27.9855L29.7671 8.87946L31.1551 28.5388L33.0718 29.4728C33.2818 29.2055 33.4851 28.9341 33.6825 28.6581L32.1125 27.8935L30.7778 8.9928L33.3365 28.3581L33.7685 28.5375C33.9645 28.2595 34.1531 27.9768 34.3351 27.6895L34.2525 27.6548L31.7898 9.01546L35.1578 26.2855C35.4185 25.7955 35.6605 25.2941 35.8831 24.7835L32.7951 8.9468L36.4998 23.2015C36.7098 22.5935 36.8951 21.9748 37.0505 21.3435L33.7865 8.7848L37.3785 19.7535C37.5098 18.9681 37.6025 18.1695 37.6465 17.3575L34.7465 8.50346L37.6718 15.8461C37.6531 14.6208 37.5318 13.4201 37.3158 12.2521L35.6738 8.12813L37.0631 11.0655C34.9611 2.44346 27.6658 -4.1392 18.6765 -5.1832L-1.46287 6.8508L-1.38087 5.14013L18.6565 -5.1852C18.0225 -5.25854 17.3805 -5.30187 16.7311 -5.3192L-1.67687 4.16746C-2.44621 5.30746 -3.10887 6.52546 -3.65087 7.80746L-4.99821 19.9761C-4.82754 20.9335 -4.59621 21.8701 -4.30287 22.7795L-2.40754 5.66346L-3.34221 25.2281C-3.06287 25.8288 -2.75621 26.4141 -2.42487 26.9835L-1.50021 7.63413L-1.18154 28.8848C-0.858207 29.3255 -0.516873 29.7521 -0.16154 30.1661L-0.472873 9.46013L1.26446 31.6761C1.61379 32.0121 1.97246 32.3381 2.34313 32.6495L0.691127 11.5201L3.86779 33.8161C4.23179 34.0708 4.60179 34.3181 4.98246 34.5508L2.01646 13.7308L6.51713 35.3981C6.88846 35.5848 7.26513 35.7628 7.64846 35.9288L3.45779 15.7555L9.15313 36.5095C9.52713 36.6388 9.90579 36.7568 10.2885 36.8655L5.00379 17.6075L11.7338 37.2261C12.1065 37.3041 12.4825 37.3741 12.8618 37.4328L6.63246 19.2728L14.2211 37.5941C14.5891 37.6275 14.9598 37.6508 15.3331 37.6655L8.33779 20.7775L16.5931 37.6761C16.9591 37.6688 17.3225 37.6521 17.6831 37.6275L9.46246 20.8015L21.1191 3.49413L10.1385 22.1761L18.8365 37.5161C19.1925 37.4721 19.5458 37.4195 19.8965 37.3581L11.2931 22.1848L21.7731 4.35546L12.0451 23.4841L20.9345 37.1501C21.2791 37.0721 21.6205 36.9861 21.9591 36.8921L13.1978 23.4235L22.4905 5.15013L14.0191 24.6448L22.8798 36.6135C23.2118 36.5048 23.5405 36.3875 23.8651 36.2628L15.1665 24.5128L23.2611 5.88613L16.0518 25.6541L24.6705 35.9381C24.9885 35.8015 25.3018 35.6568 25.6118 35.5055L17.1891 25.4548L24.0898 6.53213ZM5.98605 -2.77262C7.75538 -3.72529 9.67405 -4.43662 11.6974 -4.86462L5.98605 -2.77262ZM-0.503091 7.44286L-0.477758 9.16953L19.0976 -4.26914L-0.503091 7.44286ZM0.547442 9.67808L0.682108 11.3994L0.902109 11.2274L19.2248 -3.14392L0.547442 9.67808ZM1.7465 11.8361L1.9845 13.5094L19.2572 -1.89858L1.7465 11.8361ZM3.06917 13.8821L3.40584 15.5048L19.4198 -0.703884L3.06917 13.8821ZM4.50969 15.8095L4.93902 17.3742L19.6864 0.44883L4.50969 15.8095ZM6.0618 17.6088L6.5778 19.1148L20.0698 1.53151L6.0618 17.6088ZM7.71513 19.2748L8.31313 20.7182L20.5551 2.54149L7.71513 19.2748ZM-4.14567 9.10983L-5.33301 15.9252C-5.30567 13.5398 -4.88967 11.2485 -4.14567 9.10983Z" opacity="0.100000001" fill="rgb(35,228,154)" fill-rule="evenodd" />
		</g>
	</g>
	<rect id="蒙版" width="32.000000" height="32.000000" x="0.000000" y="0.000000" rx="2.666667" fill="rgb(255,255,255)" fill-opacity="0" />
	<rect id="蒙版" width="31.333334" height="31.333334" x="0.333333" y="0.333333" rx="2.333333" stroke="rgb(223,238,236)" stroke-width="0.666666687" />
	<g id="编组">
		<path id="Fill 78" d="M15.9806 18.6666L11.4316 26.6666L17.567 26.6666L22.116 18.6666L15.9806 18.6666Z" fill="url(#paint_linear_294)" fill-rule="evenodd" />
		<path id="Fill 80" d="M23.5624 5.33337L17.4971 16L23.6324 16L26.6651 10.6667L27.4151 5.33337L23.5624 5.33337Z" fill="url(#paint_linear_295)" fill-rule="evenodd" />
		<path id="Fill 76" d="M27.4152 5.33337L26.6652 10.6667L5.3335 10.6667L6.0835 5.33337L27.4152 5.33337Z" fill="url(#paint_linear_296)" fill-rule="evenodd" />
		<path id="形状结合" d="M27.4151 5.33337L26.6651 10.6667L26.6651 10.6667L20.5298 10.6667L23.5625 5.33337L27.4151 5.33337Z" fill="rgb(14,255,165)" fill-rule="evenodd" />
		<path id="路径 36" d="M20.5302 10.6666L26.6652 10.6666C26.6652 10.6666 24.4588 11.3168 22.1162 12.5539C19.7737 13.7911 17.915 15.2879 17.915 15.2879L20.5302 10.6666Z" fill="url(#paint_linear_297)" fill-rule="evenodd" />
		<path id="路径 36" d="M23.7717 10.6666L26.6652 10.6666C26.6652 10.6666 25.5068 11.008 23.9776 11.6666C23.3963 11.917 22.7614 12.2132 22.1162 12.5539C21.2769 12.9972 20.4996 13.4739 19.8478 13.903C18.6804 14.6716 17.915 15.2879 17.915 15.2879L20.5302 10.6666L23.7717 10.6666ZM21.655 11.6666L21.1134 11.6666L20.8684 12.0996Q21.2603 11.8751 21.6492 11.6697Q21.6521 11.6682 21.655 11.6666Z" fill="url(#paint_linear_298)" fill-opacity="0" fill-rule="evenodd" />
		<path id="路径 2" d="M5.6665 8.00004L27.2871 5.33337L6.06164 5.33337L5.6665 8.00004Z" opacity="0.600000024" fill="url(#paint_linear_299)" fill-rule="evenodd" />
		<path id="路径 2" d="M27.2871 5.33337L6.69624 7.87303L5.6665 8.00004L6.06164 5.33337L27.2871 5.33337ZM11.0102 6.33337L6.92438 6.33337L6.84832 6.8467L11.0102 6.33337Z" opacity="0.600000024" fill="rgb(151,151,151)" fill-opacity="0" fill-rule="evenodd" />
	</g>
</svg>
