<svg viewBox="0 0 32 32" xmlns="http://www.w3.org/2000/svg" xmlns:xlink="http://www.w3.org/1999/xlink" width="32.000000" height="32.000000" fill="none" customFrame="#000000">
	<defs>
		<filter id="pixso_custom_mask_type_outline">
			<feColorMatrix type="matrix" values="0 0 0 0 1 0 0 0 0 1 0 0 0 0 1 0 0 0 1 0 " />
		</filter>
		<linearGradient id="paint_linear_279" x1="13.1157227" x2="19.2120571" y1="13.3293457" y2="18.6666794" gradientUnits="userSpaceOnUse">
			<stop stop-color="rgb(162,214,255)" offset="0" stop-opacity="1" />
			<stop stop-color="rgb(0,250,249)" offset="1" stop-opacity="1" />
		</linearGradient>
		<linearGradient id="paint_linear_280" x1="28.3316097" x2="5.14998055" y1="6.86794662" y2="8.00004387" gradientUnits="userSpaceOnUse">
			<stop stop-color="rgb(75,211,255)" offset="0" stop-opacity="1" />
			<stop stop-color="rgb(68,159,248)" offset="1" stop-opacity="1" />
		</linearGradient>
		<linearGradient id="paint_linear_281" x1="7.85287857" x2="32.8996162" y1="22.7376366" y2="26.6667061" gradientUnits="userSpaceOnUse">
			<stop stop-color="rgb(75,211,255)" offset="0" stop-opacity="1" />
			<stop stop-color="rgb(68,159,248)" offset="1" stop-opacity="1" />
		</linearGradient>
		<linearGradient id="paint_linear_282" x1="21.2750587" x2="14.8101711" y1="26.0429115" y2="21.3684082" gradientUnits="userSpaceOnUse">
			<stop stop-color="rgb(10,11,35)" offset="0" stop-opacity="1" />
			<stop stop-color="rgb(46,153,255)" offset="1" stop-opacity="0" />
		</linearGradient>
		<linearGradient id="paint_linear_283" x1="20.7698555" x2="11.8651924" y1="23.528389" y2="26.3727608" gradientUnits="userSpaceOnUse">
			<stop stop-color="rgb(37,43,58)" offset="0" stop-opacity="1" />
			<stop stop-color="rgb(37,43,58)" offset="1" stop-opacity="1" />
		</linearGradient>
		<linearGradient id="paint_linear_284" x1="19.6507339" x2="27.6006126" y1="4.17304707" y2="15.6507931" gradientUnits="userSpaceOnUse">
			<stop stop-color="rgb(249,252,255)" offset="0" stop-opacity="1" />
			<stop stop-color="rgb(43,184,255)" offset="1" stop-opacity="1" />
		</linearGradient>
		<linearGradient id="paint_linear_285" x1="3.65073419" x2="11.6006136" y1="4.17304707" y2="15.6507931" gradientUnits="userSpaceOnUse">
			<stop stop-color="rgb(249,252,255)" offset="0" stop-opacity="1" />
			<stop stop-color="rgb(43,184,255)" offset="1" stop-opacity="1" />
		</linearGradient>
		<linearGradient id="paint_linear_286" x1="16.7748222" x2="10.7433643" y1="10.1721163" y2="4.67670059" gradientUnits="userSpaceOnUse">
			<stop stop-color="rgb(46,153,255)" offset="0" stop-opacity="0" />
			<stop stop-color="rgb(10,11,35)" offset="1" stop-opacity="1" />
		</linearGradient>
		<linearGradient id="paint_linear_287" x1="17.4269009" x2="12.2776699" y1="7.49334717" y2="10.3377047" gradientUnits="userSpaceOnUse">
			<stop stop-color="rgb(37,43,58)" offset="0" stop-opacity="1" />
			<stop stop-color="rgb(37,43,58)" offset="1" stop-opacity="1" />
		</linearGradient>
		<linearGradient id="paint_linear_288" x1="20.6447906" x2="22.6608658" y1="14.5247154" y2="25.7151718" gradientUnits="userSpaceOnUse">
			<stop stop-color="rgb(249,252,255)" offset="0" stop-opacity="1" />
			<stop stop-color="rgb(43,184,255)" offset="1" stop-opacity="1" />
		</linearGradient>
		<linearGradient id="paint_linear_289" x1="1.95853162" x2="9.90960503" y1="16.168026" y2="27.6556091" gradientUnits="userSpaceOnUse">
			<stop stop-color="rgb(249,252,255)" offset="0" stop-opacity="1" />
			<stop stop-color="rgb(43,184,255)" offset="1" stop-opacity="1" />
		</linearGradient>
		<linearGradient id="paint_linear_290" x1="27.2674294" x2="21.0189304" y1="10.6667471" y2="14.6626816" gradientUnits="userSpaceOnUse">
			<stop stop-color="rgb(10,11,35)" offset="0" stop-opacity="1" />
			<stop stop-color="rgb(46,153,255)" offset="1" stop-opacity="0" />
		</linearGradient>
		<linearGradient id="paint_linear_291" x1="27.5816498" x2="22.4079609" y1="12.2850809" y2="14.4161797" gradientUnits="userSpaceOnUse">
			<stop stop-color="rgb(37,43,58)" offset="0" stop-opacity="1" />
			<stop stop-color="rgb(37,43,58)" offset="1" stop-opacity="1" />
		</linearGradient>
		<linearGradient id="paint_linear_292" x1="28.3408871" x2="6.77061272" y1="7.67630005" y2="9.00196648" gradientUnits="userSpaceOnUse">
			<stop stop-color="rgb(255,255,255)" offset="0" stop-opacity="1" />
			<stop stop-color="rgb(255,255,255)" offset="1" stop-opacity="0" />
		</linearGradient>
		<linearGradient id="paint_linear_293" x1="8.07453442" x2="2.59532928" y1="21.9980125" y2="24.6396122" gradientUnits="userSpaceOnUse">
			<stop stop-color="rgb(255,255,255)" offset="0" stop-opacity="1" />
			<stop stop-color="rgb(255,255,255)" offset="1" stop-opacity="0" />
		</linearGradient>
	</defs>
	<mask id="mask_133" width="32.000000" height="32.000000" x="0.000000" y="0.000000" maskUnits="userSpaceOnUse">
		<g filter="url(#pixso_custom_mask_type_outline)">
			<rect id="蒙版" width="32.000000" height="32.000000" x="0.000000" y="0.000000" rx="2.666667" fill="rgb(255,255,255)" />
			<rect id="蒙版" width="31.000000" height="31.000000" x="0.500000" y="0.500000" rx="2.166667" stroke="rgb(236,242,244)" stroke-opacity="0" stroke-width="1" />
		</g>
	</mask>
	<rect id="工程首字母图标/8-32x33" width="32.000000" height="32.000000" x="0.000000" y="0.000000" />
	<rect id="矩形" width="32.000000" height="32.000000" x="0.000000" y="0.000000" rx="2.666667" fill="rgb(255,255,255)" />
	<rect id="矩形" width="31.000000" height="31.000000" x="0.500000" y="0.500000" rx="2.166667" stroke="rgb(151,151,151)" stroke-opacity="0" stroke-width="1" />
	<g id="形状" showMaskRef="url(#show_mask_114)" mask="url(#mask_133)">
		<g id="show_mask_114">
			<rect id="蒙版" width="32.000000" height="32.000000" x="0.000000" y="0.000000" rx="2.666667" fill="rgb(255,255,255)" />
			<rect id="蒙版" width="31.000000" height="31.000000" x="0.500000" y="0.500000" rx="2.166667" stroke="rgb(236,242,244)" stroke-opacity="0" stroke-width="1" />
		</g>
		<path id="形状结合" d="M16.2841 0.46909L16.2841 -14.0002L17.2835 -14.0002L17.2835 0.0230894L23.2261 5.34576L25.9415 2.46042L25.9415 -9.40558L22.5708 -12.6869L23.2695 -13.4036L26.9415 -9.82758L26.9415 2.85642L23.2861 6.74176L16.2841 0.46909ZM13.1332 9.48492L13.1332 -13.8491L14.1325 -13.8491L14.1325 9.08892L20.1505 15.4989L22.7218 15.4989L22.7218 9.85759L29.1598 3.06092L29.1598 -10.4857L30.1598 -10.4857L30.1598 3.45892L23.7212 10.2563L23.7212 16.4989L19.7178 16.4989L13.1332 9.48492ZM-3.65558 -7.1008L0.88575 -2.66147L4.24175 -5.76013L10.9837 -5.76013L10.9837 -13.4968L9.98375 -13.4968L9.98375 -6.76013L3.85042 -6.76013L0.905083 -4.04013L-2.95625 -7.81547L-3.65558 -7.1008ZM6.69582 -9.66783L7.69582 -9.66783L7.69582 -12.8092L6.69582 -12.8092L6.69582 -9.66783ZM23.7572 -5.4309L20.2099 -8.7489L20.8932 -9.4789L22.7572 -7.73557L22.7572 -9.4049L20.1725 -11.9082L20.8685 -12.6269L23.7572 -9.82823L23.7572 -5.4309ZM3.68264 -9.66784L4.68264 -9.66784L4.68264 -11.7525L3.68264 -11.7525L3.68264 -9.66784ZM0.968266 -5.83846L-1.78907 -8.4718L-1.0984 -9.19446L0.958266 -7.23046L2.20227 -8.45113L0.682933 -10.1971L1.4376 -10.8531L3.57427 -8.39646L0.968266 -5.83846ZM7.66062 45.1316L6.66062 45.1316L6.66062 34.9683L32.2759 9.54095L32.2759 -8.56638L33.2759 -8.56638L33.2759 9.95762L7.66062 35.385L7.66062 45.1316ZM22.8752 -3.4316L20.2585 -5.6376L20.9032 -6.4016L23.5198 -4.1956L22.8752 -3.4316ZM-11.139 1.68732L13.7417 26.252L20.847 19.0426L-4.68164 -6.21335L-5.38431 -5.50268L19.4344 19.0513L13.7317 24.8366L-10.437 0.975316L-11.139 1.68732ZM22.0549 22.834L26.6962 22.834L32.8516 16.4987L36.1982 16.4987L43.1229 9.80738L43.1229 3.08871L42.1229 3.08871L42.1229 9.38271L35.7942 15.4987L32.4289 15.4987L26.2736 21.834L24.4596 21.834L36.4962 9.73338L36.4962 -6.01929L35.4962 -6.01929L35.4962 9.32004L22.0549 22.834ZM16.6713 19.5716L-6.91207 -3.97843L-6.2054 -4.68577L17.3779 18.8642L16.6713 19.5716ZM10.9842 6.47857L9.98418 6.47857L9.98418 -2.6781L4.68285 -2.6781L4.68285 0.245903L3.68285 0.245903L3.68285 -3.6781L10.9842 -3.6781L10.9842 6.47857ZM22.8748 -0.247309L20.2462 -2.46331L20.8908 -3.22798L23.5195 -1.01131L22.8748 -0.247309ZM-9.99036 -0.181266L13.6256 23.0287L16.133 20.6647L-7.76302 -2.95727L-8.46569 -2.2466L14.6936 20.6481L13.6396 21.6407L-9.28969 -0.895266L-9.99036 -0.181266ZM36.3498 13.2793L35.6431 12.5713L38.6811 9.542L38.6811 -2.49534L39.6811 -2.49534L39.6811 9.95733L36.3498 13.2793ZM6.83352 3.46487L7.83352 3.46487L7.83352 -0.166468L6.83352 -0.166468L6.83352 3.46487ZM22.8737 3.04042L20.2483 0.827086L20.893 0.0624199L23.5183 2.27642L22.8737 3.04042ZM20.1453 6.98441L16.4473 3.59374L17.1226 2.85708L20.8213 6.24774L20.1453 6.98441ZM-12.1389 3.59598L-3.31352 12.2113L-14.4435 12.2113L-14.4435 13.2113L-0.858191 13.2113L-11.4402 2.87932L-12.1389 3.59598ZM-13.2849 6.3134L-9.96956 9.50407L-14.0469 9.50407L-14.0469 10.5041L-7.48822 10.5041L-12.5916 5.5934L-13.2849 6.3134ZM20.9833 14.056L16.4386 9.69004L17.1313 8.96871L19.9833 11.7087L19.9833 9.81471L16.4466 6.56404L17.1233 5.82804L20.9833 9.37538L20.9833 14.056ZM29.1607 9.74953L30.1607 9.74953L30.1607 6.20487L29.1607 6.20487L29.1607 9.74953ZM25.9854 12.9249L26.9854 12.9249L26.9854 9.38086L25.9854 9.38086L25.9854 12.9249ZM19.6396 29.0134L32.0116 41.386L32.7189 40.6787L20.6396 28.5994L20.6396 25.9507L29.8656 25.9507L45.3136 10.6007L44.6089 9.89137L29.4536 24.9507L19.6396 24.9507L19.6396 29.0134ZM38.3138 19.5469L42.8778 19.5469L45.8318 16.6343L45.1304 15.9223L42.4684 18.5469L40.6624 18.5469L45.7244 13.2823L45.0038 12.5896L38.3138 19.5469ZM-14.667 16.4988L-14.667 15.4988L1.12234 15.4988L4.97367 18.9968L4.97367 44.2261L3.97301 44.2261L3.97301 19.4395L0.735675 16.4988L-14.667 16.4988ZM-14.5077 19.3757L-14.5077 18.3757L1.70301 18.3757L1.70301 22.7591L-1.82366 26.0117L-1.82366 29.2631L-7.98299 35.0277L-8.66632 34.2971L-6.5908 32.3549L-10.2644 32.3549L-10.2644 31.3549L-5.52215 31.3549L-2.82366 28.8298L-2.82366 25.5737L0.703011 22.3211L0.703011 19.3757L-14.5077 19.3757ZM30.0253 22.8821L29.296 22.1974L32.5753 18.7041L33.3046 19.3895L30.0253 22.8821ZM35.6086 21.7316L42.1953 21.7316L45.0093 18.9756L45.7086 19.691L42.6033 22.7316L36.0393 22.7316L29.8746 29.2383L23.102 29.2383L23.102 28.2383L29.4446 28.2383L35.6086 21.7316ZM11.9171 27.2838L5.99247 21.5992L6.68447 20.8778L12.6091 26.5625L11.9171 27.2838ZM-14.0717 22.6975L-1.94775 22.6975L-1.94775 21.6975L-14.0717 21.6975L-14.0717 22.6975ZM10.1372 28.7221L5.99315 24.7501L6.68515 24.0287L10.8292 28.0007L10.1372 28.7221ZM39.5521 29.2448L38.8108 28.5741L42.1781 24.8481L44.1961 24.8481L44.1961 25.8481L42.6221 25.8481L39.5521 29.2448ZM33.1471 29.2448L32.4051 28.5741L35.6244 25.0121L36.3664 25.6828L33.1471 29.2448ZM36.3317 29.2448L35.5897 28.5741L38.809 25.0121L39.551 25.6828L36.3317 29.2448ZM-9.09038 29.2383L-4.70038 29.2383L-4.70038 25.211L-5.70038 25.211L-5.70038 28.2383L-8.09038 28.2383L-8.09038 25.0443L-12.447 25.0443L-12.447 28.487L-11.447 28.487L-11.447 26.0443L-9.09038 26.0443L-9.09038 29.2383ZM-6.49755 36.7916L-7.18822 36.0676L0.499783 28.729L0.499783 25.211L1.49978 25.211L1.49978 29.1576L-6.49755 36.7916ZM6.45656 32.4022L7.45656 32.4022L7.45656 27.6762L6.45656 27.6762L6.45656 32.4022ZM30.1626 42.5853L16.4306 28.8866L17.1366 28.1786L30.8693 41.8773L30.1626 42.5853ZM-3.79433 39.2939L-3.087 40.0013L1.49633 35.4179L1.49633 30.8706L-5.53633 37.7626L-4.837 38.4773L0.496334 33.2506L0.496334 35.0039L-3.79433 39.2939ZM9.9841 34.9316L9.9841 45.8023L10.9841 45.8023L10.9841 35.3523L13.1348 33.2483L13.1348 46.2723L14.1341 46.2723L14.1341 30.8716L9.9841 34.9316ZM29.2966 36.237L29.2966 32.355L26.2353 32.355L26.2353 31.355L30.2966 31.355L30.2966 33.841L32.664 31.4997L33.3673 32.2103L29.2966 36.237ZM33.3791 33.7232L37.2438 37.0945L37.9011 36.3405L34.8511 33.6805L36.2018 32.3552L41.0691 32.3552L41.0691 31.3552L35.7931 31.3552L33.3791 33.7232ZM28.0765 43.6139L16.4331 32.1073L17.1365 31.3966L28.7798 42.9033L28.0765 43.6139ZM30.402 36.6207L33.6787 40.1401L34.4107 39.4594L31.806 36.6607L32.7734 35.7354L35.6474 38.5474L36.346 37.8327L32.7814 34.3434L30.402 36.6207ZM16.4549 46.2722L17.4543 46.2722L17.4543 34.8335L16.4549 34.8335L16.4549 46.2722ZM1.4993 42.5996L0.499301 42.5996L0.499301 39.3176L-1.3627 41.303L-2.09203 40.619L1.4993 36.789L1.4993 42.5996ZM19.4694 45.92L20.4694 45.92L20.4694 39.5273L25.8921 44.682L26.5814 43.9566L19.4694 37.196L19.4694 45.92Z" opacity="0.100000001" fill="rgb(123,176,202)" fill-rule="evenodd" />
	</g>
	<rect id="蒙版" width="32.000000" height="32.000000" x="0.000000" y="0.000000" rx="2.666667" fill="rgb(255,255,255)" fill-opacity="0" />
	<rect id="蒙版" width="31.333334" height="31.333334" x="0.333333" y="0.333333" rx="2.333333" stroke="rgb(241,247,249)" stroke-width="0.666666687" />
	<path id="Fill 62" d="M19.2121 13.3333L18.4621 18.6667L13.1157 18.6627L13.8657 13.3293L19.2121 13.3333Z" fill="url(#paint_linear_279)" fill-rule="evenodd" />
	<path id="Fill 64" d="M28.3316 5.33337L27.5816 10.6667L6.25928 10.6667L7.00928 5.33337L28.3316 5.33337Z" fill="url(#paint_linear_280)" style="mix-blend-mode:multiply" fill-rule="evenodd" />
	<path id="Fill 66" d="M4 26.6667L4.75 21.3334L26.0927 21.3334L25.3427 26.6667L4 26.6667Z" fill="url(#paint_linear_281)" style="mix-blend-mode:multiply" fill-rule="evenodd" />
	<path id="路径 2" d="M20.7699 21.3685L20.014 26.7018C20.014 26.7018 19.5258 24.677 17.0984 23.2944C14.671 21.9118 10.6504 21.3684 10.6504 21.3684L20.7699 21.3685Z" fill="url(#paint_linear_282)" fill-rule="evenodd" />
	<path id="路径 2" d="M20.2675 24.9127L20.6281 22.3685L20.7699 21.3685L15.1078 21.3684L10.6504 21.3684C10.6504 21.3684 12.8264 21.6625 14.9433 22.3684C15.7039 22.6221 16.4568 22.9289 17.0984 23.2944C18.1062 23.8684 18.7797 24.5531 19.2228 25.1577C19.847 26.0092 20.014 26.7018 20.014 26.7018L20.2675 24.9127ZM19.4109 23.8309L19.6181 22.3685L17.4918 22.3685Q17.5431 22.3968 17.5933 22.4254Q18.5431 22.9664 19.2825 23.7003Q19.3477 23.765 19.4109 23.8309Z" fill="url(#paint_linear_283)" fill-opacity="0" fill-rule="evenodd" />
	<path id="Fill 68" d="M27.0288 14.6627L28.3408 5.33337L23.0138 5.33337L21.7021 14.6627L27.0288 14.6627Z" fill="url(#paint_linear_284)" style="mix-blend-mode:multiply" fill-rule="evenodd" />
	<path id="Fill 70" d="M11.0288 14.6627L12.3408 5.33337L7.01381 5.33337L5.70215 14.6627L11.0288 14.6627Z" fill="url(#paint_linear_285)" style="mix-blend-mode:multiply" fill-rule="evenodd" />
	<path id="路径" d="M17.4269 10.6103C17.4269 10.6103 15.5652 10.1214 14.462 8.78498C13.3587 7.44855 12.2591 5.33337 12.2591 5.33337L11.5752 10.6667L17.4269 10.6103Z" fill="url(#paint_linear_286)" fill-rule="evenodd" />
	<path id="路径" d="M12.8829 8.33063Q13.3042 8.95325 13.6908 9.4216Q13.7845 9.53512 13.8855 9.6444L12.713 9.6557L12.8829 8.33063ZM12.0455 6.9986L11.7036 9.66542L11.5752 10.6667L12.5846 10.657L15.0816 10.6329L17.4269 10.6103C17.4269 10.6103 16.3757 10.3343 15.385 9.62996C15.0573 9.39699 14.7362 9.11716 14.462 8.78498C13.9683 8.18702 13.4754 7.43316 13.0814 6.78262C12.5948 5.97921 12.2591 5.33337 12.2591 5.33337L12.0455 6.9986Z" fill="url(#paint_linear_287)" fill-opacity="0" fill-rule="evenodd" />
	<path id="Fill 72" d="M21.3272 17.3293L20.0142 26.6667L25.3412 26.6667L26.6538 17.3293L21.3272 17.3293Z" fill="url(#paint_linear_288)" style="mix-blend-mode:multiply" fill-rule="evenodd" />
	<path id="Fill 74" d="M5.32325 17.3293L4.01025 26.6667L9.33725 26.6667L10.6499 17.3293L5.32325 17.3293Z" fill="url(#paint_linear_289)" style="mix-blend-mode:multiply" fill-rule="evenodd" />
	<path id="路径 37" d="M22.2717 10.6667L27.5816 10.6667C27.5816 10.6667 25.8103 10.9036 24.2405 11.9705C22.6706 13.0374 21.7021 14.6627 21.7021 14.6627L22.2717 10.6667Z" opacity="0.600000024" fill="url(#paint_linear_290)" fill-rule="evenodd" />
	<path id="路径 37" d="M24.4723 10.6667L22.2717 10.6667L21.991 12.636L21.7021 14.6627C21.7021 14.6627 22.1525 13.907 22.9367 13.0879C23.3025 12.7058 23.7411 12.3099 24.2405 11.9705C24.4021 11.8607 24.5658 11.7596 24.7295 11.6667C26.1562 10.8573 27.5816 10.6667 27.5816 10.6667L24.4723 10.6667Z" opacity="0.600000024" fill="url(#paint_linear_291)" fill-opacity="0" fill-rule="evenodd" />
	<path id="路径 38" d="M12.3408 5.39191C12.3408 5.39191 17.4119 5.91568 20.9832 6.98437C24.5544 8.05306 27.6846 10.0192 27.6846 10.0192L28.3409 5.33337L12.3408 5.39191Z" opacity="0.600000024" fill="url(#paint_linear_292)" fill-rule="evenodd" />
	<path id="路径 38" d="M18.6399 5.36886L12.3408 5.39191C12.3408 5.39191 15.4621 5.71429 18.5316 6.36927C19.3746 6.54915 20.2137 6.75411 20.9832 6.98437C23.3708 7.69887 25.5613 8.81453 26.751 9.47557C27.3407 9.80327 27.6846 10.0192 27.6846 10.0192L27.8353 8.94283L28.2008 6.33389L28.3409 5.33337L27.3306 5.33707L18.6399 5.36886ZM27.1905 6.33759L22.2862 6.35553Q24.1389 7.00026 26.1265 8.01125Q26.5216 8.21227 26.8993 8.41642L27.1905 6.33759Z" opacity="0.600000024" fill="rgb(151,151,151)" fill-opacity="0" fill-rule="evenodd" />
	<path id="路径 39" d="M8.07454 17.3293L4.01025 26.6667L5.32325 17.3293L8.07454 17.3293Z" opacity="0.600000024" fill="url(#paint_linear_293)" fill-rule="evenodd" />
	<path id="路径 39" d="M5.50202 23.2395L4.01025 26.6667L4.53074 22.9653L5.32325 17.3293L8.07454 17.3293L7.63926 18.3293L5.50202 23.2395ZM6.0225 19.5381L6.54864 18.3293L6.19247 18.3293L6.0225 19.5381Z" opacity="0.600000024" fill="rgb(151,151,151)" fill-opacity="0" fill-rule="evenodd" />
</svg>
