<svg viewBox="0 0 32 32" xmlns="http://www.w3.org/2000/svg" xmlns:xlink="http://www.w3.org/1999/xlink" width="32.000000" height="32.000000" fill="none" customFrame="#000000">
	<mask id="mask_113" width="32.000000" height="32.000000" x="0.000000" y="0.000000" maskUnits="userSpaceOnUse">
		<g filter="url(#pixso_custom_mask_type_outline)">
			<rect id="蒙版" width="32.000000" height="32.000000" x="0.000000" y="0.000000" rx="2.666667" fill="rgb(255,255,255)" fill-opacity="0" />
			<rect id="蒙版" width="31.333334" height="31.333334" x="0.333333" y="0.333333" rx="2.333333" stroke="rgb(255,255,255)" stroke-width="0.666666687" />
		</g>
	</mask>
	<mask id="mask_112" width="12.716666" height="13.333333" x="14.763672" y="13.331665" maskUnits="userSpaceOnUse">
		<g filter="url(#pixso_custom_mask_type_outline)">
			<path id="Fill 41" d="M27.4803 13.3317L26.7303 18.665L25.6037 26.665L20.217 26.665L21.3437 18.665L14.7637 18.665L15.5103 13.3317L27.4803 13.3317Z" fill="rgb(255,255,255)" fill-rule="evenodd" />
		</g>
	</mask>
	<mask id="mask_111" width="14.300333" height="13.333333" x="4.000000" y="13.333374" maskUnits="userSpaceOnUse">
		<g filter="url(#pixso_custom_mask_type_outline)">
			<path id="蒙版" d="M4.74967 13.3334L4 18.6667L5.52933 18.6667C6.058 18.6667 6.38667 18.954 6.53533 19.1254C6.68433 19.2967 6.92333 19.662 6.84967 20.1857L6.36567 23.6287C6.14 25.2334 7.386 26.6667 9.00633 26.6667L17.5507 26.6667L18.3003 21.3334L12.074 21.3334L12.111 21.069C12.3107 19.65 12.1097 18.1874 11.4433 16.9187C10.2637 14.6737 7.97433 13.3334 5.52933 13.3334L4.74967 13.3334Z" fill="rgb(255,255,255)" fill-rule="evenodd" />
		</g>
	</mask>
	<mask id="mask_110" width="20.548666" height="13.333333" x="4.000000" y="5.333374" maskUnits="userSpaceOnUse">
		<g filter="url(#pixso_custom_mask_type_outline)">
			<path id="蒙版" d="M4 18.6667L6.65433 18.6667C9.97767 18.6667 12.7933 16.219 13.2557 12.928L13.5733 10.6667L23.799 10.6667L24.5487 5.33337L11.2553 5.33337C9.926 5.33337 8.79967 6.31237 8.61467 7.62904L7.97433 12.1857C7.882 12.84 7.31467 13.3334 6.65367 13.3334L4.74967 13.3334L4 18.6667Z" fill="rgb(255,255,255)" fill-rule="evenodd" />
		</g>
	</mask>
	<mask id="mask_109" width="32.000000" height="32.000000" x="0.000000" y="0.000000" maskUnits="userSpaceOnUse">
		<g filter="url(#pixso_custom_mask_type_outline)">
			<rect id="蒙版" width="32.000000" height="32.000000" x="0.000000" y="0.000000" rx="2.666667" fill="rgb(255,255,255)" />
			<rect id="蒙版" width="31.000000" height="31.000000" x="0.500000" y="0.500000" rx="2.166667" stroke="rgb(236,247,249)" stroke-opacity="0" stroke-width="1" />
		</g>
	</mask>
	<defs>
		<filter id="pixso_custom_mask_type_outline">
			<feColorMatrix type="matrix" values="0 0 0 0 1 0 0 0 0 1 0 0 0 0 1 0 0 0 1 0 " />
		</filter>
		<linearGradient id="paint_linear_224" x1="22.1095886" x2="11.0700865" y1="5.33337402" y2="17.4459496" gradientUnits="userSpaceOnUse">
			<stop stop-color="rgb(183,162,255)" offset="0" stop-opacity="1" />
			<stop stop-color="rgb(59,0,250)" offset="1" stop-opacity="1" />
		</linearGradient>
		<linearGradient id="paint_linear_225" x1="13.6821022" x2="7.45491695" y1="15.1383677" y2="13.3491173" gradientUnits="userSpaceOnUse">
			<stop stop-color="rgb(6,85,75)" offset="0" stop-opacity="0" />
			<stop stop-color="rgb(0,17,15)" offset="1" stop-opacity="1" />
		</linearGradient>
		<linearGradient id="paint_linear_226" x1="17.1889515" x2="6.13626289" y1="15.7573013" y2="19.5904732" gradientUnits="userSpaceOnUse">
			<stop stop-color="rgb(37,43,58)" offset="0" stop-opacity="1" />
			<stop stop-color="rgb(37,43,58)" offset="1" stop-opacity="1" />
		</linearGradient>
		<linearGradient id="paint_linear_227" x1="25.0656376" x2="7.55225182" y1="9.79367638" y2="4.8675561" gradientUnits="userSpaceOnUse">
			<stop stop-color="rgb(255,255,255)" offset="0" stop-opacity="0" />
			<stop stop-color="rgb(255,255,255)" offset="1" stop-opacity="1" />
		</linearGradient>
		<linearGradient id="paint_linear_228" x1="4.41425657" x2="18.7685413" y1="15.3743858" y2="24.9797764" gradientUnits="userSpaceOnUse">
			<stop stop-color="rgb(183,162,255)" offset="0" stop-opacity="1" />
			<stop stop-color="rgb(59,0,250)" offset="1" stop-opacity="1" />
		</linearGradient>
		<linearGradient id="paint_linear_229" x1="21.7220497" x2="12.0742178" y1="24.6050148" y2="21.333374" gradientUnits="userSpaceOnUse">
			<stop stop-color="rgb(255,255,255)" offset="0" stop-opacity="0" />
			<stop stop-color="rgb(255,255,255)" offset="1" stop-opacity="1" />
		</linearGradient>
		<linearGradient id="paint_linear_230" x1="22.1399899" x2="26.7010803" y1="13.331665" y2="18.6666298" gradientUnits="userSpaceOnUse">
			<stop stop-color="rgb(255,191,255)" offset="0" stop-opacity="1" />
			<stop stop-color="rgb(207,50,255)" offset="1" stop-opacity="1" />
		</linearGradient>
		<linearGradient id="paint_linear_231" x1="20.0277214" x2="-1.90734863e-06" y1="3.9478569" y2="1.66893005e-06" gradientUnits="userSpaceOnUse">
			<stop stop-color="rgb(255,255,255)" offset="0" stop-opacity="0" />
			<stop stop-color="rgb(255,255,255)" offset="1" stop-opacity="1" />
		</linearGradient>
		<linearGradient id="paint_linear_232" x1="25.9221725" x2="21.34375" y1="23.9806633" y2="19.2955074" gradientUnits="userSpaceOnUse">
			<stop stop-color="rgb(0,0,0)" offset="0" stop-opacity="0" />
			<stop stop-color="rgb(89,0,161)" offset="1" stop-opacity="1" />
		</linearGradient>
		<linearGradient id="paint_linear_233" x1="26.7304153" x2="21.9903984" y1="21.9059258" y2="26.1715889" gradientUnits="userSpaceOnUse">
			<stop stop-color="rgb(37,43,58)" offset="0" stop-opacity="1" />
			<stop stop-color="rgb(37,43,58)" offset="1" stop-opacity="1" />
		</linearGradient>
	</defs>
	<mask id="mask_108" width="32.000000" height="32.000000" x="0.000000" y="0.000000" maskUnits="userSpaceOnUse">
		<g filter="url(#pixso_custom_mask_type_outline)">
			<rect id="蒙版" width="32.000000" height="32.000000" x="0.000000" y="0.000000" rx="2.666667" fill="rgb(255,255,255)" />
			<rect id="蒙版" width="31.000000" height="31.000000" x="0.500000" y="0.500000" rx="2.166667" stroke="rgb(239,226,238)" stroke-opacity="0" stroke-width="1" />
		</g>
	</mask>
	<rect id="工程首字母图标/G-32x33" width="32.000000" height="32.000000" x="0.000000" y="0.000000" />
	<rect id="矩形" width="32.000000" height="32.000000" x="0.000000" y="0.000000" rx="2.666667" fill="rgb(255,255,255)" />
	<rect id="矩形" width="31.000000" height="31.000000" x="0.500000" y="0.500000" rx="2.166667" stroke="rgb(151,151,151)" stroke-opacity="0" stroke-width="1" />
	<g id="形状" showMaskRef="url(#show_mask_91)" mask="url(#mask_108)">
		<g id="show_mask_91">
			<rect id="蒙版" width="32.000000" height="32.000000" x="0.000000" y="0.000000" rx="2.666667" fill="rgb(255,255,255)" />
			<rect id="蒙版" width="31.000000" height="31.000000" x="0.500000" y="0.500000" rx="2.166667" stroke="rgb(239,226,238)" stroke-opacity="0" stroke-width="1" />
		</g>
		<g id="Fill 5" showMaskRef="url(#show_mask_92)" mask="url(#mask_109)">
			<g id="show_mask_92">
				<rect id="蒙版" width="32.000000" height="32.000000" x="0.000000" y="0.000000" rx="2.666667" fill="rgb(255,255,255)" />
				<rect id="蒙版" width="31.000000" height="31.000000" x="0.500000" y="0.500000" rx="2.166667" stroke="rgb(236,247,249)" stroke-opacity="0" stroke-width="1" />
			</g>
			<path id="形状结合" d="M38.4771 -12.6178L37.7472 -12.6885L37.7229 -12.4588C37.2864 -8.66862 35.2889 -6.73599 31.7751 -6.21337C29.9437 -5.94096 27.8349 -6.03413 25.1306 -6.47588L24.5197 -6.57977L23.8885 -6.69511L23.236 -6.82183L22.5617 -6.95991C22.4474 -6.98386 22.3322 -7.00829 22.2161 -7.03319L21.5074 -7.18822C21.3873 -7.21499 21.2662 -7.24224 21.1441 -7.26995L20.3993 -7.44183L18.998 -7.77841L14.7282 -8.84328L13.0379 -9.25528L12.0002 -9.49665L11.2368 -9.66332L10.5368 -9.80471L9.92681 -9.91824L9.37357 -10.0146C6.65159 -10.4769 4.9922 -10.0104 4.13811 -8.64547C3.72745 -7.9892 3.53092 -7.31655 3.44006 -6.19984L3.41587 -5.85108L3.39736 -5.47311L3.3839 -5.06336L3.37172 -4.38355L3.35746 -2.79082L3.34453 -2.35251C3.20718 1.15384 2.27797 2.87745 -0.576744 3.59112C-1.75044 3.88455 -2.99971 3.87811 -4.31818 3.59203C-7.37317 2.92915 -10.6754 0.811375 -14.0189 -2.30698C-15.4652 -3.65582 -16.8215 -5.1021 -18.0481 -6.54835L-18.4615 -7.04186L-18.8424 -7.50843L-19.1898 -7.94537L-19.4392 -8.26708L-19.5925 -8.47052L-20.1831 -8.03579L-19.9324 -7.70552L-19.5946 -7.27467C-19.5358 -7.20063 -19.4755 -7.12529 -19.4138 -7.04872L-19.0269 -6.57487L-18.6074 -6.07401C-18.5901 -6.05367 -18.5729 -6.03333 -18.5556 -6.01299L-18.9884 -5.66712L-18.8731 -5.52531L-18.3766 -4.93641C-18.3155 -4.86532 -18.2529 -4.79298 -18.1889 -4.71946L-17.7878 -4.26448C-17.6485 -4.10836 -17.5036 -3.94791 -17.3534 -3.78357C-17.3358 -3.76432 -17.3182 -3.74507 -17.3005 -3.72582L-17.7934 -3.29873L-17.4952 -2.96445L-16.9647 -2.39041C-16.8984 -2.31993 -16.8307 -2.2483 -16.7615 -2.1756L-16.3294 -1.7267L-16.1008 -1.49324C-14.7711 -0.143233 -13.3136 1.20672 -11.7733 2.4675C-8.8937 4.82445 -6.06445 6.59311 -3.39865 7.53281C-1.20757 8.30516 0.814484 8.49208 2.62636 8.00588C5.27538 7.29499 6.3714 5.76107 6.74767 2.90094L6.79459 2.50265L6.83307 2.08764C6.8388 2.01707 6.8442 1.94578 6.84928 1.87378L6.87595 1.43315C6.88361 1.28339 6.89005 1.13072 6.89535 0.975091L6.93188 -0.328403L6.94756 -0.765995L6.97674 -1.35856L7.00081 -1.71465L7.02925 -2.04242C7.12679 -3.03814 7.29857 -3.64503 7.62659 -4.21402C8.27967 -5.34687 9.54889 -5.84478 11.801 -5.64049L12.0003 -5.62201L12.4571 -5.57634L12.9834 -5.51725L13.67 -5.42923L14.4096 -5.32194L14.8927 -5.24627L15.7864 -5.09791L17.2795 -4.83522L21.3238 -4.09453L22.3755 -3.9081L23.1294 -3.77958L23.8555 -3.66071L24.5548 -3.55152L25.2285 -3.45208L25.8778 -3.36242C25.984 -3.3483 26.0893 -3.33459 26.1936 -3.32128L26.8083 -3.24641L27.4015 -3.18146L27.9742 -3.12647L28.5275 -3.0815C28.6182 -3.07484 28.7081 -3.06861 28.7973 -3.06279L29.3238 -3.03294C29.4102 -3.0288 29.4958 -3.02509 29.5808 -3.02181L30.0831 -3.00719C31.1549 -2.98656 32.1228 -3.03787 33.039 -3.16341C36.6901 -3.66372 38.9161 -5.43075 39.5396 -8.7671L38.8187 -8.90181L38.7793 -8.70417C38.171 -5.83668 36.2254 -4.34023 32.9394 -3.88996C31.852 -3.74094 30.6788 -3.70134 29.3269 -3.76757L28.8114 -3.79736L28.278 -3.83704C28.1876 -3.84447 28.0963 -3.85231 28.0043 -3.86057L27.4421 -3.91498C27.2513 -3.93475 27.0571 -3.95615 26.8593 -3.97918L26.2548 -4.05311C26.1522 -4.06624 26.0486 -4.07977 25.9441 -4.09371L25.305 -4.18216L24.6416 -4.28025L23.9526 -4.38792L23.2371 -4.50514L22.4939 -4.63187L21.7219 -4.76806L17.3968 -5.55924L16.0892 -5.79006L15.3384 -5.91683L14.5053 -6.04928L13.9024 -6.13752L13.1997 -6.22988L12.4018 -6.31939L11.8672 -6.37082C9.35427 -6.59878 7.80441 -5.99078 6.99127 -4.58028C6.60864 -3.91657 6.41356 -3.24955 6.30541 -2.18815L6.27402 -1.83941C6.26924 -1.77895 6.26466 -1.71728 6.26028 -1.65435L6.23625 -1.26115L6.21623 -0.834884L6.19954 -0.372826L6.15377 1.1779L6.13133 1.61872L6.10166 2.04022C6.09608 2.10888 6.09019 2.17676 6.08396 2.24385L6.0425 2.63713C5.72318 5.32553 4.78005 6.66864 2.4363 7.29761C0.782681 7.74134 -1.09314 7.56794 -3.15485 6.84118C-5.72735 5.93438 -8.48932 4.20778 -11.3088 1.90002C-11.6308 1.63642 -11.9493 1.36879 -12.2637 1.09798C-9.44094 3.43924 -6.66324 5.12769 -4.03076 5.91773C-2.19721 6.468 -0.47397 6.56521 1.11377 6.15414C4.03129 5.39876 5.13374 3.65796 5.42001 0.39815L5.45161 -0.0172758C5.46078 -0.158414 5.4686 -0.302229 5.47515 -0.448757L5.49104 -0.896524L5.51287 -2.11186L5.52865 -2.78996L5.54331 -3.19741L5.56196 -3.57205L5.58516 -3.91634L5.61347 -4.23277L5.64746 -4.52382C5.74617 -5.26828 5.91153 -5.76833 6.19191 -6.23512C6.85327 -7.33617 8.16901 -7.77652 10.5253 -7.4659L10.8984 -7.41546L11.6242 -7.30859L12.3657 -7.18578L13.1739 -7.0375L13.9353 -6.88758L15.3975 -6.58335L19.9581 -5.59383L21.3174 -5.30854L22.0805 -5.15497L22.8171 -5.01224L23.5283 -4.88042L24.2149 -4.75955L24.878 -4.6497C24.9866 -4.63231 25.0943 -4.61538 25.2011 -4.59891L25.8308 -4.50566C28.5132 -4.1257 30.6027 -4.05951 32.4611 -4.32642C36.2406 -4.86925 38.4899 -6.88518 39.009 -10.6943L38.2824 -10.7933L38.2509 -10.5789C37.7268 -7.2538 35.7557 -5.54046 32.3568 -5.0523C30.8445 -4.83509 29.1522 -4.84967 27.0716 -5.08636L26.4944 -5.15642C26.2008 -5.19419 25.8997 -5.23608 25.5904 -5.28206L24.961 -5.37946L24.309 -5.48772C24.1984 -5.50667 24.0868 -5.52607 23.9743 -5.54591L23.2867 -5.67039L22.5743 -5.80562L21.4569 -6.02853L20.6782 -6.19045L20.1113 -6.31097L16.1884 -7.16402L14.5787 -7.50464L13.9056 -7.6416L13.0177 -7.81336L12.23 -7.95326L11.8576 -8.01427L11.2464 -8.10687L10.6212 -8.19294C8.00271 -8.53812 6.39697 -8.00072 5.56326 -6.61272C5.14304 -5.91312 4.94817 -5.2024 4.85438 -3.9942L4.83022 -3.63504C4.82662 -3.57278 4.82322 -3.50929 4.82001 -3.44452L4.80289 -3.04002L4.78432 -2.36991L4.76961 -1.47108L4.75094 -0.689705L4.73126 -0.251072C4.72341 -0.108014 4.71425 0.0319138 4.7037 0.16877L4.66777 0.570191C4.37907 3.38192 3.40699 4.80289 0.929962 5.44422C-0.517797 5.81904 -2.10713 5.72939 -3.81997 5.21535C-6.23764 4.48978 -8.81676 2.9526 -11.451 0.816095C-9.0685 2.60258 -6.72405 3.82039 -4.47368 4.30868C-3.04977 4.61765 -1.68731 4.62466 -0.398886 4.30256C2.78792 3.50586 3.88518 1.55237 4.06769 -2.11143L4.08502 -2.55039L4.09241 -2.86681L4.10271 -4.12044L4.11138 -4.78678L4.12156 -5.18801L4.13584 -5.5575L4.15475 -5.8975L4.17878 -6.21027L4.20844 -6.49808C4.30095 -7.28033 4.4674 -7.78925 4.75976 -8.25646C5.42918 -9.32623 6.79162 -9.70926 9.2508 -9.29167L9.72039 -9.21014L10.174 -9.12725L10.7412 -9.01668L11.4601 -8.86529L12.4149 -8.64882L13.9481 -8.28024L18.4545 -7.1569L19.8519 -6.81758L20.6213 -6.63727L21.3658 -6.46834C21.4879 -6.44114 21.6089 -6.41441 21.729 -6.38816L22.4378 -6.23639C22.554 -6.21205 22.6693 -6.18819 22.7836 -6.16482L23.4585 -6.03033C23.5692 -6.00887 23.6789 -5.98791 23.7878 -5.96742L24.4307 -5.85032C24.5361 -5.83177 24.6407 -5.81371 24.7445 -5.79614L25.3571 -5.69654C25.4576 -5.68092 25.5574 -5.66579 25.6563 -5.65114L26.2406 -5.56917L26.8071 -5.499C28.7594 -5.27415 30.3986 -5.26722 31.883 -5.48802C35.7922 -6.06946 38.0624 -8.33219 38.4771 -12.6178ZM39.3569 -7.01523L40.0677 -6.83468C39.3396 -3.96842 37.1408 -2.45262 33.6167 -1.99894C33.1314 -1.93647 32.6338 -1.89264 32.114 -1.86711L31.6628 -1.8497C31.2057 -1.83675 30.7302 -1.83718 30.2302 -1.85079L29.7218 -1.86877C29.6356 -1.8725 29.5487 -1.87659 29.461 -1.88104L28.9254 -1.9121L28.37 -1.95183L27.7934 -2.00018L27.1943 -2.05709L26.5713 -2.12253L25.9229 -2.19645L24.8998 -2.32312L24.1822 -2.41802L23.0487 -2.57596L18.7243 -3.21038L17.2113 -3.42003L15.9589 -3.57722L15.3283 -3.64689L14.7405 -3.70394L14.1798 -3.75003L13.4936 -3.79472L13.0782 -3.81587C10.9317 -3.91479 9.70896 -3.35904 9.06446 -2.19403L8.96422 -2.00193C8.74231 -1.54922 8.60232 -1.0578 8.50749 -0.373171L8.46951 -0.0674772L8.43641 0.264579C8.43126 0.322269 8.42629 0.381169 8.42149 0.441338L8.39451 0.818006L8.37081 1.22779L8.34 1.91049L8.30468 2.8371L8.28162 3.29858C8.27724 3.37398 8.27259 3.44862 8.26766 3.52251L8.23456 3.95696C8.22845 4.02789 8.22203 4.09809 8.2153 4.16756L8.17107 4.57571C7.80984 7.57226 6.77154 9.12457 4.1392 9.85728C2.15908 10.4085 -0.116953 10.1419 -2.62866 9.17906C-5.10234 8.23076 -7.72734 6.64005 -10.4073 4.58685C-11.982 3.38045 -13.4788 2.08866 -14.8495 0.796808L-15.3125 0.355647L-15.7409 -0.0617142L-16.2892 -0.611005L-16.5978 -0.93078L-16.0632 -1.43272L-15.6125 -0.969151L-15.2258 -0.583721L-14.8034 -0.17216L-14.3465 0.263149C-12.9929 1.5389 -11.5147 2.8147 -9.96135 4.00472C-7.3326 6.01866 -4.76445 7.57492 -2.36616 8.49431C0.0110016 9.4056 2.13403 9.65422 3.94255 9.15081C6.2115 8.51925 7.11381 7.20521 7.44169 4.50488L7.48471 4.10961L7.52042 3.69503C7.52579 3.62429 7.53089 3.55274 7.5357 3.48035L7.56143 3.03593L7.61721 1.63802L7.63867 1.18262L7.66288 0.762064C7.66718 0.694725 7.67163 0.628725 7.67624 0.564009L7.70589 0.190653L7.74005 -0.154606L7.77942 -0.474466C7.89898 -1.3473 8.0896 -1.94679 8.42277 -2.54902C9.21515 -3.98132 10.7068 -4.65927 13.112 -4.54843C13.3966 -4.53531 13.6737 -4.51993 13.9519 -4.50136L14.5297 -4.45826L14.834 -4.43196L15.3056 -4.38658L15.8025 -4.33335L16.518 -4.2487L17.311 -4.14663L18.4397 -3.99152L20.6493 -3.67065L22.7605 -3.35845L23.9029 -3.19638L24.9764 -3.05273L25.9856 -2.92763L26.6248 -2.85461L27.2388 -2.78993L27.8288 -2.73363L28.3961 -2.68576L28.9422 -2.64635C29.0315 -2.64048 29.12 -2.63498 29.2076 -2.62982L29.7242 -2.60318L30.2228 -2.58509L30.7048 -2.57561C30.9418 -2.57302 31.1731 -2.57368 31.3993 -2.57759L31.8455 -2.58978C31.9188 -2.59253 31.9916 -2.59565 32.0639 -2.59914L32.4925 -2.62445C32.8453 -2.64919 33.1876 -2.6831 33.523 -2.72627C36.6967 -3.13484 38.6177 -4.41575 39.3075 -6.83188L39.3569 -7.01523ZM39.8995 -5.13587L40.5922 -4.89522C39.774 -2.54007 37.6708 -1.34207 34.345 -0.999187L34.0317 -0.96897L33.7188 -0.943083L33.2467 -0.912416L32.9279 -0.897447L32.604 -0.886881L32.2733 -0.880743L31.9345 -0.879053L31.5857 -0.881834L31.2256 -0.889107L30.6607 -0.908487L30.2652 -0.927085L29.6398 -0.963554L28.971 -1.01038L28.2536 -1.06762L27.2122 -1.1603L26.0624 -1.27181L24.7915 -1.40234L23.0605 -1.58541L21.7776 -1.71532L20.6183 -1.82419L19.8211 -1.89218L18.8429 -1.96478L18.3859 -1.99341L17.7354 -2.02685L17.3224 -2.04284L16.7294 -2.05744L16.349 -2.06097L15.9784 -2.05956L15.6157 -2.05324L15.2593 -2.04204L14.9071 -2.02598L14.383 -1.99286C12.3461 -1.84296 11.1607 -1.14638 10.5189 0.0890331C10.2859 0.537374 10.1302 0.988356 10.0183 1.57849L9.96964 1.86123L9.92646 2.16672L9.88804 2.49793C9.882 2.55544 9.87612 2.61415 9.87039 2.67412L9.83775 3.04951L9.80803 3.45809L9.76737 4.13969L9.72636 4.91977L9.69671 5.37524C9.69133 5.44954 9.68571 5.52304 9.67986 5.59574L9.64177 6.02255L9.59741 6.4308C9.23193 9.4907 8.26756 10.953 5.65244 11.7087C3.54696 12.3171 1.05067 11.985 -1.7541 10.8664C-4.07202 9.94197 -6.53058 8.5095 -9.04669 6.70659C-10.6547 5.5544 -12.1895 4.3206 -13.5996 3.08674L-14.0762 2.66539L-14.5175 2.26676L-14.9222 1.89314L-15.4017 1.43685L-14.8874 0.914066L-14.579 1.20955L-14.2268 1.53811L-13.8094 1.91922L-13.3563 2.32416C-13.2779 2.39351 -13.198 2.46375 -13.1167 2.53485C-11.7234 3.754 -10.2067 4.97321 -8.61956 6.11049C-6.14779 7.88163 -3.738 9.28568 -1.48244 10.1852C1.18449 11.2489 3.52469 11.5602 5.44886 11.0042C7.75309 10.3383 8.57553 9.06222 8.89096 6.15962L8.93093 5.75363C8.93709 5.68425 8.94302 5.61401 8.94872 5.5429L8.98029 5.10559L9.04844 3.8594L9.07634 3.40697C9.08116 3.33456 9.08608 3.2636 9.09111 3.19403L9.12277 2.79285L9.15789 2.42218C9.16408 2.36278 9.17044 2.30453 9.17699 2.24737L9.21875 1.91699C9.22614 1.86394 9.23375 1.81186 9.2416 1.76068L9.29171 1.46402L9.34835 1.18618C9.46866 0.647382 9.63272 0.204024 9.8681 -0.249042C10.6343 -1.72395 12.0513 -2.55658 14.3291 -2.72422L14.687 -2.74811L15.2263 -2.77475L15.5904 -2.78635L15.9603 -2.79298L16.3379 -2.79462L16.725 -2.79124L17.1235 -2.78282L17.5352 -2.76933L17.9622 -2.75076L18.635 -2.71328L19.3525 -2.6642L20.121 -2.60343L21.2357 -2.50407L22.4672 -2.38356L26.1199 -2.00309L26.9836 -1.91855L27.785 -1.84449L28.5291 -1.78085L29.2213 -1.72753L29.8666 -1.68447L30.4703 -1.65158L31.0375 -1.62877L31.3979 -1.61913L31.9159 -1.61297L32.2483 -1.61435L32.5722 -1.62009L32.8891 -1.63018L33.2005 -1.64458L33.6608 -1.67423L34.1175 -1.71346L34.2698 -1.72865C37.2588 -2.03682 39.0911 -3.04277 39.8396 -4.97288L39.8995 -5.13587ZM40.4494 -3.26648L41.1089 -2.94587C40.1994 -1.07504 38.1696 -0.0715275 35.0502 0.302695L34.6053 0.351246L34.2714 0.38246L33.9355 0.409559L33.5962 0.432568L33.2519 0.451511L32.901 0.466413L32.5419 0.477298L32.1732 0.48419L31.5984 0.487097L30.993 0.481159L30.5698 0.472328L30.1291 0.459627L29.4317 0.433372L28.4261 0.385053L27.3222 0.321695L26.1077 0.243496L22.6446 0.00269604L21.0718 -0.0961084L20.375 -0.134567L19.5243 -0.174702L18.9368 -0.19656L18.3856 -0.211454L17.6959 -0.220636L17.3662 -0.220713C16.7693 -0.218116 16.2105 -0.200522 15.6373 -0.168673C12.7696 -0.00934505 11.7728 1.03611 11.355 4.09074L11.3076 4.46702L11.2652 4.86301L11.2274 5.27915L11.1937 5.71587L11.1262 6.76592L11.0912 7.22977L11.0509 7.67383C11.0438 7.74621 11.0364 7.81779 11.0287 7.88857L10.9797 8.30378C10.588 11.3472 9.64563 12.8152 7.16559 13.56C4.96802 14.2199 2.277 13.837 -0.800285 12.596C-2.99052 11.7127 -5.31211 10.4205 -7.69246 8.82667C-9.33256 7.72849 -10.9039 6.55249 -12.352 5.37643L-12.8415 4.9748L-13.2953 4.59486L-13.8987 4.07615L-14.163 3.84237L-14.2055 3.80396L-13.7122 3.26129L-13.3279 3.60082L-12.8212 4.03535L-12.3733 4.41044C-12.2179 4.5392 -12.0566 4.67157 -11.8897 4.80718C-10.458 5.96988 -8.90438 7.13265 -7.28445 8.21732C-4.9429 9.78517 -2.66368 11.0538 -0.526011 11.9159C2.41113 13.1004 4.94549 13.461 6.95467 12.8577C8.9752 12.2508 9.81435 11.0914 10.1971 8.60568L10.2512 8.22278C10.2597 8.15728 10.2679 8.09092 10.2758 8.02369L10.3207 7.60987L10.36 7.17471C10.3662 7.10037 10.3721 7.02512 10.3778 6.94894L10.4792 5.40219C10.4846 5.3262 10.4901 5.25175 10.4957 5.17876L10.53 4.75799L10.5668 4.36955C10.5732 4.30734 10.5797 4.24636 10.5864 4.18654L10.6284 3.84111C10.7607 2.84384 10.9527 2.18438 11.2974 1.50742C12.0477 0.0340452 13.4156 -0.7797 15.5966 -0.900877L16.0722 -0.924202L16.5471 -0.940983L17.0277 -0.951133L17.5206 -0.954564L18.2081 -0.948537L18.7548 -0.935953L19.5375 -0.908257L20.3959 -0.867892L21.5986 -0.79931L23.272 -0.68989L25.8284 -0.510455L27.6344 -0.39419L28.4444 -0.348442L29.4397 -0.300452L30.1293 -0.274314L30.5649 -0.261621L31.1857 -0.249736L31.7721 -0.246502L32.1465 -0.249188L32.5094 -0.255774L32.8624 -0.266283L33.207 -0.280735L33.5447 -0.299152L33.8771 -0.321558L34.3691 -0.36269L34.6948 -0.395161C37.6539 -0.708796 39.533 -1.56666 40.3736 -3.11892L40.4494 -3.26648ZM41.014 -1.40986L41.6109 -0.983775C40.6439 0.370701 38.769 1.11529 35.9495 1.4406L35.5139 1.48694L35.2139 1.5152C34.8505 1.54772 34.4867 1.57402 34.1089 1.59448L33.53 1.62085C33.4312 1.62453 33.3311 1.62786 33.2294 1.63085L32.5996 1.64463C32.3824 1.64787 32.1575 1.64978 31.923 1.6504L31.2979 1.64917L30.5714 1.64173L29.5016 1.62231L27.9753 1.58354L25.0812 1.49608L23.7106 1.46184L22.7734 1.44498L21.9054 1.43613L21.0989 1.43568C21.0124 1.43611 20.9269 1.43671 20.8424 1.43747L20.3461 1.44403L19.8703 1.45467L19.1899 1.47854L18.7551 1.4999L18.3328 1.52575L17.9206 1.55622L17.5162 1.5914L17.1173 1.63143L16.9193 1.6533C14.3419 1.94639 13.3431 2.96013 12.868 5.68077L12.809 6.0454C12.7902 6.17023 12.7723 6.29836 12.7553 6.42988L12.7065 6.83468L12.6622 7.26031L12.6216 7.70724L12.5335 8.82465C12.5268 8.9021 12.52 8.9787 12.513 9.05445L12.469 9.49885C12.4612 9.57125 12.4533 9.64282 12.4452 9.71358L12.394 10.1284C11.9812 13.2348 11.091 14.6575 8.67877 15.4112C6.41549 16.1182 3.54945 15.699 0.215267 14.3659C-1.8696 13.5324 -4.07782 12.3644 -6.34517 10.9472C-8.0161 9.90282 -9.62237 8.78439 -11.1066 7.66589L-11.6086 7.28393L-12.0742 6.92258L-12.5017 6.58392L-13.0092 6.17055L-12.5375 5.60901L-12.3119 5.79488L-11.8372 6.17564L-11.396 6.52152L-10.9178 6.88902C-10.8351 6.95195 -10.7509 7.0157 -10.6653 7.08023C-9.19707 8.18665 -7.60795 9.29313 -5.95649 10.3253C-3.72341 11.7211 -1.55236 12.8694 0.487513 13.685C3.67979 14.9613 6.3903 15.3578 8.46009 14.7112C10.3253 14.1285 11.1356 13.0774 11.5504 10.7854L11.6112 10.4229L11.6663 10.0402C11.675 9.97473 11.6836 9.90836 11.6919 9.84111L11.7394 9.42693L11.7825 8.99098L11.8218 8.53263L11.8921 7.61762L11.9314 7.15368L11.9719 6.7265C11.9788 6.65819 11.9858 6.59127 11.9929 6.52569L12.0369 6.14762L12.0842 5.79823C12.0924 5.74221 12.1008 5.68726 12.1093 5.63329L12.1632 5.32089C12.2762 4.71777 12.4219 4.23833 12.6309 3.76622L12.7408 3.53024C13.4698 2.03782 14.7723 1.15939 16.8364 0.924663L17.2413 0.881288C17.3091 0.874479 17.377 0.867878 17.4451 0.861485L18.0654 0.809425L18.4892 0.780693L18.924 0.7566L19.372 0.737024L19.8357 0.721842L20.3174 0.710934L20.8194 0.704177L21.344 0.70145L22.1784 0.704652L22.7698 0.71147L24.0474 0.735797L27.9562 0.847681L28.9157 0.87022L30.1231 0.890588L30.6968 0.896387L31.5209 0.899314L32.3024 0.895L33.0424 0.883095L33.7423 0.863247L34.4033 0.835103L34.8229 0.811559L35.2262 0.784067L35.6135 0.752524L35.9851 0.716826L36.3416 0.676868L36.6831 0.632547L37.0101 0.583758L37.3229 0.530397L37.622 0.47236C37.8168 0.432086 38.0027 0.388625 38.1802 0.341839L38.4402 0.269148C38.4825 0.256611 38.5242 0.243862 38.5655 0.230899L38.8071 0.15053C39.0428 0.0675526 39.2609 -0.0232983 39.463 -0.122491L39.6599 -0.224482C39.9474 -0.381692 40.2002 -0.558024 40.4241 -0.75506L40.569 -0.889503C40.7098 -1.02705 40.8383 -1.17395 40.956 -1.33068L41.014 -1.40986ZM41.6062 0.435339L42.0858 0.990124C41.9829 1.07903 41.8762 1.16371 41.7646 1.24439L41.5936 1.36241C41.4771 1.43912 41.3554 1.51192 41.2276 1.581L41.0313 1.68185C40.9978 1.6982 40.9639 1.71433 40.9296 1.73023L40.7185 1.823L40.4968 1.91057C40.3832 1.95308 40.2654 1.99369 40.1429 2.0325L39.8918 2.10771C39.806 2.13199 39.718 2.15549 39.6278 2.17824L39.3503 2.24424C39.3029 2.25487 39.2549 2.26532 39.2063 2.27558L38.9073 2.33506L38.5932 2.39038L38.2634 2.44168L37.9173 2.48913L37.5541 2.53285L37.1733 2.57302L36.7742 2.60976L36.3562 2.64324L35.9187 2.6736L35.461 2.70099L34.9825 2.72556L34.2243 2.75745L33.6909 2.77561L32.5545 2.80519L31.9501 2.81691L30.6659 2.83492L26.8763 2.86672L26.0742 2.87871L25.308 2.89439L24.5757 2.91405L23.8755 2.93796L23.2053 2.96641L22.5632 2.99969L21.9473 3.03807L21.3555 3.08184L20.7859 3.13129L20.2366 3.18669C20.1466 3.19644 20.0574 3.20644 19.9689 3.21671L19.4464 3.28158C19.3606 3.29294 19.2755 3.30458 19.191 3.3165L18.6907 3.39148L18.2029 3.47354C15.9544 3.87319 14.9634 4.8276 14.4355 7.13252L14.3632 7.47107C14.3516 7.52905 14.3403 7.58783 14.3292 7.64739L14.2653 8.01447L14.2064 8.40121L14.1521 8.80812C14.1434 8.87766 14.1348 8.94805 14.1264 9.01931L14.0779 9.45746L14.0325 9.91708L13.964 10.6584L13.9158 11.1223L13.8642 11.5648L13.8086 11.9864C13.3659 15.1399 12.5256 16.5031 10.1926 17.2622C7.885 18.0131 4.85986 17.5712 1.28156 16.1736C-0.716702 15.3932 -2.83151 14.3351 -5.00532 13.0683C-6.70558 12.0775 -8.34497 11.0163 -9.86344 9.95515L-10.3771 9.59277L-10.8539 9.24994L-11.4889 8.78198L-11.8122 8.53659L-11.3626 7.95728L-10.9566 8.26423L-10.4226 8.65681C-10.3472 8.71154 -10.2703 8.76718 -10.1917 8.82367L-9.70188 9.17254C-9.6172 9.23229 -9.53101 9.2928 -9.44337 9.35406C-7.94043 10.4044 -6.31763 11.4548 -4.63609 12.4347C-2.49279 13.6837 -0.410873 14.7253 1.54835 15.4906C4.98325 16.8321 7.85516 17.2516 9.96573 16.5649C11.6704 16.0102 12.4499 15.0703 12.8912 12.9937L12.9599 12.6469L13.0233 12.2795L13.0818 11.8907C13.1005 11.7574 13.1186 11.6205 13.136 11.4798L13.1866 11.0461L13.234 10.589L13.3255 9.59614L13.3704 9.14053L13.4158 8.72044L13.4626 8.3327L13.5117 7.97415L13.5638 7.64164L13.6199 7.33201C13.6296 7.28214 13.6395 7.23309 13.6496 7.18479L13.7131 6.90356C13.8347 6.40266 13.9867 5.97729 14.1924 5.53989C14.9003 4.034 16.1343 3.09639 18.0746 2.75152L18.3223 2.70867L18.8262 2.6285L19.3431 2.55547L19.8749 2.48928C19.9649 2.47881 20.0556 2.4686 20.1471 2.45867L20.7051 2.4022L21.2831 2.35184L21.8831 2.30729L22.5071 2.26826C22.6132 2.2622 22.7204 2.25636 22.8287 2.25072L23.4925 2.21942L24.5431 2.18133L25.2831 2.16143L26.4575 2.13905L30.6351 2.10171L31.5896 2.0889L32.1949 2.0782L33.3335 2.05104L34.1267 2.02512L34.6277 2.00497L35.1072 1.98237L35.7873 1.94359L36.2155 1.91431L36.8213 1.86492L37.3853 1.80859L37.739 1.76697C37.7965 1.75975 37.8533 1.7524 37.9094 1.74489L38.2375 1.69812L38.5494 1.64776L38.8457 1.59368L39.1268 1.53575L39.3934 1.47385L39.6461 1.40784L39.8854 1.33762C39.9631 1.31349 40.0386 1.28863 40.112 1.26303L40.3265 1.18397L40.5293 1.1003L40.7212 1.01189C40.7834 0.981617 40.8438 0.950534 40.9026 0.91862L41.0743 0.820362C41.1856 0.753165 41.2907 0.682559 41.3905 0.608372L41.5362 0.494386L41.6062 0.435339ZM42.2374 2.28374L42.5202 2.96035L42.348 3.0293C42.3187 3.04049 42.2893 3.05153 42.2595 3.06242L42.0773 3.12607L41.8872 3.18636L41.6885 3.24343L41.4803 3.29743L41.2615 3.34849L41.0314 3.39675L40.7891 3.44236L40.5335 3.48545L40.1236 3.54568L39.679 3.60103L39.1967 3.65199L38.6737 3.69902L37.9078 3.75644L36.8302 3.82128L36.3588 3.84552L34.7949 3.91419L30.6131 4.0654L29.1078 4.13062L28.5534 4.15935L27.9323 4.19446L27.0444 4.25039C26.754 4.27006 26.4691 4.29077 26.1895 4.3126L25.3665 4.38147C23.0787 4.58645 21.1599 4.87653 19.4877 5.29209C17.3021 5.83524 16.3508 6.94801 15.825 9.44403L15.7526 9.8101C15.741 9.87271 15.7297 9.93612 15.7185 10.0004L15.6539 10.3956C15.6435 10.4632 15.6333 10.5316 15.6233 10.6008L15.5652 11.0265L15.5108 11.4731L15.3844 12.6468L15.3296 13.1094L15.2718 13.5501C15.2619 13.6217 15.2518 13.6925 15.2416 13.7624L15.1784 14.1714L15.1107 14.5601L15.0382 14.9291L14.9602 15.2789C14.4477 17.4356 13.5734 18.4796 11.706 19.1133C9.37143 19.9054 6.19974 19.4531 2.38712 18.015C0.459974 17.2881 -1.57798 16.3276 -3.67454 15.1901C-5.40256 14.2525 -7.07312 13.2484 -8.62371 12.2442L-9.1484 11.9013L-9.63558 11.5769L-10.4475 11.021L-10.6158 10.902L-10.1885 10.3061L-9.66889 10.668L-9.22615 10.9685L-8.7443 11.2894L-8.22509 11.6287C-6.68951 12.6231 -5.0349 13.6177 -3.32482 14.5455C-1.2556 15.6682 0.753029 16.6149 2.64593 17.3289C6.31375 18.7124 9.33537 19.1433 11.4704 18.4188C13.2063 17.8298 13.9448 16.8083 14.3876 14.4364L14.4534 14.0607C14.4641 13.9962 14.4745 13.9309 14.4848 13.8646L14.5447 13.4555L14.6014 13.0233L14.6554 12.5672L14.7567 11.6176L14.8123 11.1379C14.8219 11.0596 14.8317 10.9823 14.8417 10.9058L14.9037 10.4569C14.9251 10.3107 14.9474 10.1678 14.9706 10.0281L15.043 9.6188C15.6079 6.62123 16.6815 5.23384 19.3108 4.5804C21.3238 4.08016 23.6687 3.75974 26.5539 3.54969L27.4359 3.48991L28.9421 3.40464L30.3318 3.34256L35.0074 3.1716L36.0277 3.1269L36.9513 3.07964L37.7848 3.02885L38.5347 2.97355L39.0463 2.92851L39.5173 2.87998L39.9506 2.82752L40.3489 2.77073L40.5964 2.73025L40.8303 2.68755L41.0516 2.64249L41.261 2.59495C41.295 2.58682 41.3285 2.57857 41.3615 2.57022L41.5547 2.51874L41.738 2.46447C41.7678 2.45519 41.7972 2.44578 41.8263 2.43625L41.9965 2.37758L42.1589 2.31582L42.2374 2.28374ZM42.9269 4.89782L42.8972 4.16508L42.7982 4.16895L41.9959 4.19183L38.358 4.2515L36.7041 4.28732L35.5074 4.32149L34.1339 4.37351L33.3588 4.4108L32.3635 4.46888L31.6336 4.51953L31.1499 4.55701L30.4217 4.61927L29.9306 4.66506L29.1787 4.74066L28.3872 4.82737C25.3757 5.17478 22.7509 5.6901 20.5462 6.41157C18.0123 7.24069 16.9936 8.80175 16.4273 12.0016L16.3543 12.4381C16.3426 12.5125 16.3311 12.5877 16.3197 12.6637L16.2538 13.1302C16.2325 13.2891 16.2119 13.4514 16.1918 13.6173L16.0801 14.5372L15.988 15.2115L15.9236 15.6309L15.8561 16.0271C15.8446 16.0913 15.8329 16.1545 15.8211 16.2168L15.748 16.5797L15.6704 16.9213C15.2034 18.8537 14.4771 19.7407 12.9754 20.2728C10.8294 21.0333 7.66778 20.6019 3.77503 19.1973C1.93566 18.5336 -0.0138111 17.6713 -2.02303 16.658C-3.75981 15.782 -5.44399 14.8431 -7.00982 13.9043L-7.53938 13.584L-8.03108 13.2811L-8.4831 12.9974L-9.01414 12.6555L-9.41897 13.267L-8.41861 13.9036L-7.92176 14.2097L-7.38692 14.5333C-5.80666 15.4807 -4.10718 16.4281 -2.35326 17.3127C-0.319384 18.3385 1.65642 19.2124 3.52612 19.8871C7.56511 21.3445 10.8731 21.7958 13.2203 20.9641C14.916 20.3632 15.7614 19.3997 16.29 17.4645L16.3777 17.1231C16.3918 17.0646 16.4057 17.0052 16.4193 16.9451L16.4988 16.5738C16.5116 16.5103 16.5243 16.4458 16.5367 16.3805L16.6093 15.9779L16.6781 15.5535C16.6893 15.4809 16.7003 15.4074 16.7113 15.3329L16.7754 14.8746L16.8373 14.3929L16.9503 13.4601L17.0137 12.9869L17.081 12.5363C17.1622 12.0235 17.2526 11.5557 17.3566 11.1283L17.4491 10.7718C18.0097 8.74912 18.94 7.70875 20.7743 7.10854C23.0534 6.36272 25.811 5.839 29.0009 5.49695C29.7672 5.41477 30.49 5.34602 31.2102 5.28793L31.931 5.23329L32.6593 5.18514L33.4042 5.14287L34.4389 5.09458L35.5408 5.05418L36.7316 5.02022L38.7317 4.97815L40.85 4.94508L42.3925 4.91574L42.9269 4.89782ZM43.2969 6.02077C38.3141 4.73409 28.1814 5.5867 21.7809 8.24484C19.4757 9.2023 18.4887 10.8173 17.901 13.896L17.8177 14.3571L17.7395 14.8396L17.6657 15.3442L17.5409 16.2601L17.4736 16.7286L17.4048 17.1719L17.334 17.5908L17.2607 17.9861C17.2483 18.05 17.2357 18.113 17.2229 18.1751L17.1447 18.5365C16.6639 20.6393 15.9659 21.5762 14.4803 22.1269C12.335 22.9221 9.04139 22.5001 4.93039 21.0925C3.13311 20.4771 1.23022 19.6902 -0.731655 18.7721C-2.49302 17.9477 -4.20424 17.0642 -5.7976 16.1807L-6.33659 15.8792L-6.83724 15.5942L-7.50353 15.2061L-7.83911 15.0054L-8.22142 15.6312L-8.17371 15.6602L-7.20287 16.2298L-6.69727 16.5177L-6.15321 16.822C-4.54603 17.7132 -2.82019 18.6043 -1.0425 19.4362C0.941742 20.3649 2.86843 21.1616 4.69283 21.7863C8.95168 23.2445 12.3875 23.6847 14.7352 22.8145C16.4654 22.1731 17.2765 21.1226 17.8115 18.9097L17.8959 18.5405L17.9761 18.1503L18.0527 17.7382C18.0652 17.6677 18.0776 17.5962 18.0898 17.5238L18.1622 17.0777L18.2324 16.608L18.4278 15.1947C18.4398 15.1122 18.4521 15.0306 18.4644 14.9501L18.5408 14.4785C18.5539 14.4019 18.5672 14.3262 18.5807 14.2514L18.6644 13.8141C18.6932 13.672 18.7229 13.5336 18.7536 13.3988L18.8492 13.0047C19.4096 10.8312 20.3035 9.65253 22.0622 8.92209C28.4235 6.28026 38.6236 5.4579 43.3461 6.79369L43.5457 6.08805L43.2969 6.02077ZM23.0143 10.0813C29.9189 6.52779 39.3213 5.49107 43.9601 7.92292L44.1587 8.03084L43.799 8.66989C39.4851 6.24162 30.1567 7.2302 23.3499 10.7334C21.5135 11.6785 20.6579 13.1707 20.0945 15.9335L20.0031 16.4058C19.9883 16.4865 19.9737 16.5683 19.9593 16.651L19.7834 17.7527L19.6965 18.3263L19.6195 18.8086L19.5412 19.2665L19.461 19.7006L19.3784 20.1119L19.2926 20.5009C18.7385 22.896 17.9604 24.0005 16.2498 24.665C13.9118 25.5731 10.3552 25.1532 5.88168 23.7104C4.09138 23.133 2.20171 22.4051 0.254929 21.5613C-1.54418 20.7815 -3.29357 19.9463 -4.92466 19.1111L-5.73855 18.6889L-6.57418 18.2429L-7.02485 17.995L-6.665 17.3561L-6.11434 17.658L-5.64641 17.9083L-5.13779 18.1756L-4.59042 18.4584C-2.97252 19.2868 -1.23705 20.1154 0.546555 20.8884C2.47291 21.7234 4.34094 22.4429 6.10678 23.0124C10.4306 24.407 13.8494 24.8106 15.9843 23.9814C17.4802 23.4003 18.1485 22.376 18.6572 19.9758L18.7383 19.5743L18.8174 19.1479L18.8949 18.6956L19.0096 17.9666L19.1504 17.0454C19.1921 16.7819 19.2354 16.5273 19.2804 16.281L19.3733 15.7997C19.4051 15.6429 19.438 15.4898 19.4718 15.3401L19.5768 14.9018C20.191 12.4767 21.1476 11.0421 23.0143 10.0813ZM24.2483 11.9203C31.387 7.43848 39.9017 6.26231 44.5717 9.8397L44.7429 9.97437L44.2821 10.5448C39.9492 7.04483 31.6298 8.15195 24.6382 12.5413C22.9834 13.5803 22.1561 15.1215 21.5761 17.7914L21.4701 18.3054C21.4529 18.3934 21.4359 18.4824 21.419 18.5727L21.0823 20.5341L20.9954 21.0141L20.9075 21.4686L20.8179 21.8983L20.7258 22.3042C20.1494 24.7349 19.3978 25.849 17.7651 26.5149C15.4456 27.461 11.774 27.0697 7.09002 25.6563C5.32335 25.1233 3.45938 24.457 1.53863 23.6877C-0.279137 22.9597 -2.04881 22.1799 -3.70034 21.4L-4.25956 21.1337L-5.02418 20.7617L-5.77863 20.3834L-5.82774 20.3581L-5.49013 19.7071L-5.23443 19.8375L-4.45724 20.2231L-3.9418 20.4728L-3.38722 20.7369C-1.74824 21.5108 0.00819397 22.2848 1.81128 23.0069C3.71328 23.7687 5.55743 24.4279 7.30186 24.9543C11.834 26.3218 15.3723 26.6989 17.4882 25.8359C18.8413 25.284 19.4943 24.3139 20.0165 22.1136L20.1048 21.7242L20.1913 21.3098L20.2764 20.8694L20.4031 20.1583L20.631 18.8089L20.6471 18.7183C21.2734 15.1993 22.1623 13.23 24.2483 11.9203ZM26.4407 13.0628C26.1205 13.2877 25.801 13.5209 25.4826 13.7623C23.6612 15.1432 22.7997 17.0932 22.1544 20.3615L21.834 22.0871L21.7439 22.5603L21.654 23.0069L21.5638 23.4277C21.5487 23.4957 21.5336 23.5627 21.5184 23.6287L21.4265 24.0126C21.4111 24.0746 21.3956 24.1356 21.3799 24.1957L21.2851 24.5445C20.7726 26.3451 20.1437 27.1962 18.9917 27.6908C17.534 28.3166 15.3151 28.3388 12.4981 27.844L11.9268 27.7381L11.3399 27.6187C10.9434 27.5345 10.5367 27.4414 10.1201 27.3395L9.48785 27.18C9.1681 27.097 8.8429 27.0091 8.51243 26.9165C6.77952 26.4306 4.9484 25.8255 3.0597 25.1282C1.24029 24.4564 -0.533428 23.7365 -2.18958 23.0167L-2.47461 22.8923L-3.27099 22.5388L-3.86298 22.2696L-4.31546 22.0588L-4.63115 22.7207L-4.16979 22.9357L-3.31447 23.3228L-2.4819 23.6892C-0.813828 24.4143 0.972431 25.1393 2.80571 25.8161C4.71175 26.5198 6.56114 27.1309 8.31444 27.6226C8.4256 27.6538 8.5362 27.6844 8.64621 27.7145L9.29933 27.8889L9.93838 28.0503C10.0437 28.0761 10.1484 28.1014 10.2526 28.1262L10.8701 28.268C11.1752 28.3355 11.4749 28.3981 11.7689 28.4556L12.3496 28.5638C15.3105 29.087 17.6651 29.0584 19.2809 28.3646C20.5898 27.8028 21.312 26.9129 21.8664 25.167L21.9717 24.8182C21.989 24.7583 22.0061 24.6974 22.023 24.6356L22.1234 24.2531C22.1563 24.1218 22.1889 23.9865 22.2212 23.8472L22.3171 23.4169C22.333 23.3431 22.3488 23.2683 22.3646 23.1924L22.4591 22.7239L22.5535 22.229L22.7708 21.0399L22.9319 20.2161C23.5379 17.2845 24.3367 15.5514 25.9256 14.3467C32.9119 9.05003 40.3143 7.84962 44.7834 12.4251L45.308 11.9127L45.1489 11.7532C40.7721 7.45456 33.9929 8.14769 27.4034 12.4132L26.9216 12.7317L26.4407 13.0628ZM27.1444 15.2254C27.0024 15.3505 26.8604 15.4778 26.7184 15.6071C25.149 17.0355 24.3256 18.9497 23.6726 21.9704L23.5634 22.4901L23.261 24.0162L23.1635 24.4917L23.0186 25.1546L22.922 25.5642L22.8247 25.9491L22.7262 26.31C22.7096 26.3682 22.6929 26.4254 22.6762 26.4817L22.5746 26.8084C22.0774 28.334 21.4838 29.098 20.4946 29.5463C18.9527 30.2449 16.4501 30.2496 13.2117 29.669L12.6149 29.557C12.4133 29.5175 12.209 29.4759 12.0021 29.4323L11.3737 29.2949C11.2677 29.271 11.1611 29.2465 11.0538 29.2215L10.4026 29.0655C10.183 29.0115 9.96096 28.9554 9.73649 28.8973C8.00533 28.4492 6.17658 27.8928 4.29027 27.2526C2.45817 26.6307 0.671379 25.9643 -0.997513 25.2979L-1.56229 25.0704L-2.33436 24.7529L-3.14033 24.411L-3.43452 25.0827L-2.3676 25.5331L-1.83843 25.7498L-1.26946 25.9789C0.41073 26.6498 2.20938 27.3207 4.05457 27.947C5.957 28.5927 7.80272 29.1543 9.55272 29.6072C9.66597 29.6366 9.77863 29.6654 9.89068 29.6937L10.5557 29.8575C10.6654 29.8838 10.7744 29.9096 10.8828 29.9349L11.5258 30.0804L12.1538 30.2135L12.7666 30.3339C16.2965 30.9991 19.039 31.0109 20.7973 30.2142C22.0041 29.6674 22.6951 28.7965 23.2506 27.1107L23.3601 26.7625L23.4665 26.3917L23.5707 25.9975L23.6734 25.5789L23.7751 25.135L23.8765 24.6651C23.8935 24.5845 23.9104 24.5029 23.9274 24.4201L24.3182 22.4608L24.4544 21.8309C25.0667 19.1184 25.8329 17.4047 27.212 16.1494C27.846 15.5723 28.478 15.0377 29.1065 14.5473L29.5251 14.2269C29.9431 13.9131 30.3594 13.6191 30.7737 13.3453L31.1873 13.0783C36.5548 9.69534 41.5532 9.76103 45.296 14.3112L45.8624 13.8453L45.712 13.6655C41.6865 8.93031 36.355 8.93686 30.7471 12.4907L30.326 12.7639C30.2557 12.8105 30.1854 12.8577 30.115 12.9054L29.6926 13.1983C29.6221 13.2482 29.5516 13.2987 29.481 13.3497L29.0574 13.6621L28.6331 13.9873L28.2083 14.3253C27.9957 14.4975 27.783 14.6744 27.5702 14.856L27.1444 15.2254ZM28.3653 17.0144L27.956 17.454C26.6248 18.9056 25.8504 20.7657 25.2027 23.5369L25.1562 23.7381L25.0124 24.3867L24.6841 25.9426L24.5796 26.4204L24.4764 26.8708L24.374 27.2948L24.2717 27.6932L24.1689 28.067L24.0652 28.4169C24.0478 28.4733 24.0303 28.5287 24.0127 28.5832L23.9064 28.899C23.4227 30.2709 22.8648 30.9857 21.997 31.4021C20.3316 32.2013 17.4002 32.1662 13.5346 31.4426L12.9165 31.3227C12.8122 31.3018 12.7073 31.2804 12.6017 31.2585L11.9609 31.1216L11.3053 30.9736L10.972 30.8955C9.23255 30.4827 7.39513 29.9703 5.49995 29.3806C3.6594 28.808 1.86442 28.1942 0.187876 27.5806L-0.64835 27.2707L-1.39253 26.9877L-1.96494 26.7638L-2.23814 27.4443L-1.16691 27.8589L-0.354742 28.1624L0.665974 28.5338C2.14003 29.0624 3.6939 29.5867 5.28208 30.0809C7.19238 30.6752 9.04567 31.1921 10.8027 31.609C10.9179 31.6363 11.0325 31.6632 11.1465 31.6896L11.8228 31.8422C11.9342 31.8667 12.045 31.8907 12.1552 31.9142L12.8086 32.0495L13.4465 32.173C17.4368 32.9177 20.479 32.9439 22.3143 32.0632C23.4583 31.5143 24.1247 30.6194 24.6903 28.8805L24.8022 28.5214C24.8576 28.336 24.9122 28.1419 24.9664 27.9384L25.0745 27.5191L25.1823 27.0742L25.2904 26.6027L25.3995 26.1039L25.7291 24.542L25.871 23.9019L25.989 23.401C26.5953 20.9102 27.3173 19.2355 28.4965 17.9497C28.6277 17.8066 28.7587 17.6659 28.8893 17.5275L29.2805 17.1193L29.6701 16.7253C29.7997 16.5963 29.929 16.4697 30.0581 16.3455L30.4443 15.9802L30.8289 15.6293C31.0847 15.4003 31.3394 15.1809 31.5929 14.9715L31.9723 14.6648C36.7432 10.893 41.0953 10.6792 44.8719 15.0088C42.552 12.5657 40.1009 11.7556 37.5397 12.4347C34.8066 13.1594 32.0867 15.5218 29.1953 19.3028C28.0882 20.7505 27.3744 22.5341 26.7471 25.0478L26.6979 25.2471L26.5986 25.6612L26.495 26.1084L26.0437 28.1232L25.931 28.5993L25.8199 29.0471L25.7096 29.4674C25.6913 29.5352 25.673 29.6019 25.6547 29.6675L25.5447 30.0484L25.4342 30.4041L25.3225 30.7355C24.8354 32.1208 24.2992 32.8495 23.4979 33.2583C22.5338 33.7502 21.0895 33.953 19.2405 33.8969L18.749 33.8764C17.8313 33.8281 16.8225 33.7212 15.731 33.559L15.1274 33.465L14.5078 33.3602C14.4032 33.3419 14.2979 33.3231 14.192 33.3038L13.5487 33.1829L12.8901 33.0515L12.2163 32.9096C10.4582 32.5301 8.60085 32.0574 6.68527 31.5128C4.84112 30.9885 3.04346 30.4266 1.36498 29.8648L0.796976 29.6731L0.0205669 29.4054L-0.790058 29.117L-1.0429 29.8053L-0.992752 29.8237L0.289444 30.2746L1.13221 30.5602C2.82077 31.1254 4.62899 31.6906 6.48472 32.2182C8.41458 32.7669 10.2869 33.2433 12.0616 33.6264C12.1786 33.6517 12.2951 33.6765 12.4109 33.7009L13.0979 33.8418C13.3243 33.887 13.548 33.9304 13.7692 33.9719L14.4245 34.0909C14.5324 34.1098 14.6397 34.1282 14.7462 34.1462L15.3773 34.2483C15.5849 34.2805 15.7897 34.3107 15.9918 34.339L16.5896 34.4181L17.1705 34.4855L17.7341 34.541C20.4165 34.7801 22.4882 34.5968 23.8312 33.9116C24.8733 33.3798 25.5096 32.4989 26.0726 30.8192L26.1881 30.4601L26.3023 30.0773C26.3212 30.0115 26.3401 29.9447 26.359 29.8768L26.4722 29.4569L26.5856 29.011L26.6998 28.5384L26.8156 28.0382L27.2618 26.0461L27.4586 25.2254C28.0638 22.8004 28.7445 21.0995 29.7778 19.7483C32.5787 16.0856 35.192 13.8159 37.7277 13.1435C39.8539 12.5797 41.907 13.166 43.9066 15.0745C42.0116 13.4399 40.0937 12.9637 38.1455 13.5613C35.8815 14.2558 33.7152 16.3271 31.3906 19.7097L31.0122 20.2698L30.6308 20.8527L30.4389 21.1528C29.5426 22.5643 28.9025 24.2425 28.3131 26.4834L28.2075 26.8926L28.0448 27.5507L27.4565 30.0496L27.3378 30.5273L27.2211 30.9766L27.1058 31.3983L26.9913 31.7933L26.8771 32.1626C26.3439 33.8271 25.8021 34.6779 24.9995 35.1154C23.9819 35.6701 22.3562 35.8902 20.2275 35.8135L19.7274 35.7906C19.4729 35.7765 19.2119 35.7585 18.9444 35.7367L18.4009 35.6878C18.3089 35.6788 18.2162 35.6694 18.1228 35.6596L17.5542 35.5955C17.458 35.584 17.3612 35.5721 17.2637 35.5597L16.6705 35.4807L16.0614 35.3918C15.8557 35.3605 15.6474 35.3276 15.4365 35.2931L14.7962 35.1848L14.1409 35.0669L13.4706 34.9396C11.6828 34.5913 9.79339 34.1548 7.84503 33.6503C6.00298 33.1733 4.20901 32.6622 2.53517 32.151L1.96878 31.9766L1.19476 31.7331L0.386793 31.4707L0.153595 32.166L1.22113 32.5109L2.03115 32.7635L3.04962 33.0726C4.52076 33.5126 6.07298 33.9489 7.66121 34.3602C9.62316 34.8682 11.5268 35.308 13.3304 35.6594C13.5633 35.7048 13.7937 35.7486 14.0215 35.7907L14.6972 35.9122L15.3572 36.0238C15.4659 36.0416 15.574 36.0589 15.6813 36.0758L16.3176 36.1723L16.9376 36.2584C17.1416 36.2854 17.3428 36.3107 17.5413 36.3342L18.1283 36.3994C18.5141 36.4394 18.8886 36.4722 19.2517 36.4976L19.7875 36.5304C22.2475 36.6573 24.1357 36.4215 25.3505 35.7593C26.1578 35.3192 26.7185 34.6174 27.2133 33.4049L27.3357 33.091L27.456 32.755C27.4759 32.6971 27.4958 32.6382 27.5156 32.5784L27.6339 32.2076C27.6535 32.1437 27.6732 32.0789 27.6928 32.0131L27.8105 31.6054C27.8301 31.5354 27.8498 31.4643 27.8695 31.3921L27.988 30.9458L28.1079 30.4725L28.2297 29.9715L28.7574 27.724L28.8656 27.2828L28.9703 26.8698L29.1181 26.3127C29.6633 24.3172 30.257 22.8073 31.0579 21.5459C31.2485 21.2457 31.4377 20.9544 31.6256 20.6718L31.9998 20.1186C34.2349 16.8697 36.2958 14.8958 38.3606 14.2624C40.0308 13.75 41.7008 14.1511 43.3926 15.5936C41.8252 14.429 40.2785 14.1463 38.7387 14.6905C36.8594 15.3548 35.1236 17.1698 33.2878 20.156L32.972 20.6794C32.5496 21.3926 32.1212 22.167 31.684 23.0029C30.9866 24.3362 30.4356 25.8695 29.9054 27.8118L29.8484 28.0227L29.6759 28.6809L29.4932 29.4087L28.9282 31.7284L28.7995 32.2338L28.6734 32.7091L28.5495 33.1551C28.5289 33.2271 28.5085 33.2978 28.4881 33.3674L28.3663 33.7712L28.2453 34.148C28.2251 34.2085 28.205 34.268 28.1849 34.3265L28.064 34.6642C28.0438 34.7184 28.0236 34.7715 28.0034 34.8236L27.8814 35.1243C27.473 36.0866 27.0418 36.6551 26.4987 36.9733C25.4951 37.5616 23.815 37.8091 21.5792 37.7551L21.0732 37.7382C20.9874 37.7345 20.9008 37.7305 20.8135 37.726L20.2807 37.6943C20.0098 37.6761 19.7324 37.6542 19.4486 37.6287L18.8724 37.573C18.775 37.5629 18.6768 37.5525 18.578 37.5416L17.9767 37.4718C17.8751 37.4594 17.7729 37.4465 17.6699 37.4333L17.0442 37.3496C16.9385 37.3349 16.8323 37.3197 16.7253 37.3043L16.0758 37.2068L15.4107 37.1003L14.7305 36.9848C12.9014 36.6661 10.9671 36.2625 8.97309 35.7939C7.13959 35.363 5.35647 34.9012 3.69457 34.4395L2.60985 34.1329L1.5627 33.8248L1.34834 34.5261L2.40685 34.8376L2.93261 34.9876L4.22158 35.3449C5.6823 35.7423 7.22499 36.1364 8.80531 36.5078C10.8124 36.9795 12.7603 37.3859 14.6046 37.7073L15.3061 37.8263L15.9918 37.9361C16.2177 37.9712 16.441 38.0047 16.6615 38.0366L17.3148 38.1275C17.4223 38.1419 17.5291 38.1558 17.6353 38.1694L18.2637 38.2458C18.4704 38.2696 18.6743 38.2918 18.8753 38.3123L19.4698 38.3689C19.5675 38.3775 19.6644 38.3857 19.7606 38.3934L20.3291 38.4348C20.4223 38.4409 20.5149 38.4465 20.6067 38.4517L21.1486 38.4776L21.6724 38.493C23.9891 38.5384 25.7523 38.2608 26.8695 37.606C27.7342 37.0993 28.3187 36.206 28.8807 34.5665L29.0054 34.1898L29.1299 33.7876L29.255 33.359C29.2759 33.2854 29.2969 33.2106 29.3179 33.1346L29.4449 32.665L29.574 32.1668C29.6175 31.9959 29.6614 31.8201 29.7059 31.6393L30.2672 29.3345L30.3861 28.864L30.5565 28.2131L30.7166 27.6311C31.2022 25.9117 31.7095 24.5364 32.3338 23.3428L32.656 22.7353C32.7629 22.5367 32.8692 22.342 32.975 22.1512L33.2908 21.5906C33.3956 21.4076 33.4999 21.2285 33.6038 21.0533L33.9141 20.5396C33.9657 20.4559 34.0171 20.3732 34.0684 20.2914L34.3751 19.8128C35.9542 17.4001 37.4475 15.9247 38.9831 15.382C40.3373 14.9033 41.7323 15.1938 43.1869 16.3549C41.8634 15.4775 40.5802 15.314 39.3227 15.825C37.4792 16.5742 35.8625 18.6604 34.1432 22.1833L33.8779 22.7366C33.7891 22.9249 33.7001 23.1169 33.6106 23.3127L33.3412 23.9116C33.2962 24.0134 33.251 24.116 33.2057 24.2197L32.9325 24.853C32.4234 26.0489 31.98 27.3816 31.535 28.9865L31.4737 29.2094L31.2886 29.9008L31.0923 30.6615L30.4147 33.3664L30.212 34.1388L30.0806 34.6166L29.9516 35.0655C29.9303 35.138 29.909 35.2092 29.8878 35.2794L29.7616 35.6864C29.7406 35.7519 29.7197 35.8164 29.6989 35.8797L29.5744 36.2464C29.0777 37.6608 28.5952 38.4527 27.9971 38.8325C26.9979 39.4671 25.2254 39.7448 22.8241 39.7076L22.3184 39.6954L21.795 39.6743C21.7063 39.6701 21.6169 39.6655 21.5268 39.6605L20.9774 39.6262L20.4111 39.5832L19.8282 39.5316C19.7297 39.5223 19.6304 39.5126 19.5305 39.5026L18.9231 39.4382C18.718 39.4153 18.5102 39.391 18.2998 39.3654L17.6607 39.2843L17.0063 39.1949C16.896 39.1793 16.785 39.1634 16.6734 39.1471L15.9964 39.0456C14.1136 38.755 12.121 38.3817 10.0676 37.9451C8.25 37.5587 6.48578 37.1446 4.84396 36.7305L4.02561 36.5214L3.29837 36.3305L2.73955 36.1793L2.54308 36.8859L4.10607 37.2995L5.2891 37.5976C6.75899 37.9614 8.31631 38.3225 9.91506 38.6624C11.9812 39.1017 13.9871 39.4775 15.8846 39.7703L16.5831 39.8752L17.2659 39.9716L17.9329 40.0594C18.0427 40.0734 18.1519 40.0869 18.2604 40.1002L18.9031 40.175L19.5294 40.241C19.6324 40.2513 19.7347 40.2612 19.8363 40.2707L20.4375 40.3232C20.5363 40.3312 20.6344 40.3389 20.7318 40.3461L21.3075 40.3849C21.402 40.3906 21.4958 40.3959 21.5889 40.4008L22.1386 40.4256L22.6707 40.4409C25.2866 40.4936 27.2337 40.1861 28.3903 39.4515C29.118 38.9893 29.6575 38.1631 30.1836 36.7284L30.3149 36.3569L30.4463 35.9592C30.4682 35.8907 30.4902 35.8211 30.5122 35.7503L30.6448 35.3117C30.667 35.2363 30.6892 35.1596 30.7116 35.0818L30.8468 34.6005L30.9844 34.0895L31.1927 33.2824L31.7333 31.118L31.9345 30.3299L32.181 29.403L32.3509 28.794C32.7514 27.3898 33.1537 26.2055 33.6073 25.1402L33.8762 24.5167L34.1425 23.9164L34.4064 23.3391C34.4501 23.2448 34.4938 23.1515 34.5374 23.0591L34.798 22.5163L35.0565 21.9965C35.0995 21.9118 35.1424 21.828 35.1852 21.7452L35.4412 21.2597C36.8449 18.6523 38.1819 17.0802 39.5988 16.5044C40.722 16.0479 41.9119 16.2682 43.1835 17.2501C42.0431 16.5584 40.9528 16.4736 39.8989 16.9659C38.3986 17.6666 37.1189 19.4361 35.825 22.3881L35.6092 22.891L35.3929 23.416C35.3568 23.5053 35.3206 23.5956 35.2845 23.6868L35.0669 24.245L34.8483 24.8255L34.6283 25.4284L34.4067 26.0539L34.1833 26.702C33.9263 27.4575 33.6788 28.2611 33.4269 29.1493L33.2095 29.9323L33.0782 30.4257L31.9078 34.9963L31.785 35.4634L31.6404 35.9933C31.6166 36.0791 31.5929 36.1635 31.5693 36.2467L31.4292 36.7308C31.406 36.809 31.383 36.8859 31.3601 36.9616L31.2236 37.4011L31.0891 37.8117C31.0445 37.9438 31.0002 38.0711 30.9561 38.1939L30.8244 38.5483C30.8026 38.605 30.7807 38.6607 30.7589 38.7152L30.6284 39.029C30.2591 39.8806 29.8934 40.4154 29.4935 40.6935C28.6041 41.3121 26.9991 41.6274 24.8043 41.6721L24.3251 41.6776L23.828 41.6748C23.6594 41.6725 23.4879 41.6689 23.3135 41.6639L22.7817 41.6449C22.6917 41.6411 22.6009 41.6369 22.5094 41.6324L21.9524 41.6015C21.8581 41.5957 21.7632 41.5895 21.6676 41.583L21.0858 41.5403C20.9875 41.5325 20.8885 41.5244 20.7888 41.516L20.183 41.4615C20.0807 41.4518 19.9777 41.4418 19.8741 41.4314L19.2448 41.3655L18.6002 41.292L17.9406 41.211L17.2662 41.1226C15.3169 40.8591 13.2518 40.5136 11.1248 40.1057C9.33132 39.7618 7.59473 39.3933 5.98174 39.0248L4.6919 38.7235L3.91645 38.5342L3.73684 39.2452L4.76053 39.4937L5.53938 39.6757L6.43195 39.8785C7.87647 40.2022 9.40953 40.5235 10.9867 40.8259C13.1261 41.2362 15.2042 41.5839 17.168 41.8493L17.8644 41.9407L18.5453 42.0243L19.2105 42.1001C19.32 42.1121 19.4289 42.1237 19.5371 42.1351L20.1783 42.199L20.8032 42.2548C20.906 42.2634 21.0081 42.2717 21.1095 42.2796L21.7096 42.3231L22.293 42.3583L22.8593 42.385C22.9523 42.3887 23.0446 42.3921 23.1361 42.3951L23.6766 42.4089C24.1197 42.4167 24.5446 42.4155 24.9508 42.4049L25.4291 42.3877C27.4624 42.2933 28.9821 41.9424 29.9122 41.2955C30.3309 41.0044 30.6959 40.5471 31.043 39.8747L31.181 39.5941C31.2724 39.3993 31.363 39.1887 31.4533 38.9614L31.5886 38.6079L31.724 38.2286C31.7466 38.1632 31.7692 38.0967 31.7919 38.0291L31.9285 37.6099L32.0665 37.1633L32.2063 36.6885L32.3486 36.1848L32.5677 35.3737L33.8232 30.476L34.025 29.7324C34.0965 29.4745 34.1675 29.224 34.2383 28.9801L34.4503 28.267C34.5915 27.8035 34.7331 27.3628 34.8776 26.9382C34.9143 26.8303 34.951 26.7233 34.9875 26.6172L35.2061 25.992L35.4228 25.3894L35.6381 24.8092L35.8519 24.2514L36.0645 23.716L36.2761 23.2028C36.3464 23.0354 36.4166 22.8717 36.4867 22.7117L36.6967 22.2428C36.8015 22.0138 36.9061 21.7932 37.0106 21.5807L37.2195 21.1667C38.194 19.2857 39.1646 18.1182 40.2092 17.6303C41.1486 17.1916 42.1715 17.3596 43.2894 18.2062C42.114 17.5476 41.0196 17.6335 39.9899 18.4272C39.1814 19.0503 38.4746 20.0338 37.8001 21.4674L37.6321 21.8352L37.4652 22.2221C37.4097 22.3543 37.3543 22.4897 37.2991 22.6284L37.1337 23.0544L36.9686 23.5004L36.8037 23.9667L36.6387 24.4536L36.4733 24.9615L36.3073 25.4907L36.1405 26.0414L35.9727 26.614L35.8035 27.2088L35.5467 28.1433L35.3732 28.7949L35.1975 29.4698L34.9293 30.5266L34.5795 31.9508L33.5302 36.1633L33.3082 37.0032L33.0876 37.7981L32.8731 38.5304L32.7332 38.9843L32.5955 39.4109L32.4599 39.8107C32.4374 39.8751 32.4151 39.9384 32.3928 40.0006L32.2599 40.3604C32.2379 40.4182 32.2159 40.4749 32.1941 40.5305L32.0635 40.851L31.9343 41.1457L31.8061 41.4147C31.5296 41.9701 31.2598 42.3468 30.988 42.5568C30.3968 43.0137 29.4285 43.3237 28.1305 43.4975L27.7312 43.5456L27.3124 43.5856L26.8745 43.6175C26.7999 43.6222 26.7245 43.6265 26.6484 43.6305L26.1821 43.6505C26.1028 43.6532 26.0228 43.6555 25.942 43.6576L25.448 43.6658C25.0288 43.6694 24.5908 43.6648 24.1347 43.6524L23.5787 43.6336L23.0056 43.6073L22.4157 43.5736L21.8092 43.5323L21.1866 43.4838L20.5479 43.4279L19.8936 43.3648L19.2239 43.2945L18.539 43.2171C16.5103 42.98 14.3583 42.6601 12.1437 42.2779C10.3831 41.9741 8.68332 41.6485 7.10826 41.3229L6.57578 41.2118L5.62795 41.0084L5.09418 40.8895L4.93024 41.6043L5.92761 41.8238L6.68745 41.9845L7.55902 42.1637C8.97022 42.4496 10.471 42.7334 12.019 43.0005C14.2459 43.3849 16.4108 43.7067 18.4539 43.9455L19.1621 44.0255L19.8542 44.0982L20.5301 44.1634L21.1896 44.221L21.8324 44.271L22.4583 44.3131L23.0672 44.3474L23.6588 44.3736C23.7559 44.3773 23.8523 44.3807 23.948 44.3837L24.5133 44.3978C24.6987 44.4011 24.8812 44.403 25.0607 44.4036L25.5901 44.401C28.3651 44.3648 30.362 43.9673 31.4364 43.1371C31.782 42.87 32.1038 42.4411 32.4202 41.8267L32.5555 41.5519C32.6681 41.3133 32.7804 41.0507 32.8931 40.7628L33.0286 40.4053L33.1649 40.0231C33.2105 39.8916 33.2563 39.7559 33.3024 39.6159L33.4412 39.1833L33.5818 38.7249L33.7245 38.2402L33.8696 37.7288C33.894 37.6414 33.9185 37.5528 33.9431 37.463L34.1682 36.6245L34.3289 35.9988L35.5941 30.8951L35.818 30.0026L35.9929 29.3242L36.2511 28.3501L36.4207 27.7294L36.6721 26.8406L36.8378 26.276L37.0023 25.7332L37.1658 25.2122L37.3285 24.7126L37.4905 24.2341L37.6521 23.7765C37.6791 23.702 37.706 23.6283 37.7329 23.5555L37.8942 23.1288C37.9211 23.0594 37.948 22.9908 37.9749 22.923L38.1365 22.5266C38.3791 21.9468 38.623 21.434 38.8713 20.9841L39.0375 20.6935C39.4825 19.9431 39.9435 19.3888 40.4375 19.008C41.5346 18.1625 42.8032 18.4037 44.2812 19.9181L44.4888 20.1377C44.5585 20.2137 44.6286 20.2924 44.6992 20.3739L44.9123 20.6269L45.1282 20.8968L45.3469 21.1836C45.3836 21.2328 45.4204 21.2828 45.4573 21.3334L45.6803 21.646C45.7551 21.753 45.8304 21.8629 45.9061 21.9757L46.1349 22.3229L46.3665 22.6875C46.4054 22.7497 46.4443 22.8127 46.4834 22.8764L46.7195 23.2675C46.7591 23.3341 46.7988 23.4015 46.8386 23.4697L47.0791 23.8874C47.1195 23.9585 47.1599 24.0304 47.2005 24.103L47.4455 24.5477L47.6936 25.0105L47.9447 25.4915L48.199 25.9909L48.4563 26.5087L48.7168 27.045L48.9804 27.6001L49.6441 27.2882L49.3767 26.7255L49.1117 26.1805L48.8489 25.653L48.7866 25.531L49.108 25.3727L48.9634 25.0811L48.6758 24.5131L48.3905 23.9656L48.216 23.6407L48.5713 23.4561L48.4221 23.1714C48.1597 22.6745 47.8993 22.2027 47.6406 21.7558L48.0336 21.5384L47.8815 21.266C47.6059 20.7768 47.3312 20.3146 47.0574 19.8793L47.4949 19.6191L47.3395 19.3606C47.0487 18.8824 46.7576 18.4336 46.4659 18.0136L46.9531 17.6976L46.7965 17.4592C46.4888 16.9967 46.1784 16.5657 45.8655 16.1658L46.4101 15.7733L46.2535 15.5591C42.0145 9.84562 36.9895 9.81451 31.5991 14.0302L31.1992 14.3502C30.2644 15.1149 29.3191 16.0055 28.3653 17.0144Z" opacity="0.100000001" fill="rgb(83,32,251)" fill-rule="evenodd" />
		</g>
	</g>
	<g id="编组">
		<g id="路径 2" showMaskRef="url(#show_mask_93)" mask="url(#mask_110)">
			<path id="show_mask_93" d="M4 18.6667L6.65433 18.6667C9.97767 18.6667 12.7933 16.219 13.2557 12.928L13.5733 10.6667L23.799 10.6667L24.5487 5.33337L11.2553 5.33337C9.926 5.33337 8.79967 6.31237 8.61467 7.62904L7.97433 12.1857C7.882 12.84 7.31467 13.3334 6.65367 13.3334L4.74967 13.3334L4 18.6667Z" fill="url(#paint_linear_224)" fill-rule="evenodd" />
			<path id="路径 2" d="M5.58054 16.8162L4.62842 20.0338L17.189 16C17.189 16 14.4711 13.8969 12.0967 13.1106C10.8101 12.6845 8.63806 12.7739 5.58054 13.3788C4.87628 13.5181 5.58054 16.8162 5.58054 16.8162Z" fill="url(#paint_linear_225)" fill-rule="evenodd" />
			<path id="路径 2" d="M5.58054 16.8162L4.97184 18.8733L4.62842 20.0338L5.78079 19.6638L16.0126 16.3778L17.189 16C17.189 16 16.7953 15.6955 16.1768 15.2748C15.1701 14.59 13.5675 13.5977 12.0967 13.1106Q10.1668 12.4714 5.58054 13.3788C4.87628 13.5181 5.58054 16.8162 5.58054 16.8162ZM14.9547 15.6673Q13.1327 14.5071 11.7823 14.0599Q10.9906 13.7977 9.54384 13.8572Q8.16752 13.9139 6.26772 14.2653Q6.26156 14.5727 6.31102 15.0457Q6.36236 15.5368 6.46625 16.1247Q6.51818 16.4186 6.5585 16.6073L6.6116 16.8561L6.12422 18.5032L14.9547 15.6673Z" fill="url(#paint_linear_226)" fill-opacity="0" fill-rule="evenodd" />
			<path id="路径 3" d="M23.8032 10.6667C23.8032 10.6667 20.5374 7.90851 16.8779 6.70986C13.2184 5.51122 7.55225 4.86755 7.55225 4.86755L24.5488 5.33333L23.8032 10.6667Z" fill="url(#paint_linear_227)" fill-rule="evenodd" />
			<path id="路径 3" d="M14.6394 5.06177L23.5429 5.30576L24.5488 5.33333L24.4095 6.32989L23.9642 9.51541L23.8032 10.6667C23.8032 10.6667 23.4682 10.3837 22.8924 9.95956C21.6706 9.05968 19.3652 7.52456 16.8779 6.70986C16.1466 6.47033 15.3352 6.25296 14.5048 6.05846C11.1801 5.27967 7.55225 4.86755 7.55225 4.86755L14.6394 5.06177ZM18.2829 6.16199Q20.1992 6.94282 22.2631 8.30272Q22.6644 8.56715 23.049 8.83915L23.4036 6.30232L18.2829 6.16199Z" fill="rgb(151,151,151)" fill-opacity="0" fill-rule="evenodd" />
		</g>
		<g id="路径 4" showMaskRef="url(#show_mask_94)" mask="url(#mask_111)">
			<path id="show_mask_94" d="M4.74967 13.3334L4 18.6667L5.52933 18.6667C6.058 18.6667 6.38667 18.954 6.53533 19.1254C6.68433 19.2967 6.92333 19.662 6.84967 20.1857L6.36567 23.6287C6.14 25.2334 7.386 26.6667 9.00633 26.6667L17.5507 26.6667L18.3003 21.3334L12.074 21.3334L12.111 21.069C12.3107 19.65 12.1097 18.1874 11.4433 16.9187C10.2637 14.6737 7.97433 13.3334 5.52933 13.3334L4.74967 13.3334Z" fill="url(#paint_linear_228)" fill-rule="evenodd" />
			<path id="路径 4" d="M12.0742 21.3334C12.0742 21.3334 13.7843 24.5231 16.0506 25.7986C18.317 27.0741 21.5506 26.6667 21.5506 26.6667L22.3002 21.3334L12.0742 21.3334Z" opacity="0.400000006" fill="url(#paint_linear_229)" fill-rule="evenodd" />
			<path id="路径 4" d="M18.0875 25.4971Q17.1932 25.2941 16.5411 24.9271Q15.8813 24.5558 15.1798 23.8552Q14.5933 23.2694 14.0153 22.4913Q13.9569 22.4127 13.8995 22.3334L21.1498 22.3334L20.6733 25.7237Q20.1898 25.738 19.7032 25.7123Q18.8333 25.6665 18.0875 25.4971ZM21.5506 26.6667C21.5506 26.6667 18.317 27.0741 16.0506 25.7986C14.5992 24.9817 13.376 23.3798 12.6839 22.3334C12.2953 21.7458 12.0742 21.3334 12.0742 21.3334L22.3002 21.3334L22.1597 22.3334L21.5506 26.6667Z" opacity="0.400000006" fill="rgb(151,151,151)" fill-opacity="0" fill-rule="evenodd" />
		</g>
		<path id="形状结合" d="M6.65433 18.6667L5.52915 18.6667L4 18.6667L4.74967 13.3334L5.52915 13.3334C7.90772 13.3334 10.139 14.6019 11.3446 16.7377C10.133 17.9366 8.4694 18.6667 6.65433 18.6667Z" fill="rgb(234,100,255)" fill-rule="evenodd" />
		<g showMaskRef="url(#show_mask_95)" mask="url(#mask_112)">
			<path id="show_mask_95" d="M27.4803 13.3317L26.7303 18.665L25.6037 26.665L20.217 26.665L21.3437 18.665L14.7637 18.665L15.5103 13.3317L27.4803 13.3317Z" fill="rgb(184,97,255)" fill-rule="evenodd" />
			<path id="路径 6" d="M21.3438 18.6666L26.7304 18.665L27.4804 13.3317L22.1468 13.3317L21.3438 18.6666Z" fill="url(#paint_linear_230)" fill-rule="evenodd" />
			<path id="路径 6" d="M26.7304 18.665L22.3551 18.6663L21.3438 18.6666L22.1468 13.3317L27.4804 13.3317L26.7304 18.665ZM25.8612 17.6653L22.5056 17.6663L23.0076 14.3317L26.33 14.3317L25.8612 17.6653Z" fill="rgb(151,151,151)" fill-opacity="0" fill-rule="evenodd" />
			<path id="路径 3" d="M19.3311 2.45291C19.3311 2.45291 15.4362 2.26776 10.21 2.90047C4.98387 3.53319 -1.72632e-14 4.64748 -1.72632e-14 4.64748C-1.72632e-14 4.64748 0.989467 0.0201734 1.58137 0.000476523C2.17327 -0.0192204 19.4367 0.775246 19.4367 0.775246L19.3311 2.45291Z" opacity="0.600000024" fill="url(#paint_linear_231)" fill-rule="evenodd" transform="matrix(-1,0,0,1,28.2954,11.0519)" />
			<path id="路径 3" d="M10.21 2.90047C15.4362 2.26776 19.3311 2.45291 19.3311 2.45291L19.3738 1.77342L19.4367 0.775246C19.4367 0.775246 19.0684 0.758298 18.4376 0.729414C14.7494 0.560539 2.08682 -0.0163435 1.58137 0.000476523C1.17486 0.0140039 0.580847 2.20075 0.248606 3.56932C0.0970767 4.19349 -1.72632e-14 4.64748 -1.72632e-14 4.64748C-1.72632e-14 4.64748 0.393568 4.55949 1.07548 4.41891C2.8202 4.05925 6.45249 3.35538 10.21 2.90047ZM1.33478 3.34403Q2.07896 3.19445 2.96185 3.02819Q6.79167 2.30702 10.0898 1.90772Q12.1451 1.6589 14.1957 1.5387L10.4606 1.36939L2.04839 1.02069Q2.03083 1.06217 2.01204 1.10877Q1.79849 1.63852 1.53238 2.59849Q1.43408 2.95313 1.33478 3.34403Z" opacity="0.600000024" fill="rgb(151,151,151)" fill-opacity="0" fill-rule="evenodd" transform="matrix(-1,0,0,1,28.2954,11.0519)" />
			<path id="路径 2" d="M26.7304 18.6666L21.3438 18.6666C21.3438 18.6666 23.3786 20.1449 24.3379 21.946C25.2973 23.747 25.6038 26.665 25.6038 26.665L26.7304 18.6666Z" fill="url(#paint_linear_232)" fill-rule="evenodd" />
			<path id="路径 2" d="M22.5187 19.6666C21.8729 19.051 21.3438 18.6666 21.3438 18.6666L26.7304 18.6666L26.5896 19.6666L26.0333 23.6156L25.7296 25.7716L25.7288 25.7776L25.6038 26.665C25.6038 26.665 25.4486 25.1876 25.0134 23.6865C24.837 23.0779 24.6146 22.4655 24.3379 21.946C23.8678 21.0634 23.1393 20.2582 22.5187 19.6666ZM23.9164 19.6666Q24.7429 20.5792 25.2205 21.4759Q25.262 21.5537 25.3025 21.6346L25.5797 19.6666L23.9164 19.6666Z" fill="url(#paint_linear_233)" fill-opacity="0" fill-rule="evenodd" />
		</g>
	</g>
	<g showMaskRef="url(#show_mask_96)" mask="url(#mask_113)">
		<g id="show_mask_96">
			<rect id="蒙版" width="32.000000" height="32.000000" x="0.000000" y="0.000000" rx="2.666667" fill="rgb(255,255,255)" fill-opacity="0" />
			<rect id="蒙版" width="31.333334" height="31.333334" x="0.333333" y="0.333333" rx="2.333333" stroke="rgb(237,232,254)" stroke-width="0.666666687" />
		</g>
	</g>
</svg>
