<svg viewBox="0 0 32 32" xmlns="http://www.w3.org/2000/svg" xmlns:xlink="http://www.w3.org/1999/xlink" width="32.000000" height="32.000000" fill="none" customFrame="#000000">
	<mask id="mask_97" width="7.260000" height="13.333333" x="7.333496" y="13.333374" maskUnits="userSpaceOnUse">
		<g filter="url(#pixso_custom_mask_type_outline)">
			<path id="蒙版" d="M9.2075 13.3334L7.3335 26.6667L12.7195 26.6667L14.5935 13.3334L9.2075 13.3334Z" fill="rgb(255,255,255)" fill-rule="evenodd" />
		</g>
	</mask>
	<defs>
		<filter id="pixso_custom_mask_type_outline">
			<feColorMatrix type="matrix" values="0 0 0 0 1 0 0 0 0 1 0 0 0 0 1 0 0 0 1 0 " />
		</filter>
		<linearGradient id="paint_linear_195" x1="7.76362276" x2="23.5851517" y1="24.0003185" y2="24.0003185" gradientUnits="userSpaceOnUse">
			<stop stop-color="rgb(83,9,175)" offset="0" stop-opacity="0.796078444" />
			<stop stop-color="rgb(132,46,238)" offset="1" stop-opacity="0.505882382" />
		</linearGradient>
		<linearGradient id="paint_linear_196" x1="12.6498642" x2="12.6498642" y1="3.05458641" y2="10.666708" gradientUnits="userSpaceOnUse">
			<stop stop-color="rgb(255,244,253)" offset="0" stop-opacity="1" />
			<stop stop-color="rgb(236,89,209)" offset="1" stop-opacity="1" />
		</linearGradient>
		<linearGradient id="paint_linear_197" x1="6.47115517" x2="10.9634972" y1="11.8149014" y2="24.7338772" gradientUnits="userSpaceOnUse">
			<stop stop-color="rgb(255,164,237)" offset="0" stop-opacity="0" />
			<stop stop-color="rgb(188,112,237)" offset="0.605164528" stop-opacity="1" />
			<stop stop-color="rgb(102,46,238)" offset="1" stop-opacity="1" />
		</linearGradient>
		<linearGradient id="paint_linear_198" x1="13.4284182" x2="8.08300877" y1="17.8421383" y2="21.888546" gradientUnits="userSpaceOnUse">
			<stop stop-color="rgb(52,21,79)" offset="0" stop-opacity="0" />
			<stop stop-color="rgb(37,43,58)" offset="1" stop-opacity="1" />
		</linearGradient>
		<linearGradient id="paint_linear_199" x1="8.72508335" x2="12.1706638" y1="21.333374" y2="25.2100143" gradientUnits="userSpaceOnUse">
			<stop stop-color="rgb(37,43,58)" offset="0" stop-opacity="1" />
			<stop stop-color="rgb(145,47,194)" offset="1" stop-opacity="0" />
		</linearGradient>
	</defs>
	<mask id="mask_96" width="32.000000" height="32.000000" x="0.000000" y="0.000000" maskUnits="userSpaceOnUse">
		<g filter="url(#pixso_custom_mask_type_outline)">
			<rect id="蒙版" width="32.000000" height="32.000000" x="0.000000" y="0.000000" rx="2.666667" fill="rgb(255,255,255)" />
			<rect id="蒙版" width="31.000000" height="31.000000" x="0.500000" y="0.500000" rx="2.166667" stroke="rgb(236,242,244)" stroke-opacity="0" stroke-width="1" />
		</g>
	</mask>
	<rect id="工程首字母图标/L-32x33" width="32.000000" height="32.000000" x="0.000000" y="0.000000" />
	<rect id="矩形" width="32.000000" height="32.000000" x="0.000000" y="0.000000" rx="2.666667" fill="rgb(255,255,255)" />
	<rect id="矩形" width="31.000000" height="31.000000" x="0.500000" y="0.500000" rx="2.166667" stroke="rgb(151,151,151)" stroke-opacity="0" stroke-width="1" />
	<g id="形状" showMaskRef="url(#show_mask_79)" mask="url(#mask_96)">
		<g id="show_mask_79">
			<rect id="蒙版" width="32.000000" height="32.000000" x="0.000000" y="0.000000" rx="2.666667" fill="rgb(255,255,255)" />
			<rect id="蒙版" width="31.000000" height="31.000000" x="0.500000" y="0.500000" rx="2.166667" stroke="rgb(236,242,244)" stroke-opacity="0" stroke-width="1" />
		</g>
		<path id="形状结合" d="M16.2846 0.46909L16.2846 -14.0002L17.284 -14.0002L17.284 0.0230894L23.2266 5.34576L25.942 2.46042L25.942 -9.40558L22.5713 -12.6869L23.27 -13.4036L26.942 -9.82758L26.942 2.85642L23.2866 6.74176L16.2846 0.46909ZM13.1337 9.48492L13.1337 -13.8491L14.133 -13.8491L14.133 9.08892L20.151 15.4989L22.7223 15.4989L22.7223 9.85759L29.1603 3.06092L29.1603 -10.4857L30.1603 -10.4857L30.1603 3.45892L23.7217 10.2563L23.7217 16.4989L19.7183 16.4989L13.1337 9.48492ZM-3.65558 -7.1008L0.88575 -2.66147L4.24175 -5.76013L10.9837 -5.76013L10.9837 -13.4968L9.98375 -13.4968L9.98375 -6.76013L3.85042 -6.76013L0.905083 -4.04013L-2.95625 -7.81547L-3.65558 -7.1008ZM6.69582 -9.66783L7.69582 -9.66783L7.69582 -12.8092L6.69582 -12.8092L6.69582 -9.66783ZM23.7572 -5.4309L20.2099 -8.7489L20.8932 -9.4789L22.7572 -7.73557L22.7572 -9.4049L20.1725 -11.9082L20.8685 -12.6269L23.7572 -9.82823L23.7572 -5.4309ZM3.68264 -9.66784L4.68264 -9.66784L4.68264 -11.7525L3.68264 -11.7525L3.68264 -9.66784ZM0.968266 -5.83846L-1.78907 -8.4718L-1.0984 -9.19446L0.958266 -7.23046L2.20227 -8.45113L0.682933 -10.1971L1.4376 -10.8531L3.57427 -8.39646L0.968266 -5.83846ZM7.6611 45.1316L6.6611 45.1316L6.6611 34.9683L32.2764 9.54095L32.2764 -8.56638L33.2764 -8.56638L33.2764 9.95762L7.6611 35.385L7.6611 45.1316ZM22.8752 -3.4316L20.2585 -5.6376L20.9032 -6.4016L23.5198 -4.1956L22.8752 -3.4316ZM-11.139 1.68732L13.7417 26.252L20.847 19.0426L-4.68164 -6.21335L-5.38431 -5.50268L19.4344 19.0513L13.7317 24.8366L-10.437 0.975316L-11.139 1.68732ZM22.0549 22.834L26.6962 22.834L32.8516 16.4987L36.1982 16.4987L43.1229 9.80738L43.1229 3.08871L42.1229 3.08871L42.1229 9.38271L35.7942 15.4987L32.4289 15.4987L26.2736 21.834L24.4596 21.834L36.4962 9.73338L36.4962 -6.01929L35.4962 -6.01929L35.4962 9.32004L22.0549 22.834ZM16.6713 19.5716L-6.91207 -3.97843L-6.2054 -4.68577L17.3779 18.8642L16.6713 19.5716ZM10.9842 6.47857L9.98418 6.47857L9.98418 -2.6781L4.68285 -2.6781L4.68285 0.245903L3.68285 0.245903L3.68285 -3.6781L10.9842 -3.6781L10.9842 6.47857ZM22.8748 -0.247309L20.2462 -2.46331L20.8908 -3.22798L23.5195 -1.01131L22.8748 -0.247309ZM-9.98987 -0.181266L13.6261 23.0287L16.1335 20.6647L-7.76254 -2.95727L-8.4652 -2.2466L14.6941 20.6481L13.6401 21.6407L-9.2892 -0.895266L-9.98987 -0.181266ZM36.3498 13.2793L35.6431 12.5713L38.6811 9.542L38.6811 -2.49534L39.6811 -2.49534L39.6811 9.95733L36.3498 13.2793ZM6.83352 3.46487L7.83352 3.46487L7.83352 -0.166468L6.83352 -0.166468L6.83352 3.46487ZM22.8741 3.04042L20.2488 0.827086L20.8935 0.0624199L23.5188 2.27642L22.8741 3.04042ZM20.1453 6.98441L16.4473 3.59374L17.1226 2.85708L20.8213 6.24774L20.1453 6.98441ZM-12.1384 3.59598L-3.31304 12.2113L-14.443 12.2113L-14.443 13.2113L-0.857703 13.2113L-11.4397 2.87932L-12.1384 3.59598ZM-13.2849 6.3134L-9.96956 9.50407L-14.0469 9.50407L-14.0469 10.5041L-7.48822 10.5041L-12.5916 5.5934L-13.2849 6.3134ZM20.9833 14.056L16.4386 9.69004L17.1313 8.96871L19.9833 11.7087L19.9833 9.81471L16.4466 6.56404L17.1233 5.82804L20.9833 9.37538L20.9833 14.056ZM29.1607 9.74953L30.1607 9.74953L30.1607 6.20487L29.1607 6.20487L29.1607 9.74953ZM25.9854 12.9249L26.9854 12.9249L26.9854 9.38086L25.9854 9.38086L25.9854 12.9249ZM19.6401 29.0134L32.0121 41.386L32.7194 40.6787L20.6401 28.5994L20.6401 25.9507L29.8661 25.9507L45.3141 10.6007L44.6094 9.89137L29.4541 24.9507L19.6401 24.9507L19.6401 29.0134ZM38.3143 19.5469L42.8783 19.5469L45.8323 16.6343L45.1309 15.9223L42.4689 18.5469L40.6629 18.5469L45.7249 13.2823L45.0043 12.5896L38.3143 19.5469ZM-14.6665 16.4988L-14.6665 15.4988L1.12283 15.4988L4.97416 18.9968L4.97416 44.2261L3.9735 44.2261L3.9735 19.4395L0.736163 16.4988L-14.6665 16.4988ZM-14.5077 19.3757L-14.5077 18.3757L1.70301 18.3757L1.70301 22.7591L-1.82366 26.0117L-1.82366 29.2631L-7.98299 35.0277L-8.66632 34.2971L-6.59067 32.3548L-10.2644 32.3548L-10.2644 31.3548L-5.52202 31.3548L-2.82366 28.8298L-2.82366 25.5737L0.703011 22.3211L0.703011 19.3757L-14.5077 19.3757ZM30.0253 22.8821L29.296 22.1974L32.5753 18.7041L33.3046 19.3895L30.0253 22.8821ZM35.6091 21.7316L42.1958 21.7316L45.0098 18.9756L45.7091 19.691L42.6038 22.7316L36.0398 22.7316L29.8751 29.2383L23.1024 29.2383L23.1024 28.2383L29.4451 28.2383L35.6091 21.7316ZM11.9176 27.284L5.99296 21.5993L6.68496 20.878L12.6096 26.5626L11.9176 27.284ZM-14.0717 22.6975L-1.94775 22.6975L-1.94775 21.6975L-14.0717 21.6975L-14.0717 22.6975ZM10.1372 28.7221L5.99315 24.7501L6.68515 24.0287L10.8292 28.0007L10.1372 28.7221ZM39.5521 29.2448L38.8108 28.5741L42.1781 24.8481L44.1961 24.8481L44.1961 25.8481L42.6221 25.8481L39.5521 29.2448ZM33.1476 29.2448L32.4056 28.5741L35.6249 25.0121L36.3669 25.6828L33.1476 29.2448ZM36.3322 29.2448L35.5902 28.5741L38.8095 25.0121L39.5515 25.6828L36.3322 29.2448ZM-9.09086 29.2383L-4.70086 29.2383L-4.70086 25.211L-5.70086 25.211L-5.70086 28.2383L-8.09086 28.2383L-8.09086 25.0443L-12.4475 25.0443L-12.4475 28.487L-11.4475 28.487L-11.4475 26.0443L-9.09086 26.0443L-9.09086 29.2383ZM-6.49706 36.7916L-7.18773 36.0676L0.500271 28.729L0.500271 25.211L1.50027 25.211L1.50027 29.1576L-6.49706 36.7916ZM6.45656 32.4022L7.45656 32.4022L7.45656 27.6762L6.45656 27.6762L6.45656 32.4022ZM30.1631 42.5853L16.4311 28.8866L17.1371 28.1786L30.8697 41.8773L30.1631 42.5853ZM-3.79384 39.2939L-3.08651 40.0013L1.49682 35.4179L1.49682 30.8706L-5.53584 37.7626L-4.83651 38.4773L0.496822 33.2506L0.496822 35.0039L-3.79384 39.2939ZM9.9841 34.9316L9.9841 45.8023L10.9841 45.8023L10.9841 35.3523L13.1348 33.2483L13.1348 46.2723L14.1341 46.2723L14.1341 30.8716L9.9841 34.9316ZM29.2971 36.237L29.2971 32.355L26.2358 32.355L26.2358 31.355L30.2971 31.355L30.2971 33.841L32.6644 31.4997L33.3678 32.2103L29.2971 36.237ZM33.3791 33.7232L37.2438 37.0945L37.9011 36.3405L34.8511 33.6805L36.2018 32.3552L41.0691 32.3552L41.0691 31.3552L35.7931 31.3552L33.3791 33.7232ZM28.0765 43.6139L16.4331 32.1073L17.1365 31.3966L28.7798 42.9033L28.0765 43.6139ZM30.402 36.6207L33.6787 40.1401L34.4107 39.4594L31.806 36.6607L32.7734 35.7354L35.6474 38.5474L36.346 37.8327L32.7814 34.3434L30.402 36.6207ZM16.4554 46.2722L17.4548 46.2722L17.4548 34.8335L16.4554 34.8335L16.4554 46.2722ZM1.49979 42.5996L0.499789 42.5996L0.499789 39.3176L-1.36221 41.303L-2.09154 40.619L1.49979 36.789L1.49979 42.5996ZM19.4694 45.92L20.4694 45.92L20.4694 39.5273L25.8921 44.682L26.5814 43.9566L19.4694 37.196L19.4694 45.92Z" opacity="0.100000001" fill="rgb(185,103,185)" fill-rule="evenodd" />
	</g>
	<g id="编组 44备份">
		<path id="Fill 11" d="M23.3862 26.6667L24.1355 21.334L8.08283 21.334L7.3335 26.6667L23.3862 26.6667Z" fill="url(#paint_linear_195)" fill-rule="evenodd" />
		<path id="Fill 13" d="M14.968 10.6667L15.7177 5.33337L10.3317 5.33337L9.58203 10.6667L14.968 10.6667Z" fill="url(#paint_linear_196)" fill-rule="evenodd" />
		<g id="路径 3" showMaskRef="url(#show_mask_80)" mask="url(#mask_97)">
			<path id="show_mask_80" d="M9.2075 13.3334L7.3335 26.6667L12.7195 26.6667L14.5935 13.3334L9.2075 13.3334Z" fill="url(#paint_linear_197)" style="mix-blend-mode:multiply" fill-rule="evenodd" />
			<path id="路径 3" d="M17.6033 21.3334L8.08301 21.3334C8.08301 21.3334 11.1465 20.7716 13.6404 18.9756C16.1342 17.1795 18 15.4988 18 15.4988L17.6033 21.3334Z" fill="url(#paint_linear_198)" fill-rule="evenodd" />
			<path id="路径 3" d="M11.4193 21.3334L17.6033 21.3334L17.9043 16.9062L18 15.4988C18 15.4988 17.605 15.8546 16.9355 16.4138C16.15 17.0699 14.9867 18.006 13.6404 18.9756C12.8495 19.5452 12.0013 19.9906 11.2117 20.3334C9.51154 21.0714 8.08301 21.3334 8.08301 21.3334L11.4193 21.3334ZM13.3986 20.3334L16.669 20.3334L16.8423 17.7851Q15.5348 18.8436 14.2248 19.787Q13.8288 20.0722 13.3986 20.3334Z" fill="rgb(151,151,151)" fill-opacity="0" fill-rule="evenodd" />
		</g>
		<g style="mix-blend-mode:overlay">
			<path id="Fill 15" d="M13.4695 21.3334L12.7195 26.6667L7.3335 26.6667L8.08316 21.335L13.4695 21.3334Z" fill="url(#paint_linear_199)" style="mix-blend-mode:overlay" fill-rule="evenodd" />
			<path id="Fill 15" d="M12.7195 26.6667L7.3335 26.6667L7.4741 25.6667L8.08316 21.335L12.4596 21.3337L13.4695 21.3334L13.3288 22.3334L12.7195 26.6667ZM12.3189 22.3337L8.95243 22.3348L8.48394 25.6667L11.8502 25.6667L12.3189 22.3337Z" fill="rgb(151,151,151)" fill-opacity="0" fill-rule="evenodd" />
		</g>
	</g>
	<rect id="蒙版" width="32.000000" height="32.000000" x="0.000000" y="0.000000" rx="2.666667" fill="rgb(255,255,255)" fill-opacity="0" />
	<rect id="蒙版" width="31.333334" height="31.333334" x="0.333333" y="0.333333" rx="2.333333" stroke="rgb(248,239,248)" stroke-width="0.666666687" />
</svg>
