<svg viewBox="0 0 32 32" xmlns="http://www.w3.org/2000/svg" xmlns:xlink="http://www.w3.org/1999/xlink" width="32.000000" height="32.000000" fill="none" customFrame="#000000">
	<defs>
		<filter id="pixso_custom_mask_type_outline">
			<feColorMatrix type="matrix" values="0 0 0 0 1 0 0 0 0 1 0 0 0 0 1 0 0 0 1 0 " />
		</filter>
		<linearGradient id="paint_linear_107" x1="14.8499584" x2="20.5553074" y1="13.8828888" y2="26.6666431" gradientUnits="userSpaceOnUse">
			<stop stop-color="rgb(54,176,255)" offset="0" stop-opacity="1" />
			<stop stop-color="rgb(122,209,255)" offset="1" stop-opacity="1" />
		</linearGradient>
		<linearGradient id="paint_linear_108" x1="16.0209522" x2="27.0459137" y1="17.7988625" y2="-0.886149406" gradientUnits="userSpaceOnUse">
			<stop stop-color="rgb(43,184,255)" offset="0" stop-opacity="1" />
			<stop stop-color="rgb(249,252,255)" offset="1" stop-opacity="1" />
		</linearGradient>
		<linearGradient id="paint_linear_109" x1="21.2243347" x2="15.6697969" y1="21.6217632" y2="20.0434761" gradientUnits="userSpaceOnUse">
			<stop stop-color="rgb(46,153,255)" offset="0" stop-opacity="0" />
			<stop stop-color="rgb(10,11,35)" offset="1" stop-opacity="1" />
		</linearGradient>
		<linearGradient id="paint_linear_110" x1="22.054945" x2="16.096983" y1="19.8612595" y2="24.5069466" gradientUnits="userSpaceOnUse">
			<stop stop-color="rgb(37,43,58)" offset="0" stop-opacity="1" />
			<stop stop-color="rgb(37,43,58)" offset="1" stop-opacity="1" />
		</linearGradient>
	</defs>
	<mask id="mask_62" width="32.000000" height="32.000000" x="0.000000" y="0.000000" maskUnits="userSpaceOnUse">
		<g filter="url(#pixso_custom_mask_type_outline)">
			<rect id="蒙版" width="32.000000" height="32.000000" x="0.000000" y="0.000000" rx="2.666667" fill="rgb(255,255,255)" />
			<rect id="蒙版" width="31.000000" height="31.000000" x="0.500000" y="0.500000" rx="2.166667" stroke="rgb(236,242,244)" stroke-opacity="0" stroke-width="1" />
		</g>
	</mask>
	<rect id="工程首字母图标/X-32x33" width="32.000000" height="32.000000" x="0.000000" y="0.000000" />
	<rect id="矩形" width="32.000000" height="32.000000" x="0.000000" y="0.000000" rx="2.666667" fill="rgb(255,255,255)" />
	<rect id="矩形" width="31.000000" height="31.000000" x="0.500000" y="0.500000" rx="2.166667" stroke="rgb(151,151,151)" stroke-opacity="0" stroke-width="1" />
	<g id="形状" showMaskRef="url(#show_mask_48)" mask="url(#mask_62)">
		<g id="show_mask_48">
			<rect id="蒙版" width="32.000000" height="32.000000" x="0.000000" y="0.000000" rx="2.666667" fill="rgb(255,255,255)" />
			<rect id="蒙版" width="31.000000" height="31.000000" x="0.500000" y="0.500000" rx="2.166667" stroke="rgb(236,242,244)" stroke-opacity="0" stroke-width="1" />
		</g>
		<path id="形状结合" d="M16.2851 0.46909L16.2851 -14.0002L17.2845 -14.0002L17.2845 0.0230894L23.2271 5.34576L25.9425 2.46042L25.9425 -9.40558L22.5718 -12.6869L23.2705 -13.4036L26.9425 -9.82758L26.9425 2.85642L23.2871 6.74176L16.2851 0.46909ZM13.1332 9.48492L13.1332 -13.8491L14.1325 -13.8491L14.1325 9.08892L20.1505 15.4989L22.7218 15.4989L22.7218 9.85759L29.1598 3.06092L29.1598 -10.4857L30.1598 -10.4857L30.1598 3.45892L23.7212 10.2563L23.7212 16.4989L19.7178 16.4989L13.1332 9.48492ZM-3.65558 -7.1008L0.88575 -2.66147L4.24175 -5.76013L10.9837 -5.76013L10.9837 -13.4968L9.98375 -13.4968L9.98375 -6.76013L3.85042 -6.76013L0.905083 -4.04013L-2.95625 -7.81547L-3.65558 -7.1008ZM6.69582 -9.66783L7.69582 -9.66783L7.69582 -12.8092L6.69582 -12.8092L6.69582 -9.66783ZM23.7572 -5.4309L20.2099 -8.7489L20.8932 -9.4789L22.7572 -7.73557L22.7572 -9.4049L20.1725 -11.9082L20.8685 -12.6269L23.7572 -9.82823L23.7572 -5.4309ZM3.68264 -9.66784L4.68264 -9.66784L4.68264 -11.7525L3.68264 -11.7525L3.68264 -9.66784ZM0.968266 -5.83846L-1.78907 -8.4718L-1.0984 -9.19446L0.958266 -7.23046L2.20227 -8.45113L0.682933 -10.1971L1.4376 -10.8531L3.57427 -8.39646L0.968266 -5.83846ZM7.6611 45.1316L6.6611 45.1316L6.6611 34.9683L32.2764 9.54095L32.2764 -8.56638L33.2764 -8.56638L33.2764 9.95762L7.6611 35.385L7.6611 45.1316ZM22.8757 -3.4316L20.259 -5.6376L20.9037 -6.4016L23.5203 -4.1956L22.8757 -3.4316ZM-11.139 1.68732L13.7417 26.252L20.847 19.0426L-4.68164 -6.21335L-5.38431 -5.50268L19.4344 19.0513L13.7317 24.8366L-10.437 0.975316L-11.139 1.68732ZM22.0549 22.834L26.6962 22.834L32.8516 16.4987L36.1982 16.4987L43.1229 9.80738L43.1229 3.08871L42.1229 3.08871L42.1229 9.38271L35.7942 15.4987L32.4289 15.4987L26.2736 21.834L24.4596 21.834L36.4962 9.73338L36.4962 -6.01929L35.4962 -6.01929L35.4962 9.32004L22.0549 22.834ZM16.6713 19.5716L-6.91207 -3.97843L-6.2054 -4.68577L17.3779 18.8642L16.6713 19.5716ZM10.9842 6.47857L9.98418 6.47857L9.98418 -2.6781L4.68285 -2.6781L4.68285 0.245903L3.68285 0.245903L3.68285 -3.6781L10.9842 -3.6781L10.9842 6.47857ZM22.8748 -0.247309L20.2462 -2.46331L20.8908 -3.22798L23.5195 -1.01131L22.8748 -0.247309ZM-9.99036 -0.181266L13.6256 23.0287L16.133 20.6647L-7.76302 -2.95727L-8.46569 -2.2466L14.6936 20.6481L13.6396 21.6407L-9.28969 -0.895266L-9.99036 -0.181266ZM36.3498 13.2793L35.6431 12.5713L38.6811 9.542L38.6811 -2.49534L39.6811 -2.49534L39.6811 9.95733L36.3498 13.2793ZM6.83352 3.46487L7.83352 3.46487L7.83352 -0.166468L6.83352 -0.166468L6.83352 3.46487ZM22.8737 3.04042L20.2483 0.827086L20.893 0.0624199L23.5183 2.27642L22.8737 3.04042ZM20.1453 6.98441L16.4473 3.59374L17.1226 2.85708L20.8213 6.24774L20.1453 6.98441ZM-12.1389 3.59598L-3.31352 12.2113L-14.4435 12.2113L-14.4435 13.2113L-0.858191 13.2113L-11.4402 2.87932L-12.1389 3.59598ZM-13.2849 6.3134L-9.96956 9.50407L-14.0469 9.50407L-14.0469 10.5041L-7.48822 10.5041L-12.5916 5.5934L-13.2849 6.3134ZM20.9833 14.056L16.4386 9.69004L17.1313 8.96871L19.9833 11.7087L19.9833 9.81471L16.4466 6.56404L17.1233 5.82804L20.9833 9.37538L20.9833 14.056ZM29.1607 9.74953L30.1607 9.74953L30.1607 6.20487L29.1607 6.20487L29.1607 9.74953ZM25.9854 12.9249L26.9854 12.9249L26.9854 9.38086L25.9854 9.38086L25.9854 12.9249ZM19.6396 29.0134L32.0116 41.386L32.7189 40.6787L20.6396 28.5994L20.6396 25.9507L29.8656 25.9507L45.3136 10.6007L44.6089 9.89137L29.4536 24.9507L19.6396 24.9507L19.6396 29.0134ZM38.3138 19.5469L42.8778 19.5469L45.8318 16.6343L45.1304 15.9223L42.4684 18.5469L40.6624 18.5469L45.7244 13.2823L45.0038 12.5896L38.3138 19.5469ZM-14.667 16.4988L-14.667 15.4988L1.12234 15.4988L4.97367 18.9968L4.97367 44.2261L3.97301 44.2261L3.97301 19.4395L0.735675 16.4988L-14.667 16.4988ZM-14.5077 19.3757L-14.5077 18.3757L1.70301 18.3757L1.70301 22.7591L-1.82366 26.0117L-1.82366 29.2631L-7.98299 35.0277L-8.66632 34.2971L-6.59067 32.3548L-10.2644 32.3548L-10.2644 31.3548L-5.52202 31.3548L-2.82366 28.8298L-2.82366 25.5737L0.703011 22.3211L0.703011 19.3757L-14.5077 19.3757ZM30.0253 22.8821L29.296 22.1974L32.5753 18.7041L33.3046 19.3895L30.0253 22.8821ZM35.6086 21.7316L42.1953 21.7316L45.0093 18.9756L45.7086 19.691L42.6033 22.7316L36.0393 22.7316L29.8746 29.2383L23.102 29.2383L23.102 28.2383L29.4446 28.2383L35.6086 21.7316ZM11.9171 27.284L5.99247 21.5993L6.68447 20.878L12.6091 26.5626L11.9171 27.284ZM-14.0722 22.6975L-1.94823 22.6975L-1.94823 21.6975L-14.0722 21.6975L-14.0722 22.6975ZM10.1372 28.7221L5.99315 24.7501L6.68515 24.0287L10.8292 28.0007L10.1372 28.7221ZM39.5521 29.2448L38.8108 28.5741L42.1781 24.8481L44.1961 24.8481L44.1961 25.8481L42.6221 25.8481L39.5521 29.2448ZM33.1471 29.2448L32.4051 28.5741L35.6244 25.0121L36.3664 25.6828L33.1471 29.2448ZM36.3317 29.2448L35.5897 28.5741L38.809 25.0121L39.551 25.6828L36.3317 29.2448ZM-9.09038 29.2383L-4.70038 29.2383L-4.70038 25.211L-5.70038 25.211L-5.70038 28.2383L-8.09038 28.2383L-8.09038 25.0443L-12.447 25.0443L-12.447 28.487L-11.447 28.487L-11.447 26.0443L-9.09038 26.0443L-9.09038 29.2383ZM-6.49853 36.7916L-7.18919 36.0676L0.498806 28.729L0.498806 25.211L1.49881 25.211L1.49881 29.1576L-6.49853 36.7916ZM6.45656 32.4022L7.45656 32.4022L7.45656 27.6762L6.45656 27.6762L6.45656 32.4022ZM30.1626 42.5853L16.4306 28.8866L17.1366 28.1786L30.8693 41.8773L30.1626 42.5853ZM-3.79433 39.2939L-3.087 40.0013L1.49633 35.4179L1.49633 30.8706L-5.53633 37.7626L-4.837 38.4773L0.496334 33.2506L0.496334 35.0039L-3.79433 39.2939ZM9.98459 34.9316L9.98459 45.8023L10.9846 45.8023L10.9846 35.3523L13.1353 33.2483L13.1353 46.2723L14.1346 46.2723L14.1346 30.8716L9.98459 34.9316ZM29.2966 36.237L29.2966 32.355L26.2353 32.355L26.2353 31.355L30.2966 31.355L30.2966 33.841L32.664 31.4997L33.3673 32.2103L29.2966 36.237ZM33.3782 33.7232L37.2428 37.0945L37.9002 36.3405L34.8502 33.6805L36.2008 32.3552L41.0682 32.3552L41.0682 31.3552L35.7922 31.3552L33.3782 33.7232ZM28.0765 43.6139L16.4331 32.1073L17.1365 31.3966L28.7798 42.9033L28.0765 43.6139ZM30.402 36.6207L33.6787 40.1401L34.4107 39.4594L31.806 36.6607L32.7734 35.7354L35.6474 38.5474L36.346 37.8327L32.7814 34.3434L30.402 36.6207ZM16.4549 46.2722L17.4543 46.2722L17.4543 34.8335L16.4549 34.8335L16.4549 46.2722ZM1.49784 42.5996L0.497836 42.5996L0.497836 39.3176L-1.36416 41.303L-2.0935 40.619L1.49784 36.789L1.49784 42.5996ZM19.4694 45.92L20.4694 45.92L20.4694 39.5273L25.8921 44.682L26.5814 43.9566L19.4694 37.196L19.4694 45.92Z" opacity="0.100000001" fill="rgb(123,176,202)" fill-rule="evenodd" />
	</g>
	<g id="X备份">
		<path id="Fill 175" d="M13 15.6639L16.9738 26.6666L22.6667 26.6666L16.6473 10L13 15.6639Z" fill="url(#paint_linear_107)" fill-rule="evenodd" />
		<path id="Fill 177" d="M15.2842 22L26 5.33337L19.6431 5.33337L13 15.6654L15.2842 22Z" fill="url(#paint_linear_108)" style="mix-blend-mode:multiply" fill-rule="evenodd" />
		<path id="Fill 201" d="M15.6668 6.79677L15.1174 5.33337L9.3335 5.33337L11.9608 12.3334L15.6668 6.79677Z" fill="rgb(62,234,219)" fill-rule="evenodd" />
		<path id="Fill 203" d="M11.3442 18.3333L6 26.6666L12.4631 26.6666L13.6667 24.79L11.3442 18.3333Z" fill="rgb(62,234,219)" fill-rule="evenodd" />
		<path id="路径" d="" stroke="rgb(151,151,151)" stroke-width="0.666666687" />
		<path id="路径 2" d="M22.0549 25.0443L18.9219 16.3334L15.2842 22C15.2842 22 17.5855 21.6975 18.9219 22.1975C20.2583 22.6975 22.0549 25.0443 22.0549 25.0443Z" fill="url(#paint_linear_109)" fill-rule="evenodd" />
		<path id="路径 2" d="M18.9219 16.3334L19.3486 17.5198L21.165 22.57L22.0549 25.0443C22.0549 25.0443 21.2441 23.9852 20.3067 23.1384C19.8488 22.7247 19.3605 22.3616 18.9219 22.1975C18.2315 21.9392 17.2836 21.8951 16.5285 21.9128C15.8219 21.9293 15.2842 22 15.2842 22L15.9675 20.9356L18.9219 16.3334ZM18.6675 18.5808L17.1696 20.9141Q18.4427 20.9505 19.2723 21.2609Q19.4809 21.3389 19.7028 21.4591L18.6675 18.5808Z" fill="url(#paint_linear_110)" fill-opacity="0" fill-rule="evenodd" />
	</g>
	<rect id="蒙版" width="32.000000" height="32.000000" x="0.000000" y="0.000000" rx="2.666667" fill="rgb(255,255,255)" fill-opacity="0" />
	<rect id="蒙版" width="31.333334" height="31.333334" x="0.333333" y="0.333333" rx="2.333333" stroke="rgb(236,242,244)" stroke-width="0.666666687" />
</svg>
