<svg viewBox="0 0 48 48" xmlns="http://www.w3.org/2000/svg" xmlns:xlink="http://www.w3.org/1999/xlink" width="48.000000" height="48.000000" fill="none">
	<defs>
		<linearGradient id="paint_linear_62" x1="39.3223877" x2="24.9658127" y1="25.8162994" y2="33.0490341" gradientUnits="userSpaceOnUse">
			<stop stop-color="rgb(0,82,204)" offset="0.180000007" stop-opacity="1" />
			<stop stop-color="rgb(38,132,255)" offset="1" stop-opacity="1" />
		</linearGradient>
	</defs>
	<rect id="代码仓库/Bitbucket" width="48.000000" height="48.000000" x="0.000000" y="0.000000" />
	<g id="模型/Bitbucket-48x48">
		<g id="Bitbucket-60x60">
			<path id="形状" d="M8.29029 9.60018C7.97236 9.59616 7.66889 9.73329 7.46128 9.97489C7.25367 10.2165 7.16318 10.5378 7.21408 10.8527L11.7826 38.6751C11.9001 39.3779 12.5036 39.8946 13.2139 39.9006L35.1308 39.9006C35.664 39.9074 36.1218 39.5216 36.2071 38.9936L40.7863 10.8635C40.8372 10.5486 40.7467 10.2273 40.5391 9.98568C40.3315 9.74409 40.028 9.60696 39.7101 9.61107L8.29029 9.60018ZM27.5275 29.7086L20.5321 29.7086L18.638 19.7867L29.2225 19.7867L27.5275 29.7086Z" fill="rgb(38,132,255)" fill-rule="nonzero" />
			<path id="形状" d="M7.46128 9.97489C7.25367 10.2165 7.16318 10.5378 7.21408 10.8527L11.7826 38.6751C11.9001 39.3779 12.5036 39.8946 13.2139 39.9006L35.1308 39.9006C35.664 39.9074 36.1218 39.5216 36.2071 38.9936L40.7863 10.8635C40.8372 10.5486 40.7467 10.2273 40.5391 9.98568C40.3315 9.74409 40.028 9.60696 39.7101 9.61107L8.29029 9.60018C7.97236 9.59616 7.66889 9.73329 7.46128 9.97489ZM20.5321 29.7086L18.638 19.7867L29.2225 19.7867L27.5275 29.7086L20.5321 29.7086Z" fill-rule="nonzero" stroke="rgb(0,0,0)" stroke-opacity="0" stroke-width="1" />
			<path id="路径" d="M39.3224 19.7866L29.2222 19.7866L27.5272 29.7086L20.5318 29.7086L12.272 39.5495C12.5338 39.7766 12.8676 39.9029 13.2137 39.9059L35.136 39.9059C35.6691 39.9127 36.1269 39.5269 36.2122 38.9989L39.3224 19.7866Z" fill="url(#paint_linear_62)" fill-rule="nonzero" />
			<path id="路径" d="M29.2222 19.7866L27.5272 29.7086L20.5318 29.7086L12.272 39.5495C12.5338 39.7766 12.8676 39.9029 13.2137 39.9059L35.136 39.9059C35.6691 39.9127 36.1269 39.5269 36.2122 38.9989L39.3224 19.7866L29.2222 19.7866Z" fill-rule="nonzero" stroke="rgb(0,0,0)" stroke-opacity="0" stroke-width="1" />
		</g>
	</g>
</svg>
