<svg viewBox="0 0 48 48" xmlns="http://www.w3.org/2000/svg" xmlns:xlink="http://www.w3.org/1999/xlink" width="48.000000" height="48.000000" fill="none">
	<defs>
		<linearGradient id="paint_linear_63" x1="15.3326883" x2="24.0000725" y1="14.5014782" y2="13.8374443" gradientUnits="userSpaceOnUse">
			<stop stop-color="rgb(2,170,255)" offset="0" stop-opacity="1" />
			<stop stop-color="rgb(6,222,198)" offset="1" stop-opacity="1" />
		</linearGradient>
		<linearGradient id="paint_linear_64" x1="8.6764698" x2="16.1892281" y1="23.1981659" y2="34.2617378" gradientUnits="userSpaceOnUse">
			<stop stop-color="rgb(192,207,255)" offset="0" stop-opacity="1" />
			<stop stop-color="rgb(113,141,234)" offset="0.230855972" stop-opacity="1" />
			<stop stop-color="rgb(94,124,224)" offset="0.805655479" stop-opacity="1" />
			<stop stop-color="rgb(0,16,48)" offset="1" stop-opacity="1" />
		</linearGradient>
		<linearGradient id="paint_linear_65" x1="3.71791077" x2="831.420166" y1="14.0068665" y2="775.459106" gradientUnits="userSpaceOnUse">
			<stop stop-color="rgb(192,207,255)" offset="0" stop-opacity="1" />
			<stop stop-color="rgb(113,141,234)" offset="0.230855972" stop-opacity="1" />
			<stop stop-color="rgb(94,124,224)" offset="0.7644701" stop-opacity="1" />
			<stop stop-color="rgb(0,16,48)" offset="1" stop-opacity="1" />
		</linearGradient>
		<linearGradient id="paint_linear_66" x1="22.4597855" x2="34.2547607" y1="39.2986221" y2="16.0977764" gradientUnits="userSpaceOnUse">
			<stop stop-color="rgb(2,170,255)" offset="0" stop-opacity="1" />
			<stop stop-color="rgb(6,222,198)" offset="1" stop-opacity="1" />
		</linearGradient>
	</defs>
	<rect id="代码仓库/codehub" width="48.000000" height="48.000000" x="0.000000" y="0.000000" />
	<g id="codehub">
		<g id="codehub-60x60">
			<path id="矩形备份-12" d="M14.1021 11.5073L20.9283 11.5073C22.6248 11.5073 24.0001 12.7092 24.0001 14.1919C24.0001 15.6745 22.6248 16.8764 20.9283 16.8764L14.1021 16.8764C12.4056 16.8764 11.0303 15.6745 11.0303 14.1919C11.0303 12.7092 12.4056 11.5073 14.1021 11.5073Z" fill="url(#paint_linear_63)" fill-rule="nonzero" />
			<path id="矩形备份-12" d="M20.9283 11.5073C22.6248 11.5073 24.0001 12.7092 24.0001 14.1919C24.0001 15.6745 22.6248 16.8764 20.9283 16.8764L14.1021 16.8764C12.4056 16.8764 11.0303 15.6745 11.0303 14.1919C11.0303 12.7092 12.4056 11.5073 14.1021 11.5073L20.9283 11.5073Z" fill-rule="nonzero" stroke="rgb(0,0,0)" stroke-opacity="0" stroke-width="1" />
			<path id="形状结合" d="M19.0659 11.5073C18.3652 11.6973 17.8055 12.1715 17.4651 12.7581L11.1342 23.8513L15.1834 30.9462L19.16 30.9463C20.6252 30.9463 21.813 32.1482 21.813 33.6309C21.813 35.1135 20.6252 36.3154 19.16 36.3154L13.7531 36.3154C13.3908 36.3154 13.0455 36.242 12.7309 36.1089C12.1589 35.9027 11.6533 35.4973 11.3256 34.923L5.87243 25.3651C5.81453 25.2636 5.76392 25.1599 5.72043 25.0546C5.32593 24.2717 5.31889 23.3085 5.78557 22.4905L11.3346 12.7581C11.6608 12.2296 12.2161 11.7339 12.8452 11.5366L12.9455 11.5073L19.0659 11.5073Z" fill="url(#paint_linear_64)" fill-rule="nonzero" />
			<path id="形状结合" d="M17.4651 12.7581L11.1342 23.8513L15.1834 30.9462L19.16 30.9463C20.6252 30.9463 21.813 32.1482 21.813 33.6309C21.813 35.1135 20.6252 36.3154 19.16 36.3154L13.7531 36.3154C13.3908 36.3154 13.0455 36.242 12.7309 36.1089C12.1589 35.9027 11.6533 35.4973 11.3256 34.923L5.87243 25.3651C5.81453 25.2636 5.76392 25.1599 5.72043 25.0546C5.32593 24.2717 5.31889 23.3085 5.78557 22.4905L11.3346 12.7581C11.6608 12.2296 12.2161 11.7339 12.8452 11.5366L12.9455 11.5073L19.0659 11.5073C18.3652 11.6973 17.8055 12.1715 17.4651 12.7581Z" fill-rule="nonzero" stroke="rgb(0,0,0)" stroke-opacity="0" stroke-width="1" />
			<path id="形状结合备份" d="M13.6362 0C12.9355 0.189983 12.3759 0.664223 12.0354 1.25081L5.70455 12.344L11.3752 22.2811C12.1078 23.5651 11.6731 25.2069 10.4042 25.9482C9.13534 26.6896 7.51284 26.2496 6.78026 24.9656L0.442743 13.8578C0.384838 13.7563 0.334229 13.6526 0.290745 13.5472C-0.103762 12.7643 -0.1108 11.8012 0.355883 10.9832L5.90494 1.25081C6.23112 0.722323 6.78642 0.226565 7.41548 0.0293159L7.51581 0L13.6362 0Z" fill="url(#paint_linear_65)" fill-rule="nonzero" transform="matrix(-1,0,0,-1,42.5703,36.3154)" />
			<path id="形状结合备份" d="M12.0354 1.25081L5.70455 12.344L11.3752 22.2811C12.1078 23.5651 11.6731 25.2069 10.4042 25.9482C9.13534 26.6896 7.51284 26.2496 6.78026 24.9656L0.442743 13.8578C0.384838 13.7563 0.334229 13.6526 0.290745 13.5472C-0.103762 12.7643 -0.1108 11.8012 0.355883 10.9832L5.90494 1.25081C6.23112 0.722323 6.78642 0.226565 7.41548 0.0293159L7.51581 0L13.6362 0C12.9355 0.189983 12.3759 0.664223 12.0354 1.25081Z" fill-rule="nonzero" stroke="rgb(0,0,0)" stroke-opacity="0" stroke-width="1" transform="matrix(-1,0,0,-1,42.5703,36.3154)" />
			<path id="路径" d="M21.471 38.5123C21.0878 38.9374 20.5234 39.2708 19.9634 39.2966C15.2945 39.2966 13.0769 39.2986 13.4885 39.2986C14.1058 39.2986 14.6653 39.004 15.0729 38.5266L32.1603 9.31095C32.5435 8.8859 33.1079 8.55247 33.6679 8.5267L40.1428 8.52466C39.5255 8.52466 38.966 8.81926 38.5584 9.29668L21.471 38.5123Z" fill="url(#paint_linear_66)" fill-rule="nonzero" />
			<path id="路径" d="M19.9634 39.2966C15.2945 39.2966 13.0769 39.2986 13.4885 39.2986C14.1058 39.2986 14.6653 39.004 15.0729 38.5266L32.1603 9.31095C32.5435 8.8859 33.1079 8.55247 33.6679 8.5267L40.1428 8.52466C39.5255 8.52466 38.966 8.81926 38.5584 9.29668L21.471 38.5123C21.0878 38.9374 20.5234 39.2708 19.9634 39.2966Z" fill-rule="nonzero" stroke="rgb(0,0,0)" stroke-opacity="0" stroke-width="1" />
		</g>
	</g>
</svg>
