<svg viewBox="0 0 48 48" xmlns="http://www.w3.org/2000/svg" xmlns:xlink="http://www.w3.org/1999/xlink" width="48.000000" height="48.000000" fill="none">
	<rect id="代码仓库/iSource" width="48.000000" height="48.000000" x="0.000000" y="0.000000" />
	<g id="模型/iSource-48x48">
		<g id="编组">
			<rect id="矩形" width="34.000000" height="34.000000" x="7.000000" y="7.000000" rx="4.500000" fill="rgb(179,37,37)" />
			<rect id="矩形" width="34.000000" height="34.000000" x="7.000000" y="7.000000" rx="4.500000" stroke="rgb(0,0,0)" stroke-opacity="0" stroke-width="1" />
			<path id="路径-11" d="M9.35645 36.518C19.7359 29.6856 29.4944 26.2785 38.6319 26.2967C30.0773 26.8843 21.3005 30.2914 12.3018 36.518L9.35645 36.518Z" fill="rgb(255,255,255)" fill-rule="evenodd" />
			<path id="路径-11" d="M38.6319 26.2967C30.0773 26.8843 21.3005 30.2914 12.3018 36.518L9.35645 36.518C19.7359 29.6856 29.4944 26.2785 38.6319 26.2967Z" fill-rule="evenodd" stroke="rgb(0,0,0)" stroke-opacity="0" stroke-width="1" />
			<path id="路径-15" d="M13.6592 36.5178C21.5761 30.2457 29.9004 26.8387 38.6321 26.2966C29.6337 27.5988 22.193 31.0059 16.3098 36.5178L13.6592 36.5178Z" fill="rgb(255,255,255)" fill-rule="evenodd" />
			<path id="路径-15" d="M38.6321 26.2966C29.6337 27.5988 22.193 31.0059 16.3098 36.5178L13.6592 36.5178C21.5761 30.2457 29.9004 26.8387 38.6321 26.2966Z" fill-rule="evenodd" stroke="rgb(0,0,0)" stroke-opacity="0" stroke-width="1" />
			<path id="路径-17" d="M16.8838 36.5178C23.0581 30.7357 30.3074 27.3286 38.6317 26.2966C30.8059 27.5904 24.3468 30.9975 19.2544 36.5178L16.8838 36.5178Z" fill="rgb(255,255,255)" fill-rule="evenodd" />
			<path id="路径-17" d="M38.6317 26.2966C30.8059 27.5904 24.3468 30.9975 19.2544 36.5178L16.8838 36.5178C23.0581 30.7357 30.3074 27.3286 38.6317 26.2966Z" fill-rule="evenodd" stroke="rgb(0,0,0)" stroke-opacity="0" stroke-width="1" />
			<path id="DEVELOPER" d="M9.78733 27.8599C10.3832 27.6652 10.8764 27.3273 11.267 26.8451C11.6576 26.3612 11.8529 25.8069 11.8529 25.1831C11.8529 24.563 11.6576 24.1425 11.267 23.9229C10.8764 23.7049 10.3832 23.7006 9.78733 23.9089L8.59375 24.3261L8.59375 28.25L9.78733 27.8599ZM9.20962 27.5237L9.20962 24.6359L9.70013 24.4659C10.1688 24.3035 10.5349 24.3035 10.7983 24.4665C11.0618 24.6303 11.1935 24.9437 11.1935 25.4062C11.1935 25.8722 11.0618 26.2765 10.7983 26.6185C10.5349 26.9597 10.1688 27.2073 9.70013 27.3619L9.20962 27.5237ZM15.1339 26.1127L15.1339 25.5696L13.1719 26.2168L13.1719 24.9563L14.856 24.3888L14.856 23.8466L13.1719 24.4192L13.1719 23.2847L15.0685 22.6277L15.0685 22.0627L12.556 22.941L12.556 26.9551L15.1339 26.1127ZM17.5592 25.3201L19.1561 20.6337L18.5185 20.8566L17.3467 24.4695L16.1149 21.6969L15.4337 21.935L17.096 25.4715L17.5592 25.3201ZM22.2027 23.8026L22.2027 23.238L20.2407 23.8852L20.2407 22.5743L21.9248 22.0068L21.9248 21.4431L20.2407 22.0157L20.2407 20.8359L22.1373 20.1789L22.1373 19.5915L19.6248 20.4699L19.6248 24.645L22.2027 23.8026ZM25.4837 22.7303L25.4837 22.1324L23.5217 22.7798L23.5217 19.1076L22.9058 19.3229L22.9058 23.5728L25.4837 22.7303ZM27.6529 22.0867C28.1761 21.9159 28.6121 21.564 28.9609 21.0298C29.3097 20.4942 29.4841 19.8906 29.4841 19.2201C29.4841 18.5537 29.3097 18.07 28.9609 17.7703C28.6121 17.4721 28.1761 17.4151 27.6529 17.5982C27.1115 17.7876 26.6673 18.1505 26.3203 18.6857C25.9733 19.2193 25.7998 19.8124 25.7998 20.4662C25.7998 21.1238 25.9733 21.6016 26.3203 21.9005C26.6673 22.201 27.1115 22.2634 27.6529 22.0867ZM27.6529 21.4878C27.2823 21.61 26.9871 21.5566 26.7672 21.3282C26.5474 21.1005 26.4375 20.7415 26.4375 20.2505C26.4375 19.7595 26.5474 19.3271 26.7672 18.9527C26.9871 18.5776 27.2823 18.3256 27.6529 18.197C28.0053 18.0748 28.2915 18.1263 28.5113 18.352C28.7311 18.5784 28.841 18.9404 28.841 19.4376C28.841 19.9348 28.7311 20.3722 28.5113 20.7493C28.2915 21.1256 28.0053 21.3716 27.6529 21.4878ZM30.8031 20.992L30.8031 19.3647L31.4843 19.1363C31.924 18.989 32.2791 18.7434 32.5498 18.3991C32.8205 18.0542 32.9559 17.6681 32.9559 17.2416C32.9559 16.811 32.8178 16.5124 32.5417 16.3466C32.2655 16.1815 31.9131 16.1741 31.4843 16.324L30.1872 16.7774L30.1872 21.1932L30.8031 20.992ZM30.8031 18.7981L30.8031 17.1528L31.4026 16.945C31.686 16.8468 31.9058 16.8454 32.062 16.9409C32.2183 17.0367 32.2964 17.2122 32.2964 17.4673C32.2964 17.7183 32.2147 17.9466 32.0511 18.1518C31.8876 18.3567 31.6715 18.5046 31.4026 18.5955L30.8031 18.7981ZM36.0843 19.2661L36.0843 18.6594L34.1222 19.3065L34.1222 17.8967L35.8063 17.3292L35.8063 16.7234L34.1222 17.296L34.1222 16.0271L36.0189 15.37L36.0189 14.7388L33.5063 15.6171L33.5063 20.1085L36.0843 19.2661ZM37.4032 18.835L37.4032 17.059L38.1281 16.8158L39.1908 18.2508L39.9375 18.0068L38.7439 16.4836C39.0019 16.2838 39.2017 16.0488 39.3434 15.7787C39.4851 15.5082 39.556 15.2259 39.556 14.932C39.556 14.5037 39.4206 14.2052 39.15 14.0371C38.8793 13.8696 38.5241 13.863 38.0844 14.0167L36.7873 14.4702L36.7873 19.0363L37.4032 18.835ZM37.4032 16.4484L37.4032 14.8656L38.0027 14.6578C38.2861 14.5596 38.5059 14.5523 38.6622 14.6362C38.8184 14.7203 38.8965 14.8942 38.8965 15.1579C38.8965 15.4006 38.8148 15.6199 38.6513 15.8156C38.4878 16.0111 38.2716 16.1543 38.0027 16.2453L37.4032 16.4484Z" fill="rgb(255,255,255)" fill-rule="nonzero" />
			<path id="DEVELOPER" d="M11.267 26.8451C11.6576 26.3612 11.8529 25.8069 11.8529 25.1831C11.8529 24.563 11.6576 24.1425 11.267 23.9229C10.8764 23.7049 10.3832 23.7006 9.78733 23.9089L8.59375 24.3261L8.59375 28.25L9.78733 27.8599C10.3832 27.6652 10.8764 27.3273 11.267 26.8451ZM9.20962 24.6359L9.70013 24.4659C10.1688 24.3035 10.5349 24.3035 10.7983 24.4665C11.0618 24.6303 11.1935 24.9437 11.1935 25.4062C11.1935 25.8722 11.0618 26.2765 10.7983 26.6185C10.5349 26.9597 10.1688 27.2073 9.70013 27.3619L9.20962 27.5237L9.20962 24.6359ZM15.1339 25.5696L13.1719 26.2168L13.1719 24.9563L14.856 24.3888L14.856 23.8466L13.1719 24.4192L13.1719 23.2847L15.0685 22.6277L15.0685 22.0627L12.556 22.941L12.556 26.9551L15.1339 26.1127L15.1339 25.5696ZM19.1561 20.6337L18.5185 20.8566L17.3467 24.4695L16.1149 21.6969L15.4337 21.935L17.096 25.4715L17.5592 25.3201L19.1561 20.6337ZM22.2027 23.238L20.2407 23.8852L20.2407 22.5743L21.9248 22.0068L21.9248 21.4431L20.2407 22.0157L20.2407 20.8359L22.1373 20.1789L22.1373 19.5915L19.6248 20.4699L19.6248 24.645L22.2027 23.8026L22.2027 23.238ZM25.4837 22.1324L23.5217 22.7798L23.5217 19.1076L22.9058 19.3229L22.9058 23.5728L25.4837 22.7303L25.4837 22.1324ZM28.9609 21.0298C29.3097 20.4942 29.4841 19.8906 29.4841 19.2201C29.4841 18.5537 29.3097 18.07 28.9609 17.7703C28.6121 17.4721 28.1761 17.4151 27.6529 17.5982C27.1115 17.7876 26.6673 18.1505 26.3203 18.6857C25.9733 19.2193 25.7998 19.8124 25.7998 20.4662C25.7998 21.1238 25.9733 21.6016 26.3203 21.9005C26.6673 22.201 27.1115 22.2634 27.6529 22.0867C28.1761 21.9159 28.6121 21.564 28.9609 21.0298ZM26.7672 21.3282C26.5474 21.1005 26.4375 20.7415 26.4375 20.2505C26.4375 19.7595 26.5474 19.3271 26.7672 18.9527C26.9871 18.5776 27.2823 18.3256 27.6529 18.197C28.0053 18.0748 28.2915 18.1263 28.5113 18.352C28.7311 18.5784 28.841 18.9404 28.841 19.4376C28.841 19.9348 28.7311 20.3722 28.5113 20.7493C28.2915 21.1256 28.0053 21.3716 27.6529 21.4878C27.2823 21.61 26.9871 21.5566 26.7672 21.3282ZM30.8031 19.3647L31.4843 19.1363C31.924 18.989 32.2791 18.7434 32.5498 18.3991C32.8205 18.0542 32.9559 17.6681 32.9559 17.2416C32.9559 16.811 32.8178 16.5124 32.5417 16.3466C32.2655 16.1815 31.9131 16.1741 31.4843 16.324L30.1872 16.7774L30.1872 21.1932L30.8031 20.992L30.8031 19.3647ZM30.8031 17.1528L31.4026 16.945C31.686 16.8468 31.9058 16.8454 32.062 16.9409C32.2183 17.0367 32.2964 17.2122 32.2964 17.4673C32.2964 17.7183 32.2147 17.9466 32.0511 18.1518C31.8876 18.3567 31.6715 18.5046 31.4026 18.5955L30.8031 18.7981L30.8031 17.1528ZM36.0843 18.6594L34.1222 19.3065L34.1222 17.8967L35.8063 17.3292L35.8063 16.7234L34.1222 17.296L34.1222 16.0271L36.0189 15.37L36.0189 14.7388L33.5063 15.6171L33.5063 20.1085L36.0843 19.2661L36.0843 18.6594ZM37.4032 17.059L38.1281 16.8158L39.1908 18.2508L39.9375 18.0068L38.7439 16.4836C39.0019 16.2838 39.2017 16.0488 39.3434 15.7787C39.4851 15.5082 39.556 15.2259 39.556 14.932C39.556 14.5037 39.4206 14.2052 39.15 14.0371C38.8793 13.8696 38.5241 13.863 38.0844 14.0167L36.7873 14.4702L36.7873 19.0363L37.4032 18.835L37.4032 17.059ZM37.4032 14.8656L38.0027 14.6578C38.2861 14.5596 38.5059 14.5523 38.6622 14.6362C38.8184 14.7203 38.8965 14.8942 38.8965 15.1579C38.8965 15.4006 38.8148 15.6199 38.6513 15.8156C38.4878 16.0111 38.2716 16.1543 38.0027 16.2453L37.4032 16.4484L37.4032 14.8656Z" fill-rule="nonzero" stroke="rgb(0,0,0)" stroke-opacity="0" stroke-width="1" />
		</g>
	</g>
</svg>
