<svg viewBox="0 0 48 48" xmlns="http://www.w3.org/2000/svg" xmlns:xlink="http://www.w3.org/1999/xlink" width="48.000000" height="48.000000" fill="none">
	<rect id="代码仓库/码云gitee" width="48.000000" height="48.000000" x="0.000000" y="0.000000" />
	<g id="模型/码云gitee">
		<g id="码云gitee-60x60">
			<circle id="Combined-Shape" cx="24" cy="24" r="18" fill="rgb(199,29,35)" />
			<circle id="Combined-Shape" cx="24" cy="24" r="18" stroke="rgb(0,0,0)" stroke-opacity="0" stroke-width="1" />
			<path id="G" d="M33.1111 22.0003L22.889 22.0003C22.3981 22.0006 22.0002 22.3984 21.9998 22.8892L21.9993 25.1113C21.9989 25.6023 22.3967 26.0003 22.8877 26.0005L29.1111 26.0002C29.6021 26.0001 30 26.3981 30 26.889L30 27.1112L30 27.3335C30 28.8062 28.8061 30.0001 27.3334 30.0001L18.8883 30.0001C18.3975 30.0001 17.9995 29.6022 17.9995 29.1113L17.9993 20.6671C17.9992 19.1943 19.193 18.0004 20.6658 18.0004L33.1086 18.0004C33.5993 17.9999 33.9972 17.6023 33.9981 17.1116L33.9995 14.8894C34.0003 14.3985 33.6026 14.0003 33.1117 14L20.6666 14.0006C16.9848 14.0006 14 16.9853 14 20.6672L14 33.1111C14 33.602 14.398 34 14.8889 34L28.0002 34C31.3138 34 34 31.3138 34 28.0002L34 22.8892C34 22.3983 33.602 22.0003 33.1111 22.0003Z" fill="rgb(255,255,255)" fill-rule="nonzero" />
			<path id="G" d="M22.889 22.0003C22.3981 22.0006 22.0002 22.3984 21.9998 22.8892L21.9993 25.1113C21.9989 25.6023 22.3967 26.0003 22.8877 26.0005L29.1111 26.0002C29.6021 26.0001 30 26.3981 30 26.889L30 27.1112L30 27.3335C30 28.8062 28.8061 30.0001 27.3334 30.0001L18.8883 30.0001C18.3975 30.0001 17.9995 29.6022 17.9995 29.1113L17.9993 20.6671C17.9992 19.1943 19.193 18.0004 20.6658 18.0004L33.1086 18.0004C33.5993 17.9999 33.9972 17.6023 33.9981 17.1116L33.9995 14.8894C34.0003 14.3985 33.6026 14.0003 33.1117 14L20.6666 14.0006C16.9848 14.0006 14 16.9853 14 20.6672L14 33.1111C14 33.602 14.398 34 14.8889 34L28.0002 34C31.3138 34 34 31.3138 34 28.0002L34 22.8892C34 22.3983 33.602 22.0003 33.1111 22.0003L22.889 22.0003Z" fill-rule="nonzero" stroke="rgb(0,0,0)" stroke-opacity="0" stroke-width="1" />
		</g>
	</g>
</svg>
