<svg viewBox="0 0 48 48" xmlns="http://www.w3.org/2000/svg" xmlns:xlink="http://www.w3.org/1999/xlink" width="48.000000" height="48.000000" fill="none">
	<rect id="代码仓库/通用git" width="48.000000" height="48.000000" x="0.000000" y="0.000000" />
	<g id="模型/通用git">
		<g id="通用git-60x60">
			<path id="矩形" d="M26.3926 6.11229L41.7038 21.4235C43.0251 22.7448 43.0251 24.887 41.7038 26.2083L26.3926 41.5195C25.0713 42.8408 22.9291 42.8408 21.6078 41.5195L6.29662 26.2083C4.97535 24.887 4.97535 22.7448 6.29662 21.4235L21.6078 6.11229C22.9291 4.79102 25.0713 4.79102 26.3926 6.11229Z" fill="rgb(255,57,0)" fill-rule="evenodd" />
			<path id="矩形" d="M41.7038 21.4235C43.0251 22.7448 43.0251 24.887 41.7038 26.2083L26.3926 41.5195C25.0713 42.8408 22.9291 42.8408 21.6078 41.5195L6.29662 26.2083C4.97535 24.887 4.97535 22.7448 6.29662 21.4235L21.6078 6.11229C22.9291 4.79102 25.0713 4.79102 26.3926 6.11229L41.7038 21.4235Z" fill-rule="evenodd" stroke="rgb(0,0,0)" stroke-opacity="0" stroke-width="1" />
			<path id="路径" d="M18.9698 8.75171C19.9318 9.71374 21.3749 11.1568 23.2991 13.0808C23.5226 13.0211 23.7576 12.9892 24 12.9892C25.4949 12.9892 26.7067 14.201 26.7067 15.6959C26.7067 15.9383 26.6748 16.1732 26.615 16.3968L31.4191 21.2008C31.6426 21.1411 31.8776 21.1092 32.12 21.1092C33.6149 21.1092 34.8267 22.321 34.8267 23.8159C34.8267 25.3107 33.6149 26.5225 32.12 26.5225C30.6252 26.5225 29.4134 25.3107 29.4134 23.8159C29.4134 23.5735 29.4452 23.3385 29.505 23.1149L25.3527 18.9622L25.3534 29.5914C26.1258 30.0382 26.6569 30.8558 26.7034 31.8008L26.7067 31.9359C26.7067 33.4307 25.4949 34.6425 24 34.6425C22.5052 34.6425 21.2934 33.4307 21.2934 31.9359C21.2934 30.9343 21.8373 30.0598 22.6459 29.5917L22.6459 18.04C21.8373 17.5719 21.2934 16.6974 21.2934 15.6959C21.2934 15.4535 21.3252 15.2185 21.385 14.9949C19.4613 13.0711 18.0185 11.6283 17.0566 10.6664L18.9698 8.75171Z" fill="rgb(255,255,255)" fill-rule="evenodd" />
			<path id="路径" d="M23.2991 13.0808C23.5226 13.0211 23.7576 12.9892 24 12.9892C25.4949 12.9892 26.7067 14.201 26.7067 15.6959C26.7067 15.9383 26.6748 16.1732 26.615 16.3968L31.4191 21.2008C31.6426 21.1411 31.8776 21.1092 32.12 21.1092C33.6149 21.1092 34.8267 22.321 34.8267 23.8159C34.8267 25.3107 33.6149 26.5225 32.12 26.5225C30.6252 26.5225 29.4134 25.3107 29.4134 23.8159C29.4134 23.5735 29.4452 23.3385 29.505 23.1149L25.3527 18.9622L25.3534 29.5914C26.1258 30.0382 26.6569 30.8558 26.7034 31.8008L26.7067 31.9359C26.7067 33.4307 25.4949 34.6425 24 34.6425C22.5052 34.6425 21.2934 33.4307 21.2934 31.9359C21.2934 30.9343 21.8373 30.0598 22.6459 29.5917L22.6459 18.04C21.8373 17.5719 21.2934 16.6974 21.2934 15.6959C21.2934 15.4535 21.3252 15.2185 21.385 14.9949C19.4613 13.0711 18.0185 11.6283 17.0566 10.6664L18.9698 8.75171C19.9318 9.71374 21.3749 11.1568 23.2991 13.0808Z" fill-rule="evenodd" stroke="rgb(0,0,0)" stroke-opacity="0" stroke-width="1" />
		</g>
	</g>
</svg>
