<svg viewBox="0 0 48 48" xmlns="http://www.w3.org/2000/svg" xmlns:xlink="http://www.w3.org/1999/xlink" width="48.000000" height="48.000000" fill="none">
	<rect id="制品类型图标/Go48" width="48.000000" height="48.000000" x="0.000000" y="0.000000" />
	<g id="模型/Go48">
		<g id="Go-60x60">
			<path id="路径" d="M5.75555 20.9945C5.67285 20.9945 5.65218 20.923 5.69353 20.8158L6.12767 19.8512C6.16902 19.7441 6.27239 19.6726 6.35509 19.6726L13.7356 19.6726C13.8183 19.6726 13.839 19.7798 13.7976 19.887L13.4462 20.8158C13.4048 20.923 13.3015 21.0302 13.2394 21.0302L5.75555 20.9945Z" fill="rgb(0,172,215)" fill-rule="evenodd" />
			<path id="路径" d="M5.69353 20.8158L6.12767 19.8512C6.16902 19.7441 6.27239 19.6726 6.35509 19.6726L13.7356 19.6726C13.8183 19.6726 13.839 19.7798 13.7976 19.887L13.4462 20.8158C13.4048 20.923 13.3015 21.0302 13.2394 21.0302L5.75555 20.9945C5.67285 20.9945 5.65218 20.923 5.69353 20.8158Z" fill-rule="evenodd" stroke="rgb(0,0,0)" stroke-opacity="0" stroke-width="1" />
			<path id="路径" d="M1.6825 23.7455C1.6001 23.7455 1.5795 23.6721 1.6207 23.5621L2.05331 22.5714C2.09451 22.4613 2.19751 22.3879 2.27991 22.3879L11.6737 22.3879C11.7561 22.3879 11.7973 22.498 11.7767 22.6081L11.6119 23.4887C11.5913 23.6354 11.5089 23.7088 11.4265 23.7088L1.6825 23.7455Z" fill="rgb(0,172,215)" fill-rule="evenodd" />
			<path id="路径" d="M1.6207 23.5621L2.05331 22.5714C2.09451 22.4613 2.19751 22.3879 2.27991 22.3879L11.6737 22.3879C11.7561 22.3879 11.7973 22.498 11.7767 22.6081L11.6119 23.4887C11.5913 23.6354 11.5089 23.7088 11.4265 23.7088L1.6825 23.7455C1.6001 23.7455 1.5795 23.6721 1.6207 23.5621Z" fill-rule="evenodd" stroke="rgb(0,0,0)" stroke-opacity="0" stroke-width="1" />
			<path id="路径" d="M6.43384 26.4674C6.35156 26.4674 6.33099 26.3602 6.37213 26.253L6.6601 25.3599C6.70124 25.2527 6.78352 25.1455 6.8658 25.1455L10.9797 25.1455C11.0619 25.1455 11.1031 25.2527 11.1031 25.3956L11.0619 26.253C11.0619 26.3959 10.9797 26.5031 10.918 26.5031L6.43384 26.4674Z" fill="rgb(0,172,215)" fill-rule="evenodd" />
			<path id="路径" d="M6.37213 26.253L6.6601 25.3599C6.70124 25.2527 6.78352 25.1455 6.8658 25.1455L10.9797 25.1455C11.0619 25.1455 11.1031 25.2527 11.1031 25.3956L11.0619 26.253C11.0619 26.3959 10.9797 26.5031 10.918 26.5031L6.43384 26.4674C6.35156 26.4674 6.33099 26.3602 6.37213 26.253Z" fill-rule="evenodd" stroke="rgb(0,0,0)" stroke-opacity="0" stroke-width="1" />
			<g id="编组">
				<path id="路径" d="M29.7018 20.4516C28.3514 20.7997 27.4297 21.0608 26.1007 21.4089C25.7791 21.4959 25.7577 21.5176 25.479 21.1913C25.1575 20.8214 24.9217 20.5821 24.4716 20.3646C23.1212 19.6901 21.8136 19.8859 20.5918 20.6909C19.1342 21.6482 18.3839 23.0623 18.4054 24.8245C18.4268 26.565 19.6057 28.0009 21.2991 28.2402C22.7568 28.436 23.9786 27.9139 24.9432 26.8043C25.1361 26.565 25.3076 26.304 25.5219 25.9994C24.7502 25.9994 23.7857 25.9994 21.3849 25.9994C20.9347 25.9994 20.8276 25.7165 20.9776 25.3467C21.2563 24.6723 21.7707 23.5409 22.0708 22.9753C22.1351 22.8447 22.2852 22.6272 22.6067 22.6272L30.4092 22.6272C30.3663 23.2146 30.3663 23.802 30.2806 24.3894C30.0448 25.9559 29.466 27.3918 28.5229 28.6536C26.9795 30.7204 24.9646 32.004 22.4138 32.3521C20.3131 32.635 18.3625 32.2216 16.6477 30.9162C15.0614 29.6979 14.1612 28.0879 13.9254 26.0864C13.6467 23.715 14.3326 21.5829 15.7474 19.7119C17.2693 17.6886 19.2842 16.405 21.7493 15.9481C23.7642 15.5782 25.6934 15.8176 27.4297 17.0141C28.5657 17.7756 29.3803 18.8199 29.9162 20.0817C30.0448 20.2775 29.959 20.3863 29.7018 20.4516Z" fill="rgb(0,172,215)" fill-rule="evenodd" />
				<path id="路径" d="M26.1007 21.4089C25.7791 21.4959 25.7577 21.5176 25.479 21.1913C25.1575 20.8214 24.9217 20.5821 24.4716 20.3646C23.1212 19.6901 21.8136 19.8859 20.5918 20.6909C19.1342 21.6482 18.3839 23.0623 18.4054 24.8245C18.4268 26.565 19.6057 28.0009 21.2991 28.2402C22.7568 28.436 23.9786 27.9139 24.9432 26.8043C25.1361 26.565 25.3076 26.304 25.5219 25.9994C24.7502 25.9994 23.7857 25.9994 21.3849 25.9994C20.9347 25.9994 20.8276 25.7165 20.9776 25.3467C21.2563 24.6723 21.7707 23.5409 22.0708 22.9753C22.1351 22.8447 22.2852 22.6272 22.6067 22.6272L30.4092 22.6272C30.3663 23.2146 30.3663 23.802 30.2806 24.3894C30.0448 25.9559 29.466 27.3918 28.5229 28.6536C26.9795 30.7204 24.9646 32.004 22.4138 32.3521C20.3131 32.635 18.3625 32.2216 16.6477 30.9162C15.0614 29.6979 14.1612 28.0879 13.9254 26.0864C13.6467 23.715 14.3326 21.5829 15.7474 19.7119C17.2693 17.6886 19.2842 16.405 21.7493 15.9481C23.7642 15.5782 25.6934 15.8176 27.4297 17.0141C28.5657 17.7756 29.3803 18.8199 29.9162 20.0817C30.0448 20.2775 29.959 20.3863 29.7018 20.4516C28.3514 20.7997 27.4297 21.0608 26.1007 21.4089Z" fill-rule="evenodd" stroke="rgb(0,0,0)" stroke-opacity="0" stroke-width="1" />
				<path id="形状" d="M36.7968 32.4826C34.8461 32.4391 33.067 31.8735 31.5665 30.5681C30.3018 29.4585 29.5087 28.0444 29.2515 26.3692C28.8657 23.9108 29.5302 21.7352 30.9878 19.7989C32.5526 17.7103 34.4389 16.6225 36.9897 16.1656C39.1761 15.774 41.2339 15.9916 43.0988 17.2752C44.7922 18.45 45.8425 20.0382 46.1212 22.1268C46.4856 25.0638 45.6496 27.457 43.6561 29.5021C42.2414 30.9597 40.5051 31.8735 38.5116 32.2868C37.9328 32.3956 37.3541 32.4174 36.7968 32.4826ZM41.8984 23.6932C41.877 23.4104 41.877 23.1928 41.8341 22.9752C41.4483 20.8214 39.4976 19.6031 37.4613 20.0817C35.4678 20.5386 34.1816 21.8222 33.7101 23.8672C33.3242 25.5642 34.1388 27.2829 35.6821 27.9791C36.8611 28.5013 38.04 28.436 39.1761 27.8486C40.8695 26.9566 41.7912 25.5642 41.8984 23.6932Z" fill="rgb(0,172,215)" fill-rule="evenodd" />
				<path id="形状" d="M31.5665 30.5681C30.3018 29.4585 29.5087 28.0444 29.2515 26.3692C28.8657 23.9108 29.5302 21.7352 30.9878 19.7989C32.5526 17.7103 34.4389 16.6225 36.9897 16.1656C39.1761 15.774 41.2339 15.9916 43.0988 17.2752C44.7922 18.45 45.8425 20.0382 46.1212 22.1268C46.4856 25.0638 45.6496 27.457 43.6561 29.5021C42.2414 30.9597 40.5051 31.8735 38.5116 32.2868C37.9328 32.3956 37.3541 32.4174 36.7968 32.4826C34.8461 32.4391 33.067 31.8735 31.5665 30.5681ZM41.8341 22.9752C41.4483 20.8214 39.4976 19.6031 37.4613 20.0817C35.4678 20.5386 34.1816 21.8222 33.7101 23.8672C33.3242 25.5642 34.1388 27.2829 35.6821 27.9791C36.8611 28.5013 38.04 28.436 39.1761 27.8486C40.8695 26.9566 41.7912 25.5642 41.8984 23.6932C41.877 23.4104 41.877 23.1928 41.8341 22.9752Z" fill-rule="evenodd" stroke="rgb(0,0,0)" stroke-opacity="0" stroke-width="1" />
			</g>
		</g>
	</g>
</svg>
