<svg viewBox="0 0 48 48" xmlns="http://www.w3.org/2000/svg" xmlns:xlink="http://www.w3.org/1999/xlink" width="48.000000" height="48.000000" fill="none">
	<rect id="制品类型图标/react 48" width="48.000000" height="48.000000" x="0.000000" y="0.000000" />
	<g id="模型/react-48">
		<g id="编组">
			<ellipse id="椭圆形" rx="3.692308" ry="3.661026" cx="24.4613514" cy="23.5423737" fill="rgb(97,218,251)" />
			<ellipse id="椭圆形" rx="3.692308" ry="3.661026" cx="24.4613514" cy="23.5423737" stroke="rgb(0,0,0)" stroke-opacity="0" stroke-width="1" />
			<ellipse id="椭圆形" rx="18.000000" ry="6.887304" cx="24" cy="24.0000973" fill="rgb(0,0,0)" fill-opacity="0" />
			<ellipse id="椭圆形" rx="18.000000" ry="6.887304" cx="24" cy="24.0000973" stroke="rgb(97,218,251)" stroke-width="0.923076928" />
			<path id="椭圆形" d="M17.8514 27.0986L18.0483 27.4437C23.0189 36.0712 29.7131 41.5234 33.0003 39.6215C36.2436 37.745 34.9583 29.4103 30.1491 20.9014L29.9522 20.5563C24.9816 11.9288 18.2874 6.4766 15.0002 8.37845C11.7569 10.255 13.0422 18.5897 17.8514 27.0986Z" fill="rgb(0,0,0)" fill-opacity="0" fill-rule="evenodd" />
			<path id="椭圆形" d="M18.0483 27.4437C23.0189 36.0712 29.7131 41.5234 33.0003 39.6215C36.2436 37.745 34.9583 29.4103 30.1491 20.9014L29.9522 20.5563C24.9816 11.9288 18.2874 6.4766 15.0002 8.37845C11.7569 10.255 13.0422 18.5897 17.8514 27.0986L18.0483 27.4437Z" fill-rule="evenodd" stroke="rgb(97,218,251)" stroke-width="0.923076928" />
			<path id="椭圆形" d="M18.2454 20.2174L18.0483 20.5563C13.0777 29.1839 11.7131 37.7196 15.0002 39.6215C18.2442 41.4984 24.8061 36.2134 29.7551 27.7826L29.9522 27.4437C34.9228 18.8161 36.2874 10.2804 33.0003 8.37845C29.7563 6.50163 23.1944 11.7866 18.2454 20.2174Z" fill="rgb(0,0,0)" fill-opacity="0" fill-rule="evenodd" />
			<path id="椭圆形" d="M18.0483 20.5563C13.0777 29.1839 11.7131 37.7196 15.0002 39.6215C18.2442 41.4984 24.8061 36.2134 29.7551 27.7826L29.9522 27.4437C34.9228 18.8161 36.2874 10.2804 33.0003 8.37845C29.7563 6.50163 23.1944 11.7866 18.2454 20.2174L18.0483 20.5563Z" fill-rule="evenodd" stroke="rgb(97,218,251)" stroke-width="0.923076928" />
		</g>
	</g>
</svg>
