<svg viewBox="0 0 48 48" xmlns="http://www.w3.org/2000/svg" xmlns:xlink="http://www.w3.org/1999/xlink" width="48.000000" height="48.000000" fill="none">
	<rect id="语言图标/C#48" width="48.000000" height="48.000000" x="0.000000" y="0.000000" />
	<g id="模型/C#48">
		<g id="编组">
			<path id="多边形" d="M26.0382 6.42443L38.5179 13.8693C39.4366 14.4173 40 15.4134 40 16.4894L40 31.5106C40 32.5866 39.4366 33.5827 38.5179 34.1307L26.0382 41.5756C25.0896 42.1415 23.9104 42.1415 22.9618 41.5756L10.4821 34.1307C9.56345 33.5827 9 32.5866 9 31.5106L9 16.4894C9 15.4134 9.56345 14.4173 10.4821 13.8693L22.9618 6.42443C23.9104 5.85852 25.0896 5.85852 26.0382 6.42443Z" fill="rgb(160,115,217)" fill-rule="evenodd" />
			<path id="多边形" d="M38.5179 13.8693C39.4366 14.4173 40 15.4134 40 16.4894L40 31.5106C40 32.5866 39.4366 33.5827 38.5179 34.1307L26.0382 41.5756C25.0896 42.1415 23.9104 42.1415 22.9618 41.5756L10.4821 34.1307C9.56345 33.5827 9 32.5866 9 31.5106L9 16.4894C9 15.4134 9.56345 14.4173 10.4821 13.8693L22.9618 6.42443C23.9104 5.85852 25.0896 5.85852 26.0382 6.42443L38.5179 13.8693Z" fill-rule="evenodd" stroke="rgb(0,0,0)" stroke-opacity="0" stroke-width="1" />
			<path id="路径" d="M39.9265 15.8225C39.9747 16.039 39.9998 16.2624 39.9998 16.4895L39.9998 31.5106C39.9998 32.5866 39.4363 33.5827 38.5177 34.1308L28.8466 39.9001L25.6225 41.6622C25.3074 41.8344 24.9698 41.946 24.6258 41.9974C24.0522 42.0215 23.4734 41.8809 22.9616 41.5756L10.4819 34.1308C10.1224 33.9163 9.81732 33.6333 9.5791 33.3037L39.9265 15.8225Z" fill="rgb(41,0,104)" fill-rule="evenodd" />
			<path id="路径" d="M39.9998 16.4895L39.9998 31.5106C39.9998 32.5866 39.4363 33.5827 38.5177 34.1308L28.8466 39.9001L25.6225 41.6622C25.3074 41.8344 24.9698 41.946 24.6258 41.9974C24.0522 42.0215 23.4734 41.8809 22.9616 41.5756L10.4819 34.1308C10.1224 33.9163 9.81732 33.6333 9.5791 33.3037L39.9265 15.8225C39.9747 16.039 39.9998 16.2624 39.9998 16.4895Z" fill-rule="evenodd" stroke="rgb(0,0,0)" stroke-opacity="0" stroke-width="1" />
			<path id="路径" d="M39.9268 15.8237C39.9748 16.0398 39.9998 16.2628 39.9998 16.4894L39.9998 31.5105C39.9998 31.8824 39.9324 32.2448 39.8064 32.5824L24.6738 24.6423L39.9268 15.8237Z" fill="rgb(61,0,146)" fill-rule="evenodd" />
			<path id="路径" d="M39.9998 16.4894L39.9998 31.5105C39.9998 31.8824 39.9324 32.2448 39.8064 32.5824L24.6738 24.6423L39.9268 15.8237C39.9748 16.0398 39.9998 16.2628 39.9998 16.4894Z" fill-rule="evenodd" stroke="rgb(0,0,0)" stroke-opacity="0" stroke-width="1" />
			<path id="形状" d="M31.5581 24.1279L31.6623 23.0893L31.1178 23.2049L30.968 22.501L31.7378 22.3375L31.8737 20.9834L32.6791 20.9834L32.5607 22.1626L33.3837 21.9878L33.4845 20.9834L34.2899 20.9834L34.2066 21.813L34.6854 21.7113L34.8351 22.4152L34.1312 22.5648L34.0262 23.6109L34.4648 23.519L34.6088 24.1961L33.9537 24.3334L33.7928 25.936L32.9874 25.936L33.131 24.5057L32.3083 24.6781L32.182 25.936L31.3766 25.936L31.4856 24.8504L30.8911 24.9749L30.7471 24.2978L31.5581 24.1279ZM32.3808 23.9556L33.2035 23.7832L33.3082 22.7396L32.4853 22.9144L32.3808 23.9556Z" fill="rgb(255,255,255)" fill-rule="evenodd" />
			<path id="形状" d="M31.6623 23.0893L31.1178 23.2049L30.968 22.501L31.7378 22.3375L31.8737 20.9834L32.6791 20.9834L32.5607 22.1626L33.3837 21.9878L33.4845 20.9834L34.2899 20.9834L34.2066 21.813L34.6854 21.7113L34.8351 22.4152L34.1312 22.5648L34.0262 23.6109L34.4648 23.519L34.6088 24.1961L33.9537 24.3334L33.7928 25.936L32.9874 25.936L33.131 24.5057L32.3083 24.6781L32.182 25.936L31.3766 25.936L31.4856 24.8504L30.8911 24.9749L30.7471 24.2978L31.5581 24.1279L31.6623 23.0893ZM33.2035 23.7832L33.3082 22.7396L32.4853 22.9144L32.3808 23.9556L33.2035 23.7832Z" fill-rule="evenodd" stroke="rgb(0,0,0)" stroke-opacity="0" stroke-width="1" />
			<path id="路径" d="M32.1104 18.882L28.0961 21.2526C27.3469 19.8339 25.8822 18.8703 24.198 18.8703C21.7515 18.8703 19.7683 20.9035 19.7683 23.4114C19.7683 25.9194 21.7515 27.9526 24.198 27.9526C25.8413 27.9526 27.2756 27.0353 28.0402 25.6729L31.9891 28.1563C30.4089 30.8771 27.5111 32.7001 24.198 32.7001C19.1939 32.7001 15.1372 28.5414 15.1372 23.4114C15.1372 18.2815 19.1939 14.1228 24.198 14.1228C27.5978 14.1228 30.5603 16.0424 32.1104 18.882Z" fill="rgb(255,255,255)" fill-rule="evenodd" />
			<path id="路径" d="M28.0961 21.2526C27.3469 19.8339 25.8822 18.8703 24.198 18.8703C21.7515 18.8703 19.7683 20.9035 19.7683 23.4114C19.7683 25.9194 21.7515 27.9526 24.198 27.9526C25.8413 27.9526 27.2756 27.0353 28.0402 25.6729L31.9891 28.1563C30.4089 30.8771 27.5111 32.7001 24.198 32.7001C19.1939 32.7001 15.1372 28.5414 15.1372 23.4114C15.1372 18.2815 19.1939 14.1228 24.198 14.1228C27.5978 14.1228 30.5603 16.0424 32.1104 18.882L28.0961 21.2526Z" fill-rule="evenodd" stroke="rgb(0,0,0)" stroke-opacity="0" stroke-width="1" />
		</g>
	</g>
</svg>
