<svg viewBox="0 0 48 48" xmlns="http://www.w3.org/2000/svg" xmlns:xlink="http://www.w3.org/1999/xlink" width="48.000000" height="48.000000" fill="none">
	<rect id="语言图标/C++" width="48.000000" height="48.000000" x="0.000000" y="0.000000" />
	<g id="模型/C++">
		<g id="头像/C#40x40">
			<g id="编组">
				<path id="多边形" d="M25.5382 6.42443L38.0179 13.8693C38.9366 14.4173 39.5 15.4134 39.5 16.4894L39.5 31.5106C39.5 32.5866 38.9366 33.5827 38.0179 34.1307L25.5382 41.5756C24.5896 42.1415 23.4104 42.1415 22.4618 41.5756L9.98208 34.1307C9.06345 33.5827 8.5 32.5866 8.5 31.5106L8.5 16.4894C8.5 15.4134 9.06345 14.4173 9.98208 13.8693L22.4618 6.42443C23.4104 5.85852 24.5896 5.85852 25.5382 6.42443Z" fill="rgb(103,154,212)" fill-rule="evenodd" />
				<path id="多边形" d="M38.0179 13.8693C38.9366 14.4173 39.5 15.4134 39.5 16.4894L39.5 31.5106C39.5 32.5866 38.9366 33.5827 38.0179 34.1307L25.5382 41.5756C24.5896 42.1415 23.4104 42.1415 22.4618 41.5756L9.98208 34.1307C9.06345 33.5827 8.5 32.5866 8.5 31.5106L8.5 16.4894C8.5 15.4134 9.06345 14.4173 9.98208 13.8693L22.4618 6.42443C23.4104 5.85852 24.5896 5.85852 25.5382 6.42443L38.0179 13.8693Z" fill-rule="evenodd" stroke="rgb(0,0,0)" stroke-opacity="0" stroke-width="1" />
				<path id="路径" d="M39.4265 15.8225C39.4747 16.039 39.4998 16.2624 39.4998 16.4895L39.4998 31.5106C39.4998 32.5866 38.9363 33.5827 38.0177 34.1308L28.3466 39.9001L25.1225 41.6622C24.8074 41.8344 24.4698 41.946 24.1258 41.9974C23.5522 42.0215 22.9734 41.8809 22.4616 41.5756L9.98186 34.1308C9.6224 33.9163 9.31732 33.6333 9.0791 33.3037L39.4265 15.8225Z" fill="rgb(0,68,131)" fill-rule="evenodd" />
				<path id="路径" d="M39.4998 16.4895L39.4998 31.5106C39.4998 32.5866 38.9363 33.5827 38.0177 34.1308L28.3466 39.9001L25.1225 41.6622C24.8074 41.8344 24.4698 41.946 24.1258 41.9974C23.5522 42.0215 22.9734 41.8809 22.4616 41.5756L9.98186 34.1308C9.6224 33.9163 9.31732 33.6333 9.0791 33.3037L39.4265 15.8225C39.4747 16.039 39.4998 16.2624 39.4998 16.4895Z" fill-rule="evenodd" stroke="rgb(0,0,0)" stroke-opacity="0" stroke-width="1" />
				<path id="路径" d="M39.4268 15.8237C39.4748 16.0398 39.4998 16.2628 39.4998 16.4894L39.4998 31.5105C39.4998 31.8824 39.4324 32.2448 39.3064 32.5824L24.1738 24.6423L39.4268 15.8237Z" fill="rgb(3,90,157)" fill-rule="evenodd" />
				<path id="路径" d="M39.4998 16.4894L39.4998 31.5105C39.4998 31.8824 39.4324 32.2448 39.3064 32.5824L24.1738 24.6423L39.4268 15.8237C39.4748 16.0398 39.4998 16.2628 39.4998 16.4894Z" fill-rule="evenodd" stroke="rgb(0,0,0)" stroke-opacity="0" stroke-width="1" />
				<path id="路径" d="M31.6104 18.882L27.5961 21.2526C26.8469 19.8339 25.3822 18.8703 23.698 18.8703C21.2515 18.8703 19.2683 20.9035 19.2683 23.4114C19.2683 25.9194 21.2515 27.9526 23.698 27.9526C25.3413 27.9526 26.7756 27.0353 27.5402 25.6729L31.4891 28.1563C29.9089 30.8771 27.0111 32.7001 23.698 32.7001C18.6939 32.7001 14.6372 28.5414 14.6372 23.4114C14.6372 18.2815 18.6939 14.1228 23.698 14.1228C27.0978 14.1228 30.0603 16.0424 31.6104 18.882Z" fill="rgb(255,255,255)" fill-rule="evenodd" />
				<path id="路径" d="M27.5961 21.2526C26.8469 19.8339 25.3822 18.8703 23.698 18.8703C21.2515 18.8703 19.2683 20.9035 19.2683 23.4114C19.2683 25.9194 21.2515 27.9526 23.698 27.9526C25.3413 27.9526 26.7756 27.0353 27.5402 25.6729L31.4891 28.1563C29.9089 30.8771 27.0111 32.7001 23.698 32.7001C18.6939 32.7001 14.6372 28.5414 14.6372 23.4114C14.6372 18.2815 18.6939 14.1228 23.698 14.1228C27.0978 14.1228 30.0603 16.0424 31.6104 18.882L27.5961 21.2526Z" fill-rule="evenodd" stroke="rgb(0,0,0)" stroke-opacity="0" stroke-width="1" />
				<path id="形状结合" d="M30.9889 21.8303L30.988 23.0803L32.25 23.0803L32.25 24.3303L30.988 24.3303L30.9889 25.5803L29.7389 25.5803L29.738 24.3303L28.5 24.3303L28.5 23.0803L29.738 23.0803L29.7389 21.8303L30.9889 21.8303Z" fill="rgb(255,255,255)" fill-rule="evenodd" />
				<path id="形状结合" d="M30.988 23.0803L32.25 23.0803L32.25 24.3303L30.988 24.3303L30.9889 25.5803L29.7389 25.5803L29.738 24.3303L28.5 24.3303L28.5 23.0803L29.738 23.0803L29.7389 21.8303L30.9889 21.8303L30.988 23.0803Z" fill-rule="evenodd" stroke="rgb(0,0,0)" stroke-opacity="0" stroke-width="1" />
				<path id="形状结合备份" d="M35.9889 21.8303L35.988 23.0803L37.25 23.0803L37.25 24.3303L35.988 24.3303L35.9889 25.5803L34.7389 25.5803L34.738 24.3303L33.5 24.3303L33.5 23.0803L34.738 23.0803L34.7389 21.8303L35.9889 21.8303Z" fill="rgb(255,255,255)" fill-rule="evenodd" />
				<path id="形状结合备份" d="M35.988 23.0803L37.25 23.0803L37.25 24.3303L35.988 24.3303L35.9889 25.5803L34.7389 25.5803L34.738 24.3303L33.5 24.3303L33.5 23.0803L34.738 23.0803L34.7389 21.8303L35.9889 21.8303L35.988 23.0803Z" fill-rule="evenodd" stroke="rgb(0,0,0)" stroke-opacity="0" stroke-width="1" />
			</g>
		</g>
	</g>
</svg>
