<svg viewBox="0 0 48 48" xmlns="http://www.w3.org/2000/svg" xmlns:xlink="http://www.w3.org/1999/xlink" width="48.000000" height="48.000000" fill="none">
	<rect id="语言图标/File" width="48.000000" height="48.000000" x="0.000000" y="0.000000" />
	<g id="File">
		<g id="编组">
			<path id="路径" d="M36.9863 32.0042L10.7651 32.0042L10.7651 10.8103L12.6382 10.8103L12.6382 8L23.8794 8L25.7531 12.3103L36.9863 12.3103L36.9863 32.0042Z" fill="rgb(246,187,66)" fill-rule="nonzero" />
			<path id="路径" d="M10.7651 32.0042L10.7651 10.8103L12.6382 10.8103L12.6382 8L23.8794 8L25.7531 12.3103L36.9863 12.3103L36.9863 32.0042L10.7651 32.0042Z" fill-rule="nonzero" stroke="rgb(0,0,0)" stroke-opacity="0" stroke-width="1" />
			<path id="路径备份-31" d="M38.8596 34.1395L8.8916 34.1395L8.8916 12.9456L10.7653 12.9456L10.7653 10.1353L22.0065 10.1353L23.8796 14.4456L38.8596 14.4456L38.8596 34.1395Z" fill="rgb(255,206,84)" fill-rule="nonzero" />
			<path id="路径备份-31" d="M8.8916 34.1395L8.8916 12.9456L10.7653 12.9456L10.7653 10.1353L22.0065 10.1353L23.8796 14.4456L38.8596 14.4456L38.8596 34.1395L8.8916 34.1395Z" fill-rule="nonzero" stroke="rgb(0,0,0)" stroke-opacity="0" stroke-width="1" />
			<path id="路径备份-32" d="M38.8594 34.1395L29.8861 34.1395L23.8794 14.4456L38.8594 14.4456L38.8594 34.1395Z" fill="rgb(255,225,151)" fill-rule="nonzero" />
			<path id="路径备份-32" d="M29.8861 34.1395L23.8794 14.4456L38.8594 14.4456L38.8594 34.1395L29.8861 34.1395Z" fill-rule="nonzero" stroke="rgb(0,0,0)" stroke-opacity="0" stroke-width="1" />
			<g id="编组-22">
				<g id="F">
					<path id="path-1" d="M16.1169 31.2346L16.1169 24.5426L21.8423 24.5426L21.8423 22.5433L16.1169 22.5433L16.1169 18.3686L22.2437 18.3686L22.4761 16.2346L13.4761 16.2346L13.4761 31.2346L16.1169 31.2346Z" fill="rgb(255,255,255)" fill-rule="nonzero" />
					<path id="path-1" d="M16.1169 24.5426L21.8423 24.5426L21.8423 22.5433L16.1169 22.5433L16.1169 18.3686L22.2437 18.3686L22.4761 16.2346L13.4761 16.2346L13.4761 31.2346L16.1169 31.2346L16.1169 24.5426Z" fill-rule="nonzero" stroke="rgb(0,0,0)" stroke-opacity="0" stroke-width="1" />
				</g>
			</g>
			<path id="路径备份-29" d="M7.01758 32.0442L8.89141 26.4646L8.89141 36.7692L7.01758 36.7692L7.01758 32.0442Z" fill="rgb(71,77,85)" fill-rule="nonzero" />
			<path id="路径备份-29" d="M8.89141 26.4646L8.89141 36.7692L7.01758 36.7692L7.01758 32.0442L8.89141 26.4646Z" fill-rule="nonzero" stroke="rgb(0,0,0)" stroke-opacity="0" stroke-width="1" />
			<path id="路径备份-30" d="M0 5.57961L1.87383 0L1.87383 10.3046L0 10.3046L0 5.57961Z" fill="rgb(71,77,85)" fill-rule="nonzero" transform="matrix(-1,0,0,1,40.7334,26.022)" />
			<path id="路径备份-30" d="M1.87383 0L1.87383 10.3046L0 10.3046L0 5.57961L1.87383 0Z" fill-rule="nonzero" stroke="rgb(0,0,0)" stroke-opacity="0" stroke-width="1" transform="matrix(-1,0,0,1,40.7334,26.022)" />
			<path id="路径" d="M7 31.9846L40.7148 31.9846L40.7148 39.6346L7 39.6346L7 31.9846Z" fill="rgb(101,109,120)" fill-rule="nonzero" />
			<path id="路径" d="M40.7148 31.9846L40.7148 39.6346L7 39.6346L7 31.9846L40.7148 31.9846Z" fill-rule="nonzero" stroke="rgb(0,0,0)" stroke-opacity="0" stroke-width="1" />
			<rect id="矩形" width="14.250000" height="1.500000" x="16.750000" y="35.734619" rx="0.750000" fill="rgb(216,216,216)" />
			<rect id="矩形" width="14.250000" height="1.500000" x="16.750000" y="35.734619" rx="0.750000" stroke="rgb(0,0,0)" stroke-opacity="0" stroke-width="1" />
		</g>
	</g>
</svg>
