<svg viewBox="0 0 48 48" xmlns="http://www.w3.org/2000/svg" xmlns:xlink="http://www.w3.org/1999/xlink" width="48.000000" height="48.000000" fill="none">
	<defs>
		<radialGradient id="paint_radial_11" cx="0" cy="0" r="1" gradientUnits="userSpaceOnUse" gradientTransform="matrix(0,-9.04816,4.41989,0,3.00273,8.36945)">
			<stop stop-color="rgb(213,39,39)" offset="0" stop-opacity="1" />
			<stop stop-color="rgb(183,30,36)" offset="1" stop-opacity="0.776470602" />
		</radialGradient>
		<radialGradient id="paint_radial_12" cx="0" cy="0" r="1" gradientUnits="userSpaceOnUse" gradientTransform="matrix(0,-3.54484,3.54135,0,4.11187,4.12475)">
			<stop stop-color="rgb(113,187,46)" offset="0" stop-opacity="0.709803939" />
			<stop stop-color="rgb(41,78,35)" offset="1" stop-opacity="0.733333349" />
		</radialGradient>
		<linearGradient id="paint_linear_70" x1="7.0880928" x2="1.97925806" y1="0.650066853" y2="5.99713945" gradientUnits="userSpaceOnUse">
			<stop stop-color="rgb(244,72,28)" offset="0" stop-opacity="0.650980413" />
			<stop stop-color="rgb(226,101,28)" offset="1" stop-opacity="1" />
		</linearGradient>
		<radialGradient id="paint_radial_13" cx="0" cy="0" r="1" gradientUnits="userSpaceOnUse" gradientTransform="matrix(0,-2.65521,2.60807,0,3.84268,1.76529)">
			<stop stop-color="rgb(237,116,16)" offset="0" stop-opacity="0.670588255" />
			<stop stop-color="rgb(175,50,27)" offset="1" stop-opacity="0.674509823" />
		</radialGradient>
		<linearGradient id="paint_linear_71" x1="2.34422493" x2="7.32350874" y1="2.59103322" y2="7.83195782" gradientUnits="userSpaceOnUse">
			<stop stop-color="rgb(175,214,26)" offset="0" stop-opacity="1" />
			<stop stop-color="rgb(54,106,39)" offset="1" stop-opacity="0.819607854" />
		</linearGradient>
		<linearGradient id="paint_linear_72" x1="3.1720531" x2="6.96644115" y1="3.27998376" y2="7.45322132" gradientUnits="userSpaceOnUse">
			<stop stop-color="rgb(41,78,35)" offset="0" stop-opacity="0.835294127" />
			<stop stop-color="rgb(0,0,0)" offset="1" stop-opacity="0" />
		</linearGradient>
		<linearGradient id="paint_linear_73" x1="8.36829567" x2="8.53166008" y1="3.1125803" y2="4.64051247" gradientUnits="userSpaceOnUse">
			<stop stop-color="rgb(77,144,51)" offset="0" stop-opacity="1" />
			<stop stop-color="rgb(175,214,25)" offset="1" stop-opacity="0.788235307" />
		</linearGradient>
		<linearGradient id="paint_linear_74" x1="8.33377552" x2="8.33377552" y1="7.53344536" y2="2.31872463" gradientUnits="userSpaceOnUse">
			<stop stop-color="rgb(59,130,201)" offset="0" stop-opacity="0.988235295" />
			<stop stop-color="rgb(103,196,226)" offset="1" stop-opacity="1" />
		</linearGradient>
		<linearGradient id="paint_linear_75" x1="4.86647224" x2="3.06771016" y1="8.00381088" y2="7.94765568" gradientUnits="userSpaceOnUse">
			<stop stop-color="rgb(247,142,24)" offset="0" stop-opacity="1" />
			<stop stop-color="rgb(218,85,30)" offset="1" stop-opacity="1" />
		</linearGradient>
		<linearGradient id="paint_linear_76" x1="1.14598012" x2="4.72227764" y1="0.798633516" y2="4.51152134" gradientUnits="userSpaceOnUse">
			<stop stop-color="rgb(70,152,217)" offset="0" stop-opacity="0.717647076" />
			<stop stop-color="rgb(38,39,95)" offset="1" stop-opacity="1" />
		</linearGradient>
		<radialGradient id="paint_radial_14" cx="0" cy="0" r="1" gradientUnits="userSpaceOnUse" gradientTransform="matrix(0,-3.45507,3.39362,0,1.42323,1.38775)">
			<stop stop-color="rgb(82,180,232)" offset="0" stop-opacity="0.709803939" />
			<stop stop-color="rgb(41,58,127)" offset="1" stop-opacity="0.709803939" />
		</radialGradient>
		<linearGradient id="paint_linear_77" x1="1.02913392" x2="5.18502951" y1="7.06439018" y2="2.75030184" gradientUnits="userSpaceOnUse">
			<stop stop-color="rgb(227,33,37)" offset="0" stop-opacity="1" />
			<stop stop-color="rgb(170,0,0)" offset="1" stop-opacity="1" />
		</linearGradient>
		<linearGradient id="paint_linear_78" x1="1.42344439" x2="5.64256859" y1="4.45088577" y2="4.76837158e-07" gradientUnits="userSpaceOnUse">
			<stop stop-color="rgb(238,45,36)" offset="0" stop-opacity="1" />
			<stop stop-color="rgb(58,20,20)" offset="1" stop-opacity="0.701960802" />
		</linearGradient>
		<radialGradient id="paint_radial_15" cx="0" cy="0" r="1" gradientUnits="userSpaceOnUse" gradientTransform="matrix(0,-7.04164,4.42335,0,5.71393,5.72107)">
			<stop stop-color="rgb(238,46,41)" offset="0" stop-opacity="1" />
			<stop stop-color="rgb(174,29,35)" offset="1" stop-opacity="1" />
		</radialGradient>
		<radialGradient id="paint_radial_16" cx="0" cy="0" r="1" gradientUnits="userSpaceOnUse" gradientTransform="matrix(0,-7.03515,11.1978,0,6.09981,1.69944)">
			<stop stop-color="rgb(157,202,31)" offset="0" stop-opacity="1" />
			<stop stop-color="rgb(76,137,49)" offset="1" stop-opacity="1" />
		</radialGradient>
		<radialGradient id="paint_radial_17" cx="0" cy="0" r="1" gradientUnits="userSpaceOnUse" gradientTransform="matrix(0,-9.90257,6.22174,0,1.28918,6.03701)">
			<stop stop-color="rgb(247,147,18)" offset="0" stop-opacity="1" />
			<stop stop-color="rgb(190,81,30)" offset="1" stop-opacity="1" />
		</radialGradient>
		<linearGradient id="paint_linear_79" x1="5.75672817" x2="5.80322075" y1="4.5275507" y2="1.36269569" gradientUnits="userSpaceOnUse">
			<stop stop-color="rgb(90,189,230)" offset="0" stop-opacity="1" />
			<stop stop-color="rgb(38,53,113)" offset="1" stop-opacity="1" />
		</linearGradient>
		<linearGradient id="paint_linear_80" x1="0.650416732" x2="0.758315563" y1="2.11759424" y2="2.08113337" gradientUnits="userSpaceOnUse">
			<stop stop-color="rgb(255,255,255)" offset="0" stop-opacity="1" />
			<stop stop-color="rgb(245,145,20)" offset="1" stop-opacity="1" />
		</linearGradient>
		<linearGradient id="paint_linear_81" x1="0.831147552" x2="0.627950907" y1="2.1729362" y2="1.98692191" gradientUnits="userSpaceOnUse">
			<stop stop-color="rgb(253,233,236)" offset="0" stop-opacity="1" />
			<stop stop-color="rgb(238,43,39)" offset="1" stop-opacity="1" />
		</linearGradient>
		<linearGradient id="paint_linear_82" x1="2.10199118" x2="2.11451435" y1="0.652443469" y2="0.822446883" gradientUnits="userSpaceOnUse">
			<stop stop-color="rgb(248,251,229)" offset="0" stop-opacity="1" />
			<stop stop-color="rgb(152,199,33)" offset="1" stop-opacity="1" />
		</linearGradient>
		<radialGradient id="paint_radial_18" cx="0" cy="0" r="1" gradientUnits="userSpaceOnUse" gradientTransform="matrix(0,-1.29766,3.74256,0,2.20109,1.50904)">
			<stop stop-color="rgb(194,235,246)" offset="0" stop-opacity="1" />
			<stop stop-color="rgb(105,199,224)" offset="1" stop-opacity="1" />
		</radialGradient>
	</defs>
	<rect id="语言图标/Flex" width="48.000000" height="48.000000" x="0.000000" y="0.000000" />
	<g id="模型/Flex">
		<g id="Apache_Flex_logo">
			<g id="g6591">
				<path id="path45-7" d="M0.345448 0C-1.21971 3.05684 2.99918 4.45928 3.7298 7.34606C3.88621 7.9652 3.88831 8.73403 3.73904 9.35505C3.03529 12.2691 -1.22622 13.6695 0.346287 16.7389C-0.0614319 15.8084 0.153975 15.0526 0.722513 14.3938C2.01621 12.8962 5.13519 11.8975 6.90085 10.4888C7.66044 9.88286 8.16977 9.20095 8.17649 8.3704C8.16977 7.53963 7.66044 6.85731 6.90085 6.25203C5.42282 5.07296 2.99792 4.18215 1.4884 3.04403C0.406332 2.22607 -0.212173 1.27207 0.345448 0ZM0.540909 2.47198C0.827696 2.80895 1.18062 3.09763 1.52724 3.34411C2.31895 3.90719 3.22194 4.36361 4.0823 4.8129C5.26179 5.42868 7.47505 6.49437 7.88025 7.86764C7.92875 8.03165 7.9529 8.20019 7.9529 8.37151C7.9529 8.5426 7.92875 8.72481 7.88025 8.88899C7.80194 9.15394 7.65624 9.40756 7.46372 9.64837C7.42173 9.70111 7.37722 9.75326 7.33082 9.80476C7.08224 10.0808 6.7753 10.3393 6.44295 10.579C4.67372 11.8667 1.81676 12.7726 0.538179 14.2758C0.993765 13.4165 1.86127 12.6002 2.45017 11.937C2.94145 11.384 3.41089 10.7903 3.71511 10.1111C3.81693 9.88454 3.89881 9.64982 3.95717 9.40859C4.03485 9.08569 4.0739 8.72878 4.0739 8.37124C4.07411 7.99963 4.03192 7.6276 3.9471 7.29253C3.70377 6.33055 3.09807 5.53401 2.45017 4.80465C1.86253 4.14352 0.997124 3.32941 0.540909 2.47198Z" fill="url(#paint_radial_11)" fill-rule="nonzero" transform="matrix(1,0,0,-1,26.3794,32.0554)" />
				<path id="path45-7" d="M3.7298 7.34606C3.88621 7.9652 3.88831 8.73403 3.73904 9.35505C3.03529 12.2691 -1.22622 13.6695 0.346287 16.7389C-0.0614319 15.8084 0.153975 15.0526 0.722513 14.3938C2.01621 12.8962 5.13519 11.8975 6.90085 10.4888C7.66044 9.88286 8.16977 9.20095 8.17649 8.3704C8.16977 7.53963 7.66044 6.85731 6.90085 6.25203C5.42282 5.07296 2.99792 4.18215 1.4884 3.04403C0.406332 2.22607 -0.212173 1.27207 0.345448 0C-1.21971 3.05684 2.99918 4.45928 3.7298 7.34606ZM1.52724 3.34411C2.31895 3.90719 3.22194 4.36361 4.0823 4.8129C5.26179 5.42868 7.47505 6.49437 7.88025 7.86764C7.92875 8.03165 7.9529 8.20019 7.9529 8.37151C7.9529 8.5426 7.92875 8.72481 7.88025 8.88899C7.80194 9.15394 7.65624 9.40756 7.46372 9.64837C7.42173 9.70111 7.37722 9.75326 7.33082 9.80476C7.08224 10.0808 6.7753 10.3393 6.44295 10.579C4.67372 11.8667 1.81676 12.7726 0.538179 14.2758C0.993765 13.4165 1.86127 12.6002 2.45017 11.937C2.94145 11.384 3.41089 10.7903 3.71511 10.1111C3.81693 9.88454 3.89881 9.64982 3.95717 9.40859C4.03485 9.08569 4.0739 8.72878 4.0739 8.37124C4.07411 7.99963 4.03192 7.6276 3.9471 7.29253C3.70377 6.33055 3.09807 5.53401 2.45017 4.80465C1.86253 4.14352 0.997124 3.32941 0.540909 2.47198C0.827696 2.80895 1.18062 3.09763 1.52724 3.34411Z" fill-rule="nonzero" stroke="rgb(239,56,33)" stroke-width="0.5" transform="matrix(1,0,0,-1,26.3794,32.0554)" />
				<path id="path42" d="M1.82213 0.000419617C2.03544 0.168798 2.24644 0.340116 2.45303 0.517101C2.98335 1.04722 3.01799 1.94055 2.48767 2.47045C2.22229 2.73583 1.84817 2.89497 1.49965 2.89497C1.15198 2.89497 0.80473 2.76207 0.541245 2.49544C0.36636 2.2941 0.166069 2.05518 0 1.84628C0.0258217 1.89604 0.0516472 1.94537 0.0770493 1.99471C0.51878 2.83954 0.969116 3.73329 1.52296 4.50988C1.91493 5.06015 2.45974 5.68685 3.14018 5.86635C3.24579 5.89407 3.35118 5.91023 3.45594 5.91569C3.70515 5.88378 3.94911 5.8061 4.1853 5.69755C4.50988 5.54807 4.812 5.30642 5.06351 5.0547C5.31545 4.80255 5.55731 4.50022 5.707 4.17481C5.80127 3.9699 5.87223 3.75911 5.9096 3.54412C5.91002 3.63356 5.90288 3.72258 5.88945 3.81076C5.92304 3.59325 5.91695 3.37134 5.85796 3.14774C5.67824 2.46793 5.05155 1.92249 4.50106 1.53052C3.72405 0.976886 2.83009 0.526548 1.98589 0.0852385C1.93194 0.0566864 1.87672 0.0289726 1.82213 0.000419617Z" fill="url(#paint_radial_12)" fill-rule="nonzero" transform="matrix(1,0,0,-1,40.3828,19.8086)" />
				<path id="path42" d="M2.45303 0.517101C2.98335 1.04722 3.01799 1.94055 2.48767 2.47045C2.22229 2.73583 1.84817 2.89497 1.49965 2.89497C1.15198 2.89497 0.80473 2.76207 0.541245 2.49544C0.36636 2.2941 0.166069 2.05518 0 1.84628C0.0258217 1.89604 0.0516472 1.94537 0.0770493 1.99471C0.51878 2.83954 0.969116 3.73329 1.52296 4.50988C1.91493 5.06015 2.45974 5.68685 3.14018 5.86635C3.24579 5.89407 3.35118 5.91023 3.45594 5.91569C3.70515 5.88378 3.94911 5.8061 4.1853 5.69755C4.50988 5.54807 4.812 5.30642 5.06351 5.0547C5.31545 4.80255 5.55731 4.50022 5.707 4.17481C5.80127 3.9699 5.87223 3.75911 5.9096 3.54412C5.91002 3.63356 5.90288 3.72258 5.88945 3.81076C5.92304 3.59325 5.91695 3.37134 5.85796 3.14774C5.67824 2.46793 5.05155 1.92249 4.50106 1.53052C3.72405 0.976886 2.83009 0.526548 1.98589 0.0852385C1.93194 0.0566864 1.87672 0.0289726 1.82213 0.000419617C2.03544 0.168798 2.24644 0.340116 2.45303 0.517101Z" fill-rule="nonzero" stroke="rgb(0,0,0)" stroke-opacity="0" stroke-width="1" transform="matrix(1,0,0,-1,40.3828,19.8086)" />
				<path id="path139" d="M1.04466 0.754972C0.980289 0.738595 0.912875 0.730618 0.842248 0.730618C0.717183 0.730618 0.608577 0.750352 0.51725 0.790872C0.425398 0.830342 0.347066 0.884719 0.282948 0.952951C0.217907 1.02118 0.165839 1.09886 0.125655 1.1862C0.0862904 1.27333 0.0563517 1.36508 0.03584 1.46123C0.016819 1.55151 0.00468349 1.64977 0.00124073 1.75705C-0.00287437 1.86328 0.00321388 1.96952 0.02001 2.07596C0.0370789 2.18156 0.0657787 2.2836 0.105963 2.38185C0.146147 2.48011 0.200523 2.56745 0.270393 2.64303C0.339277 2.71924 0.424327 2.77949 0.525479 2.82484C0.626989 2.86956 0.746554 2.89245 0.886169 2.89245C0.940546 2.89245 0.993453 2.88804 1.0447 2.87922L1.0447 2.43203C0.97884 2.43203 0.89652 2.41776 0.847056 2.3892C0.798663 2.36044 0.758479 2.32244 0.726085 2.27457C0.693857 2.22628 0.668685 2.17065 0.649979 2.10808C0.631209 2.04531 0.618088 1.97917 0.611432 1.91094C0.605134 1.84355 0.603643 1.77448 0.607989 1.70498C0.613091 1.63591 0.621111 1.57125 0.633666 1.51267C0.64284 1.46921 0.655312 1.42869 0.670742 1.39006C0.685502 1.35122 0.706664 1.31679 0.731417 1.28656C0.766521 1.26871 0.899144 1.1883 0.947264 1.1883L1.04466 0.754972ZM3.47165 2.86704L3.47165 2.42195C3.43638 2.4123 3.40195 2.3976 3.36857 2.37745C3.30533 2.33944 3.24965 2.2878 3.20086 2.22271C3.15222 2.15742 3.11203 2.08184 3.08226 1.99513C3.05151 1.90884 3.037 1.81563 3.03782 1.71653L3.03412 1.4247C3.10548 1.34534 3.17913 1.28656 3.25415 1.24709C3.32139 1.2114 3.39372 1.1925 3.47165 1.18893L3.47165 0.743844C3.41383 0.755391 3.33905 0.775336 3.28902 0.795911C3.23792 0.816485 3.19102 0.84063 3.1473 0.869392C3.10368 0.897105 3.06448 0.926498 3.02978 0.957991L3.02814 0.0923767C3.00574 0.0843983 2.9125 0.0102873 2.87502 0.00587845C2.83648 0.00146961 2.78794 0 2.73012 0C2.6723 0 2.62449 0.00146961 2.58758 0.00587845C2.56503 0.0140657 2.45939 0.0417795 2.45061 0.0535364L2.45637 2.77131C2.4963 2.7839 2.62325 2.85487 2.72019 2.85487C2.76923 2.85487 2.80902 2.8534 2.84042 2.84983L2.95802 2.80868L2.97139 2.45953C2.98476 2.50635 3.01199 2.55548 3.05151 2.60713C3.09236 2.65752 3.14321 2.70454 3.20569 2.74632C3.26828 2.78873 3.39145 2.83996 3.47165 2.86704ZM2.06017 0.850917C2.01957 0.83769 1.89205 0.766519 1.79568 0.766519C1.74754 0.766519 1.70792 0.767988 1.67578 0.770927C1.65584 0.777436 1.56539 0.80032 1.55769 0.810607L1.5453 1.15849C1.53201 1.11209 1.50455 1.06359 1.46395 1.013C1.42252 0.962609 1.37127 0.916421 1.30961 0.874431C1.24759 0.832652 1.124 0.782265 1.04466 0.754972L0.947264 1.1883C0.981884 1.19754 1.11298 1.22525 1.14661 1.24499C1.21083 1.28299 1.26716 1.33443 1.31595 1.39951C1.36477 1.4648 1.40396 1.54122 1.43283 1.62793C1.4626 1.71443 1.47753 1.80681 1.479 1.9059L1.48301 2.19626C1.41093 2.27457 1.3381 2.3342 1.2634 2.37304C1.19549 2.40873 1.12257 2.42846 1.0447 2.43203L1.0447 2.87922C1.11564 2.86725 1.18283 2.84689 1.24745 2.81834C1.35857 2.76837 1.46117 2.69677 1.5567 2.60188L1.55834 2.77215C1.59909 2.78474 1.72672 2.85571 1.82226 2.85571C1.86958 2.85571 1.90935 2.85424 1.94132 2.85067C1.96142 2.84416 2.05205 2.82043 2.06066 2.80952L2.06017 0.850917ZM3.47165 0.743844L3.47165 1.18893C3.53587 1.18893 3.61828 1.20237 3.66684 1.23092C3.71456 1.25947 3.75525 1.29832 3.78764 1.34597C3.82086 1.39384 3.84685 1.44948 3.86556 1.51267C3.88433 1.57587 3.89663 1.64179 3.9036 1.71065C3.91 1.77889 3.91042 1.84859 3.90631 1.91766C3.90179 1.98736 3.89279 2.05245 3.87966 2.11396C3.86925 2.16309 3.85613 2.20718 3.83866 2.24749C3.82119 2.2878 3.80026 2.32181 3.77427 2.34973C3.7408 2.36359 3.51568 2.42195 3.47165 2.42195L3.47165 2.86704C3.53562 2.88384 3.60344 2.89245 3.67423 2.89245C3.79543 2.89245 3.90055 2.87334 3.99146 2.83513C4.08142 2.79713 4.15891 2.74569 4.22429 2.67977C4.28883 2.61364 4.34214 2.53638 4.38438 2.44715C4.42563 2.35834 4.45736 2.26302 4.47869 2.16162C4.49853 2.0684 4.51026 1.96805 4.51461 1.86097C4.5183 1.75306 4.5119 1.64683 4.49533 1.54038C4.47908 1.43478 4.45039 1.33233 4.4102 1.2347C4.37002 1.13624 4.31451 1.04974 4.2452 0.975626C4.17607 0.900885 4.09077 0.841259 3.98949 0.796751C3.88796 0.752662 3.76841 0.730618 3.63027 0.730618C3.57516 0.730618 3.5225 0.734816 3.47165 0.743844ZM5.70549 2.87901L5.70549 2.43182C5.63999 2.43182 5.55727 2.41755 5.50772 2.38899C5.45943 2.36023 5.41933 2.32223 5.387 2.27436C5.35446 2.22607 5.32948 2.17044 5.31058 2.10787C5.29211 2.0451 5.27867 1.97896 5.27237 1.91073C5.26586 1.84334 5.26439 1.77427 5.2688 1.70477C5.27384 1.6357 5.28203 1.57104 5.29442 1.51246C5.30365 1.469 5.31604 1.42848 5.33158 1.38985C5.34627 1.35101 5.36727 1.31658 5.39225 1.28635C5.42731 1.2685 5.56 1.18809 5.60808 1.18809L5.70549 0.754761C5.64125 0.738385 5.57365 0.730407 5.5031 0.730407C5.37798 0.730407 5.26922 0.750142 5.17811 0.790662C5.08615 0.830132 5.00805 0.884509 4.9438 0.952742C4.87862 1.02097 4.8267 1.09865 4.7866 1.18599C4.74723 1.27312 4.71704 1.36487 4.6968 1.46102C4.67767 1.5513 4.66539 1.64956 4.6621 1.75684C4.65775 1.86307 4.66415 1.96931 4.68097 2.07575C4.69777 2.18135 4.72663 2.28339 4.76684 2.38164C4.80686 2.4799 4.86138 2.56724 4.93133 2.64282C5.0002 2.71903 5.08522 2.77928 5.18642 2.82463C5.28782 2.86935 5.40707 2.89224 5.5469 2.89224C5.60128 2.89224 5.65406 2.88783 5.70549 2.87901ZM10.8345 0.852806C10.812 0.845458 10.7186 0.775966 10.6808 0.772186C10.643 0.768618 10.5945 0.766308 10.5351 0.766308C10.4789 0.766308 10.4318 0.768618 10.394 0.772186C10.3718 0.778694 10.267 0.804519 10.2584 0.814806L10.2515 2.00248C10.2517 2.03229 10.2492 2.0663 10.2458 2.10409C10.2427 2.14251 10.2378 2.17632 10.2313 2.20634C10.2185 2.23258 10.1738 2.3428 10.1532 2.36254C10.1259 2.37367 10.0247 2.42342 9.99031 2.42342C9.92607 2.42342 9.86266 2.40495 9.80052 2.36758C9.73858 2.33021 9.68379 2.27961 9.6355 2.21516C9.58763 2.1507 9.54795 2.07575 9.51835 1.98925C9.48749 1.90317 9.47237 1.81248 9.47279 1.71632L9.46586 0.852806C9.4434 0.845458 9.34976 0.775966 9.31113 0.772186C9.27292 0.768618 9.22505 0.766308 9.16879 0.766308C9.11105 0.766308 9.06318 0.768618 9.0256 0.772186C9.00356 0.778694 8.8967 0.804519 8.88809 0.814806L8.89355 3.6787C8.91748 3.68689 9.00797 3.76016 9.04555 3.76436C9.08313 3.76919 9.13079 3.77129 9.18852 3.77129C9.24731 3.77129 9.29497 3.76919 9.33276 3.76436C9.35501 3.75722 9.45914 3.72951 9.46796 3.71754L9.4793 2.90127C9.47804 2.86956 9.4772 2.83597 9.4751 2.79986C9.47321 2.76396 9.47027 2.7289 9.46586 2.69363C9.46187 2.65835 9.45725 2.62455 9.45222 2.5918C9.47237 2.63715 9.42408 2.64828 9.46586 2.69363C9.50806 2.74002 9.62227 2.72785 9.68085 2.76564C9.73942 2.8028 9.80535 2.83282 9.87799 2.85717C9.95084 2.88069 10.0279 2.89245 10.1089 2.89245C10.216 2.89245 10.3086 2.87838 10.3882 2.8513C10.4679 2.82421 10.5362 2.786 10.5939 2.73751C10.6506 2.68922 10.6978 2.63043 10.7327 2.56388C10.7686 2.49628 10.795 2.42216 10.812 2.34217C10.8228 2.29074 10.8305 2.23972 10.8349 2.18828C10.8393 2.13748 10.8421 2.08688 10.8412 2.03712L10.8345 0.852806ZM8.64896 2.64282C8.65589 2.60986 8.65903 2.57228 8.65987 2.53113C8.65987 2.48956 8.65693 2.44988 8.65043 2.41314C8.63468 2.38794 8.58114 2.28192 8.55616 2.28192C8.53013 2.29892 8.42599 2.34448 8.38904 2.36548C8.35251 2.38689 8.30737 2.40663 8.25531 2.42489C8.2024 2.44253 8.13815 2.45114 8.06089 2.45114C7.97985 2.45114 7.91015 2.43518 7.85326 2.40222C7.79594 2.36905 7.74891 2.32643 7.71259 2.27436C7.67543 2.22187 7.64877 2.16246 7.63176 2.0957C7.61434 2.02956 7.60258 1.96196 7.5967 1.89394C7.5904 1.8257 7.58998 1.7602 7.59502 1.69805C7.59943 1.6357 7.60678 1.58216 7.61665 1.53577C7.64121 1.42008 7.68719 1.33212 7.75626 1.27186C7.82449 1.21161 7.91855 1.18137 8.03717 1.18137C8.12556 1.18137 8.19778 1.19166 8.25615 1.21224C8.31493 1.23365 8.36406 1.25633 8.40269 1.28131C8.44237 1.30629 8.47617 1.32897 8.50409 1.3487L8.62376 1.35983C8.62901 1.33548 8.65442 1.24919 8.65652 1.21224C8.65799 1.17634 8.65714 1.13896 8.65526 1.10159C8.65274 1.06506 8.64812 1.02979 8.64224 0.99746C8.62544 0.979404 8.56078 0.881569 8.52005 0.858055C8.47911 0.834541 8.43187 0.813336 8.37603 0.794861C8.32018 0.775966 8.25887 0.76127 8.19148 0.749303C8.12409 0.737966 8.05313 0.732717 7.97754 0.732717C7.70944 0.732717 7.49593 0.794231 7.33615 0.9181C7.17639 1.04218 7.07099 1.22483 7.01934 1.46753C7.00087 1.55508 6.98953 1.65082 6.98554 1.75537C6.98113 1.86014 6.98869 1.9649 7.00633 2.06987C7.0248 2.17568 7.05609 2.2773 7.09997 2.3764C7.14405 2.47549 7.20494 2.56262 7.28367 2.6382C7.36114 2.71462 7.45667 2.77551 7.57172 2.82106C7.6853 2.86725 7.82323 2.88993 7.98468 2.88993C8.04746 2.88993 8.10918 2.88573 8.17049 2.8767C8.23263 2.86872 8.28932 2.85697 8.34327 2.84164C8.39618 2.82673 8.44405 2.80931 8.48709 2.78873C8.52971 2.769 8.62691 2.65898 8.64896 2.64282ZM5.70549 0.754761L5.60808 1.18809C5.64272 1.19733 5.77436 1.22504 5.80816 1.24478C5.87219 1.28278 5.92867 1.33422 5.97758 1.3993C6.02608 1.46459 6.06534 1.54101 6.09432 1.62772C6.12413 1.71422 6.13904 1.8066 6.1405 1.90569L6.14449 2.19605C6.07227 2.27436 5.99963 2.33399 5.92468 2.37283C5.85687 2.40852 5.78338 2.42825 5.70549 2.43182L5.70549 2.87901C5.77646 2.86704 5.84427 2.84668 5.90851 2.81813C6.01958 2.76816 6.12245 2.69656 6.21819 2.60167L6.21966 2.77194C6.26039 2.78453 6.38803 2.8555 6.48335 2.8555C6.53101 2.8555 6.57048 2.85403 6.6026 2.85046C6.62254 2.84395 6.71324 2.82022 6.72206 2.80931L6.72164 0.850707C6.68112 0.837481 6.55326 0.766308 6.4569 0.766308C6.40882 0.766308 6.36935 0.767777 6.33744 0.770717C6.31749 0.777225 6.22679 0.80011 6.21902 0.810397L6.20685 1.15828C6.19362 1.11188 6.16591 1.06338 6.12539 1.01279C6.08382 0.962399 6.0328 0.916211 5.97108 0.874221C5.90914 0.832441 5.78506 0.782054 5.70549 0.754761ZM12.1005 2.89203L12.1005 2.50425C12.0495 2.49901 12.0039 2.48746 11.964 2.46919C11.9076 2.44337 11.8601 2.40852 11.8225 2.36485C11.7167 2.24308 11.7094 2.12257 11.6936 1.96217C11.7854 1.96217 11.9468 1.95398 12.1005 1.96217L12.1005 1.54227C11.9649 1.53829 11.8395 1.54584 11.6827 1.54815C11.6802 1.33296 11.8725 1.2347 12.1005 1.20405L12.1005 0.731876C11.9796 0.735656 11.8702 0.749303 11.7715 0.773236C11.6537 0.801789 11.5504 0.845879 11.4625 0.904453C11.3747 0.963239 11.3027 1.03798 11.2454 1.12889C11.1885 1.22001 11.1471 1.32792 11.1205 1.45242C11.1003 1.54857 11.0879 1.65103 11.0841 1.76041C11.0806 1.87063 11.089 1.97855 11.1106 2.08562C11.132 2.19185 11.1664 2.29389 11.2149 2.3913C11.263 2.48893 11.3283 2.5748 11.4106 2.64807C11.4929 2.72218 11.5933 2.7818 11.7125 2.82568C11.8229 2.86704 11.9519 2.88888 12.1005 2.89203ZM12.1005 1.54227L12.1005 1.96217C12.2076 1.96826 12.3107 1.98169 12.385 2.01172C12.5034 2.05979 12.5235 2.18576 12.4977 2.30774C12.4855 2.36485 12.4503 2.41272 12.3934 2.45072C12.3354 2.48893 12.1941 2.50425 12.1005 2.50425L12.1005 2.89203C12.2435 2.89203 12.407 2.87691 12.5164 2.84626C12.6256 2.8154 12.7188 2.77425 12.7954 2.72365C12.8718 2.67305 12.9334 2.61427 12.9791 2.54981C13.0251 2.48452 13.0555 2.41691 13.07 2.34889C13.1664 1.89604 12.9281 1.6758 12.4803 1.5872C12.3312 1.55781 12.2124 1.54605 12.1005 1.54227ZM12.1005 0.731876L12.1005 1.20405C12.2981 1.17739 12.5223 1.20153 12.6709 1.24436C12.7295 1.26115 12.7784 1.27564 12.8156 1.28908L12.9436 1.29496C12.9619 1.20867 12.9921 1.04176 12.9709 0.963239C12.9405 0.852177 12.783 0.804309 12.6699 0.779745C12.6023 0.765049 12.5254 0.753502 12.4398 0.744683C12.3541 0.735236 12.1914 0.731876 12.1005 0.731876Z" fill="rgb(96,106,132)" fill-rule="nonzero" transform="matrix(1,0,0,-1,10.6738,19.6394)" />
				<path id="path139" d="M0.842248 0.730618C0.717183 0.730618 0.608577 0.750352 0.51725 0.790872C0.425398 0.830342 0.347066 0.884719 0.282948 0.952951C0.217907 1.02118 0.165839 1.09886 0.125655 1.1862C0.0862904 1.27333 0.0563517 1.36508 0.03584 1.46123C0.016819 1.55151 0.00468349 1.64977 0.00124073 1.75705C-0.00287437 1.86328 0.00321388 1.96952 0.02001 2.07596C0.0370789 2.18156 0.0657787 2.2836 0.105963 2.38185C0.146147 2.48011 0.200523 2.56745 0.270393 2.64303C0.339277 2.71924 0.424327 2.77949 0.525479 2.82484C0.626989 2.86956 0.746554 2.89245 0.886169 2.89245C0.940546 2.89245 0.993453 2.88804 1.0447 2.87922C1.11564 2.86725 1.18283 2.84689 1.24745 2.81834C1.35857 2.76837 1.46117 2.69677 1.5567 2.60188L1.55834 2.77215C1.59909 2.78474 1.72672 2.85571 1.82226 2.85571C1.86958 2.85571 1.90935 2.85424 1.94132 2.85067C1.96142 2.84416 2.05205 2.82043 2.06066 2.80952L2.06017 0.850917C2.01957 0.83769 1.89205 0.766519 1.79568 0.766519C1.74754 0.766519 1.70792 0.767988 1.67578 0.770927C1.65584 0.777436 1.56539 0.80032 1.55769 0.810607L1.5453 1.15849C1.53201 1.11209 1.50455 1.06359 1.46395 1.013C1.42252 0.962609 1.37127 0.916421 1.30961 0.874431C1.24759 0.832652 1.124 0.782265 1.04466 0.754972C0.980289 0.738595 0.912875 0.730618 0.842248 0.730618ZM1.0447 2.87922L1.0447 2.43203M0.847056 2.3892C0.798663 2.36044 0.758479 2.32244 0.726085 2.27457C0.693857 2.22628 0.668685 2.17065 0.649979 2.10808C0.631209 2.04531 0.618088 1.97917 0.611432 1.91094C0.605134 1.84355 0.603643 1.77448 0.607989 1.70498C0.613091 1.63591 0.621111 1.57125 0.633666 1.51267C0.64284 1.46921 0.655312 1.42869 0.670742 1.39006C0.685502 1.35122 0.706664 1.31679 0.731417 1.28656C0.766521 1.26871 0.899144 1.1883 0.947264 1.1883C0.981884 1.19754 1.11298 1.22525 1.14661 1.24499C1.21083 1.28299 1.26716 1.33443 1.31595 1.39951C1.36477 1.4648 1.40396 1.54122 1.43283 1.62793C1.4626 1.71443 1.47753 1.80681 1.479 1.9059L1.48301 2.19626C1.41093 2.27457 1.3381 2.3342 1.2634 2.37304C1.19549 2.40873 1.12257 2.42846 1.0447 2.43203C0.97884 2.43203 0.89652 2.41776 0.847056 2.3892ZM0.947264 1.1883L1.04466 0.754972M3.47165 2.86704L3.47165 2.42195M3.36857 2.37745C3.30533 2.33944 3.24965 2.2878 3.20086 2.22271C3.15222 2.15742 3.11203 2.08184 3.08226 1.99513C3.05151 1.90884 3.037 1.81563 3.03782 1.71653L3.03412 1.4247C3.10548 1.34534 3.17913 1.28656 3.25415 1.24709C3.32139 1.2114 3.39372 1.1925 3.47165 1.18893C3.53587 1.18893 3.61828 1.20237 3.66684 1.23092C3.71456 1.25947 3.75525 1.29832 3.78764 1.34597C3.82086 1.39384 3.84685 1.44948 3.86556 1.51267C3.88433 1.57587 3.89663 1.64179 3.9036 1.71065C3.91 1.77889 3.91042 1.84859 3.90631 1.91766C3.90179 1.98736 3.89279 2.05245 3.87966 2.11396C3.86925 2.16309 3.85613 2.20718 3.83866 2.24749C3.82119 2.2878 3.80026 2.32181 3.77427 2.34973C3.7408 2.36359 3.51568 2.42195 3.47165 2.42195C3.43638 2.4123 3.40195 2.3976 3.36857 2.37745ZM3.47165 1.18893L3.47165 0.743844M3.28902 0.795911C3.23792 0.816485 3.19102 0.84063 3.1473 0.869392C3.10368 0.897105 3.06448 0.926498 3.02978 0.957991L3.02814 0.0923767C3.00574 0.0843983 2.9125 0.0102873 2.87502 0.00587845C2.83648 0.00146961 2.78794 0 2.73012 0C2.6723 0 2.62449 0.00146961 2.58758 0.00587845C2.56503 0.0140657 2.45939 0.0417795 2.45061 0.0535364L2.45637 2.77131C2.4963 2.7839 2.62325 2.85487 2.72019 2.85487C2.76923 2.85487 2.80902 2.8534 2.84042 2.84983L2.95802 2.80868L2.97139 2.45953C2.98476 2.50635 3.01199 2.55548 3.05151 2.60713C3.09236 2.65752 3.14321 2.70454 3.20569 2.74632C3.26828 2.78873 3.39145 2.83996 3.47165 2.86704C3.53562 2.88384 3.60344 2.89245 3.67423 2.89245C3.79543 2.89245 3.90055 2.87334 3.99146 2.83513C4.08142 2.79713 4.15891 2.74569 4.22429 2.67977C4.28883 2.61364 4.34214 2.53638 4.38438 2.44715C4.42563 2.35834 4.45736 2.26302 4.47869 2.16162C4.49853 2.0684 4.51026 1.96805 4.51461 1.86097C4.5183 1.75306 4.5119 1.64683 4.49533 1.54038C4.47908 1.43478 4.45039 1.33233 4.4102 1.2347C4.37002 1.13624 4.31451 1.04974 4.2452 0.975626C4.17607 0.900885 4.09077 0.841259 3.98949 0.796751C3.88796 0.752662 3.76841 0.730618 3.63027 0.730618C3.57516 0.730618 3.5225 0.734816 3.47165 0.743844C3.41383 0.755391 3.33905 0.775336 3.28902 0.795911ZM5.70549 2.87901L5.70549 2.43182M5.50772 2.38899C5.45943 2.36023 5.41933 2.32223 5.387 2.27436C5.35446 2.22607 5.32948 2.17044 5.31058 2.10787C5.29211 2.0451 5.27867 1.97896 5.27237 1.91073C5.26586 1.84334 5.26439 1.77427 5.2688 1.70477C5.27384 1.6357 5.28203 1.57104 5.29442 1.51246C5.30365 1.469 5.31604 1.42848 5.33158 1.38985C5.34627 1.35101 5.36727 1.31658 5.39225 1.28635C5.42731 1.2685 5.56 1.18809 5.60808 1.18809C5.64272 1.19733 5.77436 1.22504 5.80816 1.24478C5.87219 1.28278 5.92867 1.33422 5.97758 1.3993C6.02608 1.46459 6.06534 1.54101 6.09432 1.62772C6.12413 1.71422 6.13904 1.8066 6.1405 1.90569L6.14449 2.19605C6.07227 2.27436 5.99963 2.33399 5.92468 2.37283C5.85687 2.40852 5.78338 2.42825 5.70549 2.43182C5.63999 2.43182 5.55727 2.41755 5.50772 2.38899ZM5.60808 1.18809L5.70549 0.754761M5.5031 0.730407C5.37798 0.730407 5.26922 0.750142 5.17811 0.790662C5.08615 0.830132 5.00805 0.884509 4.9438 0.952742C4.87862 1.02097 4.8267 1.09865 4.7866 1.18599C4.74723 1.27312 4.71704 1.36487 4.6968 1.46102C4.67767 1.5513 4.66539 1.64956 4.6621 1.75684C4.65775 1.86307 4.66415 1.96931 4.68097 2.07575C4.69777 2.18135 4.72663 2.28339 4.76684 2.38164C4.80686 2.4799 4.86138 2.56724 4.93133 2.64282C5.0002 2.71903 5.08522 2.77928 5.18642 2.82463C5.28782 2.86935 5.40707 2.89224 5.5469 2.89224C5.60128 2.89224 5.65406 2.88783 5.70549 2.87901C5.77646 2.86704 5.84427 2.84668 5.90851 2.81813C6.01958 2.76816 6.12245 2.69656 6.21819 2.60167L6.21966 2.77194C6.26039 2.78453 6.38803 2.8555 6.48335 2.8555C6.53101 2.8555 6.57048 2.85403 6.6026 2.85046C6.62254 2.84395 6.71324 2.82022 6.72206 2.80931L6.72164 0.850707C6.68112 0.837481 6.55326 0.766308 6.4569 0.766308C6.40882 0.766308 6.36935 0.767777 6.33744 0.770717C6.31749 0.777225 6.22679 0.80011 6.21902 0.810397L6.20685 1.15828C6.19362 1.11188 6.16591 1.06338 6.12539 1.01279C6.08382 0.962399 6.0328 0.916211 5.97108 0.874221C5.90914 0.832441 5.78506 0.782054 5.70549 0.754761C5.64125 0.738385 5.57365 0.730407 5.5031 0.730407ZM9.46586 2.69363C9.46187 2.65835 9.45725 2.62455 9.45222 2.5918C9.47237 2.63715 9.42408 2.64828 9.46586 2.69363C9.50806 2.74002 9.62227 2.72785 9.68085 2.76564C9.73942 2.8028 9.80535 2.83282 9.87799 2.85717C9.95084 2.88069 10.0279 2.89245 10.1089 2.89245C10.216 2.89245 10.3086 2.87838 10.3882 2.8513C10.4679 2.82421 10.5362 2.786 10.5939 2.73751C10.6506 2.68922 10.6978 2.63043 10.7327 2.56388C10.7686 2.49628 10.795 2.42216 10.812 2.34217C10.8228 2.29074 10.8305 2.23972 10.8349 2.18828C10.8393 2.13748 10.8421 2.08688 10.8412 2.03712L10.8345 0.852806C10.812 0.845458 10.7186 0.775966 10.6808 0.772186C10.643 0.768618 10.5945 0.766308 10.5351 0.766308C10.4789 0.766308 10.4318 0.768618 10.394 0.772186C10.3718 0.778694 10.267 0.804519 10.2584 0.814806L10.2515 2.00248C10.2517 2.03229 10.2492 2.0663 10.2458 2.10409C10.2427 2.14251 10.2378 2.17632 10.2313 2.20634C10.2185 2.23258 10.1738 2.3428 10.1532 2.36254C10.1259 2.37367 10.0247 2.42342 9.99031 2.42342C9.92607 2.42342 9.86266 2.40495 9.80052 2.36758C9.73858 2.33021 9.68379 2.27961 9.6355 2.21516C9.58763 2.1507 9.54795 2.07575 9.51835 1.98925C9.48749 1.90317 9.47237 1.81248 9.47279 1.71632L9.46586 0.852806C9.4434 0.845458 9.34976 0.775966 9.31113 0.772186C9.27292 0.768618 9.22505 0.766308 9.16879 0.766308C9.11105 0.766308 9.06318 0.768618 9.0256 0.772186C9.00356 0.778694 8.8967 0.804519 8.88809 0.814806L8.89355 3.6787C8.91748 3.68689 9.00797 3.76016 9.04555 3.76436C9.08313 3.76919 9.13079 3.77129 9.18852 3.77129C9.24731 3.77129 9.29497 3.76919 9.33276 3.76436C9.35501 3.75722 9.45914 3.72951 9.46796 3.71754L9.4793 2.90127C9.47804 2.86956 9.4772 2.83597 9.4751 2.79986C9.47321 2.76396 9.47027 2.7289 9.46586 2.69363M8.65987 2.53113C8.65987 2.48956 8.65693 2.44988 8.65043 2.41314C8.63468 2.38794 8.58114 2.28192 8.55616 2.28192C8.53013 2.29892 8.42599 2.34448 8.38904 2.36548C8.35251 2.38689 8.30737 2.40663 8.25531 2.42489C8.2024 2.44253 8.13815 2.45114 8.06089 2.45114C7.97985 2.45114 7.91015 2.43518 7.85326 2.40222C7.79594 2.36905 7.74891 2.32643 7.71259 2.27436C7.67543 2.22187 7.64877 2.16246 7.63176 2.0957C7.61434 2.02956 7.60258 1.96196 7.5967 1.89394C7.5904 1.8257 7.58998 1.7602 7.59502 1.69805C7.59943 1.6357 7.60678 1.58216 7.61665 1.53577C7.64121 1.42008 7.68719 1.33212 7.75626 1.27186C7.82449 1.21161 7.91855 1.18137 8.03717 1.18137C8.12556 1.18137 8.19778 1.19166 8.25615 1.21224C8.31493 1.23365 8.36406 1.25633 8.40269 1.28131C8.44237 1.30629 8.47617 1.32897 8.50409 1.3487L8.62376 1.35983C8.62901 1.33548 8.65442 1.24919 8.65652 1.21224C8.65799 1.17634 8.65714 1.13896 8.65526 1.10159C8.65274 1.06506 8.64812 1.02979 8.64224 0.99746C8.62544 0.979404 8.56078 0.881569 8.52005 0.858055C8.47911 0.834541 8.43187 0.813336 8.37603 0.794861C8.32018 0.775966 8.25887 0.76127 8.19148 0.749303C8.12409 0.737966 8.05313 0.732717 7.97754 0.732717C7.70944 0.732717 7.49593 0.794231 7.33615 0.9181C7.17639 1.04218 7.07099 1.22483 7.01934 1.46753C7.00087 1.55508 6.98953 1.65082 6.98554 1.75537C6.98113 1.86014 6.98869 1.9649 7.00633 2.06987C7.0248 2.17568 7.05609 2.2773 7.09997 2.3764C7.14405 2.47549 7.20494 2.56262 7.28367 2.6382C7.36114 2.71462 7.45667 2.77551 7.57172 2.82106C7.6853 2.86725 7.82323 2.88993 7.98468 2.88993C8.04746 2.88993 8.10918 2.88573 8.17049 2.8767C8.23263 2.86872 8.28932 2.85697 8.34327 2.84164C8.39618 2.82673 8.44405 2.80931 8.48709 2.78873C8.52971 2.769 8.62691 2.65898 8.64896 2.64282C8.65589 2.60986 8.65903 2.57228 8.65987 2.53113ZM12.1005 2.89203L12.1005 2.50425M11.964 2.46919C11.9076 2.44337 11.8601 2.40852 11.8225 2.36485C11.7167 2.24308 11.7094 2.12257 11.6936 1.96217C11.7854 1.96217 11.9468 1.95398 12.1005 1.96217C12.2076 1.96826 12.3107 1.98169 12.385 2.01172C12.5034 2.05979 12.5235 2.18576 12.4977 2.30774C12.4855 2.36485 12.4503 2.41272 12.3934 2.45072C12.3354 2.48893 12.1941 2.50425 12.1005 2.50425C12.0495 2.49901 12.0039 2.48746 11.964 2.46919ZM12.1005 1.96217L12.1005 1.54227M11.6827 1.54815C11.6802 1.33296 11.8725 1.2347 12.1005 1.20405C12.2981 1.17739 12.5223 1.20153 12.6709 1.24436C12.7295 1.26115 12.7784 1.27564 12.8156 1.28908L12.9436 1.29496C12.9619 1.20867 12.9921 1.04176 12.9709 0.963239C12.9405 0.852177 12.783 0.804309 12.6699 0.779745C12.6023 0.765049 12.5254 0.753502 12.4398 0.744683C12.3541 0.735236 12.1914 0.731876 12.1005 0.731876C11.9796 0.735656 11.8702 0.749303 11.7715 0.773236C11.6537 0.801789 11.5504 0.845879 11.4625 0.904453C11.3747 0.963239 11.3027 1.03798 11.2454 1.12889C11.1885 1.22001 11.1471 1.32792 11.1205 1.45242C11.1003 1.54857 11.0879 1.65103 11.0841 1.76041C11.0806 1.87063 11.089 1.97855 11.1106 2.08562C11.132 2.19185 11.1664 2.29389 11.2149 2.3913C11.263 2.48893 11.3283 2.5748 11.4106 2.64807C11.4929 2.72218 11.5933 2.7818 11.7125 2.82568C11.8229 2.86704 11.9519 2.88888 12.1005 2.89203C12.2435 2.89203 12.407 2.87691 12.5164 2.84626C12.6256 2.8154 12.7188 2.77425 12.7954 2.72365C12.8718 2.67305 12.9334 2.61427 12.9791 2.54981C13.0251 2.48452 13.0555 2.41691 13.07 2.34889C13.1664 1.89604 12.9281 1.6758 12.4803 1.5872C12.3312 1.55781 12.2124 1.54605 12.1005 1.54227C11.9649 1.53829 11.8395 1.54584 11.6827 1.54815ZM12.1005 1.20405L12.1005 0.731876" fill-rule="nonzero" stroke="rgb(0,0,0)" stroke-opacity="0" stroke-width="1" transform="matrix(1,0,0,-1,10.6738,19.6394)" />
				<path id="path141" d="M11.4871 8.74464C11.7443 8.75723 11.831 8.75219 12.0882 8.74611C13.6176 8.7097 14.9036 7.55339 14.8511 6.42828C14.7875 5.03528 13.9557 4.28682 12.6319 4.28682L10.1986 4.28682L10.1986 4.03824C10.3292 3.3471 10.739 2.88605 11.548 2.75525C12.2595 2.6772 12.9712 2.75223 13.6831 2.90994C13.8211 2.947 13.9097 2.86892 13.9594 2.69979L13.9594 2.04727C13.9584 1.84272 13.8943 1.73193 13.8043 1.65992C13.1425 1.17683 12.2305 1.11993 11.434 1.16948C10.4138 1.23164 9.55494 1.60785 8.9167 2.41258C8.7549 2.60489 8.62592 2.814 8.52473 3.03444C8.17748 3.78836 8.16047 4.98548 8.26943 5.81625C8.48232 7.44208 9.61247 8.65226 11.4871 8.74464ZM10.1991 5.63111L12.3111 5.63111C13.1148 5.63111 13.3479 7.14756 12.2227 7.20152L11.559 7.20152C10.7497 7.12025 10.142 6.55992 10.1991 5.63111ZM5.38916 9.73979L5.38916 3.52324C5.41515 2.36391 5.77253 1.63329 6.42882 1.2915C6.78195 1.10738 7.24846 1.15445 7.59004 1.21277C7.72281 1.28018 7.83106 1.39041 7.77801 1.49998C7.55295 1.95283 7.39486 2.57428 7.34678 3.46887L7.34678 9.45237C7.34678 9.74168 7.04004 10.0862 5.98632 10.0793C5.68672 10.0776 5.44207 9.98291 5.38916 9.73979ZM4.11436 8.52482L3.57249 8.52482C2.51414 8.49555 1.94665 8.02368 1.94665 7.275L1.94665 5.83686L4.03689 5.83686C4.17877 5.81866 4.21552 5.72845 4.21371 5.616L4.21371 4.96894C4.1978 4.57592 3.82678 4.24462 3.4728 4.24462L1.95761 4.24462L1.95761 2.31268C1.95761 1.73134 2.12624 0.867196 2.38885 0.339387C2.44209 0.229333 2.33359 0.119363 2.20088 0.0517597C1.85929 -0.00637484 1.39237 -0.0533824 1.03945 0.130742C0.383364 0.472956 0.0258235 1.20336 0 2.36248L0 7.18708C0 8.8591 1.25801 10.0969 3.25209 10.0969L4.44669 10.0969C4.66797 10.0802 4.78071 9.97875 4.77844 9.7646L4.77844 9.15659C4.77844 8.85217 4.41858 8.52482 4.11436 8.52482ZM15.0925 8.76836C14.829 8.73916 14.8198 8.51558 14.9487 8.28149C15.5311 7.37431 16.1135 6.46776 16.6959 5.56057C16.8563 5.28323 16.8586 5.03759 16.7047 4.83205C15.96 3.71891 15.251 2.6591 14.5066 1.54638C14.4293 1.45419 14.4261 1.22579 14.6724 1.22579L15.9224 1.22579C16.1194 1.22579 16.339 1.30395 16.4643 1.46933C16.9396 2.22892 17.4156 2.98809 17.8909 3.74726C17.9898 3.89363 18.2482 3.89676 18.3446 3.74726C18.7462 3.07206 19.1481 2.39792 19.5499 1.72294C19.7067 1.48633 19.9018 1.23649 20.1693 1.23649L21.5516 1.23649C21.759 1.23649 21.784 1.48045 21.6511 1.65702C20.9471 2.733 20.2427 3.80898 19.539 4.88601C19.4252 5.0648 19.416 5.29184 19.539 5.50536C20.1879 6.62606 20.8365 7.74759 21.4854 8.86662C21.561 9.02324 21.4596 9.22458 21.2975 9.2208L20.1361 9.2208C19.8468 9.22626 19.552 9.0604 19.4174 8.82274C19.0891 8.13285 18.7609 7.44338 18.4334 6.75433C18.2818 6.46146 18.0368 6.45537 17.8466 6.75433C17.5191 7.35478 17.1905 7.95586 16.8624 8.55715C16.7941 8.68083 16.6816 8.7595 16.5416 8.77844C16.0585 8.77487 15.5754 8.77172 15.0925 8.76836Z" fill="rgb(27,38,66)" fill-rule="evenodd" transform="matrix(1,0,0,-1,2.19043,29.1028)" />
				<path id="path141" d="M12.0882 8.74611C13.6176 8.7097 14.9036 7.55339 14.8511 6.42828C14.7875 5.03528 13.9557 4.28682 12.6319 4.28682L10.1986 4.28682L10.1986 4.03824C10.3292 3.3471 10.739 2.88605 11.548 2.75525C12.2595 2.6772 12.9712 2.75223 13.6831 2.90994C13.8211 2.947 13.9097 2.86892 13.9594 2.69979L13.9594 2.04727C13.9584 1.84272 13.8943 1.73193 13.8043 1.65992C13.1425 1.17683 12.2305 1.11993 11.434 1.16948C10.4138 1.23164 9.55494 1.60785 8.9167 2.41258C8.7549 2.60489 8.62592 2.814 8.52473 3.03444C8.17748 3.78836 8.16047 4.98548 8.26943 5.81625C8.48232 7.44208 9.61247 8.65226 11.4871 8.74464C11.7443 8.75723 11.831 8.75219 12.0882 8.74611ZM12.3111 5.63111C13.1148 5.63111 13.3479 7.14756 12.2227 7.20152L11.559 7.20152C10.7497 7.12025 10.142 6.55992 10.1991 5.63111L12.3111 5.63111ZM5.38916 3.52324C5.41515 2.36391 5.77253 1.63329 6.42882 1.2915C6.78195 1.10738 7.24846 1.15445 7.59004 1.21277C7.72281 1.28018 7.83106 1.39041 7.77801 1.49998C7.55295 1.95283 7.39486 2.57428 7.34678 3.46887L7.34678 9.45237C7.34678 9.74168 7.04004 10.0862 5.98632 10.0793C5.68672 10.0776 5.44207 9.98291 5.38916 9.73979L5.38916 3.52324ZM3.57249 8.52482C2.51414 8.49555 1.94665 8.02368 1.94665 7.275L1.94665 5.83686L4.03689 5.83686C4.17877 5.81866 4.21552 5.72845 4.21371 5.616L4.21371 4.96894C4.1978 4.57592 3.82678 4.24462 3.4728 4.24462L1.95761 4.24462L1.95761 2.31268C1.95761 1.73134 2.12624 0.867196 2.38885 0.339387C2.44209 0.229333 2.33359 0.119363 2.20088 0.0517597C1.85929 -0.00637484 1.39237 -0.0533824 1.03945 0.130742C0.383364 0.472956 0.0258235 1.20336 0 2.36248L0 7.18708C0 8.8591 1.25801 10.0969 3.25209 10.0969L4.44669 10.0969C4.66797 10.0802 4.78071 9.97875 4.77844 9.7646L4.77844 9.15659C4.77844 8.85217 4.41858 8.52482 4.11436 8.52482L3.57249 8.52482ZM14.9487 8.28149C15.5311 7.37431 16.1135 6.46776 16.6959 5.56057C16.8563 5.28323 16.8586 5.03759 16.7047 4.83205C15.96 3.71891 15.251 2.6591 14.5066 1.54638C14.4293 1.45419 14.4261 1.22579 14.6724 1.22579L15.9224 1.22579C16.1194 1.22579 16.339 1.30395 16.4643 1.46933C16.9396 2.22892 17.4156 2.98809 17.8909 3.74726C17.9898 3.89363 18.2482 3.89676 18.3446 3.74726C18.7462 3.07206 19.1481 2.39792 19.5499 1.72294C19.7067 1.48633 19.9018 1.23649 20.1693 1.23649L21.5516 1.23649C21.759 1.23649 21.784 1.48045 21.6511 1.65702C20.9471 2.733 20.2427 3.80898 19.539 4.88601C19.4252 5.0648 19.416 5.29184 19.539 5.50536C20.1879 6.62606 20.8365 7.74759 21.4854 8.86662C21.561 9.02324 21.4596 9.22458 21.2975 9.2208L20.1361 9.2208C19.8468 9.22626 19.552 9.0604 19.4174 8.82274C19.0891 8.13285 18.7609 7.44338 18.4334 6.75433C18.2818 6.46146 18.0368 6.45537 17.8466 6.75433C17.5191 7.35478 17.1905 7.95586 16.8624 8.55715C16.7941 8.68083 16.6816 8.7595 16.5416 8.77844C16.0585 8.77487 15.5754 8.77172 15.0925 8.76836C14.829 8.73916 14.8198 8.51558 14.9487 8.28149Z" fill-rule="evenodd" stroke="rgb(0,0,0)" stroke-opacity="0" stroke-width="1" transform="matrix(1,0,0,-1,2.19043,29.1028)" />
				<path id="path6" d="M5.3249 0.00310722C4.41373 0.00285527 3.68563 0.659823 3.03227 1.59787C1.97813 3.11453 1.11734 5.36794 0 6.76619C1.04029 5.67803 1.5555 4.72378 2.4398 3.8103C2.66129 3.58859 2.97349 3.45578 3.26405 3.45578C3.55441 3.45578 3.84477 3.56657 4.06647 3.78833C4.50946 4.23174 4.53529 4.97552 4.0923 5.41872C3.17923 6.30113 2.20277 6.83854 1.11356 7.8782C2.67662 6.63111 5.29803 5.70742 6.77816 4.47083C7.70045 3.69948 8.17871 2.80488 7.6719 1.63652C7.53102 1.34679 7.31877 1.05811 7.06956 0.808907C6.82056 0.559909 6.53273 0.348282 6.24384 0.206987C5.91737 0.0652727 5.61169 0.00310722 5.3249 0.00310722ZM5.22874 0.208058C5.51889 0.208058 5.87853 0.283996 6.15062 0.409566C6.43153 0.538893 6.69355 0.748211 6.91168 0.966556C7.13045 1.18511 7.33976 1.44755 7.46951 1.7293C7.65174 2.12547 7.733 2.5483 7.62004 2.97617C7.44054 3.6564 6.81385 4.20164 6.26315 4.59382C5.48614 5.14745 4.59239 5.59779 3.74798 6.0391C3.94009 5.88328 4.0375 5.77062 4.22078 5.60329C4.7572 5.07632 4.78051 4.18413 4.25081 3.65422C3.98565 3.38885 3.61089 3.22998 3.26258 3.22998C2.91491 3.22998 2.56766 3.36283 2.30396 3.62972C2.16582 3.74962 2.02095 3.89087 1.89603 4.02335C2.31992 3.21022 2.75535 2.35868 3.28568 1.61525C3.67765 1.06456 4.2233 0.438076 4.90311 0.258571C5.00536 0.231677 5.12754 0.214209 5.22874 0.208058Z" fill="url(#paint_linear_70)" fill-rule="nonzero" transform="matrix(1,0,0,-1,38.6226,33.6824)" />
				<path id="path6" d="M3.03227 1.59787C1.97813 3.11453 1.11734 5.36794 0 6.76619C1.04029 5.67803 1.5555 4.72378 2.4398 3.8103C2.66129 3.58859 2.97349 3.45578 3.26405 3.45578C3.55441 3.45578 3.84477 3.56657 4.06647 3.78833C4.50946 4.23174 4.53529 4.97552 4.0923 5.41872C3.17923 6.30113 2.20277 6.83854 1.11356 7.8782C2.67662 6.63111 5.29803 5.70742 6.77816 4.47083C7.70045 3.69948 8.17871 2.80488 7.6719 1.63652C7.53102 1.34679 7.31877 1.05811 7.06956 0.808907C6.82056 0.559909 6.53273 0.348282 6.24384 0.206987C5.91737 0.0652727 5.61169 0.00310722 5.3249 0.00310722C4.41373 0.00285527 3.68563 0.659823 3.03227 1.59787ZM6.15062 0.409566C6.43153 0.538893 6.69355 0.748211 6.91168 0.966556C7.13045 1.18511 7.33976 1.44755 7.46951 1.7293C7.65174 2.12547 7.733 2.5483 7.62004 2.97617C7.44054 3.6564 6.81385 4.20164 6.26315 4.59382C5.48614 5.14745 4.59239 5.59779 3.74798 6.0391C3.94009 5.88328 4.0375 5.77062 4.22078 5.60329C4.7572 5.07632 4.78051 4.18413 4.25081 3.65422C3.98565 3.38885 3.61089 3.22998 3.26258 3.22998C2.91491 3.22998 2.56766 3.36283 2.30396 3.62972C2.16582 3.74962 2.02095 3.89087 1.89603 4.02335C2.31992 3.21022 2.75535 2.35868 3.28568 1.61525C3.67765 1.06456 4.2233 0.438076 4.90311 0.258571C5.00536 0.231677 5.12754 0.214209 5.22874 0.208058C5.51889 0.208058 5.87853 0.283996 6.15062 0.409566Z" fill-rule="nonzero" stroke="rgb(0,0,0)" stroke-opacity="0" stroke-width="1" transform="matrix(1,0,0,-1,38.6226,33.6824)" />
				<path id="path9" d="M3.4085 0.000545859C3.69844 0.000545859 3.98019 0.0782054 4.25207 0.203355C4.5334 0.333103 4.79541 0.54263 5.01355 0.760556C5.2321 0.979321 5.44121 1.24155 5.57117 1.52351C5.69504 1.79287 5.77209 2.07504 5.77335 2.36246C5.73598 2.14747 5.66502 1.94991 5.57075 1.74521C5.42105 1.42 5.1792 1.11747 4.92726 0.86532C4.67574 0.613383 4.37363 0.372153 4.04905 0.22246C3.81055 0.11249 3.66023 0.0315971 3.4085 0.000545859C3.3073 0.0066973 3.10933 0.0253406 3.00708 0.0522349C2.32727 0.231761 1.78162 0.858223 1.38964 1.40892C0.859318 2.15276 0.423885 3.00431 0 3.81701C0.12492 3.68456 0.255299 3.55794 0.393444 3.43806C0.657139 3.17122 1.01888 3.02364 1.36655 3.02364C1.71485 3.02364 2.06379 3.15715 2.32895 3.42254C2.85865 3.95245 2.88951 4.84235 2.35309 5.36932C2.16981 5.53671 1.95335 5.72447 1.76125 5.88025C2.6065 5.43894 3.59094 4.94111 4.36712 4.38748C4.91781 3.9953 5.54451 3.45007 5.72401 2.76984C5.83696 2.34196 5.7534 1.91968 5.57117 1.52351C5.44142 1.24176 5.23231 0.979111 5.01355 0.760556C4.79541 0.54221 4.53297 0.332683 4.25207 0.203355C3.97997 0.0777855 3.69865 0.000545859 3.4085 0.000545859Z" fill="url(#paint_radial_13)" fill-rule="nonzero" transform="matrix(1,0,0,-1,40.5181,33.4741)" />
				<path id="path9" d="M5.01355 0.760556C5.23231 0.979111 5.44142 1.24176 5.57117 1.52351C5.7534 1.91968 5.83696 2.34196 5.72401 2.76984C5.54451 3.45007 4.91781 3.9953 4.36712 4.38748C3.59094 4.94111 2.6065 5.43894 1.76125 5.88025C1.95335 5.72447 2.16981 5.53671 2.35309 5.36932C2.88951 4.84235 2.85865 3.95245 2.32895 3.42254C2.06379 3.15715 1.71485 3.02364 1.36655 3.02364C1.01888 3.02364 0.657139 3.17122 0.393444 3.43806C0.255299 3.55794 0.12492 3.68456 0 3.81701C0.423885 3.00431 0.859318 2.15276 1.38964 1.40892C1.78162 0.858223 2.32727 0.231761 3.00708 0.0522349C3.10933 0.0253406 3.3073 0.0066973 3.4085 0.000545859C3.69844 0.000545859 3.98019 0.0782054 4.25207 0.203355C4.53297 0.332683 4.79541 0.54221 5.01355 0.760556C5.2321 0.979321 5.44121 1.24155 5.57117 1.52351M4.25207 0.203355C4.5334 0.333103 4.79541 0.54263 5.01355 0.760556M5.57117 1.52351C5.69504 1.79287 5.77209 2.07504 5.77335 2.36246C5.73598 2.14747 5.66502 1.94991 5.57075 1.74521C5.42105 1.42 5.1792 1.11747 4.92726 0.86532C4.67574 0.613383 4.37363 0.372153 4.04905 0.22246C3.81055 0.11249 3.66023 0.0315971 3.4085 0.000545859M4.25207 0.203355C3.97997 0.0777855 3.69865 0.000545859 3.4085 0.000545859" fill-rule="nonzero" stroke="rgb(0,0,0)" stroke-opacity="0" stroke-width="1" transform="matrix(1,0,0,-1,40.5181,33.4741)" />
				<path id="path12" d="M1.11377 0C2.20256 1.04071 3.15656 1.55571 4.06963 2.43959C4.51262 2.883 4.53529 3.62306 4.0923 4.06626C3.87059 4.28797 3.55441 4.42422 3.26385 4.42422C2.97349 4.42422 2.68313 4.31337 2.46164 4.09167C1.57902 3.17882 1.04155 2.20235 0.000213623 1.11335C1.28908 2.7289 2.23384 5.47623 3.53132 6.92277C4.05493 7.50474 4.63837 7.8774 5.3228 7.8774C5.60959 7.8774 5.91506 7.81231 6.24153 7.6706C6.53084 7.5293 6.81826 7.31747 7.06725 7.06847C7.31646 6.81947 7.52872 6.5308 7.66959 6.24149C8.06115 5.33934 7.86631 4.60138 7.33242 3.95726C6.06685 2.43052 2.89833 1.42554 1.11377 0ZM3.2565 4.64904C3.60501 4.64904 3.95373 4.51572 4.21911 4.25035C4.74944 3.72044 4.77484 2.83488 4.24451 2.30476C4.03792 2.12778 3.79228 1.92287 3.57898 1.75449C3.63356 1.78304 3.68794 1.81118 3.7419 1.83973C4.58693 2.28104 5.48089 2.73137 6.25707 3.28501C6.80755 3.67698 7.43424 4.22242 7.61396 4.90223C7.67295 5.12583 7.67904 5.34774 7.64545 5.56525C7.6148 5.76491 7.55055 5.961 7.46342 6.151C7.33347 6.43275 7.12436 6.69518 6.9058 6.91374C6.68767 7.13187 6.42566 7.34119 6.14433 7.47073C5.87244 7.59628 5.58775 7.67396 5.29761 7.67396C5.19284 7.6685 5.00179 7.64856 4.89619 7.62084C4.21575 7.44134 3.67093 6.81464 3.27896 6.26437C2.72512 5.48736 2.27478 4.59361 1.83305 3.7492C1.80765 3.69986 1.78183 3.65053 1.756 3.60077C1.92207 3.80967 2.09066 4.01562 2.26554 4.21696C2.52903 4.4836 2.90882 4.64904 3.2565 4.64904Z" fill="url(#paint_linear_71)" fill-rule="nonzero" transform="matrix(1,0,0,-1,38.6138,21.5654)" />
				<path id="path12" d="M4.06963 2.43959C4.51262 2.883 4.53529 3.62306 4.0923 4.06626C3.87059 4.28797 3.55441 4.42422 3.26385 4.42422C2.97349 4.42422 2.68313 4.31337 2.46164 4.09167C1.57902 3.17882 1.04155 2.20235 0.000213623 1.11335C1.28908 2.7289 2.23384 5.47623 3.53132 6.92277C4.05493 7.50474 4.63837 7.8774 5.3228 7.8774C5.60959 7.8774 5.91506 7.81231 6.24153 7.6706C6.53084 7.5293 6.81826 7.31747 7.06725 7.06847C7.31646 6.81947 7.52872 6.5308 7.66959 6.24149C8.06115 5.33934 7.86631 4.60138 7.33242 3.95726C6.06685 2.43052 2.89833 1.42554 1.11377 0C2.20256 1.04071 3.15656 1.55571 4.06963 2.43959ZM4.21911 4.25035C4.74944 3.72044 4.77484 2.83488 4.24451 2.30476C4.03792 2.12778 3.79228 1.92287 3.57898 1.75449C3.63356 1.78304 3.68794 1.81118 3.7419 1.83973C4.58693 2.28104 5.48089 2.73137 6.25707 3.28501C6.80755 3.67698 7.43424 4.22242 7.61396 4.90223C7.67295 5.12583 7.67904 5.34774 7.64545 5.56525C7.6148 5.76491 7.55055 5.961 7.46342 6.151C7.33347 6.43275 7.12436 6.69518 6.9058 6.91374C6.68767 7.13187 6.42566 7.34119 6.14433 7.47073C5.87244 7.59628 5.58775 7.67396 5.29761 7.67396C5.19284 7.6685 5.00179 7.64856 4.89619 7.62084C4.21575 7.44134 3.67093 6.81464 3.27896 6.26437C2.72512 5.48736 2.27478 4.59361 1.83305 3.7492C1.80765 3.69986 1.78183 3.65053 1.756 3.60077C1.92207 3.80967 2.09066 4.01562 2.26554 4.21696C2.52903 4.4836 2.90882 4.64904 3.2565 4.64904C3.60501 4.64904 3.95373 4.51572 4.21911 4.25035Z" fill-rule="nonzero" stroke="url(#paint_linear_72)" stroke-width="0.5" transform="matrix(1,0,0,-1,38.6138,21.5654)" />
				<path id="path15" d="M8.3683 0C7.53712 0.00671864 6.8552 0.516261 6.24993 1.27606C5.95579 1.64452 5.67992 2.07222 5.4135 2.52928C4.04023 4.88699 2.92352 8.0404 0.926918 8.0404C0.673302 8.0404 0.405619 7.98959 0.121349 7.87979C0.0846081 7.86572 0.0447178 7.84914 0.00755692 7.83318C0.479729 8.07483 0.904453 8.17519 1.30923 8.17519C3.53468 8.17519 4.91613 5.03647 7.37881 4.43812C7.68492 4.36422 8.02692 4.32706 8.36913 4.32706C8.70883 4.32706 9.04852 4.36359 9.35274 4.43686C11.8196 5.03101 13.2011 8.17603 15.4286 8.17603C15.8332 8.17603 16.2661 8.0721 16.7379 7.83045C16.408 7.9749 16.1005 8.04103 15.8109 8.04103C15.1267 8.04103 14.5456 7.67047 14.0222 7.0885C12.7232 5.64238 11.7753 2.89333 10.4883 1.27673C9.88244 0.517142 9.19843 0.00671864 8.3683 0ZM8.362 0.223636C8.53289 0.223636 8.70946 0.248158 8.87322 0.296299C10.2461 0.701497 11.3128 2.91434 11.928 4.09425C12.377 4.95482 12.8337 5.85781 13.3965 6.64931C13.6432 6.99614 13.9323 7.34907 14.2689 7.63585C13.4114 7.17922 12.5979 6.31486 11.9364 5.72722C11.1957 5.06903 10.3867 4.45578 9.40649 4.22001C9.08401 4.14212 8.7271 4.10328 8.3704 4.10328C8.01138 4.10328 7.65259 4.14275 7.3278 4.22127C7.08846 4.27942 6.85541 4.3613 6.63056 4.46187C5.95096 4.76608 5.35723 5.23594 4.80402 5.72722C4.14142 6.31612 3.32515 7.18405 2.4652 7.63942C3.97242 6.35685 4.95938 3.39428 6.25266 1.62653C6.222 1.66201 6.19177 1.69791 6.16175 1.73423C6.6503 1.05673 7.21841 0.484412 7.85183 0.297349C8.01579 0.248956 8.19089 0.223636 8.362 0.223636Z" fill="url(#paint_linear_73)" fill-rule="nonzero" transform="matrix(1,0,0,-1,28.126,21.7271)" />
				<path id="path15" d="M6.24993 1.27606C5.95579 1.64452 5.67992 2.07222 5.4135 2.52928C4.04023 4.88699 2.92352 8.0404 0.926918 8.0404C0.673302 8.0404 0.405619 7.98959 0.121349 7.87979C0.0846081 7.86572 0.0447178 7.84914 0.00755692 7.83318C0.479729 8.07483 0.904453 8.17519 1.30923 8.17519C3.53468 8.17519 4.91613 5.03647 7.37881 4.43812C7.68492 4.36422 8.02692 4.32706 8.36913 4.32706C8.70883 4.32706 9.04852 4.36359 9.35274 4.43686C11.8196 5.03101 13.2011 8.17603 15.4286 8.17603C15.8332 8.17603 16.2661 8.0721 16.7379 7.83045C16.408 7.9749 16.1005 8.04103 15.8109 8.04103C15.1267 8.04103 14.5456 7.67047 14.0222 7.0885C12.7232 5.64238 11.7753 2.89333 10.4883 1.27673C9.88244 0.517142 9.19843 0.00671864 8.3683 0C7.53712 0.00671864 6.8552 0.516261 6.24993 1.27606ZM8.87322 0.296299C10.2461 0.701497 11.3128 2.91434 11.928 4.09425C12.377 4.95482 12.8337 5.85781 13.3965 6.64931C13.6432 6.99614 13.9323 7.34907 14.2689 7.63585C13.4114 7.17922 12.5979 6.31486 11.9364 5.72722C11.1957 5.06903 10.3867 4.45578 9.40649 4.22001C9.08401 4.14212 8.7271 4.10328 8.3704 4.10328C8.01138 4.10328 7.65259 4.14275 7.3278 4.22127C7.08846 4.27942 6.85541 4.3613 6.63056 4.46187C5.95096 4.76608 5.35723 5.23594 4.80402 5.72722C4.14142 6.31612 3.32515 7.18405 2.4652 7.63942C3.97242 6.35685 4.95938 3.39428 6.25266 1.62653C6.222 1.66201 6.19177 1.69791 6.16175 1.73423C6.6503 1.05673 7.21841 0.484412 7.85183 0.297349C8.01579 0.248956 8.19089 0.223636 8.362 0.223636C8.53289 0.223636 8.70946 0.248158 8.87322 0.296299Z" fill-rule="nonzero" stroke="rgb(0,0,0)" stroke-opacity="0" stroke-width="1" transform="matrix(1,0,0,-1,28.126,21.7271)" />
				<path id="path18" d="M15.4309 0C13.2013 0 11.8177 3.15131 9.34665 3.74126C9.04454 3.81328 8.70736 3.84935 8.37019 3.84935C8.02776 3.84935 7.68513 3.81221 7.37882 3.73791C4.91613 3.13934 3.53468 0.000839785 1.30923 0.000839785C0.904453 0.000587851 0.472172 0.104512 0 0.346203C0.0384197 0.329639 0.0839787 0.310533 0.121769 0.296026C0.405828 0.186202 0.673512 0.135605 0.926918 0.135605C3.27203 0.135605 4.40365 4.48362 6.16091 6.78464C6.19051 6.82336 6.22011 6.8614 6.25014 6.89887C6.85626 7.65867 7.53837 8.16851 8.37061 8.17523C9.20116 8.16851 9.88349 7.65876 10.489 6.89938C11.6057 5.49966 12.4637 3.25049 13.5185 1.73467C14.1715 0.796205 14.9021 0.136088 15.8139 0.136088C16.1034 0.136088 16.411 0.202179 16.7408 0.346665C16.2688 0.105016 15.8355 0 15.4309 0ZM14.2764 0.537508C12.7862 1.80538 11.8053 4.71546 10.5331 6.49162C9.94669 7.31524 9.31642 7.87826 8.53017 7.94712C8.47768 7.9518 8.42435 7.95418 8.37061 7.95418C8.2354 7.95418 8.10187 7.93891 7.97087 7.90866C7.93601 7.90062 7.90137 7.89151 7.86673 7.88126C7.34333 7.72676 6.86423 7.30894 6.43804 6.78596C5.74668 5.93778 5.19368 4.81288 4.81263 4.08394C4.36355 3.22358 3.90733 2.32038 3.34383 1.52888C3.11898 1.21228 2.85885 0.890639 2.55926 0.618967C3.14837 0.932629 3.62999 1.36283 4.14247 1.83962C4.37572 2.0565 4.59722 2.26729 4.80381 2.45099C5.07401 2.69096 5.35324 2.92505 5.64675 3.1371C6.15461 3.50346 6.70824 3.80614 7.32675 3.95646C7.65175 4.03544 8.01138 4.07489 8.37082 4.07489C8.57111 4.07489 8.77118 4.06276 8.96539 4.03815C9.11928 4.01888 9.2696 3.99182 9.41321 3.95696C9.48018 3.94057 9.54673 3.92251 9.61266 3.90259C9.78124 3.85157 9.94941 3.7885 10.1102 3.71634C10.7856 3.41381 11.3764 2.94794 11.9269 2.4596C12.5895 1.8707 13.4167 0.992674 14.2764 0.537508Z" fill="url(#paint_linear_74)" fill-rule="nonzero" transform="matrix(1,0,0,-1,28.1387,33.8159)" />
				<path id="path18" d="M9.34665 3.74126C9.04454 3.81328 8.70736 3.84935 8.37019 3.84935C8.02776 3.84935 7.68513 3.81221 7.37882 3.73791C4.91613 3.13934 3.53468 0.000839785 1.30923 0.000839785C0.904453 0.000587851 0.472172 0.104512 0 0.346203C0.0384197 0.329639 0.0839787 0.310533 0.121769 0.296026C0.405828 0.186202 0.673512 0.135605 0.926918 0.135605C3.27203 0.135605 4.40365 4.48362 6.16091 6.78464C6.19051 6.82336 6.22011 6.8614 6.25014 6.89887C6.85626 7.65867 7.53837 8.16851 8.37061 8.17523C9.20116 8.16851 9.88349 7.65876 10.489 6.89938C11.6057 5.49966 12.4637 3.25049 13.5185 1.73467C14.1715 0.796205 14.9021 0.136088 15.8139 0.136088C16.1034 0.136088 16.411 0.202179 16.7408 0.346665C16.2688 0.105016 15.8355 0 15.4309 0C13.2013 0 11.8177 3.15131 9.34665 3.74126ZM10.5331 6.49162C9.94669 7.31524 9.31642 7.87826 8.53017 7.94712C8.47768 7.9518 8.42435 7.95418 8.37061 7.95418C8.2354 7.95418 8.10187 7.93891 7.97087 7.90866C7.93601 7.90062 7.90137 7.89151 7.86673 7.88126C7.34333 7.72676 6.86423 7.30894 6.43804 6.78596C5.74668 5.93778 5.19368 4.81288 4.81263 4.08394C4.36355 3.22358 3.90733 2.32038 3.34383 1.52888C3.11898 1.21228 2.85885 0.890639 2.55926 0.618967C3.14837 0.932629 3.62999 1.36283 4.14247 1.83962C4.37572 2.0565 4.59722 2.26729 4.80381 2.45099C5.07401 2.69096 5.35324 2.92505 5.64675 3.1371C6.15461 3.50346 6.70824 3.80614 7.32675 3.95646C7.65175 4.03544 8.01138 4.07489 8.37082 4.07489C8.57111 4.07489 8.77118 4.06276 8.96539 4.03815C9.11928 4.01888 9.2696 3.99182 9.41321 3.95696C9.48018 3.94057 9.54673 3.92251 9.61266 3.90259C9.78124 3.85157 9.94941 3.7885 10.1102 3.71634C10.7856 3.41381 11.3764 2.94794 11.9269 2.4596C12.5895 1.8707 13.4167 0.992674 14.2764 0.537508C12.7862 1.80538 11.8053 4.71546 10.5331 6.49162Z" fill-rule="nonzero" stroke="rgb(0,0,0)" stroke-opacity="0" stroke-width="1" transform="matrix(1,0,0,-1,28.1387,33.8159)" />
				<path id="path24" d="M7.82999 0C8.34373 1.17277 7.86757 2.0684 6.94276 2.84269C5.4641 4.07781 2.83996 5.00517 1.27585 6.25226C0.516472 6.85817 0.00671768 7.5405 0 8.37063C0.0069313 9.20139 0.516262 9.88309 1.27585 10.489C3.06166 11.9137 6.23061 12.9181 7.4945 14.4444C8.03049 15.0915 8.22574 15.8334 7.82852 16.7402C9.40061 13.6708 5.1391 12.2704 4.43577 9.35633C4.28608 8.73531 4.2886 7.96648 4.44522 7.34734C5.17563 4.46057 9.3941 3.05684 7.82999 0ZM7.63915 2.46606C7.18377 3.32559 6.31585 4.14166 5.72716 4.80488C5.23609 5.35767 4.76623 5.9514 4.46202 6.63058C4.36061 6.85712 4.27852 7.09163 4.22016 7.33307C4.14227 7.65597 4.10321 8.01288 4.10321 8.37021C4.10321 8.74182 4.14542 9.11384 4.23044 9.44892C4.47377 10.4109 5.07926 11.2072 5.72716 11.9368C6.31459 12.5979 7.17937 13.4121 7.63579 14.2693C7.20519 13.7633 6.58773 13.322 5.88693 12.9019C5.30286 12.5522 4.68855 12.2387 4.09419 11.9284C3.49794 11.6173 2.63757 11.1911 1.87924 10.6683C1.79589 10.6119 1.71464 10.5552 1.6357 10.4977C1.28173 10.2424 1.05247 10.0461 0.795914 9.74969C0.57988 9.49145 0.379585 9.17489 0.294979 8.88853C0.246689 8.72443 0.222546 8.55576 0.222546 8.38465C0.222546 8.21348 0.246689 8.03135 0.294979 7.86717C0.492329 7.19786 1.07178 6.62641 1.83221 6.10574C2.60062 5.56827 3.48429 5.13095 4.09335 4.8133C4.95392 4.36401 5.85733 3.90759 6.64841 3.34451C6.99566 3.08921 7.39435 2.75348 7.63915 2.46606Z" fill="url(#paint_linear_75)" fill-rule="nonzero" transform="matrix(1,0,0,-1,38.4688,32.0544)" />
				<path id="path24" d="M6.94276 2.84269C5.4641 4.07781 2.83996 5.00517 1.27585 6.25226C0.516472 6.85817 0.00671768 7.5405 0 8.37063C0.0069313 9.20139 0.516262 9.88309 1.27585 10.489C3.06166 11.9137 6.23061 12.9181 7.4945 14.4444C8.03049 15.0915 8.22574 15.8334 7.82852 16.7402C9.40061 13.6708 5.1391 12.2704 4.43577 9.35633C4.28608 8.73531 4.2886 7.96648 4.44522 7.34734C5.17563 4.46057 9.3941 3.05684 7.82999 0C8.34373 1.17277 7.86757 2.0684 6.94276 2.84269ZM5.72716 4.80488C5.23609 5.35767 4.76623 5.9514 4.46202 6.63058C4.36061 6.85712 4.27852 7.09163 4.22016 7.33307C4.14227 7.65597 4.10321 8.01288 4.10321 8.37021C4.10321 8.74182 4.14542 9.11384 4.23044 9.44892C4.47377 10.4109 5.07926 11.2072 5.72716 11.9368C6.31459 12.5979 7.17937 13.4121 7.63579 14.2693C7.20519 13.7633 6.58773 13.322 5.88693 12.9019C5.30286 12.5522 4.68855 12.2387 4.09419 11.9284C3.49794 11.6173 2.63757 11.1911 1.87924 10.6683C1.79589 10.6119 1.71464 10.5552 1.6357 10.4977C1.28173 10.2424 1.05247 10.0461 0.795914 9.74969C0.57988 9.49145 0.379585 9.17489 0.294979 8.88853C0.246689 8.72443 0.222546 8.55576 0.222546 8.38465C0.222546 8.21348 0.246689 8.03135 0.294979 7.86717C0.492329 7.19786 1.07178 6.62641 1.83221 6.10574C2.60062 5.56827 3.48429 5.13095 4.09335 4.8133C4.95392 4.36401 5.85733 3.90759 6.64841 3.34451C6.99566 3.08921 7.39435 2.75348 7.63915 2.46606C7.18377 3.32559 6.31585 4.14166 5.72716 4.80488Z" fill-rule="nonzero" stroke="rgb(0,0,0)" stroke-opacity="0" stroke-width="1" transform="matrix(1,0,0,-1,38.4688,32.0544)" />
				<path id="path30" d="M2.55326 0C2.30027 0 2.03259 0.0507653 1.74895 0.160169C1.71116 0.174676 1.67316 0.190422 1.63474 0.206987C1.34585 0.348135 1.05738 0.560056 0.808804 0.808844C0.559595 1.05805 0.347548 1.34673 0.206463 1.63646C-0.343599 2.90391 0.263359 3.8472 1.34249 4.6618C2.85201 5.79909 5.28656 6.69718 6.76459 7.87708C5.67623 6.83658 4.7218 6.32108 3.80853 5.43951C3.36533 4.99631 3.34287 4.25589 3.78607 3.81248C4.00756 3.59077 4.32353 3.45458 4.6141 3.45458C4.90446 3.45458 5.19503 3.56537 5.41652 3.78714C6.29935 4.7002 6.8364 5.67658 7.87815 6.76516C7.84813 6.72768 7.81853 6.68905 7.78893 6.65034C6.03083 4.34931 4.89837 0 2.55326 0ZM2.189 0.251979C2.31665 0.223195 2.44597 0.207701 2.57635 0.207701C2.70925 0.207701 2.84319 0.223846 2.97777 0.259369C3.65779 0.438895 4.20281 1.06536 4.59521 1.61605C5.12532 2.35989 5.56096 3.21144 5.98464 4.02415C5.86014 3.89169 5.72955 3.76507 5.59141 3.64519C5.32771 3.37835 4.96597 3.23078 4.6183 3.23078C4.26979 3.23078 3.92106 3.36428 3.6559 3.62968C3.12578 4.15958 3.09534 5.04949 3.63155 5.57646C3.81462 5.74385 4.03171 5.9316 4.22339 6.08739C3.37814 5.64608 2.3937 5.14825 1.61773 4.59462C1.06704 4.20244 0.439926 3.6572 0.260839 2.97697C0.225779 2.84468 0.209402 2.71265 0.208982 2.58185C0.210243 2.30199 0.283514 2.01422 0.401714 1.75115C0.448112 1.65019 0.514246 1.53096 0.57786 1.43602C0.66436 1.30726 0.763664 1.18513 0.867798 1.07239C0.90097 1.0363 0.934771 1.0012 0.968782 0.967165C1.0261 0.91008 1.08635 0.853416 1.14934 0.79864C1.21715 0.739414 1.28811 0.682497 1.3616 0.62936C1.47896 0.54431 1.60262 0.46896 1.73026 0.409965C1.87996 0.341081 2.033 0.287082 2.189 0.251979Z" fill="url(#paint_linear_76)" fill-rule="nonzero" transform="matrix(1,0,0,-1,26.5088,33.6794)" />
				<path id="path30" d="M1.74895 0.160169C1.71116 0.174676 1.67316 0.190422 1.63474 0.206987C1.34585 0.348135 1.05738 0.560056 0.808804 0.808844C0.559595 1.05805 0.347548 1.34673 0.206463 1.63646C-0.343599 2.90391 0.263359 3.8472 1.34249 4.6618C2.85201 5.79909 5.28656 6.69718 6.76459 7.87708C5.67623 6.83658 4.7218 6.32108 3.80853 5.43951C3.36533 4.99631 3.34287 4.25589 3.78607 3.81248C4.00756 3.59077 4.32353 3.45458 4.6141 3.45458C4.90446 3.45458 5.19503 3.56537 5.41652 3.78714C6.29935 4.7002 6.8364 5.67658 7.87815 6.76516C7.84813 6.72768 7.81853 6.68905 7.78893 6.65034C6.03083 4.34931 4.89837 0 2.55326 0C2.30027 0 2.03259 0.0507653 1.74895 0.160169ZM2.57635 0.207701C2.70925 0.207701 2.84319 0.223846 2.97777 0.259369C3.65779 0.438895 4.20281 1.06536 4.59521 1.61605C5.12532 2.35989 5.56096 3.21144 5.98464 4.02415C5.86014 3.89169 5.72955 3.76507 5.59141 3.64519C5.32771 3.37835 4.96597 3.23078 4.6183 3.23078C4.26979 3.23078 3.92106 3.36428 3.6559 3.62968C3.12578 4.15958 3.09534 5.04949 3.63155 5.57646C3.81462 5.74385 4.03171 5.9316 4.22339 6.08739C3.37814 5.64608 2.3937 5.14825 1.61773 4.59462C1.06704 4.20244 0.439926 3.6572 0.260839 2.97697C0.225779 2.84468 0.209402 2.71265 0.208982 2.58185C0.210243 2.30199 0.283514 2.01422 0.401714 1.75115C0.448112 1.65019 0.514246 1.53096 0.57786 1.43602C0.66436 1.30726 0.763664 1.18513 0.867798 1.07239C0.90097 1.0363 0.934771 1.0012 0.968782 0.967165C1.0261 0.91008 1.08635 0.853416 1.14934 0.79864C1.21715 0.739414 1.28811 0.682497 1.3616 0.62936C1.47896 0.54431 1.60262 0.46896 1.73026 0.409965C1.87996 0.341081 2.033 0.287082 2.189 0.251979C2.31665 0.223195 2.44597 0.207701 2.57635 0.207701Z" fill-rule="nonzero" stroke="rgb(0,0,0)" stroke-opacity="0" stroke-width="1" transform="matrix(1,0,0,-1,26.5088,33.6794)" />
				<path id="path33" d="M2.368 0C2.23762 0 2.10829 0.0154941 1.98065 0.0442779C2.10808 0.0157461 2.23783 0 2.368 0C2.11627 0.0310722 1.96259 0.111944 1.7243 0.221893C1.39972 0.371565 1.09761 0.612816 0.846088 0.864753C0.593943 1.1169 0.352503 1.41943 0.202391 1.74464C0.108543 1.94911 0.0375805 2.15992 0 2.3747C0.000419617 2.50551 0.0167961 2.63755 0.051857 2.76982C0.230944 3.45005 0.858055 3.99528 1.40875 4.38746C2.18534 4.94109 3.0793 5.39143 3.92392 5.83274C3.73224 5.67692 3.63398 5.56426 3.45091 5.39693C2.9147 4.86996 2.89119 3.97777 3.4213 3.44786C3.68647 3.18249 4.0608 3.02362 4.40932 3.02362C4.75699 3.02362 5.10424 3.15648 5.36794 3.42336C5.50608 3.54326 5.65116 3.68452 5.77566 3.81699C5.35198 3.00387 4.91634 2.15232 4.38622 1.40889C3.99383 0.858202 3.44881 0.231719 2.76879 0.0522139C2.63421 0.0166908 2.50089 0 2.368 0ZM1.15198 0.42275C1.0785 0.475888 1.00754 0.532805 0.939726 0.592031C1.00754 0.532805 1.0785 0.475888 1.15198 0.42275ZM0.658186 0.865739C0.554052 0.978502 0.454746 1.10067 0.368248 1.22937C0.454746 1.10061 0.554052 0.978481 0.658186 0.865739Z" fill="url(#paint_radial_14)" fill-rule="nonzero" transform="matrix(1,0,0,-1,26.7153,33.4736)" />
				<path id="path33" d="M2.368 0C2.11627 0.0310722 1.96259 0.111944 1.7243 0.221893C1.39972 0.371565 1.09761 0.612816 0.846088 0.864753C0.593943 1.1169 0.352503 1.41943 0.202391 1.74464C0.108543 1.94911 0.0375805 2.15992 0 2.3747C0.000419617 2.50551 0.0167961 2.63755 0.051857 2.76982C0.230944 3.45005 0.858055 3.99528 1.40875 4.38746C2.18534 4.94109 3.0793 5.39143 3.92392 5.83274C3.73224 5.67692 3.63398 5.56426 3.45091 5.39693C2.9147 4.86996 2.89119 3.97777 3.4213 3.44786C3.68647 3.18249 4.0608 3.02362 4.40932 3.02362C4.75699 3.02362 5.10424 3.15648 5.36794 3.42336C5.50608 3.54326 5.65116 3.68452 5.77566 3.81699C5.35198 3.00387 4.91634 2.15232 4.38622 1.40889C3.99383 0.858202 3.44881 0.231719 2.76879 0.0522139C2.63421 0.0166908 2.50089 0 2.368 0C2.23762 0 2.10829 0.0154941 1.98065 0.0442779C2.10808 0.0157461 2.23783 0 2.368 0M1.15198 0.42275C1.0785 0.475888 1.00754 0.532805 0.939726 0.592031M0.368248 1.22937C0.454746 1.10061 0.554052 0.978481 0.658186 0.865739C0.554052 0.978502 0.454746 1.10067 0.368248 1.22937Z" fill-rule="nonzero" stroke="rgb(0,0,0)" stroke-opacity="0" stroke-width="1" transform="matrix(1,0,0,-1,26.7153,33.4736)" />
				<path id="path36" d="M6.76496 0.00239277C4.99951 1.41114 1.88368 2.40839 0.588301 3.90532C0.0220718 4.56203 -0.195435 5.317 0.206406 6.24203C0.34749 6.53134 0.559538 6.82002 0.808954 7.06902C1.05732 7.3178 1.34474 7.52943 1.63363 7.67052C1.67079 7.68647 1.70921 7.70264 1.74595 7.7167C2.0298 7.8263 2.3 7.87794 2.5532 7.87794C4.55022 7.87794 5.66672 4.72453 7.04188 2.36682C7.3083 1.90977 7.58438 1.48231 7.87852 1.11386C6.83781 2.20222 6.32197 3.15593 5.43851 4.06941C5.21722 4.29112 4.90482 4.42422 4.61446 4.42422C4.3239 4.42422 4.03333 4.31337 3.81183 4.09167C3.36864 3.64847 3.34302 2.90462 3.78622 2.46121C4.69886 1.57796 5.67596 1.04373 6.76496 0.00239277ZM4.29576 1.75306C4.08267 1.92144 3.87167 2.09276 3.66508 2.26974C3.13454 2.79986 3.0999 3.69319 3.63044 4.22309C3.8956 4.48847 4.26994 4.64761 4.61845 4.64761C4.96613 4.64761 5.31338 4.51471 5.57707 4.24808C5.75217 4.04674 5.95225 3.80782 6.11832 3.59892C6.09228 3.64868 6.06667 3.69801 6.04085 3.74735C5.59933 4.59218 5.14899 5.48593 4.59536 6.26252C4.20297 6.8128 3.65815 7.43949 2.97792 7.61899C2.87211 7.64692 2.76672 7.66287 2.66195 7.66833C2.37201 7.66833 2.00188 7.59443 1.72978 7.46888C1.44867 7.33934 1.18665 7.13003 0.968306 6.91189C0.74996 6.69334 0.540432 6.4309 0.410894 6.14915C0.284925 5.87517 0.207035 5.5888 0.208281 5.29677C0.208715 5.16534 0.22509 5.03349 0.260363 4.90038C0.439447 4.22057 1.06656 3.67513 1.61725 3.28316C2.39385 2.72953 3.28781 2.27919 4.13242 1.83788C4.18638 1.80933 4.24139 1.78161 4.29576 1.75306Z" fill="url(#paint_linear_77)" fill-rule="nonzero" transform="matrix(1,0,0,-1,26.4961,21.5679)" />
				<path id="path36" d="M0.588301 3.90532C0.0220718 4.56203 -0.195435 5.317 0.206406 6.24203C0.34749 6.53134 0.559538 6.82002 0.808954 7.06902C1.05732 7.3178 1.34474 7.52943 1.63363 7.67052C1.67079 7.68647 1.70921 7.70264 1.74595 7.7167C2.0298 7.8263 2.3 7.87794 2.5532 7.87794C4.55022 7.87794 5.66672 4.72453 7.04188 2.36682C7.3083 1.90977 7.58438 1.48231 7.87852 1.11386C6.83781 2.20222 6.32197 3.15593 5.43851 4.06941C5.21722 4.29112 4.90482 4.42422 4.61446 4.42422C4.3239 4.42422 4.03333 4.31337 3.81183 4.09167C3.36864 3.64847 3.34302 2.90462 3.78622 2.46121C4.69886 1.57796 5.67596 1.04373 6.76496 0.00239277C4.99951 1.41114 1.88368 2.40839 0.588301 3.90532ZM3.66508 2.26974C3.13454 2.79986 3.0999 3.69319 3.63044 4.22309C3.8956 4.48847 4.26994 4.64761 4.61845 4.64761C4.96613 4.64761 5.31338 4.51471 5.57707 4.24808C5.75217 4.04674 5.95225 3.80782 6.11832 3.59892C6.09228 3.64868 6.06667 3.69801 6.04085 3.74735C5.59933 4.59218 5.14899 5.48593 4.59536 6.26252C4.20297 6.8128 3.65815 7.43949 2.97792 7.61899C2.87211 7.64692 2.76672 7.66287 2.66195 7.66833C2.37201 7.66833 2.00188 7.59443 1.72978 7.46888C1.44867 7.33934 1.18665 7.13003 0.968306 6.91189C0.74996 6.69334 0.540432 6.4309 0.410894 6.14915C0.284925 5.87517 0.207035 5.5888 0.208281 5.29677C0.208715 5.16534 0.22509 5.03349 0.260363 4.90038C0.439447 4.22057 1.06656 3.67513 1.61725 3.28316C2.39385 2.72953 3.28781 2.27919 4.13242 1.83788C4.18638 1.80933 4.24139 1.78161 4.29576 1.75306C4.08267 1.92144 3.87167 2.09276 3.66508 2.26974Z" fill-rule="nonzero" stroke="rgb(0,0,0)" stroke-opacity="0" stroke-width="1" transform="matrix(1,0,0,-1,26.4961,21.5679)" />
				<path id="path39" d="M4.08684 0C4.03246 0.028553 3.97809 0.0566864 3.92413 0.0852394C3.07888 0.526548 2.18493 0.976886 1.40896 1.53052C0.858265 1.92249 0.231153 2.46793 0.0520668 3.14774C0.0167961 3.28085 0.000419617 3.41333 0 3.54476C0.0377903 3.75953 0.108753 3.97011 0.2026 4.17481C0.352713 4.50023 0.594152 4.80255 0.846298 5.0547C1.09782 5.30642 1.39993 5.54807 1.72451 5.69756C1.96049 5.8061 2.20466 5.88378 2.45366 5.91569C2.55842 5.91023 2.66381 5.89428 2.76963 5.86635C3.44986 5.68685 3.99467 5.06015 4.38706 4.50988C4.94069 3.73287 5.39103 2.83912 5.83255 1.99471C5.85838 1.94537 5.88399 1.89604 5.91002 1.84628C5.74395 2.05518 5.57516 2.26113 5.40006 2.46247C5.13637 2.72911 4.75783 2.89497 4.41016 2.89497C4.06165 2.89497 3.71292 2.76165 3.44776 2.49628C2.91722 1.96637 2.89161 1.08081 3.42214 0.550693C3.62873 0.373707 3.87374 0.168378 4.08684 0Z" fill="url(#paint_linear_78)" fill-rule="nonzero" transform="matrix(1,0,0,-1,26.7178,19.8081)" />
				<path id="path39" d="M3.92413 0.0852394C3.07888 0.526548 2.18493 0.976886 1.40896 1.53052C0.858265 1.92249 0.231153 2.46793 0.0520668 3.14774C0.0167961 3.28085 0.000419617 3.41333 0 3.54476C0.0377903 3.75953 0.108753 3.97011 0.2026 4.17481C0.352713 4.50023 0.594152 4.80255 0.846298 5.0547C1.09782 5.30642 1.39993 5.54807 1.72451 5.69756C1.96049 5.8061 2.20466 5.88378 2.45366 5.91569C2.55842 5.91023 2.66381 5.89428 2.76963 5.86635C3.44986 5.68685 3.99467 5.06015 4.38706 4.50988C4.94069 3.73287 5.39103 2.83912 5.83255 1.99471C5.85838 1.94537 5.88399 1.89604 5.91002 1.84628C5.74395 2.05518 5.57516 2.26113 5.40006 2.46247C5.13637 2.72911 4.75783 2.89497 4.41016 2.89497C4.06165 2.89497 3.71292 2.76165 3.44776 2.49628C2.91722 1.96637 2.89161 1.08081 3.42214 0.550693C3.62873 0.373707 3.87374 0.168378 4.08684 0C4.03246 0.028553 3.97809 0.0566864 3.92413 0.0852394Z" fill-rule="nonzero" stroke="rgb(0,0,0)" stroke-opacity="0" stroke-width="1" transform="matrix(1,0,0,-1,26.7178,19.8081)" />
				<path id="path48" d="M0.00335884 0C0.459574 0.857426 1.32435 1.67139 1.91199 2.33252C2.55989 3.06187 3.16559 3.85841 3.40892 4.82039C3.49374 5.15526 3.53593 5.52729 3.53572 5.89911C3.53572 6.25644 3.49668 6.61335 3.41899 6.93646C3.36063 7.17769 3.27875 7.41241 3.17693 7.63894C2.87271 8.31833 2.40327 8.91185 1.91199 9.46485C1.32309 10.1274 0.455585 10.9437 0 11.8037C1.27984 10.3002 4.23254 9.31369 6.0003 8.02671C6.54658 7.55937 6.986 7.03156 7.14535 6.45295C7.19364 6.27711 7.21799 6.09667 7.21799 5.91338C7.21799 5.06435 6.70152 4.36544 5.93144 3.73623C6.80713 4.35935 7.41157 5.05113 7.41472 5.90708C7.41472 5.73591 7.39057 5.56059 7.34207 5.39641C6.93666 4.02398 4.72403 2.95892 3.54412 2.34167C2.68376 1.89238 1.78077 1.43596 0.989061 0.872878C0.642439 0.6264 0.290146 0.336966 0.00335884 0ZM6.9268 7.17676C6.8846 7.22958 6.8403 7.28165 6.7939 7.33315C6.8403 7.28165 6.88481 7.2295 6.9268 7.17676Z" fill="url(#paint_radial_15)" fill-rule="nonzero" transform="matrix(1,0,0,-1,26.9175,29.5833)" />
				<path id="path48" d="M1.91199 2.33252C2.55989 3.06187 3.16559 3.85841 3.40892 4.82039C3.49374 5.15526 3.53593 5.52729 3.53572 5.89911C3.53572 6.25644 3.49668 6.61335 3.41899 6.93646C3.36063 7.17769 3.27875 7.41241 3.17693 7.63894C2.87271 8.31833 2.40327 8.91185 1.91199 9.46485C1.32309 10.1274 0.455585 10.9437 0 11.8037C1.27984 10.3002 4.23254 9.31369 6.0003 8.02671C6.54658 7.55937 6.986 7.03156 7.14535 6.45295C7.19364 6.27711 7.21799 6.09667 7.21799 5.91338C7.21799 5.06435 6.70152 4.36544 5.93144 3.73623C6.80713 4.35935 7.41157 5.05113 7.41472 5.90708C7.41472 5.73591 7.39057 5.56059 7.34207 5.39641C6.93666 4.02398 4.72403 2.95892 3.54412 2.34167C2.68376 1.89238 1.78077 1.43596 0.989061 0.872878C0.642439 0.6264 0.290146 0.336966 0.00335884 0C0.459574 0.857426 1.32435 1.67139 1.91199 2.33252ZM6.7939 7.33315C6.8403 7.28165 6.88481 7.2295 6.9268 7.17676C6.8846 7.22958 6.8403 7.28165 6.7939 7.33315Z" fill-rule="nonzero" stroke="rgb(0,0,0)" stroke-opacity="0" stroke-width="1" transform="matrix(1,0,0,-1,26.9175,29.5833)" />
				<path id="path51" d="M5.90666 0.000966072C6.76115 0.00457668 7.44495 0.608554 8.06744 1.48382C7.43844 0.713737 6.73932 0.197476 5.89029 0.197476C5.70679 0.197476 5.52624 0.221684 5.35051 0.270224C4.77652 0.428335 4.25228 0.862485 3.78745 1.40289C2.49523 3.17065 1.50742 6.13511 0 7.41579C0.859735 6.96041 1.67601 6.09249 2.33882 5.50358C2.89203 5.01231 3.48576 4.54244 4.16536 4.23823C4.39021 4.13767 4.62325 4.05579 4.86259 3.99763C5.18738 3.91911 5.54618 3.87964 5.90519 3.87964C6.26189 3.87964 6.6188 3.91848 6.94128 3.99637C7.92216 4.23214 8.73109 4.8454 9.47115 5.50358C10.1321 6.09123 10.9456 6.95558 11.8037 7.41222C11.4671 7.12543 11.178 6.77251 10.9313 6.42567C10.3685 5.63417 9.91183 4.73119 9.46275 3.87061C8.84719 2.69134 7.78149 0.477861 6.40802 0.0726624C6.24426 0.0245218 6.07756 0.000966072 5.90666 0.000966072Z" fill="url(#paint_radial_16)" fill-rule="nonzero" transform="matrix(1,0,0,-1,30.5879,21.5054)" />
				<path id="path51" d="M8.06744 1.48382C7.43844 0.713737 6.73932 0.197476 5.89029 0.197476C5.70679 0.197476 5.52624 0.221684 5.35051 0.270224C4.77652 0.428335 4.25228 0.862485 3.78745 1.40289C2.49523 3.17065 1.50742 6.13511 0 7.41579C0.859735 6.96041 1.67601 6.09249 2.33882 5.50358C2.89203 5.01231 3.48576 4.54244 4.16536 4.23823C4.39021 4.13767 4.62325 4.05579 4.86259 3.99763C5.18738 3.91911 5.54618 3.87964 5.90519 3.87964C6.26189 3.87964 6.6188 3.91848 6.94128 3.99637C7.92216 4.23214 8.73109 4.8454 9.47115 5.50358C10.1321 6.09123 10.9456 6.95558 11.8037 7.41222C11.4671 7.12543 11.178 6.77251 10.9313 6.42567C10.3685 5.63417 9.91183 4.73119 9.46275 3.87061C8.84719 2.69134 7.78149 0.477861 6.40802 0.0726624C6.24426 0.0245218 6.07756 0.000966072 5.90666 0.000966072C6.76115 0.00457668 7.44495 0.608554 8.06744 1.48382Z" fill-rule="nonzero" stroke="rgb(0,0,0)" stroke-opacity="0" stroke-width="1" transform="matrix(1,0,0,-1,30.5879,21.5054)" />
				<path id="path57" d="M7.41135 0C7.15018 0.306943 6.834 0.573786 6.5174 0.805358C5.11474 1.83767 3.03857 2.65416 1.60883 3.63335C0.889336 4.1366 0.270622 4.72739 0.0730591 5.39019C0.0291824 5.53888 0.00419617 5.69252 0 5.85208C0.02771 5.02152 0.624592 4.34528 1.48181 3.73581C0.71172 4.36502 0.195461 5.06393 0.195461 5.91296C0.195461 6.09625 0.219604 6.27659 0.268101 6.45253C0.424091 7.01917 0.849026 7.53712 1.37956 7.99732C1.46963 8.06507 1.56201 8.13141 1.65585 8.1962C2.81266 8.97763 4.37468 9.65723 5.66165 10.43C5.92346 10.5869 6.17917 10.7508 6.42439 10.9251C6.77039 11.1718 7.1231 11.46 7.40947 11.796C6.95283 10.9396 6.08847 10.126 5.50146 9.46555C5.01019 8.91254 4.54011 8.31881 4.23611 7.63963C4.1347 7.4131 4.05262 7.17838 3.99446 6.93715C3.83574 6.27833 3.83826 5.47822 4.00433 4.82088C4.24787 3.8589 4.85357 3.06236 5.50146 2.333C6.08868 1.67188 6.95493 0.857425 7.41135 0Z" fill="url(#paint_radial_17)" fill-rule="nonzero" transform="matrix(1,0,0,-1,38.6777,29.5833)" />
				<path id="path57" d="M6.5174 0.805358C5.11474 1.83767 3.03857 2.65416 1.60883 3.63335C0.889336 4.1366 0.270622 4.72739 0.0730591 5.39019C0.0291824 5.53888 0.00419617 5.69252 0 5.85208C0.02771 5.02152 0.624592 4.34528 1.48181 3.73581C0.71172 4.36502 0.195461 5.06393 0.195461 5.91296C0.195461 6.09625 0.219604 6.27659 0.268101 6.45253C0.424091 7.01917 0.849026 7.53712 1.37956 7.99732C1.46963 8.06507 1.56201 8.13141 1.65585 8.1962C2.81266 8.97763 4.37468 9.65723 5.66165 10.43C5.92346 10.5869 6.17917 10.7508 6.42439 10.9251C6.77039 11.1718 7.1231 11.46 7.40947 11.796C6.95283 10.9396 6.08847 10.126 5.50146 9.46555C5.01019 8.91254 4.54011 8.31881 4.23611 7.63963C4.1347 7.4131 4.05262 7.17838 3.99446 6.93715C3.83574 6.27833 3.83826 5.47822 4.00433 4.82088C4.24787 3.8589 4.85357 3.06236 5.50146 2.333C6.08868 1.67188 6.95493 0.857425 7.41135 0C7.15018 0.306943 6.834 0.573786 6.5174 0.805358Z" fill-rule="nonzero" stroke="rgb(0,0,0)" stroke-opacity="0" stroke-width="1" transform="matrix(1,0,0,-1,38.6777,29.5833)" />
				<path id="path63" d="M11.8032 0.000776827C10.9441 0.456363 10.1281 1.32387 9.46444 1.91235C8.91395 2.40069 8.31371 2.87519 7.63852 3.17772C7.47728 3.24988 7.31226 3.31205 7.14367 3.36306C7.07292 3.38448 6.9986 3.40449 6.92659 3.4217C6.7876 3.45483 6.64211 3.48082 6.49326 3.49953C6.29885 3.52414 6.09835 3.53652 5.89806 3.53652C5.54136 3.53652 5.18486 3.49747 4.86238 3.41998C4.24052 3.27031 3.68794 2.96901 3.17798 2.60098C2.88447 2.38893 2.60188 2.15238 2.33147 1.91241C2.12488 1.72871 1.90339 1.51792 1.67034 1.30104C1.15765 0.824254 0.589113 0.317651 0 0.00377905C0.299595 0.275451 0.646849 0.673701 0.872122 0.990511C1.4352 1.7818 1.89163 2.685 2.3405 3.54557C2.72155 4.27514 3.27455 5.40004 3.96591 6.2476C4.3921 6.77058 4.8712 7.18837 5.39481 7.34289C5.42924 7.35314 5.46388 7.36225 5.49874 7.37029C5.62974 7.40054 5.76327 7.41564 5.89848 7.41564C5.728 7.41547 5.55878 7.39129 5.39481 7.34289C4.7614 7.15583 4.19538 6.58372 3.70683 5.90601C4.1937 6.49596 4.7488 6.97779 5.3608 7.14638C5.53653 7.19484 5.71687 7.21904 5.90036 7.21904C6.74141 7.21904 7.43508 6.71244 8.06073 5.95411C9.33154 4.18026 10.3126 1.27096 11.8032 0.000776827Z" fill="url(#paint_linear_79)" fill-rule="nonzero" transform="matrix(1,0,0,-1,30.6118,33.2791)" />
				<path id="path63" d="M5.39481 7.34289C4.7614 7.15583 4.19538 6.58372 3.70683 5.90601C4.1937 6.49596 4.7488 6.97779 5.3608 7.14638C5.53653 7.19484 5.71687 7.21904 5.90036 7.21904C6.74141 7.21904 7.43508 6.71244 8.06073 5.95411C9.33154 4.18026 10.3126 1.27096 11.8032 0.000776827C10.9441 0.456363 10.1281 1.32387 9.46444 1.91235C8.91395 2.40069 8.31371 2.87519 7.63852 3.17772C7.47728 3.24988 7.31226 3.31205 7.14367 3.36306C7.07292 3.38448 6.9986 3.40449 6.92659 3.4217C6.7876 3.45483 6.64211 3.48082 6.49326 3.49953C6.29885 3.52414 6.09835 3.53652 5.89806 3.53652C5.54136 3.53652 5.18486 3.49747 4.86238 3.41998C4.24052 3.27031 3.68794 2.96901 3.17798 2.60098C2.88447 2.38893 2.60188 2.15238 2.33147 1.91241C2.12488 1.72871 1.90339 1.51792 1.67034 1.30104C1.15765 0.824254 0.589113 0.317651 0 0.00377905C0.299595 0.275451 0.646849 0.673701 0.872122 0.990511C1.4352 1.7818 1.89163 2.685 2.3405 3.54557C2.72155 4.27514 3.27455 5.40004 3.96591 6.2476C4.3921 6.77058 4.8712 7.18837 5.39481 7.34289C5.55878 7.39129 5.728 7.41547 5.89848 7.41564C5.76327 7.41564 5.62974 7.40054 5.49874 7.37029C5.46388 7.36225 5.42924 7.35314 5.39481 7.34289" fill-rule="nonzero" stroke="rgb(0,0,0)" stroke-opacity="0" stroke-width="1" transform="matrix(1,0,0,-1,30.6118,33.2791)" />
				<path id="path72" d="M1.48223 0.000483513C0.625015 0.610381 0.0281334 1.28662 0.000419617 2.11675C0.000419617 2.28776 0.0241432 2.50278 0.0724335 2.66675C0.247528 3.25944 0.75959 3.79501 1.37999 4.26151C0.849449 3.80131 0.424515 3.28337 0.268524 2.71672C0.220024 2.54089 0.195881 2.36044 0.195881 2.17716C0.195881 1.32813 0.712143 0.629697 1.48223 0.000483513Z" fill="url(#paint_linear_80)" fill-rule="nonzero" transform="matrix(1,0,0,-1,38.686,25.8489)" />
				<path id="path72" d="M0.000419617 2.11675C0.000419617 2.28776 0.0241432 2.50278 0.0724335 2.66675C0.247528 3.25944 0.75959 3.79501 1.37999 4.26151C0.849449 3.80131 0.424515 3.28337 0.268524 2.71672C0.220024 2.54089 0.195881 2.36044 0.195881 2.17716C0.195881 1.32813 0.712143 0.629697 1.48223 0.000483513C0.625015 0.610381 0.0281334 1.28662 0.000419617 2.11675Z" fill-rule="nonzero" stroke="rgb(0,0,0)" stroke-opacity="0" stroke-width="1" transform="matrix(1,0,0,-1,38.686,25.8489)" />
				<path id="path78" d="M0 0.000819206C0.770088 0.630032 1.28656 1.32895 1.28656 2.17797C1.28656 2.36126 1.26221 2.5416 1.21391 2.71754C1.05457 3.29615 0.615147 3.82396 0.0688629 4.29131C0.372658 4.07023 0.6416 3.84034 0.861204 3.59722C0.907602 3.54572 0.951902 3.49365 0.994102 3.44083C1.30063 3.05579 1.48139 2.63778 1.48328 2.17086C1.48013 1.31574 0.87569 0.624784 0 0.000819206Z" fill="url(#paint_linear_81)" fill-rule="nonzero" transform="matrix(1,0,0,-1,32.8413,25.8491)" />
				<path id="path78" d="M1.28656 2.17797C1.28656 2.36126 1.26221 2.5416 1.21391 2.71754C1.05457 3.29615 0.615147 3.82396 0.0688629 4.29131C0.372658 4.07023 0.6416 3.84034 0.861204 3.59722C0.907602 3.54572 0.951902 3.49365 0.994102 3.44083C1.30063 3.05579 1.48139 2.63778 1.48328 2.17086C1.48013 1.31574 0.87569 0.624784 0 0.000819206C0.770088 0.630032 1.28656 1.32895 1.28656 2.17797Z" fill-rule="nonzero" stroke="rgb(0,0,0)" stroke-opacity="0" stroke-width="1" transform="matrix(1,0,0,-1,32.8413,25.8491)" />
				<path id="path99" d="M2.45366 0C2.41629 0.214985 2.34533 0.425774 2.25106 0.630682C2.10137 0.9561 1.85951 1.25842 1.60757 1.51057C1.35605 1.7623 1.05394 2.00395 0.729359 2.15343C0.493168 2.26197 0.24921 2.33965 0 2.37157C0.290359 2.37157 0.660286 2.2962 0.932377 2.17065C1.21371 2.0409 1.47572 1.83179 1.69344 1.61366C1.91241 1.3951 2.12152 1.13267 2.25148 0.850916C2.33861 0.661335 2.40264 0.465874 2.4335 0.266632C2.44631 0.182863 2.45324 0.0848198 2.45366 0Z" opacity="0.850000024" fill="rgb(255,255,255)" fill-rule="nonzero" transform="matrix(1,0,0,-1,43.8452,16.26)" />
				<path id="path99" d="M2.25106 0.630682C2.10137 0.9561 1.85951 1.25842 1.60757 1.51057C1.35605 1.7623 1.05394 2.00395 0.729359 2.15343C0.493168 2.26197 0.24921 2.33965 0 2.37157C0.290359 2.37157 0.660286 2.2962 0.932377 2.17065C1.21371 2.0409 1.47572 1.83179 1.69344 1.61366C1.91241 1.3951 2.12152 1.13267 2.25148 0.850916C2.33861 0.661335 2.40264 0.465874 2.4335 0.266632C2.44631 0.182863 2.45324 0.0848198 2.45366 0C2.41629 0.214985 2.34533 0.425774 2.25106 0.630682Z" opacity="0.850000024" fill-rule="nonzero" stroke="rgb(0,0,0)" stroke-opacity="0" stroke-width="1" transform="matrix(1,0,0,-1,43.8452,16.26)" />
				<path id="path108" d="M2.3674 0C2.23723 0 2.10811 0.0157461 1.98068 0.0442779C1.82448 0.0795491 1.671 0.134156 1.52131 0.203229C1.39366 0.262014 1.27 0.337134 1.15264 0.422204C1.07916 0.475342 1.0082 0.532259 0.940386 0.591485C0.877401 0.64626 0.817148 0.702925 0.759832 0.760262C0.725821 0.794294 0.692019 0.829314 0.658846 0.865236C0.554712 0.977998 0.455408 1.10017 0.36891 1.22886C0.305296 1.32376 0.248819 1.42225 0.202421 1.523C0.0823307 1.79026 -0.00122833 2.09028 1.52588e-05 2.37476C0.0376129 2.15998 0.108574 1.94919 0.202421 1.74471C0.352533 1.4195 0.593973 1.11696 0.846121 0.864816C1.09764 0.612879 1.39975 0.371649 1.72433 0.221956C1.96262 0.111986 2.11567 0.0310512 2.3674 0Z" opacity="0.939999998" fill="rgb(230,230,230)" fill-rule="nonzero" transform="matrix(1,0,0,-1,26.7158,33.4736)" />
				<path id="path108" d="M1.98068 0.0442779C1.82448 0.0795491 1.671 0.134156 1.52131 0.203229C1.39366 0.262014 1.27 0.337134 1.15264 0.422204C1.07916 0.475342 1.0082 0.532259 0.940386 0.591485C0.877401 0.64626 0.817148 0.702925 0.759832 0.760262C0.725821 0.794294 0.692019 0.829314 0.658846 0.865236C0.554712 0.977998 0.455408 1.10017 0.36891 1.22886C0.305296 1.32376 0.248819 1.42225 0.202421 1.523C0.0823307 1.79026 -0.00122833 2.09028 1.52588e-05 2.37476C0.0376129 2.15998 0.108574 1.94919 0.202421 1.74471C0.352533 1.4195 0.593973 1.11696 0.846121 0.864816C1.09764 0.612879 1.39975 0.371649 1.72433 0.221956C1.96262 0.111986 2.11567 0.0310512 2.3674 0C2.23723 0 2.10811 0.0157461 1.98068 0.0442779Z" opacity="0.939999998" fill-rule="nonzero" stroke="rgb(0,0,0)" stroke-opacity="0" stroke-width="1" transform="matrix(1,0,0,-1,26.7158,33.4736)" />
				<path id="path123" d="M2.10997 0.000105858C1.28194 0.00380039 0.606747 0.570743 0 1.40193C0.464821 0.86152 0.989059 0.427349 1.56306 0.269258C1.73878 0.220718 1.91934 0.196511 2.10283 0.196511C2.95165 0.196511 3.65078 0.712982 4.27999 1.48286C3.65707 0.607589 2.96404 0.00367546 2.10997 0.000105858Z" fill="url(#paint_linear_82)" fill-rule="nonzero" transform="matrix(1,0,0,-1,34.3843,21.5046)" />
				<path id="path123" d="M0 1.40193C0.464821 0.86152 0.989059 0.427349 1.56306 0.269258C1.73878 0.220718 1.91934 0.196511 2.10283 0.196511C2.95165 0.196511 3.65078 0.712982 4.27999 1.48286C3.65707 0.607589 2.96404 0.00367546 2.10997 0.000105858C1.28194 0.00380039 0.606747 0.570743 0 1.40193Z" fill-rule="nonzero" stroke="rgb(0,0,0)" stroke-opacity="0" stroke-width="1" transform="matrix(1,0,0,-1,34.3843,21.5046)" />
				<path id="path132" d="M0.000839233 0C0.489388 0.677711 1.0575 1.24982 1.69092 1.43688C1.85489 1.48527 2.02305 1.50946 2.19353 1.50963C3.04445 1.50914 3.73349 0.914006 4.35389 0.048183C3.72909 0.806513 3.03542 1.31312 2.19353 1.31312C2.01004 1.31312 1.82969 1.28891 1.65396 1.24045C1.04197 1.07191 0.487705 0.589952 0.000839233 0Z" fill="url(#paint_radial_18)" fill-rule="nonzero" transform="matrix(1,0,0,-1,34.3101,27.3726)" />
				<path id="path132" d="M1.69092 1.43688C1.85489 1.48527 2.02305 1.50946 2.19353 1.50963C3.04445 1.50914 3.73349 0.914006 4.35389 0.048183C3.72909 0.806513 3.03542 1.31312 2.19353 1.31312C2.01004 1.31312 1.82969 1.28891 1.65396 1.24045C1.04197 1.07191 0.487705 0.589952 0.000839233 0C0.489388 0.677711 1.0575 1.24982 1.69092 1.43688Z" fill-rule="nonzero" stroke="rgb(0,0,0)" stroke-opacity="0" stroke-width="1" transform="matrix(1,0,0,-1,34.3101,27.3726)" />
				<path id="path117" d="M0.0934296 0C0.345158 0.0310722 0.498207 0.111965 0.736706 0.221915C1.06129 0.371586 1.3634 0.612837 1.61492 0.864774C1.86686 1.11692 2.10872 1.41946 2.25841 1.74466C2.35267 1.94936 2.42363 2.16036 2.46101 2.37535C2.45975 2.08793 2.38269 1.79232 2.25883 1.52296C2.12887 1.241 1.91976 0.978775 1.70121 0.76001C1.48307 0.542085 1.22105 0.332557 0.939728 0.202809C0.667843 0.0776596 0.383366 0 0.0934296 0Z" opacity="0.449999988" fill="rgb(236,236,236)" fill-rule="nonzero" transform="matrix(1,0,0,-1,43.833,33.4736)" />
				<path id="path117" d="M0.736706 0.221915C1.06129 0.371586 1.3634 0.612837 1.61492 0.864774C1.86686 1.11692 2.10872 1.41946 2.25841 1.74466C2.35267 1.94936 2.42363 2.16036 2.46101 2.37535C2.45975 2.08793 2.38269 1.79232 2.25883 1.52296C2.12887 1.241 1.91976 0.978775 1.70121 0.76001C1.48307 0.542085 1.22105 0.332557 0.939728 0.202809C0.667843 0.0776596 0.383366 0 0.0934296 0C0.345158 0.0310722 0.498207 0.111965 0.736706 0.221915Z" opacity="0.449999988" fill-rule="nonzero" stroke="rgb(0,0,0)" stroke-opacity="0" stroke-width="1" transform="matrix(1,0,0,-1,43.833,33.4736)" />
				<path id="path87" d="M5.72205e-06 0C-0.000825882 0.291407 0.0768528 0.577145 0.202612 0.850286C0.33215 1.13204 0.541677 1.39447 0.760233 1.61303C0.978369 1.83116 1.24038 2.04027 1.5215 2.17002C1.79338 2.29556 2.07786 2.37325 2.36822 2.37325C2.11922 2.34133 1.9605 2.26134 1.72452 2.1528C1.39994 2.00332 1.09783 1.76167 0.846312 1.50994C0.594164 1.2578 0.352724 0.955471 0.202612 0.630053C0.108767 0.425354 0.0378036 0.214775 5.72205e-06 0Z" opacity="0.0599999987" fill="rgb(250,195,202)" fill-rule="nonzero" transform="matrix(1,0,0,-1,26.7109,16.26)" />
				<path id="path87" d="M0.202612 0.850286C0.33215 1.13204 0.541677 1.39447 0.760233 1.61303C0.978369 1.83116 1.24038 2.04027 1.5215 2.17002C1.79338 2.29556 2.07786 2.37325 2.36822 2.37325C2.11922 2.34133 1.9605 2.26134 1.72452 2.1528C1.39994 2.00332 1.09783 1.76167 0.846312 1.50994C0.594164 1.2578 0.352724 0.955471 0.202612 0.630053C0.108767 0.425354 0.0378036 0.214775 5.72205e-06 0C-0.000825882 0.291407 0.0768528 0.577145 0.202612 0.850286Z" opacity="0.0599999987" fill-rule="nonzero" stroke="rgb(0,0,0)" stroke-opacity="0" stroke-width="1" transform="matrix(1,0,0,-1,26.7109,16.26)" />
			</g>
		</g>
	</g>
</svg>
