<svg viewBox="0 0 48 48" xmlns="http://www.w3.org/2000/svg" xmlns:xlink="http://www.w3.org/1999/xlink" width="48.000000" height="48.000000" fill="none">
	<rect id="语言图标/JavaScript48" width="48.000000" height="48.000000" x="0.000000" y="0.000000" />
	<g id="模型/JavaScript48">
		<g id="编组">
			<path id="路径" d="M8 8L40 8L40 40L8 40L8 8Z" fill="rgb(244,223,30)" fill-rule="nonzero" />
			<path id="路径" d="M40 8L40 40L8 40L8 8L40 8Z" fill-rule="nonzero" stroke="rgb(0,0,0)" stroke-opacity="0" stroke-width="1" />
			<path id="形状" d="M16.7999 35.6085L19.3074 34.1039C19.7912 34.9543 20.2313 35.6738 21.2868 35.6738C22.2986 35.6738 22.9367 35.2814 22.9367 33.755L22.9367 23.3746L26.0159 23.3746L26.0159 33.7982C26.0159 36.9602 24.1464 38.3996 21.4188 38.3996C18.9555 38.3996 17.5258 37.135 16.7999 35.6085ZM30.1956 33.8421C30.8557 34.9107 31.7135 35.6958 33.2311 35.6958C34.5071 35.6958 35.3206 35.0633 35.3206 34.1909C35.3206 33.1442 34.4848 32.7734 33.0771 32.163L32.3074 31.8356C30.0858 30.8982 28.6122 29.7205 28.6122 27.2345C28.6122 24.9446 30.3718 23.2 33.1212 23.2C35.0788 23.2 36.4865 23.8761 37.4982 25.6425L35.1006 27.1691C34.5726 26.2314 34.001 25.8607 33.1211 25.8607C32.2193 25.8607 31.6474 26.4277 31.6474 27.1691C31.6474 28.085 32.2193 28.4559 33.5389 29.0229L34.3087 29.35C36.9262 30.4623 38.3998 31.5961 38.3998 34.1474C38.3998 36.8954 36.2223 38.4 33.297 38.4C30.4377 38.4 28.59 37.0479 27.6883 35.2814L30.1956 33.8421Z" fill="rgb(37,43,58)" fill-rule="nonzero" />
			<path id="形状" d="M19.3074 34.1039C19.7912 34.9543 20.2313 35.6738 21.2868 35.6738C22.2986 35.6738 22.9367 35.2814 22.9367 33.755L22.9367 23.3746L26.0159 23.3746L26.0159 33.7982C26.0159 36.9602 24.1464 38.3996 21.4188 38.3996C18.9555 38.3996 17.5258 37.135 16.7999 35.6085L19.3074 34.1039ZM33.2311 35.6958C34.5071 35.6958 35.3206 35.0633 35.3206 34.1909C35.3206 33.1442 34.4848 32.7734 33.0771 32.163L32.3074 31.8356C30.0858 30.8982 28.6122 29.7205 28.6122 27.2345C28.6122 24.9446 30.3718 23.2 33.1212 23.2C35.0788 23.2 36.4865 23.8761 37.4982 25.6425L35.1006 27.1691C34.5726 26.2314 34.001 25.8607 33.1211 25.8607C32.2193 25.8607 31.6474 26.4277 31.6474 27.1691C31.6474 28.085 32.2193 28.4559 33.5389 29.0229L34.3087 29.35C36.9262 30.4623 38.3998 31.5961 38.3998 34.1474C38.3998 36.8954 36.2223 38.4 33.297 38.4C30.4377 38.4 28.59 37.0479 27.6883 35.2814L30.1956 33.8421C30.8557 34.9107 31.7135 35.6958 33.2311 35.6958Z" fill-rule="nonzero" stroke="rgb(0,0,0)" stroke-opacity="0" stroke-width="1" />
		</g>
	</g>
</svg>
