<svg viewBox="0 0 48 48" xmlns="http://www.w3.org/2000/svg" xmlns:xlink="http://www.w3.org/1999/xlink" width="48.000000" height="48.000000" fill="none">
	<rect id="语言图标/LUA" width="48.000000" height="48.000000" x="0.000000" y="0.000000" />
	<g id="模型/LUA">
		<g id="Lua-Logo">
			<path id="路径" d="M39.4568 23.442C39.4568 15.1524 32.7272 8.42285 24.4376 8.42285C16.148 8.42285 9.41846 15.1524 9.41846 23.442C9.41846 31.7316 16.148 38.4612 24.4376 38.4612C32.7272 38.4612 39.4568 31.7316 39.4568 23.442Z" fill="rgb(0,0,128)" fill-rule="nonzero" />
			<path id="路径" d="M24.4376 8.42285C16.148 8.42285 9.41846 15.1524 9.41846 23.442C9.41846 31.7316 16.148 38.4612 24.4376 38.4612C32.7272 38.4612 39.4568 31.7316 39.4568 23.442C39.4568 15.1524 32.7272 8.42285 24.4376 8.42285Z" fill-rule="nonzero" stroke="rgb(0,0,0)" stroke-opacity="0" stroke-width="1" />
			<path id="路径" d="M35.0589 17.2184C35.0589 14.7913 33.0882 12.8206 30.6611 12.8206C28.2339 12.8206 26.2632 14.7913 26.2632 17.2184C26.2632 19.6456 28.2339 21.6163 30.6611 21.6163C33.0882 21.6163 35.0589 19.6456 35.0589 17.2184Z" fill="rgb(255,255,255)" fill-rule="nonzero" />
			<path id="路径" d="M30.6611 12.8206C28.2339 12.8206 26.2632 14.7913 26.2632 17.2184C26.2632 19.6456 28.2339 21.6163 30.6611 21.6163C33.0882 21.6163 35.0589 19.6456 35.0589 17.2184C35.0589 14.7913 33.0882 12.8206 30.6611 12.8206Z" fill-rule="nonzero" stroke="rgb(0,0,0)" stroke-opacity="0" stroke-width="1" />
			<path id="路径" d="M43.8548 8.41862C43.8548 5.9915 41.8841 4.02075 39.457 4.02075C37.0298 4.02075 35.0591 5.9915 35.0591 8.41862C35.0591 10.8458 37.0298 12.8165 39.457 12.8165C41.8841 12.8165 43.8548 10.8499 43.8548 8.41862Z" fill="rgb(0,0,128)" fill-rule="nonzero" />
			<path id="路径" d="M39.457 4.02075C37.0298 4.02075 35.0591 5.9915 35.0591 8.41862C35.0591 10.8458 37.0298 12.8165 39.457 12.8165C41.8841 12.8165 43.8548 10.8499 43.8548 8.41862C43.8548 5.9915 41.8841 4.02075 39.457 4.02075Z" fill-rule="nonzero" stroke="rgb(0,0,0)" stroke-opacity="0" stroke-width="1" />
			<g id="编组">
				<path id="路径" d="M15.5008 29.8395L20.3675 29.8395L20.3675 30.9472L14.2437 30.9472L14.2437 21.0935L15.5008 21.0935L15.5008 29.8395Z" fill="rgb(255,255,255)" fill-rule="nonzero" />
				<path id="路径" d="M20.3675 29.8395L20.3675 30.9472L14.2437 30.9472L14.2437 21.0935L15.5008 21.0935L15.5008 29.8395L20.3675 29.8395Z" fill-rule="nonzero" stroke="rgb(0,0,0)" stroke-opacity="0" stroke-width="1" />
				<path id="路径" d="M26.1805 30.9475L26.1805 29.96C25.5167 30.8935 24.857 31.2586 23.8156 31.2586C22.4382 31.2586 21.5586 30.5035 21.5586 29.3252L21.5586 23.8652L22.6788 23.8652L22.6788 28.8813C22.6788 29.7318 23.2472 30.2753 24.1392 30.2753C25.3134 30.2753 26.0726 29.3294 26.0726 27.8814L26.0726 23.8652L27.1928 23.8652L27.1928 30.9475L26.1805 30.9475Z" fill="rgb(255,255,255)" fill-rule="nonzero" />
				<path id="路径" d="M26.1805 29.96C25.5167 30.8935 24.857 31.2586 23.8156 31.2586C22.4382 31.2586 21.5586 30.5035 21.5586 29.3252L21.5586 23.8652L22.6788 23.8652L22.6788 28.8813C22.6788 29.7318 23.2472 30.2753 24.1392 30.2753C25.3134 30.2753 26.0726 29.3294 26.0726 27.8814L26.0726 23.8652L27.1928 23.8652L27.1928 30.9475L26.1805 30.9475L26.1805 29.96Z" fill-rule="nonzero" stroke="rgb(0,0,0)" stroke-opacity="0" stroke-width="1" />
				<path id="形状" d="M35.4283 31.1382C35.0632 31.2337 34.889 31.2586 34.6566 31.2586C33.9264 31.2586 33.5738 30.9349 33.4949 30.2172C32.6983 30.9474 31.9806 31.2586 31.0885 31.2586C29.6572 31.2586 28.7651 30.4495 28.7651 29.1634C28.7651 28.2423 29.1842 27.6075 30.0098 27.2714C30.4413 27.0972 30.6861 27.0432 32.2793 26.84C33.1713 26.7321 33.4534 26.5288 33.4534 26.0558L33.4534 25.7571C33.4534 25.0808 32.885 24.7032 31.8727 24.7032C30.8189 24.7032 30.3044 25.0932 30.209 25.9604L29.0722 25.9604C29.1012 25.2592 29.234 24.8526 29.5576 24.4875C30.0306 23.9606 30.8811 23.6619 31.91 23.6619C33.6526 23.6619 34.5736 24.3381 34.5736 25.5953L34.5736 29.7608C34.5736 30.1135 34.7894 30.3168 35.1835 30.3168C35.2499 30.3168 35.3039 30.3168 35.4283 30.2877L35.4283 31.1382ZM33.4534 27.4457C33.0759 27.6199 32.8311 27.6739 31.6404 27.8357C30.4372 28.01 29.9351 28.3917 29.9351 29.1343C29.9351 29.8521 30.4496 30.2711 31.3292 30.2711C31.993 30.2711 32.5448 30.0554 33.0053 29.6363C33.3414 29.3252 33.4534 29.097 33.4534 28.7153L33.4534 27.4457Z" fill="rgb(255,255,255)" fill-rule="nonzero" />
				<path id="形状" d="M34.6566 31.2586C33.9264 31.2586 33.5738 30.9349 33.4949 30.2172C32.6983 30.9474 31.9806 31.2586 31.0885 31.2586C29.6572 31.2586 28.7651 30.4495 28.7651 29.1634C28.7651 28.2423 29.1842 27.6075 30.0098 27.2714C30.4413 27.0972 30.6861 27.0432 32.2793 26.84C33.1713 26.7321 33.4534 26.5288 33.4534 26.0558L33.4534 25.7571C33.4534 25.0808 32.885 24.7032 31.8727 24.7032C30.8189 24.7032 30.3044 25.0932 30.209 25.9604L29.0722 25.9604C29.1012 25.2592 29.234 24.8526 29.5576 24.4875C30.0306 23.9606 30.8811 23.6619 31.91 23.6619C33.6526 23.6619 34.5736 24.3381 34.5736 25.5953L34.5736 29.7608C34.5736 30.1135 34.7894 30.3168 35.1835 30.3168C35.2499 30.3168 35.3039 30.3168 35.4283 30.2877L35.4283 31.1382C35.0632 31.2337 34.889 31.2586 34.6566 31.2586ZM31.6404 27.8357C30.4372 28.01 29.9351 28.3917 29.9351 29.1343C29.9351 29.8521 30.4496 30.2711 31.3292 30.2711C31.993 30.2711 32.5448 30.0554 33.0053 29.6363C33.3414 29.3252 33.4534 29.097 33.4534 28.7153L33.4534 27.4457C33.0759 27.6199 32.8311 27.6739 31.6404 27.8357Z" fill-rule="nonzero" stroke="rgb(0,0,0)" stroke-opacity="0" stroke-width="1" />
			</g>
			<path id="路径" d="M41.743 14.6213C43.1329 17.3513 43.8589 20.3717 43.8589 23.4378C43.8589 34.1586 35.1586 42.8589 24.4378 42.8589C13.7169 42.8589 5.0166 34.1586 5.0166 23.4378C5.0166 12.7169 13.7169 4.0166 24.4378 4.0166C27.8855 4.0166 31.2669 4.93352 34.2376 6.66777" stroke="rgb(128,128,128)" stroke-dasharray="1.69474 " stroke-width="0.5" />
		</g>
	</g>
</svg>
