<svg viewBox="0 0 48 48" xmlns="http://www.w3.org/2000/svg" xmlns:xlink="http://www.w3.org/1999/xlink" width="48.000000" height="48.000000" fill="none">
	<defs>
		<linearGradient id="paint_linear_86" x1="23.3627052" x2="33.3798828" y1="24.0292091" y2="33.4018135" gradientUnits="userSpaceOnUse">
			<stop stop-color="rgb(255,217,6)" offset="0" stop-opacity="1" />
			<stop stop-color="rgb(255,199,0)" offset="1" stop-opacity="1" />
		</linearGradient>
		<linearGradient id="paint_linear_87" x1="16.8764229" x2="27.2000237" y1="10.0405712" y2="24.1485252" gradientUnits="userSpaceOnUse">
			<stop stop-color="rgb(24,123,182)" offset="0" stop-opacity="1" />
			<stop stop-color="rgb(30,115,168)" offset="1" stop-opacity="1" />
		</linearGradient>
	</defs>
	<rect id="语言图标/python48" width="48.000000" height="48.000000" x="0.000000" y="0.000000" />
	<g id="模型/python48">
		<g id="编组">
			<path id="形状" d="M36.0909 32.5455L23.0909 32.5455L23.0909 33.7273L32.5455 33.7273L32.5455 36.0909C32.5455 39.3544 29.8999 42 26.6364 42L21.9091 42C18.6456 42 16 39.3544 16 36.0909L16 27.8182C16 26.5128 17.0582 25.4545 18.3636 25.4545L30.1818 25.4545C32.1399 25.4545 33.7273 23.8672 33.7273 21.9091L33.7273 17.1818C33.7273 16.7674 33.6562 16.3696 33.5255 16L36.0909 16C39.3544 16 42 18.6456 42 21.9091L42 26.6364C42 29.8999 39.3544 32.5455 36.0909 32.5455ZM28.4091 39.6364C29.3881 39.6364 30.1818 38.8427 30.1818 37.8636C30.1818 36.8846 29.3881 36.0909 28.4091 36.0909C27.43 36.0909 26.6364 36.8846 26.6364 37.8636C26.6364 38.8427 27.43 39.6364 28.4091 39.6364Z" fill="url(#paint_linear_86)" fill-rule="evenodd" />
			<path id="形状" d="M23.0909 32.5455L23.0909 33.7273L32.5455 33.7273L32.5455 36.0909C32.5455 39.3544 29.8999 42 26.6364 42L21.9091 42C18.6456 42 16 39.3544 16 36.0909L16 27.8182C16 26.5128 17.0582 25.4545 18.3636 25.4545L30.1818 25.4545C32.1399 25.4545 33.7273 23.8672 33.7273 21.9091L33.7273 17.1818C33.7273 16.7674 33.6562 16.3696 33.5255 16L36.0909 16C39.3544 16 42 18.6456 42 21.9091L42 26.6364C42 29.8999 39.3544 32.5455 36.0909 32.5455L23.0909 32.5455ZM30.1818 37.8636C30.1818 36.8846 29.3881 36.0909 28.4091 36.0909C27.43 36.0909 26.6364 36.8846 26.6364 37.8636C26.6364 38.8427 27.43 39.6364 28.4091 39.6364C29.3881 39.6364 30.1818 38.8427 30.1818 37.8636Z" fill-rule="evenodd" stroke="rgb(0,0,0)" stroke-opacity="0" stroke-width="1" />
			<path id="形状" d="M11.9091 15.4545L24.9091 15.4545L24.9091 14.2727L15.4545 14.2727L15.4545 11.9091C15.4545 8.64559 18.1001 6 21.3636 6L26.0909 6C29.3544 6 32 8.64559 32 11.9091L32 21.3636C32 22.669 30.9418 23.7273 29.6364 23.7273L17.8182 23.7273C15.8601 23.7273 14.2727 25.3146 14.2727 27.2727L14.2727 32L11.9091 32C8.64559 32 6 29.3544 6 26.0909L6 21.3636C6 18.1001 8.64559 15.4545 11.9091 15.4545ZM19.5909 11.9091C20.57 11.9091 21.3636 11.1154 21.3636 10.1364C21.3636 9.15731 20.57 8.36364 19.5909 8.36364C18.6119 8.36364 17.8182 9.15731 17.8182 10.1364C17.8182 11.1154 18.6119 11.9091 19.5909 11.9091Z" fill="url(#paint_linear_87)" fill-rule="evenodd" />
			<path id="形状" d="M24.9091 15.4545L24.9091 14.2727L15.4545 14.2727L15.4545 11.9091C15.4545 8.64559 18.1001 6 21.3636 6L26.0909 6C29.3544 6 32 8.64559 32 11.9091L32 21.3636C32 22.669 30.9418 23.7273 29.6364 23.7273L17.8182 23.7273C15.8601 23.7273 14.2727 25.3146 14.2727 27.2727L14.2727 32L11.9091 32C8.64559 32 6 29.3544 6 26.0909L6 21.3636C6 18.1001 8.64559 15.4545 11.9091 15.4545L24.9091 15.4545ZM21.3636 10.1364C21.3636 9.15731 20.57 8.36364 19.5909 8.36364C18.6119 8.36364 17.8182 9.15731 17.8182 10.1364C17.8182 11.1154 18.6119 11.9091 19.5909 11.9091C20.57 11.9091 21.3636 11.1154 21.3636 10.1364Z" fill-rule="evenodd" stroke="rgb(0,0,0)" stroke-opacity="0" stroke-width="1" />
		</g>
	</g>
</svg>
