<svg viewBox="0 0 48 48" xmlns="http://www.w3.org/2000/svg" xmlns:xlink="http://www.w3.org/1999/xlink" width="48.000000" height="48.000000" fill="none">
	<rect id="语言图标/SQL" width="48.000000" height="48.000000" x="0.000000" y="0.000000" />
	<g id="模型/SQL">
		<g id="编组-2">
			<g id="编组">
				<path id="路径" d="M39.2115 37.6779L11.9892 37.6779C11.6803 37.6802 11.3832 37.5591 11.1639 37.3415C10.9446 37.1238 10.8213 36.8277 10.8213 36.5187L10.8213 12.6158C10.8213 11.7234 11.5447 11 12.4371 11L33.4246 11L40.5375 17.5948L40.5375 36.3431C40.5375 37.0768 39.9453 37.673 39.2115 37.6779Z" fill="rgb(19,130,210)" fill-rule="nonzero" />
				<path id="路径" d="M11.9892 37.6779C11.6803 37.6802 11.3832 37.5591 11.1639 37.3415C10.9446 37.1238 10.8213 36.8277 10.8213 36.5187L10.8213 12.6158C10.8213 11.7234 11.5447 11 12.4371 11L33.4246 11L40.5375 17.5948L40.5375 36.3431C40.5375 37.0768 39.9453 37.673 39.2115 37.6779L11.9892 37.6779Z" fill-rule="nonzero" stroke="rgb(0,0,0)" stroke-opacity="0" stroke-width="1" />
				<path id="路径" d="M33.6971 18.1217L40.5378 17.5948L33.4249 11L32.9419 17.3665C32.9419 17.7836 33.28 18.1217 33.6971 18.1217Z" fill="rgb(11,80,110)" fill-rule="nonzero" />
				<path id="路径" d="M40.5378 17.5948L33.4249 11L32.9419 17.3665C32.9419 17.7836 33.28 18.1217 33.6971 18.1217L40.5378 17.5948Z" fill-rule="nonzero" stroke="rgb(0,0,0)" stroke-opacity="0" stroke-width="1" />
				<path id="路径" d="M34.1801 17.5949L40.5378 17.5949L33.4249 11L33.4249 16.8396C33.4225 17.0406 33.5013 17.2341 33.6435 17.3763C33.7856 17.5184 33.9791 17.5972 34.1801 17.5949Z" fill="rgb(46,179,236)" fill-rule="nonzero" />
				<path id="路径" d="M40.5378 17.5949L33.4249 11L33.4249 16.8396C33.4225 17.0406 33.5013 17.2341 33.6435 17.3763C33.7856 17.5184 33.9791 17.5972 34.1801 17.5949L40.5378 17.5949Z" fill-rule="nonzero" stroke="rgb(0,0,0)" stroke-opacity="0" stroke-width="1" />
			</g>
			<g id="编组">
				<path id="形状" d="M33.7225 33.2681C33.7744 33.2119 33.8036 33.1356 33.8035 33.056L33.8035 31.556C33.8035 31.3903 33.9271 31.256 34.0796 31.256C34.2321 31.256 34.3557 31.1217 34.3557 30.956C34.3557 30.7903 34.2321 30.656 34.0796 30.656C33.6229 30.656 33.2512 31.0598 33.2512 31.556L33.2512 32.9318L33.0559 33.1439C32.9482 33.2611 32.9482 33.451 33.0559 33.5681L33.2512 33.7802L33.2512 35.156C33.2512 35.6522 33.6229 36.056 34.0796 36.056C34.2321 36.056 34.3557 35.9217 34.3557 35.756C34.3557 35.5903 34.2321 35.456 34.0796 35.456C33.9271 35.456 33.8035 35.3217 33.8035 35.156L33.8035 33.656C33.8036 33.5764 33.7744 33.5001 33.7225 33.4439L33.7225 33.2681ZM39.0291 33.2411L38.774 32.9318L38.774 31.556C38.774 31.0598 38.4023 30.656 37.9455 30.656C37.8469 30.656 37.7557 30.7132 37.7064 30.806C37.657 30.8988 37.657 31.0132 37.7064 31.106C37.7557 31.1988 37.8469 31.256 37.9455 31.256C38.0981 31.256 38.2217 31.3903 38.2217 31.556L38.2217 33.056C38.2216 33.1356 38.2508 33.2119 38.3026 33.2681L38.3026 33.4439C38.2507 33.5001 38.2216 33.5764 38.2217 33.656L38.2217 35.156C38.2217 35.3217 38.0981 35.456 37.9455 35.456C37.8469 35.456 37.7557 35.5132 37.7064 35.606C37.657 35.6988 37.657 35.8132 37.7064 35.906C37.7557 35.9988 37.8469 36.056 37.9455 36.056C38.4023 36.056 38.774 35.6522 38.774 35.156L38.774 33.7802L38.9692 33.5681C39.0482 33.4823 39.0718 33.3532 39.0291 33.2411ZM37.0335 31.3412C36.9673 31.2711 36.8733 31.2416 36.7829 31.2624C36.6925 31.2833 36.6176 31.3518 36.5834 31.445L34.9276 35.045C34.9005 35.119 34.9015 35.2016 34.9305 35.2747C34.9595 35.3478 35.0141 35.4054 35.0823 35.4347C35.224 35.4956 35.3844 35.421 35.4418 35.2676L37.0973 31.6676C37.1391 31.5549 37.1137 31.4259 37.0335 31.3412Z" fill="rgb(255,255,255)" fill-rule="nonzero" />
				<path id="形状" d="M33.8035 33.056L33.8035 31.556C33.8035 31.3903 33.9271 31.256 34.0796 31.256C34.2321 31.256 34.3557 31.1217 34.3557 30.956C34.3557 30.7903 34.2321 30.656 34.0796 30.656C33.6229 30.656 33.2512 31.0598 33.2512 31.556L33.2512 32.9318L33.0559 33.1439C32.9482 33.2611 32.9482 33.451 33.0559 33.5681L33.2512 33.7802L33.2512 35.156C33.2512 35.6522 33.6229 36.056 34.0796 36.056C34.2321 36.056 34.3557 35.9217 34.3557 35.756C34.3557 35.5903 34.2321 35.456 34.0796 35.456C33.9271 35.456 33.8035 35.3217 33.8035 35.156L33.8035 33.656C33.8036 33.5764 33.7744 33.5001 33.7225 33.4439L33.7225 33.2681C33.7744 33.2119 33.8036 33.1356 33.8035 33.056ZM38.774 32.9318L38.774 31.556C38.774 31.0598 38.4023 30.656 37.9455 30.656C37.8469 30.656 37.7557 30.7132 37.7064 30.806C37.657 30.8988 37.657 31.0132 37.7064 31.106C37.7557 31.1988 37.8469 31.256 37.9455 31.256C38.0981 31.256 38.2217 31.3903 38.2217 31.556L38.2217 33.056C38.2216 33.1356 38.2508 33.2119 38.3026 33.2681L38.3026 33.4439C38.2507 33.5001 38.2216 33.5764 38.2217 33.656L38.2217 35.156C38.2217 35.3217 38.0981 35.456 37.9455 35.456C37.8469 35.456 37.7557 35.5132 37.7064 35.606C37.657 35.6988 37.657 35.8132 37.7064 35.906C37.7557 35.9988 37.8469 36.056 37.9455 36.056C38.4023 36.056 38.774 35.6522 38.774 35.156L38.774 33.7802L38.9692 33.5681C39.0482 33.4823 39.0718 33.3532 39.0291 33.2411L38.774 32.9318ZM36.7829 31.2624C36.6925 31.2833 36.6176 31.3518 36.5834 31.445L34.9276 35.045C34.9005 35.119 34.9015 35.2016 34.9305 35.2747C34.9595 35.3478 35.0141 35.4054 35.0823 35.4347C35.224 35.4956 35.3844 35.421 35.4418 35.2676L37.0973 31.6676C37.1391 31.5549 37.1137 31.4259 37.0335 31.3412C36.9673 31.2711 36.8733 31.2416 36.7829 31.2624Z" fill-rule="nonzero" stroke="rgb(0,0,0)" stroke-opacity="0" stroke-width="1" />
				<rect id="矩形" width="26.325001" height="13.068000" x="8.000000" y="18.425049" rx="0.891000" fill="rgb(13,103,141)" />
				<rect id="矩形" width="26.325001" height="13.068000" x="8.000000" y="18.425049" rx="0.891000" stroke="rgb(0,0,0)" stroke-opacity="0" stroke-width="1" />
				<path id="SQL" d="M16.2258 25.2949Q16.2258 25.9684 15.9151 26.4878Q15.6045 27.0047 15.0041 27.2944Q14.4064 27.5816 13.5841 27.5816Q12.4408 27.5816 11.6263 27.0465Q10.8145 26.5113 10.5587 25.6238L11.3288 25.1748Q11.6159 25.9136 12.1823 26.3103Q12.7488 26.7045 13.5945 26.7045Q14.3646 26.7045 14.7901 26.3625Q15.2182 26.0206 15.2182 25.4124Q15.2182 24.919 14.9519 24.6162Q14.6857 24.3108 14.2941 24.1411Q13.9052 23.9688 13.2213 23.7652Q12.4616 23.5408 11.9944 23.3371Q11.5298 23.1335 11.2087 22.7289Q10.8902 22.3217 10.8902 21.6587Q10.8902 20.9852 11.2322 20.4997Q11.5741 20.0116 12.1771 19.761Q12.7827 19.5104 13.5293 19.5104Q14.5786 19.5104 15.2234 19.9698Q15.8708 20.4292 16.0953 21.134L15.3252 21.583Q15.0798 21.0165 14.6465 20.6955Q14.2132 20.3744 13.498 20.3744Q12.7723 20.3744 12.3337 20.7007Q11.8952 21.027 11.8952 21.5725Q11.8952 21.9798 12.1354 22.2356Q12.3755 22.4914 12.7383 22.6428Q13.1012 22.7916 13.7329 22.9743Q14.5343 23.2092 15.025 23.4337Q15.5184 23.6582 15.8708 24.1072Q16.2258 24.5562 16.2258 25.2949ZM24.7355 29.0904L23.3025 29.0904L21.2507 27.5163Q20.9192 27.5816 20.5773 27.5816Q19.5723 27.5816 18.7631 27.0908Q17.9565 26.5975 17.497 25.6786Q17.0376 24.7598 17.0376 23.5408Q17.0376 22.3322 17.497 21.4133Q17.9565 20.4919 18.7631 20.0011Q19.5723 19.5104 20.5773 19.5104Q21.5822 19.5104 22.3888 20.0089Q23.1954 20.5049 23.6549 21.4185Q24.1143 22.3322 24.1143 23.5408Q24.1143 24.8016 23.6157 25.7387Q23.1197 26.6732 22.2661 27.1535L24.7355 29.0904ZM18.0426 23.5408Q18.0426 24.47 18.3454 25.1879Q18.6508 25.9031 19.2277 26.3051Q19.8072 26.7045 20.5773 26.7045Q21.3447 26.7045 21.9164 26.3051Q22.4906 25.9031 22.7987 25.1879Q23.1093 24.47 23.1093 23.5408Q23.1093 22.5984 22.7987 21.8832Q22.4906 21.1653 21.9164 20.7712Q21.3447 20.3744 20.5773 20.3744Q19.8072 20.3744 19.2329 20.7712Q18.6613 21.1653 18.3506 21.8832Q18.0426 22.5984 18.0426 23.5408ZM25.5898 19.6383L26.5426 19.6383L26.5426 26.6079L30.4033 26.6079L30.4033 27.4641L25.5898 27.4641L25.5898 19.6383Z" fill="rgb(255,255,255)" fill-rule="nonzero" />
				<path id="SQL" d="M16.7258 25.2949Q16.7258 26.1065 16.3443 26.7445Q15.9562 27.3901 15.2214 27.7447Q14.5202 28.0816 13.5841 28.0816Q12.2912 28.0816 11.3518 27.4643Q10.3852 26.8272 10.0783 25.7623L9.97039 25.388L11.5827 24.448L11.7948 24.9937Q12.027 25.5911 12.4692 25.9008Q12.9056 26.2045 13.5945 26.2045Q14.1886 26.2045 14.4769 25.9728Q14.5978 25.8762 14.6553 25.7486Q14.7182 25.609 14.7182 25.4124Q14.7182 25.1076 14.5764 24.9464Q14.3831 24.7246 14.0953 24.5999Q13.7319 24.4389 13.0786 24.2445Q12.2903 24.0115 11.7947 23.7955Q11.2153 23.5416 10.817 23.0397Q10.3902 22.494 10.3902 21.6587Q10.3902 20.8268 10.8234 20.2118Q11.248 19.6056 11.9852 19.2992Q12.6834 19.0104 13.5293 19.0104Q14.7386 19.0104 15.5136 19.5626Q16.2965 20.1182 16.5717 20.9823L16.6933 21.3641L15.0903 22.2987L14.8664 21.7817Q14.6744 21.3384 14.3488 21.0972Q14.0481 20.8744 13.498 20.8744Q12.9379 20.8744 12.6322 21.1018Q12.5079 21.1943 12.4515 21.3065Q12.3952 21.4184 12.3952 21.5725Q12.3952 21.7818 12.4999 21.8934Q12.6668 22.0712 12.9309 22.1814Q13.266 22.3188 13.8718 22.494Q14.7095 22.7396 15.233 22.979Q15.8364 23.2536 16.2641 23.7985Q16.7258 24.3824 16.7258 25.2949ZM15.7258 25.2949Q15.7258 24.73 15.4774 24.4159Q15.2003 24.0628 14.817 23.8884Q14.359 23.6789 13.594 23.4546Q12.9364 23.2644 12.5458 23.1042Q12.0842 22.9116 11.7708 22.5778Q11.3952 22.1777 11.3952 21.5725Q11.3952 21.1811 11.5582 20.8571Q11.721 20.5334 12.0353 20.2995Q12.6067 19.8744 13.498 19.8744Q14.3782 19.8744 14.9442 20.2937Q15.4853 20.6947 15.784 21.3842L15.3252 21.583L15.0734 21.151L15.8434 20.7021L16.0953 21.134L15.6188 21.2858Q15.4451 20.7402 14.9332 20.377Q14.4187 20.0104 13.5293 20.0104Q12.8821 20.0104 12.369 20.2227Q11.9002 20.4175 11.641 20.7876Q11.3902 21.1436 11.3902 21.6587Q11.3902 22.1494 11.6003 22.4181Q11.8442 22.7254 12.1941 22.8788Q12.633 23.07 13.3639 23.286Q14.0785 23.4988 14.4929 23.6824Q14.9882 23.897 15.3274 24.286Q15.7182 24.7305 15.7182 25.4124Q15.7182 25.8239 15.567 26.1594Q15.4104 26.5069 15.1033 26.7523Q14.5406 27.2045 13.5945 27.2045Q12.5919 27.2045 11.8955 26.7199Q11.2048 26.2361 10.8627 25.356L11.3288 25.1748L11.5806 25.6068L10.8105 26.0558L10.5587 25.6238L11.0391 25.4853Q11.2438 26.1955 11.9009 26.6286Q12.5903 27.0816 13.5841 27.0816Q14.2925 27.0816 14.7868 26.8441Q15.2528 26.6192 15.486 26.2312Q15.7258 25.8303 15.7258 25.2949ZM24.7355 29.5904L23.1328 29.5904L20.9464 27.913L21.2507 27.5163L21.3473 28.0069Q20.968 28.0816 20.5773 28.0816Q19.4325 28.0816 18.5038 27.5184Q17.5733 26.9492 17.0498 25.9022Q16.5376 24.8778 16.5376 23.5408Q16.5376 22.2141 17.0498 21.1897Q17.5733 20.1397 18.5032 19.574Q19.4325 19.0104 20.5773 19.0104Q21.7243 19.0104 22.6517 19.5836Q23.5783 20.1534 24.1016 21.1939Q24.6143 22.2135 24.6143 23.5408Q24.6143 24.9263 24.0571 25.9735Q23.4927 27.037 22.5113 27.5892L22.2661 27.1535L22.5747 26.7601L26.1832 29.5904L24.7355 29.5904ZM24.7355 28.5904L24.7355 29.0904L24.427 29.4838L21.3685 27.0849L22.021 26.7177Q22.7468 26.3093 23.1743 25.5038Q23.6143 24.6768 23.6143 23.5408Q23.6143 22.4508 23.2082 21.6432Q22.8125 20.8564 22.1259 20.4343Q21.4402 20.0104 20.5773 20.0104Q19.712 20.0104 19.0229 20.4283Q18.3396 20.844 17.9443 21.6369Q17.5376 22.4502 17.5376 23.5408Q17.5376 24.6418 17.9443 25.455Q18.3396 26.2457 19.0223 26.6633Q19.712 27.0816 20.5773 27.0816Q20.8705 27.0816 21.1542 27.0257L21.3758 26.9821L23.6068 28.6937L23.3025 29.0904L23.3025 28.5904L24.7355 28.5904ZM18.5426 23.5408Q18.5426 24.3689 18.8061 24.9936Q19.0543 25.5749 19.5136 25.8949Q19.9628 26.2045 20.5773 26.2045Q21.1873 26.2045 21.63 25.8952Q22.0876 25.5749 22.3394 24.9901Q22.6093 24.3665 22.6093 23.5408Q22.6093 22.7023 22.34 22.0824Q22.0883 21.4956 21.6334 21.1834Q21.1882 20.8744 20.5773 20.8744Q19.9631 20.8744 19.5171 21.1825Q19.0632 21.4955 18.8095 22.0817Q18.5426 22.7015 18.5426 23.5408ZM17.5426 23.5408Q17.5426 22.4953 17.8917 21.6846Q18.2593 20.8351 18.9487 20.3598Q19.6513 19.8744 20.5773 19.8744Q21.5012 19.8744 22.1993 20.3589Q22.893 20.8351 23.2573 21.684Q23.6093 22.4945 23.6093 23.5408Q23.6093 24.5736 23.2579 25.3857Q22.8937 26.2313 22.2027 26.715Q21.5021 27.2045 20.5773 27.2045Q19.6516 27.2045 18.9418 26.7153Q18.2473 26.2314 17.8847 25.3822Q17.5426 24.5712 17.5426 23.5408ZM25.5898 19.1383L27.0426 19.1383L27.0426 26.6079L26.5426 26.6079L26.5426 26.1079L30.9033 26.1079L30.9033 27.9641L25.0898 27.9641L25.0898 19.1383L25.5898 19.1383ZM25.5898 20.1383L25.5898 19.6383L26.0898 19.6383L26.0898 27.4641L25.5898 27.4641L25.5898 26.9641L30.4033 26.9641L30.4033 27.4641L29.9033 27.4641L29.9033 26.6079L30.4033 26.6079L30.4033 27.1079L26.0426 27.1079L26.0426 19.6383L26.5426 19.6383L26.5426 20.1383L25.5898 20.1383Z" fill="rgb(0,0,0)" fill-opacity="0" fill-rule="nonzero" />
				<path id="" />
			</g>
		</g>
	</g>
</svg>
