<svg viewBox="0 0 32 32" xmlns="http://www.w3.org/2000/svg" xmlns:xlink="http://www.w3.org/1999/xlink" width="32.000000" height="32.000000" fill="none" customFrame="#000000">
	<mask id="mask_93" width="58.028000" height="58.022667" x="-13.330811" y="-12.666504" opacity="0.100000001" maskUnits="userSpaceOnUse">
		<g filter="url(#pixso_custom_mask_type_outline)">
			<path id="Fill 5" d="M13.9576 39.4748L15.6803 37.7514L17.4029 39.4741L15.6803 41.1968L13.9576 39.4748ZM10.8209 41.1968L8.39155 38.7668L6.66888 37.0441L8.39155 35.3221L10.8209 37.7514L13.2502 35.3221L14.9729 37.0441L13.2502 38.7674L10.8209 41.1968ZM5.96151 41.1968L4.23884 39.4748L5.96151 37.7514L7.68418 39.4741L5.96151 41.1968ZM1.10296 41.1968L-1.32704 38.7668L-3.04971 37.0441L-1.32704 35.3221L1.10296 37.7514L3.53229 35.3221L5.25496 37.0441L3.53229 38.7674L1.10296 41.1968ZM-5.4976 34.5967L-3.75626 32.8547L-2.01493 34.5967L-3.75626 36.3374L-5.4976 34.5967ZM-5.47893 29.7181L-3.75626 27.9955L-2.0336 29.7181L-3.75626 31.4408L-5.47893 29.7181ZM-5.45916 24.8762L-3.75382 23.1702L-2.04849 24.8762L-3.75382 26.5815L-5.45916 24.8762ZM-5.47893 20.0342L-3.75626 18.3115L-2.0336 20.0342L-3.75626 21.7562L-5.47893 20.0342ZM-8.61564 21.7561L-11.045 19.3261L-11.045 19.3268L-12.7676 17.6041L-11.045 15.8814L-8.61564 18.3114L-6.18564 15.8814L-4.46364 17.6041L-6.18564 19.3268L-8.61564 21.7561ZM-12.7676 12.664L-11.045 10.9414L-8.61564 13.3714L-6.18564 10.9414L-4.46364 12.664L-8.61564 16.816L-12.7676 12.664ZM-3.75626 8.51206L-2.0336 10.2347L-3.75626 11.9574L-5.47893 10.2347L-3.75626 8.51206ZM-5.45916 5.39213L-3.75382 3.68613L-2.04849 5.39213L-3.75382 7.09813L-5.45916 5.39213ZM-5.47893 0.549419L-3.75626 -1.17325L-2.0336 0.549419L-3.75626 2.27209L-5.47893 0.549419ZM-1.32704 -3.60181L1.10296 -1.17315L3.53229 -3.60181L5.25496 -1.87981L3.53229 -0.156481L3.53229 -0.157147L1.10296 2.27219L-1.32704 -0.157147L-3.04971 -1.87981L-1.32704 -3.60181ZM5.96182 -6.06923L7.70382 -4.3279L5.96182 -2.58657L4.22115 -4.3279L5.96182 -6.06923ZM4.23884 -9.20592L5.96151 -10.9286L7.68418 -9.20592L5.96151 -7.48392L4.23884 -9.20592ZM10.8209 -6.06915L13.2502 -8.49848L14.9729 -6.77648L10.8209 -2.62382L6.66888 -6.77648L8.39155 -8.49915L10.8209 -6.06915ZM15.6803 -10.9286L17.4029 -9.20592L15.6803 -7.48392L13.9576 -9.20592L15.6803 -10.9286ZM20.5396 -6.06915L22.969 -8.49848L24.6916 -6.77648L20.5396 -2.62382L16.3876 -6.77648L18.1103 -8.49915L20.5396 -6.06915ZM25.399 -10.9286L27.1217 -9.20592L25.399 -7.48392L23.6763 -9.20592L25.399 -10.9286ZM27.1403 -4.3279L25.399 -2.58657L23.6577 -4.3279L25.399 -6.06923L27.1403 -4.3279ZM30.2582 -1.17315L32.6876 -3.60181L34.4102 -1.87981L32.6876 -0.157147L30.2576 2.27219L27.8282 -0.157147L27.8282 -0.156481L26.1056 -1.87981L27.8282 -3.60181L30.2582 -1.17315ZM36.8399 0.550086L35.1173 2.27209L33.3946 0.549419L35.1173 -1.17325L36.8399 0.550086ZM36.8229 5.3928L35.1169 7.09813L33.4116 5.39213L35.1169 3.68613L36.8229 5.3928ZM36.8399 10.2354L35.1173 11.9574L33.3946 10.2347L35.1173 8.51206L36.8399 10.2354ZM39.9762 13.3714L42.4055 10.9414L44.1282 12.664L39.9762 16.816L35.8242 12.664L37.5468 10.942L39.9762 13.3714ZM44.1282 17.6041L42.4062 19.3268L42.4055 19.3261L39.9762 21.7561L37.5468 19.3261L37.5462 19.3268L35.8242 17.6041L37.5468 15.8814L39.9762 18.3114L42.4055 15.8814L44.1282 17.6041ZM35.1169 21.7562L33.3949 20.0342L35.1169 18.3115L36.8396 20.0342L35.1169 21.7562ZM36.8229 24.8768L35.1169 26.5815L33.4116 24.8762L35.1169 23.1702L36.8229 24.8768ZM36.8399 29.7188L35.1173 31.4408L33.3946 29.7181L35.1173 27.9955L36.8399 29.7188ZM36.8581 34.5967L35.1168 36.3374L33.3755 34.5967L35.1168 32.8547L36.8581 34.5967ZM32.6876 38.7668L30.2576 41.1968L27.8282 38.7668L27.8282 38.7674L26.1056 37.0441L27.8282 35.3221L30.2582 37.7514L32.6876 35.3221L34.4102 37.0441L32.6876 38.7668ZM25.399 41.1968L23.6763 39.4748L25.399 37.7514L27.1217 39.4748L25.399 41.1968ZM15.6803 32.8547L17.4216 34.5967L15.6803 36.3374L13.9389 34.5967L15.6803 32.8547ZM6.66888 32.1481L8.39155 30.4254L10.8209 32.8547L13.2502 30.4261L14.9729 32.1481L10.8209 36.2994L6.66888 32.1481ZM5.96182 32.8547L7.70382 34.5967L5.96182 36.3374L4.22115 34.5967L5.96182 32.8547ZM1.10296 32.8547L3.53229 30.4261L5.25496 32.1481L1.10296 36.2994L-3.04971 32.1481L-1.32704 30.4254L1.10296 32.8547ZM1.10296 28.0294L3.54896 25.5834L5.25496 27.2888L3.53229 29.0121L3.53229 29.0114L1.10296 31.4408L-1.32704 29.0114L-3.04971 27.2888L-1.34371 25.5828L1.10296 28.0294ZM1.10296 23.1702L3.53229 20.7408L5.25496 22.4628L3.54896 24.1695L3.53229 24.1522L1.10296 26.5815L-1.32704 24.1522L-1.34371 24.1688L-3.04971 22.4628L-1.32704 20.7408L1.10296 23.1702ZM-1.32704 15.8814L1.10296 18.3114L3.53229 15.8814L5.25496 17.6041L3.53229 19.3268L3.53229 19.3261L1.10296 21.7561L-1.32704 19.3261L-1.32704 19.3268L-3.04971 17.6041L-1.32704 15.8814ZM-1.99293 15.1341L-3.75626 16.8974L-5.5196 15.1341L-3.75626 13.3714L-1.99293 15.1341ZM1.10296 13.3714L3.53229 10.942L5.25496 12.664L1.10296 16.816L-3.04971 12.664L-1.32704 10.9414L1.10296 13.3714ZM1.10296 8.54548L3.54896 6.09948L5.25496 7.80482L3.53229 9.52815L3.53229 9.52748L1.10296 11.9575L-1.32704 9.52748L-3.04971 7.80482L-1.34371 6.09948L1.10296 8.54548ZM5.25496 2.97947L3.54896 4.68547L3.53229 4.66814L1.10296 7.09814L-1.32704 4.66814L-1.34371 4.6848L-3.04971 2.97947L-1.32704 1.2568L1.10296 3.68614L3.53229 1.25747L5.25496 2.97947ZM7.68418 0.549419L5.96151 2.27209L4.23884 0.550086L5.96151 -1.17325L7.68418 0.549419ZM14.9729 -1.87981L13.2502 -0.156481L13.2502 -0.157147L10.8209 2.27219L8.39155 -0.157147L6.66888 -1.87981L8.39155 -3.60181L10.8209 -1.17315L13.2502 -3.60181L14.9729 -1.87981ZM15.6803 -2.58657L13.9389 -4.3279L15.6803 -6.06923L17.4216 -4.3279L15.6803 -2.58657ZM22.969 -0.156481L20.5396 2.27219L18.1103 -0.157147L16.3876 -1.87981L18.1103 -3.60181L20.5396 -1.17315L22.969 -3.60181L24.6916 -1.87981L22.969 -0.156481ZM25.399 2.27209L23.6763 0.550086L25.399 -1.17325L27.1217 0.550086L25.399 2.27209ZM32.6876 4.66814L30.2576 7.09814L27.8282 4.66814L27.8116 4.68547L26.1056 2.97947L27.8282 1.25747L30.2576 3.68614L30.2582 3.68614L32.6876 1.2568L34.4102 2.97947L32.7042 4.6848L32.6876 4.66814ZM30.2576 11.9575L27.8282 9.52748L27.8282 9.52815L26.1056 7.80482L27.8116 6.09948L30.2576 8.54548L32.7042 6.09948L34.4102 7.80482L32.6876 9.52748L30.2576 11.9575ZM30.2576 16.816L26.1056 12.664L27.8282 10.942L30.2576 13.3714L30.2582 13.3714L32.6876 10.9414L34.4102 12.664L30.2576 16.816ZM33.3572 15.1341L35.1199 13.3714L36.8832 15.1341L35.1199 16.8974L33.3572 15.1341ZM32.6876 19.3261L30.2576 21.7561L27.8282 19.3261L27.8282 19.3268L26.1056 17.6041L27.8282 15.8814L30.2582 18.3114L32.6876 15.8814L34.4102 17.6041L32.6876 19.3268L32.6876 19.3261ZM32.6876 24.1522L30.2576 26.5815L27.8282 24.1522L27.8116 24.1695L26.1056 22.4628L27.8282 20.7408L30.2576 23.1702L30.2582 23.1702L32.6876 20.7408L34.4102 22.4628L32.7042 24.1688L32.6876 24.1522ZM30.2576 31.4408L27.8282 29.0114L27.8282 29.0121L26.1056 27.2888L27.8116 25.5834L30.2576 28.0294L32.7042 25.5828L34.4102 27.2888L32.6876 29.0114L30.2576 31.4408ZM26.1056 32.1481L27.8282 30.4261L30.2576 32.8547L30.2582 32.8547L32.6876 30.4254L34.4102 32.1481L30.2576 36.2994L26.1056 32.1481ZM25.4018 32.8547L27.1424 34.5967L25.4018 36.3374L23.6604 34.5967L25.4018 32.8547ZM18.1103 30.4254L20.5396 32.8547L22.969 30.4261L24.6916 32.1481L20.5396 36.2994L16.3876 32.1481L18.1103 30.4254ZM15.6803 27.9955L17.4029 29.7181L15.6803 31.4408L13.9576 29.7188L15.6803 27.9955ZM7.68418 29.7181L5.96151 31.4408L4.23884 29.7188L5.96151 27.9955L7.68418 29.7181ZM7.66766 24.8762L5.96166 26.5815L4.25633 24.8768L5.96166 23.1702L7.66766 24.8762ZM7.68433 20.0342L5.96166 21.7562L4.23966 20.0342L5.96166 18.3115L7.68433 20.0342ZM7.72744 15.1341L5.96411 16.8974L4.20144 15.1341L5.96411 13.3714L7.72744 15.1341ZM7.68418 10.2347L5.96151 11.9574L4.23884 10.2354L5.96151 8.51206L7.68418 10.2347ZM7.66766 5.39213L5.96166 7.09813L4.25633 5.3928L5.96166 3.68613L7.66766 5.39213ZM14.9729 2.97947L13.2676 4.68547L13.2502 4.66814L10.8209 7.09814L8.39155 4.66814L8.37422 4.6848L6.66888 2.97947L8.39155 1.2568L10.8209 3.68614L13.2502 1.25747L14.9729 2.97947ZM15.6803 2.27209L13.9576 0.550086L15.6803 -1.17325L17.4029 0.549419L15.6803 2.27209ZM22.9856 4.68547L22.969 4.66814L20.5396 7.09814L18.1103 4.66814L18.093 4.6848L16.3876 2.97947L18.1103 1.2568L20.5396 3.68614L22.969 1.25747L24.6916 2.97947L22.9856 4.68547ZM23.6929 5.3928L25.3989 3.68613L27.1042 5.3928L25.3989 7.09813L23.6929 5.3928ZM23.6763 10.2354L25.399 8.51206L27.1217 10.2354L25.399 11.9574L23.6763 10.2354ZM23.6385 15.1341L25.4018 13.3714L27.1645 15.1341L25.4018 16.8974L23.6385 15.1341ZM23.6762 20.0342L25.3989 18.3115L27.1209 20.0342L25.3989 21.7562L23.6762 20.0342ZM23.6929 24.8768L25.3989 23.1702L27.1042 24.8768L25.3989 26.5815L23.6929 24.8768ZM25.399 27.9955L27.1217 29.7188L25.399 31.4408L23.6763 29.7188L25.399 27.9955ZM15.6803 23.1702L17.3863 24.8762L15.6803 26.5815L13.9743 24.8768L15.6803 23.1702ZM10.8209 23.1702L13.2509 20.7408L14.9729 22.4628L13.2676 24.1695L13.2502 24.1522L10.8209 26.5815L8.39155 24.1522L8.37422 24.1688L6.66888 22.4628L8.39155 20.7408L10.8209 23.1702ZM10.8209 18.3114L13.2502 15.8814L14.9729 17.6041L13.2509 19.3268L13.2502 19.3261L10.8209 21.7561L8.39155 19.3261L8.39155 19.3268L6.66888 17.6041L8.39155 15.8814L10.8209 18.3114ZM10.8209 13.3714L13.2502 10.942L14.9729 12.664L10.8209 16.816L6.66888 12.664L8.39155 10.9414L10.8209 13.3714ZM14.9729 7.80482L13.2502 9.52815L13.2502 9.52748L10.8209 11.9575L8.39155 9.52748L6.66888 7.80482L8.37422 6.09948L10.8209 8.54548L13.2676 6.09948L14.9729 7.80482ZM15.6803 7.09813L13.9743 5.3928L15.6803 3.68613L17.3863 5.39213L15.6803 7.09813ZM20.5396 11.9575L18.1103 9.52748L16.3876 7.80482L18.093 6.09948L20.5396 8.54548L22.9856 6.09948L24.6916 7.80482L22.969 9.52815L20.5396 11.9575ZM20.5396 16.816L16.3876 12.664L18.1103 10.9414L20.5396 13.3714L22.969 10.942L24.6916 12.664L20.5396 16.816ZM22.969 19.3261L20.5396 21.7561L18.1103 19.3261L18.1103 19.3268L16.3876 17.6041L18.1103 15.8814L20.5396 18.3114L22.969 15.8814L24.6916 17.6041L22.9696 19.3268L22.969 19.3261ZM18.1103 20.7408L20.5396 23.1702L22.9696 20.7408L24.6916 22.4628L22.9856 24.1695L22.969 24.1522L20.5396 26.5815L18.1103 24.1522L18.093 24.1688L16.3876 22.4628L18.1103 20.7408ZM17.4029 20.0342L15.6803 21.7562L13.9576 20.0342L15.6803 18.3115L17.4029 20.0342ZM13.9576 10.2354L15.6803 8.51206L17.4029 10.2347L15.6803 11.9574L13.9576 10.2354ZM17.4436 15.1341L15.6803 16.8974L13.9169 15.1341L15.6803 13.3714L17.4436 15.1341ZM20.5396 31.4408L18.1103 29.0114L16.3876 27.2888L18.093 25.5828L20.5396 28.0294L22.9856 25.5834L24.6916 27.2888L22.969 29.0121L20.5396 31.4408ZM10.8209 31.4408L8.39155 29.0114L6.66888 27.2888L8.37422 25.5828L10.8209 28.0294L13.2676 25.5834L14.9729 27.2888L13.2502 29.0121L10.8209 31.4408ZM20.5396 41.1968L18.1103 38.7668L16.3876 37.0441L18.1103 35.3221L20.5396 37.7514L22.969 35.3221L24.6916 37.0441L22.969 38.7674L20.5396 41.1968ZM16.3905 41.9042L18.1132 43.5928L19.6199 45.1002C19.1899 45.1582 18.7565 45.2095 18.3205 45.2482L18.0959 45.0235L17.8345 45.2855C17.3425 45.3215 16.8479 45.3455 16.3492 45.3562L17.3892 44.3168L15.6832 42.6108L13.9772 44.3175L15.0165 45.3562C14.5185 45.3455 14.0239 45.3215 13.5319 45.2855L13.2705 45.0242L13.0459 45.2482C12.6099 45.2095 12.1772 45.1582 11.7465 45.1002L13.2532 43.5928L13.2705 43.6102L14.9759 41.9042L13.2532 40.1822L10.8239 42.6108L8.39452 40.1815L6.67186 41.9042L8.37719 43.6095L8.39452 43.5928L9.51052 44.7088C8.85386 44.5668 8.20719 44.4008 7.56852 44.2148L5.96452 42.6108L5.17319 43.4028C4.83519 43.2715 4.49986 43.1368 4.16852 42.9935L5.25786 41.9042L3.53519 40.1822L1.84786 41.8695C0.235856 40.9935 -1.28214 39.9682 -2.69148 38.8142L-3.75348 37.7515L-3.83348 37.8315C-4.08014 37.6068 -4.31814 37.3742 -4.55748 37.1415L-4.46081 37.0442L-6.18281 35.3222L-6.23014 35.3688C-6.45548 35.1095 -6.67748 34.8488 -6.89348 34.5808L-4.46081 32.1482L-6.18281 30.4255L-8.36281 32.6055C-8.87614 31.8495 -9.35281 31.0662 -9.79348 30.2602L-8.61281 31.4408L-4.46081 27.2888L-6.16614 25.5828L-8.61281 28.0295L-11.0595 25.5828L-11.6368 26.1602C-11.7621 25.8115 -11.8815 25.4595 -11.9941 25.1035L-11.7661 24.8762L-12.1841 24.4588C-12.3655 23.8342 -12.5275 23.2022 -12.6675 22.5608L-11.0595 24.1688L-11.0421 24.1522L-8.61281 26.5815L-6.18281 24.1522L-6.16614 24.1688L-4.46081 22.4628L-6.18281 20.7408L-8.61281 23.1702L-11.0421 20.7408L-12.7041 22.4028C-12.7875 22.0088 -12.8595 21.6108 -12.9275 21.2115L-11.7495 20.0342L-13.2501 18.5335C-13.2941 17.9455 -13.3221 17.3528 -13.3308 16.7562L-11.7088 15.1342L-13.2101 13.6335C-13.1401 12.8782 -13.0381 12.1335 -12.9115 11.3968L-11.7495 10.2348L-12.5135 9.47083C-12.4221 9.0955 -12.3221 8.7235 -12.2161 8.35349L-11.0421 9.5275L-8.61281 11.9575L-4.46081 7.80483L-6.16614 6.09949L-8.61281 8.5455L-11.0595 6.09949L-11.7075 6.7475C-11.4728 6.07883 -11.2161 5.42083 -10.9348 4.7755L-8.61281 7.09816L-6.18281 4.66816L-6.16614 4.68483L-4.46081 2.9795L-6.18281 1.25683L-8.61281 3.68616L-9.81814 2.48083C-9.65281 2.1775 -9.47814 1.8795 -9.30214 1.58283L-8.61281 2.27216L-4.46081 -1.87984L-5.77481 -3.19317C-5.55014 -3.43984 -5.31748 -3.6785 -5.08414 -3.91717L-3.75348 -2.5865L-2.01214 -4.32784L-3.28948 -5.6045C-3.03614 -5.82384 -2.78081 -6.03984 -2.52081 -6.2505L1.10586 -2.62384L5.25786 -6.7765L3.53519 -8.4985L1.10586 -6.06917L-0.543477 -7.7185C-0.261477 -7.90917 0.0285225 -8.08984 0.317856 -8.2705L1.10586 -7.48384L3.53519 -9.91317L3.53519 -9.9125L3.71119 -10.0892C4.76586 -10.5672 5.84986 -10.9898 6.96652 -11.3412L8.39452 -9.91317L10.8239 -7.48384L13.2532 -9.91317L13.2532 -9.9125L14.9759 -11.6358L13.9899 -12.6225C14.4432 -12.6485 14.9005 -12.6618 15.3592 -12.6665L15.6832 -12.3432L16.0072 -12.6665C16.4665 -12.6618 16.9232 -12.6485 17.3765 -12.6225L16.3905 -11.6358L18.1132 -9.91317L20.5425 -7.48384L22.9719 -9.91317L22.9719 -9.9125L24.3999 -11.3412C25.5165 -10.9898 26.6012 -10.5672 27.6552 -10.0892L27.8312 -9.9125L27.8312 -9.91317L30.2605 -7.48384L31.0485 -8.27117C31.3379 -8.0905 31.6272 -7.90917 31.9099 -7.7185L30.2612 -6.06917L30.2605 -6.06917L27.8312 -8.4985L26.1085 -6.7765L30.2605 -2.62384L33.8872 -6.2505C34.1479 -6.03984 34.4032 -5.82384 34.6559 -5.60517L33.3785 -4.32784L35.1199 -2.5865L36.4512 -3.91717C36.6839 -3.6785 36.9165 -3.43984 37.1412 -3.19317L35.8272 -1.87984L37.5499 -0.156504L37.5499 -0.15717L39.9792 2.27216L40.6685 1.58283C40.8445 1.8795 41.0192 2.1775 41.1845 2.48083L39.9792 3.68616L37.5499 1.2575L35.8272 2.9795L37.5325 4.6855L37.5499 4.66816L39.9792 7.09816L42.3019 4.7755C42.5825 5.42083 42.8399 6.07883 43.0739 6.7475L42.4259 6.09949L39.9792 8.5455L37.5325 6.09949L35.8272 7.80483L37.5499 9.52816L37.5499 9.5275L39.9792 11.9575L42.4085 9.5275L43.5832 8.35349C43.6885 8.7235 43.7892 9.0955 43.8799 9.47016L43.1159 10.2348L44.2779 11.3968C44.4045 12.1335 44.5065 12.8782 44.5765 13.6335L43.0752 15.1342L44.6972 16.7562C44.6885 17.3528 44.6605 17.9448 44.6172 18.5328L43.1159 20.0342L44.2939 21.2115C44.2265 21.6108 44.1545 22.0088 44.0705 22.4028L42.4092 20.7408L39.9792 23.1702L37.5492 20.7408L35.8272 22.4628L37.5325 24.1695L37.5499 24.1522L39.9792 26.5815L42.4085 24.1522L42.4259 24.1688L44.0339 22.5608C43.8939 23.2022 43.7319 23.8342 43.5505 24.4588L43.1325 24.8762L43.3605 25.1035C43.2485 25.4595 43.1285 25.8115 43.0032 26.1602L42.4259 25.5828L39.9792 28.0295L37.5325 25.5835L35.8272 27.2888L37.5499 29.0122L37.5499 29.0115L39.9792 31.4408L41.1605 30.2602C40.7199 31.0662 40.2425 31.8488 39.7299 32.6055L37.5499 30.4262L35.8272 32.1482L38.2605 34.5808C38.0439 34.8488 37.8219 35.1095 37.5965 35.3688L37.5499 35.3222L35.8272 37.0442L35.9239 37.1415C35.6852 37.3742 35.4465 37.6075 35.1999 37.8315L35.1199 37.7515L34.0572 38.8148C32.6485 39.9682 31.1305 40.9935 29.5192 41.8695L27.8312 40.1822L26.1085 41.9042L27.1985 42.9935C26.8672 43.1375 26.5305 43.2715 26.1932 43.4028L25.4019 42.6108L23.7979 44.2148C23.1592 44.4008 22.5125 44.5668 21.8565 44.7088L22.9719 43.5928L22.9885 43.6102L24.6945 41.9042L22.9719 40.1822L20.5425 42.6108L18.1132 40.1815L16.3905 41.9042Z" fill="rgb(255,255,255)" fill-rule="evenodd" />
		</g>
	</mask>
	<defs>
		<filter id="pixso_custom_mask_type_outline">
			<feColorMatrix type="matrix" values="0 0 0 0 1 0 0 0 0 1 0 0 0 0 1 0 0 0 1 0 " />
		</filter>
		<linearGradient id="paint_linear_181" x1="18.7831631" x2="16.1666527" y1="9.33705139" y2="23.3298264" gradientUnits="userSpaceOnUse">
			<stop stop-color="rgb(54,176,255)" offset="0" stop-opacity="1" />
			<stop stop-color="rgb(122,209,255)" offset="1" stop-opacity="1" />
		</linearGradient>
		<linearGradient id="paint_linear_182" x1="9.53624058" x2="8.66666031" y1="7.96453285" y2="18.6666889" gradientUnits="userSpaceOnUse">
			<stop stop-color="rgb(68,159,248)" offset="0" stop-opacity="1" />
			<stop stop-color="rgb(75,211,255)" offset="1" stop-opacity="1" />
		</linearGradient>
		<linearGradient id="paint_linear_183" x1="21.2789021" x2="29.5927811" y1="16.8440399" y2="26.666687" gradientUnits="userSpaceOnUse">
			<stop stop-color="rgb(68,159,248)" offset="0" stop-opacity="1" />
			<stop stop-color="rgb(75,211,255)" offset="1" stop-opacity="1" />
		</linearGradient>
		<linearGradient id="paint_linear_184" x1="4.4292326" x2="-1.52363348" y1="1.67508209" y2="11.2372274" gradientUnits="userSpaceOnUse">
			<stop stop-color="rgb(10,11,35)" offset="0" stop-opacity="1" />
			<stop stop-color="rgb(46,153,255)" offset="1" stop-opacity="0" />
		</linearGradient>
		<linearGradient id="paint_linear_185" x1="4.4292326" x2="0.531713724" y1="4.94685078" y2="11.4610996" gradientUnits="userSpaceOnUse">
			<stop stop-color="rgb(37,43,58)" offset="0" stop-opacity="1" />
			<stop stop-color="rgb(37,43,58)" offset="1" stop-opacity="1" />
		</linearGradient>
		<linearGradient id="paint_linear_186" x1="-2.45262027" x2="3.82751012" y1="-1.09474421" y2="12.0745049" gradientUnits="userSpaceOnUse">
			<stop stop-color="rgb(10,11,35)" offset="0" stop-opacity="1" />
			<stop stop-color="rgb(46,153,255)" offset="1" stop-opacity="0" />
		</linearGradient>
		<linearGradient id="paint_linear_187" x1="4.42972851" x2="0.531769514" y1="4.67047262" y2="10.8207712" gradientUnits="userSpaceOnUse">
			<stop stop-color="rgb(37,43,58)" offset="0" stop-opacity="1" />
			<stop stop-color="rgb(37,43,58)" offset="1" stop-opacity="1" />
		</linearGradient>
	</defs>
	<mask id="mask_92" width="32.000000" height="32.000000" x="0.000000" y="0.000000" maskUnits="userSpaceOnUse">
		<g filter="url(#pixso_custom_mask_type_outline)">
			<rect id="蒙版" width="32.000000" height="32.000000" x="0.000000" y="0.000000" rx="2.666667" fill="rgb(255,255,255)" />
			<rect id="蒙版" width="31.000000" height="31.000000" x="0.500000" y="0.500000" rx="2.166667" stroke="rgb(223,238,236)" stroke-opacity="0" stroke-width="1" />
		</g>
	</mask>
	<rect id="工程首字母图标/N-32x33" width="32.000000" height="32.000000" x="0.000000" y="0.000000" />
	<rect id="矩形" width="32.000000" height="32.000000" x="0.000000" y="0.000000" rx="2.666667" fill="rgb(255,255,255)" />
	<rect id="矩形" width="31.000000" height="31.000000" x="0.500000" y="0.500000" rx="2.166667" stroke="rgb(151,151,151)" stroke-opacity="0" stroke-width="1" />
	<g id="形状" showMaskRef="url(#show_mask_76)" mask="url(#mask_92)">
		<g id="show_mask_76">
			<rect id="蒙版" width="32.000000" height="32.000000" x="0.000000" y="0.000000" rx="2.666667" fill="rgb(255,255,255)" />
			<rect id="蒙版" width="31.000000" height="31.000000" x="0.500000" y="0.500000" rx="2.166667" stroke="rgb(223,238,236)" stroke-opacity="0" stroke-width="1" />
		</g>
		<g id="Fill 5">
			<rect id="蒙版" width="32.000000" height="32.000000" x="0.000000" y="0.000000" rx="2.666667" fill="rgb(255,255,255)" fill-opacity="0" />
			<rect id="蒙版" width="31.000000" height="31.000000" x="0.500000" y="0.500000" rx="2.166667" stroke="rgb(236,247,249)" stroke-opacity="0" stroke-width="1" />
			<g showMaskRef="url(#show_mask_77)" mask="url(#mask_93)">
				<path id="show_mask_77" d="M13.9576 39.4748L15.6803 37.7514L17.4029 39.4741L15.6803 41.1968L13.9576 39.4748ZM10.8209 41.1968L8.39155 38.7668L6.66888 37.0441L8.39155 35.3221L10.8209 37.7514L13.2502 35.3221L14.9729 37.0441L13.2502 38.7674L10.8209 41.1968ZM5.96151 41.1968L4.23884 39.4748L5.96151 37.7514L7.68418 39.4741L5.96151 41.1968ZM1.10296 41.1968L-1.32704 38.7668L-3.04971 37.0441L-1.32704 35.3221L1.10296 37.7514L3.53229 35.3221L5.25496 37.0441L3.53229 38.7674L1.10296 41.1968ZM-5.4976 34.5967L-3.75626 32.8547L-2.01493 34.5967L-3.75626 36.3374L-5.4976 34.5967ZM-5.47893 29.7181L-3.75626 27.9955L-2.0336 29.7181L-3.75626 31.4408L-5.47893 29.7181ZM-5.45916 24.8762L-3.75382 23.1702L-2.04849 24.8762L-3.75382 26.5815L-5.45916 24.8762ZM-5.47893 20.0342L-3.75626 18.3115L-2.0336 20.0342L-3.75626 21.7562L-5.47893 20.0342ZM-8.61564 21.7561L-11.045 19.3261L-11.045 19.3268L-12.7676 17.6041L-11.045 15.8814L-8.61564 18.3114L-6.18564 15.8814L-4.46364 17.6041L-6.18564 19.3268L-8.61564 21.7561ZM-12.7676 12.664L-11.045 10.9414L-8.61564 13.3714L-6.18564 10.9414L-4.46364 12.664L-8.61564 16.816L-12.7676 12.664ZM-3.75626 8.51206L-2.0336 10.2347L-3.75626 11.9574L-5.47893 10.2347L-3.75626 8.51206ZM-5.45916 5.39213L-3.75382 3.68613L-2.04849 5.39213L-3.75382 7.09813L-5.45916 5.39213ZM-5.47893 0.549419L-3.75626 -1.17325L-2.0336 0.549419L-3.75626 2.27209L-5.47893 0.549419ZM-1.32704 -3.60181L1.10296 -1.17315L3.53229 -3.60181L5.25496 -1.87981L3.53229 -0.156481L3.53229 -0.157147L1.10296 2.27219L-1.32704 -0.157147L-3.04971 -1.87981L-1.32704 -3.60181ZM5.96182 -6.06923L7.70382 -4.3279L5.96182 -2.58657L4.22115 -4.3279L5.96182 -6.06923ZM4.23884 -9.20592L5.96151 -10.9286L7.68418 -9.20592L5.96151 -7.48392L4.23884 -9.20592ZM10.8209 -6.06915L13.2502 -8.49848L14.9729 -6.77648L10.8209 -2.62382L6.66888 -6.77648L8.39155 -8.49915L10.8209 -6.06915ZM15.6803 -10.9286L17.4029 -9.20592L15.6803 -7.48392L13.9576 -9.20592L15.6803 -10.9286ZM20.5396 -6.06915L22.969 -8.49848L24.6916 -6.77648L20.5396 -2.62382L16.3876 -6.77648L18.1103 -8.49915L20.5396 -6.06915ZM25.399 -10.9286L27.1217 -9.20592L25.399 -7.48392L23.6763 -9.20592L25.399 -10.9286ZM27.1403 -4.3279L25.399 -2.58657L23.6577 -4.3279L25.399 -6.06923L27.1403 -4.3279ZM30.2582 -1.17315L32.6876 -3.60181L34.4102 -1.87981L32.6876 -0.157147L30.2576 2.27219L27.8282 -0.157147L27.8282 -0.156481L26.1056 -1.87981L27.8282 -3.60181L30.2582 -1.17315ZM36.8399 0.550086L35.1173 2.27209L33.3946 0.549419L35.1173 -1.17325L36.8399 0.550086ZM36.8229 5.3928L35.1169 7.09813L33.4116 5.39213L35.1169 3.68613L36.8229 5.3928ZM36.8399 10.2354L35.1173 11.9574L33.3946 10.2347L35.1173 8.51206L36.8399 10.2354ZM39.9762 13.3714L42.4055 10.9414L44.1282 12.664L39.9762 16.816L35.8242 12.664L37.5468 10.942L39.9762 13.3714ZM44.1282 17.6041L42.4062 19.3268L42.4055 19.3261L39.9762 21.7561L37.5468 19.3261L37.5462 19.3268L35.8242 17.6041L37.5468 15.8814L39.9762 18.3114L42.4055 15.8814L44.1282 17.6041ZM35.1169 21.7562L33.3949 20.0342L35.1169 18.3115L36.8396 20.0342L35.1169 21.7562ZM36.8229 24.8768L35.1169 26.5815L33.4116 24.8762L35.1169 23.1702L36.8229 24.8768ZM36.8399 29.7188L35.1173 31.4408L33.3946 29.7181L35.1173 27.9955L36.8399 29.7188ZM36.8581 34.5967L35.1168 36.3374L33.3755 34.5967L35.1168 32.8547L36.8581 34.5967ZM32.6876 38.7668L30.2576 41.1968L27.8282 38.7668L27.8282 38.7674L26.1056 37.0441L27.8282 35.3221L30.2582 37.7514L32.6876 35.3221L34.4102 37.0441L32.6876 38.7668ZM25.399 41.1968L23.6763 39.4748L25.399 37.7514L27.1217 39.4748L25.399 41.1968ZM15.6803 32.8547L17.4216 34.5967L15.6803 36.3374L13.9389 34.5967L15.6803 32.8547ZM6.66888 32.1481L8.39155 30.4254L10.8209 32.8547L13.2502 30.4261L14.9729 32.1481L10.8209 36.2994L6.66888 32.1481ZM5.96182 32.8547L7.70382 34.5967L5.96182 36.3374L4.22115 34.5967L5.96182 32.8547ZM1.10296 32.8547L3.53229 30.4261L5.25496 32.1481L1.10296 36.2994L-3.04971 32.1481L-1.32704 30.4254L1.10296 32.8547ZM1.10296 28.0294L3.54896 25.5834L5.25496 27.2888L3.53229 29.0121L3.53229 29.0114L1.10296 31.4408L-1.32704 29.0114L-3.04971 27.2888L-1.34371 25.5828L1.10296 28.0294ZM1.10296 23.1702L3.53229 20.7408L5.25496 22.4628L3.54896 24.1695L3.53229 24.1522L1.10296 26.5815L-1.32704 24.1522L-1.34371 24.1688L-3.04971 22.4628L-1.32704 20.7408L1.10296 23.1702ZM-1.32704 15.8814L1.10296 18.3114L3.53229 15.8814L5.25496 17.6041L3.53229 19.3268L3.53229 19.3261L1.10296 21.7561L-1.32704 19.3261L-1.32704 19.3268L-3.04971 17.6041L-1.32704 15.8814ZM-1.99293 15.1341L-3.75626 16.8974L-5.5196 15.1341L-3.75626 13.3714L-1.99293 15.1341ZM1.10296 13.3714L3.53229 10.942L5.25496 12.664L1.10296 16.816L-3.04971 12.664L-1.32704 10.9414L1.10296 13.3714ZM1.10296 8.54548L3.54896 6.09948L5.25496 7.80482L3.53229 9.52815L3.53229 9.52748L1.10296 11.9575L-1.32704 9.52748L-3.04971 7.80482L-1.34371 6.09948L1.10296 8.54548ZM5.25496 2.97947L3.54896 4.68547L3.53229 4.66814L1.10296 7.09814L-1.32704 4.66814L-1.34371 4.6848L-3.04971 2.97947L-1.32704 1.2568L1.10296 3.68614L3.53229 1.25747L5.25496 2.97947ZM7.68418 0.549419L5.96151 2.27209L4.23884 0.550086L5.96151 -1.17325L7.68418 0.549419ZM14.9729 -1.87981L13.2502 -0.156481L13.2502 -0.157147L10.8209 2.27219L8.39155 -0.157147L6.66888 -1.87981L8.39155 -3.60181L10.8209 -1.17315L13.2502 -3.60181L14.9729 -1.87981ZM15.6803 -2.58657L13.9389 -4.3279L15.6803 -6.06923L17.4216 -4.3279L15.6803 -2.58657ZM22.969 -0.156481L20.5396 2.27219L18.1103 -0.157147L16.3876 -1.87981L18.1103 -3.60181L20.5396 -1.17315L22.969 -3.60181L24.6916 -1.87981L22.969 -0.156481ZM25.399 2.27209L23.6763 0.550086L25.399 -1.17325L27.1217 0.550086L25.399 2.27209ZM32.6876 4.66814L30.2576 7.09814L27.8282 4.66814L27.8116 4.68547L26.1056 2.97947L27.8282 1.25747L30.2576 3.68614L30.2582 3.68614L32.6876 1.2568L34.4102 2.97947L32.7042 4.6848L32.6876 4.66814ZM30.2576 11.9575L27.8282 9.52748L27.8282 9.52815L26.1056 7.80482L27.8116 6.09948L30.2576 8.54548L32.7042 6.09948L34.4102 7.80482L32.6876 9.52748L30.2576 11.9575ZM30.2576 16.816L26.1056 12.664L27.8282 10.942L30.2576 13.3714L30.2582 13.3714L32.6876 10.9414L34.4102 12.664L30.2576 16.816ZM33.3572 15.1341L35.1199 13.3714L36.8832 15.1341L35.1199 16.8974L33.3572 15.1341ZM32.6876 19.3261L30.2576 21.7561L27.8282 19.3261L27.8282 19.3268L26.1056 17.6041L27.8282 15.8814L30.2582 18.3114L32.6876 15.8814L34.4102 17.6041L32.6876 19.3268L32.6876 19.3261ZM32.6876 24.1522L30.2576 26.5815L27.8282 24.1522L27.8116 24.1695L26.1056 22.4628L27.8282 20.7408L30.2576 23.1702L30.2582 23.1702L32.6876 20.7408L34.4102 22.4628L32.7042 24.1688L32.6876 24.1522ZM30.2576 31.4408L27.8282 29.0114L27.8282 29.0121L26.1056 27.2888L27.8116 25.5834L30.2576 28.0294L32.7042 25.5828L34.4102 27.2888L32.6876 29.0114L30.2576 31.4408ZM26.1056 32.1481L27.8282 30.4261L30.2576 32.8547L30.2582 32.8547L32.6876 30.4254L34.4102 32.1481L30.2576 36.2994L26.1056 32.1481ZM25.4018 32.8547L27.1424 34.5967L25.4018 36.3374L23.6604 34.5967L25.4018 32.8547ZM18.1103 30.4254L20.5396 32.8547L22.969 30.4261L24.6916 32.1481L20.5396 36.2994L16.3876 32.1481L18.1103 30.4254ZM15.6803 27.9955L17.4029 29.7181L15.6803 31.4408L13.9576 29.7188L15.6803 27.9955ZM7.68418 29.7181L5.96151 31.4408L4.23884 29.7188L5.96151 27.9955L7.68418 29.7181ZM7.66766 24.8762L5.96166 26.5815L4.25633 24.8768L5.96166 23.1702L7.66766 24.8762ZM7.68433 20.0342L5.96166 21.7562L4.23966 20.0342L5.96166 18.3115L7.68433 20.0342ZM7.72744 15.1341L5.96411 16.8974L4.20144 15.1341L5.96411 13.3714L7.72744 15.1341ZM7.68418 10.2347L5.96151 11.9574L4.23884 10.2354L5.96151 8.51206L7.68418 10.2347ZM7.66766 5.39213L5.96166 7.09813L4.25633 5.3928L5.96166 3.68613L7.66766 5.39213ZM14.9729 2.97947L13.2676 4.68547L13.2502 4.66814L10.8209 7.09814L8.39155 4.66814L8.37422 4.6848L6.66888 2.97947L8.39155 1.2568L10.8209 3.68614L13.2502 1.25747L14.9729 2.97947ZM15.6803 2.27209L13.9576 0.550086L15.6803 -1.17325L17.4029 0.549419L15.6803 2.27209ZM22.9856 4.68547L22.969 4.66814L20.5396 7.09814L18.1103 4.66814L18.093 4.6848L16.3876 2.97947L18.1103 1.2568L20.5396 3.68614L22.969 1.25747L24.6916 2.97947L22.9856 4.68547ZM23.6929 5.3928L25.3989 3.68613L27.1042 5.3928L25.3989 7.09813L23.6929 5.3928ZM23.6763 10.2354L25.399 8.51206L27.1217 10.2354L25.399 11.9574L23.6763 10.2354ZM23.6385 15.1341L25.4018 13.3714L27.1645 15.1341L25.4018 16.8974L23.6385 15.1341ZM23.6762 20.0342L25.3989 18.3115L27.1209 20.0342L25.3989 21.7562L23.6762 20.0342ZM23.6929 24.8768L25.3989 23.1702L27.1042 24.8768L25.3989 26.5815L23.6929 24.8768ZM25.399 27.9955L27.1217 29.7188L25.399 31.4408L23.6763 29.7188L25.399 27.9955ZM15.6803 23.1702L17.3863 24.8762L15.6803 26.5815L13.9743 24.8768L15.6803 23.1702ZM10.8209 23.1702L13.2509 20.7408L14.9729 22.4628L13.2676 24.1695L13.2502 24.1522L10.8209 26.5815L8.39155 24.1522L8.37422 24.1688L6.66888 22.4628L8.39155 20.7408L10.8209 23.1702ZM10.8209 18.3114L13.2502 15.8814L14.9729 17.6041L13.2509 19.3268L13.2502 19.3261L10.8209 21.7561L8.39155 19.3261L8.39155 19.3268L6.66888 17.6041L8.39155 15.8814L10.8209 18.3114ZM10.8209 13.3714L13.2502 10.942L14.9729 12.664L10.8209 16.816L6.66888 12.664L8.39155 10.9414L10.8209 13.3714ZM14.9729 7.80482L13.2502 9.52815L13.2502 9.52748L10.8209 11.9575L8.39155 9.52748L6.66888 7.80482L8.37422 6.09948L10.8209 8.54548L13.2676 6.09948L14.9729 7.80482ZM15.6803 7.09813L13.9743 5.3928L15.6803 3.68613L17.3863 5.39213L15.6803 7.09813ZM20.5396 11.9575L18.1103 9.52748L16.3876 7.80482L18.093 6.09948L20.5396 8.54548L22.9856 6.09948L24.6916 7.80482L22.969 9.52815L20.5396 11.9575ZM20.5396 16.816L16.3876 12.664L18.1103 10.9414L20.5396 13.3714L22.969 10.942L24.6916 12.664L20.5396 16.816ZM22.969 19.3261L20.5396 21.7561L18.1103 19.3261L18.1103 19.3268L16.3876 17.6041L18.1103 15.8814L20.5396 18.3114L22.969 15.8814L24.6916 17.6041L22.9696 19.3268L22.969 19.3261ZM18.1103 20.7408L20.5396 23.1702L22.9696 20.7408L24.6916 22.4628L22.9856 24.1695L22.969 24.1522L20.5396 26.5815L18.1103 24.1522L18.093 24.1688L16.3876 22.4628L18.1103 20.7408ZM17.4029 20.0342L15.6803 21.7562L13.9576 20.0342L15.6803 18.3115L17.4029 20.0342ZM13.9576 10.2354L15.6803 8.51206L17.4029 10.2347L15.6803 11.9574L13.9576 10.2354ZM17.4436 15.1341L15.6803 16.8974L13.9169 15.1341L15.6803 13.3714L17.4436 15.1341ZM20.5396 31.4408L18.1103 29.0114L16.3876 27.2888L18.093 25.5828L20.5396 28.0294L22.9856 25.5834L24.6916 27.2888L22.969 29.0121L20.5396 31.4408ZM10.8209 31.4408L8.39155 29.0114L6.66888 27.2888L8.37422 25.5828L10.8209 28.0294L13.2676 25.5834L14.9729 27.2888L13.2502 29.0121L10.8209 31.4408ZM20.5396 41.1968L18.1103 38.7668L16.3876 37.0441L18.1103 35.3221L20.5396 37.7514L22.969 35.3221L24.6916 37.0441L22.969 38.7674L20.5396 41.1968ZM16.3905 41.9042L18.1132 43.5928L19.6199 45.1002C19.1899 45.1582 18.7565 45.2095 18.3205 45.2482L18.0959 45.0235L17.8345 45.2855C17.3425 45.3215 16.8479 45.3455 16.3492 45.3562L17.3892 44.3168L15.6832 42.6108L13.9772 44.3175L15.0165 45.3562C14.5185 45.3455 14.0239 45.3215 13.5319 45.2855L13.2705 45.0242L13.0459 45.2482C12.6099 45.2095 12.1772 45.1582 11.7465 45.1002L13.2532 43.5928L13.2705 43.6102L14.9759 41.9042L13.2532 40.1822L10.8239 42.6108L8.39452 40.1815L6.67186 41.9042L8.37719 43.6095L8.39452 43.5928L9.51052 44.7088C8.85386 44.5668 8.20719 44.4008 7.56852 44.2148L5.96452 42.6108L5.17319 43.4028C4.83519 43.2715 4.49986 43.1368 4.16852 42.9935L5.25786 41.9042L3.53519 40.1822L1.84786 41.8695C0.235856 40.9935 -1.28214 39.9682 -2.69148 38.8142L-3.75348 37.7515L-3.83348 37.8315C-4.08014 37.6068 -4.31814 37.3742 -4.55748 37.1415L-4.46081 37.0442L-6.18281 35.3222L-6.23014 35.3688C-6.45548 35.1095 -6.67748 34.8488 -6.89348 34.5808L-4.46081 32.1482L-6.18281 30.4255L-8.36281 32.6055C-8.87614 31.8495 -9.35281 31.0662 -9.79348 30.2602L-8.61281 31.4408L-4.46081 27.2888L-6.16614 25.5828L-8.61281 28.0295L-11.0595 25.5828L-11.6368 26.1602C-11.7621 25.8115 -11.8815 25.4595 -11.9941 25.1035L-11.7661 24.8762L-12.1841 24.4588C-12.3655 23.8342 -12.5275 23.2022 -12.6675 22.5608L-11.0595 24.1688L-11.0421 24.1522L-8.61281 26.5815L-6.18281 24.1522L-6.16614 24.1688L-4.46081 22.4628L-6.18281 20.7408L-8.61281 23.1702L-11.0421 20.7408L-12.7041 22.4028C-12.7875 22.0088 -12.8595 21.6108 -12.9275 21.2115L-11.7495 20.0342L-13.2501 18.5335C-13.2941 17.9455 -13.3221 17.3528 -13.3308 16.7562L-11.7088 15.1342L-13.2101 13.6335C-13.1401 12.8782 -13.0381 12.1335 -12.9115 11.3968L-11.7495 10.2348L-12.5135 9.47083C-12.4221 9.0955 -12.3221 8.7235 -12.2161 8.35349L-11.0421 9.5275L-8.61281 11.9575L-4.46081 7.80483L-6.16614 6.09949L-8.61281 8.5455L-11.0595 6.09949L-11.7075 6.7475C-11.4728 6.07883 -11.2161 5.42083 -10.9348 4.7755L-8.61281 7.09816L-6.18281 4.66816L-6.16614 4.68483L-4.46081 2.9795L-6.18281 1.25683L-8.61281 3.68616L-9.81814 2.48083C-9.65281 2.1775 -9.47814 1.8795 -9.30214 1.58283L-8.61281 2.27216L-4.46081 -1.87984L-5.77481 -3.19317C-5.55014 -3.43984 -5.31748 -3.6785 -5.08414 -3.91717L-3.75348 -2.5865L-2.01214 -4.32784L-3.28948 -5.6045C-3.03614 -5.82384 -2.78081 -6.03984 -2.52081 -6.2505L1.10586 -2.62384L5.25786 -6.7765L3.53519 -8.4985L1.10586 -6.06917L-0.543477 -7.7185C-0.261477 -7.90917 0.0285225 -8.08984 0.317856 -8.2705L1.10586 -7.48384L3.53519 -9.91317L3.53519 -9.9125L3.71119 -10.0892C4.76586 -10.5672 5.84986 -10.9898 6.96652 -11.3412L8.39452 -9.91317L10.8239 -7.48384L13.2532 -9.91317L13.2532 -9.9125L14.9759 -11.6358L13.9899 -12.6225C14.4432 -12.6485 14.9005 -12.6618 15.3592 -12.6665L15.6832 -12.3432L16.0072 -12.6665C16.4665 -12.6618 16.9232 -12.6485 17.3765 -12.6225L16.3905 -11.6358L18.1132 -9.91317L20.5425 -7.48384L22.9719 -9.91317L22.9719 -9.9125L24.3999 -11.3412C25.5165 -10.9898 26.6012 -10.5672 27.6552 -10.0892L27.8312 -9.9125L27.8312 -9.91317L30.2605 -7.48384L31.0485 -8.27117C31.3379 -8.0905 31.6272 -7.90917 31.9099 -7.7185L30.2612 -6.06917L30.2605 -6.06917L27.8312 -8.4985L26.1085 -6.7765L30.2605 -2.62384L33.8872 -6.2505C34.1479 -6.03984 34.4032 -5.82384 34.6559 -5.60517L33.3785 -4.32784L35.1199 -2.5865L36.4512 -3.91717C36.6839 -3.6785 36.9165 -3.43984 37.1412 -3.19317L35.8272 -1.87984L37.5499 -0.156504L37.5499 -0.15717L39.9792 2.27216L40.6685 1.58283C40.8445 1.8795 41.0192 2.1775 41.1845 2.48083L39.9792 3.68616L37.5499 1.2575L35.8272 2.9795L37.5325 4.6855L37.5499 4.66816L39.9792 7.09816L42.3019 4.7755C42.5825 5.42083 42.8399 6.07883 43.0739 6.7475L42.4259 6.09949L39.9792 8.5455L37.5325 6.09949L35.8272 7.80483L37.5499 9.52816L37.5499 9.5275L39.9792 11.9575L42.4085 9.5275L43.5832 8.35349C43.6885 8.7235 43.7892 9.0955 43.8799 9.47016L43.1159 10.2348L44.2779 11.3968C44.4045 12.1335 44.5065 12.8782 44.5765 13.6335L43.0752 15.1342L44.6972 16.7562C44.6885 17.3528 44.6605 17.9448 44.6172 18.5328L43.1159 20.0342L44.2939 21.2115C44.2265 21.6108 44.1545 22.0088 44.0705 22.4028L42.4092 20.7408L39.9792 23.1702L37.5492 20.7408L35.8272 22.4628L37.5325 24.1695L37.5499 24.1522L39.9792 26.5815L42.4085 24.1522L42.4259 24.1688L44.0339 22.5608C43.8939 23.2022 43.7319 23.8342 43.5505 24.4588L43.1325 24.8762L43.3605 25.1035C43.2485 25.4595 43.1285 25.8115 43.0032 26.1602L42.4259 25.5828L39.9792 28.0295L37.5325 25.5835L35.8272 27.2888L37.5499 29.0122L37.5499 29.0115L39.9792 31.4408L41.1605 30.2602C40.7199 31.0662 40.2425 31.8488 39.7299 32.6055L37.5499 30.4262L35.8272 32.1482L38.2605 34.5808C38.0439 34.8488 37.8219 35.1095 37.5965 35.3688L37.5499 35.3222L35.8272 37.0442L35.9239 37.1415C35.6852 37.3742 35.4465 37.6075 35.1999 37.8315L35.1199 37.7515L34.0572 38.8148C32.6485 39.9682 31.1305 40.9935 29.5192 41.8695L27.8312 40.1822L26.1085 41.9042L27.1985 42.9935C26.8672 43.1375 26.5305 43.2715 26.1932 43.4028L25.4019 42.6108L23.7979 44.2148C23.1592 44.4008 22.5125 44.5668 21.8565 44.7088L22.9719 43.5928L22.9885 43.6102L24.6945 41.9042L22.9719 40.1822L20.5425 42.6108L18.1132 40.1815L16.3905 41.9042Z" fill="rgb(123,176,202)" fill-rule="evenodd" />
			</g>
		</g>
	</g>
	<g id="编组">
		<path id="Fill 85" d="M19.9479 26.6667L7 5.33337L12.3851 5.33337L25.3333 26.6667L19.9479 26.6667Z" fill="url(#paint_linear_181)" fill-rule="evenodd" />
		<path id="Fill 87" d="M10.4409 18.6667L12.3333 5.33337L6.89276 5.33337L5 18.6667L10.4409 18.6667Z" fill="url(#paint_linear_182)" style="mix-blend-mode:multiply" fill-rule="evenodd" />
		<path id="Fill 89" d="M4.73309 21.3333L4 26.6666L9.2669 26.6666L9.99999 21.3333L4.73309 21.3333Z" fill="rgb(62,234,219)" fill-rule="evenodd" />
		<path id="Fill 93" d="M21.8929 13.3334L20 26.6667L25.4404 26.6667L27.3333 13.3334L21.8929 13.3334Z" fill="url(#paint_linear_183)" style="mix-blend-mode:multiply" fill-rule="evenodd" />
		<path id="Fill 91" d="M27.601 10.6667L28.3335 5.33337L23.0663 5.33337L22.3335 10.6667L27.601 10.6667Z" fill="rgb(62,234,219)" fill-rule="evenodd" />
		<path id="路径" d="M12.3333 5.33337L11.322 12.4547L7 5.33337L12.3333 5.33337Z" fill="rgb(84,213,255)" fill-rule="evenodd" />
		<path id="路径" d="M21.0107 19.5453L25.3333 26.6666L20 26.6666L21.0107 19.5453Z" fill="rgb(32,130,248)" fill-rule="evenodd" />
		<path id="路径 8" d="M0 7.12133L0.856853 12.2146L4.42923 0L4.322 0L0 7.12133Z" fill="url(#paint_linear_184)" fill-rule="evenodd" transform="matrix(-1,0,0,1,11.3218,5.33337)" />
		<path id="路径 8" d="M0.856853 12.2146L0.476389 9.95306L0 7.12133L2.518 2.97245L4.322 0L4.42923 0L4.41307 0.0552704L4.322 0.36665L3.44095 3.3791L1.50061 10.0135L0.856853 12.2146ZM1.12014 7.75195L1.42998 6.69257L1.04785 7.32221L1.12014 7.75195Z" fill="url(#paint_linear_185)" fill-opacity="0" fill-rule="evenodd" transform="matrix(-1,0,0,1,11.3218,5.33337)" />
		<path id="路径 8备份" d="M3.66843 11.5322L4.42973 7.1213L0.107071 0L0 0L3.66843 11.5322Z" fill="url(#paint_linear_186)" fill-rule="evenodd" transform="matrix(-1,0,0,-1,25.4404,26.6666)" />
		<path id="路径 8备份" d="M4.42973 7.1213L4.03753 9.39364L3.66843 11.5322L3.01058 9.46413L1.17017 3.67857L0.0173284 0.0544739L0 0L0.107071 0L2.08694 3.2617L4.42973 7.1213ZM3.38062 7.32015L3.375 7.31088L3.37968 7.32561L3.38062 7.32015Z" fill="url(#paint_linear_187)" fill-opacity="0" fill-rule="evenodd" transform="matrix(-1,0,0,-1,25.4404,26.6666)" />
	</g>
	<rect id="蒙版" width="32.000000" height="32.000000" x="0.000000" y="0.000000" rx="2.666667" fill="rgb(255,255,255)" fill-opacity="0" />
	<rect id="蒙版" width="31.333334" height="31.333334" x="0.333333" y="0.333333" rx="2.333333" stroke="rgb(241,247,249)" stroke-width="0.666666687" />
</svg>
