<svg viewBox="0 0 32 32" xmlns="http://www.w3.org/2000/svg" xmlns:xlink="http://www.w3.org/1999/xlink" width="32.000000" height="32.000000" fill="none" customFrame="#000000">
	<mask id="mask_70" width="32.000000" height="32.000000" x="0.000000" y="0.000000" maskUnits="userSpaceOnUse">
		<g filter="url(#pixso_custom_mask_type_outline)">
			<rect id="蒙版" width="32.000000" height="32.000000" x="0.000000" y="0.000000" rx="2.666667" fill="rgb(255,255,255)" fill-opacity="0" />
			<rect id="蒙版" width="31.333334" height="31.333334" x="0.333333" y="0.333333" rx="2.333333" stroke="rgb(255,255,255)" stroke-width="0.666666687" />
		</g>
	</mask>
	<mask id="mask_69" width="10.383611" height="21.333456" x="6.000244" y="5.333374" maskUnits="userSpaceOnUse">
		<g filter="url(#pixso_custom_mask_type_outline)">
			<path id="蒙版" d="M7.22658 10.6667L6.00024 5.33337L11.4786 5.33337L12.7049 10.6667L7.22658 10.6667ZM10.9055 26.6668L7.83986 13.3335L13.3179 13.3335L16.3839 26.6668L10.9055 26.6668Z" fill="rgb(255,255,255)" fill-rule="evenodd" />
		</g>
	</mask>
	<mask id="mask_68" width="16.573378" height="21.333334" x="10.905273" y="5.333374" maskUnits="userSpaceOnUse">
		<g filter="url(#pixso_custom_mask_type_outline)">
			<path id="蒙版" d="M27.4787 5.33337L24.705 10.6667L19.2267 10.6667L22.0003 5.33337L27.4787 5.33337ZM10.9053 26.6667L17.8393 13.3334L23.3176 13.3334L16.3833 26.6667L10.9053 26.6667Z" fill="rgb(255,255,255)" fill-rule="evenodd" />
		</g>
	</mask>
	<mask id="mask_67" width="58.028000" height="58.022667" x="-13.331299" y="-12.666504" opacity="0.100000001" maskUnits="userSpaceOnUse">
		<g filter="url(#pixso_custom_mask_type_outline)">
			<path id="Fill 5" d="M13.9576 39.4748L15.6803 37.7514L17.4029 39.4741L15.6803 41.1968L13.9576 39.4748ZM10.8209 41.1968L8.39155 38.7668L6.66888 37.0441L8.39155 35.3221L10.8209 37.7514L13.2502 35.3221L14.9729 37.0441L13.2502 38.7674L10.8209 41.1968ZM5.96151 41.1968L4.23884 39.4748L5.96151 37.7514L7.68418 39.4741L5.96151 41.1968ZM1.10296 41.1968L-1.32704 38.7668L-3.04971 37.0441L-1.32704 35.3221L1.10296 37.7514L3.53229 35.3221L5.25496 37.0441L3.53229 38.7674L1.10296 41.1968ZM-5.4976 34.5967L-3.75626 32.8547L-2.01493 34.5967L-3.75626 36.3374L-5.4976 34.5967ZM-5.47893 29.7181L-3.75626 27.9955L-2.0336 29.7181L-3.75626 31.4408L-5.47893 29.7181ZM-5.45916 24.8762L-3.75382 23.1702L-2.04849 24.8762L-3.75382 26.5815L-5.45916 24.8762ZM-5.47893 20.0342L-3.75626 18.3115L-2.0336 20.0342L-3.75626 21.7562L-5.47893 20.0342ZM-8.61564 21.7561L-11.045 19.3261L-11.045 19.3268L-12.7676 17.6041L-11.045 15.8814L-8.61564 18.3114L-6.18564 15.8814L-4.46364 17.6041L-6.18564 19.3268L-8.61564 21.7561ZM-12.7676 12.664L-11.045 10.9414L-8.61564 13.3714L-6.18564 10.9414L-4.46364 12.664L-8.61564 16.816L-12.7676 12.664ZM-3.75626 8.51206L-2.0336 10.2347L-3.75626 11.9574L-5.47893 10.2347L-3.75626 8.51206ZM-5.45916 5.39213L-3.75382 3.68613L-2.04849 5.39213L-3.75382 7.09813L-5.45916 5.39213ZM-5.47893 0.549419L-3.75626 -1.17325L-2.0336 0.549419L-3.75626 2.27209L-5.47893 0.549419ZM-1.32704 -3.60181L1.10296 -1.17315L3.53229 -3.60181L5.25496 -1.87981L3.53229 -0.156481L3.53229 -0.157147L1.10296 2.27219L-1.32704 -0.157147L-3.04971 -1.87981L-1.32704 -3.60181ZM5.96133 -6.06923L7.70333 -4.3279L5.96133 -2.58657L4.22066 -4.3279L5.96133 -6.06923ZM4.23884 -9.20592L5.96151 -10.9286L7.68418 -9.20592L5.96151 -7.48392L4.23884 -9.20592ZM10.8209 -6.06915L13.2502 -8.49848L14.9729 -6.77648L10.8209 -2.62382L6.66888 -6.77648L8.39155 -8.49915L10.8209 -6.06915ZM15.6803 -10.9286L17.4029 -9.20592L15.6803 -7.48392L13.9576 -9.20592L15.6803 -10.9286ZM20.5396 -6.06915L22.969 -8.49848L24.6916 -6.77648L20.5396 -2.62382L16.3876 -6.77648L18.1103 -8.49915L20.5396 -6.06915ZM25.399 -10.9286L27.1217 -9.20592L25.399 -7.48392L23.6763 -9.20592L25.399 -10.9286ZM27.1403 -4.3279L25.399 -2.58657L23.6577 -4.3279L25.399 -6.06923L27.1403 -4.3279ZM30.2582 -1.17315L32.6876 -3.60181L34.4102 -1.87981L32.6876 -0.157147L30.2576 2.27219L27.8282 -0.157147L27.8282 -0.156481L26.1056 -1.87981L27.8282 -3.60181L30.2582 -1.17315ZM36.8399 0.550086L35.1173 2.27209L33.3946 0.549419L35.1173 -1.17325L36.8399 0.550086ZM36.8229 5.3928L35.1169 7.09813L33.4116 5.39213L35.1169 3.68613L36.8229 5.3928ZM36.8399 10.2354L35.1173 11.9574L33.3946 10.2347L35.1173 8.51206L36.8399 10.2354ZM39.9762 13.3714L42.4055 10.9414L44.1282 12.664L39.9762 16.816L35.8242 12.664L37.5468 10.942L39.9762 13.3714ZM44.1282 17.6041L42.4062 19.3268L42.4055 19.3261L39.9762 21.7561L37.5468 19.3261L37.5462 19.3268L35.8242 17.6041L37.5468 15.8814L39.9762 18.3114L42.4055 15.8814L44.1282 17.6041ZM35.1169 21.7562L33.3949 20.0342L35.1169 18.3115L36.8396 20.0342L35.1169 21.7562ZM36.8229 24.8768L35.1169 26.5815L33.4116 24.8762L35.1169 23.1702L36.8229 24.8768ZM36.8399 29.7188L35.1173 31.4408L33.3946 29.7181L35.1173 27.9955L36.8399 29.7188ZM36.8581 34.5967L35.1168 36.3374L33.3755 34.5967L35.1168 32.8547L36.8581 34.5967ZM32.6876 38.7668L30.2576 41.1968L27.8282 38.7668L27.8282 38.7674L26.1056 37.0441L27.8282 35.3221L30.2582 37.7514L32.6876 35.3221L34.4102 37.0441L32.6876 38.7668ZM25.399 41.1968L23.6763 39.4748L25.399 37.7514L27.1217 39.4748L25.399 41.1968ZM15.6803 32.8547L17.4216 34.5967L15.6803 36.3374L13.9389 34.5967L15.6803 32.8547ZM6.66888 32.1481L8.39155 30.4254L10.8209 32.8547L13.2502 30.4261L14.9729 32.1481L10.8209 36.2994L6.66888 32.1481ZM5.96133 32.8547L7.70333 34.5967L5.96133 36.3374L4.22066 34.5967L5.96133 32.8547ZM1.10296 32.8547L3.53229 30.4261L5.25496 32.1481L1.10296 36.2994L-3.04971 32.1481L-1.32704 30.4254L1.10296 32.8547ZM1.10296 28.0294L3.54896 25.5834L5.25496 27.2888L3.53229 29.0121L3.53229 29.0114L1.10296 31.4408L-1.32704 29.0114L-3.04971 27.2888L-1.34371 25.5828L1.10296 28.0294ZM1.10296 23.1702L3.53229 20.7408L5.25496 22.4628L3.54896 24.1695L3.53229 24.1522L1.10296 26.5815L-1.32704 24.1522L-1.34371 24.1688L-3.04971 22.4628L-1.32704 20.7408L1.10296 23.1702ZM-1.32704 15.8814L1.10296 18.3114L3.53229 15.8814L5.25496 17.6041L3.53229 19.3268L3.53229 19.3261L1.10296 21.7561L-1.32704 19.3261L-1.32704 19.3268L-3.04971 17.6041L-1.32704 15.8814ZM-1.99293 15.1341L-3.75626 16.8974L-5.5196 15.1341L-3.75626 13.3714L-1.99293 15.1341ZM1.10296 13.3714L3.53229 10.942L5.25496 12.664L1.10296 16.816L-3.04971 12.664L-1.32704 10.9414L1.10296 13.3714ZM1.10296 8.54548L3.54896 6.09948L5.25496 7.80482L3.53229 9.52815L3.53229 9.52748L1.10296 11.9575L-1.32704 9.52748L-3.04971 7.80482L-1.34371 6.09948L1.10296 8.54548ZM5.25496 2.97947L3.54896 4.68547L3.53229 4.66814L1.10296 7.09814L-1.32704 4.66814L-1.34371 4.6848L-3.04971 2.97947L-1.32704 1.2568L1.10296 3.68614L3.53229 1.25747L5.25496 2.97947ZM7.68418 0.549419L5.96151 2.27209L4.23884 0.550086L5.96151 -1.17325L7.68418 0.549419ZM14.9729 -1.87981L13.2502 -0.156481L13.2502 -0.157147L10.8209 2.27219L8.39155 -0.157147L6.66888 -1.87981L8.39155 -3.60181L10.8209 -1.17315L13.2502 -3.60181L14.9729 -1.87981ZM15.6803 -2.58657L13.9389 -4.3279L15.6803 -6.06923L17.4216 -4.3279L15.6803 -2.58657ZM22.969 -0.156481L20.5396 2.27219L18.1103 -0.157147L16.3876 -1.87981L18.1103 -3.60181L20.5396 -1.17315L22.969 -3.60181L24.6916 -1.87981L22.969 -0.156481ZM25.399 2.27209L23.6763 0.550086L25.399 -1.17325L27.1217 0.550086L25.399 2.27209ZM32.6876 4.66814L30.2576 7.09814L27.8282 4.66814L27.8116 4.68547L26.1056 2.97947L27.8282 1.25747L30.2576 3.68614L30.2582 3.68614L32.6876 1.2568L34.4102 2.97947L32.7042 4.6848L32.6876 4.66814ZM30.2576 11.9575L27.8282 9.52748L27.8282 9.52815L26.1056 7.80482L27.8116 6.09948L30.2576 8.54548L32.7042 6.09948L34.4102 7.80482L32.6876 9.52748L30.2576 11.9575ZM30.2576 16.816L26.1056 12.664L27.8282 10.942L30.2576 13.3714L30.2582 13.3714L32.6876 10.9414L34.4102 12.664L30.2576 16.816ZM33.3572 15.1341L35.1199 13.3714L36.8832 15.1341L35.1199 16.8974L33.3572 15.1341ZM32.6876 19.3261L30.2576 21.7561L27.8282 19.3261L27.8282 19.3268L26.1056 17.6041L27.8282 15.8814L30.2582 18.3114L32.6876 15.8814L34.4102 17.6041L32.6876 19.3268L32.6876 19.3261ZM32.6876 24.1522L30.2576 26.5815L27.8282 24.1522L27.8116 24.1695L26.1056 22.4628L27.8282 20.7408L30.2576 23.1702L30.2582 23.1702L32.6876 20.7408L34.4102 22.4628L32.7042 24.1688L32.6876 24.1522ZM30.2576 31.4408L27.8282 29.0114L27.8282 29.0121L26.1056 27.2888L27.8116 25.5834L30.2576 28.0294L32.7042 25.5828L34.4102 27.2888L32.6876 29.0114L30.2576 31.4408ZM26.1056 32.1481L27.8282 30.4261L30.2576 32.8547L30.2582 32.8547L32.6876 30.4254L34.4102 32.1481L30.2576 36.2994L26.1056 32.1481ZM25.4018 32.8547L27.1424 34.5967L25.4018 36.3374L23.6604 34.5967L25.4018 32.8547ZM18.1103 30.4254L20.5396 32.8547L22.969 30.4261L24.6916 32.1481L20.5396 36.2994L16.3876 32.1481L18.1103 30.4254ZM15.6803 27.9955L17.4029 29.7181L15.6803 31.4408L13.9576 29.7188L15.6803 27.9955ZM7.68418 29.7181L5.96151 31.4408L4.23884 29.7188L5.96151 27.9955L7.68418 29.7181ZM7.66766 24.8762L5.96166 26.5815L4.25633 24.8768L5.96166 23.1702L7.66766 24.8762ZM7.68433 20.0342L5.96166 21.7562L4.23966 20.0342L5.96166 18.3115L7.68433 20.0342ZM7.72744 15.1341L5.96411 16.8974L4.20144 15.1341L5.96411 13.3714L7.72744 15.1341ZM7.68418 10.2347L5.96151 11.9574L4.23884 10.2354L5.96151 8.51206L7.68418 10.2347ZM7.66766 5.39213L5.96166 7.09813L4.25633 5.3928L5.96166 3.68613L7.66766 5.39213ZM14.9729 2.97947L13.2676 4.68547L13.2502 4.66814L10.8209 7.09814L8.39155 4.66814L8.37422 4.6848L6.66888 2.97947L8.39155 1.2568L10.8209 3.68614L13.2502 1.25747L14.9729 2.97947ZM15.6803 2.27209L13.9576 0.550086L15.6803 -1.17325L17.4029 0.549419L15.6803 2.27209ZM22.9856 4.68547L22.969 4.66814L20.5396 7.09814L18.1103 4.66814L18.093 4.6848L16.3876 2.97947L18.1103 1.2568L20.5396 3.68614L22.969 1.25747L24.6916 2.97947L22.9856 4.68547ZM23.6929 5.3928L25.3989 3.68613L27.1042 5.3928L25.3989 7.09813L23.6929 5.3928ZM23.6763 10.2354L25.399 8.51206L27.1217 10.2354L25.399 11.9574L23.6763 10.2354ZM23.6385 15.1341L25.4018 13.3714L27.1645 15.1341L25.4018 16.8974L23.6385 15.1341ZM23.6762 20.0342L25.3989 18.3115L27.1209 20.0342L25.3989 21.7562L23.6762 20.0342ZM23.6929 24.8768L25.3989 23.1702L27.1042 24.8768L25.3989 26.5815L23.6929 24.8768ZM25.399 27.9955L27.1217 29.7188L25.399 31.4408L23.6763 29.7188L25.399 27.9955ZM15.6807 23.1702L17.3867 24.8762L15.6807 26.5815L13.9747 24.8768L15.6807 23.1702ZM10.8209 23.1702L13.2509 20.7408L14.9729 22.4628L13.2676 24.1695L13.2502 24.1522L10.8209 26.5815L8.39155 24.1522L8.37422 24.1688L6.66888 22.4628L8.39155 20.7408L10.8209 23.1702ZM10.8209 18.3114L13.2502 15.8814L14.9729 17.6041L13.2509 19.3268L13.2502 19.3261L10.8209 21.7561L8.39155 19.3261L8.39155 19.3268L6.66888 17.6041L8.39155 15.8814L10.8209 18.3114ZM10.8209 13.3714L13.2502 10.942L14.9729 12.664L10.8209 16.816L6.66888 12.664L8.39155 10.9414L10.8209 13.3714ZM14.9729 7.80482L13.2502 9.52815L13.2502 9.52748L10.8209 11.9575L8.39155 9.52748L6.66888 7.80482L8.37422 6.09948L10.8209 8.54548L13.2676 6.09948L14.9729 7.80482ZM15.6807 7.09813L13.9747 5.3928L15.6807 3.68613L17.3867 5.39213L15.6807 7.09813ZM20.5396 11.9575L18.1103 9.52748L16.3876 7.80482L18.093 6.09948L20.5396 8.54548L22.9856 6.09948L24.6916 7.80482L22.969 9.52815L20.5396 11.9575ZM20.5396 16.816L16.3876 12.664L18.1103 10.9414L20.5396 13.3714L22.969 10.942L24.6916 12.664L20.5396 16.816ZM22.969 19.3261L20.5396 21.7561L18.1103 19.3261L18.1103 19.3268L16.3876 17.6041L18.1103 15.8814L20.5396 18.3114L22.969 15.8814L24.6916 17.6041L22.9696 19.3268L22.969 19.3261ZM18.1103 20.7408L20.5396 23.1702L22.9696 20.7408L24.6916 22.4628L22.9856 24.1695L22.969 24.1522L20.5396 26.5815L18.1103 24.1522L18.093 24.1688L16.3876 22.4628L18.1103 20.7408ZM17.4029 20.0342L15.6803 21.7562L13.9576 20.0342L15.6803 18.3115L17.4029 20.0342ZM13.9576 10.2354L15.6803 8.51206L17.4029 10.2347L15.6803 11.9574L13.9576 10.2354ZM17.4436 15.1341L15.6803 16.8974L13.9169 15.1341L15.6803 13.3714L17.4436 15.1341ZM20.5396 31.4408L18.1103 29.0114L16.3876 27.2888L18.093 25.5828L20.5396 28.0294L22.9856 25.5834L24.6916 27.2888L22.969 29.0121L20.5396 31.4408ZM10.8209 31.4408L8.39155 29.0114L6.66888 27.2888L8.37422 25.5828L10.8209 28.0294L13.2676 25.5834L14.9729 27.2888L13.2502 29.0121L10.8209 31.4408ZM20.5396 41.1968L18.1103 38.7668L16.3876 37.0441L18.1103 35.3221L20.5396 37.7514L22.969 35.3221L24.6916 37.0441L22.969 38.7674L20.5396 41.1968ZM16.39 41.9042L18.1127 43.5928L19.6194 45.1002C19.1894 45.1582 18.756 45.2095 18.32 45.2482L18.0954 45.0235L17.834 45.2855C17.342 45.3215 16.8474 45.3455 16.3487 45.3562L17.3887 44.3168L15.6827 42.6108L13.9767 44.3175L15.016 45.3562C14.518 45.3455 14.0234 45.3215 13.5314 45.2855L13.27 45.0242L13.0454 45.2482C12.6094 45.2095 12.1767 45.1582 11.746 45.1002L13.2527 43.5928L13.27 43.6102L14.9754 41.9042L13.2527 40.1822L10.8234 42.6108L8.39404 40.1815L6.67137 41.9042L8.3767 43.6095L8.39404 43.5928L9.51003 44.7088C8.85337 44.5668 8.2067 44.4008 7.56803 44.2148L5.96403 42.6108L5.1727 43.4028C4.8347 43.2715 4.49937 43.1368 4.16803 42.9935L5.25737 41.9042L3.5347 40.1822L1.84737 41.8695C0.235368 40.9935 -1.28263 39.9682 -2.69197 38.8142L-3.75397 37.7515L-3.83397 37.8315C-4.08063 37.6068 -4.31863 37.3742 -4.55797 37.1415L-4.4613 37.0442L-6.1833 35.3222L-6.23063 35.3688C-6.45597 35.1095 -6.67797 34.8488 -6.89397 34.5808L-4.4613 32.1482L-6.1833 30.4255L-8.3633 32.6055C-8.87663 31.8495 -9.3533 31.0662 -9.79397 30.2602L-8.6133 31.4408L-4.4613 27.2888L-6.16663 25.5828L-8.6133 28.0295L-11.06 25.5828L-11.6373 26.1602C-11.7626 25.8115 -11.882 25.4595 -11.9946 25.1035L-11.7666 24.8762L-12.1846 24.4588C-12.366 23.8342 -12.528 23.2022 -12.668 22.5608L-11.06 24.1688L-11.0426 24.1522L-8.6133 26.5815L-6.1833 24.1522L-6.16663 24.1688L-4.4613 22.4628L-6.1833 20.7408L-8.6133 23.1702L-11.0426 20.7408L-12.7046 22.4028C-12.788 22.0088 -12.86 21.6108 -12.928 21.2115L-11.75 20.0342L-13.2506 18.5335C-13.2946 17.9455 -13.3226 17.3528 -13.3313 16.7562L-11.7093 15.1342L-13.2106 13.6335C-13.1406 12.8782 -13.0386 12.1335 -12.912 11.3968L-11.75 10.2348L-12.514 9.47083C-12.4226 9.0955 -12.3226 8.7235 -12.2166 8.35349L-11.0426 9.5275L-8.6133 11.9575L-4.4613 7.80483L-6.16663 6.09949L-8.6133 8.5455L-11.06 6.09949L-11.708 6.7475C-11.4733 6.07883 -11.2166 5.42083 -10.9353 4.7755L-8.6133 7.09816L-6.1833 4.66816L-6.16663 4.68483L-4.4613 2.9795L-6.1833 1.25683L-8.6133 3.68616L-9.81863 2.48083C-9.6533 2.1775 -9.47863 1.8795 -9.30263 1.58283L-8.6133 2.27216L-4.4613 -1.87984L-5.7753 -3.19317C-5.55063 -3.43984 -5.31797 -3.6785 -5.08463 -3.91717L-3.75397 -2.5865L-2.01263 -4.32784L-3.28997 -5.6045C-3.03663 -5.82384 -2.7813 -6.03984 -2.5213 -6.2505L1.10537 -2.62384L5.25737 -6.7765L3.5347 -8.4985L1.10537 -6.06917L-0.543965 -7.7185C-0.261966 -7.90917 0.0280342 -8.08984 0.317368 -8.2705L1.10537 -7.48384L3.5347 -9.91317L3.5347 -9.9125L3.7107 -10.0892C4.76537 -10.5672 5.84937 -10.9898 6.96603 -11.3412L8.39404 -9.91317L10.8234 -7.48384L13.2527 -9.91317L13.2527 -9.9125L14.9754 -11.6358L13.9894 -12.6225C14.4427 -12.6485 14.9 -12.6618 15.3587 -12.6665L15.6827 -12.3432L16.0067 -12.6665C16.466 -12.6618 16.9227 -12.6485 17.376 -12.6225L16.39 -11.6358L18.1127 -9.91317L20.542 -7.48384L22.9714 -9.91317L22.9714 -9.9125L24.3994 -11.3412C25.516 -10.9898 26.6007 -10.5672 27.6547 -10.0892L27.8307 -9.9125L27.8307 -9.91317L30.26 -7.48384L31.048 -8.27117C31.3374 -8.0905 31.6267 -7.90917 31.9094 -7.7185L30.2607 -6.06917L30.26 -6.06917L27.8307 -8.4985L26.108 -6.7765L30.26 -2.62384L33.8867 -6.2505C34.1474 -6.03984 34.4027 -5.82384 34.6554 -5.60517L33.378 -4.32784L35.1194 -2.5865L36.4507 -3.91717C36.6834 -3.6785 36.916 -3.43984 37.1407 -3.19317L35.8267 -1.87984L37.5494 -0.156504L37.5494 -0.15717L39.9787 2.27216L40.668 1.58283C40.844 1.8795 41.0187 2.1775 41.184 2.48083L39.9787 3.68616L37.5494 1.2575L35.8267 2.9795L37.532 4.6855L37.5494 4.66816L39.9787 7.09816L42.3014 4.7755C42.582 5.42083 42.8394 6.07883 43.0734 6.7475L42.4254 6.09949L39.9787 8.5455L37.532 6.09949L35.8267 7.80483L37.5494 9.52816L37.5494 9.5275L39.9787 11.9575L42.408 9.5275L43.5827 8.35349C43.688 8.7235 43.7887 9.0955 43.8794 9.47016L43.1154 10.2348L44.2774 11.3968C44.404 12.1335 44.506 12.8782 44.576 13.6335L43.0747 15.1342L44.6967 16.7562C44.688 17.3528 44.66 17.9448 44.6167 18.5328L43.1154 20.0342L44.2934 21.2115C44.226 21.6108 44.154 22.0088 44.07 22.4028L42.4087 20.7408L39.9787 23.1702L37.5487 20.7408L35.8267 22.4628L37.532 24.1695L37.5494 24.1522L39.9787 26.5815L42.408 24.1522L42.4254 24.1688L44.0334 22.5608C43.8934 23.2022 43.7314 23.8342 43.55 24.4588L43.132 24.8762L43.36 25.1035C43.248 25.4595 43.128 25.8115 43.0027 26.1602L42.4254 25.5828L39.9787 28.0295L37.532 25.5835L35.8267 27.2888L37.5494 29.0122L37.5494 29.0115L39.9787 31.4408L41.16 30.2602C40.7194 31.0662 40.242 31.8488 39.7294 32.6055L37.5494 30.4262L35.8267 32.1482L38.26 34.5808C38.0434 34.8488 37.8214 35.1095 37.596 35.3688L37.5494 35.3222L35.8267 37.0442L35.9234 37.1415C35.6847 37.3742 35.446 37.6075 35.1994 37.8315L35.1194 37.7515L34.0567 38.8148C32.648 39.9682 31.13 40.9935 29.5187 41.8695L27.8307 40.1822L26.108 41.9042L27.198 42.9935C26.8667 43.1375 26.53 43.2715 26.1927 43.4028L25.4014 42.6108L23.7974 44.2148C23.1587 44.4008 22.512 44.5668 21.856 44.7088L22.9714 43.5928L22.988 43.6102L24.694 41.9042L22.9714 40.1822L20.542 42.6108L18.1127 40.1815L16.39 41.9042Z" fill="rgb(255,255,255)" fill-rule="evenodd" />
		</g>
	</mask>
	<defs>
		<filter id="pixso_custom_mask_type_outline">
			<feColorMatrix type="matrix" values="0 0 0 0 1 0 0 0 0 1 0 0 0 0 1 0 0 0 1 0 " />
		</filter>
		<linearGradient id="paint_linear_119" x1="13.3486786" x2="22.7570915" y1="26.6667042" y2="8.73836136" gradientUnits="userSpaceOnUse">
			<stop stop-color="rgb(34,192,181)" offset="0" stop-opacity="1" />
			<stop stop-color="rgb(120,255,236)" offset="1" stop-opacity="1" />
		</linearGradient>
		<linearGradient id="paint_linear_120" x1="30.3294716" x2="19.240242" y1="-9.92337132" y2="32.805542" gradientUnits="userSpaceOnUse">
			<stop stop-color="rgb(255,255,255)" offset="0" stop-opacity="0" />
			<stop stop-color="rgb(255,255,255)" offset="1" stop-opacity="0.552941203" />
		</linearGradient>
		<linearGradient id="paint_linear_121" x1="11.1920509" x2="11.1920509" y1="-0.568380833" y2="26.666832" gradientUnits="userSpaceOnUse">
			<stop stop-color="rgb(125,251,233)" offset="0" stop-opacity="1" />
			<stop stop-color="rgb(50,255,226)" offset="1" stop-opacity="1" />
		</linearGradient>
		<linearGradient id="paint_linear_122" x1="9.45855522" x2="7.84612894" y1="24.8123016" y2="2.01419449" gradientUnits="userSpaceOnUse">
			<stop stop-color="rgb(255,255,255)" offset="0" stop-opacity="1" />
			<stop stop-color="rgb(255,255,255)" offset="1" stop-opacity="0" />
		</linearGradient>
		<linearGradient id="paint_linear_123" x1="12.8101692" x2="12.121748" y1="24.0492802" y2="16.018755" gradientUnits="userSpaceOnUse">
			<stop stop-color="rgb(0,17,15)" offset="0" stop-opacity="1" />
			<stop stop-color="rgb(6,85,75)" offset="1" stop-opacity="0" />
		</linearGradient>
		<linearGradient id="paint_linear_124" x1="14.715065" x2="11.3626213" y1="18.7560081" y2="25.846632" gradientUnits="userSpaceOnUse">
			<stop stop-color="rgb(37,43,58)" offset="0" stop-opacity="1" />
			<stop stop-color="rgb(37,43,58)" offset="1" stop-opacity="1" />
		</linearGradient>
	</defs>
	<mask id="mask_66" width="32.000000" height="32.000000" x="0.000000" y="0.000000" maskUnits="userSpaceOnUse">
		<g filter="url(#pixso_custom_mask_type_outline)">
			<rect id="蒙版" width="32.000000" height="32.000000" x="0.000000" y="0.000000" rx="2.666667" fill="rgb(255,255,255)" />
			<rect id="蒙版" width="31.000000" height="31.000000" x="0.500000" y="0.500000" rx="2.166667" stroke="rgb(223,238,236)" stroke-opacity="0" stroke-width="1" />
		</g>
	</mask>
	<rect id="工程首字母图标/V-32x33" width="32.000000" height="32.000000" x="0.000000" y="0.000000" />
	<rect id="矩形" width="32.000000" height="32.000000" x="0.000000" y="0.000000" rx="2.666667" fill="rgb(255,255,255)" />
	<rect id="矩形" width="31.000000" height="31.000000" x="0.500000" y="0.500000" rx="2.166667" stroke="rgb(151,151,151)" stroke-opacity="0" stroke-width="1" />
	<g id="形状" showMaskRef="url(#show_mask_52)" mask="url(#mask_66)">
		<g id="show_mask_52">
			<rect id="蒙版" width="32.000000" height="32.000000" x="0.000000" y="0.000000" rx="2.666667" fill="rgb(255,255,255)" />
			<rect id="蒙版" width="31.000000" height="31.000000" x="0.500000" y="0.500000" rx="2.166667" stroke="rgb(223,238,236)" stroke-opacity="0" stroke-width="1" />
		</g>
		<g id="Fill 5">
			<rect id="蒙版" width="32.000000" height="32.000000" x="0.000000" y="0.000000" rx="2.666667" fill="rgb(255,255,255)" fill-opacity="0" />
			<rect id="蒙版" width="31.000000" height="31.000000" x="0.500000" y="0.500000" rx="2.166667" stroke="rgb(236,247,249)" stroke-opacity="0" stroke-width="1" />
			<g showMaskRef="url(#show_mask_53)" mask="url(#mask_67)">
				<path id="show_mask_53" d="M13.9576 39.4748L15.6803 37.7514L17.4029 39.4741L15.6803 41.1968L13.9576 39.4748ZM10.8209 41.1968L8.39155 38.7668L6.66888 37.0441L8.39155 35.3221L10.8209 37.7514L13.2502 35.3221L14.9729 37.0441L13.2502 38.7674L10.8209 41.1968ZM5.96151 41.1968L4.23884 39.4748L5.96151 37.7514L7.68418 39.4741L5.96151 41.1968ZM1.10296 41.1968L-1.32704 38.7668L-3.04971 37.0441L-1.32704 35.3221L1.10296 37.7514L3.53229 35.3221L5.25496 37.0441L3.53229 38.7674L1.10296 41.1968ZM-5.4976 34.5967L-3.75626 32.8547L-2.01493 34.5967L-3.75626 36.3374L-5.4976 34.5967ZM-5.47893 29.7181L-3.75626 27.9955L-2.0336 29.7181L-3.75626 31.4408L-5.47893 29.7181ZM-5.45916 24.8762L-3.75382 23.1702L-2.04849 24.8762L-3.75382 26.5815L-5.45916 24.8762ZM-5.47893 20.0342L-3.75626 18.3115L-2.0336 20.0342L-3.75626 21.7562L-5.47893 20.0342ZM-8.61564 21.7561L-11.045 19.3261L-11.045 19.3268L-12.7676 17.6041L-11.045 15.8814L-8.61564 18.3114L-6.18564 15.8814L-4.46364 17.6041L-6.18564 19.3268L-8.61564 21.7561ZM-12.7676 12.664L-11.045 10.9414L-8.61564 13.3714L-6.18564 10.9414L-4.46364 12.664L-8.61564 16.816L-12.7676 12.664ZM-3.75626 8.51206L-2.0336 10.2347L-3.75626 11.9574L-5.47893 10.2347L-3.75626 8.51206ZM-5.45916 5.39213L-3.75382 3.68613L-2.04849 5.39213L-3.75382 7.09813L-5.45916 5.39213ZM-5.47893 0.549419L-3.75626 -1.17325L-2.0336 0.549419L-3.75626 2.27209L-5.47893 0.549419ZM-1.32704 -3.60181L1.10296 -1.17315L3.53229 -3.60181L5.25496 -1.87981L3.53229 -0.156481L3.53229 -0.157147L1.10296 2.27219L-1.32704 -0.157147L-3.04971 -1.87981L-1.32704 -3.60181ZM5.96133 -6.06923L7.70333 -4.3279L5.96133 -2.58657L4.22066 -4.3279L5.96133 -6.06923ZM4.23884 -9.20592L5.96151 -10.9286L7.68418 -9.20592L5.96151 -7.48392L4.23884 -9.20592ZM10.8209 -6.06915L13.2502 -8.49848L14.9729 -6.77648L10.8209 -2.62382L6.66888 -6.77648L8.39155 -8.49915L10.8209 -6.06915ZM15.6803 -10.9286L17.4029 -9.20592L15.6803 -7.48392L13.9576 -9.20592L15.6803 -10.9286ZM20.5396 -6.06915L22.969 -8.49848L24.6916 -6.77648L20.5396 -2.62382L16.3876 -6.77648L18.1103 -8.49915L20.5396 -6.06915ZM25.399 -10.9286L27.1217 -9.20592L25.399 -7.48392L23.6763 -9.20592L25.399 -10.9286ZM27.1403 -4.3279L25.399 -2.58657L23.6577 -4.3279L25.399 -6.06923L27.1403 -4.3279ZM30.2582 -1.17315L32.6876 -3.60181L34.4102 -1.87981L32.6876 -0.157147L30.2576 2.27219L27.8282 -0.157147L27.8282 -0.156481L26.1056 -1.87981L27.8282 -3.60181L30.2582 -1.17315ZM36.8399 0.550086L35.1173 2.27209L33.3946 0.549419L35.1173 -1.17325L36.8399 0.550086ZM36.8229 5.3928L35.1169 7.09813L33.4116 5.39213L35.1169 3.68613L36.8229 5.3928ZM36.8399 10.2354L35.1173 11.9574L33.3946 10.2347L35.1173 8.51206L36.8399 10.2354ZM39.9762 13.3714L42.4055 10.9414L44.1282 12.664L39.9762 16.816L35.8242 12.664L37.5468 10.942L39.9762 13.3714ZM44.1282 17.6041L42.4062 19.3268L42.4055 19.3261L39.9762 21.7561L37.5468 19.3261L37.5462 19.3268L35.8242 17.6041L37.5468 15.8814L39.9762 18.3114L42.4055 15.8814L44.1282 17.6041ZM35.1169 21.7562L33.3949 20.0342L35.1169 18.3115L36.8396 20.0342L35.1169 21.7562ZM36.8229 24.8768L35.1169 26.5815L33.4116 24.8762L35.1169 23.1702L36.8229 24.8768ZM36.8399 29.7188L35.1173 31.4408L33.3946 29.7181L35.1173 27.9955L36.8399 29.7188ZM36.8581 34.5967L35.1168 36.3374L33.3755 34.5967L35.1168 32.8547L36.8581 34.5967ZM32.6876 38.7668L30.2576 41.1968L27.8282 38.7668L27.8282 38.7674L26.1056 37.0441L27.8282 35.3221L30.2582 37.7514L32.6876 35.3221L34.4102 37.0441L32.6876 38.7668ZM25.399 41.1968L23.6763 39.4748L25.399 37.7514L27.1217 39.4748L25.399 41.1968ZM15.6803 32.8547L17.4216 34.5967L15.6803 36.3374L13.9389 34.5967L15.6803 32.8547ZM6.66888 32.1481L8.39155 30.4254L10.8209 32.8547L13.2502 30.4261L14.9729 32.1481L10.8209 36.2994L6.66888 32.1481ZM5.96133 32.8547L7.70333 34.5967L5.96133 36.3374L4.22066 34.5967L5.96133 32.8547ZM1.10296 32.8547L3.53229 30.4261L5.25496 32.1481L1.10296 36.2994L-3.04971 32.1481L-1.32704 30.4254L1.10296 32.8547ZM1.10296 28.0294L3.54896 25.5834L5.25496 27.2888L3.53229 29.0121L3.53229 29.0114L1.10296 31.4408L-1.32704 29.0114L-3.04971 27.2888L-1.34371 25.5828L1.10296 28.0294ZM1.10296 23.1702L3.53229 20.7408L5.25496 22.4628L3.54896 24.1695L3.53229 24.1522L1.10296 26.5815L-1.32704 24.1522L-1.34371 24.1688L-3.04971 22.4628L-1.32704 20.7408L1.10296 23.1702ZM-1.32704 15.8814L1.10296 18.3114L3.53229 15.8814L5.25496 17.6041L3.53229 19.3268L3.53229 19.3261L1.10296 21.7561L-1.32704 19.3261L-1.32704 19.3268L-3.04971 17.6041L-1.32704 15.8814ZM-1.99293 15.1341L-3.75626 16.8974L-5.5196 15.1341L-3.75626 13.3714L-1.99293 15.1341ZM1.10296 13.3714L3.53229 10.942L5.25496 12.664L1.10296 16.816L-3.04971 12.664L-1.32704 10.9414L1.10296 13.3714ZM1.10296 8.54548L3.54896 6.09948L5.25496 7.80482L3.53229 9.52815L3.53229 9.52748L1.10296 11.9575L-1.32704 9.52748L-3.04971 7.80482L-1.34371 6.09948L1.10296 8.54548ZM5.25496 2.97947L3.54896 4.68547L3.53229 4.66814L1.10296 7.09814L-1.32704 4.66814L-1.34371 4.6848L-3.04971 2.97947L-1.32704 1.2568L1.10296 3.68614L3.53229 1.25747L5.25496 2.97947ZM7.68418 0.549419L5.96151 2.27209L4.23884 0.550086L5.96151 -1.17325L7.68418 0.549419ZM14.9729 -1.87981L13.2502 -0.156481L13.2502 -0.157147L10.8209 2.27219L8.39155 -0.157147L6.66888 -1.87981L8.39155 -3.60181L10.8209 -1.17315L13.2502 -3.60181L14.9729 -1.87981ZM15.6803 -2.58657L13.9389 -4.3279L15.6803 -6.06923L17.4216 -4.3279L15.6803 -2.58657ZM22.969 -0.156481L20.5396 2.27219L18.1103 -0.157147L16.3876 -1.87981L18.1103 -3.60181L20.5396 -1.17315L22.969 -3.60181L24.6916 -1.87981L22.969 -0.156481ZM25.399 2.27209L23.6763 0.550086L25.399 -1.17325L27.1217 0.550086L25.399 2.27209ZM32.6876 4.66814L30.2576 7.09814L27.8282 4.66814L27.8116 4.68547L26.1056 2.97947L27.8282 1.25747L30.2576 3.68614L30.2582 3.68614L32.6876 1.2568L34.4102 2.97947L32.7042 4.6848L32.6876 4.66814ZM30.2576 11.9575L27.8282 9.52748L27.8282 9.52815L26.1056 7.80482L27.8116 6.09948L30.2576 8.54548L32.7042 6.09948L34.4102 7.80482L32.6876 9.52748L30.2576 11.9575ZM30.2576 16.816L26.1056 12.664L27.8282 10.942L30.2576 13.3714L30.2582 13.3714L32.6876 10.9414L34.4102 12.664L30.2576 16.816ZM33.3572 15.1341L35.1199 13.3714L36.8832 15.1341L35.1199 16.8974L33.3572 15.1341ZM32.6876 19.3261L30.2576 21.7561L27.8282 19.3261L27.8282 19.3268L26.1056 17.6041L27.8282 15.8814L30.2582 18.3114L32.6876 15.8814L34.4102 17.6041L32.6876 19.3268L32.6876 19.3261ZM32.6876 24.1522L30.2576 26.5815L27.8282 24.1522L27.8116 24.1695L26.1056 22.4628L27.8282 20.7408L30.2576 23.1702L30.2582 23.1702L32.6876 20.7408L34.4102 22.4628L32.7042 24.1688L32.6876 24.1522ZM30.2576 31.4408L27.8282 29.0114L27.8282 29.0121L26.1056 27.2888L27.8116 25.5834L30.2576 28.0294L32.7042 25.5828L34.4102 27.2888L32.6876 29.0114L30.2576 31.4408ZM26.1056 32.1481L27.8282 30.4261L30.2576 32.8547L30.2582 32.8547L32.6876 30.4254L34.4102 32.1481L30.2576 36.2994L26.1056 32.1481ZM25.4018 32.8547L27.1424 34.5967L25.4018 36.3374L23.6604 34.5967L25.4018 32.8547ZM18.1103 30.4254L20.5396 32.8547L22.969 30.4261L24.6916 32.1481L20.5396 36.2994L16.3876 32.1481L18.1103 30.4254ZM15.6803 27.9955L17.4029 29.7181L15.6803 31.4408L13.9576 29.7188L15.6803 27.9955ZM7.68418 29.7181L5.96151 31.4408L4.23884 29.7188L5.96151 27.9955L7.68418 29.7181ZM7.66766 24.8762L5.96166 26.5815L4.25633 24.8768L5.96166 23.1702L7.66766 24.8762ZM7.68433 20.0342L5.96166 21.7562L4.23966 20.0342L5.96166 18.3115L7.68433 20.0342ZM7.72744 15.1341L5.96411 16.8974L4.20144 15.1341L5.96411 13.3714L7.72744 15.1341ZM7.68418 10.2347L5.96151 11.9574L4.23884 10.2354L5.96151 8.51206L7.68418 10.2347ZM7.66766 5.39213L5.96166 7.09813L4.25633 5.3928L5.96166 3.68613L7.66766 5.39213ZM14.9729 2.97947L13.2676 4.68547L13.2502 4.66814L10.8209 7.09814L8.39155 4.66814L8.37422 4.6848L6.66888 2.97947L8.39155 1.2568L10.8209 3.68614L13.2502 1.25747L14.9729 2.97947ZM15.6803 2.27209L13.9576 0.550086L15.6803 -1.17325L17.4029 0.549419L15.6803 2.27209ZM22.9856 4.68547L22.969 4.66814L20.5396 7.09814L18.1103 4.66814L18.093 4.6848L16.3876 2.97947L18.1103 1.2568L20.5396 3.68614L22.969 1.25747L24.6916 2.97947L22.9856 4.68547ZM23.6929 5.3928L25.3989 3.68613L27.1042 5.3928L25.3989 7.09813L23.6929 5.3928ZM23.6763 10.2354L25.399 8.51206L27.1217 10.2354L25.399 11.9574L23.6763 10.2354ZM23.6385 15.1341L25.4018 13.3714L27.1645 15.1341L25.4018 16.8974L23.6385 15.1341ZM23.6762 20.0342L25.3989 18.3115L27.1209 20.0342L25.3989 21.7562L23.6762 20.0342ZM23.6929 24.8768L25.3989 23.1702L27.1042 24.8768L25.3989 26.5815L23.6929 24.8768ZM25.399 27.9955L27.1217 29.7188L25.399 31.4408L23.6763 29.7188L25.399 27.9955ZM15.6807 23.1702L17.3867 24.8762L15.6807 26.5815L13.9747 24.8768L15.6807 23.1702ZM10.8209 23.1702L13.2509 20.7408L14.9729 22.4628L13.2676 24.1695L13.2502 24.1522L10.8209 26.5815L8.39155 24.1522L8.37422 24.1688L6.66888 22.4628L8.39155 20.7408L10.8209 23.1702ZM10.8209 18.3114L13.2502 15.8814L14.9729 17.6041L13.2509 19.3268L13.2502 19.3261L10.8209 21.7561L8.39155 19.3261L8.39155 19.3268L6.66888 17.6041L8.39155 15.8814L10.8209 18.3114ZM10.8209 13.3714L13.2502 10.942L14.9729 12.664L10.8209 16.816L6.66888 12.664L8.39155 10.9414L10.8209 13.3714ZM14.9729 7.80482L13.2502 9.52815L13.2502 9.52748L10.8209 11.9575L8.39155 9.52748L6.66888 7.80482L8.37422 6.09948L10.8209 8.54548L13.2676 6.09948L14.9729 7.80482ZM15.6807 7.09813L13.9747 5.3928L15.6807 3.68613L17.3867 5.39213L15.6807 7.09813ZM20.5396 11.9575L18.1103 9.52748L16.3876 7.80482L18.093 6.09948L20.5396 8.54548L22.9856 6.09948L24.6916 7.80482L22.969 9.52815L20.5396 11.9575ZM20.5396 16.816L16.3876 12.664L18.1103 10.9414L20.5396 13.3714L22.969 10.942L24.6916 12.664L20.5396 16.816ZM22.969 19.3261L20.5396 21.7561L18.1103 19.3261L18.1103 19.3268L16.3876 17.6041L18.1103 15.8814L20.5396 18.3114L22.969 15.8814L24.6916 17.6041L22.9696 19.3268L22.969 19.3261ZM18.1103 20.7408L20.5396 23.1702L22.9696 20.7408L24.6916 22.4628L22.9856 24.1695L22.969 24.1522L20.5396 26.5815L18.1103 24.1522L18.093 24.1688L16.3876 22.4628L18.1103 20.7408ZM17.4029 20.0342L15.6803 21.7562L13.9576 20.0342L15.6803 18.3115L17.4029 20.0342ZM13.9576 10.2354L15.6803 8.51206L17.4029 10.2347L15.6803 11.9574L13.9576 10.2354ZM17.4436 15.1341L15.6803 16.8974L13.9169 15.1341L15.6803 13.3714L17.4436 15.1341ZM20.5396 31.4408L18.1103 29.0114L16.3876 27.2888L18.093 25.5828L20.5396 28.0294L22.9856 25.5834L24.6916 27.2888L22.969 29.0121L20.5396 31.4408ZM10.8209 31.4408L8.39155 29.0114L6.66888 27.2888L8.37422 25.5828L10.8209 28.0294L13.2676 25.5834L14.9729 27.2888L13.2502 29.0121L10.8209 31.4408ZM20.5396 41.1968L18.1103 38.7668L16.3876 37.0441L18.1103 35.3221L20.5396 37.7514L22.969 35.3221L24.6916 37.0441L22.969 38.7674L20.5396 41.1968ZM16.39 41.9042L18.1127 43.5928L19.6194 45.1002C19.1894 45.1582 18.756 45.2095 18.32 45.2482L18.0954 45.0235L17.834 45.2855C17.342 45.3215 16.8474 45.3455 16.3487 45.3562L17.3887 44.3168L15.6827 42.6108L13.9767 44.3175L15.016 45.3562C14.518 45.3455 14.0234 45.3215 13.5314 45.2855L13.27 45.0242L13.0454 45.2482C12.6094 45.2095 12.1767 45.1582 11.746 45.1002L13.2527 43.5928L13.27 43.6102L14.9754 41.9042L13.2527 40.1822L10.8234 42.6108L8.39404 40.1815L6.67137 41.9042L8.3767 43.6095L8.39404 43.5928L9.51003 44.7088C8.85337 44.5668 8.2067 44.4008 7.56803 44.2148L5.96403 42.6108L5.1727 43.4028C4.8347 43.2715 4.49937 43.1368 4.16803 42.9935L5.25737 41.9042L3.5347 40.1822L1.84737 41.8695C0.235368 40.9935 -1.28263 39.9682 -2.69197 38.8142L-3.75397 37.7515L-3.83397 37.8315C-4.08063 37.6068 -4.31863 37.3742 -4.55797 37.1415L-4.4613 37.0442L-6.1833 35.3222L-6.23063 35.3688C-6.45597 35.1095 -6.67797 34.8488 -6.89397 34.5808L-4.4613 32.1482L-6.1833 30.4255L-8.3633 32.6055C-8.87663 31.8495 -9.3533 31.0662 -9.79397 30.2602L-8.6133 31.4408L-4.4613 27.2888L-6.16663 25.5828L-8.6133 28.0295L-11.06 25.5828L-11.6373 26.1602C-11.7626 25.8115 -11.882 25.4595 -11.9946 25.1035L-11.7666 24.8762L-12.1846 24.4588C-12.366 23.8342 -12.528 23.2022 -12.668 22.5608L-11.06 24.1688L-11.0426 24.1522L-8.6133 26.5815L-6.1833 24.1522L-6.16663 24.1688L-4.4613 22.4628L-6.1833 20.7408L-8.6133 23.1702L-11.0426 20.7408L-12.7046 22.4028C-12.788 22.0088 -12.86 21.6108 -12.928 21.2115L-11.75 20.0342L-13.2506 18.5335C-13.2946 17.9455 -13.3226 17.3528 -13.3313 16.7562L-11.7093 15.1342L-13.2106 13.6335C-13.1406 12.8782 -13.0386 12.1335 -12.912 11.3968L-11.75 10.2348L-12.514 9.47083C-12.4226 9.0955 -12.3226 8.7235 -12.2166 8.35349L-11.0426 9.5275L-8.6133 11.9575L-4.4613 7.80483L-6.16663 6.09949L-8.6133 8.5455L-11.06 6.09949L-11.708 6.7475C-11.4733 6.07883 -11.2166 5.42083 -10.9353 4.7755L-8.6133 7.09816L-6.1833 4.66816L-6.16663 4.68483L-4.4613 2.9795L-6.1833 1.25683L-8.6133 3.68616L-9.81863 2.48083C-9.6533 2.1775 -9.47863 1.8795 -9.30263 1.58283L-8.6133 2.27216L-4.4613 -1.87984L-5.7753 -3.19317C-5.55063 -3.43984 -5.31797 -3.6785 -5.08463 -3.91717L-3.75397 -2.5865L-2.01263 -4.32784L-3.28997 -5.6045C-3.03663 -5.82384 -2.7813 -6.03984 -2.5213 -6.2505L1.10537 -2.62384L5.25737 -6.7765L3.5347 -8.4985L1.10537 -6.06917L-0.543965 -7.7185C-0.261966 -7.90917 0.0280342 -8.08984 0.317368 -8.2705L1.10537 -7.48384L3.5347 -9.91317L3.5347 -9.9125L3.7107 -10.0892C4.76537 -10.5672 5.84937 -10.9898 6.96603 -11.3412L8.39404 -9.91317L10.8234 -7.48384L13.2527 -9.91317L13.2527 -9.9125L14.9754 -11.6358L13.9894 -12.6225C14.4427 -12.6485 14.9 -12.6618 15.3587 -12.6665L15.6827 -12.3432L16.0067 -12.6665C16.466 -12.6618 16.9227 -12.6485 17.376 -12.6225L16.39 -11.6358L18.1127 -9.91317L20.542 -7.48384L22.9714 -9.91317L22.9714 -9.9125L24.3994 -11.3412C25.516 -10.9898 26.6007 -10.5672 27.6547 -10.0892L27.8307 -9.9125L27.8307 -9.91317L30.26 -7.48384L31.048 -8.27117C31.3374 -8.0905 31.6267 -7.90917 31.9094 -7.7185L30.2607 -6.06917L30.26 -6.06917L27.8307 -8.4985L26.108 -6.7765L30.26 -2.62384L33.8867 -6.2505C34.1474 -6.03984 34.4027 -5.82384 34.6554 -5.60517L33.378 -4.32784L35.1194 -2.5865L36.4507 -3.91717C36.6834 -3.6785 36.916 -3.43984 37.1407 -3.19317L35.8267 -1.87984L37.5494 -0.156504L37.5494 -0.15717L39.9787 2.27216L40.668 1.58283C40.844 1.8795 41.0187 2.1775 41.184 2.48083L39.9787 3.68616L37.5494 1.2575L35.8267 2.9795L37.532 4.6855L37.5494 4.66816L39.9787 7.09816L42.3014 4.7755C42.582 5.42083 42.8394 6.07883 43.0734 6.7475L42.4254 6.09949L39.9787 8.5455L37.532 6.09949L35.8267 7.80483L37.5494 9.52816L37.5494 9.5275L39.9787 11.9575L42.408 9.5275L43.5827 8.35349C43.688 8.7235 43.7887 9.0955 43.8794 9.47016L43.1154 10.2348L44.2774 11.3968C44.404 12.1335 44.506 12.8782 44.576 13.6335L43.0747 15.1342L44.6967 16.7562C44.688 17.3528 44.66 17.9448 44.6167 18.5328L43.1154 20.0342L44.2934 21.2115C44.226 21.6108 44.154 22.0088 44.07 22.4028L42.4087 20.7408L39.9787 23.1702L37.5487 20.7408L35.8267 22.4628L37.532 24.1695L37.5494 24.1522L39.9787 26.5815L42.408 24.1522L42.4254 24.1688L44.0334 22.5608C43.8934 23.2022 43.7314 23.8342 43.55 24.4588L43.132 24.8762L43.36 25.1035C43.248 25.4595 43.128 25.8115 43.0027 26.1602L42.4254 25.5828L39.9787 28.0295L37.532 25.5835L35.8267 27.2888L37.5494 29.0122L37.5494 29.0115L39.9787 31.4408L41.16 30.2602C40.7194 31.0662 40.242 31.8488 39.7294 32.6055L37.5494 30.4262L35.8267 32.1482L38.26 34.5808C38.0434 34.8488 37.8214 35.1095 37.596 35.3688L37.5494 35.3222L35.8267 37.0442L35.9234 37.1415C35.6847 37.3742 35.446 37.6075 35.1994 37.8315L35.1194 37.7515L34.0567 38.8148C32.648 39.9682 31.13 40.9935 29.5187 41.8695L27.8307 40.1822L26.108 41.9042L27.198 42.9935C26.8667 43.1375 26.53 43.2715 26.1927 43.4028L25.4014 42.6108L23.7974 44.2148C23.1587 44.4008 22.512 44.5668 21.856 44.7088L22.9714 43.5928L22.988 43.6102L24.694 41.9042L22.9714 40.1822L20.542 42.6108L18.1127 40.1815L16.39 41.9042Z" fill="rgb(22,213,191)" fill-rule="evenodd" />
			</g>
		</g>
	</g>
	<g id="编组备份 3">
		<g id="编组">
			<g id="路径 4" showMaskRef="url(#show_mask_54)" mask="url(#mask_68)">
				<path id="show_mask_54" d="M27.4787 5.33337L24.705 10.6667L19.2267 10.6667L22.0003 5.33337L27.4787 5.33337ZM10.9053 26.6667L17.8393 13.3334L23.3176 13.3334L16.3833 26.6667L10.9053 26.6667Z" fill="url(#paint_linear_119)" fill-rule="evenodd" />
				<path id="路径 4" d="M25.1245 4.66663C25.1245 4.66663 21.8816 8.64754 20.4986 13.3714C19.1156 18.0953 16.4561 26.6668 16.4561 26.6668L28.5837 4.66663L25.1245 4.66663Z" fill="url(#paint_linear_120)" fill-rule="evenodd" />
				<path id="路径 4" d="M20.242 17.7275Q20.976 15.2999 21.4583 13.6524Q21.9107 12.107 22.7062 10.4515Q23.3476 9.11655 24.1799 7.77468Q24.7751 6.81523 25.4044 5.95125Q25.5177 5.79573 25.6144 5.66663L26.8906 5.66663L20.242 17.7275ZM18.83 22.3604L16.4561 26.6668C16.4561 26.6668 17.0923 24.6162 17.9042 21.9683C18.7523 19.2024 19.7921 15.7848 20.4986 13.3714C21.8816 8.64754 25.1245 4.66663 25.1245 4.66663L28.5837 4.66663L28.0324 5.66663L18.83 22.3604Z" fill="rgb(151,151,151)" fill-opacity="0" fill-rule="evenodd" />
			</g>
		</g>
		<g id="路径 3" showMaskRef="url(#show_mask_55)" mask="url(#mask_69)">
			<path id="show_mask_55" d="M7.22658 10.6667L6.00024 5.33337L11.4786 5.33337L12.7049 10.6667L7.22658 10.6667ZM10.9055 26.6668L7.83986 13.3335L13.3179 13.3335L16.3839 26.6668L10.9055 26.6668Z" fill="url(#paint_linear_121)" fill-rule="evenodd" />
			<path id="路径 3" d="M10.1916 23.6612L5.50073 4.17749L10.1208 4.66669C10.1208 4.66669 9.33358 8.9646 9.35189 13.8788C9.3702 18.793 10.1916 23.6612 10.1916 23.6612Z" fill="url(#paint_linear_122)" fill-rule="evenodd" />
			<path id="路径 3" d="M5.74917 5.20939L8.41736 16.2919L10.1916 23.6612C10.1916 23.6612 9.60621 20.1918 9.41279 16.1542C9.37709 15.409 9.35475 14.6445 9.35189 13.8788C9.33887 10.3854 9.73293 7.20336 9.96187 5.65545C10.055 5.02593 10.1208 4.66669 10.1208 4.66669L9.12372 4.56111L6.55621 4.28925L5.50073 4.17749L5.74917 5.20939ZM6.80465 5.32115L8.38482 11.8845Q8.46463 9.67187 8.73604 7.3155Q8.84175 6.39768 8.96656 5.55007L6.80465 5.32115Z" fill="rgb(151,151,151)" fill-opacity="0" fill-rule="evenodd" />
		</g>
	</g>
	<path id="形状结合" d="M10.9055 26.6664L10.9056 26.6668L16.3833 26.6668L16.3837 26.6659L14.7042 19.3619L10.9055 26.6664Z" fill="rgb(14,255,106)" fill-rule="evenodd" />
	<g showMaskRef="url(#show_mask_56)" mask="url(#mask_70)">
		<g id="show_mask_56">
			<rect id="蒙版" width="32.000000" height="32.000000" x="0.000000" y="0.000000" rx="2.666667" fill="rgb(255,255,255)" fill-opacity="0" />
			<rect id="蒙版" width="31.333334" height="31.333334" x="0.333333" y="0.333333" rx="2.333333" stroke="rgb(223,238,236)" stroke-width="0.666666687" />
		</g>
		<path id="路径 7" d="M14.7151 19.3627L10.9053 26.6668C10.9053 26.6668 11.7261 23.3238 12.3331 20C12.94 16.6762 13.3331 13.3715 13.3331 13.3715L14.7151 19.3627Z" fill="url(#paint_linear_123)" fill-rule="evenodd" />
		<path id="路径 7" d="M12.7195 23.1885L10.9053 26.6668C10.9053 26.6668 11.3148 24.999 11.7692 22.8482C11.9581 21.9539 12.1548 20.9761 12.3331 20C12.5795 18.6502 12.7907 17.3036 12.9547 16.1801C13.1944 14.5371 13.3331 13.3715 13.3331 13.3715L14.7151 19.3627L12.7195 23.1885ZM13.3988 19.7239L13.6577 19.2276L13.5584 18.7973Q13.4793 19.2697 13.3988 19.7239Z" fill="url(#paint_linear_124)" fill-opacity="0" fill-rule="evenodd" />
	</g>
</svg>
