<svg viewBox="0 0 32 32" xmlns="http://www.w3.org/2000/svg" xmlns:xlink="http://www.w3.org/1999/xlink" width="32.000000" height="32.000000" fill="none" customFrame="#000000">
	<mask id="mask_55" width="22.989666" height="5.333333" x="5.821777" y="5.333374" maskUnits="userSpaceOnUse">
		<g filter="url(#pixso_custom_mask_type_outline)">
			<path id="蒙版" d="M24.0604 10.6667L5.82178 10.6667L6.57178 5.33337L28.8114 5.33337L24.0604 10.6667Z" fill="rgb(255,255,255)" fill-rule="evenodd" />
		</g>
	</mask>
	<mask id="mask_54" width="32.000000" height="32.000000" x="0.000000" y="0.000000" maskUnits="userSpaceOnUse">
		<g filter="url(#pixso_custom_mask_type_outline)">
			<rect id="蒙版" width="32.000000" height="32.000000" x="0.000000" y="0.000000" rx="2.666667" fill="rgb(255,255,255)" />
			<rect id="蒙版" width="31.000000" height="31.000000" x="0.500000" y="0.500000" rx="2.166667" stroke="rgb(236,247,249)" stroke-opacity="0" stroke-width="1" />
		</g>
	</mask>
	<defs>
		<filter id="pixso_custom_mask_type_outline">
			<feColorMatrix type="matrix" values="0 0 0 0 1 0 0 0 0 1 0 0 0 0 1 0 0 0 1 0 " />
		</filter>
		<linearGradient id="paint_linear_88" x1="27.2615871" x2="2.66699219" y1="25.222332" y2="25.222332" gradientUnits="userSpaceOnUse">
			<stop stop-color="rgb(233,12,108)" offset="0" stop-opacity="1" />
			<stop stop-color="rgb(202,33,126)" offset="0.794811487" stop-opacity="1" />
			<stop stop-color="rgb(184,51,152)" offset="1" stop-opacity="1" />
		</linearGradient>
		<linearGradient id="paint_linear_89" x1="21.845871" x2="21.845871" y1="5.33337402" y2="17.0357075" gradientUnits="userSpaceOnUse">
			<stop stop-color="rgb(192,42,140)" offset="0" stop-opacity="1" />
			<stop stop-color="rgb(242,39,167)" offset="1" stop-opacity="1" />
		</linearGradient>
		<linearGradient id="paint_linear_90" x1="9.63217068" x2="9.63217068" y1="14.9639893" y2="26.6666565" gradientUnits="userSpaceOnUse">
			<stop stop-color="rgb(192,42,140)" offset="0" stop-opacity="1" />
			<stop stop-color="rgb(242,39,167)" offset="1" stop-opacity="1" />
		</linearGradient>
		<linearGradient id="paint_linear_91" x1="23.1463718" x2="14.8803701" y1="10.6666241" y2="12.4962196" gradientUnits="userSpaceOnUse">
			<stop stop-color="rgb(119,33,33)" offset="0" stop-opacity="1" />
			<stop stop-color="rgb(0,0,0)" offset="1" stop-opacity="0" />
		</linearGradient>
		<linearGradient id="paint_linear_92" x1="24.0605373" x2="15.9824133" y1="11.5934029" y2="12.8138275" gradientUnits="userSpaceOnUse">
			<stop stop-color="rgb(37,43,58)" offset="0" stop-opacity="1" />
			<stop stop-color="rgb(37,43,58)" offset="1" stop-opacity="1" />
		</linearGradient>
		<linearGradient id="paint_linear_93" x1="16.13941" x2="7.41699123" y1="20.2240105" y2="21.6685333" gradientUnits="userSpaceOnUse">
			<stop stop-color="rgb(0,0,0)" offset="0" stop-opacity="0" />
			<stop stop-color="rgb(119,33,33)" offset="1" stop-opacity="1" />
		</linearGradient>
		<linearGradient id="paint_linear_94" x1="16.5982246" x2="8.51916504" y1="20.013237" y2="21.1964207" gradientUnits="userSpaceOnUse">
			<stop stop-color="rgb(37,43,58)" offset="0" stop-opacity="1" />
			<stop stop-color="rgb(37,43,58)" offset="1" stop-opacity="1" />
		</linearGradient>
		<linearGradient id="paint_linear_95" x1="30.416729" x2="5.82177734" y1="9.22231674" y2="9.22231674" gradientUnits="userSpaceOnUse">
			<stop stop-color="rgb(184,51,152)" offset="0" stop-opacity="1" />
			<stop stop-color="rgb(202,33,126)" offset="0.205188528" stop-opacity="1" />
			<stop stop-color="rgb(233,12,108)" offset="1" stop-opacity="1" />
		</linearGradient>
		<linearGradient id="paint_linear_96" x1="28.8108978" x2="19.0115204" y1="5.33337402" y2="11.8473454" gradientUnits="userSpaceOnUse">
			<stop stop-color="rgb(244,54,255)" offset="0" stop-opacity="1" />
			<stop stop-color="rgb(255,18,0)" offset="1" stop-opacity="1" />
		</linearGradient>
		<linearGradient id="paint_linear_97" x1="29.864666" x2="5.82177734" y1="7.4006958" y2="4.01916027" gradientUnits="userSpaceOnUse">
			<stop stop-color="rgb(255,255,255)" offset="0" stop-opacity="0" />
			<stop stop-color="rgb(255,255,255)" offset="1" stop-opacity="1" />
		</linearGradient>
		<linearGradient id="paint_linear_98" x1="14.5599146" x2="4.76000214" y1="21.333374" y2="27.8473492" gradientUnits="userSpaceOnUse">
			<stop stop-color="rgb(244,54,255)" offset="0" stop-opacity="1" />
			<stop stop-color="rgb(255,18,0)" offset="1" stop-opacity="1" />
		</linearGradient>
	</defs>
	<mask id="mask_53" width="32.000000" height="32.000000" x="0.000000" y="0.000000" maskUnits="userSpaceOnUse">
		<g filter="url(#pixso_custom_mask_type_outline)">
			<rect id="蒙版" width="32.000000" height="32.000000" x="0.000000" y="0.000000" rx="2.666667" fill="rgb(255,255,255)" />
			<rect id="蒙版" width="31.000000" height="31.000000" x="0.500000" y="0.500000" rx="2.166667" stroke="rgb(239,226,238)" stroke-opacity="0" stroke-width="1" />
		</g>
	</mask>
	<rect id="工程首字母图标/Z-32x33" width="32.000000" height="32.000000" x="0.000000" y="0.000000" />
	<rect id="矩形" width="32.000000" height="32.000000" x="0.000000" y="0.000000" rx="2.666667" fill="rgb(255,255,255)" />
	<rect id="矩形" width="31.000000" height="31.000000" x="0.500000" y="0.500000" rx="2.166667" stroke="rgb(151,151,151)" stroke-opacity="0" stroke-width="1" />
	<g id="形状" showMaskRef="url(#show_mask_41)" mask="url(#mask_53)">
		<g id="show_mask_41">
			<rect id="蒙版" width="32.000000" height="32.000000" x="0.000000" y="0.000000" rx="2.666667" fill="rgb(255,255,255)" />
			<rect id="蒙版" width="31.000000" height="31.000000" x="0.500000" y="0.500000" rx="2.166667" stroke="rgb(239,226,238)" stroke-opacity="0" stroke-width="1" />
		</g>
		<g id="Fill 5" showMaskRef="url(#show_mask_42)" mask="url(#mask_54)">
			<g id="show_mask_42">
				<rect id="蒙版" width="32.000000" height="32.000000" x="0.000000" y="0.000000" rx="2.666667" fill="rgb(255,255,255)" />
				<rect id="蒙版" width="31.000000" height="31.000000" x="0.500000" y="0.500000" rx="2.166667" stroke="rgb(236,247,249)" stroke-opacity="0" stroke-width="1" />
			</g>
			<path id="形状结合" d="M16.1693 -5.33337C15.2827 -5.33337 14.41 -5.27337 13.5513 -5.16871L2.24268 -0.209374C1.51535 0.409293 0.826683 1.07329 0.18735 1.78329L16.4014 -5.32737C16.324 -5.32804 16.2474 -5.33337 16.1693 -5.33337ZM24.0893 6.53213L18.1333 26.5148L26.3013 35.1521C26.6046 34.9895 26.9033 34.8201 27.198 34.6448L19.2566 26.2468L24.96 7.1108L20.2546 27.2248L27.7773 34.2815C28.0653 34.0961 28.348 33.9048 28.6266 33.7061L21.36 26.8901L25.8686 7.61946L22.4066 27.7855L29.1093 33.3581C29.3813 33.1528 29.6486 32.9415 29.91 32.7241L23.49 27.3855L26.8106 8.0428L24.5813 28.1961L30.292 32.3935C30.5486 32.1701 30.7986 31.9408 31.0446 31.7055L25.6386 27.7321L27.7773 8.39813L26.7693 28.4581L31.3466 31.4175C31.5873 31.1775 31.822 30.9321 32.0506 30.6815L27.7973 27.9321L28.7646 8.6808L28.9633 28.5728L32.2673 30.4368C32.492 30.1828 32.7113 29.9241 32.924 29.6595L29.9573 27.9855L29.7666 8.87946L31.1546 28.5388L33.0713 29.4728C33.2813 29.2055 33.4846 28.9341 33.682 28.6581L32.112 27.8935L30.7773 8.9928L33.336 28.3581L33.768 28.5375C33.964 28.2595 34.1526 27.9768 34.3346 27.6895L34.252 27.6548L31.7893 9.01546L35.1573 26.2855C35.418 25.7955 35.66 25.2941 35.8826 24.7835L32.7946 8.9468L36.4993 23.2015C36.7093 22.5935 36.8946 21.9748 37.05 21.3435L33.786 8.7848L37.378 19.7535C37.5093 18.9681 37.602 18.1695 37.646 17.3575L34.746 8.50346L37.6713 15.8461C37.6526 14.6208 37.5313 13.4201 37.3153 12.2521L35.6733 8.12813L37.0626 11.0655C34.9606 2.44346 27.6653 -4.1392 18.676 -5.1832L-1.46336 6.8508L-1.38136 5.14013L18.656 -5.1852C18.022 -5.25854 17.38 -5.30187 16.7306 -5.3192L-1.67736 4.16746C-2.44669 5.30746 -3.10936 6.52546 -3.65136 7.80746L-4.99869 19.9761C-4.82803 20.9335 -4.59669 21.8701 -4.30336 22.7795L-2.40803 5.66346L-3.34269 25.2281C-3.06336 25.8288 -2.75669 26.4141 -2.42536 26.9835L-1.50069 7.63413L-1.18203 28.8848C-0.858695 29.3255 -0.517362 29.7521 -0.162028 30.1661L-0.473361 9.46013L1.26397 31.6761C1.6133 32.0121 1.97197 32.3381 2.34264 32.6495L0.690639 11.5201L3.86731 33.8161C4.23131 34.0708 4.60131 34.3181 4.98197 34.5508L2.01597 13.7308L6.51664 35.3981C6.88797 35.5848 7.26464 35.7628 7.64797 35.9288L3.4573 15.7555L9.15264 36.5095C9.52664 36.6388 9.9053 36.7568 10.288 36.8655L5.00331 17.6075L11.7333 37.2261C12.106 37.3041 12.482 37.3741 12.8613 37.4328L6.63197 19.2728L14.2206 37.5941C14.5886 37.6275 14.9593 37.6508 15.3326 37.6655L8.33731 20.7775L16.5926 37.6761C16.9586 37.6688 17.322 37.6521 17.6826 37.6275L9.46197 20.8015L21.1186 3.49413L10.138 22.1761L18.836 37.5161C19.192 37.4721 19.5453 37.4195 19.896 37.3581L11.2926 22.1848L21.7726 4.35546L12.0446 23.4841L20.934 37.1501C21.2786 37.0721 21.62 36.9861 21.9586 36.8921L13.1973 23.4235L22.49 5.15013L14.0186 24.6448L22.8793 36.6135C23.2113 36.5048 23.54 36.3875 23.8646 36.2628L15.166 24.5128L23.2606 5.88613L16.0513 25.6541L24.67 35.9381C24.988 35.8015 25.3013 35.6568 25.6113 35.5055L17.1886 25.4548L24.0893 6.53213ZM5.98507 -2.77262C7.7544 -3.72529 9.67307 -4.43662 11.6964 -4.86462L5.98507 -2.77262ZM-0.50358 7.44286L-0.478246 9.16953L19.0971 -4.26914L-0.50358 7.44286ZM0.546954 9.67808L0.68162 11.3994L0.90162 11.2274L19.2243 -3.14392L0.546954 9.67808ZM1.74601 11.8361L1.98401 13.5094L19.2567 -1.89858L1.74601 11.8361ZM3.06869 13.8821L3.40535 15.5048L19.4194 -0.703884L3.06869 13.8821ZM4.50969 15.8095L4.93902 17.3742L19.6864 0.44883L4.50969 15.8095ZM6.06131 17.6088L6.57731 19.1148L20.0693 1.53151L6.06131 17.6088ZM7.71464 19.2748L8.31264 20.7182L20.5546 2.54149L7.71464 19.2748ZM-4.14616 9.10983L-5.3335 15.9252C-5.30616 13.5398 -4.89016 11.2485 -4.14616 9.10983Z" opacity="0.100000001" fill="rgb(218,84,210)" fill-rule="evenodd" />
		</g>
	</g>
	<g id="编组备份 2">
		<g id="编组">
			<path id="Fill 3" d="M24.907 26.6667L2.66699 26.6667L7.41699 21.3334L25.6563 21.3334L24.907 26.6667Z" fill="url(#paint_linear_88)" fill-rule="evenodd" />
		</g>
		<path id="Fill 5" d="M21.6694 5.33337L14.8804 12.955L18.388 17.0357L28.8114 5.33337L21.6694 5.33337Z" fill="url(#paint_linear_89)" fill-rule="evenodd" />
		<path id="Fill 6" d="M2.6665 26.6667L9.80884 26.6667L16.5978 19.045L13.0905 14.964L2.6665 26.6667Z" fill="url(#paint_linear_90)" fill-rule="evenodd" />
		<path id="路径 2" d="M17.0001 10.6666L24.0605 10.6666C24.0605 10.6666 20.6205 11.1717 18.7828 11.6298C16.9451 12.0878 14.8804 12.955 14.8804 12.955L17.0001 10.6666Z" fill="url(#paint_linear_91)" fill-rule="evenodd" />
		<path id="路径 2" d="M18.5122 10.6666L24.0605 10.6666C24.0605 10.6666 20.6205 11.1717 18.7828 11.6298C18.7346 11.6418 18.6862 11.6541 18.6377 11.6666C18.0753 11.8123 17.4975 11.9928 16.9687 12.172C15.8057 12.5664 14.8804 12.955 14.8804 12.955L17.0001 10.6666L18.5122 10.6666Z" fill="url(#paint_linear_92)" fill-opacity="0" fill-rule="evenodd" />
		<path id="路径 3" d="M14.5609 21.3333L7.41699 21.3333C7.41699 21.3333 9.80305 21.0473 12.0984 20.4926C14.3937 19.938 16.5982 19.1147 16.5982 19.1147L14.5609 21.3333Z" fill="url(#paint_linear_93)" fill-rule="evenodd" />
		<path id="路径 3" d="M12.8579 21.3333L14.5609 21.3333L15.1834 20.6554L16.5982 19.1147C16.5982 19.1147 15.7826 19.4193 14.6271 19.7827C14.0579 19.9618 13.4063 20.1551 12.729 20.3333C12.5207 20.3881 12.3099 20.4415 12.0984 20.4926C9.80305 21.0473 7.41699 21.3333 7.41699 21.3333L12.8579 21.3333Z" fill="url(#paint_linear_94)" fill-opacity="0" fill-rule="evenodd" />
		<g id="形状结合" showMaskRef="url(#show_mask_43)" mask="url(#mask_55)">
			<path id="show_mask_43" d="M24.0604 10.6667L5.82178 10.6667L6.57178 5.33337L28.8114 5.33337L24.0604 10.6667Z" fill="url(#paint_linear_95)" fill-rule="evenodd" />
			<path id="形状结合" d="M24.0599 10.6667L16.9187 10.6667L21.6694 5.33337L28.8109 5.33337L24.0599 10.6667Z" fill="url(#paint_linear_96)" fill-rule="evenodd" />
			<path id="路径 4" d="M6.06181 7.99994C6.06181 7.99994 10.9374 7.37337 16.598 6.98136C22.2586 6.58934 28.511 6.44526 28.511 6.44526L29.1551 5.3525L5.82178 4.01917L6.06181 7.99994Z" opacity="0.600000024" fill="url(#paint_linear_97)" fill-rule="evenodd" />
			<path id="路径 4" d="M19.4848 5.80154Q17.929 5.88679 16.5289 5.98375Q12.9725 6.23004 9.10105 6.64331Q7.91614 6.76979 6.99598 6.87803L6.88766 5.0817L19.4848 5.80154ZM28.511 6.44526C28.511 6.44526 22.2586 6.58934 16.598 6.98136C12.4728 7.26704 8.76453 7.67729 7.05632 7.87883C6.42053 7.95385 6.06181 7.99994 6.06181 7.99994L6.00149 6.9995L5.88238 5.02426L5.82178 4.01917L6.82706 4.07661L28.0321 5.28833L29.1551 5.3525L28.5839 6.32149L28.511 6.44526Z" opacity="0.600000024" fill="rgb(151,151,151)" fill-opacity="0" fill-rule="evenodd" />
		</g>
	</g>
	<path id="形状结合" d="M2.66699 26.6666L7.41751 21.3334L14.5599 21.3334L9.80933 26.6666L2.66699 26.6666Z" fill="url(#paint_linear_98)" fill-rule="evenodd" />
	<rect id="蒙版" width="32.000000" height="32.000000" x="0.000000" y="0.000000" rx="2.666667" fill="rgb(255,255,255)" fill-opacity="0" />
	<rect id="蒙版" width="31.333334" height="31.333334" x="0.333333" y="0.333333" rx="2.333333" stroke="rgb(239,226,238)" stroke-width="0.666666687" />
</svg>
