<svg viewBox="0 0 20.4875 20.4875" xmlns="http://www.w3.org/2000/svg" xmlns:xlink="http://www.w3.org/1999/xlink" width="20.487549" height="20.487549" fill="none" customFrame="#000000">
	<defs>
		<filter id="pixso_custom_mask_type_alpha">
			<feColorMatrix type="matrix" values="0 0 0 0 1 0 0 0 0 1 0 0 0 0 1 0 0 0 1 0 " />
		</filter>
		<linearGradient id="paint_linear_4" x1="5.07272148" x2="6.31718302" y1="1.03904796" y2="5.37053967" gradientUnits="userSpaceOnUse">
			<stop stop-color="rgb(0,0,0)" offset="0" stop-opacity="1" />
			<stop stop-color="rgb(0,0,0)" offset="1" stop-opacity="0" />
		</linearGradient>
		<linearGradient id="paint_linear_5" x1="4.2557478" x2="4.62988901" y1="3.14497948" y2="6.61613083" gradientUnits="userSpaceOnUse">
			<stop stop-color="rgb(0,0,0)" offset="0" stop-opacity="1" />
			<stop stop-color="rgb(0,0,0)" offset="1" stop-opacity="0" />
		</linearGradient>
		<radialGradient id="paint_radial_4" cx="0" cy="0" r="1" gradientUnits="userSpaceOnUse" gradientTransform="matrix(3.81501,-7.89155,9.63423,4.65747,12.5912,4.97884)">
			<stop stop-color="rgb(51,188,242)" offset="0" stop-opacity="1" />
			<stop stop-color="rgb(2.99605,158.44,219.71)" offset="1" stop-opacity="1" />
		</radialGradient>
	</defs>
	<mask id="mask_0" width="19.833925" height="10.818640" x="0.351318" y="7.041748" maskUnits="userSpaceOnUse">
		<g filter="url(#pixso_custom_mask_type_alpha)">
			<g id="mask_0">
				<g id="g">
					<path id="矩形 1809" d="M1.54909 12.9635L9.96547 7.13632C10.1476 7.01022 10.3889 7.01022 10.5711 7.13632L18.9875 12.9635C19.0966 13.039 19.1735 13.1526 19.2032 13.2819L20.1783 17.5348C20.2209 17.7206 20.0601 17.8895 19.8725 17.8561L10.3615 16.1635C10.2998 16.1525 10.2367 16.1525 10.1751 16.1635L0.66407 17.8561C0.476458 17.8895 0.315635 17.7206 0.358224 17.5348L1.3334 13.2819C1.36306 13.1526 1.43999 13.039 1.54909 12.9635Z" fill="rgb(16,117,163)" fill-rule="evenodd" />
				</g>
			</g>
		</g>
	</mask>
	<rect id="持续交付" width="19.999756" height="19.999758" x="0.243896" y="0.243896" fill="rgb(255,255,255)" fill-opacity="0" />
	<rect id="持续交付" width="19.999756" height="19.999758" x="0.243896" y="0.243896" fill="rgb(0,0,0)" fill-opacity="0" />
	<rect id="持续交付" width="19.999756" height="19.999758" x="0.243896" y="0.243896" stroke="rgb(183,183,183)" stroke-opacity="0" stroke-width="0.487798959" />
	<g id="组合 3909">
		<path id="矩形 1809" d="M1.54909 12.9635L9.96547 7.13632C10.1476 7.01022 10.3889 7.01022 10.5711 7.13632L18.9875 12.9635C19.0966 13.039 19.1735 13.1526 19.2032 13.2819L20.1783 17.5348C20.2209 17.7206 20.0601 17.8895 19.8725 17.8561L10.3615 16.1635C10.2998 16.1525 10.2367 16.1525 10.1751 16.1635L0.66407 17.8561C0.476458 17.8895 0.315635 17.7206 0.358224 17.5348L1.3334 13.2819C1.36306 13.1526 1.43999 13.039 1.54909 12.9635Z" fill="rgb(16,117,163)" fill-rule="evenodd" />
		<g id="mask" mask="url(#mask_0)">
			<g id="蒙版">
				<path id="矩形 1731" d="M0 0L8.51115 0L8.51115 5.38724L0 5.38724L0 0Z" opacity="0.209999993" fill="url(#paint_linear_4)" fill-rule="evenodd" transform="matrix(0.059544,0.998226,-0.998226,0.059544,6.57788,9.45483)" />
				<path id="矩形 1810" d="M0 0L8.51115 0L8.51115 6.29057L0 6.29057L0 0Z" opacity="0.209999993" fill="url(#paint_linear_5)" fill-rule="evenodd" transform="matrix(-0.0700296,0.997545,0.997545,0.0700296,12.7751,9.24976)" />
			</g>
		</g>
		<path id="合并" d="M10.1296 0.243896C11.2448 0.243896 16.1871 3.70442 16.981 7.05326C16.9898 7.09116 16.9937 7.12996 16.9937 7.16891C16.9937 7.18981 16.9927 7.21061 16.9927 7.23136C16.984 7.78961 16.9166 8.31845 16.7984 8.81594L15.8492 16.5208C15.8326 16.6541 15.7193 16.7542 15.5855 16.7542L4.90308 16.7542C4.76828 16.7542 4.65502 16.6541 4.63939 16.5208L3.70288 8.92934C3.57495 8.399 3.50366 7.8322 3.49487 7.23136C3.49487 7.20421 3.4939 7.17691 3.4939 7.14961C3.4939 7.12186 3.50655 7.05766 3.50655 7.03011C4.07286 3.6885 9.01698 0.243896 10.1296 0.243896Z" fill="url(#paint_radial_4)" fill-rule="evenodd" />
	</g>
	<g id="组合 3917">
		<path id="多边形 9" d="M2.30277 0.031324L4.43266 2.28568C4.49291 2.34944 4.4477 2.45435 4.35997 2.45435L0.100197 2.45435C0.0124697 2.45435 -0.0327377 2.34944 0.0275095 2.28568L2.1574 0.031324C2.19686 -0.0104413 2.26331 -0.0104413 2.30277 0.031324Z" fill="rgb(16,117,163)" fill-rule="evenodd" transform="matrix(-1,0,0,-1,12.4744,20.1967)" />
		<path id="多边形 10" d="M1.42055 0.0316988L2.66786 1.36558C2.72761 1.42948 2.6823 1.53388 2.59482 1.53388L0.100197 1.53388C0.0127149 1.53388 -0.0325941 1.42948 0.0271567 1.36558L1.27447 0.0316988C1.31399 -0.0105663 1.38103 -0.0105663 1.42055 0.0316988Z" fill="rgb(16,117,163)" fill-rule="evenodd" transform="matrix(-1,0,0,-1,8.31885,19.2794)" />
		<path id="多边形 11" d="M1.42055 0.0316988L2.66786 1.36558C2.72761 1.42948 2.6823 1.53388 2.59482 1.53388L0.100197 1.53388C0.0127149 1.53388 -0.0325941 1.42948 0.0271567 1.36558L1.27447 0.0316988C1.31399 -0.0105663 1.38103 -0.0105663 1.42055 0.0316988Z" fill="rgb(16,117,163)" fill-rule="evenodd" transform="matrix(-1,0,0,-1,14.8635,19.2794)" />
	</g>
	<circle id="椭圆 205" cx="10.243866" cy="7.49386597" r="2.49996948" fill="rgb(0,0,0)" fill-opacity="0.156862751" />
	<circle id="椭圆 206" cx="10.243866" cy="6.49386597" r="2.49996948" fill="rgb(214,246,255)" />
	<g id="组合 3918">
		<circle id="椭圆 208" cx="10.2438908" cy="14.7438908" r="0.499993891" fill="rgb(165,230,250)" />
		<circle id="椭圆 210" cx="12.7436466" cy="14.7438908" r="0.499993891" fill="rgb(165,230,250)" />
		<circle id="椭圆 209" cx="7.74389029" cy="14.7438908" r="0.499993891" fill="rgb(165,230,250)" />
	</g>
</svg>
