<svg viewBox="0 0 20.7993 20.7996" xmlns="http://www.w3.org/2000/svg" xmlns:xlink="http://www.w3.org/1999/xlink" width="20.799316" height="20.799622" fill="none" customFrame="#000000">
	<defs>
		<filter id="pixso_custom_mask_type_outline">
			<feColorMatrix type="matrix" values="0 0 0 0 1 0 0 0 0 1 0 0 0 0 1 0 0 0 1 0 " />
		</filter>
		<radialGradient id="paint_radial_6" cx="0" cy="0" r="1" gradientUnits="userSpaceOnUse" gradientTransform="matrix(-5.74994,6.49992,-12.0367,-10.6479,6.64692,19.6499)">
			<stop stop-color="rgb(65,140,0)" offset="0" stop-opacity="1" />
			<stop stop-color="rgb(82.5021,177.589,0)" offset="1" stop-opacity="1" />
		</radialGradient>
		<linearGradient id="paint_linear_7" x1="10.4076576" x2="10.4076576" y1="4.13434076" y2="7.97804451" gradientUnits="userSpaceOnUse">
			<stop stop-color="rgb(0,0,0)" offset="0" stop-opacity="1" />
			<stop stop-color="rgb(0,0,0)" offset="1" stop-opacity="0" />
		</linearGradient>
	</defs>
	<mask id="mask_1" width="17.500631" height="17.519073" x="1.636719" y="2.204651" maskUnits="userSpaceOnUse">
		<g filter="url(#pixso_custom_mask_type_outline)">
			<g id="mask_4" />
		</g>
	</mask>
	<rect id="测试管理" width="19.999542" height="19.999660" x="0.399902" y="0.399963" fill="rgb(255,255,255)" fill-opacity="0" />
	<rect id="测试管理" width="19.999542" height="19.999660" x="0.399902" y="0.399963" fill="rgb(0,0,0)" fill-opacity="0" />
	<rect id="测试管理" width="19.999542" height="19.999660" x="0.399902" y="0.399963" stroke="rgb(203.772,203.569,203.569)" stroke-opacity="0" stroke-width="0.799981713" />
	<path id="矢量 437" d="M12.6743 3.72809L8.10891 3.72809C7.87876 3.72809 7.69216 3.91466 7.69216 4.14479L7.69262 7.69615C7.69262 8.22674 7.51152 8.74433 7.17927 9.16098L6.07479 10.5412C6.11894 10.5412 6.16328 10.5412 6.20783 10.5412C6.88838 10.5575 7.58722 10.6519 8.30416 10.8179C9.06345 10.9937 9.78914 11.2411 10.4813 11.5633C11.2467 11.9214 11.95 12.3543 12.5593 12.8556C13.4809 13.6141 14.4703 14.174 15.5274 14.5386C15.6955 14.5972 15.8654 14.6493 16.0367 14.6948C16.5237 14.8316 17.0152 14.926 17.5108 14.9748C17.7613 15.0008 18.0128 15.0171 18.2652 15.0204L13.6091 9.23913C13.2736 8.82248 13.0907 8.30489 13.0907 7.77105L13.0909 4.14477C13.0909 3.91465 12.9043 3.72809 12.6743 3.72809ZM6.17549 11.8856C5.70304 11.8758 5.2856 11.9051 4.92265 11.98L2.22347 15.3556C0.815289 17.1167 2.06884 19.7241 4.32326 19.7241L16.4354 19.7241C18.2952 19.7241 19.4725 17.95 19.0396 16.3419C19.0109 16.3485 18.9814 16.3517 18.9511 16.3517C18.4178 16.381 17.8887 16.368 17.3638 16.3126C16.7963 16.254 16.234 16.1466 15.6766 15.9904C15.418 15.9188 15.1629 15.8374 14.9114 15.7462C13.7692 15.3296 12.7007 14.7144 11.7052 13.8941C11.1838 13.4676 10.5919 13.0965 9.92953 12.7905C9.31734 12.5041 8.67425 12.2827 8.00001 12.1265C7.37257 11.98 6.76428 11.9019 6.17549 11.8856Z" opacity="0" fill="rgb(98,180,46)" fill-rule="evenodd" />
	<g id="mask" mask="url(#mask_1)">
		<g id="蒙版">
			<path id="路径" d="M7.69997 2.20465L13.0987 2.20465L13.0986 4.84942C13.0986 5.52401 13.0986 6.88659 13.0986 7.76913C13.0986 8.30382 13.2815 8.82236 13.6168 9.23876L18.5375 15.348C19.9544 17.1072 18.7022 19.7237 16.4433 19.7237C12.3422 19.7237 8.19491 19.7237 4.33075 19.7237C2.07617 19.7237 0.822586 17.1159 2.23081 15.3552L7.18682 9.15866C7.51907 8.74327 7.70007 8.22722 7.70007 7.69533C7.70007 6.83544 7.70007 5.51926 7.70007 4.84942L7.69997 2.20465Z" fill="rgb(125,204,41)" fill-rule="evenodd" />
			<path id="矢量 610" d="M10.5765 11.5523C8.92815 10.7779 6.86503 10.4087 6.02194 10.5389L1.54787 15.5229C1.54787 15.5229 1.06174 19.1043 3.08291 19.761C4.40208 20.1897 11.9977 20.1517 13.1573 20.1517C15.0224 20.1517 16.6089 20.0504 17.5166 19.8353C18.6697 19.5621 18.9535 18.4802 19.3469 16.3604L18.6437 15.0062C18.6437 15.0062 16.1454 14.9411 14.5731 14.0818C12.9372 13.1876 11.7859 12.1204 10.5765 11.5523Z" fill="url(#paint_radial_6)" fill-rule="evenodd" />
		</g>
	</g>
	<path id="矩形 934" d="M5.91844 1.64996L14.8812 1.64996L14.8812 4.14995L5.91844 4.14995L5.91844 1.64996ZM5.91844 4.14995C5.21845 4.14995 4.66846 3.59995 4.66846 2.89996C4.66846 2.19996 5.21845 1.64996 5.91844 1.64996L5.91844 4.14995ZM14.8812 1.64996C15.5812 1.64996 16.1312 2.19996 16.1312 2.89996C16.1312 3.59995 15.5812 4.14995 14.8812 4.14995L14.8812 1.64996Z" fill="rgb(125,204,41)" fill-rule="nonzero" />
	<circle id="椭圆 119" cx="6.91453123" cy="16.9780693" r="1.49998057" opacity="0" fill="rgb(0,0,0)" fill-opacity="0.200000003" />
	<circle id="椭圆 191" cx="9.57860374" cy="14.2593288" r="0.749990284" opacity="0" fill="rgb(0,0,0)" fill-opacity="0.200000003" />
	<circle id="椭圆 119" cx="6.89890623" cy="15.8999443" r="1.49998057" fill="rgb(185,230,131)" />
	<circle id="椭圆 191" cx="9.55907249" cy="13.6499538" r="0.749990284" fill="rgb(185,230,131)" />
	<path id="矩形 1786" d="M7.71338 4.13434L13.102 4.13434L13.102 7.97805L7.71338 7.97805L7.71338 4.13434Z" opacity="0.159999996" fill="url(#paint_linear_7)" fill-rule="evenodd" />
</svg>
