<svg viewBox="0 0 20.4878 20.4878" xmlns="http://www.w3.org/2000/svg" xmlns:xlink="http://www.w3.org/1999/xlink" width="20.487793" height="20.487793" fill="none" customFrame="#000000">
	<defs>
		<linearGradient id="paint_linear_8" x1="0" x2="-2.83779526" y1="-7.80386019" y2="-7.80386019" gradientUnits="userSpaceOnUse">
			<stop stop-color="rgb(0,0,0)" offset="0" stop-opacity="1" />
			<stop stop-color="rgb(0,0,0)" offset="1" stop-opacity="0" />
		</linearGradient>
		<radialGradient id="paint_radial_7" cx="0" cy="0" r="1" gradientUnits="userSpaceOnUse" gradientTransform="matrix(-8.86806,-12.711,8.58849,-5.9919,9.10636,6.85419)">
			<stop stop-color="rgb(246,115,180)" offset="0" stop-opacity="1" />
			<stop stop-color="rgb(224,37,131)" offset="1" stop-opacity="1" />
		</radialGradient>
		<linearGradient id="paint_linear_9" x1="2.36483932" x2="2.36483932" y1="0" y2="5.67571259" gradientUnits="userSpaceOnUse">
			<stop stop-color="rgb(0,0,0)" offset="0" stop-opacity="1" />
			<stop stop-color="rgb(0,0,0)" offset="1" stop-opacity="0" />
		</linearGradient>
	</defs>
	<rect id="知识库" width="19.999939" height="20.000002" x="0.243896" y="0.243896" fill="rgb(255,255,255)" fill-opacity="0" />
	<rect id="知识库" width="19.999939" height="20.000002" x="0.243896" y="0.243896" fill="rgb(0,0,0)" fill-opacity="0" />
	<rect id="知识库" width="19.999939" height="20.000002" x="0.243896" y="0.243896" stroke="rgb(217,217,217)" stroke-opacity="0" stroke-width="0.487802714" />
	<g id="组合 2955">
		<path id="path" d="M7.92631 2.94946L7.92631 17.7691C7.92631 17.9891 7.75132 18.1641 7.5363 18.1641L5.24635 18.1641C3.94137 18.1641 2.88139 17.1043 2.88139 15.7992L2.88139 15.0443L2.08642 15.0443C1.65637 15.0443 1.3064 14.6942 1.3064 14.2591C1.3064 13.8292 1.65637 13.4794 2.08642 13.4794L2.88139 13.4794L2.88139 11.1393L2.08642 11.1393C1.65637 11.1393 1.3064 10.7892 1.3064 10.3593C1.3064 9.92935 1.65637 9.57926 2.08642 9.57926L2.88139 9.57926L2.88139 7.2392L2.08642 7.2392C1.65637 7.2392 1.3064 6.88935 1.3064 6.45942C1.3064 6.02437 1.65637 5.67941 2.08642 5.67941L2.88139 5.67941L2.88139 4.9194C2.88139 3.61424 3.94137 2.55444 5.24635 2.55444L7.5363 2.55444C7.75132 2.55444 7.92631 2.72949 7.92631 2.94946Z" fill="rgb(181,14,101)" fill-rule="nonzero" />
		<path id="矩形 1735" d="M0.402022 0L15.2058 0C15.4278 0 15.6078 0.179991 15.6078 0.402022L15.6078 2.83778L0 2.83778L0 0.402022C0 0.179991 0.179991 0 0.402022 0Z" opacity="0.0500000007" fill="url(#paint_linear_8)" fill-rule="evenodd" transform="matrix(0,-1,-1,0,7.83643,18.1638)" />
		<path id="矩形 1736" d="M7.38647 1.60913L16.4414 1.60913C17.7463 1.60913 18.8063 2.66918 18.8063 3.97409L18.8063 16.744C18.8063 18.0489 17.7463 19.1089 16.4414 19.1089L7.38647 19.1089C7.16144 19.1089 6.98145 18.929 6.98145 18.709L6.98145 2.00903C6.98145 1.78906 7.16144 1.60913 7.38647 1.60913Z" fill="url(#paint_radial_7)" fill-rule="evenodd" />
		<path id="矩形 1737" d="M0.402022 0L4.32765 0C4.54968 0 4.72967 0.179991 4.72967 0.402022L4.72967 5.67563L0 5.67563L0 0.402022C0 0.179991 0.179991 0 0.402022 0Z" opacity="0.129999995" fill="url(#paint_linear_9)" fill-rule="evenodd" transform="matrix(-1,0,0,1,15.9661,4.91968)" />
		<path id="矢量 495" d="M11.2412 10.2104L11.2412 3.26538L15.9661 3.26538L15.9661 10.2253C15.9661 10.4403 15.7012 10.5453 15.5562 10.3852L13.5712 8.21039L11.6512 10.3703C11.5062 10.5302 11.2412 10.4303 11.2412 10.2104Z" fill="rgb(0,0,0)" fill-opacity="0.200000003" fill-rule="evenodd" />
		<path id="矢量 485" d="M11.2412 8.55412L11.2412 1.60913L15.9661 1.60913L15.9661 8.56901C15.9661 8.78409 15.7012 8.88907 15.5562 8.72916L13.5712 6.55414L11.6512 8.71403C11.5062 8.87394 11.2412 8.77408 11.2412 8.55412Z" fill="rgb(255,214,232)" fill-rule="evenodd" />
	</g>
</svg>
