<svg viewBox="0 0 32 32" xmlns="http://www.w3.org/2000/svg" xmlns:xlink="http://www.w3.org/1999/xlink" width="32.000000" height="32.000000" fill="none" customFrame="#000000">
	<defs>
		<filter id="pixso_custom_mask_type_outline">
			<feColorMatrix type="matrix" values="0 0 0 0 1 0 0 0 0 1 0 0 0 0 1 0 0 0 1 0 " />
		</filter>
	</defs>
	<mask id="mask_10" width="24.000000" height="28.000000" x="4.000000" y="2.000000" maskUnits="userSpaceOnUse">
		<g filter="url(#pixso_custom_mask_type_outline)">
			<path id="蒙版" d="M7 2L20 2L28 10L28 27C28 28.6569 26.6569 30 25 30L7 30C5.34315 30 4 28.6569 4 27L4 5C4 3.34315 5.34315 2 7 2Z" fill="rgb(255,255,255)" fill-rule="evenodd" />
			<path id="蒙版" d="M20 2L7 2C5.34315 2 4 3.34315 4 5L4 27C4 28.6569 5.34315 30 7 30L25 30C26.6569 30 28 28.6569 28 27L28 10L20 2ZM19.5858 3L27 10.4142L27 27Q27 27.2366 26.9472 27.4607Q26.909 27.6227 26.8432 27.7782Q26.7744 27.9409 26.6798 28.0869Q26.5657 28.2627 26.4142 28.4142Q26.2627 28.5657 26.0869 28.6797Q25.9409 28.7744 25.7782 28.8432Q25.6227 28.909 25.4607 28.9472Q25.2366 29 25 29L7 29Q6.76343 29 6.53931 28.9472Q6.37731 28.909 6.22182 28.8432Q6.05905 28.7744 5.91306 28.6797Q5.73727 28.5657 5.58579 28.4142Q5.43429 28.2627 5.32027 28.0869Q5.22559 27.9409 5.15676 27.7782Q5.091 27.6227 5.05282 27.4607Q5 27.2366 5 27L5 5Q5 4.76342 5.05282 4.53929Q5.09099 4.3773 5.15676 4.22182Q5.22561 4.05904 5.32031 3.91303Q5.43432 3.73726 5.58579 3.58579Q5.73726 3.43431 5.91303 3.32031Q6.05904 3.22561 6.22182 3.15676Q6.3773 3.09099 6.53929 3.05282Q6.76342 3 7 3L19.5858 3Z" fill="rgb(223,225,230)" fill-opacity="0" fill-rule="evenodd" />
		</g>
	</mask>
	<rect id="雪碧图/32px/Compressed file" width="32.000000" height="32.000000" x="0.000000" y="0.000000" />
	<g id="图标/ppt文件">
		<rect id="矩形" width="32.000000" height="32.000000" x="0.000000" y="0.000000" rx="8.000000" fill="rgb(238,240,245)" fill-opacity="0" />
		<rect id="矩形" width="31.000000" height="31.000000" x="0.500000" y="0.500000" rx="7.500000" stroke="rgb(151,151,151)" stroke-opacity="0" stroke-width="1" />
		<g id="编组 2">
			<g id="路径" showMaskRef="url(#show_mask_4)" mask="url(#mask_10)">
				<g id="show_mask_4">
					<path id="蒙版" d="M7 2L20 2L28 10L28 27C28 28.6569 26.6569 30 25 30L7 30C5.34315 30 4 28.6569 4 27L4 5C4 3.34315 5.34315 2 7 2Z" fill="rgb(255,136,0)" fill-rule="evenodd" />
					<path id="蒙版" d="M20 2L7 2C5.34315 2 4 3.34315 4 5L4 27C4 28.6569 5.34315 30 7 30L25 30C26.6569 30 28 28.6569 28 27L28 10L20 2ZM19.5858 3L27 10.4142L27 27Q27 27.2366 26.9472 27.4607Q26.909 27.6227 26.8432 27.7782Q26.7744 27.9409 26.6798 28.0869Q26.5657 28.2627 26.4142 28.4142Q26.2627 28.5657 26.0869 28.6797Q25.9409 28.7744 25.7782 28.8432Q25.6227 28.909 25.4607 28.9472Q25.2366 29 25 29L7 29Q6.76343 29 6.53931 28.9472Q6.37731 28.909 6.22182 28.8432Q6.05905 28.7744 5.91306 28.6797Q5.73727 28.5657 5.58579 28.4142Q5.43429 28.2627 5.32027 28.0869Q5.22559 27.9409 5.15676 27.7782Q5.091 27.6227 5.05282 27.4607Q5 27.2366 5 27L5 5Q5 4.76342 5.05282 4.53929Q5.09099 4.3773 5.15676 4.22182Q5.22561 4.05904 5.32031 3.91303Q5.43432 3.73726 5.58579 3.58579Q5.73726 3.43431 5.91303 3.32031Q6.05904 3.22561 6.22182 3.15676Q6.3773 3.09099 6.53929 3.05282Q6.76342 3 7 3L19.5858 3Z" fill="rgb(223,225,230)" fill-opacity="0" fill-rule="evenodd" />
				</g>
				<g id="编组-109">
					<path id="Rectangle-16-Copy-2" d="M11.8164 9.2688L14.6559 9.2688C14.844 9.2688 14.9966 9.42135 14.9966 9.60953L14.9966 10.7453C14.9966 10.9335 14.844 11.086 14.6559 11.086L11.8164 11.086L11.8164 9.2688Z" fill="rgb(255,255,255)" fill-rule="evenodd" />
					<path id="Rectangle-16-Copy-4" d="M11.8164 12.9034L14.6559 12.9034C14.844 12.9034 14.9966 13.056 14.9966 13.2442L14.9966 14.7207L14.9966 14.7207L11.8164 14.7207L11.8164 12.9034Z" fill="rgb(255,255,255)" fill-rule="evenodd" />
					<path id="Rectangle-16-Copy" d="M0 0L2.83945 0C3.02763 0 3.18019 0.152552 3.18019 0.340734L3.18019 1.47652C3.18019 1.6647 3.02763 1.81725 2.83945 1.81725L0 1.81725L0 0Z" fill="rgb(255,255,255)" fill-rule="evenodd" transform="matrix(-1,0,0,1,13.1802,7.45178)" />
					<path id="Rectangle-16-Copy-6" d="M0.340734 0L3.18019 0L3.18019 0L3.18019 1.81725L0.340734 1.81725C0.152552 1.81725 0 1.6647 0 1.47652L0 0.340734C0 0.152552 0.152552 0 0.340734 0Z" fill="rgb(255,255,255)" fill-rule="evenodd" transform="matrix(-1,0,0,1,14.9966,5.6344)" />
					<path id="Rectangle-16-Copy-6备份-3" d="M0 0L3.18019 0L3.18019 1.81725L0.340734 1.81725C0.152552 1.81725 0 1.6647 0 1.47652L0 0L0 0Z" fill="rgb(255,255,255)" fill-rule="evenodd" transform="matrix(-1,0,0,1,14.9966,2)" />
					<path id="Rectangle-16-Copy-6备份-2" d="M0 0L2.83945 0C3.02763 0 3.18019 0.152552 3.18019 0.340734L3.18019 1.47652C3.18019 1.6647 3.02763 1.81725 2.83945 1.81725L0 1.81725L0 0Z" fill="rgb(255,255,255)" fill-rule="evenodd" transform="matrix(-1,0,0,1,13.1802,3.81702)" />
					<path id="Rectangle-16-Copy-3" d="M0 0L2.83945 0C3.02763 0 3.18019 0.152552 3.18019 0.340734L3.18019 1.47652C3.18019 1.6647 3.02763 1.81725 2.83945 1.81725L0 1.81725L0 0Z" fill="rgb(255,255,255)" fill-rule="evenodd" transform="matrix(-1,0,0,1,13.1802,11.0862)" />
					<path id="Combined-Shape" d="M14.9999 17.6869L14.9999 14.72L10.0024 14.72L10.0024 17.6869C10.0024 18.0556 10.3013 18.3545 10.67 18.3545L14.3323 18.3545C14.701 18.3545 14.9999 18.0556 14.9999 17.6869ZM11.2484 15.6301L13.7471 15.6301L13.7471 16.8795C13.7471 17.0677 13.5945 17.2202 13.4064 17.2202L11.5891 17.2202C11.4009 17.2202 11.2484 17.0677 11.2484 16.8795L11.2484 15.6301Z" fill="rgb(255,255,255)" fill-rule="evenodd" />
				</g>
				<path id="路径" d="M28 10L21.5 10C20.6716 10 20 9.32843 20 8.5L20 2" fill="rgb(252,213,164)" fill-rule="evenodd" />
				<path id="路径" d="M28 10L21.5 10C20.6716 10 20 9.32843 20 8.5L20 2L21 3L21 8.5Q21 8.60355 21.0366 8.69194Q21.0732 8.78033 21.1464 8.85355Q21.2197 8.92678 21.3081 8.96339Q21.3964 9 21.5 9L27 9L28 10Z" fill="rgb(223,225,230)" fill-opacity="0" fill-rule="evenodd" />
			</g>
		</g>
	</g>
</svg>
