<svg viewBox="0 0 48 48" xmlns="http://www.w3.org/2000/svg" xmlns:xlink="http://www.w3.org/1999/xlink" width="48.000000" height="48.000000" fill="none">
	<rect id="语言图标/VB.NET" width="48.000000" height="48.000000" x="0.000000" y="0.000000" />
	<g id="模型/VB.NET">
		<g id="VB.NET_Logo">
			<circle id="椭圆形" cx="23.966198" cy="23.5335808" r="15.5335798" fill="rgb(0,78,140)" />
			<circle id="椭圆形" cx="23.966198" cy="23.5335808" r="15.5335798" stroke="rgb(0,0,0)" stroke-opacity="0" stroke-width="1" />
			<path id="路径" d="M13.1997 12.3689C8.89716 16.2029 7.07086 22.1039 8.45544 27.698C9.84001 33.2922 14.2079 37.6601 19.802 39.0446C25.3962 40.4292 31.2971 38.6029 35.1312 34.3004L13.1997 12.3689Z" opacity="0.100000001" fill="rgb(255,255,255)" fill-rule="nonzero" />
			<path id="路径" d="M8.45544 27.698C9.84001 33.2922 14.2079 37.6601 19.802 39.0446C25.3962 40.4292 31.2971 38.6029 35.1312 34.3004L13.1997 12.3689C8.89716 16.2029 7.07086 22.1039 8.45544 27.698Z" opacity="0.100000001" fill-rule="nonzero" stroke="rgb(0,0,0)" stroke-opacity="0" stroke-width="1" />
			<path id="路径" d="M24.5927 17.4173L20.0831 29.65L18.4861 29.65L14.0493 17.4173L15.6464 17.4173L19.0443 27.1258C19.1615 27.4778 19.2444 27.8404 19.2919 28.2083C19.3428 27.8308 19.4679 27.4597 19.5977 27.1016L23.0539 17.3931L24.5927 17.4173Z" fill="rgb(255,255,255)" fill-rule="nonzero" />
			<path id="路径" d="M20.0831 29.65L18.4861 29.65L14.0493 17.4173L15.6464 17.4173L19.0443 27.1258C19.1615 27.4778 19.2444 27.8404 19.2919 28.2083C19.3428 27.8308 19.4679 27.4597 19.5977 27.1016L23.0539 17.3931L24.5927 17.4173L20.0831 29.65Z" fill-rule="nonzero" stroke="rgb(0,0,0)" stroke-opacity="0" stroke-width="1" />
			<path id="形状" d="M26.3545 29.65L26.3545 17.4173L29.835 17.4173C30.7388 17.3689 31.6304 17.6443 32.3495 18.194C32.9591 18.6862 33.3039 19.435 33.2815 20.2182C33.291 20.867 33.0881 21.5011 32.7038 22.024C32.316 22.5446 31.7717 22.9274 31.1505 23.1162C31.9018 23.1767 32.6055 23.5419 33.131 24.0822C33.6391 24.6423 33.906 25.38 33.8737 26.1355C33.9059 27.1108 33.4912 28.0474 32.7475 28.6791C31.9531 29.3419 30.9417 29.6877 29.9078 29.65L26.3545 29.65ZM27.8108 18.7085L27.8108 22.6599L29.267 22.6599C29.9301 22.6911 30.5825 22.4845 31.1068 22.0774C31.5671 21.6763 31.8162 21.085 31.7815 20.4755C31.7815 19.2878 31 18.694 29.4369 18.694L27.8108 18.7085ZM27.8108 23.9463L27.8108 28.3491L29.7525 28.3491C30.4504 28.3895 31.1396 28.1776 31.6942 27.752C32.1629 27.3411 32.4185 26.7387 32.3883 26.1161C32.3883 24.6728 31.4045 23.9511 29.4369 23.9511L27.8108 23.9463Z" fill="rgb(255,255,255)" fill-rule="nonzero" />
			<path id="形状" d="M26.3545 17.4173L29.835 17.4173C30.7388 17.3689 31.6304 17.6443 32.3495 18.194C32.9591 18.6862 33.3039 19.435 33.2815 20.2182C33.291 20.867 33.0881 21.5011 32.7038 22.024C32.316 22.5446 31.7717 22.9274 31.1505 23.1162C31.9018 23.1767 32.6055 23.5419 33.131 24.0822C33.6391 24.6423 33.906 25.38 33.8737 26.1355C33.9059 27.1108 33.4912 28.0474 32.7475 28.6791C31.9531 29.3419 30.9417 29.6877 29.9078 29.65L26.3545 29.65L26.3545 17.4173ZM27.8108 22.6599L29.267 22.6599C29.9301 22.6911 30.5825 22.4845 31.1068 22.0774C31.5671 21.6763 31.8162 21.085 31.7815 20.4755C31.7815 19.2878 31 18.694 29.4369 18.694L27.8108 18.7085L27.8108 22.6599ZM27.8108 28.3491L29.7525 28.3491C30.4504 28.3895 31.1396 28.1776 31.6942 27.752C32.1629 27.3411 32.4185 26.7387 32.3883 26.1161C32.3883 24.6728 31.4045 23.9511 29.4369 23.9511L27.8108 23.9463L27.8108 28.3491Z" fill-rule="nonzero" stroke="rgb(0,0,0)" stroke-opacity="0" stroke-width="1" />
		</g>
	</g>
</svg>
