<svg viewBox="0 0 48 48" xmlns="http://www.w3.org/2000/svg" xmlns:xlink="http://www.w3.org/1999/xlink" width="48.000000" height="48.000000" fill="none">
	<rect id="语言图标/XML" width="48.000000" height="48.000000" x="0.000000" y="0.000000" />
	<g id="XML">
		<g id="编组-2">
			<g id="编组">
				<path id="路径" d="M39.2115 36.6779L11.9892 36.6779C11.6803 36.6802 11.3832 36.5591 11.1639 36.3415C10.9446 36.1238 10.8213 35.8277 10.8213 35.5187L10.8213 11.6158C10.8213 10.7234 11.5447 10 12.4371 10L33.4246 10L40.5375 16.5948L40.5375 35.3431C40.5375 36.0768 39.9453 36.673 39.2115 36.6779Z" fill="rgb(227,113,61)" fill-rule="nonzero" />
				<path id="路径" d="M11.9892 36.6779C11.6803 36.6802 11.3832 36.5591 11.1639 36.3415C10.9446 36.1238 10.8213 35.8277 10.8213 35.5187L10.8213 11.6158C10.8213 10.7234 11.5447 10 12.4371 10L33.4246 10L40.5375 16.5948L40.5375 35.3431C40.5375 36.0768 39.9453 36.673 39.2115 36.6779L11.9892 36.6779Z" fill-rule="nonzero" stroke="rgb(0,0,0)" stroke-opacity="0" stroke-width="1" />
				<path id="路径" d="M33.6971 17.1217L40.5378 16.5948L33.4249 10L32.9419 16.3665C32.9419 16.7836 33.28 17.1217 33.6971 17.1217Z" fill="rgb(198,96,56)" fill-rule="nonzero" />
				<path id="路径" d="M40.5378 16.5948L33.4249 10L32.9419 16.3665C32.9419 16.7836 33.28 17.1217 33.6971 17.1217L40.5378 16.5948Z" fill-rule="nonzero" stroke="rgb(0,0,0)" stroke-opacity="0" stroke-width="1" />
				<path id="路径" d="M34.1801 16.5949L40.5378 16.5949L33.4249 10L33.4249 15.8396C33.4225 16.0406 33.5013 16.2341 33.6435 16.3763C33.7856 16.5184 33.9791 16.5972 34.1801 16.5949Z" fill="rgb(255,125,74)" fill-rule="nonzero" />
				<path id="路径" d="M40.5378 16.5949L33.4249 10L33.4249 15.8396C33.4225 16.0406 33.5013 16.2341 33.6435 16.3763C33.7856 16.5184 33.9791 16.5972 34.1801 16.5949L40.5378 16.5949Z" fill-rule="nonzero" stroke="rgb(0,0,0)" stroke-opacity="0" stroke-width="1" />
			</g>
			<g id="编组">
				<path id="形状" d="M33.7225 32.2681C33.7744 32.2119 33.8036 32.1356 33.8035 32.056L33.8035 30.556C33.8035 30.3903 33.9271 30.256 34.0796 30.256C34.2321 30.256 34.3557 30.1217 34.3557 29.956C34.3557 29.7903 34.2321 29.656 34.0796 29.656C33.6229 29.656 33.2512 30.0598 33.2512 30.556L33.2512 31.9318L33.0559 32.1439C32.9482 32.2611 32.9482 32.451 33.0559 32.5681L33.2512 32.7802L33.2512 34.156C33.2512 34.6522 33.6229 35.056 34.0796 35.056C34.2321 35.056 34.3557 34.9217 34.3557 34.756C34.3557 34.5903 34.2321 34.456 34.0796 34.456C33.9271 34.456 33.8035 34.3217 33.8035 34.156L33.8035 32.656C33.8036 32.5764 33.7744 32.5001 33.7225 32.4439L33.7225 32.2681ZM39.0291 32.2411L38.774 31.9318L38.774 30.556C38.774 30.0598 38.4023 29.656 37.9455 29.656C37.8469 29.656 37.7557 29.7132 37.7064 29.806C37.657 29.8988 37.657 30.0132 37.7064 30.106C37.7557 30.1988 37.8469 30.256 37.9455 30.256C38.0981 30.256 38.2217 30.3903 38.2217 30.556L38.2217 32.056C38.2216 32.1356 38.2508 32.2119 38.3026 32.2681L38.3026 32.4439C38.2507 32.5001 38.2216 32.5764 38.2217 32.656L38.2217 34.156C38.2217 34.3217 38.0981 34.456 37.9455 34.456C37.8469 34.456 37.7557 34.5132 37.7064 34.606C37.657 34.6988 37.657 34.8132 37.7064 34.906C37.7557 34.9988 37.8469 35.056 37.9455 35.056C38.4023 35.056 38.774 34.6522 38.774 34.156L38.774 32.7802L38.9692 32.5681C39.0482 32.4823 39.0718 32.3532 39.0291 32.2411ZM37.0335 30.3412C36.9673 30.2711 36.8733 30.2416 36.7829 30.2624C36.6925 30.2833 36.6176 30.3518 36.5834 30.445L34.9276 34.045C34.9005 34.119 34.9015 34.2016 34.9305 34.2747C34.9595 34.3478 35.0141 34.4054 35.0823 34.4347C35.224 34.4956 35.3844 34.421 35.4418 34.2676L37.0973 30.6676C37.1391 30.5549 37.1137 30.4259 37.0335 30.3412Z" fill="rgb(255,255,255)" fill-rule="nonzero" />
				<path id="形状" d="M33.8035 32.056L33.8035 30.556C33.8035 30.3903 33.9271 30.256 34.0796 30.256C34.2321 30.256 34.3557 30.1217 34.3557 29.956C34.3557 29.7903 34.2321 29.656 34.0796 29.656C33.6229 29.656 33.2512 30.0598 33.2512 30.556L33.2512 31.9318L33.0559 32.1439C32.9482 32.2611 32.9482 32.451 33.0559 32.5681L33.2512 32.7802L33.2512 34.156C33.2512 34.6522 33.6229 35.056 34.0796 35.056C34.2321 35.056 34.3557 34.9217 34.3557 34.756C34.3557 34.5903 34.2321 34.456 34.0796 34.456C33.9271 34.456 33.8035 34.3217 33.8035 34.156L33.8035 32.656C33.8036 32.5764 33.7744 32.5001 33.7225 32.4439L33.7225 32.2681C33.7744 32.2119 33.8036 32.1356 33.8035 32.056ZM38.774 31.9318L38.774 30.556C38.774 30.0598 38.4023 29.656 37.9455 29.656C37.8469 29.656 37.7557 29.7132 37.7064 29.806C37.657 29.8988 37.657 30.0132 37.7064 30.106C37.7557 30.1988 37.8469 30.256 37.9455 30.256C38.0981 30.256 38.2217 30.3903 38.2217 30.556L38.2217 32.056C38.2216 32.1356 38.2508 32.2119 38.3026 32.2681L38.3026 32.4439C38.2507 32.5001 38.2216 32.5764 38.2217 32.656L38.2217 34.156C38.2217 34.3217 38.0981 34.456 37.9455 34.456C37.8469 34.456 37.7557 34.5132 37.7064 34.606C37.657 34.6988 37.657 34.8132 37.7064 34.906C37.7557 34.9988 37.8469 35.056 37.9455 35.056C38.4023 35.056 38.774 34.6522 38.774 34.156L38.774 32.7802L38.9692 32.5681C39.0482 32.4823 39.0718 32.3532 39.0291 32.2411L38.774 31.9318ZM36.7829 30.2624C36.6925 30.2833 36.6176 30.3518 36.5834 30.445L34.9276 34.045C34.9005 34.119 34.9015 34.2016 34.9305 34.2747C34.9595 34.3478 35.0141 34.4054 35.0823 34.4347C35.224 34.4956 35.3844 34.421 35.4418 34.2676L37.0973 30.6676C37.1391 30.5549 37.1137 30.4259 37.0335 30.3412C36.9673 30.2711 36.8733 30.2416 36.7829 30.2624Z" fill-rule="nonzero" stroke="rgb(0,0,0)" stroke-opacity="0" stroke-width="1" />
				<rect id="矩形" width="27.917999" height="13.068000" x="8.000000" y="17.425049" rx="0.891000" fill="rgb(198,96,56)" />
				<rect id="矩形" width="27.917999" height="13.068000" x="8.000000" y="17.425049" rx="0.891000" stroke="rgb(0,0,0)" stroke-opacity="0" stroke-width="1" />
				<path id="XML" d="M17.2073 18.6383L14.4377 22.4964L17.283 26.4641L16.1187 26.4641L13.8504 23.2664L11.6055 26.4641L10.5039 26.4641L13.3492 22.5068L10.5796 18.6383L11.7542 18.6383L13.9365 21.7498L16.1057 18.6383L17.2073 18.6383ZM24.9396 18.6383L25.7201 18.6383L25.7201 26.4641L24.7882 26.4641L24.7882 20.4968L22.3188 24.4437L21.7523 24.4437L19.2621 20.476L19.2621 26.4641L18.3406 26.4641L18.3406 18.6383L19.1759 18.6383L22.063 23.2873L24.9396 18.6383ZM27.5785 18.6383L28.5313 18.6383L28.5313 25.6079L32.392 25.6079L32.392 26.4641L27.5785 26.4641L27.5785 18.6383Z" fill="rgb(255,255,255)" fill-rule="nonzero" />
				<path id="XML" d="M17.6134 18.9299L14.8439 22.788L14.4377 22.4964L14.844 22.205L18.2568 26.9641L15.8604 26.9641L13.4425 23.5557L13.8504 23.2664L14.2596 23.5537L11.8653 26.9641L9.52856 26.9641L12.9432 22.2149L13.3492 22.5068L12.9426 22.7979L9.60669 18.1383L12.0143 18.1383L14.3459 21.4627L13.9365 21.7498L13.5263 21.4639L15.8448 18.1383L18.1817 18.1383L17.6134 18.9299ZM16.8011 18.3467L17.2073 18.6383L17.2073 19.1383L16.1057 19.1383L16.1057 18.6383L16.5159 18.9242L13.9377 22.6223L11.3449 18.9254L11.7542 18.6383L11.7542 19.1383L10.5796 19.1383L10.5796 18.6383L10.9861 18.3472L13.9645 22.5074L10.9098 26.756L10.5039 26.4641L10.5039 25.9641L11.6055 25.9641L11.6055 26.4641L11.1962 26.1768L13.8482 22.3993L16.5266 26.1748L16.1187 26.4641L16.1187 25.9641L17.283 25.9641L17.283 26.4641L16.8766 26.7555L13.8223 22.4962L16.8011 18.3467ZM24.9396 18.1383L26.2201 18.1383L26.2201 26.9641L24.2882 26.9641L24.2882 20.4968L24.7882 20.4968L25.212 20.762L22.5957 24.9437L21.4758 24.9437L18.8386 20.7418L19.2621 20.476L19.7621 20.476L19.7621 26.9641L17.8406 26.9641L17.8406 18.1383L19.454 18.1383L22.4877 23.0235L22.063 23.2873L21.6378 23.0242L24.661 18.1383L24.9396 18.1383ZM24.9396 19.1383L24.9396 18.6383L25.3648 18.9014L22.0637 24.2363L18.7512 18.9021L19.1759 18.6383L19.1759 19.1383L18.3406 19.1383L18.3406 18.6383L18.8406 18.6383L18.8406 26.4641L18.3406 26.4641L18.3406 25.9641L19.2621 25.9641L19.2621 26.4641L18.7621 26.4641L18.7621 18.7388L22.1758 24.1779L21.7523 24.4437L21.7523 23.9437L22.3188 23.9437L22.3188 24.4437L21.8949 24.1785L25.2882 18.755L25.2882 26.4641L24.7882 26.4641L24.7882 25.9641L25.7201 25.9641L25.7201 26.4641L25.2201 26.4641L25.2201 18.6383L25.7201 18.6383L25.7201 19.1383L24.9396 19.1383ZM27.5785 18.1383L29.0313 18.1383L29.0313 25.6079L28.5313 25.6079L28.5313 25.1079L32.892 25.1079L32.892 26.9641L27.0785 26.9641L27.0785 18.1383L27.5785 18.1383ZM27.5785 19.1383L27.5785 18.6383L28.0785 18.6383L28.0785 26.4641L27.5785 26.4641L27.5785 25.9641L32.392 25.9641L32.392 26.4641L31.892 26.4641L31.892 25.6079L32.392 25.6079L32.392 26.1079L28.0313 26.1079L28.0313 18.6383L28.5313 18.6383L28.5313 19.1383L27.5785 19.1383Z" fill="rgb(0,0,0)" fill-opacity="0" fill-rule="nonzero" />
				<path id="" />
			</g>
		</g>
	</g>
</svg>
