<svg viewBox="0 0 48 48" xmlns="http://www.w3.org/2000/svg" xmlns:xlink="http://www.w3.org/1999/xlink" width="48.000000" height="48.000000" fill="none">
	<defs>
		<clipPath id="clipPath_6">
			<rect width="41.999996" height="41.999996" x="3.000000" y="3.000000" fill="rgb(255,255,255)" />
		</clipPath>
	</defs>
	<rect id="产品图标/Chatapt-48" width="47.999992" height="47.999992" x="0.000000" y="0.000000" />
	<g id="Chatapt" clip-path="url(#clipPath_6)" customFrame="url(#clipPath_6)">
		<rect id="Chatapt" width="41.999996" height="41.999996" x="3.000000" y="3.000000" />
		<path id="矢量 844" d="M5.47314 31.1308C5.46933 30.0695 5.62056 29.0304 5.94179 28.0183C5.99036 27.8653 5.96924 27.7658 5.8614 27.64C4.48616 26.0362 3.62496 24.1918 3.37531 22.0903C2.94706 18.4853 4.08284 15.4194 6.6833 12.9095C8.03889 11.6012 9.67696 10.7776 11.5158 10.3633C11.6649 10.3297 11.7239 10.2524 11.7696 10.1216C12.3841 8.36419 13.3748 6.85473 14.7828 5.6331C16.758 3.91931 19.0557 3.04085 21.6759 3.0013C23.0616 2.98039 24.3985 3.21213 25.6862 3.71802C27.1607 4.29723 28.4432 5.16522 29.5187 6.32986C29.6478 6.46958 29.7653 6.49669 29.9412 6.46462C32.2728 6.03963 34.515 6.32853 36.6332 7.39209C39.0128 8.58691 40.6985 10.4444 41.731 12.8977C42.2633 14.1621 42.5156 15.4862 42.5246 16.8508C42.5316 17.9159 42.3786 18.9661 42.0455 19.9829C41.9969 20.131 42.0241 20.2249 42.1246 20.3426C43.648 22.1261 44.5138 24.1826 44.6831 26.5284C44.8245 28.4868 44.4569 30.3467 43.5605 32.0882C42.2691 34.5973 40.2964 36.3499 37.6252 37.2924C37.2504 37.4246 36.8637 37.5267 36.4771 37.6204C36.3384 37.654 36.2766 37.7143 36.2329 37.8418C35.69 39.4252 34.8262 40.8119 33.6249 41.976C31.9973 43.5531 30.0604 44.5229 27.8144 44.8699C26.0326 45.1452 24.2909 44.9842 22.5962 44.3809C20.9847 43.8071 19.596 42.8829 18.435 41.6241C18.3358 41.5165 18.2478 41.487 18.1037 41.5148C16.1553 41.8903 14.2418 41.7477 12.3882 41.0429C9.59466 39.9809 7.597 38.0586 6.36743 35.3394C5.76341 34.0036 5.47647 32.5962 5.47314 31.1308ZM26.8283 7.56102C26.7675 7.51736 26.7266 7.49056 26.6885 7.46029C25.4917 6.50905 24.1296 5.94916 22.6129 5.79498C20.5857 5.58894 18.7324 6.08803 17.1067 7.31692C15.0715 8.85537 13.9839 10.9252 13.9477 13.4755C13.9017 16.7169 13.9378 19.9596 13.9333 23.2017C13.9331 23.3659 13.9864 23.4594 14.1283 23.5401C14.9572 24.0117 15.7809 24.4926 16.607 24.9692C16.9053 25.1413 17.2053 25.3104 17.5293 25.495C17.5293 25.37 17.5293 25.2849 17.5293 25.1998C17.531 21.3806 17.532 17.5613 17.5354 13.7421C17.5359 13.2071 17.7673 12.7985 18.2342 12.5285C20.4096 11.2705 22.5847 10.0122 24.7601 8.75434C25.4372 8.36278 26.1151 7.97246 26.8283 7.56102ZM25.9347 17.6346C26.0506 17.7036 26.1394 17.758 26.2297 17.8099C26.6742 18.0652 27.1199 18.3186 27.5639 18.575C30.3497 20.1844 33.1298 21.8038 35.9249 23.3969C36.5475 23.7518 36.8206 24.2264 36.8165 24.9372C36.8002 27.7944 36.8088 30.6516 36.8083 33.5088C36.8082 33.8782 36.8083 34.2475 36.8083 34.6459C36.9126 34.6097 36.9939 34.5877 37.07 34.5541C39.7685 33.3644 41.4322 31.3238 41.8515 28.407C42.2862 25.3827 41.2195 22.8814 38.8036 21.011C38.0547 20.4312 37.192 19.9951 36.3681 19.516C34.1529 18.2276 31.9298 16.9529 29.713 15.6673C29.5678 15.5831 29.4585 15.5911 29.3212 15.6729C28.8626 15.946 28.3979 16.209 27.9358 16.4763C27.2788 16.8563 26.622 17.2367 25.9347 17.6346ZM39.6613 18.2346C39.6945 17.764 39.7486 17.3541 39.7482 16.9442C39.7463 15.1557 39.2094 13.5423 38.1207 12.1184C36.1484 9.53849 32.7686 8.43919 29.6606 9.35583C28.6651 9.64944 27.7923 10.1866 26.9053 10.6983C24.4828 12.0956 22.0615 13.4949 19.6367 14.8881C19.4994 14.967 19.45 15.0555 19.4506 15.2095C19.4554 16.456 19.4531 17.7026 19.454 18.9492C19.454 19.0015 19.4638 19.0539 19.4717 19.1322C19.8086 18.9372 20.1214 18.756 20.4344 18.5752C23.4603 16.8279 26.4884 15.0843 29.5104 13.3302C30.078 13.0008 30.6174 12.9845 31.1794 13.3283C31.6709 13.629 32.1738 13.911 32.6729 14.1992C34.4848 15.2456 36.2972 16.291 38.1092 17.337C38.6073 17.6245 39.1049 17.9128 39.6613 18.2346ZM28.533 28.857C28.4453 28.9035 28.396 28.9276 28.3485 28.955C26.8197 29.8378 25.2915 30.7218 23.7623 31.6039C21.9679 32.639 20.1709 33.6696 18.3787 34.7086C17.8949 34.9891 17.4183 34.9879 16.9395 34.721C16.5166 34.4853 16.1015 34.2357 15.6823 33.9935C13.6788 32.8361 11.6754 31.6788 9.67153 30.5221C9.24252 30.2744 8.81205 30.0293 8.36529 29.7732C8.35156 29.8312 8.34181 29.8635 8.33647 29.8964C8.12141 31.2185 8.2631 32.5064 8.71379 33.7632C9.78629 36.7539 12.6058 38.8156 15.7785 38.9368C17.2895 38.9944 18.7036 38.6604 20.0153 37.906C21.521 37.0401 23.0247 36.1707 24.5292 35.3028C25.7874 34.5769 27.0438 33.848 28.3054 33.1283C28.4743 33.0319 28.5444 32.9248 28.538 32.7258C28.5226 32.2417 28.533 31.7568 28.533 31.2723C28.533 30.482 28.533 29.6917 28.533 28.857ZM22.0481 30.3537C21.969 30.3032 21.9176 30.2676 21.8636 30.2362C21.4085 29.9712 20.9535 29.706 20.4974 29.4427C17.6622 27.806 14.8293 26.1652 11.9889 24.5375C11.4299 24.2172 11.1712 23.7676 11.1725 23.1279C11.1788 19.9579 11.1744 16.788 11.1738 13.618C11.1738 13.535 11.1738 13.452 11.1738 13.3508C11.1115 13.3671 11.0764 13.3705 11.0467 13.3849C10.6438 13.5798 10.2172 13.7384 9.84315 13.9786C7.2833 15.6223 5.96445 17.9696 6.07574 21.018C6.17964 23.8643 7.5315 26.0455 9.96971 27.4976C12.733 29.1433 15.5347 30.7245 18.324 32.3264C18.4021 32.3712 18.5501 32.3701 18.6292 32.3257C19.4979 31.8379 20.3596 31.3378 21.2225 30.8397C21.4912 30.6844 21.7575 30.5248 22.0481 30.3537ZM30.4793 22.4979C30.4748 22.5972 30.4695 22.6603 30.4695 22.7233C30.4688 24.6753 30.4685 26.6274 30.4685 28.5794C30.4685 30.446 30.4696 32.3126 30.4688 34.1792C30.4686 34.7706 30.2216 35.2157 29.6939 35.5053C29.22 35.7655 28.7549 36.0417 28.2867 36.3123C26.1792 37.5304 24.0719 38.7489 21.9648 39.9675C21.7091 40.1154 21.4546 40.2651 21.1845 40.4228C21.2438 40.4744 21.2748 40.5033 21.3077 40.5298C22.1522 41.208 23.0957 41.7003 24.1451 41.9628C26.7589 42.6166 29.1425 42.1172 31.2201 40.4002C33.0231 38.9103 33.998 36.9502 34.0375 34.6133C34.0932 31.3228 34.05 28.0306 34.0536 24.7392C34.0538 24.5952 33.9967 24.5202 33.879 24.4554C33.5736 24.2873 33.2729 24.1104 32.9708 23.9362C32.152 23.4638 31.3333 22.9909 30.4793 22.4979ZM19.4533 23.9839C19.4533 24.7533 19.4632 25.5229 19.4473 26.292C19.4425 26.5263 19.5107 26.6542 19.7191 26.7721C21.0817 27.543 22.4373 28.3262 23.7886 29.1168C23.9473 29.2095 24.055 29.2086 24.2084 29.119C25.5787 28.3187 26.952 27.5234 28.3296 26.7357C28.4787 26.6504 28.5379 26.5643 28.5371 26.3905C28.5297 24.7805 28.53 23.1705 28.5351 21.5605C28.5356 21.4211 28.4948 21.3394 28.3756 21.271C26.9681 20.4631 25.5618 19.653 24.1581 18.8384C24.0345 18.7667 23.943 18.7809 23.8264 18.8486C22.4228 19.6631 21.0175 20.4747 19.6096 21.2816C19.4871 21.3518 19.449 21.4313 19.4501 21.5689C19.4567 22.3739 19.4534 23.1789 19.4533 23.9839Z" fill="rgb(0,0,0)" fill-rule="nonzero" />
	</g>
</svg>
