<svg viewBox="0 0 32 32" xmlns="http://www.w3.org/2000/svg" xmlns:xlink="http://www.w3.org/1999/xlink" width="32.000000" height="32.000000" fill="none">
	<defs>
		<clipPath id="clipPath_7">
			<rect width="27.999998" height="28.000000" x="2.000000" y="2.000000" fill="rgb(255,255,255)" />
		</clipPath>
	</defs>
	<rect id="产品图标/Chatapt-32" width="31.999996" height="31.999996" x="0.000000" y="0.000000" />
	<g id="Chatapt" clip-path="url(#clipPath_7)" customFrame="url(#clipPath_7)">
		<rect id="Chatapt" width="27.999998" height="28.000000" x="2.000000" y="2.000000" />
		<path id="矢量 844" d="M3.64876 20.7539C3.64622 20.0463 3.74704 19.3536 3.96119 18.6789C3.99357 18.5769 3.97949 18.5105 3.9076 18.4267C2.99077 17.3575 2.41664 16.1279 2.25021 14.7268C1.96471 12.3236 2.72189 10.2796 4.45554 8.60637C5.35926 7.73414 6.45131 7.18507 7.67718 6.90889C7.77657 6.88649 7.81591 6.83492 7.84638 6.74773C8.25607 5.57613 8.91656 4.56982 9.8552 3.7554C11.172 2.61287 12.7038 2.02723 14.4506 2.00086C15.3744 1.98693 16.2657 2.14142 17.1242 2.47868C18.1072 2.86482 18.9622 3.44348 19.6792 4.2199C19.7652 4.31306 19.8436 4.33113 19.9608 4.30975C21.5152 4.02642 23.01 4.21902 24.4221 4.92806C26.0085 5.72461 27.1323 6.96296 27.8207 8.59844C28.1755 9.44142 28.3437 10.3241 28.3497 11.2339C28.3544 11.9439 28.2524 12.6441 28.0303 13.3219C27.9979 13.4206 28.0161 13.4833 28.0831 13.5617C29.0986 14.7507 29.6759 16.1217 29.7887 17.6856C29.883 18.9912 29.6379 20.2311 29.0403 21.3921C28.1794 23.0649 26.8643 24.2333 25.0835 24.8616C24.8336 24.9497 24.5758 25.0178 24.3181 25.0803C24.2256 25.1027 24.1844 25.1429 24.1553 25.2279C23.7933 26.2835 23.2175 27.2079 22.4166 27.984C21.3316 29.0354 20.0402 29.6819 18.543 29.9133C17.3551 30.0968 16.1939 29.9895 15.0641 29.5872C13.9898 29.2047 13.064 28.5886 12.29 27.7494C12.2238 27.6777 12.1652 27.658 12.0691 27.6765C10.7702 27.9268 9.49454 27.8318 8.25878 27.3619C6.39644 26.6539 5.06467 25.3724 4.24495 23.5596C3.84227 22.6691 3.65098 21.7308 3.64876 20.7539ZM17.8855 5.04068C17.845 5.01158 17.8177 4.9937 17.7923 4.97352C16.9945 4.33937 16.0864 3.9661 15.0753 3.86332C13.7238 3.72596 12.4883 4.05869 11.4045 4.87795C10.0477 5.90358 9.32263 7.28344 9.29849 8.98365C9.26779 11.1446 9.29185 13.3064 9.28886 15.4678C9.28871 15.5773 9.32429 15.6396 9.41883 15.6934C9.97147 16.0078 10.5206 16.3284 11.0714 16.6461C11.2702 16.7609 11.4702 16.8736 11.6862 16.9967C11.6862 16.9133 11.6862 16.8566 11.6862 16.7999C11.6874 14.2537 11.688 11.7075 11.6903 9.16137C11.6906 8.80473 11.8449 8.53234 12.1562 8.35234C13.6064 7.51369 15.0565 6.67479 16.5067 5.83623C16.9582 5.57519 17.4101 5.31497 17.8855 5.04068ZM17.2898 11.7564C17.367 11.8024 17.4263 11.8387 17.4865 11.8732C17.7828 12.0435 18.08 12.2124 18.3759 12.3834C20.2332 13.4563 22.0865 14.5359 23.9499 15.598C24.365 15.8345 24.547 16.1509 24.5443 16.6248C24.5335 18.5296 24.5392 20.4344 24.5388 22.3392C24.5388 22.5855 24.5388 22.8317 24.5388 23.0973C24.6084 23.0731 24.6626 23.0584 24.7133 23.0361C26.5123 22.2429 27.6215 20.8825 27.901 18.938C28.1908 16.9218 27.4797 15.2543 25.8691 14.0073C25.3698 13.6208 24.7946 13.3301 24.2454 13.0106C22.7686 12.1517 21.2865 11.302 19.8087 10.4449C19.7119 10.3887 19.639 10.3941 19.5474 10.4486C19.2417 10.6307 18.9319 10.806 18.6239 10.9842C18.1859 11.2375 17.748 11.4911 17.2898 11.7564ZM26.4409 12.1564C26.463 11.8427 26.4991 11.5694 26.4988 11.2961C26.4976 10.1038 26.1396 9.02823 25.4138 8.07893C24.0989 6.35899 21.8457 5.62612 19.7737 6.23722C19.1101 6.43296 18.5282 6.79106 17.9368 7.13219C16.3219 8.06376 14.7077 8.99659 13.0911 9.92539C12.9996 9.97798 12.9667 10.037 12.9671 10.1397C12.9703 10.9707 12.9688 11.8017 12.9693 12.6328C12.9694 12.6677 12.9759 12.7026 12.9811 12.7548C13.2057 12.6248 13.4142 12.504 13.6229 12.3835C15.6402 11.2186 17.6589 10.0562 19.6736 8.88682C20.052 8.66719 20.4116 8.65636 20.7863 8.88554C21.1139 9.086 21.4492 9.27402 21.782 9.46616C22.9898 10.1637 24.1981 10.8607 25.4062 11.558C25.7382 11.7497 26.0699 11.9419 26.4409 12.1564ZM19.022 19.238C18.9635 19.269 18.9306 19.2851 18.899 19.3033C17.8798 19.8919 16.861 20.4812 15.8415 21.0693C14.6453 21.7593 13.4473 22.4464 12.2525 23.1391C11.93 23.3261 11.6122 23.3253 11.293 23.1473C11.0111 22.9902 10.7344 22.8238 10.4548 22.6623C9.11923 21.8907 7.78359 21.1192 6.44769 20.348C6.16168 20.1829 5.8747 20.0195 5.57686 19.8488C5.56771 19.8875 5.56121 19.909 5.55765 19.9309C5.41427 20.8123 5.50873 21.6709 5.8092 22.5088C6.52419 24.5026 8.40389 25.8771 10.519 25.9578C11.5263 25.9963 12.4691 25.7736 13.3436 25.2707C14.3474 24.6934 15.3498 24.1138 16.3528 23.5352C17.1916 23.0513 18.0292 22.5653 18.8703 22.0855C18.9829 22.0213 19.0296 21.9499 19.0254 21.8172C19.0151 21.4945 19.022 21.1712 19.022 20.8482C19.022 20.3213 19.022 19.7945 19.022 19.238ZM14.6987 20.2358C14.646 20.2021 14.6117 20.1784 14.5758 20.1575C14.2723 19.9808 13.969 19.804 13.6649 19.6285C11.7748 18.5374 9.88622 17.4435 7.99263 16.3584C7.61991 16.1448 7.44746 15.8451 7.44832 15.4186C7.45254 13.3053 7.44963 11.192 7.44923 9.07868C7.44923 9.02335 7.44923 8.96803 7.44923 8.90053C7.40767 8.91139 7.3843 8.91364 7.36446 8.92324C7.09584 9.05322 6.81148 9.15892 6.5621 9.31905C4.85553 10.4149 3.9763 11.9797 4.05049 14.012C4.11976 15.9096 5.021 17.3636 6.64647 18.3317C8.48866 19.4289 10.3565 20.483 12.216 21.5509C12.268 21.5808 12.3668 21.58 12.4195 21.5505C12.9986 21.2253 13.5731 20.8919 14.1483 20.5598C14.3275 20.4562 14.505 20.3499 14.6987 20.2358ZM20.3196 14.9986C20.3165 15.0648 20.313 15.1069 20.313 15.1489C20.3125 16.4502 20.3123 17.7516 20.3123 19.0529C20.3123 20.2973 20.3131 21.5417 20.3125 22.7861C20.3124 23.1804 20.1477 23.4771 19.796 23.6702C19.48 23.8437 19.1699 24.0278 18.8578 24.2082C17.4528 25.0203 16.0479 25.8326 14.6432 26.645C14.4727 26.7436 14.3031 26.8434 14.123 26.9486C14.1625 26.9829 14.1832 27.0022 14.2052 27.0198C14.7682 27.472 15.3971 27.8002 16.0967 27.9752C17.8393 28.4111 19.4283 28.0781 20.8134 26.9335C22.0154 25.9402 22.6653 24.6335 22.6917 23.0755C22.7288 20.8818 22.7 18.6871 22.7024 16.4928C22.7025 16.3968 22.6644 16.3468 22.586 16.3036C22.3824 16.1915 22.1819 16.0736 21.9805 15.9574C21.4346 15.6425 20.8889 15.3273 20.3196 14.9986ZM12.9689 15.9893C12.9689 16.5022 12.9755 17.0153 12.9649 17.528C12.9617 17.6842 13.0072 17.7695 13.1461 17.848C14.0544 18.362 14.9582 18.8842 15.8591 19.4112C15.9648 19.473 16.0366 19.4724 16.1389 19.4127C17.0525 18.8791 17.968 18.3489 18.8864 17.8238C18.9858 17.7669 19.0252 17.7095 19.0247 17.5937C19.0198 16.5203 19.02 15.447 19.0234 14.3737C19.0237 14.2808 18.9965 14.2263 18.9171 14.1806C17.9787 13.6421 17.0412 13.102 16.1054 12.559C16.023 12.5112 15.962 12.5206 15.8843 12.5658C14.9485 13.1088 14.0117 13.6498 13.0731 14.1877C12.9914 14.2345 12.966 14.2875 12.9667 14.3792C12.9712 14.9159 12.9689 15.4526 12.9689 15.9893Z" fill="rgb(0,0,0)" fill-rule="nonzero" />
	</g>
</svg>
