<svg viewBox="0 0 48 48" xmlns="http://www.w3.org/2000/svg" xmlns:xlink="http://www.w3.org/1999/xlink" width="48.000000" height="48.000000" fill="none">
	<defs>
		<linearGradient id="paint_linear_15" x1="3" x2="45.0001411" y1="3" y2="3" gradientUnits="userSpaceOnUse">
			<stop stop-color="rgb(99,54,231)" offset="0" stop-opacity="0.839999974" />
			<stop stop-color="rgb(111,105,247)" offset="1" stop-opacity="0.839999974" />
		</linearGradient>
	</defs>
	<rect id="产品图标/qwen-48" width="47.999996" height="48.000000" x="0.000000" y="0.000000" />
	<path id="矢量 751" d="M25.1538 3.6494C25.9041 4.96666 26.6505 6.28774 27.3951 7.61073C27.4612 7.72695 27.5611 7.78486 27.6948 7.78445L38.294 7.78445C38.6261 7.78445 38.9087 7.99445 39.1454 8.40872L41.9212 13.315C42.2839 13.9584 42.3794 14.2276 41.967 14.9129C41.4707 15.7338 40.9877 16.5624 40.5161 17.3947L39.8155 18.6509C39.6131 19.0251 39.3898 19.1854 39.7391 19.6283L44.802 28.4807C45.1304 29.0553 45.0139 29.4238 44.7199 29.9507C43.8856 31.4493 43.0361 32.9365 42.1713 34.4179C41.8677 34.9372 41.4993 35.1338 40.8731 35.1243C39.3898 35.0937 37.9102 35.1052 36.4307 35.1548C36.3617 35.1584 36.3102 35.1902 36.2761 35.2503C34.569 38.2748 32.8477 41.2911 31.112 44.2993C30.7894 44.8587 30.3866 44.9923 29.728 44.9942C27.8246 44.9999 25.906 45.0018 23.9683 44.998C23.5725 44.9969 23.2766 44.8245 23.0806 44.4807L20.5319 40.0459C20.4989 39.9812 20.4461 39.95 20.3735 39.9523L10.6029 39.9523C10.0588 40.0096 9.54714 39.9504 9.06606 39.7767L6.00581 34.4886C5.8076 34.1457 5.80632 33.802 6.00199 33.4577L8.30625 29.4104C8.37814 29.2851 8.37814 29.1597 8.30625 29.0343C7.10596 26.9562 5.91279 24.8741 4.72673 22.7879L3.21857 20.1247C2.91311 19.5329 2.8883 19.1778 3.39993 18.2824C4.28765 16.7304 5.16964 15.1802 6.04781 13.6319C6.29981 13.1852 6.62817 12.9943 7.16271 12.9924C8.81025 12.9855 10.4578 12.9848 12.1053 12.9905C12.1966 12.9898 12.2647 12.9497 12.3096 12.8702L17.6664 3.52532C17.8445 3.21353 18.113 3.05699 18.4721 3.05568C19.4724 3.05378 20.4823 3.05568 21.4941 3.04423L23.4356 3.00032C24.0866 2.99459 24.8178 3.06141 25.1538 3.6494ZM18.6019 4.41876C18.5578 4.41873 18.5247 4.43782 18.5026 4.47603L13.0312 14.05C12.9737 14.1488 12.8878 14.1984 12.7735 14.1989L7.30207 14.1989C7.19517 14.1989 7.16844 14.2467 7.2238 14.3402L18.3155 33.7288C18.3632 33.8089 18.3403 33.8471 18.2506 33.849L12.9147 33.8777C12.7413 33.8719 12.614 33.9457 12.5329 34.0991L10.013 38.5091C9.92896 38.658 9.97287 38.7343 10.1428 38.7343L21.055 38.7496C21.1429 38.7496 21.2078 38.7878 21.2536 38.8661L23.932 43.5509C24.0198 43.7056 24.1076 43.7075 24.1974 43.5509L33.7542 26.8275L35.249 24.1891C35.269 24.1533 35.2996 24.1354 35.3406 24.1354C35.3817 24.1354 35.4122 24.1533 35.4323 24.1891L38.1508 29.0191C38.1957 29.0986 38.2638 29.138 38.3551 29.1374L43.6298 29.0992C43.6595 29.0995 43.6818 29.0868 43.6966 29.0611C43.7109 29.0356 43.7109 29.0102 43.6966 28.9847L38.1603 19.2752C38.1162 19.2032 38.1162 19.1313 38.1603 19.0594L38.7197 18.0915L40.8578 14.3173C40.9037 14.239 40.8808 14.1989 40.791 14.1989L18.6553 14.1989C18.5427 14.1989 18.516 14.1493 18.5732 14.0519L21.3109 9.26971C21.3565 9.19716 21.3565 9.12462 21.3109 9.05207L18.7031 4.47794C18.6811 4.43813 18.6474 4.4184 18.6019 4.41876ZM30.6099 19.7295C30.6978 19.7295 30.7207 19.7677 30.6749 19.8441L29.0865 22.6409L24.0981 31.394C24.0774 31.4316 24.0456 31.45 24.0026 31.4493C23.9602 31.4492 23.9284 31.4307 23.9072 31.394L17.3152 19.8784C17.277 19.8135 17.2961 19.7792 17.3686 19.7753L17.781 19.7524L30.6138 19.7295L30.6099 19.7295Z" fill="url(#paint_linear_15)" fill-rule="nonzero" />
</svg>
