<svg viewBox="0 0 32 32" xmlns="http://www.w3.org/2000/svg" xmlns:xlink="http://www.w3.org/1999/xlink" width="32.000000" height="32.000000" fill="none" customFrame="#000000">
	<defs>
		<filter id="pixso_custom_mask_type_outline">
			<feColorMatrix type="matrix" values="0 0 0 0 1 0 0 0 0 1 0 0 0 0 1 0 0 0 1 0 " />
		</filter>
		<linearGradient id="paint_linear_336" x1="13.2063522" x2="30.7253761" y1="5.33336639" y2="17.4643288" gradientUnits="userSpaceOnUse">
			<stop stop-color="rgb(183,162,255)" offset="0" stop-opacity="1" />
			<stop stop-color="rgb(59,0,250)" offset="1" stop-opacity="1" />
		</linearGradient>
		<linearGradient id="paint_linear_337" x1="5.70097351" x2="25.7157726" y1="11.5668221" y2="16.8055077" gradientUnits="userSpaceOnUse">
			<stop stop-color="rgb(183,162,255)" offset="0" stop-opacity="0.243137255" />
			<stop stop-color="rgb(59,0,250)" offset="1" stop-opacity="1" />
		</linearGradient>
		<linearGradient id="paint_linear_338" x1="22.9498196" x2="27.6685066" y1="5.33337402" y2="31.107254" gradientUnits="userSpaceOnUse">
			<stop stop-color="rgb(183,162,255)" offset="0" stop-opacity="1" />
			<stop stop-color="rgb(59,0,250)" offset="1" stop-opacity="1" />
		</linearGradient>
		<linearGradient id="paint_linear_339" x1="6.93433189" x2="7.62032795" y1="13.3293457" y2="26.6666832" gradientUnits="userSpaceOnUse">
			<stop stop-color="rgb(255,240,252)" offset="0" stop-opacity="0" />
			<stop stop-color="rgb(188,112,237)" offset="0.54305476" stop-opacity="1" />
			<stop stop-color="rgb(102,46,238)" offset="1" stop-opacity="1" />
			<stop stop-color="rgb(102,46,238)" offset="1" stop-opacity="1" />
		</linearGradient>
		<linearGradient id="paint_linear_340" x1="9.51771069" x2="5.59860229" y1="21.0259552" y2="17.7501011" gradientUnits="userSpaceOnUse">
			<stop stop-color="rgb(52,21,79)" offset="0" stop-opacity="0" />
			<stop stop-color="rgb(37,43,58)" offset="1" stop-opacity="1" />
		</linearGradient>
		<linearGradient id="paint_linear_341" x1="27.6683159" x2="-2.09319305" y1="8.00003433" y2="9.50887489" gradientUnits="userSpaceOnUse">
			<stop stop-color="rgb(255,255,255)" offset="0" stop-opacity="1" />
			<stop stop-color="rgb(255,255,255)" offset="1" stop-opacity="0" />
		</linearGradient>
		<linearGradient id="paint_linear_342" x1="23.2547836" x2="16.0870647" y1="16.2421455" y2="12.4319429" gradientUnits="userSpaceOnUse">
			<stop stop-color="rgb(0,17,15)" offset="0" stop-opacity="1" />
			<stop stop-color="rgb(6,85,75)" offset="1" stop-opacity="0" />
		</linearGradient>
		<linearGradient id="paint_linear_343" x1="21.2732315" x2="9.09541798" y1="15.4595432" y2="18.3306007" gradientUnits="userSpaceOnUse">
			<stop stop-color="rgb(37,43,58)" offset="0" stop-opacity="1" />
			<stop stop-color="rgb(37,43,58)" offset="1" stop-opacity="1" />
		</linearGradient>
		<linearGradient id="paint_linear_344" x1="4.12012482" x2="8.63042927" y1="21.3372803" y2="26.6705513" gradientUnits="userSpaceOnUse">
			<stop stop-color="rgb(255,191,255)" offset="0" stop-opacity="1" />
			<stop stop-color="rgb(207,50,255)" offset="1" stop-opacity="1" />
		</linearGradient>
		<linearGradient id="paint_linear_345" x1="22.1810036" x2="-3.81469727e-06" y1="25.8638306" y2="21.3333683" gradientUnits="userSpaceOnUse">
			<stop stop-color="rgb(255,255,255)" offset="0" stop-opacity="0" />
			<stop stop-color="rgb(255,255,255)" offset="1" stop-opacity="1" />
		</linearGradient>
	</defs>
	<mask id="mask_142" width="32.000000" height="32.000000" x="0.000000" y="0.000000" maskUnits="userSpaceOnUse">
		<g filter="url(#pixso_custom_mask_type_outline)">
			<rect id="蒙版" width="32.000000" height="32.000000" x="0.000000" y="0.000000" rx="2.666667" fill="rgb(255,255,255)" />
			<rect id="蒙版" width="31.000000" height="31.000000" x="0.500000" y="0.500000" rx="2.166667" stroke="rgb(236,242,244)" stroke-opacity="0" stroke-width="1" />
		</g>
	</mask>
	<rect id="工程首字母图标/2-32x33" width="32.000000" height="32.000000" x="0.000000" y="0.000000" />
	<rect id="矩形" width="32.000000" height="32.000000" x="0.000000" y="0.000000" rx="2.666667" fill="rgb(255,255,255)" />
	<rect id="矩形" width="31.000000" height="31.000000" x="0.500000" y="0.500000" rx="2.166667" stroke="rgb(151,151,151)" stroke-opacity="0" stroke-width="1" />
	<g id="形状" showMaskRef="url(#show_mask_123)" mask="url(#mask_142)">
		<g id="show_mask_123">
			<rect id="蒙版" width="32.000000" height="32.000000" x="0.000000" y="0.000000" rx="2.666667" fill="rgb(255,255,255)" />
			<rect id="蒙版" width="31.000000" height="31.000000" x="0.500000" y="0.500000" rx="2.166667" stroke="rgb(236,242,244)" stroke-opacity="0" stroke-width="1" />
		</g>
		<path id="形状结合" d="M14.9516 0.46909L14.9516 -14.0002L15.951 -14.0002L15.951 0.0230894L21.8936 5.34576L24.609 2.46042L24.609 -9.40558L21.2383 -12.6869L21.937 -13.4036L25.609 -9.82758L25.609 2.85642L21.9536 6.74176L14.9516 0.46909ZM11.8007 9.48492L11.8007 -13.8491L12.8 -13.8491L12.8 9.08892L18.818 15.4989L21.3893 15.4989L21.3893 9.85759L27.8273 3.06092L27.8273 -10.4857L28.8273 -10.4857L28.8273 3.45892L22.3887 10.2563L22.3887 16.4989L18.3853 16.4989L11.8007 9.48492ZM-4.98908 -7.1008L-0.447746 -2.66147L2.90825 -5.76013L9.65025 -5.76013L9.65025 -13.4968L8.65025 -13.4968L8.65025 -6.76013L2.51692 -6.76013L-0.428413 -4.04013L-4.28975 -7.81547L-4.98908 -7.1008ZM5.36281 -9.66783L6.36281 -9.66783L6.36281 -12.8092L5.36281 -12.8092L5.36281 -9.66783ZM22.4242 -5.4309L18.8769 -8.7489L19.5602 -9.4789L21.4242 -7.73557L21.4242 -9.4049L18.8395 -11.9082L19.5355 -12.6269L22.4242 -9.82823L22.4242 -5.4309ZM2.34914 -9.66784L3.34914 -9.66784L3.34914 -11.7525L2.34914 -11.7525L2.34914 -9.66784ZM-0.365231 -5.83846L-3.12256 -8.4718L-2.4319 -9.19446L-0.37523 -7.23046L0.868771 -8.45113L-0.650563 -10.1971L0.104103 -10.8531L2.24077 -8.39646L-0.365231 -5.83846ZM6.32858 45.1316L5.32858 45.1316L5.32858 34.9683L30.9439 9.54095L30.9439 -8.56638L31.9439 -8.56638L31.9439 9.95762L6.32858 35.385L6.32858 45.1316ZM21.5417 -3.4316L18.925 -5.6376L19.5697 -6.4016L22.1864 -4.1956L21.5417 -3.4316ZM-12.4725 1.68732L12.4082 26.252L19.5135 19.0426L-6.01514 -6.21335L-6.7178 -5.50268L18.1009 19.0513L12.3982 24.8366L-11.7705 0.975316L-12.4725 1.68732ZM20.7219 22.834L25.3632 22.834L31.5185 16.4987L34.8652 16.4987L41.7899 9.80738L41.7899 3.08871L40.7899 3.08871L40.7899 9.38271L34.4612 15.4987L31.0959 15.4987L24.9405 21.834L23.1265 21.834L35.1632 9.73338L35.1632 -6.01929L34.1632 -6.01929L34.1632 9.32004L20.7219 22.834ZM15.3378 19.5716L-8.24557 -3.97843L-7.5389 -4.68577L16.0444 18.8642L15.3378 19.5716ZM9.65118 6.47857L8.65118 6.47857L8.65118 -2.6781L3.34984 -2.6781L3.34984 0.245903L2.34984 0.245903L2.34984 -3.6781L9.65118 -3.6781L9.65118 6.47857ZM21.5413 -0.247309L18.9127 -2.46331L19.5573 -3.22798L22.186 -1.01131L21.5413 -0.247309ZM-11.3224 -0.181266L12.2936 23.0287L14.8009 20.6647L-9.09505 -2.95727L-9.79772 -2.2466L13.3616 20.6481L12.3076 21.6407L-10.6217 -0.895266L-11.3224 -0.181266ZM35.0168 13.2793L34.3101 12.5713L37.3481 9.542L37.3481 -2.49534L38.3481 -2.49534L38.3481 9.95733L35.0168 13.2793ZM5.50002 3.46487L6.50002 3.46487L6.50002 -0.166468L5.50002 -0.166468L5.50002 3.46487ZM21.5411 3.04042L18.9158 0.827086L19.5605 0.0624199L22.1858 2.27642L21.5411 3.04042ZM18.8118 6.98441L15.1138 3.59374L15.7891 2.85708L19.4878 6.24774L18.8118 6.98441ZM-13.4714 3.59598L-4.64604 12.2113L-15.776 12.2113L-15.776 13.2113L-2.19071 13.2113L-12.7727 2.87932L-13.4714 3.59598ZM-14.6174 6.3134L-11.3021 9.50407L-15.3794 9.50407L-15.3794 10.5041L-8.82074 10.5041L-13.9241 5.5934L-14.6174 6.3134ZM19.6498 14.056L15.1051 9.69004L15.7978 8.96871L18.6498 11.7087L18.6498 9.81471L15.1131 6.56404L15.7898 5.82804L19.6498 9.37538L19.6498 14.056ZM27.8272 9.74953L28.8272 9.74953L28.8272 6.20487L27.8272 6.20487L27.8272 9.74953ZM24.6519 12.9249L25.6519 12.9249L25.6519 9.38086L24.6519 9.38086L24.6519 12.9249ZM18.3076 29.0134L30.6796 41.386L31.3869 40.6787L19.3076 28.5994L19.3076 25.9507L28.5336 25.9507L43.9816 10.6007L43.2769 9.89137L28.1216 24.9507L18.3076 24.9507L18.3076 29.0134ZM36.9817 19.5469L41.5457 19.5469L44.4997 16.6343L43.7984 15.9223L41.1364 18.5469L39.3304 18.5469L44.3924 13.2823L43.6717 12.5896L36.9817 19.5469ZM-16 16.4988L-16 15.4988L-0.210667 15.4988L3.64067 18.9968L3.64067 44.2261L2.64 44.2261L2.64 19.4395L-0.597333 16.4988L-16 16.4988ZM-15.8407 19.3757L-15.8407 18.3757L0.370003 18.3757L0.370003 22.7591L-3.15666 26.0117L-3.15666 29.2631L-9.316 35.0277L-9.99933 34.2971L-7.92381 32.3549L-11.5984 32.3549L-11.5984 31.3549L-6.85515 31.3549L-4.15666 28.8298L-4.15666 25.5737L-0.629997 22.3211L-0.629997 19.3757L-15.8407 19.3757ZM28.6923 22.8821L27.963 22.1974L31.2423 18.7041L31.9716 19.3895L28.6923 22.8821ZM34.2766 21.7316L40.8633 21.7316L43.6773 18.9756L44.3766 19.691L41.2713 22.7316L34.7073 22.7316L28.5426 29.2383L21.7699 29.2383L21.7699 28.2383L28.1126 28.2383L34.2766 21.7316ZM10.5846 27.2838L4.65995 21.5992L5.35195 20.8778L11.2766 26.5625L10.5846 27.2838ZM-15.4052 22.6975L-3.28124 22.6975L-3.28124 21.6975L-15.4052 21.6975L-15.4052 22.6975ZM8.80415 28.7221L4.66015 24.7501L5.35215 24.0287L9.49615 28.0007L8.80415 28.7221ZM38.2191 29.2448L37.4778 28.5741L40.8451 24.8481L42.8631 24.8481L42.8631 25.8481L41.2891 25.8481L38.2191 29.2448ZM31.8146 29.2448L31.0726 28.5741L34.2919 25.0121L35.0339 25.6828L31.8146 29.2448ZM34.9996 29.2448L34.2576 28.5741L37.477 25.0121L38.219 25.6828L34.9996 29.2448ZM-10.4234 29.2383L-6.03338 29.2383L-6.03338 25.211L-7.03338 25.211L-7.03338 28.2383L-9.42338 28.2383L-9.42338 25.0443L-13.7801 25.0443L-13.7801 28.487L-12.7801 28.487L-12.7801 26.0443L-10.4234 26.0443L-10.4234 29.2383ZM-7.83007 36.7916L-8.52074 36.0676L-0.832737 28.729L-0.832737 25.211L0.167263 25.211L0.167263 29.1576L-7.83007 36.7916ZM5.12356 32.4022L6.12356 32.4022L6.12356 27.6762L5.12356 27.6762L5.12356 32.4022ZM28.8306 42.5853L15.0986 28.8866L15.8046 28.1786L29.5372 41.8773L28.8306 42.5853ZM-5.12685 39.2939L-4.41952 40.0013L0.163815 35.4179L0.163815 30.8706L-6.86885 37.7626L-6.16952 38.4773L-0.836185 33.2506L-0.836185 35.0039L-5.12685 39.2939ZM8.65061 34.9316L8.65061 45.8023L9.65061 45.8023L9.65061 35.3523L11.8013 33.2483L11.8013 46.2723L12.8006 46.2723L12.8006 30.8716L8.65061 34.9316ZM27.9646 36.237L27.9646 32.355L24.9033 32.355L24.9033 31.355L28.9646 31.355L28.9646 33.841L31.3319 31.4997L32.0353 32.2103L27.9646 36.237ZM32.0452 33.7232L35.9098 37.0945L36.5672 36.3405L33.5172 33.6805L34.8678 32.3552L39.7352 32.3552L39.7352 31.3552L34.4592 31.3552L32.0452 33.7232ZM26.743 43.6139L15.0996 32.1073L15.803 31.3966L27.4463 42.9033L26.743 43.6139ZM29.0686 36.6207L32.3452 40.1401L33.0772 39.4594L30.4725 36.6607L31.4399 35.7354L34.3139 38.5474L35.0126 37.8327L31.4479 34.3434L29.0686 36.6207ZM15.1224 46.2722L16.1218 46.2722L16.1218 34.8335L15.1224 34.8335L15.1224 46.2722ZM0.167271 42.5996L-0.83273 42.5996L-0.83273 39.3176L-2.69473 41.303L-3.42406 40.619L0.167271 36.789L0.167271 42.5996ZM18.1359 45.92L19.1359 45.92L19.1359 39.5273L24.5586 44.682L25.2479 43.9566L18.1359 37.196L18.1359 45.92Z" opacity="0.100000001" fill="rgb(185,103,185)" fill-rule="evenodd" />
	</g>
	<rect id="蒙版" width="32.000000" height="32.000000" x="0.000000" y="0.000000" rx="2.666667" fill="rgb(255,255,255)" fill-opacity="0" />
	<rect id="蒙版" width="31.333334" height="31.333334" x="0.333333" y="0.333333" rx="2.333333" stroke="rgb(248,239,248)" stroke-width="0.666666687" />
	<g id="编组 5">
		<path id="Fill 40" d="M27.6646 5.33337L26.9146 10.6667L5.59229 10.6667L6.34229 5.33337L27.6646 5.33337Z" fill="url(#paint_linear_336)" fill-rule="evenodd" />
		<path id="Fill 42" d="M19.3379 26.6667L20.0879 21.3334L25.4259 21.3334L24.6759 26.6667L19.3379 26.6667Z" fill="rgb(184,97,255)" fill-rule="evenodd" />
		<path id="Fill 44" d="M4.45752 18.6627L5.20752 13.3293L26.5519 13.3293L25.8022 18.6627L4.45752 18.6627Z" fill="url(#paint_linear_337)" fill-rule="evenodd" />
		<path id="Fill 46" d="M3.34766 26.6667L4.09766 21.3334L17.4317 21.3334L16.6823 26.6667L3.34766 26.6667Z" fill="rgb(184,97,255)" fill-rule="evenodd" />
		<path id="Fill 48" d="M25.8025 18.6627L27.6685 5.33337L22.3415 5.33337L20.4648 18.6627L25.8025 18.6627Z" opacity="0.600000024" fill="url(#paint_linear_338)" fill-rule="evenodd" />
		<path id="Fill 50" d="M8.67316 26.6667L10.5348 13.3293L5.20783 13.3293L3.3335 26.6583L8.67316 26.6667Z" fill="url(#paint_linear_339)" style="mix-blend-mode:multiply" fill-rule="evenodd" />
		<path id="路径" d="M4.45752 18.6627L9.80553 18.6627L9.30175 22.1975L4.45752 18.6627Z" fill="url(#paint_linear_340)" fill-rule="evenodd" />
		<path id="路径" d="M8.79543 18.6627L4.45752 18.6627L8.3868 21.5299L9.30175 22.1975L9.46156 21.0762L9.66301 19.6627L9.80553 18.6627L8.79543 18.6627ZM8.65291 19.6627L7.52446 19.6627L8.54661 20.4086L8.65291 19.6627Z" fill="rgb(151,151,151)" fill-opacity="0" fill-rule="evenodd" />
		<path id="路径 2" d="M5.59229 10.6667C5.59229 10.6667 8.78379 7.65551 15.3331 6.74177C21.8825 5.82804 27.6683 5.39197 27.6683 5.39197L6.45645 5.33337L5.59229 10.6667Z" fill="url(#paint_linear_341)" fill-rule="evenodd" />
		<path id="路径 2" d="M18.187 6.36578C17.2636 6.48065 16.3068 6.60593 15.3331 6.74177C11.0508 7.33922 8.20407 8.83339 6.74638 9.7962C5.97468 10.3059 5.59229 10.6667 5.59229 10.6667L5.82795 9.21229L6.45645 5.33337L27.6683 5.39197C27.6683 5.39197 23.4749 5.70802 18.187 6.36578ZM7.30708 6.33573L6.95841 8.4876Q7.23815 8.32434 7.53405 8.16564Q9.02252 7.36731 10.729 6.79279Q11.4551 6.54835 12.2072 6.34926L7.30708 6.33573Z" fill="rgb(151,151,151)" fill-opacity="0" fill-rule="evenodd" />
		<path id="路径 3" d="M21.2732 13.335L20.465 18.6627C20.465 18.6627 19.0655 16.2853 16.6306 14.9534C14.1958 13.6215 7.43408 13.2793 7.43408 13.2793L21.2732 13.335Z" fill="url(#paint_linear_342)" fill-rule="evenodd" />
		<path id="路径 3" d="M20.683 17.2258L21.1216 14.3344L21.2732 13.335L20.2624 13.3309L7.43408 13.2793C7.43408 13.2793 11.9165 13.5061 14.8964 14.3093C15.5765 14.4926 16.1782 14.7059 16.6306 14.9534C17.9568 15.6788 18.9758 16.7144 19.6288 17.5071C20.1748 18.1698 20.465 18.6627 20.465 18.6627L20.683 17.2258ZM19.8247 16.2162L20.1108 14.3303L17.5307 14.3199Q18.7468 15.0669 19.8247 16.2162Z" fill="url(#paint_linear_343)" fill-opacity="0" fill-rule="evenodd" />
	</g>
	<path id="形状结合" d="M8.6263 26.6706L3.33276 26.6624L4.0816 21.3373L9.401 21.3373L8.65655 26.6706L8.6263 26.6706Z" fill="url(#paint_linear_344)" fill-rule="evenodd" />
	<path id="形状结合" d="M8.6263 26.6706L3.33276 26.6624L4.0816 21.3373L9.401 21.3373L8.65655 26.6706L8.6263 26.6706ZM4.48298 25.6641L7.78663 25.6693L8.25172 22.3373L4.95082 22.3373L4.48298 25.6641Z" fill="rgb(151,151,151)" fill-opacity="0" fill-rule="evenodd" />
	<path id="路径 22" d="M21.5264 21.3334L0.198167 21.3334L3.82386e-14 22.6935C3.82386e-14 22.6935 6.21447 23.3096 10.9014 24.0769C15.5883 24.8442 20.7593 26.6667 20.7593 26.6667L21.5264 21.3334Z" opacity="0.600000024" fill="url(#paint_linear_345)" fill-rule="evenodd" />
	<path id="路径 22" d="M0.144325 21.7029L0.198167 21.3334L21.5264 21.3334L21.3826 22.3334L20.9043 25.6585L20.7593 26.6667C20.7593 26.6667 20.4041 26.5415 19.7956 26.343C18.0821 25.7839 14.36 24.6431 10.9014 24.0769C7.35689 23.4967 2.93877 23.0028 0.995539 22.7966C0.369219 22.7301 3.82386e-14 22.6935 3.82386e-14 22.6935L0.144325 21.7029ZM5.70842 22.3334Q8.78689 22.7174 11.063 23.09Q14.0532 23.5796 17.8697 24.7Q18.9279 25.0107 19.9401 25.3384L20.3723 22.3334L5.70842 22.3334Z" opacity="0.600000024" fill="rgb(151,151,151)" fill-opacity="0" fill-rule="evenodd" />
</svg>
