<svg viewBox="0 0 32 32" xmlns="http://www.w3.org/2000/svg" xmlns:xlink="http://www.w3.org/1999/xlink" width="32.000000" height="32.000000" fill="none" customFrame="#000000">
	<defs>
		<filter id="pixso_custom_mask_type_outline">
			<feColorMatrix type="matrix" values="0 0 0 0 1 0 0 0 0 1 0 0 0 0 1 0 0 0 1 0 " />
		</filter>
		<linearGradient id="paint_linear_325" x1="10.4492188" x2="18.5455513" y1="13.3293457" y2="18.6666794" gradientUnits="userSpaceOnUse">
			<stop stop-color="rgb(162,214,255)" offset="0" stop-opacity="1" />
			<stop stop-color="rgb(0,250,249)" offset="1" stop-opacity="1" />
		</linearGradient>
		<linearGradient id="paint_linear_326" x1="25.4360924" x2="0.3966465" y1="7.11745453" y2="5.33337784" gradientUnits="userSpaceOnUse">
			<stop stop-color="rgb(43,184,255)" offset="0" stop-opacity="1" />
			<stop stop-color="rgb(249,252,255)" offset="1" stop-opacity="1" />
		</linearGradient>
		<linearGradient id="paint_linear_327" x1="7.18637466" x2="32.2331123" y1="22.7376366" y2="26.6667061" gradientUnits="userSpaceOnUse">
			<stop stop-color="rgb(75,211,255)" offset="0" stop-opacity="1" />
			<stop stop-color="rgb(68,159,248)" offset="1" stop-opacity="1" />
		</linearGradient>
		<linearGradient id="paint_linear_328" x1="18.98423" x2="26.9341087" y1="4.17304707" y2="15.6507931" gradientUnits="userSpaceOnUse">
			<stop stop-color="rgb(249,252,255)" offset="0" stop-opacity="1" />
			<stop stop-color="rgb(43,184,255)" offset="1" stop-opacity="1" />
		</linearGradient>
		<linearGradient id="paint_linear_329" x1="18.1924267" x2="25.9868355" y1="27.4168472" y2="20.1266136" gradientUnits="userSpaceOnUse">
			<stop stop-color="rgb(68,159,248)" offset="0" stop-opacity="1" />
			<stop stop-color="rgb(75,211,255)" offset="1" stop-opacity="1" />
		</linearGradient>
		<linearGradient id="paint_linear_330" x1="26.6345367" x2="20.3605499" y1="10.666748" y2="13.0445089" gradientUnits="userSpaceOnUse">
			<stop stop-color="rgb(10,11,35)" offset="0" stop-opacity="1" />
			<stop stop-color="rgb(46,153,255)" offset="1" stop-opacity="0" />
		</linearGradient>
		<linearGradient id="paint_linear_331" x1="26.9423027" x2="21.8749046" y1="12.0393839" y2="13.8469381" gradientUnits="userSpaceOnUse">
			<stop stop-color="rgb(37,43,58)" offset="0" stop-opacity="1" />
			<stop stop-color="rgb(37,43,58)" offset="1" stop-opacity="1" />
		</linearGradient>
		<linearGradient id="paint_linear_332" x1="20.6085548" x2="14.1436672" y1="26.0077553" y2="21.333252" gradientUnits="userSpaceOnUse">
			<stop stop-color="rgb(10,11,35)" offset="0" stop-opacity="1" />
			<stop stop-color="rgb(46,153,255)" offset="1" stop-opacity="0" />
		</linearGradient>
		<linearGradient id="paint_linear_333" x1="20.1033516" x2="11.1986885" y1="23.4932327" y2="26.3376045" gradientUnits="userSpaceOnUse">
			<stop stop-color="rgb(37,43,58)" offset="0" stop-opacity="1" />
			<stop stop-color="rgb(37,43,58)" offset="1" stop-opacity="1" />
		</linearGradient>
		<linearGradient id="paint_linear_334" x1="27.674181" x2="-1.55413246" y1="6.6893158" y2="7.45654535" gradientUnits="userSpaceOnUse">
			<stop stop-color="rgb(255,255,255)" offset="0" stop-opacity="1" />
			<stop stop-color="rgb(255,255,255)" offset="1" stop-opacity="0" />
		</linearGradient>
		<linearGradient id="paint_linear_335" x1="5.21938658" x2="1.65470624" y1="15.0082245" y2="27.20788" gradientUnits="userSpaceOnUse">
			<stop stop-color="rgb(255,255,255)" offset="0" stop-opacity="1" />
			<stop stop-color="rgb(255,255,255)" offset="1" stop-opacity="0" />
		</linearGradient>
	</defs>
	<mask id="mask_141" width="32.000000" height="32.000000" x="0.000000" y="0.000000" maskUnits="userSpaceOnUse">
		<g filter="url(#pixso_custom_mask_type_outline)">
			<rect id="蒙版" width="32.000000" height="32.000000" x="0.000000" y="0.000000" rx="2.666667" fill="rgb(255,255,255)" />
			<rect id="蒙版" width="31.000000" height="31.000000" x="0.500000" y="0.500000" rx="2.166667" stroke="rgb(236,242,244)" stroke-opacity="0" stroke-width="1" />
		</g>
	</mask>
	<rect id="工程首字母图标/3-32x33" width="32.000000" height="32.000000" x="0.000000" y="0.000000" />
	<rect id="矩形" width="32.000000" height="32.000000" x="0.000000" y="0.000000" rx="2.666667" fill="rgb(255,255,255)" />
	<rect id="矩形" width="31.000000" height="31.000000" x="0.500000" y="0.500000" rx="2.166667" stroke="rgb(151,151,151)" stroke-opacity="0" stroke-width="1" />
	<g id="形状" showMaskRef="url(#show_mask_122)" mask="url(#mask_141)">
		<g id="show_mask_122">
			<rect id="蒙版" width="32.000000" height="32.000000" x="0.000000" y="0.000000" rx="2.666667" fill="rgb(255,255,255)" />
			<rect id="蒙版" width="31.000000" height="31.000000" x="0.500000" y="0.500000" rx="2.166667" stroke="rgb(236,242,244)" stroke-opacity="0" stroke-width="1" />
		</g>
		<path id="形状结合" d="M16.2846 0.46909L16.2846 -14.0002L17.284 -14.0002L17.284 0.0230894L23.2266 5.34576L25.942 2.46042L25.942 -9.40558L22.5713 -12.6869L23.27 -13.4036L26.942 -9.82758L26.942 2.85642L23.2866 6.74176L16.2846 0.46909ZM13.1337 9.48492L13.1337 -13.8491L14.133 -13.8491L14.133 9.08892L20.151 15.4989L22.7223 15.4989L22.7223 9.85759L29.1603 3.06092L29.1603 -10.4857L30.1603 -10.4857L30.1603 3.45892L23.7217 10.2563L23.7217 16.4989L19.7183 16.4989L13.1337 9.48492ZM-3.65558 -7.1008L0.88575 -2.66147L4.24175 -5.76013L10.9837 -5.76013L10.9837 -13.4968L9.98375 -13.4968L9.98375 -6.76013L3.85042 -6.76013L0.905083 -4.04013L-2.95625 -7.81547L-3.65558 -7.1008ZM6.69582 -9.66783L7.69582 -9.66783L7.69582 -12.8092L6.69582 -12.8092L6.69582 -9.66783ZM23.7572 -5.4309L20.2099 -8.7489L20.8932 -9.4789L22.7572 -7.73557L22.7572 -9.4049L20.1725 -11.9082L20.8685 -12.6269L23.7572 -9.82823L23.7572 -5.4309ZM3.68264 -9.66784L4.68264 -9.66784L4.68264 -11.7525L3.68264 -11.7525L3.68264 -9.66784ZM0.968266 -5.83846L-1.78907 -8.4718L-1.0984 -9.19446L0.958266 -7.23046L2.20227 -8.45113L0.682933 -10.1971L1.4376 -10.8531L3.57427 -8.39646L0.968266 -5.83846ZM7.6611 45.1316L6.6611 45.1316L6.6611 34.9683L32.2764 9.54095L32.2764 -8.56638L33.2764 -8.56638L33.2764 9.95762L7.6611 35.385L7.6611 45.1316ZM22.8752 -3.4316L20.2585 -5.6376L20.9032 -6.4016L23.5198 -4.1956L22.8752 -3.4316ZM-11.139 1.68732L13.7417 26.252L20.847 19.0426L-4.68164 -6.21335L-5.38431 -5.50268L19.4344 19.0513L13.7317 24.8366L-10.437 0.975316L-11.139 1.68732ZM22.0549 22.834L26.6962 22.834L32.8516 16.4987L36.1982 16.4987L43.1229 9.80738L43.1229 3.08871L42.1229 3.08871L42.1229 9.38271L35.7942 15.4987L32.4289 15.4987L26.2736 21.834L24.4596 21.834L36.4962 9.73338L36.4962 -6.01929L35.4962 -6.01929L35.4962 9.32004L22.0549 22.834ZM16.6713 19.5716L-6.91207 -3.97843L-6.2054 -4.68577L17.3779 18.8642L16.6713 19.5716ZM10.9842 6.47857L9.98418 6.47857L9.98418 -2.6781L4.68285 -2.6781L4.68285 0.245903L3.68285 0.245903L3.68285 -3.6781L10.9842 -3.6781L10.9842 6.47857ZM22.8748 -0.247309L20.2462 -2.46331L20.8908 -3.22798L23.5195 -1.01131L22.8748 -0.247309ZM-9.98987 -0.181266L13.6261 23.0287L16.1335 20.6647L-7.76254 -2.95727L-8.4652 -2.2466L14.6941 20.6481L13.6401 21.6407L-9.2892 -0.895266L-9.98987 -0.181266ZM36.3498 13.2793L35.6431 12.5713L38.6811 9.542L38.6811 -2.49534L39.6811 -2.49534L39.6811 9.95733L36.3498 13.2793ZM6.83352 3.46487L7.83352 3.46487L7.83352 -0.166468L6.83352 -0.166468L6.83352 3.46487ZM22.8741 3.04042L20.2488 0.827086L20.8935 0.0624199L23.5188 2.27642L22.8741 3.04042ZM20.1453 6.98441L16.4473 3.59374L17.1226 2.85708L20.8213 6.24774L20.1453 6.98441ZM-12.1384 3.59598L-3.31304 12.2113L-14.443 12.2113L-14.443 13.2113L-0.857703 13.2113L-11.4397 2.87932L-12.1384 3.59598ZM-13.2849 6.3134L-9.96956 9.50407L-14.0469 9.50407L-14.0469 10.5041L-7.48822 10.5041L-12.5916 5.5934L-13.2849 6.3134ZM20.9833 14.056L16.4386 9.69004L17.1313 8.96871L19.9833 11.7087L19.9833 9.81471L16.4466 6.56404L17.1233 5.82804L20.9833 9.37538L20.9833 14.056ZM29.1607 9.74953L30.1607 9.74953L30.1607 6.20487L29.1607 6.20487L29.1607 9.74953ZM25.9854 12.9249L26.9854 12.9249L26.9854 9.38086L25.9854 9.38086L25.9854 12.9249ZM19.6401 29.0134L32.0121 41.386L32.7194 40.6787L20.6401 28.5994L20.6401 25.9507L29.8661 25.9507L45.3141 10.6007L44.6094 9.89137L29.4541 24.9507L19.6401 24.9507L19.6401 29.0134ZM38.3143 19.5469L42.8783 19.5469L45.8323 16.6343L45.1309 15.9223L42.4689 18.5469L40.6629 18.5469L45.7249 13.2823L45.0043 12.5896L38.3143 19.5469ZM-14.6665 16.4988L-14.6665 15.4988L1.12283 15.4988L4.97416 18.9968L4.97416 44.2261L3.9735 44.2261L3.9735 19.4395L0.736163 16.4988L-14.6665 16.4988ZM-14.5077 19.3757L-14.5077 18.3757L1.70301 18.3757L1.70301 22.7591L-1.82366 26.0117L-1.82366 29.2631L-7.98299 35.0277L-8.66632 34.2971L-6.5908 32.3549L-10.2644 32.3549L-10.2644 31.3549L-5.52215 31.3549L-2.82366 28.8298L-2.82366 25.5737L0.703011 22.3211L0.703011 19.3757L-14.5077 19.3757ZM30.0253 22.8821L29.296 22.1974L32.5753 18.7041L33.3046 19.3895L30.0253 22.8821ZM35.6091 21.7316L42.1958 21.7316L45.0098 18.9756L45.7091 19.691L42.6038 22.7316L36.0398 22.7316L29.8751 29.2383L23.1024 29.2383L23.1024 28.2383L29.4451 28.2383L35.6091 21.7316ZM11.9176 27.2838L5.99296 21.5992L6.68496 20.8778L12.6096 26.5625L11.9176 27.2838ZM-14.0717 22.6975L-1.94775 22.6975L-1.94775 21.6975L-14.0717 21.6975L-14.0717 22.6975ZM10.1372 28.7221L5.99315 24.7501L6.68515 24.0287L10.8292 28.0007L10.1372 28.7221ZM39.5521 29.2448L38.8108 28.5741L42.1781 24.8481L44.1961 24.8481L44.1961 25.8481L42.6221 25.8481L39.5521 29.2448ZM33.1476 29.2448L32.4056 28.5741L35.6249 25.0121L36.3669 25.6828L33.1476 29.2448ZM36.3322 29.2448L35.5902 28.5741L38.8095 25.0121L39.5515 25.6828L36.3322 29.2448ZM-9.09086 29.2383L-4.70086 29.2383L-4.70086 25.211L-5.70086 25.211L-5.70086 28.2383L-8.09086 28.2383L-8.09086 25.0443L-12.4475 25.0443L-12.4475 28.487L-11.4475 28.487L-11.4475 26.0443L-9.09086 26.0443L-9.09086 29.2383ZM-6.49706 36.7916L-7.18773 36.0676L0.500271 28.729L0.500271 25.211L1.50027 25.211L1.50027 29.1576L-6.49706 36.7916ZM6.45656 32.4022L7.45656 32.4022L7.45656 27.6762L6.45656 27.6762L6.45656 32.4022ZM30.1631 42.5853L16.4311 28.8866L17.1371 28.1786L30.8697 41.8773L30.1631 42.5853ZM-3.79384 39.2939L-3.08651 40.0013L1.49682 35.4179L1.49682 30.8706L-5.53584 37.7626L-4.83651 38.4773L0.496822 33.2506L0.496822 35.0039L-3.79384 39.2939ZM9.9841 34.9316L9.9841 45.8023L10.9841 45.8023L10.9841 35.3523L13.1348 33.2483L13.1348 46.2723L14.1341 46.2723L14.1341 30.8716L9.9841 34.9316ZM29.2971 36.237L29.2971 32.355L26.2358 32.355L26.2358 31.355L30.2971 31.355L30.2971 33.841L32.6644 31.4997L33.3678 32.2103L29.2971 36.237ZM33.3791 33.7232L37.2438 37.0945L37.9011 36.3405L34.8511 33.6805L36.2018 32.3552L41.0691 32.3552L41.0691 31.3552L35.7931 31.3552L33.3791 33.7232ZM28.0765 43.6139L16.4331 32.1073L17.1365 31.3966L28.7798 42.9033L28.0765 43.6139ZM30.402 36.6207L33.6787 40.1401L34.4107 39.4594L31.806 36.6607L32.7734 35.7354L35.6474 38.5474L36.346 37.8327L32.7814 34.3434L30.402 36.6207ZM16.4554 46.2722L17.4548 46.2722L17.4548 34.8335L16.4554 34.8335L16.4554 46.2722ZM1.49979 42.5996L0.499789 42.5996L0.499789 39.3176L-1.36221 41.303L-2.09154 40.619L1.49979 36.789L1.49979 42.5996ZM19.4694 45.92L20.4694 45.92L20.4694 39.5273L25.8921 44.682L26.5814 43.9566L19.4694 37.196L19.4694 45.92Z" opacity="0.100000001" fill="rgb(123,176,202)" fill-rule="evenodd" />
	</g>
	<rect id="蒙版" width="32.000000" height="32.000000" x="0.000000" y="0.000000" rx="2.666667" fill="rgb(255,255,255)" fill-opacity="0" />
	<rect id="蒙版" width="31.333334" height="31.333334" x="0.333333" y="0.333333" rx="2.333333" stroke="rgb(241,247,249)" stroke-width="0.666666687" />
	<g id="编组 6">
		<path id="Fill 52" d="M18.5456 13.3333L17.7956 18.6667L10.4492 18.6627L11.1992 13.3293L18.5456 13.3333Z" fill="url(#paint_linear_325)" fill-rule="evenodd" />
		<path id="Fill 54" d="M27.6651 5.33337L26.9151 10.6667L5.59277 10.6667L6.34277 5.33337L27.6651 5.33337Z" fill="url(#paint_linear_326)" style="mix-blend-mode:multiply" fill-rule="evenodd" />
		<path id="Fill 56" d="M3.3335 26.6667L4.0835 21.3334L25.4262 21.3334L24.6762 26.6667L3.3335 26.6667Z" fill="url(#paint_linear_327)" style="mix-blend-mode:multiply" fill-rule="evenodd" />
		<path id="Fill 58" d="M26.3623 14.6627L27.6743 5.33337L22.3473 5.33337L21.0356 14.6627L26.3623 14.6627Z" fill="url(#paint_linear_328)" style="mix-blend-mode:multiply" fill-rule="evenodd" />
		<path id="Fill 60" d="M20.6602 17.3293L19.3472 26.6667L24.6742 26.6667L25.9868 17.3293L20.6602 17.3293Z" fill="url(#paint_linear_329)" style="mix-blend-mode:multiply" fill-rule="evenodd" />
		<path id="路径" d="M26.9423 10.6667L21.6136 10.6667L21.1836 14.056C21.1836 14.056 22.2114 12.8473 23.6511 12C25.0908 11.1527 26.9423 10.6667 26.9423 10.6667Z" fill="url(#paint_linear_330)" fill-rule="evenodd" />
		<path id="路径" d="M21.389 12.4372L21.6136 10.6667L26.9423 10.6667C26.9423 10.6667 25.5715 11.0265 24.2717 11.6667C24.0609 11.7706 23.852 11.8818 23.6511 12C23.1542 12.2924 22.7064 12.6279 22.333 12.9419C21.6244 13.5377 21.1836 14.056 21.1836 14.056L21.389 12.4372Z" fill="url(#paint_linear_331)" fill-opacity="0" fill-rule="evenodd" />
		<path id="路径 2" d="M20.1034 21.3333L19.3475 26.6666C19.3475 26.6666 18.8593 24.6418 16.4319 23.2592C14.0045 21.8766 9.98389 21.3333 9.98389 21.3333L20.1034 21.3333Z" fill="url(#paint_linear_332)" fill-rule="evenodd" />
		<path id="路径 2" d="M19.601 24.8775L19.9616 22.3333L20.1034 21.3333L14.4413 21.3333L9.98389 21.3333C9.98389 21.3333 12.1599 21.6273 14.2768 22.3333C15.0374 22.5869 15.7903 22.8938 16.4319 23.2592C17.4397 23.8332 18.1132 24.5179 18.5563 25.1225C19.1805 25.9741 19.3475 26.6666 19.3475 26.6666L19.601 24.8775ZM18.7444 23.7957L18.9516 22.3333L16.8253 22.3333Q16.8766 22.3617 16.9268 22.3903Q17.8766 22.9312 18.616 23.6652Q18.6811 23.7299 18.7444 23.7957Z" fill="url(#paint_linear_333)" fill-opacity="0" fill-rule="evenodd" />
		<path id="路径 3" d="M27.6742 5.33337C27.6742 5.33337 18.8528 5.9453 14.4973 6.47857C10.1417 7.01185 5.99365 8.04531 5.99365 8.04531L6.34259 5.33337L27.6742 5.33337Z" fill="url(#paint_linear_334)" fill-rule="evenodd" />
		<path id="路径 3" d="M15.7703 6.33337C15.3163 6.38208 14.8887 6.43064 14.4973 6.47857C11.4659 6.84971 8.53516 7.46312 7.03323 7.80182C6.37709 7.94978 5.99365 8.04531 5.99365 8.04531L6.13037 6.98273L6.34259 5.33337L27.6742 5.33337C27.6742 5.33337 20.3673 5.84024 15.7703 6.33337ZM7.22216 6.33337L7.16912 6.74561Q7.74357 6.61951 8.41299 6.48194Q8.78499 6.4055 9.15104 6.33337L7.22216 6.33337Z" fill="rgb(151,151,151)" fill-opacity="0" fill-rule="evenodd" />
	</g>
	<path id="路径 28" d="M4.33767 17.3334L0 26.6708L3.02663 26.6707L4.33767 17.3334Z" fill="url(#paint_linear_335)" fill-rule="evenodd" />
	<path id="路径 28" d="M1.10265 26.6707L0 26.6708L0.464552 25.6708L4.33767 17.3334L3.86004 20.7351L3.02663 26.6707L1.10265 26.6707ZM1.5672 25.6707L2.15723 25.6707L2.41281 23.8505L1.5672 25.6707Z" fill="rgb(151,151,151)" fill-opacity="0" fill-rule="evenodd" />
</svg>
