<svg viewBox="0 0 32 32" xmlns="http://www.w3.org/2000/svg" xmlns:xlink="http://www.w3.org/1999/xlink" width="32.000000" height="32.000000" fill="none" customFrame="#000000">
	<mask id="mask_128" width="8.386666" height="21.333334" x="5.333496" y="5.333374" maskUnits="userSpaceOnUse">
		<g filter="url(#pixso_custom_mask_type_outline)">
			<path id="蒙版" d="M13.7202 5.33337L10.7202 26.6667L5.3335 26.6667L8.3335 5.33337L13.7202 5.33337Z" fill="rgb(255,255,255)" fill-rule="evenodd" />
		</g>
	</mask>
	<defs>
		<filter id="pixso_custom_mask_type_outline">
			<feColorMatrix type="matrix" values="0 0 0 0 1 0 0 0 0 1 0 0 0 0 1 0 0 0 1 0 " />
		</filter>
		<linearGradient id="paint_linear_255" x1="10.7237587" x2="9.52682781" y1="9.33705902" y2="23.3298569" gradientUnits="userSpaceOnUse">
			<stop stop-color="rgb(54,176,255)" offset="0" stop-opacity="1" />
			<stop stop-color="rgb(122,209,255)" offset="1" stop-opacity="1" />
		</linearGradient>
		<linearGradient id="paint_linear_256" x1="12.6080151" x2="6.6562705" y1="15.5029554" y2="11.8857117" gradientUnits="userSpaceOnUse">
			<stop stop-color="rgb(46,153,255)" offset="0" stop-opacity="0" />
			<stop stop-color="rgb(10,11,35)" offset="1" stop-opacity="1" />
		</linearGradient>
		<linearGradient id="paint_linear_257" x1="13.1344957" x2="8.24987221" y1="13.0944662" y2="16.291563" gradientUnits="userSpaceOnUse">
			<stop stop-color="rgb(37,43,58)" offset="0" stop-opacity="1" />
			<stop stop-color="rgb(37,43,58)" offset="1" stop-opacity="1" />
		</linearGradient>
		<linearGradient id="paint_linear_258" x1="15.0594339" x2="4.42649746" y1="20.498745" y2="17.8926964" gradientUnits="userSpaceOnUse">
			<stop stop-color="rgb(46,153,255)" offset="0" stop-opacity="0" />
			<stop stop-color="rgb(10,11,35)" offset="1" stop-opacity="1" />
		</linearGradient>
		<linearGradient id="paint_linear_259" x1="16.0000076" x2="7.27350426" y1="18.7635498" y2="21.0669022" gradientUnits="userSpaceOnUse">
			<stop stop-color="rgb(37,43,58)" offset="0" stop-opacity="1" />
			<stop stop-color="rgb(37,43,58)" offset="1" stop-opacity="1" />
		</linearGradient>
		<linearGradient id="paint_linear_260" x1="16.8163624" x2="7.58349609" y1="7.11745358" y2="8.87907791" gradientUnits="userSpaceOnUse">
			<stop stop-color="rgb(43,184,255)" offset="0" stop-opacity="1" />
			<stop stop-color="rgb(249,252,255)" offset="1" stop-opacity="1" />
		</linearGradient>
		<linearGradient id="paint_linear_261" x1="7.12454319" x2="18.7677727" y1="22.7376404" y2="26.666708" gradientUnits="userSpaceOnUse">
			<stop stop-color="rgb(68,159,248)" offset="0" stop-opacity="1" />
			<stop stop-color="rgb(75,211,255)" offset="1" stop-opacity="1" />
		</linearGradient>
	</defs>
	<mask id="mask_127" width="32.000000" height="32.000000" x="0.000000" y="0.000000" maskUnits="userSpaceOnUse">
		<g filter="url(#pixso_custom_mask_type_outline)">
			<rect id="蒙版" width="32.000000" height="32.000000" x="0.000000" y="0.000000" rx="2.666667" fill="rgb(255,255,255)" />
			<rect id="蒙版" width="31.000000" height="31.000000" x="0.500000" y="0.500000" rx="2.166667" stroke="rgb(236,242,244)" stroke-opacity="0" stroke-width="1" />
		</g>
	</mask>
	<rect id="工程首字母图标/C-32x33" width="32.000000" height="32.000000" x="0.000000" y="0.000000" />
	<rect id="矩形" width="32.000000" height="32.000000" x="0.000000" y="0.000000" rx="2.666667" fill="rgb(255,255,255)" />
	<rect id="矩形" width="31.000000" height="31.000000" x="0.500000" y="0.500000" rx="2.166667" stroke="rgb(151,151,151)" stroke-opacity="0" stroke-width="1" />
	<g id="形状" showMaskRef="url(#show_mask_109)" mask="url(#mask_127)">
		<g id="show_mask_109">
			<rect id="蒙版" width="32.000000" height="32.000000" x="0.000000" y="0.000000" rx="2.666667" fill="rgb(255,255,255)" />
			<rect id="蒙版" width="31.000000" height="31.000000" x="0.500000" y="0.500000" rx="2.166667" stroke="rgb(236,242,244)" stroke-opacity="0" stroke-width="1" />
		</g>
		<path id="形状结合" d="M16.2851 0.46909L16.2851 -14.0002L17.2845 -14.0002L17.2845 0.0230894L23.2271 5.34576L25.9425 2.46042L25.9425 -9.40558L22.5718 -12.6869L23.2705 -13.4036L26.9425 -9.82758L26.9425 2.85642L23.2871 6.74176L16.2851 0.46909ZM13.1332 9.48492L13.1332 -13.8491L14.1325 -13.8491L14.1325 9.08892L20.1505 15.4989L22.7218 15.4989L22.7218 9.85759L29.1598 3.06092L29.1598 -10.4857L30.1598 -10.4857L30.1598 3.45892L23.7212 10.2563L23.7212 16.4989L19.7178 16.4989L13.1332 9.48492ZM-3.65558 -7.1008L0.88575 -2.66147L4.24175 -5.76013L10.9837 -5.76013L10.9837 -13.4968L9.98375 -13.4968L9.98375 -6.76013L3.85042 -6.76013L0.905083 -4.04013L-2.95625 -7.81547L-3.65558 -7.1008ZM6.69582 -9.66783L7.69582 -9.66783L7.69582 -12.8092L6.69582 -12.8092L6.69582 -9.66783ZM23.7572 -5.4309L20.2099 -8.7489L20.8932 -9.4789L22.7572 -7.73557L22.7572 -9.4049L20.1725 -11.9082L20.8685 -12.6269L23.7572 -9.82823L23.7572 -5.4309ZM3.68264 -9.66784L4.68264 -9.66784L4.68264 -11.7525L3.68264 -11.7525L3.68264 -9.66784ZM0.968266 -5.83846L-1.78907 -8.4718L-1.0984 -9.19446L0.958266 -7.23046L2.20227 -8.45113L0.682933 -10.1971L1.4376 -10.8531L3.57427 -8.39646L0.968266 -5.83846ZM7.6611 45.1316L6.6611 45.1316L6.6611 34.9683L32.2764 9.54095L32.2764 -8.56638L33.2764 -8.56638L33.2764 9.95762L7.6611 35.385L7.6611 45.1316ZM22.8757 -3.4316L20.259 -5.6376L20.9037 -6.4016L23.5203 -4.1956L22.8757 -3.4316ZM-11.139 1.68732L13.7417 26.252L20.847 19.0426L-4.68164 -6.21335L-5.38431 -5.50268L19.4344 19.0513L13.7317 24.8366L-10.437 0.975316L-11.139 1.68732ZM22.0549 22.834L26.6962 22.834L32.8516 16.4987L36.1982 16.4987L43.1229 9.80738L43.1229 3.08871L42.1229 3.08871L42.1229 9.38271L35.7942 15.4987L32.4289 15.4987L26.2736 21.834L24.4596 21.834L36.4962 9.73338L36.4962 -6.01929L35.4962 -6.01929L35.4962 9.32004L22.0549 22.834ZM16.6713 19.5716L-6.91207 -3.97843L-6.2054 -4.68577L17.3779 18.8642L16.6713 19.5716ZM10.9842 6.47857L9.98418 6.47857L9.98418 -2.6781L4.68285 -2.6781L4.68285 0.245903L3.68285 0.245903L3.68285 -3.6781L10.9842 -3.6781L10.9842 6.47857ZM22.8748 -0.247309L20.2462 -2.46331L20.8908 -3.22798L23.5195 -1.01131L22.8748 -0.247309ZM-9.99036 -0.181266L13.6256 23.0287L16.133 20.6647L-7.76302 -2.95727L-8.46569 -2.2466L14.6936 20.6481L13.6396 21.6407L-9.28969 -0.895266L-9.99036 -0.181266ZM36.3498 13.2793L35.6431 12.5713L38.6811 9.542L38.6811 -2.49534L39.6811 -2.49534L39.6811 9.95733L36.3498 13.2793ZM6.83352 3.46487L7.83352 3.46487L7.83352 -0.166468L6.83352 -0.166468L6.83352 3.46487ZM22.8737 3.04042L20.2483 0.827086L20.893 0.0624199L23.5183 2.27642L22.8737 3.04042ZM20.1453 6.98441L16.4473 3.59374L17.1226 2.85708L20.8213 6.24774L20.1453 6.98441ZM-12.1389 3.59598L-3.31352 12.2113L-14.4435 12.2113L-14.4435 13.2113L-0.858191 13.2113L-11.4402 2.87932L-12.1389 3.59598ZM-13.2849 6.3134L-9.96956 9.50407L-14.0469 9.50407L-14.0469 10.5041L-7.48822 10.5041L-12.5916 5.5934L-13.2849 6.3134ZM20.9833 14.056L16.4386 9.69004L17.1313 8.96871L19.9833 11.7087L19.9833 9.81471L16.4466 6.56404L17.1233 5.82804L20.9833 9.37538L20.9833 14.056ZM29.1607 9.74953L30.1607 9.74953L30.1607 6.20487L29.1607 6.20487L29.1607 9.74953ZM25.9854 12.9249L26.9854 12.9249L26.9854 9.38086L25.9854 9.38086L25.9854 12.9249ZM19.6396 29.0134L32.0116 41.386L32.7189 40.6787L20.6396 28.5994L20.6396 25.9507L29.8656 25.9507L45.3136 10.6007L44.6089 9.89137L29.4536 24.9507L19.6396 24.9507L19.6396 29.0134ZM38.3138 19.5469L42.8778 19.5469L45.8318 16.6343L45.1304 15.9223L42.4684 18.5469L40.6624 18.5469L45.7244 13.2823L45.0038 12.5896L38.3138 19.5469ZM-14.667 16.4988L-14.667 15.4988L1.12234 15.4988L4.97367 18.9968L4.97367 44.2261L3.97301 44.2261L3.97301 19.4395L0.735675 16.4988L-14.667 16.4988ZM-14.5077 19.3757L-14.5077 18.3757L1.70301 18.3757L1.70301 22.7591L-1.82366 26.0117L-1.82366 29.2631L-7.98299 35.0277L-8.66632 34.2971L-6.5908 32.3549L-10.2644 32.3549L-10.2644 31.3549L-5.52215 31.3549L-2.82366 28.8298L-2.82366 25.5737L0.703011 22.3211L0.703011 19.3757L-14.5077 19.3757ZM30.0253 22.8821L29.296 22.1974L32.5753 18.7041L33.3046 19.3895L30.0253 22.8821ZM35.6086 21.7316L42.1953 21.7316L45.0093 18.9756L45.7086 19.691L42.6033 22.7316L36.0393 22.7316L29.8746 29.2383L23.102 29.2383L23.102 28.2383L29.4446 28.2383L35.6086 21.7316ZM11.9171 27.2838L5.99247 21.5992L6.68447 20.8778L12.6091 26.5625L11.9171 27.2838ZM-14.0722 22.6975L-1.94823 22.6975L-1.94823 21.6975L-14.0722 21.6975L-14.0722 22.6975ZM10.1372 28.7221L5.99315 24.7501L6.68515 24.0287L10.8292 28.0007L10.1372 28.7221ZM39.5521 29.2448L38.8108 28.5741L42.1781 24.8481L44.1961 24.8481L44.1961 25.8481L42.6221 25.8481L39.5521 29.2448ZM33.1471 29.2448L32.4051 28.5741L35.6244 25.0121L36.3664 25.6828L33.1471 29.2448ZM36.3317 29.2448L35.5897 28.5741L38.809 25.0121L39.551 25.6828L36.3317 29.2448ZM-9.09038 29.2383L-4.70038 29.2383L-4.70038 25.211L-5.70038 25.211L-5.70038 28.2383L-8.09038 28.2383L-8.09038 25.0443L-12.447 25.0443L-12.447 28.487L-11.447 28.487L-11.447 26.0443L-9.09038 26.0443L-9.09038 29.2383ZM-6.49853 36.7916L-7.18919 36.0676L0.498806 28.729L0.498806 25.211L1.49881 25.211L1.49881 29.1576L-6.49853 36.7916ZM6.45656 32.4022L7.45656 32.4022L7.45656 27.6762L6.45656 27.6762L6.45656 32.4022ZM30.1626 42.5853L16.4306 28.8866L17.1366 28.1786L30.8693 41.8773L30.1626 42.5853ZM-3.79433 39.2939L-3.087 40.0013L1.49633 35.4179L1.49633 30.8706L-5.53633 37.7626L-4.837 38.4773L0.496334 33.2506L0.496334 35.0039L-3.79433 39.2939ZM9.98459 34.9316L9.98459 45.8023L10.9846 45.8023L10.9846 35.3523L13.1353 33.2483L13.1353 46.2723L14.1346 46.2723L14.1346 30.8716L9.98459 34.9316ZM29.2966 36.237L29.2966 32.355L26.2353 32.355L26.2353 31.355L30.2966 31.355L30.2966 33.841L32.664 31.4997L33.3673 32.2103L29.2966 36.237ZM33.3782 33.7232L37.2428 37.0945L37.9002 36.3405L34.8502 33.6805L36.2008 32.3552L41.0682 32.3552L41.0682 31.3552L35.7922 31.3552L33.3782 33.7232ZM28.0765 43.6139L16.4331 32.1073L17.1365 31.3966L28.7798 42.9033L28.0765 43.6139ZM30.402 36.6207L33.6787 40.1401L34.4107 39.4594L31.806 36.6607L32.7734 35.7354L35.6474 38.5474L36.346 37.8327L32.7814 34.3434L30.402 36.6207ZM16.4549 46.2722L17.4543 46.2722L17.4543 34.8335L16.4549 34.8335L16.4549 46.2722ZM1.49784 42.5996L0.497836 42.5996L0.497836 39.3176L-1.36416 41.303L-2.0935 40.619L1.49784 36.789L1.49784 42.5996ZM19.4694 45.92L20.4694 45.92L20.4694 39.5273L25.8921 44.682L26.5814 43.9566L19.4694 37.196L19.4694 45.92Z" opacity="0.100000001" fill="rgb(123,176,202)" fill-rule="evenodd" />
	</g>
	<g id="编组 5备份 2">
		<g id="路径" showMaskRef="url(#show_mask_110)" mask="url(#mask_128)">
			<path id="show_mask_110" d="M13.7202 5.33337L10.7202 26.6667L5.3335 26.6667L8.3335 5.33337L13.7202 5.33337Z" fill="url(#paint_linear_255)" fill-rule="evenodd" />
			<path id="路径 2" d="M7.5835 10.6666C7.5835 10.6666 9.06103 10.9908 10.4685 12.5896C11.876 14.1883 12.8609 16.6614 12.8609 16.6614L13.1345 10.6666L7.5835 10.6666Z" fill="url(#paint_linear_256)" fill-rule="evenodd" />
			<path id="路径 2" d="M12.0279 12.979Q11.629 12.3944 11.2191 11.9288Q11.1007 11.7943 10.9787 11.6666L12.0878 11.6666L12.0279 12.979ZM12.9581 14.5316L12.8609 16.6614C12.8609 16.6614 12.5175 15.7991 11.9465 14.7638C11.5504 14.0457 11.0449 13.2443 10.4685 12.5896C10.1401 12.2166 9.80795 11.9129 9.49161 11.6666C8.45202 10.8572 7.5835 10.6666 7.5835 10.6666L13.1345 10.6666L13.0889 11.6666L12.9581 14.5316Z" fill="url(#paint_linear_257)" fill-opacity="0" fill-rule="evenodd" />
			<path id="路径 3" d="M15.6033 21.3333L6.08301 21.3333C6.08301 21.3333 8.65239 20.7893 11.4485 19.5716C14.2446 18.3539 16 17.0144 16 17.0144L15.6033 21.3333Z" fill="url(#paint_linear_258)" fill-rule="evenodd" />
			<path id="路径 3" d="M9.68045 21.3333L15.6033 21.3333L15.8805 18.3157L16 17.0144C16 17.0144 15.619 17.3051 14.9293 17.7388C14.1385 18.236 12.9419 18.9212 11.4485 19.5716C10.7778 19.8637 10.1202 20.117 9.50798 20.3333C7.56766 21.019 6.08301 21.3333 6.08301 21.3333L9.68045 21.3333ZM12.1974 20.3333L14.691 20.3333L14.8154 18.9784Q13.5567 19.7195 12.1974 20.3333Z" fill="url(#paint_linear_259)" fill-opacity="0" fill-rule="evenodd" />
		</g>
		<path id="蒙版" d="M17.8535 5.33337L17.1035 10.6667L7.5835 10.6667L8.3335 5.33337L17.8535 5.33337Z" fill="url(#paint_linear_260)" style="mix-blend-mode:multiply" fill-rule="evenodd" />
		<path id="Fill 15" d="M15.6035 21.3334L14.8535 26.6667L5.3335 26.6667L6.08316 21.335L15.6035 21.3334Z" fill="url(#paint_linear_261)" style="mix-blend-mode:multiply" fill-rule="evenodd" />
		<path id="Fill 29" d="M25.1601 10.6667L25.9101 5.33337L20.5234 5.33337L19.7734 10.6667L25.1601 10.6667Z" fill="rgb(62,234,219)" fill-rule="evenodd" />
		<path id="Fill 31" d="M18.2729 21.3334L17.5229 26.6667L22.9096 26.6667L23.6596 21.3334L18.2729 21.3334Z" fill="rgb(62,234,219)" fill-rule="evenodd" />
	</g>
	<rect id="蒙版" width="32.000000" height="32.000000" x="0.000000" y="0.000000" rx="2.666667" fill="rgb(255,255,255)" fill-opacity="0" />
	<rect id="蒙版" width="31.333334" height="31.333334" x="0.333333" y="0.333333" rx="2.333333" stroke="rgb(236,242,244)" stroke-width="0.666666687" />
</svg>
