<svg viewBox="0 0 32 32" xmlns="http://www.w3.org/2000/svg" xmlns:xlink="http://www.w3.org/1999/xlink" width="32.000000" height="32.000000" fill="none" customFrame="#000000">
	<mask id="mask_117" width="17.257334" height="5.333333" x="8.250488" y="6.000000" maskUnits="userSpaceOnUse">
		<g filter="url(#pixso_custom_mask_type_outline)">
			<path id="蒙版" d="M25.5078 6L24.7578 11.3333L8.25049 11.3333L9.00049 6L25.5078 6Z" fill="rgb(255,255,255)" fill-rule="evenodd" />
		</g>
	</mask>
	<mask id="mask_116" width="7.261667" height="13.335000" x="7.125000" y="6.000000" maskUnits="userSpaceOnUse">
		<g filter="url(#pixso_custom_mask_type_outline)">
			<path id="蒙版" d="M12.5117 19.335L14.3867 6L9.00033 6L7.125 19.335L12.5117 19.335Z" fill="rgb(255,255,255)" fill-rule="evenodd" />
		</g>
	</mask>
	<mask id="mask_115" width="32.000000" height="32.000000" x="0.000000" y="0.000000" maskUnits="userSpaceOnUse">
		<g filter="url(#pixso_custom_mask_type_outline)">
			<rect id="蒙版" width="32.000000" height="32.000000" x="0.000000" y="0.000000" rx="2.666667" fill="rgb(255,255,255)" />
			<rect id="蒙版" width="31.000000" height="31.000000" x="0.500000" y="0.500000" rx="2.166667" stroke="rgb(236,247,249)" stroke-opacity="0" stroke-width="1" />
		</g>
	</mask>
	<defs>
		<filter id="pixso_custom_mask_type_outline">
			<feColorMatrix type="matrix" values="0 0 0 0 1 0 0 0 0 1 0 0 0 0 1 0 0 0 1 0 " />
		</filter>
		<linearGradient id="paint_linear_234" x1="10.7558327" x2="10.7558327" y1="6" y2="19.3349972" gradientUnits="userSpaceOnUse">
			<stop stop-color="rgb(192,42,140)" offset="0" stop-opacity="1" />
			<stop stop-color="rgb(242,39,167)" offset="1" stop-opacity="1" />
		</linearGradient>
		<linearGradient id="paint_linear_235" x1="12.9196539" x2="8.25048828" y1="16.7216644" y2="11.9623833" gradientUnits="userSpaceOnUse">
			<stop stop-color="rgb(0,0,0)" offset="0" stop-opacity="0" />
			<stop stop-color="rgb(119,33,33)" offset="1" stop-opacity="1" />
		</linearGradient>
		<linearGradient id="paint_linear_236" x1="13.6668549" x2="8.90070343" y1="14.5733337" y2="18.8398705" gradientUnits="userSpaceOnUse">
			<stop stop-color="rgb(37,43,58)" offset="0" stop-opacity="1" />
			<stop stop-color="rgb(37,43,58)" offset="1" stop-opacity="1" />
		</linearGradient>
		<linearGradient id="paint_linear_237" x1="26.7128391" x2="8.25048637" y1="9.88895035" y2="9.88895035" gradientUnits="userSpaceOnUse">
			<stop stop-color="rgb(233,12,108)" offset="0" stop-opacity="1" />
			<stop stop-color="rgb(202,33,126)" offset="0.794811487" stop-opacity="1" />
			<stop stop-color="rgb(184,51,152)" offset="1" stop-opacity="1" />
		</linearGradient>
		<linearGradient id="paint_linear_238" x1="14.3869362" x2="9.33058167" y1="6" y2="12.5138359" gradientUnits="userSpaceOnUse">
			<stop stop-color="rgb(244,54,255)" offset="0" stop-opacity="1" />
			<stop stop-color="rgb(255,18,0)" offset="1" stop-opacity="1" />
		</linearGradient>
		<linearGradient id="paint_linear_239" x1="26.6966667" x2="6.66894341" y1="7.96702194" y2="4.01916695" gradientUnits="userSpaceOnUse">
			<stop stop-color="rgb(255,255,255)" offset="0" stop-opacity="0" />
			<stop stop-color="rgb(255,255,255)" offset="1" stop-opacity="1" />
		</linearGradient>
	</defs>
	<mask id="mask_114" width="32.000000" height="32.000000" x="0.000000" y="0.000000" maskUnits="userSpaceOnUse">
		<g filter="url(#pixso_custom_mask_type_outline)">
			<rect id="蒙版" width="32.000000" height="32.000000" x="0.000000" y="0.000000" rx="2.666667" fill="rgb(255,255,255)" />
			<rect id="蒙版" width="31.000000" height="31.000000" x="0.500000" y="0.500000" rx="2.166667" stroke="rgb(239,226,238)" stroke-opacity="0" stroke-width="1" />
		</g>
	</mask>
	<rect id="工程首字母图标/F-32x33" width="32.000000" height="32.000000" x="0.000000" y="0.000000" />
	<rect id="矩形" width="32.000000" height="32.000000" x="0.000000" y="0.000000" rx="2.666667" fill="rgb(255,255,255)" />
	<rect id="矩形" width="31.000000" height="31.000000" x="0.500000" y="0.500000" rx="2.166667" stroke="rgb(151,151,151)" stroke-opacity="0" stroke-width="1" />
	<g id="形状" showMaskRef="url(#show_mask_97)" mask="url(#mask_114)">
		<g id="show_mask_97">
			<rect id="蒙版" width="32.000000" height="32.000000" x="0.000000" y="0.000000" rx="2.666667" fill="rgb(255,255,255)" />
			<rect id="蒙版" width="31.000000" height="31.000000" x="0.500000" y="0.500000" rx="2.166667" stroke="rgb(239,226,238)" stroke-opacity="0" stroke-width="1" />
		</g>
		<g id="Fill 5" showMaskRef="url(#show_mask_98)" mask="url(#mask_115)">
			<g id="show_mask_98">
				<rect id="蒙版" width="32.000000" height="32.000000" x="0.000000" y="0.000000" rx="2.666667" fill="rgb(255,255,255)" />
				<rect id="蒙版" width="31.000000" height="31.000000" x="0.500000" y="0.500000" rx="2.166667" stroke="rgb(236,247,249)" stroke-opacity="0" stroke-width="1" />
			</g>
			<path id="形状结合" d="M16.1693 -5.33337C15.2827 -5.33337 14.41 -5.27337 13.5513 -5.16871L2.24268 -0.209374C1.51535 0.409293 0.826683 1.07329 0.18735 1.78329L16.4014 -5.32737C16.324 -5.32804 16.2474 -5.33337 16.1693 -5.33337ZM24.0893 6.53213L18.1333 26.5148L26.3013 35.1521C26.6046 34.9895 26.9033 34.8201 27.198 34.6448L19.2566 26.2468L24.96 7.1108L20.2546 27.2248L27.7773 34.2815C28.0653 34.0961 28.348 33.9048 28.6266 33.7061L21.36 26.8901L25.8686 7.61946L22.4066 27.7855L29.1093 33.3581C29.3813 33.1528 29.6486 32.9415 29.91 32.7241L23.49 27.3855L26.8106 8.0428L24.5813 28.1961L30.292 32.3935C30.5486 32.1701 30.7986 31.9408 31.0446 31.7055L25.6386 27.7321L27.7773 8.39813L26.7693 28.4581L31.3466 31.4175C31.5873 31.1775 31.822 30.9321 32.0506 30.6815L27.7973 27.9321L28.7646 8.6808L28.9633 28.5728L32.2673 30.4368C32.492 30.1828 32.7113 29.9241 32.924 29.6595L29.9573 27.9855L29.7666 8.87946L31.1546 28.5388L33.0713 29.4728C33.2813 29.2055 33.4846 28.9341 33.682 28.6581L32.112 27.8935L30.7773 8.9928L33.336 28.3581L33.768 28.5375C33.964 28.2595 34.1526 27.9768 34.3346 27.6895L34.252 27.6548L31.7893 9.01546L35.1573 26.2855C35.418 25.7955 35.66 25.2941 35.8826 24.7835L32.7946 8.9468L36.4993 23.2015C36.7093 22.5935 36.8946 21.9748 37.05 21.3435L33.786 8.7848L37.378 19.7535C37.5093 18.9681 37.602 18.1695 37.646 17.3575L34.746 8.50346L37.6713 15.8461C37.6526 14.6208 37.5313 13.4201 37.3153 12.2521L35.6733 8.12813L37.0626 11.0655C34.9606 2.44346 27.6653 -4.1392 18.676 -5.1832L-1.46336 6.8508L-1.38136 5.14013L18.656 -5.1852C18.022 -5.25854 17.38 -5.30187 16.7306 -5.3192L-1.67736 4.16746C-2.44669 5.30746 -3.10936 6.52546 -3.65136 7.80746L-4.99869 19.9761C-4.82803 20.9335 -4.59669 21.8701 -4.30336 22.7795L-2.40803 5.66346L-3.34269 25.2281C-3.06336 25.8288 -2.75669 26.4141 -2.42536 26.9835L-1.50069 7.63413L-1.18203 28.8848C-0.858695 29.3255 -0.517362 29.7521 -0.162028 30.1661L-0.473361 9.46013L1.26397 31.6761C1.6133 32.0121 1.97197 32.3381 2.34264 32.6495L0.690639 11.5201L3.86731 33.8161C4.23131 34.0708 4.60131 34.3181 4.98197 34.5508L2.01597 13.7308L6.51664 35.3981C6.88797 35.5848 7.26464 35.7628 7.64797 35.9288L3.4573 15.7555L9.15264 36.5095C9.52664 36.6388 9.9053 36.7568 10.288 36.8655L5.00331 17.6075L11.7333 37.2261C12.106 37.3041 12.482 37.3741 12.8613 37.4328L6.63197 19.2728L14.2206 37.5941C14.5886 37.6275 14.9593 37.6508 15.3326 37.6655L8.33731 20.7775L16.5926 37.6761C16.9586 37.6688 17.322 37.6521 17.6826 37.6275L9.46197 20.8015L21.1186 3.49413L10.138 22.1761L18.836 37.5161C19.192 37.4721 19.5453 37.4195 19.896 37.3581L11.2926 22.1848L21.7726 4.35546L12.0446 23.4841L20.934 37.1501C21.2786 37.0721 21.62 36.9861 21.9586 36.8921L13.1973 23.4235L22.49 5.15013L14.0186 24.6448L22.8793 36.6135C23.2113 36.5048 23.54 36.3875 23.8646 36.2628L15.166 24.5128L23.2606 5.88613L16.0513 25.6541L24.67 35.9381C24.988 35.8015 25.3013 35.6568 25.6113 35.5055L17.1886 25.4548L24.0893 6.53213ZM5.98507 -2.77262C7.7544 -3.72529 9.67307 -4.43662 11.6964 -4.86462L5.98507 -2.77262ZM-0.50358 7.44286L-0.478246 9.16953L19.0971 -4.26914L-0.50358 7.44286ZM0.546954 9.67808L0.68162 11.3994L0.90162 11.2274L19.2243 -3.14392L0.546954 9.67808ZM1.74601 11.8361L1.98401 13.5094L19.2567 -1.89858L1.74601 11.8361ZM3.06869 13.8821L3.40535 15.5048L19.4194 -0.703884L3.06869 13.8821ZM4.50969 15.8095L4.93902 17.3742L19.6864 0.44883L4.50969 15.8095ZM6.06131 17.6088L6.57731 19.1148L20.0693 1.53151L6.06131 17.6088ZM7.71464 19.2748L8.31264 20.7182L20.5546 2.54149L7.71464 19.2748ZM-4.14616 9.10983L-5.3335 15.9252C-5.30616 13.5398 -4.89016 11.2485 -4.14616 9.10983Z" opacity="0.100000001" fill="rgb(218,84,210)" fill-rule="evenodd" />
		</g>
	</g>
	<g id="编组 8备份 2">
		<path id="Fill 19" d="M22.0845 14.0017L21.3345 19.335L15.2358 19.335L15.9858 14.0017L22.0845 14.0017Z" fill="rgb(248,196,218)" fill-rule="evenodd" />
		<g id="路径 2" showMaskRef="url(#show_mask_99)" mask="url(#mask_116)">
			<path id="show_mask_99" d="M12.5117 19.335L14.3867 6L9.00033 6L7.125 19.335L12.5117 19.335Z" fill="url(#paint_linear_234)" fill-rule="evenodd" />
			<path id="路径 2" d="M13.6669 11.3334L8.25049 11.3334C8.25049 11.3334 10.2853 12.8117 11.2447 14.6128C12.204 16.4138 12.5117 19.3334 12.5117 19.3334L13.6669 11.3334Z" fill="url(#paint_linear_235)" fill-rule="evenodd" />
			<path id="路径 2" d="M9.42542 12.3334C8.77961 11.7178 8.25049 11.3334 8.25049 11.3334L12.6565 11.3334L13.6669 11.3334L13.5225 12.3334L12.9481 16.3113L12.5117 19.3334C12.5117 19.3334 12.3577 17.8721 11.9279 16.3794C11.7502 15.7622 11.5253 15.1396 11.2447 14.6128C10.7745 13.7301 10.0461 12.925 9.42542 12.3334ZM10.8232 12.3334Q11.6496 13.246 12.1273 14.1426Q12.1761 14.2344 12.2237 14.3305L12.5121 12.3334L10.8232 12.3334Z" fill="url(#paint_linear_236)" fill-opacity="0" fill-rule="evenodd" />
		</g>
		<g id="路径 3" showMaskRef="url(#show_mask_100)" mask="url(#mask_117)">
			<path id="show_mask_100" d="M25.5078 6L24.7578 11.3333L8.25049 11.3333L9.00049 6L25.5078 6Z" fill="url(#paint_linear_237)" fill-rule="evenodd" />
			<path id="形状结合" d="M14.3869 6L13.637 11.3333L8.25098 11.3333L9.00098 6L14.3869 6Z" fill="url(#paint_linear_238)" fill-rule="evenodd" />
			<path id="路径 3" d="M26 6.47208C26 6.47208 22.1051 6.28692 16.879 6.91964C11.6528 7.55235 6.66895 8.66665 6.66895 8.66665C6.66895 8.66665 7.65841 4.03934 8.25031 4.01964C8.84221 3.99994 26.1056 4.79441 26.1056 4.79441L26 6.47208Z" opacity="0.600000024" fill="url(#paint_linear_239)" fill-rule="evenodd" />
			<path id="路径 3" d="M16.879 6.91964C22.1051 6.28692 26 6.47208 26 6.47208L26.0428 5.79259L26.1056 4.79441C26.1056 4.79441 25.7373 4.77746 25.1065 4.74858C21.4184 4.5797 8.75576 4.00282 8.25031 4.01964C7.84381 4.03317 7.24979 6.21992 6.91755 7.58848C6.76602 8.21266 6.66895 8.66665 6.66895 8.66665C6.66895 8.66665 7.06251 8.57865 7.74443 8.43808C9.48914 8.07841 13.1214 7.37455 16.879 6.91964ZM8.00372 7.3632Q8.74791 7.21361 9.6308 7.04736Q13.4606 6.32618 16.7588 5.92689Q18.814 5.67807 20.8647 5.55787L17.1296 5.38856L8.71734 5.03986Q8.69977 5.08134 8.68099 5.12794Q8.46743 5.65768 8.20133 6.61766Q8.10302 6.97229 8.00372 7.3632Z" opacity="0.600000024" fill="rgb(151,151,151)" fill-opacity="0" fill-rule="evenodd" />
		</g>
		<path id="Fill 51" d="M6.75 22.0017L6 27.3334L11.3867 27.3334L12.1367 22.0017L6.75 22.0017Z" fill="rgb(233,39,162)" fill-rule="evenodd" />
	</g>
	<rect id="蒙版" width="32.000000" height="32.000000" x="0.000000" y="0.000000" rx="2.666667" fill="rgb(255,255,255)" fill-opacity="0" />
	<rect id="蒙版" width="31.333334" height="31.333334" x="0.333333" y="0.333333" rx="2.333333" stroke="rgb(239,226,238)" stroke-width="0.666666687" />
</svg>
