<svg viewBox="0 0 32 32" xmlns="http://www.w3.org/2000/svg" xmlns:xlink="http://www.w3.org/1999/xlink" width="32.000000" height="32.000000" fill="none" customFrame="#000000">
	<mask id="mask_107" width="12.548667" height="13.333333" x="2.666504" y="13.333374" maskUnits="userSpaceOnUse">
		<g filter="url(#pixso_custom_mask_type_outline)">
			<path id="蒙版" d="M15.2152 13.3334L12.5608 13.3334C9.2375 13.3334 6.42184 15.781 5.9595 19.072L5.64184 21.3334L3.41617 21.3334L2.6665 26.6667L7.95984 26.6667C9.28917 26.6667 10.4155 25.6877 10.6005 24.371L11.2408 19.8144C11.3332 19.16 11.9005 18.6667 12.5615 18.6667L14.4655 18.6667L15.2152 13.3334Z" fill="rgb(255,255,255)" fill-rule="evenodd" />
		</g>
	</mask>
	<mask id="mask_106" width="10.300333" height="13.333333" x="16.466797" y="13.333374" maskUnits="userSpaceOnUse">
		<g filter="url(#pixso_custom_mask_type_outline)">
			<path id="蒙版" d="M17.2165 13.3334L16.4668 18.6667L17.9961 18.6667C18.5248 18.6667 18.8535 18.954 19.0021 19.1254C19.1511 19.2967 19.3901 19.662 19.3165 20.1857L18.8325 23.6287C18.6068 25.2334 19.8528 26.6667 21.4731 26.6667L26.0175 26.6667L26.7671 21.3334L24.5408 21.3334L24.5778 21.069C24.7775 19.65 24.5765 18.1874 23.9101 16.9187C22.7305 14.6737 20.4411 13.3334 17.9961 13.3334L17.2165 13.3334Z" fill="rgb(255,255,255)" fill-rule="evenodd" />
		</g>
	</mask>
	<mask id="mask_105" width="12.548667" height="13.333333" x="16.466797" y="5.333374" maskUnits="userSpaceOnUse">
		<g filter="url(#pixso_custom_mask_type_outline)">
			<path id="蒙版" d="M16.4668 18.6667L19.1211 18.6667C22.4445 18.6667 25.2601 16.219 25.7225 12.928L26.0401 10.6667L28.2658 10.6667L29.0155 5.33337L23.7221 5.33337C22.3928 5.33337 21.2665 6.31237 21.0815 7.62904L20.4411 12.1857C20.3488 12.84 19.7815 13.3334 19.1205 13.3334L17.2165 13.3334L16.4668 18.6667Z" fill="rgb(255,255,255)" fill-rule="evenodd" />
		</g>
	</mask>
	<defs>
		<filter id="pixso_custom_mask_type_outline">
			<feColorMatrix type="matrix" values="0 0 0 0 1 0 0 0 0 1 0 0 0 0 1 0 0 0 1 0 " />
		</filter>
		<linearGradient id="paint_linear_216" x1="29.0154629" x2="16.4667969" y1="5.33337355" y2="18.666708" gradientUnits="userSpaceOnUse">
			<stop stop-color="rgb(255,186,158)" offset="0" stop-opacity="1" />
			<stop stop-color="rgb(255,64,33)" offset="1" stop-opacity="1" />
		</linearGradient>
		<linearGradient id="paint_linear_217" x1="25.0536575" x2="18.4254017" y1="12.3177681" y2="13.6615429" gradientUnits="userSpaceOnUse">
			<stop stop-color="rgb(124,0,0)" offset="0" stop-opacity="0" />
			<stop stop-color="rgb(105,0,0)" offset="1" stop-opacity="1" />
		</linearGradient>
		<linearGradient id="paint_linear_218" x1="29.6557484" x2="18.6030598" y1="15.7573013" y2="19.5904732" gradientUnits="userSpaceOnUse">
			<stop stop-color="rgb(37,43,58)" offset="0" stop-opacity="1" />
			<stop stop-color="rgb(37,43,58)" offset="1" stop-opacity="1" />
		</linearGradient>
		<linearGradient id="paint_linear_219" x1="17.4459991" x2="23.5324631" y1="15.4701033" y2="26.6667099" gradientUnits="userSpaceOnUse">
			<stop stop-color="rgb(255,186,158)" offset="0" stop-opacity="1" />
			<stop stop-color="rgb(255,64,33)" offset="1" stop-opacity="1" />
		</linearGradient>
		<linearGradient id="paint_linear_220" x1="13.8661213" x2="6.82050085" y1="15.2641582" y2="26.6667099" gradientUnits="userSpaceOnUse">
			<stop stop-color="rgb(255,186,158)" offset="0" stop-opacity="1" />
			<stop stop-color="rgb(255,64,33)" offset="1" stop-opacity="1" />
		</linearGradient>
		<linearGradient id="paint_linear_221" x1="11.1112423" x2="7.83105564" y1="20.9445686" y2="14.1357403" gradientUnits="userSpaceOnUse">
			<stop stop-color="rgb(124,0,0)" offset="0" stop-opacity="0" />
			<stop stop-color="rgb(105,0,0)" offset="1" stop-opacity="1" />
		</linearGradient>
		<linearGradient id="paint_linear_222" x1="15.5125151" x2="8.75318623" y1="17.0599747" y2="22.4084339" gradientUnits="userSpaceOnUse">
			<stop stop-color="rgb(37,43,58)" offset="0" stop-opacity="1" />
			<stop stop-color="rgb(37,43,58)" offset="1" stop-opacity="1" />
		</linearGradient>
		<linearGradient id="paint_linear_223" x1="6.03801775" x2="12.6168499" y1="5.33337402" y2="18.6667099" gradientUnits="userSpaceOnUse">
			<stop stop-color="rgb(255,186,158)" offset="0" stop-opacity="1" />
			<stop stop-color="rgb(255,64,33)" offset="1" stop-opacity="1" />
		</linearGradient>
	</defs>
	<mask id="mask_104" width="32.000000" height="32.000000" x="0.000000" y="0.000000" maskUnits="userSpaceOnUse">
		<g filter="url(#pixso_custom_mask_type_outline)">
			<rect id="蒙版" width="32.000000" height="32.000000" x="0.000000" y="0.000000" rx="2.666667" fill="rgb(255,255,255)" />
			<rect id="蒙版" width="31.000000" height="31.000000" x="0.500000" y="0.500000" rx="2.166667" stroke="rgb(232,240,236)" stroke-opacity="0" stroke-width="1" />
		</g>
	</mask>
	<rect id="工程首字母图标/H-32x33" width="32.000000" height="32.000000" x="0.000000" y="0.000000" />
	<rect id="矩形" width="32.000000" height="32.000000" x="0.000000" y="0.000000" rx="2.666667" fill="rgb(255,255,255)" />
	<rect id="矩形" width="31.000000" height="31.000000" x="0.500000" y="0.500000" rx="2.166667" stroke="rgb(151,151,151)" stroke-opacity="0" stroke-width="1" />
	<g id="形状" showMaskRef="url(#show_mask_87)" mask="url(#mask_104)">
		<g id="show_mask_87">
			<rect id="蒙版" width="32.000000" height="32.000000" x="0.000000" y="0.000000" rx="2.666667" fill="rgb(255,255,255)" />
			<rect id="蒙版" width="31.000000" height="31.000000" x="0.500000" y="0.500000" rx="2.166667" stroke="rgb(232,240,236)" stroke-opacity="0" stroke-width="1" />
		</g>
		<g id="编组">
			<path id="形状结合" d="M15.8087 -8.66675L-5.33325 3.53992L-5.33325 27.9519L15.8087 40.1586L36.9501 27.9519L36.9501 3.53992L15.8087 -8.66675ZM-4.00074 27.1819L-4.00074 4.30925L15.8086 -7.12741L35.6166 4.30925L35.6166 27.1819L15.8086 38.6193L-4.00074 27.1819ZM15.8083 37.2703L-2.83241 26.5076L-2.83241 4.98361L15.8083 -5.77839L34.4496 4.98361L34.4496 26.5076L15.8083 37.2703ZM-1.49956 25.7383L15.8078 35.731L33.1158 25.7383L33.1158 5.75297L15.8078 -4.23969L-1.49956 5.75297L-1.49956 25.7383ZM15.805 34.3829L-0.33498 25.0643L-0.33498 6.42695L15.805 -2.89105L31.9457 6.42695L31.9457 25.0643L15.805 34.3829ZM1.00128 24.295L15.8079 32.8436L30.6153 24.295L30.6153 7.19698L15.8079 -1.35235L1.00128 7.19698L1.00128 24.295ZM15.8054 31.4956L2.16604 23.6203L2.16604 7.87095L15.8054 -0.0037117L29.4447 7.87095L29.4447 23.6203L15.8054 31.4956ZM3.50231 22.851L15.8083 29.9563L28.1143 22.851L28.1143 8.64098L15.8083 1.53498L3.50231 8.64098L3.50231 22.851ZM15.8088 28.6076L4.67013 22.1762L4.67013 9.31489L15.8088 2.88423L26.9481 9.31489L26.9481 22.1762L15.8088 28.6076ZM6.00297 21.4069L15.8083 27.0683L25.6143 21.4069L25.6143 10.0849L15.8083 4.42292L6.00297 10.0849L6.00297 21.4069ZM15.8056 25.7195L7.16755 20.7322L7.16755 10.7575L15.8056 5.77083L24.4442 10.7575L24.4442 20.7322L15.8056 25.7195ZM8.50333 19.9636L15.808 24.1809L23.1133 19.9636L23.1133 11.5282L15.808 7.3109L8.50333 11.5282L8.50333 19.9636ZM15.8059 22.8316L9.66858 19.2882L9.66858 12.2016L15.8059 8.65889L21.9432 12.2016L21.9432 19.2882L15.8059 22.8316ZM11.0044 18.5195L15.8084 21.2928L20.6124 18.5195L20.6124 12.9722L15.8084 10.1988L11.0044 12.9722L11.0044 18.5195ZM15.8085 19.9448L12.1719 17.8448L12.1719 13.6462L15.8085 11.5468L19.4452 13.6462L19.4452 17.8448L15.8085 19.9448ZM13.5052 17.0755L15.8085 18.4055L18.1119 17.0755L18.1119 14.4162L15.8085 13.0862L13.5052 14.4162L13.5052 17.0755Z" opacity="0.100000001" fill="rgb(255,150,133)" fill-rule="evenodd" />
		</g>
	</g>
	<g id="编组 2">
		<g id="路径 2" showMaskRef="url(#show_mask_88)" mask="url(#mask_105)">
			<path id="show_mask_88" d="M16.4668 18.6667L19.1211 18.6667C22.4445 18.6667 25.2601 16.219 25.7225 12.928L26.0401 10.6667L28.2658 10.6667L29.0155 5.33337L23.7221 5.33337C22.3928 5.33337 21.2665 6.31237 21.0815 7.62904L20.4411 12.1857C20.3488 12.84 19.7815 13.3334 19.1205 13.3334L17.2165 13.3334L16.4668 18.6667Z" fill="url(#paint_linear_216)" fill-rule="evenodd" />
			<path id="路径 2" d="M18.0473 16.8162L17.0952 20.0338L29.6557 16C29.6557 16 26.9379 13.8969 24.5635 13.1106C23.2769 12.6845 21.1049 12.7739 18.0473 13.3788C17.3431 13.5181 18.0473 16.8162 18.0473 16.8162Z" fill="url(#paint_linear_217)" fill-rule="evenodd" />
			<path id="路径 2" d="M18.0473 16.8162L17.4386 18.8733L17.0952 20.0338L18.2476 19.6638L28.4794 16.3778L29.6557 16C29.6557 16 29.2621 15.6955 28.6436 15.2748C27.6369 14.59 26.0343 13.5977 24.5635 13.1106Q22.6336 12.4714 18.0473 13.3788C17.3431 13.5181 18.0473 16.8162 18.0473 16.8162ZM27.4215 15.6673Q25.5995 14.5071 24.2491 14.0599Q23.4574 13.7977 22.0106 13.8572Q20.6343 13.9139 18.7345 14.2653Q18.7284 14.5727 18.7778 15.0457Q18.8292 15.5368 18.933 16.1247Q18.985 16.4186 19.0253 16.6073L19.0784 16.8561L18.591 18.5032L27.4215 15.6673Z" fill="url(#paint_linear_218)" fill-opacity="0" fill-rule="evenodd" />
		</g>
		<g id="路径 4" showMaskRef="url(#show_mask_89)" mask="url(#mask_106)">
			<path id="show_mask_89" d="M17.2165 13.3334L16.4668 18.6667L17.9961 18.6667C18.5248 18.6667 18.8535 18.954 19.0021 19.1254C19.1511 19.2967 19.3901 19.662 19.3165 20.1857L18.8325 23.6287C18.6068 25.2334 19.8528 26.6667 21.4731 26.6667L26.0175 26.6667L26.7671 21.3334L24.5408 21.3334L24.5778 21.069C24.7775 19.65 24.5765 18.1874 23.9101 16.9187C22.7305 14.6737 20.4411 13.3334 17.9961 13.3334L17.2165 13.3334Z" fill="url(#paint_linear_219)" fill-rule="evenodd" />
		</g>
		<path id="形状结合" d="M19.1211 18.6667L17.996 18.6667L16.4668 18.6667L17.2165 13.3334L17.996 13.3334C20.3745 13.3334 22.6058 14.6019 23.8114 16.7377C22.5998 17.9366 20.9362 18.6667 19.1211 18.6667Z" fill="rgb(255,15,86)" fill-rule="evenodd" />
		<g id="路径" showMaskRef="url(#show_mask_90)" mask="url(#mask_107)">
			<path id="show_mask_90" d="M15.2152 13.3334L12.5608 13.3334C9.2375 13.3334 6.42184 15.781 5.9595 19.072L5.64184 21.3334L3.41617 21.3334L2.6665 26.6667L7.95984 26.6667C9.28917 26.6667 10.4155 25.6877 10.6005 24.371L11.2408 19.8144C11.3332 19.16 11.9005 18.6667 12.5615 18.6667L14.4655 18.6667L15.2152 13.3334Z" fill="url(#paint_linear_220)" fill-rule="evenodd" />
			<path id="路径" d="M8.59657 12.9984C8.59657 12.9984 7.38431 15.2959 8.09177 17.5662C8.79924 19.8364 12.3304 23.0271 12.3304 23.0271L15.5125 15.876L8.59657 12.9984Z" fill="url(#paint_linear_221)" fill-rule="evenodd" />
			<path id="路径" d="M8.27808 13.7639C8.44362 13.2883 8.59657 12.9984 8.59657 12.9984L14.589 15.4917L15.5125 15.876L15.1058 16.7899L12.7601 22.0613L12.3304 23.0271C12.3304 23.0271 12.0193 22.746 11.5633 22.2913C10.4829 21.2141 8.58925 19.1625 8.09177 17.5662C7.66307 16.1905 7.9393 14.8047 8.22354 13.9263C8.24175 13.87 8.25999 13.8158 8.27808 13.7639ZM9.15013 14.3118Q9.09483 14.4903 9.04899 14.6736Q8.88781 15.318 8.87183 15.9212Q8.85262 16.6465 9.04649 17.2686Q9.24379 17.9018 9.8732 18.8058Q10.4119 19.5795 11.2204 20.4798Q11.5945 20.8964 11.9995 21.3108L14.1823 16.4056L9.15013 14.3118Z" fill="url(#paint_linear_222)" fill-opacity="0" fill-rule="evenodd" />
		</g>
		<path id="Fill 35" d="M14.4659 18.6667L15.2155 13.3334L13.6862 13.3334C13.1575 13.3334 12.8289 13.046 12.6802 12.8747C12.5312 12.7034 12.2922 12.338 12.3659 11.8144L12.8499 8.37137C13.0755 6.76671 11.8295 5.33337 10.2092 5.33337L5.66519 5.33337L4.91553 10.6667L7.14153 10.6667L7.10453 10.931C6.90486 12.35 7.10586 13.8127 7.77219 15.0814C8.95186 17.3264 11.2412 18.6667 13.6862 18.6667L14.4659 18.6667Z" fill="url(#paint_linear_223)" fill-rule="evenodd" />
		<path id="形状结合" d="M13.6873 18.6667C11.3084 18.6667 9.07681 17.3979 7.87134 15.2614C9.08278 14.0631 10.746 13.3334 12.5606 13.3334L15.215 13.3334L14.4653 18.6667L13.6873 18.6667Z" fill="rgb(255,15,86)" fill-rule="evenodd" />
	</g>
	<rect id="蒙版" width="32.000000" height="32.000000" x="0.000000" y="0.000000" rx="2.666667" fill="rgb(255,255,255)" fill-opacity="0" />
	<rect id="蒙版" width="31.333334" height="31.333334" x="0.333333" y="0.333333" rx="2.333333" stroke="rgb(255,244,242)" stroke-width="0.666666687" />
</svg>
