<svg viewBox="0 0 32 32" xmlns="http://www.w3.org/2000/svg" xmlns:xlink="http://www.w3.org/1999/xlink" width="32.000000" height="32.000000" fill="none" customFrame="#000000">
	<mask id="mask_103" width="11.333333" height="5.333333" x="11.666504" y="5.333374" maskUnits="userSpaceOnUse">
		<g filter="url(#pixso_custom_mask_type_outline)">
			<path id="蒙版" d="M12.408 5.33337L11.6665 10.6667L22.2584 10.6667L22.9998 5.33337L12.408 5.33337Z" fill="rgb(255,255,255)" fill-rule="evenodd" />
		</g>
	</mask>
	<defs>
		<filter id="pixso_custom_mask_type_outline">
			<feColorMatrix type="matrix" values="0 0 0 0 1 0 0 0 0 1 0 0 0 0 1 0 0 0 1 0 " />
		</filter>
		<linearGradient id="paint_linear_210" x1="16.1758213" x2="15.4608879" y1="22.1264439" y2="25.9588051" gradientUnits="userSpaceOnUse">
			<stop stop-color="rgb(120,255,196)" offset="0" stop-opacity="1" />
			<stop stop-color="rgb(16,222,145)" offset="1" stop-opacity="1" />
		</linearGradient>
		<linearGradient id="paint_linear_211" x1="17.0311146" x2="16.505434" y1="8.50564575" y2="23.8350945" gradientUnits="userSpaceOnUse">
			<stop stop-color="rgb(0,202,114)" offset="0" stop-opacity="1" />
			<stop stop-color="rgb(124,255,191)" offset="1" stop-opacity="1" />
		</linearGradient>
		<linearGradient id="paint_linear_212" x1="13.3071632" x2="16.9815941" y1="22.1610756" y2="26.6667061" gradientUnits="userSpaceOnUse">
			<stop stop-color="rgb(0,254,99)" offset="0" stop-opacity="1" />
			<stop stop-color="rgb(252,255,152)" offset="1" stop-opacity="1" />
		</linearGradient>
		<linearGradient id="paint_linear_213" x1="18.5088291" x2="17.7938957" y1="6.12644291" y2="9.95880413" gradientUnits="userSpaceOnUse">
			<stop stop-color="rgb(120,255,196)" offset="0" stop-opacity="1" />
			<stop stop-color="rgb(16,222,145)" offset="1" stop-opacity="1" />
		</linearGradient>
		<linearGradient id="paint_linear_214" x1="27.3612175" x2="7.33349419" y1="7.9478569" y2="4.00000191" gradientUnits="userSpaceOnUse">
			<stop stop-color="rgb(255,255,255)" offset="0" stop-opacity="0" />
			<stop stop-color="rgb(255,255,255)" offset="1" stop-opacity="1" />
		</linearGradient>
		<linearGradient id="paint_linear_215" x1="18.1618576" x2="14.5656452" y1="10.8670092" y2="14.318821" gradientUnits="userSpaceOnUse">
			<stop stop-color="rgb(0,39,22)" offset="0" stop-opacity="1" />
			<stop stop-color="rgb(0,90,50)" offset="1" stop-opacity="0" />
		</linearGradient>
	</defs>
	<mask id="mask_102" width="32.000000" height="32.000000" x="0.000000" y="0.000000" maskUnits="userSpaceOnUse">
		<g filter="url(#pixso_custom_mask_type_outline)">
			<rect id="蒙版" width="32.000000" height="32.000000" x="0.000000" y="0.000000" rx="2.666667" fill="rgb(255,255,255)" />
			<rect id="蒙版" width="31.000000" height="31.000000" x="0.500000" y="0.500000" rx="2.166667" stroke="rgb(241,234,242)" stroke-opacity="0" stroke-width="1" />
		</g>
	</mask>
	<rect id="工程首字母图标/I-32x33" width="32.000000" height="32.000000" x="0.000000" y="0.000000" />
	<rect id="矩形" width="32.000000" height="32.000000" x="0.000000" y="0.000000" rx="2.666667" fill="rgb(255,255,255)" />
	<rect id="矩形" width="31.000000" height="31.000000" x="0.500000" y="0.500000" rx="2.166667" stroke="rgb(151,151,151)" stroke-opacity="0" stroke-width="1" />
	<g id="形状" showMaskRef="url(#show_mask_85)" mask="url(#mask_102)">
		<g id="show_mask_85">
			<rect id="蒙版" width="32.000000" height="32.000000" x="0.000000" y="0.000000" rx="2.666667" fill="rgb(255,255,255)" />
			<rect id="蒙版" width="31.000000" height="31.000000" x="0.500000" y="0.500000" rx="2.166667" stroke="rgb(241,234,242)" stroke-opacity="0" stroke-width="1" />
		</g>
		<g id="编组">
			<path id="Fill 1" d="M52.8332 14.654L49.374 16.6487L47.5773 15.6108C47.6357 15.4126 47.6648 15.208 47.6648 14.9922C47.6648 14.724 47.6182 14.4681 47.5307 14.229C47.5073 14.1584 47.4782 14.0943 47.449 14.0308C47.449 14.0185 47.4432 14.0074 47.4315 13.9952C47.4315 13.9841 47.4257 13.9783 47.4198 13.966C47.4198 13.9608 47.414 13.9485 47.4082 13.9427C47.4023 13.9316 47.3965 13.9194 47.3907 13.9083C47.3673 13.8558 47.3382 13.8028 47.3032 13.7561C47.2973 13.7392 47.2857 13.727 47.2798 13.7159C47.2273 13.6337 47.1748 13.5643 47.1107 13.4943L47.1107 13.4879C47.0698 13.4419 47.029 13.4011 46.9882 13.3597C46.9532 13.313 46.9065 13.2728 46.8598 13.2372C46.8132 13.2028 46.7665 13.1673 46.7198 13.1329C46.6971 13.1154 46.6702 13.1049 46.6469 13.0885C46.4252 12.9323 46.1849 12.8023 45.9148 12.7358L45.9148 10.6601L47.7115 9.62227C48.1315 10.0596 48.7265 10.3278 49.374 10.3278C50.0215 10.3278 50.6107 10.0596 51.0365 9.62868L52.8332 10.6601L52.8332 14.654ZM48.7907 21.663L45.3315 23.6565L43.5349 22.6186C43.5932 22.4204 43.6224 22.2169 43.6224 22.0012C43.6224 20.9161 42.8815 20.0013 41.8723 19.7442L41.8723 17.6691L43.669 16.6312C44.089 17.0685 44.684 17.3367 45.3315 17.3367C45.979 17.3367 46.5682 17.0685 46.9941 16.6365L48.7907 17.6691L48.7907 21.663ZM44.7483 28.6597L41.2891 30.6532L39.4924 29.6153C39.5507 29.4171 39.5799 29.2136 39.5799 28.9979C39.5799 27.9128 38.839 26.998 37.8299 26.7409L37.8299 24.6658L39.6265 23.6332C39.6557 23.6623 39.6849 23.6856 39.7141 23.709C39.9066 23.8903 40.1282 24.0419 40.3732 24.1463C40.5132 24.2051 40.6591 24.2512 40.8166 24.2868C40.9682 24.3153 41.1257 24.3334 41.2891 24.3334C41.9366 24.3334 42.5257 24.0652 42.9516 23.6332L44.7483 24.6658L44.7483 28.6597ZM37.8299 30.006C37.6608 30.1051 37.4566 30.164 37.2466 30.164C37.0366 30.164 36.8324 30.1051 36.6632 30.006C36.3132 29.8019 36.0799 29.4294 36.0799 28.9979C36.0799 28.5659 36.3132 28.1869 36.6632 27.9886C36.8324 27.8895 37.0366 27.8318 37.2466 27.8318C37.4624 27.8318 37.6608 27.8895 37.8299 27.9886C38.1799 28.1869 38.4133 28.5659 38.4133 28.9979C38.4133 29.4294 38.1799 29.8019 37.8299 30.006ZM34.9128 28.9979C34.9128 29.2136 34.942 29.4171 35.0003 29.6153L33.2036 30.6532L31.4128 29.6217C31.4711 29.4229 31.5003 29.2136 31.5003 28.9979C31.5003 27.9128 30.7536 26.998 29.7503 26.7409L29.7503 24.6658L31.5469 23.6332C31.5761 23.6623 31.6053 23.6856 31.6344 23.709C31.8794 23.9428 32.177 24.1229 32.5036 24.2221C32.5561 24.2395 32.6145 24.2576 32.6728 24.2687C32.842 24.3101 33.0228 24.3334 33.2036 24.3334C33.3903 24.3334 33.5711 24.3101 33.7403 24.2687C33.7986 24.2576 33.857 24.2395 33.9095 24.2221C34.2361 24.1171 34.5336 23.9428 34.7786 23.709C34.8078 23.6856 34.837 23.6623 34.8661 23.6332L36.4178 24.5258L36.6628 24.6658L36.6628 26.7409C35.6595 26.998 34.9128 27.9128 34.9128 28.9979ZM29.7503 30.006C29.5812 30.1051 29.377 30.164 29.167 30.164C28.9512 30.164 28.747 30.1051 28.5778 30.006C28.2337 29.8019 28.0003 29.423 28.0003 28.9979C28.0003 28.5606 28.2337 28.1869 28.5837 27.9886C28.6128 27.9653 28.642 27.9542 28.677 27.942C28.7412 27.907 28.8053 27.8837 28.8695 27.8726C28.9162 27.8551 28.9628 27.8493 29.0095 27.8429C29.062 27.837 29.1145 27.8318 29.167 27.8318C29.377 27.8318 29.5812 27.8895 29.7503 27.9886C30.1003 28.1869 30.3337 28.5659 30.3337 28.9979C30.3337 29.4294 30.1003 29.8019 29.7503 30.006ZM26.8337 28.9979C26.8337 29.2136 26.8629 29.4171 26.9212 29.6153L25.1245 30.6532L23.3278 29.6153C23.3862 29.4171 23.4153 29.2136 23.4153 28.9979C23.4153 27.9128 22.6745 26.998 21.6653 26.7409L21.6653 24.6658L23.462 23.6332C23.8878 24.0652 24.477 24.3334 25.1245 24.3334C25.772 24.3334 26.3612 24.0652 26.787 23.6332L28.5837 24.6658L28.5837 26.7409C27.5745 26.998 26.8337 27.9128 26.8337 28.9979ZM21.6654 30.006C21.4962 30.1051 21.292 30.164 21.082 30.164C20.872 30.164 20.6679 30.1051 20.4987 30.006C20.1487 29.8019 19.9154 29.4294 19.9154 28.9979C19.9154 28.5659 20.1487 28.1869 20.4987 27.9886C20.6679 27.8895 20.872 27.8318 21.082 27.8318C21.292 27.8318 21.4962 27.8895 21.6654 27.9886C22.0154 28.1869 22.2487 28.5659 22.2487 28.9979C22.2487 29.4294 22.0154 29.8019 21.6654 30.006ZM18.7487 28.9979C18.7487 29.2136 18.7779 29.4171 18.8362 29.6153L17.0396 30.6532L15.2429 29.6153C15.3012 29.4171 15.3304 29.2136 15.3304 28.9979C15.3304 27.9128 14.5895 26.998 13.5803 26.7409L13.5803 24.6658L13.8254 24.5258L15.377 23.6332C15.4062 23.6623 15.4354 23.6856 15.4645 23.709C15.657 23.8961 15.8787 24.0419 16.1237 24.1463C16.2637 24.2051 16.4095 24.2512 16.567 24.2868C16.7187 24.3153 16.8762 24.3334 17.0396 24.3334C17.6871 24.3334 18.2762 24.0652 18.7021 23.6332L20.4988 24.6658L20.4988 26.7409C19.4896 26.998 18.7487 27.9128 18.7487 28.9979ZM13.5862 30.006C13.4171 30.1051 13.2129 30.164 12.9971 30.164C12.7871 30.164 12.5829 30.1051 12.4137 30.006C12.0637 29.8019 11.8304 29.4294 11.8304 28.9979C11.8304 28.5659 12.0637 28.1869 12.4137 27.9886C12.5829 27.8895 12.7871 27.8318 12.9971 27.8318C13.0496 27.8318 13.1021 27.837 13.1546 27.8429C13.2012 27.8493 13.2479 27.8551 13.2946 27.8726C13.3587 27.8837 13.4229 27.907 13.4871 27.942C13.5221 27.9542 13.5512 27.9653 13.5804 27.9886C13.9304 28.1869 14.1637 28.5606 14.1637 28.9979C14.1637 29.423 13.9304 29.8019 13.5862 30.006ZM10.6633 28.9979C10.6633 29.2136 10.6925 29.4171 10.7508 29.6153L8.95412 30.6532L7.16327 29.6217C7.2216 29.4229 7.25077 29.2136 7.25077 28.9979C7.25077 27.9128 6.50409 26.998 5.50075 26.7409L5.50075 24.6658L7.2916 23.6332C7.71744 24.0652 8.30661 24.3334 8.95412 24.3334C9.60162 24.3334 10.1908 24.0652 10.6166 23.6332L12.4133 24.6658L12.4133 26.7409C11.41 26.998 10.6633 27.9128 10.6633 28.9979ZM5.50082 30.006C5.33165 30.1051 5.12748 30.164 4.91748 30.164C4.70748 30.164 4.50331 30.1051 4.33414 30.006C3.98414 29.8019 3.7508 29.4294 3.7508 28.9979C3.7508 28.5659 3.98414 28.1869 4.33414 27.9886C4.50331 27.8895 4.70164 27.8318 4.91748 27.8318C5.12748 27.8318 5.33165 27.8895 5.50082 27.9886C5.85082 28.1869 6.08416 28.5659 6.08416 28.9979C6.08416 29.4294 5.85082 29.8019 5.50082 30.006ZM2.58418 28.9979C2.58418 29.2136 2.61335 29.4171 2.67168 29.6153L0.875 30.6532L-0.921684 29.6153C-0.863352 29.4171 -0.834185 29.2136 -0.834185 28.9979C-0.834185 27.9128 -1.57503 26.998 -2.5842 26.7409L-2.5842 24.6658L-0.787518 23.6332C-0.361679 24.0652 0.227493 24.3334 0.875 24.3334C1.03833 24.3334 1.19584 24.3153 1.34751 24.2868C1.50501 24.2512 1.65084 24.2051 1.79084 24.1463C2.03584 24.0419 2.25751 23.8903 2.45002 23.709C2.47918 23.6856 2.50835 23.6623 2.53752 23.6332L4.3342 24.6658L4.3342 26.7409C3.32502 26.998 2.58418 27.9128 2.58418 28.9979ZM-2.58414 30.006C-2.75331 30.1051 -2.95748 30.164 -3.16748 30.164C-3.37748 30.164 -3.58165 30.1051 -3.75082 30.006C-4.10082 29.8019 -4.33416 29.4294 -4.33416 28.9979C-4.33416 28.5659 -4.10082 28.1869 -3.75082 27.9886C-3.58165 27.8895 -3.37748 27.8318 -3.16748 27.8318C-2.95748 27.8318 -2.75331 27.8895 -2.58414 27.9886C-2.23414 28.1869 -2.0008 28.5659 -2.0008 28.9979C-2.0008 29.4294 -2.23414 29.8019 -2.58414 30.006ZM-5.50078 28.9979C-5.50078 29.2136 -5.47161 29.4171 -5.41328 29.6153L-7.20996 30.6532L-9.00665 29.6153C-8.94831 29.4171 -8.91915 29.2136 -8.91915 28.9979C-8.91915 27.9128 -9.65999 26.998 -10.6692 26.7409L-10.6692 24.6716L-8.87248 23.6332C-8.84331 23.6623 -8.81414 23.6856 -8.78498 23.709C-8.59248 23.8903 -8.37081 24.0419 -8.1258 24.1463C-7.9858 24.2051 -7.83997 24.2512 -7.68247 24.2868C-7.5308 24.3153 -7.3733 24.3334 -7.20996 24.3334C-6.56245 24.3334 -5.97328 24.0652 -5.54744 23.6332L-3.75076 24.6658L-3.75076 26.7409C-4.75994 26.998 -5.50078 27.9128 -5.50078 28.9979ZM-10.6691 30.006C-10.8383 30.1051 -11.0424 30.164 -11.2524 30.164C-11.4624 30.164 -11.6666 30.1051 -11.8358 30.006C-12.1858 29.8019 -12.4191 29.4294 -12.4191 28.9979C-12.4191 28.5659 -12.1858 28.1869 -11.8358 27.9886C-11.6666 27.8895 -11.4624 27.8318 -11.2524 27.8318C-11.0366 27.8318 -10.8383 27.8895 -10.6691 27.9886C-10.3191 28.1869 -10.0858 28.5659 -10.0858 28.9979C-10.0858 29.4294 -10.3191 29.8019 -10.6691 30.006ZM-13.5857 28.9979C-13.5857 29.2136 -13.5566 29.4229 -13.4982 29.6217L-15.2891 30.6532L-17.0858 29.6153C-17.0274 29.4171 -16.9983 29.2136 -16.9983 28.9979C-16.9983 27.9128 -17.7449 26.998 -18.7483 26.7409L-18.7483 24.6658L-16.9516 23.6332C-16.5258 24.0652 -15.9366 24.3334 -15.2891 24.3334C-15.1257 24.3334 -14.9682 24.3153 -14.8166 24.2868C-14.6591 24.2512 -14.5132 24.2051 -14.3732 24.1463C-14.1282 24.0419 -13.9066 23.8961 -13.7141 23.709C-13.6849 23.6856 -13.6557 23.6623 -13.6266 23.6332L-11.8357 24.6658L-11.8357 26.7409C-12.8391 26.998 -13.5857 27.9128 -13.5857 28.9979ZM-18.7482 30.006C-18.9174 30.1051 -19.1215 30.164 -19.3315 30.164C-19.5474 30.164 -19.7515 30.1051 -19.9207 30.006C-20.2649 29.8019 -20.4982 29.423 -20.4982 28.9979C-20.4982 28.5606 -20.2649 28.1869 -19.9149 27.9886C-19.7457 27.8837 -19.5474 27.8318 -19.3315 27.8318C-19.1215 27.8318 -18.9174 27.8895 -18.7482 27.9886C-18.3982 28.1869 -18.1649 28.5659 -18.1649 28.9979C-18.1649 29.4294 -18.3982 29.8019 -18.7482 30.006ZM-21.6653 28.9979C-21.6653 29.2136 -21.6362 29.4171 -21.5778 29.6153L-23.3745 30.6532L-26.8337 28.6597L-26.8337 24.6658L-25.037 23.6332C-24.6112 24.0652 -24.022 24.3334 -23.3745 24.3334C-22.727 24.3334 -22.1378 24.0652 -21.712 23.6332L-19.9153 24.6658L-19.9153 26.7409C-20.9245 26.998 -21.6653 27.9128 -21.6653 28.9979ZM-24.5407 21.9954C-24.5407 21.5639 -24.3015 21.1902 -23.9574 20.9919C-23.7882 20.8928 -23.584 20.8351 -23.374 20.8351C-23.164 20.8351 -22.9599 20.8928 -22.7907 20.9919C-22.4465 21.1902 -22.2073 21.5639 -22.2073 21.9954L-22.2073 22.0012C-22.2073 22.4327 -22.4407 22.8052 -22.7907 23.0093C-22.9599 23.1084 -23.164 23.1673 -23.374 23.1673C-23.584 23.1673 -23.7882 23.1084 -23.9574 23.0093C-24.3074 22.8052 -24.5407 22.4327 -24.5407 22.0012L-24.5407 21.9954ZM-22.7912 17.6691L-20.9945 16.6365C-20.5687 17.0685 -19.9795 17.3367 -19.332 17.3367C-18.6845 17.3367 -18.0954 17.0685 -17.6695 16.6365L-15.8728 17.6691L-15.8728 19.7442C-16.882 20.0013 -17.6228 20.9161 -17.6228 22.0012C-17.6228 22.2169 -17.5937 22.4204 -17.5353 22.6186L-19.332 23.6565L-21.1287 22.6186C-21.0704 22.4204 -21.0412 22.2169 -21.0412 22.0012C-21.0412 20.9161 -21.7821 20.0013 -22.7912 19.7442L-22.7912 17.6691ZM-20.4982 14.9987C-20.4982 14.5672 -20.2591 14.1935 -19.9149 13.9952C-19.7457 13.8961 -19.5415 13.8384 -19.3315 13.8384C-19.1215 13.8384 -18.9174 13.8961 -18.7482 13.9952C-18.404 14.1935 -18.1649 14.5614 -18.1649 14.9923L-18.1649 15.0045C-18.1649 15.4295 -18.3924 15.8033 -18.7365 16.0068C-18.7424 16.0068 -18.7424 16.0126 -18.7482 16.0126C-18.9174 16.1117 -19.1215 16.1706 -19.3315 16.1706C-19.5415 16.1706 -19.7457 16.1117 -19.9149 16.0126C-20.2649 15.8085 -20.4982 15.436 -20.4982 15.0045L-20.4982 14.9987ZM-22.7912 7.65743L-22.7912 3.6635L-20.9945 2.63207C-20.5687 3.06295 -19.9795 3.33115 -19.332 3.33115C-18.6845 3.33115 -18.0954 3.06295 -17.6695 2.63207L-15.8728 3.6635L-15.8728 5.73918C-16.882 5.99572 -17.6228 6.9117 -17.6228 7.99561C-17.6228 8.21134 -17.5937 8.41599 -17.5353 8.61423L-19.332 9.65207L-22.7912 7.65743ZM-20.4982 0.99305C-20.4982 0.561588 -20.2591 0.188432 -19.9149 -0.00922418C-19.7457 -0.108344 -19.5415 -0.167232 -19.3315 -0.167232C-19.1215 -0.167232 -18.9174 -0.108344 -18.7482 -0.00922418C-18.404 0.188432 -18.1649 0.561588 -18.1649 0.99305L-18.1649 0.99888C-18.1649 1.43034 -18.3982 1.8035 -18.7482 2.00815C-18.9174 2.10669 -19.1215 2.16499 -19.3315 2.16499C-19.5415 2.16499 -19.7457 2.10669 -19.9149 2.00815C-20.2649 1.8035 -20.4982 1.43034 -20.4982 0.99888L-20.4982 0.99305ZM-14.7058 3.6635L-12.9091 2.63207C-12.4833 3.06295 -11.8941 3.33115 -11.2466 3.33115C-10.5991 3.33115 -10.0099 3.06295 -9.58408 2.63207L-7.79323 3.6635L-7.79323 5.73918C-7.8574 5.75667 -7.91573 5.77474 -7.9799 5.79807C-8.03823 5.81556 -8.09656 5.83888 -8.1549 5.86803C-8.27156 5.92051 -8.3824 5.97823 -8.4874 6.0482C-8.52823 6.07152 -8.56323 6.09484 -8.59823 6.12399C-8.6274 6.14732 -8.65074 6.16481 -8.67407 6.18813C-8.76157 6.25285 -8.84324 6.32865 -8.91907 6.40969C-8.95991 6.45634 -9.00074 6.50356 -9.04741 6.55546C-9.05324 6.56129 -9.05907 6.5677 -9.05907 6.57353C-9.14074 6.68373 -9.21658 6.80617 -9.28658 6.93503C-9.32158 6.99858 -9.35074 7.06272 -9.37408 7.13326C-9.39741 7.19682 -9.42074 7.26678 -9.44408 7.33675C-9.46158 7.40672 -9.47908 7.47669 -9.49658 7.54723C-9.52575 7.693 -9.54324 7.84401 -9.54324 7.99561C-9.54324 8.21134 -9.51408 8.42182 -9.45574 8.61948L-11.2466 9.65207L-13.0433 8.61423C-12.9849 8.41599 -12.9558 8.21134 -12.9558 7.99561C-12.9558 7.91398 -12.9616 7.83293 -12.9674 7.75713C-12.9733 7.69825 -12.9849 7.63411 -12.9966 7.5758C-13.0024 7.52916 -13.0141 7.48252 -13.0258 7.44228C-13.0724 7.23763 -13.1483 7.05105 -13.2474 6.87031Q-13.335 6.70413 -13.4575 6.55546C-13.58 6.39861 -13.72 6.25868 -13.8775 6.14149C-13.9183 6.10709 -13.965 6.07735 -14.0116 6.0482C-14.0583 6.0138 -14.1108 5.98464 -14.1575 5.95491C-14.1691 5.95491 -14.175 5.94908 -14.1808 5.94383C-14.2916 5.88494 -14.4025 5.83888 -14.5191 5.79807C-14.5833 5.77474 -14.6416 5.75667 -14.7058 5.73918L-14.7058 3.6635ZM-12.4133 0.99305C-12.4133 0.561588 -12.1799 0.188432 -11.8299 -0.00922418C-11.6608 -0.108344 -11.4566 -0.167232 -11.2466 -0.167232C-11.0366 -0.167232 -10.8324 -0.108344 -10.6632 -0.00922418C-10.3132 0.188432 -10.0799 0.568002 -10.0799 0.99888C-10.0799 1.43034 -10.3132 1.8035 -10.6632 2.00815C-10.8324 2.10669 -11.0366 2.16499 -11.2466 2.16499C-11.4566 2.16499 -11.6608 2.10669 -11.8299 2.00815C-12.1799 1.8035 -12.4133 1.43034 -12.4133 0.99888L-12.4133 0.99305ZM-6.62668 3.66341L-4.83 2.62557C-4.40999 3.06286 -3.81499 3.33107 -3.16748 3.33107C-2.51997 3.33107 -1.9308 3.06286 -1.50496 2.63198L0.291721 3.66341L0.291721 5.73909C-0.717457 5.99563 -1.4583 6.91161 -1.4583 7.99552C-1.4583 8.21125 -1.42913 8.4159 -1.3708 8.61414L-3.16748 9.65198L-4.95833 8.61939C-4.9 8.42173 -4.87083 8.21125 -4.87083 7.99552C-4.87083 7.93196 -4.87083 7.862 -4.8825 7.79728L-4.8825 7.79145C-4.89417 7.59379 -4.94083 7.40138 -5.01083 7.22005C-5.02833 7.16175 -5.05167 7.10402 -5.08083 7.04513C-5.1625 6.86497 -5.26167 6.69588 -5.38417 6.53788C-5.41334 6.50347 -5.4425 6.47432 -5.47167 6.43876C-5.51834 6.38628 -5.57667 6.33381 -5.62917 6.28191C-5.72251 6.19387 -5.82167 6.11807 -5.92668 6.04811C-5.99084 6.00788 -6.05501 5.96706 -6.11918 5.93791C-6.16584 5.90817 -6.21251 5.88485 -6.25918 5.86794C-6.31751 5.83879 -6.38168 5.81547 -6.44001 5.79798C-6.49835 5.77465 -6.56252 5.75658 -6.62668 5.73909L-6.62668 3.66341ZM-4.33416 0.99305C-4.33416 0.561588 -4.09499 0.188432 -3.75082 -0.00922418C-3.58165 -0.108344 -3.37748 -0.167232 -3.16748 -0.167232C-2.95748 -0.167232 -2.75331 -0.108344 -2.58414 -0.00922418C-2.23997 0.188432 -2.0008 0.561588 -2.0008 0.99305L-2.0008 0.99888C-2.0008 1.43034 -2.23414 1.8035 -2.58414 2.00815C-2.75331 2.10669 -2.95748 2.16499 -3.16748 2.16499C-3.37748 2.16499 -3.58165 2.10669 -3.75082 2.00815C-4.10082 1.8035 -4.33416 1.43034 -4.33416 0.99888L-4.33416 0.99305ZM1.45828 3.66341L3.25496 2.63198C3.6808 3.06286 4.26997 3.33107 4.91748 3.33107C5.56499 3.33107 6.15999 3.06286 6.58 2.62557L8.37668 3.66341L8.37668 5.73909C7.3675 5.99563 6.62666 6.91161 6.62666 7.99552C6.62666 8.21125 6.65583 8.4159 6.71416 8.61414L4.91748 9.65198L3.1208 8.61414C3.17913 8.4159 3.2083 8.21125 3.2083 7.99552C3.2083 6.91161 2.46745 5.99563 1.45828 5.73909L1.45828 3.66341ZM3.7508 0.99305C3.7508 0.561588 3.98997 0.188432 4.33414 -0.00922418C4.50331 -0.108344 4.70748 -0.167232 4.91748 -0.167232C5.12748 -0.167232 5.33165 -0.108344 5.50082 -0.00922418C5.84499 0.188432 6.08416 0.561588 6.08416 0.99305L6.08416 0.99888C6.08416 1.43034 5.85082 1.8035 5.50082 2.00815C5.33165 2.10669 5.12748 2.16499 4.91748 2.16499C4.70748 2.16499 4.50331 2.10669 4.33414 2.00815C3.98414 1.8035 3.7508 1.43034 3.7508 0.99888L3.7508 0.99305ZM9.54372 3.6635L11.3346 2.63207C11.7604 3.06295 12.3496 3.33115 12.9971 3.33115C13.6446 3.33115 14.2338 3.06295 14.6596 2.63207L16.4563 3.6635L16.4563 5.73918C15.4529 5.99572 14.7063 6.9117 14.7063 7.99561C14.7063 8.21134 14.7354 8.41599 14.7938 8.61423L13.0029 9.65207L12.9971 9.65207L11.2062 8.61423C11.2646 8.41599 11.2937 8.21134 11.2937 7.99561C11.2937 6.9117 10.5471 5.99572 9.54372 5.73918L9.54372 3.6635ZM11.9237 0.544679C11.9529 0.474713 11.9879 0.409993 12.0346 0.345857C12.0521 0.316704 12.0696 0.287552 12.0987 0.258982C12.1221 0.229829 12.1512 0.206507 12.1746 0.177354C12.1979 0.147618 12.2271 0.124296 12.2562 0.100974C12.2796 0.0776513 12.2971 0.0659902 12.3204 0.0484985C12.5129 -0.0850215 12.7462 -0.167232 12.9971 -0.167232C13.4054 -0.167232 13.7612 0.0426679 13.9712 0.352271C13.9887 0.381424 14.0062 0.409993 14.0237 0.44556C14.0587 0.509113 14.0879 0.57908 14.1112 0.654877C14.1229 0.68403 14.1287 0.713766 14.1346 0.742918C14.1521 0.823964 14.1637 0.912005 14.1637 0.99888C14.1637 1.05194 14.1579 1.10441 14.1521 1.15689C14.1462 1.20353 14.1404 1.25018 14.1229 1.29682C14.1229 1.31373 14.1171 1.33122 14.1112 1.3493C14.0879 1.42509 14.0587 1.49506 14.0237 1.55861C14.0062 1.58835 13.9887 1.62275 13.9654 1.6519C13.9246 1.71662 13.8721 1.77435 13.8196 1.82682C13.7846 1.86763 13.7496 1.89679 13.7087 1.92652C13.6679 1.95568 13.6271 1.98483 13.5804 2.00815C13.4112 2.10669 13.2071 2.16499 12.9971 2.16499C12.7871 2.16499 12.5829 2.10669 12.4137 2.00815C12.3262 1.95568 12.2446 1.89679 12.1746 1.82682C12.1396 1.79184 12.1046 1.75102 12.0754 1.71079C12.0579 1.6933 12.0462 1.6694 12.0346 1.6519C12.0112 1.62275 11.9937 1.59418 11.9762 1.55861C11.9296 1.47699 11.8946 1.3837 11.8712 1.29682C11.8537 1.25018 11.8479 1.20353 11.8421 1.15689C11.8362 1.10441 11.8304 1.05194 11.8304 0.99888C11.8304 0.836208 11.8654 0.68403 11.9237 0.544679ZM17.6228 3.6635L19.4195 2.63207C19.8454 3.06295 20.4345 3.33115 21.082 3.33115C21.7295 3.33115 22.3187 3.06295 22.7445 2.63207L24.5412 3.6635L24.5412 5.73918C24.4771 5.75667 24.4187 5.77474 24.3546 5.79807C24.2379 5.83888 24.1271 5.88494 24.0162 5.94383C23.7887 6.06627 23.5904 6.22311 23.4154 6.40969C23.3279 6.50356 23.2521 6.6021 23.1762 6.70705L23.1762 6.71346C23.1062 6.81841 23.0479 6.92861 22.9954 7.04522C22.937 7.16766 22.8904 7.30235 22.8612 7.44228C22.8495 7.48252 22.8379 7.52916 22.8321 7.5758C22.8204 7.63411 22.8087 7.69825 22.8029 7.75713C22.7971 7.83293 22.7912 7.91398 22.7912 7.99561C22.7912 8.21134 22.8204 8.41599 22.8787 8.61423L21.082 9.65207L19.2853 8.61423C19.3437 8.41599 19.3728 8.21134 19.3728 7.99561C19.3728 6.9117 18.632 5.99572 17.6228 5.73918L17.6228 3.6635ZM19.9154 0.99305C19.9154 0.561588 20.1545 0.188432 20.4987 -0.00922418C20.6679 -0.108344 20.872 -0.167232 21.082 -0.167232C21.292 -0.167232 21.4962 -0.108344 21.6654 -0.00922418C22.0095 0.188432 22.2487 0.561588 22.2487 0.99305L22.2487 0.99888C22.2487 1.43034 22.0154 1.8035 21.6654 2.00815C21.4962 2.10669 21.292 2.16499 21.082 2.16499C20.872 2.16499 20.6679 2.10669 20.4987 2.00815C20.1487 1.8035 19.9154 1.43034 19.9154 0.99888L19.9154 0.99305ZM25.7078 3.6635L27.5045 2.63207C27.9303 3.06295 28.5195 3.33115 29.167 3.33115C29.8145 3.33115 30.4037 3.06295 30.8295 2.63207L32.6262 3.6635L32.6262 5.73918C31.617 5.99572 30.8762 6.9117 30.8762 7.99561C30.8762 8.21134 30.9053 8.41599 30.9637 8.61423L29.167 9.65207L27.3703 8.61423C27.4286 8.41599 27.4578 8.21134 27.4578 7.99561C27.4578 6.9117 26.717 5.99572 25.7078 5.73918L25.7078 3.6635ZM28.0003 0.99305C28.0003 0.561588 28.2337 0.188432 28.5837 -0.00922418C28.7528 -0.108344 28.957 -0.167232 29.167 -0.167232C29.377 -0.167232 29.5812 -0.108344 29.7503 -0.00922418C30.0945 0.188432 30.3337 0.561588 30.3337 0.99305L30.3337 0.99888C30.3337 1.43034 30.1003 1.8035 29.7503 2.00815C29.5812 2.10669 29.377 2.16499 29.167 2.16499C28.957 2.16499 28.7528 2.10669 28.5837 2.00815C28.2337 1.8035 28.0003 1.43034 28.0003 0.99888L28.0003 0.99305ZM33.7927 3.66341L35.5836 2.62557L35.5894 2.62557C36.0036 3.06286 36.5986 3.33107 37.2461 3.33107C37.8936 3.33107 38.4828 3.06286 38.9086 2.63198L40.7053 3.66341L40.7053 5.73909C39.702 5.99563 38.9553 6.91161 38.9553 7.99552C38.9553 8.21125 38.9845 8.4159 39.0428 8.61414L37.2519 9.65198L37.2461 9.65198L35.4553 8.61414C35.5136 8.4159 35.5428 8.21125 35.5428 7.99552C35.5428 6.91161 34.7961 5.99563 33.7927 5.73909L33.7927 3.66341ZM36.6632 -0.00922418C36.8324 -0.108344 37.0366 -0.167232 37.2466 -0.167232C37.4624 -0.167232 37.6608 -0.114174 37.8299 -0.00922418C38.1799 0.188432 38.4133 0.561588 38.4133 0.99305L38.4133 0.99888C38.4133 1.42509 38.1799 1.8035 37.8358 2.00815C37.6666 2.10669 37.4624 2.16499 37.2466 2.16499C37.0366 2.16499 36.8324 2.10669 36.6632 2.00815C36.3132 1.8035 36.0799 1.43034 36.0799 0.99888C36.0799 0.568002 36.3132 0.188432 36.6632 -0.00922418ZM45.9146 12.7474C46.0511 12.7824 46.1801 12.8308 46.3031 12.8897C46.1789 12.8326 46.0511 12.7824 45.9146 12.7474ZM46.4574 15.3012C46.4399 15.377 46.4107 15.447 46.3757 15.517C46.3057 15.6511 46.2124 15.7677 46.1015 15.8668C46.0432 15.9199 45.979 15.9601 45.9149 16.0015C45.7457 16.1 45.5415 16.1583 45.3315 16.1583C45.1215 16.1583 44.9174 16.1 44.7482 16.0015C44.684 15.9601 44.6199 15.9199 44.5615 15.8668C44.4507 15.7677 44.3574 15.6511 44.2874 15.517C44.2524 15.447 44.2232 15.377 44.2057 15.3012C44.1765 15.2021 44.1649 15.0977 44.1649 14.9922C44.1649 14.8295 44.1999 14.6774 44.2582 14.538C44.3632 14.31 44.5324 14.1176 44.7482 13.9952C44.9174 13.8961 45.1215 13.8383 45.3315 13.8383C45.5415 13.8383 45.7457 13.8961 45.9149 13.9952C46.1307 14.1176 46.2999 14.31 46.4049 14.538C46.4632 14.6774 46.4982 14.8295 46.4982 14.9922C46.4982 15.0977 46.4866 15.2021 46.4574 15.3012ZM40.1224 21.9954C40.1224 21.814 40.1632 21.6508 40.2391 21.4992C40.274 21.4234 40.3149 21.3476 40.3674 21.2835C40.4607 21.1674 40.5774 21.0677 40.7057 20.9919C40.8749 20.8928 41.0791 20.8351 41.2891 20.8351C41.4991 20.8351 41.7032 20.8928 41.8724 20.9919C42.0007 21.0677 42.1174 21.1674 42.2107 21.2835C42.2632 21.3476 42.3041 21.4234 42.3391 21.4992C42.4149 21.6508 42.4557 21.814 42.4557 21.9954L42.4557 22.0012C42.4557 22.4327 42.2224 22.8052 41.8724 23.0093C41.7032 23.1084 41.4991 23.1673 41.2891 23.1673C41.0791 23.1673 40.8749 23.1084 40.7057 23.0093C40.3557 22.8052 40.1224 22.4327 40.1224 22.0012L40.1224 21.9954ZM23.9578 21.9954C23.9578 21.5639 24.1912 21.1902 24.5412 20.9919C24.7103 20.8928 24.9145 20.8351 25.1245 20.8351C25.3345 20.8351 25.5387 20.8928 25.7079 20.9919C26.052 21.1902 26.2912 21.5639 26.2912 21.9954L26.2912 22.0012C26.2912 22.4327 26.0579 22.8052 25.7079 23.0093C25.5387 23.1084 25.3345 23.1673 25.1245 23.1673C24.9145 23.1673 24.7103 23.1084 24.5412 23.0093C24.1912 22.8052 23.9578 22.4327 23.9578 22.0012L23.9578 21.9954ZM15.8729 21.9954C15.8729 21.5639 16.112 21.1902 16.4562 20.9919C16.6254 20.8928 16.8295 20.8351 17.0396 20.8351C17.2146 20.8351 17.3837 20.8759 17.5296 20.9453C17.5646 20.9575 17.5937 20.9686 17.6229 20.9919C17.9671 21.1902 18.2062 21.5639 18.2062 21.9954L18.2062 22.0012C18.2062 22.1645 18.1712 22.316 18.1129 22.456C18.0721 22.5487 18.0254 22.6361 17.9612 22.7119C17.9321 22.7533 17.9029 22.7877 17.8621 22.8233C17.8271 22.8577 17.7921 22.8933 17.7512 22.9277C17.7104 22.9568 17.6696 22.986 17.6229 23.0093C17.4537 23.1084 17.2496 23.1673 17.0396 23.1673C16.8295 23.1673 16.6254 23.1084 16.4562 23.0093C16.1062 22.8052 15.8729 22.4327 15.8729 22.0012L15.8729 21.9954ZM-0.291679 21.9954C-0.291679 21.814 -0.250845 21.6508 -0.175011 21.4992C-0.140011 21.4234 -0.0991783 21.3476 -0.0466766 21.2835C0.0466576 21.1674 0.163324 21.0677 0.29166 20.9919C0.460829 20.8928 0.664997 20.8351 0.875 20.8351C1.085 20.8351 1.28917 20.8928 1.45834 20.9919C1.58667 21.0677 1.70334 21.1674 1.79667 21.2835C1.84918 21.3476 1.89001 21.4234 1.92501 21.4992C2.00084 21.6508 2.04168 21.814 2.04168 21.9954L2.04168 22.0012C2.04168 22.4327 1.80834 22.8052 1.45834 23.0093C1.28917 23.1084 1.085 23.1673 0.875 23.1673C0.664997 23.1673 0.460829 23.1084 0.29166 23.0093C-0.0583439 22.8052 -0.291679 22.4327 -0.291679 22.0012L-0.291679 21.9954ZM-8.37664 21.9954C-8.37664 21.814 -8.33581 21.6508 -8.25997 21.4992C-8.22497 21.4234 -8.18414 21.3476 -8.13164 21.2835C-8.0383 21.1674 -7.92164 21.0677 -7.7933 20.9919C-7.62413 20.8928 -7.41996 20.8351 -7.20996 20.8351C-6.99996 20.8351 -6.79579 20.8928 -6.62662 20.9919C-6.49829 21.0677 -6.38162 21.1674 -6.28829 21.2835C-6.23578 21.3476 -6.19495 21.4234 -6.15995 21.4992C-6.08412 21.6508 -6.04328 21.814 -6.04328 21.9954L-6.04328 22.0012C-6.04328 22.4327 -6.27662 22.8052 -6.62662 23.0093C-6.79579 23.1084 -6.99996 23.1673 -7.20996 23.1673C-7.41996 23.1673 -7.62413 23.1084 -7.7933 23.0093C-8.1433 22.8052 -8.37664 22.4327 -8.37664 22.0012L-8.37664 21.9954ZM-15.2891 20.8351C-15.0791 20.8351 -14.8749 20.8928 -14.7057 20.9919C-14.3557 21.1902 -14.1224 21.5692 -14.1224 22.0012C-14.1224 22.4327 -14.3557 22.8052 -14.7057 23.0093C-14.8749 23.1084 -15.0791 23.1673 -15.2891 23.1673C-15.4991 23.1673 -15.7032 23.1084 -15.8724 23.0093C-15.9191 22.986 -15.9599 22.9568 -16.0007 22.9277C-16.0416 22.8933 -16.0766 22.8577 -16.1116 22.8233C-16.1524 22.7877 -16.1816 22.7533 -16.2107 22.7119C-16.2749 22.6361 -16.3216 22.5487 -16.3624 22.456C-16.4207 22.316 -16.4557 22.1645 -16.4557 22.0012L-16.4557 21.9954C-16.4557 21.5639 -16.2224 21.1902 -15.8724 20.9919C-15.7907 20.9395 -15.6974 20.8986 -15.5982 20.8759C-15.4991 20.8462 -15.3941 20.8351 -15.2891 20.8351ZM-12.2187 12.8897C-12.0956 12.8308 -11.9661 12.7824 -11.8302 12.7474C-11.9661 12.7824 -12.0944 12.8326 -12.2187 12.8897ZM-10.6632 16.0015C-10.8324 16.1 -11.0366 16.1583 -11.2466 16.1583C-11.4624 16.1583 -11.6666 16.1 -11.8358 16.0015C-11.9308 15.9467 -12.0166 15.8755 -12.093 15.7945C-12.0621 15.8271 -12.0335 15.8621 -11.9991 15.8901C-12.1216 15.791 -12.2208 15.6627 -12.2908 15.517C-12.3258 15.447 -12.3549 15.377 -12.3724 15.3012C-12.3958 15.2021 -12.4133 15.0977 -12.4133 14.9922C-12.4133 14.8873 -12.4016 14.7881 -12.3724 14.6896C-12.3549 14.6138 -12.3258 14.5438 -12.2908 14.4733C-12.2208 14.3392 -12.1274 14.2232 -12.0166 14.124C-11.9583 14.0774 -11.8941 14.0307 -11.8299 13.9952C-11.6608 13.8961 -11.4566 13.8383 -11.2466 13.8383C-11.0366 13.8383 -10.8324 13.8961 -10.6632 13.9952C-10.5991 14.0307 -10.5349 14.0774 -10.4766 14.124C-10.3657 14.2232 -10.2724 14.3392 -10.2024 14.4791C-10.1674 14.5491 -10.1382 14.6191 -10.1207 14.6949C-10.0916 14.7881 -10.0799 14.8873 -10.0799 14.9922C-10.0799 15.0977 -10.0974 15.2021 -10.1207 15.3012C-10.1382 15.377 -10.1674 15.447 -10.2024 15.517C-10.3074 15.7152 -10.4649 15.8901 -10.6632 16.0015ZM-2.5839 12.7474C-2.44798 12.7824 -2.31848 12.8308 -2.1954 12.8897C-2.31907 12.8326 -2.44798 12.7824 -2.5839 12.7474ZM-2.39747 15.8668C-2.45581 15.9199 -2.51998 15.9601 -2.58414 16.0015C-2.75331 16.1 -2.95748 16.1583 -3.16748 16.1583C-3.37748 16.1583 -3.58165 16.1 -3.75082 16.0015C-3.81499 15.9601 -3.87916 15.9199 -3.93749 15.8668C-4.04832 15.7677 -4.14166 15.6511 -4.21166 15.517C-4.24666 15.447 -4.27583 15.377 -4.29333 15.3012C-4.32249 15.2021 -4.33416 15.0977 -4.33416 14.9922C-4.33416 14.8295 -4.29916 14.6774 -4.24083 14.538C-4.13582 14.31 -3.96666 14.1176 -3.75082 13.9952C-3.58165 13.8961 -3.37748 13.8383 -3.16748 13.8383C-2.95748 13.8383 -2.75331 13.8961 -2.58414 13.9952C-2.36831 14.1176 -2.19914 14.31 -2.09414 14.538C-2.0358 14.6774 -2.0008 14.8295 -2.0008 14.9922C-2.0008 15.0977 -2.01247 15.2021 -2.04164 15.3012C-2.05914 15.377 -2.0883 15.447 -2.1233 15.517C-2.1933 15.6511 -2.28664 15.7677 -2.39747 15.8668ZM3.94588 12.8897C4.06897 12.8308 4.19789 12.7824 4.33439 12.7474C4.19847 12.7824 4.07014 12.8326 3.94588 12.8897ZM5.68749 15.8668C5.62915 15.9199 5.56499 15.9601 5.50082 16.0015C5.33165 16.1 5.12748 16.1583 4.91748 16.1583C4.70748 16.1583 4.50331 16.1 4.33414 16.0015C4.26997 15.9601 4.20581 15.9199 4.14747 15.8668C4.03664 15.7677 3.9433 15.6511 3.8733 15.517C3.8383 15.447 3.80914 15.377 3.79164 15.3012C3.76247 15.2021 3.7508 15.0977 3.7508 14.9922C3.7508 14.8295 3.7858 14.6774 3.84414 14.538C3.94914 14.31 4.11831 14.1176 4.33414 13.9952C4.50331 13.8961 4.70748 13.8383 4.91748 13.8383C5.12748 13.8383 5.33165 13.8961 5.50082 13.9952C5.71666 14.1176 5.88582 14.31 5.99082 14.538C6.04916 14.6774 6.08416 14.8295 6.08416 14.9922C6.08416 15.0977 6.07249 15.2021 6.04332 15.3012C6.02583 15.377 5.99666 15.447 5.96166 15.517C5.89165 15.6511 5.79832 15.7677 5.68749 15.8668ZM13.9657 15.6575C13.9657 15.6575 13.9657 15.6627 13.9599 15.6627C13.9191 15.721 13.8782 15.7741 13.8257 15.8201C13.7557 15.8901 13.6741 15.949 13.5866 16.0015C13.4174 16.1 13.2132 16.1583 13.0032 16.1583C12.7932 16.1583 12.5891 16.1 12.4199 16.0015C12.0699 15.7968 11.8366 15.4237 11.8366 14.9922C11.8366 14.8873 11.8482 14.7829 11.8774 14.6838C11.8891 14.6371 11.9066 14.5957 11.9241 14.5491C11.9416 14.5083 11.9591 14.468 11.9824 14.4325C11.9941 14.4033 12.0116 14.38 12.0349 14.3508C12.0407 14.3334 12.0466 14.3223 12.0641 14.3042C12.0757 14.2931 12.0874 14.2756 12.0991 14.2634C12.1166 14.2401 12.1341 14.2167 12.1632 14.1934C12.1617 14.1919 12.1609 14.1907 12.1609 14.1898C12.1609 14.188 12.1635 14.1869 12.1678 14.185C12.1698 14.1842 12.1722 14.1831 12.1749 14.1818C12.1982 14.1532 12.2274 14.124 12.2566 14.1065C12.2799 14.0774 12.3032 14.0593 12.3324 14.0477C12.5249 13.9194 12.7524 13.8383 12.9974 13.8383C13.3066 13.8383 13.5807 13.955 13.7907 14.1474C13.8549 14.2051 13.9132 14.2698 13.9599 14.3456C13.9482 14.3164 13.9307 14.2931 13.9132 14.2698C13.9482 14.31 13.9832 14.3625 14.0066 14.4156C13.9984 14.4033 13.992 14.3922 13.9832 14.38C13.9949 14.4033 14.0124 14.4214 14.0241 14.45C14.0591 14.5147 14.0882 14.5847 14.1116 14.6604C14.1232 14.6896 14.1349 14.7182 14.1349 14.7473C14.1408 14.7537 14.1408 14.7596 14.1408 14.7648C14.1466 14.7998 14.1524 14.8354 14.1582 14.8762C14.1582 14.9164 14.1641 14.9578 14.1641 15.0045L14.1641 15.0453C14.1656 15.056 14.1664 15.0669 14.1664 15.0777C14.1664 15.1072 14.161 15.1361 14.1524 15.1613C14.1524 15.1846 14.1466 15.2079 14.1408 15.2313C14.1349 15.2727 14.1291 15.3071 14.1116 15.3426C14.0999 15.3951 14.0824 15.4417 14.0591 15.4826C14.0299 15.5461 14.0007 15.605 13.9657 15.6575ZM13.7907 14.1474C13.7907 14.144 13.7899 14.1407 13.7883 14.1376C13.8047 14.1495 13.8207 14.1651 13.8316 14.1765C13.8351 14.1801 13.8387 14.1836 13.8422 14.1871C13.8273 14.1731 13.8106 14.1598 13.7907 14.1474ZM13.7674 14.1176C13.7759 14.1223 13.7843 14.1294 13.7883 14.1376C13.7872 14.1367 13.786 14.1359 13.7849 14.1351C13.7791 14.1299 13.7732 14.124 13.7674 14.1176ZM13.8692 14.2151C13.8606 14.2058 13.8515 14.1965 13.8422 14.1871C13.8518 14.1962 13.8607 14.2056 13.8692 14.2151ZM13.8692 14.2151C13.8789 14.2256 13.8879 14.236 13.8957 14.2465C13.8871 14.2359 13.8784 14.2254 13.8692 14.2151ZM21.6651 12.7474C21.8016 12.7824 21.9305 12.8308 22.0536 12.8897C21.9294 12.8326 21.801 12.7824 21.6651 12.7474ZM21.6712 16.0015C21.502 16.1 21.2979 16.1583 21.082 16.1583C20.872 16.1583 20.6679 16.1 20.4987 16.0015C20.3004 15.8901 20.1429 15.7152 20.0379 15.517C20.0029 15.447 19.9737 15.377 19.9562 15.3012C19.9329 15.2021 19.9154 15.0977 19.9154 14.9922C19.9154 14.8295 19.9504 14.6774 20.0087 14.538C20.1137 14.31 20.2829 14.1176 20.4987 13.9952C20.6679 13.8961 20.872 13.8383 21.082 13.8383C21.292 13.8383 21.4962 13.8961 21.6654 13.9952C21.922 14.1409 22.1204 14.3922 22.2079 14.6896C22.237 14.7881 22.2487 14.8873 22.2487 14.9922C22.2487 15.0977 22.2312 15.2021 22.2079 15.3012C22.1904 15.377 22.1612 15.447 22.1262 15.517C22.0562 15.6627 21.957 15.791 21.8345 15.8901C21.8672 15.8635 21.8946 15.8307 21.9238 15.7995C21.8491 15.8784 21.7643 15.9478 21.6712 16.0015ZM28.1957 12.8897C28.3188 12.8308 28.4477 12.7824 28.5836 12.7474C28.4477 12.7824 28.3194 12.8326 28.1957 12.8897ZM29.7503 16.0015C29.5812 16.1 29.377 16.1583 29.167 16.1583C28.957 16.1583 28.7528 16.1 28.5837 16.0015C28.3853 15.8901 28.2278 15.7152 28.1228 15.517C28.0878 15.447 28.0586 15.377 28.0411 15.3012C28.0178 15.2021 28.0003 15.0977 28.0003 14.9922C28.0003 14.8295 28.0353 14.6774 28.0936 14.538C28.117 14.4791 28.1461 14.4214 28.1811 14.3689C28.2861 14.2167 28.4262 14.0885 28.5837 13.9952C28.7528 13.8961 28.957 13.8383 29.167 13.8383C29.377 13.8383 29.5812 13.8961 29.7503 13.9952C29.9662 14.1176 30.1353 14.31 30.2403 14.538C30.2987 14.6774 30.3337 14.8295 30.3337 14.9922C30.3337 15.0977 30.3162 15.2021 30.2928 15.3012C30.2753 15.377 30.2462 15.447 30.2112 15.517C30.1062 15.7152 29.9487 15.8901 29.7503 16.0015ZM36.6628 13.9952C36.8319 13.8961 37.0361 13.8383 37.2461 13.8383C37.4619 13.8383 37.6603 13.8902 37.8294 13.9952C38.1794 14.1934 38.4128 14.5672 38.4128 14.9986L38.4128 15.0045C38.4128 15.1088 38.4011 15.2138 38.3719 15.3135C38.3195 15.5117 38.2086 15.6866 38.0686 15.8266C37.9986 15.8901 37.9228 15.949 37.8353 16.0015C37.6661 16.1 37.4619 16.1583 37.2519 16.1583C37.0361 16.1583 36.8319 16.1 36.6628 16.0015C36.3186 15.7968 36.0853 15.4184 36.0853 14.9922C36.0853 14.9397 36.0911 14.882 36.0969 14.8295C36.1086 14.724 36.1378 14.6249 36.1786 14.5316C36.2136 14.4447 36.2661 14.3625 36.3244 14.2867C36.3536 14.2465 36.3828 14.2109 36.4236 14.1765C36.4936 14.1065 36.5753 14.0477 36.6628 13.9952ZM41.8724 6.98748C42.2224 7.18514 42.4557 7.56471 42.4557 7.99558C42.4557 8.42705 42.2224 8.8002 41.8724 9.00486C41.7032 9.10339 41.4991 9.1617 41.2891 9.1617C41.0791 9.1617 40.8749 9.10339 40.7057 9.00486C40.3557 8.8002 40.1224 8.42705 40.1224 7.99558C40.1224 7.56471 40.3557 7.18514 40.7057 6.98748C40.8749 6.88836 41.0791 6.82947 41.2891 6.82947C41.3999 6.82947 41.4991 6.84172 41.5982 6.87029C41.6974 6.89361 41.7849 6.93501 41.8724 6.98748ZM38.7166 10.1528L39.6266 9.62865C39.6791 9.68113 39.7374 9.7336 39.7957 9.78025C39.8774 9.85021 39.9649 9.91377 40.0524 9.96624C40.0641 9.9779 40.0757 9.98373 40.0932 9.98956C40.1807 10.0485 40.2741 10.1003 40.3732 10.1417C40.6532 10.2578 40.9682 10.3277 41.2891 10.3277C41.9366 10.3277 42.5258 10.0595 42.9516 9.62865L44.7483 10.6601L44.7483 12.7358C44.3674 12.8337 44.0337 13.0308 43.7601 13.2891C43.7549 13.2937 43.7502 13.2967 43.7449 13.3019C43.6808 13.3596 43.6224 13.4185 43.5699 13.4821C43.5583 13.4879 43.5583 13.4943 43.5524 13.5001C43.5408 13.5112 43.5291 13.5287 43.5116 13.5468C43.4124 13.6745 43.3191 13.815 43.2433 13.9608C43.2024 14.0476 43.1674 14.1351 43.1324 14.229C43.0449 14.468 42.9983 14.724 42.9983 14.9922C42.9983 15.2079 43.0274 15.4126 43.0858 15.6108L41.2891 16.6487L39.4982 15.6161C39.5566 15.4184 39.5857 15.2079 39.5857 14.9922C39.5857 13.9083 38.8391 12.9923 37.8357 12.7358L37.8357 10.6601L38.7166 10.1528ZM36.3583 12.8512L36.3595 12.8512L36.3578 12.8518L36.3583 12.8512ZM33.2095 10.3277C33.3728 10.3277 33.5303 10.3108 33.682 10.2811C33.8395 10.2461 33.9853 10.1995 34.1253 10.1417C34.2245 10.1003 34.3178 10.0485 34.4053 9.98956C34.417 9.98373 34.4345 9.9779 34.4462 9.96624C34.5395 9.91377 34.6212 9.85021 34.7028 9.78025C34.7612 9.7336 34.8195 9.68113 34.872 9.62865L36.6687 10.6659L36.6687 12.7358C36.596 12.7542 36.5301 12.7881 36.4604 12.8136C36.4769 12.8076 36.4934 12.8016 36.5098 12.7957C36.4923 12.802 36.4749 12.8085 36.4575 12.8151L36.4581 12.8145C36.4377 12.8221 36.4155 12.8267 36.3945 12.8355C36.3817 12.8401 36.3712 12.846 36.3583 12.8512C36.3274 12.8646 36.2953 12.8763 36.2662 12.8932C36.2137 12.9113 36.167 12.9346 36.1203 12.969C36.0964 12.9783 36.0725 12.9964 36.0486 13.0115L36.0492 13.011L36.048 13.0115L36.0486 13.0115C36.0258 13.025 36.0031 13.0343 35.9803 13.0506C35.9162 13.0862 35.852 13.1328 35.7937 13.1795C35.7062 13.243 35.6245 13.3188 35.5545 13.401C35.5078 13.4477 35.467 13.4943 35.4262 13.5468C35.4087 13.5643 35.397 13.5754 35.3853 13.5934C35.3912 13.5876 35.397 13.5876 35.4028 13.5812C35.397 13.5876 35.3912 13.5934 35.3853 13.5987C35.3737 13.6168 35.3562 13.6401 35.3387 13.6634C35.3095 13.71 35.2803 13.7503 35.2512 13.7969C35.2045 13.8727 35.1578 13.9549 35.1228 14.0418C35.0412 14.2167 34.9887 14.4033 34.9537 14.5957C34.942 14.6663 34.9303 14.7362 34.9245 14.8062C34.9128 14.8697 34.9128 14.9339 34.9128 15.0044C34.9128 15.2137 34.942 15.4236 35.0003 15.6161L33.2095 16.6487L31.4128 15.6108C31.4711 15.4126 31.5003 15.2079 31.5003 14.9922C31.5003 14.724 31.4536 14.468 31.3661 14.229C31.3311 14.1351 31.2961 14.0476 31.2553 13.9608C31.2145 13.8727 31.162 13.7917 31.1153 13.7159C30.8061 13.2372 30.3161 12.8815 29.7503 12.7358L29.7503 10.6601L31.547 9.62865C31.9728 10.0595 32.562 10.3277 33.2095 10.3277ZM32.912 6.87029C32.9586 6.85279 33.0053 6.84696 33.052 6.84172C33.1045 6.83589 33.157 6.82947 33.2095 6.82947C33.4195 6.82947 33.6236 6.88836 33.7928 6.98748C34.1428 7.18514 34.3762 7.56471 34.3762 7.99558C34.3762 8.42705 34.1428 8.8002 33.7928 9.00486C33.6236 9.10339 33.4195 9.1617 33.2095 9.1617C32.9936 9.1617 32.7895 9.10339 32.6203 9.00486C32.492 8.92906 32.3753 8.82994 32.2878 8.7075C32.2236 8.6317 32.177 8.54424 32.1361 8.45037C32.0778 8.31043 32.0428 8.15359 32.0428 7.99558C32.0428 7.55829 32.2761 7.18514 32.6261 6.98748C32.6553 6.96416 32.6845 6.95191 32.7195 6.94083C32.7836 6.90527 32.8478 6.88253 32.912 6.87029ZM23.9578 7.99558C23.9578 7.56471 24.1912 7.18514 24.5412 6.98748C24.7103 6.88836 24.9145 6.82947 25.1245 6.82947C25.3345 6.82947 25.5387 6.88836 25.7079 6.98748C26.0579 7.18514 26.2912 7.56471 26.2912 7.99558C26.2912 8.42705 26.0579 8.8002 25.7079 9.00486C25.5387 9.10339 25.3345 9.1617 25.1245 9.1617C24.9145 9.1617 24.7103 9.10339 24.5412 9.00486C24.1912 8.8002 23.9578 8.42705 23.9578 7.99558ZM25.1245 10.3277C25.772 10.3277 26.3612 10.0595 26.787 9.62865L28.5837 10.6601L28.5837 12.7358C28.3148 12.8021 28.0743 12.9317 27.853 13.0875L27.8529 13.0876L27.8516 13.0885L27.8524 13.0879L27.8514 13.0885L27.8505 13.0891L27.8514 13.0885L27.8516 13.0885C27.8283 13.1048 27.8015 13.1153 27.7787 13.1328L27.6387 13.2372C27.592 13.2728 27.5454 13.313 27.5104 13.3596C27.4695 13.401 27.4287 13.4418 27.3879 13.4879L27.3879 13.4943C27.3295 13.5643 27.277 13.6337 27.2187 13.7159C27.2129 13.727 27.2012 13.7392 27.1954 13.7561C27.1662 13.8028 27.137 13.8558 27.1079 13.9083L27.0904 13.9427C27.0845 13.9485 27.0787 13.9608 27.0787 13.966C27.0729 13.9783 27.067 13.9841 27.067 13.9952C27.0612 14.0074 27.0554 14.0185 27.0495 14.0307C27.0204 14.0943 26.9912 14.1584 26.9679 14.229C26.8804 14.468 26.8337 14.724 26.8337 14.9922C26.8337 15.2079 26.8629 15.4126 26.9212 15.6108L25.1245 16.6487L23.3278 15.6108C23.3862 15.4126 23.4153 15.2079 23.4153 14.9922C23.4153 14.724 23.3687 14.468 23.2812 14.229C23.2578 14.1584 23.2287 14.0943 23.1995 14.0307C23.1995 14.0185 23.1937 14.0074 23.182 13.9952C23.182 13.9841 23.1762 13.9783 23.1703 13.966C23.1703 13.9608 23.1645 13.9485 23.1587 13.9427C23.1528 13.9316 23.147 13.9194 23.1412 13.9083C23.1178 13.8558 23.0887 13.8028 23.0537 13.7561C23.0478 13.7392 23.0362 13.727 23.0303 13.7159C22.9778 13.6337 22.9253 13.5643 22.8612 13.4943L22.8612 13.4879C22.8203 13.4418 22.7795 13.401 22.7387 13.3596C22.7037 13.313 22.657 13.2728 22.6103 13.2372C22.5637 13.2028 22.517 13.1672 22.4703 13.1328C22.4452 13.1142 22.4161 13.1019 22.3904 13.0844C22.1705 12.9299 21.9325 12.8016 21.6653 12.7358L21.6653 10.6601L23.462 9.62865C23.8878 10.0595 24.477 10.3277 25.1245 10.3277ZM16.8529 6.84696C16.917 6.83589 16.9754 6.82947 17.0396 6.82947C17.092 6.82947 17.1446 6.83589 17.1971 6.84172C17.2437 6.84696 17.2904 6.85279 17.3371 6.87029C17.4012 6.88253 17.4654 6.90527 17.5296 6.94083C17.5529 6.94608 17.5762 6.95833 17.5996 6.97524C17.6112 6.97524 17.6171 6.98165 17.6229 6.98748C17.6579 7.00497 17.6871 7.02829 17.7221 7.05103C17.7512 7.06852 17.7746 7.09185 17.8037 7.11517C17.8679 7.16764 17.9262 7.23236 17.9787 7.30233C18.0021 7.3309 18.0254 7.36588 18.0429 7.40145C18.1479 7.57578 18.2062 7.77402 18.2062 7.99558C18.2062 8.0778 18.2004 8.15359 18.1829 8.22881C18.1771 8.2702 18.1654 8.3046 18.1537 8.346C18.1304 8.41597 18.1012 8.48594 18.0662 8.55532C18.0312 8.60838 18.0021 8.66085 17.9612 8.7075C17.9379 8.74773 17.9029 8.78329 17.8621 8.81769C17.8271 8.85909 17.7921 8.88766 17.7512 8.92323C17.7104 8.95238 17.6696 8.98153 17.6287 9.00486C17.4596 9.10339 17.2554 9.1617 17.0396 9.1617C16.8295 9.1617 16.6254 9.10339 16.4562 9.00486C16.1062 8.8002 15.8729 8.42705 15.8729 7.99558C15.8729 7.94311 15.8787 7.89063 15.8845 7.83874C15.8904 7.77402 15.9079 7.7163 15.9254 7.65741C15.9429 7.58161 15.972 7.51165 16.0129 7.44809C16.0362 7.40145 16.0595 7.35422 16.0945 7.31341C16.1295 7.26093 16.1704 7.21429 16.217 7.17406C16.2404 7.14432 16.2695 7.121 16.2987 7.09768C16.322 7.07436 16.3512 7.05745 16.3745 7.03937C16.4037 7.02188 16.427 7.00497 16.4562 6.98748C16.532 6.94083 16.6195 6.90527 16.707 6.88253C16.7537 6.86504 16.8062 6.85279 16.8529 6.84696ZM15.377 9.62865C15.3946 9.64556 15.4179 9.66305 15.4354 9.68113C15.4412 9.68637 15.4529 9.69804 15.4646 9.70445C15.5579 9.79132 15.6629 9.87937 15.7737 9.94933C15.8204 9.98373 15.8671 10.0129 15.9196 10.0362C15.9837 10.077 16.0537 10.1062 16.1237 10.1417C16.2637 10.1995 16.4096 10.2461 16.5671 10.2811C16.7187 10.3108 16.8762 10.3277 17.0396 10.3277C17.6871 10.3277 18.2762 10.0595 18.7021 9.62865L20.4988 10.6601L20.4988 12.7358C20.1902 12.8156 19.9131 12.9655 19.6698 13.1579C19.6553 13.169 19.6378 13.1783 19.6238 13.1905C19.6144 13.1981 19.6051 13.2086 19.5946 13.2162C19.5619 13.2442 19.5287 13.2716 19.4972 13.3019C19.4931 13.3054 19.4878 13.3083 19.4838 13.313C19.4371 13.3544 19.3963 13.3952 19.3613 13.4418C19.3233 13.4745 19.2971 13.5066 19.2749 13.5392L19.2749 13.5386L19.2743 13.5392L19.2749 13.5392C19.2732 13.5415 19.2697 13.5439 19.2679 13.5468C19.2213 13.5987 19.1804 13.657 19.1338 13.7159C19.0871 13.7917 19.0346 13.8727 18.9938 13.9608C18.9529 14.0476 18.9179 14.1351 18.8829 14.229C18.7954 14.468 18.7487 14.724 18.7487 14.9922C18.7487 15.2079 18.7779 15.4126 18.8363 15.6108L17.0396 16.6487L15.2487 15.6161C15.307 15.4184 15.3362 15.2079 15.3362 14.9922C15.3362 13.9083 14.5895 12.9923 13.5862 12.7358L13.5862 10.6601L15.377 9.62865ZM7.79377 7.99558C7.79377 7.94311 7.7996 7.89063 7.80544 7.83874C7.81127 7.77985 7.82294 7.72155 7.84044 7.66383C7.8521 7.62826 7.86377 7.59386 7.87544 7.56471L7.91044 7.49474C7.9221 7.45334 7.94544 7.41894 7.96877 7.38338C8.02127 7.2965 8.08544 7.21429 8.16127 7.15074C8.17877 7.13324 8.19627 7.11517 8.21961 7.09768C8.27211 7.05745 8.32461 7.01605 8.37711 6.98748C8.54628 6.88836 8.74461 6.82947 8.96045 6.82947C9.17045 6.82947 9.37462 6.88836 9.54379 6.98748C9.59629 7.01605 9.64879 7.05745 9.70129 7.09768C9.72462 7.11517 9.74212 7.13324 9.75962 7.15074C9.83546 7.21429 9.89962 7.2965 9.95213 7.38338C9.97546 7.41894 9.99879 7.45334 10.0105 7.49474L10.0455 7.56471C10.0571 7.59386 10.0688 7.62826 10.0805 7.66383C10.098 7.72155 10.1096 7.77985 10.1155 7.83874C10.1213 7.89063 10.1271 7.94311 10.1271 7.99558C10.1271 8.42705 9.89379 8.8002 9.54379 9.00486C9.37462 9.10339 9.17045 9.1617 8.96045 9.1617C8.75045 9.1617 8.54628 9.10339 8.37711 9.00486C8.02711 8.8002 7.79377 8.42705 7.79377 7.99558ZM8.95996 10.3277C9.2808 10.3277 9.5958 10.2578 9.8758 10.1417C9.9458 10.112 10.0158 10.077 10.08 10.0362C10.1441 10.0018 10.2141 9.96041 10.2725 9.92018C10.3658 9.85604 10.4533 9.78549 10.535 9.70445C10.5641 9.68113 10.5933 9.6578 10.6225 9.62865L12.4192 10.6659L12.4192 12.7358C12.0342 12.8355 11.6783 13.0337 11.3983 13.3019C11.3575 13.3363 11.3225 13.3777 11.2817 13.4185C10.9841 13.7444 10.78 14.1473 10.7041 14.5957C10.675 14.7304 10.6633 14.8639 10.6633 15.0044C10.6633 15.2137 10.6925 15.4236 10.7508 15.6161L8.95996 16.6487L7.16328 15.6108C7.22161 15.4126 7.25078 15.2079 7.25078 14.9922C7.25078 14.724 7.20411 14.468 7.11661 14.229C7.08161 14.1351 7.04661 14.0476 7.00578 13.9608C6.92994 13.815 6.83661 13.6745 6.73744 13.5468C6.71994 13.5287 6.70827 13.5112 6.69661 13.5001C6.69077 13.4943 6.69077 13.4879 6.6791 13.4821C6.67677 13.4792 6.67327 13.4762 6.67094 13.4739C6.62019 13.4133 6.56535 13.3567 6.5041 13.3019C6.49885 13.2967 6.49419 13.2937 6.48952 13.2891C6.21593 13.0308 5.88168 12.8337 5.50076 12.7358L5.50076 10.6601L7.29744 9.62865C7.72328 10.0595 8.31245 10.3277 8.95996 10.3277ZM6.67094 13.4739C6.67152 13.4745 6.6721 13.4751 6.6721 13.4757C6.67035 13.4733 6.66744 13.471 6.66569 13.4687L6.67094 13.4739ZM-0.291679 7.99558C-0.291679 7.94311 -0.285847 7.89063 -0.280012 7.83874C-0.274179 7.77985 -0.262512 7.72155 -0.245012 7.66383C-0.233345 7.62826 -0.221678 7.59386 -0.210012 7.56471L-0.175011 7.49474C-0.163345 7.45334 -0.140011 7.41894 -0.116678 7.38338C-0.0641766 7.2965 -9.53674e-06 7.21429 0.0758247 7.15074C0.0933247 7.13324 0.110825 7.11517 0.134159 7.09768C0.186659 7.05745 0.239159 7.01605 0.29166 6.98748C0.460829 6.88836 0.664997 6.82947 0.875 6.82947C1.085 6.82947 1.28917 6.88836 1.45834 6.98748C1.51084 7.01605 1.56334 7.05745 1.61584 7.09768C1.63917 7.11517 1.65667 7.13324 1.67417 7.15074C1.75001 7.21429 1.81417 7.2965 1.86668 7.38338C1.89001 7.41894 1.91334 7.45334 1.92501 7.49474L1.96001 7.56471C1.97168 7.59386 1.98334 7.62826 1.99501 7.66383C2.01251 7.72155 2.02418 7.77985 2.03001 7.83874C2.03584 7.89063 2.04168 7.94311 2.04168 7.99558C2.04168 8.42705 1.80834 8.8002 1.45834 9.00486C1.28917 9.10339 1.085 9.1617 0.875 9.1617C0.664997 9.1617 0.460829 9.10339 0.29166 9.00486C-0.0583439 8.8002 -0.291679 8.42705 -0.291679 7.99558ZM-0.787518 9.62865C-0.75835 9.6578 -0.729183 9.68113 -0.700016 9.70445C-0.618349 9.78549 -0.530848 9.85604 -0.437513 9.92018C-0.379179 9.96041 -0.309179 10.0018 -0.24501 10.0362C-0.180843 10.077 -0.110844 10.112 -0.0408421 10.1417C0.239161 10.2578 0.554163 10.3277 0.875 10.3277C1.52251 10.3277 2.11168 10.0595 2.53752 9.62865L4.3342 10.6601L4.3342 12.7358C4.06703 12.8016 3.82903 12.9299 3.60911 13.0844C3.58344 13.1019 3.55428 13.1142 3.52919 13.1328C3.48253 13.1672 3.43586 13.2028 3.38919 13.2372C3.34253 13.2728 3.29586 13.313 3.26086 13.3596C3.22002 13.401 3.17919 13.4418 3.13836 13.4879L3.13836 13.4943C3.08002 13.5643 3.02752 13.6337 2.96919 13.7159C2.96335 13.727 2.95169 13.7392 2.94585 13.7561C2.91669 13.8028 2.88752 13.8558 2.85835 13.9083L2.84085 13.9427C2.83502 13.9485 2.82919 13.9608 2.82919 13.966C2.82335 13.9783 2.81752 13.9841 2.81752 13.9952L2.80002 14.0307C2.77085 14.0943 2.74169 14.1584 2.71835 14.229C2.63085 14.468 2.58418 14.724 2.58418 14.9922C2.58418 15.2079 2.61335 15.4126 2.67168 15.6108L0.875 16.6487L-0.921684 15.6108C-0.863352 15.4126 -0.834185 15.2079 -0.834185 14.9922C-0.834185 14.724 -0.880852 14.468 -0.968351 14.229C-0.991686 14.1584 -1.02085 14.0943 -1.05002 14.0307C-1.05002 14.0185 -1.05585 14.0074 -1.06752 13.9952C-1.06752 13.9841 -1.07335 13.9783 -1.07919 13.966C-1.07919 13.9608 -1.08502 13.9485 -1.09085 13.9427L-1.10835 13.9083C-1.13169 13.8558 -1.16085 13.8028 -1.19585 13.7561C-1.20169 13.7392 -1.21335 13.727 -1.21919 13.7159C-1.27169 13.6337 -1.32419 13.5643 -1.38836 13.4943L-1.38836 13.4879C-1.42919 13.4418 -1.47002 13.401 -1.51086 13.3596C-1.54586 13.313 -1.59253 13.2728 -1.63919 13.2372L-1.77919 13.1328C-1.80194 13.1153 -1.82878 13.1048 -1.85211 13.0885L-1.85184 13.0885L-1.85094 13.0891L-1.85184 13.0885L-1.85283 13.0879L-1.85211 13.0885L-1.85341 13.0876L-1.8535 13.0875C-2.07479 12.9317 -2.31526 12.8021 -2.5842 12.7358L-2.5842 10.6601L-0.787518 9.62865ZM-7.20995 10.3277C-6.56244 10.3277 -5.97327 10.0595 -5.54743 9.62865L-3.75075 10.6601L-3.75075 12.7358C-4.13167 12.8337 -4.46592 13.0308 -4.73892 13.2891C-4.74417 13.2937 -4.74884 13.2967 -4.75409 13.3019C-4.81826 13.3596 -4.87659 13.4185 -4.92909 13.4821C-4.94076 13.4879 -4.94076 13.4943 -4.94659 13.5001C-4.95826 13.5112 -4.96992 13.5287 -4.98742 13.5468C-5.08659 13.6745 -5.17993 13.815 -5.25576 13.9608C-5.2966 14.0476 -5.3316 14.1351 -5.3666 14.229C-5.4541 14.468 -5.50076 14.724 -5.50076 14.9922C-5.50076 15.2079 -5.4716 15.4184 -5.41326 15.6161L-7.20411 16.6487L-8.99497 15.6108C-8.97747 15.5642 -8.9658 15.5117 -8.95997 15.4592C-8.95413 15.4126 -8.94247 15.3595 -8.93663 15.307C-8.91913 15.2021 -8.9133 15.0977 -8.9133 14.9922C-8.9133 14.724 -8.95997 14.468 -9.04747 14.229C-9.08247 14.1351 -9.11747 14.0476 -9.1583 13.9608C-9.19913 13.8727 -9.25164 13.7917 -9.2983 13.7159C-9.34497 13.657 -9.3858 13.5987 -9.43247 13.5468C-9.4558 13.5112 -9.48497 13.4762 -9.5258 13.4418C-9.56081 13.3952 -9.60164 13.3544 -9.64831 13.313C-9.65239 13.3089 -9.65706 13.306 -9.66114 13.3019C-9.69264 13.2722 -9.72589 13.2448 -9.75856 13.2168C-9.76847 13.2086 -9.77839 13.1981 -9.78831 13.1905C-9.80289 13.1783 -9.82039 13.169 -9.83497 13.1567C-10.0788 12.9655 -10.3553 12.8156 -10.6633 12.7358L-10.6633 10.6601L-8.87247 9.62865C-8.44663 10.0595 -7.85745 10.3277 -7.20995 10.3277ZM-6.04327 7.99558C-6.04327 8.21132 -6.1016 8.41597 -6.20077 8.58505C-6.24744 8.67193 -6.31161 8.75414 -6.38744 8.82352C-6.45744 8.89349 -6.53911 8.95238 -6.62661 9.00486C-6.79578 9.10339 -6.99994 9.1617 -7.20995 9.1617C-7.41995 9.1617 -7.62412 9.10339 -7.79329 9.00486C-7.88079 8.95238 -7.95662 8.89349 -8.02662 8.82352C-8.04996 8.8002 -8.07329 8.77746 -8.09662 8.74773C-8.12579 8.71857 -8.14912 8.68417 -8.17246 8.64861C-8.19579 8.61946 -8.21329 8.59089 -8.23079 8.55532C-8.27163 8.49177 -8.30079 8.4218 -8.31829 8.346C-8.33579 8.31043 -8.34163 8.27603 -8.34746 8.23464C-8.35913 8.20024 -8.36496 8.15884 -8.36496 8.11803C-8.37079 8.0778 -8.37079 8.0364 -8.37079 7.99558L-8.37079 7.98975C-8.37079 7.87956 -8.35913 7.77985 -8.32996 7.68073C-8.31829 7.62826 -8.30079 7.58161 -8.27746 7.53497C-8.25412 7.46559 -8.21329 7.40145 -8.17246 7.33673C-8.13162 7.27318 -8.07912 7.21429 -8.02662 7.16764C-7.95662 7.09185 -7.88079 7.03412 -7.79329 6.98748C-7.62412 6.88836 -7.41995 6.82947 -7.20995 6.82947C-6.99411 6.82947 -6.79578 6.88836 -6.62661 6.98748C-6.53911 7.03937 -6.45744 7.09768 -6.38744 7.16764C-6.31161 7.23236 -6.24744 7.31341 -6.20077 7.40145C-6.1016 7.57578 -6.04327 7.77985 -6.04327 7.99558ZM-16.4557 7.99558C-16.4557 7.55829 -16.2224 7.18514 -15.8724 6.98748C-15.7032 6.88253 -15.5049 6.82947 -15.2891 6.82947C-15.0791 6.82947 -14.8749 6.88836 -14.7057 6.98748C-14.3557 7.18514 -14.1224 7.56471 -14.1224 7.99558C-14.1224 8.42705 -14.3557 8.8002 -14.7057 9.00486C-14.8749 9.10339 -15.0791 9.1617 -15.2891 9.1617C-15.5049 9.1617 -15.7091 9.10339 -15.8782 9.00486C-16.0066 8.92906 -16.1232 8.82994 -16.2107 8.7075C-16.2749 8.6317 -16.3216 8.54424 -16.3624 8.45037C-16.4207 8.31043 -16.4557 8.15359 -16.4557 7.99558ZM-18.7483 10.6601L-16.9516 9.62865C-16.5257 10.0595 -15.9366 10.3277 -15.2891 10.3277C-15.1257 10.3277 -14.9682 10.3108 -14.8166 10.2811C-14.6591 10.2461 -14.5132 10.1995 -14.3732 10.1417C-14.3032 10.1062 -14.2332 10.077 -14.1691 10.0362C-14.1166 10.0129 -14.0699 9.98373 -14.0232 9.94933C-13.9124 9.87937 -13.8074 9.79132 -13.714 9.70445C-13.7024 9.69804 -13.6907 9.68637 -13.6849 9.68113C-13.6674 9.66305 -13.644 9.64556 -13.6265 9.62865L-12.0749 10.5201L-11.8299 10.6601L-11.8299 12.7358C-12.0992 12.8022 -12.34 12.9321 -12.5615 13.0876L-12.562 13.0879C-12.5853 13.1048 -12.6115 13.1153 -12.6349 13.1328C-12.6815 13.1672 -12.7282 13.2028 -12.7749 13.2372C-12.8215 13.2728 -12.8682 13.313 -12.9032 13.3596C-12.944 13.401 -12.9849 13.4418 -13.0257 13.4879L-13.0257 13.4943C-13.084 13.5643 -13.1365 13.6337 -13.1949 13.7159C-13.2007 13.727 -13.2124 13.7392 -13.2182 13.7561C-13.2474 13.8028 -13.2765 13.8558 -13.3057 13.9083L-13.3232 13.9427C-13.329 13.9485 -13.3349 13.9608 -13.3349 13.966C-13.3407 13.9783 -13.3465 13.9841 -13.3465 13.9952L-13.364 14.0307C-13.3932 14.0943 -13.4224 14.1584 -13.4457 14.229C-13.5332 14.468 -13.5799 14.724 -13.5799 14.9922C-13.5799 15.2079 -13.5507 15.4126 -13.4924 15.6108L-15.2891 16.6487L-17.0857 15.6161C-17.0274 15.4184 -16.9982 15.2202 -16.9982 15.0044C-16.9982 13.9194 -17.7391 13.0045 -18.7483 12.7474L-18.7483 10.6601ZM-12.562 13.0879L-12.5615 13.0876L-12.5596 13.0868C-12.5601 13.0872 -12.561 13.0877 -12.562 13.0882L-12.562 13.0879ZM-12.5625 13.0885L-12.562 13.0882L-12.5625 13.0885ZM-9.54324 22.0012C-9.54324 22.2169 -9.51408 22.4204 -9.45574 22.6186L-11.2466 23.6565L-11.2524 23.6565L-13.0433 22.6186C-12.9849 22.4204 -12.9558 22.2169 -12.9558 22.0012C-12.9558 20.9161 -13.7025 20.0013 -14.7058 19.7442L-14.7058 17.6691L-12.9091 16.6365C-12.4833 17.0685 -11.8941 17.3367 -11.2466 17.3367C-10.5991 17.3367 -10.0099 17.0685 -9.58408 16.6365L-7.79323 17.6691L-7.79323 19.7442C-8.79657 20.0013 -9.54324 20.9161 -9.54324 22.0012ZM-1.3708 22.6186L-3.16748 23.6565L-4.96416 22.6186C-4.90583 22.4204 -4.87667 22.2169 -4.87667 22.0012C-4.87667 20.9161 -5.61751 20.0013 -6.62668 19.7442L-6.62668 17.6691L-4.83 16.6312C-4.40999 17.0685 -3.81499 17.3367 -3.16748 17.3367C-2.51997 17.3367 -1.9308 17.0685 -1.50496 16.6365L0.291721 17.6691L0.291721 19.7442C-0.717457 20.0013 -1.4583 20.9161 -1.4583 22.0012C-1.4583 22.2169 -1.42913 22.4204 -1.3708 22.6186ZM6.62083 22.0012C6.62083 22.2169 6.65 22.4262 6.70833 22.625L4.91748 23.6565L3.1208 22.6186C3.17913 22.4204 3.2083 22.2169 3.2083 22.0012C3.2083 20.9161 2.46162 20.0013 1.45828 19.7442L1.45828 17.6691L3.25496 16.6365C3.6808 17.0685 4.26997 17.3367 4.91748 17.3367C5.56499 17.3367 6.15999 17.0685 6.58 16.6312L8.37668 17.6691L8.37668 19.7442L8.37085 19.7442C7.74084 19.9016 7.21584 20.322 6.9125 20.8759C6.86583 20.9575 6.825 21.0444 6.79 21.1318C6.67916 21.4 6.62083 21.6974 6.62083 22.0012ZM7.9916 22.6542C7.96827 22.6251 7.95077 22.5953 7.93327 22.5609C7.8866 22.4851 7.85744 22.3918 7.8341 22.3102C7.81077 22.2105 7.79327 22.1056 7.79327 22.0012C7.79327 21.9487 7.7991 21.8962 7.7991 21.8496C7.80494 21.7965 7.8166 21.7505 7.82827 21.7038C7.8341 21.6974 7.8341 21.6916 7.83994 21.6805C7.8516 21.6391 7.8691 21.5925 7.88077 21.5517L7.88077 21.5458C7.89827 21.505 7.9216 21.4648 7.94494 21.4234C7.9566 21.3948 7.97411 21.3715 7.9916 21.3476C8.00327 21.3243 8.01494 21.3068 8.03827 21.2835C8.03827 21.2776 8.04994 21.2665 8.05577 21.2601C8.07911 21.231 8.10827 21.2077 8.13161 21.1785C8.15494 21.1499 8.18411 21.1266 8.21328 21.1033C8.22494 21.091 8.23661 21.08 8.24828 21.0741C8.28328 21.0508 8.32411 21.0275 8.35911 21.0042C8.40578 20.9686 8.45828 20.9453 8.51078 20.9284C8.54578 20.9103 8.58661 20.8928 8.62161 20.887C8.66245 20.8695 8.70328 20.8637 8.74411 20.8584C8.81411 20.8403 8.88411 20.8351 8.95412 20.8351C9.15828 20.8351 9.35078 20.887 9.51412 20.9809C9.55495 21.0042 9.59579 21.0275 9.63662 21.0561C9.67162 21.08 9.71246 21.1085 9.74746 21.1441C9.78246 21.1733 9.81746 21.2077 9.84079 21.2432C9.87579 21.2776 9.89912 21.3132 9.92829 21.3534C9.94579 21.3715 9.95746 21.3948 9.96329 21.4181C10.01 21.4881 10.045 21.5692 10.0683 21.6508C10.0858 21.7207 10.1091 21.7965 10.115 21.8729C10.1208 21.8962 10.1208 21.9132 10.1208 21.9365L10.1208 22.0012C10.1208 22.0531 10.115 22.1056 10.1091 22.158C10.1033 22.2047 10.0975 22.2513 10.08 22.298C10.08 22.316 10.0741 22.3335 10.0683 22.3505C10.0508 22.4262 10.0216 22.4962 9.98079 22.5609C9.96329 22.5895 9.94579 22.6251 9.92246 22.6542C9.89912 22.6886 9.87579 22.7178 9.84663 22.7533C9.82329 22.7767 9.79996 22.8052 9.77662 22.8291C9.74162 22.87 9.70662 22.8991 9.66579 22.9277C9.62495 22.9568 9.58412 22.986 9.53745 23.0093C9.36829 23.1084 9.16412 23.1673 8.95412 23.1673C8.74411 23.1673 8.53994 23.1084 8.37078 23.0093C8.28328 22.9568 8.20744 22.9044 8.13744 22.8291C8.08494 22.7767 8.03827 22.7178 7.9916 22.6542ZM14.7063 22.0012C14.7063 22.2169 14.7354 22.4204 14.7938 22.6186L12.9971 23.6565L11.2062 22.625C11.2646 22.4262 11.2937 22.2169 11.2937 22.0012C11.2937 21.6974 11.2354 21.4059 11.1246 21.1377C11.0954 21.0677 11.0662 21.0041 11.0371 20.9394C10.9671 20.8117 10.8912 20.6893 10.8096 20.5779C10.7629 20.5202 10.7162 20.4677 10.6696 20.4153C10.3721 20.094 9.98122 19.8613 9.54372 19.7442L9.54372 17.6691L11.3346 16.6365C11.7604 17.0685 12.3496 17.3367 12.9971 17.3367C13.6446 17.3367 14.2338 17.0685 14.6596 16.6365L16.4563 17.6691L16.4563 19.7442C15.4529 20.0013 14.7063 20.9161 14.7063 22.0012ZM22.8787 22.6186L21.082 23.6565L19.2853 22.6186C19.3437 22.4204 19.3728 22.2169 19.3728 22.0012C19.3728 20.9161 18.632 20.0013 17.6228 19.7442L17.6228 17.6691L19.4195 16.6365C19.8454 17.0685 20.4345 17.3367 21.082 17.3367C21.7295 17.3367 22.3187 17.0685 22.7445 16.6365L24.5412 17.6691L24.5412 19.7442C23.5321 20.0013 22.7912 20.9161 22.7912 22.0012C22.7912 22.2169 22.8204 22.4204 22.8787 22.6186ZM31.4945 20.4153C31.4478 20.4677 31.4012 20.5202 31.3545 20.5779C31.2728 20.6893 31.197 20.8117 31.127 20.9394C31.092 21.0041 31.0628 21.0677 31.0395 21.1377C30.9287 21.4059 30.8703 21.6974 30.8703 22.0012C30.8703 22.2169 30.8995 22.4262 30.9578 22.625L29.167 23.6565L27.3703 22.6186C27.4286 22.4204 27.4578 22.2169 27.4578 22.0012C27.4578 21.663 27.3878 21.3359 27.2536 21.0508C27.1486 20.817 27.0086 20.6012 26.8336 20.4153C26.5361 20.094 26.1453 19.8555 25.7078 19.7442L25.7078 17.6691L27.5045 16.6365C27.9303 17.0685 28.5195 17.3367 29.167 17.3367C29.8145 17.3367 30.4037 17.0685 30.8295 16.6365L32.6262 17.6691L32.6262 19.7442L32.6204 19.7442C32.1829 19.8555 31.7979 20.094 31.4945 20.4153ZM32.0719 22.2747C32.07 22.2747 32.0694 22.2741 32.0694 22.2733C32.0694 22.2717 32.0719 22.2694 32.0719 22.2694C32.0544 22.1814 32.0428 22.0945 32.0428 22.0012C32.0428 21.8898 32.0544 21.7849 32.0836 21.6863C32.0953 21.6339 32.1128 21.5872 32.1361 21.5406C32.1945 21.4001 32.282 21.2724 32.387 21.1733C32.457 21.0975 32.5328 21.0386 32.6203 20.9919C32.6845 20.9517 32.7545 20.922 32.8303 20.8986C32.8595 20.887 32.8828 20.8817 32.912 20.8759C33.0053 20.8462 33.1045 20.8351 33.2036 20.8351C33.4195 20.8351 33.6178 20.887 33.787 20.9919C33.8745 21.0444 33.9561 21.1033 34.0261 21.1733C34.102 21.2368 34.1661 21.319 34.2128 21.4059C34.2595 21.4934 34.3003 21.5872 34.3295 21.6863C34.3528 21.7849 34.3703 21.884 34.3703 21.9954L34.3703 22.0012C34.3703 22.2105 34.312 22.4152 34.2128 22.5895C34.137 22.7178 34.0378 22.8291 33.9211 22.9277C33.8803 22.951 33.8395 22.9802 33.7928 23.0093C33.6236 23.1084 33.4195 23.1673 33.2036 23.1673C32.9936 23.1673 32.7895 23.1084 32.6203 23.0093C32.5795 22.986 32.5328 22.9568 32.492 22.9277C32.387 22.8466 32.2936 22.7475 32.2295 22.6361C32.1595 22.5254 32.1069 22.4029 32.0719 22.2747ZM38.9553 22.0012C38.9553 22.2169 38.9845 22.4204 39.0428 22.6186L37.2461 23.6565L35.4553 22.625C35.5136 22.4262 35.5428 22.2169 35.5428 22.0012C35.5428 21.6974 35.4844 21.4 35.3736 21.1318C35.3386 21.0444 35.2978 20.9575 35.2511 20.8759C34.9419 20.322 34.4227 19.908 33.7927 19.7442L33.7927 17.6691L35.5836 16.6312L35.5894 16.6312C36.0036 17.0685 36.5986 17.3367 37.2461 17.3367C37.8936 17.3367 38.4828 17.0685 38.9086 16.6365L40.7053 17.6691L40.7053 19.7442C39.702 20.0013 38.9553 20.9161 38.9553 22.0012ZM41.8723 3.66341L43.669 2.62557C44.089 3.06286 44.684 3.33107 45.3315 3.33107C45.979 3.33107 46.5682 3.06286 46.9941 2.63198L48.7907 3.66341L48.7907 5.73909C47.7874 5.99563 47.0407 6.91161 47.0407 7.99552C47.0407 8.21125 47.0699 8.4159 47.1282 8.61414L45.3315 9.65198L43.5349 8.61414C43.5932 8.4159 43.6224 8.21125 43.6224 7.99552C43.6224 6.91161 42.8815 5.99563 41.8723 5.73909L41.8723 3.66341ZM44.1649 0.99305C44.1649 0.561588 44.404 0.188432 44.7482 -0.00922418C44.9174 -0.108344 45.1215 -0.167232 45.3315 -0.167232C45.5415 -0.167232 45.7457 -0.108344 45.9149 -0.00922418C46.259 0.188432 46.4982 0.561588 46.4982 0.99305L46.4982 0.99888C46.4982 1.43034 46.2649 1.8035 45.9149 2.00815C45.7457 2.10669 45.5415 2.16499 45.3315 2.16499C45.1215 2.16499 44.9174 2.10669 44.7482 2.00815C44.3982 1.8035 44.1649 1.43034 44.1649 0.99888L44.1649 0.99305ZM50.5407 7.98975L50.5407 7.99558C50.5407 8.42705 50.3074 8.8002 49.9574 9.00486C49.7882 9.10339 49.584 9.1617 49.374 9.1617C49.164 9.1617 48.9599 9.10339 48.7907 9.00486C48.4407 8.8002 48.2073 8.42705 48.2073 7.99558L48.2073 7.98975C48.2073 7.55829 48.4465 7.18514 48.7907 6.98748C48.9599 6.88836 49.164 6.82947 49.374 6.82947C49.584 6.82947 49.7882 6.88836 49.9574 6.98748C50.3015 7.18514 50.5407 7.55829 50.5407 7.98975ZM51.62 8.61415L53.4167 9.65199L54 9.98958L54 15.3245L49.9575 17.6568L49.9575 22.3335L45.9149 24.6657L45.9149 29.3301L41.289 32L38.909 30.6298C38.4832 31.0618 37.894 31.33 37.2465 31.33C36.599 31.33 36.0098 31.0618 35.584 30.6298L33.204 32L30.8239 30.6245C30.4098 31.0618 29.8148 31.33 29.1672 31.33C28.5197 31.33 27.9306 31.0618 27.5047 30.6298L25.1247 32L22.7447 30.6298C22.3188 31.0618 21.7297 31.33 21.0822 31.33C20.4347 31.33 19.8455 31.0618 19.4196 30.6298L17.0396 32L14.6596 30.6298C14.2338 31.0618 13.6446 31.33 12.9971 31.33C12.3496 31.33 11.7546 31.0618 11.3346 30.6245L8.95454 32L6.58035 30.6298C6.15451 31.0618 5.56534 31.33 4.91784 31.33C4.27033 31.33 3.68115 31.0618 3.25532 30.6298L0.875292 32L-1.50473 30.6298C-1.93057 31.0618 -2.51974 31.33 -3.16725 31.33C-3.81475 31.33 -4.40393 31.0618 -4.82977 30.6298L-7.20979 32L-9.58981 30.6298C-10.0156 31.0618 -10.6048 31.33 -11.2523 31.33C-11.8998 31.33 -12.489 31.0618 -12.9148 30.6298L-15.289 32L-17.6691 30.6245C-18.0891 31.0618 -18.6841 31.33 -19.3316 31.33C-19.9791 31.33 -20.5683 31.0618 -20.9941 30.6298L-23.3741 32L-28 29.3301L-28 23.9952L-25.62 22.6186C-25.6783 22.4203 -25.7075 22.2169 -25.7075 22.0011C-25.7075 20.9161 -24.9666 20.0012 -23.9575 19.7441L-23.9575 16.9985L-21.5774 15.6219C-21.6358 15.4237 -21.6649 15.2202 -21.6649 15.0044C-21.6649 13.9194 -20.9241 13.0046 -19.9149 12.7474L-19.9149 10.6601L-23.9575 8.32787L-23.9575 2.9929L-21.5774 1.61747C-21.6358 1.41923 -21.6649 1.21458 -21.6649 0.998851C-21.6649 -0.0850503 -20.9241 -1.00103 -19.9149 -1.25758C-19.7282 -1.31005 -19.5357 -1.33337 -19.3316 -1.33337C-19.1274 -1.33337 -18.9349 -1.31005 -18.7482 -1.25758C-17.7391 -1.00103 -16.9982 -0.0850503 -16.9982 0.998851C-16.9982 1.21458 -17.0274 1.41923 -17.0857 1.61747L-15.289 2.65531L-13.4924 1.61747C-13.5507 1.41923 -13.5799 1.21458 -13.5799 0.998851C-13.5799 -0.0850503 -12.839 -1.00103 -11.8298 -1.25758C-11.6432 -1.31005 -11.4507 -1.33337 -11.2465 -1.33337C-11.0423 -1.33337 -10.8498 -1.31005 -10.6632 -1.25758C-9.65981 -1.00103 -8.91314 -0.0850503 -8.91314 0.998851C-8.91314 1.21458 -8.94231 1.42507 -9.00064 1.62272L-7.20979 2.65531L-5.4131 1.61747C-5.47144 1.41923 -5.5006 1.21458 -5.5006 0.998851C-5.5006 -0.0850503 -4.75393 -1.00103 -3.75059 -1.25758C-3.56392 -1.31005 -3.37142 -1.33337 -3.16725 -1.33337C-2.96308 -1.33337 -2.77058 -1.31005 -2.58391 -1.25758C-1.57473 -1.00103 -0.833889 -0.0850503 -0.833889 0.998851C-0.833889 1.21458 -0.863062 1.41923 -0.921392 1.61747L0.875292 2.65531L2.67198 1.61747C2.61364 1.41923 2.58448 1.21458 2.58448 0.998851C2.58448 -0.0850503 3.32532 -1.00103 4.3345 -1.25758C4.52116 -1.31005 4.71367 -1.33337 4.91784 -1.33337C5.12201 -1.33337 5.31451 -1.31005 5.50117 -1.25758C6.50452 -1.00103 7.25119 -0.0850503 7.25119 0.998851C7.25119 1.21458 7.22203 1.41923 7.16369 1.61747L8.96038 2.65531L10.7512 1.62272C10.6929 1.42507 10.6637 1.21458 10.6637 0.998851C10.6637 -0.0850503 11.4104 -1.00103 12.4137 -1.25758C12.6004 -1.31005 12.7929 -1.33337 12.9971 -1.33337C13.2013 -1.33337 13.3938 -1.31005 13.5804 -1.25758C14.5896 -1.00103 15.3304 -0.0850503 15.3304 0.998851C15.3304 1.21458 15.3013 1.41923 15.2429 1.61747L17.0396 2.65531L18.8363 1.61747C18.778 1.41923 18.7488 1.21458 18.7488 0.998851C18.7488 -0.0850503 19.4955 -1.00103 20.4988 -1.25758C20.6855 -1.31005 20.878 -1.33337 21.0822 -1.33337C21.2863 -1.33337 21.4788 -1.31005 21.6655 -1.25758C22.6747 -1.00103 23.4155 -0.0850503 23.4155 0.998851C23.4155 1.21458 23.3864 1.41923 23.328 1.61747L25.1247 2.65531L26.9214 1.61747C26.8631 1.41923 26.8339 1.21458 26.8339 0.998851C26.8339 -0.0850503 27.5747 -1.00103 28.5839 -1.25758C28.7706 -1.31005 28.9631 -1.33337 29.1672 -1.33337C29.3714 -1.33337 29.5639 -1.31005 29.7506 -1.25758C30.7539 -1.00103 31.5006 -0.0850503 31.5006 0.998851C31.5006 1.21458 31.4714 1.41923 31.4131 1.61747L33.2098 2.65531L35.0006 1.62272C34.9423 1.42507 34.9131 1.21458 34.9131 0.998851C34.9131 -0.0850503 35.6598 -1.00103 36.6632 -1.25758C36.8498 -1.31005 37.0423 -1.33337 37.2465 -1.33337C37.4507 -1.33337 37.6432 -1.31005 37.8298 -1.25758C38.839 -1.00103 39.5798 -0.0850503 39.5798 0.998851C39.5798 1.21458 39.5507 1.41923 39.4924 1.61747L41.289 2.65531L43.0857 1.61747C43.0274 1.41923 42.9982 1.21458 42.9982 0.998851C42.9982 -0.0850503 43.7449 -1.00103 44.7482 -1.25758C44.9349 -1.31005 45.1274 -1.33337 45.3316 -1.33337C45.5357 -1.33337 45.7282 -1.31005 45.9149 -1.25758C46.9241 -1.00103 47.6649 -0.0850503 47.6649 0.998851C47.6649 1.21458 47.6358 1.41923 47.5774 1.61747L49.3741 2.65531L49.9575 2.9929L49.9575 5.7391C50.9666 5.99564 51.7075 6.91163 51.7075 7.99553C51.7075 8.21126 51.6783 8.41591 51.62 8.61415Z" opacity="0.100000001" fill="rgb(26,214,130)" fill-rule="evenodd" />
		</g>
	</g>
	<g id="编组 2">
		<path id="Fill 1" d="M10.078 21.3334L9.3335 26.6667L19.9223 26.6667L20.6668 21.3334L10.078 21.3334Z" fill="url(#paint_linear_210)" fill-rule="evenodd" />
		<path id="Fill 2" d="M20.3333 5.33337L17.3526 26.6667L12 26.6667L14.9807 5.33337L20.3333 5.33337Z" fill="url(#paint_linear_211)" fill-rule="evenodd" />
		<path id="Fill 2" d="M18.0944 21.3334L17.3526 26.6667L12 26.6667L12.7418 21.3334L18.0944 21.3334Z" fill="url(#paint_linear_212)" fill-rule="evenodd" />
		<g id="路径 3" showMaskRef="url(#show_mask_86)" mask="url(#mask_103)">
			<path id="show_mask_86" d="M12.408 5.33337L11.6665 10.6667L22.2584 10.6667L22.9998 5.33337L12.408 5.33337Z" fill="url(#paint_linear_213)" fill-rule="evenodd" />
			<path id="路径 3" d="M26.6646 6.45291C26.6646 6.45291 22.7697 6.26776 17.5435 6.90047C12.3174 7.53319 7.3335 8.64748 7.3335 8.64748C7.3335 8.64748 8.32296 4.02017 8.91486 4.00048C9.50676 3.98078 26.7702 4.77525 26.7702 4.77525L26.6646 6.45291Z" opacity="0.600000024" fill="url(#paint_linear_214)" fill-rule="evenodd" />
			<path id="路径 3" d="M17.5435 6.90047C22.7697 6.26776 26.6646 6.45291 26.6646 6.45291L26.7073 5.77343L26.7702 4.77525C26.7702 4.77525 26.4019 4.7583 25.7711 4.72941C22.0829 4.56054 9.42031 3.98366 8.91486 4.00048C8.50836 4.014 7.91434 6.20075 7.5821 7.56932C7.43057 8.19349 7.3335 8.64748 7.3335 8.64748C7.3335 8.64748 7.72706 8.55949 8.40898 8.41891C10.1537 8.05925 13.786 7.35538 17.5435 6.90047ZM8.66827 7.34403Q9.41246 7.19445 10.2954 7.02819Q14.1252 6.30702 17.4233 5.90772Q19.4786 5.6589 21.5292 5.5387L17.7941 5.36939L9.38189 5.02069Q9.36432 5.06217 9.34554 5.10877Q9.13198 5.63852 8.86588 6.59849Q8.76757 6.95313 8.66827 7.34403Z" opacity="0.600000024" fill="rgb(151,151,151)" fill-opacity="0" fill-rule="evenodd" />
		</g>
		<path id="路径 7" d="M14.2387 10.6666L19.5926 10.6666C19.5926 10.6666 14.2387 12.8186 13.5806 15.3333C13.8921 13.0647 14.2387 10.6666 14.2387 10.6666Z" opacity="0.5" fill="url(#paint_linear_215)" fill-rule="evenodd" />
		<path id="路径 7" d="M17.2621 10.6666L14.2387 10.6666C14.2387 10.6666 14.0918 11.6826 13.9034 13.0175C13.8023 13.7335 13.6893 14.5413 13.5806 15.3333C13.7498 14.6867 14.2295 14.064 14.8489 13.4958C15.6299 12.7792 16.6329 12.1492 17.5153 11.6666C18.6544 11.0437 19.5926 10.6666 19.5926 10.6666L17.2621 10.6666ZM15.5811 11.6666L15.1073 11.6666L15.0551 12.0364Q15.3057 11.8512 15.5811 11.6666Z" opacity="0.5" fill="rgb(151,151,151)" fill-opacity="0" fill-rule="evenodd" />
	</g>
	<rect id="蒙版" width="32.000000" height="32.000000" x="0.000000" y="0.000000" rx="2.666667" fill="rgb(255,255,255)" fill-opacity="0" />
	<rect id="蒙版" width="31.333334" height="31.333334" x="0.333333" y="0.333333" rx="2.333333" stroke="rgb(232,250,242)" stroke-width="0.666666687" />
</svg>
