<svg viewBox="0 0 32 32" xmlns="http://www.w3.org/2000/svg" xmlns:xlink="http://www.w3.org/1999/xlink" width="32.000000" height="32.000000" fill="none" customFrame="#000000">
	<mask id="mask_100" width="18.333305" height="21.333300" x="8.333496" y="5.333374" maskUnits="userSpaceOnUse">
		<g filter="url(#pixso_custom_mask_type_outline)">
			<path id="蒙版" d="M26.6668 5.33337L19.0735 5.33337L8.3335 16L19.0735 26.6667L26.6668 26.6667L15.9268 16L26.6668 5.33337Z" fill="rgb(255,255,255)" fill-rule="evenodd" />
		</g>
	</mask>
	<mask id="mask_99" width="32.000000" height="32.000000" x="0.000000" y="0.000000" maskUnits="userSpaceOnUse">
		<g filter="url(#pixso_custom_mask_type_outline)">
			<rect id="蒙版" width="32.000000" height="32.000000" x="0.000000" y="0.000000" rx="2.666667" fill="rgb(255,255,255)" />
			<rect id="蒙版" width="31.000000" height="31.000000" x="0.500000" y="0.500000" rx="2.166667" stroke="rgb(236,247,249)" stroke-opacity="0" stroke-width="1" />
		</g>
	</mask>
	<defs>
		<filter id="pixso_custom_mask_type_outline">
			<feColorMatrix type="matrix" values="0 0 0 0 1 0 0 0 0 1 0 0 0 0 1 0 0 0 1 0 " />
		</filter>
		<linearGradient id="paint_linear_200" x1="17.5001488" x2="17.5001488" y1="6.8421402" y2="25.4099216" gradientUnits="userSpaceOnUse">
			<stop stop-color="rgb(220,40,155)" offset="0" stop-opacity="1" />
			<stop stop-color="rgb(192,42,140)" offset="0.49035731" stop-opacity="1" />
			<stop stop-color="rgb(242,39,167)" offset="1" stop-opacity="1" />
		</linearGradient>
		<linearGradient id="paint_linear_201" x1="14.7048111" x2="15.0975094" y1="22.7036972" y2="16.000124" gradientUnits="userSpaceOnUse">
			<stop stop-color="rgb(0,0,0)" offset="0" stop-opacity="0" />
			<stop stop-color="rgb(119,33,33)" offset="1" stop-opacity="1" />
		</linearGradient>
		<linearGradient id="paint_linear_202" x1="16.4020958" x2="11.8637638" y1="19.5228634" y2="24.1617813" gradientUnits="userSpaceOnUse">
			<stop stop-color="rgb(37,43,58)" offset="0" stop-opacity="1" />
			<stop stop-color="rgb(37,43,58)" offset="1" stop-opacity="1" />
		</linearGradient>
		<linearGradient id="paint_linear_203" x1="12.130127" x2="12.9216814" y1="12.391695" y2="18.7071362" gradientUnits="userSpaceOnUse">
			<stop stop-color="rgb(244,54,255)" offset="0" stop-opacity="1" />
			<stop stop-color="rgb(255,18,0)" offset="1" stop-opacity="1" />
		</linearGradient>
		<linearGradient id="paint_linear_204" x1="23.1019535" x2="1.90734863e-06" y1="6.33087921" y2="-4.29153442e-06" gradientUnits="userSpaceOnUse">
			<stop stop-color="rgb(255,255,255)" offset="0" stop-opacity="0" />
			<stop stop-color="rgb(255,255,255)" offset="1" stop-opacity="1" />
		</linearGradient>
	</defs>
	<mask id="mask_98" width="32.000000" height="32.000000" x="0.000000" y="0.000000" maskUnits="userSpaceOnUse">
		<g filter="url(#pixso_custom_mask_type_outline)">
			<rect id="蒙版" width="32.000000" height="32.000000" x="0.000000" y="0.000000" rx="2.666667" fill="rgb(255,255,255)" />
			<rect id="蒙版" width="31.000000" height="31.000000" x="0.500000" y="0.500000" rx="2.166667" stroke="rgb(239,226,238)" stroke-opacity="0" stroke-width="1" />
		</g>
	</mask>
	<rect id="工程首字母图标/K-32x33" width="32.000000" height="32.000000" x="0.000000" y="0.000000" />
	<rect id="矩形" width="32.000000" height="32.000000" x="0.000000" y="0.000000" rx="2.666667" fill="rgb(255,255,255)" />
	<rect id="矩形" width="31.000000" height="31.000000" x="0.500000" y="0.500000" rx="2.166667" stroke="rgb(151,151,151)" stroke-opacity="0" stroke-width="1" />
	<g id="形状" showMaskRef="url(#show_mask_81)" mask="url(#mask_98)">
		<g id="show_mask_81">
			<rect id="蒙版" width="32.000000" height="32.000000" x="0.000000" y="0.000000" rx="2.666667" fill="rgb(255,255,255)" />
			<rect id="蒙版" width="31.000000" height="31.000000" x="0.500000" y="0.500000" rx="2.166667" stroke="rgb(239,226,238)" stroke-opacity="0" stroke-width="1" />
		</g>
		<g id="Fill 5" showMaskRef="url(#show_mask_82)" mask="url(#mask_99)">
			<g id="show_mask_82">
				<rect id="蒙版" width="32.000000" height="32.000000" x="0.000000" y="0.000000" rx="2.666667" fill="rgb(255,255,255)" />
				<rect id="蒙版" width="31.000000" height="31.000000" x="0.500000" y="0.500000" rx="2.166667" stroke="rgb(236,247,249)" stroke-opacity="0" stroke-width="1" />
			</g>
			<path id="形状结合" d="M16.1698 -5.33337C15.2832 -5.33337 14.4105 -5.27337 13.5518 -5.16871L2.24317 -0.209374C1.51584 0.409293 0.827171 1.07329 0.187838 1.78329L16.4018 -5.32737C16.3245 -5.32804 16.2478 -5.33337 16.1698 -5.33337ZM24.0898 6.53213L18.1338 26.5148L26.3018 35.1521C26.6051 34.9895 26.9038 34.8201 27.1985 34.6448L19.2571 26.2468L24.9605 7.1108L20.2551 27.2248L27.7778 34.2815C28.0658 34.0961 28.3485 33.9048 28.6271 33.7061L21.3605 26.8901L25.8691 7.61946L22.4071 27.7855L29.1098 33.3581C29.3818 33.1528 29.6491 32.9415 29.9105 32.7241L23.4905 27.3855L26.8111 8.0428L24.5818 28.1961L30.2925 32.3935C30.5491 32.1701 30.7991 31.9408 31.0451 31.7055L25.6391 27.7321L27.7778 8.39813L26.7698 28.4581L31.3471 31.4175C31.5878 31.1775 31.8225 30.9321 32.0511 30.6815L27.7978 27.9321L28.7651 8.6808L28.9638 28.5728L32.2678 30.4368C32.4925 30.1828 32.7118 29.9241 32.9245 29.6595L29.9578 27.9855L29.7671 8.87946L31.1551 28.5388L33.0718 29.4728C33.2818 29.2055 33.4851 28.9341 33.6825 28.6581L32.1125 27.8935L30.7778 8.9928L33.3365 28.3581L33.7685 28.5375C33.9645 28.2595 34.1531 27.9768 34.3351 27.6895L34.2525 27.6548L31.7898 9.01546L35.1578 26.2855C35.4185 25.7955 35.6605 25.2941 35.8831 24.7835L32.7951 8.9468L36.4998 23.2015C36.7098 22.5935 36.8951 21.9748 37.0505 21.3435L33.7865 8.7848L37.3785 19.7535C37.5098 18.9681 37.6025 18.1695 37.6465 17.3575L34.7465 8.50346L37.6718 15.8461C37.6531 14.6208 37.5318 13.4201 37.3158 12.2521L35.6738 8.12813L37.0631 11.0655C34.9611 2.44346 27.6658 -4.1392 18.6765 -5.1832L-1.46287 6.8508L-1.38087 5.14013L18.6565 -5.1852C18.0225 -5.25854 17.3805 -5.30187 16.7311 -5.3192L-1.67687 4.16746C-2.44621 5.30746 -3.10887 6.52546 -3.65087 7.80746L-4.99821 19.9761C-4.82754 20.9335 -4.59621 21.8701 -4.30287 22.7795L-2.40754 5.66346L-3.34221 25.2281C-3.06287 25.8288 -2.75621 26.4141 -2.42487 26.9835L-1.50021 7.63413L-1.18154 28.8848C-0.858207 29.3255 -0.516873 29.7521 -0.16154 30.1661L-0.472873 9.46013L1.26446 31.6761C1.61379 32.0121 1.97246 32.3381 2.34313 32.6495L0.691127 11.5201L3.86779 33.8161C4.23179 34.0708 4.60179 34.3181 4.98246 34.5508L2.01646 13.7308L6.51713 35.3981C6.88846 35.5848 7.26513 35.7628 7.64846 35.9288L3.45779 15.7555L9.15313 36.5095C9.52713 36.6388 9.90579 36.7568 10.2885 36.8655L5.00379 17.6075L11.7338 37.2261C12.1065 37.3041 12.4825 37.3741 12.8618 37.4328L6.63246 19.2728L14.2211 37.5941C14.5891 37.6275 14.9598 37.6508 15.3331 37.6655L8.33779 20.7775L16.5931 37.6761C16.9591 37.6688 17.3225 37.6521 17.6831 37.6275L9.46246 20.8015L21.1191 3.49413L10.1385 22.1761L18.8365 37.5161C19.1925 37.4721 19.5458 37.4195 19.8965 37.3581L11.2931 22.1848L21.7731 4.35546L12.0451 23.4841L20.9345 37.1501C21.2791 37.0721 21.6205 36.9861 21.9591 36.8921L13.1978 23.4235L22.4905 5.15013L14.0191 24.6448L22.8798 36.6135C23.2118 36.5048 23.5405 36.3875 23.8651 36.2628L15.1665 24.5128L23.2611 5.88613L16.0518 25.6541L24.6705 35.9381C24.9885 35.8015 25.3018 35.6568 25.6118 35.5055L17.1891 25.4548L24.0898 6.53213ZM5.98605 -2.77262C7.75538 -3.72529 9.67405 -4.43662 11.6974 -4.86462L5.98605 -2.77262ZM-0.503091 7.44286L-0.477758 9.16953L19.0976 -4.26914L-0.503091 7.44286ZM0.547442 9.67808L0.682108 11.3994L0.902109 11.2274L19.2248 -3.14392L0.547442 9.67808ZM1.7465 11.8361L1.9845 13.5094L19.2572 -1.89858L1.7465 11.8361ZM3.06917 13.8821L3.40584 15.5048L19.4198 -0.703884L3.06917 13.8821ZM4.50969 15.8095L4.93902 17.3742L19.6864 0.44883L4.50969 15.8095ZM6.06131 17.6088L6.57731 19.1148L20.0693 1.53151L6.06131 17.6088ZM7.71513 19.2748L8.31313 20.7182L20.5551 2.54149L7.71513 19.2748ZM-4.14567 9.10983L-5.33301 15.9252C-5.30567 13.5398 -4.88967 11.2485 -4.14567 9.10983Z" opacity="0.100000001" fill="rgb(218,84,210)" fill-rule="evenodd" />
		</g>
	</g>
	<rect id="蒙版" width="32.000000" height="32.000000" x="0.000000" y="0.000000" rx="2.666667" fill="rgb(255,255,255)" fill-opacity="0" />
	<rect id="蒙版" width="31.333334" height="31.333334" x="0.333333" y="0.333333" rx="2.333333" stroke="rgb(239,226,238)" stroke-width="0.666666687" />
	<g id="K备份">
		<g id="路径 2" showMaskRef="url(#show_mask_83)" mask="url(#mask_100)">
			<path id="show_mask_83" d="M26.6668 5.33337L19.0735 5.33337L8.3335 16L19.0735 26.6667L26.6668 26.6667L15.9268 16L26.6668 5.33337Z" fill="url(#paint_linear_200)" fill-rule="evenodd" />
			<path id="路径 3" d="M15.9268 16.0001L11.2446 19.1148L16.4021 24.6984C16.4021 24.6984 15.0756 21.2038 14.9963 19.7516C14.9169 18.2994 15.9268 16.0001 15.9268 16.0001Z" fill="url(#paint_linear_201)" fill-rule="evenodd" />
			<path id="路径 3" d="M11.9318 19.8587L11.2446 19.1148L12.0878 18.5539L15.9268 16.0001C15.9268 16.0001 15.6168 16.7059 15.3538 17.5823C15.1421 18.2878 14.9609 19.104 14.9963 19.7516C15.0308 20.3838 15.3017 21.403 15.5966 22.3525C15.9792 23.5841 16.4021 24.6984 16.4021 24.6984L14.7098 22.8662L11.9318 19.8587ZM12.775 19.2978L14.1384 20.7739Q14.0194 20.2026 13.9978 19.8062Q13.9645 19.1979 14.1178 18.4045L12.775 19.2978Z" fill="url(#paint_linear_202)" fill-opacity="0" fill-rule="evenodd" />
			<path id="路径 2" d="M8.3335 16L11.9551 19.7516L15.9268 16L12.2424 11.969L8.3335 16Z" fill="url(#paint_linear_203)" fill-rule="evenodd" />
			<path id="路径 3" d="M22.4202 1.79037C22.4202 1.79037 17.0751 1.78559 12.125 2.77898C7.17492 3.77237 2.97842e-14 7.45281 2.97842e-14 7.45281C2.97842e-14 7.45281 3.90881 0.0201734 4.50071 0.000476523C5.09261 -0.0192204 22.356 0.775246 22.356 0.775246L22.4202 1.79037Z" opacity="0.600000024" fill="url(#paint_linear_204)" fill-rule="evenodd" transform="matrix(-0.694658,0.71934,0.71934,0.694658,22.8257,-0.381226)" />
			<path id="路径 3" d="M21.4193 1.80752C22.0519 1.79004 22.4202 1.79037 22.4202 1.79037L22.357 0.790438L22.356 0.775246C22.356 0.775246 5.09261 -0.0192204 4.50071 0.000476523C4.08047 0.0144608 1.98832 3.76501 0.810106 5.93937C0.328795 6.82761 0 7.45281 0 7.45281C0 7.45281 0.58448 7.153 1.53489 6.70142C3.91441 5.5708 8.58775 3.48884 12.125 2.77898C15.7758 2.04633 19.6415 1.85663 21.4193 1.80752ZM14.205 1.40679L13.38 1.36939L4.86725 1.01653Q4.67668 1.26634 4.38897 1.71393Q3.80481 2.62271 2.89905 4.22592Q2.62876 4.70433 2.34225 5.22243Q3.07466 4.88856 3.80897 4.5707Q8.73088 2.44018 11.9282 1.79853Q13.018 1.57983 14.205 1.40679Z" opacity="0.600000024" fill="rgb(151,151,151)" fill-opacity="0" fill-rule="evenodd" transform="matrix(-0.694658,0.71934,0.71934,0.694658,22.8257,-0.381226)" />
		</g>
		<path id="Fill 159" d="M6.58732 18L5.3335 26.6667L10.7448 26.6667L11.3335 22.6107L6.58732 18Z" fill="rgb(248,196,218)" fill-rule="evenodd" />
		<path id="Fill 161" d="M13.3976 7.24961L13.6668 5.33337L8.4542 5.33337L7.3335 13.3334L13.3976 7.24961Z" fill="rgb(248,196,218)" fill-rule="evenodd" />
	</g>
</svg>
