<svg viewBox="0 0 32 32" xmlns="http://www.w3.org/2000/svg" xmlns:xlink="http://www.w3.org/1999/xlink" width="32.000000" height="32.000000" fill="none" customFrame="#000000">
	<mask id="mask_95" width="39.268665" height="39.268665" x="-4.000000" y="-3.333130" maskUnits="userSpaceOnUse">
		<g filter="url(#pixso_custom_mask_type_alpha)">
			<path id="Clip 2" d="M-4 -3.33313L35.2687 -3.33313L35.2687 35.9355L-4 35.9355L-4 -3.33313Z" fill="rgb(196,196,196)" fill-rule="evenodd" />
		</g>
	</mask>
	<defs>
		<filter id="pixso_custom_mask_type_outline">
			<feColorMatrix type="matrix" values="0 0 0 0 1 0 0 0 0 1 0 0 0 0 1 0 0 0 1 0 " />
		</filter>
		<filter id="pixso_custom_mask_type_alpha">
			<feColorMatrix type="matrix" values="0 0 0 0 1 0 0 0 0 1 0 0 0 0 1 0 0 0 1 0 " />
		</filter>
		<linearGradient id="paint_linear_188" x1="18.3333111" x2="13.9451418" y1="4.17627525" y2="19.2514057" gradientUnits="userSpaceOnUse">
			<stop stop-color="rgb(255,178,0)" offset="0" stop-opacity="1" />
			<stop stop-color="rgb(255,225,23)" offset="1" stop-opacity="1" />
		</linearGradient>
		<linearGradient id="paint_linear_189" x1="28.333147" x2="22.2671394" y1="4.17627954" y2="19.2514114" gradientUnits="userSpaceOnUse">
			<stop stop-color="rgb(255,178,0)" offset="0" stop-opacity="1" />
			<stop stop-color="rgb(255,225,23)" offset="1" stop-opacity="1" />
		</linearGradient>
		<linearGradient id="paint_linear_190" x1="15.4998331" x2="15.4998331" y1="17.3079834" y2="22.6765881" gradientUnits="userSpaceOnUse">
			<stop stop-color="rgb(255,47,0)" offset="0" stop-opacity="1" />
			<stop stop-color="rgb(255,119,0)" offset="1" stop-opacity="1" />
		</linearGradient>
		<linearGradient id="paint_linear_191" x1="8.9487133" x2="4.98434448" y1="26.2193565" y2="13.0795374" gradientUnits="userSpaceOnUse">
			<stop stop-color="rgb(236,92,12)" offset="0" stop-opacity="1" />
			<stop stop-color="rgb(255,214,0)" offset="1" stop-opacity="1" />
		</linearGradient>
		<linearGradient id="paint_linear_192" x1="26.4042168" x2="21.2738533" y1="26.2591515" y2="14.287323" gradientUnits="userSpaceOnUse">
			<stop stop-color="rgb(236,92,12)" offset="0" stop-opacity="1" />
			<stop stop-color="rgb(255,214,0)" offset="1" stop-opacity="1" />
		</linearGradient>
		<linearGradient id="paint_linear_193" x1="19.7700615" x2="15.6471767" y1="20.4457493" y2="19.2195396" gradientUnits="userSpaceOnUse">
			<stop stop-color="rgb(244,106,44)" offset="0" stop-opacity="0" />
			<stop stop-color="rgb(57,17,0)" offset="1" stop-opacity="1" />
		</linearGradient>
		<linearGradient id="paint_linear_194" x1="19.9713135" x2="16.6700897" y1="20.018198" y2="23.5871391" gradientUnits="userSpaceOnUse">
			<stop stop-color="rgb(37,43,58)" offset="0" stop-opacity="1" />
			<stop stop-color="rgb(37,43,58)" offset="1" stop-opacity="1" />
		</linearGradient>
	</defs>
	<mask id="mask_94" width="32.000000" height="32.000000" x="0.000000" y="0.000000" maskUnits="userSpaceOnUse">
		<g filter="url(#pixso_custom_mask_type_outline)">
			<rect id="蒙版" width="32.000000" height="32.000000" x="0.000000" y="0.000000" rx="2.666667" fill="rgb(255,255,255)" />
			<rect id="蒙版" width="31.000000" height="31.000000" x="0.500000" y="0.500000" rx="2.166667" stroke="rgb(241,234,231)" stroke-opacity="0" stroke-width="1" />
		</g>
	</mask>
	<rect id="工程首字母图标/M-32x33" width="32.000000" height="32.000000" x="0.000000" y="0.000000" />
	<rect id="矩形" width="32.000000" height="32.000000" x="0.000000" y="0.000000" rx="2.666667" fill="rgb(255,255,255)" />
	<rect id="矩形" width="31.000000" height="31.000000" x="0.500000" y="0.500000" rx="2.166667" stroke="rgb(151,151,151)" stroke-opacity="0" stroke-width="1" />
	<g id="形状" showMaskRef="url(#show_mask_78)" mask="url(#mask_94)">
		<g id="show_mask_78">
			<rect id="蒙版" width="32.000000" height="32.000000" x="0.000000" y="0.000000" rx="2.666667" fill="rgb(255,255,255)" />
			<rect id="蒙版" width="31.000000" height="31.000000" x="0.500000" y="0.500000" rx="2.166667" stroke="rgb(241,234,231)" stroke-opacity="0" stroke-width="1" />
		</g>
		<g id="编组" mask="url(#mask_95)">
			<path id="Fill 1" d="M15.9679 35.2605L15.9679 34.2112C20.3226 34.1305 24.4766 32.4845 27.6999 29.5472C27.8066 29.5925 27.9239 29.6185 28.0466 29.6185C28.5346 29.6185 28.9299 29.2225 28.9299 28.7352C28.9299 28.6112 28.9046 28.4945 28.8586 28.3879C31.8099 25.1612 33.4686 21.0005 33.5492 16.6345L34.5939 16.6345C34.4166 26.8285 26.1619 35.0832 15.9679 35.2605ZM-2.16559 16.3012C-2.16559 16.1819 -2.06825 16.0839 -1.94825 16.0839C-1.82892 16.0839 -1.73159 16.1819 -1.73159 16.3012C-1.73159 16.4205 -1.82892 16.5179 -1.94825 16.5179C-2.06825 16.5179 -2.16559 16.4205 -2.16559 16.3012L-2.16559 16.3012ZM-3.3333 16.3012C-3.3333 11.1912 -1.29797 6.55054 1.9987 3.13587L3.8707 5.00787C1.0527 7.94187 -0.684635 11.9212 -0.684635 16.3012L-0.684635 16.6345L0.922698 16.6345C1.00803 20.4412 2.54403 23.8939 5.0007 26.4639L3.19337 28.2712C0.391365 25.3592 -1.39664 21.4579 -1.59663 17.1092C-1.28464 16.9725 -1.06597 16.6632 -1.06597 16.3012C-1.06597 15.8132 -1.46197 15.4172 -1.9493 15.4172C-2.4373 15.4172 -2.8333 15.8132 -2.8333 16.3012C-2.8333 16.6772 -2.59597 16.9939 -2.26397 17.1212C-1.8373 26.5979 5.8467 34.0385 15.3014 34.2105L15.3014 35.2605C4.99603 35.0812 -3.3333 26.6479 -3.3333 16.3012ZM15.3011 -2.65804L15.3011 -0.00937366C11.0537 0.0766263 7.20107 1.79129 4.34173 4.53663L2.46973 2.66463C5.80907 -0.559374 10.3237 -2.57137 15.3011 -2.65804ZM28.7991 2.6646L26.9271 4.53726C24.0678 1.79126 20.2158 0.0765979 15.9678 -0.00940204L15.9678 -2.65807C20.9458 -2.5714 25.4598 -0.559402 28.7991 2.6646ZM5.4667 6.60186L8.40404 9.53986C6.8087 11.2479 5.8127 13.5099 5.7287 15.9679L4.11404 15.9679L4.11404 16.3012C4.11404 19.0832 5.11937 21.7692 6.94404 23.8645C6.88337 23.9845 6.84137 24.1145 6.84137 24.2579C6.84137 24.7459 7.2367 25.1412 7.72537 25.1412C7.8987 25.1412 8.0507 25.0785 8.1867 24.9925L8.13737 25.0505C10.222 26.8392 12.886 27.8245 15.6374 27.8245C21.9914 27.8245 27.1607 22.6552 27.1607 16.3012L27.1607 15.9679L25.5567 15.9679C25.4734 13.5032 24.4687 11.2439 22.8734 9.53652L24.668 7.74186C26.7867 9.97519 28.0927 12.9865 28.0927 16.3012C28.0927 23.1685 22.5054 28.7565 15.6374 28.7565L15.304 28.7565L15.304 30.3512C7.70804 30.1732 1.58337 23.9392 1.58337 16.3012C1.58337 12.5499 3.05737 9.12986 5.4667 6.60186ZM15.4197 1.91381C15.4197 1.79448 15.517 1.69715 15.6364 1.69715C15.7564 1.69715 15.853 1.79448 15.853 1.91381C15.853 2.03315 15.7564 2.13115 15.6364 2.13115C15.517 2.13115 15.4197 2.03315 15.4197 1.91381L15.4197 1.91381ZM22.3964 9.06792C20.8091 7.57992 18.7404 6.59459 16.4411 6.41059C16.3578 6.18192 16.1898 5.99592 15.9678 5.89925L15.9678 3.85058C19.1504 3.93459 22.0311 5.22792 24.1898 7.27458L22.3964 9.06792ZM15.8368 6.70992C15.8368 6.82992 15.7394 6.92659 15.6201 6.92659C15.5001 6.92659 15.4028 6.82992 15.4028 6.70992C15.4028 6.58992 15.5001 6.49326 15.6201 6.49326C15.7394 6.49326 15.8368 6.58992 15.8368 6.70992L15.8368 6.70992ZM19.016 12.4485C18.1906 11.7225 17.132 11.2572 15.968 11.1825L15.968 10.2572C17.388 10.3345 18.676 10.9005 19.672 11.7932L19.016 12.4485ZM17.1975 15.9679C17.0662 15.3526 16.5829 14.8692 15.9682 14.7386L15.9682 12.7712L15.6349 12.7712C14.7822 12.7712 14.0089 13.0872 13.3982 13.5926L11.9289 12.1239C11.9742 12.0186 11.9989 11.9019 11.9989 11.7792C11.9989 11.6719 11.9729 11.5712 11.9375 11.4759L11.9482 11.4899C12.9255 10.7406 14.0789 10.3192 15.3015 10.2532L15.3015 11.8386L15.6349 11.8386C17.9829 11.8386 19.9089 13.6632 20.0802 15.9679L17.1975 15.9679ZM15.6346 17.2332C15.1206 17.2332 14.7032 16.8152 14.7032 16.3012C14.7032 15.7872 15.1206 15.3692 15.6346 15.3692C16.1486 15.3692 16.5666 15.7872 16.5666 16.3012C16.5666 16.8152 16.1486 17.2332 15.6346 17.2332L15.6346 17.2332ZM15.3018 13.4572L15.3018 14.7385C14.5791 14.8919 14.0371 15.5325 14.0371 16.3012C14.0371 16.6219 14.1331 16.9185 14.2958 17.1692L13.3984 18.0665C13.0118 17.5792 12.7718 16.9699 12.7718 16.3012C12.7718 14.8345 13.8791 13.6225 15.3018 13.4572ZM10.9002 11.7792C10.9002 11.6605 10.9968 11.5625 11.1168 11.5625C11.2362 11.5625 11.3335 11.6605 11.3335 11.7792C11.3335 11.8992 11.2362 11.9965 11.1168 11.9965C10.9968 11.9965 10.9002 11.8992 10.9002 11.7792L10.9002 11.7792ZM12.1379 15.9678L9.58254 15.9678C9.64854 14.7398 10.0779 13.5845 10.8319 12.6065C10.9219 12.6365 11.0145 12.6632 11.1152 12.6632C11.2359 12.6632 11.3512 12.6378 11.4565 12.5945L12.9265 14.0638C12.4885 14.5932 12.2065 15.2465 12.1379 15.9678ZM15.6345 19.1646C14.9652 19.1646 14.3565 18.9246 13.8692 18.5386L14.7665 17.6406C15.0165 17.8026 15.3139 17.8999 15.6345 17.8999C15.9552 17.8999 16.2525 17.8026 16.5025 17.6406L18.2112 19.3492C18.1672 19.4545 18.1425 19.5706 18.1425 19.6919C18.1425 19.7852 18.1685 19.8699 18.1952 19.9539C17.5339 20.4186 16.7705 20.6926 15.9679 20.7512L15.9679 19.1646L15.6345 19.1646ZM19.2437 19.6919C19.2437 19.8119 19.1463 19.9092 19.027 19.9092C18.907 19.9092 18.8103 19.8119 18.8103 19.6919C18.8103 19.5726 18.907 19.4752 19.027 19.4752C19.1463 19.4752 19.2437 19.5726 19.2437 19.6919L19.2437 19.6919ZM19.2882 18.8612C19.2043 18.8345 19.1196 18.8085 19.0269 18.8085C18.9049 18.8085 18.7889 18.8332 18.6836 18.8779L16.9749 17.1692C17.0796 17.0079 17.1569 16.8285 17.1982 16.6345L20.0723 16.6345C20.0129 17.4359 19.7523 18.1999 19.2882 18.8612ZM15.9678 25.1046C16.1918 25.0073 16.3604 24.8186 16.4424 24.5873C18.3244 24.406 20.0011 23.62 21.2918 22.43L23.0638 24.2013C21.1958 25.9593 18.7084 27.0573 15.9678 27.1406L15.9678 25.1046ZM15.4028 24.2939C15.4028 24.1746 15.5001 24.0772 15.6201 24.0772C15.7394 24.0772 15.8368 24.1746 15.8368 24.2939C15.8368 24.4132 15.7394 24.5106 15.6201 24.5106C15.5001 24.5106 15.4028 24.4132 15.4028 24.2939L15.4028 24.2939ZM8.51848 23.8878L9.98115 22.4252C11.2638 23.6085 12.9265 24.3958 14.7931 24.5832C14.8785 24.8272 15.0611 25.0205 15.3011 25.1132L15.3011 27.1425C12.8278 27.0665 10.4478 26.1565 8.56848 24.5438L8.54115 24.5752C8.57981 24.4758 8.60581 24.3705 8.60581 24.2578C8.60581 24.1245 8.57181 24.0012 8.51848 23.8878ZM7.94029 24.2579C7.94029 24.3772 7.84296 24.4746 7.72362 24.4746C7.60362 24.4746 7.50629 24.3772 7.50629 24.2579C7.50629 24.1379 7.60362 24.0412 7.72362 24.0412C7.84296 24.0412 7.94029 24.1379 7.94029 24.2579L7.94029 24.2579ZM7.72247 23.3746C7.62447 23.3746 7.53447 23.4006 7.44647 23.4299C5.79847 21.5392 4.85981 19.1372 4.78314 16.6346L7.31514 16.6346C7.39447 18.6846 8.20714 20.5446 9.50914 21.9552L8.02781 23.4359C7.93181 23.3999 7.83047 23.3746 7.72247 23.3746ZM26.4887 16.6346C26.406 19.3766 25.292 21.8579 23.534 23.7266L21.7654 21.9579C23.1367 20.4719 23.9634 18.4846 23.9634 16.3013L23.9634 15.9679L22.3567 15.9679C22.182 12.4126 19.2347 9.57392 15.6374 9.57392C14.1427 9.57392 12.728 10.0533 11.5447 10.9613L11.6414 11.0866C11.4934 10.9746 11.318 10.8959 11.118 10.8959C10.6294 10.8959 10.2347 11.2919 10.2347 11.7793C10.2347 11.9379 10.2874 12.0786 10.3594 12.2066L10.3214 12.1773C9.39804 13.3659 8.91004 14.7919 8.91004 16.3013L8.91004 16.6346L12.1387 16.6346C12.2987 18.3133 13.624 19.6579 15.304 19.8159L15.304 21.4306L15.6374 21.4306C16.7107 21.4306 17.738 21.1026 18.6094 20.4819L18.5727 20.4313C18.7074 20.5146 18.858 20.5759 19.0287 20.5759C19.516 20.5759 19.912 20.1806 19.912 19.6919C19.912 19.5239 19.852 19.3746 19.77 19.2406L19.8174 19.2746C20.4387 18.4019 20.7667 17.3739 20.7667 16.3013C20.7667 15.0066 20.2807 13.8266 19.4874 12.9226L20.146 12.2646C21.1074 13.3373 21.698 14.7493 21.698 16.3013L21.698 16.6346L23.29 16.6346C23.1294 20.4439 20.232 23.5353 16.4147 23.9186C16.2727 23.6206 15.9734 23.4106 15.6214 23.4106C15.27 23.4106 14.9727 23.6193 14.83 23.9153C10.9187 23.5066 7.97804 20.2479 7.97804 16.3013L7.97804 15.9679L6.39537 15.9679C6.56471 11.3526 10.1994 7.48125 14.8234 7.07859C14.964 7.38125 15.266 7.59325 15.6214 7.59325C15.9767 7.59325 16.2787 7.38059 16.4194 7.07792C21.176 7.47525 24.8954 11.5166 24.8954 16.3013L24.8954 16.6346L26.4887 16.6346ZM0.930423 15.9679L-0.0142441 15.9679C0.163089 7.48992 7.11509 0.648584 15.6344 0.648584C24.1538 0.648584 31.1058 7.48992 31.2831 15.9679L28.7398 15.9679C28.5604 8.88658 22.7578 3.17925 15.6344 3.17925L15.3011 3.17925L15.3011 5.88992C15.0438 5.98992 14.8578 6.20658 14.7818 6.47458L14.7764 6.41325C12.5004 6.60792 10.4498 7.58992 8.87309 9.06925L5.94376 6.13925C8.27842 3.91125 11.3744 2.46725 14.8298 2.27192C14.9678 2.58058 15.2744 2.79792 15.6344 2.79792C16.1224 2.79792 16.5178 2.40192 16.5178 1.91392C16.5178 1.42592 16.1224 1.03058 15.6344 1.03058C15.2564 1.03058 14.9398 1.27058 14.8138 1.60458C7.12976 2.02658 1.10242 8.30192 0.930423 15.9679ZM15.6348 33.5519C10.9894 33.5519 6.76878 31.7273 3.66478 28.7426L5.47211 26.9353C8.11678 29.4639 11.6961 31.0219 15.6348 31.0219L15.9681 31.0219L15.9681 29.4193C19.3348 29.3346 22.3814 27.9666 24.6608 25.7986L27.2408 28.3793C27.1928 28.4886 27.1634 28.6079 27.1634 28.7353C27.1634 28.8546 27.1888 28.9679 27.2314 29.0713C24.0514 31.9599 19.9354 33.5519 15.6348 33.5519ZM28.2642 28.7352C28.2642 28.8545 28.1675 28.9519 28.0475 28.9519C27.9282 28.9519 27.8308 28.8545 27.8308 28.7352C27.8308 28.6152 27.9282 28.5185 28.0475 28.5185C28.1675 28.5185 28.2642 28.6152 28.2642 28.7352L28.2642 28.7352ZM34.594 15.9679L32.8854 15.9679L32.8854 16.3012C32.8854 20.6132 31.286 24.7359 28.3834 27.9192C28.2794 27.8766 28.166 27.8519 28.0467 27.8519C27.9314 27.8519 27.8227 27.8772 27.722 27.9165L25.1367 25.3312C27.304 23.0526 28.6547 19.9992 28.74 16.6346L31.954 16.6346L31.954 16.3012C31.954 11.9212 30.2167 7.94255 27.3987 5.00855L29.2707 3.13588C32.496 6.47522 34.5074 10.9899 34.594 15.9679ZM29.7489 2.65917C33.1642 6.19117 35.2696 10.9985 35.2696 16.3012C35.2696 27.0332 26.6576 35.7485 15.9682 35.9272L15.9682 35.9358L15.3016 35.9358L15.3016 35.9272C4.61224 35.7485 -3.99976 27.0332 -3.99976 16.3012C-3.99976 10.9985 -1.89442 6.19117 1.52158 2.6585L1.51558 2.65317L1.74958 2.41917C1.75091 2.41784 1.75224 2.4165 1.75291 2.41517L1.98691 2.18184L1.99291 2.18717C5.45091 -1.15616 10.1322 -3.23883 15.3016 -3.32483L15.3016 -3.3335L15.9682 -3.3335L15.9682 -3.32483C21.1376 -3.23883 25.8189 -1.15616 29.2776 2.18784L29.2829 2.18184L29.7542 2.65317L29.7489 2.65917Z" opacity="0.100000001" fill="rgb(170,110,82)" fill-rule="evenodd" />
		</g>
	</g>
	<g id="编组 2">
		<path id="Fill 81" d="M18.3333 24L12.627 24L7 5.33337L12.4385 5.33337L18.3333 24Z" fill="url(#paint_linear_188)" fill-rule="evenodd" />
		<path id="Fill 83" d="M28.3331 5.33337L18.3914 24L12.6665 24L22.5784 5.33337L28.3331 5.33337Z" fill="url(#paint_linear_189)" fill-rule="evenodd" />
		<path id="路径" d="M16.2198 17.308L18.3332 24L12.6665 24L16.2198 17.308Z" fill="url(#paint_linear_190)" fill-rule="evenodd" />
		<path id="Fill 205" d="M6.06812 11.6666L4 26.6666L9.26248 26.6666L9.66666 23.7343L6.06812 11.6666Z" fill="url(#paint_linear_191)" fill-rule="evenodd" />
		<path id="Fill 207" d="M20 26.6666L25.4034 26.6666L27.3333 13L20 26.6666Z" fill="url(#paint_linear_192)" fill-rule="evenodd" />
		<path id="路径 5" d="M16.2197 17.308L18.3331 24L18.3913 24C18.3913 24 18.9422 22.9521 19.9713 21.0298C17.9812 19.8942 16.2197 17.308 16.2197 17.308Z" fill="url(#paint_linear_193)" fill-rule="evenodd" />
		<path id="路径 5" d="M18.3213 23.9627L17.9328 22.7326L17.0331 19.8837L16.2197 17.308C16.2197 17.308 16.9109 18.3228 17.9165 19.3602C18.5162 19.9788 19.2278 20.6056 19.9713 21.0298C19.5815 21.7579 19.2604 22.3605 19.0117 22.8283C18.6591 23.4918 18.4524 23.884 18.403 23.9779C18.3952 23.9926 18.3913 24 18.3913 24L18.3331 24L18.3213 23.9627ZM18.5908 21.4956L18.6618 21.3622Q18.5875 21.3069 18.513 21.2491L18.5908 21.4956Z" fill="url(#paint_linear_194)" fill-opacity="0" fill-rule="evenodd" />
	</g>
	<rect id="蒙版" width="32.000000" height="32.000000" x="0.000000" y="0.000000" rx="2.666667" fill="rgb(255,255,255)" fill-opacity="0" />
	<rect id="蒙版" width="31.333334" height="31.333334" x="0.333333" y="0.333333" rx="2.333333" stroke="rgb(241,234,231)" stroke-width="0.666666687" />
</svg>
