<svg viewBox="0 0 32 32" xmlns="http://www.w3.org/2000/svg" xmlns:xlink="http://www.w3.org/1999/xlink" width="32.000000" height="32.000000" fill="none" customFrame="#000000">
	<mask id="mask_91" width="14.000000" height="13.333333" x="2.000000" y="5.333374" maskUnits="userSpaceOnUse">
		<g filter="url(#pixso_custom_mask_type_outline)">
			<path id="蒙版" d="M2 18.6667L4.65433 18.6667C7.97767 18.6667 10.7933 16.219 11.2557 12.928L11.5733 10.6667L15.2503 10.6667L16 5.33337L9.25533 5.33337C7.926 5.33337 6.79967 6.31237 6.61467 7.62904L5.97433 12.1857C5.882 12.84 5.31467 13.3334 4.65367 13.3334L2.74967 13.3334L2 18.6667Z" fill="rgb(255,255,255)" fill-rule="evenodd" />
		</g>
	</mask>
	<mask id="mask_90" width="13.882000" height="13.333333" x="16.224609" y="13.334961" maskUnits="userSpaceOnUse">
		<g filter="url(#pixso_custom_mask_type_outline)">
			<path id="蒙版" d="M30.1066 13.335L27.4523 13.335C24.1289 13.335 21.3133 15.7826 20.8509 19.0736L20.5333 21.335L16.9743 21.335L16.2246 26.6683L22.8513 26.6683C24.1806 26.6683 25.3069 25.6893 25.4919 24.3726L26.1323 19.816C26.2246 19.1616 26.7919 18.6683 27.4529 18.6683L29.3569 18.6683L30.1066 13.335Z" fill="rgb(255,255,255)" fill-rule="evenodd" />
		</g>
	</mask>
	<mask id="mask_89" width="32.000000" height="32.000000" x="0.000000" y="0.000000" maskUnits="userSpaceOnUse">
		<g filter="url(#pixso_custom_mask_type_outline)">
			<rect id="蒙版" width="32.000000" height="32.000000" x="0.000000" y="0.000000" rx="2.666667" fill="rgb(255,255,255)" />
			<rect id="蒙版" width="31.000000" height="31.000000" x="0.500000" y="0.500000" rx="2.166667" stroke="rgb(236,247,249)" stroke-opacity="0" stroke-width="1" />
		</g>
	</mask>
	<defs>
		<filter id="pixso_custom_mask_type_outline">
			<feColorMatrix type="matrix" values="0 0 0 0 1 0 0 0 0 1 0 0 0 0 1 0 0 0 1 0 " />
		</filter>
		<linearGradient id="paint_linear_173" x1="24.605648" x2="23.7299404" y1="15.3176308" y2="24.8985367" gradientUnits="userSpaceOnUse">
			<stop stop-color="rgb(120,255,196)" offset="0" stop-opacity="1" />
			<stop stop-color="rgb(16,222,145)" offset="1" stop-opacity="1" />
		</linearGradient>
		<linearGradient id="paint_linear_174" x1="26.0757809" x2="23.4241829" y1="21.5363464" y2="16.3286877" gradientUnits="userSpaceOnUse">
			<stop stop-color="rgb(0,64,52)" offset="0" stop-opacity="0" />
			<stop stop-color="rgb(0,64,52)" offset="1" stop-opacity="1" />
		</linearGradient>
		<linearGradient id="paint_linear_175" x1="30.4036293" x2="23.6442986" y1="17.0615616" y2="22.4100208" gradientUnits="userSpaceOnUse">
			<stop stop-color="rgb(37,43,58)" offset="0" stop-opacity="1" />
			<stop stop-color="rgb(37,43,58)" offset="1" stop-opacity="1" />
		</linearGradient>
		<linearGradient id="paint_linear_176" x1="25.4966049" x2="24.7627373" y1="7.31763268" y2="16.8985367" gradientUnits="userSpaceOnUse">
			<stop stop-color="rgb(120,255,196)" offset="0" stop-opacity="1" />
			<stop stop-color="rgb(16,222,145)" offset="1" stop-opacity="1" />
		</linearGradient>
		<linearGradient id="paint_linear_177" x1="14.3382339" x2="6.81691599" y1="5.33337402" y2="17.4459534" gradientUnits="userSpaceOnUse">
			<stop stop-color="rgb(138,255,231)" offset="0" stop-opacity="1" />
			<stop stop-color="rgb(0,193,255)" offset="1" stop-opacity="1" />
		</linearGradient>
		<linearGradient id="paint_linear_178" x1="11.6821012" x2="5.57450151" y1="15.1383667" y2="13.3834763" gradientUnits="userSpaceOnUse">
			<stop stop-color="rgb(0,13,17)" offset="0" stop-opacity="0" />
			<stop stop-color="rgb(0,13,17)" offset="1" stop-opacity="1" />
		</linearGradient>
		<linearGradient id="paint_linear_179" x1="15.1889515" x2="4.13626289" y1="15.7573013" y2="19.5904732" gradientUnits="userSpaceOnUse">
			<stop stop-color="rgb(37,43,58)" offset="0" stop-opacity="1" />
			<stop stop-color="rgb(37,43,58)" offset="1" stop-opacity="1" />
		</linearGradient>
		<linearGradient id="paint_linear_180" x1="12.2527771" x2="6.00274277" y1="13.3333731" y2="25.4459496" gradientUnits="userSpaceOnUse">
			<stop stop-color="rgb(138,255,231)" offset="0" stop-opacity="1" />
			<stop stop-color="rgb(0,193,255)" offset="1" stop-opacity="1" />
		</linearGradient>
	</defs>
	<mask id="mask_88" width="32.000000" height="32.000000" x="0.000000" y="0.000000" maskUnits="userSpaceOnUse">
		<g filter="url(#pixso_custom_mask_type_outline)">
			<rect id="蒙版" width="32.000000" height="32.000000" x="0.000000" y="0.000000" rx="2.666667" fill="rgb(255,255,255)" />
			<rect id="蒙版" width="31.000000" height="31.000000" x="0.500000" y="0.500000" rx="2.166667" stroke="rgb(239,226,238)" stroke-opacity="0" stroke-width="1" />
		</g>
	</mask>
	<rect id="工程首字母图标/O-32x33" width="32.000000" height="32.000000" x="0.000000" y="0.000000" />
	<rect id="矩形" width="32.000000" height="32.000000" x="0.000000" y="0.000000" rx="2.666667" fill="rgb(255,255,255)" />
	<rect id="矩形" width="31.000000" height="31.000000" x="0.500000" y="0.500000" rx="2.166667" stroke="rgb(151,151,151)" stroke-opacity="0" stroke-width="1" />
	<g id="形状" showMaskRef="url(#show_mask_72)" mask="url(#mask_88)">
		<g id="show_mask_72">
			<rect id="蒙版" width="32.000000" height="32.000000" x="0.000000" y="0.000000" rx="2.666667" fill="rgb(255,255,255)" />
			<rect id="蒙版" width="31.000000" height="31.000000" x="0.500000" y="0.500000" rx="2.166667" stroke="rgb(239,226,238)" stroke-opacity="0" stroke-width="1" />
		</g>
		<g id="Fill 5" showMaskRef="url(#show_mask_73)" mask="url(#mask_89)">
			<g id="show_mask_73">
				<rect id="蒙版" width="32.000000" height="32.000000" x="0.000000" y="0.000000" rx="2.666667" fill="rgb(255,255,255)" />
				<rect id="蒙版" width="31.000000" height="31.000000" x="0.500000" y="0.500000" rx="2.166667" stroke="rgb(236,247,249)" stroke-opacity="0" stroke-width="1" />
			</g>
			<path id="形状结合" d="M16.1698 -5.33337C15.2832 -5.33337 14.4105 -5.27337 13.5518 -5.16871L2.24317 -0.209374C1.51584 0.409293 0.827171 1.07329 0.187838 1.78329L16.4018 -5.32737C16.3245 -5.32804 16.2478 -5.33337 16.1698 -5.33337ZM24.0898 6.53213L18.1338 26.5148L26.3018 35.1521C26.6051 34.9895 26.9038 34.8201 27.1985 34.6448L19.2571 26.2468L24.9605 7.1108L20.2551 27.2248L27.7778 34.2815C28.0658 34.0961 28.3485 33.9048 28.6271 33.7061L21.3605 26.8901L25.8691 7.61946L22.4071 27.7855L29.1098 33.3581C29.3818 33.1528 29.6491 32.9415 29.9105 32.7241L23.4905 27.3855L26.8111 8.0428L24.5818 28.1961L30.2925 32.3935C30.5491 32.1701 30.7991 31.9408 31.0451 31.7055L25.6391 27.7321L27.7778 8.39813L26.7698 28.4581L31.3471 31.4175C31.5878 31.1775 31.8225 30.9321 32.0511 30.6815L27.7978 27.9321L28.7651 8.6808L28.9638 28.5728L32.2678 30.4368C32.4925 30.1828 32.7118 29.9241 32.9245 29.6595L29.9578 27.9855L29.7671 8.87946L31.1551 28.5388L33.0718 29.4728C33.2818 29.2055 33.4851 28.9341 33.6825 28.6581L32.1125 27.8935L30.7778 8.9928L33.3365 28.3581L33.7685 28.5375C33.9645 28.2595 34.1531 27.9768 34.3351 27.6895L34.2525 27.6548L31.7898 9.01546L35.1578 26.2855C35.4185 25.7955 35.6605 25.2941 35.8831 24.7835L32.7951 8.9468L36.4998 23.2015C36.7098 22.5935 36.8951 21.9748 37.0505 21.3435L33.7865 8.7848L37.3785 19.7535C37.5098 18.9681 37.6025 18.1695 37.6465 17.3575L34.7465 8.50346L37.6718 15.8461C37.6531 14.6208 37.5318 13.4201 37.3158 12.2521L35.6738 8.12813L37.0631 11.0655C34.9611 2.44346 27.6658 -4.1392 18.6765 -5.1832L-1.46287 6.8508L-1.38087 5.14013L18.6565 -5.1852C18.0225 -5.25854 17.3805 -5.30187 16.7311 -5.3192L-1.67687 4.16746C-2.44621 5.30746 -3.10887 6.52546 -3.65087 7.80746L-4.99821 19.9761C-4.82754 20.9335 -4.59621 21.8701 -4.30287 22.7795L-2.40754 5.66346L-3.34221 25.2281C-3.06287 25.8288 -2.75621 26.4141 -2.42487 26.9835L-1.50021 7.63413L-1.18154 28.8848C-0.858207 29.3255 -0.516873 29.7521 -0.16154 30.1661L-0.472873 9.46013L1.26446 31.6761C1.61379 32.0121 1.97246 32.3381 2.34313 32.6495L0.691127 11.5201L3.86779 33.8161C4.23179 34.0708 4.60179 34.3181 4.98246 34.5508L2.01646 13.7308L6.51713 35.3981C6.88846 35.5848 7.26513 35.7628 7.64846 35.9288L3.45779 15.7555L9.15313 36.5095C9.52713 36.6388 9.90579 36.7568 10.2885 36.8655L5.00379 17.6075L11.7338 37.2261C12.1065 37.3041 12.4825 37.3741 12.8618 37.4328L6.63246 19.2728L14.2211 37.5941C14.5891 37.6275 14.9598 37.6508 15.3331 37.6655L8.33779 20.7775L16.5931 37.6761C16.9591 37.6688 17.3225 37.6521 17.6831 37.6275L9.46246 20.8015L21.1191 3.49413L10.1385 22.1761L18.8365 37.5161C19.1925 37.4721 19.5458 37.4195 19.8965 37.3581L11.2931 22.1848L21.7731 4.35546L12.0451 23.4841L20.9345 37.1501C21.2791 37.0721 21.6205 36.9861 21.9591 36.8921L13.1978 23.4235L22.4905 5.15013L14.0191 24.6448L22.8798 36.6135C23.2118 36.5048 23.5405 36.3875 23.8651 36.2628L15.1665 24.5128L23.2611 5.88613L16.0518 25.6541L24.6705 35.9381C24.9885 35.8015 25.3018 35.6568 25.6118 35.5055L17.1891 25.4548L24.0898 6.53213ZM5.98605 -2.77262C7.75538 -3.72529 9.67405 -4.43662 11.6974 -4.86462L5.98605 -2.77262ZM-0.503091 7.44286L-0.477758 9.16953L19.0976 -4.26914L-0.503091 7.44286ZM0.547442 9.67808L0.682108 11.3994L0.902109 11.2274L19.2248 -3.14392L0.547442 9.67808ZM1.7465 11.8361L1.9845 13.5094L19.2572 -1.89858L1.7465 11.8361ZM3.06917 13.8821L3.40584 15.5048L19.4198 -0.703884L3.06917 13.8821ZM4.50969 15.8095L4.93902 17.3742L19.6864 0.44883L4.50969 15.8095ZM6.06131 17.6088L6.57731 19.1148L20.0693 1.53151L6.06131 17.6088ZM7.71513 19.2748L8.31313 20.7182L20.5551 2.54149L7.71513 19.2748ZM-4.14567 9.10983L-5.33301 15.9252C-5.30567 13.5398 -4.88967 11.2485 -4.14567 9.10983Z" opacity="0.100000001" fill="rgb(35,228,154)" fill-rule="evenodd" />
		</g>
	</g>
	<g id="编组">
		<g id="路径" showMaskRef="url(#show_mask_74)" mask="url(#mask_90)">
			<path id="show_mask_74" d="M30.1066 13.335L27.4523 13.335C24.1289 13.335 21.3133 15.7826 20.8509 19.0736L20.5333 21.335L16.9743 21.335L16.2246 26.6683L22.8513 26.6683C24.1806 26.6683 25.3069 25.6893 25.4919 24.3726L26.1323 19.816C26.2246 19.1616 26.7919 18.6683 27.4529 18.6683L29.3569 18.6683L30.1066 13.335Z" fill="url(#paint_linear_173)" fill-rule="evenodd" />
			<path id="路径" d="M23.4877 13C23.4877 13 22.2754 15.2975 22.9829 17.5678C23.6904 19.838 27.2215 23.0287 27.2215 23.0287L30.4036 15.8776L23.4877 13Z" fill="url(#paint_linear_174)" fill-rule="evenodd" />
			<path id="路径" d="M23.1692 13.7655C23.3347 13.2899 23.4877 13 23.4877 13L29.4801 15.4933L30.4036 15.8776L29.997 16.7915L27.6512 22.0629L27.2215 23.0287C27.2215 23.0287 26.9104 22.7476 26.4544 22.2929C25.374 21.2156 23.4804 19.1641 22.9829 17.5678C22.5542 16.1921 22.8304 14.8063 23.1147 13.9279C23.1329 13.8716 23.1511 13.8174 23.1692 13.7655ZM24.0412 14.3134Q23.9859 14.4919 23.9401 14.6752Q23.7789 15.3196 23.7629 15.9228Q23.7437 16.6481 23.9376 17.2702Q24.1349 17.9034 24.7643 18.8074Q25.303 19.5811 26.1115 20.4814Q26.4856 20.898 26.8907 21.3124L29.0734 16.4072L24.0412 14.3134Z" fill="url(#paint_linear_175)" fill-opacity="0" fill-rule="evenodd" />
		</g>
		<path id="Fill 35" d="M29.3568 18.6683L30.1065 13.335L28.5771 13.335C28.0485 13.335 27.7198 13.0476 27.5711 12.8763C27.4221 12.705 27.1831 12.3396 27.2568 11.816L27.7408 8.37296C27.9665 6.76829 26.7205 5.33496 25.1001 5.33496L19.2228 5.33496L18.4731 10.6683L22.0325 10.6683L21.9955 10.9326C21.7958 12.3516 21.9968 13.8143 22.6631 15.083C23.8428 17.328 26.1321 18.6683 28.5771 18.6683L29.3568 18.6683Z" fill="url(#paint_linear_176)" fill-rule="evenodd" />
		<path id="形状结合" d="M28.5784 18.6683C26.1995 18.6683 23.9679 17.3994 22.7625 15.263C23.9739 14.0647 25.6371 13.335 27.4517 13.335L30.1061 13.335L29.3564 18.6683L28.5784 18.6683Z" fill="rgb(0,239,255)" fill-rule="evenodd" />
		<g id="路径 2" showMaskRef="url(#show_mask_75)" mask="url(#mask_91)">
			<path id="show_mask_75" d="M2 18.6667L4.65433 18.6667C7.97767 18.6667 10.7933 16.219 11.2557 12.928L11.5733 10.6667L15.2503 10.6667L16 5.33337L9.25533 5.33337C7.926 5.33337 6.79967 6.31237 6.61467 7.62904L5.97433 12.1857C5.882 12.84 5.31467 13.3334 4.65367 13.3334L2.74967 13.3334L2 18.6667Z" fill="url(#paint_linear_177)" fill-rule="evenodd" />
			<path id="路径 2" d="M3.58054 16.8162L2.62842 20.0338L15.189 16C15.189 16 12.4711 13.8969 10.0967 13.1106C8.81011 12.6845 6.63806 12.7739 3.58054 13.3788C2.87628 13.5181 3.58054 16.8162 3.58054 16.8162Z" fill="url(#paint_linear_178)" fill-rule="evenodd" />
			<path id="路径 2" d="M3.58054 16.8162L2.97184 18.8733L2.62842 20.0338L3.78079 19.6638L14.0126 16.3778L15.189 16C15.189 16 14.7953 15.6955 14.1768 15.2748C13.1701 14.59 11.5675 13.5977 10.0967 13.1106Q8.16682 12.4714 3.58054 13.3788C2.87628 13.5181 3.58054 16.8162 3.58054 16.8162ZM12.9547 15.6673Q11.1327 14.5071 9.78229 14.0599Q8.99057 13.7977 7.54384 13.8572Q6.16752 13.9139 4.26772 14.2653Q4.26156 14.5727 4.31102 15.0457Q4.36236 15.5368 4.46625 16.1247Q4.51818 16.4186 4.5585 16.6073L4.6116 16.8561L4.12422 18.5032L12.9547 15.6673Z" fill="url(#paint_linear_179)" fill-opacity="0" fill-rule="evenodd" />
		</g>
		<path id="蒙版" d="M2.74967 13.3334L2 18.6667L3.52933 18.6667C4.058 18.6667 4.38667 18.954 4.53533 19.1254C4.68433 19.2967 4.92333 19.662 4.84967 20.1857L4.36567 23.6287C4.14 25.2334 5.386 26.6667 7.00633 26.6667L12.884 26.6667L13.6337 21.3334L10.074 21.3334L10.111 21.069C10.3107 19.65 10.1097 18.1874 9.44333 16.9187C8.26367 14.6737 5.97433 13.3334 3.52933 13.3334L2.74967 13.3334Z" fill="url(#paint_linear_180)" fill-rule="evenodd" />
		<path id="形状结合" d="M4.65433 18.6667L3.52916 18.6667L2 18.6667L2.74967 13.3334L3.52916 13.3334C5.90772 13.3334 8.13897 14.6019 9.34456 16.7377C8.13304 17.9366 6.4694 18.6667 4.65433 18.6667Z" fill="rgb(14,255,165)" fill-rule="evenodd" />
	</g>
	<rect id="蒙版" width="32.000000" height="32.000000" x="0.000000" y="0.000000" rx="2.666667" fill="rgb(255,255,255)" fill-opacity="0" />
	<rect id="蒙版" width="31.333334" height="31.333334" x="0.333333" y="0.333333" rx="2.333333" stroke="rgb(223,238,236)" stroke-width="0.666666687" />
</svg>
