<svg viewBox="0 0 16 16" xmlns="http://www.w3.org/2000/svg" xmlns:xlink="http://www.w3.org/1999/xlink" width="16.000000" height="16.000000" fill="none" customFrame="#000000">
	<defs>
		<filter id="pixso_custom_mask_type_outline">
			<feColorMatrix type="matrix" values="0 0 0 0 1 0 0 0 0 1 0 0 0 0 1 0 0 0 1 0 " />
		</filter>
		<clipPath id="clipPath_21">
			<rect width="7.500000" height="8.000000" x="4.500000" y="5.500000" fill="rgb(255,255,255)" />
		</clipPath>
	</defs>
	<mask id="mask_41" width="12.000000" height="14.000000" x="2.000000" y="1.000000" maskUnits="userSpaceOnUse">
		<g filter="url(#pixso_custom_mask_type_outline)">
			<path id="蒙版" d="M3.5 1L10 1L14 5L14 13.5C14 14.3284 13.3284 15 12.5 15L3.5 15C2.67157 15 2 14.3284 2 13.5L2 2.5C2 1.67157 2.67157 1 3.5 1Z" fill="rgb(255,255,255)" fill-rule="evenodd" />
			<path id="蒙版" d="M10 1L3.5 1C2.67157 1 2 1.67157 2 2.5L2 13.5C2 14.3284 2.67157 15 3.5 15L12.5 15C13.3284 15 14 14.3284 14 13.5L14 5L10 1ZM9.79289 1.5L13.5 5.20711L13.5 13.5Q13.5 13.6183 13.4736 13.7303Q13.4545 13.8113 13.4216 13.8891Q13.3872 13.9705 13.3399 14.0434Q13.2829 14.1313 13.2071 14.2071Q13.1314 14.2829 13.0435 14.3399Q12.9705 14.3872 12.8891 14.4216Q12.8113 14.4545 12.7303 14.4736Q12.6183 14.5 12.5 14.5L3.5 14.5Q3.38172 14.5 3.26965 14.4736Q3.18866 14.4545 3.11091 14.4216Q3.02953 14.3872 2.95653 14.3399Q2.86863 14.2828 2.79289 14.2071Q2.71714 14.1314 2.66014 14.0435Q2.6128 13.9705 2.57838 13.8891Q2.5455 13.8114 2.52641 13.7304Q2.5 13.6183 2.5 13.5L2.5 2.5Q2.5 2.38171 2.52641 2.26964Q2.5455 2.18865 2.57838 2.11091Q2.6128 2.02952 2.66016 1.95651Q2.71716 1.86863 2.79289 1.79289Q2.86863 1.71716 2.95652 1.66015Q3.02952 1.6128 3.11091 1.57838Q3.18865 1.5455 3.26965 1.52641Q3.38171 1.5 3.5 1.5L9.79289 1.5Z" fill="rgb(223,225,230)" fill-opacity="0" fill-rule="evenodd" />
		</g>
	</mask>
	<rect id="雪碧图/16px/drawing board" width="16.000000" height="16.000000" x="0.000000" y="0.000000" fill="rgb(255,255,255)" fill-opacity="0" />
	<g id="组合 3870">
		<rect id="矩形" width="16.000000" height="16.000000" x="0.000000" y="0.000000" fill="rgb(0,0,0)" fill-opacity="0" />
		<rect id="矩形" width="15.500000" height="15.500000" x="0.250000" y="0.250000" stroke="rgb(151,151,151)" stroke-opacity="0" stroke-width="0.5" />
		<g id="路径" showMaskRef="url(#show_mask_35)" mask="url(#mask_41)">
			<g id="show_mask_35">
				<path id="蒙版" d="M3.5 1L10 1L14 5L14 13.5C14 14.3284 13.3284 15 12.5 15L3.5 15C2.67157 15 2 14.3284 2 13.5L2 2.5C2 1.67157 2.67157 1 3.5 1Z" fill="rgb(92,179,0)" fill-rule="evenodd" />
				<path id="蒙版" d="M10 1L3.5 1C2.67157 1 2 1.67157 2 2.5L2 13.5C2 14.3284 2.67157 15 3.5 15L12.5 15C13.3284 15 14 14.3284 14 13.5L14 5L10 1ZM9.79289 1.5L13.5 5.20711L13.5 13.5Q13.5 13.6183 13.4736 13.7303Q13.4545 13.8113 13.4216 13.8891Q13.3872 13.9705 13.3399 14.0434Q13.2829 14.1313 13.2071 14.2071Q13.1314 14.2829 13.0435 14.3399Q12.9705 14.3872 12.8891 14.4216Q12.8113 14.4545 12.7303 14.4736Q12.6183 14.5 12.5 14.5L3.5 14.5Q3.38172 14.5 3.26965 14.4736Q3.18866 14.4545 3.11091 14.4216Q3.02953 14.3872 2.95653 14.3399Q2.86863 14.2828 2.79289 14.2071Q2.71714 14.1314 2.66014 14.0435Q2.6128 13.9705 2.57838 13.8891Q2.5455 13.8114 2.52641 13.7304Q2.5 13.6183 2.5 13.5L2.5 2.5Q2.5 2.38171 2.52641 2.26964Q2.5455 2.18865 2.57838 2.11091Q2.6128 2.02952 2.66016 1.95651Q2.71716 1.86863 2.79289 1.79289Q2.86863 1.71716 2.95652 1.66015Q3.02952 1.6128 3.11091 1.57838Q3.18865 1.5455 3.26965 1.52641Q3.38171 1.5 3.5 1.5L9.79289 1.5Z" fill="rgb(223,225,230)" fill-opacity="0" fill-rule="evenodd" />
			</g>
			<g id="svg" clip-path="url(#clipPath_21)" customFrame="url(#clipPath_21)">
				<rect id="svg" width="7.500000" height="8.000000" x="4.500000" y="5.500000" />
				<g id="ic_public_office_brush-画笔/base/ic_public_office_brush1">
					<path id="path6" d="M6.76667 11.7191L4.9375 12.4166L5.70847 10.3976L9.5562 6.55006C9.90081 6.20546 10.4595 6.20548 10.8041 6.55011C11.1486 6.89472 11.1486 7.45345 10.8041 7.79806L7.44561 11.1588" stroke="rgb(255,255,255)" stroke-linecap="round" stroke-linejoin="round" stroke-width="0.75" />
					<line id="path7" x1="0" x2="1.75776184" y1="0" y2="0" stroke="rgb(255,255,255)" stroke-linecap="square" stroke-linejoin="round" stroke-width="0.75" transform="matrix(0.70502,0.709187,-0.709187,0.70502,9.26733,6.84644)" />
					<path id="path8" d="M8.17505 11.816C8.38103 12.2212 8.6411 12.4237 8.95526 12.4237C9.44592 12.4237 9.66711 11.8477 10.0989 11.816C10.3867 11.7949 10.6734 11.9484 10.9591 12.2767" stroke="rgb(255,255,255)" stroke-linecap="round" stroke-linejoin="round" stroke-width="0.75" />
					<path id="矢量 793" d="M7 12.5439C7.07168 12.5892 7.27526 12.6527 7.51613 12.5439C7.75699 12.4351 8.89247 12 9.10753 12C9.32258 12 9.3914 12.136 9.32258 12.3173C9.25376 12.4986 8.97849 12.8159 9.06452 12.9518C9.15054 13.0878 9.96774 12.9065 10.3118 12.7705C10.6559 12.6346 10.914 12.6799 11 12.7705" opacity="0" stroke="rgb(255,255,255)" stroke-width="0.75" />
					<path id="path9" d="M10.0923 11.7287C10.4115 11.7053 10.7228 11.872 11.025 12.2192C11.0567 12.2557 11.0529 12.3109 11.0165 12.3427C10.98 12.3744 10.9247 12.3706 10.893 12.3341C10.6238 12.0248 10.3616 11.8844 10.1051 11.9033C9.9687 11.9133 9.85966 11.9784 9.66887 12.1435C9.64504 12.1642 9.64504 12.1642 9.62091 12.1852C9.34912 12.4216 9.19429 12.5112 8.95513 12.5112C8.60365 12.5112 8.3165 12.2876 8.09692 11.8556C8.07502 11.8126 8.09219 11.7599 8.13527 11.738C8.17834 11.7161 8.23102 11.7333 8.25292 11.7763C8.4453 12.1548 8.67828 12.3362 8.95513 12.3362C9.13841 12.3362 9.26461 12.2632 9.50605 12.0532C9.53011 12.0322 9.53011 12.0322 9.55437 12.0112C9.77216 11.8227 9.90665 11.7424 10.0923 11.7287Z" fill="rgb(255,255,255)" fill-opacity="0" fill-rule="nonzero" />
					<path id="path9" d="M11.025 12.2192C11.0567 12.2557 11.0529 12.3109 11.0165 12.3427C10.98 12.3744 10.9247 12.3706 10.893 12.3341C10.6238 12.0248 10.3616 11.8844 10.1051 11.9033C9.9687 11.9133 9.85966 11.9784 9.66887 12.1435C9.64504 12.1642 9.64504 12.1642 9.62091 12.1852C9.34912 12.4216 9.19429 12.5112 8.95513 12.5112C8.60365 12.5112 8.3165 12.2876 8.09692 11.8556C8.07502 11.8126 8.09219 11.7599 8.13527 11.738C8.17834 11.7161 8.23102 11.7333 8.25292 11.7763C8.4453 12.1548 8.67828 12.3362 8.95513 12.3362C9.13841 12.3362 9.26461 12.2632 9.50605 12.0532C9.53011 12.0322 9.53011 12.0322 9.55437 12.0112C9.77216 11.8227 9.90665 11.7424 10.0923 11.7287C10.4115 11.7053 10.7228 11.872 11.025 12.2192Z" fill-rule="nonzero" stroke="rgb(255,255,255)" stroke-opacity="0" stroke-linejoin="round" stroke-width="0.349999994" />
				</g>
			</g>
			<path id="路径" d="M14 5L10.75 5C10.3358 5 10 4.66421 10 4.25L10 1" fill="rgb(185,230,131)" fill-rule="evenodd" />
			<path id="路径" d="M14 5L10.75 5C10.3358 5 10 4.66421 10 4.25L10 1L10.5 1.5L10.5 4.25Q10.5 4.30178 10.5183 4.34597Q10.5366 4.39017 10.5732 4.42678Q10.6098 4.46339 10.654 4.48169Q10.6982 4.5 10.75 4.5L13.5 4.5L14 5Z" fill="rgb(223,225,230)" fill-opacity="0" fill-rule="evenodd" />
			<path id="路径 6" d="M4.25 10.6969L6.10865 8.74071L8.16705 11L11.75 7" opacity="0" fill="rgb(216,216,216)" fill-opacity="0" fill-rule="evenodd" />
			<path id="路径 6" d="M4.25 10.6969L6.10865 8.74071L8.16705 11L11.75 7" opacity="0" fill-rule="evenodd" stroke="rgb(255,255,255)" stroke-linecap="round" stroke-width="0.75" />
		</g>
	</g>
</svg>
