<svg viewBox="0 0 16 16" xmlns="http://www.w3.org/2000/svg" xmlns:xlink="http://www.w3.org/1999/xlink" width="16.000000" height="16.000000" fill="none" customFrame="#000000">
	<defs>
		<clipPath id="clipPath_22">
			<rect width="16.000000" height="16.000000" x="0.000000" y="0.000000" fill="rgb(255,255,255)" />
		</clipPath>
		<clipPath id="clipPath_23">
			<rect width="13.973434" height="13.000000" x="1.013184" y="1.500000" fill="rgb(255,255,255)" />
		</clipPath>
	</defs>
	<rect id="雪碧图/16px/floder-open" width="16.000000" height="16.000000" x="0.000000" y="0.000000" fill="rgb(255,255,255)" fill-opacity="0" />
	<g id="floder-open" customFrame="url(#clipPath_22)">
		<rect id="floder-open" width="16.000000" height="16.000000" x="0.000000" y="0.000000" fill="rgb(255,255,255)" fill-opacity="0" />
		<g id="floder-open" customFrame="url(#clipPath_23)">
			<rect id="floder-open" width="13.973434" height="13.000000" x="1.013184" y="1.500000" fill="rgb(255,255,255)" fill-opacity="0" />
			<path id="形状结合" d="M4.35476 1.5C4.73583 1.5 5.09551 1.66424 5.34871 1.94642L5.4385 2.05768L6.23516 3.15745C6.30019 3.24723 6.39244 3.30619 6.49296 3.32619L11.6657 3.33375C12.3703 3.33375 12.9424 3.88281 13.0073 4.57725L13.0134 4.70906L13.0132 4.999L4.17236 5C3.33724 5 2.5965 5.51779 2.30346 6.28766L2.25093 6.44492L1.01318 10.729L1.0134 2.87531C1.0134 2.16428 1.54407 1.57339 2.23063 1.50634L2.36109 1.5L4.35476 1.5Z" fill="rgb(10,89,247)" fill-rule="nonzero" />
			<path id="矩形备份" d="M4.79327 6L13.7868 6C14.4495 6 14.9868 6.53726 14.9868 7.2C14.9868 7.30806 14.9722 7.41562 14.9434 7.51977L13.2164 13.7665C13.0965 14.1999 12.7022 14.5 12.2525 14.5L2.06519 14.5C1.5129 14.5 1.06519 14.0523 1.06519 13.5C1.06519 13.4009 1.07993 13.3023 1.10892 13.2075L2.88075 7.41499C3.13793 6.57421 3.91404 6 4.79327 6Z" fill="rgb(77.6591,136.773,255)" fill-rule="evenodd" />
			<path id="矩形备份" d="M13.7868 6L4.79327 6C3.91404 6 3.13793 6.57421 2.88075 7.41499L1.10892 13.2075C1.07993 13.3023 1.06519 13.4009 1.06519 13.5C1.06519 14.0523 1.5129 14.5 2.06519 14.5L12.2525 14.5C12.7022 14.5 13.0965 14.1999 13.2164 13.7665L14.9434 7.51977C14.9722 7.41562 14.9868 7.30806 14.9868 7.2C14.9868 6.53726 14.4495 6 13.7868 6ZM4.79327 7L13.7868 7C13.8144 7 13.84 7.00488 13.8636 7.01465C13.8871 7.02441 13.9087 7.03905 13.9282 7.05858C13.9477 7.0781 13.9624 7.09965 13.9721 7.12322C13.9819 7.14679 13.9868 7.17239 13.9868 7.2C13.9868 7.20904 13.9862 7.218 13.985 7.22688C13.9838 7.23577 13.982 7.24457 13.9796 7.2533L12.2525 13.5L2.06519 13.5L3.83701 7.7075C3.86916 7.6024 3.91536 7.50723 3.97561 7.422C4.03586 7.33677 4.11016 7.26147 4.19851 7.1961C4.28686 7.13073 4.3806 7.08171 4.47973 7.04903C4.57885 7.01634 4.68337 7 4.79327 7Z" fill="rgb(151,151,151)" fill-opacity="0" fill-rule="evenodd" />
		</g>
	</g>
</svg>
