<svg width="16" height="16" viewBox="0 0 16 16" fill="none" xmlns="http://www.w3.org/2000/svg">
<path fill-rule="evenodd" clip-rule="evenodd" d="M8.50039 1.5C8.50039 1.22 8.28039 1 8.00039 1C7.72039 1 7.50039 1.22 7.50039 1.5V7.49976H1.5C1.22 7.49976 1 7.71976 1 7.99976C1 8.27976 1.22 8.49976 1.5 8.49976H7.50039V14.5C7.50039 14.78 7.72039 15 8.00039 15C8.28039 15 8.50039 14.78 8.50039 14.5V8.49976H14.5C14.78 8.49976 15 8.27976 15 7.99976C15 7.71976 14.78 7.49976 14.5 7.49976H8.50039V1.5Z" fill="#252B3A"/>
</svg>
