<?xml version="1.0" encoding="UTF-8"?>
<svg width="86px" height="28px" viewBox="0 0 86 28" version="1.1" xmlns="http://www.w3.org/2000/svg" xmlns:xlink="http://www.w3.org/1999/xlink">
    <title>华为logo-横版</title>
    <defs>
        <radialGradient cx="155.074751%" cy="-8.83376428%" fx="155.074751%" fy="-8.83376428%" r="203.183746%" gradientTransform="translate(1.550748,-0.088338),scale(1.000000,0.755874),translate(-1.550748,0.088338)" id="radialGradient-1">
            <stop stop-color="#F8C797" offset="0%"></stop>
            <stop stop-color="#E6211A" offset="42.7%"></stop>
            <stop stop-color="#E4211A" offset="67.46%"></stop>
            <stop stop-color="#DD211B" offset="77.4%"></stop>
            <stop stop-color="#D1201C" offset="84.68%"></stop>
            <stop stop-color="#BF1F1E" offset="90.66%"></stop>
            <stop stop-color="#A91E20" offset="95.78%"></stop>
            <stop stop-color="#901D22" offset="100%"></stop>
        </radialGradient>
        <radialGradient cx="173.24055%" cy="-542.640801%" fx="173.24055%" fy="-542.640801%" r="661.244622%" gradientTransform="translate(1.732406,-5.426408),scale(0.354396,1.000000),translate(-1.732406,5.426408)" id="radialGradient-2">
            <stop stop-color="#F8C797" offset="0%"></stop>
            <stop stop-color="#E6211A" offset="42.7%"></stop>
            <stop stop-color="#E4211A" offset="67.46%"></stop>
            <stop stop-color="#DD211B" offset="77.4%"></stop>
            <stop stop-color="#D1201C" offset="84.68%"></stop>
            <stop stop-color="#BF1F1E" offset="90.66%"></stop>
            <stop stop-color="#A91E20" offset="95.78%"></stop>
            <stop stop-color="#901D22" offset="100%"></stop>
        </radialGradient>
        <radialGradient cx="154.594942%" cy="-122.970668%" fx="154.594942%" fy="-122.970668%" r="290.783276%" gradientTransform="translate(1.545949,-1.229707),scale(0.616783,1.000000),translate(-1.545949,1.229707)" id="radialGradient-3">
            <stop stop-color="#F8C797" offset="0%"></stop>
            <stop stop-color="#E6211A" offset="42.7%"></stop>
            <stop stop-color="#E4211A" offset="67.46%"></stop>
            <stop stop-color="#DD211B" offset="77.4%"></stop>
            <stop stop-color="#D1201C" offset="84.68%"></stop>
            <stop stop-color="#BF1F1E" offset="90.66%"></stop>
            <stop stop-color="#A91E20" offset="95.78%"></stop>
            <stop stop-color="#901D22" offset="100%"></stop>
        </radialGradient>
        <radialGradient cx="167.52514%" cy="16.1623407%" fx="167.52514%" fy="16.1623407%" r="340.876648%" gradientTransform="translate(1.675251,0.161623),scale(1.000000,0.362674),translate(-1.675251,-0.161623)" id="radialGradient-4">
            <stop stop-color="#F8C797" offset="0%"></stop>
            <stop stop-color="#E6211A" offset="42.7%"></stop>
            <stop stop-color="#E4211A" offset="67.46%"></stop>
            <stop stop-color="#DD211B" offset="77.4%"></stop>
            <stop stop-color="#D1201C" offset="84.68%"></stop>
            <stop stop-color="#BF1F1E" offset="90.66%"></stop>
            <stop stop-color="#A91E20" offset="95.78%"></stop>
            <stop stop-color="#901D22" offset="100%"></stop>
        </radialGradient>
        <radialGradient cx="53.8810666%" cy="16.6660613%" fx="53.8810666%" fy="16.6660613%" r="338.877966%" gradientTransform="translate(0.538811,0.166661),scale(1.000000,0.365842),translate(-0.538811,-0.166661)" id="radialGradient-5">
            <stop stop-color="#F8C797" offset="0%"></stop>
            <stop stop-color="#E6211A" offset="42.7%"></stop>
            <stop stop-color="#E4211A" offset="67.46%"></stop>
            <stop stop-color="#DD211B" offset="77.4%"></stop>
            <stop stop-color="#D1201C" offset="84.68%"></stop>
            <stop stop-color="#BF1F1E" offset="90.66%"></stop>
            <stop stop-color="#A91E20" offset="95.78%"></stop>
            <stop stop-color="#901D22" offset="100%"></stop>
        </radialGradient>
        <radialGradient cx="10.0796271%" cy="-528.357996%" fx="10.0796271%" fy="-528.357996%" r="667.062272%" gradientTransform="translate(0.100796,-5.283580),scale(0.354396,1.000000),translate(-0.100796,5.283580)" id="radialGradient-6">
            <stop stop-color="#F8C797" offset="0%"></stop>
            <stop stop-color="#E6211A" offset="42.7%"></stop>
            <stop stop-color="#E4211A" offset="67.46%"></stop>
            <stop stop-color="#DD211B" offset="77.4%"></stop>
            <stop stop-color="#D1201C" offset="84.68%"></stop>
            <stop stop-color="#BF1F1E" offset="90.66%"></stop>
            <stop stop-color="#A91E20" offset="95.78%"></stop>
            <stop stop-color="#901D22" offset="100%"></stop>
        </radialGradient>
        <radialGradient cx="8.89722449%" cy="-122.943513%" fx="8.89722449%" fy="-122.943513%" r="292.581333%" gradientTransform="translate(0.088972,-1.229435),scale(0.616783,1.000000),translate(-0.088972,1.229435)" id="radialGradient-7">
            <stop stop-color="#F8C797" offset="0%"></stop>
            <stop stop-color="#E6211A" offset="42.7%"></stop>
            <stop stop-color="#E4211A" offset="67.46%"></stop>
            <stop stop-color="#DD211B" offset="77.4%"></stop>
            <stop stop-color="#D1201C" offset="84.68%"></stop>
            <stop stop-color="#BF1F1E" offset="90.66%"></stop>
            <stop stop-color="#A91E20" offset="95.78%"></stop>
            <stop stop-color="#901D22" offset="100%"></stop>
        </radialGradient>
        <radialGradient cx="17.1125081%" cy="-8.84528496%" fx="17.1125081%" fy="-8.84528496%" r="203.513925%" gradientTransform="translate(0.171125,-0.088453),scale(1.000000,0.759960),translate(-0.171125,0.088453)" id="radialGradient-8">
            <stop stop-color="#F8C797" offset="0%"></stop>
            <stop stop-color="#E6211A" offset="42.7%"></stop>
            <stop stop-color="#E4211A" offset="67.46%"></stop>
            <stop stop-color="#DD211B" offset="77.4%"></stop>
            <stop stop-color="#D1201C" offset="84.68%"></stop>
            <stop stop-color="#BF1F1E" offset="90.66%"></stop>
            <stop stop-color="#A91E20" offset="95.78%"></stop>
            <stop stop-color="#901D22" offset="100%"></stop>
        </radialGradient>
        <path d="M1.78086022,7.68048387 C1.86566308,9.28451613 3.02867384,10.2343548 3.02867384,10.2343548 L3.02867384,10.2343548 C4.90645161,12.127679 9.45551971,14.5180016 10.5094982,15.0590952 L10.5094982,15.0590952 C10.5216129,15.0653226 10.576129,15.0841306 10.6124731,15.0402242 L10.6124731,15.0402242 C10.6124731,15.0402242 10.6548746,15.0024194 10.6306452,14.9458694 L10.6306452,14.9458694 C7.73523297,8.41016129 3.77978495,3.45345 3.77978495,3.45345 L3.77978495,3.45345 C3.77978495,3.45345 1.62342975,5.56693548 1.78086022,7.68048387" id="path-9"></path>
        <path d="M2.24121864,16.8580645 C3.06501792,18.3740323 4.44609319,19.5502597 5.88774194,19.1854839 L5.88774194,19.1854839 C6.88114695,18.9275806 9.13448029,17.3047403 9.8734767,16.7574823 L9.8734767,16.7574823 C9.92799283,16.7008065 9.90982079,16.6630645 9.90982079,16.6630645 L9.90982079,16.6630645 C9.89164875,16.593871 9.81290323,16.593871 9.81290323,16.593871 L9.81290323,16.593871 L2.24121864,16.8580645 Z" id="path-11"></path>
        <path d="M0.430071685,13.3480645 C1.24781362,15.1408065 2.81666667,15.6880645 2.81666667,15.6880645 L2.81666667,15.6880645 C3.54354839,15.9962903 4.26437276,16.0152242 4.26437276,16.0152242 L4.26437276,16.0152242 C4.37946237,16.0340323 8.76504265,16.0152242 9.94010753,16.008871 L9.94010753,16.008871 C9.98856631,16.008871 10.018853,15.9585484 10.018853,15.9585484 L10.018853,15.9585484 C10.0551971,15.8956452 9.98856631,15.8390323 9.98856631,15.8390323 L9.98856631,15.8390323 C6.66308244,13.5179032 0.218064516,9.95758065 0.218064516,9.95758065 L0.218064516,9.95758065 C-0.36344086,11.8321597 0.430071685,13.3480645 0.430071685,13.3480645" id="path-13"></path>
        <path d="M10.4776971,0.0691935484 C10.11359,0.119516129 9.30408602,0.308225806 9.30408602,0.308225806 L9.30408602,0.308225806 C7.29904337,0.842966129 6.82663082,2.72370968 6.82663082,2.72370968 L6.82663082,2.72370968 C6.46318996,3.90629032 6.83874552,5.20845 6.83874552,5.20845 L6.83874552,5.20845 C7.50505376,8.27806452 10.8002509,13.3228403 11.5089606,14.3797403 L11.5089606,14.3797403 C11.5574194,14.4300629 11.5998208,14.411129 11.5998208,14.411129 L11.5998208,14.411129 C11.6785663,14.3859677 11.672509,14.3104839 11.672509,14.3104839 L11.672509,14.3104839 C12.7339986,3.3423 10.6434867,0.226262903 10.5322738,0.0691935484 L10.5322738,0.0691935484 L10.4776971,0.0691935484 Z" id="path-15"></path>
        <path d="M12.9687814,14.3293548 C12.9808961,14.3985484 13.0293548,14.4174194 13.0293548,14.4174194 L13.0293548,14.4174194 C13.102043,14.448871 13.1383265,14.3733871 13.1383265,14.3733871 L13.1383265,14.3733871 C13.8652688,13.2851613 17.1362366,8.27177419 17.8025448,5.21467742 L17.8025448,5.21467742 C17.8025448,5.21467742 18.1659857,3.73651452 17.8146595,2.73 L17.8146595,2.73 C17.8146595,2.73 17.317957,0.817741935 15.3129749,0.314516129 L15.3129749,0.314516129 C15.3129749,0.314516129 14.7375269,0.163548387 14.1196774,0.075483871 L14.1196774,0.075483871 C14.1164065,0.0816483871 11.8807606,3.08043387 12.9687814,14.3293548" id="path-17"></path>
        <path d="M14.7375269,16.6567113 C14.7375269,16.6567113 14.7193548,16.7259677 14.7678136,16.7637097 L14.7678136,16.7637097 C15.4946953,17.2983871 17.6874552,18.8898387 18.7474305,19.1980645 L18.7474305,19.1980645 C18.7474305,19.1980645 20.6994108,19.8885532 22.4000717,16.8750484 L22.4000717,16.8750484 L22.4000717,16.8641661 L14.8223297,16.593871 C14.8223297,16.593871 14.7556989,16.6001613 14.7375269,16.6567113" id="path-19"></path>
        <path d="M24.4065681,9.9450629 C24.115028,10.1128258 17.9055197,13.5664016 14.652724,15.8327419 L14.652724,15.8327419 C14.652724,15.8327419 14.5921505,15.8767742 14.6163799,15.9459677 L14.6163799,15.9459677 C14.6163799,15.9459677 14.6467272,16.0025806 14.6951254,16.0025806 L14.6951254,16.0025806 C15.8884229,16.0025806 20.3950896,16.008871 20.5101792,15.99 L20.5101792,15.99 C20.5101792,15.99 21.0916846,15.9648387 21.812509,15.6817742 L21.812509,15.6817742 C21.812509,15.6817742 23.4177061,15.1533871 24.2476233,13.2725806 L24.2476233,13.2725806 C24.2476233,13.2725806 24.9909204,11.7413903 24.419228,9.9450629 L24.419228,9.9450629 L24.4065681,9.9450629 Z" id="path-21"></path>
        <path d="M14.0227599,14.9143548 C14.0227599,14.9143548 13.9924731,14.9898387 14.0469892,15.0402242 L14.0469892,15.0402242 C14.0469892,15.0402242 14.1015659,15.0779032 14.1499642,15.0464516 L14.1499642,15.0464516 C15.2342294,14.4866129 19.7469534,12.1152242 21.6186738,10.2343548 L21.6186738,10.2343548 C21.6186738,10.2343548 22.7998566,9.25306452 22.8664875,7.67419355 L22.8664875,7.67419355 C22.9997491,5.47887097 20.8675627,3.45345 20.8675627,3.45345 L20.8675627,3.45345 C20.8675627,3.45345 16.918172,8.39129032 14.0227599,14.9143548" id="path-23"></path>
    </defs>
    <g id="华为logo-横版" stroke="none" stroke-width="1" fill="none" fill-rule="evenodd">
        <g id="编组-19" transform="translate(0.000000, 0.500000)">
            <g id="编组-18" transform="translate(39.000000, 6.000000)" fill="#000000">
                <path d="M5.20766844,6.46387204 C5.04389483,5.97139233 4.83993323,5.47891263 4.59487714,4.98643292 C5.7379686,4.61692133 6.75928742,4.26896711 7.65822929,3.93968583 L7.65822929,0.24608804 L9.31243341,0.24608804 L9.31243341,3.20111808 C10.5779018,2.62696326 11.8643707,1.86790083 13.1721423,0.923323541 L14.1523666,2.09303875 C12.6820301,3.11944297 11.068014,4.04276651 9.31243341,4.863313 L9.31243341,5.60188074 C9.27118784,6.34090392 9.63892305,6.69007264 10.4151858,6.64862783 L11.7018058,6.64862783 C12.354634,6.69007264 12.7633126,6.40223617 12.9270862,5.78663654 C13.0083687,5.41727676 13.0697082,4.88441493 13.1108027,4.18607749 C13.6823485,4.39193523 14.2137062,4.55558909 14.7038184,4.6785572 C14.5812903,5.41727676 14.4587623,6.05428195 14.3362342,6.58699196 C14.1312151,7.61339618 13.3761039,8.10587589 12.0693899,8.06443108 L9.80254558,8.06443108 C8.33205798,8.1473207 7.61713481,7.44883145 7.65822929,5.97139233 L7.65822929,5.5405485 C6.92290995,5.82808135 6.10555273,6.13580526 5.20766844,6.46387204 L5.20766844,6.46387204 Z M0.122528043,11.3888209 L0.122528043,9.84974592 L6.55547691,9.84974592 L6.55547691,8.24918688 L8.20968102,8.24918688 L8.20968102,9.84974592 L14.7038184,9.84974592 L14.7038184,11.3888209 L8.20968102,11.3888209 L8.20968102,14.7746948 L6.55547691,14.7746948 L6.55547691,11.3888209 L0.122528043,11.3888209 Z M0.612640213,6.0330282 C0.490263253,5.50001456 0.285244075,4.92464524 0,4.30919742 C1.63305254,3.24256289 3.02210658,1.80641677 4.16595345,0 L5.75896909,0.615599632 C5.22761135,1.39561219 4.6763107,2.13448356 4.10476497,2.83160649 L4.10476497,8.43394267 L2.45071194,8.43394267 L2.45071194,4.4938014 C1.9193542,5.02787773 1.30671398,5.5405485 0.612640213,6.0330282 L0.612640213,6.0330282 Z" id="Fill-170"></path>
                <path d="M23.3686003,7.90478794e-14 C23.288241,1.6761526 23.2089139,2.90238816 23.1294393,3.67825315 L29.4076367,3.67825315 C29.3673834,4.37384061 29.3076669,5.59977381 29.2281923,7.3565063 C29.147833,9.3183925 29.0881165,10.6672365 29.0487478,11.402736 C29.0086419,13.364471 28.0323873,14.3454897 26.1189518,14.3454897 C25.2016765,14.385704 24.2252744,14.4068695 23.1891558,14.4068695 C23.0697228,13.7525546 22.9294995,13.1804827 22.7706978,12.6903513 C23.7274892,12.7725942 24.6242693,12.8129598 25.4613328,12.8129598 C26.7366124,12.8952027 27.3747682,12.2611462 27.3747682,10.9123022 C27.3747682,10.5446281 27.3942314,9.93128351 27.4344848,9.07332681 C27.5139593,7.31644313 27.5736759,6.04893493 27.6139292,5.27216285 L23.0098588,5.27216285 C22.6903385,9.3183925 20.7171865,12.4862559 17.0904029,14.7746948 C17.0100436,14.6923007 16.9111058,14.5696923 16.7915253,14.4068695 C16.3925305,13.9164357 16.0740423,13.5484592 15.8348813,13.3033935 C19.2223566,11.2600203 21.0162115,8.58274187 21.2160038,5.27216285 L16.1936228,5.27216285 L16.1936228,3.67825315 L21.3954483,3.67825315 C21.5151763,2.49329022 21.5748928,1.26735702 21.5748928,7.90478794e-14 L23.3686003,7.90478794e-14 Z M24.0263668,6.98898335 C24.9026515,7.80702806 25.7004938,8.58274187 26.4179768,9.3183925 L25.1624552,10.5446281 C24.7633129,10.0541943 24.1851685,9.40078658 23.4283168,8.58274187 C23.1891558,8.29746182 23.0098588,8.09230812 22.8902783,7.96985086 L24.0263668,6.98898335 Z M18.2862079,0.183685885 C18.5253689,0.388688403 18.8842578,0.735499449 19.3625798,1.22608438 C19.8409018,1.6761526 20.1996433,2.02296364 20.4388043,2.2683317 L19.1234188,3.43288509 C18.5253689,2.6570201 17.8472545,1.90050639 17.0904029,1.16455339 L18.2862079,0.183685885 Z" id="Fill-171"></path>
                <path d="M32.9616208,1.13651498 L44.9585298,1.13651498 L44.9585298,2.82539682 L32.9616208,2.82539682 L32.9616208,1.13651498 Z M31.6697626,7.4549726 L31.6697626,5.76609077 L46.373581,5.76609077 L46.373581,7.4549726 L38.9907977,7.4549726 C37.9652004,8.9156772 36.6933688,10.5422307 35.1765164,12.3349417 C36.5301228,12.3349417 38.8880863,12.2519401 42.2514688,12.0848569 C41.5949955,11.125556 40.9183441,10.2500281 40.221211,9.45703889 L41.6364139,8.58135666 C42.2514688,9.2910357 43.1946846,10.4579949 44.4663645,12.0848569 C45.1219275,12.9196555 45.5939147,13.4815362 45.8814157,13.7737388 L44.3433232,14.7746948 L43.4204373,13.5236541 C42.0257161,13.5645377 39.8108204,13.6692925 36.7762055,13.8363757 C36.1195805,13.8775679 35.6274151,13.8991668 35.2995578,13.8991668 C34.5198914,13.9398962 33.8430883,14.0241321 33.2692999,14.1492516 L32.4694554,12.4600612 C33.0021288,12.1687842 33.5355608,11.7093442 34.0691445,11.0839009 C35.0534751,9.9166332 35.9349426,8.70647616 36.7144572,7.4549726 L31.6697626,7.4549726 Z" id="Fill-172"></path>
            </g>
            <g id="编组-5">
                <g id="编组" transform="translate(0.042108, 21.615932)" fill="#000000">
                    <polygon id="Path" points="2.71896482 1.66025285 0.836141835 1.66025285 0.836141835 1.65373092e-13 1.30361671e-14 1.65373092e-13 1.30361671e-14 4.10852427 0.836141835 4.10852427 0.836141835 2.44225601 2.71896482 2.44225601 2.71896482 4.10852427 3.54909124 4.10852427 3.54909124 1.65373092e-13 2.71896482 1.65373092e-13"></polygon>
                    <path d="M7.41699915,2.35202487 C7.41699915,3.01973526 7.08615167,3.37464438 6.48461078,3.37464438 C5.87705448,3.37464438 5.54620699,3.00770444 5.54620699,2.32194783 L5.54620699,1.65373092e-13 L4.71006516,1.65373092e-13 L4.71006516,2.35202487 C4.71006516,3.50698338 5.35371391,4.16867836 6.47257996,4.16867836 C7.60347683,4.16867836 8.25314099,3.49495256 8.25314099,2.31593242 L8.25314099,1.65373092e-13 L7.41699915,1.65373092e-13 L7.41699915,2.35202487 Z" id="Path"></path>
                    <polygon id="Path" points="17.0536842 2.82724218 16.1212958 1.65373092e-13 15.4415546 1.65373092e-13 14.5091662 2.82724218 13.6008395 1.65373092e-13 12.710559 1.65373092e-13 14.1422263 4.10852427 14.8339983 4.10852427 15.7663867 1.41362109 16.7047905 4.10852427 17.4025779 4.10852427 18.8282298 1.65373092e-13 17.9620109 1.65373092e-13"></polygon>
                    <polygon id="Path" points="20.3260666 2.33999406 21.8419497 2.33999406 21.8419497 1.59408335 20.3260666 1.59408335 20.3260666 0.751926111 22.5277063 0.751926111 22.5277063 1.65373092e-13 19.5019556 1.65373092e-13 19.5019556 4.10852427 22.6059066 4.10852427 22.6059066 3.35659816 20.3260666 3.35659816"></polygon>
                    <rect id="Rectangle" x="23.5984491" y="-1.39673219e-13" width="1" height="4.10250886"></rect>
                    <path d="M11.2127222,1.65373092e-13 L10.4848577,1.65373092e-13 L8.67421961,4.10852427 L9.52239226,4.10852427 L9.87128598,3.3144903 L9.89534761,3.25433621 L11.7781706,3.25433621 L12.1451105,4.10852427 L13.0173448,4.10852427 L11.224753,0.0240616355 L11.2127222,1.65373092e-13 Z M11.4653693,2.5084255 L10.2021335,2.5084255 L10.2442413,2.41217896 L10.2442413,2.41217896 L10.8337514,1.03465033 L11.4292769,2.41217896 L11.4292769,2.41217896 L11.4653693,2.5084255 Z" id="Shape" fill-rule="nonzero"></path>
                </g>
                <g id="Group-36">
                    <g id="XMLID_16_" fill-rule="nonzero">
                        <path d="M10.5131592,15.0971106 C10.5131592,15.0971106 10.5730671,15.0345437 10.5131592,14.9719769 L10.5131592,14.9719769 C7.63757971,8.46502501 3.6836579,3.45967742 3.6836579,3.45967742 C3.6836579,3.45967742 1.52697327,5.58695015 1.70669699,7.71422287 C1.7666049,9.34096084 2.96476302,10.2794635 2.96476302,10.2794635 C4.82190812,12.1564689 9.37490899,14.5965758 10.4532513,15.1596774 C10.3933434,15.1596774 10.4532513,15.1596774 10.5131592,15.0971106 Z" id="XMLID_26_" fill="url(#radialGradient-1)"></path>
                        <path d="M9.81290323,16.6706731 C9.81290323,16.6064516 9.69364919,16.6064516 9.69364919,16.6064516 L9.69364919,16.6064516 L2.18064516,16.8633377 C3.01542339,18.4046545 4.38684476,19.6248637 5.81789315,19.2395345 C6.83155242,18.9826483 9.03775202,17.3128885 9.75327621,16.7348947 L9.75327621,16.7348947 C9.81290323,16.6706731 9.81290323,16.6706731 9.81290323,16.6706731 Z" id="XMLID_25_" fill="url(#radialGradient-2)"></path>
                        <path d="M9.96806036,16.0403226 C10.0278278,15.9774194 9.96806036,15.9145161 9.96806036,15.9145161 L9.96806036,15.9145161 C6.68085279,13.5870968 0.225972462,9.93870968 0.225972462,9.93870968 C-0.371701642,11.8258065 0.405274694,13.3983871 0.405274694,13.3983871 C1.24201844,15.2225806 2.79597111,15.7887097 2.79597111,15.7887097 C3.51318004,16.1032258 4.23038896,16.1032258 4.23038896,16.1032258 C4.34992378,16.1032258 8.71294474,16.1032258 9.84852554,16.1032258 C9.96806036,16.1032258 9.96806036,16.0403226 9.96806036,16.0403226 Z" id="XMLID_24_" fill="url(#radialGradient-3)"></path>
                        <path d="M10.4763476,0 C10.1768765,0 9.27846323,0.250528365 9.27846323,0.250528365 C7.30195408,0.814217186 6.82280035,2.69317992 6.82280035,2.69317992 C6.46343505,3.88318966 6.82280035,5.19846357 6.82280035,5.19846357 C7.48163673,8.26743604 10.7758186,13.4032675 11.4945492,14.4680131 C11.5544435,14.5306452 11.5544435,14.5306452 11.5544435,14.5306452 C11.6143377,14.5306452 11.6143377,14.405381 11.6143377,14.405381 L11.6143377,14.405381 C12.7523278,3.00634038 10.4763476,0 10.4763476,0 Z" id="XMLID_23_" fill="url(#radialGradient-4)"></path>
                        <path d="M12.9524594,14.4048387 C13.0119359,14.4048387 13.0714123,14.3424801 13.0714123,14.3424801 L13.0714123,14.3424801 C13.7851291,13.2823837 17.0563314,8.23133641 17.7105719,5.17576456 C17.7105719,5.17576456 18.0674303,3.67915794 17.7105719,2.68142019 C17.7105719,2.68142019 17.2347606,0.74830331 15.2125629,0.249434437 C15.2125629,0.249434437 14.6177988,0.124717218 14.0230347,0 C14.0230347,0 11.8224077,2.99321324 12.892983,14.2801215 L12.892983,14.2801215 C12.892983,14.4048387 12.9524594,14.4048387 12.9524594,14.4048387 Z" id="XMLID_22_" fill="url(#radialGradient-5)"></path>
                        <path d="M14.7794514,16.6064516 C14.7794514,16.6064516 14.7193548,16.6064516 14.7193548,16.6692728 C14.7193548,16.6692728 14.7193548,16.732094 14.7193548,16.7949152 L14.7193548,16.7949152 C15.4405131,17.3603061 17.6640843,18.9308363 18.6857252,19.2449424 C18.6857252,19.2449424 20.6689103,19.9359756 22.3516129,16.8577364 L14.7794514,16.6064516 L14.7794514,16.6064516 Z" id="XMLID_21_" fill="url(#radialGradient-6)"></path>
                        <path d="M24.4510859,9.93870968 C24.4510859,9.93870968 18.0230087,13.5241935 14.7188569,15.9145161 L14.7188569,15.9145161 C14.7188569,15.9145161 14.6587814,15.9774194 14.6587814,16.0403226 C14.6587814,16.0403226 14.7188569,16.1032258 14.7188569,16.1032258 L14.7188569,16.1032258 C15.9203666,16.1032258 20.4260282,16.1032258 20.5461792,16.1032258 C20.5461792,16.1032258 21.1469341,16.1032258 21.8678399,15.7887097 C21.8678399,15.7887097 23.4898781,15.2854839 24.3309349,13.3354839 C24.2708595,13.3354839 24.9917653,11.7629032 24.4510859,9.93870968 Z" id="XMLID_20_" fill="url(#radialGradient-7)"></path>
                        <path d="M14.019116,15.0690338 C14.019116,15.0690338 14.0790625,15.1314497 14.139009,15.0690338 L14.139009,15.0690338 C15.218046,14.5072907 19.7140335,12.1354868 21.5723749,10.2630099 C21.5723749,10.2630099 22.7713049,9.26435561 22.8312514,7.70395825 C22.9511444,5.51940194 20.8530169,3.45967742 20.8530169,3.45967742 C20.8530169,3.45967742 16.896548,8.45294898 14.019116,14.944202 L14.019116,14.944202 C14.019116,14.944202 13.9591695,15.0690338 14.019116,15.0690338 Z" id="XMLID_19_" fill="url(#radialGradient-8)"></path>
                    </g>
                    <mask id="mask-10" fill="white">
                        <use xlink:href="#path-9"></use>
                    </mask>
                    <g id="Clip-13"></g>
                    <mask id="mask-12" fill="white">
                        <use xlink:href="#path-11"></use>
                    </mask>
                    <g id="Clip-16"></g>
                    <mask id="mask-14" fill="white">
                        <use xlink:href="#path-13"></use>
                    </mask>
                    <g id="Clip-19"></g>
                    <mask id="mask-16" fill="white">
                        <use xlink:href="#path-15"></use>
                    </mask>
                    <g id="Clip-22"></g>
                    <mask id="mask-18" fill="white">
                        <use xlink:href="#path-17"></use>
                    </mask>
                    <g id="Clip-25"></g>
                    <mask id="mask-20" fill="white">
                        <use xlink:href="#path-19"></use>
                    </mask>
                    <g id="Clip-28"></g>
                    <mask id="mask-22" fill="white">
                        <use xlink:href="#path-21"></use>
                    </mask>
                    <g id="Clip-31"></g>
                    <mask id="mask-24" fill="white">
                        <use xlink:href="#path-23"></use>
                    </mask>
                    <g id="Clip-34"></g>
                </g>
            </g>
        </g>
    </g>
</svg>