<svg width="16" height="16" viewBox="0 0 16 16" fill="none" xmlns="http://www.w3.org/2000/svg">
<path fill-rule="evenodd" clip-rule="evenodd" d="M3.99999 0.833252C4.24545 0.833252 4.4496 1.01013 4.49193 1.24338L4.49999 1.33325L4.49966 1.49925L13.3333 1.49992C13.6764 1.49992 13.9088 1.83321 13.8118 2.14597L13.7805 2.22353L12.559 4.66592L13.7805 7.10964C13.934 7.41652 13.7398 7.77342 13.4167 7.82651L13.3333 7.83325L4.49966 7.83225V14.1663L5.33332 14.1666C5.60947 14.1666 5.83332 14.3904 5.83332 14.6666C5.83332 14.912 5.65645 15.1162 5.4232 15.1585L5.33332 15.1666H2.66666C2.39051 15.1666 2.16666 14.9427 2.16666 14.6666C2.16666 14.4211 2.34353 14.217 2.57678 14.1746L2.66666 14.1666L3.49966 14.1663L3.49999 1.33325C3.49999 1.05711 3.72385 0.833252 3.99999 0.833252Z" fill="#F66F6A"/>
</svg>
