<svg width="16" height="16" viewBox="0 0 16 16" fill="none" xmlns="http://www.w3.org/2000/svg">
<path fill-rule="evenodd" clip-rule="evenodd" d="M4.00001 0.833252C4.24546 0.833252 4.44961 1.01013 4.49195 1.24338L4.50001 1.33325L4.49967 1.49925L13.3333 1.49992C13.6764 1.49992 13.9088 1.83321 13.8118 2.14597L13.7806 2.22353L12.559 4.66592L13.7806 7.10964C13.934 7.41652 13.7398 7.77342 13.4167 7.82651L13.3333 7.83325L4.49967 7.83225V14.1663L5.33334 14.1666C5.60948 14.1666 5.83334 14.3904 5.83334 14.6666C5.83334 14.912 5.65646 15.1162 5.42321 15.1585L5.33334 15.1666H2.66667C2.39053 15.1666 2.16667 14.9427 2.16667 14.6666C2.16667 14.4211 2.34355 14.217 2.5768 14.1746L2.66667 14.1666L3.49967 14.1663L3.50001 1.33325C3.50001 1.05711 3.72386 0.833252 4.00001 0.833252Z" fill="#FAC20A"/>
</svg>
