<svg viewBox="0 0 20.4878 20.4878" xmlns="http://www.w3.org/2000/svg" xmlns:xlink="http://www.w3.org/1999/xlink" width="20.487793" height="20.487793" fill="none" customFrame="#000000">
	<defs>
		<radialGradient id="paint_radial_3" cx="0" cy="0" r="1" gradientUnits="userSpaceOnUse" gradientTransform="matrix(6.99992,-9.91541,13.6337,9.62489,14.4067,9.49386)">
			<stop stop-color="rgb(103.159,153.773,255)" offset="0.0362472385" stop-opacity="1" />
			<stop stop-color="rgb(57,121,249)" offset="1" stop-opacity="1" />
		</radialGradient>
		<linearGradient id="paint_linear_3" x1="8.32808495" x2="8.32808495" y1="0" y2="1.9999758" gradientUnits="userSpaceOnUse">
			<stop stop-color="rgb(0,0,0)" offset="0" stop-opacity="1" />
			<stop stop-color="rgb(0,0,0)" offset="1" stop-opacity="0" />
		</linearGradient>
	</defs>
	<rect id="代码管理" width="19.999912" height="20.000002" x="0.243896" y="0.243896" fill="rgb(255,255,255)" fill-opacity="0" />
	<rect id="代码管理" width="19.999912" height="20.000002" x="0.243896" y="0.243896" fill="rgb(0,0,0)" fill-opacity="0" />
	<rect id="代码管理" width="19.999912" height="20.000002" x="0.243896" y="0.243896" stroke="rgb(201.438,201.294,201.496)" stroke-opacity="0" stroke-width="0.487802804" />
	<path id="矩形 1718" d="M4.41281 1.07397L16.0792 1.07397C17.4601 1.07397 18.5791 2.19383 18.5791 3.57394L18.5791 6.49383C18.5791 6.72381 18.3926 6.90886 18.1626 6.90886L2.32934 6.90886C2.09933 6.90886 1.91284 6.72381 1.91284 6.49383L1.91284 3.57394C1.91284 2.19383 3.03182 1.07397 4.41281 1.07397Z" fill="rgb(9,80,222)" fill-rule="evenodd" />
	<path id="矩形 1717" d="M1.49536 6.07397L18.9957 6.07397C19.2256 6.07397 19.4121 6.26391 19.4121 6.49389L19.4121 16.9088C19.4121 18.2887 18.2927 19.4088 16.9122 19.4088L3.57883 19.4088C2.19835 19.4088 1.07886 18.2887 1.07886 16.9088L1.07886 6.49389C1.07886 6.26391 1.26538 6.07397 1.49536 6.07397Z" fill="url(#paint_radial_3)" fill-rule="evenodd" />
	<g id="组合 2968">
		<path id="矩形 1719" d="M3.33332 4.16665L0.83333 4.16665C0.277777 4.16665 0 3.88887 0 3.33332L0 0.83333L1.66666 0.83333L1.66666 3.33332L0.83333 3.33332L0.83333 2.49999L3.33332 2.49999L3.33332 4.16665ZM0 0.83333C0 0.366666 0.366666 0 0.83333 0C1.29999 0 1.66666 0.366666 1.66666 0.83333L0 0.83333ZM3.33332 2.49999C3.79999 2.49999 4.16665 2.86666 4.16665 3.33332C4.16665 3.79999 3.79999 4.16665 3.33332 4.16665L3.33332 2.49999Z" fill="rgb(0,0,0)" fill-opacity="0.200000003" fill-rule="nonzero" transform="matrix(0.707107,0.707107,-0.707107,0.707107,6.0105,10.5955)" />
		<path id="矩形 1720" d="M3.33332 4.16665L0.83333 4.16665C0.277777 4.16665 0 3.88887 0 3.33332L0 0.83333L1.66666 0.83333L1.66666 3.33332L0.83333 3.33332L0.83333 2.49999L3.33332 2.49999L3.33332 4.16665ZM0 0.83333C0 0.366666 0.366666 0 0.83333 0C1.29999 0 1.66666 0.366666 1.66666 0.83333L0 0.83333ZM3.33332 2.49999C3.79999 2.49999 4.16665 2.86666 4.16665 3.33332C4.16665 3.79999 3.79999 4.16665 3.33332 4.16665L3.33332 2.49999Z" fill="rgb(0,0,0)" fill-opacity="0.200000003" fill-rule="nonzero" transform="matrix(-0.707107,0.707107,0.707107,0.707107,14.3423,10.5955)" />
		<path id="矩形 1721" d="M0.83333 0L5.83293 0L5.83293 1.66666L0.83333 1.66666L0.83333 0ZM0.83333 1.66666C0.366665 1.66666 0 1.29999 0 0.83333C0 0.366665 0.366665 0 0.83333 0L0.83333 1.66666ZM5.83293 0C6.29961 0 6.66626 0.366665 6.66626 0.83333C6.66626 1.29999 6.29961 1.66666 5.83293 1.66666L5.83293 0Z" fill="rgb(0,0,0)" fill-opacity="0.200000003" fill-rule="nonzero" transform="matrix(0.34143,-0.939907,-0.939907,-0.34143,9.84106,17.0118)" />
	</g>
	<g id="组合 2969">
		<path id="矩形 1719" d="M3.33332 4.16665L0.83333 4.16665C0.277777 4.16665 0 3.88887 0 3.33332L0 0.83333L1.66666 0.83333L1.66666 3.33332L0.83333 3.33332L0.83333 2.49999L3.33332 2.49999L3.33332 4.16665ZM0 0.83333C0 0.366666 0.366666 0 0.83333 0C1.29999 0 1.66666 0.366666 1.66666 0.83333L0 0.83333ZM3.33332 2.49999C3.79999 2.49999 4.16665 2.86666 4.16665 3.33332C4.16665 3.79999 3.79999 4.16665 3.33332 4.16665L3.33332 2.49999Z" fill="rgb(206,222,253)" fill-rule="nonzero" transform="matrix(0.707107,0.707107,-0.707107,0.707107,6.0105,9.59546)" />
		<path id="矩形 1720" d="M3.33332 4.16665L0.83333 4.16665C0.277777 4.16665 0 3.88887 0 3.33332L0 0.83333L1.66666 0.83333L1.66666 3.33332L0.83333 3.33332L0.83333 2.49999L3.33332 2.49999L3.33332 4.16665ZM0 0.83333C0 0.366666 0.366666 0 0.83333 0C1.29999 0 1.66666 0.366666 1.66666 0.83333L0 0.83333ZM3.33332 2.49999C3.79999 2.49999 4.16665 2.86666 4.16665 3.33332C4.16665 3.79999 3.79999 4.16665 3.33332 4.16665L3.33332 2.49999Z" fill="rgb(206,222,253)" fill-rule="nonzero" transform="matrix(-0.707107,0.707107,0.707107,0.707107,14.3423,9.59546)" />
		<path id="矩形 1721" d="M0.83333 0L5.83293 0L5.83293 1.66666L0.83333 1.66666L0.83333 0ZM0.83333 1.66666C0.366665 1.66666 0 1.29999 0 0.83333C0 0.366665 0.366665 0 0.83333 0L0.83333 1.66666ZM5.83293 0C6.29961 0 6.66626 0.366665 6.66626 0.83333C6.66626 1.29999 6.29961 1.66666 5.83293 1.66666L5.83293 0Z" fill="rgb(206,222,253)" fill-rule="nonzero" transform="matrix(0.34143,-0.939907,-0.939907,-0.34143,9.84106,16.0118)" />
	</g>
	<path id="直线 63" d="M8.57886 3.57397L11.9109 3.57397" stroke="rgb(206,222,253)" stroke-linecap="round" stroke-width="1.666659" />
	<rect id="矩形 1734" width="16.656172" height="1.999991" x="0.000000" y="0.000000" opacity="0.239999995" fill="url(#paint_linear_3)" transform="matrix(1,0,0,-1,1.91675,6.05444)" />
</svg>
