<svg viewBox="0 0 19.9998 19.9998" xmlns="http://www.w3.org/2000/svg" xmlns:xlink="http://www.w3.org/1999/xlink" width="19.999756" height="19.999756" fill="none">
	<defs>
		<radialGradient id="paint_radial_2" cx="0" cy="0" r="1" gradientUnits="userSpaceOnUse" gradientTransform="matrix(-8.16815,7.61001,-33.0602,-35.4849,4.43198,17.53)">
			<stop stop-color="rgb(8.94672,151.406,51.9233)" offset="0" stop-opacity="1" />
			<stop stop-color="rgb(10.8665,199.219,68.5494)" offset="1" stop-opacity="1" />
		</radialGradient>
		<linearGradient id="paint_linear_2" x1="4.24994802" x2="4.24994802" y1="0" y2="2.49996972" gradientUnits="userSpaceOnUse">
			<stop stop-color="rgb(0,0,0)" offset="0" stop-opacity="1" />
			<stop stop-color="rgb(0,0,0)" offset="1" stop-opacity="0" />
		</linearGradient>
	</defs>
	<rect id="软件设计" width="19.999756" height="19.999758" x="0.000000" y="0.000000" fill="rgb(255,255,255)" fill-opacity="0" />
	<g id="软件设计">
		<g id="组合 2977">
			<rect id="矩形 1781" width="16.499798" height="14.999819" x="0.000000" y="4.500122" rx="2.499969" fill="url(#paint_radial_2)" />
			<path id="减去顶层" d="M16.5014 3.99542L11.0475 11.7851C10.9925 11.8603 10.9675 11.9553 10.972 12.0503L11.0915 13.9953C11.108 14.2651 11.3685 14.4452 11.6265 14.3703L13.4954 13.8151C13.5864 13.7902 13.6644 13.7302 13.7194 13.6552L16.5014 9.68017L16.5014 3.99542Z" fill="rgb(0,0,0)" fill-opacity="0.149019614" fill-rule="evenodd" />
			<path id="矩形 1774" d="M0 1.63081C0 0.730136 0.730136 0 1.6308 0C2.53148 0 3.26161 0.730136 3.26161 1.63081L3.26161 12.1557C3.26161 12.2499 3.22968 12.3413 3.17104 12.415L1.95689 13.9414C1.79008 14.1511 1.47154 14.1511 1.30472 13.9414L0.0905804 12.415C0.0319303 12.3413 0 12.2499 0 12.1557L0 1.63081Z" fill="rgb(0,102,36)" fill-rule="evenodd" transform="matrix(0.819175,0.573543,-0.573543,0.819175,17.7302,0.580078)" />
			<path id="矢量 618" d="M0 3.99995C7.55546 3.99995 1.96152 0 8.4999 0" opacity="0.219999999" stroke="rgb(0,0,0)" stroke-width="1.49998176" transform="matrix(1,0,0,-1,2.49805,16.4199)" />
			<path id="矩形 1231" d="M0 0L8.4999 0L8.4999 2.49997L0 2.49997L0 0Z" opacity="0.230000004" fill="url(#paint_linear_2)" fill-rule="evenodd" transform="matrix(-1,0,0,1,12.4998,4.58008)" />
			<path id="矩形 1780" d="M0.416665 2.9802e-08L8.08325 2.9802e-08C8.31335 2.9802e-08 8.4999 0.186547 8.4999 0.416665L8.4999 0.999968C8.4999 2.38068 7.38061 3.49996 5.99993 3.49996L2.49999 3.49996C1.11928 3.49996 0 2.38068 0 0.999968L0 0.416665C0 0.186547 0.186547 2.9802e-08 0.416665 2.9802e-08Z" fill="rgb(1,128,43)" fill-rule="evenodd" transform="matrix(1,0,0,-1,3.99805,5.08008)" />
			<path id="矩形 1782" d="M0.416665 2.9802e-08L3.08329 2.9802e-08C3.31341 2.9802e-08 3.49996 0.186547 3.49996 0.416665L3.49996 1.74998C3.49996 2.71647 2.71647 3.49996 1.74998 3.49996C0.78349 3.49996 0 2.71647 0 1.74998L0 0.416665C0 0.186547 0.186547 2.9802e-08 0.416665 2.9802e-08Z" fill="rgb(1,128,43)" fill-rule="evenodd" transform="matrix(1,0,0,-1,6.49805,3.58008)" />
			<path id="矢量 616" d="M0 3.99995C7.55546 3.99995 1.96152 0 8.4999 0" stroke="rgb(213,242,220)" stroke-width="1.49998176" transform="matrix(1,0,0,-1,2.49805,15.4199)" />
		</g>
	</g>
</svg>
