<svg viewBox="0 0 20 20" xmlns="http://www.w3.org/2000/svg" xmlns:xlink="http://www.w3.org/1999/xlink" width="20.000000" height="20.000000" fill="none" customFrame="#000000">
	<defs>
		<radialGradient id="paint_radial_1" cx="0" cy="0" r="1" gradientUnits="userSpaceOnUse" gradientTransform="matrix(9.74988,-9.16786,12.2238,12.9998,14.6638,9.99996)">
			<stop stop-color="rgb(255,172.241,77.6591)" offset="0" stop-opacity="1" />
			<stop stop-color="rgb(255,136,0)" offset="1" stop-opacity="1" />
		</radialGradient>
		<linearGradient id="paint_linear_1" x1="9.99800587" x2="9.99800587" y1="7.5" y2="9.49997616" gradientUnits="userSpaceOnUse">
			<stop stop-color="rgb(0,0,0)" offset="0" stop-opacity="1" />
			<stop stop-color="rgb(0,0,0)" offset="1" stop-opacity="0" />
		</linearGradient>
	</defs>
	<rect id="项目协作" width="19.999908" height="20.000002" x="0.000000" y="0.000000" fill="rgb(255,255,255)" fill-opacity="0" />
	<rect id="项目协作" width="19.999908" height="20.000002" x="0.000000" y="0.000000" fill="rgb(255,255,255)" fill-opacity="0" />
	<path id="矩形 1132" d="M2.08447 6.66992L17.9178 6.66992C18.1478 6.66992 18.3348 6.85498 18.3348 7.08496L18.3348 16.6698C18.3348 18.0499 17.2153 19.1698 15.8343 19.1698L4.16794 19.1698C2.78746 19.1698 1.66797 18.0499 1.66797 16.6698L1.66797 7.08496C1.66797 6.85498 1.85447 6.66992 2.08447 6.66992Z" fill="url(#paint_radial_1)" fill-rule="evenodd" />
	<path id="矩形 1132" d="M3.332 1.66992L16.6653 1.66992C18.0458 1.66992 19.1653 2.7849 19.1653 4.16989L19.1653 7.0849C19.1653 7.31487 18.9788 7.49993 18.7488 7.49993L1.24853 7.49993C1.01852 7.49993 0.832031 7.31487 0.832031 7.0849L0.832031 4.16989C0.832031 2.7849 1.95152 1.66992 3.332 1.66992Z" fill="rgb(166,77,0)" fill-rule="evenodd" />
	<path id="矩形 1138" d="M5.83324 4.58315L0.83325 4.58315C0.277752 4.58315 0 4.3054 0 3.74991L0 0.83325L1.6665 0.83325L1.6665 3.74991L0.83325 3.74991L0.83325 2.91666L5.83324 2.91666L5.83324 4.58315ZM0 0.83325C0 0.366631 0.366631 0 0.83325 0C1.29987 0 1.6665 0.366631 1.6665 0.83325L0 0.83325ZM5.83324 2.91666C6.29984 2.91666 6.66648 3.28329 6.66648 3.74991C6.66648 4.21653 6.29984 4.58315 5.83324 4.58315L5.83324 2.91666Z" fill="rgb(0,0,0)" fill-opacity="0.200000003" fill-rule="nonzero" transform="matrix(0.707107,-0.707107,0.707107,0.707107,6.23584,13.5352)" />
	<path id="矩形 1758" d="M5.83332 4.58332L0.83333 4.58332C0.277777 4.58332 0 4.30554 0 3.74999L0 0.83333L1.66666 0.83333L1.66666 3.74999L0.83333 3.74999L0.83333 2.91666L5.83332 2.91666L5.83332 4.58332ZM0 0.83333C0 0.366666 0.366666 0 0.83333 0C1.29999 0 1.66666 0.366666 1.66666 0.83333L0 0.83333ZM5.83332 2.91666C6.29997 2.91666 6.66666 3.28332 6.66666 3.74999C6.66666 4.21665 6.29997 4.58332 5.83332 4.58332L5.83332 2.91666Z" fill="rgb(255,235,209)" fill-rule="nonzero" transform="matrix(0.707107,-0.707107,0.707107,0.707107,6.16895,12.0352)" />
	<path id="矢量 393" d="M7.49997 1.24998C7.49997 0.560052 6.94048 0 6.24998 0C5.55949 0 5 0.560052 5 1.24998L5 3.74995C5 4.43989 5.55949 4.99994 6.24998 4.99994C6.94048 4.99994 7.49997 4.43989 7.49997 3.74995L7.49997 1.24998Z" fill="rgb(252,188,114)" fill-rule="evenodd" />
	<path id="矢量 396" d="M14.9997 1.24998C14.9997 0.560052 14.4402 0 13.7497 0C13.0592 0 12.4998 0.560052 12.4998 1.24998L12.4998 3.74995C12.4998 4.43989 13.0592 4.99994 13.7497 4.99994C14.4402 4.99994 14.9997 4.43989 14.9997 3.74995L14.9997 1.24998Z" fill="rgb(252,188,114)" fill-rule="evenodd" />
	<rect id="矩形 1731" width="16.683512" height="1.999976" x="1.656250" y="7.500000" opacity="0.209999993" fill="url(#paint_linear_1)" />
</svg>
