<svg viewBox="0 0 48 48" xmlns="http://www.w3.org/2000/svg" xmlns:xlink="http://www.w3.org/1999/xlink" width="48.000000" height="48.000000" fill="none" customFrame="#000000">
	<rect id="项目首字母图标/0-48px*48px" width="48.000000" height="48.000000" x="0.000000" y="0.000000" />
	<rect id="矩形" width="48.000000" height="48.000000" x="0.000000" y="0.000000" opacity="0" fill="rgb(216,216,216)" />
	<rect id="矩形" width="47.000000" height="47.000000" x="0.500000" y="0.500000" opacity="0" stroke="rgb(151,151,151)" stroke-opacity="0" stroke-width="1" />
	<g id="0">
		<path id="路径" d="M38.1666 20.6609L38.1666 30.6667C38.1666 36.1896 33.6894 40.6667 28.1666 40.6667L19.8333 40.6667C14.3104 40.6667 9.83325 36.1896 9.83325 30.6667L9.83325 29.3217L18.1666 24.5109L18.1666 30.6667C18.1666 31.5454 18.8465 32.2652 19.7089 32.3288L19.8333 32.3334L28.1666 32.3334C29.0452 32.3334 29.7651 31.6535 29.8287 30.7911L29.8333 30.6667L29.8333 25.4717L38.1666 20.6609Z" fill="rgb(105,99,240)" fill-rule="evenodd" />
		<path id="形状结合" d="M38.1647 30.6668L38.1647 24.4775L29.8314 29.2394L29.8314 30.6668L29.8268 30.7912C29.7632 31.6535 29.0433 32.3334 28.1647 32.3334L27.3337 32.3334L27.3337 40.6668L28.1647 40.6668C33.6876 40.6668 38.1647 36.1896 38.1647 30.6668ZM27.3314 40.6666L27.3314 32.3333L23.998 32.3333L23.998 40.6666L27.3314 40.6666Z" fill="rgb(238,186,91)" fill-rule="evenodd" />
		<path id="路径" d="M38.1666 26.1434L29.8333 30.9051L29.8333 25.4717L38.1666 20.6609L38.1666 26.1434Z" fill="rgb(36,95,155)" fill-rule="evenodd" />
		<path id="路径" d="M28.1666 7.33337C33.6894 7.33337 38.1666 11.8105 38.1666 17.3334L38.1666 18.7367L29.8333 23.5475L29.8333 17.3334C29.8333 16.4547 29.1534 15.7349 28.291 15.6713L28.1666 15.6667L19.8333 15.6667C18.9546 15.6667 18.2348 16.3466 18.1712 17.209L18.1666 17.3334L18.1666 22.5859L9.83325 27.3975L9.83325 17.3334C9.83325 11.8105 14.3104 7.33337 19.8333 7.33337L28.1666 7.33337Z" fill="rgb(85,203,170)" fill-rule="evenodd" />
		<path id="形状结合" d="M34.839 20.6575L33.1725 21.6196L33.1726 17.3512L33.1677 17.116C33.1138 15.8526 32.5884 14.6784 31.7079 13.7979C30.7757 12.8658 29.5172 12.3335 28.1724 12.3335L19.8568 12.3333L19.6215 12.3381C18.3582 12.392 17.184 12.9175 16.3035 13.7979C15.3713 14.7301 14.839 15.9886 14.839 17.3335L14.8389 24.5071L13.1724 25.4693L13.1724 17.3324C13.1724 15.541 13.8834 13.86 15.125 12.6184C16.2978 11.4455 17.866 10.7438 19.5682 10.6713L19.839 10.6658L28.1724 10.6658C29.9638 10.6658 31.6448 11.3768 32.8864 12.6184C34.0593 13.7913 34.761 15.3594 34.8335 17.0617L34.839 17.3324L34.839 20.6575Z" fill="rgb(255,255,255)" fill-rule="evenodd" />
		<path id="形状结合" d="M29.8309 23.5471L29.8309 17.7736L9.82617 29.3233L9.82617 30.6671C9.82617 32.0737 10.1166 33.4124 10.6406 34.6266L29.8309 23.5471Z" fill="rgb(178,126,245)" fill-rule="evenodd" />
		<path id="形状结合" d="M18.1622 30.2836L10.6428 34.6249C10.119 33.4111 9.82886 32.0728 9.82886 30.6668L9.82886 29.3218L18.1622 24.511L18.1622 30.2836Z" fill="rgb(218,95,95)" fill-rule="evenodd" />
	</g>
</svg>
