<svg viewBox="0 0 48 48" xmlns="http://www.w3.org/2000/svg" xmlns:xlink="http://www.w3.org/1999/xlink" width="48.000000" height="48.000000" fill="none" customFrame="#000000">
	<rect id="项目首字母图标/2-48px*48px" width="48.000000" height="48.000000" x="0.000000" y="0.000000" />
	<rect id="矩形" width="48.000000" height="48.000000" x="0.000000" y="0.000000" opacity="0" fill="rgb(216,216,216)" />
	<rect id="矩形" width="47.000000" height="47.000000" x="0.500000" y="0.500000" opacity="0" stroke="rgb(151,151,151)" stroke-opacity="0" stroke-width="1" />
	<g id="2">
		<path id="形状结合" d="M23.9974 7.33378L23.9974 7.33301L13.9974 7.33301L13.7969 7.33639C10.668 7.44209 8.16406 10.0118 8.16406 13.1663L8.16406 18.9997L16.4974 18.9997L16.4974 15.6671L30.1755 15.6671L30.297 15.672C31.0587 15.7339 31.6576 16.3717 31.6576 17.1493C31.6576 17.7404 31.3064 18.2749 30.764 18.5096L30.6184 18.576L30.051 18.8479L26.2514 20.6804L23.7218 21.9129L20.438 23.5317L18.2761 24.6121L16.267 25.6293L14.4104 26.5835L12.7716 27.4406C14.3333 27.7072 15.7303 28.4567 16.8035 29.53C18.1608 30.8872 19.0002 32.7622 19.0002 34.8333C19.0002 36.9043 18.1608 38.7793 16.8035 40.1366C16.6166 40.3235 16.4198 40.5006 16.214 40.6671L39.8306 40.6671L39.8306 32.3338L21.4698 32.3338L22.2077 31.9627L24.3312 30.9028L26.6083 29.7788L29.0388 28.591L31.6223 27.3394L34.1931 26.1038L34.3103 26.0514C37.7675 24.4462 39.991 20.9766 39.991 17.1493C39.991 11.7284 35.5964 7.33384 30.1755 7.33378L23.9974 7.33378Z" fill="rgb(105,99,240)" fill-rule="evenodd" />
		<path id="形状结合" d="M21.4733 32.3333L21.472 32.3339L29.0002 32.3339L29.0002 40.6666L16.2146 40.6666C16.4201 40.5003 16.6166 40.3234 16.8033 40.1367C18.1605 38.7794 19 36.9044 19 34.8334C19 33.9567 18.8496 33.1152 18.5732 32.3333L21.4733 32.3333Z" fill="rgb(105,99,240)" fill-rule="evenodd" />
		<path id="形状结合" d="M29 7.33366L29 7.33325L16.5 7.33325L16.5 15.6666L28.9996 15.6666L28.9996 15.667L30.1778 15.667L30.2994 15.6719C31.0611 15.7337 31.66 16.3715 31.66 17.1492C31.66 17.7403 31.3088 18.2748 30.7663 18.5095L30.6207 18.5758L30.0533 18.8478L29.7755 18.9818L33.3241 26.5225L34.1955 26.1037L34.3127 26.0513C37.7698 24.4461 39.9933 20.9765 39.9933 17.1492C39.9933 11.7283 35.5988 7.33372 30.1779 7.33366L29 7.33366ZM29 7.33366L28.9996 7.33366L28.9996 15.6666L29 15.6666L29 7.33366Z" fill="rgb(234,113,143)" fill-rule="evenodd" />
		<path id="形状结合" d="M16.5031 7.33374L16.5031 15.6672L16.4969 15.6672L16.4969 19.0004L8.16357 19.0004L8.16357 13.1671C8.16357 10.0125 10.6676 7.44283 13.7964 7.33712L13.9969 7.33374L16.5031 7.33374Z" fill="rgb(97,212,220)" fill-rule="evenodd" />
		<path id="形状结合" d="M16.2141 40.6671L21.4703 40.6671L21.4703 40.6668L39.7989 40.6668L39.7989 32.3335L21.4655 32.3335L21.4655 32.3336L18.5733 32.3336C18.8497 33.1155 19 33.9569 19 34.8335C19 36.9045 18.1606 38.7795 16.8033 40.1368C16.6165 40.3236 16.4198 40.5007 16.2141 40.6671Z" fill="rgb(178,126,245)" fill-rule="evenodd" />
		<rect id="矩形" width="10.833333" height="8.333333" x="28.999756" y="32.333374" fill="rgb(85,203,170)" />
		<path id="椭圆形" d="M11.5001 40.6667C14.7217 40.6667 17.3334 38.055 17.3334 34.8333C17.3334 31.6117 14.7217 29 11.5001 29C8.27842 29 5.66675 31.6117 5.66675 34.8333C5.66675 38.055 8.27842 40.6667 11.5001 40.6667Z" fill="rgb(231,131,89)" fill-rule="evenodd" />
		<circle id="椭圆形" cx="11.5" cy="34.833252" r="2.5" fill="rgb(255,255,255)" fill-opacity="0" />
		<circle id="椭圆形" cx="11.5" cy="34.833252" r="2.5" stroke="rgb(255,255,255)" stroke-width="1.66666663" />
		<path id="形状结合" d="M30.1775 10.6663C33.7574 10.6663 36.6596 13.5685 36.6596 17.1485C36.6596 19.7335 35.1237 22.0714 32.7803 23.0845L31.9106 23.503L31.2004 21.9951L32.0894 21.5681C33.8519 20.8056 34.9929 19.0688 34.9929 17.1485C34.9929 14.5508 32.9361 12.4335 30.3622 12.3364L30.1774 12.3329L14.8326 12.3329C13.954 12.3329 13.2341 13.0128 13.1705 13.8752L13.1659 13.9996L13.1659 15.6663L11.4993 15.6663L11.4993 13.9996C11.4993 12.2144 12.9026 10.757 14.6662 10.6703L14.8326 10.6663L30.1775 10.6663ZM28.9977 37.3329L36.4993 37.3329L36.4993 35.6663L28.9977 35.6663L28.9977 37.3329Z" fill="rgb(255,255,255)" fill-rule="evenodd" />
	</g>
</svg>
