<svg viewBox="0 0 48 48" xmlns="http://www.w3.org/2000/svg" xmlns:xlink="http://www.w3.org/1999/xlink" width="48.000000" height="48.000000" fill="none" customFrame="#000000">
	<rect id="项目首字母图标/8-48px*48px" width="48.000000" height="48.000000" x="0.000000" y="0.000000" />
	<rect id="矩形" width="48.000000" height="48.000000" x="0.000000" y="0.000000" opacity="0" fill="rgb(216,216,216)" />
	<rect id="矩形" width="47.000000" height="47.000000" x="0.500000" y="0.500000" opacity="0" stroke="rgb(151,151,151)" stroke-opacity="0" stroke-width="1" />
	<g id="8">
		<rect id="矩形" width="30.000000" height="6.666667" x="9.000000" y="20.666626" fill="rgb(84,59,186)" />
		<path id="矩形" d="M19 7.33325L29 7.33325C34.5229 7.33325 39 11.8104 39 17.3333L39 30.6666C39 36.1894 34.5228 40.6666 29 40.6666L19 40.6666C13.4772 40.6666 9 36.1894 9 30.6666L9 17.3333C9 11.8104 13.4772 7.33325 19 7.33325ZM28.9995 15.6668L18.9995 15.6668C18.079 15.6668 17.3328 16.413 17.3328 17.3335L17.3328 30.6668C17.3328 31.5873 18.079 32.3335 18.9995 32.3335L28.9995 32.3335C29.92 32.3335 30.6662 31.5873 30.6662 30.6668L30.6662 17.3335C30.6662 16.413 29.92 15.6668 28.9995 15.6668Z" fill="rgb(218,95,95)" fill-rule="evenodd" />
		<path id="形状结合" d="M24 40.6665L19 40.6665C13.4772 40.6665 9 36.1893 9 30.6665L9 23.9998L17.3328 23.9998L17.3328 30.6666C17.3328 31.5871 18.079 32.3333 18.9995 32.3333L24 32.3333L24 40.6665Z" fill="rgb(85,203,170)" fill-rule="evenodd" />
		<path id="形状结合" d="M39 24L30.6662 24L30.6662 17.3334C30.6662 16.4129 29.92 15.6667 28.9995 15.6667L18.9995 15.6667C18.079 15.6667 17.3328 16.4129 17.3328 17.3334L17.3328 24L9 24L9 17.3333C9 11.8104 13.4772 7.33325 19 7.33325L29 7.33325C34.5229 7.33325 39 11.8104 39 17.3333L39 24Z" fill="rgb(105,99,240)" fill-rule="evenodd" />
		<path id="形状结合" d="M24 7.33398L24 15.6668L18.9995 15.6668C18.079 15.6668 17.3328 16.413 17.3328 17.3335L17.3328 24.0001L9 24.0001L9 17.334C9 11.8111 13.4772 7.33398 19 7.33398L24 7.33398Z" fill="rgb(238,186,91)" fill-rule="evenodd" />
		<path id="形状结合" d="M11.6764 14.1659L11.6712 14.1659L11.6712 14.1667L4.16667 14.1667C4.14975 14.1667 4.13285 14.1666 4.11598 14.1664C2.7598 14.1946 1.66911 15.3029 1.66911 16.6658L1.66911 19.9991C1.66911 22.7606 3.90769 24.9991 6.66911 24.9991L11.6712 24.9991L11.6712 26.6665L6.66667 26.6665C2.98477 26.6665 0 23.6818 0 19.9999L0 16.6665C0 15.3036 0.654419 14.0935 1.66618 13.3333C0.654419 12.5731 0 11.363 0 10L0 6.66667C0 2.98477 2.98477 0 6.66667 0L11.6764 0L11.6764 1.66581L6.66911 1.66581C3.90769 1.66581 1.66911 3.90439 1.66911 6.66581L1.66911 9.99914C1.66911 11.3799 2.7884 12.4991 4.16911 12.4991L11.6764 12.4991L11.6764 14.1659Z" fill="rgb(255,255,255)" fill-rule="evenodd" transform="matrix(-1,0,0,1,35.6777,10.6672)" />
		<path id="路径" d="M20.6666 10.6666L20.6666 12.3333L18.9999 12.3333L18.8125 12.3367C16.2001 12.433 14.0996 14.5335 14.0034 17.1458L13.9999 17.3333L13.9999 20.6666L12.3333 20.6666L12.3333 17.3333L12.3364 17.1256C12.444 13.6088 15.2754 10.7774 18.7923 10.6698L18.9999 10.6666L20.6666 10.6666Z" fill="rgb(255,255,255)" fill-rule="evenodd" />
	</g>
</svg>
