<svg viewBox="0 0 48 48" xmlns="http://www.w3.org/2000/svg" xmlns:xlink="http://www.w3.org/1999/xlink" width="48.000000" height="48.000000" fill="none" customFrame="#000000">
	<rect id="项目首字母图标/A-48px*48px" width="48.000000" height="48.000000" x="0.000000" y="0.000000" />
	<rect id="矩形" width="48.000000" height="48.000000" x="0.000000" y="0.000000" opacity="0" fill="rgb(216,216,216)" />
	<rect id="矩形" width="47.000000" height="47.000000" x="0.500000" y="0.500000" opacity="0" stroke="rgb(151,151,151)" stroke-opacity="0" stroke-width="1" />
	<g id="a">
		<path id="形状结合" d="M20.0398 40.6668L23.1635 32.3335L34.8335 32.3335L34.8335 40.6668L20.0398 40.6668Z" fill="rgb(105,99,240)" fill-rule="evenodd" />
		<path id="路径" d="M30.3901 13.2622L40.6668 40.6666L32.3334 40.6666L26.2251 24.3764L30.3901 13.2622Z" fill="rgb(231,131,89)" fill-rule="evenodd" />
		<path id="路径" d="M30.4482 35.6659L31.0724 37.3334L24.623 37.3334L25.2478 35.6665L30.4482 35.6659Z" fill="rgb(255,255,255)" fill-rule="evenodd" />
		<path id="Rectangle" d="M19.8335 7.33337L28.1668 7.33337L15.6668 40.6667L7.3335 40.6667L19.8335 7.33337Z" fill="rgb(108,163,244)" fill-rule="evenodd" />
		<path id="Path" d="M19.8335 7.33337L16.7085 15.6667L14.2085 15.6667L17.3335 7.33337L19.8335 7.33337Z" fill="rgb(255,143,206)" fill-rule="evenodd" />
		<path id="Path" d="M22.3335 7.33337L19.2085 15.6667L16.7085 15.6667L19.8335 7.33337L22.3335 7.33337Z" fill="rgb(84,59,186)" fill-rule="evenodd" />
		<path id="Path" d="M23.7918 19L15.6668 40.6667L7.3335 40.6667L15.4585 19L23.7918 19Z" fill="rgb(178,126,245)" fill-rule="evenodd" />
		<path id="路径" d="M20.5146 18.9999L13.5565 37.3332L11.7773 37.3332L18.7346 18.9999L20.5146 18.9999Z" fill="rgb(255,255,255)" fill-rule="evenodd" />
		<path id="路径" d="M12.1568 36.3332L11.7773 37.3332L13.5565 37.3332L20.135 19.9999L20.5146 18.9999L18.7346 18.9999L12.1568 36.3332Z" fill="rgb(151,151,151)" fill-opacity="0" fill-rule="evenodd" />
	</g>
</svg>
