<svg viewBox="0 0 48 48" xmlns="http://www.w3.org/2000/svg" xmlns:xlink="http://www.w3.org/1999/xlink" width="48.000000" height="48.000000" fill="none" customFrame="#000000">
	<rect id="项目首字母图标/B-48px*48px" width="48.000000" height="48.000000" x="0.000000" y="0.000000" />
	<rect id="矩形" width="48.000000" height="48.000000" x="0.000000" y="0.000000" opacity="0" fill="rgb(216,216,216)" />
	<rect id="矩形" width="47.000000" height="47.000000" x="0.500000" y="0.500000" opacity="0" stroke="rgb(151,151,151)" stroke-opacity="0" stroke-width="1" />
	<g id="b">
		<rect id="Rectangle" width="8.333333" height="33.333332" x="8.166504" y="7.333374" fill="rgb(238,186,91)" />
		<rect id="Rectangle" width="2.500000" height="16.666666" x="8.166504" y="14.833374" fill="rgb(255,143,206)" />
		<path id="Path" d="M8.1665 27.3333L28.9998 27.3333C30.3805 27.3333 31.4998 28.4526 31.4998 29.8333C31.4998 31.1328 30.5084 32.2007 29.2406 32.3219L28.9998 32.3333L16.4998 32.3333L16.4998 40.6667L28.9998 40.6667C34.9829 40.6667 39.8332 35.8164 39.8332 29.8333C39.8332 23.8502 34.9829 19 28.9998 19L8.1665 19L8.1665 27.3333Z" fill="rgb(178,126,245)" fill-rule="evenodd" />
		<rect id="Rectangle" width="5.833333" height="8.333333" x="10.666504" y="19.000000" fill="rgb(84,59,186)" />
		<rect id="Rectangle" width="2.500000" height="8.333333" x="8.166504" y="19.000000" fill="rgb(40,133,139)" />
		<rect id="Rectangle" width="2.500000" height="16.666666" x="5.666504" y="14.833374" fill="rgb(108,163,244)" />
		<path id="Path" d="M29 22.3334C31.0711 22.3334 32.9461 23.1728 34.3033 24.5301C35.6605 25.8873 36.5 27.7623 36.5 29.8334C36.5 31.9044 35.6605 33.7794 34.3033 35.1367C33.0039 36.4361 31.2299 37.2612 29.2634 37.3289L19.8333 37.3327L19.8333 35.6667L29.1226 35.6667C30.8132 35.5593 32.1844 34.8665 33.1539 33.897C34.2209 32.83 34.8333 31.404 34.8333 29.8334C34.8333 28.2225 34.1804 26.7642 33.1248 25.7086C32.1248 24.7085 30.7633 24.0704 29.2534 24.0055L16.5 24.0005L16.5 22.3334L29 22.3334Z" fill="rgb(255,255,255)" fill-rule="evenodd" />
		<path id="Path" d="M29.1226 35.6667L19.8333 35.6667L19.8333 37.3327L20.8333 37.3323L29.2634 37.3289C31.2299 37.2612 33.0039 36.4361 34.3033 35.1367C35.6605 33.7794 36.5 31.9044 36.5 29.8334C36.5 27.7623 35.6605 25.8873 34.3033 24.5301C32.9461 23.1728 31.0711 22.3334 29 22.3334L16.5 22.3334L16.5 24.0005L29.2534 24.0055C30.7633 24.0704 32.1248 24.7085 33.1248 25.7086C34.1804 26.7642 34.8333 28.2225 34.8333 29.8334C34.8333 31.404 34.2209 32.83 33.1539 33.897C32.1844 34.8665 30.8132 35.5593 29.1226 35.6667Z" fill="rgb(151,151,151)" fill-opacity="0" fill-rule="evenodd" />
		<path id="Path" d="M16.4992 22.3334L16.4992 24.0025L4 24.0005L4 22.3334L16.4992 22.3334Z" fill="rgb(238,186,91)" fill-rule="evenodd" />
		<path id="Path" d="M37.839 7.66119C40.101 9.92324 41.5002 13.0482 41.5002 16.5C41.5002 18.9511 40.7947 21.2374 39.5757 23.167C39.0785 22.3792 38.495 21.6505 37.839 20.9945C37.6547 20.8103 37.4647 20.6317 37.2693 20.4592C37.8446 19.2619 38.1668 17.9186 38.1668 16.5C38.1668 13.7381 36.9454 11.2615 35.0132 9.58093L37.3749 7.22009C37.5333 7.36318 37.6881 7.51026 37.839 7.66119Z" fill="rgb(234,216,131)" fill-rule="evenodd" />
		<path id="Path" d="M20.6665 14L20.6665 7.33337L28.9998 7.33337C34.0624 7.33337 38.1665 11.4374 38.1665 16.5C38.1665 17.9186 37.8443 19.2619 37.269 20.4608C35.605 18.9903 33.547 17.9575 31.2737 17.5397C31.419 17.2234 31.4998 16.8712 31.4998 16.5C31.4998 15.1193 30.3805 14 28.9998 14L20.6665 14Z" fill="rgb(218,95,95)" fill-rule="evenodd" />
	</g>
</svg>
