<svg viewBox="0 0 48 48" xmlns="http://www.w3.org/2000/svg" xmlns:xlink="http://www.w3.org/1999/xlink" width="48.000000" height="48.000000" fill="none" customFrame="#000000">
	<rect id="项目首字母图标/E-48px*48px" width="48.000000" height="48.000000" x="0.000000" y="0.000000" />
	<rect id="矩形" width="48.000000" height="48.000000" x="0.000000" y="0.000000" opacity="0" fill="rgb(216,216,216)" />
	<rect id="矩形" width="47.000000" height="47.000000" x="0.500000" y="0.500000" opacity="0" stroke="rgb(151,151,151)" stroke-opacity="0" stroke-width="1" />
	<g id="e">
		<path id="Path" d="M39 7.33337L39 15.6667L19.8333 15.6667C18.5019 15.6667 17.4136 16.7075 17.3376 18.0198L17.3333 18.1667L17.3333 29.8334C17.3333 31.1648 18.3741 32.2531 19.6864 32.3291L19.8333 32.3334L39 32.3334L39 40.6667L19.8333 40.6667C13.9357 40.6667 9.13881 35.954 9.00296 30.0891L9 29.8334L9 18.1667C9 12.2691 13.7127 7.47218 19.5776 7.33633L19.8333 7.33337L39 7.33337Z" fill="rgb(108,163,244)" fill-rule="evenodd" />
		<rect id="Rectangle" width="16.666666" height="8.333333" x="22.333496" y="32.333374" fill="rgb(218,95,95)" />
		<path id="Path" d="M32.3333 7.33337L32.3333 15.6667L19.8333 15.6667C18.5019 15.6667 17.4136 16.7075 17.3376 18.0198L17.3333 18.1667L17.3333 19.8334L9 19.8334L9 18.1667C9 12.2691 13.7127 7.47218 19.5776 7.33633L19.8333 7.33337L32.3333 7.33337Z" fill="rgb(178,126,245)" fill-rule="evenodd" />
		<path id="Path" d="M13.3333 0L13.3333 8.33333L10.8333 8.33333C9.50193 8.33333 8.41362 9.3741 8.33758 10.6864L8.33333 10.8333L8.33333 12.5L0 12.5L0 10.8333C0 4.93572 4.71266 0.13881 10.5776 0.0029587L10.8333 0L13.3333 0Z" fill="rgb(178,126,245)" fill-rule="evenodd" transform="matrix(1,0,0,-1,9,40.6666)" />
		<path id="Path" d="M35.6668 10.6666L35.6668 12.3333L19.8335 12.3333C16.679 12.3333 14.1092 14.8373 14.0035 17.9661L14.0002 18.1666L14.0002 19.8333L12.3335 19.8333L12.3335 18.1666C12.3335 14.0985 15.5725 10.7868 19.6124 10.6698L19.8335 10.6666L35.6668 10.6666Z" fill="rgb(255,255,255)" fill-rule="evenodd" />
		<path id="Path" d="M34.6668 12.3333L19.8335 12.3333C16.679 12.3333 14.1092 14.8373 14.0035 17.9661L14.0002 18.1666L14.0002 19.8333L12.3335 19.8333L12.3335 18.1666C12.3335 14.0985 15.5725 10.7868 19.6124 10.6698L19.8335 10.6666L35.6668 10.6666L35.6668 12.3333L34.6668 12.3333Z" fill="rgb(151,151,151)" fill-opacity="0" fill-rule="evenodd" />
		<path id="Path" d="M23.3333 0L23.3333 1.66667L7.5 1.66667C4.34546 1.66667 1.77575 4.17065 1.67005 7.29946L1.66667 7.5L1.66667 9.16667L-1.6237e-14 9.16667L-1.6237e-14 7.5C-1.6237e-14 3.43183 3.23901 0.120174 7.27886 0.00319759L7.5 0L23.3333 0Z" fill="rgb(255,255,255)" fill-rule="evenodd" transform="matrix(1,0,0,-1,12.3335,37.3334)" />
		<path id="Path" d="M22.3333 1.66667L7.5 1.66667C4.34546 1.66667 1.77575 4.17065 1.67005 7.29946L1.66667 7.5L1.66667 9.16667L-1.6237e-14 9.16667L-1.6237e-14 7.5C-1.6237e-14 3.43183 3.23901 0.120174 7.27886 0.00319759L7.5 0L23.3333 0L23.3333 1.66667L22.3333 1.66667Z" fill="rgb(151,151,151)" fill-opacity="0" fill-rule="evenodd" transform="matrix(1,0,0,-1,12.3335,37.3334)" />
		<rect id="Path" width="2.500000" height="8.333333" x="9.000977" y="19.830811" fill="rgb(84,59,186)" />
		<rect id="Rectangle" width="11.666667" height="8.333333" x="20.666504" y="19.833374" fill="rgb(97,212,220)" />
		<rect id="Rectangle" width="11.666667" height="1.666667" x="20.666504" y="23.166626" fill="rgb(255,255,255)" />
		<rect id="Rectangle" width="10.666667" height="0.666667" x="21.166504" y="23.666626" stroke="rgb(151,151,151)" stroke-opacity="0" stroke-width="1" />
		<rect id="Rectangle" width="2.500000" height="8.333333" x="6.500977" y="19.830811" fill="rgb(244,176,137)" />
	</g>
</svg>
