<svg viewBox="0 0 48 48" xmlns="http://www.w3.org/2000/svg" xmlns:xlink="http://www.w3.org/1999/xlink" width="48.000000" height="48.000000" fill="none" customFrame="#000000">
	<rect id="项目首字母图标/H-48px*48px" width="48.000000" height="48.000000" x="0.000000" y="0.000000" />
	<rect id="矩形" width="48.000000" height="48.000000" x="0.000000" y="0.000000" opacity="0" fill="rgb(216,216,216)" />
	<rect id="矩形" width="47.000000" height="47.000000" x="0.500000" y="0.500000" opacity="0" stroke="rgb(151,151,151)" stroke-opacity="0" stroke-width="1" />
	<g id="h">
		<path id="Path" d="M10.2317 0C10.7826 2.91865 12.2846 5.50123 14.4033 7.41337C13.1616 7.96622 11.7964 8.29258 10.3604 8.33952L10 8.3454L0 8.3454L0 0.0120706L10 0.0120706L10.1469 0.00782643L10.2317 0Z" fill="rgb(85,203,170)" fill-rule="evenodd" transform="matrix(0,1,-1,0,15.6787,7.33337)" />
		<path id="Path" d="M14.4034 0L14.4034 8.33333L4.40337 8.33333L4.25648 8.33758C4.22782 8.33924 4.19929 8.34138 4.1709 8.344C3.62077 5.42675 2.11877 2.84417 0 0.932033C1.24173 0.379186 2.60699 0.0528213 4.04293 0.00588265L4.40336 0L14.4034 0Z" fill="rgb(249,179,188)" fill-rule="evenodd" transform="matrix(0,1,-1,0,40.6665,26.2633)" />
		<rect id="Rectangle" width="8.333333" height="2.500000" x="0.000000" y="0.000000" fill="rgb(40,133,139)" transform="matrix(0,1,-1,0,15.6665,7.33337)" />
		<rect id="Rectangle Copy 4" width="8.333333" height="1.666667" x="0.000000" y="0.000000" fill="rgb(234,216,131)" transform="matrix(0,1,-1,0,17.3333,7.33337)" />
		<path id="Path" d="M9.99999 4.16852e-12C15.8976 8.34262e-06 20.6945 4.71266 20.8304 10.5776L20.8333 10.8333L20.8333 22.5C20.8333 23.8314 21.8741 24.9197 23.1864 24.9958L23.3333 25L33.3333 25L33.3333 33.3333L23.3333 33.3333C17.4357 33.3333 12.6388 28.6207 12.503 22.7557L12.5 22.5L12.5 10.8333C12.5 9.50194 11.4592 8.41362 10.1469 8.33758L9.99998 8.33333L0 8.33333L0 0L9.99999 4.16852e-12Z" fill="rgb(105,99,240)" fill-rule="evenodd" transform="matrix(0,1,-1,0,40.6667,7.33337)" />
		<path id="Path" d="M13.3333 0L13.3333 8.33333L10.8333 8.33333C9.50193 8.33333 8.41362 9.3741 8.33758 10.6864L8.33333 10.8333L8.33333 12.5L0 12.5L0 10.8333C0 4.93572 4.71266 0.13881 10.5776 0.0029587L10.8333 0L13.3333 0Z" fill="rgb(108,163,244)" fill-rule="evenodd" transform="matrix(-1,0,0,-1,40.6667,28.1666)" />
		<rect id="Rectangle" width="8.333333" height="8.333333" x="0.000000" y="0.000000" fill="rgb(218,95,95)" transform="matrix(0,1,-1,0,40.6667,7.33337)" />
		<path id="Path" d="M12.1092 0L12.1092 1.66667L2.10921 1.66667L1.90867 1.67005C1.54151 1.68245 1.18295 1.72879 0.836033 1.80602C0.58946 1.28526 0.30983 0.782002 0 0.300005C0.573386 0.13284 1.17537 0.0318316 1.79688 0.00638374L2.10921 0L12.1092 0Z" fill="rgb(255,255,255)" fill-rule="evenodd" transform="matrix(0,1,-1,0,37.3337,28.5575)" />
		<path id="Path" d="M11.1092 1.66667L2.10921 1.66667L1.90867 1.67005C1.54151 1.68245 1.18295 1.72879 0.836033 1.80602C0.737991 1.59895 0.634723 1.39466 0.526409 1.19337C0.362314 0.888412 0.186636 0.590351 0 0.300005C0.337021 0.201749 0.683922 0.12635 1.03886 0.0757157C1.28779 0.0402042 1.54067 0.016874 1.79688 0.00638374L2.10921 0L12.1092 0L12.1092 1.66667L11.1092 1.66667Z" fill="rgb(151,151,151)" fill-opacity="0" fill-rule="evenodd" transform="matrix(0,1,-1,0,37.3337,28.5575)" />
		<path id="Path" d="M1.66665 8.33407e-13C5.73481 5.75474e-06 9.04647 3.23901 9.16345 7.27886L9.16665 7.5L9.16666 19.1667C9.16667 22.3212 11.6707 24.8909 14.7995 24.9966L15 25L21.6667 25L21.6667 26.6667L15 26.6667C10.9318 26.6667 7.62018 23.4277 7.50319 19.3878L7.49999 19.1667L7.49999 7.5C7.49998 4.34546 4.99599 1.77576 1.86719 1.67005L1.66665 1.66667L0 1.66667L0 0L1.66665 8.33407e-13Z" fill="rgb(255,255,255)" fill-rule="evenodd" transform="matrix(0,1,-1,0,37.3333,15.6666)" />
		<path id="Path" d="M20.6667 26.6667L15 26.6667C10.9318 26.6667 7.62018 23.4277 7.50319 19.3878L7.49999 19.1667L7.49999 7.5C7.49998 4.34546 4.99599 1.77576 1.86719 1.67005L1.66665 1.66667L0 1.66667L0 0L1.66665 0C5.73481 5.75474e-06 9.04647 3.23901 9.16345 7.27886L9.16665 7.5L9.16666 19.1667C9.16667 22.3212 11.6707 24.8909 14.7995 24.9966L15 25L21.6667 25L21.6667 26.6667L20.6667 26.6667Z" fill="rgb(151,151,151)" fill-opacity="0" fill-rule="evenodd" transform="matrix(0,1,-1,0,37.3333,15.6666)" />
	</g>
</svg>
