<svg viewBox="0 0 48 48" xmlns="http://www.w3.org/2000/svg" xmlns:xlink="http://www.w3.org/1999/xlink" width="48.000000" height="48.000000" fill="none" customFrame="#000000">
	<rect id="项目首字母图标/K-48px*48px" width="48.000000" height="48.000000" x="0.000000" y="0.000000" />
	<rect id="矩形" width="48.000000" height="48.000000" x="0.000000" y="0.000000" opacity="0" fill="rgb(216,216,216)" />
	<rect id="矩形" width="47.000000" height="47.000000" x="0.500000" y="0.500000" opacity="0" stroke="rgb(151,151,151)" stroke-opacity="0" stroke-width="1" />
	<g id="k">
		<path id="Path" d="M38.999 7.10413L38.999 16.2808L22.2748 24L38.999 31.7183L38.999 40.8958L17.1445 30.8097C15.5252 30.0623 14.2252 28.7622 13.4778 27.1429C11.7735 23.4504 13.325 19.0879 16.9415 17.2876L17.1445 17.1903L38.999 7.10413Z" fill="rgb(85,203,170)" fill-rule="evenodd" />
		<path id="Path" d="M23.0063 23.6558L22.2749 24L38.9991 31.7183L38.9984 35.2133L18.5117 25.7596L23.0063 23.6558Z" fill="rgb(178,126,245)" fill-rule="evenodd" />
		<path id="Path" d="M22.2748 24C22.2748 24 16.3126 26.78 13.9086 27.9448C13.7496 27.6876 13.6056 27.42 13.4778 27.143C12.3925 24.7915 12.6275 22.1683 13.8754 20.1082C15.6654 20.9417 22.2748 24 22.2748 24Z" fill="rgb(255,143,206)" fill-rule="evenodd" />
		<path id="Path" d="M35.6668 12.3125L35.6668 14.1483L19.2401 21.7301C17.9865 22.3087 17.4393 23.794 18.0179 25.0476C18.1408 25.314 18.3086 25.5545 18.512 25.7597L16.9511 26.4947L16.9511 26.4947C16.7775 26.2633 16.6276 26.0124 16.5046 25.746C15.5671 23.7147 16.4031 21.3184 18.3703 20.3006L18.5417 20.2168L35.6668 12.3125Z" fill="rgb(255,255,255)" fill-rule="evenodd" />
		<path id="Path" d="M35.6668 13.4139L35.6668 12.3125L18.5417 20.2168L18.3703 20.3006C16.4031 21.3184 15.5671 23.7147 16.5046 25.746C16.6276 26.0124 16.7775 26.2633 16.9511 26.4947L17.5685 26.204L18.512 25.7597C18.3086 25.5545 18.1408 25.314 18.0179 25.0476C17.9974 25.0033 17.9784 24.9587 17.9608 24.9139C17.4788 23.6901 18.0308 22.2882 19.2401 21.7301L35.6668 14.1483L35.6668 13.4139Z" fill="rgb(151,151,151)" fill-opacity="0" fill-rule="evenodd" />
		<path id="Path" d="M9.83252 26.8438C9.98894 27.4161 10.1946 27.9832 10.4515 28.5398C11.4879 30.7853 13.2599 32.6057 15.4695 33.7029L15.7479 33.8363L18.1665 34.9525L18.1667 40.6667L9.8334 40.6667L9.83252 26.8438Z" fill="rgb(231,131,89)" fill-rule="evenodd" />
		<path id="Path" d="M9.83301 26.8462C9.98859 27.4161 10.1943 27.9832 10.4512 28.5398C11.2461 30.2621 12.4737 31.7343 13.9997 32.8219L13.9997 40.6666L9.83305 40.6666L9.83301 26.8462Z" fill="rgb(108,163,244)" fill-rule="evenodd" />
		<path id="Path" d="M18.1664 7.33337L18.1662 13.0467L15.7476 14.1638L15.5065 14.2787C12.6099 15.7015 10.6218 18.2585 9.83203 21.1626L9.83311 7.33337L18.1664 7.33337Z" fill="rgb(218,95,95)" fill-rule="evenodd" />
	</g>
</svg>
