<svg viewBox="0 0 48 48" xmlns="http://www.w3.org/2000/svg" xmlns:xlink="http://www.w3.org/1999/xlink" width="48.000000" height="48.000000" fill="none" customFrame="#000000">
	<defs>
		<clipPath id="clipPath_26">
			<rect width="40.000000" height="40.000000" x="4.000000" y="4.000000" fill="rgb(255,255,255)" />
		</clipPath>
	</defs>
	<rect id="项目首字母图标/O-48px*48px" width="48.000000" height="48.000000" x="0.000000" y="0.000000" />
	<g id="o" customFrame="url(#clipPath_26)">
		<rect id="o" width="40.000000" height="40.000000" x="4.000000" y="4.000000" />
		<path id="Path" d="M22.3324 7.33325L22.3324 15.6666L18.9991 15.6666C17.6677 15.6666 16.5794 16.7074 16.5033 18.0197L16.4991 18.1666L16.4991 29.8333C16.4991 31.1647 17.5399 32.253 18.8522 32.329L18.9991 32.3333L22.3324 32.3333L22.3324 40.6666L18.9991 40.6666C13.1015 40.6666 8.30458 35.9539 8.16873 30.089L8.16577 29.8333L8.16577 18.1666C8.16577 12.269 12.8784 7.47206 18.7434 7.33621L18.9991 7.33325L22.3324 7.33325Z" fill="rgb(231,131,89)" fill-rule="evenodd" />
		<path id="Path" d="M14.1667 0L14.1667 8.33333L10.8333 8.33333C9.50193 8.33333 8.41362 9.3741 8.33758 10.6864L8.33333 10.8333L8.33333 12.5L0 12.5L0 10.8333C0 4.93572 4.71266 0.13881 10.5776 0.0029587L10.8333 0L14.1667 0Z" fill="rgb(234,113,143)" fill-rule="evenodd" transform="matrix(1,0,0,-1,8.16675,40.6667)" />
		<rect id="Rectangle" width="8.333334" height="8.333336" x="8.166504" y="19.833252" fill="rgb(85,203,170)" />
		<rect id="Path" width="2.500001" height="8.333333" x="8.166748" y="19.830811" fill="rgb(144,57,121)" />
		<rect id="Rectangle" width="2.500001" height="8.333333" x="5.666748" y="19.830811" fill="rgb(234,216,131)" />
		<path id="Path" d="M13.17 28.1642L13.1667 29.8334L13.17 30.0339C13.2563 32.5883 14.9849 34.7262 17.3333 35.4251L17.3334 37.1475C14.066 36.4061 11.6088 33.5315 11.5035 30.0653L11.5 29.8334L11.5 28.1667L13.17 28.1642Z" fill="rgb(255,255,255)" fill-rule="evenodd" />
		<path id="Path" d="M12.3349 29.9308L12.3365 30.04Q12.3561 30.6874 12.4962 31.3077Q12.6021 31.7767 12.7769 32.2302Q12.9552 32.6926 13.1969 33.1188Q13.4823 33.6219 13.8563 34.0748Q13.801 34.0077 13.7471 33.9389Q13.4012 33.4968 13.1372 33.0104Q12.9111 32.5937 12.7451 32.1445Q12.6286 31.8293 12.545 31.5056Q12.3621 30.7971 12.3368 30.0479L12.3349 29.9308ZM14.3519 34.6131Q14.5011 34.7585 14.6589 34.8939Q15.0517 35.2312 15.4974 35.507Q15.9809 35.8062 16.5 36.0163L16.5 36.0155Q16.3445 35.9527 16.1927 35.8822Q15.6933 35.6501 15.2328 35.3343Q14.8139 35.0469 14.447 34.7038Q14.399 34.659 14.3519 34.6131ZM17.3333 35.4251C14.9849 34.7262 13.2563 32.5883 13.17 30.0339L13.1667 29.8334L13.1684 28.9975L13.17 28.1642L11.5 28.1667L11.5 29.8334L11.5035 30.0653C11.5996 33.23 13.6563 35.9015 16.5001 36.9066C16.771 37.0024 17.0492 37.083 17.3334 37.1475L17.3333 36.2903L17.3333 35.4251ZM12.3333 28.9988L12.3332 29.8207L12.3333 29.8279L12.335 28.9988L12.3333 28.9988Z" fill="rgb(151,151,151)" fill-opacity="0" fill-rule="evenodd" />
		<rect id="Rectangle" width="11.666668" height="1.666668" x="4.832520" y="23.166748" fill="rgb(255,255,255)" />
		<rect id="Rectangle" width="10.833335" height="0.833335" x="5.249186" y="23.583414" stroke="rgb(151,151,151)" stroke-opacity="0" stroke-width="0.833333313" />
		<path id="Path Copy" d="M14.1667 0L14.1667 8.33333L10.8333 8.33333C9.50193 8.33333 8.41362 9.3741 8.33758 10.6864L8.33333 10.8333L8.33333 22.5C8.33333 23.8314 9.3741 24.9197 10.6864 24.9958L10.8333 25L14.1667 25L14.1667 33.3333L10.8333 33.3333C4.93572 33.3333 0.13881 28.6207 0.0029587 22.7557L0 22.5L0 10.8333C0 4.93572 4.71266 0.13881 10.5776 0.0029587L10.8333 0L14.1667 0Z" fill="rgb(231,131,89)" fill-rule="evenodd" transform="matrix(-1,0,0,1,39.8335,7.33325)" />
		<path id="Path Copy 3" d="M14.1667 0L14.1667 8.33333L10.8333 8.33333C9.50193 8.33333 8.41362 9.3741 8.33758 10.6864L8.33333 10.8333L8.33333 12.5L0 12.5L0 10.8333C0 4.93572 4.71266 0.13881 10.5776 0.0029587L10.8333 0L14.1667 0Z" fill="rgb(178,126,245)" fill-rule="evenodd" transform="matrix(-1,0,0,1,39.8335,7.33325)" />
		<rect id="Rectangle Copy 3" width="8.333332" height="8.333336" x="0.000000" y="0.000000" fill="rgb(85,203,170)" transform="matrix(-1,0,0,1,39.8325,19.8333)" />
		<rect id="Path Copy 2" width="2.500000" height="8.333332" x="0.000000" y="0.000000" fill="rgb(84,59,186)" transform="matrix(-1,0,0,1,39.8325,19.8308)" />
		<rect id="Rectangle" width="2.500000" height="8.333332" x="0.000000" y="0.000000" fill="rgb(249,179,188)" transform="matrix(-1,0,0,1,42.3325,19.8308)" />
		<path id="Path Copy 4" d="M34.8299 19.8333L34.8332 18.1641L34.8299 17.9636C34.7436 15.4092 33.015 13.2713 30.6666 12.5724L30.6665 10.85C33.9339 11.5914 36.3911 14.466 36.4964 17.9322L36.4999 18.1641L36.4999 19.8308L34.8299 19.8333Z" fill="rgb(255,255,255)" fill-rule="evenodd" />
		<path id="Path Copy 4" d="M35.6666 18.1697L35.6649 18.9987L35.6666 18.9987L35.6667 18.1768L35.6666 18.1697ZM36.4999 19.8308L35.6632 19.8321L34.8299 19.8333L34.8315 19L34.8332 18.1641L34.8299 17.9636C34.7436 15.4092 33.015 13.2713 30.6666 12.5724L30.6666 11.7072L30.6665 10.85C30.9508 10.9145 31.2289 10.9951 31.4999 11.0909C34.3436 12.096 36.4003 14.7675 36.4964 17.9322L36.4999 18.1641L36.4999 19.8308ZM31.4999 11.9812L31.4999 11.9819Q31.6554 12.0448 31.8072 12.1153Q32.3066 12.3473 32.7671 12.6632Q33.186 12.9506 33.5529 13.2936Q33.6015 13.3391 33.6492 13.3855Q33.4994 13.2395 33.341 13.1035Q32.9482 12.7663 32.5025 12.4905Q32.019 12.1913 31.4999 11.9812ZM34.1432 13.9223Q34.1988 13.9896 34.2528 14.0586Q34.5987 14.5007 34.8627 14.9871Q35.0888 15.4038 35.2548 15.853Q35.3714 16.1682 35.4549 16.492Q35.6378 17.2004 35.6631 17.9495L35.665 18.0664L35.6634 17.9575Q35.6438 17.31 35.5037 16.6897Q35.3977 16.2207 35.223 15.7673Q35.0448 15.3049 34.8029 14.8786Q34.5174 14.3753 34.1432 13.9223Z" fill="rgb(151,151,151)" fill-opacity="0" fill-rule="evenodd" />
		<rect id="Rectangle Copy 6" width="11.666668" height="1.666668" x="0.000000" y="0.000000" fill="rgb(255,255,255)" transform="matrix(-1,0,0,1,43.1665,23.1667)" />
		<rect id="Rectangle Copy 6" width="10.833335" height="0.833335" x="0.416667" y="0.416667" stroke="rgb(151,151,151)" stroke-opacity="0" stroke-width="0.833333313" transform="matrix(-1,0,0,1,43.1665,23.1667)" />
	</g>
	<rect id="矩形" width="48.000000" height="48.000000" x="0.000000" y="0.000000" opacity="0" fill="rgb(216,216,216)" />
	<rect id="矩形" width="47.000000" height="47.000000" x="0.500000" y="0.500000" opacity="0" stroke="rgb(151,151,151)" stroke-opacity="0" stroke-width="1" />
</svg>
