<svg viewBox="0 0 48 48" xmlns="http://www.w3.org/2000/svg" xmlns:xlink="http://www.w3.org/1999/xlink" width="48.000000" height="48.000000" fill="none" customFrame="#000000">
	<rect id="项目首字母图标/P-48px*48px" width="48.000000" height="48.000000" x="0.000000" y="0.000000" />
	<rect id="矩形" width="48.000000" height="48.000000" x="0.000000" y="0.000000" opacity="0" fill="rgb(216,216,216)" />
	<rect id="矩形" width="47.000000" height="47.000000" x="0.500000" y="0.500000" opacity="0" stroke="rgb(151,151,151)" stroke-opacity="0" stroke-width="1" />
	<g id="p">
		<rect id="Rectangle" width="8.333333" height="25.000000" x="8.166504" y="15.666626" fill="rgb(178,126,245)" />
		<rect id="Rectangle" width="8.333333" height="6.666667" x="8.166504" y="7.333374" fill="rgb(97,212,220)" />
		<rect id="Rectangle" width="2.500000" height="18.333334" x="5.666504" y="15.666626" fill="rgb(244,176,137)" />
		<rect id="Rectangle" width="2.500000" height="18.333334" x="8.166504" y="15.666626" fill="rgb(84,59,186)" />
		<path id="Path" d="M8.1665 20.6667L28.1665 20.6667C29.5472 20.6667 30.6665 19.5474 30.6665 18.1667C30.6665 16.8672 29.675 15.7993 28.4073 15.6782L28.1665 15.6667L20.6665 15.6667L20.6665 7.33337L28.1665 7.33337C34.1496 7.33337 38.9998 12.1836 38.9998 18.1667C38.9998 24.1498 34.1496 29 28.1665 29L8.1665 29L8.1665 20.6667Z" fill="rgb(255,143,206)" fill-rule="evenodd" />
		<path id="Path" d="M16.499 20.6666L16.499 29L8.1665 29L8.1665 20.6666L16.499 20.6666Z" fill="rgb(144,57,121)" fill-rule="evenodd" />
		<path id="Path" d="M4 24L28.1667 24L28.5356 23.9885C29.9995 23.8971 31.317 23.2658 32.2915 22.2914C33.3471 21.2358 34 19.7775 34 18.1666C34 16.6573 33.4265 15.282 32.4862 14.2462C31.5513 13.2165 30.253 12.5241 28.795 12.367L28.5361 12.3449L24 12.34L24 10.6666L28.1667 10.6666L28.5782 10.6777C30.4854 10.7809 32.2032 11.5966 33.47 12.8633C34.8272 14.2206 35.6667 16.0956 35.6667 18.1666C35.6667 20.2377 34.8272 22.1127 33.47 23.4699C32.1717 24.7682 30.3998 25.5926 28.4357 25.6619L28.1667 25.6666L4 25.6666L4 24Z" fill="rgb(255,255,255)" fill-rule="evenodd" />
		<path id="Path" d="M28.1667 24L4 24L4 25.6666L28.1667 25.6666L28.4357 25.6619C30.3998 25.5926 32.1717 24.7682 33.47 23.4699C34.8272 22.1127 35.6667 20.2377 35.6667 18.1666C35.6667 16.0956 34.8272 14.2206 33.47 12.8633C32.2032 11.5966 30.4854 10.7809 28.5782 10.6777L28.1667 10.6666L24 10.6666L24 12.34L28.5361 12.3449L28.795 12.367C30.253 12.5241 31.5513 13.2165 32.4862 14.2462C33.4265 15.282 34 16.6573 34 18.1666C34 19.7775 33.3471 21.2358 32.2915 22.2914C31.317 23.2658 29.9995 23.8971 28.5356 23.9885L28.1667 24Z" fill="rgb(151,151,151)" fill-opacity="0" fill-rule="evenodd" />
		<path id="Path" d="M16.4992 24L16.4992 25.6667L4 25.6667L4 24L16.4992 24Z" fill="rgb(174,234,131)" fill-rule="evenodd" />
		<path id="Path" d="M37.0257 7.11108C37.4306 7.43596 37.8173 7.78263 38.184 8.1493C40.7476 10.713 42.3333 14.2546 42.3333 18.1666L39 18.1666C39 14.6149 37.2907 11.4623 34.6499 9.48664L37.0257 7.11108Z" fill="rgb(234,216,131)" fill-rule="evenodd" />
	</g>
</svg>
