<svg viewBox="0 0 48 48" xmlns="http://www.w3.org/2000/svg" xmlns:xlink="http://www.w3.org/1999/xlink" width="48.000000" height="48.000000" fill="none" customFrame="#000000">
	<rect id="项目首字母图标/U-48px*48px" width="48.000000" height="48.000000" x="0.000000" y="0.000000" />
	<rect id="矩形" width="48.000000" height="48.000000" x="0.000000" y="0.000000" opacity="0" fill="rgb(216,216,216)" />
	<rect id="矩形" width="47.000000" height="47.000000" x="0.500000" y="0.500000" opacity="0" stroke="rgb(151,151,151)" stroke-opacity="0" stroke-width="1" />
	<g id="编组">
		<rect id="矩形" width="48.000000" height="48.000000" x="0.000000" y="0.000000" opacity="0" fill="rgb(216,216,216)" />
		<rect id="矩形" width="47.000000" height="47.000000" x="0.500000" y="0.500000" opacity="0" stroke="rgb(151,151,151)" stroke-opacity="0" stroke-width="1" />
		<g id="u">
			<path id="Path" d="M8.33333 -7.2049e-14C8.33333 1.89482 9.59813 3.49423 11.3295 4.00002L5.18881 10.14C2.11136 7.91719 0.0861385 4.32785 0.00268147 0.261523L0 -7.2049e-14L8.33333 -7.2049e-14Z" fill="rgb(234,216,131)" fill-rule="evenodd" transform="matrix(-1,0,0,1,42.3342,30.6666)" />
			<path id="Path" d="M3.33333 0C9.23095 0 14.0279 4.71266 14.1637 10.5776L14.1667 10.8333L14.1667 33.3333L5.83333 33.3333L5.83333 10.8333C5.83333 9.50193 4.79257 8.41362 3.48023 8.33758L3.33333 8.33333L-6.15856e-13 8.33333L-6.15856e-13 1.18424e-13L3.33333 0Z" fill="rgb(108,163,244)" fill-rule="evenodd" transform="matrix(-1,0,0,-1,22.3334,40.6666)" />
			<path id="Path" d="M3.33333 0C9.23095 0 14.0279 4.71266 14.1637 10.5776L14.1667 10.8333L14.1667 15L5.83333 15L5.83333 10.8333C5.83333 9.50193 4.79257 8.41362 3.48023 8.33758L3.33333 8.33333L-1.89426e-13 8.33333L-1.89426e-13 0L3.33333 0Z" fill="rgb(218,95,95)" fill-rule="evenodd" transform="matrix(-1,0,0,-1,22.3334,40.6666)" />
			<path id="Path" d="M3.33333 0C9.23095 0 14.0279 4.71266 14.1637 10.5776L14.1667 10.8333L14.1667 33.3333L5.83333 33.3333L5.83333 10.8333C5.83333 9.50193 4.79257 8.41362 3.48023 8.33758L3.33333 8.33333L6.63139e-13 8.33333L6.63139e-13 0L3.33333 0Z" fill="rgb(178,126,245)" fill-rule="evenodd" transform="matrix(1,0,0,-1,25.6666,40.6666)" />
			<rect id="Rectangle" width="2.500000" height="16.666666" x="0.000000" y="0.000000" fill="rgb(36,95,155)" transform="matrix(-1,0,0,-1,34,24)" />
			<rect id="Rectangle" width="5.833333" height="8.333333" x="0.000000" y="0.000000" fill="rgb(234,216,131)" transform="matrix(-1,0,0,-1,39.8336,15.6666)" />
			<rect id="Rectangle Copy 22" width="2.500000" height="16.666666" x="0.000000" y="0.000000" fill="rgb(97,212,220)" transform="matrix(-1,0,0,-1,31.5,24)" />
			<path id="Path" d="M7.4968 7.27886L7.5 7.5L7.5 26.6667L5.83333 26.6667L5.83333 7.5C5.83333 4.34546 3.32935 1.77575 0.200541 1.67005L2.08167e-16 1.66667L-4.02699e-13 0C4.06817 0 7.37983 3.23901 7.4968 7.27886Z" fill="rgb(255,255,255)" fill-rule="evenodd" transform="matrix(-1,0,0,-1,19,37.3334)" />
			<path id="Path" d="M5.83333 25.6667L5.83333 7.5C5.83333 4.34546 3.32935 1.77575 0.200541 1.67005L-4.02699e-13 1.66667L-4.02699e-13 0C0.339059 0 0.672863 0.0224991 1 0.0660857C4.59799 0.545469 7.38958 3.57571 7.4968 7.27886L7.5 7.5L7.5 26.6667L5.83333 26.6667L5.83333 25.6667Z" fill="rgb(151,151,151)" fill-opacity="0" fill-rule="evenodd" transform="matrix(-1,0,0,-1,19,37.3334)" />
		</g>
	</g>
</svg>
