<svg viewBox="0 0 48 48" xmlns="http://www.w3.org/2000/svg" xmlns:xlink="http://www.w3.org/1999/xlink" width="48.000000" height="48.000000" fill="none" customFrame="#000000">
	<rect id="项目首字母图标/Y-48px*48px" width="48.000000" height="48.000000" x="0.000000" y="0.000000" />
	<rect id="矩形" width="48.000000" height="48.000000" x="0.000000" y="0.000000" opacity="0" fill="rgb(216,216,216)" />
	<rect id="矩形" width="47.000000" height="47.000000" x="0.500000" y="0.500000" opacity="0" stroke="rgb(151,151,151)" stroke-opacity="0" stroke-width="1" />
	<g id="y">
		<path id="Path" d="M19.833 27.3254C22.4316 28.5134 25.4815 28.5599 28.1668 27.3257L28.1667 40.6667L19.8333 40.6667L19.833 27.3254Z" fill="rgb(97,212,220)" fill-rule="evenodd" />
		<rect id="Rectangle" width="2.500000" height="8.333333" x="28.166504" y="32.333374" fill="rgb(174,234,131)" />
		<rect id="Rectangle" width="2.500000" height="8.333333" x="25.666504" y="32.333374" fill="rgb(84,59,186)" />
		<path id="Path" d="M32.3325 35.6666L32.3325 37.3358L19.8325 37.3338L19.8325 35.6666L32.3325 35.6666Z" fill="rgb(238,186,91)" fill-rule="evenodd" />
		<path id="Path" d="M40.9117 7.33337L30.1202 22.5683C29.6303 23.2599 29.0268 23.8635 28.3352 24.3534C25.0177 26.7033 20.447 25.9769 18.0152 22.7535L17.8799 22.5683L7.08838 7.33337L17.3009 7.33337L24 16.79L30.6984 7.33337L40.9117 7.33337Z" fill="rgb(108,163,244)" fill-rule="evenodd" />
		<path id="Path" d="M17.3007 7.33337L23.9998 16.79L24.7957 15.6666L35.0082 15.6666L30.12 22.5683C29.6301 23.2599 29.0266 23.8635 28.335 24.3534C25.0175 26.7033 20.4468 25.9769 18.015 22.7535L17.8797 22.5683L7.08984 7.33337L17.3007 7.33337Z" fill="rgb(178,126,245)" fill-rule="evenodd" />
		<path id="Path" d="M15.5767 10.6666L21.96 19.6782C22.758 20.8049 24.3184 21.0713 25.4451 20.2732C25.6295 20.1426 25.7952 19.9877 25.9376 19.8129L26.0401 19.6782L28.8808 15.6666L30.9233 15.6666L27.4001 20.6415C27.128 21.0258 26.7927 21.3611 26.4084 21.6332C24.5843 22.9254 22.0781 22.5433 20.717 20.799L20.5999 20.6415L13.5342 10.6666L15.5767 10.6666Z" fill="rgb(255,255,255)" fill-rule="evenodd" />
		<path id="Path" d="M25.9376 19.8129C25.7952 19.9877 25.6295 20.1426 25.4451 20.2732C24.3184 21.0713 22.758 20.8049 21.96 19.6782L15.5767 10.6666L13.5342 10.6666L20.5999 20.6415L20.717 20.799C22.0781 22.5433 24.5843 22.9254 26.4084 21.6332C26.7927 21.3611 27.128 21.0258 27.4001 20.6415L30.2152 16.6666L30.9233 15.6666L28.8808 15.6666L26.0401 19.6782L25.9376 19.8129Z" fill="rgb(151,151,151)" fill-opacity="0" fill-rule="evenodd" />
	</g>
</svg>
