<svg viewBox="0 0 16 16.0001" xmlns="http://www.w3.org/2000/svg" xmlns:xlink="http://www.w3.org/1999/xlink" width="16.000000" height="16.000122" fill="none" customFrame="#000000">
	<rect id="状态图标/ignore" width="16.000000" height="16.000149" x="0.000000" y="0.000000" fill="rgb(255,255,255)" fill-opacity="0" />
	<path id="减去顶层" d="M14 7C14 3.13401 10.866 0 7 0C3.13401 0 0 3.13401 0 7C0 10.866 3.13401 14 7 14C10.866 14 14 10.866 14 7ZM4.0002 6.9999C4.0002 6.72407 4.21181 6.4999 4.47316 6.4999L9.52645 6.4999C9.7878 6.4999 10.0002 6.72407 10.0002 6.9999C10.0002 7.27657 9.7878 7.4999 9.52645 7.4999L4.47316 7.4999C4.21181 7.4999 4.0002 7.27657 4.0002 6.9999Z" fill="rgb(147,147,147)" fill-rule="evenodd" transform="matrix(0.707107,-0.707107,0.707107,0.707107,-2,8)" />
</svg>
