<svg viewBox="0 0 16 16" xmlns="http://www.w3.org/2000/svg" xmlns:xlink="http://www.w3.org/1999/xlink" width="16.000000" height="16.000000" fill="none" customFrame="#000000">
	<rect id="状态图标/下降" width="16.000000" height="16.000000" x="0.000000" y="0.000000" transform="matrix(-1,0,0,-1,16,16)" />
	<rect id="矩形" width="16.000000" height="16.000000" x="0.000000" y="0.000000" fill="rgb(216,216,216)" fill-opacity="0" transform="matrix(-1,0,0,-1,16,16)" />
	<rect id="矩形" width="15.000000" height="15.000000" x="0.500000" y="0.500000" stroke="rgb(151,151,151)" stroke-opacity="0" stroke-width="1" transform="matrix(-1,0,0,-1,16,16)" />
	<circle id="椭圆形" cx="8" cy="8" r="8" fill="rgb(213,242,220)" transform="matrix(-1,0,0,-1,16,16)" />
	<circle id="椭圆形" cx="8" cy="8" r="7.5" stroke="rgb(151,151,151)" stroke-opacity="0" stroke-width="1" transform="matrix(-1,0,0,-1,16,16)" />
	<path id="形状结合" d="M4.29445 1.7069L4.29445 8.5C4.29445 8.78 4.07445 9 3.79445 9C3.51445 9 3.29445 8.78 3.29445 8.5L3.29445 1.70788L0.855599 4.14673C0.657609 4.34472 0.346482 4.34472 0.148492 4.14673C-0.0494975 3.94874 -0.0494975 3.63761 0.148492 3.43962L3.40567 0.182445C3.4605 0.11501 3.53282 0.0626202 3.61631 0.0316166Q3.6602 0.0150121 3.70774 0.00720616C3.73584 0.00246532 3.76481 0 3.79445 0C3.81575 0 3.83671 0.00127335 3.85724 0.00374959Q3.94142 0.0133418 4.01461 0.0494648C4.07821 0.0800107 4.13396 0.123558 4.17862 0.176855L7.44139 3.43962C7.63938 3.63761 7.63938 3.94874 7.44139 4.14673C7.2434 4.34472 6.93227 4.34472 6.73428 4.14673L4.29445 1.7069Z" fill="rgb(0,179,54)" fill-rule="evenodd" transform="matrix(1,0,0,-1,4.20557,12.5002)" />
</svg>
