<svg viewBox="0 0 16 16" xmlns="http://www.w3.org/2000/svg" xmlns:xlink="http://www.w3.org/1999/xlink" width="16.000000" height="16.000000" fill="none" customFrame="#000000">
	<rect id="状态图标/停止" width="16.000000" height="16.000000" x="0.000000" y="0.000000" fill="rgb(255,255,255)" fill-opacity="0" />
	<path id="减去顶层" />
	<path id="减去顶层" d="M15 8C15 4.13401 11.866 1 8 1C4.13401 1 1 4.13401 1 8C1 11.866 4.13401 15 8 15C11.866 15 15 11.866 15 8ZM11 8C11 7.72417 10.7884 7.5 10.527 7.5L5.47375 7.5C5.2124 7.5 5 7.72417 5 8C5 8.27667 5.2124 8.5 5.47375 8.5L10.527 8.5C10.7884 8.5 11 8.27667 11 8Z" fill="rgb(242,48,48)" fill-rule="evenodd" />
	<path id="减去顶层" d="M8 1C11.866 1 15 4.13401 15 8C15 11.866 11.866 15 8 15C4.13401 15 1 11.866 1 8C1 4.13401 4.13401 1 8 1ZM14 8Q14 7.31309 13.851 6.6602L13.8509 6.65978Q13.735 6.15202 13.5289 5.66484Q13.3176 5.16532 13.0255 4.71868L13.0255 4.71867Q12.688 4.20273 12.2426 3.75736Q11.7974 3.31215 11.2817 2.97475L11.2814 2.97454L11.2813 2.97453Q10.8347 2.68238 10.3352 2.4711Q9.84798 2.26504 9.34022 2.14911L9.34001 2.14906Q8.68702 2 8 2Q7.31289 2 6.65982 2.1491L6.65981 2.1491L6.65979 2.14911L6.65977 2.14911Q6.15201 2.26504 5.66484 2.4711Q5.16529 2.68239 4.71863 2.97455Q4.20271 3.31201 3.75736 3.75736Q3.31201 4.20271 2.97454 4.71864L2.97454 4.71864Q2.68239 5.16529 2.4711 5.66484Q2.26504 6.15203 2.14911 6.65979L2.1491 6.6598Q2 7.31288 2 8Q2 8.68702 2.14906 9.34001L2.14911 9.34022Q2.26504 9.84798 2.4711 10.3352Q2.68239 10.8347 2.97454 11.2814Q3.312 11.7973 3.75736 12.2426Q4.20271 12.688 4.71863 13.0255L4.71865 13.0255L4.71866 13.0255L4.71891 13.0256Q5.16544 13.3177 5.66484 13.5289Q6.15202 13.735 6.65978 13.8509L6.6602 13.851Q7.31309 14 8 14Q8.68691 14 9.3398 13.851L9.34022 13.8509Q9.84798 13.735 10.3352 13.5289Q10.8347 13.3176 11.2813 13.0255Q11.7973 12.688 12.2426 12.2426Q12.688 11.7973 13.0254 11.2815L13.0255 11.2814Q13.3176 10.8347 13.5289 10.3352Q13.735 9.84798 13.8509 9.34022L13.851 9.3398Q14 8.68691 14 8ZM12 8Q12 8.16009 11.9679 8.31345L11.9679 8.31357Q11.9409 8.44216 11.8914 8.56602Q11.8342 8.70915 11.7512 8.83528L11.7511 8.83531L11.7511 8.83532Q11.6792 8.94461 11.5878 9.04113Q11.4767 9.15858 11.3461 9.24744Q11.239 9.3203 11.1188 9.37394Q10.978 9.43679 10.8305 9.4683L10.8305 9.46831Q10.6821 9.5 10.527 9.5L5.47375 9.5Q5.31961 9.5 5.17212 9.4687L5.17155 9.46858Q5.02357 9.43711 4.8823 9.37414Q4.76212 9.32056 4.65499 9.24778L4.65493 9.24774L4.65492 9.24773Q4.52446 9.15909 4.41335 9.04196Q4.32131 8.94493 4.2489 8.83498L4.24889 8.83496Q4.1662 8.70941 4.10911 8.56701Q4.05907 8.44223 4.03198 8.31266L4.03198 8.31265Q4 8.15967 4 8Q4 7.84207 4.03135 7.69064L4.03135 7.69062Q4.05851 7.55944 4.10919 7.43313Q4.16607 7.29136 4.24831 7.16628L4.24833 7.16626L4.24834 7.16624Q4.32081 7.05603 4.41296 6.95877Q4.52444 6.84111 4.6554 6.75215L4.65541 6.75214Q4.76197 6.67976 4.88143 6.62637Q5.02351 6.56287 5.17236 6.53128L5.17264 6.53122Q5.31988 6.5 5.47375 6.5L10.527 6.5Q10.6817 6.5 10.8297 6.53156Q10.9781 6.5632 11.1197 6.62657Q11.2391 6.68003 11.3456 6.75249Q11.4767 6.84166 11.5882 6.95961Q11.6795 7.05616 11.7514 7.16547L11.7517 7.16588L11.7517 7.16592Q11.8343 7.2916 11.8913 7.43412Q11.9415 7.5596 11.9685 7.68988Q12 7.84168 12 8ZM11 8C11 7.72417 10.7884 7.5 10.527 7.5L5.47375 7.5C5.2124 7.5 5 7.72417 5 8C5 8.27667 5.2124 8.5 5.47375 8.5L10.527 8.5C10.7884 8.5 11 8.27667 11 8Z" fill="rgb(151,151,151)" fill-opacity="0" fill-rule="evenodd" />
</svg>
