<svg viewBox="0 0 16 16" xmlns="http://www.w3.org/2000/svg" xmlns:xlink="http://www.w3.org/1999/xlink" width="16.000000" height="16.000000" fill="none" customFrame="#000000">
	<rect id="状态图标/失败" width="16.000000" height="16.000000" x="0.000000" y="0.000000" />
	<path id="减去顶层" />
	<path id="减去顶层" d="M15 8C15 4.13401 11.866 1 8 1C4.13401 1 1 4.13401 1 8C1 11.866 4.13401 15 8 15C11.866 15 15 11.866 15 8ZM10.1174 10.711C10.3127 10.9062 10.6293 10.9062 10.8245 10.711C11.0198 10.5157 11.0198 10.1991 10.8245 10.0039L8.7032 7.88255L10.8245 5.76123C11.0198 5.56597 11.0198 5.24938 10.8245 5.05412C10.6293 4.85886 10.3127 4.85886 10.1174 5.05412L7.99609 7.17544L5.87477 5.05412C5.67951 4.85886 5.36293 4.85886 5.16767 5.05412C4.9724 5.24938 4.9724 5.56597 5.16767 5.76123L7.28899 7.88255L5.16767 10.0039C4.9724 10.1991 4.9724 10.5157 5.16767 10.711C5.36293 10.9062 5.67951 10.9062 5.87477 10.711L7.99609 8.58965L10.1174 10.711Z" fill="rgb(242,48,48)" fill-rule="evenodd" />
</svg>
