<svg viewBox="0 0 16 16" xmlns="http://www.w3.org/2000/svg" xmlns:xlink="http://www.w3.org/1999/xlink" width="16.000000" height="16.000000" fill="none" customFrame="#000000">
	<rect id="状态图标/已隐蔽" width="16.000000" height="16.000000" x="0.000000" y="0.000000" fill="rgb(255,255,255)" fill-opacity="0" />
	<path id="形状结合" d="M15 8C15 4.13401 11.866 1 8 1C4.13401 1 1 4.13401 1 8C1 11.866 4.13401 15 8 15C11.866 15 15 11.866 15 8ZM4.24845 4.14616C4.05319 3.95089 3.73661 3.95089 3.54134 4.14616C3.36778 4.31972 3.34849 4.58915 3.48349 4.78401L3.54134 4.85326L10.8334 12.1453C11.0286 12.3406 11.3452 12.3406 11.5405 12.1453C11.7141 11.9717 11.7333 11.7023 11.5983 11.5074L11.5405 11.4382L4.24845 4.14616ZM6.00741 5.73657L5.25236 4.98153C6.05815 4.57782 6.96198 4.37583 7.96846 4.37583C10.3759 4.37583 12.1961 5.53152 13.4919 7.83937C13.5773 7.99141 13.5773 8.17692 13.4919 8.32896C12.8512 9.47005 12.0823 10.3295 11.1776 10.9068L10.4494 10.1785C11.167 9.76954 11.7889 9.15283 12.3309 8.31842L12.4774 8.08396C11.3694 6.24766 9.91511 5.37583 7.96846 5.37583C7.25018 5.37583 6.59895 5.49453 6.00741 5.73657ZM4.1459 5.71355C3.50147 6.25684 2.93563 6.96551 2.44498 7.83937C2.35962 7.99141 2.35962 8.17692 2.44498 8.32896C3.74078 10.6368 5.56098 11.7925 7.96846 11.7925C8.67161 11.7925 9.32466 11.6939 9.92918 11.4968L9.11254 10.6802C8.75131 10.7553 8.37038 10.7925 7.96846 10.7925C6.0218 10.7925 4.56756 9.92067 3.45951 8.08437L3.60602 7.84991C3.98232 7.27059 4.39715 6.7962 4.85577 6.42342L4.1459 5.71355Z" fill="rgb(147,147,147)" fill-rule="evenodd" />
</svg>
