<svg viewBox="0 0 16 16" xmlns="http://www.w3.org/2000/svg" xmlns:xlink="http://www.w3.org/1999/xlink" width="16.000000" height="16.000000" fill="none" customFrame="#000000">
	<rect id="状态图标/成功" width="16.000000" height="16.000000" x="0.000000" y="0.000000" fill="rgb(255,255,255)" fill-opacity="0" />
	<path id="减去顶层" d="M15 8C15 4.13401 11.866 1 8 1C4.13401 1 1 4.13401 1 8C1 11.866 4.13401 15 8 15C11.866 15 15 11.866 15 8ZM11.3657 6.34099L7.63124 10.3472Q7.62894 10.3497 7.62661 10.3521Q7.62403 10.3548 7.6214 10.3575Q7.47593 10.5049 7.26883 10.5063Q7.06172 10.5077 6.91431 10.3622L4.6488 8.1266C4.4495 7.92993 4.44743 7.61881 4.6441 7.41951C4.84077 7.22021 5.15189 7.21814 5.3512 7.41481L7.25053 9.28906L10.6343 5.65913C10.8252 5.45431 11.1361 5.4434 11.3409 5.63432C11.5457 5.82524 11.5567 6.13618 11.3657 6.34099Z" fill="rgb(0,179,54)" fill-rule="evenodd" />
</svg>
