<svg viewBox="0 0 16 16" xmlns="http://www.w3.org/2000/svg" xmlns:xlink="http://www.w3.org/1999/xlink" width="16.000000" height="16.000000" fill="none" customFrame="#000000">
	<rect id="状态图标/等待" width="16.000000" height="16.000000" x="0.000000" y="0.000000" fill="rgb(255,255,255)" fill-opacity="0" />
	<path id="减去顶层" d="" fill="rgb(151,151,151)" fill-opacity="0" fill-rule="evenodd" />
	<path id="减去顶层" d="M15 8C15 4.13401 11.866 1 8 1C4.13401 1 1 4.13401 1 8C1 11.866 4.13401 15 8 15C11.866 15 15 11.866 15 8ZM6.75 10.5271C6.75 10.7885 6.52582 11 6.25 11C5.97333 11 5.75 10.7885 5.75 10.5271L5.75 5.47363C5.75 5.21228 5.97333 5 6.25 5C6.52582 5 6.75 5.21228 6.75 5.47363L6.75 10.5271ZM10.25 10.5271C10.25 10.7885 10.0258 11 9.75 11C9.47333 11 9.25 10.7885 9.25 10.5271L9.25 5.47363C9.25 5.21228 9.47333 5 9.75 5C10.0258 5 10.25 5.21228 10.25 5.47363L10.25 10.5271Z" fill="rgb(255,183,0)" fill-rule="evenodd" />
	<path id="减去顶层" d="M8 1C11.866 1 15 4.13401 15 8C15 11.866 11.866 15 8 15C4.13401 15 1 11.866 1 8C1 4.13401 4.13401 1 8 1ZM14 8Q14 7.31309 13.851 6.6602L13.8509 6.65978Q13.735 6.15202 13.5289 5.66484Q13.3176 5.16532 13.0255 4.71868L13.0255 4.71867Q12.688 4.20273 12.2426 3.75736Q11.7974 3.31215 11.2817 2.97475L11.2814 2.97454L11.2813 2.97453Q10.8347 2.68238 10.3352 2.4711Q9.84798 2.26504 9.34022 2.14911L9.34001 2.14906Q8.68702 2 8 2Q7.31289 2 6.65982 2.1491L6.65981 2.1491L6.65979 2.14911L6.65977 2.14911Q6.15201 2.26504 5.66484 2.4711Q5.16529 2.68239 4.71863 2.97455Q4.20271 3.31201 3.75736 3.75736Q3.31201 4.20271 2.97454 4.71864L2.97454 4.71864Q2.68239 5.16529 2.4711 5.66484Q2.26504 6.15203 2.14911 6.65979L2.1491 6.6598Q2 7.31288 2 8Q2 8.68702 2.14906 9.34001L2.14911 9.34022Q2.26504 9.84798 2.4711 10.3352Q2.68239 10.8347 2.97454 11.2814Q3.312 11.7973 3.75736 12.2426Q4.20271 12.688 4.71863 13.0255L4.71865 13.0255L4.71866 13.0255L4.71891 13.0256Q5.16544 13.3177 5.66484 13.5289Q6.15202 13.735 6.65978 13.8509L6.6602 13.851Q7.31309 14 8 14Q8.68691 14 9.3398 13.851L9.34022 13.8509Q9.84798 13.735 10.3352 13.5289Q10.8347 13.3176 11.2813 13.0255Q11.7973 12.688 12.2426 12.2426Q12.688 11.7973 13.0254 11.2815L13.0255 11.2814Q13.3176 10.8347 13.5289 10.3352Q13.735 9.84798 13.8509 9.34022L13.851 9.3398Q14 8.68691 14 8ZM7.75 10.5271Q7.75 10.6818 7.71843 10.8298Q7.68678 10.9782 7.62341 11.1198Q7.56995 11.2392 7.49748 11.3457Q7.40829 11.4768 7.29032 11.5883Q7.19362 11.6797 7.08414 11.7517L7.08408 11.7517Q6.95836 11.8344 6.8158 11.8914Q6.69038 11.9415 6.56015 11.9685L6.56011 11.9685L6.55998 11.9686Q6.40825 12 6.25 12Q6.08989 12 5.93651 11.9679L5.93581 11.9677Q5.80757 11.9408 5.68405 11.8915Q5.54087 11.8342 5.41471 11.7512L5.41457 11.7511Q5.30538 11.6792 5.20893 11.5879Q5.09146 11.4768 5.00258 11.3461L5.00257 11.3461Q4.92971 11.239 4.87607 11.1189Q4.81328 10.9782 4.78176 10.8309L4.78172 10.8307L4.78171 10.8306L4.78171 10.8306Q4.75 10.6822 4.75 10.5271L4.75 5.47363Q4.75 5.31909 4.78146 5.17125L4.78146 5.17123Q4.81294 5.02334 4.87589 4.88215Q4.92948 4.76195 5.00229 4.65481L5.0023 4.6548Q5.09097 4.52431 5.20816 4.41319Q5.30512 4.32124 5.41498 4.24889L5.415 4.24888L5.41501 4.24887Q5.54063 4.16614 5.68313 4.10903Q5.80776 4.05908 5.93719 4.03201L5.93721 4.03201L5.93738 4.03197Q6.09035 4 6.25 4Q6.40795 4 6.55941 4.03135L6.55942 4.03136L6.55946 4.03136Q6.69052 4.0585 6.81672 4.10912Q6.95861 4.16602 7.0838 4.24833L7.0838 4.24833L7.08382 4.24835Q7.19392 4.32074 7.29109 4.41278Q7.40879 4.52426 7.49779 4.65524Q7.57019 4.76179 7.62359 4.88125Q7.68708 5.02328 7.71868 5.17207L7.71869 5.17208Q7.75 5.31953 7.75 5.47363L7.75 10.5271ZM11.2184 10.8298L11.2184 10.8298Q11.1868 10.9782 11.1234 11.1198Q11.0699 11.2392 10.9975 11.3457L10.9975 11.3458Q10.9083 11.4768 10.7903 11.5883Q10.6937 11.6797 10.5842 11.7516L10.5842 11.7517L10.5841 11.7517Q10.4584 11.8343 10.3158 11.8914Q10.1908 11.9414 10.061 11.9684L10.0601 11.9685L10.0601 11.9685L10.0601 11.9685Q9.90829 12 9.75 12Q9.59019 12 9.43707 11.968L9.43649 11.9679Q9.30791 11.941 9.18405 11.8915Q9.04108 11.8343 8.91506 11.7514L8.91472 11.7512Q8.80545 11.6792 8.70893 11.5879Q8.59145 11.4768 8.50257 11.3461Q8.42971 11.239 8.37607 11.1189Q8.31325 10.9782 8.28173 10.8307L8.28173 10.8307Q8.25 10.6823 8.25 10.5271L8.25 5.47363Q8.25 5.31908 8.28146 5.17123Q8.31294 5.02334 8.37589 4.88215Q8.42945 4.76202 8.50221 4.65493L8.50229 4.6548Q8.59097 4.52431 8.70816 4.41319Q8.80512 4.32123 8.915 4.24888Q9.04063 4.16614 9.18313 4.10903Q9.30776 4.05908 9.43718 4.03201L9.43721 4.032L9.43724 4.032Q9.59027 4 9.75 4Q9.90773 4 10.059 4.03127L10.0594 4.03136L10.0597 4.03141Q10.1906 4.05854 10.3167 4.10912Q10.4584 4.16595 10.5835 4.24814L10.5838 4.24835Q10.6939 4.32074 10.7911 4.41278Q10.9086 4.52409 10.9975 4.65484L10.9978 4.65527L10.9979 4.65535Q11.0702 4.76186 11.1236 4.88125Q11.1871 5.02325 11.2187 5.17203L11.2187 5.17205L11.2188 5.17266Q11.25 5.31984 11.25 5.47363L11.25 10.5271Q11.25 10.6818 11.2184 10.8297L11.2184 10.8298ZM6.25 11C6.52582 11 6.75 10.7885 6.75 10.5271L6.75 5.47363C6.75 5.21228 6.52582 5 6.25 5C5.97333 5 5.75 5.21228 5.75 5.47363L5.75 10.5271C5.75 10.7885 5.97333 11 6.25 11ZM9.75 11C10.0258 11 10.25 10.7885 10.25 10.5271L10.25 5.47363C10.25 5.21228 10.0258 5 9.75 5C9.47333 5 9.25 5.21228 9.25 5.47363L9.25 10.5271C9.25 10.7885 9.47333 11 9.75 11Z" fill="rgb(151,151,151)" fill-opacity="0" fill-rule="evenodd" />
</svg>
