<svg viewBox="0 0 16 16" xmlns="http://www.w3.org/2000/svg" xmlns:xlink="http://www.w3.org/1999/xlink" width="16.000000" height="16.000000" fill="none" customFrame="#000000">
	<rect id="状态图标/终止" width="16.000000" height="16.000000" x="0.000000" y="0.000000" />
	<path id="减去顶层" d="M1 8C1 4.13401 4.13401 1 8 1C9.85651 1 11.637 1.7375 12.9497 3.05025C14.2625 4.36301 15 6.14348 15 8C15 11.866 11.866 15 8 15C4.13401 15 1 11.866 1 8ZM10.2791 10.2789C10.3528 10.2052 10.393 10.1043 10.3902 10.0001L10.4002 6.00008C10.4032 5.89401 10.3616 5.79154 10.2857 5.71746C10.2097 5.64339 10.1062 5.60445 10.0002 5.61008L6.00025 5.61008C5.89771 5.61004 5.79951 5.65145 5.72795 5.72489C5.65639 5.79833 5.61755 5.89757 5.62025 6.00008L5.62025 10.0001C5.61755 10.1026 5.65639 10.2018 5.72795 10.2753C5.79951 10.3487 5.89771 10.3901 6.00025 10.3901L10.0002 10.3901C10.1045 10.3929 10.2053 10.3527 10.2791 10.2789Z" fill="rgb(242,48,48)" fill-rule="evenodd" />
</svg>
