<svg viewBox="0 0 16 16" xmlns="http://www.w3.org/2000/svg" xmlns:xlink="http://www.w3.org/1999/xlink" width="16.000000" height="16.000000" fill="none" customFrame="#000000">
	<rect id="状态图标/编辑" width="16.000000" height="16.000000" x="0.000000" y="0.000000" fill="rgb(255,255,255)" fill-opacity="0" />
	<path id="形状结合" d="M1 8C1 4.15 4.15 1 8 1C11.85 1 15 4.15 15 8C15 11.85 11.85 15 8 15C4.15 15 1 11.85 1 8ZM9.91626 4.30539C9.55787 4.11018 9.13937 4.16704 8.8643 4.44275L5.15321 8.15695L5.10762 8.21058C5.06663 8.26753 5.03973 8.3338 5.02965 8.40393L4.71861 10.5678L4.71411 10.639C4.71864 10.8959 4.94876 11.101 5.21359 11.0631L7.37881 10.7535L7.44758 10.7379C7.51465 10.7169 7.57603 10.6799 7.62621 10.6297L11.3394 6.91713L11.4074 6.84082L11.4692 6.75188C11.6736 6.41524 11.6303 5.97051 11.3394 5.67966L10.1019 4.44191L10.0124 4.3649L9.91626 4.30539ZM9.48203 5.06152L9.04994 5.49367L10.2863 6.73005L10.7189 6.29834L9.48203 5.06152ZM5.8765 8.67289L8.55752 5.98945L9.7939 7.22583L7.1127 9.90785L5.66923 10.1139L5.8765 8.67289ZM11.0626 10.1875C11.3042 10.1875 11.5001 10.3834 11.5001 10.625C11.5001 10.8667 11.3042 11.0625 11.0626 11.0625L9.31262 11.0625C9.071 11.0625 8.87512 10.8667 8.87512 10.625C8.87512 10.3834 9.071 10.1875 9.31262 10.1875L11.0626 10.1875Z" fill="rgb(10,89,247)" fill-rule="evenodd" />
</svg>
