<svg viewBox="0 0 16 16" xmlns="http://www.w3.org/2000/svg" xmlns:xlink="http://www.w3.org/1999/xlink" width="16.000000" height="16.000000" fill="none" customFrame="#000000">
	<rect id="状态图标/超时" width="16.000000" height="16.000000" x="0.000000" y="0.000000" fill="rgb(255,255,255)" fill-opacity="0" />
	<path id="减去顶层" d="M15 8C15 4.13401 11.866 1 8 1C4.13401 1 1 4.13401 1 8C1 11.866 4.13401 15 8 15C11.866 15 15 11.866 15 8ZM8.05078 4.58289L8.05078 8.55603L12.0508 8.55603C12.3308 8.55603 12.5508 8.77603 12.5508 9.05603C12.5508 9.33603 12.3308 9.55603 12.0508 9.55603L7.55078 9.55603Q7.34367 9.55603 7.19723 9.40958Q7.05078 9.26314 7.05078 9.05603L7.05078 4.58289C7.05078 4.30289 7.27078 4.08289 7.55078 4.08289C7.83078 4.08289 8.05078 4.30289 8.05078 4.58289Z" fill="rgb(242,48,48)" fill-rule="evenodd" />
	<path id="减去顶层" d="M8 1C11.866 1 15 4.13401 15 8C15 11.866 11.866 15 8 15C4.13401 15 1 11.866 1 8C1 4.13401 4.13401 1 8 1ZM14 8Q14 7.31309 13.851 6.6602L13.8509 6.65978Q13.735 6.15202 13.5289 5.66484Q13.3176 5.16532 13.0255 4.71868L13.0255 4.71867Q12.688 4.20273 12.2426 3.75736Q11.7974 3.31215 11.2817 2.97475L11.2814 2.97454L11.2813 2.97453Q10.8347 2.68238 10.3352 2.4711Q9.84798 2.26504 9.34022 2.14911L9.34001 2.14906Q8.68702 2 8 2Q7.31289 2 6.65982 2.1491L6.65981 2.1491L6.65979 2.14911L6.65977 2.14911Q6.15201 2.26504 5.66484 2.4711Q5.16529 2.68239 4.71863 2.97455Q4.20271 3.31201 3.75736 3.75736Q3.31201 4.20271 2.97454 4.71864L2.97454 4.71864Q2.68239 5.16529 2.4711 5.66484Q2.26504 6.15203 2.14911 6.65979L2.1491 6.6598Q2 7.31288 2 8Q2 8.68702 2.14906 9.34001L2.14911 9.34022Q2.26504 9.84798 2.4711 10.3352Q2.68239 10.8347 2.97454 11.2814Q3.312 11.7973 3.75736 12.2426Q4.20271 12.688 4.71863 13.0255L4.71865 13.0255L4.71866 13.0255L4.71891 13.0256Q5.16544 13.3177 5.66484 13.5289Q6.15202 13.735 6.65978 13.8509L6.6602 13.851Q7.31309 14 8 14Q8.68691 14 9.3398 13.851L9.34022 13.8509Q9.84798 13.735 10.3352 13.5289Q10.8347 13.3176 11.2813 13.0255Q11.7973 12.688 12.2426 12.2426Q12.688 11.7973 13.0254 11.2815L13.0255 11.2814Q13.3176 10.8347 13.5289 10.3352Q13.735 9.84798 13.8509 9.34022L13.851 9.3398Q14 8.68691 14 8ZM9.05078 4.58289L9.05078 7.55603L12.0508 7.55603Q12.2187 7.55603 12.3788 7.5915L12.3788 7.5915Q12.5078 7.62009 12.6316 7.6717Q12.7696 7.72919 12.8912 7.81104Q13.0099 7.89089 13.1129 7.99392Q13.2159 8.09697 13.2958 8.21561L13.2958 8.21564L13.2958 8.21566Q13.3776 8.33722 13.4351 8.47517Q13.4866 8.59871 13.5152 8.72734L13.5153 8.72796L13.5154 8.72848Q13.5508 8.88834 13.5508 9.05603Q13.5508 9.22399 13.5153 9.38408L13.5153 9.38415L13.5153 9.38419Q13.4867 9.51309 13.4351 9.6369Q13.3777 9.77465 13.296 9.89608L13.2958 9.89643Q13.2159 10.0151 13.1129 10.1181Q13.0098 10.2212 12.8912 10.301L12.8912 10.3011Q12.7696 10.3829 12.6316 10.4404Q12.5078 10.4919 12.3789 10.5205L12.3789 10.5205L12.3788 10.5205Q12.2187 10.556 12.0508 10.556L7.55078 10.556Q7.34747 10.556 7.15785 10.5051L7.15758 10.505Q7.06524 10.4802 6.97616 10.4433Q6.88768 10.4067 6.80536 10.3593L6.80425 10.3587Q6.634 10.2606 6.49012 10.1167Q6.34622 9.97279 6.2481 9.8025L6.24804 9.8024Q6.20037 9.71964 6.16351 9.63066Q6.12663 9.54162 6.10182 9.44934L6.1018 9.44929L6.1018 9.44927L6.10176 9.44913Q6.05078 9.25943 6.05078 9.05603L6.05078 4.58289Q6.05078 4.41495 6.08625 4.25488L6.08626 4.25487L6.08626 4.25487Q6.11484 4.12589 6.16645 4.00202Q6.22395 3.86404 6.30578 3.74245Q6.38564 3.62381 6.48867 3.52078Q6.5917 3.41775 6.71034 3.3379L6.71034 3.33789L6.7106 3.33772Q6.83208 3.25599 6.96992 3.19856Q7.09379 3.14694 7.22278 3.11836L7.2228 3.11835L7.22281 3.11835Q7.38286 3.08289 7.55078 3.08289Q7.71856 3.08289 7.87849 3.11829L7.87879 3.11836L7.87881 3.11837L7.87885 3.11837Q8.0078 3.14696 8.13165 3.19856Q8.26963 3.25605 8.39122 3.33789L8.39139 3.33801Q8.50993 3.41782 8.61289 3.52078Q8.71592 3.62381 8.79577 3.74245Q8.87762 3.86404 8.93511 4.00202Q8.9866 4.12561 9.01518 4.25429L9.01531 4.25488Q9.05078 4.41495 9.05078 4.58289ZM8.05078 8.55603L8.05078 4.58289C8.05078 4.30289 7.83078 4.08289 7.55078 4.08289C7.27078 4.08289 7.05078 4.30289 7.05078 4.58289L7.05078 9.05603Q7.05078 9.15958 7.08739 9.24797Q7.12401 9.33636 7.19723 9.40958Q7.27045 9.48281 7.35884 9.51942Q7.44723 9.55603 7.55078 9.55603L12.0508 9.55603C12.3308 9.55603 12.5508 9.33603 12.5508 9.05603C12.5508 8.77603 12.3308 8.55603 12.0508 8.55603L8.05078 8.55603Z" fill="rgb(151,151,151)" fill-opacity="0" fill-rule="evenodd" />
</svg>
