<svg viewBox="0 0 16 16" xmlns="http://www.w3.org/2000/svg" xmlns:xlink="http://www.w3.org/1999/xlink" width="16.000000" height="16.000000" fill="none" customFrame="#000000">
	<rect id="状态图标/跳过" width="16.000000" height="16.000000" x="0.000000" y="0.000000" fill="rgb(255,255,255)" fill-opacity="0" />
	<path id="跳过" d="M8 1C11.866 1 15 4.13401 15 8C15 11.866 11.866 15 8 15C4.13401 15 1 11.866 1 8C1 4.13401 4.13401 1 8 1ZM4.7171 5.10422C4.50405 4.88771 4.50686 4.53948 4.72338 4.32643C4.91584 4.13706 5.21237 4.11824 5.42552 4.26846L5.50117 4.33271L8.73896 7.62322C8.9259 7.8132 8.94695 8.10517 8.80192 8.31812L8.73975 8.39392L5.50196 11.698C5.28936 11.9149 4.94114 11.9185 4.72419 11.7059C4.53134 11.5169 4.50712 11.2207 4.65344 11.0049L4.71631 10.9281L7.57528 8.01067L4.7171 5.10422ZM8.72338 4.32643C8.50686 4.53948 8.50405 4.88771 8.7171 5.10422L11.5753 8.01067L8.71631 10.9281L8.65344 11.0049C8.50712 11.2207 8.53134 11.5169 8.72419 11.7059C8.94114 11.9185 9.28936 11.9149 9.50196 11.698L12.7397 8.39392L12.8019 8.31812C12.9469 8.10517 12.9259 7.8132 12.739 7.62322L9.50117 4.33271L9.42552 4.26846C9.21237 4.11824 8.91584 4.13706 8.72338 4.32643Z" fill="rgb(147,147,147)" fill-rule="evenodd" />
	<path id="跳过" d="M8 1C11.866 1 15 4.13401 15 8C15 11.866 11.866 15 8 15C4.13401 15 1 11.866 1 8C1 4.13401 4.13401 1 8 1ZM6.6598 2.1491L6.65979 2.14911Q6.15203 2.26504 5.66484 2.4711Q5.16529 2.68239 4.71864 2.97454Q4.20271 3.31201 3.75736 3.75736Q3.31206 4.20265 2.97463 4.71851L2.97455 4.71863L2.97454 4.71864Q2.68239 5.16529 2.4711 5.66484Q2.26503 6.15203 2.1491 6.6598Q2 7.31288 2 8Q2 8.68702 2.14906 9.34001L2.14911 9.34022Q2.26504 9.84798 2.4711 10.3352Q2.68238 10.8347 2.97453 11.2813L2.97454 11.2814L2.97486 11.2818Q3.31222 11.7975 3.75736 12.2426Q4.20273 12.688 4.71867 13.0255L4.71869 13.0255L4.71873 13.0255Q5.16534 13.3176 5.66484 13.5289Q6.15202 13.735 6.65978 13.8509L6.6602 13.851Q7.31309 14 8 14Q8.68691 14 9.3398 13.851L9.34022 13.8509Q9.84798 13.735 10.3352 13.5289Q10.8347 13.3176 11.2814 13.0255L11.2815 13.0254Q11.7973 12.688 12.2426 12.2426Q12.688 11.7973 13.0255 11.2813Q13.3176 10.8347 13.5289 10.3352Q13.735 9.84798 13.8509 9.34022L13.851 9.3398Q14 8.68691 14 8Q14 7.31309 13.851 6.6602L13.8509 6.65978Q13.735 6.15202 13.5289 5.66484Q13.3177 5.16545 13.0256 4.71892L13.0255 4.71866L13.0252 4.71829Q12.6878 4.20256 12.2426 3.75736Q11.7973 3.312 11.2814 2.97454L11.2813 2.97451Q10.8347 2.68238 10.3352 2.4711Q9.84798 2.26504 9.34022 2.14911L9.34001 2.14906Q8.68702 2 8 2Q7.31288 2 6.6598 2.1491ZM8.2468 3.43016L8.24682 3.43015Q8.35509 3.35763 8.47576 3.30362Q8.59497 3.25026 8.71963 3.21794L8.71998 3.21785Q8.85194 3.18366 8.99002 3.17304Q9.12477 3.16268 9.25732 3.17539L9.25735 3.17539L9.25741 3.1754Q9.38649 3.18778 9.51348 3.22205Q9.64687 3.25804 9.76991 3.31601L9.76998 3.31604Q9.89078 3.37296 10.0016 3.45107L10.0385 3.47705L10.1826 3.59946L13.4518 6.92185Q13.5535 7.02524 13.6331 7.14352Q13.7051 7.25045 13.759 7.36954Q13.8122 7.48707 13.845 7.61005L13.8451 7.61069Q13.8797 7.74091 13.8913 7.87724Q13.897 7.94407 13.897 8.01041Q13.897 8.07613 13.8914 8.14138L13.8914 8.14157L13.8914 8.14159Q13.8804 8.26943 13.8481 8.39543Q13.8141 8.52764 13.7585 8.65004L13.7585 8.65006L13.7585 8.65009Q13.7039 8.77029 13.6284 8.88102L13.6034 8.91784L13.4849 9.06227L10.2162 12.3979Q10.1019 12.5145 9.9689 12.6032Q9.84567 12.6854 9.70641 12.7435Q9.57041 12.8002 9.42873 12.8301L9.42796 12.8302L9.42792 12.8302Q9.27948 12.8614 9.12484 12.8629Q8.97017 12.8645 8.8211 12.8364Q8.67846 12.8094 8.54096 12.7553Q8.40068 12.7 8.27591 12.6205L8.27568 12.6204Q8.14093 12.5344 8.02428 12.4201Q7.91927 12.3172 7.83671 12.1986Q7.76224 12.0917 7.70605 11.972Q7.65045 11.8537 7.61584 11.7294Q7.57926 11.5981 7.56613 11.4603Q7.55903 11.3856 7.55903 11.3116Q7.55903 11.2521 7.56361 11.193L7.56362 11.1929Q7.57139 11.0927 7.59231 10.9936L6.2162 12.3979Q6.10187 12.5145 5.96888 12.6032L5.96884 12.6032Q5.84564 12.6854 5.70641 12.7435Q5.57038 12.8003 5.42868 12.8301L5.42796 12.8302Q5.2795 12.8614 5.12484 12.8629Q4.97018 12.8645 4.82112 12.8364L4.82065 12.8363Q4.67824 12.8093 4.54096 12.7553Q4.40055 12.7 4.27569 12.6204L4.27555 12.6203Q4.14088 12.5343 4.02428 12.4201Q3.9193 12.3172 3.83677 12.1987L3.83674 12.1987L3.83665 12.1986Q3.76222 12.0917 3.70605 11.972Q3.65046 11.8537 3.61586 11.7295L3.61584 11.7294L3.61584 11.7294L3.61583 11.7294Q3.57926 11.5981 3.56613 11.4603Q3.55903 11.3856 3.55903 11.3116Q3.55903 11.252 3.56362 11.1929L3.56362 11.1928Q3.57366 11.0635 3.6056 10.936Q3.63917 10.8019 3.69489 10.6779Q3.74961 10.556 3.8257 10.4438L3.85101 10.4064L3.97078 10.2601L6.17396 8.01189L4.00431 5.8056L4.0041 5.80539Q3.88967 5.68906 3.80353 5.55461L3.80352 5.5546Q3.72362 5.4299 3.66805 5.28961Q3.61362 5.15221 3.58639 5.00961L3.58638 5.00959L3.58638 5.00956Q3.55913 4.86686 3.55913 4.71895L3.55919 4.70595Q3.56044 4.55129 3.59129 4.40278L3.59129 4.40277Q3.62082 4.26063 3.67746 4.12413Q3.73529 3.98475 3.8172 3.86135Q3.90559 3.72819 4.02201 3.61364Q4.12679 3.51053 4.2468 3.43016L4.24681 3.43015L4.24681 3.43015Q4.35509 3.35763 4.47576 3.30362Q4.59514 3.25019 4.71997 3.21785L4.71999 3.21784L4.71999 3.21784Q4.85195 3.18366 4.99002 3.17304Q5.12484 3.16267 5.25745 3.1754L5.25748 3.1754Q5.38653 3.18779 5.51348 3.22205Q5.64665 3.25798 5.76951 3.31582L5.76994 3.31603L5.76996 3.31603Q5.89077 3.37296 6.00159 3.45107L6.03847 3.47705L6.1826 3.59946L7.59048 5.03027Q7.58969 5.02644 7.58893 5.02261Q7.58836 5.01976 7.5878 5.01692Q7.58708 5.01325 7.58638 5.00959L7.58637 5.00953Q7.55913 4.86684 7.55913 4.71895L7.55919 4.70595Q7.56043 4.55142 7.59124 4.40301L7.59128 4.40281Q7.62081 4.26065 7.67746 4.12413Q7.73529 3.98476 7.8172 3.86136L7.8172 3.86135Q7.90559 3.72819 8.02201 3.61364Q8.12679 3.51053 8.2468 3.43016ZM4.55914 4.7185C4.55914 4.85777 4.6117 4.99711 4.7171 5.10422L7.57528 8.01067L4.71631 10.9281L4.65344 11.0049C4.59052 11.0977 4.55914 11.2054 4.55914 11.313C4.55914 11.4556 4.61427 11.5981 4.72419 11.7059C4.94114 11.9185 5.28936 11.9149 5.50196 11.698L8.73975 8.39392L8.80192 8.31812C8.86526 8.22512 8.89692 8.11705 8.89692 8.00898C8.89692 7.8696 8.84425 7.73023 8.73896 7.62322L5.50117 4.33271L5.42552 4.26846C5.21237 4.11824 4.91584 4.13706 4.72338 4.32643C4.61398 4.43408 4.55914 4.57625 4.55914 4.7185ZM8.72338 4.32643C8.61398 4.43408 8.55914 4.57625 8.55914 4.7185C8.55914 4.85777 8.6117 4.99711 8.7171 5.10422L11.5753 8.01067L8.71631 10.9281L8.65344 11.0049C8.59052 11.0977 8.55914 11.2054 8.55914 11.313C8.55914 11.4556 8.61427 11.5981 8.72419 11.7059C8.94114 11.9185 9.28936 11.9149 9.50196 11.698L12.7397 8.39392L12.8019 8.31812C12.8653 8.22512 12.8969 8.11704 12.8969 8.00898C12.8969 7.8696 12.8443 7.73023 12.739 7.62322L9.50117 4.33271L9.42552 4.26846C9.21237 4.11824 8.91584 4.13706 8.72338 4.32643ZM9.86373 8.32847L10.174 8.01189L9.86568 7.69841Q9.8836 7.78647 9.89132 7.87724Q9.89701 7.94406 9.89701 8.0104Q9.89701 8.07589 9.89147 8.1409L9.89141 8.14161Q9.88335 8.23553 9.86373 8.32847Z" fill="rgb(151,151,151)" fill-opacity="0" fill-rule="evenodd" />
</svg>
