<svg viewBox="0 0 16 16" xmlns="http://www.w3.org/2000/svg" xmlns:xlink="http://www.w3.org/1999/xlink" width="16.000000" height="16.000000" fill="none" customFrame="#000000">
	<rect id="XMateUI/ai-inspiration 智慧锦囊" width="16.000000" height="16.000000" x="0.000000" y="0.000000" />
	<rect id="矩形 164" width="16.000000" height="16.000000" x="0.000000" y="0.000000" opacity="0" fill="rgb(255,254.745,254.745)" />
	<path id="形状结合" d="M12.6218 0.596581L12.6292 0.568001C12.6937 0.319761 13.0455 0.318008 13.1125 0.565594L13.1237 0.607102C13.2347 0.991203 13.5443 1.2907 13.9323 1.38837C14.1842 1.4518 14.1842 1.80975 13.9323 1.87323C13.5311 1.97433 13.2147 2.29073 13.1137 2.6919C13.0503 2.94382 12.6923 2.94386 12.6288 2.69195C12.5277 2.29073 12.2113 1.97435 11.8102 1.87335C11.5583 1.80992 11.5582 1.45197 11.8101 1.38849C12.2031 1.28947 12.5153 0.983662 12.6218 0.596581ZM6.63208 2.2765L6.5877 2.44734C5.85245 5.12012 3.71297 7.21586 1.01649 7.89536C0.512678 8.02232 0.512751 8.73821 1.01659 8.86507C3.76955 9.5582 5.93801 11.7265 6.63181 14.4797C6.75877 14.9835 7.47466 14.9835 7.60152 14.4796C8.29465 11.7267 10.4629 9.5582 13.2162 8.86441C13.72 8.73745 13.7199 8.02155 13.2161 7.8947C10.5537 7.22439 8.43201 5.17187 7.67017 2.53635L7.59868 2.27169C7.46476 1.77652 6.76105 1.78002 6.63208 2.2765ZM12.9723 11.9186L12.9604 11.9643C12.79 12.5836 12.2905 13.0729 11.6618 13.2314C11.2587 13.3329 11.2588 13.9056 11.6618 14.0071C12.3037 14.1687 12.8099 14.6749 12.9717 15.3169C13.0733 15.7199 13.646 15.7199 13.7475 15.3168C13.9091 14.6749 14.4153 14.1687 15.0572 14.0069C15.4603 13.9054 15.4602 13.3326 15.0572 13.2312C14.4364 13.0749 13.9411 12.5957 13.7634 11.9811L13.7455 11.9147C13.6384 11.5186 13.0754 11.5214 12.9723 11.9186Z" fill="rgb(20,118,255)" fill-rule="evenodd" />
	<path id="形状结合" d="M12.6218 0.596581L12.6292 0.568001C12.6937 0.319761 13.0455 0.318008 13.1125 0.565594L13.1237 0.607102C13.2347 0.991203 13.5443 1.2907 13.9323 1.38837C14.0582 1.42009 14.1212 1.52545 14.1212 1.63081C14.1212 1.73615 14.0582 1.84149 13.9323 1.87323C13.5311 1.97433 13.2147 2.29073 13.1137 2.6919C13.0503 2.94382 12.6923 2.94386 12.6288 2.69195C12.5277 2.29073 12.2113 1.97435 11.8102 1.87335C11.6842 1.84163 11.6212 1.73627 11.6212 1.63091C11.6212 1.52557 11.6842 1.42023 11.8101 1.38849C12.2031 1.28947 12.5153 0.983662 12.6218 0.596581ZM6.5877 2.44734L6.63208 2.2765C6.76105 1.78002 7.46476 1.77652 7.59868 2.27169L7.67017 2.53635C8.43201 5.17187 10.5537 7.22439 13.2161 7.8947C13.468 7.95813 13.594 8.16885 13.594 8.37957C13.594 8.59025 13.4681 8.80093 13.2162 8.86441C10.4629 9.5582 8.29465 11.7267 7.60152 14.4796C7.47466 14.9835 6.75877 14.9835 6.63181 14.4797C5.93801 11.7265 3.76955 9.5582 1.01659 8.86507C0.764651 8.80163 0.638672 8.59092 0.638672 8.3802C0.638672 8.16951 0.764608 7.95883 1.01649 7.89536C3.71297 7.21586 5.85245 5.12012 6.5877 2.44734ZM7.11649 3.93048Q7.08573 3.99981 7.05378 4.06855L7.05377 4.06857L7.05376 4.06859Q6.86989 4.46415 6.64608 4.84113Q6.37751 5.29348 6.05922 5.70762L6.0592 5.70764L6.05904 5.70785Q5.68271 6.19745 5.23688 6.63363Q4.79769 7.06331 4.30801 7.42455L4.30797 7.42459Q3.87969 7.74053 3.41279 8.00412Q3.04669 8.2108 2.66603 8.38006Q3.06831 8.55887 3.45415 8.77947Q3.92781 9.05028 4.36104 9.37502Q4.85895 9.74825 5.30346 10.1927Q5.74689 10.6361 6.11944 11.1327L6.11947 11.1327L6.11949 11.1327Q6.44532 11.567 6.71694 12.0419Q6.93762 12.4278 7.11653 12.8301Q7.29534 12.4279 7.51592 12.0421Q7.78678 11.5683 8.11159 11.135L8.11162 11.135L8.11164 11.135Q8.4848 10.6372 8.92917 10.1928Q9.37241 9.74947 9.86879 9.37701L9.86993 9.37616Q10.3039 9.05066 10.7784 8.77928Q11.1643 8.55857 11.5667 8.37964Q11.1989 8.21615 10.8447 8.0177Q10.3862 7.76083 9.96462 7.4534L9.96454 7.45334Q9.47517 7.09649 9.03548 6.67152Q8.60063 6.25124 8.23063 5.78005L8.23061 5.78001L8.23059 5.78Q7.90438 5.36456 7.62857 4.90956Q7.34021 4.43384 7.11649 3.93048ZM12.9604 11.9643L12.9723 11.9186C13.0754 11.5214 13.6384 11.5186 13.7455 11.9147L13.7634 11.9811C13.9411 12.5957 14.4364 13.0749 15.0572 13.2312C15.2587 13.2819 15.3595 13.4505 15.3595 13.6191C15.3595 13.7876 15.2587 13.9562 15.0572 14.0069C14.4153 14.1687 13.9091 14.6749 13.7475 15.3168C13.646 15.7199 13.0733 15.7199 12.9717 15.3169C12.8099 14.6749 12.3037 14.1687 11.6618 14.0071C11.4603 13.9564 11.3595 13.7878 11.3595 13.6192C11.3595 13.4507 11.4602 13.2821 11.6618 13.2314C12.2905 13.0729 12.79 12.5836 12.9604 11.9643ZM13.3597 13.2959Q13.2758 13.3941 13.1817 13.486Q13.1105 13.5556 13.0359 13.6192Q13.1221 13.693 13.2039 13.7747Q13.2857 13.8565 13.3595 13.9428Q13.4333 13.8565 13.5151 13.7748Q13.597 13.6929 13.6833 13.619Q13.6149 13.5605 13.5492 13.497Q13.4487 13.3999 13.3597 13.2959Z" fill="rgb(151,151,151)" fill-opacity="0" fill-rule="evenodd" />
</svg>
