<svg viewBox="0 0 16 16" xmlns="http://www.w3.org/2000/svg" xmlns:xlink="http://www.w3.org/1999/xlink" width="16.000000" height="16.000000" fill="none">
	<rect id="2D 服务图标/批量变更 BatchChange" width="16.000000" height="16.000000" x="0.000000" y="0.000000" />
	<g id="资源库">
		<g id="服务图标">
			<g id="icon-icon-changes">
				<rect id="矩形" width="16.000000" height="16.000000" x="0.000000" y="0.000000" opacity="0" fill="rgb(216,216,216)" />
				<rect id="矩形" width="16.000000" height="16.000000" x="0.000000" y="0.000000" opacity="0" stroke="rgb(0,0,0)" stroke-opacity="0" stroke-width="1" />
				<rect id="矩形" width="7.000000" height="7.000000" x="0.500000" y="0.500000" rx="2.000000" fill="rgb(255,231,186)" />
				<rect id="矩形" width="7.000000" height="7.000000" x="0.500000" y="0.500000" rx="2.000000" stroke="rgb(0,0,0)" stroke-opacity="0" stroke-width="1" />
				<rect id="矩形备份" width="7.000000" height="7.000000" x="8.500000" y="8.500000" rx="2.000000" fill="rgb(255,231,186)" />
				<rect id="矩形备份" width="7.000000" height="7.000000" x="8.500000" y="8.500000" rx="2.000000" stroke="rgb(0,0,0)" stroke-opacity="0" stroke-width="1" />
				<path id="形状结合" d="M2.5 0C2.77614 0 3 0.223858 3 0.5C3 0.776142 2.77614 1 2.5 1L0.999 1L1 2.5C1 2.77614 0.776142 3 0.5 3C0.223857 3 0 2.77614 0 2.5L0 0.5C0 0.223858 0.223857 0 0.5 0L2.5 0Z" fill="rgb(250,140,22)" fill-rule="evenodd" transform="matrix(0.707107,-0.707107,0.707107,0.707107,8,3)" />
				<path id="形状结合" d="M3 0.5C3 0.776142 2.77614 1 2.5 1L0.999 1L1 2.5C1 2.77614 0.776142 3 0.5 3C0.223857 3 0 2.77614 0 2.5L0 0.5C0 0.223858 0.223857 0 0.5 0L2.5 0C2.77614 0 3 0.223858 3 0.5Z" fill-rule="evenodd" stroke="rgb(0,0,0)" stroke-opacity="0" stroke-width="0.99999994" transform="matrix(0.707107,-0.707107,0.707107,0.707107,8,3)" />
				<path id="路径" d="M9 3C9.19623 3 9.52956 3 10 3C12.2091 3 14 4.79086 14 7" stroke="rgb(250,140,22)" stroke-linecap="round" stroke-width="1" />
				<path id="形状结合备份" d="M2.5 0C2.77614 0 3 0.223858 3 0.5C3 0.776142 2.77614 1 2.5 1L1 1L1 2.5C1 2.77614 0.776142 3 0.5 3C0.223857 3 0 2.77614 0 2.5L0 0.5C0 0.223858 0.223857 0 0.5 0L2.5 0Z" fill="rgb(255,192,105)" fill-rule="evenodd" transform="matrix(-0.707107,-0.707107,-0.707107,0.707107,8,13)" />
				<path id="形状结合备份" d="M3 0.5C3 0.776142 2.77614 1 2.5 1L1 1L1 2.5C1 2.77614 0.776142 3 0.5 3C0.223857 3 0 2.77614 0 2.5L0 0.5C0 0.223858 0.223857 0 0.5 0L2.5 0C2.77614 0 3 0.223858 3 0.5Z" fill-rule="evenodd" stroke="rgb(0,0,0)" stroke-opacity="0" stroke-width="0.99999994" transform="matrix(-0.707107,-0.707107,-0.707107,0.707107,8,13)" />
				<path id="形状" d="M7 13C6.80377 13 6.47044 13 6 13C3.79086 13 2 11.2091 2 9" stroke="rgb(255,192,105)" stroke-linecap="round" stroke-width="1" />
			</g>
		</g>
	</g>
</svg>
