<svg viewBox="0 0 16 16" xmlns="http://www.w3.org/2000/svg" xmlns:xlink="http://www.w3.org/1999/xlink" width="16.000000" height="16.000000" fill="none" customFrame="#000000">
	<rect id="2D 服务图标/编译构建" width="16.000000" height="16.000000" x="0.000000" y="0.000000" />
	<g id="icon icon-cloud-build-2d">
		<rect id="矩形" width="16.000000" height="16.000000" x="0.000000" y="0.000000" opacity="0" fill="rgb(216,216,216)" />
		<rect id="矩形" width="15.000000" height="15.000000" x="0.500000" y="0.500000" opacity="0" stroke="rgb(151,151,151)" stroke-opacity="0" stroke-width="1" />
		<path id="形状结合" d="M7.03951 3.64754L4.85132 2.44498L7.99856 0.70166L11.1304 2.41702L8.97673 3.61386L8.03728 3.07147L7.03951 3.64754Z" fill="rgb(181,245,236)" fill-rule="evenodd" />
		<path id="形状结合" d="M7.03951 3.64754L4.85132 2.44498L7.99856 0.70166L11.1304 2.41702L8.97673 3.61386L8.03728 3.07147L7.03951 3.64754ZM7.02741 2.49982L8.03728 1.91677L8.98613 2.46459L9.06029 2.42337L8.00127 1.84332L6.92133 2.44153L7.02741 2.49982Z" fill="rgb(151,151,151)" fill-opacity="0" fill-rule="evenodd" />
		<path id="形状结合" d="M6.26776 4.09111L4.38979 5.17536L4.38979 8.65171L4.21974 8.74988L1.69043 7.28959L1.69043 4.36899L4.21974 2.90869L6.26776 4.09111ZM6.74905 4.96859L6.74905 7.28959L5.38922 8.07469L5.38922 5.75335L6.74905 4.96859Z" fill="rgb(181,245,236)" fill-rule="evenodd" />
		<path id="形状结合" d="M6.26776 4.09111L4.38979 5.17536L4.38979 8.65171L4.21974 8.74988L1.69043 7.28959L1.69043 4.36899L4.21974 2.90869L6.26776 4.09111ZM4.26776 4.09111L4.21974 4.06339L2.69043 4.94634L2.69043 6.71223L3.38979 7.11601L3.38979 4.59801L4.26776 4.09111ZM6.74905 4.96859L6.74905 7.28959L5.38922 8.07469L5.38922 5.75335L6.74905 4.96859Z" fill="rgb(151,151,151)" fill-opacity="0" fill-rule="evenodd" />
		<path id="形状结合" d="M7.33532 9.93343L8.03615 9.52881L8.73618 9.93298L8.03522 10.3373L7.33532 9.93343ZM6.33674 10.51L8.03621 11.4912L9.73562 10.51L10.5655 10.9891L10.5655 13.9097L8.03615 15.37L5.50684 13.9097L5.50684 10.9891L6.33674 10.51Z" fill="rgb(181,245,236)" fill-rule="evenodd" />
		<path id="形状结合" d="M7.33532 9.93343L8.03615 9.52881L8.73618 9.93298L8.03522 10.3373L7.33532 9.93343ZM6.33674 10.51L8.03621 11.4912L9.73562 10.51L10.5655 10.9891L10.5655 13.9097L8.03615 15.37L5.50684 13.9097L5.50684 10.9891L6.33674 10.51ZM6.50684 11.7629L6.50684 13.3324L8.03615 14.2153L9.56546 13.3324L9.56546 11.7629L8.03621 12.6459L6.50684 11.7629Z" fill="rgb(151,151,151)" fill-opacity="0" fill-rule="evenodd" />
		<path id="矩形备份" d="M11.3315 9.74408L14.369 8.05078L14.369 11.7314L11.3315 13.4247L11.3315 9.74408Z" fill="rgb(181,245,236)" fill-rule="evenodd" />
		<path id="矩形备份" d="M13.369 8.60826L11.3315 9.74408L11.3315 13.4247L12.3315 12.8672L14.369 11.7314L14.369 8.05078L13.369 8.60826ZM13.369 9.75316L13.369 11.144L12.3315 11.7223L12.3315 10.3315L13.369 9.75316Z" fill="rgb(151,151,151)" fill-opacity="0" fill-rule="evenodd" />
		<path id="形状结合" d="M14.3814 7.28959L14.3814 4.36899L11.8521 2.90869L9.80435 4.09094L11.6826 5.17536L11.6826 8.65206L11.8521 8.74988L14.3814 7.28959ZM9.32275 4.9691L9.32275 7.28959L10.6822 8.07447L10.6822 5.75335L9.32275 4.9691Z" fill="rgb(181,245,236)" fill-rule="evenodd" />
		<path id="形状结合" d="M14.3814 4.36899L14.3814 7.28959L11.8521 8.74988L11.6826 8.65206L11.6826 5.17536L9.80435 4.09094L11.8521 2.90869L14.3814 4.36899ZM12.6826 7.11566L13.3814 6.71224L13.3814 4.94634L11.8521 4.06339L11.8044 4.09094L12.6826 4.59801L12.6826 7.11566ZM9.32275 7.28959L9.32275 4.9691L10.6822 5.75335L10.6822 8.07447L9.32275 7.28959Z" fill="rgb(151,151,151)" fill-opacity="0" fill-rule="evenodd" />
		<path id="矩形" d="M1.6001 8.01172L4.64824 9.8627L4.64824 13.4285L1.6001 11.6517L1.6001 8.01172Z" fill="rgb(181,245,236)" fill-rule="evenodd" />
		<path id="矩形" d="M3.64825 10.4254L2.6001 9.7889L2.6001 11.0771L3.64825 11.6881L3.64825 10.4254ZM4.64824 12.271L4.64824 13.4285L3.64825 12.8456L1.6001 11.6517L1.6001 8.01172L4.64824 9.8627L4.64824 12.271Z" fill="rgb(151,151,151)" fill-opacity="0" fill-rule="evenodd" />
		<path id="形状结合" d="M4.38971 5.17684L4.38971 9.38635L8.03613 11.4916L11.6825 9.38638L11.6825 9.3874L8.03607 11.4927L4.38965 9.3874L4.38965 5.17688L4.38971 5.17684ZM8.03514 4.22534L5.38914 5.75234L5.38914 8.80934L8.03514 10.3363L10.6821 8.80934L10.6821 5.75234L8.03514 4.22534Z" fill="rgb(19,194,194)" fill-rule="evenodd" />
		<path id="形状结合" d="M5.38914 5.75234L8.03514 4.22534L10.6821 5.75234L10.6821 8.80934L8.03514 10.3363L5.38914 8.80934L5.38914 5.75234ZM4.38971 5.17684L4.38971 9.38635L8.03613 11.4916L11.6825 9.38638L11.6825 9.3874L8.03607 11.4927L4.38965 9.3874L4.38965 5.17688L4.38971 5.17684ZM9.68215 8.23176L9.68215 6.32993L8.03524 5.37986L6.38914 6.32982L6.38914 8.23186L8.03524 9.18182L9.68215 8.23176Z" fill="rgb(255,255,255)" fill-opacity="0" fill-rule="evenodd" />
	</g>
</svg>
