<svg viewBox="0 0 16 16" xmlns="http://www.w3.org/2000/svg" xmlns:xlink="http://www.w3.org/1999/xlink" width="16.000000" height="16.000000" fill="none">
	<rect id="2D 服务图标/变更列表 Changse" width="16.000000" height="16.000000" x="0.000000" y="0.000000" />
	<g id="组合 11">
		<g id="组合 13">
			<path id="矩形 71 (边框)" d="M5.49976 13.8003C2.73833 13.8003 0.499756 11.5617 0.499756 8.80029L2.7998 8.80029C2.7998 10.2915 4.00859 11.5003 5.49976 11.5003L9.2019 11.5003L10.5017 11.5003L10.5017 13.8003L5.49976 13.8003Z" fill="rgb(255,231,186)" fill-rule="evenodd" />
			<path id="多边形 2" d="M4.5 0L0 0L4.5 4.5L4.5 0Z" fill="rgb(255,192,105)" fill-rule="evenodd" transform="matrix(-1,0,0,-1,4.99976,8.80029)" />
			<path id="椭圆 1 (边框)" d="M9.49976 12.6003C9.49976 11.6062 10.3056 10.8003 11.2998 10.8003C12.2939 10.8003 13.0998 11.6062 13.0998 12.6003C13.0998 13.5944 12.2939 14.4003 11.2998 14.4003C10.3056 14.4003 9.49976 13.5944 9.49976 12.6003ZM10.4998 12.6003C10.4998 12.1585 10.8579 11.8003 11.2998 11.8003C11.7416 11.8003 12.0998 12.1585 12.0998 12.6003C12.0998 13.0421 11.7416 13.4003 11.2998 13.4003C10.8579 13.4003 10.4998 13.0421 10.4998 12.6003Z" fill="rgb(250,140,22)" fill-rule="evenodd" />
		</g>
		<g id="组合 13">
			<path id="矩形 71 (边框)" d="M5 5C2.23858 5 0 2.76142 0 0L2.30005 0C2.30005 1.49117 3.50883 2.70001 5 2.70001L8.70215 2.70001L10.002 2.70001L10.002 5L5 5Z" fill="rgb(255,231,186)" fill-rule="evenodd" transform="matrix(-1,0,0,-1,15.5002,7.30029)" />
			<path id="多边形 2" d="M15.5002 7.30029L11.0002 7.30029L15.5002 11.8003L15.5002 7.30029Z" fill="rgb(255,192,105)" fill-rule="evenodd" />
			<path id="椭圆 1 (边框)" d="M0 1.8C0 0.805887 0.805887 0 1.8 0C2.79411 0 3.6 0.805887 3.6 1.8C3.6 2.79411 2.79411 3.6 1.8 3.6C0.805887 3.6 0 2.79411 0 1.8ZM1 1.8C1 1.35817 1.35817 1 1.8 1C2.24183 1 2.6 1.35817 2.6 1.8C2.6 2.24183 2.24183 2.6 1.8 2.6C1.35817 2.6 1 2.24183 1 1.8Z" fill="rgb(250,140,22)" fill-rule="evenodd" transform="matrix(-1,0,0,-1,6.50024,5.30029)" />
		</g>
	</g>
</svg>
