<svg viewBox="0 0 16 16" xmlns="http://www.w3.org/2000/svg" xmlns:xlink="http://www.w3.org/1999/xlink" width="16.000000" height="16.000000" fill="none" customFrame="#000000">
	<rect id="2D 服务图标/部署" width="16.000000" height="16.000000" x="0.000000" y="0.000000" />
	<g id="部署CloudDeploy">
		<rect id="矩形" width="16.000000" height="16.000000" x="0.000000" y="0.000000" opacity="0" fill="rgb(216,216,216)" />
		<rect id="矩形" width="15.000000" height="15.000000" x="0.500000" y="0.500000" opacity="0" stroke="rgb(151,151,151)" stroke-opacity="0" stroke-width="1" />
		<g id="编组 3">
			<g id="编组">
				<path id="形状结合" d="M7.58501 1.00061C5.7497 1.01244 4.16865 2.01111 3.40962 3.52602C3.34133 3.53478 3.28065 4.54514 3.21363 4.55708C1.35566 4.88787 0.000244141 6.42389 0.000244141 8.31296C0.000244141 10.239 1.4615 11.8415 3.3324 12.0716C3.47357 12.0889 3.61105 12.0985 3.75557 12.0998C3.80181 11.8838 3.92047 11.6841 4.10094 11.5395L4.12554 11.5204L4.14847 11.5036L4.58524 11.0609L4.58439 10.9787L4.58524 10.8962L4.14825 10.4534L4.12719 10.4382C3.75026 10.1565 3.62305 9.64196 3.83588 9.21717L3.85057 9.18898L3.86529 9.16279L4.48798 8.08564C4.73439 7.66211 5.24906 7.48968 5.69298 7.66146L5.72122 7.67289L5.74632 7.68391L6.35341 7.83937L6.3954 7.81416L6.4298 7.79414L6.46437 7.77451L6.50047 7.75472L6.66717 7.15659L6.66952 7.13416C6.7251 6.66631 7.11115 6.29953 7.58681 6.2712L7.61665 6.26988L7.64611 6.26944L8.89664 6.26944C9.38914 6.26944 9.79868 6.63206 9.86934 7.10506L9.87324 7.13416L9.87545 7.15648L10.042 7.75256L10.0805 7.77357L10.115 7.79318L10.1494 7.81317L10.1892 7.83722L10.7965 7.68176L10.8235 7.67006C11.2544 7.48961 11.7593 7.63788 12.0222 8.03126L12.0394 8.05785L12.0551 8.08401L12.6801 9.16128C12.9252 9.58663 12.8156 10.1179 12.444 10.4156L12.4194 10.4347L12.3963 10.4515L11.9597 10.8939L11.9606 10.9764L11.9597 11.0587L12.3969 11.5009L12.4206 11.5182C12.6135 11.6632 12.74 11.8694 12.7886 12.0936C12.8978 12.092 12.9822 12.09 13.009 12.0877C14.6424 11.9474 15.8868 10.6145 15.8868 8.943C15.8868 7.41622 14.7428 6.09018 13.3014 5.83168C12.553 5.69746 12.4213 5.63965 12.3642 5.61462C12.3424 5.60504 12.3315 5.60026 12.3012 5.59784C12.3012 3.52602 10.7958 0.979927 7.58501 1.00061Z" fill="rgb(181,245,236)" fill-rule="evenodd" />
			</g>
			<path id="形状结合" d="M7.65193 7.29102L7.63209 7.29154C7.44147 7.30155 7.28799 7.45489 7.27797 7.64535L7.27745 7.66518L7.05195 8.47789L6.98971 8.50697C6.8661 8.56669 6.74773 8.63568 6.63545 8.71181L6.57981 8.75047L5.76239 8.54025L5.74431 8.53044C5.6957 8.50575 5.644 8.49274 5.5925 8.49049L5.5732 8.49014C5.45228 8.49113 5.33479 8.55098 5.26375 8.65752L5.25099 8.67805L4.69127 9.65068L4.68146 9.66874C4.59496 9.83873 4.65173 10.0466 4.81166 10.1509L4.82919 10.1616L5.42011 10.7631L5.41425 10.83C5.40929 10.8975 5.40703 10.9663 5.40703 11.0357C5.40703 11.1043 5.40929 11.1724 5.41425 11.2404L5.42011 11.3083L4.82919 11.9098L4.81166 11.9205C4.6518 12.0248 4.59588 12.2327 4.68155 12.4027L4.69127 12.4207L5.253 13.3933L5.26378 13.4109C5.3346 13.5192 5.45316 13.5798 5.57522 13.5808L5.59451 13.5805C5.64417 13.5783 5.69402 13.5662 5.7411 13.5434L5.7644 13.5311L6.58183 13.3209L6.63779 13.3599C6.75064 13.4364 6.86901 13.5049 6.99206 13.5645L7.05396 13.5935L7.27946 14.4062L7.27998 14.426C7.29 14.6165 7.44348 14.7698 7.6341 14.7799L7.65395 14.7804L8.77841 14.7804L8.79826 14.7799C8.98888 14.7698 9.14236 14.6165 9.15238 14.426L9.1529 14.4062L9.3784 13.5935L9.44064 13.5644C9.56425 13.5047 9.68262 13.4357 9.7949 13.3596L9.85053 13.3209L10.667 13.5311L10.685 13.541C10.7397 13.5687 10.7983 13.5817 10.8561 13.5812L10.8754 13.5806C10.9898 13.5738 11.099 13.5144 11.1663 13.4129L11.1784 13.3933L11.7401 12.4207L11.7498 12.4026C11.8355 12.2316 11.7805 12.0229 11.6207 11.9185L11.6032 11.9077L11.0112 11.3063L11.0171 11.2393C11.0221 11.1719 11.0243 11.1031 11.0243 11.0337C11.0243 10.9643 11.0221 10.8966 11.0171 10.8289L11.0112 10.7611L11.6022 10.1596L11.6197 10.1489C11.7796 10.0446 11.8355 9.83671 11.7498 9.66673L11.7401 9.64867L11.1784 8.67603L11.1676 8.65852C11.1005 8.55584 10.9905 8.49608 10.8754 8.48923L10.8561 8.48858C10.7999 8.48812 10.743 8.5003 10.6896 8.52626L10.667 8.53824L9.84953 8.74845L9.79357 8.70951C9.68071 8.63297 9.56234 8.56449 9.4393 8.50492L9.37739 8.47588L9.15189 7.66518L9.15137 7.64535C9.14135 7.45489 8.98788 7.30155 8.79726 7.29154L8.77741 7.29102L7.65193 7.29102ZM9.54198 11.0355C9.54198 10.3272 8.97043 9.75303 8.26539 9.75303C7.56034 9.75303 6.98879 10.3272 6.98879 11.0355C6.98879 11.7437 7.56034 12.3179 8.26539 12.3179C8.97043 12.3179 9.54198 11.7437 9.54198 11.0355Z" fill="rgb(19,194,194)" fill-rule="evenodd" />
		</g>
	</g>
</svg>
