<svg viewBox="0 0 16 16" xmlns="http://www.w3.org/2000/svg" xmlns:xlink="http://www.w3.org/1999/xlink" width="16.000000" height="16.000000" fill="none">
	<rect id="2D 服务图标/开源备案 Wiki" width="16.000000" height="16.000000" x="0.000000" y="0.000000" />
	<g id="资源库">
		<g id="服务图标">
			<g id="icon-icon-wiki-2d">
				<rect id="矩形" width="16.000000" height="16.000000" x="0.000000" y="0.000000" opacity="0" fill="rgb(216,216,216)" />
				<rect id="矩形" width="16.000000" height="16.000000" x="0.000000" y="0.000000" opacity="0" stroke="rgb(0,0,0)" stroke-opacity="0" stroke-width="1" />
				<path id="形状结合" d="M12 1C12.5523 1 13 1.44772 13 2L13 7.478L8.7866 11.7379C8.5897 11.9369 8.45501 12.1888 8.39892 12.463L8.02952 14.2688C7.97783 14.5215 7.9957 14.7722 8.07001 15.0012L1 15C0.447715 15 6.76354e-17 14.5523 7.66315e-33 14L7.66315e-33 2C-6.76354e-17 1.44772 0.447715 1 1 1L12 1ZM9.472 12.52L9.11035 14.4215C9.06896 14.6385 9.21132 14.8479 9.42832 14.8893C9.47793 14.8988 9.52887 14.8988 9.57847 14.8893L11.3705 14.5462C11.4546 14.5301 11.5313 14.4875 11.5894 14.4246L13 12.894L13 13.089L11.5894 14.4246C11.5494 14.4649 11.4227 14.5253 11.3705 14.5462L9.42832 14.8893C9.233 14.8494 9.03156 14.7498 9.03156 14.5581L9.11035 14.4215L9.4094 12.6693C9.42008 12.6171 9.44274 12.564 9.472 12.52Z" fill="rgb(225,219,255)" fill-rule="evenodd" />
				<path id="形状结合" d="M13 2L13 7.478L8.7866 11.7379C8.5897 11.9369 8.45501 12.1888 8.39892 12.463L8.02952 14.2688C7.97783 14.5215 7.9957 14.7722 8.07001 15.0012L1 15C0.447715 15 6.76354e-17 14.5523 7.66315e-33 14L7.66315e-33 2C-6.76354e-17 1.44772 0.447715 1 1 1L12 1C12.5523 1 13 1.44772 13 2ZM9.11035 14.4215L9.4094 12.6693C9.42008 12.6171 9.44274 12.564 9.472 12.52L9.11035 14.4215C9.06896 14.6385 9.21132 14.8479 9.42832 14.8893C9.47793 14.8988 9.52887 14.8988 9.57847 14.8893L11.3705 14.5462C11.4546 14.5301 11.5313 14.4875 11.5894 14.4246L13 12.894L13 13.089L11.5894 14.4246M11.5894 14.4246C11.5494 14.4649 11.4227 14.5253 11.3705 14.5462M11.3705 14.5462L9.42832 14.8893M9.42832 14.8893C9.233 14.8494 9.03156 14.7498 9.03156 14.5581L9.11035 14.4215" fill-rule="evenodd" stroke="rgb(0,0,0)" stroke-opacity="0" stroke-width="1" />
				<g id="编组-16">
					<rect id="矩形" width="9.000000" height="1.500000" x="2.000000" y="3.500000" rx="0.750000" fill="rgb(167,164,254)" />
					<rect id="矩形" width="9.000000" height="1.500000" x="2.000000" y="3.500000" rx="0.750000" stroke="rgb(0,0,0)" stroke-opacity="0" stroke-width="1" />
					<rect id="矩形备份" width="9.000000" height="1.500000" x="2.000000" y="7.000000" rx="0.750000" fill="rgb(167,164,254)" />
					<rect id="矩形备份" width="9.000000" height="1.500000" x="2.000000" y="7.000000" rx="0.750000" stroke="rgb(0,0,0)" stroke-opacity="0" stroke-width="1" />
					<path id="矩形备份-2" d="M2.75 10.5L5.25 10.5C5.66421 10.5 6 10.8358 6 11.25C6 11.6642 5.66421 12 5.25 12L2.75 12C2.33579 12 2 11.6642 2 11.25C2 10.8358 2.33579 10.5 2.75 10.5Z" fill="rgb(167,164,254)" fill-rule="evenodd" />
					<path id="矩形备份-2" d="M5.25 10.5C5.66421 10.5 6 10.8358 6 11.25C6 11.6642 5.66421 12 5.25 12L2.75 12C2.33579 12 2 11.6642 2 11.25C2 10.8358 2.33579 10.5 2.75 10.5L5.25 10.5Z" fill-rule="evenodd" stroke="rgb(0,0,0)" stroke-opacity="0" stroke-width="1" />
				</g>
				<path id="路径" d="M11.5892 14.4631L15.3012 10.7071C15.6878 10.316 15.686 9.68601 15.2971 9.29711L14.7113 8.71135C14.3208 8.32083 13.6876 8.32083 13.2971 8.71135L9.58361 12.4688C9.52906 12.524 9.49175 12.5939 9.47621 12.6699L9.11804 14.4225C9.07381 14.639 9.21341 14.8503 9.42985 14.8945C9.47943 14.9047 9.53048 14.9053 9.58029 14.8964L11.3751 14.5757C11.4564 14.5612 11.5312 14.5219 11.5892 14.4631Z" fill="rgb(81,79,198)" fill-rule="evenodd" />
				<path id="路径" d="M15.3012 10.7071C15.6878 10.316 15.686 9.68601 15.2971 9.29711L14.7113 8.71135C14.3208 8.32083 13.6876 8.32083 13.2971 8.71135L9.58361 12.4688C9.52906 12.524 9.49175 12.5939 9.47621 12.6699L9.11804 14.4225C9.07381 14.639 9.21341 14.8503 9.42985 14.8945C9.47943 14.9047 9.53048 14.9053 9.58029 14.8964L11.3751 14.5757C11.4564 14.5612 11.5312 14.5219 11.5892 14.4631L15.3012 10.7071Z" fill-rule="evenodd" stroke="rgb(0,0,0)" stroke-opacity="0" stroke-width="1" />
			</g>
		</g>
	</g>
</svg>
