<svg viewBox="0 0 16 16" xmlns="http://www.w3.org/2000/svg" xmlns:xlink="http://www.w3.org/1999/xlink" width="16.000000" height="16.000000" fill="none">
	<mask id="mask_4" width="16.000000" height="16.000000" x="0.000000" y="0.000000" maskUnits="userSpaceOnUse">
		<g filter="url(#pixso_custom_mask_type_alpha)">
			<g id="mask-2">
				<g id="use">
					<rect id="path-1" width="16.000000" height="16.000000" x="0.000000" y="0.000000" fill="rgb(255,255,255)" />
					<rect id="path-1" width="16.000000" height="16.000000" x="0.000000" y="0.000000" stroke="rgb(0,0,0)" stroke-opacity="0" stroke-width="1" />
				</g>
			</g>
		</g>
	</mask>
	<defs>
		<filter id="pixso_custom_mask_type_alpha">
			<feColorMatrix type="matrix" values="0 0 0 0 1 0 0 0 0 1 0 0 0 0 1 0 0 0 1 0 " />
		</filter>
	</defs>
	<mask id="mask_3" width="16.000000" height="16.000000" x="0.000000" y="0.000000" maskUnits="userSpaceOnUse">
		<g filter="url(#pixso_custom_mask_type_alpha)">
			<g id="mask-2">
				<g id="use">
					<rect id="path-1" width="16.000000" height="16.000000" x="0.000000" y="0.000000" fill="rgb(255,255,255)" />
					<rect id="path-1" width="16.000000" height="16.000000" x="0.000000" y="0.000000" stroke="rgb(0,0,0)" stroke-opacity="0" stroke-width="1" />
				</g>
			</g>
		</g>
	</mask>
	<rect id="2D 服务图标/开源查询 OpenSourceSearch" width="16.000000" height="16.000000" x="0.000000" y="0.000000" />
	<g id="资源库">
		<g id="服务图标">
			<g id="icon-icon-open-source-search">
				<g id="矩形" opacity="0">
					<rect id="path-1" width="16.000000" height="16.000000" x="0.000000" y="0.000000" fill="rgb(216,216,216)" />
					<rect id="path-1" width="16.000000" height="16.000000" x="0.000000" y="0.000000" stroke="rgb(0,0,0)" stroke-opacity="0" stroke-width="1" />
				</g>
				<g id="mask" mask="url(#mask_3)">
					<g id="编组-18">
						<g id="形状结合">
							<path id="path" d="M8 1C11.866 1 15 4.13401 15 8C15 8.43084 14.9611 8.8526 14.8866 9.26194C13.3245 7.69984 10.82 7.72648 9.25787 9.28858C7.71215 10.8343 7.69594 13.3303 9.20926 14.896C8.81678 14.9643 8.41256 15 8 15C4.13401 15 1 11.866 1 8C1 4.13401 4.13401 1 8 1ZM12.7934 11.4099C13.1839 11.8004 13.1839 12.4336 12.7934 12.8241C12.4029 13.2146 11.7697 13.2146 11.3792 12.8241C10.9887 12.4336 10.9887 11.8004 11.3792 11.4099C11.7697 11.0194 12.4029 11.0194 12.7934 11.4099Z" fill="rgb(225,219,255)" fill-rule="evenodd" />
							<path id="path" d="M15 8C15 8.43084 14.9611 8.8526 14.8866 9.26194C13.3245 7.69984 10.82 7.72648 9.25787 9.28858C7.71215 10.8343 7.69594 13.3303 9.20926 14.896C8.81678 14.9643 8.41256 15 8 15C4.13401 15 1 11.866 1 8C1 4.13401 4.13401 1 8 1C11.866 1 15 4.13401 15 8ZM12.7934 12.8241C12.4029 13.2146 11.7697 13.2146 11.3792 12.8241C10.9887 12.4336 10.9887 11.8004 11.3792 11.4099C11.7697 11.0194 12.4029 11.0194 12.7934 11.4099C13.1839 11.8004 13.1839 12.4336 12.7934 12.8241Z" fill-rule="evenodd" stroke="rgb(0,0,0)" stroke-opacity="0" stroke-width="1" />
							<path id="path" d="M8 1C11.866 1 15 4.13401 15 8C15 8.43084 14.9611 8.8526 14.8866 9.26194C14.6006 8.97597 14.3103 8.769 13.9712 8.58774C13.9903 8.39509 14 8.19867 14 8C14 4.68629 11.3137 2 8 2C4.68629 2 2 4.68629 2 8C2 11.3137 4.68629 14 8 14C8.18368 14 8.36543 13.9917 8.5449 13.9756C8.71569 14.3046 8.93788 14.6152 9.20926 14.896C8.81678 14.9643 8.41256 15 8 15C4.13401 15 1 11.866 1 8C1 4.13401 4.13401 1 8 1ZM12.8733 11.5009C13.2638 11.8914 13.1839 12.4336 12.7934 12.8241C12.43 13.1875 11.8566 13.2127 11.464 12.8999C12.0079 12.5143 12.4844 12.0413 12.8733 11.5009Z" fill="rgb(167,164,254)" fill-rule="nonzero" />
							<path id="path" d="M15 8C15 8.43084 14.9611 8.8526 14.8866 9.26194C14.6006 8.97597 14.3103 8.769 13.9712 8.58774C13.9903 8.39509 14 8.19867 14 8C14 4.68629 11.3137 2 8 2C4.68629 2 2 4.68629 2 8C2 11.3137 4.68629 14 8 14C8.18368 14 8.36543 13.9917 8.5449 13.9756C8.71569 14.3046 8.93788 14.6152 9.20926 14.896C8.81678 14.9643 8.41256 15 8 15C4.13401 15 1 11.866 1 8C1 4.13401 4.13401 1 8 1C11.866 1 15 4.13401 15 8ZM12.7934 12.8241C12.43 13.1875 11.8566 13.2127 11.464 12.8999C12.0079 12.5143 12.4844 12.0413 12.8733 11.5009C13.2638 11.8914 13.1839 12.4336 12.7934 12.8241Z" fill-rule="nonzero" stroke="rgb(0,0,0)" stroke-opacity="0" stroke-width="1" />
							<path id="path" d="M14.5 7.5C14.7761 7.5 15 7.72386 15 8C15 8.27614 14.7761 8.5 14.5 8.5L13.7949 8.49909C12.7161 7.98965 11.4565 7.98965 10.3777 8.49909L1.5 8.5C1.22386 8.5 1 8.27614 1 8C1 7.72386 1.22386 7.5 1.5 7.5L14.5 7.5Z" fill="rgb(167,164,254)" fill-rule="evenodd" />
							<path id="path" d="M15 8C15 8.27614 14.7761 8.5 14.5 8.5L13.7949 8.49909C12.7161 7.98965 11.4565 7.98965 10.3777 8.49909L1.5 8.5C1.22386 8.5 1 8.27614 1 8C1 7.72386 1.22386 7.5 1.5 7.5L14.5 7.5C14.7761 7.5 15 7.72386 15 8Z" fill-rule="evenodd" stroke="rgb(0,0,0)" stroke-opacity="0" stroke-width="1" />
							<path id="path" d="M8 1C9.24264 1 10.3088 2.76288 10.7642 5.27528L10.8402 5.74012L10.9022 6.22012C10.966 6.78844 11 7.38496 11 8L10.9962 8.26765C10.6433 8.36724 10.3014 8.51622 9.98139 8.71457C9.99412 8.48151 10 8.24252 10 8C10 7.12529 9.92354 6.29645 9.79572 5.54747L9.71306 5.10794C9.59517 4.5354 9.44762 4.01831 9.28327 3.57409L9.15705 3.25486C8.79165 2.39061 8.36485 1.875 8 1.875C7.63515 1.875 7.20836 2.39061 6.84295 3.25486L6.71673 3.57409C6.55238 4.01831 6.40483 4.5354 6.28694 5.10794L6.20428 5.54747C6.07646 6.29645 6 7.12529 6 8C6 8.87471 6.07646 9.70355 6.20428 10.4525L6.28694 10.8921C6.40483 11.4646 6.55238 11.9817 6.71673 12.4259L6.84295 12.7451C7.20836 13.6094 7.63515 14.125 8 14.125C8.15422 14.125 8.31951 14.0329 8.48654 13.8612C8.61528 14.1293 8.77661 14.3855 8.96954 14.6247C8.66649 14.8681 8.33984 15 8 15C6.75736 15 5.69118 13.2371 5.23575 10.7247L5.15978 10.2599L5.09784 9.77988C5.03399 9.21156 5 8.61505 5 8C5 7.38496 5.03399 6.78844 5.09784 6.22012L5.15978 5.74012L5.23575 5.27528C5.69118 2.76288 6.75736 1 8 1Z" fill="rgb(167,164,254)" fill-rule="nonzero" />
							<path id="path" d="M10.7642 5.27528L10.8402 5.74012L10.9022 6.22012C10.966 6.78844 11 7.38496 11 8L10.9962 8.26765C10.6433 8.36724 10.3014 8.51622 9.98139 8.71457C9.99412 8.48151 10 8.24252 10 8C10 7.12529 9.92354 6.29645 9.79572 5.54747L9.71306 5.10794C9.59517 4.5354 9.44762 4.01831 9.28327 3.57409L9.15705 3.25486C8.79165 2.39061 8.36485 1.875 8 1.875C7.63515 1.875 7.20836 2.39061 6.84295 3.25486L6.71673 3.57409C6.55238 4.01831 6.40483 4.5354 6.28694 5.10794L6.20428 5.54747C6.07646 6.29645 6 7.12529 6 8C6 8.87471 6.07646 9.70355 6.20428 10.4525L6.28694 10.8921C6.40483 11.4646 6.55238 11.9817 6.71673 12.4259L6.84295 12.7451C7.20836 13.6094 7.63515 14.125 8 14.125C8.15422 14.125 8.31951 14.0329 8.48654 13.8612C8.61528 14.1293 8.77661 14.3855 8.96954 14.6247C8.66649 14.8681 8.33984 15 8 15C6.75736 15 5.69118 13.2371 5.23575 10.7247L5.15978 10.2599L5.09784 9.77988C5.03399 9.21156 5 8.61505 5 8C5 7.38496 5.03399 6.78844 5.09784 6.22012L5.15978 5.74012L5.23575 5.27528C5.69118 2.76288 6.75736 1 8 1C9.24264 1 10.3088 2.76288 10.7642 5.27528Z" fill-rule="nonzero" stroke="rgb(0,0,0)" stroke-opacity="0" stroke-width="1" />
						</g>
					</g>
				</g>
				<g id="mask" mask="url(#mask_4)">
					<g id="编组">
						<g id="g">
							<path id="椭圆形" d="M2.5 5C3.88071 5 5 3.88071 5 2.5C5 1.11929 3.88071 0 2.5 0C1.11929 0 0 1.11929 0 2.5C0 3.88071 1.11929 5 2.5 5Z" fill="rgb(225,219,255)" fill-rule="evenodd" transform="matrix(0.707107,-0.707107,0.707107,0.707107,8.54932,12.1172)" />
							<path id="椭圆形" d="M5 2.5C5 1.11929 3.88071 0 2.5 0C1.11929 0 0 1.11929 0 2.5C0 3.88071 1.11929 5 2.5 5C3.88071 5 5 3.88071 5 2.5Z" fill-rule="evenodd" stroke="rgb(81,79,198)" stroke-width="0.99999994" transform="matrix(0.707107,-0.707107,0.707107,0.707107,8.54932,12.1172)" />
							<line id="直线" x1="0" x2="1.51759338" y1="0" y2="0" stroke="rgb(81,79,198)" stroke-linecap="round" stroke-linejoin="round" stroke-width="0.99999994" transform="matrix(0.719346,0.694652,-0.694652,0.719346,14.2114,14.2388)" />
						</g>
					</g>
				</g>
			</g>
		</g>
	</g>
</svg>
