<svg viewBox="0 0 16 16" xmlns="http://www.w3.org/2000/svg" xmlns:xlink="http://www.w3.org/1999/xlink" width="16.000000" height="16.000000" fill="none" customFrame="#000000">
	<rect id="2D 服务图标/流水线2" width="16.000000" height="16.000000" x="0.000000" y="0.000000" />
	<g id="CloudPipeline-流水线">
		<rect id="矩形" width="16.000000" height="16.000000" x="0.000000" y="0.000000" opacity="0" fill="rgb(216,216,216)" />
		<rect id="矩形" width="15.000000" height="15.000000" x="0.500000" y="0.500000" opacity="0" stroke="rgb(151,151,151)" stroke-opacity="0" stroke-width="1" />
		<g id="编组 6">
			<g id="编组">
				<path id="路径" d="M0.676391 0L0.676391 2.35309L9.50276 2.35206L9.68312 2.35886C10.0819 2.3989 10.4219 2.73868 10.4643 3.16826L10.4679 3.33734L10.4639 3.86941C10.4221 4.29494 10.0824 4.63494 9.65278 4.6773L9.5454 4.68057L3.34711 4.68239L3.11134 4.68778L2.92639 4.69917C2.89828 4.70168 2.87116 4.70452 2.84444 4.70774L2.68457 4.73185C1.34162 4.97159 0.290428 6.02278 0.0507069 7.36564L0.0357147 7.45741L0.014977 7.64432C0.0124253 7.67754 0.010285 7.71236 0.00849461 7.74963L0.00146098 8.00932L0 8.61343C0.000865228 8.90867 0.00950162 9.02426 0.0506923 9.25522C0.290303 10.5979 1.34106 11.649 2.68357 11.8891L2.77565 11.9041L2.96299 11.9248C2.99626 11.9274 3.03112 11.9295 3.06842 11.9313L3.32822 11.9383L12.492 11.9399L12.492 9.58691L3.27398 9.5842L3.09857 9.57314C2.76313 9.51318 2.49321 9.27081 2.394 8.95117L2.35607 8.77825L2.35337 8.62511L2.35444 8.03811L2.36042 7.84275L2.36742 7.77896C2.43404 7.40625 2.72586 7.11443 3.09866 7.04779L3.16249 7.0408L3.35938 7.03482L9.60714 7.03213L9.8006 7.02479C9.82936 7.02284 9.85711 7.02048 9.88494 7.01763C11.4292 6.86544 12.6524 5.64223 12.8048 4.09614L12.8149 3.95647L12.8201 3.66982L12.8189 3.21573L12.8117 3.02301C12.8098 2.99425 12.8076 2.96652 12.8049 2.9389C12.6585 1.45371 11.5254 0.266997 10.067 0.0396256L9.82572 0.0109364L9.63703 0.00198311L9.33899 0L0.676391 0Z" fill="rgb(181,245,236)" fill-rule="evenodd" transform="matrix(1,0,0,-1,0.882324,13.8965)" />
				<path id="路径" d="M1.94456e-15 4.44444L3.55556 2.22177L0 0L1.94456e-15 4.44444Z" fill="rgb(92,219,211)" fill-rule="evenodd" transform="matrix(1,0,0,-1,12.439,5.44434)" />
				<path id="路径" d="M0 2.66667C1.80361e-16 4.13943 1.19391 5.33333 2.66667 5.33333C4.13943 5.33333 5.33333 4.13943 5.33333 2.66667C5.33333 1.19391 4.13943 0 2.66667 0C1.19391 0 1.80361e-16 1.19391 0 2.66667Z" fill="rgb(92,219,211)" fill-rule="evenodd" transform="matrix(1,0,0,-1,0,15.3423)" />
			</g>
			<path id="椭圆形" d="M2 4C3.10457 4 4 3.10457 4 2C4 0.895431 3.10457 0 2 0C0.895431 0 0 0.895431 0 2C0 3.10457 0.895431 4 2 4Z" fill="rgb(255,255,255)" fill-opacity="0" fill-rule="evenodd" transform="matrix(1,0,0,-1,7.98096,12.2969)" />
			<path id="椭圆形" d="M4 2C4 3.10457 3.10457 4 2 4C0.895431 4 0 3.10457 0 2C0 0.895431 0.895431 0 2 0C3.10457 0 4 0.895431 4 2ZM3.08017 1.7371Q3.11111 1.8648 3.11111 2Q3.11111 2.1352 3.08017 2.2629Q3.05924 2.34928 3.02416 2.43222Q2.98669 2.5208 2.9354 2.60048Q2.87133 2.70002 2.78567 2.78567Q2.70002 2.87133 2.60047 2.93541Q2.5208 2.9867 2.43222 3.02416Q2.34928 3.05924 2.2629 3.08017Q2.1352 3.11111 2 3.11111Q1.8648 3.11111 1.7371 3.08017Q1.65072 3.05924 1.56778 3.02416Q1.4792 2.9867 1.39953 2.93541Q1.29998 2.87133 1.21433 2.78567Q1.12866 2.70001 1.06458 2.60046Q1.0133 2.52079 0.975841 2.43222Q0.940759 2.34928 0.919832 2.26291Q0.888889 2.1352 0.888889 2Q0.888889 1.86479 0.919833 1.73708Q0.940761 1.65072 0.97584 1.56778Q1.0133 1.47921 1.06458 1.39954Q1.12866 1.29999 1.21433 1.21433Q1.29999 1.12866 1.39954 1.06458Q1.47921 1.0133 1.56778 0.975841Q1.65072 0.940759 1.73709 0.919831Q1.8648 0.888889 2 0.888889Q2.1352 0.888889 2.26291 0.919832Q2.34928 0.94076 2.43222 0.97584Q2.52079 1.0133 2.60046 1.06459Q2.70001 1.12867 2.78567 1.21433Q2.87133 1.29998 2.93541 1.39953Q2.9867 1.47921 3.02416 1.56778Q3.05924 1.65072 3.08017 1.7371Z" fill="rgb(19,194,194)" fill-rule="evenodd" transform="matrix(1,0,0,-1,7.98096,12.2969)" />
			<path id="椭圆形备份" d="M2 4C3.10457 4 4 3.10457 4 2C4 0.895431 3.10457 0 2 0C0.895431 0 0 0.895431 0 2C0 3.10457 0.895431 4 2 4Z" fill="rgb(255,255,255)" fill-opacity="0" fill-rule="evenodd" transform="matrix(1,0,0,-1,2.7793,7.34961)" />
			<path id="椭圆形备份" d="M4 2C4 3.10457 3.10457 4 2 4C0.895431 4 0 3.10457 0 2C0 0.895431 0.895431 0 2 0C3.10457 0 4 0.895431 4 2ZM3.08017 1.7371Q3.11111 1.8648 3.11111 2Q3.11111 2.1352 3.08017 2.2629Q3.05924 2.34928 3.02416 2.43222Q2.98669 2.5208 2.9354 2.60048Q2.87133 2.70002 2.78567 2.78567Q2.70002 2.87133 2.60047 2.93541Q2.5208 2.9867 2.43222 3.02416Q2.34928 3.05924 2.2629 3.08017Q2.1352 3.11111 2 3.11111Q1.8648 3.11111 1.7371 3.08017Q1.65072 3.05924 1.56778 3.02416Q1.4792 2.9867 1.39953 2.93541Q1.29998 2.87133 1.21433 2.78567Q1.12866 2.70001 1.06458 2.60046Q1.0133 2.52079 0.975841 2.43222Q0.940759 2.34928 0.919832 2.26291Q0.888889 2.1352 0.888889 2Q0.888889 1.86479 0.919833 1.73708Q0.940761 1.65072 0.97584 1.56778Q1.0133 1.47921 1.06458 1.39954Q1.12866 1.29999 1.21433 1.21433Q1.29999 1.12866 1.39954 1.06458Q1.47921 1.0133 1.56778 0.975841Q1.65072 0.940759 1.73709 0.919831Q1.8648 0.888889 2 0.888889Q2.1352 0.888889 2.26291 0.919832Q2.34928 0.94076 2.43222 0.97584Q2.52079 1.0133 2.60046 1.06459Q2.70001 1.12867 2.78567 1.21433Q2.87133 1.29998 2.93541 1.39953Q2.9867 1.47921 3.02416 1.56778Q3.05924 1.65072 3.08017 1.7371Z" fill="rgb(19,194,194)" fill-rule="evenodd" transform="matrix(1,0,0,-1,2.7793,7.34961)" />
		</g>
	</g>
</svg>
