<svg viewBox="0 0 16 16" xmlns="http://www.w3.org/2000/svg" xmlns:xlink="http://www.w3.org/1999/xlink" width="16.000000" height="16.000000" fill="none" customFrame="#000000">
	<rect id="2D 服务图标/私有托管 仓库" width="16.000000" height="16.000000" x="0.000000" y="0.000000" />
	<g id="私有托管仓库">
		<path id="矩形备份 46" d="M0.947657 4.36364L6.94766 0.651137C7.59249 0.252146 8.40751 0.252146 9.05234 0.651137L15.0523 4.36364C15.6415 4.72816 16 5.37161 16 6.06439L16 14C16 15.1046 15.1046 16 14 16L2 16C0.89543 16 0 15.1046 0 14L0 6.06439C0 5.37161 0.358526 4.72816 0.947657 4.36364Z" fill="rgb(255,231,186)" fill-rule="evenodd" />
		<path id="矩形备份 46" d="M6.94766 0.651137L0.947657 4.36364C0.358526 4.72816 0 5.37161 0 6.06439L0 14C0 15.1046 0.89543 16 2 16L14 16C15.1046 16 16 15.1046 16 14L16 6.06439C16 5.37161 15.6415 4.72816 15.0523 4.36364L9.05234 0.651137C8.40751 0.252146 7.59249 0.252146 6.94766 0.651137ZM1.47383 5.21402L7.47383 1.50152Q7.59473 1.42671 7.72628 1.3893Q7.85782 1.35189 8 1.35189Q8.14218 1.35189 8.27372 1.3893Q8.40527 1.42671 8.52617 1.50152L14.5262 5.21402Q14.6366 5.28236 14.7235 5.37326Q14.8103 5.46418 14.8735 5.57766Q14.9368 5.69113 14.9684 5.81282Q15 5.9345 15 6.06439L15 14Q15 14.1239 14.9712 14.2408Q14.9525 14.3163 14.9218 14.3889Q14.8886 14.4675 14.8432 14.5384Q14.7851 14.6291 14.7071 14.7071Q14.6291 14.7851 14.5383 14.8433Q14.4675 14.8886 14.3889 14.9218Q14.3164 14.9525 14.2408 14.9712Q14.124 15 14 15L2 15Q1.87606 15 1.75923 14.9712Q1.68366 14.9525 1.61106 14.9218Q1.53246 14.8886 1.46162 14.8432Q1.37089 14.7851 1.29289 14.7071Q1.2149 14.6291 1.1568 14.5384Q1.11142 14.4675 1.07817 14.3889Q1.04747 14.3164 1.02883 14.2408Q1 14.124 1 14L1 6.06439Q1 5.9345 1.03161 5.81281Q1.06323 5.69113 1.12645 5.57766Q1.18968 5.46418 1.27652 5.37327Q1.36337 5.28236 1.47383 5.21402Z" fill="rgb(151,151,151)" fill-opacity="0" fill-rule="evenodd" />
		<g id="编组 2">
			<rect id="矩形" width="10.000000" height="3.000000" x="3.000000" y="6.000000" rx="1.000000" fill="rgb(216,216,216)" fill-opacity="0" />
			<rect id="矩形" width="10.000000" height="3.000000" x="3.000000" y="6.000000" rx="1.000000" stroke="rgb(255,192,105)" stroke-width="1" />
			<rect id="矩形备份 44" width="10.000000" height="3.000000" x="3.000000" y="6.000000" rx="1.000000" fill="rgb(255,192,105)" />
			<rect id="矩形备份 44" width="9.000000" height="2.000000" x="3.500000" y="6.500000" rx="0.500000" stroke="rgb(19,194,194)" stroke-opacity="0" stroke-width="1" />
			<rect id="矩形" width="2.500000" height="1.000000" x="9.500000" y="7.000000" rx="0.500000" fill="rgb(255,231,186)" />
			<rect id="矩形" width="1.500000" height="0.000000" x="10.000000" y="7.500000" rx="0.000000" stroke="rgb(151,151,151)" stroke-opacity="0" stroke-width="1" />
		</g>
		<g id="编组">
			<path id="形状结合" d="M12.9779 10.7404C13.2317 10.4866 13.6433 10.4866 13.8971 10.7404C14.151 10.9943 14.151 11.4058 13.8971 11.6597L12.5897 12.9671L12.5918 12.9744L11.6844 13.873C11.3099 14.2439 10.8041 14.452 10.277 14.452L5.6998 14.452C5.34082 14.452 5.0498 14.161 5.0498 13.802L5.0498 13.102C5.0498 12.0701 5.83127 11.2208 6.83467 11.1134C6.87204 11.1068 6.91052 11.1033 6.94981 11.1033L6.97787 11.1033C7.00175 11.1024 7.02573 11.102 7.0498 11.102L9.0998 11.102L9.10038 11.1033L9.64981 11.1033C10.0088 11.1033 10.2998 11.3943 10.2998 11.7533C10.2998 12.0985 10.0306 12.3809 9.69072 12.402L9.69085 12.4023L9.68574 12.4023C9.67385 12.4029 9.66187 12.4033 9.64981 12.4033L7.47533 12.4033C7.32105 12.4157 7.19971 12.5448 7.19971 12.7023C7.19971 12.868 7.33402 13.0023 7.49971 13.0023L10.3157 13.0023C10.4515 13.0139 10.5921 12.98 10.7151 12.8929C10.848 12.7987 10.9835 12.698 11.0998 12.602C11.1352 12.5728 11.1723 12.5412 11.2105 12.5078L12.9779 10.7404Z" fill="rgb(250,140,22)" fill-rule="evenodd" />
			<path id="形状结合" d="M12.9779 10.7404C13.2317 10.4866 13.6433 10.4866 13.8971 10.7404C14.024 10.8673 14.0875 11.0337 14.0875 11.2C14.0875 11.3664 14.024 11.5327 13.8971 11.6597L12.5897 12.9671L12.5918 12.9744L11.6844 13.873C11.3099 14.2439 10.8041 14.452 10.277 14.452L5.6998 14.452C5.34082 14.452 5.0498 14.161 5.0498 13.802L5.0498 13.102C5.0498 12.0701 5.83127 11.2208 6.83467 11.1134C6.87204 11.1068 6.91052 11.1033 6.94981 11.1033L6.97787 11.1033C7.00175 11.1024 7.02573 11.102 7.0498 11.102L9.0998 11.102L9.10038 11.1033L9.64981 11.1033C10.0088 11.1033 10.2998 11.3943 10.2998 11.7533C10.2998 12.0985 10.0306 12.3809 9.69072 12.402L9.69085 12.4023L9.68574 12.4023C9.67385 12.4029 9.66187 12.4033 9.64981 12.4033L7.47533 12.4033C7.32105 12.4157 7.19971 12.5448 7.19971 12.7023C7.19971 12.868 7.33402 13.0023 7.49971 13.0023L10.3157 13.0023C10.4515 13.0139 10.5921 12.98 10.7151 12.8929C10.848 12.7987 10.9835 12.698 11.0998 12.602C11.1352 12.5728 11.1723 12.5412 11.2105 12.5078L12.9779 10.7404ZM6.20723 12.5612Q6.15121 12.6466 6.11513 12.7397Q6.0498 12.9082 6.0498 13.102L6.0498 13.452L6.43736 13.452Q6.42813 13.4389 6.41923 13.4256L6.41922 13.4256Q6.35095 13.3237 6.30228 13.2086Q6.25226 13.0904 6.22664 12.9671Q6.19971 12.8375 6.19971 12.7023Q6.19971 12.631 6.20723 12.5612Z" fill="rgb(151,151,151)" fill-opacity="0" fill-rule="evenodd" />
			<rect id="矩形" width="1.800000" height="3.200000" x="2.500000" y="11.253906" rx="0.500000" fill="rgb(250,140,22)" />
			<rect id="矩形" width="0.800000" height="2.200000" x="3.000000" y="11.753906" rx="0.000000" stroke="rgb(151,151,151)" stroke-opacity="0" stroke-width="1" />
		</g>
	</g>
</svg>
