<svg viewBox="0 0 16.0002 16" xmlns="http://www.w3.org/2000/svg" xmlns:xlink="http://www.w3.org/1999/xlink" width="16.000244" height="16.000000" fill="none" customFrame="#000000">
	<rect id="2D 服务图标/发布" width="16.000000" height="16.000000" x="0.000244" y="0.000000" />
	<g id="icon icon-cloud-release-2d">
		<rect id="矩形" width="16.000000" height="16.000000" x="0.000244" y="0.000000" opacity="0" fill="rgb(216,216,216)" />
		<rect id="矩形" width="15.000000" height="15.000000" x="0.500244" y="0.500000" opacity="0" stroke="rgb(151,151,151)" stroke-opacity="0" stroke-width="1" />
		<g id="编组 13">
			<path id="路径 29" d="M11.1328 3.21387L11.1328 6.22145L8.23886 7.97645L7.6479 7.97645L4.7328 6.25289L4.7328 3.21387L1.9812 4.77715L1.9812 11.8573L7.6479 14.8283L8.23886 14.8178L13.903 11.8573L13.903 4.77715L11.1328 3.21387Z" fill="rgb(255,192,105)" fill-rule="evenodd" />
			<path id="路径 29" d="M7.6479 7.97645L4.7328 6.25289L4.7328 3.21387L3.7328 3.782L1.9812 4.77715L1.9812 11.8573L7.6479 14.8283L8.23886 14.8178L13.903 11.8573L13.903 4.77715L11.1328 3.21387L11.1328 6.22145L8.23886 7.97645L7.6479 7.97645ZM12.1328 4.92642L12.1328 6.78452L11.6513 7.0765L8.51839 8.97645L7.37439 8.97645L3.7328 6.82335L3.7328 4.93213L2.9812 5.35914L2.9812 11.2525L7.88583 13.8239L7.98501 13.8221L12.903 11.2517L12.903 5.36107L12.1328 4.92642Z" fill="rgb(151,151,151)" fill-opacity="0" fill-rule="evenodd" />
			<path id="路径 31" d="M1.98077 4.77686L0 7.66762L6.06665 11.5023L7.93235 8.16136L9.79805 11.5023L15.8509 7.66762L13.9026 4.77686L7.92547 7.84211L1.98077 4.77686Z" fill="rgb(255,231,186)" fill-rule="evenodd" />
			<path id="路径 31" d="M7.17994 7.45769L1.98077 4.77686L0.565631 6.84213L0 7.66762L0.845874 8.20229L5.2201 10.9672L6.06665 11.5023L6.55493 10.6279L7.35967 9.18686L7.5814 8.7898L7.93235 8.16136L8.2801 8.78408L8.50503 9.18686L9.30973 10.6279L9.79805 11.5023L10.6441 10.9663L15.0059 8.203L15.8509 7.66762L15.2918 6.83805L13.9026 4.77686L8.6826 7.45383L7.92547 7.84211L7.17994 7.45769ZM9.17047 8.32747L13.5693 6.0716L14.4467 7.37344L10.1558 10.0919L9.17047 8.32747ZM6.69211 8.33126L2.30686 6.07011L1.41151 7.3768L5.70839 10.0928L6.69211 8.33126Z" fill="rgb(151,151,151)" fill-opacity="0" fill-rule="evenodd" />
			<g id="编组 14">
				<path id="形状结合" d="M5.66544 2.65282L5.66504 2.6526L7.92559 1.41064L10.1862 2.6526L7.92578 3.89856L7.926 3.89868L7.926 6.60717L5.66544 5.3611L5.66544 2.65282ZM7.92618 3.89868L10.1867 2.65261L10.1867 5.3611L7.92618 6.60717L7.92618 3.89868Z" fill="rgb(250,140,22)" fill-rule="evenodd" />
				<path id="形状结合" d="M5.66544 2.65282L5.66504 2.6526L7.92559 1.41064L10.1862 2.6526L7.92578 3.89856L7.926 3.89868L7.926 6.60717L5.66544 5.3611L5.66544 2.65282ZM6.66544 3.24396L6.66544 3.45143L8.11202 2.65405L7.92559 2.55163L6.66544 3.24396ZM7.92618 3.89868L10.1867 2.65261L10.1867 5.3611L7.92618 6.60717L7.92618 3.89868ZM6.926 4.48932L6.66544 4.3457L6.66544 4.77046L6.926 4.91409L6.926 4.48932ZM8.92618 4.91409L9.18674 4.77046L9.18674 4.3457L8.92618 4.48932L8.92618 4.91409Z" fill="rgb(151,151,151)" fill-opacity="0" fill-rule="evenodd" />
			</g>
		</g>
	</g>
</svg>
