<svg viewBox="0 0 16 16" xmlns="http://www.w3.org/2000/svg" xmlns:xlink="http://www.w3.org/1999/xlink" width="16.000000" height="16.000000" fill="none" customFrame="#000000">
	<rect id="线型服务图标/Devops策略" width="16.000000" height="16.000000" x="0.000000" y="0.000000" />
	<g id="编组">
		<rect id="矩形" width="16.000000" height="16.000000" x="0.000000" y="0.000000" opacity="0" fill="rgb(216,216,216)" />
		<rect id="矩形" width="15.000000" height="15.000000" x="0.500000" y="0.500000" opacity="0" stroke="rgb(151,151,151)" stroke-opacity="0" stroke-width="1" />
		<g id="grid 2" opacity="0">
			<g id="grid">
				<g id="bg">
					<path id="Fill 1" d="M16 16L0 16L0 0L16 0L16 16ZM15.3333 15.3331L0.666667 15.3331L0.666667 0.666422L15.3333 0.666422L15.3333 15.3331Z" fill="rgb(249,249,249)" fill-opacity="0.400000006" fill-rule="evenodd" />
					<path id="Fill 2" d="M1.3335 14.6668L14.6668 14.6668L14.6668 1.3335L1.3335 1.3335L1.3335 14.6668Z" fill="rgb(247,247,247)" fill-opacity="0.400000006" fill-rule="evenodd" />
					<path id="Fill 3" d="M2 14L14 14L14 2L2 2L2 14Z" fill="rgb(236,236,236)" fill-opacity="0.101960786" fill-rule="evenodd" />
				</g>
				<g id="Group 5">
					<rect id="Rectangle 2" width="13.333333" height="13.333333" x="1.329102" y="1.329102" rx="2.000000" opacity="0.800000012" fill="rgb(216,216,216)" fill-opacity="0" />
					<rect id="Rectangle 2" width="12.833333" height="12.833333" x="1.579102" y="1.579102" rx="1.750000" opacity="0.800000012" stroke="rgb(255,0,84)" stroke-width="0.5" />
					<rect id="Rectangle 2" width="8.000000" height="8.000000" x="3.998047" y="3.998047" opacity="0.800000012" fill="rgb(216,216,216)" fill-opacity="0" />
					<rect id="Rectangle 2" width="7.500000" height="7.500000" x="4.248047" y="4.248047" opacity="0.800000012" stroke="rgb(255,0,84)" stroke-width="0.5" />
					<rect id="Rectangle 2" width="12.000000" height="14.666667" x="1.993652" y="0.664551" rx="2.000000" opacity="0.800000012" fill="rgb(216,216,216)" fill-opacity="0" />
					<rect id="Rectangle 2" width="11.500000" height="14.166667" x="2.243652" y="0.914551" rx="1.750000" opacity="0.800000012" stroke="rgb(255,0,84)" stroke-width="0.5" />
					<rect id="Rectangle 2" width="14.666667" height="12.000000" x="0.664551" y="1.993652" rx="2.000000" opacity="0.800000012" fill="rgb(216,216,216)" fill-opacity="0" />
					<rect id="Rectangle 2" width="14.166667" height="11.500000" x="0.914551" y="2.243652" rx="1.750000" opacity="0.800000012" stroke="rgb(255,0,84)" stroke-width="0.5" />
					<circle id="Oval 2" cx="7.99788427" cy="7.99788427" r="7.33333349" opacity="0.800000012" fill="rgb(216,216,216)" fill-opacity="0" />
					<circle id="Oval 2" cx="7.99788427" cy="7.99788427" r="7.08333349" opacity="0.800000012" stroke="rgb(255,0,84)" stroke-width="0.5" />
					<circle id="Oval 2" cx="7.9977212" cy="7.9977212" r="4.66666651" opacity="0.800000012" fill="rgb(216,216,216)" fill-opacity="0" />
					<circle id="Oval 2" cx="7.9977212" cy="7.9977212" r="4.41666651" opacity="0.800000012" stroke="rgb(255,0,84)" stroke-width="0.5" />
				</g>
				<g id="Group 3">
					<path id="Path 3" d="M0.0178223 8.03369L15.9793 8.03369" opacity="0.300000012" stroke="rgb(0,0,0)" stroke-width="0.5" />
					<path id="Path 3" d="M0 0L15.9615 0" opacity="0.300000012" stroke="rgb(0,0,0)" stroke-width="0.5" transform="matrix(0,-1,1,0,7.99707,15.9805)" />
					<path id="Path 7" d="M0 0L22.5872 0" opacity="0.300000012" stroke="rgb(0,0,0)" stroke-width="0.5" transform="matrix(0.707107,-0.707107,0.707107,0.707107,0,15.9717)" />
					<path id="Path 7" d="M0 0L22.5872 0" opacity="0.300000012" stroke="rgb(0,0,0)" stroke-width="0.5" transform="matrix(-0.707107,-0.707107,-0.707107,0.707107,15.9883,15.9883)" />
				</g>
			</g>
			<rect id="矩形" width="14.666667" height="14.666667" x="0.666504" y="0.666504" opacity="0.448823482" fill="rgb(50,197,255)" />
			<rect id="矩形" width="13.666667" height="13.666667" x="1.166504" y="1.166504" opacity="0.448823482" stroke="rgb(151,151,151)" stroke-opacity="0" stroke-width="1" />
			<circle id="椭圆形" cx="7.9998374" cy="7.9998374" r="7.33333349" opacity="0.448823482" fill="rgb(247,181,0)" />
			<circle id="椭圆形" cx="7.9998374" cy="7.9998374" r="6.83333349" opacity="0.448823482" stroke="rgb(151,151,151)" stroke-opacity="0" stroke-width="1" />
		</g>
		<path id="形状结合" d="M11.3344 1.33374C12.3996 1.33374 13.2702 2.16657 13.331 3.21625L13.3344 3.33374L13.3344 7.00041C13.3344 7.27655 13.1105 7.50041 12.8344 7.50041C12.5813 7.50041 12.3721 7.3123 12.339 7.06825L12.3344 7.00041L12.3344 3.33374C12.3344 2.8141 11.9378 2.38679 11.4307 2.33832L11.3344 2.33374L4.66772 2.33374C4.14795 2.33374 3.72076 2.73048 3.6723 3.23746L3.66772 3.33374L3.66772 12.6677C3.66772 13.1872 4.06417 13.6141 4.57139 13.6625L4.66772 13.6671L7.66772 13.6671C7.94387 13.6671 8.16772 13.8909 8.16772 14.1671C8.16772 14.4202 7.97962 14.6294 7.73557 14.6625L7.66772 14.6671L4.66772 14.6671C3.60251 14.6671 2.73194 13.8348 2.67112 12.7852L2.66772 12.6677L2.66772 3.33374C2.66772 2.26884 3.5003 1.39798 4.55021 1.33714L4.66772 1.33374L11.3344 1.33374ZM5.83335 4.33361C5.83335 4.05747 5.60949 3.83361 5.33335 3.83361C5.05721 3.83361 4.83335 4.05747 4.83335 4.33361C4.83335 4.60975 5.05721 4.83361 5.33335 4.83361C5.60949 4.83361 5.83335 4.60975 5.83335 4.33361ZM11.1664 4.33361C11.1664 4.05747 10.9426 3.83361 10.6664 3.83361L7.00222 3.83361L6.93437 3.83818C6.69032 3.87128 6.50222 4.08048 6.50222 4.33361C6.50222 4.60975 6.72607 4.83361 7.00222 4.83361L10.6664 4.83361L10.7343 4.82905C10.9783 4.79594 11.1664 4.58674 11.1664 4.33361ZM5.83335 6.49719C5.83335 6.22104 5.60949 5.99719 5.33335 5.99719C5.05721 5.99719 4.83335 6.22104 4.83335 6.49719C4.83335 6.77333 5.05721 6.99719 5.33335 6.99719C5.60949 6.99719 5.83335 6.77333 5.83335 6.49719ZM11.1664 6.49719C11.1664 6.22104 10.9426 5.99719 10.6664 5.99719L7.00222 5.99719L6.93437 6.00175C6.69032 6.03486 6.50222 6.24406 6.50222 6.49719C6.50222 6.77333 6.72607 6.99719 7.00222 6.99719L10.6664 6.99719L10.7343 6.99262C10.9783 6.95951 11.1664 6.75032 11.1664 6.49719ZM8.9206 9.07412L10.5846 8.11345C11.0487 7.84541 11.6207 7.84541 12.0847 8.1134L13.7488 9.07412C14.2128 9.34214 14.4987 9.8372 14.4987 10.3731L14.4987 12.2944C14.4987 12.8303 14.2128 13.3254 13.7487 13.5934L12.0848 14.5541C11.6207 14.8221 11.0487 14.8221 10.5847 14.5541L8.9206 13.5934C8.45657 13.3254 8.17068 12.8303 8.17068 12.2944L8.17068 10.3731C8.17068 9.8372 8.45657 9.34214 8.9206 9.07412ZM11.5846 8.97939L13.2487 9.9401C13.4034 10.0295 13.4987 10.1945 13.4987 10.3731L13.4987 12.2944C13.4987 12.473 13.4034 12.6381 13.2486 12.7275L11.5847 13.6881C11.43 13.7774 11.2393 13.7774 11.0848 13.6881L9.42067 12.7274C9.26598 12.6381 9.17068 12.473 9.17068 12.2944L9.17068 10.3731C9.17068 10.1945 9.26598 10.0295 9.42076 9.94005L11.0847 8.97944C11.2393 8.8901 11.43 8.8901 11.5846 8.97939ZM11.3336 9.83468C10.505 9.83468 9.83364 10.5064 9.83364 11.3347C9.83364 12.1635 10.5048 12.8347 11.3336 12.8347C12.1624 12.8347 12.8336 12.1635 12.8336 11.3347C12.8336 10.5064 12.1623 9.83468 11.3336 9.83468ZM11.3336 10.8347C11.6099 10.8347 11.8336 11.0585 11.8336 11.3347C11.8336 11.6112 11.6102 11.8347 11.3336 11.8347C11.0571 11.8347 10.8336 11.6112 10.8336 11.3347C10.8336 11.0585 11.0574 10.8347 11.3336 10.8347Z" fill="rgb(250,140,22)" fill-rule="evenodd" />
		<path id="形状结合" d="M11.3344 1.33374C12.3996 1.33374 13.2702 2.16657 13.331 3.21625L13.3344 3.33374L13.3344 7.00041C13.3344 7.27655 13.1105 7.50041 12.8344 7.50041C12.5813 7.50041 12.3721 7.3123 12.339 7.06825L12.3344 7.00041L12.3344 3.33374C12.3344 2.8141 11.9378 2.38679 11.4307 2.33832L11.3344 2.33374L4.66772 2.33374C4.14795 2.33374 3.72076 2.73048 3.6723 3.23746L3.66772 3.33374L3.66772 12.6677C3.66772 13.1872 4.06417 13.6141 4.57139 13.6625L4.66772 13.6671L7.66772 13.6671C7.94387 13.6671 8.16772 13.8909 8.16772 14.1671C8.16772 14.4202 7.97962 14.6294 7.73557 14.6625L7.66772 14.6671L4.66772 14.6671C3.60251 14.6671 2.73194 13.8348 2.67112 12.7852L2.66772 12.6677L2.66772 3.33374C2.66772 2.26884 3.5003 1.39798 4.55021 1.33714L4.66772 1.33374L11.3344 1.33374ZM5.52949 4.04733Q5.54471 3.96894 5.56842 3.8922C5.72607 3.97633 5.83335 4.14244 5.83335 4.33361C5.83335 4.52481 5.72603 4.69095 5.56834 4.77506Q5.54802 4.70936 5.53394 4.64236L5.53393 4.64229Q5.50222 4.49128 5.50222 4.33361Q5.50222 4.18782 5.52949 4.04733ZM10.6664 3.83361C10.9426 3.83361 11.1664 4.05747 11.1664 4.33361C11.1664 4.58674 10.9783 4.79594 10.7343 4.82905L10.6664 4.83361L7.00222 4.83361C6.72607 4.83361 6.50222 4.60975 6.50222 4.33361C6.50222 4.08048 6.69032 3.87128 6.93437 3.83818L7.00222 3.83361L10.6664 3.83361ZM5.5295 6.21089Q5.54471 6.13251 5.56842 6.05578C5.72607 6.1399 5.83335 6.30602 5.83335 6.49719C5.83335 6.68839 5.72603 6.85452 5.56834 6.93864Q5.54806 6.87307 5.534 6.8062L5.53394 6.80592L5.53394 6.80591L5.53394 6.80589Q5.50222 6.65487 5.50222 6.49719Q5.50222 6.35145 5.52947 6.21101L5.52949 6.21092L5.5295 6.21089ZM10.6664 5.99719C10.9426 5.99719 11.1664 6.22104 11.1664 6.49719C11.1664 6.75032 10.9783 6.95951 10.7343 6.99262L10.6664 6.99719L7.00222 6.99719C6.72607 6.99719 6.50222 6.77333 6.50222 6.49719C6.50222 6.24406 6.69032 6.03486 6.93437 6.00175L7.00222 5.99719L10.6664 5.99719ZM8.9206 9.07412L10.5846 8.11345C11.0487 7.84541 11.6207 7.84541 12.0847 8.1134L13.7488 9.07412C14.2128 9.34214 14.4987 9.8372 14.4987 10.3731L14.4987 12.2944C14.4987 12.8303 14.2128 13.3254 13.7487 13.5934L12.0848 14.5541C11.6207 14.8221 11.0487 14.8221 10.5847 14.5541L8.9206 13.5934C8.45657 13.3254 8.17068 12.8303 8.17068 12.2944L8.17068 10.3731C8.17068 9.8372 8.45657 9.34214 8.9206 9.07412ZM13.2487 9.9401L11.5846 8.97939C11.43 8.8901 11.2393 8.8901 11.0847 8.97944L9.42076 9.94005C9.26598 10.0295 9.17068 10.1945 9.17068 10.3731L9.17068 12.2944C9.17068 12.473 9.26598 12.6381 9.42067 12.7274L11.0848 13.6881C11.2393 13.7774 11.43 13.7774 11.5847 13.6881L13.2486 12.7275C13.4034 12.6381 13.4987 12.473 13.4987 12.2944L13.4987 10.3731C13.4987 10.1945 13.4034 10.0295 13.2487 9.9401ZM9.83364 11.3347C9.83364 10.5064 10.505 9.83468 11.3336 9.83468C12.1623 9.83468 12.8336 10.5064 12.8336 11.3347C12.8336 12.1635 12.1624 12.8347 11.3336 12.8347C10.5048 12.8347 9.83364 12.1635 9.83364 11.3347ZM11.3336 10.8347Q11.3207 10.8347 11.3079 10.8353Q11.22 10.8392 11.1433 10.8707Q11.0733 10.8995 11.0127 10.9512C10.9901 10.9702 10.9692 10.991 10.9503 11.0136Q10.8985 11.0743 10.8697 11.1444L10.8697 11.1444Q10.841 11.2142 10.8352 11.2933Q10.8336 11.3137 10.8336 11.3347Q10.8336 11.3477 10.8342 11.3606Q10.8383 11.4492 10.8702 11.5264L10.8702 11.5264L10.8702 11.5265Q10.8989 11.5958 10.9501 11.6558C10.9691 11.6784 10.9899 11.6993 11.0125 11.7182Q11.0726 11.7694 11.1419 11.7981Q11.2109 11.8267 11.2892 11.8329Q11.311 11.8347 11.3336 11.8347Q11.3467 11.8347 11.3595 11.8341Q11.4482 11.8301 11.5253 11.7982L11.5254 11.7981L11.5254 11.7981Q11.5947 11.7694 11.6547 11.7182C11.6773 11.6993 11.6982 11.6784 11.7172 11.6558Q11.7684 11.5958 11.797 11.5266L11.7971 11.5264Q11.8254 11.4579 11.8318 11.3803Q11.8336 11.3579 11.8336 11.3347Q11.8336 11.3217 11.8331 11.309Q11.8291 11.221 11.7976 11.1443Q11.7688 11.0742 11.717 11.0136C11.698 10.991 11.6772 10.9702 11.6546 10.9512Q11.594 10.8995 11.524 10.8708L11.524 10.8707L11.524 10.8707Q11.4551 10.8424 11.3771 10.8363Q11.3557 10.8347 11.3336 10.8347Z" fill="rgb(151,151,151)" fill-opacity="0" fill-rule="evenodd" />
	</g>
</svg>
