<svg viewBox="0 0 16 16" xmlns="http://www.w3.org/2000/svg" xmlns:xlink="http://www.w3.org/1999/xlink" width="16.000000" height="16.000000" fill="none" customFrame="#000000">
	<rect id="线型服务图标/代码检查" width="16.000000" height="16.000000" x="0.000000" y="0.000000" />
	<g id="组合 347">
		<path id="路径" d="M12.9497 3.05029C14.2165 4.31704 15 6.06704 15 8.00004C15 9.93304 14.2165 11.683 12.9497 12.9498L8 8.00004L12.9497 3.05029L12.9497 3.05029Z" opacity="0.300000012" fill="rgb(81,79,198)" fill-rule="evenodd" />
		<path id="形状" d="M7.5625 14.1096L7.5625 11.4729C5.97931 11.2755 4.7245 10.0207 4.52708 8.4375L1.89038 8.4375C2.10451 11.4716 4.52845 13.8955 7.5625 14.1096ZM1.89038 7.5625L4.52708 7.5625C4.7245 5.97931 5.97931 4.7245 7.5625 4.52708L7.5625 1.89038C4.52845 2.10451 2.10451 4.52845 1.89038 7.5625ZM8.4375 1.89038L8.4375 4.52708C10.0207 4.7245 11.2755 5.97931 11.4729 7.5625L14.1096 7.5625C13.8955 4.52845 11.4716 2.10451 8.4375 1.89038ZM14.1096 8.4375L11.4729 8.4375C11.2755 10.0207 10.0207 11.2755 8.4375 11.4729L8.4375 14.1096C11.4716 13.8955 13.8955 11.4716 14.1096 8.4375ZM8 15C11.866 15 15 11.866 15 8C15 4.13401 11.866 1 8 1C4.13401 1 1 4.13401 1 8C1 11.866 4.13401 15 8 15ZM7.5625 10.5887L7.5625 8.4375L5.41129 8.4375C5.59571 9.53672 6.46328 10.4043 7.5625 10.5887ZM8.4375 10.5887C9.53672 10.4043 10.4043 9.53672 10.5887 8.4375L8.4375 8.4375L8.4375 10.5887ZM7.5625 5.41129C6.46328 5.59571 5.59571 6.46328 5.41129 7.5625L7.5625 7.5625L7.5625 5.41129ZM8.4375 5.41129L8.4375 7.5625L10.5887 7.5625C10.4043 6.46328 9.53672 5.59571 8.4375 5.41129Z" fill="rgb(81,79,198)" fill-rule="evenodd" />
	</g>
</svg>
