<svg viewBox="0 0 16 16" xmlns="http://www.w3.org/2000/svg" xmlns:xlink="http://www.w3.org/1999/xlink" width="16.000000" height="16.000000" fill="none" customFrame="#000000">
	<rect id="线型服务图标/变更列表" width="16.000000" height="16.000000" x="0.000000" y="0.000000" />
	<g id="编组">
		<rect id="矩形" width="16.000000" height="16.000000" x="0.000000" y="0.000000" opacity="0" fill="rgb(216,216,216)" />
		<rect id="矩形" width="15.000000" height="15.000000" x="0.500000" y="0.500000" opacity="0" stroke="rgb(151,151,151)" stroke-opacity="0" stroke-width="1" />
		<g id="grid 2" opacity="0">
			<g id="grid">
				<g id="bg">
					<path id="Fill 1" d="M16 16L0 16L0 0L16 0L16 16ZM15.3333 15.3331L0.666667 15.3331L0.666667 0.666422L15.3333 0.666422L15.3333 15.3331Z" fill="rgb(249,249,249)" fill-opacity="0.400000006" fill-rule="evenodd" />
					<path id="Fill 2" d="M1.3335 14.6668L14.6668 14.6668L14.6668 1.3335L1.3335 1.3335L1.3335 14.6668Z" fill="rgb(247,247,247)" fill-opacity="0.400000006" fill-rule="evenodd" />
					<path id="Fill 3" d="M2 14L14 14L14 2L2 2L2 14Z" fill="rgb(236,236,236)" fill-opacity="0.101960786" fill-rule="evenodd" />
				</g>
				<g id="Group 5">
					<rect id="Rectangle 2" width="13.333333" height="13.333333" x="1.329102" y="1.329102" rx="2.000000" opacity="0.800000012" fill="rgb(216,216,216)" fill-opacity="0" />
					<rect id="Rectangle 2" width="12.833333" height="12.833333" x="1.579102" y="1.579102" rx="1.750000" opacity="0.800000012" stroke="rgb(255,0,84)" stroke-width="0.5" />
					<rect id="Rectangle 2" width="8.000000" height="8.000000" x="3.998047" y="3.998047" opacity="0.800000012" fill="rgb(216,216,216)" fill-opacity="0" />
					<rect id="Rectangle 2" width="7.500000" height="7.500000" x="4.248047" y="4.248047" opacity="0.800000012" stroke="rgb(255,0,84)" stroke-width="0.5" />
					<rect id="Rectangle 2" width="12.000000" height="14.666667" x="1.993652" y="0.664551" rx="2.000000" opacity="0.800000012" fill="rgb(216,216,216)" fill-opacity="0" />
					<rect id="Rectangle 2" width="11.500000" height="14.166667" x="2.243652" y="0.914551" rx="1.750000" opacity="0.800000012" stroke="rgb(255,0,84)" stroke-width="0.5" />
					<rect id="Rectangle 2" width="14.666667" height="12.000000" x="0.664551" y="1.993652" rx="2.000000" opacity="0.800000012" fill="rgb(216,216,216)" fill-opacity="0" />
					<rect id="Rectangle 2" width="14.166667" height="11.500000" x="0.914551" y="2.243652" rx="1.750000" opacity="0.800000012" stroke="rgb(255,0,84)" stroke-width="0.5" />
					<circle id="Oval 2" cx="7.99788427" cy="7.99788427" r="7.33333349" opacity="0.800000012" fill="rgb(216,216,216)" fill-opacity="0" />
					<circle id="Oval 2" cx="7.99788427" cy="7.99788427" r="7.08333349" opacity="0.800000012" stroke="rgb(255,0,84)" stroke-width="0.5" />
					<circle id="Oval 2" cx="7.9977212" cy="7.9977212" r="4.66666651" opacity="0.800000012" fill="rgb(216,216,216)" fill-opacity="0" />
					<circle id="Oval 2" cx="7.9977212" cy="7.9977212" r="4.41666651" opacity="0.800000012" stroke="rgb(255,0,84)" stroke-width="0.5" />
				</g>
				<g id="Group 3">
					<path id="Path 3" d="M0.0178223 8.03369L15.9793 8.03369" opacity="0.300000012" stroke="rgb(0,0,0)" stroke-width="0.5" />
					<path id="Path 3" d="M0 0L15.9615 0" opacity="0.300000012" stroke="rgb(0,0,0)" stroke-width="0.5" transform="matrix(0,-1,1,0,7.99756,15.9805)" />
					<path id="Path 7" d="M0 0L22.5872 0" opacity="0.300000012" stroke="rgb(0,0,0)" stroke-width="0.5" transform="matrix(0.707107,-0.707107,0.707107,0.707107,0,15.9717)" />
					<path id="Path 7" d="M0 0L22.5872 0" opacity="0.300000012" stroke="rgb(0,0,0)" stroke-width="0.5" transform="matrix(-0.707107,-0.707107,-0.707107,0.707107,15.9883,15.9883)" />
				</g>
			</g>
			<rect id="矩形" width="14.666667" height="14.666667" x="0.666504" y="0.666504" opacity="0.448823482" fill="rgb(50,197,255)" />
			<rect id="矩形" width="13.666667" height="13.666667" x="1.166504" y="1.166504" opacity="0.448823482" stroke="rgb(151,151,151)" stroke-opacity="0" stroke-width="1" />
			<circle id="椭圆形" cx="7.9998374" cy="7.9998374" r="7.33333349" opacity="0.448823482" fill="rgb(247,181,0)" />
			<circle id="椭圆形" cx="7.9998374" cy="7.9998374" r="6.83333349" opacity="0.448823482" stroke="rgb(151,151,151)" stroke-opacity="0" stroke-width="1" />
		</g>
		<path id="形状结合" d="M12.2975 3.59803C12.1017 3.4528 11.824 3.46894 11.6464 3.64645L11.598 3.70253C11.4528 3.89827 11.4689 4.17604 11.6464 4.35355L12.7927 5.4996L2 5.5L1.93215 5.50456C1.6881 5.53767 1.5 5.74687 1.5 6C1.5 6.27614 1.72386 6.5 2 6.5L14 6.5L14.0684 6.49564C14.4674 6.44393 14.652 5.94485 14.3536 5.64645L12.3536 3.64645L12.2975 3.59803ZM14.5 10C14.5 9.72386 14.2762 9.5 14 9.5L2.00003 9.5L1.93159 9.50436C1.53258 9.55607 1.34807 10.0551 1.64647 10.3536L3.64647 12.3536L3.70255 12.402C3.89829 12.5472 4.17607 12.5311 4.35358 12.3536L4.40199 12.2975C4.54723 12.1017 4.53109 11.824 4.35358 11.6464L3.20669 10.4996L14 10.5L14.0679 10.4954C14.3119 10.4623 14.5 10.2531 14.5 10Z" fill="rgb(250,140,22)" fill-rule="evenodd" />
		<path id="形状结合" d="M11.6464 3.64645C11.824 3.46894 12.1017 3.4528 12.2975 3.59803L12.3536 3.64645L14.3536 5.64645C14.4554 5.7483 14.501 5.87354 14.501 5.99639C14.501 6.23344 14.3312 6.46158 14.0684 6.49564L14 6.5L2 6.5C1.72386 6.5 1.5 6.27614 1.5 6C1.5 5.74687 1.6881 5.53767 1.93215 5.50456L2 5.5L12.7927 5.4996L11.6464 4.35355C11.5488 4.25592 11.5 4.12796 11.5 4C11.5 3.89531 11.5327 3.79061 11.598 3.70253L11.6464 3.64645ZM14 9.5C14.2762 9.5 14.5 9.72386 14.5 10C14.5 10.2531 14.3119 10.4623 14.0679 10.4954L14 10.5L3.20669 10.4996L4.35358 11.6464C4.45121 11.7441 4.50003 11.872 4.50003 12C4.50003 12.1047 4.46735 12.2094 4.40199 12.2975L4.35358 12.3536C4.17607 12.5311 3.89829 12.5472 3.70255 12.402L3.64647 12.3536L1.64647 10.3536C1.54461 10.2517 1.49902 10.1265 1.49902 10.0036C1.49902 9.76656 1.66878 9.53842 1.93159 9.50436L2.00003 9.5L14 9.5Z" fill="rgb(151,151,151)" fill-opacity="0" fill-rule="evenodd" />
	</g>
</svg>
