<svg viewBox="0 0 16 16" xmlns="http://www.w3.org/2000/svg" xmlns:xlink="http://www.w3.org/1999/xlink" width="16.000000" height="16.000000" fill="none" customFrame="#000000">
	<rect id="线型服务图标/批量变更" width="16.000000" height="16.000000" x="0.000000" y="0.000000" />
	<g id="编组">
		<rect id="矩形" width="16.000000" height="16.000000" x="0.000000" y="0.000000" opacity="0" fill="rgb(250,140,22)" />
		<rect id="矩形" width="15.000000" height="15.000000" x="0.500000" y="0.500000" opacity="0" stroke="rgb(151,151,151)" stroke-opacity="0" stroke-width="1" />
		<path id="形状结合" d="M7.66488 2.33423C7.66488 1.78194 7.21716 1.33423 6.66488 1.33423L2.33154 1.33423C1.77926 1.33423 1.33154 1.78194 1.33154 2.33423L1.33154 6.66756C1.33154 7.21985 1.77926 7.66756 2.33154 7.66756L6.66488 7.66756C7.21716 7.66756 7.66488 7.21985 7.66488 6.66756L7.66488 2.33423ZM14.3909 7.10321C14.0422 4.26399 11.6833 2.11227 8.85421 2.00045C8.47595 1.98549 8.22763 2.37528 8.37817 2.7051L8.41113 2.76612L9.13068 3.91097C9.27763 4.14476 9.58628 4.21517 9.82008 4.06823C10.0344 3.93353 10.1114 3.66295 10.0096 3.4387L9.97734 3.37883L9.8351 3.15197L9.92179 3.17435C11.6972 3.67324 13.0781 5.1706 13.3755 7.06201L13.3983 7.22508C13.432 7.49917 13.6814 7.69407 13.9555 7.66042C14.2296 7.62677 14.4245 7.3773 14.3909 7.10321ZM2.33154 2.33423L6.66488 2.33423L6.66488 6.66756L2.33154 6.66756L2.33154 2.33423ZM1.61077 8.89451C1.95938 11.7337 4.31833 13.8855 7.14742 13.9973C7.52568 14.0122 7.774 13.6224 7.62346 13.2926L7.5905 13.2316L6.87094 12.0868C6.724 11.853 6.41534 11.7826 6.18155 11.9295C5.96723 12.0642 5.89021 12.3348 5.99205 12.559L6.02429 12.6189L6.16653 12.8458L6.07984 12.8234C4.30443 12.3245 2.92355 10.8271 2.62614 8.93571L2.60331 8.77264C2.56966 8.49856 2.32019 8.30365 2.0461 8.3373C1.77202 8.37096 1.57711 8.62043 1.61077 8.89451ZM14.6649 9.33423C14.6649 8.78194 14.2172 8.33423 13.6649 8.33423L9.33154 8.33423C8.77926 8.33423 8.33154 8.78194 8.33154 9.33423L8.33154 13.6676C8.33154 14.2198 8.77926 14.6676 9.33154 14.6676L13.6649 14.6676C14.2172 14.6676 14.6649 14.2198 14.6649 13.6676L14.6649 9.33423ZM9.33154 9.33423L13.6649 9.33423L13.6649 13.6676L9.33154 13.6676L9.33154 9.33423Z" fill="rgb(250,140,22)" fill-rule="evenodd" />
		<path id="形状结合" d="M6.66488 1.33423C7.21716 1.33423 7.66488 1.78194 7.66488 2.33423L7.66488 6.66756C7.66488 7.21985 7.21716 7.66756 6.66488 7.66756L2.33154 7.66756C1.77926 7.66756 1.33154 7.21985 1.33154 6.66756L1.33154 2.33423C1.33154 1.78194 1.77926 1.33423 2.33154 1.33423L6.66488 1.33423ZM8.85421 2.00045C11.6833 2.11227 14.0422 4.26399 14.3909 7.10321C14.3934 7.1239 14.3946 7.14445 14.3946 7.16477C14.3946 7.41373 14.2089 7.62931 13.9555 7.66042C13.6814 7.69407 13.432 7.49917 13.3983 7.22508L13.3755 7.06201C13.0781 5.1706 11.6972 3.67324 9.92179 3.17435L9.8351 3.15197L9.97734 3.37883L10.0096 3.4387C10.0396 3.5048 10.0541 3.57493 10.0541 3.64442C10.0541 3.81066 9.97122 3.97323 9.82008 4.06823C9.58628 4.21517 9.27763 4.14476 9.13068 3.91097L8.41113 2.76612L8.37817 2.7051C8.34768 2.6383 8.33355 2.56904 8.33355 2.50118C8.33355 2.23399 8.55256 1.98852 8.85421 2.00045ZM6.66488 2.33423L2.33154 2.33423L2.33154 6.66756L6.66488 6.66756L6.66488 2.33423ZM14.3887 7.08647Q14.3876 7.0775 14.3862 7.06865L14.3887 7.08647ZM7.14742 13.9973C4.31833 13.8855 1.95938 11.7337 1.61077 8.89451C1.60823 8.87382 1.60699 8.85327 1.60699 8.83295C1.60699 8.58399 1.79271 8.36842 2.0461 8.3373C2.32019 8.30365 2.56966 8.49856 2.60331 8.77264L2.62614 8.93571C2.92355 10.8271 4.30443 12.3245 6.07984 12.8234L6.16653 12.8458L6.02429 12.6189L5.99205 12.559C5.96203 12.4929 5.94755 12.4228 5.94755 12.3533C5.94755 12.1871 6.03041 12.0245 6.18155 11.9295C6.41534 11.7826 6.724 11.853 6.87094 12.0868L7.5905 13.2316L7.62346 13.2926C7.65395 13.3594 7.66808 13.4287 7.66808 13.4965C7.66808 13.7637 7.44906 14.0092 7.14742 13.9973ZM13.6649 8.33423C14.2172 8.33423 14.6649 8.78194 14.6649 9.33423L14.6649 13.6676C14.6649 14.2198 14.2172 14.6676 13.6649 14.6676L9.33154 14.6676C8.77926 14.6676 8.33154 14.2198 8.33154 13.6676L8.33154 9.33423C8.33154 8.78194 8.77926 8.33423 9.33154 8.33423L13.6649 8.33423ZM1.61547 8.92907L1.61297 8.91125Q1.61406 8.92023 1.61547 8.92907ZM13.6649 9.33423L9.33154 9.33423L9.33154 13.6676L13.6649 13.6676L13.6649 9.33423Z" fill="rgb(151,151,151)" fill-opacity="0" fill-rule="evenodd" />
	</g>
</svg>
