<svg viewBox="0 0 16 16" xmlns="http://www.w3.org/2000/svg" xmlns:xlink="http://www.w3.org/1999/xlink" width="16.000000" height="16.000000" fill="none" customFrame="#000000">
	<rect id="线型服务图标/插件管理" width="16.000000" height="16.000000" x="0.000000" y="0.000000" />
	<g id="编组">
		<rect id="矩形" width="16.000000" height="16.000000" x="0.000000" y="0.000000" opacity="0" fill="rgb(216,216,216)" />
		<rect id="矩形" width="15.000000" height="15.000000" x="0.500000" y="0.500000" opacity="0" stroke="rgb(151,151,151)" stroke-opacity="0" stroke-width="1" />
		<g id="grid 2" opacity="0">
			<g id="grid">
				<g id="bg">
					<path id="Fill 1" d="M16 16L0 16L0 0L16 0L16 16ZM15.3333 15.3331L0.666667 15.3331L0.666667 0.666422L15.3333 0.666422L15.3333 15.3331Z" fill="rgb(249,249,249)" fill-opacity="0.400000006" fill-rule="evenodd" />
					<path id="Fill 2" d="M1.3335 14.6668L14.6668 14.6668L14.6668 1.3335L1.3335 1.3335L1.3335 14.6668Z" fill="rgb(247,247,247)" fill-opacity="0.400000006" fill-rule="evenodd" />
					<path id="Fill 3" d="M2 14L14 14L14 2L2 2L2 14Z" fill="rgb(236,236,236)" fill-opacity="0.101960786" fill-rule="evenodd" />
				</g>
				<g id="Group 5">
					<rect id="Rectangle 2" width="13.333333" height="13.333333" x="1.329102" y="1.329102" rx="2.000000" opacity="0.800000012" fill="rgb(216,216,216)" fill-opacity="0" />
					<rect id="Rectangle 2" width="12.833333" height="12.833333" x="1.579102" y="1.579102" rx="1.750000" opacity="0.800000012" stroke="rgb(255,0,84)" stroke-width="0.5" />
					<rect id="Rectangle 2" width="8.000000" height="8.000000" x="3.998047" y="3.998047" opacity="0.800000012" fill="rgb(216,216,216)" fill-opacity="0" />
					<rect id="Rectangle 2" width="7.500000" height="7.500000" x="4.248047" y="4.248047" opacity="0.800000012" stroke="rgb(255,0,84)" stroke-width="0.5" />
					<rect id="Rectangle 2" width="12.000000" height="14.666667" x="1.993652" y="0.664551" rx="2.000000" opacity="0.800000012" fill="rgb(216,216,216)" fill-opacity="0" />
					<rect id="Rectangle 2" width="11.500000" height="14.166667" x="2.243652" y="0.914551" rx="1.750000" opacity="0.800000012" stroke="rgb(255,0,84)" stroke-width="0.5" />
					<rect id="Rectangle 2" width="14.666667" height="12.000000" x="0.664551" y="1.993652" rx="2.000000" opacity="0.800000012" fill="rgb(216,216,216)" fill-opacity="0" />
					<rect id="Rectangle 2" width="14.166667" height="11.500000" x="0.914551" y="2.243652" rx="1.750000" opacity="0.800000012" stroke="rgb(255,0,84)" stroke-width="0.5" />
					<circle id="Oval 2" cx="7.99788427" cy="7.99788427" r="7.33333349" opacity="0.800000012" fill="rgb(216,216,216)" fill-opacity="0" />
					<circle id="Oval 2" cx="7.99788427" cy="7.99788427" r="7.08333349" opacity="0.800000012" stroke="rgb(255,0,84)" stroke-width="0.5" />
					<circle id="Oval 2" cx="7.9977212" cy="7.9977212" r="4.66666651" opacity="0.800000012" fill="rgb(216,216,216)" fill-opacity="0" />
					<circle id="Oval 2" cx="7.9977212" cy="7.9977212" r="4.41666651" opacity="0.800000012" stroke="rgb(255,0,84)" stroke-width="0.5" />
				</g>
				<g id="Group 3">
					<path id="Path 3" d="M0.0178223 8.03369L15.9793 8.03369" opacity="0.300000012" stroke="rgb(0,0,0)" stroke-width="0.5" />
					<path id="Path 3" d="M0 0L15.9615 0" opacity="0.300000012" stroke="rgb(0,0,0)" stroke-width="0.5" transform="matrix(0,-1,1,0,7.99707,15.9805)" />
					<path id="Path 7" d="M0 0L22.5872 0" opacity="0.300000012" stroke="rgb(0,0,0)" stroke-width="0.5" transform="matrix(0.707107,-0.707107,0.707107,0.707107,0,15.9717)" />
					<path id="Path 7" d="M0 0L22.5872 0" opacity="0.300000012" stroke="rgb(0,0,0)" stroke-width="0.5" transform="matrix(-0.707107,-0.707107,-0.707107,0.707107,15.9883,15.9883)" />
				</g>
			</g>
			<rect id="矩形" width="14.666667" height="14.666667" x="0.666504" y="0.666504" opacity="0.448823482" fill="rgb(50,197,255)" />
			<rect id="矩形" width="13.666667" height="13.666667" x="1.166504" y="1.166504" opacity="0.448823482" stroke="rgb(151,151,151)" stroke-opacity="0" stroke-width="1" />
			<circle id="椭圆形" cx="7.9998374" cy="7.9998374" r="7.33333349" opacity="0.448823482" fill="rgb(247,181,0)" />
			<circle id="椭圆形" cx="7.9998374" cy="7.9998374" r="6.83333349" opacity="0.448823482" stroke="rgb(151,151,151)" stroke-opacity="0" stroke-width="1" />
		</g>
		<path id="形状" d="M12 2C13.0651 2 13.9358 2.83261 13.9966 3.88248L14 4L14 6.19333C14 6.44646 13.8119 6.65566 13.5678 6.68877L13.5 6.69333L11.3846 6.69333C11.1085 6.69333 10.8846 6.46948 10.8846 6.19333C10.8846 6.16563 10.8869 6.13844 10.8912 6.11196L10.8949 6.19231C10.8949 5.53381 10.3611 5 9.70264 5C9.04414 5 8.51033 5.53381 8.51033 6.19231C8.51033 6.44534 8.32237 6.65449 8.07843 6.68771L8.01061 6.69231L5.678 6.69333L5.67133 7.55867L5.77017 7.58368C6.65001 7.83437 7.30407 8.62088 7.35704 9.5679L7.36051 9.69231C7.36051 10.6943 6.68826 11.5393 5.77017 11.8009L5.66733 11.8267L5.66667 13L12 13C12.5198 13 12.947 12.6034 12.9954 12.0963L13 12L13 7.86667C13 7.59052 13.2239 7.36667 13.5 7.36667C13.7531 7.36667 13.9623 7.55477 13.9954 7.79882L14 7.86667L14 12C14 13.0651 13.1674 13.9358 12.1175 13.9966L12 14L4 14C2.93488 14 2.06423 13.1674 2.0034 12.1175L2 12L2 4C2 2.93488 2.83261 2.06423 3.88248 2.0034L4 2L12 2ZM5.70477 2.9999L12.0001 2.9999L12.0964 3.00447C12.6035 3.05293 13.0001 3.4801 13.0001 3.9999L13.0001 5.69323L11.8381 5.69346C11.6123 4.72297 10.742 3.9999 9.70274 3.9999L9.57834 4.00337C8.63132 4.05634 7.84481 4.7104 7.59411 5.59024L7.56744 5.6919L5.68544 5.69323L5.70477 2.9999ZM4.70521 2.99999L3.99987 2.99999C3.48007 2.99999 3.05291 3.39658 3.00445 3.90368L2.99987 3.99999L2.99987 5.69532L4.68521 5.69399L4.70521 2.99999ZM2.99992 6.69526L4.67792 6.69392L4.66814 7.9962L4.67224 8.06443C4.70385 8.30991 4.91366 8.49992 5.16812 8.49992L5.26591 8.50388C5.87866 8.55362 6.36043 9.06666 6.36043 9.69223C6.36043 10.3507 5.82662 10.8845 5.16812 10.8845C4.89212 10.8845 4.66833 11.1082 4.66812 11.3842L4.66659 12.9999L3.99992 12.9999L3.90361 12.9953C3.39651 12.9469 2.99992 12.5197 2.99992 11.9999L2.99992 6.69526Z" fill="rgb(250,140,22)" fill-rule="evenodd" />
		<path id="形状" d="M12 2C13.0651 2 13.9358 2.83261 13.9966 3.88248L14 4L14 6.19333C14 6.44646 13.8119 6.65566 13.5678 6.68877L13.5 6.69333L11.3846 6.69333C11.1085 6.69333 10.8846 6.46948 10.8846 6.19333C10.8846 6.16563 10.8869 6.13844 10.8912 6.11196L10.8949 6.19231C10.8949 5.53381 10.3611 5 9.70264 5C9.04414 5 8.51033 5.53381 8.51033 6.19231C8.51033 6.44534 8.32237 6.65449 8.07843 6.68771L8.01061 6.69231L5.678 6.69333L5.67133 7.55867L5.77017 7.58368C6.65001 7.83437 7.30407 8.62088 7.35704 9.5679L7.36051 9.69231C7.36051 10.6943 6.68826 11.5393 5.77017 11.8009L5.66733 11.8267L5.66667 13L12 13C12.5198 13 12.947 12.6034 12.9954 12.0963L13 12L13 7.86667C13 7.59052 13.2239 7.36667 13.5 7.36667C13.7531 7.36667 13.9623 7.55477 13.9954 7.79882L14 7.86667L14 12C14 13.0651 13.1674 13.9358 12.1175 13.9966L12 14L4 14C2.93488 14 2.06423 13.1674 2.0034 12.1175L2 12L2 4C2 2.93488 2.83261 2.06423 3.88248 2.0034L4 2L12 2ZM12.0001 2.9999L5.70477 2.9999L5.68544 5.69323L7.56744 5.6919L7.59411 5.59024C7.84481 4.7104 8.63132 4.05634 9.57834 4.00337L9.70274 3.9999C10.742 3.9999 11.6123 4.72297 11.8381 5.69346L13.0001 5.69323L13.0001 3.9999C13.0001 3.4801 12.6035 3.05293 12.0964 3.00447L12.0001 2.9999ZM4.70521 2.99999L3.99987 2.99999C3.48007 2.99999 3.05291 3.39658 3.00445 3.90368L2.99987 3.99999L2.99987 5.69532L4.68521 5.69399L4.70521 2.99999ZM4.67792 6.69392L2.99992 6.69526L2.99992 11.9999C2.99992 12.5197 3.39651 12.9469 3.90361 12.9953L3.99992 12.9999L4.66659 12.9999L4.66812 11.3842C4.66833 11.1082 4.89212 10.8845 5.16812 10.8845C5.82662 10.8845 6.36043 10.3507 6.36043 9.69223C6.36043 9.06666 5.87866 8.55362 5.26591 8.50388L5.16812 8.49992C4.91366 8.49992 4.70385 8.30991 4.67224 8.06443L4.66814 7.9962L4.67792 6.69392Z" fill="rgb(151,151,151)" fill-opacity="0" fill-rule="evenodd" />
	</g>
</svg>
