<svg viewBox="0 0 16 16" xmlns="http://www.w3.org/2000/svg" xmlns:xlink="http://www.w3.org/1999/xlink" width="16.000000" height="16.000000" fill="none">
	<rect id="操作图标/添加标签" width="16.000000" height="16.000000" x="0.000000" y="0.000000" />
	<path id="形状结合" d="M6.24264 1C6.77307 1 7.28178 1.21071 7.65685 1.58579L12.071 5.999L10.655 5.999L6.94975 2.29289C6.76221 2.10536 6.50786 2 6.24264 2L1 2L1 7.24264C1 7.46365 1.07316 7.67712 1.20608 7.85067L7.07107 13.7279C7.43155 14.0884 7.99878 14.1161 8.39107 13.8111L9.213 12.999L10.628 12.999L9.19239 14.435C8.41134 15.2161 7.14501 15.2161 6.36396 14.435L0.585786 8.65685C0.210714 8.28178 0 7.77307 0 7.24264L0 2C0 1.44772 0.447715 1 1 1L6.24264 1ZM13 7L13 10L16 10L16 11L13 11L13 14L12 14L12 11L9 11L9 10L12 10L12 7L13 7ZM4.5 4C5.32843 4 6 4.67157 6 5.5C6 6.32843 5.32843 7 4.5 7C3.67157 7 3 6.32843 3 5.5C3 4.67157 3.67157 4 4.5 4ZM4.5 5C4.22386 5 4 5.22386 4 5.5C4 5.77614 4.22386 6 4.5 6C4.77614 6 5 5.77614 5 5.5C5 5.22386 4.77614 5 4.5 5Z" fill="rgb(25,25,25)" fill-rule="evenodd" />
	<path id="形状结合" d="M7.65685 1.58579L12.071 5.999L10.655 5.999L6.94975 2.29289C6.76221 2.10536 6.50786 2 6.24264 2L1 2L1 7.24264C1 7.46365 1.07316 7.67712 1.20608 7.85067L7.07107 13.7279C7.43155 14.0884 7.99878 14.1161 8.39107 13.8111L9.213 12.999L10.628 12.999L9.19239 14.435C8.41134 15.2161 7.14501 15.2161 6.36396 14.435L0.585786 8.65685C0.210714 8.28178 0 7.77307 0 7.24264L0 2C0 1.44772 0.447715 1 1 1L6.24264 1C6.77307 1 7.28178 1.21071 7.65685 1.58579ZM13 10L16 10L16 11L13 11L13 14L12 14L12 11L9 11L9 10L12 10L12 7L13 7L13 10ZM6 5.5C6 6.32843 5.32843 7 4.5 7C3.67157 7 3 6.32843 3 5.5C3 4.67157 3.67157 4 4.5 4C5.32843 4 6 4.67157 6 5.5ZM4 5.5C4 5.77614 4.22386 6 4.5 6C4.77614 6 5 5.77614 5 5.5C5 5.22386 4.77614 5 4.5 5C4.22386 5 4 5.22386 4 5.5Z" fill-rule="evenodd" stroke="rgb(0,0,0)" stroke-opacity="0" stroke-width="1" />
</svg>
