<svg viewBox="0 0 16 16" xmlns="http://www.w3.org/2000/svg" xmlns:xlink="http://www.w3.org/1999/xlink" width="16.000000" height="16.000000" fill="none">
	<rect id="操作图标/新增文件" width="16.000000" height="16.000000" x="0.000000" y="0.000000" />
	<path id="形状结合" d="M10.5058 3C11.286 3 11.9272 3.59529 12 4.35647L12.0068 4.50103L12.006 7.50307C12.006 7.77919 11.7822 8.003 11.5061 8.003C11.2299 8.003 11.006 7.77911 11.006 7.50293L11.0062 4.50103C11.0062 4.2554 10.8292 4.05111 10.5957 4.00874L4.74137 4.00068L3.00068 6.17667L3.00068 12.5065C3.00068 12.7521 3.17768 12.9564 3.41109 12.9988L7.50369 13.006C7.78014 13.006 8.0041 13.2299 8.0041 13.5063C8.0041 13.7831 7.7797 14.0075 7.5029 14.0075L3.50103 14.0075C2.7208 14.0075 2.07961 13.4122 2.00687 12.6511L2 12.5065L2 6.00205C2 5.91684 2.02175 5.83353 2.06257 5.75978L4.11101 3.18778C4.18697 3.09283 4.29416 3.02962 4.41182 3.00814L10.5058 3ZM12.0068 9.50449L12.0068 11.0051L13.5079 11.0055C13.7842 11.0055 14.0082 11.2294 14.0082 11.5058C14.0082 11.7821 13.7842 12.0062 13.5078 12.0062L12.0068 12.0061L12.0068 13.5071C12.0068 13.7835 11.7828 14.0075 11.5064 14.0075C11.2301 14.0075 11.0062 13.7835 11.0062 13.5072L11.0058 12.0061L9.50518 12.0062C9.22882 12.0062 9.00478 11.7821 9.00478 11.5058C9.00478 11.2294 9.22876 11.0055 9.50507 11.0055L11.0058 11.0051L11.0062 9.50439C11.0062 9.22807 11.2301 9.0041 11.5064 9.0041C11.7828 9.0041 12.0068 9.22814 12.0068 9.50449Z" fill="rgb(25,25,25)" fill-rule="evenodd" />
	<path id="形状结合" d="M12 4.35647L12.0068 4.50103L12.006 7.50307C12.006 7.77919 11.7822 8.003 11.5061 8.003C11.2299 8.003 11.006 7.77911 11.006 7.50293L11.0062 4.50103C11.0062 4.2554 10.8292 4.05111 10.5957 4.00874L4.74137 4.00068L3.00068 6.17667L3.00068 12.5065C3.00068 12.7521 3.17768 12.9564 3.41109 12.9988L7.50369 13.006C7.78014 13.006 8.0041 13.2299 8.0041 13.5063C8.0041 13.7831 7.7797 14.0075 7.5029 14.0075L3.50103 14.0075C2.7208 14.0075 2.07961 13.4122 2.00687 12.6511L2 12.5065L2 6.00205C2 5.91684 2.02175 5.83353 2.06257 5.75978L4.11101 3.18778C4.18697 3.09283 4.29416 3.02962 4.41182 3.00814L10.5058 3C11.286 3 11.9272 3.59529 12 4.35647ZM12.0068 11.0051L13.5079 11.0055C13.7842 11.0055 14.0082 11.2294 14.0082 11.5058C14.0082 11.7821 13.7842 12.0062 13.5078 12.0062L12.0068 12.0061L12.0068 13.5071C12.0068 13.7835 11.7828 14.0075 11.5064 14.0075C11.2301 14.0075 11.0062 13.7835 11.0062 13.5072L11.0058 12.0061L9.50518 12.0062C9.22882 12.0062 9.00478 11.7821 9.00478 11.5058C9.00478 11.2294 9.22876 11.0055 9.50507 11.0055L11.0058 11.0051L11.0062 9.50439C11.0062 9.22807 11.2301 9.0041 11.5064 9.0041C11.7828 9.0041 12.0068 9.22814 12.0068 9.50449L12.0068 11.0051Z" fill-rule="evenodd" stroke="rgb(0,0,0)" stroke-opacity="0" stroke-width="1" />
</svg>
