<svg viewBox="0 0 16 16" xmlns="http://www.w3.org/2000/svg" xmlns:xlink="http://www.w3.org/1999/xlink" width="16.000000" height="16.000000" fill="none">
	<rect id="操作图标/添加节点" width="16.000000" height="16.000000" x="0.000000" y="0.000000" />
	<path id="形状结合" d="M11.5 8.75C11.7761 8.75 12 8.97386 12 9.25L12 11.25L14 11.25C14.2761 11.25 14.5 11.4739 14.5 11.75C14.5 12.0261 14.2761 12.25 14 12.25L12 12.25L12 14.25C12 14.5261 11.7761 14.75 11.5 14.75C11.2239 14.75 11 14.5261 11 14.25L11 12.25L9 12.25C8.72386 12.25 8.5 12.0261 8.5 11.75C8.5 11.4739 8.72386 11.25 9 11.25L11 11.25L11 9.25C11 8.97386 11.2239 8.75 11.5 8.75ZM13.5 1.25C14.0523 1.25 14.5 1.69772 14.5 2.25L14.5 5.25C14.5 5.80228 14.0523 6.25 13.5 6.25L4.5 6.25L4.5 11.25L7 11.25C7.27614 11.25 7.5 11.4739 7.5 11.75C7.5 12.0261 7.27614 12.25 7 12.25L4 12.25C3.72386 12.25 3.5 12.0261 3.5 11.75L3.5 6.25L2.5 6.25C1.94772 6.25 1.5 5.80228 1.5 5.25L1.5 2.25C1.5 1.69772 1.94772 1.25 2.5 1.25L13.5 1.25ZM13.5 2.25L2.5 2.25L2.5 5.25L13.5 5.25L13.5 2.25Z" fill="rgb(25,25,25)" fill-rule="evenodd" />
	<path id="形状结合" d="M12 9.25L12 11.25L14 11.25C14.2761 11.25 14.5 11.4739 14.5 11.75C14.5 12.0261 14.2761 12.25 14 12.25L12 12.25L12 14.25C12 14.5261 11.7761 14.75 11.5 14.75C11.2239 14.75 11 14.5261 11 14.25L11 12.25L9 12.25C8.72386 12.25 8.5 12.0261 8.5 11.75C8.5 11.4739 8.72386 11.25 9 11.25L11 11.25L11 9.25C11 8.97386 11.2239 8.75 11.5 8.75C11.7761 8.75 12 8.97386 12 9.25ZM14.5 2.25L14.5 5.25C14.5 5.80228 14.0523 6.25 13.5 6.25L4.5 6.25L4.5 11.25L7 11.25C7.27614 11.25 7.5 11.4739 7.5 11.75C7.5 12.0261 7.27614 12.25 7 12.25L4 12.25C3.72386 12.25 3.5 12.0261 3.5 11.75L3.5 6.25L2.5 6.25C1.94772 6.25 1.5 5.80228 1.5 5.25L1.5 2.25C1.5 1.69772 1.94772 1.25 2.5 1.25L13.5 1.25C14.0523 1.25 14.5 1.69772 14.5 2.25ZM2.5 2.25L2.5 5.25L13.5 5.25L13.5 2.25L2.5 2.25Z" fill-rule="evenodd" stroke="rgb(0,0,0)" stroke-opacity="0" stroke-width="1" />
</svg>
