<svg viewBox="0 0 16 16" xmlns="http://www.w3.org/2000/svg" xmlns:xlink="http://www.w3.org/1999/xlink" width="16.000000" height="16.000000" fill="none">
	<rect id="操作图标/智能客服" width="16.000000" height="16.000000" x="0.000000" y="0.000000" />
	<path id="形状结合" d="M8.00373 0.5C10.7787 0.5 13.0489 2.69898 13.1635 5.44627L13.168 5.66427L14.2155 5.75275C14.8814 5.75275 15.4214 6.25442 15.4863 6.89934L15.4929 7.03013L15.4929 10.1396C15.4929 10.8462 14.9258 11.417 14.2155 11.417L12.6607 11.417C12.0678 12.6444 10.9833 13.612 9.65335 14.0611C9.54384 14.8736 8.84693 15.5 8.00373 15.5C7.08358 15.5 6.33766 14.7541 6.33766 13.8339C6.33766 12.9138 7.08358 12.1679 8.00373 12.1679C8.64481 12.1679 9.20132 12.53 9.47992 13.0608C11.069 12.4572 12.1607 10.9183 12.1607 9.1661L12.1607 6.25275L12.168 5.66427C12.168 3.36852 10.2995 1.5 8.00373 1.5C5.77305 1.5 3.95282 3.25452 3.84455 5.45656L3.83946 5.66427L3.83946 10.917C3.83946 11.1932 3.6156 11.417 3.33946 11.417L1.7847 11.417C1.07443 11.417 0.507324 10.8462 0.507324 10.1396L0.507324 7.03013C0.507324 6.32354 1.07443 5.75275 1.7847 5.75275L2.83932 5.752C2.83932 2.90158 5.15082 0.5 8.00373 0.5ZM8.00373 13.1679C7.63587 13.1679 7.33766 13.4661 7.33766 13.8339C7.33766 14.2018 7.63587 14.5 8.00373 14.5C8.37159 14.5 8.66979 14.2018 8.66979 13.8339C8.66979 13.4661 8.37159 13.1679 8.00373 13.1679ZM2.83932 6.752L1.7847 6.75275C1.65053 6.75275 1.54258 6.84211 1.51447 6.96572L1.50732 10.1396C1.50732 10.2954 1.62817 10.417 1.7847 10.417L2.83932 10.417L2.83932 6.752ZM14.2155 6.75275L13.1673 6.752L13.168 7.41519L13.1603 10.417L14.2155 10.417C14.372 10.417 14.4929 10.2954 14.4929 10.1396L14.4929 7.03013C14.4929 6.87438 14.372 6.75275 14.2155 6.75275Z" fill="rgb(25,25,25)" fill-rule="nonzero" />
</svg>
