<svg viewBox="0 0 16 16" xmlns="http://www.w3.org/2000/svg" xmlns:xlink="http://www.w3.org/1999/xlink" width="16.000000" height="16.000000" fill="none">
	<rect id="操作图标/外观设置" width="16.000000" height="16.000000" x="0.000000" y="0.000000" />
	<path id="路径" d="M8.63672 8.80061C9.33047 9.2123 10.1852 9.2123 10.8789 8.80061C11.5727 8.38891 12 7.62808 12 6.80469C12 5.53184 10.9961 4.5 9.75781 4.5C8.51948 4.5 7.51562 5.53184 7.51562 6.80469C7.51562 7.62808 7.94297 8.38891 8.63672 8.80061Z" opacity="0.400000006" fill="rgb(25,25,25)" fill-rule="evenodd" />
	<path id="路径" d="M10.8789 8.80061C11.5727 8.38891 12 7.62808 12 6.80469C12 5.53184 10.9961 4.5 9.75781 4.5C8.51948 4.5 7.51562 5.53184 7.51562 6.80469C7.51562 7.62808 7.94297 8.38891 8.63672 8.80061C9.33047 9.2123 10.1852 9.2123 10.8789 8.80061Z" opacity="0.400000006" fill-rule="evenodd" stroke="rgb(0,0,0)" stroke-opacity="0" stroke-width="1" />
	<path id="形状结合" d="M12.2002 2.72172C14.2331 4.36367 14.8499 6.63715 14.878 6.73539C15.1724 8.33523 14.934 9.54215 14.163 10.3C12.9853 11.4367 11.0366 11.0719 10.7702 11.0157C10.4057 10.9736 10.1394 11.0859 9.94308 11.3245C9.7328 11.5911 9.69073 11.9419 9.76083 12.1525C9.95711 12.7419 9.98514 13.191 9.84495 13.5278C9.43841 14.4119 8.61125 14.875 7.3635 14.875C7.06909 14.875 6.76067 14.8469 6.4242 14.8048C4.04087 14.44 2.33048 12.1103 2.26039 12.0121C-0.0388124 8.50364 1.1108 4.95308 3.28383 2.98834C5.44281 1.02361 9.04584 0.181576 12.2002 2.72172ZM4.07598 3.85134C2.4213 5.36197 1.20344 8.23743 3.24202 11.3514C3.25527 11.3514 4.6452 13.3391 6.55142 13.6174C7.83547 13.8161 8.69591 13.5776 9.01361 12.8621C9.01361 12.8488 9.0798 12.6766 8.9077 12.1465C8.73563 11.6695 8.868 11.0467 9.21217 10.6226C9.56959 10.1721 10.0991 9.97333 10.7212 10.0396C10.7345 10.0396 12.4157 10.4106 13.2629 9.58904C13.7791 9.08551 13.938 8.21093 13.713 6.99184C13.7012 6.95356 13.6639 6.83152 13.5951 6.65044L13.5154 6.45059C13.2285 5.76123 12.6044 4.56247 11.4493 3.63931C8.85475 1.51915 5.8763 2.22145 4.07598 3.85134ZM4.01562 7.42187C4.48161 7.42187 4.85938 7.79964 4.85938 8.26562C4.85938 8.73161 4.48161 9.10937 4.01562 9.10937C3.54964 9.10937 3.17188 8.73161 3.17188 8.26562C3.17188 7.79964 3.54964 7.42187 4.01562 7.42187ZM11.7344 6.4375C12.2004 6.4375 12.5781 6.81526 12.5781 7.28125C12.5781 7.74723 12.2004 8.125 11.7344 8.125C11.2684 8.125 10.8906 7.74723 10.8906 7.28125C10.8906 6.81526 11.2684 6.4375 11.7344 6.4375ZM5 4.89062C5.46598 4.89062 5.84375 5.26839 5.84375 5.73437C5.84375 6.03581 5.68293 6.31436 5.42187 6.46508C5.16082 6.6158 4.83918 6.6158 4.57812 6.46508C4.31707 6.31436 4.15625 6.03581 4.15625 5.73437C4.15625 5.26839 4.53402 4.89062 5 4.89062ZM10.3281 4.1875C10.7941 4.1875 11.1719 4.56526 11.1719 5.03125C11.1719 5.49723 10.7941 5.875 10.3281 5.875C9.86214 5.875 9.48438 5.49723 9.48438 5.03125C9.48438 4.56526 9.86214 4.1875 10.3281 4.1875ZM7.51562 3.5C7.98161 3.5 8.35938 3.87776 8.35938 4.34375C8.35938 4.80973 7.98161 5.1875 7.51562 5.1875C7.04964 5.1875 6.67188 4.80973 6.67188 4.34375C6.67188 3.87776 7.04964 3.5 7.51562 3.5Z" fill="rgb(25,25,25)" fill-rule="evenodd" />
	<path id="形状结合" d="M14.878 6.73539C15.1724 8.33523 14.934 9.54215 14.163 10.3C12.9853 11.4367 11.0366 11.0719 10.7702 11.0157C10.4057 10.9736 10.1394 11.0859 9.94308 11.3245C9.7328 11.5911 9.69073 11.9419 9.76083 12.1525C9.95711 12.7419 9.98514 13.191 9.84495 13.5278C9.43841 14.4119 8.61125 14.875 7.3635 14.875C7.06909 14.875 6.76067 14.8469 6.4242 14.8048C4.04087 14.44 2.33048 12.1103 2.26039 12.0121C-0.0388124 8.50364 1.1108 4.95308 3.28383 2.98834C5.44281 1.02361 9.04584 0.181576 12.2002 2.72172C14.2331 4.36367 14.8499 6.63715 14.878 6.73539ZM3.24202 11.3514C3.25527 11.3514 4.6452 13.3391 6.55142 13.6174C7.83547 13.8161 8.69591 13.5776 9.01361 12.8621C9.01361 12.8488 9.0798 12.6766 8.9077 12.1465C8.73563 11.6695 8.868 11.0467 9.21217 10.6226C9.56959 10.1721 10.0991 9.97333 10.7212 10.0396C10.7345 10.0396 12.4157 10.4106 13.2629 9.58904C13.7791 9.08551 13.938 8.21093 13.713 6.99184C13.7012 6.95356 13.6639 6.83152 13.5951 6.65044L13.5154 6.45059C13.2285 5.76123 12.6044 4.56247 11.4493 3.63931C8.85475 1.51915 5.8763 2.22145 4.07598 3.85134C2.4213 5.36197 1.20344 8.23743 3.24202 11.3514ZM4.85938 8.26562C4.85938 8.73161 4.48161 9.10937 4.01562 9.10937C3.54964 9.10937 3.17188 8.73161 3.17188 8.26562C3.17188 7.79964 3.54964 7.42187 4.01562 7.42187C4.48161 7.42187 4.85938 7.79964 4.85938 8.26562ZM12.5781 7.28125C12.5781 7.74723 12.2004 8.125 11.7344 8.125C11.2684 8.125 10.8906 7.74723 10.8906 7.28125C10.8906 6.81526 11.2684 6.4375 11.7344 6.4375C12.2004 6.4375 12.5781 6.81526 12.5781 7.28125ZM5.84375 5.73437C5.84375 6.03581 5.68293 6.31436 5.42187 6.46508C5.16082 6.6158 4.83918 6.6158 4.57812 6.46508C4.31707 6.31436 4.15625 6.03581 4.15625 5.73437C4.15625 5.26839 4.53402 4.89062 5 4.89062C5.46598 4.89062 5.84375 5.26839 5.84375 5.73437ZM11.1719 5.03125C11.1719 5.49723 10.7941 5.875 10.3281 5.875C9.86214 5.875 9.48438 5.49723 9.48438 5.03125C9.48438 4.56526 9.86214 4.1875 10.3281 4.1875C10.7941 4.1875 11.1719 4.56526 11.1719 5.03125ZM8.35938 4.34375C8.35938 4.80973 7.98161 5.1875 7.51562 5.1875C7.04964 5.1875 6.67188 4.80973 6.67188 4.34375C6.67188 3.87776 7.04964 3.5 7.51562 3.5C7.98161 3.5 8.35938 3.87776 8.35938 4.34375Z" fill-rule="evenodd" stroke="rgb(0,0,0)" stroke-opacity="0" stroke-width="1" />
</svg>
