<svg viewBox="0 0 16 16" xmlns="http://www.w3.org/2000/svg" xmlns:xlink="http://www.w3.org/1999/xlink" width="16.000000" height="16.000000" fill="none" customFrame="#000000">
	<rect id="操作图标/构架" width="16.000000" height="16.000000" x="0.000000" y="0.000000" fill="rgb(255,255,255)" fill-opacity="0" />
	<path id="形状结合" d="M3 1.79999L1.5 1.79999C1.22 1.79999 1 2.01999 1 2.29999C1 2.57999 1.22 2.79999 1.5 2.79999L3 2.79999C3.28 2.79999 3.5 2.57999 3.5 2.29999C3.5 2.01999 3.28 1.79999 3 1.79999ZM11.3643 1.79999L4.99902 1.79999C4.71902 1.79999 4.49902 2.01999 4.49902 2.29999C4.49902 2.57999 4.71902 2.79999 4.99902 2.79999L6.71214 2.79999L6.71214 7.75202L6.71214 11.8C6.71214 11.9839 6.73144 12.1635 6.77006 12.3389C6.80259 12.4866 6.84888 12.6316 6.90881 12.7733C6.96893 12.9154 7.04079 13.0498 7.12438 13.1764C7.21671 13.3163 7.32343 13.4468 7.44437 13.5678C7.56532 13.6887 7.69571 13.7953 7.83556 13.8877C7.96224 13.9713 8.09668 14.0432 8.23887 14.1033C8.38057 14.1633 8.52528 14.2095 8.67301 14.242C8.84846 14.2807 9.02818 14.3 9.21214 14.3L11.366 14.3C11.646 14.3 11.866 14.08 11.866 13.8C11.866 13.52 11.646 13.3 11.366 13.3L9.21214 13.3C9.09577 13.3 8.98237 13.2872 8.87193 13.2616C8.78911 13.2424 8.7079 13.2159 8.62842 13.1823C8.54611 13.1475 8.46809 13.1061 8.39436 13.0581C8.3075 13.0015 8.2264 12.9356 8.15148 12.8606C8.0765 12.7857 8.01069 12.7047 7.95407 12.6178C7.90606 12.5441 7.86462 12.466 7.82981 12.3837C7.79622 12.3043 7.76982 12.2232 7.75061 12.1404C7.72499 12.03 7.71214 11.9164 7.71214 11.8L7.71214 8.29999L11.3638 8.29999C11.6438 8.29999 11.8638 8.07999 11.8638 7.79999C11.8638 7.51999 11.6438 7.29999 11.3638 7.29999L7.71214 7.29999L7.71214 2.79999L11.3643 2.79999C11.6443 2.79999 11.8643 2.57999 11.8643 2.29999C11.8643 2.01999 11.6443 1.79999 11.3643 1.79999ZM13.4414 1.79999L14.6416 1.79999C14.9216 1.79999 15.1416 2.01999 15.1416 2.29999C15.1416 2.57999 14.9216 2.79999 14.6416 2.79999L13.4414 2.79999C13.1614 2.79999 12.9414 2.57999 12.9414 2.29999C12.9414 2.01999 13.1614 1.79999 13.4414 1.79999ZM13.4414 7.29999L14.6416 7.29999C14.9216 7.29999 15.1416 7.51999 15.1416 7.79999C15.1416 8.07999 14.9216 8.29999 14.6416 8.29999L13.4414 8.29999C13.1614 8.29999 12.9414 8.07999 12.9414 7.79999C12.9414 7.51999 13.1614 7.29999 13.4414 7.29999ZM14.6416 13.3L13.4414 13.3C13.1614 13.3 12.9414 13.52 12.9414 13.8C12.9414 14.08 13.1614 14.3 13.4414 14.3L14.6416 14.3C14.9216 14.3 15.1416 14.08 15.1416 13.8C15.1416 13.52 14.9216 13.3 14.6416 13.3Z" fill="rgb(25,25,25)" fill-rule="evenodd" />
</svg>
