<svg viewBox="0 0 16 16" xmlns="http://www.w3.org/2000/svg" xmlns:xlink="http://www.w3.org/1999/xlink" width="16.000000" height="16.000000" fill="none">
	<rect id="操作图标/绑定" width="16.000000" height="16.000000" x="0.000000" y="0.000000" />
	<path id="形状结合" d="M5.52494 6.93934C5.69851 7.1129 5.71779 7.38233 5.5828 7.5772L3.75717 9.41421C2.97612 10.1953 2.97612 11.4616 3.75717 12.2426C4.50272 12.9882 5.69043 13.0221 6.47618 12.3443L6.5856 12.2426L8.35337 10.4749C8.54863 10.2796 8.86521 10.2796 9.06047 10.4749C9.23404 10.6484 9.25333 10.9179 9.11833 11.1127L7.29271 12.9497C6.12113 14.1213 4.22164 14.1213 3.05007 12.9497C1.92034 11.82 1.87999 10.0134 2.92902 8.83535L3.05007 8.7071L4.81783 6.93934C5.0131 6.74407 5.32968 6.74407 5.52494 6.93934ZM10.1211 5.87868C10.2947 6.05224 10.314 6.32167 10.179 6.51654L6.5856 10.1213C6.39034 10.3166 6.07376 10.3166 5.87849 10.1213C5.70493 9.94775 5.68564 9.67833 5.82064 9.48346L9.41403 5.87868C9.60929 5.68341 9.92587 5.68341 10.1211 5.87868ZM12.9496 3.05025C14.0793 4.17998 14.1196 5.98657 13.0706 7.16465L12.9496 7.29289L11.1818 9.06066C10.9865 9.25592 10.6699 9.25592 10.4747 9.06066C10.3011 8.88709 10.2818 8.61767 10.4168 8.4228L12.2425 6.58578C13.0235 5.80474 13.0235 4.5384 12.2425 3.75736C11.4969 3.01181 10.3092 2.97792 9.52345 3.65569L9.41403 3.75736L7.64626 5.52512C7.451 5.72039 7.13442 5.72039 6.93915 5.52512C6.76559 5.35156 6.7463 5.08213 6.8813 4.88726L8.70692 3.05025C9.87849 1.87868 11.778 1.87868 12.9496 3.05025Z" fill="rgb(25,25,25)" fill-rule="nonzero" />
	<path id="形状结合" d="M5.5828 7.5772L3.75717 9.41421C2.97612 10.1953 2.97612 11.4616 3.75717 12.2426C4.50272 12.9882 5.69043 13.0221 6.47618 12.3443L6.5856 12.2426L8.35337 10.4749C8.54863 10.2796 8.86521 10.2796 9.06047 10.4749C9.23404 10.6484 9.25333 10.9179 9.11833 11.1127L7.29271 12.9497C6.12113 14.1213 4.22164 14.1213 3.05007 12.9497C1.92034 11.82 1.87999 10.0134 2.92902 8.83535L3.05007 8.7071L4.81783 6.93934C5.0131 6.74407 5.32968 6.74407 5.52494 6.93934C5.69851 7.1129 5.71779 7.38233 5.5828 7.5772ZM10.179 6.51654L6.5856 10.1213C6.39034 10.3166 6.07376 10.3166 5.87849 10.1213C5.70493 9.94775 5.68564 9.67833 5.82064 9.48346L9.41403 5.87868C9.60929 5.68341 9.92587 5.68341 10.1211 5.87868C10.2947 6.05224 10.314 6.32167 10.179 6.51654ZM13.0706 7.16465L12.9496 7.29289L11.1818 9.06066C10.9865 9.25592 10.6699 9.25592 10.4747 9.06066C10.3011 8.88709 10.2818 8.61767 10.4168 8.4228L12.2425 6.58578C13.0235 5.80474 13.0235 4.5384 12.2425 3.75736C11.4969 3.01181 10.3092 2.97792 9.52345 3.65569L9.41403 3.75736L7.64626 5.52512C7.451 5.72039 7.13442 5.72039 6.93915 5.52512C6.76559 5.35156 6.7463 5.08213 6.8813 4.88726L8.70692 3.05025C9.87849 1.87868 11.778 1.87868 12.9496 3.05025C14.0793 4.17998 14.1196 5.98657 13.0706 7.16465Z" fill-rule="nonzero" stroke="rgb(0,0,0)" stroke-opacity="0" stroke-width="1" />
</svg>
