<svg viewBox="0 0 16 16" xmlns="http://www.w3.org/2000/svg" xmlns:xlink="http://www.w3.org/1999/xlink" width="16.000000" height="16.000000" fill="none">
	<rect id="操作图标/分支" width="16.000000" height="16.000000" x="0.000000" y="0.000000" />
	<path id="形状结合" d="M12 1C13.1046 1 14 1.89543 14 3C14 3.93155 13.3631 4.71435 12.501 4.93673L12.5 7C12.5 8.32548 11.4685 9.41004 10.1644 9.49468L10 9.5L7 9.5C5.9315 9.5 5.01956 10.1703 4.66177 11.1134C5.44178 11.3861 6 12.1279 6 13C6 14.1046 5.10457 15 4 15C2.89543 15 2 14.1046 2 13C2 12.0681 2.63738 11.285 3.49998 11.063L3.49998 4.93699C2.63738 4.71496 2 3.93191 2 3C2 1.89543 2.89543 1 4 1C5.10457 1 6 1.89543 6 3C6 3.93155 5.36312 4.71435 4.50102 4.93673L4.49973 9.55079C5.09321 8.94501 5.9051 8.554 6.80796 8.50518L7 8.5L10 8.5C10.7797 8.5 11.4204 7.90511 11.4931 7.14446L11.5 7L11.5 4.93699C10.6374 4.71496 10 3.93191 10 3C10 1.89543 10.8954 1 12 1ZM4 12C3.44772 12 3 12.4477 3 13C3 13.5523 3.44772 14 4 14C4.55228 14 5 13.5523 5 13C5 12.4477 4.55228 12 4 12ZM4 2C3.44772 2 3 2.44772 3 3C3 3.55228 3.44772 4 4 4C4.55228 4 5 3.55228 5 3C5 2.44772 4.55228 2 4 2ZM12 2C11.4477 2 11 2.44772 11 3C11 3.55228 11.4477 4 12 4C12.5523 4 13 3.55228 13 3C13 2.44772 12.5523 2 12 2Z" fill="rgb(25,25,25)" fill-rule="evenodd" />
	<path id="形状结合" d="M14 3C14 3.93155 13.3631 4.71435 12.501 4.93673L12.5 7C12.5 8.32548 11.4685 9.41004 10.1644 9.49468L10 9.5L7 9.5C5.9315 9.5 5.01956 10.1703 4.66177 11.1134C5.44178 11.3861 6 12.1279 6 13C6 14.1046 5.10457 15 4 15C2.89543 15 2 14.1046 2 13C2 12.0681 2.63738 11.285 3.49998 11.063L3.49998 4.93699C2.63738 4.71496 2 3.93191 2 3C2 1.89543 2.89543 1 4 1C5.10457 1 6 1.89543 6 3C6 3.93155 5.36312 4.71435 4.50102 4.93673L4.49973 9.55079C5.09321 8.94501 5.9051 8.554 6.80796 8.50518L7 8.5L10 8.5C10.7797 8.5 11.4204 7.90511 11.4931 7.14446L11.5 7L11.5 4.93699C10.6374 4.71496 10 3.93191 10 3C10 1.89543 10.8954 1 12 1C13.1046 1 14 1.89543 14 3ZM3 13C3 13.5523 3.44772 14 4 14C4.55228 14 5 13.5523 5 13C5 12.4477 4.55228 12 4 12C3.44772 12 3 12.4477 3 13ZM3 3C3 3.55228 3.44772 4 4 4C4.55228 4 5 3.55228 5 3C5 2.44772 4.55228 2 4 2C3.44772 2 3 2.44772 3 3ZM11 3C11 3.55228 11.4477 4 12 4C12.5523 4 13 3.55228 13 3C13 2.44772 12.5523 2 12 2C11.4477 2 11 2.44772 11 3Z" fill-rule="evenodd" stroke="rgb(0,0,0)" stroke-opacity="0" stroke-width="1" />
</svg>
