<svg viewBox="0 0 16 16" xmlns="http://www.w3.org/2000/svg" xmlns:xlink="http://www.w3.org/1999/xlink" width="16.000000" height="16.000000" fill="none">
	<rect id="操作图标/证书" width="16.000000" height="16.000000" x="0.000000" y="0.000000" />
	<path id="形状结合" d="M12 8.5C13.9327 8.5 15.5 10.0676 15.5 12.0005C15.5 13.9333 13.9328 15.5 12 15.5C10.0673 15.5 8.5 13.9324 8.5 11.9995C8.5 10.0667 10.0672 8.5 12 8.5ZM12 1C13.0544 1 13.9182 1.81588 13.9945 2.85074L14 3L14 7.5C14 7.77614 13.7761 8 13.5 8C13.2545 8 13.0504 7.82312 13.0081 7.58988L13 3C13 2.48716 12.614 2.06449 12.1166 2.00673L12 2L4 2C3.48716 2 3.06449 2.38604 3.00673 2.88338L3 3L3 13C3 13.5128 3.38604 13.9355 3.88338 13.9933L4 14L8 14C8.27614 14 8.5 14.2239 8.5 14.5C8.5 14.7455 8.32312 14.9496 8.08988 14.9919L4 15C2.94564 15 2.08183 14.1841 2.00549 13.1493L2 13L2 3C2 1.94564 2.81588 1.08183 3.85074 1.00549L4 1L12 1ZM12 9.5C10.6194 9.5 9.5 10.619 9.5 11.9995C9.5 13.3802 10.6196 14.5 12 14.5C13.3806 14.5 14.5 13.381 14.5 12.0005C14.5 10.6198 13.3804 9.5 12 9.5ZM11.5516 10.0047C11.6738 9.75705 11.9737 9.65538 12.2213 9.77759C12.3199 9.82625 12.3997 9.90607 12.4484 10.0047L12.853 10.825L13.7591 10.957C14.002 10.9923 14.1786 11.1967 14.187 11.4336C14.1712 11.5424 14.115 11.7331 14.0362 11.8098L13.38 12.447L13.5356 13.3507C13.5771 13.5926 13.4372 13.8237 13.2145 13.9049C13.1061 13.9235 12.9074 13.929 12.8101 13.8778L12 13.451L11.1899 13.8778C10.9726 13.992 10.7096 13.9305 10.5636 13.7437C10.5125 13.6464 10.4459 13.4591 10.4644 13.3507L10.619 12.447L9.96378 11.8098C9.78801 11.6385 9.76528 11.3693 9.89777 11.1728C9.97453 11.094 10.1321 10.9728 10.2409 10.957L11.146 10.825L11.5516 10.0047ZM12 10.904L11.7942 11.3209C11.7213 11.4684 11.5806 11.5707 11.4177 11.5944L10.957 11.661L11.2905 11.9859C11.3848 12.0778 11.438 12.2021 11.4413 12.3312L11.355 12.886L11.7673 12.6704C11.8839 12.6091 12.0185 12.5969 12.1423 12.6337L12.644 12.886L12.5657 12.4285C12.5434 12.2987 12.5734 12.1668 12.6466 12.0605L13.042 11.661L12.5823 11.5944C12.452 11.5755 12.3359 11.5062 12.2573 11.4037L12 10.904ZM8.5 7C8.77614 7 9 7.22386 9 7.5C9 7.77614 8.77614 8 8.5 8L5.5 8C5.22386 8 5 7.77614 5 7.5C5 7.22386 5.22386 7 5.5 7L8.5 7ZM10.5 4C10.7761 4 11 4.22386 11 4.5C11 4.77614 10.7761 5 10.5 5L5.5 5C5.22386 5 5 4.77614 5 4.5C5 4.22386 5.22386 4 5.5 4L10.5 4Z" fill="rgb(25,25,25)" fill-rule="nonzero" />
	<path id="形状结合" d="M15.5 12.0005C15.5 13.9333 13.9328 15.5 12 15.5C10.0673 15.5 8.5 13.9324 8.5 11.9995C8.5 10.0667 10.0672 8.5 12 8.5C13.9327 8.5 15.5 10.0676 15.5 12.0005ZM13.9945 2.85074L14 3L14 7.5C14 7.77614 13.7761 8 13.5 8C13.2545 8 13.0504 7.82312 13.0081 7.58988L13 3C13 2.48716 12.614 2.06449 12.1166 2.00673L12 2L4 2C3.48716 2 3.06449 2.38604 3.00673 2.88338L3 3L3 13C3 13.5128 3.38604 13.9355 3.88338 13.9933L4 14L8 14C8.27614 14 8.5 14.2239 8.5 14.5C8.5 14.7455 8.32312 14.9496 8.08988 14.9919L4 15C2.94564 15 2.08183 14.1841 2.00549 13.1493L2 13L2 3C2 1.94564 2.81588 1.08183 3.85074 1.00549L4 1L12 1C13.0544 1 13.9182 1.81588 13.9945 2.85074ZM9.5 11.9995C9.5 13.3802 10.6196 14.5 12 14.5C13.3806 14.5 14.5 13.381 14.5 12.0005C14.5 10.6198 13.3804 9.5 12 9.5C10.6194 9.5 9.5 10.619 9.5 11.9995ZM12.2213 9.77759C12.3199 9.82625 12.3997 9.90607 12.4484 10.0047L12.853 10.825L13.7591 10.957C14.002 10.9923 14.1786 11.1967 14.187 11.4336C14.1712 11.5424 14.115 11.7331 14.0362 11.8098L13.38 12.447L13.5356 13.3507C13.5771 13.5926 13.4372 13.8237 13.2145 13.9049C13.1061 13.9235 12.9074 13.929 12.8101 13.8778L12 13.451L11.1899 13.8778C10.9726 13.992 10.7096 13.9305 10.5636 13.7437C10.5125 13.6464 10.4459 13.4591 10.4644 13.3507L10.619 12.447L9.96378 11.8098C9.78801 11.6385 9.76528 11.3693 9.89777 11.1728C9.97453 11.094 10.1321 10.9728 10.2409 10.957L11.146 10.825L11.5516 10.0047C11.6738 9.75705 11.9737 9.65538 12.2213 9.77759ZM11.7942 11.3209C11.7213 11.4684 11.5806 11.5707 11.4177 11.5944L10.957 11.661L11.2905 11.9859C11.3848 12.0778 11.438 12.2021 11.4413 12.3312L11.355 12.886L11.7673 12.6704C11.8839 12.6091 12.0185 12.5969 12.1423 12.6337L12.644 12.886L12.5657 12.4285C12.5434 12.2987 12.5734 12.1668 12.6466 12.0605L13.042 11.661L12.5823 11.5944C12.452 11.5755 12.3359 11.5062 12.2573 11.4037L12 10.904L11.7942 11.3209ZM9 7.5C9 7.77614 8.77614 8 8.5 8L5.5 8C5.22386 8 5 7.77614 5 7.5C5 7.22386 5.22386 7 5.5 7L8.5 7C8.77614 7 9 7.22386 9 7.5ZM11 4.5C11 4.77614 10.7761 5 10.5 5L5.5 5C5.22386 5 5 4.77614 5 4.5C5 4.22386 5.22386 4 5.5 4L10.5 4C10.7761 4 11 4.22386 11 4.5Z" fill-rule="nonzero" stroke="rgb(0,0,0)" stroke-opacity="0" stroke-width="1" />
</svg>
