<svg viewBox="0 0 16 16" xmlns="http://www.w3.org/2000/svg" xmlns:xlink="http://www.w3.org/1999/xlink" width="16.000000" height="16.000000" fill="none" customFrame="#000000">
	<rect id="操作图标/close1" width="16.000000" height="16.000000" x="0.000000" y="0.000000" />
	<path id="形状结合" d="M8.70719 8.00011L11.3536 5.35365C11.5516 5.15566 11.5516 4.84453 11.3536 4.64654C11.1557 4.44855 10.8445 4.44855 10.6465 4.64654L8.00008 7.293L5.35365 4.64655C5.15566 4.44856 4.84453 4.44856 4.64654 4.64655C4.44855 4.84454 4.44855 5.15567 4.64654 5.35366L7.29298 8.00011L4.64654 10.6466C4.44855 10.8445 4.44855 11.1557 4.64654 11.3537C4.84453 11.5517 5.15566 11.5517 5.35365 11.3537L8.00008 8.70722L10.6465 11.3537C10.8445 11.5517 11.1557 11.5517 11.3536 11.3537C11.5516 11.1557 11.5516 10.8446 11.3536 10.6466L8.70719 8.00011Z" fill="rgb(89,89,89)" fill-rule="evenodd" />
</svg>
