<svg viewBox="0 0 16 16" xmlns="http://www.w3.org/2000/svg" xmlns:xlink="http://www.w3.org/1999/xlink" width="16.000000" height="16.000000" fill="none">
	<rect id="操作图标/代码展开到顶" width="16.000000" height="16.000000" x="0.000000" y="0.000000" />
	<path id="形状结合" d="M1.5 11L14.5 11C14.7761 11 15 11.2239 15 11.5C15 11.7762 14.7761 12 14.5 12L1.5 12C1.22386 12 1 11.7762 1 11.5C1 11.2239 1.22386 11 1.5 11ZM8.343 4.5717L10.6365 8.39424C10.7502 8.58368 10.6888 8.82938 10.4993 8.94304C10.4372 8.98034 10.366 9.00004 10.2935 9.00004L5.70648 9.00004C5.48556 9.00004 5.30648 8.82096 5.30648 8.60004C5.30648 8.52754 5.32618 8.45641 5.36348 8.39424L7.657 4.5717C7.77066 4.38227 8.01637 4.32085 8.2058 4.4345C8.2621 4.46828 8.30922 4.5154 8.343 4.5717Z" fill="rgb(25,25,25)" fill-rule="evenodd" />
	<path id="形状结合" d="M14.5 11C14.7761 11 15 11.2239 15 11.5C15 11.7762 14.7761 12 14.5 12L1.5 12C1.22386 12 1 11.7762 1 11.5C1 11.2239 1.22386 11 1.5 11L14.5 11ZM10.6365 8.39424C10.7502 8.58368 10.6888 8.82938 10.4993 8.94304C10.4372 8.98034 10.366 9.00004 10.2935 9.00004L5.70648 9.00004C5.48556 9.00004 5.30648 8.82096 5.30648 8.60004C5.30648 8.52754 5.32618 8.45641 5.36348 8.39424L7.657 4.5717C7.77066 4.38227 8.01637 4.32085 8.2058 4.4345C8.2621 4.46828 8.30922 4.5154 8.343 4.5717L10.6365 8.39424Z" fill-rule="evenodd" stroke="rgb(0,0,0)" stroke-opacity="0" stroke-width="1" />
</svg>
