<svg viewBox="0 0 16 16" xmlns="http://www.w3.org/2000/svg" xmlns:xlink="http://www.w3.org/1999/xlink" width="16.000000" height="16.000000" fill="none">
	<rect id="操作图标/代码展开中间" width="16.000000" height="16.000000" x="0.000000" y="0.000000" />
	<path id="形状结合" d="M10.6365 11.1058L8.343 14.9284C8.22934 15.1178 7.98363 15.1792 7.7942 15.0656C7.7379 15.0318 7.69078 14.9847 7.657 14.9284L5.36348 11.1058C5.24982 10.9164 5.31125 10.6707 5.50068 10.557C5.56284 10.5197 5.63398 10.5 5.70648 10.5L10.2935 10.5C10.5144 10.5 10.6935 10.6791 10.6935 10.9C10.6935 10.9725 10.6738 11.0437 10.6365 11.1058ZM14.5 7.50004C14.7761 7.50004 15 7.7239 15 8.00004C15 8.27618 14.7761 8.50004 14.5 8.50004L1.5 8.50004C1.22386 8.50004 1 8.27618 1 8.00004C1 7.7239 1.22386 7.50004 1.5 7.50004L14.5 7.50004ZM8.343 1.0717L10.6365 4.89424C10.7502 5.08368 10.6888 5.32938 10.4993 5.44304C10.4372 5.48034 10.366 5.50004 10.2935 5.50004L5.70648 5.50004C5.48556 5.50004 5.30648 5.32096 5.30648 5.10004C5.30648 5.02754 5.32618 4.95641 5.36348 4.89424L7.657 1.0717C7.77066 0.882271 8.01637 0.820845 8.2058 0.934505C8.2621 0.968285 8.30922 1.0154 8.343 1.0717Z" fill="rgb(25,25,25)" fill-rule="evenodd" />
	<path id="形状结合" d="M8.343 14.9284C8.22934 15.1178 7.98363 15.1792 7.7942 15.0656C7.7379 15.0318 7.69078 14.9847 7.657 14.9284L5.36348 11.1058C5.24982 10.9164 5.31125 10.6707 5.50068 10.557C5.56284 10.5197 5.63398 10.5 5.70648 10.5L10.2935 10.5C10.5144 10.5 10.6935 10.6791 10.6935 10.9C10.6935 10.9725 10.6738 11.0437 10.6365 11.1058L8.343 14.9284ZM15 8.00004C15 8.27618 14.7761 8.50004 14.5 8.50004L1.5 8.50004C1.22386 8.50004 1 8.27618 1 8.00004C1 7.7239 1.22386 7.50004 1.5 7.50004L14.5 7.50004C14.7761 7.50004 15 7.7239 15 8.00004ZM10.6365 4.89424C10.7502 5.08368 10.6888 5.32938 10.4993 5.44304C10.4372 5.48034 10.366 5.50004 10.2935 5.50004L5.70648 5.50004C5.48556 5.50004 5.30648 5.32096 5.30648 5.10004C5.30648 5.02754 5.32618 4.95641 5.36348 4.89424L7.657 1.0717C7.77066 0.882271 8.01637 0.820845 8.2058 0.934505C8.2621 0.968285 8.30922 1.0154 8.343 1.0717L10.6365 4.89424Z" fill-rule="evenodd" stroke="rgb(0,0,0)" stroke-opacity="0" stroke-width="1" />
</svg>
