<svg viewBox="0 0 16 16" xmlns="http://www.w3.org/2000/svg" xmlns:xlink="http://www.w3.org/1999/xlink" width="16.000000" height="16.000000" fill="none">
	<rect id="操作图标/下收起" width="16.000000" height="16.000000" x="0.000000" y="0.000000" />
	<path id="形状结合" d="M12 2C12 0.89543 11.1046 0 10 0L2 0C0.89543 0 0 0.89543 0 2L0 10C0 11.1046 0.89543 12 2 12L10 12C11.1046 12 12 11.1046 12 10L12 2ZM2 1L7.5 1L7.5 11L2 11C1.44772 11 1 10.5523 1 10L1 2C1 1.44772 1.44772 1 2 1ZM11 2C11 1.44772 10.5523 1 10 1L8.5 1L8.5 11L10 11C10.5523 11 11 10.5523 11 10L11 2ZM3.11748 7.51989C3.29313 7.69346 3.56578 7.71275 3.76299 7.57775L5.18238 6.18656C5.35803 6.01299 5.31899 5.67432 5.18238 5.47945L3.83307 4.14612C3.63546 3.95086 3.31509 3.95086 3.11748 4.14612C2.94184 4.31969 2.98087 4.65836 3.11748 4.85323L4.10844 5.83301L3.11748 6.81279C2.94184 6.98635 2.98087 7.32503 3.11748 7.51989Z" fill="rgb(25,25,25)" fill-rule="evenodd" transform="matrix(0,1,-1,0,14,2)" />
</svg>
