<svg viewBox="0 0 16 16" xmlns="http://www.w3.org/2000/svg" xmlns:xlink="http://www.w3.org/1999/xlink" width="16.000000" height="16.000000" fill="none" customFrame="#000000">
	<rect id="操作图标/协同下发" width="16.000000" height="16.000000" x="0.000000" y="0.000000" />
	<path id="形状结合" d="M10.6686 1.33325C11.7338 1.33325 12.6044 2.16608 12.6652 3.21576L12.6686 3.33325L12.6686 6.70166C12.6686 6.9778 12.4448 7.20166 12.1686 7.20166C11.9155 7.20166 11.7063 7.01571 11.6732 6.77166L11.6686 3.33325C11.6686 2.81361 11.272 2.3863 10.7649 2.33783L4.00195 2.33325C3.48218 2.33325 3.05499 2.72999 3.00653 3.23697L3.00195 12.6673C3.00195 13.1867 3.39839 13.6136 3.90562 13.662L6.50594 13.6666C6.78208 13.6666 7.00594 13.8904 7.00594 14.1666C7.00594 14.4197 6.80999 14.6289 6.56594 14.662L4.00195 14.6666C2.93673 14.6666 2.06617 13.8343 2.00535 12.7847L2.00195 12.6673L2.00195 3.33325C2.00195 2.26835 2.83453 1.39749 3.88443 1.33665L4.00195 1.33325L10.6686 1.33325ZM10.1686 4.33332C10.1686 4.05718 9.94476 3.83332 9.66862 3.83332L5.00195 3.83332C4.7579 3.86643 4.50195 4.08019 4.50195 4.33332C4.50195 4.60947 4.72581 4.83332 5.00195 4.83332L9.66862 4.83332C9.91267 4.80021 10.1686 4.58645 10.1686 4.33332ZM8.01366 6.49995C8.2898 6.49995 8.50033 6.72381 8.50033 6.99995C8.50033 7.25308 8.31771 7.46228 8.07366 7.49538L5.00033 7.49995C4.72418 7.49995 4.50033 7.27609 4.50033 6.99995C4.50033 6.74682 4.68843 6.53762 4.93248 6.50451L8.01366 6.49995ZM11.3126 8.27318C11.2702 8.03993 11.0661 7.86305 10.8206 7.86305C10.5445 7.86305 10.3206 8.08691 10.3206 8.36305L10.3206 11.3118L9.37969 10.371C9.18482 10.236 8.84615 10.1974 8.67258 10.371C8.47732 10.5663 8.47732 10.8828 8.67258 11.0781L10.4583 12.8638C10.6532 12.9988 10.9918 13.0374 11.1654 12.8638L12.9511 11.0781C13.0861 10.8832 13.1247 10.5446 12.9511 10.371C12.7562 10.236 12.4176 10.1974 12.244 10.371L11.3206 11.2944L11.3126 8.27318ZM13.5002 11.8809C13.7456 11.8809 13.9498 12.0578 13.9921 12.291L14.0002 13.1666C14.0002 13.9463 13.4053 14.5871 12.6446 14.6598L12.5002 14.6666L9.14304 14.6666C8.36335 14.6666 7.72259 14.0717 7.64991 13.3111L7.64304 13.1666L7.64304 12.3809C7.64304 12.1048 7.8669 11.8809 8.14304 11.8809C8.3885 11.8809 8.59265 12.0578 8.63499 12.291L8.64304 13.1666C8.64304 13.4121 8.81992 13.6162 9.05317 13.6586L12.5002 13.6666C12.7456 13.6666 12.9498 13.4898 12.9921 13.2565L13.0002 12.3809C13.0002 12.1048 13.224 11.8809 13.5002 11.8809Z" fill="rgb(25,25,25)" fill-rule="evenodd" />
</svg>
