<svg viewBox="0 0 16 16" xmlns="http://www.w3.org/2000/svg" xmlns:xlink="http://www.w3.org/1999/xlink" width="16.000000" height="16.000000" fill="none">
	<rect id="操作图标/评论" width="16.000000" height="16.000000" x="0.000000" y="0.000000" />
	<path id="形状结合" d="M13 1.5C14.1046 1.5 15 2.39543 15 3.5L15 10.5C15 11.6046 14.1046 12.5 13 12.5L4.5 12.5L1 14.5L1 3.5C1 2.39543 1.89543 1.5 3 1.5L13 1.5ZM13 2.5L3 2.5C2.48716 2.5 2.06449 2.88604 2.00673 3.38338L2 3.5L2 12.5L4 11.5L13 11.5C13.5128 11.5 13.9355 11.114 13.9933 10.6166L14 10.5L14 3.5C14 2.98716 13.614 2.56449 13.1166 2.50673L13 2.5ZM8 7.5L8 8.5L4 8.5L4 7.5L8 7.5ZM12 4.5L12 5.5L4 5.5L4 4.5L12 4.5Z" fill="rgb(25,25,25)" fill-rule="evenodd" />
	<path id="形状结合" d="M15 3.5L15 10.5C15 11.6046 14.1046 12.5 13 12.5L4.5 12.5L1 14.5L1 3.5C1 2.39543 1.89543 1.5 3 1.5L13 1.5C14.1046 1.5 15 2.39543 15 3.5ZM3 2.5C2.48716 2.5 2.06449 2.88604 2.00673 3.38338L2 3.5L2 12.5L4 11.5L13 11.5C13.5128 11.5 13.9355 11.114 13.9933 10.6166L14 10.5L14 3.5C14 2.98716 13.614 2.56449 13.1166 2.50673L13 2.5L3 2.5ZM8 8.5L4 8.5L4 7.5L8 7.5L8 8.5ZM12 5.5L4 5.5L4 4.5L12 4.5L12 5.5Z" fill-rule="evenodd" stroke="rgb(0,0,0)" stroke-opacity="0" stroke-width="1" />
</svg>
