<svg viewBox="0 0 16 16" xmlns="http://www.w3.org/2000/svg" xmlns:xlink="http://www.w3.org/1999/xlink" width="16.000000" height="16.000000" fill="none" customFrame="#000000">
	<rect id="操作图标/复制copy" width="16.000000" height="16.000000" x="0.000000" y="0.000000" />
	<path id="形状结合" d="M13.4237 1.15991C14.171 1.15991 14.785 1.73001 14.8547 2.45897L14.8612 2.59741L14.8612 10.7224C14.8612 11.4696 14.2911 12.0837 13.5622 12.1533L13.4237 12.1599L12.1946 12.1599L12.1946 13.3891C12.1946 14.1363 11.6245 14.7503 10.8955 14.82L10.7571 14.8266L2.63208 14.8266C1.83817 14.8266 1.19458 14.183 1.19458 13.3891L1.19458 5.26408C1.19458 4.47017 1.83817 3.82658 2.63208 3.82658L3.86058 3.82591L3.86125 2.59741C3.86125 1.8502 4.43135 1.23615 5.16031 1.16649L5.29875 1.15991L13.4237 1.15991ZM5.29827 2.1599L13.4233 2.1599C13.6274 2.19695 13.8608 2.38263 13.8608 2.5974L13.8608 10.7224C13.8237 10.9265 13.638 11.1599 13.4233 11.1599L12.1941 11.1599L12.1941 5.26407L12.1875 5.12563C12.1179 4.39667 11.5038 3.82657 10.7566 3.82657L4.8601 3.8259L4.86077 2.5974C4.89781 2.39331 5.08349 2.1599 5.29827 2.1599ZM2.59774 4.82683L10.7227 4.82683C10.9644 4.82683 11.1602 5.02271 11.1602 5.26433L11.1602 13.3893C11.1602 13.631 10.9644 13.8268 10.7227 13.8268L2.59774 13.8268C2.35611 13.8268 2.16024 13.631 2.16024 13.3893L2.16024 5.26433C2.16024 5.02271 2.35611 4.82683 2.59774 4.82683ZM6.66024 6.32683C6.93638 6.32683 7.16024 6.55069 7.16024 6.82683L7.16024 8.82617L9.16024 8.82683C9.43638 8.82683 9.66024 9.05069 9.66024 9.32683C9.66024 9.60298 9.43638 9.82683 9.16024 9.82683L7.16024 9.82617L7.16024 11.8268C7.16024 12.103 6.93638 12.3268 6.66024 12.3268C6.3841 12.3268 6.16024 12.103 6.16024 11.8268L6.16024 9.82617L4.16024 9.82683C3.8841 9.82683 3.66024 9.60298 3.66024 9.32683C3.66024 9.05069 3.8841 8.82683 4.16024 8.82683L6.16024 8.82617L6.16024 6.82683C6.16024 6.55069 6.3841 6.32683 6.66024 6.32683Z" fill="rgb(25,25,25)" fill-rule="evenodd" />
</svg>
