<svg viewBox="0 0 16 16" xmlns="http://www.w3.org/2000/svg" xmlns:xlink="http://www.w3.org/1999/xlink" width="16.000000" height="16.000000" fill="none">
	<rect id="操作图标/复制路径" width="16.000000" height="16.000000" x="0.000000" y="0.000000" />
	<path id="形状结合" d="M5 3L5 4L4 4L4 12.9524L12 12.9524L12 4L11 4L11 3L12 3C12.5128 3 12.9355 3.38604 12.9933 3.88338L13 4L13 13C13 13.5523 12.5523 14 12 14L4 14C3.44772 14 3 13.5523 3 13L3 4C3 3.48716 3.38604 3.06449 3.88338 3.00673L4 3L5 3ZM9 2C9.55229 2 10 2.44772 10 3L10 4C10 4.55228 9.55229 5 9 5L7 5C6.44772 5 6 4.55228 6 4L6 3C6 2.44772 6.44772 2 7 2L9 2ZM9 3L7 3L7 4L9 4L9 3Z" fill="rgb(25,25,25)" fill-rule="evenodd" />
	<path id="形状结合" d="M5 4L4 4L4 12.9524L12 12.9524L12 4L11 4L11 3L12 3C12.5128 3 12.9355 3.38604 12.9933 3.88338L13 4L13 13C13 13.5523 12.5523 14 12 14L4 14C3.44772 14 3 13.5523 3 13L3 4C3 3.48716 3.38604 3.06449 3.88338 3.00673L4 3L5 3L5 4ZM10 3L10 4C10 4.55228 9.55229 5 9 5L7 5C6.44772 5 6 4.55228 6 4L6 3C6 2.44772 6.44772 2 7 2L9 2C9.55229 2 10 2.44772 10 3ZM7 3L7 4L9 4L9 3L7 3Z" fill-rule="evenodd" stroke="rgb(0,0,0)" stroke-opacity="0" stroke-width="1" />
</svg>
