<svg viewBox="0 0 16 16" xmlns="http://www.w3.org/2000/svg" xmlns:xlink="http://www.w3.org/1999/xlink" width="16.000000" height="16.000000" fill="none">
	<rect id="操作图标/数据库" width="16.000000" height="16.000000" x="0.000000" y="0.000000" />
	<path id="形状结合" d="M14 6.57877L14 16L2 16L2 6.57877L1.51859 7L0 7L8 0L16 7L14.4814 7L14 6.57877ZM13 5.70377L8 1.32877L3 5.70377L3 15L13 15L13 5.70377ZM4 11L7 11L7 14L4 14L4 11ZM5 12L5 13L6 13L6 12L5 12ZM8 11L11 11L11 14L8 14L8 11ZM9 12L9 13L10 13L10 12L9 12ZM4 7L7 7L7 10L4 10L4 7ZM5 8L5 9L6 9L6 8L5 8Z" fill="rgb(25,25,25)" fill-rule="evenodd" />
	<path id="形状结合" d="M14 16L2 16L2 6.57877L1.51859 7L0 7L8 0L16 7L14.4814 7L14 6.57877L14 16ZM8 1.32877L3 5.70377L3 15L13 15L13 5.70377L8 1.32877ZM7 11L7 14L4 14L4 11L7 11ZM5 13L6 13L6 12L5 12L5 13ZM11 11L11 14L8 14L8 11L11 11ZM9 13L10 13L10 12L9 12L9 13ZM7 7L7 10L4 10L4 7L7 7ZM5 9L6 9L6 8L5 8L5 9Z" fill-rule="evenodd" stroke="rgb(0,0,0)" stroke-opacity="0" stroke-width="1" />
</svg>
