<svg viewBox="0 0 16 16" xmlns="http://www.w3.org/2000/svg" xmlns:xlink="http://www.w3.org/1999/xlink" width="16.000000" height="16.000000" fill="none">
	<rect id="操作图标/深度思考(deepthinking)" width="16.000000" height="16.000000" x="0.000000" y="0.000000" />
	<path id="矢量 808" d="M13.0551 2.94531C12.1181 2.0083 10.105 2.40674 7.99999 3.77589C5.89525 2.40674 3.88208 2.0083 2.94507 2.94531C2.00806 3.88184 2.40649 5.89552 3.77588 8.00003C2.40674 10.105 2.0083 12.1182 2.94531 13.0552C3.88208 13.9918 5.89525 13.5938 7.99999 12.2247C10.105 13.5938 12.1179 13.9918 13.0549 13.0552C13.9919 12.1182 13.5935 10.105 12.2243 8.00003C13.5937 5.89552 13.9919 3.88184 13.0551 2.94531ZM10.3242 5.6758C10.8496 6.20119 11.3193 6.74465 11.7273 7.28957C12.0415 6.77541 12.2883 6.2759 12.4677 5.79152C12.6826 5.21095 12.781 4.70704 12.7632 4.28028C12.7488 3.93555 12.6574 3.67872 12.4895 3.51075C12.3213 3.34278 12.0647 3.25147 11.7197 3.23682C11.2929 3.21924 10.7893 3.31788 10.2087 3.53272C9.7241 3.71192 9.22484 3.9585 8.71092 4.27296C9.2556 4.68067 9.79881 5.1504 10.3242 5.6758ZM5.79149 3.53272C6.27587 3.71192 6.77538 3.9585 7.28929 4.27296C6.74462 4.68067 6.20116 5.1504 5.67602 5.6758C5.15063 6.20119 4.6809 6.74465 4.27294 7.28957C3.95874 6.77541 3.71191 6.2759 3.53247 5.79152C3.31762 5.21095 3.21924 4.70704 3.23706 4.28028C3.25146 3.93555 3.34253 3.67872 3.51074 3.51075C3.67895 3.34278 3.93554 3.25147 4.28027 3.23682C4.70727 3.21924 5.21093 3.31788 5.79149 3.53272ZM6.24169 6.24172C5.67675 6.80666 5.17748 7.3926 4.74389 8.00003C5.17748 8.60745 5.67651 9.19339 6.24144 9.75834C6.80663 10.3238 7.39281 10.8228 7.99999 11.2564C8.60741 10.8228 9.19359 10.3238 9.75853 9.75834C10.3235 9.19339 10.8227 8.60745 11.2563 8.00003C10.8227 7.3926 10.3235 6.80666 9.75853 6.24172C9.19359 5.67677 8.60741 5.17726 7.99999 4.74415C7.39281 5.17726 6.80663 5.67677 6.24169 6.24172ZM9.10789 8.00442C9.10789 7.397 8.61546 6.90481 8.00804 6.90481C7.40062 6.90481 6.90795 7.397 6.90795 8.00442C6.90795 8.61233 7.40062 9.10452 8.00804 9.10452C8.61546 9.10452 9.10789 8.61233 9.10789 8.00442ZM3.53271 10.2085C3.71191 9.72416 3.95874 9.22513 4.27294 8.71097C4.6809 9.2554 5.15063 9.79886 5.67577 10.3243C6.20116 10.8496 6.74462 11.3194 7.28929 11.7271C6.77538 12.0415 6.27611 12.2881 5.79149 12.4678C5.21117 12.6822 4.70751 12.7808 4.28051 12.7632C3.93554 12.7486 3.6792 12.6573 3.51098 12.4893C3.34277 12.3213 3.25146 12.0645 3.23706 11.7198C3.21924 11.293 3.31787 10.7891 3.53271 10.2085ZM10.2085 12.4678C9.7241 12.2881 9.22484 12.0415 8.71092 11.7271C9.2556 11.3194 9.79905 10.8496 10.3242 10.3243C10.8496 9.79886 11.3193 9.2554 11.7273 8.71097C12.0415 9.22513 12.2883 9.72416 12.4675 10.2085C12.6823 10.7891 12.7807 11.293 12.7632 11.7198C12.7488 12.0645 12.6574 12.3213 12.4892 12.4893C12.321 12.6573 12.0647 12.7486 11.7197 12.7632C11.2927 12.7808 10.789 12.6822 10.2085 12.4678Z" fill="rgb(25,25,25)" fill-rule="evenodd" />
</svg>
