<svg viewBox="0 0 16 16" xmlns="http://www.w3.org/2000/svg" xmlns:xlink="http://www.w3.org/1999/xlink" width="16.000000" height="16.000000" fill="none">
	<rect id="操作图标/英文模式" width="16.000000" height="16.000000" x="0.000000" y="0.000000" />
	<path id="形状结合" d="M13 1.5C13.8284 1.5 14.5 2.17157 14.5 3L14.5 13C14.5 13.8284 13.8284 14.5 13 14.5L3 14.5C2.17157 14.5 1.5 13.8284 1.5 13L1.5 3C1.5 2.17157 2.17157 1.5 3 1.5L13 1.5ZM13 2.5L3 2.5C2.72386 2.5 2.5 2.72386 2.5 3L2.5 13C2.5 13.2761 2.72386 13.5 3 13.5L13 13.5C13.2761 13.5 13.5 13.2761 13.5 13L13.5 3C13.5 2.72386 13.2761 2.5 13 2.5ZM7 5.16667C7.27614 5.16667 7.5 5.39052 7.5 5.66667C7.5 5.91213 7.32312 6.11627 7.08988 6.15861L4.833 6.166L4.832 7.5L6.83333 7.5C7.10948 7.5 7.33333 7.72386 7.33333 8C7.33333 8.24546 7.15646 8.44961 6.92321 8.49194L4.833 8.5L4.833 9.833L6.83333 9.83333C7.10948 9.83333 7.33333 10.0572 7.33333 10.3333C7.33333 10.5788 7.15646 10.7829 6.92321 10.8253L4.33333 10.8333C4.08787 10.8333 3.88372 10.6565 3.84139 10.4232L3.83333 5.66667C3.83333 5.42121 4.01021 5.21706 4.24346 5.17472L7 5.16667ZM8.66667 5.83333C8.91213 5.83333 9.11627 6.01021 9.15861 6.24346L9.16633 6.43442C9.46058 6.26413 9.80224 6.16667 10.1667 6.16667C11.221 6.16667 12.0848 6.98254 12.1612 8.0174L12.1667 8.16667L12.1667 10.3333C12.1667 10.6095 11.9428 10.8333 11.6667 10.8333C11.4212 10.8333 11.2171 10.6565 11.1747 10.4232L11.1667 8.16667C11.1667 7.61438 10.719 7.16667 10.1667 7.16667C9.65382 7.16667 9.23116 7.5527 9.17339 8.05005L9.16667 8.16667L9.16667 10.3333C9.16667 10.5788 8.98979 10.7829 8.75654 10.8253C8.51108 10.8253 8.21706 10.6565 8.17472 10.4232L8.16667 6.33333C8.16667 6.05719 8.39052 5.83333 8.66667 5.83333Z" fill="rgb(25,25,25)" fill-rule="evenodd" />
	<path id="形状结合" d="M14.5 3L14.5 13C14.5 13.8284 13.8284 14.5 13 14.5L3 14.5C2.17157 14.5 1.5 13.8284 1.5 13L1.5 3C1.5 2.17157 2.17157 1.5 3 1.5L13 1.5C13.8284 1.5 14.5 2.17157 14.5 3ZM3 2.5C2.72386 2.5 2.5 2.72386 2.5 3L2.5 13C2.5 13.2761 2.72386 13.5 3 13.5L13 13.5C13.2761 13.5 13.5 13.2761 13.5 13L13.5 3C13.5 2.72386 13.2761 2.5 13 2.5L3 2.5ZM7.5 5.66667C7.5 5.91213 7.32312 6.11627 7.08988 6.15861L4.833 6.166L4.832 7.5L6.83333 7.5C7.10948 7.5 7.33333 7.72386 7.33333 8C7.33333 8.24546 7.15646 8.44961 6.92321 8.49194L4.833 8.5L4.833 9.833L6.83333 9.83333C7.10948 9.83333 7.33333 10.0572 7.33333 10.3333C7.33333 10.5788 7.15646 10.7829 6.92321 10.8253L4.33333 10.8333C4.08787 10.8333 3.88372 10.6565 3.84139 10.4232L3.83333 5.66667C3.83333 5.42121 4.01021 5.21706 4.24346 5.17472L7 5.16667C7.27614 5.16667 7.5 5.39052 7.5 5.66667ZM9.15861 6.24346L9.16633 6.43442C9.46058 6.26413 9.80224 6.16667 10.1667 6.16667C11.221 6.16667 12.0848 6.98254 12.1612 8.0174L12.1667 8.16667L12.1667 10.3333C12.1667 10.6095 11.9428 10.8333 11.6667 10.8333C11.4212 10.8333 11.2171 10.6565 11.1747 10.4232L11.1667 8.16667C11.1667 7.61438 10.719 7.16667 10.1667 7.16667C9.65382 7.16667 9.23116 7.5527 9.17339 8.05005L9.16667 8.16667L9.16667 10.3333C9.16667 10.5788 8.98979 10.7829 8.75654 10.8253C8.51108 10.8253 8.21706 10.6565 8.17472 10.4232L8.16667 6.33333C8.16667 6.05719 8.39052 5.83333 8.66667 5.83333C8.91213 5.83333 9.11627 6.01021 9.15861 6.24346Z" fill-rule="evenodd" stroke="rgb(0,0,0)" stroke-opacity="0" stroke-width="1" />
</svg>
