<svg viewBox="0 0 16 16" xmlns="http://www.w3.org/2000/svg" xmlns:xlink="http://www.w3.org/1999/xlink" width="16.000000" height="16.000000" fill="none">
	<rect id="操作图标/展开" width="16.000000" height="16.000000" x="0.000000" y="0.000000" />
	<path id="形状结合" d="M13.5 13C13.7761 13 14 13.2239 14 13.5C14 13.7761 13.7761 14 13.5 14L0.5 14C0.223858 14 0 13.7761 0 13.5C0 13.2239 0.223858 13 0.5 13L13.5 13ZM2.9006 3.80248C3.1534 3.55048 3.5838 3.72888 3.5838 4.08568L3.5838 9.85128C3.5838 10.2073 3.1534 10.3857 2.9006 10.1337L0.1878 7.42088C-0.0626 7.17048 -0.0626 6.76568 0.1878 6.51608L2.9006 3.80248ZM13.5 9C13.7761 9 14 9.22386 14 9.5C14 9.77614 13.7761 10 13.5 10L5.5 10C5.22386 10 5 9.77614 5 9.5C5 9.22386 5.22386 9 5.5 9L13.5 9ZM13.5 4C13.7761 4 14 4.22386 14 4.5C14 4.77614 13.7761 5 13.5 5L5.5 5C5.22386 5 5 4.77614 5 4.5C5 4.22386 5.22386 4 5.5 4L13.5 4ZM13.5 0C13.7761 0 14 0.223858 14 0.5C14 0.776142 13.7761 1 13.5 1L0.5 1C0.223858 1 0 0.776142 0 0.5C0 0.223858 0.223858 0 0.5 0L13.5 0Z" fill="rgb(25,25,25)" fill-rule="nonzero" transform="matrix(-1,0,0,1,15,1)" />
	<path id="形状结合" d="M14 13.5C14 13.7761 13.7761 14 13.5 14L0.5 14C0.223858 14 0 13.7761 0 13.5C0 13.2239 0.223858 13 0.5 13L13.5 13C13.7761 13 14 13.2239 14 13.5ZM3.5838 4.08568L3.5838 9.85128C3.5838 10.2073 3.1534 10.3857 2.9006 10.1337L0.1878 7.42088C-0.0626 7.17048 -0.0626 6.76568 0.1878 6.51608L2.9006 3.80248C3.1534 3.55048 3.5838 3.72888 3.5838 4.08568ZM14 9.5C14 9.77614 13.7761 10 13.5 10L5.5 10C5.22386 10 5 9.77614 5 9.5C5 9.22386 5.22386 9 5.5 9L13.5 9C13.7761 9 14 9.22386 14 9.5ZM14 4.5C14 4.77614 13.7761 5 13.5 5L5.5 5C5.22386 5 5 4.77614 5 4.5C5 4.22386 5.22386 4 5.5 4L13.5 4C13.7761 4 14 4.22386 14 4.5ZM14 0.5C14 0.776142 13.7761 1 13.5 1L0.5 1C0.223858 1 0 0.776142 0 0.5C0 0.223858 0.223858 0 0.5 0L13.5 0C13.7761 0 14 0.223858 14 0.5Z" fill-rule="nonzero" stroke="rgb(0,0,0)" stroke-opacity="0" stroke-width="1" transform="matrix(-1,0,0,1,15,1)" />
</svg>
