<svg viewBox="0 0 16 16" xmlns="http://www.w3.org/2000/svg" xmlns:xlink="http://www.w3.org/1999/xlink" width="16.000000" height="16.000000" fill="none">
	<rect id="操作图标/导出" width="16.000000" height="16.000000" x="0.000000" y="0.000000" />
	<path id="形状结合" d="M6.33333 1.5C6.60948 1.5 6.83333 1.72386 6.83333 2C6.83333 2.24546 6.65646 2.44961 6.42321 2.49194L3 2.5C2.75454 2.5 2.55039 2.67688 2.50806 2.91012L2.5 13C2.5 13.2455 2.67687 13.4496 2.91012 13.4919L13 13.5C13.2455 13.5 13.4496 13.3231 13.4919 13.0899L13.5 9.66667C13.5 9.39052 13.7239 9.16667 14 9.16667C14.2455 9.16667 14.4496 9.34354 14.4919 9.57679L14.5 13C14.5 13.7797 13.9051 14.4205 13.1445 14.4931L13 14.5L3 14.5C2.2203 14.5 1.57955 13.9051 1.50687 13.1445L1.5 13L1.5 3C1.5 2.22031 2.09489 1.57955 2.85554 1.50687L3 1.5L6.33333 1.5ZM13.0426 2.00356L13.1139 2.10973L14.4743 6.17522C14.5617 6.43719 14.4201 6.72035 14.1581 6.80767C13.9253 6.8853 13.6756 6.78205 13.5617 6.57416L12.655 3.883C12.6372 3.93127 12.6132 4.00005 12.5955 4.04747L12.3846 4.5964C11.2305 7.5072 10.1432 8.66474 7.77316 9.74039L7.3278 9.93543L6.85236 10.1309C6.59597 10.2335 6.30499 10.1088 6.20243 9.85236C6.09987 9.59597 6.22458 9.30499 6.48097 9.20243L6.91683 9.02374C6.98702 8.99417 7.05601 8.96467 7.12383 8.93521L7.51711 8.75836C9.29006 7.93106 10.2096 7.0508 11.1024 5.07474L11.2936 4.63415C11.3255 4.55779 11.3574 4.47994 11.3895 4.40056L11.5828 3.90537C11.6153 3.81963 11.6479 3.73226 11.6808 3.6432L11.866 3.126L8.82478 4.14101C8.59192 4.21863 8.34231 4.11539 8.22839 3.9075C8.15077 3.67463 8.21795 3.34231 8.42584 3.22839L12.5086 1.85899C12.5444 1.84706 12.5805 1.8394 12.6166 1.83574C12.634 1.83575 12.7005 1.83407 12.7171 1.83576C12.7247 1.83792 12.8172 1.85646 12.8248 1.85899C12.8388 1.86708 13.0295 1.99436 13.0426 2.00356Z" fill="rgb(25,25,25)" fill-rule="nonzero" />
	<path id="形状结合" d="M6.83333 2C6.83333 2.24546 6.65646 2.44961 6.42321 2.49194L3 2.5C2.75454 2.5 2.55039 2.67688 2.50806 2.91012L2.5 13C2.5 13.2455 2.67687 13.4496 2.91012 13.4919L13 13.5C13.2455 13.5 13.4496 13.3231 13.4919 13.0899L13.5 9.66667C13.5 9.39052 13.7239 9.16667 14 9.16667C14.2455 9.16667 14.4496 9.34354 14.4919 9.57679L14.5 13C14.5 13.7797 13.9051 14.4205 13.1445 14.4931L13 14.5L3 14.5C2.2203 14.5 1.57955 13.9051 1.50687 13.1445L1.5 13L1.5 3C1.5 2.22031 2.09489 1.57955 2.85554 1.50687L3 1.5L6.33333 1.5C6.60948 1.5 6.83333 1.72386 6.83333 2ZM13.1139 2.10973L14.4743 6.17522C14.5617 6.43719 14.4201 6.72035 14.1581 6.80767C13.9253 6.8853 13.6756 6.78205 13.5617 6.57416L12.655 3.883C12.6372 3.93127 12.6132 4.00005 12.5955 4.04747L12.3846 4.5964C11.2305 7.5072 10.1432 8.66474 7.77316 9.74039L7.3278 9.93543L6.85236 10.1309C6.59597 10.2335 6.30499 10.1088 6.20243 9.85236C6.09987 9.59597 6.22458 9.30499 6.48097 9.20243L6.91683 9.02374C6.98702 8.99417 7.05601 8.96467 7.12383 8.93521L7.51711 8.75836C9.29006 7.93106 10.2096 7.0508 11.1024 5.07474L11.2936 4.63415C11.3255 4.55779 11.3574 4.47994 11.3895 4.40056L11.5828 3.90537C11.6153 3.81963 11.6479 3.73226 11.6808 3.6432L11.866 3.126L8.82478 4.14101C8.59192 4.21863 8.34231 4.11539 8.22839 3.9075C8.15077 3.67463 8.21795 3.34231 8.42584 3.22839L12.5086 1.85899C12.5444 1.84706 12.5805 1.8394 12.6166 1.83574C12.634 1.83575 12.7005 1.83407 12.7171 1.83576C12.7247 1.83792 12.8172 1.85646 12.8248 1.85899C12.8388 1.86708 13.0295 1.99436 13.0426 2.00356L13.1139 2.10973Z" fill-rule="nonzero" stroke="rgb(0,0,0)" stroke-opacity="0" stroke-width="1" />
</svg>
