<svg viewBox="0 0 16 16" xmlns="http://www.w3.org/2000/svg" xmlns:xlink="http://www.w3.org/1999/xlink" width="16.000000" height="16.000000" fill="none">
	<rect id="操作图标/建议反馈" width="16.000000" height="16.000000" x="0.000000" y="0.000000" />
	<path id="形状结合" d="M11.1642 0.5C12.6896 0.5 13.9562 1.59669 14.0514 3.00778L14.0571 3.17857L14.0571 6.03571C14.0571 6.33158 13.8172 6.57143 13.5214 6.57143C13.2584 6.57143 13.0397 6.38192 12.9943 6.13201L12.9857 3.17857C12.9857 2.35091 12.2677 1.65308 11.3316 1.57809L11.1642 1.57143L4.09281 1.57143C3.12854 1.57143 2.361 2.22104 2.27869 3.03359L2.27138 3.17857L2.27138 12.8214C2.27138 13.6473 2.98798 14.3467 3.92522 14.4219L4.09281 14.4286L7.62852 14.4286C7.92439 14.4286 8.16424 14.6684 8.16424 14.9643C8.16424 15.2273 7.97473 15.446 7.72482 15.4914L4.09281 15.5C2.56506 15.5 1.30068 14.4005 1.20568 12.9919L1.19995 12.8214L1.19995 3.17857C1.19995 1.74168 2.4033 0.591552 3.91054 0.505206L4.09281 0.5L11.1642 0.5ZM11.7892 8.64527C12.2237 7.89004 13.1921 7.62883 13.9493 8.06884L14.0757 8.14981C14.7312 8.61478 14.938 9.5082 14.5242 10.2204L12.2385 14.1632C12.1806 14.2632 12.0886 14.339 11.9795 14.3769L10.2509 14.9769C9.95758 15.0787 9.6459 14.8808 9.61333 14.572L9.43475 12.8792C9.42401 12.7773 9.44597 12.6747 9.49744 12.5862L11.7892 8.64527ZM11.9689 10.2521L10.4089 12.935L10.5075 13.8661L11.4942 13.5243L13.0435 10.8511L11.9689 10.2521ZM13.3743 8.85935C13.0971 8.75372 12.7767 8.86258 12.6239 9.12809L12.4542 9.41857L13.5267 10.0164L13.6902 9.73633C13.823 9.50786 13.7917 9.23332 13.633 9.04304L13.3743 8.85935ZM8.16424 8.16429C8.4601 8.16429 8.69995 8.40413 8.69995 8.7C8.69995 8.96299 8.51044 9.18172 8.26053 9.22708L4.94995 9.23571C4.65408 9.23571 4.41424 8.99587 4.41424 8.7C4.41424 8.43701 4.60375 8.21828 4.85366 8.17292L8.16424 8.16429ZM10.3071 4.78571C10.603 4.78571 10.8428 5.02556 10.8428 5.32143C10.8428 5.58442 10.6533 5.80315 10.4034 5.84851L4.94995 5.85714C4.65408 5.85714 4.41424 5.6173 4.41424 5.32143C4.41424 5.05844 4.60375 4.83971 4.85366 4.79435L10.3071 4.78571Z" fill="rgb(25,25,25)" fill-rule="nonzero" />
</svg>
