<svg viewBox="0 0 16 16" xmlns="http://www.w3.org/2000/svg" xmlns:xlink="http://www.w3.org/1999/xlink" width="16.000000" height="16.000000" fill="none">
	<rect id="操作图标/文件夹" width="16.000000" height="16.000000" x="0.000000" y="0.000000" />
	<path id="形状结合" d="M15 14C15 14.5523 14.5523 15 14 15L2 15C1.44772 15 1 14.5523 1 14L1 2C1 1.44772 1.44772 1 2 1L5.38197 1C5.76074 1 6.107 1.214 6.27639 1.55279L7 3L14 3C14.5523 3 15 3.44772 15 4L15 14ZM14 7L2 7L2 14L14 14L14 7ZM5.381 2L2 2L2 6L14 6L14 4L7 4C6.66331 4 6.35231 3.83091 6.16839 3.5554L6.10557 3.44721L5.381 2Z" fill="rgb(25,25,25)" fill-rule="evenodd" />
	<path id="形状结合" d="M14 15L2 15C1.44772 15 1 14.5523 1 14L1 2C1 1.44772 1.44772 1 2 1L5.38197 1C5.76074 1 6.107 1.214 6.27639 1.55279L7 3L14 3C14.5523 3 15 3.44772 15 4L15 14C15 14.5523 14.5523 15 14 15ZM2 7L2 14L14 14L14 7L2 7ZM2 2L2 6L14 6L14 4L7 4C6.66331 4 6.35231 3.83091 6.16839 3.5554L6.10557 3.44721L5.381 2L2 2Z" fill-rule="evenodd" stroke="rgb(0,0,0)" stroke-opacity="0" stroke-width="1" />
</svg>
