<svg viewBox="0 0 16 16" xmlns="http://www.w3.org/2000/svg" xmlns:xlink="http://www.w3.org/1999/xlink" width="16.000000" height="16.000000" fill="none">
	<rect id="操作图标/hides" width="16.000000" height="16.000000" x="0.000000" y="0.000000" />
	<path id="形状结合" d="M1.81002 2.11699L9.80544 8.82525L10.5882 9.48155L14.8328 13.0444C15.0443 13.2219 15.0719 13.5373 14.8944 13.7488C14.7169 13.9603 14.4015 13.9879 14.19 13.8104L6.19505 7.10114L5.41175 6.44586L1.16723 2.88303C0.955691 2.70553 0.928099 2.39016 1.1056 2.17862C1.2831 1.96708 1.59848 1.93949 1.81002 2.11699ZM2.36839 5.19552L3.14516 5.84793C2.63339 6.27201 2.13235 6.76822 1.64183 7.33713L1.34878 7.68721L1.129 7.96371L1.34878 8.24021C3.22512 10.5475 5.25748 11.771 7.45727 11.9427L7.73311 11.9587L8 11.9637C8.70285 11.9637 9.38893 11.8592 10.0586 11.6493L10.946 12.3945C10 12.7733 9.01779 12.9637 8 12.9637C5.06488 12.9637 2.42534 11.38 0.0992687 8.26273C-0.0330896 8.08535 -0.0330896 7.84206 0.0992687 7.66468C0.825284 6.69172 1.58184 5.86816 2.36839 5.19552ZM5.04517 7.4422L6.02214 8.26229C6.16628 9.22523 6.9969 9.96371 8 9.96371L9.02695 10.7833C8.70659 10.9 8.36073 10.9637 8 10.9637C6.34315 10.9637 5 9.62056 5 7.96371C5 7.78583 5.01548 7.61157 5.04517 7.4422ZM8 2.96371C10.9351 2.96371 13.5747 4.54743 15.9007 7.66468C16.0331 7.84206 16.0331 8.08535 15.9007 8.26273C15.1747 9.23569 14.4182 10.0593 13.6316 10.7319L12.8538 10.0803C13.3659 9.6561 13.8672 9.15967 14.358 8.59047L14.6512 8.24021L14.87 7.96271L14.6512 7.68721C12.7749 5.37994 10.7425 4.15646 8.54273 3.98475L8.26689 3.96876L8 3.96371C7.29715 3.96371 6.61107 4.06819 5.9414 4.27815L5.05299 3.53332C5.99926 3.15428 6.98185 2.96371 8 2.96371ZM8 4.96371C9.65685 4.96371 11 6.30685 11 7.96371C11 8.14158 10.9845 8.31584 10.9548 8.48521L9.97786 7.66513C9.83372 6.70218 9.0031 5.96371 8 5.96371L6.97305 5.14409C7.29341 5.02737 7.63927 4.96371 8 4.96371Z" fill="rgb(25,25,25)" fill-rule="nonzero" />
	<path id="形状结合" d="M9.80544 8.82525L10.5882 9.48155L14.8328 13.0444C15.0443 13.2219 15.0719 13.5373 14.8944 13.7488C14.7169 13.9603 14.4015 13.9879 14.19 13.8104L6.19505 7.10114L5.41175 6.44586L1.16723 2.88303C0.955691 2.70553 0.928099 2.39016 1.1056 2.17862C1.2831 1.96708 1.59848 1.93949 1.81002 2.11699L9.80544 8.82525ZM3.14516 5.84793C2.63339 6.27201 2.13235 6.76822 1.64183 7.33713L1.34878 7.68721L1.129 7.96371L1.34878 8.24021C3.22512 10.5475 5.25748 11.771 7.45727 11.9427L7.73311 11.9587L8 11.9637C8.70285 11.9637 9.38893 11.8592 10.0586 11.6493L10.946 12.3945C10 12.7733 9.01779 12.9637 8 12.9637C5.06488 12.9637 2.42534 11.38 0.0992687 8.26273C-0.0330896 8.08535 -0.0330896 7.84206 0.0992687 7.66468C0.825284 6.69172 1.58184 5.86816 2.36839 5.19552L3.14516 5.84793ZM6.02214 8.26229C6.16628 9.22523 6.9969 9.96371 8 9.96371L9.02695 10.7833C8.70659 10.9 8.36073 10.9637 8 10.9637C6.34315 10.9637 5 9.62056 5 7.96371C5 7.78583 5.01548 7.61157 5.04517 7.4422L6.02214 8.26229ZM15.9007 7.66468C16.0331 7.84206 16.0331 8.08535 15.9007 8.26273C15.1747 9.23569 14.4182 10.0593 13.6316 10.7319L12.8538 10.0803C13.3659 9.6561 13.8672 9.15967 14.358 8.59047L14.6512 8.24021L14.87 7.96271L14.6512 7.68721C12.7749 5.37994 10.7425 4.15646 8.54273 3.98475L8.26689 3.96876L8 3.96371C7.29715 3.96371 6.61107 4.06819 5.9414 4.27815L5.05299 3.53332C5.99926 3.15428 6.98185 2.96371 8 2.96371C10.9351 2.96371 13.5747 4.54743 15.9007 7.66468ZM11 7.96371C11 8.14158 10.9845 8.31584 10.9548 8.48521L9.97786 7.66513C9.83372 6.70218 9.0031 5.96371 8 5.96371L6.97305 5.14409C7.29341 5.02737 7.63927 4.96371 8 4.96371C9.65685 4.96371 11 6.30685 11 7.96371Z" fill-rule="nonzero" stroke="rgb(0,0,0)" stroke-opacity="0" stroke-width="1" />
</svg>
