<svg viewBox="0 0 16 16" xmlns="http://www.w3.org/2000/svg" xmlns:xlink="http://www.w3.org/1999/xlink" width="16.000000" height="16.000000" fill="none" customFrame="#000000">
	<rect id="操作图标/图片上传" width="16.000000" height="16.000000" x="0.000000" y="0.000000" fill="rgb(255,255,255)" fill-opacity="0" />
	<path id="形状结合" d="M15 3C15 1.89543 14.1046 1 13 1L3 1C1.89543 1 1 1.89543 1 3L1 13C1 14.1046 1.89543 15 3 15L8.67138 15C8.31903 14.7149 8.0106 14.3776 7.75782 14L3 14C2.44772 14 2 13.5523 2 13L2 3C2 2.44772 2.44772 2 3 2L13 2C13.5523 2 14 2.44772 14 3L14 7.75774C14.3776 8.01052 14.7149 8.31894 15 8.67128L15 3ZM4 5C4 4.44772 4.44772 4 5 4C5.55228 4 6 4.44772 6 5C6 5.55228 5.55228 6 5 6C4.44772 6 4 5.55228 4 5ZM11.5 7L10.5174 6.07184C10.4694 6.02183 10.4161 5.98401 10.3574 5.95839C10.2988 5.93277 10.2348 5.91934 10.1655 5.91811C10.0962 5.91688 10.0318 5.92802 9.97227 5.95154C9.91275 5.97507 9.85812 6.01097 9.80838 6.05924L4.34824 11.3588C4.14732 11.5538 3.83622 11.5492 3.64121 11.3482C3.4462 11.1473 3.45084 10.8362 3.65176 10.6412L9.1119 5.34166C9.19037 5.26551 9.27498 5.19926 9.36573 5.14291C9.44431 5.09413 9.52753 5.05275 9.61532 5.01882C9.70255 4.98511 9.79134 4.95985 9.88171 4.94305C9.98013 4.9248 10.0811 4.91645 10.1833 4.91827C10.2854 4.92008 10.3854 4.93186 10.4831 4.9536C10.573 4.97361 10.6611 5.00205 10.7473 5.03894C10.8338 5.07595 10.9154 5.12022 10.9922 5.17174C11.0809 5.23128 11.1632 5.30055 11.2389 5.37946L13.0608 7.27801C12.5745 7.09821 12.0488 7 11.5 7ZM8 11.5C8 9.567 9.567 8 11.5 8C13.433 8 15 9.567 15 11.5C15 13.433 13.433 15 11.5 15C9.567 15 8 13.433 8 11.5ZM9 11.5C9 10.1193 10.1193 9 11.5 9C12.8807 9 14 10.1193 14 11.5C14 12.8807 12.8807 14 11.5 14C10.1193 14 9 12.8807 9 11.5ZM12 11L12 10.4C12 10.12 11.78 9.89999 11.5 9.89999C11.22 9.89999 11 10.12 11 10.4L11 11L10.3999 11C10.1199 11 9.8999 11.22 9.8999 11.5C9.8999 11.78 10.1199 12 10.3999 12L11 12L11 12.6C11 12.88 11.22 13.1 11.5 13.1C11.78 13.1 12 12.88 12 12.6L12 12L12.6001 12C12.8801 12 13.1001 11.78 13.1001 11.5C13.1001 11.22 12.8801 11 12.6001 11L12 11Z" fill="rgb(25,25,25)" fill-rule="evenodd" />
</svg>
