<svg viewBox="0 0 16 16" xmlns="http://www.w3.org/2000/svg" xmlns:xlink="http://www.w3.org/1999/xlink" width="16.000000" height="16.000000" fill="none">
	<rect id="操作图标/Issue" width="16.000000" height="16.000000" x="0.000000" y="0.000000" />
	<path id="形状结合" d="M8 1C11.866 1 15 4.13401 15 8C15 11.866 11.866 15 8 15C4.13401 15 1 11.866 1 8C1 4.13401 4.13401 1 8 1ZM8 2C4.68629 2 2 4.68629 2 8C2 11.3137 4.68629 14 8 14C11.3137 14 14 11.3137 14 8C14 4.68629 11.3137 2 8 2ZM8 11C8.27614 11 8.5 11.2239 8.5 11.5C8.5 11.7761 8.27614 12 8 12C7.72386 12 7.5 11.7761 7.5 11.5C7.5 11.2239 7.72386 11 8 11ZM8 4C8.27614 4 8.5 4.22386 8.5 4.5L8.5 8.5C8.5 8.77614 8.27614 9 8 9C7.72386 9 7.5 8.77614 7.5 8.5L7.5 4.5C7.5 4.22386 7.72386 4 8 4Z" fill="rgb(25,25,25)" fill-rule="nonzero" />
	<path id="形状结合" d="M15 8C15 11.866 11.866 15 8 15C4.13401 15 1 11.866 1 8C1 4.13401 4.13401 1 8 1C11.866 1 15 4.13401 15 8ZM2 8C2 11.3137 4.68629 14 8 14C11.3137 14 14 11.3137 14 8C14 4.68629 11.3137 2 8 2C4.68629 2 2 4.68629 2 8ZM8.5 11.5C8.5 11.7761 8.27614 12 8 12C7.72386 12 7.5 11.7761 7.5 11.5C7.5 11.2239 7.72386 11 8 11C8.27614 11 8.5 11.2239 8.5 11.5ZM8.5 4.5L8.5 8.5C8.5 8.77614 8.27614 9 8 9C7.72386 9 7.5 8.77614 7.5 8.5L7.5 4.5C7.5 4.22386 7.72386 4 8 4C8.27614 4 8.5 4.22386 8.5 4.5Z" fill-rule="nonzero" stroke="rgb(0,0,0)" stroke-opacity="0" stroke-width="1" />
</svg>
