<svg viewBox="0 0 16 16.8994" xmlns="http://www.w3.org/2000/svg" xmlns:xlink="http://www.w3.org/1999/xlink" width="16.000000" height="16.899414" fill="none" customFrame="#000000">
	<rect id="操作图标/跳转链接" width="16.000000" height="16.899414" x="0.000000" y="0.000000" fill="rgb(255,255,255)" fill-opacity="0" />
	<path id="形状结合" d="M5.80005 15C6.08005 15 6.30005 14.78 6.30005 14.5C6.30005 14.22 6.08005 14 5.80005 14L3.80005 14Q3.62548 14 3.45982 13.9616C3.37699 13.9424 3.29583 13.9159 3.21633 13.8823C3.13401 13.8475 3.05598 13.8061 2.98226 13.7581C2.89532 13.7014 2.81437 13.6356 2.73939 13.5607Q2.62692 13.4482 2.54198 13.3178C2.49396 13.2441 2.45254 13.166 2.41772 13.0837C2.38411 13.0042 2.3577 12.9231 2.33849 12.8403C2.31286 12.7298 2.30005 12.6164 2.30005 12.5L2.30005 3.5C2.30005 3.3836 2.31286 3.27016 2.33849 3.1597C2.3577 3.07689 2.38411 2.99575 2.41772 2.91629C2.45254 2.83396 2.49396 2.75594 2.54198 2.68221L2.54198 2.68221Q2.62692 2.55181 2.73939 2.43934Q2.85186 2.32687 2.98226 2.24193L2.98227 2.24193Q3.09285 2.1699 3.21633 2.11767C3.2958 2.08406 3.37694 2.05765 3.45975 2.03844L3.45976 2.03844Q3.62545 2 3.80005 2L10.8 2C10.9164 2 11.0299 2.01281 11.1403 2.03843C11.2231 2.05765 11.3043 2.08406 11.3838 2.11767Q11.507 2.16979 11.6174 2.24163L11.6178 2.24191C11.7047 2.29854 11.7857 2.36435 11.8607 2.43934C11.9357 2.51433 12.0015 2.59531 12.0581 2.68226C12.1062 2.75597 12.1476 2.83398 12.1824 2.91629C12.216 2.99576 12.2424 3.0769 12.2616 3.15971Q12.3 3.3254 12.3 3.5L12.3 6.5C12.3 6.78 12.52 7 12.8 7C13.08 7 13.3 6.78 13.3 6.5L13.3 3.5Q13.3 3.22405 13.2421 2.96088L13.2421 2.96082C13.2095 2.81311 13.1633 2.66841 13.1034 2.52673Q13.0132 2.31347 12.8877 2.12347L12.8877 2.12344Q12.7492 1.91366 12.5678 1.73223Q12.3864 1.55081 12.1766 1.41233C12.0499 1.32869 11.9155 1.25681 11.7733 1.19667C11.6316 1.13674 11.4869 1.09051 11.3392 1.05797C11.1637 1.01932 10.984 1 10.8 1L3.80005 1Q3.52409 1 3.2609 1.05797C3.11318 1.09051 2.96847 1.13674 2.82678 1.19667Q2.6135 1.28688 2.42347 1.41233L2.42346 1.41233L2.42345 1.41234Q2.2137 1.55082 2.03228 1.73223Q1.85086 1.91365 1.71238 2.12342Q1.58693 2.31345 1.49672 2.52673Q1.40682 2.73927 1.35802 2.96085Q1.30005 3.22404 1.30005 3.5L1.30005 12.5C1.30005 12.684 1.31937 12.8637 1.35802 13.0392Q1.40682 13.2607 1.49672 13.4733Q1.58692 13.6865 1.71235 13.8765Q1.85084 14.0863 2.03228 14.2678C2.15323 14.3887 2.28363 14.4954 2.42348 14.5877C2.55016 14.6713 2.68459 14.7432 2.82678 14.8033C2.96848 14.8633 3.11319 14.9095 3.26092 14.942L3.26094 14.942Q3.52411 15 3.80005 15L5.80005 15ZM4.80005 4.5C4.52005 4.5 4.30005 4.72 4.30005 5C4.30005 5.28 4.52005 5.5 4.80005 5.5L9.80005 5.5C10.08 5.5 10.3 5.28 10.3 5C10.3 4.72 10.08 4.5 9.80005 4.5L4.80005 4.5ZM4.7998 7.5C4.5198 7.5 4.2998 7.72 4.2998 8C4.2998 8.28 4.5198 8.5 4.7998 8.5L8.96631 8.5C9.24631 8.5 9.46631 8.28 9.46631 8C9.46631 7.72 9.24631 7.5 8.96631 7.5L4.7998 7.5ZM13.931 12.3034L13.0825 13.1519C12.8845 13.3499 12.5734 13.3499 12.3754 13.1519C12.1774 12.9539 12.1774 12.6428 12.3754 12.4448L13.2239 11.5963C13.3062 11.514 13.3774 11.4247 13.4373 11.3285C13.4823 11.2564 13.521 11.1803 13.5534 11.1003C13.587 11.0175 13.6129 10.933 13.6311 10.847C13.6525 10.7454 13.6632 10.6417 13.6632 10.5356Q13.6632 10.3766 13.6311 10.2244L13.6311 10.2243C13.6129 10.1382 13.587 10.0538 13.5534 9.97093C13.521 9.89097 13.4823 9.81492 13.4373 9.74279Q13.3474 9.59844 13.2239 9.47498Q13.1004 9.35151 12.9561 9.26153Q12.8479 9.19407 12.7279 9.14544C12.6451 9.11185 12.5606 9.08596 12.4745 9.06779C12.373 9.04635 12.2693 9.03564 12.1632 9.03564C12.0572 9.03564 11.9534 9.04635 11.8519 9.06779C11.7658 9.08596 11.6814 9.11185 11.5985 9.14544C11.5186 9.17786 11.4425 9.21656 11.3704 9.26153Q11.226 9.35151 11.1026 9.47498L10.254 10.3235C10.0561 10.5215 9.74493 10.5215 9.54694 10.3235C9.34895 10.1255 9.34895 9.81439 9.54694 9.6164L10.3955 8.76787Q10.5906 8.57274 10.8177 8.42762C10.9452 8.34618 11.0802 8.27655 11.2227 8.21873C11.3658 8.16072 11.5117 8.11649 11.6604 8.08604C11.8246 8.05244 11.9922 8.03564 12.1632 8.03564C12.3343 8.03564 12.5019 8.05244 12.666 8.08604L12.6661 8.08605Q12.8891 8.13171 13.1037 8.21873C13.2463 8.27655 13.3813 8.34618 13.5088 8.42762Q13.7359 8.57274 13.931 8.76787C14.0611 8.89796 14.1745 9.03871 14.2713 9.19011C14.3527 9.31756 14.4223 9.45258 14.4801 9.59514C14.5382 9.73821 14.5824 9.8841 14.6128 10.0328L14.6129 10.0333Q14.6632 10.2793 14.6632 10.5356Q14.6632 10.7922 14.6128 11.0384L14.6128 11.0387Q14.5671 11.2617 14.4801 11.4761Q14.3934 11.69 14.2713 11.8812L14.2713 11.8812Q14.1261 12.1083 13.931 12.3034ZM4.30005 11C4.30005 10.72 4.52005 10.5 4.80005 10.5L6.30005 10.5C6.58005 10.5 6.80005 10.72 6.80005 11C6.80005 11.28 6.58005 11.5 6.30005 11.5L4.80005 11.5C4.52005 11.5 4.30005 11.28 4.30005 11ZM11.244 13.5762C11.442 13.3782 11.7531 13.3782 11.9511 13.5762C12.1491 13.7742 12.1491 14.0853 11.9511 14.2833L11.1026 15.1318Q10.9075 15.3269 10.6804 15.472L10.6804 15.4721L10.6803 15.4721C10.5529 15.5535 10.4179 15.6232 10.2753 15.681C10.1322 15.739 9.98634 15.7832 9.83762 15.8137C9.67346 15.8473 9.50585 15.8641 9.33481 15.8641C9.1638 15.8641 8.99622 15.8473 8.83209 15.8137Q8.60896 15.768 8.39431 15.681C8.25174 15.6232 8.11672 15.5535 7.98925 15.4721L7.98924 15.4721Q7.76216 15.327 7.56704 15.1318Q7.37197 14.9368 7.22688 14.7097L7.22681 14.7096C7.14536 14.5822 7.07572 14.4471 7.0179 14.3046C6.95988 14.1615 6.91565 14.0156 6.88521 13.8669C6.85161 13.7027 6.83481 13.5351 6.83481 13.3641C6.83481 13.193 6.85161 13.0254 6.88522 12.8612L6.88523 12.8612Q6.93089 12.6381 7.0179 12.4236C7.07572 12.281 7.14535 12.146 7.22679 12.0185L7.2268 12.0185Q7.37192 11.7914 7.56704 11.5963L8.41557 10.7478C8.61356 10.5498 8.92469 10.5498 9.12268 10.7478C9.32067 10.9458 9.32067 11.2569 9.12268 11.4549L8.27415 12.3034Q8.15068 12.4269 8.0607 12.5712C8.01573 12.6434 7.97703 12.7194 7.94461 12.7994Q7.89422 12.9236 7.86695 13.0528C7.84552 13.1543 7.83481 13.258 7.83481 13.3641C7.83481 13.4701 7.84552 13.5739 7.86695 13.6754C7.88513 13.7615 7.91101 13.8459 7.94461 13.9288C7.97703 14.0087 8.01573 14.0848 8.0607 14.1569C8.12069 14.2531 8.19184 14.3424 8.27415 14.4247C8.35645 14.507 8.44572 14.5782 8.54194 14.6382C8.61408 14.6831 8.69014 14.7218 8.7701 14.7543C8.85295 14.7879 8.93742 14.8137 9.02351 14.8319C9.12502 14.8534 9.22878 14.8641 9.33481 14.8641C9.44084 14.8641 9.54461 14.8534 9.64612 14.8319C9.73221 14.8137 9.81668 14.7879 9.89952 14.7543C9.97948 14.7218 10.0555 14.6831 10.1277 14.6382Q10.272 14.5482 10.3955 14.4247L11.244 13.5762ZM11.1026 10.8899C11.3006 10.6919 11.6117 10.6919 11.8097 10.8899C12.0077 11.0879 12.0077 11.399 11.8097 11.597L10.3955 13.0112C10.1975 13.2092 9.88635 13.2092 9.68836 13.0112C9.49037 12.8132 9.49037 12.5021 9.68836 12.3041L11.1026 10.8899Z" fill="rgb(25,25,25)" fill-rule="evenodd" />
</svg>
