<svg viewBox="0 0 16 16" xmlns="http://www.w3.org/2000/svg" xmlns:xlink="http://www.w3.org/1999/xlink" width="16.000000" height="16.000000" fill="none">
	<rect id="操作图标/大屏" width="16.000000" height="16.000000" x="0.000000" y="0.000000" />
	<path id="形状结合" d="M13 2C14.1046 2 15 2.89543 15 4L15 10C15 11.1046 14.1046 12 13 12L3 12C1.89543 12 1 11.1046 1 10L1 4C1 2.89543 1.89543 2 3 2L13 2ZM13 3L3 3C2.48716 3 2.06449 3.38604 2.00673 3.88338L2 4L2 10C2 10.5128 2.38604 10.9355 2.88338 10.9933L3 11L13 11C13.5128 11 13.9355 10.614 13.9933 10.1166L14 10L14 4C14 3.48716 13.614 3.06449 13.1166 3.00673L13 3ZM3.5 7C3.77614 7 4 7.22386 4 7.5L4 9L5.5 9C5.77614 9 6 9.22386 6 9.5C6 9.77614 5.77614 10 5.5 10L3.5 10C3.22386 10 3 9.77614 3 9.5L3 7.5C3 7.22386 3.22386 7 3.5 7ZM12.5 4C12.7761 4 13 4.22386 13 4.5L13 6.5C13 6.77614 12.7761 7 12.5 7C12.2239 7 12 6.77614 12 6.5L12 5L10.5 5C10.2239 5 10 4.77614 10 4.5C10 4.22386 10.2239 4 10.5 4L12.5 4ZM4.5 13L11.5 13C11.7761 13 12 13.2239 12 13.5C12 13.7761 11.7761 14 11.5 14L4.5 14C4.22386 14 4 13.7761 4 13.5C4 13.2239 4.22386 13 4.5 13Z" fill="rgb(25,25,25)" fill-rule="evenodd" />
	<path id="形状结合" d="M15 4L15 10C15 11.1046 14.1046 12 13 12L3 12C1.89543 12 1 11.1046 1 10L1 4C1 2.89543 1.89543 2 3 2L13 2C14.1046 2 15 2.89543 15 4ZM3 3C2.48716 3 2.06449 3.38604 2.00673 3.88338L2 4L2 10C2 10.5128 2.38604 10.9355 2.88338 10.9933L3 11L13 11C13.5128 11 13.9355 10.614 13.9933 10.1166L14 10L14 4C14 3.48716 13.614 3.06449 13.1166 3.00673L13 3L3 3ZM4 7.5L4 9L5.5 9C5.77614 9 6 9.22386 6 9.5C6 9.77614 5.77614 10 5.5 10L3.5 10C3.22386 10 3 9.77614 3 9.5L3 7.5C3 7.22386 3.22386 7 3.5 7C3.77614 7 4 7.22386 4 7.5ZM13 4.5L13 6.5C13 6.77614 12.7761 7 12.5 7C12.2239 7 12 6.77614 12 6.5L12 5L10.5 5C10.2239 5 10 4.77614 10 4.5C10 4.22386 10.2239 4 10.5 4L12.5 4C12.7761 4 13 4.22386 13 4.5ZM11.5 13C11.7761 13 12 13.2239 12 13.5C12 13.7761 11.7761 14 11.5 14L4.5 14C4.22386 14 4 13.7761 4 13.5C4 13.2239 4.22386 13 4.5 13L11.5 13Z" fill-rule="evenodd" stroke="rgb(0,0,0)" stroke-opacity="0" stroke-width="1" />
</svg>
