<svg viewBox="0 0 16 16" xmlns="http://www.w3.org/2000/svg" xmlns:xlink="http://www.w3.org/1999/xlink" width="16.000000" height="16.000000" fill="none">
	<rect id="操作图标/License" width="16.000000" height="16.000000" x="0.000000" y="0.000000" />
	<path id="形状结合" d="M8 0.5C8.24546 0.5 8.44961 0.676875 8.49194 0.910124L8.5 2L12.999 2L15.5 2C15.7761 2 16 2.22386 16 2.5C16 2.77614 15.7761 3 15.5 3L13.557 3L13.9098 3.69368L14.1865 4.26213L14.4367 4.79402L14.6603 5.28974L14.7121 5.40806L14.7622 5.52416L14.9461 5.96636L14.988 6.07139L15.0282 6.17423L15.1725 6.56378C15.3912 7.18407 15.5 7.66012 15.5 8C15.5 9.38071 14.3807 10.5 13 10.5C11.6193 10.5 10.5 9.38071 10.5 8C10.5 7.7026 10.5833 7.30095 10.7506 6.78964L10.8275 6.56378L10.9718 6.17423L11.0539 5.96636L11.1425 5.74968L11.3397 5.28974L11.5633 4.79402L11.8135 4.26213L12.0902 3.69368L12.3935 3.0883L8.5 3L8.5 14L11.5 14C11.7761 14 12 14.2239 12 14.5C12 14.7761 11.7761 15 11.5 15L4.5 15C4.22386 15 4 14.7761 4 14.5C4 14.2239 4.22386 14 4.5 14L7.5 14L7.5 3L3.557 3L3.90978 3.69368L4.1865 4.26213L4.43666 4.79402L4.6603 5.28974L4.71207 5.40806L4.76219 5.52416L4.94613 5.96636L4.98799 6.07139L5.02819 6.17423L5.17254 6.56378C5.39115 7.18407 5.5 7.66012 5.5 8C5.5 9.38071 4.38071 10.5 3 10.5C1.61929 10.5 0.5 9.38071 0.5 8C0.5 7.7026 0.583337 7.30095 0.750623 6.78964L0.827459 6.56378L0.971805 6.17423L1.05387 5.96636L1.14254 5.74968L1.3397 5.28974L1.56334 4.79402L1.8135 4.26213L2.09022 3.69368L2.39355 3.0883L0.5 3C0.223858 3 3.38177e-17 2.77614 3.83157e-33 2.5C-3.38177e-17 2.22386 0.223858 2 0.5 2L2.999 2L7.5 2L7.5 1C7.5 0.723858 7.72386 0.5 8 0.5ZM4.4144 8.5007L1.5856 8.5007C1.79172 9.08293 2.34715 9.5 3 9.5C3.65285 9.5 4.20828 9.08293 4.4144 8.5007ZM14.4144 8.5007L11.5856 8.5007C11.7917 9.08293 12.3472 9.5 13 9.5C13.6528 9.5 14.2083 9.08293 14.4144 8.5007ZM3 4.11L2.87387 4.36769L2.80623 4.50698L2.7403 4.64388L2.49354 5.16736L2.27399 5.65192L2.22336 5.76692L2.17444 5.87946L1.99581 6.30478L1.91675 6.50245L1.84453 6.69005L1.72063 7.03483C1.66181 7.208 1.61473 7.36366 1.57941 7.50151L4.42061 7.50158C4.38585 7.3659 4.33969 7.21297 4.28216 7.04307L4.22085 6.86753L4.08325 6.50245L4.00419 6.30478L3.91829 6.0971L3.72601 5.65192L3.50646 5.16736L3.2597 4.64388L3 4.11ZM13 4.11L12.8739 4.36769L12.8062 4.50698L12.7403 4.64388L12.4935 5.16736L12.274 5.65192L12.2234 5.76692L12.1744 5.87946L11.9958 6.30478L11.9167 6.50245L11.8445 6.69005L11.7206 7.03483C11.6618 7.208 11.6147 7.36366 11.5794 7.50151L14.4206 7.50158C14.3858 7.3659 14.3397 7.21297 14.2822 7.04307L14.2208 6.86753L14.0833 6.50245L14.0042 6.30478L13.9183 6.0971L13.726 5.65192L13.5065 5.16736L13.2597 4.64388L13 4.11Z" fill="rgb(25,25,25)" fill-rule="evenodd" />
	<path id="形状结合" d="M8.49194 0.910124L8.5 2L12.999 2L15.5 2C15.7761 2 16 2.22386 16 2.5C16 2.77614 15.7761 3 15.5 3L13.557 3L13.9098 3.69368L14.1865 4.26213L14.4367 4.79402L14.6603 5.28974L14.7121 5.40806L14.7622 5.52416L14.9461 5.96636L14.988 6.07139L15.0282 6.17423L15.1725 6.56378C15.3912 7.18407 15.5 7.66012 15.5 8C15.5 9.38071 14.3807 10.5 13 10.5C11.6193 10.5 10.5 9.38071 10.5 8C10.5 7.7026 10.5833 7.30095 10.7506 6.78964L10.8275 6.56378L10.9718 6.17423L11.0539 5.96636L11.1425 5.74968L11.3397 5.28974L11.5633 4.79402L11.8135 4.26213L12.0902 3.69368L12.3935 3.0883L8.5 3L8.5 14L11.5 14C11.7761 14 12 14.2239 12 14.5C12 14.7761 11.7761 15 11.5 15L4.5 15C4.22386 15 4 14.7761 4 14.5C4 14.2239 4.22386 14 4.5 14L7.5 14L7.5 3L3.557 3L3.90978 3.69368L4.1865 4.26213L4.43666 4.79402L4.6603 5.28974L4.71207 5.40806L4.76219 5.52416L4.94613 5.96636L4.98799 6.07139L5.02819 6.17423L5.17254 6.56378C5.39115 7.18407 5.5 7.66012 5.5 8C5.5 9.38071 4.38071 10.5 3 10.5C1.61929 10.5 0.5 9.38071 0.5 8C0.5 7.7026 0.583337 7.30095 0.750623 6.78964L0.827459 6.56378L0.971805 6.17423L1.05387 5.96636L1.14254 5.74968L1.3397 5.28974L1.56334 4.79402L1.8135 4.26213L2.09022 3.69368L2.39355 3.0883L0.5 3C0.223858 3 3.38177e-17 2.77614 3.83157e-33 2.5C-3.38177e-17 2.22386 0.223858 2 0.5 2L2.999 2L7.5 2L7.5 1C7.5 0.723858 7.72386 0.5 8 0.5C8.24546 0.5 8.44961 0.676875 8.49194 0.910124ZM1.5856 8.5007C1.79172 9.08293 2.34715 9.5 3 9.5C3.65285 9.5 4.20828 9.08293 4.4144 8.5007L1.5856 8.5007ZM11.5856 8.5007C11.7917 9.08293 12.3472 9.5 13 9.5C13.6528 9.5 14.2083 9.08293 14.4144 8.5007L11.5856 8.5007ZM2.87387 4.36769L2.80623 4.50698L2.7403 4.64388L2.49354 5.16736L2.27399 5.65192L2.22336 5.76692L2.17444 5.87946L1.99581 6.30478L1.91675 6.50245L1.84453 6.69005L1.72063 7.03483C1.66181 7.208 1.61473 7.36366 1.57941 7.50151L4.42061 7.50158C4.38585 7.3659 4.33969 7.21297 4.28216 7.04307L4.22085 6.86753L4.08325 6.50245L4.00419 6.30478L3.91829 6.0971L3.72601 5.65192L3.50646 5.16736L3.2597 4.64388L3 4.11L2.87387 4.36769ZM12.8739 4.36769L12.8062 4.50698L12.7403 4.64388L12.4935 5.16736L12.274 5.65192L12.2234 5.76692L12.1744 5.87946L11.9958 6.30478L11.9167 6.50245L11.8445 6.69005L11.7206 7.03483C11.6618 7.208 11.6147 7.36366 11.5794 7.50151L14.4206 7.50158C14.3858 7.3659 14.3397 7.21297 14.2822 7.04307L14.2208 6.86753L14.0833 6.50245L14.0042 6.30478L13.9183 6.0971L13.726 5.65192L13.5065 5.16736L13.2597 4.64388L13 4.11L12.8739 4.36769Z" fill-rule="evenodd" stroke="rgb(0,0,0)" stroke-opacity="0" stroke-width="1" />
</svg>
