<svg viewBox="0 0 16 16" xmlns="http://www.w3.org/2000/svg" xmlns:xlink="http://www.w3.org/1999/xlink" width="16.000000" height="16.000000" fill="none">
	<rect id="操作图标/点赞(like)" width="16.000000" height="16.000000" x="0.000000" y="0.000000" />
	<path id="dislike" d="M10.552 0C12.1417 0 13.1629 0.458308 13.4908 1.44873C13.8108 2.41553 14.1757 4.00916 14.2917 5.29297L14.3098 5.51465L14.3308 5.92536C14.3826 7.65637 13.9145 8.74072 12.6502 8.74072L8.55591 8.74103L8.60108 8.88104C9.02005 10.2178 9.18555 11.2475 9.08695 11.9924C8.89815 13.4197 7.75318 14.6334 6.67652 14.2728L6.55713 14.2262C6.03589 13.9929 5.86426 13.596 5.70117 12.6535L5.54492 11.7217L5.4978 11.5065C5.4231 11.1821 5.33277 10.9107 5.21558 10.6747C4.8313 9.90099 4.28443 9.23379 3.57056 8.67005L1.60156 8.67029C0.71704 8.67029 0 7.95325 0 7.06873L0 1.60523C0 0.720708 0.71704 0.00360096 1.60156 0.00360096L3.83325 0L10.552 0ZM10.552 0.999998L4.33301 0.999998L4.33301 8.00299L4.41699 8.07147L4.67966 8.30702C5.27568 8.86815 5.75348 9.5097 6.11109 10.2301C6.23584 10.481 6.33399 10.7509 6.4148 11.051L6.50098 11.4091L6.56079 11.716L6.69336 12.5194L6.70252 12.5694L6.71167 12.6176L6.76441 12.8675L6.79385 12.9821C6.85222 13.1918 6.90783 13.2875 6.96558 13.3135C7.30152 13.4638 7.97461 12.776 8.09571 11.8612C8.17749 11.2434 8.00025 10.2404 7.55029 8.88068C7.51196 8.76435 7.49854 8.64173 7.51099 8.52033C7.55908 8.04529 7.98218 7.6991 8.45679 7.74286L12.6502 7.74072L12.7288 7.73473C13.2127 7.65888 13.4295 6.86337 13.2959 5.38294C13.1875 4.18329 12.8392 2.66217 12.5415 1.76294L12.5058 1.67462L12.4594 1.59119C12.2167 1.21352 11.6089 0.999998 10.552 0.999998ZM3.33277 1.0036L1.60156 1.0036C1.26929 1.0036 1 1.27295 1 1.60523L1 7.06867L1.00781 7.16626C1.05445 7.45215 1.30249 7.67029 1.60156 7.67029L3.33277 7.6706L3.33277 1.0036Z" fill="rgb(25,25,25)" fill-rule="evenodd" transform="matrix(1,0,0,-1,1,15.3369)" />
</svg>
