<svg viewBox="0 0 16 16" xmlns="http://www.w3.org/2000/svg" xmlns:xlink="http://www.w3.org/1999/xlink" width="16.000000" height="16.000000" fill="none">
	<rect id="操作图标/列表视图" width="16.000000" height="16.000000" x="0.000000" y="0.000000" />
	<path id="形状结合" d="M13 2C13.5523 2 14 2.44772 14 3L14 6C14 6.55228 13.5523 7 13 7L3 7C2.44772 7 2 6.55228 2 6L2 3C2 2.44772 2.44772 2 3 2L13 2ZM13 3L3 3L3 6L13 6L13 3ZM13 9C13.5523 9 14 9.44771 14 10L14 13C14 13.5523 13.5523 14 13 14L3 14C2.44772 14 2 13.5523 2 13L2 10C2 9.44771 2.44772 9 3 9L13 9ZM13 10L3 10L3 13L13 13L13 10Z" fill="rgb(25,25,25)" fill-rule="evenodd" />
	<path id="形状结合" d="M14 3L14 6C14 6.55228 13.5523 7 13 7L3 7C2.44772 7 2 6.55228 2 6L2 3C2 2.44772 2.44772 2 3 2L13 2C13.5523 2 14 2.44772 14 3ZM3 3L3 6L13 6L13 3L3 3ZM14 10L14 13C14 13.5523 13.5523 14 13 14L3 14C2.44772 14 2 13.5523 2 13L2 10C2 9.44771 2.44772 9 3 9L13 9C13.5523 9 14 9.44771 14 10ZM3 10L3 13L13 13L13 10L3 10Z" fill-rule="evenodd" stroke="rgb(0,0,0)" stroke-opacity="0" stroke-width="1" />
</svg>
