<svg viewBox="0 0 16 16" xmlns="http://www.w3.org/2000/svg" xmlns:xlink="http://www.w3.org/1999/xlink" width="16.000000" height="16.000000" fill="none">
	<rect id="操作图标/退出登录" width="16.000000" height="16.000000" x="0.000000" y="0.000000" />
	<path id="形状结合" d="M12.2047 0.96875C13.1598 0.96875 13.8901 1.67188 13.8901 2.59128L13.8901 3.67311C13.8901 3.99753 13.6654 4.21395 13.3283 4.21395C12.9912 4.21395 12.7665 3.99755 12.7665 3.67311L12.7665 2.59128C12.7665 2.26686 12.5418 2.05044 12.2047 2.05044L2.65414 2.05044C2.31706 2.05044 2.09234 2.26686 2.09234 2.59128L2.09234 13.4087C2.09234 13.7332 2.31706 13.9496 2.65414 13.9496L12.2047 13.9496C12.5418 13.9496 12.7665 13.7332 12.7665 13.4087L12.7665 12.3269C12.7665 12.0025 12.9912 11.7861 13.3283 11.7861C13.6654 11.7861 13.8901 12.0025 13.8901 12.3269L13.8901 13.4087C13.8901 14.3281 13.1598 15.0313 12.2047 15.0313L2.65414 15.0313C1.69917 15.0313 0.96875 14.3281 0.96875 13.4087L0.96875 2.59128C0.96875 1.67188 1.69916 0.96875 2.65414 0.96875L12.2047 0.96875ZM11.2497 4.91711C11.4744 4.70069 11.8115 4.70069 12.0362 4.91711L14.8453 7.62147C15.0701 7.78375 15.0701 8.10817 14.9016 8.27045L12.0364 11.083C11.924 11.1911 11.8117 11.2452 11.643 11.2452C11.4746 11.2452 11.3622 11.1912 11.2498 11.083C11.0251 10.8667 11.0251 10.5421 11.2498 10.3257L13.1036 8.54087L7.71033 8.54087C7.37325 8.54087 7.14853 8.32459 7.14853 8.00003C7.14853 7.67547 7.37325 7.45919 7.71033 7.45919L13.1036 7.45919L11.2497 5.67438C11.025 5.45795 11.025 5.13339 11.2497 4.91711Z" fill="rgb(25,25,25)" fill-rule="evenodd" />
	<path id="形状结合" d="M13.8901 2.59128L13.8901 3.67311C13.8901 3.99753 13.6654 4.21395 13.3283 4.21395C12.9912 4.21395 12.7665 3.99755 12.7665 3.67311L12.7665 2.59128C12.7665 2.26686 12.5418 2.05044 12.2047 2.05044L2.65414 2.05044C2.31706 2.05044 2.09234 2.26686 2.09234 2.59128L2.09234 13.4087C2.09234 13.7332 2.31706 13.9496 2.65414 13.9496L12.2047 13.9496C12.5418 13.9496 12.7665 13.7332 12.7665 13.4087L12.7665 12.3269C12.7665 12.0025 12.9912 11.7861 13.3283 11.7861C13.6654 11.7861 13.8901 12.0025 13.8901 12.3269L13.8901 13.4087C13.8901 14.3281 13.1598 15.0313 12.2047 15.0313L2.65414 15.0313C1.69917 15.0313 0.96875 14.3281 0.96875 13.4087L0.96875 2.59128C0.96875 1.67188 1.69916 0.96875 2.65414 0.96875L12.2047 0.96875C13.1598 0.96875 13.8901 1.67188 13.8901 2.59128ZM12.0362 4.91711L14.8453 7.62147C15.0701 7.78375 15.0701 8.10817 14.9016 8.27045L12.0364 11.083C11.924 11.1911 11.8117 11.2452 11.643 11.2452C11.4746 11.2452 11.3622 11.1912 11.2498 11.083C11.0251 10.8667 11.0251 10.5421 11.2498 10.3257L13.1036 8.54087L7.71033 8.54087C7.37325 8.54087 7.14853 8.32459 7.14853 8.00003C7.14853 7.67547 7.37325 7.45919 7.71033 7.45919L13.1036 7.45919L11.2497 5.67438C11.025 5.45795 11.025 5.13339 11.2497 4.91711C11.4744 4.70069 11.8115 4.70069 12.0362 4.91711Z" fill-rule="evenodd" stroke="rgb(0,0,0)" stroke-opacity="0" stroke-width="1" />
</svg>
