<svg viewBox="0 0 16 16" xmlns="http://www.w3.org/2000/svg" xmlns:xlink="http://www.w3.org/1999/xlink" width="16.000000" height="16.000000" fill="none">
	<rect id="操作图标/成员" width="16.000000" height="16.000000" x="0.000000" y="0.000000" />
	<path id="形状结合" d="M8 9C10.2091 9 12 10.7909 12 13L12 15L0 15L0 13C0 10.7909 1.79086 9 4 9L8 9ZM12 8C14.2091 8 16 9.79086 16 12L16 14L12.9992 14L13 13L15 13L15 12C15 10.4023 13.7511 9.09634 12.1763 9.00509L12 9L10.9999 8.9999C10.3157 8.48624 9.49539 8.14415 8.60276 8.03747L12 8ZM8 10L4 10C2.40232 10 1.09634 11.2489 1.00509 12.8237L1 13L1 14L11 14L11 13C11 11.4023 9.75108 10.0963 8.17627 10.0051L8 10ZM6 2C7.65685 2 9 3.34315 9 5C9 6.65685 7.65685 8 6 8C4.34315 8 3 6.65685 3 5C3 3.34315 4.34315 2 6 2ZM10 1C11.6569 1 13 2.34315 13 4C13 5.65685 11.6569 7 10 7C9.82526 7 9.65402 6.98506 9.48747 6.95639C9.65723 6.65839 9.78784 6.33604 9.87495 5.99625C9.91539 5.99868 9.95754 6 10 6C11.1046 6 12 5.10457 12 4C12 2.89543 11.1046 2 10 2C9.61411 2 9.25374 2.10929 8.94816 2.29861C8.71678 2.04402 8.45095 1.81968 8.15916 1.63222C8.66593 1.23606 9.3054 1 10 1ZM6 3C4.89543 3 4 3.89543 4 5C4 6.10457 4.89543 7 6 7C7.10457 7 8 6.10457 8 5C8 3.89543 7.10457 3 6 3Z" fill="rgb(25,25,25)" fill-rule="evenodd" />
	<path id="形状结合" d="M12 13L12 15L0 15L0 13C0 10.7909 1.79086 9 4 9L8 9C10.2091 9 12 10.7909 12 13ZM16 12L16 14L12.9992 14L13 13L15 13L15 12C15 10.4023 13.7511 9.09634 12.1763 9.00509L12 9L10.9999 8.9999C10.3157 8.48624 9.49539 8.14415 8.60276 8.03747L12 8C14.2091 8 16 9.79086 16 12ZM4 10C2.40232 10 1.09634 11.2489 1.00509 12.8237L1 13L1 14L11 14L11 13C11 11.4023 9.75108 10.0963 8.17627 10.0051L8 10L4 10ZM9 5C9 6.65685 7.65685 8 6 8C4.34315 8 3 6.65685 3 5C3 3.34315 4.34315 2 6 2C7.65685 2 9 3.34315 9 5ZM13 4C13 5.65685 11.6569 7 10 7C9.82526 7 9.65402 6.98506 9.48747 6.95639C9.65723 6.65839 9.78784 6.33604 9.87495 5.99625C9.91539 5.99868 9.95754 6 10 6C11.1046 6 12 5.10457 12 4C12 2.89543 11.1046 2 10 2C9.61411 2 9.25374 2.10929 8.94816 2.29861C8.71678 2.04402 8.45095 1.81968 8.15916 1.63222C8.66593 1.23606 9.3054 1 10 1C11.6569 1 13 2.34315 13 4ZM4 5C4 6.10457 4.89543 7 6 7C7.10457 7 8 6.10457 8 5C8 3.89543 7.10457 3 6 3C4.89543 3 4 3.89543 4 5Z" fill-rule="evenodd" stroke="rgb(0,0,0)" stroke-opacity="0" stroke-width="1" />
</svg>
