<svg viewBox="0 0 16 16" xmlns="http://www.w3.org/2000/svg" xmlns:xlink="http://www.w3.org/1999/xlink" width="16.000000" height="16.000000" fill="none">
	<rect id="操作图标/消息(mobile-message-border)" width="16.000000" height="16.000000" x="0.000000" y="0.000000" />
	<path id="合并" d="M3.61 14.3902C4.36 14.1102 4.94 13.7902 5.36 13.4302C5.57 13.2502 5.6 12.9402 5.42 12.7302C5.24 12.5202 4.93 12.4902 4.71 12.6702C4.38 12.9602 3.9 13.2202 3.26 13.4602C2.95 13.5802 2.65 13.6702 2.35 13.7502C2.46 13.5102 2.55 13.2902 2.62 13.0802C2.78 12.6202 2.89 12.1402 2.97 11.6302C3 11.4502 2.95 11.3002 2.81 11.1802C2.24 10.6702 1.8 10.0902 1.48 9.45016C1.29 9.04016 1.14 8.60016 1.06 8.16016C1.02 7.90016 1 7.63016 1 7.36016C1 7.08016 1.02 6.80016 1.07 6.52016C1.15 6.06016 1.31 5.61016 1.53 5.17016C1.88 4.51016 2.38 3.88016 3.01 3.36016C3.65 2.84016 4.42 2.41016 5.24 2.12016C5.41 2.06016 5.57 2.01016 5.74 1.96016C6.47 1.76016 7.22 1.66016 8 1.66016C8.77 1.66016 9.52 1.76016 10.25 1.96016C10.42 2.01016 10.58 2.06016 10.75 2.12016C11.57 2.41016 12.3 2.81016 12.94 3.33016C13.56 3.84016 14.09 4.47016 14.44 5.13016C14.66 5.57016 14.84 6.06016 14.92 6.52016C14.97 6.80016 15 7.08016 15 7.36016C15 7.64016 14.97 7.92016 14.92 8.19016C14.84 8.65016 14.68 9.10016 14.46 9.54016C14.11 10.2002 13.61 10.8402 12.98 11.3502C12.34 11.8702 11.57 12.3102 10.75 12.5902C10.58 12.6502 10.42 12.7002 10.25 12.7502C9.53 12.9502 8.77 13.0502 8 13.0502C7.63 13.0502 7.26 13.0302 6.9 12.9802C6.63 12.9502 6.38 13.1402 6.35 13.4202C6.31 13.6902 6.5 13.9402 6.78 13.9802C7.18 14.0302 7.59 14.0502 8 14.0502C9.07 14.0502 10.1 13.8802 11.08 13.5402C11.96 13.2302 12.75 12.8102 13.44 12.2602C13.5 12.2202 13.56 12.1702 13.62 12.1202C14.3 11.5602 14.84 10.9202 15.24 10.2002C15.28 10.1402 15.31 10.0702 15.35 10.0002C15.61 9.49016 15.79 8.96016 15.89 8.43016C15.96 8.08016 16 7.72016 16 7.36016C16 7.00016 15.96 6.64016 15.89 6.29016C15.79 5.75016 15.61 5.23016 15.35 4.72016C15.31 4.65016 15.28 4.58016 15.24 4.51016C14.84 3.79016 14.3 3.15016 13.62 2.59016C13.56 2.54016 13.5 2.50016 13.44 2.45016C12.75 1.91016 11.96 1.48016 11.08 1.18016C10.86 1.10016 10.64 1.03016 10.42 0.970156C9.64 0.770156 8.83 0.660156 8 0.660156C7.16 0.660156 6.35 0.770156 5.57 0.970156C5.35 1.03016 5.13 1.10016 4.91 1.18016C4.03 1.48016 3.24 1.91016 2.55 2.45016C2.49 2.50016 2.43 2.54016 2.37 2.59016C1.69 3.15016 1.15 3.79016 0.75 4.51016C0.71 4.58016 0.68 4.65016 0.64 4.72016C0.38 5.23016 0.2 5.75016 0.1 6.29016C0.03 6.64016 0 7.00016 0 7.36016C0 7.71016 0.03 8.05016 0.09 8.38016C0.18 8.89016 0.34 9.38016 0.57 9.87016C0.6 9.93016 0.63 9.99016 0.67 10.0502C0.99 10.6602 1.41 11.2302 1.94 11.7402C1.87 12.0902 1.79 12.4302 1.68 12.7502C1.54 13.1502 1.31 13.6402 1 14.2102C0.97 14.2502 0.95 14.3002 0.94 14.3602C0.93 14.4102 0.93 14.4602 0.94 14.5102C0.96 14.6802 1.02 14.8002 1.11 14.8702C1.21 14.9402 1.34 14.9702 1.5 14.9402C2.18 14.8502 2.88 14.6702 3.61 14.3902ZM3.56 7.41016C3.56 6.91016 3.97 6.50016 4.48 6.50016C4.98 6.50016 5.39 6.91016 5.39 7.41016C5.39 7.92016 4.98 8.33016 4.48 8.33016C3.97 8.33016 3.56 7.92016 3.56 7.41016ZM8.01 6.50016C7.51 6.50016 7.1 6.91016 7.1 7.41016C7.1 7.92016 7.51 8.33016 8.01 8.33016C8.52 8.33016 8.93 7.92016 8.93 7.41016C8.93 6.91016 8.52 6.50016 8.01 6.50016ZM10.6 7.41016C10.6 6.91016 11.01 6.50016 11.51 6.50016C12.02 6.50016 12.43 6.91016 12.43 7.41016C12.43 7.92016 12.02 8.33016 11.51 8.33016C11.01 8.33016 10.6 7.92016 10.6 7.41016Z" fill="rgb(25,25,25)" fill-rule="evenodd" />
</svg>
