<svg viewBox="0 0 16 16" xmlns="http://www.w3.org/2000/svg" xmlns:xlink="http://www.w3.org/1999/xlink" width="16.000000" height="16.000000" fill="none">
	<rect id="操作图标/微服务" width="16.000000" height="16.000000" x="0.000000" y="0.000000" />
	<path id="形状结合" d="M3.86151 0.147776L7.24403 1.04599C7.59088 1.13809 7.86177 1.40898 7.95388 1.75582L8.85217 5.13836C8.94366 5.48289 8.84484 5.85007 8.59279 6.10213L6.10221 8.59278C5.85016 8.84484 5.48298 8.94367 5.13845 8.85218L1.75592 7.95397C1.40908 7.86187 1.13818 7.59098 1.04607 7.24414L0.147781 3.8616C0.0562873 3.51707 0.155108 3.14989 0.407163 2.89783L2.89774 0.407184C3.1498 0.155119 3.51698 0.0562883 3.86151 0.147776ZM3.5705 0.99998L0.999976 3.57057L1.92946 7.07057L5.42946 7.99998L7.99998 5.42939L7.0705 1.92939L3.5705 0.99998ZM9.49429 8.14778L12.3768 8.91322C12.7237 9.00532 12.9946 9.27621 13.0867 9.62305L13.8522 12.5056C13.9437 12.8501 13.8448 13.2173 13.5928 13.4694L11.4694 15.5928C11.2174 15.8448 10.8502 15.9437 10.5057 15.8522L7.62314 15.0867C7.27629 14.9946 7.00539 14.7238 6.91329 14.3769L6.14778 11.4944C6.05629 11.1498 6.15511 10.7827 6.40716 10.5306L8.53052 8.40718C8.78258 8.15512 9.14976 8.05629 9.49429 8.14778ZM9.20328 8.99998L6.99998 11.2033L7.79667 14.2033L10.7967 15L13 12.7966L12.2033 9.79661L9.20328 8.99998ZM12.7599 2.14778L14.6424 2.64767C14.9892 2.73977 15.2601 3.01067 15.3522 3.35751L15.8522 5.24005C15.9437 5.58457 15.8448 5.95175 15.5928 6.20381L14.2039 7.59278C13.9518 7.84484 13.5846 7.94367 13.2401 7.85218L11.3576 7.35229C11.0107 7.26019 10.7398 6.9893 10.6477 6.64245L10.1478 4.75991C10.0563 4.41539 10.1551 4.04821 10.4072 3.79615L11.7961 2.40718C12.0481 2.15512 12.4153 2.05629 12.7599 2.14778ZM12.4688 2.99998L11 4.46889L11.5311 6.46889L13.5311 6.99998L15 5.53107L14.4688 3.53107L12.4688 2.99998Z" fill="rgb(25,25,25)" fill-rule="evenodd" />
	<path id="形状结合" d="M7.24403 1.04599C7.59088 1.13809 7.86177 1.40898 7.95388 1.75582L8.85217 5.13836C8.94366 5.48289 8.84484 5.85007 8.59279 6.10213L6.10221 8.59278C5.85016 8.84484 5.48298 8.94367 5.13845 8.85218L1.75592 7.95397C1.40908 7.86187 1.13818 7.59098 1.04607 7.24414L0.147781 3.8616C0.0562873 3.51707 0.155108 3.14989 0.407163 2.89783L2.89774 0.407184C3.1498 0.155119 3.51698 0.0562883 3.86151 0.147776L7.24403 1.04599ZM0.999976 3.57057L1.92946 7.07057L5.42946 7.99998L7.99998 5.42939L7.0705 1.92939L3.5705 0.99998L0.999976 3.57057ZM12.3768 8.91322C12.7237 9.00532 12.9946 9.27621 13.0867 9.62305L13.8522 12.5056C13.9437 12.8501 13.8448 13.2173 13.5928 13.4694L11.4694 15.5928C11.2174 15.8448 10.8502 15.9437 10.5057 15.8522L7.62314 15.0867C7.27629 14.9946 7.00539 14.7238 6.91329 14.3769L6.14778 11.4944C6.05629 11.1498 6.15511 10.7827 6.40716 10.5306L8.53052 8.40718C8.78258 8.15512 9.14976 8.05629 9.49429 8.14778L12.3768 8.91322ZM6.99998 11.2033L7.79667 14.2033L10.7967 15L13 12.7966L12.2033 9.79661L9.20328 8.99998L6.99998 11.2033ZM14.6424 2.64767C14.9892 2.73977 15.2601 3.01067 15.3522 3.35751L15.8522 5.24005C15.9437 5.58457 15.8448 5.95175 15.5928 6.20381L14.2039 7.59278C13.9518 7.84484 13.5846 7.94367 13.2401 7.85218L11.3576 7.35229C11.0107 7.26019 10.7398 6.9893 10.6477 6.64245L10.1478 4.75991C10.0563 4.41539 10.1551 4.04821 10.4072 3.79615L11.7961 2.40718C12.0481 2.15512 12.4153 2.05629 12.7599 2.14778L14.6424 2.64767ZM11 4.46889L11.5311 6.46889L13.5311 6.99998L15 5.53107L14.4688 3.53107L12.4688 2.99998L11 4.46889Z" fill-rule="evenodd" stroke="rgb(0,0,0)" stroke-opacity="0" stroke-width="1" />
</svg>
