<svg viewBox="0 0 16 16" xmlns="http://www.w3.org/2000/svg" xmlns:xlink="http://www.w3.org/1999/xlink" width="16.000000" height="16.000000" fill="none" customFrame="#000000">
	<rect id="操作图标/竖版更多" width="16.000000" height="16.000000" x="0.000000" y="0.000000" />
	<path id="形状结合" d="M8 1.99243C7.44733 1.99243 7 2.44043 7 2.99243C7 3.5451 7.44733 3.99243 8 3.99243C8.55267 3.99243 9 3.5451 9 2.99243C9 2.44043 8.55267 1.99243 8 1.99243ZM8 7.00739C7.44733 7.00739 7 7.45472 7 8.00739C7 8.55939 7.44733 9.00739 8 9.00739C8.55267 9.00739 9 8.55939 9 8.00739C9 7.45472 8.55267 7.00739 8 7.00739ZM7 13.0077C7 12.455 7.44733 12.0077 8 12.0077C8.55267 12.0077 9 12.455 9 13.0077C9 13.5604 8.55267 14.0077 8 14.0077C7.44733 14.0077 7 13.5604 7 13.0077Z" fill="rgb(25,25,25)" fill-rule="evenodd" />
</svg>
