<svg viewBox="0 0 16 16" xmlns="http://www.w3.org/2000/svg" xmlns:xlink="http://www.w3.org/1999/xlink" width="16.000000" height="16.000000" fill="none">
	<rect id="操作图标/横版更多" width="16.000000" height="16.000000" x="0.000000" y="0.000000" />
	<path id="形状结合" d="M1.5 6.5C2.32843 6.5 3 7.17157 3 8C3 8.82843 2.32843 9.5 1.5 9.5C0.671573 9.5 0 8.82843 0 8C0 7.17157 0.671573 6.5 1.5 6.5ZM8 6.5C8.82843 6.5 9.5 7.17157 9.5 8C9.5 8.82843 8.82843 9.5 8 9.5C7.17157 9.5 6.5 8.82843 6.5 8C6.5 7.17157 7.17157 6.5 8 6.5ZM14.5 6.5C15.3284 6.5 16 7.17157 16 8C16 8.82843 15.3284 9.5 14.5 9.5C13.6716 9.5 13 8.82843 13 8C13 7.17157 13.6716 6.5 14.5 6.5Z" fill="rgb(25,25,25)" fill-rule="evenodd" />
	<path id="形状结合" d="M3 8C3 8.82843 2.32843 9.5 1.5 9.5C0.671573 9.5 0 8.82843 0 8C0 7.17157 0.671573 6.5 1.5 6.5C2.32843 6.5 3 7.17157 3 8ZM9.5 8C9.5 8.82843 8.82843 9.5 8 9.5C7.17157 9.5 6.5 8.82843 6.5 8C6.5 7.17157 7.17157 6.5 8 6.5C8.82843 6.5 9.5 7.17157 9.5 8ZM16 8C16 8.82843 15.3284 9.5 14.5 9.5C13.6716 9.5 13 8.82843 13 8C13 7.17157 13.6716 6.5 14.5 6.5C15.3284 6.5 16 7.17157 16 8Z" fill-rule="evenodd" stroke="rgb(0,0,0)" stroke-opacity="0" stroke-width="1" />
</svg>
