<svg viewBox="0 0 16 16" xmlns="http://www.w3.org/2000/svg" xmlns:xlink="http://www.w3.org/1999/xlink" width="16.000000" height="16.000000" fill="none">
	<rect id="操作图标/下移" width="16.000000" height="16.000000" x="0.000000" y="0.000000" />
	<path id="形状结合" d="M8.00004 2C7.7239 2 7.50004 2.22386 7.50004 2.5L7.50004 12.2827L3.41752 8.19888C3.22226 8.00361 2.90567 8.00361 2.71041 8.19888C2.51515 8.39414 2.51515 8.71072 2.71041 8.90598L7.58856 13.7841C7.6788 13.9146 7.82944 14 8.00004 14C8.11105 13.9867 8.29047 13.9324 8.37441 13.8484L13.317 8.90598C13.5123 8.71072 13.5123 8.39414 13.317 8.19888C13.1217 8.00361 12.8052 8.00361 12.6099 8.19888L8.50004 12.3075L8.50004 2.5C8.50004 2.22386 8.27618 2 8.00004 2Z" fill="rgb(25,25,25)" fill-rule="evenodd" />
</svg>
