<svg viewBox="0 0 16 16" xmlns="http://www.w3.org/2000/svg" xmlns:xlink="http://www.w3.org/1999/xlink" width="16.000000" height="16.000000" fill="none">
	<rect id="操作图标/新建缺陷(new-defect)" width="16.000000" height="16.000000" x="0.000000" y="0.000000" />
	<path id="形状结合" d="M8 0.600098C9.65685 0.600098 11 1.94324 11 3.6001C11 3.95985 10.9367 4.30482 10.8206 4.62445C11.1538 4.89384 11.4586 5.20918 11.7279 5.56419L13.6464 3.64654C13.8417 3.45128 14.1583 3.45128 14.3536 3.64654C14.5271 3.82011 14.5464 4.08954 14.4114 4.2844L14.3536 4.35365L12.274 6.43267C12.481 6.83449 12.6491 7.26911 12.7715 7.72983C12.8424 7.99672 12.6835 8.27055 12.4166 8.34145C12.1497 8.41235 11.8759 8.25348 11.805 7.98659C11.2698 5.97214 9.73002 4.6001 8 4.6001C5.81308 4.6001 4 6.77579 4 9.5001C4 12.0139 5.54367 14.0605 7.50033 14.3619L7.5 6.1001C7.5 5.82396 7.72386 5.6001 8 5.6001C8.24546 5.6001 8.44961 5.77697 8.49194 6.01022L8.5 6.1001L8.5 14.9001C8.5 15.1456 8.32312 15.3497 8.08988 15.392L8 15.4001C6.42869 15.4001 5.03814 14.5526 4.12495 13.2316L2.40355 14.9537C2.20829 15.1489 1.89171 15.1489 1.69645 14.9537C1.52288 14.7801 1.5036 14.5107 1.63859 14.3158L1.69645 14.2465L3.61176 12.3321C3.30507 11.6705 3.10277 10.9328 3.03006 10.1506L1 10.1501C0.723858 10.1501 0.5 9.92624 0.5 9.6501C0.5 9.40464 0.676875 9.20049 0.910124 9.15815L1 9.1501L3.00864 9.15039C3.05767 8.16128 3.31331 7.23502 3.72667 6.43326L1.64645 4.35365C1.45118 4.15839 1.45118 3.84181 1.64645 3.64654C1.82001 3.47298 2.08944 3.45369 2.28431 3.58869L2.35355 3.64654L4.2722 5.5651C4.54088 5.21042 4.84555 4.89416 5.17978 4.62449L5.18536 4.64036C5.06556 4.31687 5 3.96614 5 3.6001C5 1.94324 6.34315 0.600098 8 0.600098ZM12.5 9.6001C12.7455 9.6001 12.9496 9.77697 12.9919 10.0102L13 10.1001L13 12.0001L14.9 12.0001C15.1761 12.0001 15.4 12.224 15.4 12.5001C15.4 12.7456 15.2231 12.9497 14.9899 12.992L14.9 13.0001L13 13.0001L13 14.9001C13 15.1762 12.7761 15.4001 12.5 15.4001C12.2545 15.4001 12.0504 15.2232 12.0081 14.99L12 14.9001L12 12.9991L10.1 13.0001C9.82386 13.0001 9.6 12.7762 9.6 12.5001C9.6 12.2546 9.77688 12.0505 10.0101 12.0082L10.1 12.0001L12 11.9991L12 10.1001C12 9.82395 12.2239 9.6001 12.5 9.6001ZM8 1.6001C6.89543 1.6001 6 2.49553 6 3.6001C6 3.75945 6.01864 3.91446 6.05385 4.06305C6.65008 3.76471 7.30748 3.6001 8 3.6001C8.68732 3.6001 9.3453 3.76393 9.94526 4.06239C9.98061 3.92065 10 3.76264 10 3.6001C10 2.49553 9.10457 1.6001 8 1.6001Z" fill="rgb(25,25,25)" fill-rule="nonzero" />
</svg>
