<svg viewBox="0 0 16 16" xmlns="http://www.w3.org/2000/svg" xmlns:xlink="http://www.w3.org/1999/xlink" width="16.000000" height="16.000000" fill="none">
	<rect id="操作图标/新建对话" width="16.000000" height="16.000000" x="0.000000" y="0.000000" />
	<g id="newchat">
		<path id="矢量 797" d="M7.99976 2C8.82812 2 9.59595 2.14642 10.303 2.43933C11.01 2.73224 11.6567 3.17163 12.2424 3.75739C12.8281 4.34314 13.2676 4.98956 13.5603 5.69672C13.8533 6.40381 13.9998 7.17157 13.9998 8C13.9998 8.82843 13.8533 9.59619 13.5603 10.3033C13.2676 11.0104 12.8281 11.6569 12.2424 12.2426C11.6565 12.8284 11.0103 13.2678 10.303 13.5607C9.59595 13.8536 8.82812 14 7.99976 14C7.91309 14 7.82666 13.9982 7.74023 13.9945L3.36353 13.9945C3.21826 13.9945 3.09131 13.9631 2.98267 13.9002C2.87402 13.8373 2.78296 13.743 2.71045 13.6173C2.63794 13.4916 2.60181 13.3659 2.60181 13.2402C2.60181 13.1146 2.63818 12.9889 2.71094 12.8632L3.33789 11.7793C2.93188 11.2853 2.61816 10.7552 2.39697 10.189C2.13208 9.51111 1.99976 8.78137 1.99976 8C1.99976 7.17157 2.14624 6.40381 2.43921 5.69672C2.73193 4.98956 3.17139 4.34314 3.75708 3.75739C4.34277 3.17157 4.98926 2.73224 5.69653 2.43933C6.40356 2.14642 7.17139 2 7.99976 2ZM7.99976 3C7.30933 3 6.66968 3.12201 6.08032 3.36609C5.49097 3.61017 4.95239 3.97632 4.46411 4.46448C3.97607 4.95264 3.60986 5.49127 3.36597 6.08057C3.12183 6.66986 2.99976 7.30963 2.99976 8C2.99976 8.65149 3.11011 9.25977 3.33105 9.82489C3.55078 10.3867 3.87939 10.9059 4.31738 11.3824C4.39136 11.4628 4.43433 11.5574 4.44629 11.6661C4.45825 11.7748 4.43677 11.8764 4.38208 11.971L3.79028 12.9945L7.77344 12.995C7.84863 12.9984 7.92407 13 7.99976 13C8.69019 13 9.32983 12.878 9.91919 12.6339C10.5085 12.3898 11.0471 12.0237 11.5354 11.5355C12.0234 11.0474 12.3894 10.5087 12.6335 9.91949C12.8774 9.33032 12.9998 8.69031 12.9998 8C12.9998 7.30969 12.8777 6.66992 12.6338 6.08069C12.3899 5.49146 12.0234 4.95264 11.5354 4.46448C11.0471 3.97632 10.5085 3.61023 9.91919 3.36615C9.32983 3.12207 8.69019 3 7.99976 3ZM7.99976 5.38464C8.27979 5.38464 8.49976 5.60461 8.49976 5.88464L8.49976 7.50012L10.1155 7.50012C10.3955 7.50012 10.6155 7.72009 10.6155 8.00012C10.6155 8.28015 10.3955 8.50012 10.1155 8.50012L8.49976 8.50012L8.49976 10.1154C8.49976 10.3954 8.27979 10.6154 7.99976 10.6154C7.71973 10.6154 7.49976 10.3954 7.49976 10.1154L7.49976 8.50012L5.88452 8.50012C5.60449 8.50012 5.38452 8.28015 5.38452 8.00012C5.38452 7.72009 5.60449 7.50012 5.88452 7.50012L7.49976 7.50012L7.49976 5.88464C7.49976 5.60461 7.71973 5.38464 7.99976 5.38464Z" fill="rgb(25,25,25)" fill-rule="nonzero" />
	</g>
</svg>
