<svg viewBox="0 0 16 16" xmlns="http://www.w3.org/2000/svg" xmlns:xlink="http://www.w3.org/1999/xlink" width="16.000000" height="16.000000" fill="none">
	<rect id="操作图标/下一级" width="16.000000" height="16.000000" x="0.000000" y="0.000000" />
	<path id="形状结合" d="M5.44975 0C5.17361 0 4.94975 0.223858 4.94975 0.5L4.94975 10.2961L0.853553 6.19869C0.658291 6.00343 0.341709 6.00343 0.146447 6.19869C-0.0488157 6.39396 -0.0488154 6.71054 0.146447 6.9058L5.09619 11.8555C5.1528 11.9122 5.2202 11.9517 5.29213 11.9747C5.34168 11.9911 5.39468 12 5.44975 12C5.56087 12 5.66353 11.9637 5.74654 11.9024L10.753 6.9058C10.9483 6.71054 10.9483 6.39396 10.753 6.19869C10.5578 6.00343 10.2412 6.00343 10.0459 6.19869L5.94975 10.2936L5.94975 0.5C5.94975 0.223858 5.72589 0 5.44975 0Z" fill="rgb(25,25,25)" fill-rule="evenodd" transform="matrix(0,-1,1,0,2,13.4497)" />
</svg>
