<svg viewBox="0 0 16 16" xmlns="http://www.w3.org/2000/svg" xmlns:xlink="http://www.w3.org/1999/xlink" width="16.000000" height="16.000000" fill="none">
	<rect id="操作图标/预言机图标" width="16.000000" height="16.000000" x="0.000000" y="0.000000" />
	<path id="形状结合" d="M13 2L10 2C9.48716 2 9.06449 2.38604 9.00673 2.88338L9 3L9 13C9 13.5128 9.38604 13.9355 9.88338 13.9933L10 14L13 14C13.5128 14 13.9355 13.614 13.9933 13.1166L14 13L14 3C14 2.48716 13.614 2.06449 13.1166 2.00673L13 2ZM8 12L8 8L5 8C5 8.55228 4.55228 9 4 9L2 9C1.44772 9 1 8.55228 1 8L1 7C1 6.44772 1.44772 6 2 6L4 6C4.55228 6 5 6.44772 5 7L8 7L8 3L5 3C5 3.55228 4.55228 4 4 4L2 4C1.44772 4 1 3.55228 1 3L1 2C1 1.44772 1.44772 1 2 1L4 1C4.55228 1 5 1.44772 5 2L8.26761 1.99993C8.61343 1.40217 9.25975 1 10 1L13 1C14.1046 1 15 1.89543 15 3L15 13C15 14.1046 14.1046 15 13 15L10 15C8.89543 15 8 14.1046 8 13L5 13C5 13.5523 4.55228 14 4 14L2 14C1.44772 14 1 13.5523 1 13L1 12C1 11.4477 1.44772 11 2 11L4 11C4.55228 11 5 11.4477 5 12L8 12ZM11.5 12C11.7761 12 12 12.2239 12 12.5C12 12.7761 11.7761 13 11.5 13C11.2239 13 11 12.7761 11 12.5C11 12.2239 11.2239 12 11.5 12ZM4 12L2 12L2 13L4 13L4 12ZM12.5 7C12.7761 7 13 7.22386 13 7.5C13 7.77614 12.7761 8 12.5 8L10.5 8C10.2239 8 10 7.77614 10 7.5C10 7.22386 10.2239 7 10.5 7L12.5 7ZM4 7L2 7L2 8L4 8L4 7ZM12.5 5C12.7761 5 13 5.22386 13 5.5C13 5.77614 12.7761 6 12.5 6L10.5 6C10.2239 6 10 5.77614 10 5.5C10 5.22386 10.2239 5 10.5 5L12.5 5ZM12.5 3C12.7761 3 13 3.22386 13 3.5C13 3.77614 12.7761 4 12.5 4L10.5 4C10.2239 4 10 3.77614 10 3.5C10 3.22386 10.2239 3 10.5 3L12.5 3ZM4 2L2 2L2 3L4 3L4 2Z" fill="rgb(25,25,25)" fill-rule="evenodd" />
	<path id="形状结合" d="M10 2C9.48716 2 9.06449 2.38604 9.00673 2.88338L9 3L9 13C9 13.5128 9.38604 13.9355 9.88338 13.9933L10 14L13 14C13.5128 14 13.9355 13.614 13.9933 13.1166L14 13L14 3C14 2.48716 13.614 2.06449 13.1166 2.00673L13 2L10 2ZM8 8L5 8C5 8.55228 4.55228 9 4 9L2 9C1.44772 9 1 8.55228 1 8L1 7C1 6.44772 1.44772 6 2 6L4 6C4.55228 6 5 6.44772 5 7L8 7L8 3L5 3C5 3.55228 4.55228 4 4 4L2 4C1.44772 4 1 3.55228 1 3L1 2C1 1.44772 1.44772 1 2 1L4 1C4.55228 1 5 1.44772 5 2L8.26761 1.99993C8.61343 1.40217 9.25975 1 10 1L13 1C14.1046 1 15 1.89543 15 3L15 13C15 14.1046 14.1046 15 13 15L10 15C8.89543 15 8 14.1046 8 13L5 13C5 13.5523 4.55228 14 4 14L2 14C1.44772 14 1 13.5523 1 13L1 12C1 11.4477 1.44772 11 2 11L4 11C4.55228 11 5 11.4477 5 12L8 12L8 8ZM12 12.5C12 12.7761 11.7761 13 11.5 13C11.2239 13 11 12.7761 11 12.5C11 12.2239 11.2239 12 11.5 12C11.7761 12 12 12.2239 12 12.5ZM2 12L2 13L4 13L4 12L2 12ZM13 7.5C13 7.77614 12.7761 8 12.5 8L10.5 8C10.2239 8 10 7.77614 10 7.5C10 7.22386 10.2239 7 10.5 7L12.5 7C12.7761 7 13 7.22386 13 7.5ZM2 7L2 8L4 8L4 7L2 7ZM13 5.5C13 5.77614 12.7761 6 12.5 6L10.5 6C10.2239 6 10 5.77614 10 5.5C10 5.22386 10.2239 5 10.5 5L12.5 5C12.7761 5 13 5.22386 13 5.5ZM13 3.5C13 3.77614 12.7761 4 12.5 4L10.5 4C10.2239 4 10 3.77614 10 3.5C10 3.22386 10.2239 3 10.5 3L12.5 3C12.7761 3 13 3.22386 13 3.5ZM2 2L2 3L4 3L4 2L2 2Z" fill-rule="evenodd" stroke="rgb(0,0,0)" stroke-opacity="0" stroke-width="1" />
</svg>
