<svg viewBox="0 0 16 16" xmlns="http://www.w3.org/2000/svg" xmlns:xlink="http://www.w3.org/1999/xlink" width="16.000000" height="16.000000" fill="none">
	<rect id="操作图标/已超期" width="16.000000" height="16.000000" x="0.000000" y="0.000000" />
	<path id="形状结合" d="M15 8C15 4.13401 11.866 1 8 1C4.13401 1 1 4.13401 1 8C1 11.866 4.13401 15 8 15C8.70438 15 9.39534 14.8958 10.0561 14.693C10.3201 14.612 10.4685 14.3323 10.3874 14.0683C10.3064 13.8043 10.0268 13.656 9.76276 13.737C9.19677 13.9107 8.60467 14 8 14C4.68629 14 2 11.3137 2 8C2 4.68629 4.68629 2 8 2C11.3137 2 14 4.68629 14 8C14 8.6806 13.8869 9.34508 13.6679 9.97386C13.5771 10.2346 13.7149 10.5197 13.9757 10.6105C14.2365 10.7013 14.5215 10.5635 14.6123 10.3027C14.8679 9.56856 15 8.79294 15 8ZM8.15952 4.00098C8.41343 4.00153 8.61881 4.20781 8.61826 4.46171L8.60748 8.50154L5.94679 10.7594C5.7529 10.9239 5.46236 10.9002 5.29778 10.7063C5.13328 10.5126 5.157 10.2222 5.35075 10.0577L7.68957 8.07359L7.69844 4.45994C7.69906 4.20589 7.90547 4.00043 8.15952 4.00098ZM11.2523 9.01894C11.2523 8.606 11.587 8.27124 12 8.27124C12.412 8.2988 12.7736 8.65681 12.746 9.06883L12.5673 11.7406C12.5474 12.0392 12.2993 12.2712 12 12.2712C11.7007 12.2712 11.4526 12.0392 11.4326 11.7406L11.2523 9.01894ZM12.5796 13.2188C12.3651 13.0043 12.0425 12.9402 11.7623 13.0563C11.482 13.1723 11.2993 13.4458 11.2993 13.7492C11.2993 14.1634 11.6351 14.4991 12.0493 14.4991C12.3526 14.4991 12.6261 14.3164 12.7422 14.0362C12.8583 13.7559 12.7941 13.4333 12.5796 13.2188Z" fill="rgb(25,25,25)" fill-rule="evenodd" />
	<path id="形状结合" d="M15 8C15 4.13401 11.866 1 8 1C4.13401 1 1 4.13401 1 8C1 11.866 4.13401 15 8 15C8.70438 15 9.39534 14.8958 10.0561 14.693C10.3201 14.612 10.4685 14.3323 10.3874 14.0683C10.3064 13.8043 10.0268 13.656 9.76276 13.737C9.19677 13.9107 8.60467 14 8 14C4.68629 14 2 11.3137 2 8C2 4.68629 4.68629 2 8 2C11.3137 2 14 4.68629 14 8C14 8.6806 13.8869 9.34508 13.6679 9.97386C13.5771 10.2346 13.7149 10.5197 13.9757 10.6105C14.2365 10.7013 14.5215 10.5635 14.6123 10.3027C14.8679 9.56856 15 8.79294 15 8ZM8.15952 4.00098C8.41343 4.00153 8.61881 4.20781 8.61826 4.46171L8.60748 8.50154L5.94679 10.7594C5.7529 10.9239 5.46236 10.9002 5.29778 10.7063C5.13328 10.5126 5.157 10.2222 5.35075 10.0577L7.68957 8.07359L7.69844 4.45994C7.69906 4.20589 7.90547 4.00043 8.15952 4.00098ZM11.2523 9.01894C11.2523 8.606 11.587 8.27124 12 8.27124C12.412 8.2988 12.7736 8.65681 12.746 9.06883L12.5673 11.7406C12.5474 12.0392 12.2993 12.2712 12 12.2712C11.7007 12.2712 11.4526 12.0392 11.4326 11.7406L11.2523 9.01894ZM12.5796 13.2188C12.3651 13.0043 12.0425 12.9402 11.7623 13.0563C11.482 13.1723 11.2993 13.4458 11.2993 13.7492C11.2993 14.1634 11.6351 14.4991 12.0493 14.4991C12.3526 14.4991 12.6261 14.3164 12.7422 14.0362C12.8583 13.7559 12.7941 13.4333 12.5796 13.2188Z" fill-rule="evenodd" stroke="rgb(0,0,0)" stroke-opacity="0" stroke-width="1" />
</svg>
