<svg viewBox="0 0 16 16" xmlns="http://www.w3.org/2000/svg" xmlns:xlink="http://www.w3.org/1999/xlink" width="16.000000" height="16.000000" fill="none">
	<rect id="操作图标/伙伴" width="16.000000" height="16.000000" x="0.000000" y="0.000000" />
	<path id="形状结合" d="M3.41421 2.58579C4.15976 1.84024 5.34747 1.80635 6.13322 2.48412L6.24264 2.58579L7.65685 4L9.07107 2.58579C9.81661 1.84024 11.0043 1.80635 11.7901 2.48412L11.8995 2.58579L14.7279 5.41421C15.4735 6.15976 15.5074 7.34747 14.8296 8.13322L14.7279 8.24264L9.07107 13.8995C8.32552 14.645 7.13781 14.6789 6.35206 14.0012L6.24264 13.8995L0.585787 8.24264C-0.15976 7.49709 -0.193648 6.30938 0.484121 5.52364L0.585787 5.41421L3.41421 2.58579ZM4.12132 3.29289L1.29289 6.12132C0.930264 6.48395 0.904361 7.0558 1.21519 7.44831L6.94975 13.1924C7.31238 13.555 7.88422 13.5809 8.27674 13.2701L11.8988 9.65756L9.77817 7.53553L9.19626 8.11745C8.43121 8.8825 7.3403 9.20497 6.29632 8.99685L6.10121 8.95159L5.90775 8.89376C5.12184 8.63179 4.64111 7.76364 4.90308 6.97773C4.96199 6.801 5.05317 6.63718 5.1716 6.49441L5.26544 6.39141L6.94975 4.70711L5.53553 3.29289C5.2008 2.95816 4.6878 2.91034 4.30213 3.14944L4.12132 3.29289ZM9.77817 6.12132L12.6066 8.94975L14.0208 7.53553C14.3556 7.2008 14.4034 6.6878 14.1643 6.30213L14.0208 6.12132L11.1924 3.29289C10.8019 2.90237 10.1687 2.90237 9.77817 3.29289L5.97255 7.09852C5.91766 7.15341 5.87631 7.22032 5.85176 7.29396C5.77414 7.52682 5.87738 7.77643 6.08527 7.89035L6.38404 7.99183C7.08139 8.16739 7.82168 7.99263 8.36691 7.52374L8.48915 7.41034L9.77817 6.12132ZM7.55079 11.1771C7.72436 11.0036 7.99378 10.9843 8.18865 11.1193L9.31855 12.2378L8.61145 12.9449L7.55079 11.8842C7.35553 11.689 7.35553 11.3724 7.55079 11.1771ZM9.17713 9.55079C9.3507 9.37722 9.62012 9.35794 9.81499 9.49293L10.9449 10.6114L10.2378 11.3186L9.17713 10.2579C8.98187 10.0626 8.98187 9.74605 9.17713 9.55079Z" fill="rgb(25,25,25)" fill-rule="nonzero" />
	<path id="形状结合" d="M6.13322 2.48412L6.24264 2.58579L7.65685 4L9.07107 2.58579C9.81661 1.84024 11.0043 1.80635 11.7901 2.48412L11.8995 2.58579L14.7279 5.41421C15.4735 6.15976 15.5074 7.34747 14.8296 8.13322L14.7279 8.24264L9.07107 13.8995C8.32552 14.645 7.13781 14.6789 6.35206 14.0012L6.24264 13.8995L0.585787 8.24264C-0.15976 7.49709 -0.193648 6.30938 0.484121 5.52364L0.585787 5.41421L3.41421 2.58579C4.15976 1.84024 5.34747 1.80635 6.13322 2.48412ZM1.29289 6.12132C0.930264 6.48395 0.904361 7.0558 1.21519 7.44831L6.94975 13.1924C7.31238 13.555 7.88422 13.5809 8.27674 13.2701L11.8988 9.65756L9.77817 7.53553L9.19626 8.11745C8.43121 8.8825 7.3403 9.20497 6.29632 8.99685L6.10121 8.95159L5.90775 8.89376C5.12184 8.63179 4.64111 7.76364 4.90308 6.97773C4.96199 6.801 5.05317 6.63718 5.1716 6.49441L5.26544 6.39141L6.94975 4.70711L5.53553 3.29289C5.2008 2.95816 4.6878 2.91034 4.30213 3.14944L4.12132 3.29289L1.29289 6.12132ZM12.6066 8.94975L14.0208 7.53553C14.3556 7.2008 14.4034 6.6878 14.1643 6.30213L14.0208 6.12132L11.1924 3.29289C10.8019 2.90237 10.1687 2.90237 9.77817 3.29289L5.97255 7.09852C5.91766 7.15341 5.87631 7.22032 5.85176 7.29396C5.77414 7.52682 5.87738 7.77643 6.08527 7.89035L6.38404 7.99183C7.08139 8.16739 7.82168 7.99263 8.36691 7.52374L8.48915 7.41034L9.77817 6.12132L12.6066 8.94975ZM8.18865 11.1193L9.31855 12.2378L8.61145 12.9449L7.55079 11.8842C7.35553 11.689 7.35553 11.3724 7.55079 11.1771C7.72436 11.0036 7.99378 10.9843 8.18865 11.1193ZM9.81499 9.49293L10.9449 10.6114L10.2378 11.3186L9.17713 10.2579C8.98187 10.0626 8.98187 9.74605 9.17713 9.55079C9.3507 9.37722 9.62012 9.35794 9.81499 9.49293Z" fill-rule="nonzero" stroke="rgb(0,0,0)" stroke-opacity="0" stroke-width="1" />
</svg>
