<svg viewBox="0 0 16 16" xmlns="http://www.w3.org/2000/svg" xmlns:xlink="http://www.w3.org/1999/xlink" width="16.000000" height="16.000000" fill="none">
	<rect id="操作图标/图钉1" width="16.000000" height="16.000000" x="0.000000" y="0.000000" />
	<path id="合并" d="M11.5 1.5L4.5 1.5L5.5 3L5 8.25L3.5 10.5L7.5 10.5L7.5 14.5C7.5 14.7761 7.72386 15 8 15C8.27614 15 8.5 14.7761 8.5 14.5L8.5 10.5L12.5 10.5L11 8.25L10.5 3L11.5 1.5Z" fill="rgb(25,25,25)" fill-rule="evenodd" />
	<path id="合并" d="M11.5 1.5L4.5 1.5L5.5 3L5 8.25L3.5 10.5L7.5 10.5L7.5 14.5C7.5 14.7761 7.72386 15 8 15C8.27614 15 8.5 14.7761 8.5 14.5L8.5 10.5L12.5 10.5L11 8.25L10.5 3L11.5 1.5Z" fill-rule="evenodd" stroke="rgb(0,0,0)" stroke-opacity="0" stroke-width="1" />
</svg>
