<svg viewBox="0 0 16 16" xmlns="http://www.w3.org/2000/svg" xmlns:xlink="http://www.w3.org/1999/xlink" width="16.000000" height="16.000000" fill="none">
	<rect id="操作图标/隐私政策-门禁" width="16.000000" height="16.000000" x="0.000000" y="0.000000" />
	<path id="形状结合" d="M8 1C9.65685 1 11 2.34315 11 4L11 5L13 5C13.5523 5 14 5.44772 14 6L14 13C14 13.5523 13.5523 14 13 14L3 14C2.44772 14 2 13.5523 2 13L2 6C2 5.44772 2.44772 5 3 5L5 5L5 4C5 2.34315 6.34315 1 8 1ZM13 6L3 6L3 13L13 13L13 6ZM8.5 7L8.50102 8.06327C9.36312 8.28565 10 9.06845 10 10C10 11.1046 9.10457 12 8 12C6.89543 12 6 11.1046 6 10C6 9.06809 6.63738 8.28504 7.49998 8.06301L7.5 7L8.5 7ZM8 9C7.44772 9 7 9.44771 7 10C7 10.5523 7.44772 11 8 11C8.55229 11 9 10.5523 9 10C9 9.44771 8.55229 9 8 9ZM8 2C6.89543 2 6 2.89543 6 4L6 5L10 5L10 4C10 2.89543 9.10457 2 8 2Z" fill="rgb(25,25,25)" fill-rule="evenodd" />
	<path id="形状结合" d="M11 4L11 5L13 5C13.5523 5 14 5.44772 14 6L14 13C14 13.5523 13.5523 14 13 14L3 14C2.44772 14 2 13.5523 2 13L2 6C2 5.44772 2.44772 5 3 5L5 5L5 4C5 2.34315 6.34315 1 8 1C9.65685 1 11 2.34315 11 4ZM3 6L3 13L13 13L13 6L3 6ZM8.50102 8.06327C9.36312 8.28565 10 9.06845 10 10C10 11.1046 9.10457 12 8 12C6.89543 12 6 11.1046 6 10C6 9.06809 6.63738 8.28504 7.49998 8.06301L7.5 7L8.5 7L8.50102 8.06327ZM7 10C7 10.5523 7.44772 11 8 11C8.55229 11 9 10.5523 9 10C9 9.44771 8.55229 9 8 9C7.44772 9 7 9.44771 7 10ZM6 4L6 5L10 5L10 4C10 2.89543 9.10457 2 8 2C6.89543 2 6 2.89543 6 4Z" fill-rule="evenodd" stroke="rgb(0,0,0)" stroke-opacity="0" stroke-width="1" />
</svg>
