<svg viewBox="0 0 16 16" xmlns="http://www.w3.org/2000/svg" xmlns:xlink="http://www.w3.org/1999/xlink" width="16.000000" height="16.000000" fill="none">
	<rect id="操作图标/属性设置" width="16.000000" height="16.000000" x="0.000000" y="0.000000" />
	<path id="形状结合" d="M12.6988 8.51967L12.8095 8.553L12.9432 8.6144L13.1396 8.72283L13.2625 8.7968L13.4861 8.9417C13.5789 9.00552 13.6442 9.05638 13.6859 9.09416C13.9037 9.2913 14.0112 9.61782 13.9678 9.91163L13.9444 10.02L13.9121 10.158C13.8993 10.2784 13.9221 10.3988 13.9793 10.5045C14.0273 10.5937 14.0945 10.662 14.1585 10.7019L14.3167 10.7557C14.6082 10.8268 14.854 11.0735 14.9446 11.3618L14.9711 11.4717L14.9941 11.7334L15 11.9993L14.994 12.2796C14.9915 12.3333 14.9881 12.3817 14.9842 12.4251L14.9719 12.5282C14.9218 12.8246 14.7029 13.0963 14.425 13.2091L14.3182 13.2436C14.2031 13.2804 14.0443 13.3763 13.9793 13.4968C13.9284 13.5907 13.905 13.6971 13.9064 13.7916L13.9446 13.981C14.0363 14.2992 13.9309 14.6841 13.6869 14.9049L13.4867 15.0581C13.4247 15.1008 13.3504 15.1492 13.2626 15.2034L13.1395 15.2774L12.9426 15.3859C12.8876 15.4138 12.843 15.4339 12.8082 15.4473C12.5203 15.5582 12.1732 15.4886 11.9393 15.2875L11.8377 15.1773C11.7582 15.1145 11.5962 15.0179 11.4996 15.0179C11.4125 15.0179 11.3287 15.045 11.2643 15.0861L11.1417 15.2068C10.9393 15.4393 10.6018 15.5471 10.3012 15.4803L10.1905 15.447L10.0568 15.3856L9.8604 15.2772L9.73754 15.2032L9.51389 15.0583L9.36383 14.948C9.14601 14.7508 8.98876 14.3822 9.03191 14.0893L9.05524 13.9814L9.08747 13.8425C9.10027 13.7221 9.07747 13.6017 9.02082 13.4969C8.97176 13.4063 8.90365 13.3373 8.83801 13.2971L8.68242 13.2443C8.35447 13.1643 8.08447 12.8621 8.02813 12.5286L8.01195 12.3797L8.00142 12.1423L8.00098 11.8807L8.01194 11.6205L8.02814 11.4713C8.07821 11.175 8.2971 10.9032 8.57522 10.7904L8.68208 10.7558C8.79557 10.7197 8.95597 10.6236 9.02055 10.504C9.0716 10.4095 9.09513 10.3025 9.09346 10.2075L9.05536 10.019C8.96383 9.70123 9.06886 9.31669 9.31456 9.0934L9.51371 8.9418C9.55486 8.91352 9.60148 8.88266 9.65392 8.8492L9.96662 8.66253C10.065 8.60844 10.1392 8.57325 10.1914 8.55312C10.4794 8.44214 10.8273 8.51192 11.0605 8.7128L11.1863 8.84653C11.2736 8.93507 11.3836 8.98297 11.4996 8.98297C11.5863 8.98297 11.6695 8.95631 11.74 8.90814L11.8583 8.7932C12.0607 8.56071 12.3982 8.4529 12.6988 8.51967ZM11.5 1C12.5544 1 13.4182 1.81588 13.4945 2.85074L13.5 3L13.5 7.5C13.5 7.77614 13.2761 8 13 8C12.7545 8 12.5504 7.82312 12.5081 7.58988L12.5 3C12.5 2.48716 12.114 2.06449 11.6166 2.00673L11.5 2L3.5 2C2.98716 2 2.56449 2.38604 2.50673 2.88338L2.5 3L2.5 13C2.5 13.5128 2.88604 13.9355 3.38338 13.9933L3.5 14L7.5 14C7.77614 14 8 14.2239 8 14.5C8 14.7455 7.82312 14.9496 7.58988 14.9919L3.5 15C2.44564 15 1.58183 14.1841 1.50549 13.1493L1.5 13L1.5 3C1.5 1.94564 2.31588 1.08183 3.35074 1.00549L3.5 1L11.5 1ZM12.54 9.531C12.2683 9.80457 11.8871 9.98297 11.4996 9.98297C11.1592 9.98297 10.8373 9.86139 10.5701 9.63526L10.459 9.532L10.184 9.69713L10.032 9.798C10.0916 10.0645 10.1027 10.4145 10.0256 10.6756L9.97121 10.83L9.90046 10.9792C9.73648 11.2829 9.48215 11.5151 9.1534 11.6522L9.008 11.705L9.00089 11.8933L9.00113 12.1193L9.008 12.295C9.27943 12.3806 9.55502 12.5542 9.73773 12.7781L9.82418 12.8949L9.90033 13.021C10.0288 13.2587 10.0928 13.5228 10.0887 13.8052L10.078 13.9768L10.0443 14.1601L10.2625 14.352L10.459 14.468C10.6632 14.2613 10.9339 14.1047 11.2134 14.0471L11.3549 14.0253L11.4996 14.0179C11.7707 14.0179 12.031 14.0951 12.2701 14.2478L12.4109 14.3485L12.539 14.468L12.8681 14.2694L12.9471 14.1267C12.8884 13.8604 12.8976 13.5838 12.9746 13.3237L13.0289 13.1699L13.0995 13.0214C13.2637 12.7171 13.5185 12.4847 13.8462 12.3471L13.991 12.294L14 12.0006L13.9953 11.783C13.7261 11.6963 13.4404 11.4426 13.2597 11.2203L13.1743 11.1044L13.0993 10.9794C12.9708 10.7418 12.9068 10.4777 12.9109 10.1953L12.9216 10.0237L12.9556 9.83906L12.7375 9.64795L12.54 9.531ZM11.5 10.375C12.3974 10.375 13.125 11.1028 13.125 12.0002C13.125 12.8976 12.3974 13.625 11.5 13.625C10.6026 13.625 9.875 12.8972 9.875 11.9998C9.875 11.1024 10.6026 10.375 11.5 10.375ZM11.5 11.375C11.1548 11.375 10.875 11.6547 10.875 11.9998C10.875 12.345 11.155 12.625 11.5 12.625C11.8452 12.625 12.125 12.3453 12.125 12.0002C12.125 11.655 11.845 11.375 11.5 11.375ZM6 9C5.38584 9 4.85789 8.6309 4.62587 8.10242L4.5856 8.0007L4 8C3.72386 8 3.5 7.77614 3.5 7.5C3.5 7.22386 3.72386 7 4 7L4.58582 6.99869C4.78383 6.40189 5.33674 6 6 6C6.66326 6 7.22598 6.43048 7.424 7.02729L8 7C8.27614 7 8.5 7.22386 8.5 7.5C8.5 7.77614 8.27614 8 8 8L7.4144 8.0007C7.2149 8.5949 6.6614 9 6 9ZM6 7C5.72386 7 5.5 7.22386 5.5 7.5C5.5 7.77614 5.72386 8 6 8C6.27614 8 6.5 7.77614 6.5 7.5C6.5 7.22386 6.27614 7 6 7ZM9 3C9.66326 3 10.226 3.43048 10.424 4.02729L11 4C11.2761 4 11.5 4.22386 11.5 4.5C11.5 4.74546 11.3231 4.94961 11.0899 4.99194L10.4144 5.0007C10.2149 5.5949 9.6614 6 9 6C8.3386 6 7.77718 5.57193 7.57768 4.97773L4 5C3.72386 5 3.5 4.77614 3.5 4.5C3.5 4.25454 3.67688 4.05039 3.91012 4.00806L7.58582 3.99869C7.78383 3.40189 8.33674 3 9 3ZM9 4C8.72386 4 8.5 4.22386 8.5 4.5C8.5 4.77614 8.72386 5 9 5C9.27614 5 9.5 4.77614 9.5 4.5C9.5 4.22386 9.27614 4 9 4Z" fill="rgb(25,25,25)" fill-rule="evenodd" />
	<path id="形状结合" d="M12.8095 8.553L12.9432 8.6144L13.1396 8.72283L13.2625 8.7968L13.4861 8.9417C13.5789 9.00552 13.6442 9.05638 13.6859 9.09416C13.9037 9.2913 14.0112 9.61782 13.9678 9.91163L13.9444 10.02L13.9121 10.158C13.8993 10.2784 13.9221 10.3988 13.9793 10.5045C14.0273 10.5937 14.0945 10.662 14.1585 10.7019L14.3167 10.7557C14.6082 10.8268 14.854 11.0735 14.9446 11.3618L14.9711 11.4717L14.9941 11.7334L15 11.9993L14.994 12.2796C14.9915 12.3333 14.9881 12.3817 14.9842 12.4251L14.9719 12.5282C14.9218 12.8246 14.7029 13.0963 14.425 13.2091L14.3182 13.2436C14.2031 13.2804 14.0443 13.3763 13.9793 13.4968C13.9284 13.5907 13.905 13.6971 13.9064 13.7916L13.9446 13.981C14.0363 14.2992 13.9309 14.6841 13.6869 14.9049L13.4867 15.0581C13.4247 15.1008 13.3504 15.1492 13.2626 15.2034L13.1395 15.2774L12.9426 15.3859C12.8876 15.4138 12.843 15.4339 12.8082 15.4473C12.5203 15.5582 12.1732 15.4886 11.9393 15.2875L11.8377 15.1773C11.7582 15.1145 11.5962 15.0179 11.4996 15.0179C11.4125 15.0179 11.3287 15.045 11.2643 15.0861L11.1417 15.2068C10.9393 15.4393 10.6018 15.5471 10.3012 15.4803L10.1905 15.447L10.0568 15.3856L9.8604 15.2772L9.73754 15.2032L9.51389 15.0583L9.36383 14.948C9.14601 14.7508 8.98876 14.3822 9.03191 14.0893L9.05524 13.9814L9.08747 13.8425C9.10027 13.7221 9.07747 13.6017 9.02082 13.4969C8.97176 13.4063 8.90365 13.3373 8.83801 13.2971L8.68242 13.2443C8.35447 13.1643 8.08447 12.8621 8.02813 12.5286L8.01195 12.3797L8.00142 12.1423L8.00098 11.8807L8.01194 11.6205L8.02814 11.4713C8.07821 11.175 8.2971 10.9032 8.57522 10.7904L8.68208 10.7558C8.79557 10.7197 8.95597 10.6236 9.02055 10.504C9.0716 10.4095 9.09513 10.3025 9.09346 10.2075L9.05536 10.019C8.96383 9.70123 9.06886 9.31669 9.31456 9.0934L9.51371 8.9418C9.55486 8.91352 9.60148 8.88266 9.65392 8.8492L9.96662 8.66253C10.065 8.60844 10.1392 8.57325 10.1914 8.55312C10.4794 8.44214 10.8273 8.51192 11.0605 8.7128L11.1863 8.84653C11.2736 8.93507 11.3836 8.98297 11.4996 8.98297C11.5863 8.98297 11.6695 8.95631 11.74 8.90814L11.8583 8.7932C12.0607 8.56071 12.3982 8.4529 12.6988 8.51967L12.8095 8.553ZM13.4945 2.85074L13.5 3L13.5 7.5C13.5 7.77614 13.2761 8 13 8C12.7545 8 12.5504 7.82312 12.5081 7.58988L12.5 3C12.5 2.48716 12.114 2.06449 11.6166 2.00673L11.5 2L3.5 2C2.98716 2 2.56449 2.38604 2.50673 2.88338L2.5 3L2.5 13C2.5 13.5128 2.88604 13.9355 3.38338 13.9933L3.5 14L7.5 14C7.77614 14 8 14.2239 8 14.5C8 14.7455 7.82312 14.9496 7.58988 14.9919L3.5 15C2.44564 15 1.58183 14.1841 1.50549 13.1493L1.5 13L1.5 3C1.5 1.94564 2.31588 1.08183 3.35074 1.00549L3.5 1L11.5 1C12.5544 1 13.4182 1.81588 13.4945 2.85074ZM11.4996 9.98297C11.1592 9.98297 10.8373 9.86139 10.5701 9.63526L10.459 9.532L10.184 9.69713L10.032 9.798C10.0916 10.0645 10.1027 10.4145 10.0256 10.6756L9.97121 10.83L9.90046 10.9792C9.73648 11.2829 9.48215 11.5151 9.1534 11.6522L9.008 11.705L9.00089 11.8933L9.00113 12.1193L9.008 12.295C9.27943 12.3806 9.55502 12.5542 9.73773 12.7781L9.82418 12.8949L9.90033 13.021C10.0288 13.2587 10.0928 13.5228 10.0887 13.8052L10.078 13.9768L10.0443 14.1601L10.2625 14.352L10.459 14.468C10.6632 14.2613 10.9339 14.1047 11.2134 14.0471L11.3549 14.0253L11.4996 14.0179C11.7707 14.0179 12.031 14.0951 12.2701 14.2478L12.4109 14.3485L12.539 14.468L12.8681 14.2694L12.9471 14.1267C12.8884 13.8604 12.8976 13.5838 12.9746 13.3237L13.0289 13.1699L13.0995 13.0214C13.2637 12.7171 13.5185 12.4847 13.8462 12.3471L13.991 12.294L14 12.0006L13.9953 11.783C13.7261 11.6963 13.4404 11.4426 13.2597 11.2203L13.1743 11.1044L13.0993 10.9794C12.9708 10.7418 12.9068 10.4777 12.9109 10.1953L12.9216 10.0237L12.9556 9.83906L12.7375 9.64795L12.54 9.531C12.2683 9.80457 11.8871 9.98297 11.4996 9.98297ZM13.125 12.0002C13.125 12.8976 12.3974 13.625 11.5 13.625C10.6026 13.625 9.875 12.8972 9.875 11.9998C9.875 11.1024 10.6026 10.375 11.5 10.375C12.3974 10.375 13.125 11.1028 13.125 12.0002ZM10.875 11.9998C10.875 12.345 11.155 12.625 11.5 12.625C11.8452 12.625 12.125 12.3453 12.125 12.0002C12.125 11.655 11.845 11.375 11.5 11.375C11.1548 11.375 10.875 11.6547 10.875 11.9998ZM4.62587 8.10242L4.5856 8.0007L4 8C3.72386 8 3.5 7.77614 3.5 7.5C3.5 7.22386 3.72386 7 4 7L4.58582 6.99869C4.78383 6.40189 5.33674 6 6 6C6.66326 6 7.22598 6.43048 7.424 7.02729L8 7C8.27614 7 8.5 7.22386 8.5 7.5C8.5 7.77614 8.27614 8 8 8L7.4144 8.0007C7.2149 8.5949 6.6614 9 6 9C5.38584 9 4.85789 8.6309 4.62587 8.10242ZM5.5 7.5C5.5 7.77614 5.72386 8 6 8C6.27614 8 6.5 7.77614 6.5 7.5C6.5 7.22386 6.27614 7 6 7C5.72386 7 5.5 7.22386 5.5 7.5ZM10.424 4.02729L11 4C11.2761 4 11.5 4.22386 11.5 4.5C11.5 4.74546 11.3231 4.94961 11.0899 4.99194L10.4144 5.0007C10.2149 5.5949 9.6614 6 9 6C8.3386 6 7.77718 5.57193 7.57768 4.97773L4 5C3.72386 5 3.5 4.77614 3.5 4.5C3.5 4.25454 3.67688 4.05039 3.91012 4.00806L7.58582 3.99869C7.78383 3.40189 8.33674 3 9 3C9.66326 3 10.226 3.43048 10.424 4.02729ZM8.5 4.5C8.5 4.77614 8.72386 5 9 5C9.27614 5 9.5 4.77614 9.5 4.5C9.5 4.22386 9.27614 4 9 4C8.72386 4 8.5 4.22386 8.5 4.5Z" fill-rule="evenodd" stroke="rgb(0,0,0)" stroke-opacity="0" stroke-width="1" />
</svg>
