<svg viewBox="0 0 16 16" xmlns="http://www.w3.org/2000/svg" xmlns:xlink="http://www.w3.org/1999/xlink" width="16.000000" height="16.000000" fill="none">
	<rect id="操作图标/二维码(mobile-qrcode-border)" width="16.000000" height="16.000000" x="0.000000" y="0.000000" />
	<path id="矢量_191" d="M5.8 0.5C6 0.5 6.2 0.5 6.5 0.6C6.6 0.7 6.8 0.8 6.9 1C7 1.2 7.2 1.4 7.3 1.5C7.4 1.7 7.4 2 7.4 2.2L7.4 5.8C7.4 6 7.3 6.2 7.3 6.5C7.2 6.6 7.1 6.8 6.9 6.9C6.8 7.1 6.6 7.2 6.4 7.3C6.2 7.4 6 7.4 5.8 7.4L2.2 7.4C2.1 7.4 2 7.4 1.8 7.4C1.7 7.4 1.6 7.3 1.5 7.3C1.3 7.2 1.1 7.1 1 6.9C0.8 6.8 0.7 6.6 0.6 6.4C0.5 6.2 0.5 6 0.5 5.8L0.5 2.2C0.5 2.1 0.5 2 0.5 1.8C0.5 1.7 0.6 1.6 0.6 1.5C0.6 1.4 0.7 1.3 0.8 1.2C0.8 1.1 0.9 1.1 1 1C1.1 0.9 1.2 0.9 1.3 0.8C1.4 0.7 1.5 0.7 1.6 0.6C1.7 0.6 1.8 0.5 1.9 0.5C2 0.5 2.1 0.5 2.3 0.5L5.8 0.5ZM14.5 0.6C14.3 0.5 14.1 0.5 13.8 0.5L10.3 0.5C10.1 0.5 9.8 0.5 9.6 0.6C9.4 0.7 9.2 0.8 9 1C8.9 1.1 8.8 1.3 8.7 1.5C8.7 1.6 8.6 1.7 8.6 1.8C8.6 1.9 8.5 2 8.5 2.2L8.5 5.8C8.5 6 8.6 6.2 8.6 6.5C8.8 6.6 8.9 6.8 9 6.9C9.2 7.1 9.3 7.2 9.6 7.3C9.8 7.4 10 7.4 10.3 7.4L13.8 7.4C14 7.4 14.3 7.4 14.5 7.3C14.7 7.2 14.9 7.1 15 6.9C15.1 6.7 15.3 6.6 15.4 6.4C15.5 6.2 15.5 6 15.5 5.7L15.5 2.2C15.5 2 15.4 1.7 15.4 1.5C15.4 1.4 15.3 1.3 15.3 1.2C15.1 1.1 15.1 1.1 15 1C14.8 0.8 14.7 0.7 14.5 0.6ZM5.8 1.5L2.2 1.5C2.1 1.5 2 1.5 1.9 1.5C1.8 1.5 1.8 1.6 1.7 1.6C1.6 1.8 1.6 1.8 1.5 1.9C1.5 2 1.5 2.1 1.5 2.2L1.5 5.8C1.5 6 1.6 6.1 1.7 6.3C1.8 6.4 1.8 6.4 1.9 6.5C2 6.5 2.1 6.5 2.2 6.5L5.7 6.5C5.9 6.5 6 6.4 6.2 6.3C6.3 6.2 6.4 6 6.4 5.8L6.4 2.2C6.4 2.1 6.4 2 6.3 1.9C6.3 1.8 6.2 1.8 6.1 1.7C6.1 1.6 5.9 1.5 5.8 1.5ZM10.2 1.5L13.7 1.5C13.9 1.5 14.1 1.6 14.2 1.7C14.3 1.8 14.3 1.8 14.3 1.9C14.3 2 14.4 2.1 14.4 2.2L14.4 5.8C14.4 6 14.3 6.1 14.2 6.3C14.1 6.4 13.9 6.5 13.7 6.5L10.2 6.5C10.1 6.5 10 6.5 9.9 6.5C9.8 6.5 9.8 6.4 9.7 6.3C9.6 6.1 9.5 5.9 9.5 5.8L9.5 2.2C9.5 2.1 9.5 2 9.6 1.9C9.6 1.8 9.7 1.8 9.8 1.7C9.9 1.6 10 1.5 10.2 1.5ZM5.3 2.6L2.6 2.6L2.6 5.4L5.4 5.4L5.3 2.6ZM13.4 5.3L13.4 2.6L10.6 2.6L10.6 5.4L13.4 5.3ZM5.8 8.6C6 8.6 6.2 8.6 6.5 8.7C6.6 8.8 6.8 8.9 6.9 9C7 9.1 7.2 9.3 7.3 9.5C7.4 9.7 7.4 9.9 7.4 10.2L7.4 13.8C7.4 14 7.3 14.2 7.3 14.5C7.2 14.7 7.1 14.9 6.9 15C6.7 15.1 6.5 15.3 6.4 15.4C6.2 15.5 6 15.5 5.7 15.5L2.2 15.5C2.1 15.5 2 15.5 1.8 15.5C1.7 15.5 1.6 15.4 1.5 15.4C1.3 15.3 1.1 15.1 1 15C0.8 14.8 0.7 14.6 0.6 14.5C0.5 14.3 0.5 14.1 0.5 13.8L0.5 10.2C0.5 10 0.5 9.7 0.6 9.5C0.7 9.4 0.8 9.2 1 9C1.2 8.8 1.4 8.7 1.5 8.6C1.6 8.6 1.7 8.5 1.8 8.5C1.9 8.5 2 8.5 2.2 8.5L5.8 8.5L5.8 8.6ZM10.4 8.6C10.5 8.6 10.6 8.6 10.7 8.7C10.8 8.7 10.9 8.8 10.9 8.8C10.9 8.8 11 8.9 11 9C11 9.1 11 9.2 11 9.3L11 10.4C11 10.6 10.9 10.8 10.8 10.9C10.7 11 10.5 11.1 10.3 11.1L9.2 11.1C9 11.1 8.8 11 8.7 10.9C8.6 10.8 8.5 10.6 8.5 10.4L8.5 9.2C8.5 9.1 8.5 9 8.6 8.9C8.7 8.8 8.7 8.7 8.8 8.7C8.8 8.7 8.9 8.6 9 8.6C9.1 8.6 9.2 8.5 9.3 8.5L10.4 8.5L10.4 8.6ZM10.9 13.1C11 13.2 11.2 13.3 11.4 13.3L12.5 13.3C12.7 13.3 12.9 13.2 13 13.1C13.1 13 13.2 12.8 13.2 12.6L13.2 11.5C13.2 11.3 13.1 11.1 13 11C12.9 10.9 12.7 10.8 12.5 10.8L11.4 10.8C11.2 10.8 10.9 10.8 10.8 10.9C10.7 11 10.7 11.3 10.7 11.5L10.7 12.6C10.7 12.8 10.8 13 10.9 13.1ZM10.9 13.1C11 13.2 11 13.5 11 13.7L11 14.8C11 14.9 11 15 11 15.1C11 15.2 10.9 15.3 10.9 15.3C10.8 15.4 10.7 15.4 10.7 15.4C10.6 15.4 10.5 15.5 10.4 15.5L9.2 15.5C9 15.5 8.8 15.4 8.7 15.3C8.6 15.2 8.5 15 8.5 14.8L8.5 13.7C8.5 13.6 8.5 13.5 8.6 13.4C8.6 13.3 8.7 13.3 8.8 13.2C8.8 13.1 8.9 13.1 9 13C9.1 13 9.1 13 9.2 13L10.3 13C10.6 13 10.8 13 10.9 13.1ZM13.7 8.6L14.8 8.6C15 8.6 15.2 8.7 15.3 8.8C15.4 8.9 15.5 9.1 15.5 9.3L15.5 10.4C15.5 10.5 15.5 10.6 15.4 10.7C15.4 10.8 15.3 10.9 15.3 10.9C15.2 10.9 15.2 11 15.1 11C15 11 14.9 11.1 14.8 11.1L13.7 11.1C13.5 11.1 13.1 11.1 13 11C12.9 10.9 13 10.6 13 10.4L13 9.2C13 9 13 8.8 13.2 8.7C13.3 8.6 13.5 8.6 13.7 8.6ZM5.8 9.6L2.2 9.6C2.1 9.6 2 9.6 1.9 9.7C1.8 9.7 1.8 9.8 1.7 9.8C1.6 9.9 1.5 10.1 1.5 10.3L1.5 13.9C1.5 14.1 1.6 14.2 1.7 14.4C1.8 14.5 1.8 14.5 1.9 14.5C2 14.5 2.1 14.6 2.2 14.6L5.7 14.6C5.9 14.6 6 14.5 6.2 14.4C6.3 14.3 6.4 14.1 6.4 13.9L6.4 10.3C6.4 10.2 6.4 10.1 6.3 10C6.3 9.9 6.2 9.8 6.1 9.8C6.1 9.6 5.9 9.6 5.8 9.6ZM5.3 10.6L2.6 10.6L2.6 13.4L5.4 13.4L5.3 10.6ZM14.8 13C14.9 13 15 13 15.1 13.1C15.2 13.1 15.3 13.2 15.3 13.3C15.4 13.4 15.4 13.4 15.4 13.5C15.4 13.6 15.5 13.7 15.5 13.8L15.5 14.9C15.5 15 15.5 15.1 15.4 15.2C15.4 15.3 15.3 15.4 15.3 15.4C15.2 15.5 15.2 15.5 15.1 15.5C15 15.5 14.9 15.6 14.8 15.6L13.7 15.6C13.5 15.6 13.3 15.5 13.2 15.4C13 15.2 13 15 13 14.8L13 13.7C13 13.5 12.9 13.2 13.1 13.1C13.2 13 13.5 13 13.7 13L14.8 13Z" fill="rgb(25,25,25)" fill-rule="evenodd" />
</svg>
