<svg viewBox="0 0 16 16" xmlns="http://www.w3.org/2000/svg" xmlns:xlink="http://www.w3.org/1999/xlink" width="16.000000" height="16.000000" fill="none">
	<rect id="操作图标/重新执行" width="16.000000" height="16.000000" x="0.000000" y="0.000000" />
	<path id="形状结合" d="M8 1C9.95874 1 11.7296 1.80451 13.0001 3.10111L13 2.5C13 2.23112 13.2122 2.01182 13.4783 2.00046C13.7472 2.00046 13.9882 2.21223 13.9995 2.47831L14 4.5C14 4.77614 13.7761 5 13.5 5L11.5 5C11.2239 5 11 4.77614 11 4.5C11 4.23112 11.2122 4.01182 11.4783 4.00046L12.4722 4.00004C11.3736 2.77252 9.77702 2 8 2C4.68629 2 2 4.68629 2 8C2 11.3137 4.68629 14 8 14C11.3137 14 14 11.3137 14 8C14.0114 7.73392 14.2311 7.5 14.5 7.5C14.7689 7.5 14.9882 7.71223 14.9995 7.97831C14.9995 11.8443 11.866 15 8 15C4.13401 15 1 11.866 1 8C1 4.13401 4.13401 1 8 1ZM6.99393 5C7.18134 5 7.36494 5.05361 7.52353 5.15465L10.6355 7.13736C11.1001 7.43331 11.2395 8.05424 10.947 8.52425C10.8687 8.65005 10.7639 8.75673 10.6399 8.8366L7.52793 10.8424C7.06495 11.1408 6.45055 11.003 6.15563 10.5345C6.05399 10.3731 6 10.1856 6 9.99419L6 6.00569C6 5.45026 6.445 5 6.99393 5ZM6.99393 6.00569L6.99393 9.99419L10.1059 7.98839L6.99393 6.00569Z" fill="rgb(25,25,25)" fill-rule="evenodd" />
	<path id="形状结合" d="M13.0001 3.10111L13 2.5C13 2.23112 13.2122 2.01182 13.4783 2.00046C13.7472 2.00046 13.9882 2.21223 13.9995 2.47831L14 4.5C14 4.77614 13.7761 5 13.5 5L11.5 5C11.2239 5 11 4.77614 11 4.5C11 4.23112 11.2122 4.01182 11.4783 4.00046L12.4722 4.00004C11.3736 2.77252 9.77702 2 8 2C4.68629 2 2 4.68629 2 8C2 11.3137 4.68629 14 8 14C11.3137 14 14 11.3137 14 8C14.0114 7.73392 14.2311 7.5 14.5 7.5C14.7689 7.5 14.9882 7.71223 14.9995 7.97831C14.9995 11.8443 11.866 15 8 15C4.13401 15 1 11.866 1 8C1 4.13401 4.13401 1 8 1C9.95874 1 11.7296 1.80451 13.0001 3.10111ZM7.52353 5.15465L10.6355 7.13736C11.1001 7.43331 11.2395 8.05424 10.947 8.52425C10.8687 8.65005 10.7639 8.75673 10.6399 8.8366L7.52793 10.8424C7.06495 11.1408 6.45055 11.003 6.15563 10.5345C6.05399 10.3731 6 10.1856 6 9.99419L6 6.00569C6 5.45026 6.445 5 6.99393 5C7.18134 5 7.36494 5.05361 7.52353 5.15465ZM6.99393 9.99419L10.1059 7.98839L6.99393 6.00569L6.99393 9.99419Z" fill-rule="evenodd" stroke="rgb(0,0,0)" stroke-opacity="0" stroke-width="1" />
</svg>
