<svg viewBox="0 0 16 16" xmlns="http://www.w3.org/2000/svg" xmlns:xlink="http://www.w3.org/1999/xlink" width="16.000000" height="16.000000" fill="none">
	<rect id="操作图标/后一步(redo)" width="16.000000" height="16.000000" x="0.000000" y="0.000000" />
	<path id="矢量 832" d="M10.6953 8.74938L15.4043 5.25378C15.4746 5.20153 15.5352 5.14245 15.5879 5.07635C15.6348 5.01934 15.6738 4.95715 15.707 4.88977C15.7383 4.82373 15.7637 4.75586 15.7793 4.68615C15.7988 4.60992 15.8086 4.53149 15.8086 4.4508C15.8086 4.37011 15.7988 4.29168 15.7793 4.21545L15.7793 4.21539C15.7637 4.14569 15.7383 4.07782 15.707 4.01184C15.6738 3.94445 15.6348 3.88226 15.5879 3.82525L15.5879 3.82525C15.5352 3.75915 15.4746 3.70001 15.4043 3.64782L10.6953 0.152222C10.4688 -0.0147094 10.1621 0.0308228 9.99414 0.255676C9.82812 0.480468 9.87305 0.788268 10.0977 0.955138L14.1348 3.95068L5.54883 3.95068C5.14648 3.95068 4.75391 3.99328 4.37109 4.07861L4.37109 4.07861C4.05664 4.14874 3.74805 4.24774 3.44531 4.37561C3.14062 4.5047 2.85156 4.65887 2.58008 4.83807C2.27539 5.03863 1.99023 5.2705 1.72852 5.53375C1.46484 5.79693 1.23242 6.08081 1.03125 6.38531L1.03125 6.38531C0.853516 6.65759 0.699219 6.94634 0.570312 7.25158C0.441406 7.55383 0.341797 7.86254 0.273438 8.17761C0.1875 8.56078 0.144531 8.95348 0.144531 9.35558C0.144531 9.75768 0.1875 10.1503 0.273438 10.5334C0.341797 10.8485 0.441406 11.1572 0.570312 11.4596C0.699219 11.7648 0.853516 12.0535 1.03125 12.3257C1.23242 12.6302 1.46484 12.9142 1.72852 13.1774C1.99023 13.4407 2.27539 13.6725 2.58008 13.873L2.58008 13.873C2.85156 14.0522 3.14062 14.2064 3.44531 14.3356C3.74805 14.4634 4.05664 14.5624 4.37109 14.6326C4.75391 14.7179 5.14648 14.7605 5.54883 14.7605L9.68945 14.7605C9.96875 14.7605 10.1895 14.5405 10.1895 14.2605C10.1895 13.9805 9.96875 13.7605 9.68945 13.7605L5.54883 13.7605C5.21484 13.7605 4.88867 13.7244 4.57031 13.6521L4.57031 13.6521C4.32031 13.5953 4.07422 13.5161 3.83594 13.4145C3.58984 13.3108 3.35742 13.1871 3.13867 13.0434C2.88672 12.8787 2.65234 12.6876 2.43555 12.4703C2.2168 12.253 2.02734 12.0185 1.86133 11.767C1.71875 11.5476 1.59375 11.3153 1.49023 11.0701C1.38867 10.8299 1.31055 10.5847 1.25195 10.3345C1.17969 10.0163 1.14453 9.69006 1.14453 9.35558C1.14453 9.02099 1.17969 8.6947 1.25195 8.37658C1.31055 8.12634 1.38867 7.88122 1.49023 7.64111C1.59375 7.39575 1.71875 7.16339 1.86133 6.94409C2.02734 6.6925 2.2168 6.45806 2.43555 6.24084C2.65234 6.02355 2.88672 5.83252 3.13867 5.66772C3.35742 5.5241 3.58984 5.40039 3.83594 5.29663C4.07422 5.19506 4.32031 5.1159 4.57031 5.05908C4.88867 4.98681 5.21484 4.95068 5.54883 4.95068L14.1348 4.95068L10.0977 7.9464C9.87305 8.11327 9.82812 8.42114 9.99414 8.64587C10.1621 8.87072 10.4688 8.91625 10.6953 8.74938Z" fill="rgb(25,25,25)" fill-rule="evenodd" />
</svg>
