<svg viewBox="0 0 16 16" xmlns="http://www.w3.org/2000/svg" xmlns:xlink="http://www.w3.org/1999/xlink" width="16.000000" height="16.000000" fill="none">
	<rect id="操作图标/需求" width="16.000000" height="16.000000" x="0.000000" y="0.000000" />
	<path id="形状结合" d="M10 2C10 1.44772 10.4477 1 11 1L12 1C12.5523 1 13 1.44772 13 2L15 2C15.5523 2 16 2.44772 16 3L16 14C16 14.5523 15.5523 15 15 15L1 15C0.447715 15 0 14.5523 0 14L0 3C0 2.44772 0.447715 2 1 2L3 2C3 1.44772 3.44772 1 4 1L5 1C5.55228 1 6 1.44772 6 2L10 2ZM11 2L11 3L12 3L12 2L11 2ZM10 3L6 3C6 3.55228 5.55228 4 5 4L4 4C3.44772 4 3 3.55228 3 3L1.5 3C1.22386 3 1 3.22386 1 3.5L1 13.5C1 13.7761 1.22386 14 1.5 14L14.5 14C14.7761 14 15 13.7761 15 13.5L15 3.5C15 3.22386 14.7761 3 14.5 3L13 3C13 3.55228 12.5523 4 12 4L11 4C10.4477 4 10 3.55228 10 3ZM5 3L5 2L4 2L4 3L5 3ZM11.684 5.34697L12.3911 6.05408L6.73424 11.7109L3.85649 8.83537L4.5636 8.12827L6.73314 10.2978L11.684 5.34697Z" fill="rgb(25,25,25)" fill-rule="evenodd" />
	<path id="形状结合" d="M11 1L12 1C12.5523 1 13 1.44772 13 2L15 2C15.5523 2 16 2.44772 16 3L16 14C16 14.5523 15.5523 15 15 15L1 15C0.447715 15 0 14.5523 0 14L0 3C0 2.44772 0.447715 2 1 2L3 2C3 1.44772 3.44772 1 4 1L5 1C5.55228 1 6 1.44772 6 2L10 2C10 1.44772 10.4477 1 11 1ZM11 3L12 3L12 2L11 2L11 3ZM6 3C6 3.55228 5.55228 4 5 4L4 4C3.44772 4 3 3.55228 3 3L1.5 3C1.22386 3 1 3.22386 1 3.5L1 13.5C1 13.7761 1.22386 14 1.5 14L14.5 14C14.7761 14 15 13.7761 15 13.5L15 3.5C15 3.22386 14.7761 3 14.5 3L13 3C13 3.55228 12.5523 4 12 4L11 4C10.4477 4 10 3.55228 10 3L6 3ZM5 2L4 2L4 3L5 3L5 2ZM12.3911 6.05408L6.73424 11.7109L3.85649 8.83537L4.5636 8.12827L6.73314 10.2978L11.684 5.34697L12.3911 6.05408Z" fill-rule="evenodd" stroke="rgb(0,0,0)" stroke-opacity="0" stroke-width="1" />
</svg>
