<svg viewBox="0 0 16 16" xmlns="http://www.w3.org/2000/svg" xmlns:xlink="http://www.w3.org/1999/xlink" width="16.000000" height="16.000000" fill="none" customFrame="#000000">
	<rect id="操作图标/重置" width="16.000000" height="16.000000" x="0.000000" y="0.000000" fill="rgb(255,255,255)" fill-opacity="0" />
	<path id="形状结合" d="M8.9259 1C10.7785 1 12.6312 1.84211 13.8663 3.07719C15.2698 4.4807 15.9434 6.16491 15.9996 7.84912C15.9996 9.70176 15.1575 11.5544 13.9224 12.7895C12.6312 14.193 10.8347 14.8667 8.98204 14.8667C7.63467 14.8667 6.45572 14.5298 5.33292 13.8561L5.89432 12.9579C6.68029 13.5193 7.85923 13.8561 8.86976 13.8561C12.0698 13.8561 14.7084 11.2175 14.7084 8.01754C14.7084 4.81754 12.0698 2.17895 8.86976 2.17895C5.80077 2.17895 3.17546 4.67472 3.03348 7.73687L3.15411 7.73687L3.15411 8.29827L4.50148 7.06318C4.61376 6.83862 5.06289 6.72634 5.28745 6.9509C5.56815 7.2316 5.56815 7.56845 5.23131 7.90529L3.15411 9.98248C2.92955 10.207 2.42429 10.207 2.25587 9.98248L0.178675 7.90529C-0.0458864 7.68073 -0.0458864 7.40003 0.178675 7.11932C0.403236 6.83862 0.740078 6.83862 1.02078 7.06318L2.03131 8.07371L2.03131 7.79298L1.90835 7.79298C2.02064 5.94035 2.75046 4.2 4.09783 2.96491C5.38906 1.67369 7.07327 1 8.9259 1ZM7.57926 8.01754C7.57926 8.8035 8.1968 9.3649 8.92663 9.3649C9.65645 9.3649 10.274 8.74736 10.274 8.01754C10.274 7.28771 9.65645 6.67017 8.92663 6.67017C8.1968 6.61403 7.57926 7.23157 7.57926 8.01754Z" fill="rgb(25,25,25)" fill-rule="evenodd" />
</svg>
