<svg viewBox="0 0 16 16" xmlns="http://www.w3.org/2000/svg" xmlns:xlink="http://www.w3.org/1999/xlink" width="16.000000" height="16.000000" fill="none">
	<rect id="操作图标/保存" width="16.000000" height="16.000000" x="0.000000" y="0.000000" />
	<path id="形状结合" d="M13 1.5C13.8284 1.5 14.5 2.17157 14.5 3L14.5 13C14.5 13.8284 13.8284 14.5 13 14.5L3 14.5C2.17157 14.5 1.5 13.8284 1.5 13L1.5 3C1.5 2.17157 2.17157 1.5 3 1.5L13 1.5ZM4.833 2.5L3 2.5C2.72386 2.5 2.5 2.72386 2.5 3L2.5 13C2.5 13.2762 2.72385 13.5 3 13.5L13 13.5C13.2762 13.5 13.5 13.2762 13.5 13L13.5 3C13.5 2.72385 13.2762 2.5 13 2.5L11.166 2.5L11.1667 5.33333C11.1667 5.57879 10.9898 5.78294 10.7565 5.82528L5.33333 5.83333C5.05719 5.83333 4.83333 5.60948 4.83333 5.33333L4.833 2.5ZM10.3333 11.5C10.6095 11.5 10.8333 11.7239 10.8333 12C10.8333 12.2455 10.6565 12.4496 10.4232 12.4919L5.66667 12.5C5.39052 12.5 5.16667 12.2761 5.16667 12C5.16667 11.7545 5.34354 11.5504 5.57679 11.5081L10.3333 11.5ZM10.166 2.5L5.833 2.5L5.833 4.833L10.166 4.833L10.166 2.5Z" fill="rgb(25,25,25)" fill-rule="nonzero" />
	<path id="形状结合" d="M14.5 3L14.5 13C14.5 13.8284 13.8284 14.5 13 14.5L3 14.5C2.17157 14.5 1.5 13.8284 1.5 13L1.5 3C1.5 2.17157 2.17157 1.5 3 1.5L13 1.5C13.8284 1.5 14.5 2.17157 14.5 3ZM3 2.5C2.72386 2.5 2.5 2.72386 2.5 3L2.5 13C2.5 13.2762 2.72385 13.5 3 13.5L13 13.5C13.2762 13.5 13.5 13.2762 13.5 13L13.5 3C13.5 2.72385 13.2762 2.5 13 2.5L11.166 2.5L11.1667 5.33333C11.1667 5.57879 10.9898 5.78294 10.7565 5.82528L5.33333 5.83333C5.05719 5.83333 4.83333 5.60948 4.83333 5.33333L4.833 2.5L3 2.5ZM10.8333 12C10.8333 12.2455 10.6565 12.4496 10.4232 12.4919L5.66667 12.5C5.39052 12.5 5.16667 12.2761 5.16667 12C5.16667 11.7545 5.34354 11.5504 5.57679 11.5081L10.3333 11.5C10.6095 11.5 10.8333 11.7239 10.8333 12ZM5.833 2.5L5.833 4.833L10.166 4.833L10.166 2.5L5.833 2.5Z" fill-rule="nonzero" stroke="rgb(0,0,0)" stroke-opacity="0" stroke-width="1" />
</svg>
