<svg viewBox="0 0 16 16" xmlns="http://www.w3.org/2000/svg" xmlns:xlink="http://www.w3.org/1999/xlink" width="16.000000" height="16.000000" fill="none">
	<rect id="操作图标/已选" width="16.000000" height="16.000000" x="0.000000" y="0.000000" />
	<circle id="椭圆 1" cx="8" cy="8" r="8" fill="rgb(10,89,247)" />
	<path id="直线 2 (边框)" d="M5.38921 0.75L5.38921 7.49289C5.38921 7.64379 5.35825 7.7878 5.29633 7.92492C5.26724 7.98933 5.23247 8.04966 5.19202 8.1059C5.14992 8.16444 5.10166 8.21856 5.04725 8.26825C4.99284 8.31793 4.93459 8.36108 4.87248 8.3977C4.8128 8.4329 4.74956 8.46207 4.68277 8.48521C4.5406 8.53445 4.39438 8.55224 4.2441 8.53857L0.682242 8.21459C0.263969 8.17654 -0.0347819 7.81801 0.00326365 7.39974C0.0413089 6.98146 0.399845 6.68271 0.818118 6.72076L3.88921 7.0001L3.88921 0.75C3.88921 0.33 4.21921 0 4.63921 0C5.05921 -2.38419e-07 5.38921 0.33 5.38921 0.75Z" fill="rgb(255,254.745,254.745)" fill-rule="evenodd" transform="matrix(0.707107,0.707107,-0.707107,0.707107,9.12476,2.06409)" />
</svg>
