<svg viewBox="0 0 16 16" xmlns="http://www.w3.org/2000/svg" xmlns:xlink="http://www.w3.org/1999/xlink" width="16.000000" height="16.000000" fill="none">
	<rect id="操作图标/选择控制器收起" width="16.000000" height="16.000000" x="0.000000" y="0.000000" />
	<path id="形状结合" d="M13 1C14.1046 1 15 1.89543 15 3L15 13C15 14.1046 14.1046 15 13 15L3 15C1.89543 15 1 14.1046 1 13L1 3C1 1.89543 1.89543 1 3 1L13 1ZM13 2L3 2C2.48716 2 2.06449 2.38604 2.00673 2.88338L2 3L2 13C2 13.5128 2.38604 13.9355 2.88338 13.9933L3 14L13 14C13.5128 14 13.9355 13.614 13.9933 13.1166L14 13L14 3C14 2.48716 13.614 2.06449 13.1166 2.00673L13 2ZM12 7.5L12 8.5L4 8.5L4 7.5L12 7.5Z" fill="rgb(25,25,25)" fill-rule="evenodd" />
	<path id="形状结合" d="M15 3L15 13C15 14.1046 14.1046 15 13 15L3 15C1.89543 15 1 14.1046 1 13L1 3C1 1.89543 1.89543 1 3 1L13 1C14.1046 1 15 1.89543 15 3ZM3 2C2.48716 2 2.06449 2.38604 2.00673 2.88338L2 3L2 13C2 13.5128 2.38604 13.9355 2.88338 13.9933L3 14L13 14C13.5128 14 13.9355 13.614 13.9933 13.1166L14 13L14 3C14 2.48716 13.614 2.06449 13.1166 2.00673L13 2L3 2ZM12 8.5L4 8.5L4 7.5L12 7.5L12 8.5Z" fill-rule="evenodd" stroke="rgb(0,0,0)" stroke-opacity="0" stroke-width="1" />
</svg>
