<svg viewBox="0 0 16 16" xmlns="http://www.w3.org/2000/svg" xmlns:xlink="http://www.w3.org/1999/xlink" width="16.000000" height="16.000000" fill="none">
	<rect id="操作图标/显示数据" width="16.000000" height="16.000000" x="0.000000" y="0.000000" fill="rgb(255,255,255)" fill-opacity="0" />
	<path id="形状结合" d="M6.5 14.5L3 14.5C2.81609 14.5 2.63644 14.4807 2.46104 14.4421C2.31331 14.4095 2.16843 14.3633 2.02673 14.3033C1.88455 14.2432 1.75011 14.1713 1.62343 14.0877C1.48358 13.9954 1.35318 13.8887 1.23223 13.7678C1.11141 13.6469 1.00486 13.5167 0.912603 13.377C0.828982 13.2503 0.756802 13.1154 0.696667 12.9733C0.63674 12.8316 0.590508 12.6869 0.557971 12.5392C0.519324 12.3637 0.5 12.184 0.5 12L0.5 3C0.5 2.81603 0.519323 2.63631 0.55797 2.46085C0.590506 2.31312 0.636739 2.16842 0.696668 2.02673C0.75681 1.88454 0.828698 1.7501 0.912332 1.62342C1.00465 1.48359 1.1113 1.35317 1.23223 1.23223C1.35316 1.1113 1.48354 1.00468 1.62336 0.91237C1.75005 0.828736 1.88454 0.75681 2.02673 0.696668C2.16842 0.636739 2.31313 0.590506 2.46085 0.557969C2.63631 0.519325 2.81603 0.5 3 0.5L12 0.5C12.1839 0.5 12.3636 0.519314 12.539 0.557943C12.6868 0.590479 12.8316 0.636738 12.9733 0.696668C13.1155 0.756808 13.2499 0.828694 13.3766 0.912325C13.5162 1.00457 13.647 1.11144 13.7678 1.23223C13.8887 1.35319 13.9954 1.4836 14.0877 1.62347C14.1713 1.75013 14.2432 1.88457 14.3033 2.02673C14.3633 2.16841 14.4095 2.31311 14.442 2.46082C14.4806 2.63616 14.5 2.81616 14.5 3L14.5 7.5C14.5 7.78 14.28 8 14 8C13.72 8 13.5 7.78 13.5 7.5L13.5 3C13.5 2.88361 13.4872 2.77018 13.4616 2.65973C13.4424 2.57692 13.4159 2.49576 13.3823 2.41629C13.3475 2.33398 13.3061 2.25597 13.2581 2.18226C13.2015 2.09549 13.1355 2.01418 13.0607 1.93934C12.9857 1.86434 12.9047 1.79853 12.8177 1.74189C12.744 1.6939 12.666 1.65248 12.5837 1.61767C12.5043 1.58407 12.4232 1.55767 12.3404 1.53846C12.2299 1.51283 12.1164 1.5 12 1.5L3 1.5C2.8836 1.5 2.77016 1.51281 2.65971 1.53844C2.57692 1.55765 2.49573 1.58407 2.41629 1.61767C2.33396 1.65249 2.25594 1.69391 2.18221 1.74193C2.09528 1.79855 2.01431 1.86436 1.93934 1.93934C1.86437 2.01431 1.79857 2.09526 1.74195 2.18219C1.69394 2.25591 1.65249 2.33398 1.61767 2.41629C1.58406 2.49575 1.55765 2.57689 1.53844 2.6597C1.51281 2.77016 1.5 2.8836 1.5 3L1.5 12C1.5 12.1164 1.51281 12.2298 1.53844 12.3403C1.55765 12.4231 1.58407 12.5043 1.61767 12.5837C1.65248 12.666 1.69389 12.744 1.7419 12.8177C1.79853 12.9047 1.86436 12.9857 1.93934 13.0607C2.01432 13.1356 2.09527 13.2014 2.18221 13.2581C2.25571 13.3059 2.33425 13.3476 2.41629 13.3823C2.49578 13.4159 2.57694 13.4424 2.65977 13.4616C2.77021 13.4872 2.88362 13.5 3 13.5L6.5 13.5C6.78 13.5 7 13.72 7 14C7 14.28 6.78 14.5 6.5 14.5ZM6.99999 8.50254L7.02538 3.50303C7.0268 3.22303 6.80793 3.00192 6.52793 3.0005C6.24793 2.99907 6.02682 3.21795 6.0254 3.49795L6.00001 8.49746C5.99858 8.77746 6.21746 8.99857 6.49746 8.99999C6.77746 9.00142 6.99857 8.78254 6.99999 8.50254ZM9.5 7L9.5 4.5C9.5 4.22 9.28 4 9 4C8.72 4 8.5 4.22 8.5 4.5L8.5 7C8.5 7.28 8.72 7.5 9 7.5C9.28 7.5 9.5 7.28 9.5 7ZM12.0127 5.96164L12 7.00608C11.9966 7.28606 11.7739 7.50337 11.4939 7.49996C11.2139 7.49656 10.9966 7.2739 11 6.99392L11.0127 5.94949C11.0161 5.66951 11.2388 5.4522 11.5188 5.4556C11.7988 5.45901 12.0161 5.68166 12.0127 5.96164ZM4.5 6.5C4.5 6.22 4.28 6 4 6C3.72 6 3.5 6.22 3.5 6.5L3.5 11.5C3.5 11.78 3.72 12 4 12C4.28 12 4.5 11.78 4.5 11.5L4.5 6.5ZM10.1262 14.127C10.3338 14.1639 10.5429 14.1883 10.7534 14.2001C13.2084 14.2001 14.8494 11.8431 14.9174 11.7431C14.9441 11.7042 14.9648 11.6625 14.9796 11.6178C14.9944 11.5731 15.0028 11.5272 15.0046 11.4801C15.0065 11.4331 15.0018 11.3867 14.9905 11.3409C14.9793 11.2952 14.9619 11.2519 14.9384 11.2111C14.8754 11.1001 13.3464 8.50009 10.7534 8.50009C10.5346 8.51199 10.3175 8.53811 10.1021 8.57845C9.88664 8.6188 9.67478 8.67302 9.46647 8.74113C9.25816 8.80923 9.05518 8.89064 8.85753 8.98534C8.65989 9.08004 8.46927 9.18723 8.28567 9.3069C8.10206 9.42658 7.92706 9.55772 7.76064 9.70033C7.59422 9.84294 7.43782 9.99579 7.29143 10.1589C7.14504 10.322 7.00991 10.4939 6.88605 10.6748C6.76219 10.8556 6.65065 11.0437 6.55144 11.2391C6.53291 11.2767 6.51932 11.3159 6.51066 11.3569C6.502 11.3979 6.49854 11.4393 6.50029 11.4811C6.50204 11.523 6.50893 11.564 6.52098 11.6041C6.53303 11.6442 6.54985 11.6822 6.57144 11.7181C6.68266 11.8972 6.8042 12.0691 6.93605 12.2336C7.00195 12.3159 7.0702 12.396 7.14079 12.474C7.2114 12.5521 7.2844 12.6281 7.3597 12.7019C7.51028 12.8495 7.66915 12.9875 7.83631 13.1161C7.91988 13.1803 8.00523 13.242 8.09234 13.301C8.17936 13.36 8.26848 13.4166 8.35904 13.4703C8.54037 13.5779 8.72748 13.6743 8.92038 13.7595C9.11328 13.8446 9.31058 13.9179 9.51228 13.9794C9.71398 14.0409 9.91863 14.0901 10.1262 14.127ZM7.73235 11.6236C7.684 11.5625 7.63736 11.5 7.59244 11.4361C7.69394 11.2774 7.80368 11.1253 7.92168 10.98C8.03968 10.8347 8.16594 10.696 8.30044 10.5641C8.45904 10.3981 8.63251 10.2494 8.82087 10.1181C9.00923 9.98679 9.20873 9.87545 9.41937 9.78409C9.63001 9.69272 9.84762 9.62313 10.0722 9.57533C10.2968 9.52752 10.5238 9.50244 10.7534 9.50009C10.9118 9.51625 11.0688 9.54128 11.2243 9.57518C11.3799 9.60908 11.533 9.65163 11.6837 9.70284C11.8345 9.75404 11.9818 9.81357 12.1258 9.88143C12.2698 9.94929 12.4096 10.025 12.545 10.1087C12.6805 10.1923 12.8108 10.2834 12.9359 10.3817C12.9985 10.4309 13.0595 10.4817 13.1191 10.5343C13.1786 10.5868 13.237 10.6412 13.2936 10.6971C13.3502 10.7529 13.4051 10.8103 13.4583 10.8692C13.5117 10.9281 13.5634 10.9887 13.6135 11.0507C13.7134 11.1746 13.8061 11.3037 13.8914 11.4381C13.7987 11.5616 13.6997 11.68 13.5947 11.7932C13.4896 11.9065 13.3789 12.014 13.2627 12.1157C13.2045 12.1666 13.1451 12.216 13.0845 12.2637C13.024 12.3114 12.9621 12.3576 12.8991 12.4021C12.773 12.4913 12.6426 12.5737 12.5079 12.6493C12.3732 12.725 12.2349 12.7934 12.0931 12.8547C11.9513 12.916 11.8067 12.9698 11.6593 13.016C11.5119 13.0623 11.3625 13.1008 11.2112 13.1316C11.0598 13.1623 10.9072 13.1852 10.7534 13.2001C10.5975 13.1907 10.4427 13.1726 10.2888 13.1458C10.2118 13.1324 10.1353 13.1169 10.0594 13.0992C9.98346 13.0816 9.90806 13.0618 9.83316 13.0399C9.68326 12.996 9.53629 12.9439 9.39224 12.8836C9.2482 12.8232 9.10798 12.755 8.9716 12.6789C8.83522 12.6028 8.70353 12.5193 8.57653 12.4284C8.44953 12.3375 8.32802 12.2397 8.212 12.1352C8.09598 12.0306 7.98617 11.9199 7.88259 11.803C7.83079 11.7446 7.78071 11.6848 7.73235 11.6236ZM10.8276 9.80011C10.8777 9.80011 10.9276 9.80256 10.9774 9.80747C11.0272 9.81237 11.0767 9.81971 11.1257 9.82947C11.15 9.83555 11.2472 9.85863 11.2712 9.86591C11.3191 9.88043 11.3661 9.89727 11.4124 9.91642C11.4586 9.93557 11.5038 9.95694 11.5479 9.98053C11.5921 10.0041 11.6349 10.0298 11.6765 10.0576C11.7182 10.0854 11.7583 10.1152 11.797 10.1469C11.8357 10.1787 11.8727 10.2123 11.9081 10.2477C11.9435 10.283 11.977 10.3201 12.0088 10.3588C12.0405 10.3974 12.0703 10.4376 12.0981 10.4792C12.1259 10.5208 12.1516 10.5637 12.1752 10.6078C12.1988 10.652 12.2202 10.6971 12.2393 10.7434C12.2585 10.7896 12.2753 10.8367 12.2898 10.8846C12.2959 10.9087 12.3214 11.0056 12.3263 11.03C12.336 11.0791 12.3434 11.1285 12.3483 11.1783C12.3532 11.2281 12.3556 11.2781 12.3556 11.3281C12.3556 11.3782 12.3532 11.4281 12.3483 11.4779C12.3434 11.5277 12.336 11.5771 12.3263 11.6262C12.3202 11.6506 12.2971 11.7476 12.2898 11.7717C12.2753 11.8196 12.2585 11.8666 12.2393 11.9129C12.2202 11.9591 12.1988 12.0043 12.1752 12.0484C12.1516 12.0925 12.1259 12.1354 12.0981 12.177C12.0703 12.2186 12.0405 12.2588 12.0088 12.2975C11.977 12.3361 11.9435 12.3732 11.9081 12.4086C11.8727 12.444 11.8357 12.4775 11.797 12.5093C11.7583 12.541 11.7182 12.5708 11.6765 12.5986C11.6349 12.6264 11.5921 12.6521 11.5479 12.6757C11.5038 12.6993 11.4586 12.7206 11.4124 12.7398C11.3661 12.7589 11.3191 12.7758 11.2712 12.7903C11.2469 12.7964 11.1503 12.8219 11.1257 12.8268C11.0767 12.8365 11.0272 12.8438 10.9774 12.8488C10.9276 12.8537 10.8777 12.8561 10.8276 12.8561C10.7776 12.8561 10.7277 12.8537 10.6779 12.8488C10.6281 12.8438 10.5786 12.8365 10.5295 12.8268C10.5057 12.8208 10.4076 12.7975 10.3841 12.7903C10.3362 12.7758 10.2891 12.7589 10.2429 12.7398C10.1967 12.7206 10.1515 12.6993 10.1073 12.6757C10.0632 12.6521 10.0203 12.6264 9.97873 12.5986C9.93712 12.5708 9.89697 12.541 9.85828 12.5093C9.8196 12.4775 9.78256 12.444 9.74718 12.4086C9.71179 12.3732 9.67822 12.3361 9.64648 12.2975C9.61473 12.2588 9.58495 12.2186 9.55715 12.177C9.52935 12.1354 9.50365 12.0925 9.48006 12.0484C9.45647 12.0043 9.4351 11.9591 9.41595 11.9129C9.40762 11.8895 9.37263 11.7954 9.36543 11.7717C9.35937 11.7475 9.33387 11.6507 9.329 11.6262C9.31923 11.5771 9.3119 11.5277 9.30699 11.4779C9.30209 11.4281 9.29964 11.3782 9.29964 11.3281C9.2997 11.2781 9.30221 11.2282 9.30718 11.1784C9.31214 11.1286 9.31952 11.0792 9.32933 11.0302C9.33914 10.9811 9.35132 10.9326 9.36588 10.8848C9.38044 10.8369 9.39731 10.7899 9.41648 10.7437C9.43566 10.6975 9.45705 10.6523 9.48065 10.6082C9.50425 10.5641 9.52996 10.5213 9.55777 10.4797C9.58557 10.4381 9.61535 10.398 9.64709 10.3593C9.67883 10.3206 9.71239 10.2836 9.74776 10.2482C9.78314 10.2129 9.82016 10.1793 9.85882 10.1476C9.89749 10.1158 9.93761 10.086 9.9792 10.0582C10.0208 10.0304 10.0636 10.0047 10.1077 9.98112C10.1303 9.97042 10.2201 9.92655 10.2432 9.91696C10.2894 9.89778 10.3364 9.88091 10.3843 9.86635C10.4322 9.85179 10.4806 9.83961 10.5297 9.8298C10.5787 9.81999 10.6281 9.81261 10.6779 9.80765C10.7277 9.80269 10.7776 9.80018 10.8276 9.80011ZM10.8276 11.8571C10.8623 11.8571 10.8966 11.8537 10.9306 11.847C10.9626 11.8337 11.0921 11.7874 11.1209 11.7682C11.1454 11.7437 11.2473 11.6514 11.2665 11.6226C11.2798 11.5906 11.3387 11.4664 11.3454 11.4324C11.3522 11.3984 11.3556 11.3641 11.3556 11.3294C11.3557 11.2948 11.3523 11.2605 11.3456 11.2265C11.3323 11.1944 11.2861 11.065 11.2669 11.0361C11.2424 11.0116 11.1502 10.9097 11.1214 10.8904C11.0894 10.8771 10.9652 10.8182 10.9313 10.8114C10.8973 10.8046 10.863 10.8012 10.8283 10.8011C10.8111 10.8028 10.7423 10.8078 10.7253 10.8111C10.7093 10.8177 10.5947 10.855 10.5794 10.8631C10.5506 10.8823 10.4794 10.9307 10.4549 10.9552C10.4356 10.984 10.3535 11.0942 10.3402 11.1262C10.3334 11.1602 10.2997 11.2935 10.2996 11.3281C10.2996 11.3628 10.303 11.3972 10.3098 11.4312C10.323 11.4633 10.3693 11.5928 10.3886 11.6217C10.4131 11.6463 10.5054 11.7483 10.5342 11.7676C10.5663 11.7809 10.6906 11.84 10.7246 11.8468C10.7586 11.8536 10.7929 11.857 10.8276 11.8571Z" fill="rgb(25,25,25)" fill-rule="evenodd" />
</svg>
