<svg viewBox="0 0 16 16" xmlns="http://www.w3.org/2000/svg" xmlns:xlink="http://www.w3.org/1999/xlink" width="16.000000" height="16.000000" fill="none">
	<rect id="操作图标/排序(mobile-sort-border)" width="16.000000" height="16.000000" x="0.000000" y="0.000000" />
	<path id="合并" d="M1.46004 4.22016L5.31004 0.310156C5.40004 0.210156 5.52004 0.160156 5.66004 0.160156C5.80004 0.160156 5.91004 0.210156 6.01004 0.300156C6.06004 0.350156 6.10004 0.410156 6.12004 0.470156C6.15004 0.530156 6.16004 0.590156 6.16004 0.660156L6.16004 15.3302C6.16004 15.6102 5.94004 15.8302 5.66004 15.8302C5.38004 15.8302 5.16004 15.6102 5.16004 15.3302L5.16004 1.88016L2.17004 4.92016C1.98004 5.12016 1.67004 5.12016 1.47004 4.92016C1.27004 4.73016 1.26004 4.42016 1.46004 4.22016ZM10.33 0.160156C10.61 0.160156 10.83 0.380156 10.83 0.660156L10.83 14.1102L13.82 11.0902C14.01 10.8902 14.33 10.8902 14.52 11.0902C14.72 11.2802 14.73 11.6002 14.53 11.8002L10.68 15.6802C10.59 15.7802 10.47 15.8302 10.33 15.8302C10.19 15.8302 10.07 15.7802 9.98003 15.6802C9.93004 15.6402 9.89004 15.5802 9.87004 15.5202C9.84004 15.4602 9.83004 15.3902 9.83004 15.3302L9.83004 0.660156C9.83004 0.380156 10.05 0.160156 10.33 0.160156Z" fill="rgb(25,25,25)" fill-rule="evenodd" />
</svg>
