<svg viewBox="0 0 16 16" xmlns="http://www.w3.org/2000/svg" xmlns:xlink="http://www.w3.org/1999/xlink" width="16.000000" height="16.000000" fill="none">
	<rect id="操作图标/排序" width="16.000000" height="16.000000" x="0.000000" y="0.000000" />
	<path id="合并" d="M8.5912 1.34921L12.417 5.81262C12.973 6.46129 12.5121 7.46341 11.6577 7.46341L4.00616 7.46341C3.15181 7.46341 2.6909 6.46129 3.2469 5.81262L7.07268 1.34921C7.47178 0.883597 8.1921 0.883597 8.5912 1.34921ZM11.6577 6.46341L7.83194 2L4.00616 6.46341L11.6577 6.46341ZM8.59127 14.5773L12.4174 10.1125C12.9733 9.46383 12.5123 8.46182 11.658 8.46182L4.00584 8.46182C3.15154 8.46182 2.69061 9.46383 3.24651 10.1125L7.07261 14.5773C7.47171 15.0431 8.19217 15.0431 8.59127 14.5773ZM11.658 9.46182L7.83194 13.9266L4.00584 9.46182L11.658 9.46182Z" fill="rgb(25,25,25)" fill-rule="evenodd" />
</svg>
