<svg viewBox="0 0 16 16" xmlns="http://www.w3.org/2000/svg" xmlns:xlink="http://www.w3.org/1999/xlink" width="16.000000" height="16.000000" fill="none">
	<rect id="操作图标/扬声器(mobile-speaker-border)" width="16.000000" height="16.000000" x="0.000000" y="0.000000" />
	<path id="合并" d="M1.8001 11.4001L4.0001 11.4001C4.3001 11.4001 4.5001 11.2001 4.5001 10.9001C4.5001 10.6001 4.3001 10.4001 4.0001 10.4001L1.8001 10.4001L1.7001 10.4001L1.7001 10.3001L1.7001 5.7001C1.8001 5.7001 1.8001 5.6001 1.8001 5.6001L5.8001 5.6001C5.9001 5.6001 6.0001 5.6001 6.1001 5.5001C6.2001 5.5001 6.3001 5.4001 6.4001 5.4001L13.1001 1.1001C13.2001 1.0001 13.2001 1.0001 13.3001 1.1001C13.4001 1.1001 13.4001 1.2001 13.4001 1.3001L13.4001 14.8001C13.4001 14.9001 13.4001 14.9001 13.3001 15.0001C13.2001 15.0001 13.2001 15.0001 13.1001 15.0001L6.3001 10.6001C6.1001 10.4001 5.8001 10.5001 5.6001 10.7001C5.4001 10.9001 5.5001 11.2001 5.8001 11.4001L12.6001 15.8001C12.8001 15.9001 13.0001 16.0001 13.2001 16.0001C13.4001 16.0001 13.6001 16.0001 13.8001 15.9001C14.0001 15.8001 14.2001 15.7001 14.3001 15.5001C14.4001 15.3001 14.5001 15.1001 14.5001 14.9001L14.5001 1.3001C14.5001 1.2001 14.5001 1.1001 14.5001 0.900098C14.5001 0.800098 14.4001 0.700098 14.4001 0.600098C14.3001 0.500098 14.3001 0.400098 14.2001 0.400098C14.1001 0.300098 14.0001 0.300098 13.9001 0.200098C13.8001 0.200098 13.7001 0.100098 13.6001 0.100098C13.5001 0.100098 13.4001 0.100098 13.3001 0.100098C13.1001 0.100098 12.9001 0.200098 12.7001 0.300098L5.9001 4.5001L1.8001 4.5001C1.7001 4.5001 1.6001 4.5001 1.6001 4.5001C1.5001 4.5001 1.5001 4.5001 1.4001 4.6001C1.2001 4.7001 1.1001 4.8001 1.0001 4.9001C0.900098 5.0001 0.800098 5.1001 0.700098 5.3001C0.700098 5.4001 0.600098 5.4001 0.600098 5.5001C0.600098 5.6001 0.600098 5.7001 0.600098 5.7001L0.600098 10.2001C0.600098 10.4001 0.700098 10.5001 0.700098 10.7001C0.800098 10.9001 0.900098 11.0001 1.0001 11.1001C1.1001 11.2001 1.1001 11.2001 1.2001 11.2001C1.3001 11.2001 1.3001 11.3001 1.4001 11.3001C1.5001 11.4001 1.6001 11.4001 1.8001 11.4001Z" fill="rgb(25,25,25)" fill-rule="evenodd" />
</svg>
