<svg viewBox="0 0 16 16" xmlns="http://www.w3.org/2000/svg" xmlns:xlink="http://www.w3.org/1999/xlink" width="16.000000" height="16.000000" fill="none" customFrame="#000000">
	<rect id="操作图标/收藏-面性" width="16.000000" height="16.000000" x="0.000000" y="0.000000" />
	<path id="形状结合" d="M7.99973 12.4151L5.16638 13.9792C4.68288 14.2461 4.07455 14.0706 3.80763 13.5871C3.69459 13.3823 3.65691 13.1444 3.70114 12.9147L4.31314 9.73667L1.95003 7.52533C1.54677 7.14797 1.52578 6.51516 1.90314 6.1119C2.06296 5.94111 2.2776 5.83174 2.50971 5.80283L5.72129 5.40283L7.09415 2.47204C7.32843 1.97191 7.92379 1.75639 8.42392 1.99066C8.63574 2.08988 8.80608 2.26022 8.9053 2.47204L10.2782 5.40283L13.4897 5.80283C14.0378 5.87109 14.4267 6.37071 14.3585 6.91876C14.3296 7.15088 14.2202 7.36551 14.0494 7.52533L11.6863 9.73667L12.2983 12.9147C12.4028 13.457 12.0478 13.9813 11.5055 14.0857C11.2758 14.13 11.0378 14.0923 10.8331 13.9792L7.99973 12.4151Z" fill="rgb(250,197,50)" fill-rule="evenodd" />
</svg>
