<svg viewBox="0 0 16 16" xmlns="http://www.w3.org/2000/svg" xmlns:xlink="http://www.w3.org/1999/xlink" width="16.000000" height="16.000000" fill="none">
	<rect id="操作图标/停止" width="16.000000" height="16.000000" x="0.000000" y="0.000000" />
	<path id="形状结合" d="M12.9497 3.05025C15.6834 5.78392 15.6834 10.2161 12.9497 12.9497C10.2161 15.6834 5.78392 15.6834 3.05025 12.9497C0.316582 10.2161 0.316582 5.78392 3.05025 3.05025C5.78392 0.316582 10.2161 0.316582 12.9497 3.05025ZM11.8739 12.5823L3.41774 4.12613C1.42029 6.48351 1.53349 10.0188 3.75736 12.2426C5.98123 14.4665 9.51649 14.5797 11.8739 12.5823ZM12.2426 3.75736C10.0185 1.53325 6.48274 1.42026 4.12536 3.41839L12.5816 11.8746C14.5797 9.51726 14.4667 5.98147 12.2426 3.75736Z" fill="rgb(25,25,25)" fill-rule="evenodd" />
	<path id="形状结合" d="M12.9497 12.9497C10.2161 15.6834 5.78392 15.6834 3.05025 12.9497C0.316582 10.2161 0.316582 5.78392 3.05025 3.05025C5.78392 0.316582 10.2161 0.316582 12.9497 3.05025C15.6834 5.78392 15.6834 10.2161 12.9497 12.9497ZM3.41774 4.12613C1.42029 6.48351 1.53349 10.0188 3.75736 12.2426C5.98123 14.4665 9.51649 14.5797 11.8739 12.5823L3.41774 4.12613ZM4.12536 3.41839L12.5816 11.8746C14.5797 9.51726 14.4667 5.98147 12.2426 3.75736C10.0185 1.53325 6.48274 1.42026 4.12536 3.41839Z" fill-rule="evenodd" stroke="rgb(0,0,0)" stroke-opacity="0" stroke-width="1" />
</svg>
