<svg viewBox="0 0 16 16" xmlns="http://www.w3.org/2000/svg" xmlns:xlink="http://www.w3.org/1999/xlink" width="16.000000" height="16.000000" fill="none">
	<rect id="操作图标/待办" width="16.000000" height="16.000000" x="0.000000" y="0.000000" />
	<path id="形状结合" d="M8 1C10.6488 1 13.0337 2.48455 14.2257 4.79688C14.3307 5.00052 14.2712 5.24552 14.0958 5.38038L8.14495 10.6684C7.98295 10.8304 7.73149 10.8484 7.54961 10.7224L4.36996 7.55342C4.18772 7.37117 4.18772 7.07569 4.36996 6.89345C4.53196 6.73145 4.78342 6.71345 4.9653 6.83945L7.81427 9.67813L13.2147 4.89765C12.1327 3.08104 10.1686 1.93333 8 1.93333C4.64947 1.93333 1.93333 4.64947 1.93333 8C1.93333 11.3505 4.64947 14.0667 8 14.0667C11.3505 14.0667 14.0667 11.3505 14.0667 8C14.0667 7.74227 14.2756 7.53333 14.5333 7.53333C14.7911 7.53333 15 7.74227 15 8C15 11.866 11.866 15 8 15C4.13401 15 1 11.866 1 8C1 4.13401 4.13401 1 8 1Z" fill="rgb(25,25,25)" fill-rule="nonzero" />
	<path id="形状结合" d="M14.2257 4.79688C14.3307 5.00052 14.2712 5.24552 14.0958 5.38038L8.14495 10.6684C7.98295 10.8304 7.73149 10.8484 7.54961 10.7224L4.36996 7.55342C4.18772 7.37117 4.18772 7.07569 4.36996 6.89345C4.53196 6.73145 4.78342 6.71345 4.9653 6.83945L7.81427 9.67813L13.2147 4.89765C12.1327 3.08104 10.1686 1.93333 8 1.93333C4.64947 1.93333 1.93333 4.64947 1.93333 8C1.93333 11.3505 4.64947 14.0667 8 14.0667C11.3505 14.0667 14.0667 11.3505 14.0667 8C14.0667 7.74227 14.2756 7.53333 14.5333 7.53333C14.7911 7.53333 15 7.74227 15 8C15 11.866 11.866 15 8 15C4.13401 15 1 11.866 1 8C1 4.13401 4.13401 1 8 1C10.6488 1 13.0337 2.48455 14.2257 4.79688Z" fill-rule="nonzero" stroke="rgb(0,0,0)" stroke-opacity="0" stroke-width="1" />
</svg>
