<svg viewBox="0 0 16 16" xmlns="http://www.w3.org/2000/svg" xmlns:xlink="http://www.w3.org/1999/xlink" width="16.000000" height="16.000000" fill="none">
	<rect id="操作图标/可信度量指标公式及解读" width="16.000000" height="16.000000" x="0.000000" y="0.000000" />
	<path id="形状结合" d="M12 8.5C13.9327 8.5 15.5 10.0676 15.5 12.0005C15.5 13.9333 13.9328 15.5 12 15.5C10.0673 15.5 8.5 13.9324 8.5 11.9995C8.5 10.0667 10.0672 8.5 12 8.5ZM12 1C13.0544 1 13.9182 1.81588 13.9945 2.85074L14 3L14 7.5C14 7.77614 13.7761 8 13.5 8C13.2545 8 13.0504 7.82312 13.0081 7.58988L13 3C13 2.48716 12.614 2.06449 12.1166 2.00673L12 2L4 2C3.48716 2 3.06449 2.38604 3.00673 2.88338L3 3L3 13C3 13.5128 3.38604 13.9355 3.88338 13.9933L4 14L8 14C8.27614 14 8.5 14.2239 8.5 14.5C8.5 14.7455 8.32312 14.9496 8.08988 14.9919L4 15C2.94564 15 2.08183 14.1841 2.00549 13.1493L2 13L2 3C2 1.94564 2.81588 1.08183 3.85074 1.00549L4 1L12 1ZM12 9.5C10.6194 9.5 9.5 10.619 9.5 11.9995C9.5 13.3802 10.6196 14.5 12 14.5C13.3806 14.5 14.5 13.381 14.5 12.0005C14.5 10.6198 13.3804 9.5 12 9.5ZM11.935 13C12.0717 13 12.19 13.0493 12.29 13.1478C12.39 13.2463 12.44 13.3645 12.44 13.5025C12.44 13.6371 12.39 13.7537 12.29 13.8522C12.19 13.9507 12.0717 14 11.935 14C11.7983 14 11.6825 13.9507 11.5875 13.8522C11.4925 13.7537 11.445 13.6371 11.445 13.5025C11.445 13.3645 11.4933 13.2463 11.59 13.1478C11.6867 13.0493 11.8017 13 11.935 13ZM12.5436 9.9954C12.8452 10.1393 13.0434 10.3287 13.1737 10.5922C13.304 10.8557 13.2739 11.3688 13.0668 11.6526C12.8598 11.9365 12.6156 12.0166 12.4843 12.129C12.353 12.2414 12.2918 12.3397 12.2627 12.4869C12.2336 12.6341 12.1553 12.8201 11.8506 12.8201C11.546 12.8201 11.516 12.6175 11.5062 12.577C11.4776 12.4581 11.4764 12.3508 11.5025 12.2551C11.5375 12.1268 11.595 12.021 11.675 11.9376C11.755 11.8543 11.8633 11.7593 12 11.6526C12.4181 11.4275 12.4881 11.1296 12.3976 10.9474C12.3071 10.7652 12.1341 10.7096 12.0208 10.7096C11.7869 10.7096 11.6637 10.7641 11.5476 10.8752C11.4315 10.9862 11.4349 11.0911 11.3615 11.2744C11.2882 11.4577 11.111 11.6044 10.8433 11.4876C10.6648 11.4098 10.6026 11.2443 10.6566 10.9911C10.7526 10.6666 10.7372 10.6164 11.0494 10.2729C11.3276 9.96664 12.0805 9.77441 12.5436 9.9954ZM8.5 7C8.77614 7 9 7.22386 9 7.5C9 7.77614 8.77614 8 8.5 8L5.5 8C5.22386 8 5 7.77614 5 7.5C5 7.22386 5.22386 7 5.5 7L8.5 7ZM10.5 4C10.7761 4 11 4.22386 11 4.5C11 4.77614 10.7761 5 10.5 5L5.5 5C5.22386 5 5 4.77614 5 4.5C5 4.22386 5.22386 4 5.5 4L10.5 4Z" fill="rgb(25,25,25)" fill-rule="nonzero" />
	<path id="形状结合" d="M15.5 12.0005C15.5 13.9333 13.9328 15.5 12 15.5C10.0673 15.5 8.5 13.9324 8.5 11.9995C8.5 10.0667 10.0672 8.5 12 8.5C13.9327 8.5 15.5 10.0676 15.5 12.0005ZM13.9945 2.85074L14 3L14 7.5C14 7.77614 13.7761 8 13.5 8C13.2545 8 13.0504 7.82312 13.0081 7.58988L13 3C13 2.48716 12.614 2.06449 12.1166 2.00673L12 2L4 2C3.48716 2 3.06449 2.38604 3.00673 2.88338L3 3L3 13C3 13.5128 3.38604 13.9355 3.88338 13.9933L4 14L8 14C8.27614 14 8.5 14.2239 8.5 14.5C8.5 14.7455 8.32312 14.9496 8.08988 14.9919L4 15C2.94564 15 2.08183 14.1841 2.00549 13.1493L2 13L2 3C2 1.94564 2.81588 1.08183 3.85074 1.00549L4 1L12 1C13.0544 1 13.9182 1.81588 13.9945 2.85074ZM9.5 11.9995C9.5 13.3802 10.6196 14.5 12 14.5C13.3806 14.5 14.5 13.381 14.5 12.0005C14.5 10.6198 13.3804 9.5 12 9.5C10.6194 9.5 9.5 10.619 9.5 11.9995ZM12.29 13.1478C12.39 13.2463 12.44 13.3645 12.44 13.5025C12.44 13.6371 12.39 13.7537 12.29 13.8522C12.19 13.9507 12.0717 14 11.935 14C11.7983 14 11.6825 13.9507 11.5875 13.8522C11.4925 13.7537 11.445 13.6371 11.445 13.5025C11.445 13.3645 11.4933 13.2463 11.59 13.1478C11.6867 13.0493 11.8017 13 11.935 13C12.0717 13 12.19 13.0493 12.29 13.1478ZM13.1737 10.5922C13.304 10.8557 13.2739 11.3688 13.0668 11.6526C12.8598 11.9365 12.6156 12.0166 12.4843 12.129C12.353 12.2414 12.2918 12.3397 12.2627 12.4869C12.2336 12.6341 12.1553 12.8201 11.8506 12.8201C11.546 12.8201 11.516 12.6175 11.5062 12.577C11.4776 12.4581 11.4764 12.3508 11.5025 12.2551C11.5375 12.1268 11.595 12.021 11.675 11.9376C11.755 11.8543 11.8633 11.7593 12 11.6526C12.4181 11.4275 12.4881 11.1296 12.3976 10.9474C12.3071 10.7652 12.1341 10.7096 12.0208 10.7096C11.7869 10.7096 11.6637 10.7641 11.5476 10.8752C11.4315 10.9862 11.4349 11.0911 11.3615 11.2744C11.2882 11.4577 11.111 11.6044 10.8433 11.4876C10.6648 11.4098 10.6026 11.2443 10.6566 10.9911C10.7526 10.6666 10.7372 10.6164 11.0494 10.2729C11.3276 9.96664 12.0805 9.77441 12.5436 9.9954C12.8452 10.1393 13.0434 10.3287 13.1737 10.5922ZM9 7.5C9 7.77614 8.77614 8 8.5 8L5.5 8C5.22386 8 5 7.77614 5 7.5C5 7.22386 5.22386 7 5.5 7L8.5 7C8.77614 7 9 7.22386 9 7.5ZM11 4.5C11 4.77614 10.7761 5 10.5 5L5.5 5C5.22386 5 5 4.77614 5 4.5C5 4.22386 5.22386 4 5.5 4L10.5 4C10.7761 4 11 4.22386 11 4.5Z" fill-rule="nonzero" stroke="rgb(0,0,0)" stroke-opacity="0" stroke-width="1" />
</svg>
