<svg viewBox="0 0 16 16" xmlns="http://www.w3.org/2000/svg" xmlns:xlink="http://www.w3.org/1999/xlink" width="16.000000" height="16.000000" fill="none">
	<rect id="操作图标/Watch" width="16.000000" height="16.000000" x="0.000000" y="0.000000" />
	<path id="形状结合" d="M8 3C10.9351 3 13.5747 4.58373 15.9007 7.70098C16.0331 7.87836 16.0331 8.12164 15.9007 8.29902C13.5747 11.4163 10.9351 13 8 13C5.06488 13 2.42534 11.4163 0.0992687 8.29902C-0.0330896 8.12164 -0.0330896 7.87836 0.0992687 7.70098C2.42534 4.58373 5.06488 3 8 3ZM8 4C5.59073 4 3.37848 5.22766 1.34878 7.7235L1.129 8L1.34878 8.2765C3.3033 10.6799 5.42711 11.9073 7.73311 11.9949L8 12C10.4093 12 12.6215 10.7723 14.6512 8.2765L14.87 7.999L14.6512 7.7235C12.6967 5.3201 10.5729 4.09268 8.26689 4.00505L8 4ZM8 5C9.65685 5 11 6.34315 11 8C11 9.65685 9.65685 11 8 11C6.34315 11 5 9.65685 5 8C5 6.34315 6.34315 5 8 5ZM8 6C6.89543 6 6 6.89543 6 8C6 9.10457 6.89543 10 8 10C9.10457 10 10 9.10457 10 8C10 6.89543 9.10457 6 8 6Z" fill="rgb(25,25,25)" fill-rule="nonzero" />
	<path id="形状结合" d="M15.9007 7.70098C16.0331 7.87836 16.0331 8.12164 15.9007 8.29902C13.5747 11.4163 10.9351 13 8 13C5.06488 13 2.42534 11.4163 0.0992687 8.29902C-0.0330896 8.12164 -0.0330896 7.87836 0.0992687 7.70098C2.42534 4.58373 5.06488 3 8 3C10.9351 3 13.5747 4.58373 15.9007 7.70098ZM1.34878 7.7235L1.129 8L1.34878 8.2765C3.3033 10.6799 5.42711 11.9073 7.73311 11.9949L8 12C10.4093 12 12.6215 10.7723 14.6512 8.2765L14.87 7.999L14.6512 7.7235C12.6967 5.3201 10.5729 4.09268 8.26689 4.00505L8 4C5.59073 4 3.37848 5.22766 1.34878 7.7235ZM11 8C11 9.65685 9.65685 11 8 11C6.34315 11 5 9.65685 5 8C5 6.34315 6.34315 5 8 5C9.65685 5 11 6.34315 11 8ZM6 8C6 9.10457 6.89543 10 8 10C9.10457 10 10 9.10457 10 8C10 6.89543 9.10457 6 8 6C6.89543 6 6 6.89543 6 8Z" fill-rule="nonzero" stroke="rgb(0,0,0)" stroke-opacity="0" stroke-width="1" />
</svg>
