<svg viewBox="0 0 16 16" xmlns="http://www.w3.org/2000/svg" xmlns:xlink="http://www.w3.org/1999/xlink" width="16.000000" height="16.000000" fill="none">
	<rect id="操作图标/工单" width="16.000000" height="16.000000" x="0.000000" y="0.000000" />
	<path id="形状结合" d="M9.53913 0.5C10.3857 0.5 11.1132 1.00954 11.4318 1.73866L11.8816 1.73823C13.3301 1.73823 14.5104 2.86483 14.5958 4.29146L14.6008 4.45736L14.6008 12.7809C14.6008 14.2294 13.4742 15.4096 12.0475 15.495L11.8816 15.5L4.1183 15.5C2.66981 15.5 1.48956 14.3734 1.40412 12.9468L1.39917 12.7809L1.39917 4.45736C1.39917 3.00886 2.52577 1.82862 3.9524 1.74318L4.1183 1.73823L4.57547 1.73866C4.89405 1.00954 5.6216 0.5 6.46816 0.5L9.53913 0.5ZM11.5963 2.73908C11.5077 3.79755 10.6205 4.62897 9.53913 4.62897L6.46816 4.62897C5.38678 4.62897 4.49959 3.79755 4.41095 2.73908L4.1183 2.73823C3.21648 2.73823 2.48044 3.4268 2.40546 4.30867L2.39917 4.45736L2.39917 12.7809C2.39917 13.6827 3.08774 14.4187 3.96961 14.4937L4.1183 14.5L11.8816 14.5C12.7835 14.5 13.5195 13.8114 13.5945 12.9296L13.6008 12.7809L13.6008 4.45736C13.6008 3.55554 12.9122 2.8195 12.0303 2.74452L11.8816 2.73823L11.5963 2.73908ZM8.45601 9.48722C8.73215 9.48722 8.95601 9.71107 8.95601 9.98722C8.95601 10.2327 8.77913 10.4368 8.54588 10.4792L4.95137 10.4872C4.67522 10.4872 4.45137 10.2634 4.45137 9.98722C4.45137 9.74176 4.62824 9.53761 4.86149 9.49527L8.45601 9.48722ZM11.0486 6.5212C11.3247 6.5212 11.5486 6.74506 11.5486 7.0212C11.5486 7.26666 11.3717 7.47081 11.1385 7.51314L4.95137 7.5212C4.67522 7.5212 4.45137 7.29734 4.45137 7.0212C4.45137 6.77574 4.62824 6.57159 4.86149 6.52926L11.0486 6.5212ZM9.53913 1.5L6.46816 1.5C5.88026 1.5 5.40368 1.97659 5.40368 2.56448C5.40368 3.15238 5.88026 3.62897 6.46816 3.62897L9.53913 3.62897C10.127 3.62897 10.6036 3.15238 10.6036 2.56448C10.6036 1.97659 10.127 1.5 9.53913 1.5Z" fill="rgb(25,25,25)" fill-rule="nonzero" />
</svg>
