<svg viewBox="0 0 16 16" xmlns="http://www.w3.org/2000/svg" xmlns:xlink="http://www.w3.org/1999/xlink" width="16.000000" height="16.000000" fill="none">
	<rect id="操作图标/换行" width="16.000000" height="16.000000" x="0.000000" y="0.000000" />
	<path id="形状结合" d="M2.5 2L13.5 2C13.7761 2 14 2.22386 14 2.5C14 2.77614 13.7761 3 13.5 3L2.5 3C2.22386 3 2 2.77614 2 2.5C2 2.22386 2.22386 2 2.5 2ZM11 7C12.6569 7 14 8.34315 14 10C14 11.5977 12.7511 12.9037 11.1763 12.9949L11 13L10 13L10 13.9325C10 14.2086 9.77614 14.4325 9.5 14.4325C9.38303 14.4325 9.26976 14.3915 9.17991 14.3166L7.46093 12.8841C7.24879 12.7073 7.22013 12.392 7.39691 12.1799L9.17991 10.6834C9.39205 10.5066 9.70733 10.5353 9.88411 10.7474C9.95899 10.8373 10 10.9506 10 11.0675L10 12L11 12C12.1046 12 13 11.1046 13 10C13 8.94564 12.1841 8.08183 11.1493 8.00549L11 8L2.5 8C2.22386 8 2 7.77614 2 7.5C2 7.25454 2.17688 7.05039 2.41012 7.00806L11 7ZM4.5 12C4.77614 12 5 12.2239 5 12.5C5 12.7761 4.77614 13 4.5 13L2.5 13C2.22386 13 2 12.7761 2 12.5C2 12.2239 2.22386 12 2.5 12L4.5 12Z" fill="rgb(25,25,25)" fill-rule="nonzero" />
	<path id="形状结合" d="M13.5 2C13.7761 2 14 2.22386 14 2.5C14 2.77614 13.7761 3 13.5 3L2.5 3C2.22386 3 2 2.77614 2 2.5C2 2.22386 2.22386 2 2.5 2L13.5 2ZM14 10C14 11.5977 12.7511 12.9037 11.1763 12.9949L11 13L10 13L10 13.9325C10 14.2086 9.77614 14.4325 9.5 14.4325C9.38303 14.4325 9.26976 14.3915 9.17991 14.3166L7.46093 12.8841C7.24879 12.7073 7.22013 12.392 7.39691 12.1799L9.17991 10.6834C9.39205 10.5066 9.70733 10.5353 9.88411 10.7474C9.95899 10.8373 10 10.9506 10 11.0675L10 12L11 12C12.1046 12 13 11.1046 13 10C13 8.94564 12.1841 8.08183 11.1493 8.00549L11 8L2.5 8C2.22386 8 2 7.77614 2 7.5C2 7.25454 2.17688 7.05039 2.41012 7.00806L11 7C12.6569 7 14 8.34315 14 10ZM5 12.5C5 12.7761 4.77614 13 4.5 13L2.5 13C2.22386 13 2 12.7761 2 12.5C2 12.2239 2.22386 12 2.5 12L4.5 12C4.77614 12 5 12.2239 5 12.5Z" fill-rule="nonzero" stroke="rgb(0,0,0)" stroke-opacity="0" stroke-width="1" />
</svg>
