<svg viewBox="0 0 16 16" xmlns="http://www.w3.org/2000/svg" xmlns:xlink="http://www.w3.org/1999/xlink" width="16.000000" height="16.000000" fill="none">
	<rect id="操作图标/添加图片" width="16.000000" height="16.000000" x="0.000000" y="0.000000" />
	<path id="形状结合" d="M12.5 10C12.7761 10 13 10.2239 13 10.5L13 12L14.5 12C14.7761 12 15 12.2239 15 12.5C15 12.7761 14.7761 13 14.5 13L13 13L13 14.5C13 14.7761 12.7761 15 12.5 15C12.2239 15 12 14.7761 12 14.5L12 13L10.5 13C10.2239 13 10 12.7761 10 12.5C10 12.2239 10.2239 12 10.5 12L12 12L12 10.5C12 10.2239 12.2239 10 12.5 10ZM14.995 9.565C14.9906 9.5781 14.965 9.68471 14.9596 9.69718C14.9536 9.70636 14.9069 9.79076 14.9 9.8L14.7973 9.90208L14.6871 9.96375L14.5731 9.9947L14.435 9.995L14.5731 9.9947L14.435 9.995C14.4219 9.99061 14.3153 9.96498 14.3028 9.95962L14.2 9.9L10.576 7.182L7.4828 10.8237C7.34072 10.991 7.10947 11.0435 6.91267 10.9629L4.101 9.16L1.99999 11.681L2 12C2 12.5128 2.38604 12.9355 2.88338 12.9933L3 13L8.5 13C8.77614 13 9 13.2239 9 13.5C9 13.7455 8.82312 13.9496 8.58988 13.9919L3 14C1.94564 14 1.08183 13.1841 1.00549 12.1493L1 12L1 4C1 2.94564 1.81588 2.08183 2.85074 2.00549L3 2L13 2C14.0544 2 14.9182 2.81588 14.9945 3.85074L15 4L14.995 9.565ZM13 3L3 3C2.48716 3 2.06449 3.38604 2.00673 3.88338L2 4L1.99999 10.117L3.61589 8.17991C3.75739 8.01011 3.99026 7.95599 4.18849 8.03682L7.004 9.842L10.1189 6.17627C10.2687 5.99998 10.5159 5.95237 10.717 6.04947L14 8.5L14 4C14 3.48716 13.614 3.06449 13.1166 3.00673L13 3ZM6 5C6.55228 5 7 5.44772 7 6C7 6.55228 6.55228 7 6 7C5.44772 7 5 6.55228 5 6C5 5.44772 5.44772 5 6 5Z" fill="rgb(25,25,25)" fill-rule="nonzero" />
	<path id="形状结合" d="M13 10.5L13 12L14.5 12C14.7761 12 15 12.2239 15 12.5C15 12.7761 14.7761 13 14.5 13L13 13L13 14.5C13 14.7761 12.7761 15 12.5 15C12.2239 15 12 14.7761 12 14.5L12 13L10.5 13C10.2239 13 10 12.7761 10 12.5C10 12.2239 10.2239 12 10.5 12L12 12L12 10.5C12 10.2239 12.2239 10 12.5 10C12.7761 10 13 10.2239 13 10.5ZM14.9596 9.69718C14.9536 9.70636 14.9069 9.79076 14.9 9.8L14.7973 9.90208L14.6871 9.96375L14.5731 9.9947L14.435 9.995C14.4219 9.99061 14.3153 9.96498 14.3028 9.95962L14.2 9.9L10.576 7.182L7.4828 10.8237C7.34072 10.991 7.10947 11.0435 6.91267 10.9629L4.101 9.16L1.99999 11.681L2 12C2 12.5128 2.38604 12.9355 2.88338 12.9933L3 13L8.5 13C8.77614 13 9 13.2239 9 13.5C9 13.7455 8.82312 13.9496 8.58988 13.9919L3 14C1.94564 14 1.08183 13.1841 1.00549 12.1493L1 12L1 4C1 2.94564 1.81588 2.08183 2.85074 2.00549L3 2L13 2C14.0544 2 14.9182 2.81588 14.9945 3.85074L15 4L14.995 9.565C14.9906 9.5781 14.965 9.68471 14.9596 9.69718ZM3 3C2.48716 3 2.06449 3.38604 2.00673 3.88338L2 4L1.99999 10.117L3.61589 8.17991C3.75739 8.01011 3.99026 7.95599 4.18849 8.03682L7.004 9.842L10.1189 6.17627C10.2687 5.99998 10.5159 5.95237 10.717 6.04947L14 8.5L14 4C14 3.48716 13.614 3.06449 13.1166 3.00673L13 3L3 3ZM7 6C7 6.55228 6.55228 7 6 7C5.44772 7 5 6.55228 5 6C5 5.44772 5.44772 5 6 5C6.55228 5 7 5.44772 7 6Z" fill-rule="nonzero" stroke="rgb(0,0,0)" stroke-opacity="0" stroke-width="1" />
</svg>
