<svg viewBox="0 0 16 16" xmlns="http://www.w3.org/2000/svg" xmlns:xlink="http://www.w3.org/1999/xlink" width="16.000000" height="16.000000" fill="none">
	<rect id="操作图标/所有服务" width="16.000000" height="16.000000" x="0.000000" y="0.000000" />
	<path id="形状结合" d="M5.35795 8.93042C6.28366 8.93042 7.03409 9.68085 7.03409 10.6066L7.03409 13.2884C7.03409 14.2141 6.28366 14.9645 5.35795 14.9645L2.67614 14.9645C1.75043 14.9645 1 14.2141 1 13.2884L1 10.6066C1 9.68085 1.75043 8.93042 2.67614 8.93042L5.35795 8.93042ZM12.733 8.93042C13.6587 8.93042 14.4091 9.68085 14.4091 10.6066L14.4091 13.2884C14.4091 14.2141 13.6587 14.9645 12.733 14.9645L10.0511 14.9645C9.12543 14.9645 8.375 14.2141 8.375 13.2884L8.375 10.6066C8.375 9.68085 9.12543 8.93042 10.0511 8.93042L12.733 8.93042ZM5.35795 10.0478L2.67614 10.0478C2.36757 10.0478 2.11742 10.298 2.11742 10.6066L2.11742 13.2884C2.11742 13.5969 2.36757 13.8471 2.67614 13.8471L5.35795 13.8471C5.66652 13.8471 5.91667 13.5969 5.91667 13.2884L5.91667 10.6066C5.91667 10.298 5.66652 10.0478 5.35795 10.0478ZM12.733 10.0478L10.0511 10.0478C9.74257 10.0478 9.49242 10.298 9.49242 10.6066L9.49242 13.2884C9.49242 13.5969 9.74257 13.8471 10.0511 13.8471L12.733 13.8471C13.0415 13.8471 13.2917 13.5969 13.2917 13.2884L13.2917 10.6066C13.2917 10.298 13.0415 10.0478 12.733 10.0478ZM5.35795 1.55542C6.28366 1.55542 7.03409 2.30585 7.03409 3.23156L7.03409 5.91338C7.03409 6.83909 6.28366 7.58951 5.35795 7.58951L2.67614 7.58951C1.75043 7.58951 1 6.83909 1 5.91338L1 3.23156C1 2.30585 1.75043 1.55542 2.67614 1.55542L5.35795 1.55542ZM5.35795 2.67285L2.67614 2.67285C2.36757 2.67285 2.11742 2.92299 2.11742 3.23156L2.11742 5.91338C2.11742 6.22194 2.36757 6.47209 2.67614 6.47209L5.35795 6.47209C5.66652 6.47209 5.91667 6.22194 5.91667 5.91338L5.91667 3.23156C5.91667 2.92299 5.66652 2.67285 5.35795 2.67285ZM10.2423 1.49093C10.8969 0.836358 11.9582 0.836356 12.6127 1.49093L14.5091 3.38726C15.1636 4.04184 15.1636 5.1031 14.5091 5.75768L12.6127 7.65401C11.9582 8.30858 10.8969 8.30858 10.2423 7.65401L8.34599 5.75768C7.69142 5.1031 7.69142 4.04183 8.34599 3.38726L10.2423 1.49093ZM9.13613 4.1774C8.91794 4.39559 8.91794 4.74935 9.13613 4.96754L11.0325 6.86387C11.2507 7.08206 11.6044 7.08206 11.8226 6.86387L13.7189 4.96754C13.9371 4.74935 13.9371 4.39559 13.7189 4.1774L11.8226 2.28107C11.6044 2.06288 11.2507 2.06288 11.0325 2.28107L9.13613 4.1774Z" fill="rgb(25,25,25)" fill-rule="nonzero" />
	<path id="形状结合" d="M7.03409 10.6066L7.03409 13.2884C7.03409 14.2141 6.28366 14.9645 5.35795 14.9645L2.67614 14.9645C1.75043 14.9645 1 14.2141 1 13.2884L1 10.6066C1 9.68085 1.75043 8.93042 2.67614 8.93042L5.35795 8.93042C6.28366 8.93042 7.03409 9.68085 7.03409 10.6066ZM14.4091 10.6066L14.4091 13.2884C14.4091 14.2141 13.6587 14.9645 12.733 14.9645L10.0511 14.9645C9.12543 14.9645 8.375 14.2141 8.375 13.2884L8.375 10.6066C8.375 9.68085 9.12543 8.93042 10.0511 8.93042L12.733 8.93042C13.6587 8.93042 14.4091 9.68085 14.4091 10.6066ZM2.67614 10.0478C2.36757 10.0478 2.11742 10.298 2.11742 10.6066L2.11742 13.2884C2.11742 13.5969 2.36757 13.8471 2.67614 13.8471L5.35795 13.8471C5.66652 13.8471 5.91667 13.5969 5.91667 13.2884L5.91667 10.6066C5.91667 10.298 5.66652 10.0478 5.35795 10.0478L2.67614 10.0478ZM10.0511 10.0478C9.74257 10.0478 9.49242 10.298 9.49242 10.6066L9.49242 13.2884C9.49242 13.5969 9.74257 13.8471 10.0511 13.8471L12.733 13.8471C13.0415 13.8471 13.2917 13.5969 13.2917 13.2884L13.2917 10.6066C13.2917 10.298 13.0415 10.0478 12.733 10.0478L10.0511 10.0478ZM7.03409 3.23156L7.03409 5.91338C7.03409 6.83909 6.28366 7.58951 5.35795 7.58951L2.67614 7.58951C1.75043 7.58951 1 6.83909 1 5.91338L1 3.23156C1 2.30585 1.75043 1.55542 2.67614 1.55542L5.35795 1.55542C6.28366 1.55542 7.03409 2.30585 7.03409 3.23156ZM2.67614 2.67285C2.36757 2.67285 2.11742 2.92299 2.11742 3.23156L2.11742 5.91338C2.11742 6.22194 2.36757 6.47209 2.67614 6.47209L5.35795 6.47209C5.66652 6.47209 5.91667 6.22194 5.91667 5.91338L5.91667 3.23156C5.91667 2.92299 5.66652 2.67285 5.35795 2.67285L2.67614 2.67285ZM12.6127 1.49093L14.5091 3.38726C15.1636 4.04184 15.1636 5.1031 14.5091 5.75768L12.6127 7.65401C11.9582 8.30858 10.8969 8.30858 10.2423 7.65401L8.34599 5.75768C7.69142 5.1031 7.69142 4.04183 8.34599 3.38726L10.2423 1.49093C10.8969 0.836358 11.9582 0.836356 12.6127 1.49093ZM9.13613 4.96754L11.0325 6.86387C11.2507 7.08206 11.6044 7.08206 11.8226 6.86387L13.7189 4.96754C13.9371 4.74935 13.9371 4.39559 13.7189 4.1774L11.8226 2.28107C11.6044 2.06288 11.2507 2.06288 11.0325 2.28107L9.13613 4.1774C8.91794 4.39559 8.91794 4.74935 9.13613 4.96754Z" fill-rule="nonzero" stroke="rgb(0,0,0)" stroke-opacity="0" stroke-width="1" />
</svg>
