<svg viewBox="0 0 16 16" xmlns="http://www.w3.org/2000/svg" xmlns:xlink="http://www.w3.org/1999/xlink" width="16.000000" height="16.000000" fill="none">
	<rect id="操作图标/API" width="16.000000" height="16.000000" x="0.000000" y="0.000000" />
	<path id="形状结合" d="M12.5797 2.44105L13.6672 1.35354C13.8624 1.15828 14.179 1.15828 14.3743 1.35354C14.5696 1.5488 14.5696 1.86539 14.3743 2.06065L13.2868 3.14815C14.3023 4.53132 14.1192 6.55842 12.7833 7.89428L12.6065 8.07105C12.216 8.46157 11.5828 8.46157 11.1923 8.07105L7.65678 4.53552C7.26626 4.145 7.26626 3.51183 7.65678 3.1213L7.83356 2.94452C9.16941 1.60867 11.1965 1.4255 12.5797 2.44105ZM7.36389 10.4853L8.42455 9.42461C8.61981 9.22934 8.93639 9.22934 9.13165 9.4246C9.32691 9.61986 9.32692 9.93644 9.13166 10.1317L8.07099 11.1924C8.46152 11.5829 8.46152 12.2161 8.071 12.6066L7.71744 12.9601C6.47064 14.2069 4.51722 14.3164 3.14631 13.2886L2.06058 14.3744C1.86532 14.5696 1.54874 14.5696 1.35348 14.3744C1.15822 14.1791 1.15822 13.8625 1.35347 13.6673L2.4392 12.5815C1.4114 11.2106 1.5209 9.25718 2.76769 8.0104L3.12125 7.65684C3.51177 7.26631 4.14493 7.26631 4.53546 7.65683L5.59612 6.59618C5.79138 6.40092 6.10796 6.40092 6.30323 6.59618C6.49849 6.79144 6.49849 7.10803 6.30322 7.30329L5.24257 8.36395L7.36389 10.4853ZM3.82835 8.36395L3.4748 8.71749C2.49849 9.69381 2.49849 11.2767 3.4748 12.253C4.45111 13.2293 6.03402 13.2293 7.01033 12.253L7.36389 11.8995L3.82835 8.36395ZM11.8994 7.36394L12.0762 7.18716C13.1606 6.10274 13.218 4.43985 12.253 3.47485C11.288 2.50986 9.62509 2.5672 8.54066 3.65163L8.36389 3.82841L11.8994 7.36394Z" fill="rgb(25,25,25)" fill-rule="evenodd" />
	<path id="形状结合" d="M13.6672 1.35354C13.8624 1.15828 14.179 1.15828 14.3743 1.35354C14.5696 1.5488 14.5696 1.86539 14.3743 2.06065L13.2868 3.14815C14.3023 4.53132 14.1192 6.55842 12.7833 7.89428L12.6065 8.07105C12.216 8.46157 11.5828 8.46157 11.1923 8.07105L7.65678 4.53552C7.26626 4.145 7.26626 3.51183 7.65678 3.1213L7.83356 2.94452C9.16941 1.60867 11.1965 1.4255 12.5797 2.44105L13.6672 1.35354ZM8.42455 9.42461C8.61981 9.22934 8.93639 9.22934 9.13165 9.4246C9.32691 9.61986 9.32692 9.93644 9.13166 10.1317L8.07099 11.1924C8.46152 11.5829 8.46152 12.2161 8.071 12.6066L7.71744 12.9601C6.47064 14.2069 4.51722 14.3164 3.14631 13.2886L2.06058 14.3744C1.86532 14.5696 1.54874 14.5696 1.35348 14.3744C1.15822 14.1791 1.15822 13.8625 1.35347 13.6673L2.4392 12.5815C1.4114 11.2106 1.5209 9.25718 2.76769 8.0104L3.12125 7.65684C3.51177 7.26631 4.14493 7.26631 4.53546 7.65683L5.59612 6.59618C5.79138 6.40092 6.10796 6.40092 6.30323 6.59618C6.49849 6.79144 6.49849 7.10803 6.30322 7.30329L5.24257 8.36395L7.36389 10.4853L8.42455 9.42461ZM3.4748 8.71749C2.49849 9.69381 2.49849 11.2767 3.4748 12.253C4.45111 13.2293 6.03402 13.2293 7.01033 12.253L7.36389 11.8995L3.82835 8.36395L3.4748 8.71749ZM12.0762 7.18716C13.1606 6.10274 13.218 4.43985 12.253 3.47485C11.288 2.50986 9.62509 2.5672 8.54066 3.65163L8.36389 3.82841L11.8994 7.36394L12.0762 7.18716Z" fill-rule="evenodd" stroke="rgb(0,0,0)" stroke-opacity="0" stroke-width="1" />
</svg>
