<svg viewBox="0 0 16 16" xmlns="http://www.w3.org/2000/svg" xmlns:xlink="http://www.w3.org/1999/xlink" width="16.000000" height="16.000000" fill="none">
	<rect id="操作图标/关联" width="16.000000" height="16.000000" x="0.000000" y="0.000000" fill="rgb(255,255,255)" fill-opacity="0" />
	<path id="形状结合" d="M11 7L11 9C11 9.10889 10.9887 9.21532 10.9661 9.3193C10.9465 9.40938 10.9185 9.49762 10.8819 9.58402C10.8455 9.67008 10.802 9.75139 10.7512 9.82796C10.6962 9.91112 10.6326 9.98869 10.5607 10.0607C10.4887 10.1326 10.4112 10.1961 10.328 10.2512C10.2514 10.3019 10.1701 10.3455 10.084 10.3819C9.99763 10.4185 9.90939 10.4465 9.81931 10.4661C9.71534 10.4887 9.60888 10.5 9.5 10.5L2.5 10.5C2.39113 10.5 2.28471 10.4887 2.18075 10.4661C2.09065 10.4465 2.00239 10.4185 1.91598 10.3819C1.82991 10.3455 1.74859 10.302 1.67202 10.2512C1.58887 10.1961 1.51131 10.1326 1.43934 10.0607C1.36738 9.9887 1.30385 9.91114 1.24877 9.82799C1.19805 9.75141 1.15449 9.67009 1.11808 9.58402C1.08154 9.49762 1.05348 9.40937 1.0339 9.31929C1.0113 9.21532 1 9.10888 1 9L1 4C1 3.89112 1.0113 3.78469 1.03389 3.68072C1.05347 3.59063 1.08154 3.50238 1.11808 3.41598C1.15449 3.32991 1.19805 3.24859 1.24877 3.17201C1.30385 3.08886 1.36738 3.0113 1.43934 2.93934C1.5113 2.86738 1.58886 2.80386 1.67201 2.74878C1.74859 2.69805 1.82991 2.65449 1.91598 2.61808C2.00238 2.58154 2.09063 2.55347 2.18072 2.53389C2.28469 2.5113 2.39112 2.5 2.5 2.5L9.5 2.5C9.60888 2.5 9.7153 2.5113 9.81927 2.53389C9.90936 2.55347 9.99761 2.58154 10.084 2.61808C10.1701 2.65448 10.2514 2.69804 10.328 2.74877C10.4111 2.80385 10.4887 2.86737 10.5607 2.93934C10.6326 3.0113 10.6961 3.08886 10.7512 3.17201C10.802 3.24859 10.8455 3.32991 10.8819 3.41598C10.9185 3.50236 10.9465 3.59059 10.9661 3.68066C10.9887 3.78465 11 3.8911 11 4L11 5L10 5L10 4C10 3.93097 9.9878 3.86699 9.96339 3.80806C9.93898 3.74913 9.90237 3.69526 9.85355 3.64645C9.80474 3.59763 9.75086 3.56102 9.69194 3.53661C9.63301 3.5122 9.56903 3.5 9.5 3.5L2.5 3.5C2.43096 3.5 2.36698 3.5122 2.30806 3.53661C2.24913 3.56102 2.19526 3.59763 2.14645 3.64645C2.09763 3.69526 2.06102 3.74913 2.03661 3.80806C2.0122 3.86698 2 3.93096 2 4L2 9C2 9.06904 2.0122 9.13302 2.03661 9.19194C2.06102 9.25087 2.09763 9.30474 2.14645 9.35355C2.19526 9.40237 2.24913 9.43898 2.30806 9.46339C2.36699 9.4878 2.43097 9.5 2.5 9.5L9.5 9.5C9.56903 9.5 9.63301 9.4878 9.69194 9.46339C9.75086 9.43898 9.80474 9.40237 9.85355 9.35355C9.90237 9.30474 9.93898 9.25087 9.96339 9.19194C9.9878 9.13301 10 9.06903 10 9L10 7L11 7ZM5 7L5 9L6 9L6 7C6 6.93096 6.0122 6.86698 6.03661 6.80806C6.06102 6.74913 6.09763 6.69526 6.14645 6.64645C6.19526 6.59763 6.24913 6.56102 6.30806 6.53661C6.36698 6.5122 6.43096 6.5 6.5 6.5L13.5 6.5C13.569 6.5 13.633 6.5122 13.6919 6.53661C13.7509 6.56102 13.8047 6.59763 13.8536 6.64645C13.9024 6.69526 13.939 6.74913 13.9634 6.80806C13.9878 6.86699 14 6.93096 14 7L14 12C14 12.069 13.9878 12.133 13.9634 12.1919C13.939 12.2509 13.9024 12.3047 13.8536 12.3536C13.8047 12.4024 13.7509 12.439 13.6919 12.4634C13.633 12.4878 13.569 12.5 13.5 12.5L6.5 12.5C6.43096 12.5 6.36698 12.4878 6.30806 12.4634C6.24913 12.439 6.19526 12.4024 6.14645 12.3536C6.09763 12.3047 6.06102 12.2509 6.03661 12.1919C6.0122 12.133 6 12.069 6 12L6 11L5 11L5 12C5 12.1089 5.0113 12.2153 5.03389 12.3193C5.05347 12.4094 5.08154 12.4976 5.11808 12.584C5.15449 12.6701 5.19805 12.7514 5.24878 12.828C5.30386 12.9111 5.36738 12.9887 5.43934 13.0607C5.51131 13.1326 5.58886 13.1961 5.67202 13.2512C5.74859 13.302 5.82991 13.3455 5.91598 13.3819C6.00239 13.4185 6.09064 13.4465 6.18074 13.4661C6.2847 13.4887 6.39112 13.5 6.5 13.5L13.5 13.5C13.6089 13.5 13.7153 13.4887 13.8193 13.4661C13.9094 13.4465 13.9976 13.4185 14.084 13.3819C14.1701 13.3455 14.2514 13.302 14.328 13.2512C14.4111 13.1962 14.4887 13.1326 14.5607 13.0607C14.6326 12.9887 14.6962 12.9111 14.7512 12.828C14.802 12.7514 14.8455 12.6701 14.8819 12.584C14.9185 12.4976 14.9465 12.4094 14.9661 12.3193C14.9887 12.2153 15 12.1089 15 12L15 7C15 6.8911 14.9887 6.78465 14.9661 6.68066C14.9465 6.59059 14.9185 6.50236 14.8819 6.41598C14.8455 6.32991 14.802 6.24859 14.7512 6.17201C14.6961 6.08886 14.6326 6.0113 14.5607 5.93934C14.4887 5.86737 14.4111 5.80385 14.328 5.74877C14.2514 5.69804 14.1701 5.65448 14.084 5.61808C13.9976 5.58154 13.9094 5.55347 13.8193 5.53389C13.7153 5.5113 13.6089 5.5 13.5 5.5L6.5 5.5C6.39112 5.5 6.2847 5.5113 6.18073 5.53389C6.09063 5.55347 6.00238 5.58154 5.91598 5.61808C5.82991 5.65449 5.74859 5.69805 5.67201 5.74877C5.58886 5.80385 5.5113 5.86737 5.43934 5.93934C5.36737 6.0113 5.30385 6.08886 5.24878 6.17201C5.19805 6.24859 5.15449 6.32991 5.11808 6.41598C5.08154 6.50238 5.05347 6.59063 5.03389 6.68073C5.0113 6.78469 5 6.89112 5 7Z" fill="rgb(25,25,25)" fill-rule="evenodd" />
</svg>
