<svg viewBox="0 0 16 16" xmlns="http://www.w3.org/2000/svg" xmlns:xlink="http://www.w3.org/1999/xlink" width="16.000000" height="16.000000" fill="none">
	<rect id="操作图标/附件" width="16.000000" height="16.000000" x="0.000000" y="0.000000" />
	<g id="appendix">
		<path id="路径 3 (边框)" d="M1 9.30476L1 3.50862C1 3.22862 0.78 3.00862 0.5 3.00862C0.22 3.00862 1.19209e-07 3.22862 1.19209e-07 3.50862L0 9.30476C0 9.58585 0.0297047 9.86035 0.0891142 10.1283C0.138401 10.3505 0.208132 10.5683 0.298308 10.7815C0.389155 10.9963 0.497678 11.1994 0.623877 11.3909C0.764365 11.6041 0.926758 11.8028 1.11106 11.9871C1.29536 12.1714 1.49411 12.3338 1.70729 12.4743C1.89877 12.6005 2.1019 12.709 2.31667 12.7998C2.52987 12.89 2.74759 12.9597 2.96985 13.009C3.23777 13.0684 3.51228 13.0981 3.79338 13.0981C4.07448 13.0981 4.34899 13.0684 4.61692 13.009C4.83918 12.9597 5.0569 12.89 5.27009 12.7998C5.48487 12.709 5.688 12.6005 5.87948 12.4743C6.09266 12.3338 6.2914 12.1714 6.47571 11.9871C6.66001 11.8028 6.8224 11.6041 6.96289 11.3909C7.08909 11.1994 7.19761 10.9963 7.28846 10.7815C7.37864 10.5683 7.44837 10.3505 7.49766 10.1283C7.55707 9.86035 7.58677 9.58585 7.58677 9.30476L7.58677 2.85242C7.58677 2.64198 7.56462 2.43643 7.52031 2.23578C7.48321 2.06775 7.43058 1.90315 7.36241 1.74197C7.2939 1.58001 7.21204 1.42686 7.11681 1.28252C7.01136 1.12269 6.88953 0.973668 6.75132 0.835454C6.61311 0.697244 6.46409 0.575416 6.30426 0.46997C6.15992 0.37474 6.00677 0.29287 5.84479 0.224362C5.68363 0.156194 5.51903 0.103559 5.351 0.0664585C5.15034 0.0221528 4.94479 -1.98682e-08 4.73435 0C4.52391 -7.94729e-08 4.31837 0.0221523 4.11771 0.0664571C3.94968 0.103558 3.78508 0.156193 3.62391 0.224362C3.46194 0.29287 3.30878 0.37474 3.16444 0.46997C3.00461 0.575416 2.8556 0.697244 2.71739 0.835454C2.57918 0.973667 2.45734 1.12269 2.3519 1.28252C2.25667 1.42686 2.1748 1.58001 2.1063 1.74197C2.03813 1.90315 1.98549 2.06775 1.94839 2.23578C1.90409 2.43643 1.88193 2.64198 1.88193 2.85242L1.88193 9.12414C1.88193 9.26819 1.89739 9.40876 1.92831 9.54584C1.9545 9.66193 1.99177 9.77551 2.04012 9.88659C2.08847 9.99765 2.14617 10.1023 2.21323 10.2006C2.28705 10.3089 2.37221 10.4094 2.46871 10.5021C2.5652 10.5949 2.66898 10.676 2.78003 10.7455C2.88091 10.8086 2.98779 10.8622 3.10068 10.9061C3.2136 10.95 3.32858 10.9828 3.44562 11.0044C3.5838 11.0299 3.72485 11.0398 3.86878 11.0341C4.00421 11.0288 4.13618 11.0098 4.26469 10.9771C4.37516 10.9491 4.48308 10.911 4.58844 10.8627C4.69382 10.8145 4.79326 10.7578 4.88677 10.6925C4.9887 10.6214 5.08357 10.5402 5.17138 10.4488C5.2592 10.3575 5.33663 10.2595 5.40367 10.1548C5.46518 10.0588 5.51796 9.9572 5.56199 9.85C5.60601 9.74283 5.63985 9.6335 5.66353 9.52201C5.69107 9.39231 5.70484 9.25969 5.70484 9.12414L5.70484 3.73148C5.70484 3.45148 5.48484 3.23148 5.20484 3.23148C4.92484 3.23148 4.70483 3.45148 4.70483 3.73148L4.70484 9.12414C4.70484 9.24649 4.68364 9.3603 4.64124 9.46558C4.59885 9.57085 4.53525 9.66759 4.45047 9.75579C4.36568 9.84399 4.27152 9.91135 4.168 9.95787C4.06448 10.0044 3.95159 10.0301 3.82934 10.0349C3.75471 10.0378 3.68186 10.0321 3.61078 10.0176C3.56076 10.0074 3.51161 9.99297 3.46334 9.97419C3.41253 9.95441 3.36424 9.93052 3.31846 9.90252C3.26245 9.86825 3.2102 9.82781 3.16173 9.78122C3.11326 9.73462 3.0708 9.68401 3.03435 9.6294C3.00455 9.58476 2.97878 9.53745 2.95701 9.48745C2.93634 9.43996 2.91994 9.39142 2.9078 9.34184C2.89056 9.27139 2.88193 9.19882 2.88193 9.12414L2.88193 2.85242C2.88193 2.70955 2.89757 2.57029 2.92885 2.43463C2.95263 2.33151 2.98545 2.23048 3.0273 2.13153C3.07049 2.02942 3.12189 1.93267 3.18151 1.84129C3.25126 1.73438 3.33226 1.6348 3.42449 1.54256C3.51673 1.45032 3.61631 1.36933 3.72322 1.29958C3.81461 1.23996 3.91135 1.18855 4.01346 1.14537C4.11242 1.10351 4.21345 1.0707 4.31658 1.04692C4.45223 1.01564 4.59149 1 4.73435 1C4.87722 1 5.01648 1.01564 5.15214 1.04692C5.25526 1.0707 5.35629 1.10351 5.45524 1.14537C5.55735 1.18855 5.6541 1.23996 5.74548 1.29958C5.8524 1.36933 5.95197 1.45032 6.04421 1.54256C6.13646 1.63481 6.21746 1.73439 6.28721 1.84131C6.34682 1.93269 6.39822 2.02943 6.4414 2.13153C6.48325 2.23048 6.51607 2.33151 6.53985 2.43463C6.57113 2.57028 6.58677 2.70955 6.58677 2.85242L6.58677 9.30476C6.58677 9.51829 6.56358 9.72651 6.51719 9.92943C6.48123 10.0868 6.43131 10.2409 6.36746 10.3919C6.30194 10.5468 6.2239 10.6935 6.13332 10.832C6.02852 10.9923 5.90695 11.1416 5.76861 11.28C5.63027 11.4183 5.48096 11.5399 5.32069 11.6447C5.18217 11.7353 5.03545 11.8133 4.88054 11.8788C4.72956 11.9427 4.57539 11.9926 4.41803 12.0286C4.21511 12.075 4.0069 12.0981 3.79338 12.0981C3.57987 12.0981 3.37165 12.075 3.16874 12.0286C3.01138 11.9926 2.85721 11.9427 2.70623 11.8788C2.55132 11.8133 2.40461 11.7353 2.26608 11.6447C2.10581 11.5399 1.9565 11.4183 1.81816 11.28C1.67982 11.1416 1.55824 10.9923 1.45344 10.832C1.36287 10.6935 1.28483 10.5468 1.21931 10.3919C1.15546 10.2409 1.10554 10.0868 1.06958 9.92943C1.02319 9.72651 1 9.51829 1 9.30476Z" fill="rgb(25,25,25)" fill-rule="nonzero" transform="matrix(0.939693,0.34202,-0.34202,0.939693,6.62427,0.602417)" />
	</g>
</svg>
