<svg viewBox="0 0 16 16" xmlns="http://www.w3.org/2000/svg" xmlns:xlink="http://www.w3.org/1999/xlink" width="16.000000" height="16.000000" fill="none">
	<rect id="操作图标/审计日志" width="16.000000" height="16.000000" x="0.000000" y="0.000000" />
	<path id="形状结合" d="M4 1L4 2L3 2L3 14L13 14L13 2L12 2L12 1L13 1C13.5523 1 14 1.44772 14 2L14 14C14 14.5523 13.5523 15 13 15L3 15C2.44772 15 2 14.5523 2 14L2 2C2 1.44772 2.44772 1 3 1L4 1ZM12 9L12 10L4 10L4 9L12 9ZM12 6L12 7L4 7L4 6L12 6ZM6 0L6 3L5 3L5 0L6 0ZM11 0L11 3L10 3L10 0L11 0ZM9 1L9 2L7 2L7 1L9 1Z" fill="rgb(25,25,25)" fill-rule="evenodd" />
</svg>
