<svg viewBox="0 0 16 16" xmlns="http://www.w3.org/2000/svg" xmlns:xlink="http://www.w3.org/1999/xlink" width="16.000000" height="16.000000" fill="none">
	<rect id="操作图标/认证" width="16.000000" height="16.000000" x="0.000000" y="0.000000" />
	<path id="形状结合" d="M7.72267 0.583975C7.89062 0.472008 8.10942 0.472008 8.27737 0.583975C9.98571 1.72287 12.0647 2.42195 14.1066 2.49308L14.5087 2.50008C14.7923 2.50501 15.015 2.74456 14.9992 3.02773L14.7568 7.3923C14.5876 10.4379 12.7994 13.1593 10.0712 14.5234L8.22362 15.4472C8.08286 15.5176 7.91717 15.5176 7.77641 15.4472L5.92886 14.5234C3.2006 13.1593 1.41246 10.4379 1.24326 7.3923L1.00079 3.02773C0.984863 2.74113 1.21297 2.5 1.50002 2.5C3.68348 2.5 5.90591 1.79514 7.72267 0.583975ZM7.99902 1.596L7.85621 1.68897C6.17403 2.73228 4.26246 3.34443 2.29127 3.47402L2.02802 3.487L2.24172 7.33683C2.38587 9.93145 3.86167 12.2594 6.13003 13.5003L6.37607 13.629L7.99902 14.44L9.62396 13.629C11.9482 12.4669 13.4992 10.1883 13.7378 7.61377L13.7583 7.33683L13.971 3.486L13.6866 3.47254C11.7211 3.33969 9.8173 2.7272 8.14237 1.68807L7.99902 1.596ZM11.2843 5.83859C11.4579 6.01216 11.5464 6.33944 11.4114 6.53431L7.60357 10.3536C7.43 10.5271 7.16058 10.5464 6.96571 10.4114L4.64646 8.10355C4.4512 7.90829 4.4512 7.59171 4.64646 7.39645C4.82003 7.22288 5.08945 7.2036 5.28432 7.33859L7.24978 9.29173L10.6465 5.89645C10.82 5.72288 11.0895 5.7036 11.2843 5.83859Z" fill="rgb(25,25,25)" fill-rule="nonzero" />
	<path id="形状结合" d="M8.27737 0.583975C9.98571 1.72287 12.0647 2.42195 14.1066 2.49308L14.5087 2.50008C14.7923 2.50501 15.015 2.74456 14.9992 3.02773L14.7568 7.3923C14.5876 10.4379 12.7994 13.1593 10.0712 14.5234L8.22362 15.4472C8.08286 15.5176 7.91717 15.5176 7.77641 15.4472L5.92886 14.5234C3.2006 13.1593 1.41246 10.4379 1.24326 7.3923L1.00079 3.02773C0.984863 2.74113 1.21297 2.5 1.50002 2.5C3.68348 2.5 5.90591 1.79514 7.72267 0.583975C7.89062 0.472008 8.10942 0.472008 8.27737 0.583975ZM7.85621 1.68897C6.17403 2.73228 4.26246 3.34443 2.29127 3.47402L2.02802 3.487L2.24172 7.33683C2.38587 9.93145 3.86167 12.2594 6.13003 13.5003L6.37607 13.629L7.99902 14.44L9.62396 13.629C11.9482 12.4669 13.4992 10.1883 13.7378 7.61377L13.7583 7.33683L13.971 3.486L13.6866 3.47254C11.7211 3.33969 9.8173 2.7272 8.14237 1.68807L7.99902 1.596L7.85621 1.68897ZM11.4114 6.53431L7.60357 10.3536C7.43 10.5271 7.16058 10.5464 6.96571 10.4114L4.64646 8.10355C4.4512 7.90829 4.4512 7.59171 4.64646 7.39645C4.82003 7.22288 5.08945 7.2036 5.28432 7.33859L7.24978 9.29173L10.6465 5.89645C10.82 5.72288 11.0895 5.7036 11.2843 5.83859C11.4579 6.01216 11.5464 6.33944 11.4114 6.53431Z" fill-rule="nonzero" stroke="rgb(0,0,0)" stroke-opacity="0" stroke-width="1" />
</svg>
