<svg viewBox="0 0 16 16" xmlns="http://www.w3.org/2000/svg" xmlns:xlink="http://www.w3.org/1999/xlink" width="16.000000" height="16.000000" fill="none">
	<rect id="操作图标/容量" width="16.000000" height="16.000000" x="0.000000" y="0.000000" />
	<path id="形状结合" d="M14 2C15.1046 2 16 2.89543 16 4L16 5C16 6.10457 15.1046 7 14 7L2 7C0.895431 7 0 6.10457 0 5L0 4C0 2.89543 0.895431 2 2 2L14 2ZM14 3L2 3C1.48716 3 1.06449 3.38604 1.00673 3.88338L1 4L1 5C1 5.51284 1.38604 5.93551 1.88338 5.99327L2 6L14 6C14.5128 6 14.9355 5.61396 14.9933 5.11662L15 5L15 4C15 3.48716 14.614 3.06449 14.1166 3.00673L14 3ZM5 4L5 5L3 5L3 4L5 4ZM14 9C15.1046 9 16 9.89543 16 11L16 12C16 13.1046 15.1046 14 14 14L2 14C0.895431 14 0 13.1046 0 12L0 11C0 9.89543 0.895431 9 2 9L14 9ZM14 10L2 10C1.48716 10 1.06449 10.386 1.00673 10.8834L1 11L1 12C1 12.5128 1.38604 12.9355 1.88338 12.9933L2 13L14 13C14.5128 13 14.9355 12.614 14.9933 12.1166L15 12L15 11C15 10.4872 14.614 10.0645 14.1166 10.0067L14 10ZM5 11L5 12L3 12L3 11L5 11Z" fill="rgb(25,25,25)" fill-rule="evenodd" />
	<path id="形状结合" d="M16 4L16 5C16 6.10457 15.1046 7 14 7L2 7C0.895431 7 0 6.10457 0 5L0 4C0 2.89543 0.895431 2 2 2L14 2C15.1046 2 16 2.89543 16 4ZM2 3C1.48716 3 1.06449 3.38604 1.00673 3.88338L1 4L1 5C1 5.51284 1.38604 5.93551 1.88338 5.99327L2 6L14 6C14.5128 6 14.9355 5.61396 14.9933 5.11662L15 5L15 4C15 3.48716 14.614 3.06449 14.1166 3.00673L14 3L2 3ZM5 5L3 5L3 4L5 4L5 5ZM16 11L16 12C16 13.1046 15.1046 14 14 14L2 14C0.895431 14 0 13.1046 0 12L0 11C0 9.89543 0.895431 9 2 9L14 9C15.1046 9 16 9.89543 16 11ZM2 10C1.48716 10 1.06449 10.386 1.00673 10.8834L1 11L1 12C1 12.5128 1.38604 12.9355 1.88338 12.9933L2 13L14 13C14.5128 13 14.9355 12.614 14.9933 12.1166L15 12L15 11C15 10.4872 14.614 10.0645 14.1166 10.0067L14 10L2 10ZM5 12L3 12L3 11L5 11L5 12Z" fill-rule="evenodd" stroke="rgb(0,0,0)" stroke-opacity="0" stroke-width="1" />
</svg>
