<svg viewBox="0 0 16 16" xmlns="http://www.w3.org/2000/svg" xmlns:xlink="http://www.w3.org/1999/xlink" width="16.000000" height="16.000000" fill="none">
	<rect id="操作图标/变更" width="16.000000" height="16.000000" x="0.000000" y="0.000000" />
	<path id="形状结合" d="M10.75 2.18001C10.55 1.99001 10.55 1.68001 10.74 1.48001C10.94 1.28001 11.25 1.28001 11.45 1.47001L15.35 5.33001C15.4 5.38001 15.43 5.43001 15.46 5.49001C15.48 5.55001 15.49 5.61001 15.49 5.68001C15.49 6.02001 15.33 6.18001 14.99 6.18001L1 6.18001C0.71 6.18001 0.5 5.96001 0.5 5.68001C0.5 5.40001 0.71 5.18001 1 5.18001L13.78 5.18001L10.75 2.18001ZM2.21 10.83L15 10.83C15.27 10.83 15.5 10.61 15.5 10.33C15.5 10.05 15.27 9.83001 15 9.83001L1 9.83001C0.83 9.83001 0.7 9.87001 0.62 9.95001C0.54 10.04 0.5 10.16 0.5 10.33C0.5 10.47 0.54 10.59 0.64 10.68L4.54 14.54C4.74 14.74 5.05 14.73 5.25 14.54C5.44 14.34 5.44 14.03 5.24 13.83L2.21 10.83Z" fill="rgb(25,25,25)" fill-rule="evenodd" />
</svg>
