<svg viewBox="0 0 16 16" xmlns="http://www.w3.org/2000/svg" xmlns:xlink="http://www.w3.org/1999/xlink" width="16.000000" height="16.000000" fill="none">
	<rect id="操作图标/CI门禁通过" width="16.000000" height="16.000000" x="0.000000" y="0.000000" />
	<path id="形状结合" d="M8 2C9.17461 2 10.1916 2.67506 10.684 3.65838L9.78975 4.10639C9.48262 3.49245 8.86889 3.05858 8.14926 3.00549L8 3C6.94564 3 6.08183 3.81588 6.00549 4.85074L6 5L6 6L12 6C12.5523 6 13 6.44772 13 7L13 13C13 13.5523 12.5523 14 12 14L4 14C3.44772 14 3 13.5523 3 13L3 7C3 6.44772 3.44772 6 4 6L5 6L5 5C5 3.34315 6.34315 2 8 2ZM12 7L4 7L4 13L12 13L12 7ZM8 8.5C8.24546 8.5 8.44961 8.67688 8.49194 8.91012L8.5 11C8.5 11.2761 8.27614 11.5 8 11.5C7.75454 11.5 7.55039 11.3231 7.50806 11.0899L7.5 9C7.5 8.72386 7.72386 8.5 8 8.5Z" fill="rgb(25,25,25)" fill-rule="evenodd" />
	<path id="形状结合" d="M10.684 3.65838L9.78975 4.10639C9.48262 3.49245 8.86889 3.05858 8.14926 3.00549L8 3C6.94564 3 6.08183 3.81588 6.00549 4.85074L6 5L6 6L12 6C12.5523 6 13 6.44772 13 7L13 13C13 13.5523 12.5523 14 12 14L4 14C3.44772 14 3 13.5523 3 13L3 7C3 6.44772 3.44772 6 4 6L5 6L5 5C5 3.34315 6.34315 2 8 2C9.17461 2 10.1916 2.67506 10.684 3.65838ZM4 7L4 13L12 13L12 7L4 7ZM8.49194 8.91012L8.5 11C8.5 11.2761 8.27614 11.5 8 11.5C7.75454 11.5 7.55039 11.3231 7.50806 11.0899L7.5 9C7.5 8.72386 7.72386 8.5 8 8.5C8.24546 8.5 8.44961 8.67688 8.49194 8.91012Z" fill-rule="evenodd" stroke="rgb(0,0,0)" stroke-opacity="0" stroke-width="1" />
</svg>
