<svg viewBox="0 0 16 16" xmlns="http://www.w3.org/2000/svg" xmlns:xlink="http://www.w3.org/1999/xlink" width="16.000000" height="16.000000" fill="none">
	<rect id="操作图标/清除" width="16.000000" height="16.000000" x="0.000000" y="0.000000" />
	<path id="形状结合" d="M9.5 8L14.5 8L14.5 14L13.5 14L13.5 12L12.5 12L12.5 14L11.5 14L11.5 12L10.5 12L10.5 14L9.5 14L9.5 12L8.5 12L8.5 14L7.5 14L7.5 12L6.5 12L6.5 14L5.5 14L5.5 12L4.5 12L4.5 14L3.5 14L3.5 12L2.5 12L2.5 14L1.5 14L1.5 8L6.5 8L6.5 2L9.5 2L9.5 8ZM8.5 8L8.5 3L7.5 3L7.5 8L8.5 8ZM13.5 11L13.5 9L2.5 9L2.5 11L13.5 11Z" fill="rgb(25,25,25)" fill-rule="evenodd" />
	<path id="形状结合" d="M14.5 8L14.5 14L13.5 14L13.5 12L12.5 12L12.5 14L11.5 14L11.5 12L10.5 12L10.5 14L9.5 14L9.5 12L8.5 12L8.5 14L7.5 14L7.5 12L6.5 12L6.5 14L5.5 14L5.5 12L4.5 12L4.5 14L3.5 14L3.5 12L2.5 12L2.5 14L1.5 14L1.5 8L6.5 8L6.5 2L9.5 2L9.5 8L14.5 8ZM8.5 3L7.5 3L7.5 8L8.5 8L8.5 3ZM13.5 9L2.5 9L2.5 11L13.5 11L13.5 9Z" fill-rule="evenodd" stroke="rgb(0,0,0)" stroke-opacity="0" stroke-width="1" />
</svg>
