<svg viewBox="0 0 17 17" xmlns="http://www.w3.org/2000/svg" xmlns:xlink="http://www.w3.org/1999/xlink" width="17.000000" height="17.000000" fill="none">
	<rect id="操作图标/关闭合并请求" width="17.000000" height="17.000000" x="0.000000" y="0.000000" />
	<path id="形状结合" d="M14.6464 9.64645L15.3536 10.3536L13.207 12.5L15.3536 14.6464L14.6464 15.3536L12.5 13.207L10.3536 15.3536L9.64645 14.6464L11.793 12.5L9.64645 10.3536L10.3536 9.64645L12.5 11.793L14.6464 9.64645ZM4 1C5.10457 1 6 1.89543 6 3C6 3.93155 5.36312 4.71435 4.50102 4.93673L4.50102 11.0633C5.36312 11.2856 6 12.0684 6 13C6 14.1046 5.10457 15 4 15C2.89543 15 2 14.1046 2 13C2 12.0681 2.63738 11.285 3.49998 11.063L3.49998 4.93699C2.63738 4.71496 2 3.93191 2 3C2 1.89543 2.89543 1 4 1ZM4 12C3.44772 12 3 12.4477 3 13C3 13.5523 3.44772 14 4 14C4.55228 14 5 13.5523 5 13C5 12.4477 4.55228 12 4 12ZM10 1L10 2.5L12 2.5C13.3255 2.5 14.41 3.53154 14.4947 4.83562L14.5 5L14.501 9L13.499 9L13.5 5C13.5 4.2203 12.9051 3.57955 12.1445 3.50687L12 3.5L10 3.5L10 5L7 3L10 1ZM4 2C3.44772 2 3 2.44772 3 3C3 3.55228 3.44772 4 4 4C4.55228 4 5 3.55228 5 3C5 2.44772 4.55228 2 4 2Z" fill="rgb(25,25,25)" fill-rule="evenodd" />
	<path id="形状结合" d="M15.3536 10.3536L13.207 12.5L15.3536 14.6464L14.6464 15.3536L12.5 13.207L10.3536 15.3536L9.64645 14.6464L11.793 12.5L9.64645 10.3536L10.3536 9.64645L12.5 11.793L14.6464 9.64645L15.3536 10.3536ZM6 3C6 3.93155 5.36312 4.71435 4.50102 4.93673L4.50102 11.0633C5.36312 11.2856 6 12.0684 6 13C6 14.1046 5.10457 15 4 15C2.89543 15 2 14.1046 2 13C2 12.0681 2.63738 11.285 3.49998 11.063L3.49998 4.93699C2.63738 4.71496 2 3.93191 2 3C2 1.89543 2.89543 1 4 1C5.10457 1 6 1.89543 6 3ZM3 13C3 13.5523 3.44772 14 4 14C4.55228 14 5 13.5523 5 13C5 12.4477 4.55228 12 4 12C3.44772 12 3 12.4477 3 13ZM10 2.5L12 2.5C13.3255 2.5 14.41 3.53154 14.4947 4.83562L14.5 5L14.501 9L13.499 9L13.5 5C13.5 4.2203 12.9051 3.57955 12.1445 3.50687L12 3.5L10 3.5L10 5L7 3L10 1L10 2.5ZM3 3C3 3.55228 3.44772 4 4 4C4.55228 4 5 3.55228 5 3C5 2.44772 4.55228 2 4 2C3.44772 2 3 2.44772 3 3Z" fill-rule="evenodd" stroke="rgb(0,0,0)" stroke-opacity="0" stroke-width="1" />
</svg>
