<svg viewBox="0 0 16 16" xmlns="http://www.w3.org/2000/svg" xmlns:xlink="http://www.w3.org/1999/xlink" width="16.000000" height="16.000000" fill="none">
	<rect id="操作图标/收起" width="16.000000" height="16.000000" x="0.000000" y="0.000000" />
	<path id="形状结合" d="M14.5 14C14.7761 14 15 14.2239 15 14.5C15 14.7761 14.7761 15 14.5 15L1.5 15C1.22386 15 1 14.7761 1 14.5C1 14.2239 1.22386 14 1.5 14L14.5 14ZM3.9006 4.80248C4.1534 4.55048 4.5838 4.72888 4.5838 5.08568L4.5838 10.8513C4.5838 11.2073 4.1534 11.3857 3.9006 11.1337L1.1878 8.42088C0.9374 8.17048 0.9374 7.76568 1.1878 7.51608L3.9006 4.80248ZM14.5 10C14.7761 10 15 10.2239 15 10.5C15 10.7761 14.7761 11 14.5 11L6.5 11C6.22386 11 6 10.7761 6 10.5C6 10.2239 6.22386 10 6.5 10L14.5 10ZM14.5 5C14.7761 5 15 5.22386 15 5.5C15 5.77614 14.7761 6 14.5 6L6.5 6C6.22386 6 6 5.77614 6 5.5C6 5.22386 6.22386 5 6.5 5L14.5 5ZM14.5 1C14.7761 1 15 1.22386 15 1.5C15 1.77614 14.7761 2 14.5 2L1.5 2C1.22386 2 1 1.77614 1 1.5C1 1.22386 1.22386 1 1.5 1L14.5 1Z" fill="rgb(25,25,25)" fill-rule="nonzero" />
	<path id="形状结合" d="M15 14.5C15 14.7761 14.7761 15 14.5 15L1.5 15C1.22386 15 1 14.7761 1 14.5C1 14.2239 1.22386 14 1.5 14L14.5 14C14.7761 14 15 14.2239 15 14.5ZM4.5838 5.08568L4.5838 10.8513C4.5838 11.2073 4.1534 11.3857 3.9006 11.1337L1.1878 8.42088C0.9374 8.17048 0.9374 7.76568 1.1878 7.51608L3.9006 4.80248C4.1534 4.55048 4.5838 4.72888 4.5838 5.08568ZM15 10.5C15 10.7761 14.7761 11 14.5 11L6.5 11C6.22386 11 6 10.7761 6 10.5C6 10.2239 6.22386 10 6.5 10L14.5 10C14.7761 10 15 10.2239 15 10.5ZM15 5.5C15 5.77614 14.7761 6 14.5 6L6.5 6C6.22386 6 6 5.77614 6 5.5C6 5.22386 6.22386 5 6.5 5L14.5 5C14.7761 5 15 5.22386 15 5.5ZM15 1.5C15 1.77614 14.7761 2 14.5 2L1.5 2C1.22386 2 1 1.77614 1 1.5C1 1.22386 1.22386 1 1.5 1L14.5 1C14.7761 1 15 1.22386 15 1.5Z" fill-rule="nonzero" stroke="rgb(0,0,0)" stroke-opacity="0" stroke-width="1" />
</svg>
