<svg viewBox="0 0 16 16" xmlns="http://www.w3.org/2000/svg" xmlns:xlink="http://www.w3.org/1999/xlink" width="16.000000" height="16.000000" fill="none">
	<rect id="操作图标/控制台" width="16.000000" height="16.000000" x="0.000000" y="0.000000" />
	<path id="形状结合" d="M2.5 2C1.94772 2 1.5 2.44772 1.5 3L1.5 10C1.5 10.5523 1.94772 11 2.5 11L13.5 11C14.0523 11 14.5 10.5523 14.5 10L14.5 3C14.5 2.44772 14.0523 2 13.5 2L2.5 2ZM13.5 1C14.6046 1 15.5 1.89543 15.5 3L15.5 10C15.5 11.1046 14.6046 12 13.5 12L8.5 12L8.5 15L14 15C14.2761 15 14.5 15.2239 14.5 15.5C14.5 15.7761 14.2761 16 14 16L2 16C1.72386 16 1.5 15.7761 1.5 15.5C1.5 15.2239 1.72386 15 2 15L7.5 15L7.5 12L2.5 12C1.39543 12 0.5 11.1046 0.5 10L0.5 3C0.5 1.89543 1.39543 1 2.5 1L13.5 1ZM12.5 6L3.5 6L3.5 7L12.5 7L12.5 6Z" fill="rgb(25,25,25)" fill-rule="evenodd" />
	<path id="形状结合" d="M1.5 3L1.5 10C1.5 10.5523 1.94772 11 2.5 11L13.5 11C14.0523 11 14.5 10.5523 14.5 10L14.5 3C14.5 2.44772 14.0523 2 13.5 2L2.5 2C1.94772 2 1.5 2.44772 1.5 3ZM15.5 3L15.5 10C15.5 11.1046 14.6046 12 13.5 12L8.5 12L8.5 15L14 15C14.2761 15 14.5 15.2239 14.5 15.5C14.5 15.7761 14.2761 16 14 16L2 16C1.72386 16 1.5 15.7761 1.5 15.5C1.5 15.2239 1.72386 15 2 15L7.5 15L7.5 12L2.5 12C1.39543 12 0.5 11.1046 0.5 10L0.5 3C0.5 1.89543 1.39543 1 2.5 1L13.5 1C14.6046 1 15.5 1.89543 15.5 3ZM3.5 6L3.5 7L12.5 7L12.5 6L3.5 6Z" fill-rule="evenodd" stroke="rgb(0,0,0)" stroke-opacity="0" stroke-width="1" />
</svg>
