<svg viewBox="0 0 16 16" xmlns="http://www.w3.org/2000/svg" xmlns:xlink="http://www.w3.org/1999/xlink" width="16.000000" height="16.000000" fill="none">
	<rect id="操作图标/我创建的(mine)" width="16.000000" height="16.000000" x="0.000000" y="0.000000" />
	<path id="形状结合" d="M5.73878 8.8339L10.2612 8.8339L10.516 8.83551L10.9701 8.84361L11.3585 8.85979C12.0166 8.89804 12.3946 8.98668 12.771 9.17846C13.3006 9.44833 13.7422 9.8611 14.0471 10.368L14.1745 10.6015L14.2618 10.7948L14.3193 10.9529L14.3873 11.2109L14.4361 11.5131L14.4594 11.7499L14.4764 12.0226L14.4881 12.3375L14.4953 12.701L14.5 14C14.5 14.2455 14.3231 14.4496 14.0899 14.4919L2 14.5C1.75443 14.5 1.55024 14.323 1.50801 14.0896L1.50218 12.8173L1.51027 12.3633L1.52646 11.9748C1.56472 11.3167 1.65336 10.9388 1.84515 10.5624C2.14875 9.96652 2.63319 9.48206 3.22905 9.17846C3.59861 8.99017 3.96965 8.9013 4.60589 8.86193L4.82815 8.85057L5.24814 8.83867L5.73878 8.8339ZM10.2595 9.8339L5.74223 9.8339L5.11921 9.84173L4.78317 9.85399L4.63591 9.86261L4.37784 9.88543C4.06344 9.92116 3.86064 9.97898 3.68303 10.0695C3.27535 10.2772 2.94388 10.6087 2.73615 11.0164C2.67281 11.1407 2.62547 11.2774 2.59051 11.4559L2.56656 11.5982L2.53972 11.8342L2.52928 11.9689L2.51374 12.2767L2.50194 12.8495L2.5 13.5L13.5 13.5L13.4973 12.8992L13.4872 12.3412L13.467 11.9129L13.4466 11.686L13.4196 11.4966L13.3947 11.3744L13.3652 11.2653L13.3184 11.1346L13.2639 11.0164C13.0561 10.6087 12.7247 10.2772 12.317 10.0695C12.1749 9.99708 12.0167 9.9456 11.7982 9.90961L11.6224 9.88543L11.3645 9.86261L11.2174 9.85399L10.6911 9.83784L10.2595 9.8339ZM8 1.5C9.56481 1.5 10.8333 2.76853 10.8333 4.33333C10.8333 5.89814 9.56481 7.16667 8 7.16667C6.43519 7.16667 5.16667 5.89814 5.16667 4.33333C5.16667 2.76853 6.43519 1.5 8 1.5ZM8 2.5C6.98748 2.5 6.16667 3.32081 6.16667 4.33333C6.16667 5.34586 6.98748 6.16667 8 6.16667C9.01253 6.16667 9.83333 5.34586 9.83333 4.33333C9.83333 3.32081 9.01252 2.5 8 2.5Z" fill="rgb(25,25,25)" fill-rule="evenodd" />
	<path id="形状结合" d="M10.2612 8.8339L10.516 8.83551L10.9701 8.84361L11.3585 8.85979C12.0166 8.89804 12.3946 8.98668 12.771 9.17846C13.3006 9.44833 13.7422 9.8611 14.0471 10.368L14.1745 10.6015L14.2618 10.7948L14.3193 10.9529L14.3873 11.2109L14.4361 11.5131L14.4594 11.7499L14.4764 12.0226L14.4881 12.3375L14.4953 12.701L14.5 14C14.5 14.2455 14.3231 14.4496 14.0899 14.4919L2 14.5C1.75443 14.5 1.55024 14.323 1.50801 14.0896L1.50218 12.8173L1.51027 12.3633L1.52646 11.9748C1.56472 11.3167 1.65336 10.9388 1.84515 10.5624C2.14875 9.96652 2.63319 9.48206 3.22905 9.17846C3.59861 8.99017 3.96965 8.9013 4.60589 8.86193L4.82815 8.85057L5.24814 8.83867L5.73878 8.8339L10.2612 8.8339ZM5.74223 9.8339L5.11921 9.84173L4.78317 9.85399L4.63591 9.86261L4.37784 9.88543C4.06344 9.92116 3.86064 9.97898 3.68303 10.0695C3.27535 10.2772 2.94388 10.6087 2.73615 11.0164C2.67281 11.1407 2.62547 11.2774 2.59051 11.4559L2.56656 11.5982L2.53972 11.8342L2.52928 11.9689L2.51374 12.2767L2.50194 12.8495L2.5 13.5L13.5 13.5L13.4973 12.8992L13.4872 12.3412L13.467 11.9129L13.4466 11.686L13.4196 11.4966L13.3947 11.3744L13.3652 11.2653L13.3184 11.1346L13.2639 11.0164C13.0561 10.6087 12.7247 10.2772 12.317 10.0695C12.1749 9.99708 12.0167 9.9456 11.7982 9.90961L11.6224 9.88543L11.3645 9.86261L11.2174 9.85399L10.6911 9.83784L10.2595 9.8339L5.74223 9.8339ZM10.8333 4.33333C10.8333 5.89814 9.56481 7.16667 8 7.16667C6.43519 7.16667 5.16667 5.89814 5.16667 4.33333C5.16667 2.76853 6.43519 1.5 8 1.5C9.56481 1.5 10.8333 2.76853 10.8333 4.33333ZM6.16667 4.33333C6.16667 5.34586 6.98748 6.16667 8 6.16667C9.01253 6.16667 9.83333 5.34586 9.83333 4.33333C9.83333 3.32081 9.01252 2.5 8 2.5C6.98748 2.5 6.16667 3.32081 6.16667 4.33333Z" fill-rule="evenodd" stroke="rgb(0,0,0)" stroke-opacity="0" stroke-width="1" />
</svg>
