<svg viewBox="0 0 16 16" xmlns="http://www.w3.org/2000/svg" xmlns:xlink="http://www.w3.org/1999/xlink" width="16.000000" height="16.000000" fill="none">
	<rect id="操作图标/删除" width="16.000000" height="16.000000" x="0.000000" y="0.000000" />
	<path id="形状结合" d="M1.5 4C1.22386 4 1 3.77614 1 3.5C1 3.22386 1.22386 3 1.5 3L5 3L5 2C5 1.48716 5.38604 1.06449 5.88338 1.00673L6 1L10 1C10.5128 1 10.9355 1.38604 10.9933 1.88338L11 2L11 3L14.5 3C14.7761 3 15 3.22386 15 3.5C15 3.77614 14.7761 4 14.5 4L1.5 4ZM10 2L6 2L6 3L10 3L10 2ZM12.5 5C12.7761 5 13 5.22386 13 5.5L13 13C13 14.0544 12.1841 14.9182 11.1493 14.9945L11 15L5 15C3.94564 15 3.08183 14.1841 3.00549 13.1493L3 13L3 5.5C3 5.22386 3.22386 5 3.5 5C3.77614 5 4 5.22386 4 5.5L4 13C4 13.5128 4.38604 13.9355 4.88338 13.9933L5 14L11 14C11.5128 14 11.9355 13.614 11.9933 13.1166L12 13L12 5.5C12 5.22386 12.2239 5 12.5 5ZM6.53333 6C6.79516 6 7.01292 6.17688 7.05807 6.41012L7.06667 11.5C7.06667 11.7761 6.82789 12 6.53333 12C6.27151 12 6.05375 11.8231 6.00859 11.5899L6 6.5C6 6.22386 6.23878 6 6.53333 6ZM9.53333 6C9.79516 6 10.0129 6.17688 10.0581 6.41012L10.0667 11.5C10.0667 11.7761 9.82789 12 9.53333 12C9.27151 12 9.05375 11.8231 9.00859 11.5899L9 6.5C9 6.22386 9.23878 6 9.53333 6Z" fill="rgb(25,25,25)" fill-rule="evenodd" />
	<path id="形状结合" d="M1 3.5C1 3.22386 1.22386 3 1.5 3L5 3L5 2C5 1.48716 5.38604 1.06449 5.88338 1.00673L6 1L10 1C10.5128 1 10.9355 1.38604 10.9933 1.88338L11 2L11 3L14.5 3C14.7761 3 15 3.22386 15 3.5C15 3.77614 14.7761 4 14.5 4L1.5 4C1.22386 4 1 3.77614 1 3.5ZM6 2L6 3L10 3L10 2L6 2ZM13 5.5L13 13C13 14.0544 12.1841 14.9182 11.1493 14.9945L11 15L5 15C3.94564 15 3.08183 14.1841 3.00549 13.1493L3 13L3 5.5C3 5.22386 3.22386 5 3.5 5C3.77614 5 4 5.22386 4 5.5L4 13C4 13.5128 4.38604 13.9355 4.88338 13.9933L5 14L11 14C11.5128 14 11.9355 13.614 11.9933 13.1166L12 13L12 5.5C12 5.22386 12.2239 5 12.5 5C12.7761 5 13 5.22386 13 5.5ZM7.05807 6.41012L7.06667 11.5C7.06667 11.7761 6.82789 12 6.53333 12C6.27151 12 6.05375 11.8231 6.00859 11.5899L6 6.5C6 6.22386 6.23878 6 6.53333 6C6.79516 6 7.01292 6.17688 7.05807 6.41012ZM10.0581 6.41012L10.0667 11.5C10.0667 11.7761 9.82789 12 9.53333 12C9.27151 12 9.05375 11.8231 9.00859 11.5899L9 6.5C9 6.22386 9.23878 6 9.53333 6C9.79516 6 10.0129 6.17688 10.0581 6.41012Z" fill-rule="evenodd" stroke="rgb(0,0,0)" stroke-opacity="0" stroke-width="1" />
</svg>
