<svg viewBox="0 0 16 16" xmlns="http://www.w3.org/2000/svg" xmlns:xlink="http://www.w3.org/1999/xlink" width="16.000000" height="16.000000" fill="none">
	<rect id="操作图标/数字内容(digitalcontent)" width="16.000000" height="16.000000" x="0.000000" y="0.000000" />
	<g id="g" style="mix-blend-mode:normal">
		<path id="矢量 419" d="M13.5 1C13.6 1 13.71 1.01 13.81 1.03C13.9 1.05 13.99 1.08 14.08 1.11C14.16 1.15 14.25 1.19 14.32 1.24C14.41 1.3 14.48 1.36 14.56 1.43C14.63 1.51 14.69 1.58 14.75 1.67C14.8 1.74 14.84 1.82 14.88 1.91C14.91 2 14.94 2.09 14.96 2.18C14.9867 2.28 15 2.38667 15 2.5L15 13.5C15 13.6067 14.9867 13.71 14.96 13.81C14.94 13.9 14.91 13.99 14.88 14.08C14.84 14.17 14.8 14.25 14.75 14.32C14.69 14.41 14.63 14.48 14.56 14.56C14.48 14.63 14.41 14.69 14.32 14.75C14.25 14.8 14.16 14.84 14.08 14.88C13.99 14.91 13.9 14.94 13.81 14.96C13.71 14.98 13.6 15 13.5 15L2.5 15C2.39 15 2.28 14.98 2.18 14.96C2.09 14.94 2 14.91 1.91 14.88C1.83 14.84 1.74 14.8 1.67 14.75C1.58 14.69 1.51 14.63 1.43 14.56C1.36 14.48 1.3 14.41 1.24 14.32C1.19 14.25 1.15 14.17 1.11 14.08C1.08 13.99 1.05 13.9 1.03 13.81C1.01 13.71 1 13.6067 1 13.5L1 2.5C1 2.38667 1.01 2.28 1.03 2.18C1.05 2.09 1.08 2 1.11 1.91C1.15 1.82 1.19 1.74 1.24 1.67C1.3 1.58 1.36 1.51 1.43 1.43C1.51 1.36 1.58 1.3 1.67 1.24C1.74 1.19 1.83 1.15 1.91 1.11C2 1.08 2.09 1.05 2.18 1.03C2.28 1.01 2.39 1 2.5 1L13.5 1ZM13.5 2L2.5 2C2.42667 2 2.36333 2.01 2.31 2.03C2.25 2.06 2.19 2.09 2.14 2.14C2.09 2.19 2.06 2.24 2.03 2.3C2.01 2.36 2 2.42667 2 2.5L2 13.5C2 13.56 2.01 13.63 2.03 13.69C2.06 13.75 2.09 13.8 2.14 13.85C2.19 13.9 2.24 13.93 2.3 13.96C2.35333 13.9867 2.42667 14 2.5 14L13.5 14C13.5667 14 13.6267 13.9867 13.68 13.96C13.74 13.93 13.8 13.9 13.85 13.85C13.9 13.8 13.93 13.75 13.96 13.69C13.9867 13.63 14 13.5667 14 13.5L14 2.5C14 2.42667 13.9867 2.36 13.96 2.3C13.93 2.24 13.9 2.19 13.85 2.14C13.8 2.09 13.75 2.06 13.69 2.03C13.6367 2.01 13.5667 2 13.5 2ZM7 10.36L9.65 10.36L9.65 11L5.91 11L5.91 10.54L7.81 8.43C8.17 8.03 8.41 7.72 8.55 7.5C8.68 7.27 8.75 7.02 8.75 6.75C8.75 6.45 8.67333 6.21 8.52 6.03C8.44667 5.95667 8.31667 5.83 8.23 5.79C8.09 5.71667 7.93333 5.68 7.76 5.68C7.47 5.68 7.22 5.78 7 5.98C6.78 6.17 6.63 6.43 6.53 6.75L5.95 6.42C6.07 5.98 6.3 5.64 6.65 5.4C7 5.16 7.38 5.03 7.81 5.03C8.12 5.03 8.4 5.1 8.66 5.23C8.91 5.36 9.12 5.55 9.27 5.81C9.42 6.06 9.5 6.37 9.5 6.72C9.5 7.07 9.41 7.4 9.24 7.71C9.07 8.02 8.77 8.41 8.35 8.88L7 10.36ZM13.25 8.41C13.08 8.16 12.81 7.98 12.46 7.87C12.75 7.75 12.95 7.58 13.09 7.35C13.23 7.13 13.29 6.87 13.29 6.58C13.29 6.12 13.14 5.75 12.84 5.47C12.53 5.19 12.13 5.04 11.63 5.04C11.2 5.04 10.82 5.15 10.5 5.38C10.18 5.6 9.95 5.92 9.82 6.35L10.4 6.68C10.5 6.36 10.66 6.12 10.86 5.95C11.06 5.78 11.3 5.69 11.59 5.69C11.81 5.69 11.9967 5.74 12.15 5.84C12.19 5.86667 12.23 5.89667 12.27 5.93C12.45 6.09 12.53 6.31 12.53 6.59C12.53 6.89 12.43 7.14 12.23 7.33C12.02 7.52 11.72 7.62 11.33 7.62L11.05 7.62L11.04 8.26L11.29 8.26C11.9233 8.26 12.35 8.41 12.57 8.71C12.69 8.87667 12.75 9.08333 12.75 9.33C12.75 9.68 12.65 9.95 12.43 10.14C12.22 10.34 11.96 10.43 11.65 10.43C11.36 10.43 11.09 10.35 10.84 10.19C10.59 10.03 10.42 9.79 10.32 9.47L9.74 9.8C9.87 10.22 10.11 10.54 10.47 10.75C10.83 10.97 11.22 11.08 11.65 11.08C11.98 11.08 12.29 11.02 12.57 10.88C12.86 10.74 13.08 10.54 13.25 10.28C13.43 10.02 13.51 9.7 13.51 9.34C13.51 8.97 13.42 8.66 13.25 8.41ZM2.45 6.12L2.45 6.86L3.97 5.99L3.97 11L4.69 11L4.69 5.13L4.15 5.13L2.45 6.12Z" fill="rgb(25,25,25)" fill-rule="evenodd" />
	</g>
</svg>
