<svg viewBox="0 0 16 16" xmlns="http://www.w3.org/2000/svg" xmlns:xlink="http://www.w3.org/1999/xlink" width="16.000000" height="16.000000" fill="none">
	<rect id="操作图标/拖动宽度(panel-drag)" width="16.000000" height="16.000000" x="0.000000" y="0.000000" transform="matrix(0,-1,1,0,0,16)" />
	<path id="矢量 803" d="M5.99951 15C5.71973 15 5.49951 14.78 5.49951 14.5L5.49951 1.5C5.49951 1.21997 5.71973 1 5.99951 1C6.2793 1 6.49951 1.21997 6.49951 1.5L6.49951 14.5C6.49951 14.78 6.2793 15 5.99951 15ZM9.99951 15C9.71973 15 9.49951 14.78 9.49951 14.5L9.49951 1.5C9.49951 1.21997 9.71973 1 9.99951 1C10.2793 1 10.4995 1.21997 10.4995 1.5L10.4995 14.5C10.4995 14.78 10.2793 15 9.99951 15Z" fill="rgb(25,25,25)" fill-rule="evenodd" />
</svg>
