<svg viewBox="0 0 16 16" xmlns="http://www.w3.org/2000/svg" xmlns:xlink="http://www.w3.org/1999/xlink" width="16.000000" height="16.000000" fill="none" customFrame="#000000">
	<rect id="操作图标/下拉" width="16.000000" height="16.000000" x="0.000000" y="0.000000" />
	<path id="形状结合" d="M12.8536 6.10352L8.7072 10.25C8.65676 10.3004 8.60227 10.3446 8.54372 10.3825C8.49113 10.4166 8.43527 10.4456 8.37614 10.4696C8.31777 10.4933 8.25825 10.5112 8.19757 10.5234C8.13305 10.5364 8.06722 10.5429 8.00009 10.5429C7.93296 10.5429 7.86714 10.5364 7.80261 10.5234C7.74194 10.5112 7.68242 10.4933 7.62405 10.4696C7.56492 10.4456 7.50905 10.4166 7.45646 10.3825C7.39792 10.3446 7.34343 10.3004 7.29299 10.25L3.14654 6.10352C2.94855 5.90553 2.94855 5.59441 3.14654 5.39642C3.34453 5.19843 3.65566 5.19843 3.85365 5.39642L8.00009 9.54286L12.1465 5.39642C12.3445 5.19843 12.6557 5.19843 12.8536 5.39642C13.0516 5.59441 13.0516 5.90553 12.8536 6.10352Z" fill="rgb(25,25,25)" fill-rule="evenodd" />
</svg>
