<svg viewBox="0 0 16 16" xmlns="http://www.w3.org/2000/svg" xmlns:xlink="http://www.w3.org/1999/xlink" width="16.000000" height="16.000000" fill="none">
	<rect id="操作图标/结束日期" width="16.000000" height="16.000000" x="0.000000" y="0.000000" />
	<path id="形状结合" d="M11.5 8.62104e-33C11.7761 -5.07265e-17 12 0.223858 12 0.5L12 1L14 1C15.1046 1 16 1.89543 16 3L16 14C16 15.1046 15.1046 16 14 16L2 16C0.895431 16 0 15.1046 0 14L0 3C0 1.89543 0.895431 1 2 1L4 1L4 0.5C4 0.223858 4.22386 5.07265e-17 4.5 8.62104e-33C4.77614 -5.07265e-17 5 0.223858 5 0.5L5 1L11 1L11 0.5C11 0.223858 11.2239 5.07265e-17 11.5 8.62104e-33ZM15 5L1 5L1 14C1 14.5523 1.44772 15 2 15L14 15C14.5523 15 15 14.5523 15 14L15 5ZM12 9C12.5523 9 13 9.44771 13 10L13 12C13 12.5523 12.5523 13 12 13L10 13C9.44771 13 9 12.5523 9 12L9 10C9 9.44771 9.44771 9 10 9L12 9ZM12 10L10 10L10 12L12 12L12 10ZM4 2L2 2C1.44772 2 1 2.44772 1 3L1 4L15 4L15 3C15 2.44772 14.5523 2 14 2L12 2L12 2.5C12 2.77614 11.7761 3 11.5 3C11.2239 3 11 2.77614 11 2.5L11 2L5 2L5 2.5C5 2.77614 4.77614 3 4.5 3C4.22386 3 4 2.77614 4 2.5L4 2Z" fill="rgb(25,25,25)" fill-rule="evenodd" />
	<path id="形状结合" d="M12 0.5L12 1L14 1C15.1046 1 16 1.89543 16 3L16 14C16 15.1046 15.1046 16 14 16L2 16C0.895431 16 0 15.1046 0 14L0 3C0 1.89543 0.895431 1 2 1L4 1L4 0.5C4 0.223858 4.22386 5.07265e-17 4.5 8.62104e-33C4.77614 -5.07265e-17 5 0.223858 5 0.5L5 1L11 1L11 0.5C11 0.223858 11.2239 5.07265e-17 11.5 8.62104e-33C11.7761 -5.07265e-17 12 0.223858 12 0.5ZM1 5L1 14C1 14.5523 1.44772 15 2 15L14 15C14.5523 15 15 14.5523 15 14L15 5L1 5ZM13 10L13 12C13 12.5523 12.5523 13 12 13L10 13C9.44771 13 9 12.5523 9 12L9 10C9 9.44771 9.44771 9 10 9L12 9C12.5523 9 13 9.44771 13 10ZM10 10L10 12L12 12L12 10L10 10ZM2 2C1.44772 2 1 2.44772 1 3L1 4L15 4L15 3C15 2.44772 14.5523 2 14 2L12 2L12 2.5C12 2.77614 11.7761 3 11.5 3C11.2239 3 11 2.77614 11 2.5L11 2L5 2L5 2.5C5 2.77614 4.77614 3 4.5 3C4.22386 3 4 2.77614 4 2.5L4 2L2 2Z" fill-rule="evenodd" stroke="rgb(0,0,0)" stroke-opacity="0" stroke-width="1" />
</svg>
