<svg viewBox="0 0 16 16" xmlns="http://www.w3.org/2000/svg" xmlns:xlink="http://www.w3.org/1999/xlink" width="16.000000" height="16.000000" fill="none">
	<rect id="操作图标/企业成员管理" width="16.000000" height="16.000000" x="0.000000" y="0.000000" />
	<path id="形状结合" d="M12 8.5359L15 10.2679L15 13.7321L12 15.4641L9 13.7321L9 10.2679L12 8.5359ZM7 1C9.20914 1 11 2.79086 11 5C11 7.1422 9.31603 8.89108 7.19964 8.9951L7 9C3.68629 9 1 11.6863 1 15L0 15C0 11.898 2.01767 9.26734 4.8122 8.34868C3.72119 7.63536 3 6.4019 3 5C3 2.79086 4.79086 1 7 1ZM12 9.6906L10 10.8453L10 13.1547L12 14.3094L14 13.1547L14 10.8453L12 9.6906ZM12 11C12.5523 11 13 11.4477 13 12C13 12.5523 12.5523 13 12 13C11.4477 13 11 12.5523 11 12C11 11.4477 11.4477 11 12 11ZM7 2C5.34315 2 4 3.34315 4 5C4 6.65685 5.34315 8 7 8C8.65685 8 10 6.65685 10 5C10 3.34315 8.65685 2 7 2Z" fill="rgb(25,25,25)" fill-rule="evenodd" />
	<path id="形状结合" d="M15 10.2679L15 13.7321L12 15.4641L9 13.7321L9 10.2679L12 8.5359L15 10.2679ZM11 5C11 7.1422 9.31603 8.89108 7.19964 8.9951L7 9C3.68629 9 1 11.6863 1 15L0 15C0 11.898 2.01767 9.26734 4.8122 8.34868C3.72119 7.63536 3 6.4019 3 5C3 2.79086 4.79086 1 7 1C9.20914 1 11 2.79086 11 5ZM10 10.8453L10 13.1547L12 14.3094L14 13.1547L14 10.8453L12 9.6906L10 10.8453ZM13 12C13 12.5523 12.5523 13 12 13C11.4477 13 11 12.5523 11 12C11 11.4477 11.4477 11 12 11C12.5523 11 13 11.4477 13 12ZM4 5C4 6.65685 5.34315 8 7 8C8.65685 8 10 6.65685 10 5C10 3.34315 8.65685 2 7 2C5.34315 2 4 3.34315 4 5Z" fill-rule="evenodd" stroke="rgb(0,0,0)" stroke-opacity="0" stroke-width="1" />
</svg>
