<svg viewBox="0 0 16 16" xmlns="http://www.w3.org/2000/svg" xmlns:xlink="http://www.w3.org/1999/xlink" width="16.000000" height="16.000000" fill="none">
	<rect id="操作图标/expandCode" width="16.000000" height="16.000000" x="0.000000" y="0.000000" />
	<path id="形状结合" d="M13.8193 1.03389C13.7153 1.0113 13.6089 1 13.5 1L2.5 1C2.39112 1 2.28469 1.0113 2.18072 1.03389C2.09063 1.05347 2.00238 1.08154 1.91598 1.11808C1.82991 1.15449 1.74859 1.19805 1.67201 1.24878C1.58886 1.30385 1.5113 1.36738 1.43934 1.43934C1.36737 1.5113 1.30385 1.58886 1.24877 1.67201C1.19805 1.74859 1.15449 1.82991 1.11808 1.91598C1.08154 2.00238 1.05347 2.09063 1.03389 2.18072C1.0113 2.28469 1 2.39112 1 2.5L1 13.5C1 13.6089 1.0113 13.7153 1.03389 13.8193C1.05347 13.9094 1.08154 13.9976 1.11808 14.084C1.15448 14.1701 1.19804 14.2514 1.24875 14.328C1.30384 14.4111 1.36737 14.4887 1.43934 14.5607C1.5113 14.6326 1.58886 14.6961 1.67201 14.7512C1.74859 14.802 1.82991 14.8455 1.91598 14.8819C2.00236 14.9185 2.09059 14.9465 2.18066 14.9661C2.28465 14.9887 2.3911 15 2.5 15L13.5 15C13.6089 15 13.7153 14.9887 13.8193 14.9661C13.9094 14.9465 13.9976 14.9185 14.084 14.8819C14.1701 14.8455 14.2514 14.802 14.328 14.7512C14.4111 14.6962 14.4887 14.6326 14.5607 14.5607C14.6326 14.4887 14.6962 14.4111 14.7512 14.328C14.802 14.2514 14.8455 14.1701 14.8819 14.084C14.9185 13.9976 14.9465 13.9094 14.9661 13.8193C14.9887 13.7153 15 13.6089 15 13.5L15 2.5C15 2.3911 14.9887 2.28465 14.9661 2.18066C14.9465 2.09059 14.9185 2.00236 14.8819 1.91598C14.8455 1.82991 14.802 1.74859 14.7512 1.67201C14.6961 1.58886 14.6326 1.5113 14.5607 1.43934C14.4887 1.36737 14.4111 1.30384 14.328 1.24875C14.2514 1.19804 14.1701 1.15448 14.084 1.11808C13.9976 1.08154 13.9094 1.05347 13.8193 1.03389ZM2.5 2L13.5 2C13.569 2 13.633 2.0122 13.6919 2.03661C13.7509 2.06102 13.8047 2.09763 13.8536 2.14645C13.9024 2.19526 13.939 2.24913 13.9634 2.30806C13.9878 2.36699 14 2.43097 14 2.5L14 13.5C14 13.569 13.9878 13.633 13.9634 13.6919C13.939 13.7509 13.9024 13.8047 13.8536 13.8536C13.8047 13.9024 13.7509 13.939 13.6919 13.9634C13.633 13.9878 13.569 14 13.5 14L2.5 14C2.43097 14 2.36699 13.9878 2.30806 13.9634C2.24913 13.939 2.19526 13.9024 2.14645 13.8536C2.09763 13.8047 2.06102 13.7509 2.03661 13.6919C2.0122 13.633 2 13.569 2 13.5L2 2.5C2 2.43096 2.0122 2.36698 2.03661 2.30806C2.06102 2.24913 2.09763 2.19526 2.14645 2.14645C2.19526 2.09763 2.24913 2.06102 2.30806 2.03661C2.36698 2.0122 2.43096 2 2.5 2ZM10.5311 5.25C10.7702 5.11193 11.076 5.19386 11.2141 5.43301C11.3522 5.67216 11.2702 5.97795 11.0311 6.11602L8 7.86602L4.96891 6.11602C4.72976 5.97795 4.64783 5.67216 4.7859 5.43301C4.92397 5.19386 5.22976 5.11193 5.46891 5.25L7.9999 6.711L10.5311 5.25ZM10.5311 8.38397C10.7702 8.2459 11.076 8.32784 11.2141 8.56698C11.3522 8.80613 11.2702 9.11193 11.0311 9.25L8 11L4.96891 9.25C4.72976 9.11193 4.64783 8.80613 4.7859 8.56698C4.92397 8.32784 5.22976 8.2459 5.46891 8.38397L7.9999 9.84497L10.5311 8.38397Z" fill="rgb(25,25,25)" fill-rule="evenodd" />
</svg>
