<svg viewBox="0 0 16 16" xmlns="http://www.w3.org/2000/svg" xmlns:xlink="http://www.w3.org/1999/xlink" width="16.000000" height="16.000000" fill="none" customFrame="#000000">
	<rect id="操作图标/文件" width="16.000000" height="16.000000" x="0.000000" y="0.000000" fill="rgb(255,255,255)" fill-opacity="0" />
	<path id="形状结合" d="M4 1L10 1L14 5L14 13C14 14.1046 13.1046 15 12 15L4 15C2.89543 15 2 14.1046 2 13L2 3C2 1.89543 2.89543 1 4 1ZM9.5 2L4 2C3.91737 2 3.83711 2.00961 3.75922 2.02883C3.70884 2.04126 3.65946 2.05771 3.61106 2.07817C3.55866 2.10034 3.50885 2.12654 3.46162 2.15679C3.40113 2.19553 3.34489 2.24089 3.29289 2.29289C3.2409 2.34489 3.19553 2.40113 3.15679 2.46162C3.12654 2.50884 3.10034 2.55866 3.07817 2.61106C3.05771 2.65945 3.04126 2.70885 3.02883 2.75922C3.00961 2.83711 3 2.91737 3 3L3 13C3 13.0826 3.00961 13.1629 3.02883 13.2408C3.04126 13.2912 3.05771 13.3406 3.07817 13.3889C3.10034 13.4413 3.12654 13.4912 3.15679 13.5384C3.19553 13.5989 3.2409 13.6551 3.29289 13.7071C3.34489 13.7591 3.40114 13.8045 3.46163 13.8432C3.50886 13.8735 3.55867 13.8997 3.61106 13.9218C3.65946 13.9423 3.70885 13.9587 3.75923 13.9712C3.83712 13.9904 3.91737 14 4 14L12 14C12.0826 14 12.1629 13.9904 12.2408 13.9712C12.2911 13.9588 12.3406 13.9423 12.3889 13.9218C12.4413 13.8997 12.4911 13.8735 12.5383 13.8433C12.5988 13.8045 12.6551 13.7591 12.7071 13.7071C12.7591 13.6551 12.8045 13.5989 12.8432 13.5384C12.8735 13.4912 12.8997 13.4413 12.9218 13.3889C12.9423 13.3405 12.9587 13.2911 12.9712 13.2408C12.9904 13.1629 13 13.0826 13 13L13 5.5L11 5.5C10.8911 5.5 10.7847 5.4887 10.6807 5.46611C10.5907 5.44653 10.5024 5.41846 10.416 5.38192C10.3299 5.34552 10.2486 5.30197 10.1721 5.25126C10.0889 5.19618 10.0113 5.13263 9.93934 5.06066C9.8674 4.98872 9.8039 4.91119 9.74883 4.82808C9.69811 4.7515 9.65448 4.67008 9.61808 4.58402C9.58157 4.49769 9.55352 4.40952 9.53395 4.31951C9.51135 4.21554 9.5 4.10888 9.5 4L9.5 2ZM12.0858 4.5L10.5 2.91421L10.5 4C10.5 4.06903 10.5122 4.13302 10.5366 4.19194C10.561 4.25087 10.5976 4.30474 10.6464 4.35355C10.6953 4.40236 10.7491 4.43897 10.808 4.46338C10.867 4.48779 10.931 4.5 11 4.5L12.0858 4.5ZM8.5 6.5L4.5 6.5C4.22 6.5 4 6.72 4 7C4 7.28 4.22 7.5 4.5 7.5L8.5 7.5C8.78 7.5 9 7.28 9 7C9 6.72 8.78 6.5 8.5 6.5ZM4.5 9.49216L11.5264 9.49216C11.8064 9.49216 12.0264 9.71216 12.0264 9.99216C12.0264 10.2722 11.8064 10.4922 11.5264 10.4922L4.5 10.4922C4.22 10.4922 4 10.2722 4 9.99216C4 9.71216 4.22 9.49216 4.5 9.49216Z" fill="rgb(25,25,25)" fill-rule="evenodd" />
</svg>
