<svg viewBox="0 0 16 16" xmlns="http://www.w3.org/2000/svg" xmlns:xlink="http://www.w3.org/1999/xlink" width="16.000000" height="16.000000" fill="none">
	<rect id="操作图标/悬浮桌面" width="16.000000" height="16.000000" x="0.000000" y="0.000000" />
	<g id="floating-workbench">
		<path id="矢量 801" d="M4.25 14.125L6.125 14.125C6.40503 14.125 6.625 13.905 6.625 13.625C6.625 13.345 6.40503 13.125 6.125 13.125L4.25 13.125C4.14307 13.125 4.03882 13.1132 3.93726 13.0896C3.86157 13.072 3.7876 13.0479 3.71484 13.0172C3.63965 12.9853 3.56836 12.9474 3.50073 12.9035C3.4209 12.8515 3.34668 12.7911 3.27783 12.7223C3.20898 12.6534 3.14844 12.579 3.09644 12.4992C3.05249 12.4317 3.01465 12.3604 2.98291 12.2851C2.95215 12.2125 2.92798 12.1384 2.9104 12.0628C2.88672 11.9613 2.875 11.857 2.875 11.75L2.875 4.25C2.875 4.14299 2.8868 4.03874 2.9104 3.93723C2.92798 3.86168 2.95215 3.78742 2.98291 3.71494C3.01465 3.63963 3.05249 3.56824 3.09644 3.50078C3.14852 3.42093 3.20898 3.34658 3.27783 3.27773C3.34668 3.20888 3.42098 3.14847 3.50073 3.0965C3.56828 3.05258 3.63965 3.0147 3.71484 2.98285C3.7876 2.95216 3.86157 2.92802 3.93726 2.91043C4.03882 2.88681 4.14307 2.875 4.25 2.875L11.75 2.875C11.8569 2.875 11.9612 2.88681 12.0627 2.91043C12.1384 2.92802 12.2126 2.95216 12.2852 2.98285C12.3604 3.0147 12.4317 3.05257 12.4993 3.09647C12.5791 3.14845 12.6533 3.20886 12.7222 3.27773C12.791 3.34659 12.8516 3.42093 12.9036 3.50078C12.9475 3.56824 12.9854 3.63963 13.0171 3.71494C13.0479 3.78751 13.072 3.8616 13.0896 3.93721C13.1132 4.03873 13.125 4.14299 13.125 4.25L13.125 6.08105C13.125 6.36105 13.345 6.58105 13.625 6.58105C13.905 6.58105 14.125 6.36105 14.125 6.08105L14.125 4.25C14.125 4.07541 14.1067 3.90485 14.0701 3.73831C14.0391 3.59779 13.9951 3.46016 13.9382 3.32539C13.8809 3.19022 13.8127 3.06241 13.7332 2.94199C13.6455 2.80923 13.5442 2.68544 13.4294 2.57062C13.3147 2.45583 13.1909 2.35461 13.0581 2.26697C12.9375 2.18744 12.8098 2.11902 12.6746 2.06184C12.5398 2.00484 12.4021 1.96088 12.2617 1.92996C12.0952 1.89333 11.9246 1.875 11.75 1.875L4.25 1.875C4.07536 1.875 3.90479 1.89332 3.73828 1.92996C3.59782 1.96089 3.46021 2.00485 3.32544 2.06184C3.19019 2.11902 3.06234 2.18737 2.94189 2.26689C2.80924 2.35456 2.68547 2.4558 2.57056 2.57062C2.45581 2.68545 2.35457 2.80923 2.26685 2.94199C2.18742 3.06241 2.11906 3.19021 2.06177 3.32539C2.0048 3.46017 1.96086 3.59781 1.92993 3.73833C1.89331 3.90485 1.875 4.07542 1.875 4.25L1.875 11.75C1.875 11.9246 1.89331 12.0951 1.92993 12.2617C1.96094 12.4022 2.00488 12.5398 2.06177 12.6746C2.11914 12.8098 2.18726 12.9376 2.26685 13.058C2.35449 13.1908 2.45581 13.3146 2.57056 13.4294C2.68547 13.5442 2.80924 13.6454 2.94189 13.733C3.06217 13.8126 3.19019 13.881 3.32544 13.9382C3.46021 13.9952 3.5979 14.0391 3.73828 14.07C3.90479 14.1067 4.07536 14.125 4.25 14.125ZM12.6875 7.5C12.7917 7.5 12.8935 7.5108 12.9929 7.53239C13.0796 7.55116 13.1643 7.57809 13.2473 7.61317C13.3298 7.64809 13.4077 7.68988 13.4812 7.73856C13.5608 7.79131 13.635 7.85213 13.7039 7.92104C13.7729 7.98993 13.8337 8.06419 13.8865 8.1438C13.9351 8.21724 13.9768 8.29524 14.0117 8.37781C14.0469 8.46075 14.0737 8.54547 14.0925 8.63196C14.1143 8.73146 14.125 8.83331 14.125 8.9375L14.125 12.6875C14.125 12.7917 14.1143 12.8935 14.0925 12.993C14.0738 13.0795 14.0469 13.1642 14.0117 13.2472C13.9768 13.3298 13.9351 13.4078 13.8865 13.4812C13.8337 13.5608 13.7729 13.6351 13.7039 13.704C13.635 13.7729 13.5608 13.8337 13.4812 13.8864C13.4077 13.9351 13.3298 13.9769 13.2473 14.0118C13.1643 14.0469 13.0796 14.0738 12.9932 14.0926C12.8936 14.1142 12.7917 14.125 12.6875 14.125L8.9375 14.125C8.83325 14.125 8.73145 14.1142 8.63208 14.0926C8.54541 14.0738 8.46069 14.0469 8.37769 14.0118C8.29517 13.9769 8.21729 13.9351 8.1438 13.8864C8.06421 13.8337 7.98999 13.7729 7.92114 13.704C7.85205 13.6351 7.79126 13.5608 7.73853 13.4812C7.68994 13.4077 7.64819 13.3298 7.61328 13.2472C7.57812 13.1642 7.55127 13.0795 7.53247 12.993C7.51074 12.8935 7.5 12.7917 7.5 12.6875L7.5 8.9375C7.5 8.83331 7.51074 8.73146 7.53247 8.63197C7.55127 8.54547 7.57812 8.46075 7.61328 8.37781C7.64811 8.29526 7.68986 8.21726 7.73853 8.14381C7.79126 8.06421 7.85205 7.98994 7.92114 7.92104C7.98999 7.85213 8.06421 7.79131 8.1438 7.73856C8.21729 7.68988 8.29517 7.64809 8.37769 7.61317C8.46069 7.57808 8.54541 7.55116 8.63208 7.53239C8.73145 7.5108 8.83325 7.5 8.9375 7.5L12.6875 7.5ZM12.6875 8.5L8.9375 8.5C8.8772 8.5 8.82104 8.51068 8.76953 8.53203C8.71802 8.55339 8.6709 8.58543 8.62817 8.62814C8.58537 8.67086 8.5533 8.71799 8.53198 8.76955C8.51074 8.82111 8.5 8.87709 8.5 8.9375L8.5 12.6875C8.5 12.7479 8.51074 12.8039 8.53198 12.8555C8.55347 12.907 8.58545 12.9541 8.62817 12.9969C8.6709 13.0396 8.71802 13.0716 8.76953 13.093C8.82104 13.1143 8.8772 13.125 8.9375 13.125L12.6875 13.125C12.7478 13.125 12.804 13.1143 12.8555 13.093C12.907 13.0716 12.9541 13.0396 12.9968 12.9969C13.0396 12.9541 13.0715 12.907 13.093 12.8555C13.1143 12.8039 13.125 12.7479 13.125 12.6875L13.125 8.9375C13.125 8.8771 13.1143 8.82111 13.093 8.76955C13.0715 8.71799 13.0396 8.67085 12.9968 8.62814C12.9541 8.58543 12.907 8.55339 12.8555 8.53203C12.804 8.51068 12.7478 8.5 12.6875 8.5Z" fill="rgb(25,25,25)" fill-rule="nonzero" />
	</g>
</svg>
