<svg viewBox="0 0 16 16" xmlns="http://www.w3.org/2000/svg" xmlns:xlink="http://www.w3.org/1999/xlink" width="16.000000" height="16.000000" fill="none">
	<rect id="操作图标/Fork" width="16.000000" height="16.000000" x="0.000000" y="0.000000" />
	<path id="形状结合" d="M12 1C13.1046 1 14 1.89543 14 3C14 3.93155 13.3631 4.71435 12.501 4.93673L12.5 6.38197C12.5 6.90278 12.2303 7.38261 11.7939 7.65468L11.6708 7.72361L8.5 9.308L8.50102 11.0633C9.36312 11.2856 10 12.0684 10 13C10 14.1046 9.10457 15 8 15C6.89543 15 6 14.1046 6 13C6 12.0681 6.63738 11.285 7.49998 11.063L7.5 9.309L4.32918 7.72361C3.86335 7.49069 3.5548 7.03485 3.50661 6.52286L3.5 6.38197L3.49998 4.93699C2.63738 4.71496 2 3.93191 2 3C2 1.89543 2.89543 1 4 1C5.10457 1 6 1.89543 6 3C6 3.93155 5.36312 4.71435 4.50102 4.93673L4.5 6.38197C4.5 6.53979 4.57431 6.68632 4.6971 6.7798L8 8.44L11.2236 6.82918C11.3648 6.7586 11.4626 6.62661 11.4913 6.47497L11.5 4.93699C10.6374 4.71496 10 3.93191 10 3C10 1.89543 10.8954 1 12 1ZM8 12C7.44772 12 7 12.4477 7 13C7 13.5523 7.44772 14 8 14C8.55229 14 9 13.5523 9 13C9 12.4477 8.55229 12 8 12ZM4 2C3.44772 2 3 2.44772 3 3C3 3.55228 3.44772 4 4 4C4.55228 4 5 3.55228 5 3C5 2.44772 4.55228 2 4 2ZM12 2C11.4477 2 11 2.44772 11 3C11 3.55228 11.4477 4 12 4C12.5523 4 13 3.55228 13 3C13 2.44772 12.5523 2 12 2Z" fill="rgb(25,25,25)" fill-rule="evenodd" />
	<path id="形状结合" d="M14 3C14 3.93155 13.3631 4.71435 12.501 4.93673L12.5 6.38197C12.5 6.90278 12.2303 7.38261 11.7939 7.65468L11.6708 7.72361L8.5 9.308L8.50102 11.0633C9.36312 11.2856 10 12.0684 10 13C10 14.1046 9.10457 15 8 15C6.89543 15 6 14.1046 6 13C6 12.0681 6.63738 11.285 7.49998 11.063L7.5 9.309L4.32918 7.72361C3.86335 7.49069 3.5548 7.03485 3.50661 6.52286L3.5 6.38197L3.49998 4.93699C2.63738 4.71496 2 3.93191 2 3C2 1.89543 2.89543 1 4 1C5.10457 1 6 1.89543 6 3C6 3.93155 5.36312 4.71435 4.50102 4.93673L4.5 6.38197C4.5 6.53979 4.57431 6.68632 4.6971 6.7798L8 8.44L11.2236 6.82918C11.3648 6.7586 11.4626 6.62661 11.4913 6.47497L11.5 4.93699C10.6374 4.71496 10 3.93191 10 3C10 1.89543 10.8954 1 12 1C13.1046 1 14 1.89543 14 3ZM7 13C7 13.5523 7.44772 14 8 14C8.55229 14 9 13.5523 9 13C9 12.4477 8.55229 12 8 12C7.44772 12 7 12.4477 7 13ZM3 3C3 3.55228 3.44772 4 4 4C4.55228 4 5 3.55228 5 3C5 2.44772 4.55228 2 4 2C3.44772 2 3 2.44772 3 3ZM11 3C11 3.55228 11.4477 4 12 4C12.5523 4 13 3.55228 13 3C13 2.44772 12.5523 2 12 2C11.4477 2 11 2.44772 11 3Z" fill-rule="evenodd" stroke="rgb(0,0,0)" stroke-opacity="0" stroke-width="1" />
</svg>
