<svg viewBox="0 0 16 16" xmlns="http://www.w3.org/2000/svg" xmlns:xlink="http://www.w3.org/1999/xlink" width="16.000000" height="16.000000" fill="none">
	<rect id="操作图标/历史" width="16.000000" height="16.000000" x="0.000000" y="0.000000" />
	<path id="形状结合" d="M8 0C12.4183 0 16 3.58172 16 8C16 8.33899 15.9789 8.67305 15.938 9.00095L14.929 9.00101C14.9758 8.67409 15 8.33987 15 8C15 4.13401 11.866 1 8 1C4.13401 1 1 4.13401 1 8C1 11.866 4.13401 15 8 15L8 16C3.58172 16 0 12.4183 0 8C0 3.58172 3.58172 0 8 0ZM15.5 15C15.7761 15 16 15.2239 16 15.5C16 15.7761 15.7761 16 15.5 16L10.5 16C10.2239 16 10 15.7761 10 15.5C10 15.2239 10.2239 15 10.5 15L15.5 15ZM15.5 13C15.7761 13 16 13.2239 16 13.5C16 13.7761 15.7761 14 15.5 14L10.5 14C10.2239 14 10 13.7761 10 13.5C10 13.2239 10.2239 13 10.5 13L15.5 13ZM15.5 11C15.7761 11 16 11.2239 16 11.5C16 11.7761 15.7761 12 15.5 12L10.5 12C10.2239 12 10 11.7761 10 11.5C10 11.2239 10.2239 11 10.5 11L15.5 11ZM8 4L8 8L12 8L12 9L7 9L7 4L8 4Z" fill="rgb(25,25,25)" fill-rule="evenodd" />
	<path id="形状结合" d="M16 8C16 8.33899 15.9789 8.67305 15.938 9.00095L14.929 9.00101C14.9758 8.67409 15 8.33987 15 8C15 4.13401 11.866 1 8 1C4.13401 1 1 4.13401 1 8C1 11.866 4.13401 15 8 15L8 16C3.58172 16 0 12.4183 0 8C0 3.58172 3.58172 0 8 0C12.4183 0 16 3.58172 16 8ZM16 15.5C16 15.7761 15.7761 16 15.5 16L10.5 16C10.2239 16 10 15.7761 10 15.5C10 15.2239 10.2239 15 10.5 15L15.5 15C15.7761 15 16 15.2239 16 15.5ZM16 13.5C16 13.7761 15.7761 14 15.5 14L10.5 14C10.2239 14 10 13.7761 10 13.5C10 13.2239 10.2239 13 10.5 13L15.5 13C15.7761 13 16 13.2239 16 13.5ZM16 11.5C16 11.7761 15.7761 12 15.5 12L10.5 12C10.2239 12 10 11.7761 10 11.5C10 11.2239 10.2239 11 10.5 11L15.5 11C15.7761 11 16 11.2239 16 11.5ZM8 8L12 8L12 9L7 9L7 4L8 4L8 8Z" fill-rule="evenodd" stroke="rgb(0,0,0)" stroke-opacity="0" stroke-width="1" />
</svg>
