<svg viewBox="0 0 16 16" xmlns="http://www.w3.org/2000/svg" xmlns:xlink="http://www.w3.org/1999/xlink" width="16.000000" height="16.000000" fill="none">
	<rect id="操作图标/HWP7S" width="16.000000" height="16.000000" x="0.000000" y="0.000000" />
	<path id="形状结合" d="M12 9.5C12.2455 9.5 12.4496 9.67688 12.4919 9.91012L12.5 13.408L13.7633 12.1464C13.9369 11.9729 14.2063 11.9536 14.4012 12.0886C14.5747 12.2622 14.6633 12.5894 14.5283 12.7843L12.3491 14.9749C12.1755 15.1484 11.9061 15.1677 11.7112 15.0327L9.52066 12.8536C9.3254 12.6583 9.3254 12.3417 9.52066 12.1464C9.69423 11.9729 9.96365 11.9536 10.1585 12.0886L11.5 13.419L11.5 10C11.5 9.72386 11.7239 9.5 12 9.5ZM12.5 1C13.5544 1 14.4182 1.81588 14.4945 2.85074L14.5 3L14.5 9C14.5 9.27614 14.2761 9.5 14 9.5C13.7545 9.5 13.5504 9.32312 13.5081 9.08988L13.5 3C13.5 2.48716 13.114 2.06449 12.6166 2.00673L12.5 2L3.5 2C2.98716 2 2.56449 2.38604 2.50673 2.88338L2.5 3L2.5 13C2.5 13.5128 2.88604 13.9355 3.38338 13.9933L3.5 14L8 14C8.27614 14 8.5 14.2239 8.5 14.5C8.5 14.7455 8.32312 14.9496 8.08988 14.9919L3.5 15C2.44564 15 1.58183 14.1841 1.50549 13.1493L1.5 13L1.5 3C1.5 1.94564 2.31588 1.08183 3.35074 1.00549L3.5 1L12.5 1ZM7.645 8.27C7.965 8.27 8.245 8.34333 8.485 8.49C8.725 8.63667 8.88 8.845 8.95 9.115C8.97 9.26946 8.90917 9.40112 8.7675 9.51C8.52917 9.61849 8.35167 9.58516 8.235 9.41C8.18167 9.26 8.11167 9.19833 8 9.115C7.88833 9.03167 7.755 9.035 7.595 9.035C7.45833 9.035 7.3475 9.06667 7.2625 9.13C7.1775 9.19333 7.135 9.275 7.135 9.375C7.135 9.45167 7.16417 9.51667 7.2225 9.57C7.28083 9.62333 7.35333 9.66667 7.44 9.7C7.52667 9.73333 7.65 9.775 7.81 9.825C8.05667 9.89833 8.25667 9.97083 8.41 10.0425C8.56333 10.1142 8.69667 10.2217 8.81 10.365C8.92333 10.5083 8.98 10.695 8.98 10.925C8.98 11.195 8.90917 11.415 8.7675 11.585C8.62583 11.755 8.44833 11.8775 8.235 11.9525C8.02167 12.0275 7.80333 12.065 7.58 12.065C7.24333 12.065 6.935 11.9875 6.655 11.8325C6.375 11.6775 6.19892 11.5108 6.10559 11.2175C6.06978 11.0058 6.13426 10.8533 6.29901 10.76C6.54614 10.62 6.66711 10.7675 6.7811 10.8787C6.89509 10.9898 6.96583 11.0667 7.1075 11.16C7.24917 11.2533 7.41667 11.3 7.61 11.3C7.75333 11.3 7.86917 11.2725 7.9575 11.2175C8.04583 11.1625 8.09 11.0817 8.09 10.975C8.09 10.8883 8.06 10.8167 8 10.76C7.94 10.7033 7.865 10.6567 7.775 10.62C7.685 10.5833 7.55833 10.5417 7.395 10.495C7.155 10.425 6.95917 10.355 6.8075 10.285C6.65583 10.215 6.525 10.1092 6.415 9.9675C6.305 9.82583 6.25 9.64 6.25 9.41C6.25 9.15667 6.31583 8.945 6.4475 8.775C6.57917 8.605 6.75083 8.47833 6.9625 8.395C7.17417 8.31167 7.40167 8.27 7.645 8.27ZM5.3 8.335C5.57614 8.335 5.8 8.55886 5.8 8.835L4.62673 11.7881C4.50018 11.994 4.32852 12.0647 4.11176 12C3.89499 11.9353 3.81183 11.7739 3.86226 11.5158L4.845 9.08L3.56838 9.08C3.3452 9.03931 3.23361 8.90897 3.23361 8.68897C3.23361 8.46898 3.3452 8.35099 3.56838 8.335L5.3 8.335ZM5.45218 3.32061C5.68406 3.32061 5.82759 3.45462 5.88277 3.72264L5.88277 6.66939C5.84435 6.89562 5.69912 7.00874 5.44708 7.00874C5.19503 7.00874 5.05526 6.89562 5.02777 6.66939L5.03287 5.48L3.855 5.48L3.855 6.61676C3.83589 6.87225 3.6981 7 3.44165 7C3.18519 7 3.03797 6.87225 3 6.61676L2.99488 3.72264C3.03372 3.45462 3.17256 3.32061 3.41141 3.32061C3.65027 3.32061 3.79643 3.45462 3.8499 3.72264L3.855 4.725L5.03287 4.725L5.02777 3.72264C5.07883 3.45462 5.2203 3.32061 5.45218 3.32061ZM9.77313 3.32061C10.0103 3.38717 10.1105 3.51633 10.0738 3.70811L9.44064 6.75871C9.37125 6.91957 9.22583 7 9.00437 7C8.78291 7 8.62947 6.91957 8.54404 6.75871L8.19367 5.1C7.89725 6.10028 7.72905 6.65318 7.68907 6.75871C7.6291 6.917 7.54941 7 7.31294 7C7.15529 7 7.02489 6.91957 6.92174 6.75871L6.10583 3.77336C6.07313 3.53286 6.17794 3.38841 6.42026 3.34C6.66257 3.29159 6.82974 3.39963 6.92174 3.6641L7.38472 5.47327L7.84722 3.53362C7.91419 3.39161 8.02967 3.32061 8.19367 3.32061C8.35767 3.32061 8.47446 3.39161 8.54404 3.53362L9.00437 5.47327L9.28627 3.585C9.37364 3.34219 9.53593 3.25406 9.77313 3.32061ZM11.755 3.34C12.0617 3.34 12.3283 3.39083 12.555 3.4925C12.7817 3.59417 12.9558 3.73833 13.0775 3.925C13.1992 4.11167 13.26 4.33 13.26 4.58C13.26 4.83 13.1992 5.04833 13.0775 5.235C12.9558 5.42167 12.7817 5.56583 12.555 5.6675C12.3283 5.76917 12.0617 5.82 11.755 5.82L11.285 5.82L11.285 6.6204C11.285 6.87347 11.1542 7 10.8927 7C10.6312 7 10.477 6.87347 10.43 6.6204L10.43 3.84C10.43 3.56386 10.6539 3.34 10.93 3.34L11.755 3.34ZM11.66 4.06L11.285 4.06L11.285 5.1L11.66 5.1C11.8667 5.1 12.035 5.06 12.165 4.98C12.295 4.9 12.36 4.76667 12.36 4.58C12.36 4.39667 12.2942 4.26417 12.1625 4.1825C12.0308 4.10083 11.8633 4.06 11.66 4.06Z" fill="rgb(25,25,25)" fill-rule="evenodd" />
	<path id="形状结合" d="M12.4919 9.91012L12.5 13.408L13.7633 12.1464C13.9369 11.9729 14.2063 11.9536 14.4012 12.0886C14.5747 12.2622 14.6633 12.5894 14.5283 12.7843L12.3491 14.9749C12.1755 15.1484 11.9061 15.1677 11.7112 15.0327L9.52066 12.8536C9.3254 12.6583 9.3254 12.3417 9.52066 12.1464C9.69423 11.9729 9.96365 11.9536 10.1585 12.0886L11.5 13.419L11.5 10C11.5 9.72386 11.7239 9.5 12 9.5C12.2455 9.5 12.4496 9.67688 12.4919 9.91012ZM14.4945 2.85074L14.5 3L14.5 9C14.5 9.27614 14.2761 9.5 14 9.5C13.7545 9.5 13.5504 9.32312 13.5081 9.08988L13.5 3C13.5 2.48716 13.114 2.06449 12.6166 2.00673L12.5 2L3.5 2C2.98716 2 2.56449 2.38604 2.50673 2.88338L2.5 3L2.5 13C2.5 13.5128 2.88604 13.9355 3.38338 13.9933L3.5 14L8 14C8.27614 14 8.5 14.2239 8.5 14.5C8.5 14.7455 8.32312 14.9496 8.08988 14.9919L3.5 15C2.44564 15 1.58183 14.1841 1.50549 13.1493L1.5 13L1.5 3C1.5 1.94564 2.31588 1.08183 3.35074 1.00549L3.5 1L12.5 1C13.5544 1 14.4182 1.81588 14.4945 2.85074ZM8.485 8.49C8.725 8.63667 8.88 8.845 8.95 9.115C8.97 9.26946 8.90917 9.40112 8.7675 9.51C8.52917 9.61849 8.35167 9.58516 8.235 9.41C8.18167 9.26 8.11167 9.19833 8 9.115C7.88833 9.03167 7.755 9.035 7.595 9.035C7.45833 9.035 7.3475 9.06667 7.2625 9.13C7.1775 9.19333 7.135 9.275 7.135 9.375C7.135 9.45167 7.16417 9.51667 7.2225 9.57C7.28083 9.62333 7.35333 9.66667 7.44 9.7C7.52667 9.73333 7.65 9.775 7.81 9.825C8.05667 9.89833 8.25667 9.97083 8.41 10.0425C8.56333 10.1142 8.69667 10.2217 8.81 10.365C8.92333 10.5083 8.98 10.695 8.98 10.925C8.98 11.195 8.90917 11.415 8.7675 11.585C8.62583 11.755 8.44833 11.8775 8.235 11.9525C8.02167 12.0275 7.80333 12.065 7.58 12.065C7.24333 12.065 6.935 11.9875 6.655 11.8325C6.375 11.6775 6.19892 11.5108 6.10559 11.2175C6.06978 11.0058 6.13426 10.8533 6.29901 10.76C6.54614 10.62 6.66711 10.7675 6.7811 10.8787C6.89509 10.9898 6.96583 11.0667 7.1075 11.16C7.24917 11.2533 7.41667 11.3 7.61 11.3C7.75333 11.3 7.86917 11.2725 7.9575 11.2175C8.04583 11.1625 8.09 11.0817 8.09 10.975C8.09 10.8883 8.06 10.8167 8 10.76C7.94 10.7033 7.865 10.6567 7.775 10.62C7.685 10.5833 7.55833 10.5417 7.395 10.495C7.155 10.425 6.95917 10.355 6.8075 10.285C6.65583 10.215 6.525 10.1092 6.415 9.9675C6.305 9.82583 6.25 9.64 6.25 9.41C6.25 9.15667 6.31583 8.945 6.4475 8.775C6.57917 8.605 6.75083 8.47833 6.9625 8.395C7.17417 8.31167 7.40167 8.27 7.645 8.27C7.965 8.27 8.245 8.34333 8.485 8.49ZM5.8 8.835L4.62673 11.7881C4.50018 11.994 4.32852 12.0647 4.11176 12C3.89499 11.9353 3.81183 11.7739 3.86226 11.5158L4.845 9.08L3.56838 9.08C3.3452 9.03931 3.23361 8.90897 3.23361 8.68897C3.23361 8.46898 3.3452 8.35099 3.56838 8.335L5.3 8.335C5.57614 8.335 5.8 8.55886 5.8 8.835ZM5.88277 3.72264L5.88277 6.66939C5.84435 6.89562 5.69912 7.00874 5.44708 7.00874C5.19503 7.00874 5.05526 6.89562 5.02777 6.66939L5.03287 5.48L3.855 5.48L3.855 6.61676C3.83589 6.87225 3.6981 7 3.44165 7C3.18519 7 3.03797 6.87225 3 6.61676L2.99488 3.72264C3.03372 3.45462 3.17256 3.32061 3.41141 3.32061C3.65027 3.32061 3.79643 3.45462 3.8499 3.72264L3.855 4.725L5.03287 4.725L5.02777 3.72264C5.07883 3.45462 5.2203 3.32061 5.45218 3.32061C5.68406 3.32061 5.82759 3.45462 5.88277 3.72264ZM10.0738 3.70811L9.44064 6.75871C9.37125 6.91957 9.22583 7 9.00437 7C8.78291 7 8.62947 6.91957 8.54404 6.75871L8.19367 5.1C7.89725 6.10028 7.72905 6.65318 7.68907 6.75871C7.6291 6.917 7.54941 7 7.31294 7C7.15529 7 7.02489 6.91957 6.92174 6.75871L6.10583 3.77336C6.07313 3.53286 6.17794 3.38841 6.42026 3.34C6.66257 3.29159 6.82974 3.39963 6.92174 3.6641L7.38472 5.47327L7.84722 3.53362C7.91419 3.39161 8.02967 3.32061 8.19367 3.32061C8.35767 3.32061 8.47446 3.39161 8.54404 3.53362L9.00437 5.47327L9.28627 3.585C9.37364 3.34219 9.53593 3.25406 9.77313 3.32061C10.0103 3.38717 10.1105 3.51633 10.0738 3.70811ZM12.555 3.4925C12.7817 3.59417 12.9558 3.73833 13.0775 3.925C13.1992 4.11167 13.26 4.33 13.26 4.58C13.26 4.83 13.1992 5.04833 13.0775 5.235C12.9558 5.42167 12.7817 5.56583 12.555 5.6675C12.3283 5.76917 12.0617 5.82 11.755 5.82L11.285 5.82L11.285 6.6204C11.285 6.87347 11.1542 7 10.8927 7C10.6312 7 10.477 6.87347 10.43 6.6204L10.43 3.84C10.43 3.56386 10.6539 3.34 10.93 3.34L11.755 3.34C12.0617 3.34 12.3283 3.39083 12.555 3.4925ZM11.285 4.06L11.285 5.1L11.66 5.1C11.8667 5.1 12.035 5.06 12.165 4.98C12.295 4.9 12.36 4.76667 12.36 4.58C12.36 4.39667 12.2942 4.26417 12.1625 4.1825C12.0308 4.10083 11.8633 4.06 11.66 4.06L11.285 4.06Z" fill-rule="evenodd" stroke="rgb(0,0,0)" stroke-opacity="0" stroke-width="1" />
</svg>
