<svg viewBox="0 0 16 16" xmlns="http://www.w3.org/2000/svg" xmlns:xlink="http://www.w3.org/1999/xlink" width="16.000000" height="16.000000" fill="none">
	<rect id="操作图标/Manifest视图" width="16.000000" height="16.000000" x="0.000000" y="0.000000" />
	<path id="形状结合" d="M13.8828 8C14.4541 8 14.936 8.4254 15.0068 8.99228L15.7587 15.0077C15.8192 15.4915 15.4761 15.9327 14.9923 15.9932C14.956 15.9977 14.9194 16 14.8828 16C14.3115 16 13.8296 15.5746 13.7587 15.0077L13.334 11.612L12.2767 14.0809C12.0561 14.5956 11.572 14.9432 11.0216 14.9937L10.8828 15C10.2761 15 9.72784 14.6385 9.48886 14.0809L8.43 11.612L8.00682 15.0077C7.93596 15.5746 7.45407 16 6.88278 16C6.39524 16 6 15.6048 6 15.1172C6 15.0806 6.00228 15.044 6.00682 15.0077L6.75875 8.99228C6.82961 8.4254 7.31149 8 7.88278 8C8.48944 8 9.03773 8.36154 9.2767 8.91914L10.882 12.666L12.4889 8.91914C12.7169 8.38715 13.3096 8.03135 13.8828 8L13.7733 8.00682C13.8096 8.00228 13.8462 8 13.8828 8ZM13 1C14.1046 1 15 1.89543 15 3L15.0004 7.31615C14.7061 7.13481 14.3652 7.02341 14.0021 7.0033L14 3C14 2.48716 13.614 2.06449 13.1166 2.00673L13 2L2 2C1.48716 2 1.06449 2.38604 1.00673 2.88338L1 3L1 13C1 13.5128 1.38604 13.9355 1.88338 13.9933L2 14L5.124 14L5.061 14.509L5.01454 14.8837L5.00364 15.0002L2 15C0.895431 15 0 14.1046 0 13L0 3C0 1.89543 0.895431 1 2 1L13 1Z" fill="rgb(25,25,25)" fill-rule="nonzero" />
	<path id="形状结合" d="M13.8828 8L13.7733 8.00682C13.8096 8.00228 13.8462 8 13.8828 8C14.4541 8 14.936 8.4254 15.0068 8.99228L15.7587 15.0077C15.8192 15.4915 15.4761 15.9327 14.9923 15.9932C14.956 15.9977 14.9194 16 14.8828 16C14.3115 16 13.8296 15.5746 13.7587 15.0077L13.334 11.612L12.2767 14.0809C12.0561 14.5956 11.572 14.9432 11.0216 14.9937L10.8828 15C10.2761 15 9.72784 14.6385 9.48886 14.0809L8.43 11.612L8.00682 15.0077C7.93596 15.5746 7.45407 16 6.88278 16C6.39524 16 6 15.6048 6 15.1172C6 15.0806 6.00228 15.044 6.00682 15.0077L6.75875 8.99228C6.82961 8.4254 7.31149 8 7.88278 8C8.48944 8 9.03773 8.36154 9.2767 8.91914L10.882 12.666L12.4889 8.91914C12.7169 8.38715 13.3096 8.03135 13.8828 8M15 3L15.0004 7.31615C14.7061 7.13481 14.3652 7.02341 14.0021 7.0033L14 3C14 2.48716 13.614 2.06449 13.1166 2.00673L13 2L2 2C1.48716 2 1.06449 2.38604 1.00673 2.88338L1 3L1 13C1 13.5128 1.38604 13.9355 1.88338 13.9933L2 14L5.124 14L5.061 14.509L5.01454 14.8837L5.00364 15.0002L2 15C0.895431 15 0 14.1046 0 13L0 3C0 1.89543 0.895431 1 2 1L13 1C14.1046 1 15 1.89543 15 3Z" fill-rule="nonzero" stroke="rgb(0,0,0)" stroke-opacity="0" stroke-width="1" />
</svg>
