<svg viewBox="0 0 16 16" xmlns="http://www.w3.org/2000/svg" xmlns:xlink="http://www.w3.org/1999/xlink" width="16.000000" height="16.000000" fill="none">
	<rect id="操作图标/里程碑" width="16.000000" height="16.000000" x="0.000000" y="0.000000" />
	<path id="形状结合" d="M2.5 0.5C2.77614 0.5 3 0.723858 3 1L3 1.5L14 1.5L11 6.5L14 11.5L3 11.5L3 15C3 15.2761 2.77614 15.5 2.5 15.5C2.22386 15.5 2 15.2761 2 15L2 1C2 0.723858 2.22386 0.5 2.5 0.5ZM12.233 2.5L3 2.5L3 10.5L12.234 10.5L9.83381 6.5L12.233 2.5Z" fill="rgb(25,25,25)" fill-rule="evenodd" />
	<path id="形状结合" d="M3 1L3 1.5L14 1.5L11 6.5L14 11.5L3 11.5L3 15C3 15.2761 2.77614 15.5 2.5 15.5C2.22386 15.5 2 15.2761 2 15L2 1C2 0.723858 2.22386 0.5 2.5 0.5C2.77614 0.5 3 0.723858 3 1ZM3 2.5L3 10.5L12.234 10.5L9.83381 6.5L12.233 2.5L3 2.5Z" fill-rule="evenodd" stroke="rgb(0,0,0)" stroke-opacity="0" stroke-width="1" />
</svg>
