<svg viewBox="0 0 16 16" xmlns="http://www.w3.org/2000/svg" xmlns:xlink="http://www.w3.org/1999/xlink" width="16.000000" height="16.000000" fill="none">
	<rect id="操作图标/mock中心(Mork-Center)" width="16.000000" height="16.000000" x="0.000000" y="0.000000" />
	<path id="path" d="M8.0002 0.100098C7.2002 0.100098 6.5002 0.800098 6.5002 1.6001C6.5002 2.3001 6.9002 2.8001 7.5002 3.0001L7.5002 8.8001C7.1002 8.8001 6.6002 8.8001 6.2002 8.7001L6.2002 3.9001C6.2002 3.8001 6.2002 3.7001 6.2002 3.6001C6.2002 3.5001 6.2002 3.4001 6.1002 3.3001C6.1002 3.3001 6.0002 3.2001 6.0002 3.1001C5.9002 3.0001 5.8002 3.0001 5.8002 2.9001C5.7002 2.8001 5.6002 2.8001 5.5002 2.7001C5.4002 2.7001 5.3002 2.6001 5.3002 2.6001C5.2002 2.5001 5.10019 2.5001 5.0002 2.5001C4.9002 2.5001 4.8002 2.5001 4.7002 2.5001L4.1002 2.5001C3.9002 1.9001 3.3002 1.5001 2.7002 1.5001C1.9002 1.5001 1.2002 2.2001 1.2002 3.0001C1.2002 3.8001 1.9002 4.5001 2.7002 4.5001C3.4002 4.5001 3.9002 4.1001 4.1002 3.5001L4.7002 3.5001C4.8002 3.5001 4.8002 3.5001 4.9002 3.5001C5.0002 3.5001 5.0002 3.5001 5.10019 3.6001C5.10019 3.7001 5.2002 3.7001 5.2002 3.8001C5.2002 3.9001 5.2002 3.9001 5.2002 4.0001L5.2002 8.5001C4.8002 8.4001 4.4002 8.2001 4.0002 8.1001C3.5002 7.9001 3.2002 7.7001 2.9002 7.4001C2.7002 7.2001 2.6002 7.1001 2.6002 6.9001L2.6002 6.7001C2.6002 6.6001 2.7002 6.5001 2.8002 6.4001C3.1002 6.2001 3.5002 6.0001 4.1002 5.8001C4.3002 5.7001 4.4002 5.5001 4.4002 5.3001C4.4002 5.2001 4.4002 5.2001 4.4002 5.1001C4.3002 4.9001 4.0002 4.8001 3.8002 4.8001C3.1002 5.1001 2.6002 5.3001 2.2002 5.6001C2.0002 5.9001 1.8002 6.2001 1.7002 6.5001C1.7002 6.6001 1.7002 6.8001 1.7002 6.9001L1.7002 13.2001C1.7002 13.3001 1.7002 13.3001 1.7002 13.4001C1.8002 13.7001 2.0002 14.1001 2.3002 14.3001C2.6002 14.8001 3.0002 15.0001 3.7002 15.3001C4.3002 15.5001 4.9002 15.7001 5.7002 15.8001C6.4002 15.9001 7.2002 16.0001 8.0002 16.0001C8.8002 16.0001 9.6002 15.9001 10.4002 15.8001C11.1002 15.7001 11.8002 15.5001 12.4002 15.3001C13.0002 15.1001 13.5002 14.8001 13.8002 14.5001C14.1002 14.2001 14.3002 13.9001 14.4002 13.6001C14.4002 13.5001 14.4002 13.5001 14.4002 13.4001L14.4002 13.3001L14.4002 10.0001L14.4002 7.0001C14.4002 6.8001 14.4002 6.5001 14.3002 6.3001C14.2002 6.1001 14.1002 5.8001 13.9002 5.6001C13.6002 5.3001 13.1002 5.0001 12.5002 4.8001C12.2002 4.7001 12.0002 4.8001 11.9002 5.1001C11.9002 5.2001 11.9002 5.2001 11.9002 5.3001C11.9002 5.5001 12.0002 5.7001 12.2002 5.8001C12.6002 6.0001 13.0002 6.2001 13.2002 6.4001C13.3002 6.5001 13.3002 6.6001 13.4002 6.6001C13.5002 6.6001 13.4002 6.8001 13.4002 6.9001C13.4002 7.1001 13.3002 7.2001 13.1002 7.4001C12.9002 7.6001 12.5002 7.9001 12.0002 8.0001C11.6002 8.1001 11.2002 8.3001 10.8002 8.4001L10.8002 3.9001C10.8002 3.8001 10.8002 3.8001 10.8002 3.7001C10.8002 3.6001 10.9002 3.6001 10.9002 3.5001C11.0002 3.5001 11.0002 3.4001 11.1002 3.4001C11.2002 3.4001 11.2002 3.4001 11.3002 3.4001L11.9002 3.4001C12.1002 4.0001 12.7002 4.4001 13.3002 4.4001C14.1002 4.4001 14.8002 3.7001 14.8002 2.9001C14.8002 2.1001 14.1002 1.4001 13.3002 1.4001C12.6002 1.4001 12.1002 1.8001 11.9002 2.4001L11.3002 2.4001C11.2002 2.4001 11.1002 2.4001 11.0002 2.4001C10.9002 2.4001 10.8002 2.4001 10.7002 2.5001C10.6002 2.5001 10.5002 2.6001 10.5002 2.6001C10.4002 2.7001 10.3002 2.7001 10.3002 2.8001C10.1002 3.0001 10.1002 3.0001 10.0002 3.1001C10.0002 3.2001 9.9002 3.3001 9.9002 3.4001C9.9002 3.5001 9.80019 3.6001 9.80019 3.7001C9.80019 3.8001 9.80019 3.9001 9.80019 4.0001L9.80019 8.7001C9.4002 8.7001 8.9002 8.7001 8.5002 8.7001L8.5002 3.0001C9.1002 2.8001 9.5002 2.2001 9.5002 1.6001C9.5002 0.700098 8.8002 0.100098 8.0002 0.100098ZM7.5002 1.6001C7.5002 1.3001 7.7002 1.1001 8.0002 1.1001C8.3002 1.1001 8.5002 1.3001 8.5002 1.6001C8.5002 1.8001 8.3002 2.0001 8.0002 2.1001C7.7002 2.0001 7.5002 1.8001 7.5002 1.6001ZM2.2002 2.9001C2.2002 2.6001 2.4002 2.4001 2.7002 2.4001C3.0002 2.4001 3.2002 2.6001 3.2002 2.9001C3.2002 3.2001 3.0002 3.4001 2.7002 3.4001C2.4002 3.4001 2.2002 3.2001 2.2002 2.9001ZM13.3002 2.4001C13.6002 2.4001 13.8002 2.6001 13.8002 2.9001C13.8002 3.2001 13.6002 3.4001 13.3002 3.4001C13.0002 3.4001 12.8002 3.2001 12.8002 2.9001C12.8002 2.7001 13.0002 2.4001 13.3002 2.4001ZM2.6002 8.5001C2.9002 8.7001 3.2002 8.9001 3.7002 9.0001C4.3002 9.2001 4.9002 9.4001 5.7002 9.5001C6.4002 9.7001 7.2002 9.7001 8.0002 9.7001C8.8002 9.7001 9.6002 9.6001 10.4002 9.5001C11.1002 9.4001 11.8002 9.2001 12.4002 9.0001C12.8002 8.8001 13.2002 8.7001 13.4002 8.5001L13.4002 10.0001C13.4002 10.2001 13.3002 10.4001 13.1002 10.5001C12.9002 10.7001 12.5002 11.0001 12.0002 11.2001C11.5002 11.4001 10.9002 11.6001 10.2002 11.7001C9.50019 11.8001 8.80019 11.9001 8.00019 11.9001C7.20019 11.9001 6.50019 11.8001 5.80019 11.7001C5.10019 11.6001 4.50019 11.4001 4.00019 11.2001C3.50019 11.0001 3.10019 10.8001 2.90019 10.5001C2.70019 10.3001 2.60019 10.1001 2.60019 10.0001L2.6002 8.5001ZM2.6002 13.1001L2.6002 11.6001C2.9002 11.8001 3.2002 12.0001 3.7002 12.1001C4.3002 12.3001 4.9002 12.5001 5.7002 12.6001C6.5002 12.7001 7.3002 12.8001 8.1002 12.8001C8.9002 12.8001 9.7002 12.7001 10.5002 12.6001C11.2002 12.5001 11.9002 12.3001 12.5002 12.1001C12.9002 11.9001 13.3002 11.8001 13.5002 11.6001L13.5002 13.1001C13.5002 13.3001 13.4002 13.5001 13.2002 13.7001C13.0002 13.9001 12.6002 14.1001 12.1002 14.3001C11.6002 14.5001 11.0002 14.7001 10.3002 14.8001C9.5002 14.9001 8.8002 15.0001 8.0002 15.0001C7.2002 15.0001 6.5002 14.9001 5.8002 14.8001C5.1002 14.7001 4.5002 14.5001 4.0002 14.3001C3.5002 14.1001 3.1002 13.9001 2.9002 13.7001C2.7002 13.5001 2.6002 13.3001 2.6002 13.1001Z" fill="rgb(25,25,25)" fill-rule="evenodd" />
</svg>
