<svg viewBox="0 0 16 16" xmlns="http://www.w3.org/2000/svg" xmlns:xlink="http://www.w3.org/1999/xlink" width="16.000000" height="16.000000" fill="none">
	<rect id="操作图标/上移" width="16.000000" height="16.000000" x="0.000000" y="0.000000" />
	<path id="形状结合" d="M8.00004 14C7.7239 14 7.50004 13.7761 7.50004 13.5L7.50004 3.71735L3.41752 7.80113C3.22226 7.99639 2.90567 7.99639 2.71041 7.80113C2.51515 7.60586 2.51515 7.28928 2.71041 7.09402L7.58856 2.21587C7.6788 2.08544 7.82944 2 8.00004 2C8.11104 2.01331 8.29047 2.06762 8.37441 2.15156L13.317 7.09402C13.5123 7.28928 13.5123 7.60586 13.317 7.80112C13.1217 7.99639 12.8052 7.99639 12.6099 7.80112L8.50004 3.69252L8.50004 13.5C8.50004 13.7761 8.27618 14 8.00004 14Z" fill="rgb(25,25,25)" fill-rule="evenodd" />
</svg>
