<svg viewBox="0 0 16 16" xmlns="http://www.w3.org/2000/svg" xmlns:xlink="http://www.w3.org/1999/xlink" width="16.000000" height="16.000000" fill="none">
	<rect id="操作图标/下一步" width="16.000000" height="16.000000" x="0.000000" y="0.000000" />
	<path id="形状结合" d="M0.146447 0.146447C0.320013 -0.0271196 0.589437 -0.0464048 0.784306 0.0885911L4.5 3.793L8.14645 0.146447C8.32001 -0.0271196 8.58944 -0.0464048 8.78431 0.0885911C8.95787 0.262157 9.0464 0.589437 8.91141 0.784306L4.85355 4.85355C4.67999 5.02712 4.41056 5.0464 4.21569 4.91141L0.146447 0.853553C-0.0488155 0.658291 -0.0488155 0.341709 0.146447 0.146447Z" fill="rgb(25,25,25)" fill-rule="evenodd" transform="matrix(0,-1,1,0,5.5,12.5)" />
	<path id="形状结合" d="M0.784306 0.0885911L4.5 3.793L8.14645 0.146447C8.32001 -0.0271196 8.58944 -0.0464048 8.78431 0.0885911C8.95787 0.262157 9.0464 0.589437 8.91141 0.784306L4.85355 4.85355C4.67999 5.02712 4.41056 5.0464 4.21569 4.91141L0.146447 0.853553C-0.0488155 0.658291 -0.0488155 0.341709 0.146447 0.146447C0.320013 -0.0271196 0.589437 -0.0464048 0.784306 0.0885911Z" fill-rule="evenodd" stroke="rgb(0,0,0)" stroke-opacity="0" stroke-width="1" transform="matrix(0,-1,1,0,5.5,12.5)" />
</svg>
