<svg viewBox="0 0 16 16" xmlns="http://www.w3.org/2000/svg" xmlns:xlink="http://www.w3.org/1999/xlink" width="16.000000" height="16.000000" fill="none">
	<rect id="操作图标/下一个" width="16.000000" height="16.000000" x="0.000000" y="0.000000" />
	<path id="形状结合" d="M6.74671 0.146389C6.92422 0.32383 6.94036 0.601496 6.79512 0.797159L1.04882 6.54886C0.994576 6.60308 0.985536 6.68537 1.0217 6.74895L6.74671 12.4801C6.94197 12.6753 6.94197 12.9918 6.74671 13.1869C6.5692 13.3644 6.29142 13.3805 6.09568 13.2353L0.341709 7.4913C-0.0871022 7.06266 -0.112326 6.38336 0.266036 5.92523L6.0396 0.146389C6.23487 -0.0487962 6.55145 -0.0487962 6.74671 0.146389ZM10.5192 0.146389C10.6967 0.32383 10.7129 0.601496 10.5676 0.797159L4.82133 6.54886C4.76709 6.60308 4.75805 6.68537 4.79421 6.74895L10.5192 12.4801C10.7145 12.6753 10.7145 12.9918 10.5192 13.1869C10.3417 13.3644 10.0639 13.3805 9.8682 13.2353L4.11422 7.4913C3.68541 7.06266 3.66019 6.38336 4.03855 5.92523L9.81212 0.146389C10.0074 -0.0487962 10.324 -0.0487962 10.5192 0.146389Z" fill="rgb(25,25,25)" fill-rule="evenodd" transform="matrix(0,-1,-1,0,14.6694,13.3331)" />
	<path id="形状结合" d="M6.79512 0.797159L1.04882 6.54886C0.994576 6.60308 0.985536 6.68537 1.0217 6.74895L6.74671 12.4801C6.94197 12.6753 6.94197 12.9918 6.74671 13.1869C6.5692 13.3644 6.29142 13.3805 6.09568 13.2353L0.341709 7.4913C-0.0871022 7.06266 -0.112326 6.38336 0.266036 5.92523L6.0396 0.146389C6.23487 -0.0487962 6.55145 -0.0487962 6.74671 0.146389C6.92422 0.32383 6.94036 0.601496 6.79512 0.797159ZM10.5676 0.797159L4.82133 6.54886C4.76709 6.60308 4.75805 6.68537 4.79421 6.74895L10.5192 12.4801C10.7145 12.6753 10.7145 12.9918 10.5192 13.1869C10.3417 13.3644 10.0639 13.3805 9.8682 13.2353L4.11422 7.4913C3.68541 7.06266 3.66019 6.38336 4.03855 5.92523L9.81212 0.146389C10.0074 -0.0487962 10.324 -0.0487962 10.5192 0.146389C10.6967 0.32383 10.7129 0.601496 10.5676 0.797159Z" fill-rule="evenodd" stroke="rgb(0,0,0)" stroke-opacity="0" stroke-width="1" transform="matrix(0,-1,-1,0,14.6694,13.3331)" />
</svg>
