<svg viewBox="0 0 16 16" xmlns="http://www.w3.org/2000/svg" xmlns:xlink="http://www.w3.org/1999/xlink" width="16.000000" height="16.000000" fill="none">
	<rect id="操作图标/无认证" width="16.000000" height="16.000000" x="0.000000" y="0.000000" />
	<path id="形状结合" d="M7.72267 0.583975C7.89062 0.472008 8.10942 0.472008 8.27737 0.583975C9.98571 1.72287 12.0647 2.42195 14.1066 2.49308L14.5087 2.50008C14.7923 2.50501 15.015 2.74456 14.9992 3.02773L14.7568 7.3923C14.5876 10.4379 12.7994 13.1593 10.0712 14.5234L8.22362 15.4472C8.08286 15.5176 7.91717 15.5176 7.77641 15.4472L5.92886 14.5234C3.2006 13.1593 1.41246 10.4379 1.24326 7.3923L1.00079 3.02773C0.984863 2.74113 1.21297 2.5 1.50002 2.5C3.68348 2.5 5.90591 1.79514 7.72267 0.583975ZM7.99902 1.596L7.85621 1.68897C6.17403 2.73228 4.26246 3.34443 2.29127 3.47402L2.02802 3.487L2.24172 7.33683C2.38587 9.93145 3.86167 12.2594 6.13003 13.5003L6.37607 13.629L7.99902 14.44L9.62396 13.629C11.9482 12.4669 13.4992 10.1883 13.7378 7.61377L13.7583 7.33683L13.971 3.486L13.6866 3.47254C11.7211 3.33969 9.8173 2.7272 8.14237 1.68807L7.99902 1.596ZM6.5858 5.87868L7.99931 7.29219L9.41423 5.87868C9.60949 5.68342 9.92607 5.68342 10.1213 5.87868C10.3166 6.07394 10.3166 6.39052 10.1213 6.58579L8.70642 7.99929L10.1213 9.41421C10.3166 9.60948 10.3166 9.92606 10.1213 10.1213C9.92607 10.3166 9.60949 10.3166 9.41423 10.1213L7.99931 8.7064L6.5858 10.1213C6.39054 10.3166 6.07396 10.3166 5.8787 10.1213C5.68343 9.92606 5.68343 9.60948 5.8787 9.41421L7.2922 7.99929L5.8787 6.58579C5.68343 6.39052 5.68343 6.07394 5.8787 5.87868C6.07396 5.68342 6.39054 5.68342 6.5858 5.87868Z" fill="rgb(25,25,25)" fill-rule="nonzero" />
	<path id="形状结合" d="M8.27737 0.583975C9.98571 1.72287 12.0647 2.42195 14.1066 2.49308L14.5087 2.50008C14.7923 2.50501 15.015 2.74456 14.9992 3.02773L14.7568 7.3923C14.5876 10.4379 12.7994 13.1593 10.0712 14.5234L8.22362 15.4472C8.08286 15.5176 7.91717 15.5176 7.77641 15.4472L5.92886 14.5234C3.2006 13.1593 1.41246 10.4379 1.24326 7.3923L1.00079 3.02773C0.984863 2.74113 1.21297 2.5 1.50002 2.5C3.68348 2.5 5.90591 1.79514 7.72267 0.583975C7.89062 0.472008 8.10942 0.472008 8.27737 0.583975ZM7.85621 1.68897C6.17403 2.73228 4.26246 3.34443 2.29127 3.47402L2.02802 3.487L2.24172 7.33683C2.38587 9.93145 3.86167 12.2594 6.13003 13.5003L6.37607 13.629L7.99902 14.44L9.62396 13.629C11.9482 12.4669 13.4992 10.1883 13.7378 7.61377L13.7583 7.33683L13.971 3.486L13.6866 3.47254C11.7211 3.33969 9.8173 2.7272 8.14237 1.68807L7.99902 1.596L7.85621 1.68897ZM7.99931 7.29219L9.41423 5.87868C9.60949 5.68342 9.92607 5.68342 10.1213 5.87868C10.3166 6.07394 10.3166 6.39052 10.1213 6.58579L8.70642 7.99929L10.1213 9.41421C10.3166 9.60948 10.3166 9.92606 10.1213 10.1213C9.92607 10.3166 9.60949 10.3166 9.41423 10.1213L7.99931 8.7064L6.5858 10.1213C6.39054 10.3166 6.07396 10.3166 5.8787 10.1213C5.68343 9.92606 5.68343 9.60948 5.8787 9.41421L7.2922 7.99929L5.8787 6.58579C5.68343 6.39052 5.68343 6.07394 5.8787 5.87868C6.07396 5.68342 6.39054 5.68342 6.5858 5.87868L7.99931 7.29219Z" fill-rule="nonzero" stroke="rgb(0,0,0)" stroke-opacity="0" stroke-width="1" />
</svg>
