<svg viewBox="0 0 16 16" xmlns="http://www.w3.org/2000/svg" xmlns:xlink="http://www.w3.org/1999/xlink" width="16.000000" height="16.000000" fill="none">
	<rect id="操作图标/今天处理" width="16.000000" height="16.000000" x="0.000000" y="0.000000" />
	<path id="形状结合" d="M10.6668 0.833374C8.18155 0.833374 6.16683 2.84809 6.16683 5.33337L6.17526 5.61076C6.20329 6.07079 6.3009 6.51864 6.46302 6.94204L6.52716 7.09804L0.979943 12.6465C0.784681 12.8418 0.784681 13.1583 0.979943 13.3536L2.64661 15.0203C2.84148 15.1553 3.18015 15.1938 3.35372 15.0203L8.90116 9.47204L9.05816 9.53718C9.56624 9.73173 10.1095 9.83337 10.6668 9.83337C13.1521 9.83337 15.1668 7.81865 15.1668 5.33337C15.1668 4.59031 14.9861 3.87215 14.6454 3.22915C14.4652 2.99862 14.0663 2.89348 13.8501 3.10969L11.6662 5.29204L10.7072 4.33304L12.8905 2.15012C13.1283 1.9123 13.0682 1.51223 12.7711 1.35476C12.1281 1.01407 11.4099 0.833374 10.6668 0.833374ZM10.9135 1.84192C11.1587 1.85896 11.3989 1.90135 11.6315 1.96784L9.64661 3.97982C9.45135 4.17508 9.45135 4.49167 9.64661 4.68693L11.3133 6.35359C11.5081 6.48859 11.8468 6.52716 12.0204 6.35359L14.0252 4.34804C14.1138 4.65807 14.1668 5.00261 14.1668 5.33337C14.1668 7.26637 12.5998 8.83337 10.6668 8.83337C10.088 8.83337 9.53042 8.69308 9.03079 8.42836C8.85585 8.37385 8.57622 8.38354 8.44314 8.51662L2.99916 13.959L2.04016 13L7.48358 7.55706C7.63884 7.40181 7.67464 7.16343 7.57185 6.96942C7.30712 6.46978 7.16683 5.91222 7.16683 5.33337C7.16683 3.40038 8.73384 1.83337 10.6668 1.83337L10.9135 1.84192Z" fill="rgb(25,25,25)" fill-rule="evenodd" />
	<path id="形状结合" d="M6.16683 5.33337L6.17526 5.61076C6.20329 6.07079 6.3009 6.51864 6.46302 6.94204L6.52716 7.09804L0.979943 12.6465C0.784681 12.8418 0.784681 13.1583 0.979943 13.3536L2.64661 15.0203C2.84148 15.1553 3.18015 15.1938 3.35372 15.0203L8.90116 9.47204L9.05816 9.53718C9.56624 9.73173 10.1095 9.83337 10.6668 9.83337C13.1521 9.83337 15.1668 7.81865 15.1668 5.33337C15.1668 4.59031 14.9861 3.87215 14.6454 3.22915C14.4652 2.99862 14.0663 2.89348 13.8501 3.10969L11.6662 5.29204L10.7072 4.33304L12.8905 2.15012C13.1283 1.9123 13.0682 1.51223 12.7711 1.35476C12.1281 1.01407 11.4099 0.833374 10.6668 0.833374C8.18155 0.833374 6.16683 2.84809 6.16683 5.33337ZM11.6315 1.96784L9.64661 3.97982C9.45135 4.17508 9.45135 4.49167 9.64661 4.68693L11.3133 6.35359C11.5081 6.48859 11.8468 6.52716 12.0204 6.35359L14.0252 4.34804C14.1138 4.65807 14.1668 5.00261 14.1668 5.33337C14.1668 7.26637 12.5998 8.83337 10.6668 8.83337C10.088 8.83337 9.53042 8.69308 9.03079 8.42836C8.85585 8.37385 8.57622 8.38354 8.44314 8.51662L2.99916 13.959L2.04016 13L7.48358 7.55706C7.63884 7.40181 7.67464 7.16343 7.57185 6.96942C7.30712 6.46978 7.16683 5.91222 7.16683 5.33337C7.16683 3.40038 8.73384 1.83337 10.6668 1.83337L10.9135 1.84192C11.1587 1.85896 11.3989 1.90135 11.6315 1.96784Z" fill-rule="evenodd" stroke="rgb(0,0,0)" stroke-opacity="0" stroke-width="1" />
</svg>
