<svg viewBox="0 0 16 16" xmlns="http://www.w3.org/2000/svg" xmlns:xlink="http://www.w3.org/1999/xlink" width="16.000000" height="16.000000" fill="none">
	<rect id="操作图标/评价" width="16.000000" height="16.000000" x="0.000000" y="0.000000" />
	<path id="emoji" d="M8 0.5C12.1421 0.5 15.5 3.85786 15.5 8C15.5 12.1421 12.1421 15.5 8 15.5C3.85786 15.5 0.5 12.1421 0.5 8C0.5 3.85786 3.85786 0.5 8 0.5ZM8 1.5C4.41015 1.5 1.5 4.41015 1.5 8C1.5 11.5899 4.41015 14.5 8 14.5C11.5899 14.5 14.5 11.5899 14.5 8C14.5 4.41015 11.5899 1.5 8 1.5ZM6.02115 10.1171C7.18978 11.2919 9.09022 11.2919 10.2589 10.1171C10.4536 9.92135 10.7702 9.92051 10.966 10.1153C11.1617 10.31 11.1626 10.6266 10.9678 10.8224C9.40824 12.3902 6.87176 12.3902 5.31219 10.8224C5.11744 10.6266 5.11827 10.31 5.31404 10.1153C5.50982 9.92051 5.8264 9.92135 6.02115 10.1171ZM5.08333 6.09986C5.68164 6.09986 6.16667 6.58488 6.16667 7.18319C6.16667 7.7815 5.68164 8.26653 5.08333 8.26653C4.48502 8.26653 4 7.7815 4 7.18319C4 6.58488 4.48502 6.09986 5.08333 6.09986ZM10.9167 6.09986C11.515 6.09986 12 6.58488 12 7.18319C12 7.7815 11.515 8.26653 10.9167 8.26653C10.3184 8.26653 9.83333 7.7815 9.83333 7.18319C9.83333 6.58488 10.3184 6.09986 10.9167 6.09986Z" fill="rgb(25,25,25)" fill-rule="nonzero" />
</svg>
