<svg viewBox="0 0 16 16" xmlns="http://www.w3.org/2000/svg" xmlns:xlink="http://www.w3.org/1999/xlink" width="16.000000" height="16.000000" fill="none">
	<rect id="操作图标/搜索" width="16.000000" height="16.000000" x="0.000000" y="0.000000" />
	<path id="形状结合" d="M7.36402 1C10.8788 1 13.728 3.84927 13.728 7.36402C13.728 8.99338 13.1157 10.4797 12.1086 11.6055L14.5982 14.0947C14.8053 14.3018 14.8053 14.6376 14.5982 14.8447C14.4141 15.0288 14.1283 15.0492 13.9216 14.906L11.3389 12.3344C10.2498 13.2065 8.8678 13.728 7.36402 13.728C3.84927 13.728 1 10.8788 1 7.36402C1 3.84927 3.84927 1 7.36402 1ZM7.36402 2.06067C4.43506 2.06067 2.06067 4.43506 2.06067 7.36402C2.06067 10.293 4.43506 12.6674 7.36402 12.6674C10.293 12.6674 12.6674 10.293 12.6674 7.36402C12.6674 4.43506 10.293 2.06067 7.36402 2.06067Z" fill="rgb(25,25,25)" fill-rule="nonzero" />
	<path id="形状结合" d="M13.728 7.36402C13.728 8.99338 13.1157 10.4797 12.1086 11.6055L14.5982 14.0947C14.8053 14.3018 14.8053 14.6376 14.5982 14.8447C14.4141 15.0288 14.1283 15.0492 13.9216 14.906L11.3389 12.3344C10.2498 13.2065 8.8678 13.728 7.36402 13.728C3.84927 13.728 1 10.8788 1 7.36402C1 3.84927 3.84927 1 7.36402 1C10.8788 1 13.728 3.84927 13.728 7.36402ZM2.06067 7.36402C2.06067 10.293 4.43506 12.6674 7.36402 12.6674C10.293 12.6674 12.6674 10.293 12.6674 7.36402C12.6674 4.43506 10.293 2.06067 7.36402 2.06067C4.43506 2.06067 2.06067 4.43506 2.06067 7.36402Z" fill-rule="nonzero" stroke="rgb(0,0,0)" stroke-opacity="0" stroke-width="1" />
</svg>
