<svg viewBox="0 0 16 16" xmlns="http://www.w3.org/2000/svg" xmlns:xlink="http://www.w3.org/1999/xlink" width="16.000000" height="16.000000" fill="none">
	<rect id="操作图标/排序-升序" width="16.000000" height="16.000000" x="0.000000" y="0.000000" />
	<path id="合并" d="M12.4162 5.81268L8.59047 1.34927C8.19137 0.883658 7.47105 0.883658 7.07195 1.34927L3.24617 5.81268C2.69017 6.46135 3.15108 7.46347 4.00543 7.46347L11.657 7.46347C12.5113 7.46347 12.9722 6.46135 12.4162 5.81268ZM8.59054 14.5775L12.4166 10.1127C12.9725 9.46396 12.5116 8.46195 11.6573 8.46195L4.00511 8.46195C3.15081 8.46195 2.68988 9.46396 3.24578 10.1127L7.07188 14.5775C7.47098 15.0432 8.19144 15.0432 8.59054 14.5775ZM11.6573 9.46195L7.83121 13.9268L4.00511 9.46195L11.6573 9.46195Z" fill="rgb(25,25,25)" fill-rule="evenodd" />
</svg>
