<svg viewBox="0 0 16 16" xmlns="http://www.w3.org/2000/svg" xmlns:xlink="http://www.w3.org/1999/xlink" width="16.000000" height="16.000000" fill="none">
	<rect id="操作图标/收藏" width="16.000000" height="16.000000" x="0.000000" y="0.000000" />
	<path id="形状结合" d="M8.42441 1.45184C8.63623 1.55107 8.80656 1.7214 8.90578 1.93322L10.2786 4.86401L13.4902 5.26402C14.0383 5.33228 14.4272 5.83189 14.359 6.37994C14.3301 6.61206 14.2207 6.82669 14.0499 6.98652L11.6868 9.19785L12.2988 12.3759C12.4032 12.9182 12.0483 13.4425 11.5059 13.5469C11.2763 13.5911 11.0383 13.5535 10.8336 13.4404L8.00021 11.8763L5.16687 13.4404C4.68337 13.7073 4.07503 13.5317 3.80812 13.0482C3.69508 12.8435 3.65739 12.6055 3.70163 12.3759L4.31363 9.19785L1.95052 6.98652C1.54726 6.60916 1.52627 5.97634 1.90363 5.57308C2.06345 5.40229 2.27808 5.29293 2.5102 5.26402L5.72178 4.86401L7.09464 1.93322C7.32892 1.43309 7.92428 1.21757 8.42441 1.45184ZM8.00021 2.35801L6.62735 5.2882C6.49982 5.56045 6.25781 5.75874 5.97089 5.8325L5.84538 5.85634L2.63379 6.25635L4.9969 8.46768C5.21642 8.6731 5.33021 8.96454 5.3117 9.26021L5.29559 9.38695L4.68358 12.565L7.51693 11.0008C7.78012 10.8556 8.09246 10.8374 8.36794 10.9464L8.4835 11.0008L11.3168 12.565L10.7048 9.38695C10.648 9.09173 10.7272 8.78907 10.916 8.56075L13.3666 6.25635L10.1551 5.85634C9.85672 5.81919 9.59336 5.65029 9.43454 5.40021L9.37308 5.2882L8.00021 2.35801Z" fill="rgb(25,25,25)" fill-rule="evenodd" />
	<path id="形状结合" d="M8.90578 1.93322L10.2786 4.86401L13.4902 5.26402C14.0383 5.33228 14.4272 5.83189 14.359 6.37994C14.3301 6.61206 14.2207 6.82669 14.0499 6.98652L11.6868 9.19785L12.2988 12.3759C12.4032 12.9182 12.0483 13.4425 11.5059 13.5469C11.2763 13.5911 11.0383 13.5535 10.8336 13.4404L8.00021 11.8763L5.16687 13.4404C4.68337 13.7073 4.07503 13.5317 3.80812 13.0482C3.69508 12.8435 3.65739 12.6055 3.70163 12.3759L4.31363 9.19785L1.95052 6.98652C1.54726 6.60916 1.52627 5.97634 1.90363 5.57308C2.06345 5.40229 2.27808 5.29293 2.5102 5.26402L5.72178 4.86401L7.09464 1.93322C7.32892 1.43309 7.92428 1.21757 8.42441 1.45184C8.63623 1.55107 8.80656 1.7214 8.90578 1.93322ZM6.62735 5.2882C6.49982 5.56045 6.25781 5.75874 5.97089 5.8325L5.84538 5.85634L2.63379 6.25635L4.9969 8.46768C5.21642 8.6731 5.33021 8.96454 5.3117 9.26021L5.29559 9.38695L4.68358 12.565L7.51693 11.0008C7.78012 10.8556 8.09246 10.8374 8.36794 10.9464L8.4835 11.0008L11.3168 12.565L10.7048 9.38695C10.648 9.09173 10.7272 8.78907 10.916 8.56075L13.3666 6.25635L10.1551 5.85634C9.85672 5.81919 9.59336 5.65029 9.43454 5.40021L9.37308 5.2882L8.00021 2.35801L6.62735 5.2882Z" fill-rule="evenodd" stroke="rgb(0,0,0)" stroke-opacity="0" stroke-width="1" />
</svg>
