<svg viewBox="0 0 16 16" xmlns="http://www.w3.org/2000/svg" xmlns:xlink="http://www.w3.org/1999/xlink" width="16.000000" height="16.000000" fill="none">
	<rect id="操作图标/启动时间" width="16.000000" height="16.000000" x="0.000000" y="0.000000" />
	<path id="形状结合" d="M3.714 3L3.71414 3.84585L2.85714 3.84615L2.85714 13.1538L13.1429 13.1538L13.1429 3.84615L12.2851 3.84585L12.285 3L13 3C13.5523 3 14 3.44772 14 4L14 13C14 13.5523 13.5523 14 13 14L3 14C2.44772 14 2 13.5523 2 13L2 4C2 3.44772 2.44772 3 3 3L3.714 3ZM7 7L10 9L7 11L7 7ZM5.5 2C5.77614 2 6 2.22386 6 2.5L6 4.5C6 4.77614 5.77614 5 5.5 5C5.22386 5 5 4.77614 5 4.5L5 2.5C5 2.22386 5.22386 2 5.5 2ZM11.5 2C11.7761 2 12 2.22386 12 2.5L12 4.5C12 4.77614 11.7761 5 11.5 5C11.2239 5 11 4.77614 11 4.5L11 2.5C11 2.22386 11.2239 2 11.5 2ZM9.714 3L9.71414 3.84585L6.28514 3.84585L6.285 3L9.714 3Z" fill="rgb(25,25,25)" fill-rule="evenodd" />
	<path id="形状结合" d="M3.71414 3.84585L2.85714 3.84615L2.85714 13.1538L13.1429 13.1538L13.1429 3.84615L12.2851 3.84585L12.285 3L13 3C13.5523 3 14 3.44772 14 4L14 13C14 13.5523 13.5523 14 13 14L3 14C2.44772 14 2 13.5523 2 13L2 4C2 3.44772 2.44772 3 3 3L3.714 3L3.71414 3.84585ZM10 9L7 11L7 7L10 9ZM6 2.5L6 4.5C6 4.77614 5.77614 5 5.5 5C5.22386 5 5 4.77614 5 4.5L5 2.5C5 2.22386 5.22386 2 5.5 2C5.77614 2 6 2.22386 6 2.5ZM12 2.5L12 4.5C12 4.77614 11.7761 5 11.5 5C11.2239 5 11 4.77614 11 4.5L11 2.5C11 2.22386 11.2239 2 11.5 2C11.7761 2 12 2.22386 12 2.5ZM9.71414 3.84585L6.28514 3.84585L6.285 3L9.714 3L9.71414 3.84585Z" fill-rule="evenodd" stroke="rgb(0,0,0)" stroke-opacity="0" stroke-width="1" />
</svg>
