<svg viewBox="0 0 16 16" xmlns="http://www.w3.org/2000/svg" xmlns:xlink="http://www.w3.org/1999/xlink" width="16.000000" height="16.000000" fill="none">
	<rect id="操作图标/开始日期(codehub-date-start)" width="16.000000" height="16.000000" x="0.000000" y="0.000000" />
	<path id="矢量 813" d="M12 0.5C12 0.223862 11.7761 0 11.5 0C11.2239 0 11 0.223862 11 0.5L11 1L5 1L5 0.5C5 0.223862 4.77614 0 4.5 0C4.22386 0 4 0.223862 4 0.5L4 1L2 1C0.895432 1 0 1.89543 0 3L0 14.0208C0 15.1253 0.895432 16.0208 2 16.0208L14 16.0208C15.1046 16.0208 16 15.1253 16 14.0208L16 3C16 1.89543 15.1046 1 14 1L12 1L12 0.5ZM4 2.02075L2 2.02075C1.44771 2.02075 1 2.46846 1 3.02075L1 4L15 4L15 3.02075C15 2.46846 14.5523 2.02075 14 2.02075L12 2.02075L12 3.02075L11 3.02075L11 2.02075L5 2.02075L5 3.02075L4 3.02075L4 2.02075ZM15 5.02075L1 5.02075L1 14C1 14.5523 1.44771 15 2 15L14 15C14.5523 15 15 14.5523 15 14L15 5.02075ZM7 8.02075C7 7.46846 6.55229 7.02075 6 7.02075L4 7.02075C3.44771 7.02075 3 7.46846 3 8.02075L3 10.0208C3 10.573 3.44771 11.0208 4 11.0208L6 11.0208C6.55229 11.0208 7 10.573 7 10.0208L7 8.02075ZM4 10.0208L4 8.02075L6 8.02075L6 10.0208L4 10.0208Z" fill="rgb(25,25,25)" fill-rule="evenodd" />
</svg>
