<svg viewBox="0 0 16 16" xmlns="http://www.w3.org/2000/svg" xmlns:xlink="http://www.w3.org/1999/xlink" width="16.000000" height="16.000000" fill="none">
	<rect id="操作图标/webIDE" width="16.000000" height="16.000000" x="0.000000" y="0.000000" />
	<path id="形状结合" d="M15 1C15.5523 1 16 1.41556 16 1.92818L16 14.0718C16 14.5844 15.5523 15 15 15L1 15C0.447715 15 0 14.5844 0 14.0718L0 1.92818C0 1.41556 0.447715 1 1 1L15 1ZM15 5L1 5L1 14.0718L15 14.0718L15 5ZM5.91603 7.47673C6.05218 7.66525 6.01825 7.91261 5.84766 8.06456L3.402 9.5789L5.77735 11.041C5.98159 11.1667 6.05333 11.4071 5.95918 11.6079C5.82302 11.7964 5.51946 11.9358 5.3019 11.8489L2.22265 9.96292C1.95277 9.79684 1.92824 9.44896 2.14905 9.24982L5.22265 7.34872C5.45241 7.20733 5.76285 7.26464 5.91603 7.47673ZM10.6981 7.30889L13.7774 9.19487C14.0472 9.36095 14.0718 9.70884 13.851 9.90797L10.7774 11.8091C10.5476 11.9505 10.2372 11.8932 10.084 11.6811C9.94782 11.4925 9.98175 11.2452 10.1523 11.0932L12.597 9.5789L10.2226 8.11677C10.0184 7.99108 9.94667 7.7507 10.0408 7.54988C10.177 7.36136 10.4805 7.22197 10.6981 7.30889ZM15 1.92818L1 1.92818L1 4L15 4L15 1.92818Z" fill="rgb(25,25,25)" fill-rule="evenodd" />
	<path id="形状结合" d="M16 1.92818L16 14.0718C16 14.5844 15.5523 15 15 15L1 15C0.447715 15 0 14.5844 0 14.0718L0 1.92818C0 1.41556 0.447715 1 1 1L15 1C15.5523 1 16 1.41556 16 1.92818ZM1 5L1 14.0718L15 14.0718L15 5L1 5ZM5.84766 8.06456L3.402 9.5789L5.77735 11.041C5.98159 11.1667 6.05333 11.4071 5.95918 11.6079C5.82302 11.7964 5.51946 11.9358 5.3019 11.8489L2.22265 9.96292C1.95277 9.79684 1.92824 9.44896 2.14905 9.24982L5.22265 7.34872C5.45241 7.20733 5.76285 7.26464 5.91603 7.47673C6.05218 7.66525 6.01825 7.91261 5.84766 8.06456ZM13.7774 9.19487C14.0472 9.36095 14.0718 9.70884 13.851 9.90797L10.7774 11.8091C10.5476 11.9505 10.2372 11.8932 10.084 11.6811C9.94782 11.4925 9.98175 11.2452 10.1523 11.0932L12.597 9.5789L10.2226 8.11677C10.0184 7.99108 9.94667 7.7507 10.0408 7.54988C10.177 7.36136 10.4805 7.22197 10.6981 7.30889L13.7774 9.19487ZM1 1.92818L1 4L15 4L15 1.92818L1 1.92818Z" fill-rule="evenodd" stroke="rgb(0,0,0)" stroke-opacity="0" stroke-width="1" />
</svg>
