<svg viewBox="0 0 16 16" xmlns="http://www.w3.org/2000/svg" xmlns:xlink="http://www.w3.org/1999/xlink" width="16.000000" height="16.000000" fill="none">
	<rect id="操作图标/白名单" width="16.000000" height="16.000000" x="0.000000" y="0.000000" />
	<path id="形状结合" d="M12 8.5C13.9327 8.5 15.5 10.0676 15.5 12.0005C15.5 13.9333 13.9328 15.5 12 15.5C10.0673 15.5 8.5 13.9324 8.5 11.9995C8.5 10.0667 10.0672 8.5 12 8.5ZM12 1C13.0544 1 13.9182 1.81588 13.9945 2.85074L14 3L14 7.5C14 7.77614 13.7761 8 13.5 8C13.2545 8 13.0504 7.82312 13.0081 7.58988L13 3C13 2.48716 12.614 2.06449 12.1166 2.00673L12 2L4 2C3.48716 2 3.06449 2.38604 3.00673 2.88338L3 3L3 13C3 13.5128 3.38604 13.9355 3.88338 13.9933L4 14L8 14C8.27614 14 8.5 14.2239 8.5 14.5C8.5 14.7455 8.32312 14.9496 8.08988 14.9919L4 15C2.94564 15 2.08183 14.1841 2.00549 13.1493L2 13L2 3C2 1.94564 2.81588 1.08183 3.85074 1.00549L4 1L12 1ZM12 9.5C10.6194 9.5 9.5 10.619 9.5 11.9995C9.5 13.3802 10.6196 14.5 12 14.5C13.3806 14.5 14.5 13.381 14.5 12.0005C14.5 10.6198 13.3804 9.5 12 9.5ZM12.017 10.2C12.2625 10.2 12.4666 10.3769 12.509 10.6101L12.517 11.417L13.234 11.417C13.5102 11.417 13.734 11.6409 13.734 11.917C13.734 12.1625 13.5572 12.3666 13.3239 12.409L12.517 12.417L12.517 13.134C12.517 13.4102 12.2932 13.634 12.017 13.634C11.7716 13.634 11.5674 13.4572 11.5251 13.2239L11.517 12.417L10.8 12.417C10.5239 12.417 10.3 12.1932 10.3 11.917C10.3 11.6716 10.4769 11.4674 10.7101 11.4251L11.517 11.417L11.517 10.7C11.517 10.4239 11.7409 10.2 12.017 10.2ZM8.5 7C8.77614 7 9 7.22386 9 7.5C9 7.77614 8.77614 8 8.5 8L5.5 8C5.22386 8 5 7.77614 5 7.5C5 7.22386 5.22386 7 5.5 7L8.5 7ZM11.6851 3.73681C11.8377 3.92909 11.8261 4.19895 11.6697 4.3771L9.72452 5.93083C9.54197 6.07569 9.2881 6.07309 9.10967 5.93618L8.12451 4.83017C7.94217 4.62279 7.96246 4.30686 8.16983 4.12451C8.35417 3.96243 8.62427 3.96045 8.81009 4.10766L9.475 4.851L10.9827 3.65593C11.199 3.48428 11.5135 3.5205 11.6851 3.73681ZM6.5 4C6.77614 4 7 4.22386 7 4.5C7 4.77614 6.77614 5 6.5 5L5.5 5C5.22386 5 5 4.77614 5 4.5C5 4.22386 5.22386 4 5.5 4L6.5 4Z" fill="rgb(25,25,25)" fill-rule="nonzero" />
	<path id="形状结合" d="M15.5 12.0005C15.5 13.9333 13.9328 15.5 12 15.5C10.0673 15.5 8.5 13.9324 8.5 11.9995C8.5 10.0667 10.0672 8.5 12 8.5C13.9327 8.5 15.5 10.0676 15.5 12.0005ZM13.9945 2.85074L14 3L14 7.5C14 7.77614 13.7761 8 13.5 8C13.2545 8 13.0504 7.82312 13.0081 7.58988L13 3C13 2.48716 12.614 2.06449 12.1166 2.00673L12 2L4 2C3.48716 2 3.06449 2.38604 3.00673 2.88338L3 3L3 13C3 13.5128 3.38604 13.9355 3.88338 13.9933L4 14L8 14C8.27614 14 8.5 14.2239 8.5 14.5C8.5 14.7455 8.32312 14.9496 8.08988 14.9919L4 15C2.94564 15 2.08183 14.1841 2.00549 13.1493L2 13L2 3C2 1.94564 2.81588 1.08183 3.85074 1.00549L4 1L12 1C13.0544 1 13.9182 1.81588 13.9945 2.85074ZM9.5 11.9995C9.5 13.3802 10.6196 14.5 12 14.5C13.3806 14.5 14.5 13.381 14.5 12.0005C14.5 10.6198 13.3804 9.5 12 9.5C10.6194 9.5 9.5 10.619 9.5 11.9995ZM12.509 10.6101L12.517 11.417L13.234 11.417C13.5102 11.417 13.734 11.6409 13.734 11.917C13.734 12.1625 13.5572 12.3666 13.3239 12.409L12.517 12.417L12.517 13.134C12.517 13.4102 12.2932 13.634 12.017 13.634C11.7716 13.634 11.5674 13.4572 11.5251 13.2239L11.517 12.417L10.8 12.417C10.5239 12.417 10.3 12.1932 10.3 11.917C10.3 11.6716 10.4769 11.4674 10.7101 11.4251L11.517 11.417L11.517 10.7C11.517 10.4239 11.7409 10.2 12.017 10.2C12.2625 10.2 12.4666 10.3769 12.509 10.6101ZM9 7.5C9 7.77614 8.77614 8 8.5 8L5.5 8C5.22386 8 5 7.77614 5 7.5C5 7.22386 5.22386 7 5.5 7L8.5 7C8.77614 7 9 7.22386 9 7.5ZM11.6697 4.3771L9.72452 5.93083C9.54197 6.07569 9.2881 6.07309 9.10967 5.93618L8.12451 4.83017C7.94217 4.62279 7.96246 4.30686 8.16983 4.12451C8.35417 3.96243 8.62427 3.96045 8.81009 4.10766L9.475 4.851L10.9827 3.65593C11.199 3.48428 11.5135 3.5205 11.6851 3.73681C11.8377 3.92909 11.8261 4.19895 11.6697 4.3771ZM7 4.5C7 4.77614 6.77614 5 6.5 5L5.5 5C5.22386 5 5 4.77614 5 4.5C5 4.22386 5.22386 4 5.5 4L6.5 4C6.77614 4 7 4.22386 7 4.5Z" fill-rule="nonzero" stroke="rgb(0,0,0)" stroke-opacity="0" stroke-width="1" />
</svg>
