<svg viewBox="0 0 16 16" xmlns="http://www.w3.org/2000/svg" xmlns:xlink="http://www.w3.org/1999/xlink" width="16.000000" height="16.000000" fill="none">
	<rect id="操作图标/挂件" width="16.000000" height="16.000000" x="0.000000" y="0.000000" />
	<path id="形状结合" d="M12 1C13.1046 1 14 1.89543 14 3L14 15L8 11L2 15L2 3C2 1.89543 2.89543 1 4 1L12 1ZM12 2L4 2C3.48716 2 3.06449 2.38604 3.00673 2.88338L3 3L3 13.13L7.4453 10.1679C7.74388 9.9689 8.12281 9.94678 8.43925 10.1016L8.5547 10.1679L13 13.131L13 3C13 2.48716 12.614 2.06449 12.1166 2.00673L12 2ZM10 4L10 5L6 5L6 4L10 4Z" fill="rgb(25,25,25)" fill-rule="evenodd" />
	<path id="形状结合" d="M14 3L14 15L8 11L2 15L2 3C2 1.89543 2.89543 1 4 1L12 1C13.1046 1 14 1.89543 14 3ZM4 2C3.48716 2 3.06449 2.38604 3.00673 2.88338L3 3L3 13.13L7.4453 10.1679C7.74388 9.9689 8.12281 9.94678 8.43925 10.1016L8.5547 10.1679L13 13.131L13 3C13 2.48716 12.614 2.06449 12.1166 2.00673L12 2L4 2ZM10 5L6 5L6 4L10 4L10 5Z" fill-rule="evenodd" stroke="rgb(0,0,0)" stroke-opacity="0" stroke-width="1" />
</svg>
