<svg viewBox="0 0 16 16" xmlns="http://www.w3.org/2000/svg" xmlns:xlink="http://www.w3.org/1999/xlink" width="16.000000" height="16.000000" fill="none">
	<rect id="操作图标/上传(mobile-upload-border)" width="16.000000" height="16.000000" x="0.000000" y="0.000000" />
	<path id="合并" d="M8.5 2.20027L8.5 12.0003C8.5 12.2803 8.27 12.5003 8 12.5003C7.71 12.5003 7.5 12.2803 7.5 12.0003L7.5 2.20027L3.79 5.91027C3.59 6.10027 3.28 6.10027 3.08 5.91027C2.89 5.71027 2.89 5.40027 3.08 5.20027L7.64 0.640273C7.88 0.410273 8.11 0.410273 8.35 0.640273L12.91 5.20027C13.1 5.40027 13.1 5.71027 12.91 5.91027C12.71 6.10027 12.4 6.10027 12.2 5.91027L8.5 2.20027ZM1.5 10.9103C1.5 10.6303 1.28 10.4103 1 10.4103C0.71 10.4103 0.5 10.6303 0.5 10.9103L0.5 13.0003C0.5 13.1803 0.51 13.3603 0.55 13.5303C0.59 13.6803 0.63 13.8303 0.69 13.9703C0.75 14.1103 0.82 14.2503 0.91 14.3703C1 14.5103 1.11 14.6403 1.23 14.7603C1.46 14.9903 1.72 15.1703 2.02 15.3003C2.16 15.3603 2.31 15.4003 2.46 15.4403C2.63 15.4803 2.81 15.5003 3 15.5003L13 15.5003C13.18 15.5003 13.36 15.4803 13.53 15.4403C13.68 15.4003 13.83 15.3603 13.97 15.3003C14.27 15.1703 14.53 14.9903 14.76 14.7603C14.88 14.6403 14.99 14.5103 15.08 14.3703C15.17 14.2503 15.24 14.1103 15.3 13.9703C15.36 13.8303 15.4 13.6803 15.44 13.5303C15.48 13.3603 15.5 13.1803 15.5 13.0003L15.5 10.9103C15.5 10.6303 15.28 10.4103 15 10.4103C14.71 10.4103 14.5 10.6303 14.5 10.9103L14.5 13.0003C14.5 13.1103 14.48 13.2303 14.46 13.3403C14.44 13.4203 14.41 13.5003 14.38 13.5803C14.3 13.7603 14.19 13.9203 14.06 14.0603C13.92 14.1903 13.76 14.3003 13.58 14.3803C13.39 14.4603 13.2 14.5003 13 14.5003L3 14.5003C2.88 14.5003 2.77 14.4803 2.65 14.4603C2.57 14.4403 2.49 14.4103 2.41 14.3803C2.33 14.3403 2.25 14.3003 2.18 14.2503C2.09 14.2003 2.01 14.1303 1.93 14.0603C1.86 13.9803 1.79 13.9003 1.74 13.8103C1.69 13.7403 1.65 13.6603 1.61 13.5803C1.58 13.5003 1.55 13.4203 1.53 13.3403C1.51 13.2303 1.5 13.1103 1.5 13.0003L1.5 10.9103Z" fill="rgb(25,25,25)" fill-rule="evenodd" />
</svg>
