<svg viewBox="0 0 16 16" xmlns="http://www.w3.org/2000/svg" xmlns:xlink="http://www.w3.org/1999/xlink" width="16.000000" height="16.000000" fill="none">
	<rect id="操作图标/下载" width="16.000000" height="16.000000" x="0.000000" y="0.000000" />
	<path id="形状结合" d="M1.5 14L14.5 14C14.7761 14 15 14.2239 15 14.5C15 14.7761 14.7761 15 14.5 15L1.5 15C1.22386 15 1 14.7761 1 14.5C1 14.2239 1.22386 14 1.5 14ZM8 1C8.24546 1 8.44961 1.17688 8.49195 1.41012L8.5 10.793L11.6464 7.64645C11.82 7.47288 12.0894 7.4536 12.2843 7.58859C12.4579 7.76216 12.5464 8.08944 12.4114 8.28431L8.35355 12.3536C8.34243 12.3605 8.24405 12.4367 8.23213 12.443C8.21676 12.4478 8.12047 12.4856 8.10499 12.4889C8.09818 12.4892 8.0069 12.5 8 12.5C7.9639 12.5 7.9287 12.4962 7.89477 12.4889C7.88127 12.4833 7.78172 12.4503 7.76824 12.4432C7.75463 12.4329 7.67118 12.3771 7.65871 12.3654L3.64645 8.35355C3.45118 8.15829 3.45118 7.84171 3.64645 7.64645C3.82001 7.47288 4.08944 7.4536 4.28431 7.58859L7.5 10.793L7.5 1.5C7.5 1.22386 7.72386 1 8 1Z" fill="rgb(25,25,25)" fill-rule="evenodd" />
	<path id="形状结合" d="M14.5 14C14.7761 14 15 14.2239 15 14.5C15 14.7761 14.7761 15 14.5 15L1.5 15C1.22386 15 1 14.7761 1 14.5C1 14.2239 1.22386 14 1.5 14L14.5 14ZM8.49195 1.41012L8.5 10.793L11.6464 7.64645C11.82 7.47288 12.0894 7.4536 12.2843 7.58859C12.4579 7.76216 12.5464 8.08944 12.4114 8.28431L8.35355 12.3536C8.34243 12.3605 8.24405 12.4367 8.23213 12.443C8.21676 12.4478 8.12047 12.4856 8.10499 12.4889C8.09818 12.4892 8.0069 12.5 8 12.5C7.9639 12.5 7.9287 12.4962 7.89477 12.4889C7.88127 12.4833 7.78172 12.4503 7.76824 12.4432C7.75463 12.4329 7.67118 12.3771 7.65871 12.3654L3.64645 8.35355C3.45118 8.15829 3.45118 7.84171 3.64645 7.64645C3.82001 7.47288 4.08944 7.4536 4.28431 7.58859L7.5 10.793L7.5 1.5C7.5 1.22386 7.72386 1 8 1C8.24546 1 8.44961 1.17688 8.49195 1.41012Z" fill-rule="evenodd" stroke="rgb(0,0,0)" stroke-opacity="0" stroke-width="1" />
</svg>
