<svg viewBox="0 0 16 16" xmlns="http://www.w3.org/2000/svg" xmlns:xlink="http://www.w3.org/1999/xlink" width="16.000000" height="16.000000" fill="none">
	<rect id="操作图标/不喜欢(dislike)" width="16.000000" height="16.000000" x="0.000000" y="0.000000" />
	<g id="Dislike">
		<path id="形状结合" d="M11.552 1C13.1417 1 14.1629 1.45831 14.4908 2.44873C14.8108 3.41553 15.1757 5.00916 15.2917 6.29297L15.3098 6.51465L15.3308 6.92536C15.3826 8.65637 14.9145 9.74072 13.6502 9.74072L9.55591 9.74103L9.60108 9.88104C10.0201 11.2178 10.1855 12.2475 10.087 12.9924C9.89815 14.4197 8.75318 15.6334 7.67652 15.2728L7.55713 15.2262C7.03589 14.9929 6.86426 14.596 6.70117 13.6535L6.54492 12.7217L6.4978 12.5065C6.4231 12.1821 6.33277 11.9107 6.21558 11.6747C5.8313 10.901 5.28443 10.2338 4.57056 9.67005L2.60156 9.67029C1.71704 9.67029 1 8.95325 1 8.06873L1 2.60523C1 1.72071 1.71704 1.0036 2.60156 1.0036L4.83325 1L11.552 1ZM11.552 2L5.33301 2L5.33301 9.00299L5.41699 9.07147C6.13672 9.68646 6.70239 10.4068 7.11109 11.2301C7.23584 11.481 7.33399 11.7509 7.4148 12.051L7.50098 12.4091L7.56079 12.716L7.69336 13.5194C7.69946 13.5534 7.70557 13.5861 7.71167 13.6176L7.76441 13.8675C7.83374 14.158 7.8982 14.2832 7.96558 14.3135C8.30152 14.4638 8.97461 13.776 9.09571 12.8612C9.17749 12.2434 9.00025 11.2404 8.55029 9.88068C8.51196 9.76435 8.49854 9.64173 8.51099 9.52033C8.55908 9.04529 8.98218 8.6991 9.45679 8.74286L13.6502 8.74072C14.1889 8.74072 14.4366 7.94129 14.2959 6.38294C14.1875 5.18329 13.8392 3.66217 13.5415 2.76294L13.5058 2.67462C13.3013 2.24512 12.6844 2 11.552 2ZM4.33277 2.0036L2.60156 2.0036C2.26929 2.0036 2 2.27295 2 2.60523L2 8.06867L2.00781 8.16626C2.05445 8.45215 2.30249 8.67029 2.60156 8.67029L4.33277 8.6706L4.33277 2.0036Z" fill="rgb(25,25,25)" fill-rule="evenodd" />
	</g>
</svg>
