<svg viewBox="0 0 16 16" xmlns="http://www.w3.org/2000/svg" xmlns:xlink="http://www.w3.org/1999/xlink" width="16.000000" height="16.000000" fill="none" customFrame="#000000">
	<rect id="操作图标/专业服务" width="16.000000" height="16.000000" x="0.000000" y="0.000000" fill="rgb(255,255,255)" fill-opacity="0" />
	<path id="形状结合" d="M12.9815 13.9149C13.2872 13.9149 13.535 14.1627 13.535 14.4684C13.535 14.7401 13.3392 14.9661 13.081 15.0129L3.01857 15.0218C2.71289 15.0218 2.46508 14.774 2.46508 14.4684C2.46508 14.1966 2.66088 13.9706 2.91908 13.9238L12.9815 13.9149ZM7.57997 1.19306C7.80324 0.932864 8.20694 0.936171 8.42591 1.19999L11.8287 5.29954L14.9014 3.37235C15.2997 3.12258 15.792 3.45033 15.7471 3.89196L13.5169 12.4243C13.453 12.6677 13.2331 12.8374 12.9815 12.8374L3.01857 12.8374C2.76696 12.8374 2.547 12.6677 2.48318 12.4243L0.269204 3.98167C0.140857 3.49224 0.682295 3.1014 1.10642 3.37731L4.05766 5.29733L7.57997 1.19306ZM7.9919 2.41141L4.58251 6.38616C4.40184 6.59672 4.09319 6.64098 3.86063 6.48968L1.70199 5.08479L3.44439 11.73L12.5538 11.73L14.3051 5.05268L12.0062 6.49464C11.8006 6.62359 11.5392 6.60194 11.3584 6.45152L7.9919 2.41141ZM9.10701 9.47953C9.41269 9.47953 9.6605 9.72734 9.6605 10.033C9.6605 10.3047 9.4647 10.5307 9.2065 10.5776L6.89303 10.5865C6.58734 10.5865 6.33954 10.3387 6.33954 10.033C6.33954 9.7613 6.53534 9.53531 6.79354 9.48845L9.10701 9.47953Z" fill="rgb(25,25,25)" fill-rule="nonzero" />
</svg>
