<svg viewBox="0 0 16 16" xmlns="http://www.w3.org/2000/svg" xmlns:xlink="http://www.w3.org/1999/xlink" width="16.000000" height="16.000000" fill="none">
	<rect id="操作图标/中切英" width="16.000000" height="16.000000" x="0.000000" y="0.000000" />
	<path id="形状结合" d="M8.00072 5.60096C9.32391 5.60096 10.3991 6.67614 10.3991 7.99932L10.3991 13.6008C10.3991 14.9232 9.32391 16 8.00072 16L2.39918 16C1.07679 16 0 14.9232 0 13.6008L0 7.99932C0 6.67614 1.07679 5.60096 2.39918 5.60096L8.00072 5.60096ZM5.84154 7.70812L4.64155 7.75772C4.67435 7.84092 4.70795 7.98252 4.74155 8.18252C4.79115 8.36651 4.82475 8.50811 4.84155 8.60811L2.31678 8.60811L2.31678 9.5577L3.21677 9.5577C3.51676 10.4745 3.93276 11.2409 4.46636 11.8577C3.89916 12.2081 3.16637 12.5161 2.26638 12.7824C2.39918 12.9496 2.59197 13.2328 2.84157 13.6328C3.82396 13.2832 4.67435 12.9824 5.29115 12.5825C5.94154 12.9992 6.75833 13.3576 7.74152 13.6576C7.90792 13.3408 8.11672 13.0152 8.36632 12.6824C7.46633 12.5001 6.71673 12.2249 6.11674 11.8577C6.68313 11.3073 7.10793 10.5409 7.39193 9.5577L8.29112 9.5577L8.29112 8.60811L5.96634 8.60811C5.93274 8.30812 5.89114 8.00812 5.84154 7.70812ZM6.2669 9.5577C6.0829 10.2073 5.7581 10.7577 5.29171 11.2081C4.87411 10.7577 4.54931 10.2073 4.31652 9.5577L6.2669 9.5577ZM13.6 0C14.9232 0 16 1.07678 16 2.39996L16 8.00228C16 9.32546 14.9232 10.4022 13.6 10.4022L11.1992 10.4022L11.1992 9.20226L13.6 9.20226C14.2616 9.20226 14.8 8.66387 14.8 8.00228L14.8 2.39996C14.8 1.73837 14.2616 1.19998 13.6 1.19998L7.99768 1.19998C7.33609 1.19998 6.79769 1.73837 6.79769 2.39996L6.79769 4.80073L5.5977 4.80073L5.5977 2.39996C5.5977 1.07678 6.67449 0 7.99768 0L13.6 0ZM10.7985 2.05333C11.1465 2.05333 11.4457 2.25973 11.5625 2.58132L13.3641 7.54125C13.4777 7.85244 13.3161 8.19644 13.0049 8.31004C12.9377 8.33403 12.8681 8.34604 12.8001 8.34604C12.5545 8.34604 12.3249 8.19404 12.2361 7.95084L11.9345 7.12045L11.0609 7.12045C10.9313 6.67086 10.7097 6.26527 10.4113 5.92047L11.4977 5.92047L10.7985 3.9941L10.1873 5.67727C9.88894 5.39568 9.53774 5.17328 9.14815 5.02288L10.0353 2.58212C10.1521 2.25973 10.4513 2.05333 10.7985 2.05333Z" fill="rgb(25,25,25)" fill-rule="nonzero" />
	<path id="形状结合" d="M10.3991 7.99932L10.3991 13.6008C10.3991 14.9232 9.32391 16 8.00072 16L2.39918 16C1.07679 16 0 14.9232 0 13.6008L0 7.99932C0 6.67614 1.07679 5.60096 2.39918 5.60096L8.00072 5.60096C9.32391 5.60096 10.3991 6.67614 10.3991 7.99932ZM4.64155 7.75772C4.67435 7.84092 4.70795 7.98252 4.74155 8.18252C4.79115 8.36651 4.82475 8.50811 4.84155 8.60811L2.31678 8.60811L2.31678 9.5577L3.21677 9.5577C3.51676 10.4745 3.93276 11.2409 4.46636 11.8577C3.89916 12.2081 3.16637 12.5161 2.26638 12.7824C2.39918 12.9496 2.59197 13.2328 2.84157 13.6328C3.82396 13.2832 4.67435 12.9824 5.29115 12.5825C5.94154 12.9992 6.75833 13.3576 7.74152 13.6576C7.90792 13.3408 8.11672 13.0152 8.36632 12.6824C7.46633 12.5001 6.71673 12.2249 6.11674 11.8577C6.68313 11.3073 7.10793 10.5409 7.39193 9.5577L8.29112 9.5577L8.29112 8.60811L5.96634 8.60811C5.93274 8.30812 5.89114 8.00812 5.84154 7.70812L4.64155 7.75772ZM5.29171 11.2081C4.87411 10.7577 4.54931 10.2073 4.31652 9.5577L6.2669 9.5577C6.0829 10.2073 5.7581 10.7577 5.29171 11.2081ZM16 2.39996L16 8.00228C16 9.32546 14.9232 10.4022 13.6 10.4022L11.1992 10.4022L11.1992 9.20226L13.6 9.20226C14.2616 9.20226 14.8 8.66387 14.8 8.00228L14.8 2.39996C14.8 1.73837 14.2616 1.19998 13.6 1.19998L7.99768 1.19998C7.33609 1.19998 6.79769 1.73837 6.79769 2.39996L6.79769 4.80073L5.5977 4.80073L5.5977 2.39996C5.5977 1.07678 6.67449 0 7.99768 0L13.6 0C14.9232 0 16 1.07678 16 2.39996ZM11.5625 2.58132L13.3641 7.54125C13.4777 7.85244 13.3161 8.19644 13.0049 8.31004C12.9377 8.33403 12.8681 8.34604 12.8001 8.34604C12.5545 8.34604 12.3249 8.19404 12.2361 7.95084L11.9345 7.12045L11.0609 7.12045C10.9313 6.67086 10.7097 6.26527 10.4113 5.92047L11.4977 5.92047L10.7985 3.9941L10.1873 5.67727C9.88894 5.39568 9.53774 5.17328 9.14815 5.02288L10.0353 2.58212C10.1521 2.25973 10.4513 2.05333 10.7985 2.05333C11.1465 2.05333 11.4457 2.25973 11.5625 2.58132Z" fill-rule="nonzero" stroke="rgb(0,0,0)" stroke-opacity="0" stroke-width="1" />
</svg>
