<svg viewBox="0 0 16 16" xmlns="http://www.w3.org/2000/svg" xmlns:xlink="http://www.w3.org/1999/xlink" width="16.000000" height="16.000000" fill="none">
	<rect id="操作图标/中文模式" width="16.000000" height="16.000000" x="0.000000" y="0.000000" />
	<path id="形状结合" d="M13 1.5C13.8284 1.5 14.5 2.17157 14.5 3L14.5 13C14.5 13.8284 13.8284 14.5 13 14.5L3 14.5C2.17157 14.5 1.5 13.8284 1.5 13L1.5 3C1.5 2.17157 2.17157 1.5 3 1.5L13 1.5ZM13 2.5L3 2.5C2.72386 2.5 2.5 2.72386 2.5 3L2.5 13C2.5 13.2761 2.72386 13.5 3 13.5L13 13.5C13.2761 13.5 13.5 13.2761 13.5 13L13.5 3C13.5 2.72386 13.2761 2.5 13 2.5ZM8 4.16667C8.24546 4.16667 8.44961 4.34354 8.49194 4.57679L8.5 5.5L11.3333 5.5C11.5788 5.5 11.7829 5.67688 11.8253 5.91012L11.8333 9.33333C11.8333 9.60948 11.6095 9.83333 11.3333 9.83333L8.5 9.833L8.5 11.6667C8.5 11.9428 8.27614 12.1667 8 12.1667C7.75454 12.1667 7.55039 11.9898 7.50806 11.7565L7.5 9.833L4.66667 9.83333C4.42121 9.83333 4.21706 9.65646 4.17472 9.42321L4.16667 6C4.16667 5.72386 4.39052 5.5 4.66667 5.5L7.5 5.5L7.5 4.66667C7.5 4.39052 7.72386 4.16667 8 4.16667ZM7.5 6.5L5.166 6.5L5.166 8.833L7.5 8.833L7.5 6.5ZM10.833 6.5L8.5 6.5L8.5 8.833L10.833 8.833L10.833 6.5Z" fill="rgb(25,25,25)" fill-rule="evenodd" />
	<path id="形状结合" d="M14.5 3L14.5 13C14.5 13.8284 13.8284 14.5 13 14.5L3 14.5C2.17157 14.5 1.5 13.8284 1.5 13L1.5 3C1.5 2.17157 2.17157 1.5 3 1.5L13 1.5C13.8284 1.5 14.5 2.17157 14.5 3ZM3 2.5C2.72386 2.5 2.5 2.72386 2.5 3L2.5 13C2.5 13.2761 2.72386 13.5 3 13.5L13 13.5C13.2761 13.5 13.5 13.2761 13.5 13L13.5 3C13.5 2.72386 13.2761 2.5 13 2.5L3 2.5ZM8.49194 4.57679L8.5 5.5L11.3333 5.5C11.5788 5.5 11.7829 5.67688 11.8253 5.91012L11.8333 9.33333C11.8333 9.60948 11.6095 9.83333 11.3333 9.83333L8.5 9.833L8.5 11.6667C8.5 11.9428 8.27614 12.1667 8 12.1667C7.75454 12.1667 7.55039 11.9898 7.50806 11.7565L7.5 9.833L4.66667 9.83333C4.42121 9.83333 4.21706 9.65646 4.17472 9.42321L4.16667 6C4.16667 5.72386 4.39052 5.5 4.66667 5.5L7.5 5.5L7.5 4.66667C7.5 4.39052 7.72386 4.16667 8 4.16667C8.24546 4.16667 8.44961 4.34354 8.49194 4.57679ZM5.166 6.5L5.166 8.833L7.5 8.833L7.5 6.5L5.166 6.5ZM8.5 6.5L8.5 8.833L10.833 8.833L10.833 6.5L8.5 6.5Z" fill-rule="evenodd" stroke="rgb(0,0,0)" stroke-opacity="0" stroke-width="1" />
</svg>
