<svg viewBox="0 0 16 16" xmlns="http://www.w3.org/2000/svg" xmlns:xlink="http://www.w3.org/1999/xlink" width="16.000000" height="16.000000" fill="none">
	<rect id="操作图标/事件触发" width="16.000000" height="16.000000" x="0.000000" y="0.000000" />
	<path id="形状结合" d="M13.0688 11.5688C12.8597 11.7769 12.5252 11.7885 12.3021 11.5954C12.1968 11.5054 12.1316 11.3773 12.121 11.2393C12.1104 11.1013 12.1551 10.9648 12.2454 10.8598L12.3788 10.7066C14.0566 8.47439 13.7583 5.33377 11.69 3.45643C9.62178 1.57909 6.46278 1.58151 4.39742 3.46203C2.33206 5.34255 2.03856 8.48363 3.71987 10.7133L3.81354 10.8398C3.99401 11.0742 3.9571 11.4091 3.72987 11.5987C3.62519 11.6891 3.48387 11.737 3.34596 11.7257C3.20805 11.7144 3.08047 11.6483 2.99188 11.5422C0.846261 8.89458 1.11469 5.04112 3.60673 2.71573C6.09877 0.390337 9.96676 0.383974 12.4665 2.70115C14.9662 5.01834 15.2056 8.91416 13.0688 11.5688ZM10.8751 9.02227C10.7481 9.27599 10.4212 9.44466 10.1565 9.34183C9.89736 9.24023 9.76944 8.94841 9.87046 8.68939L10.0868 8.13681C10.3861 7.24117 10.0693 6.25512 9.30407 5.70059C8.53883 5.14605 7.50188 5.1511 6.74208 5.71306C5.98229 6.27501 5.67513 7.2641 5.98318 8.15678L6.18618 8.67274C6.23613 8.79968 6.23341 8.94125 6.17862 9.06618C6.12383 9.1911 6.02147 9.28909 5.89418 9.3385C5.62117 9.44134 5.30813 9.31188 5.19752 9.04224C4.63282 8.03784 4.64407 6.80966 5.2271 5.81575C5.81012 4.82185 6.87737 4.21144 8.03082 4.21217C9.18053 4.2119 10.2448 4.81821 10.8298 5.80666C11.4158 6.79501 11.4324 8.01846 10.8751 9.02227ZM7.68549 9.68136C7.77813 9.57361 7.91327 9.51161 8.05548 9.51161C8.1977 9.51161 8.33284 9.57361 8.42548 9.68136L12.7488 14.2784C12.848 14.4081 12.8625 14.5836 12.7861 14.7278C12.7048 14.8739 12.5514 14.9653 12.3841 14.9675L3.72487 14.9675C3.55492 14.9666 3.39888 14.8735 3.31755 14.7245C3.23323 14.5877 3.23323 14.4152 3.31755 14.2784L7.68549 9.68136ZM8.06082 10.6134L4.6382 14.1053L11.4714 14.1053L8.06082 10.6134Z" fill="rgb(25,25,25)" fill-rule="evenodd" />
	<path id="形状结合" d="M12.3021 11.5954C12.1968 11.5054 12.1316 11.3773 12.121 11.2393C12.1104 11.1013 12.1551 10.9648 12.2454 10.8598L12.3788 10.7066C14.0566 8.47439 13.7583 5.33377 11.69 3.45643C9.62178 1.57909 6.46278 1.58151 4.39742 3.46203C2.33206 5.34255 2.03856 8.48363 3.71987 10.7133L3.81354 10.8398C3.99401 11.0742 3.9571 11.4091 3.72987 11.5987C3.62519 11.6891 3.48387 11.737 3.34596 11.7257C3.20805 11.7144 3.08047 11.6483 2.99188 11.5422C0.846261 8.89458 1.11469 5.04112 3.60673 2.71573C6.09877 0.390337 9.96676 0.383974 12.4665 2.70115C14.9662 5.01834 15.2056 8.91416 13.0688 11.5688C12.8597 11.7769 12.5252 11.7885 12.3021 11.5954ZM10.1565 9.34183C9.89736 9.24023 9.76944 8.94841 9.87046 8.68939L10.0868 8.13681C10.3861 7.24117 10.0693 6.25512 9.30407 5.70059C8.53883 5.14605 7.50188 5.1511 6.74208 5.71306C5.98229 6.27501 5.67513 7.2641 5.98318 8.15678L6.18618 8.67274C6.23613 8.79968 6.23341 8.94125 6.17862 9.06618C6.12383 9.1911 6.02147 9.28909 5.89418 9.3385C5.62117 9.44134 5.30813 9.31188 5.19752 9.04224C4.63282 8.03784 4.64407 6.80966 5.2271 5.81575C5.81012 4.82185 6.87737 4.21144 8.03082 4.21217C9.18053 4.2119 10.2448 4.81821 10.8298 5.80666C11.4158 6.79501 11.4324 8.01846 10.8751 9.02227C10.7481 9.27599 10.4212 9.44466 10.1565 9.34183ZM8.05548 9.51161C8.1977 9.51161 8.33284 9.57361 8.42548 9.68136L12.7488 14.2784C12.848 14.4081 12.8625 14.5836 12.7861 14.7278C12.7048 14.8739 12.5514 14.9653 12.3841 14.9675L3.72487 14.9675C3.55492 14.9666 3.39888 14.8735 3.31755 14.7245C3.23323 14.5877 3.23323 14.4152 3.31755 14.2784L7.68549 9.68136C7.77813 9.57361 7.91327 9.51161 8.05548 9.51161ZM4.6382 14.1053L11.4714 14.1053L8.06082 10.6134L4.6382 14.1053Z" fill-rule="evenodd" stroke="rgb(0,0,0)" stroke-opacity="0" stroke-width="1" />
</svg>
