<svg viewBox="0 0 16 16" xmlns="http://www.w3.org/2000/svg" xmlns:xlink="http://www.w3.org/1999/xlink" width="16.000000" height="16.000000" fill="none">
	<rect id="操作图标/仓库" width="16.000000" height="16.000000" x="0.000000" y="0.000000" />
	<path id="形状结合" d="M8.22714 1.05451L13.9 5.5L14 5.5L15.3089 6.60684C15.5261 6.77745 15.5638 7.09177 15.3932 7.30891C15.2415 7.50192 14.9763 7.55317 14.7668 7.44235L14 6.85L14 14.0526C14 14.5758 13.5523 15 13 15L3.00002 15C2.44774 15 2.00002 14.5758 2.00002 14.0526L2 6.849L1.30893 7.39316C1.11592 7.54481 0.846119 7.53186 0.668724 7.3746C0.517073 7.18159 0.468165 6.8461 0.625417 6.6687L2 5.578L7.69111 1.10684C7.84652 0.984737 8.05622 0.967294 8.22714 1.05451ZM8.00002 2.135L3 6.063L3 14.0526L13 14.0526L13 6.064L8.00002 2.135ZM10 9L10 10L6.00002 10L6.00002 9L10 9Z" fill="rgb(25,25,25)" fill-rule="evenodd" />
	<path id="形状结合" d="M13.9 5.5L14 5.5L15.3089 6.60684C15.5261 6.77745 15.5638 7.09177 15.3932 7.30891C15.2415 7.50192 14.9763 7.55317 14.7668 7.44235L14 6.85L14 14.0526C14 14.5758 13.5523 15 13 15L3.00002 15C2.44774 15 2.00002 14.5758 2.00002 14.0526L2 6.849L1.30893 7.39316C1.11592 7.54481 0.846119 7.53186 0.668724 7.3746C0.517073 7.18159 0.468165 6.8461 0.625417 6.6687L2 5.578L7.69111 1.10684C7.84652 0.984737 8.05622 0.967294 8.22714 1.05451L13.9 5.5ZM3 6.063L3 14.0526L13 14.0526L13 6.064L8.00002 2.135L3 6.063ZM10 10L6.00002 10L6.00002 9L10 9L10 10Z" fill-rule="evenodd" stroke="rgb(0,0,0)" stroke-opacity="0" stroke-width="1" />
</svg>
