<svg viewBox="0 0 16 16" xmlns="http://www.w3.org/2000/svg" xmlns:xlink="http://www.w3.org/1999/xlink" width="16.000000" height="16.000000" fill="none">
	<rect id="操作图标/代码中打开" width="16.000000" height="16.000000" x="0.000000" y="0.000000" />
	<path id="形状结合" d="M8 8.62104e-33C8.27614 -5.07265e-17 8.5 0.223858 8.5 0.5L8.50033 1.51897C11.6916 1.7619 14.2387 4.30926 14.4811 7.50067L15.5 7.5C15.7761 7.5 16 7.72386 16 8C16 8.27614 15.7761 8.5 15.5 8.5L14.481 8.50033C14.2381 11.6913 11.6913 14.2381 8.50033 14.481L8.5 15.5C8.5 15.7761 8.27614 16 8 16C7.72386 16 7.5 15.7761 7.5 15.5L7.50067 14.4811C4.30926 14.2387 1.7619 11.6916 1.51897 8.50033L0.5 8.5C0.223858 8.5 3.38177e-17 8.27614 3.83157e-33 8C-3.38177e-17 7.72386 0.223858 7.5 0.5 7.5L1.51889 7.50067C1.76136 4.30893 4.30893 1.76136 7.50067 1.51889L7.5 0.5C7.5 0.223858 7.72386 5.07265e-17 8 8.62104e-33ZM8.50061 2.52248L8.5 4.5C8.5 4.77614 8.27614 5 8 5C7.72386 5 7.5 4.77614 7.5 4.5L7.50039 2.52239C4.86151 2.76 2.76 4.86151 2.52239 7.50039L4.5 7.5C4.77614 7.5 5 7.72386 5 8C5 8.27614 4.77614 8.5 4.5 8.5L2.52248 8.50061C2.76053 11.139 4.86184 13.24 7.50039 13.4776L7.5 11.5C7.5 11.2239 7.72386 11 8 11C8.27614 11 8.5 11.2239 8.5 11.5L8.50061 13.4775C11.1387 13.2395 13.2395 11.1387 13.4775 8.50061L11.5 8.5C11.2239 8.5 11 8.27614 11 8C11 7.72386 11.2239 7.5 11.5 7.5L13.4776 7.50039C13.24 4.86184 11.139 2.76053 8.50061 2.52248ZM8 7C8.55229 7 9 7.44772 9 8C9 8.55229 8.55229 9 8 9C7.44772 9 7 8.55229 7 8C7 7.44772 7.44772 7 8 7Z" fill="rgb(25,25,25)" fill-rule="evenodd" />
	<path id="形状结合" d="M8.5 0.5L8.50033 1.51897C11.6916 1.7619 14.2387 4.30926 14.4811 7.50067L15.5 7.5C15.7761 7.5 16 7.72386 16 8C16 8.27614 15.7761 8.5 15.5 8.5L14.481 8.50033C14.2381 11.6913 11.6913 14.2381 8.50033 14.481L8.5 15.5C8.5 15.7761 8.27614 16 8 16C7.72386 16 7.5 15.7761 7.5 15.5L7.50067 14.4811C4.30926 14.2387 1.7619 11.6916 1.51897 8.50033L0.5 8.5C0.223858 8.5 3.38177e-17 8.27614 3.83157e-33 8C-3.38177e-17 7.72386 0.223858 7.5 0.5 7.5L1.51889 7.50067C1.76136 4.30893 4.30893 1.76136 7.50067 1.51889L7.5 0.5C7.5 0.223858 7.72386 5.07265e-17 8 8.62104e-33C8.27614 -5.07265e-17 8.5 0.223858 8.5 0.5ZM8.5 4.5C8.5 4.77614 8.27614 5 8 5C7.72386 5 7.5 4.77614 7.5 4.5L7.50039 2.52239C4.86151 2.76 2.76 4.86151 2.52239 7.50039L4.5 7.5C4.77614 7.5 5 7.72386 5 8C5 8.27614 4.77614 8.5 4.5 8.5L2.52248 8.50061C2.76053 11.139 4.86184 13.24 7.50039 13.4776L7.5 11.5C7.5 11.2239 7.72386 11 8 11C8.27614 11 8.5 11.2239 8.5 11.5L8.50061 13.4775C11.1387 13.2395 13.2395 11.1387 13.4775 8.50061L11.5 8.5C11.2239 8.5 11 8.27614 11 8C11 7.72386 11.2239 7.5 11.5 7.5L13.4776 7.50039C13.24 4.86184 11.139 2.76053 8.50061 2.52248L8.5 4.5ZM9 8C9 8.55229 8.55229 9 8 9C7.44772 9 7 8.55229 7 8C7 7.44772 7.44772 7 8 7C8.55229 7 9 7.44772 9 8Z" fill-rule="evenodd" stroke="rgb(0,0,0)" stroke-opacity="0" stroke-width="1" />
</svg>
