<svg viewBox="0 0 16 16" xmlns="http://www.w3.org/2000/svg" xmlns:xlink="http://www.w3.org/1999/xlink" width="16.000000" height="16.000000" fill="none">
	<rect id="操作图标/代码仓" width="16.000000" height="16.000000" x="0.000000" y="0.000000" />
	<path id="形状结合" d="M7.5 8L7.5 7L8.5 7L8.5 8L10 8L10 9L8.5 9L8.5 11L7.5 11L7.5 9L6 9L6 8L7.5 8ZM1 15L4 15L4 16L0 16L0 5L8 0L16 5L16 16L12 16L12 15L15 15L15 5.55425L8 1.17925L1 5.55425L1 15ZM4 6L8 4L12 6C12 10.6667 10.6667 13.3333 8 14C5.33333 13.3333 4 10.6667 4 6ZM8 12.9604C9.8656 12.355 10.8918 10.3195 10.9919 6.61398L8 5.11803L5.0081 6.61398C5.10822 10.3195 6.1344 12.355 8 12.9604Z" fill="rgb(25,25,25)" fill-rule="evenodd" />
	<path id="形状结合" d="M7.5 7L8.5 7L8.5 8L10 8L10 9L8.5 9L8.5 11L7.5 11L7.5 9L6 9L6 8L7.5 8L7.5 7ZM4 15L4 16L0 16L0 5L8 0L16 5L16 16L12 16L12 15L15 15L15 5.55425L8 1.17925L1 5.55425L1 15L4 15ZM8 4L12 6C12 10.6667 10.6667 13.3333 8 14C5.33333 13.3333 4 10.6667 4 6L8 4ZM10.9919 6.61398L8 5.11803L5.0081 6.61398C5.10822 10.3195 6.1344 12.355 8 12.9604C9.8656 12.355 10.8918 10.3195 10.9919 6.61398Z" fill-rule="evenodd" stroke="rgb(0,0,0)" stroke-opacity="0" stroke-width="1" />
</svg>
