<svg viewBox="0 0 16 16" xmlns="http://www.w3.org/2000/svg" xmlns:xlink="http://www.w3.org/1999/xlink" width="16.000000" height="16.000000" fill="none">
	<rect id="操作图标/任务参数" width="16.000000" height="16.000000" x="0.000000" y="0.000000" />
	<path id="形状结合" d="M12 1C13.0544 1 13.9182 1.81588 13.9945 2.85074L14 3L14 7.5C14 7.77614 13.7761 8 13.5 8C13.2545 8 13.0504 7.82312 13.0081 7.58988L13 3C13 2.48716 12.614 2.06449 12.1166 2.00673L12 2L4 2C3.48716 2 3.06449 2.38604 3.00673 2.88338L3 3L3 13C3 13.5128 3.38604 13.9355 3.88338 13.9933L4 14L8 14C8.27614 14 8.5 14.2239 8.5 14.5C8.5 14.7455 8.32312 14.9496 8.08988 14.9919L4 15C2.94564 15 2.08183 14.1841 2.00549 13.1493L2 13L2 3C2 1.94564 2.81588 1.08183 3.85074 1.00549L4 1L12 1ZM12 12.5C12.3701 12.5 12.6932 12.701 12.8661 12.9999L14.5 13C14.7761 13 15 13.2239 15 13.5C15 13.7761 14.7761 14 14.5 14L12.8656 14.0011C12.6925 14.2994 12.3697 14.5 12 14.5C11.4477 14.5 11 14.0523 11 13.5C11 12.9477 11.4477 12.5 12 12.5ZM10 13C10.2761 13 10.5 13.2239 10.5 13.5C10.5 13.7761 10.2761 14 10 14L9.5 14C9.22386 14 9 13.7761 9 13.5C9 13.2239 9.22386 13 9.5 13L10 13ZM12 9.5C12.5523 9.5 13 9.94771 13 10.5C13 11.0523 12.5523 11.5 12 11.5C11.6303 11.5 11.3075 11.2994 11.1344 11.0011L8.5 11C8.22386 11 8 10.7761 8 10.5C8 10.2239 8.22386 10 8.5 10L11.1339 9.99987C11.3068 9.70104 11.6299 9.5 12 9.5ZM14.5 10C14.7761 10 15 10.2239 15 10.5C15 10.7761 14.7761 11 14.5 11L14 11C13.7239 11 13.5 10.7761 13.5 10.5C13.5 10.2239 13.7239 10 14 10L14.5 10ZM8.5 7C8.77614 7 9 7.22386 9 7.5C9 7.77614 8.77614 8 8.5 8L5.5 8C5.22386 8 5 7.77614 5 7.5C5 7.22386 5.22386 7 5.5 7L8.5 7ZM10.5 4C10.7761 4 11 4.22386 11 4.5C11 4.77614 10.7761 5 10.5 5L5.5 5C5.22386 5 5 4.77614 5 4.5C5 4.22386 5.22386 4 5.5 4L10.5 4Z" fill="rgb(25,25,25)" fill-rule="nonzero" />
	<path id="形状结合" d="M13.9945 2.85074L14 3L14 7.5C14 7.77614 13.7761 8 13.5 8C13.2545 8 13.0504 7.82312 13.0081 7.58988L13 3C13 2.48716 12.614 2.06449 12.1166 2.00673L12 2L4 2C3.48716 2 3.06449 2.38604 3.00673 2.88338L3 3L3 13C3 13.5128 3.38604 13.9355 3.88338 13.9933L4 14L8 14C8.27614 14 8.5 14.2239 8.5 14.5C8.5 14.7455 8.32312 14.9496 8.08988 14.9919L4 15C2.94564 15 2.08183 14.1841 2.00549 13.1493L2 13L2 3C2 1.94564 2.81588 1.08183 3.85074 1.00549L4 1L12 1C13.0544 1 13.9182 1.81588 13.9945 2.85074ZM12.8661 12.9999L14.5 13C14.7761 13 15 13.2239 15 13.5C15 13.7761 14.7761 14 14.5 14L12.8656 14.0011C12.6925 14.2994 12.3697 14.5 12 14.5C11.4477 14.5 11 14.0523 11 13.5C11 12.9477 11.4477 12.5 12 12.5C12.3701 12.5 12.6932 12.701 12.8661 12.9999ZM10.5 13.5C10.5 13.7761 10.2761 14 10 14L9.5 14C9.22386 14 9 13.7761 9 13.5C9 13.2239 9.22386 13 9.5 13L10 13C10.2761 13 10.5 13.2239 10.5 13.5ZM13 10.5C13 11.0523 12.5523 11.5 12 11.5C11.6303 11.5 11.3075 11.2994 11.1344 11.0011L8.5 11C8.22386 11 8 10.7761 8 10.5C8 10.2239 8.22386 10 8.5 10L11.1339 9.99987C11.3068 9.70104 11.6299 9.5 12 9.5C12.5523 9.5 13 9.94771 13 10.5ZM15 10.5C15 10.7761 14.7761 11 14.5 11L14 11C13.7239 11 13.5 10.7761 13.5 10.5C13.5 10.2239 13.7239 10 14 10L14.5 10C14.7761 10 15 10.2239 15 10.5ZM9 7.5C9 7.77614 8.77614 8 8.5 8L5.5 8C5.22386 8 5 7.77614 5 7.5C5 7.22386 5.22386 7 5.5 7L8.5 7C8.77614 7 9 7.22386 9 7.5ZM11 4.5C11 4.77614 10.7761 5 10.5 5L5.5 5C5.22386 5 5 4.77614 5 4.5C5 4.22386 5.22386 4 5.5 4L10.5 4C10.7761 4 11 4.22386 11 4.5Z" fill-rule="nonzero" stroke="rgb(0,0,0)" stroke-opacity="0" stroke-width="1" />
</svg>
