<svg viewBox="0 0 16 16" xmlns="http://www.w3.org/2000/svg" xmlns:xlink="http://www.w3.org/1999/xlink" width="16.000000" height="16.000000" fill="none">
	<rect id="操作图标/会议" width="16.000000" height="16.000000" x="0.000000" y="0.000000" />
	<path id="形状结合" d="M10 2C11.1046 2 12 2.89543 12 4L12 4.565L12.6679 4.12044C13.3167 3.68794 14.1798 3.8275 14.6622 4.42008L14.7481 4.53647C14.9123 4.78287 15 5.07238 15 5.36852L15 10.6315C15 11.4599 14.3284 12.1315 13.5 12.1315C13.2039 12.1315 12.9144 12.0438 12.6679 11.8796L12 11.434L12 12C12 13.0544 11.1841 13.9182 10.1493 13.9945L10 14L3 14C1.89543 14 1 13.1046 1 12L1 4C1 2.89543 1.89543 2 3 2L10 2ZM10 3L3 3C2.44772 3 2 3.44772 2 4L2 12C2 12.5523 2.44772 13 3 13L10 13C10.5523 13 11 12.5523 11 12L11 10.5C11 10.1007 11.4451 9.86246 11.7774 10.084L13.2226 11.0475C13.3048 11.1023 13.4013 11.1315 13.5 11.1315C13.7761 11.1315 14 10.9076 14 10.6315L14 5.36852C14 5.2698 13.9708 5.1733 13.916 5.09117C13.7628 4.8614 13.4524 4.79932 13.2226 4.95249L11.7774 5.91603C11.4451 6.13754 11 5.89935 11 5.5L11 4C11 3.44772 10.5523 3 10 3ZM6 5.40212C6.18742 5.40212 6.37107 5.45479 6.53 5.55413L9.0866 7.152C9.55494 7.44471 9.69731 8.06166 9.4046 8.53C9.32412 8.65877 9.21537 8.76752 9.0866 8.848L6.53 10.4459C6.06166 10.7386 5.44471 10.5962 5.152 10.1279C5.05267 9.96894 5 9.7853 5 9.59788L5 6.40212C5 5.84984 5.44772 5.40212 6 5.40212ZM6 6.40212L6 9.59788L8.555 7.999L6 6.40212Z" fill="rgb(25,25,25)" fill-rule="evenodd" />
	<path id="形状结合" d="M12 4L12 4.565L12.6679 4.12044C13.3167 3.68794 14.1798 3.8275 14.6622 4.42008L14.7481 4.53647C14.9123 4.78287 15 5.07238 15 5.36852L15 10.6315C15 11.4599 14.3284 12.1315 13.5 12.1315C13.2039 12.1315 12.9144 12.0438 12.6679 11.8796L12 11.434L12 12C12 13.0544 11.1841 13.9182 10.1493 13.9945L10 14L3 14C1.89543 14 1 13.1046 1 12L1 4C1 2.89543 1.89543 2 3 2L10 2C11.1046 2 12 2.89543 12 4ZM3 3C2.44772 3 2 3.44772 2 4L2 12C2 12.5523 2.44772 13 3 13L10 13C10.5523 13 11 12.5523 11 12L11 10.5C11 10.1007 11.4451 9.86246 11.7774 10.084L13.2226 11.0475C13.3048 11.1023 13.4013 11.1315 13.5 11.1315C13.7761 11.1315 14 10.9076 14 10.6315L14 5.36852C14 5.2698 13.9708 5.1733 13.916 5.09117C13.7628 4.8614 13.4524 4.79932 13.2226 4.95249L11.7774 5.91603C11.4451 6.13754 11 5.89935 11 5.5L11 4C11 3.44772 10.5523 3 10 3L3 3ZM6.53 5.55413L9.0866 7.152C9.55494 7.44471 9.69731 8.06166 9.4046 8.53C9.32412 8.65877 9.21537 8.76752 9.0866 8.848L6.53 10.4459C6.06166 10.7386 5.44471 10.5962 5.152 10.1279C5.05267 9.96894 5 9.7853 5 9.59788L5 6.40212C5 5.84984 5.44772 5.40212 6 5.40212C6.18742 5.40212 6.37107 5.45479 6.53 5.55413ZM6 9.59788L8.555 7.999L6 6.40212L6 9.59788Z" fill-rule="evenodd" stroke="rgb(0,0,0)" stroke-opacity="0" stroke-width="1" />
</svg>
