<svg viewBox="0 0 16 16" xmlns="http://www.w3.org/2000/svg" xmlns:xlink="http://www.w3.org/1999/xlink" width="16.000000" height="16.000000" fill="none">
	<rect id="操作图标/作者" width="16.000000" height="16.000000" x="0.000000" y="0.000000" />
	<path id="形状结合" d="M15.3536 8.64645C15.5271 8.82001 15.5464 9.08944 15.4114 9.28431L13.8332 10.8739C13.6477 11.0594 13.469 11.2381 13.2972 11.4099L11.3955 13.3116C11.3862 13.3209 11.1365 13.3349 10.6464 13.3536L10.7569 12.5555L14.6464 8.64645C14.8417 8.45119 15.1583 8.45119 15.3536 8.64645ZM8 2C9.65685 2 11 3.34315 11 5C11 5.95581 10.553 6.80722 9.85667 7.35659C10.941 7.79011 11.838 8.59275 12.3925 9.60924L11.6469 10.3543C11.0194 8.96603 9.62251 8 8 8C5.79086 8 4 9.79086 4 12L3 12C3 9.89452 4.30139 8.093 6.14367 7.35594C5.44699 6.80722 5 5.95581 5 5C5 3.34315 6.34315 2 8 2ZM8 3C6.89543 3 6 3.89543 6 5C6 6.10457 6.89543 7 8 7C9.10457 7 10 6.10457 10 5C10 3.89543 9.10457 3 8 3Z" fill="rgb(25,25,25)" fill-rule="evenodd" />
	<path id="形状结合" d="M15.4114 9.28431L13.8332 10.8739C13.6477 11.0594 13.469 11.2381 13.2972 11.4099L11.3955 13.3116C11.3862 13.3209 11.1365 13.3349 10.6464 13.3536L10.7569 12.5555L14.6464 8.64645C14.8417 8.45119 15.1583 8.45119 15.3536 8.64645C15.5271 8.82001 15.5464 9.08944 15.4114 9.28431ZM11 5C11 5.95581 10.553 6.80722 9.85667 7.35659C10.941 7.79011 11.838 8.59275 12.3925 9.60924L11.6469 10.3543C11.0194 8.96603 9.62251 8 8 8C5.79086 8 4 9.79086 4 12L3 12C3 9.89452 4.30139 8.093 6.14367 7.35594C5.44699 6.80722 5 5.95581 5 5C5 3.34315 6.34315 2 8 2C9.65685 2 11 3.34315 11 5ZM6 5C6 6.10457 6.89543 7 8 7C9.10457 7 10 6.10457 10 5C10 3.89543 9.10457 3 8 3C6.89543 3 6 3.89543 6 5Z" fill-rule="evenodd" stroke="rgb(0,0,0)" stroke-opacity="0" stroke-width="1" />
</svg>
