<svg viewBox="0 0 16 16" xmlns="http://www.w3.org/2000/svg" xmlns:xlink="http://www.w3.org/1999/xlink" width="16.000000" height="16.000000" fill="none">
	<rect id="操作图标/侧边窗口" width="16.000000" height="16.000000" x="0.000000" y="0.000000" />
	<g id="sidebar">
		<path id="矢量 798" d="M14 4C14 2.89542 13.1045 2 12 2L4 2C2.89551 2 2 2.89542 2 4L2 12C2 13.1046 2.89551 14 4 14L12 14C13.1045 14 14 13.1046 14 12L14 4ZM10.3459 13L10.3459 3L12 3C12.5522 3 13 3.44772 13 4L13 12C13 12.5523 12.5522 13 12 13L10.3459 13ZM9.34595 3L9.34595 13L4 13C3.44775 13 3 12.5523 3 12L3 4C3 3.44772 3.44775 3 4 3L9.34595 3Z" fill="rgb(25,25,25)" fill-rule="nonzero" />
	</g>
</svg>
