<svg viewBox="0 0 16 16" xmlns="http://www.w3.org/2000/svg" xmlns:xlink="http://www.w3.org/1999/xlink" width="16.000000" height="16.000000" fill="none">
	<rect id="操作图标/全屏" width="16.000000" height="16.000000" x="0.000000" y="0.000000" />
	<path id="形状结合" d="M15 1.5L15 6.5C15 6.77614 14.7761 7 14.5 7C14.2239 7 14 6.77614 14 6.5L13.9997 2.70241L9.83753 6.86584C9.66396 7.03941 9.36497 7.02182 9.16971 6.82656C8.97444 6.6313 8.95686 6.3323 9.13042 6.15874L13.2883 1.99955L9.5 2C9.22386 2 9 1.77614 9 1.5C9 1.22386 9.22386 1 9.5 1L14.5 1C14.7761 1 15 1.22386 15 1.5ZM1 14.5L1 9.5C1 9.22386 1.22386 9 1.5 9C1.77614 9 2 9.22386 2 9.5L2.0003 13.2976L6.16247 9.13416C6.33604 8.96059 6.63503 8.97818 6.83029 9.17344C7.02556 9.3687 7.04314 9.6677 6.86958 9.84126L2.71165 14.0005L6.5 14C6.77614 14 7 14.2239 7 14.5C7 14.7761 6.77614 15 6.5 15L1.5 15C1.22386 15 1 14.7761 1 14.5Z" fill="rgb(25,25,25)" fill-rule="evenodd" />
	<path id="形状结合" d="M15 6.5C15 6.77614 14.7761 7 14.5 7C14.2239 7 14 6.77614 14 6.5L13.9997 2.70241L9.83753 6.86584C9.66396 7.03941 9.36497 7.02182 9.16971 6.82656C8.97444 6.6313 8.95686 6.3323 9.13042 6.15874L13.2883 1.99955L9.5 2C9.22386 2 9 1.77614 9 1.5C9 1.22386 9.22386 1 9.5 1L14.5 1C14.7761 1 15 1.22386 15 1.5L15 6.5ZM1 9.5C1 9.22386 1.22386 9 1.5 9C1.77614 9 2 9.22386 2 9.5L2.0003 13.2976L6.16247 9.13416C6.33604 8.96059 6.63503 8.97818 6.83029 9.17344C7.02556 9.3687 7.04314 9.6677 6.86958 9.84126L2.71165 14.0005L6.5 14C6.77614 14 7 14.2239 7 14.5C7 14.7761 6.77614 15 6.5 15L1.5 15C1.22386 15 1 14.7761 1 14.5L1 9.5Z" fill-rule="evenodd" stroke="rgb(0,0,0)" stroke-opacity="0" stroke-width="1" />
</svg>
