<svg viewBox="0 0 16 16" xmlns="http://www.w3.org/2000/svg" xmlns:xlink="http://www.w3.org/1999/xlink" width="16.000000" height="16.000000" fill="none">
	<rect id="操作图标/关联缺陷(associated-defect)" width="16.000000" height="16.000000" x="0.000000" y="0.000000" />
	<path id="形状结合" d="M10.8253 11.4701L11.6445 12.0436L11.0671 12.8699C10.773 13.29 10.8467 13.8576 11.221 14.1902L11.3127 14.2626C11.7328 14.5568 12.3004 14.483 12.633 14.1087L12.7054 14.0171L13.2828 13.1908L14.1019 13.7644L13.5246 14.5906C12.891 15.4954 11.6439 15.7153 10.7391 15.0818C9.87542 14.477 9.63581 13.3132 10.1668 12.4217L10.248 12.2963L10.8253 11.4701ZM8.5 0.5C10.1569 0.5 11.5 1.84315 11.5 3.5C11.5 3.86012 11.4365 4.20543 11.3202 4.52534C11.6536 4.79349 11.9585 5.10894 12.2279 5.46409L14.1464 3.54645C14.3417 3.35118 14.6583 3.35118 14.8536 3.54645C15.0271 3.72001 15.0464 3.98944 14.9114 4.18431L14.8536 4.25355L12.774 6.33257C12.981 6.7344 13.1491 7.16902 13.2715 7.62974C13.3424 7.89662 13.1835 8.17045 12.9166 8.24135C12.6497 8.31225 12.3759 8.15338 12.305 7.88649C11.7698 5.87205 10.23 4.5 8.5 4.5C6.31308 4.5 4.5 6.6757 4.5 9.4C4.5 11.9138 6.04367 13.9604 8.00033 14.2618L8 6C8 5.72386 8.22386 5.5 8.5 5.5C8.74546 5.5 8.94961 5.67688 8.99194 5.91012L9 6L9 14.8C9 15.0455 8.82312 15.2496 8.58988 15.2919L8.5 15.3C6.92869 15.3 5.53814 14.4525 4.62495 13.1315L2.90355 14.8536C2.70829 15.0488 2.39171 15.0488 2.19645 14.8536C2.02288 14.68 2.0036 14.4106 2.13859 14.2157L2.19645 14.1464L4.11176 12.232C3.80507 11.5704 3.60277 10.8327 3.53006 10.0505L1.5 10.05C1.22386 10.05 1 9.82614 1 9.55C1 9.30454 1.17688 9.10039 1.41012 9.05806L1.5 9.05L3.50864 9.0503C3.55767 8.06118 3.81331 7.13492 4.22667 6.33316L2.14645 4.25355C1.95118 4.05829 1.95118 3.74171 2.14645 3.54645C2.32001 3.37288 2.58944 3.3536 2.78431 3.48859L2.85355 3.54645L4.7722 5.46501C5.04091 5.11027 5.34563 4.79398 5.6799 4.52428L5.68536 4.54026C5.56556 4.21677 5.5 3.86604 5.5 3.5C5.5 1.84315 6.84315 0.5 8.5 0.5ZM13.6094 10.9791C13.8356 11.1375 13.8906 11.4492 13.7322 11.6754L12.5851 13.3137C12.4267 13.5399 12.1149 13.5949 11.8887 13.4365C11.6625 13.2781 11.6075 12.9664 11.7659 12.7402L12.9131 11.1018C13.0715 10.8756 13.3832 10.8207 13.6094 10.9791ZM14.6287 9.2666L14.7541 9.34772C15.6178 9.95247 15.8574 11.1163 15.3264 12.0078L15.2453 12.1332L14.6755 12.9452L13.8564 12.3716L14.4261 11.5596C14.7203 11.1395 14.6465 10.5718 14.2722 10.2393L14.1806 10.1669C13.7605 9.87272 13.1928 9.94651 12.8602 10.3208L12.7878 10.4124L12.218 11.2245L11.3989 10.6509L11.9687 9.83887C12.5734 8.97518 13.7372 8.73557 14.6287 9.2666ZM8.5 1.5C7.39543 1.5 6.5 2.39543 6.5 3.5C6.5 3.65971 6.51872 3.81505 6.55409 3.96394C7.15012 3.6646 7.8075 3.5 8.5 3.5C9.18722 3.5 9.8451 3.66378 10.445 3.96215C10.4806 3.82056 10.5 3.66254 10.5 3.5C10.5 2.39543 9.60457 1.5 8.5 1.5Z" fill="rgb(25,25,25)" fill-rule="nonzero" />
</svg>
