<svg viewBox="0 0 16 16" xmlns="http://www.w3.org/2000/svg" xmlns:xlink="http://www.w3.org/1999/xlink" width="16.000000" height="16.000000" fill="none">
	<rect id="操作图标/创建合并请求" width="16.000000" height="16.000000" x="0.000000" y="0.000000" />
	<path id="形状结合" d="M2.5 1C3.60457 1 4.5 1.89543 4.5 3C4.5 3.93155 3.86312 4.71435 3.00102 4.93673L3.00102 11.0633C3.86312 11.2856 4.5 12.0684 4.5 13C4.5 14.1046 3.60457 15 2.5 15C1.39543 15 0.5 14.1046 0.5 13C0.5 12.0681 1.13738 11.285 1.99998 11.063L1.99998 4.93699C1.13738 4.71496 0.5 3.93191 0.5 3C0.5 1.89543 1.39543 1 2.5 1ZM2.5 12C1.94772 12 1.5 12.4477 1.5 13C1.5 13.5523 1.94772 14 2.5 14C3.05228 14 3.5 13.5523 3.5 13C3.5 12.4477 3.05228 12 2.5 12ZM8.5 11C9.05229 11 9.5 11.4477 9.5 12C9.5 12.5523 9.05229 13 8.5 13C7.94772 13 7.5 12.5523 7.5 12C7.5 11.4477 7.94772 11 8.5 11ZM14.5 11C15.0523 11 15.5 11.4477 15.5 12C15.5 12.5523 15.0523 13 14.5 13C13.9477 13 13.5 12.5523 13.5 12C13.5 11.4477 13.9477 11 14.5 11ZM11.5 11C12.0523 11 12.5 11.4477 12.5 12C12.5 12.5523 12.0523 13 11.5 13C10.9477 13 10.5 12.5523 10.5 12C10.5 11.4477 10.9477 11 11.5 11ZM8.5 1L8.5 2.5L10.5 2.5C11.8255 2.5 12.91 3.53154 12.9947 4.83562L13 5L13.001 9L11.999 9L12 5C12 4.2203 11.4051 3.57955 10.6445 3.50687L10.5 3.5L8.5 3.5L8.5 5L5.5 3L8.5 1ZM2.5 2C1.94772 2 1.5 2.44772 1.5 3C1.5 3.55228 1.94772 4 2.5 4C3.05228 4 3.5 3.55228 3.5 3C3.5 2.44772 3.05228 2 2.5 2Z" fill="rgb(25,25,25)" fill-rule="evenodd" />
	<path id="形状结合" d="M4.5 3C4.5 3.93155 3.86312 4.71435 3.00102 4.93673L3.00102 11.0633C3.86312 11.2856 4.5 12.0684 4.5 13C4.5 14.1046 3.60457 15 2.5 15C1.39543 15 0.5 14.1046 0.5 13C0.5 12.0681 1.13738 11.285 1.99998 11.063L1.99998 4.93699C1.13738 4.71496 0.5 3.93191 0.5 3C0.5 1.89543 1.39543 1 2.5 1C3.60457 1 4.5 1.89543 4.5 3ZM1.5 13C1.5 13.5523 1.94772 14 2.5 14C3.05228 14 3.5 13.5523 3.5 13C3.5 12.4477 3.05228 12 2.5 12C1.94772 12 1.5 12.4477 1.5 13ZM9.5 12C9.5 12.5523 9.05229 13 8.5 13C7.94772 13 7.5 12.5523 7.5 12C7.5 11.4477 7.94772 11 8.5 11C9.05229 11 9.5 11.4477 9.5 12ZM15.5 12C15.5 12.5523 15.0523 13 14.5 13C13.9477 13 13.5 12.5523 13.5 12C13.5 11.4477 13.9477 11 14.5 11C15.0523 11 15.5 11.4477 15.5 12ZM12.5 12C12.5 12.5523 12.0523 13 11.5 13C10.9477 13 10.5 12.5523 10.5 12C10.5 11.4477 10.9477 11 11.5 11C12.0523 11 12.5 11.4477 12.5 12ZM8.5 2.5L10.5 2.5C11.8255 2.5 12.91 3.53154 12.9947 4.83562L13 5L13.001 9L11.999 9L12 5C12 4.2203 11.4051 3.57955 10.6445 3.50687L10.5 3.5L8.5 3.5L8.5 5L5.5 3L8.5 1L8.5 2.5ZM1.5 3C1.5 3.55228 1.94772 4 2.5 4C3.05228 4 3.5 3.55228 3.5 3C3.5 2.44772 3.05228 2 2.5 2C1.94772 2 1.5 2.44772 1.5 3Z" fill-rule="evenodd" stroke="rgb(0,0,0)" stroke-opacity="0" stroke-width="1" />
</svg>
