<svg viewBox="0 0 16 16" xmlns="http://www.w3.org/2000/svg" xmlns:xlink="http://www.w3.org/1999/xlink" width="16.000000" height="16.000000" fill="none" customFrame="#000000">
	<rect id="操作图标/刷新" width="16.000000" height="16.000000" x="0.000000" y="0.000000" fill="rgb(255,255,255)" fill-opacity="0" />
	<path id="形状结合" d="M1.02726 5.23133C0.878178 5.60661 0.760012 5.99416 0.672755 6.394C0.613056 6.66756 0.78109 6.92941 1.05465 6.98911C1.32821 7.04881 1.59006 6.88077 1.64976 6.60721C1.7248 6.26337 1.82625 5.92999 1.95412 5.60707C2.09501 5.25129 2.26798 4.90817 2.47301 4.57778C2.65884 4.27833 2.86593 3.99737 3.09428 3.73491C3.33778 3.45503 3.60545 3.19617 3.8973 2.95835C4.20705 2.70594 4.53421 2.48528 4.87877 2.29637C5.16847 2.13754 5.47049 2.00114 5.78479 1.8872C6.08192 1.77949 6.38365 1.69425 6.68998 1.63148C7.11777 1.54383 7.55455 1.5 8.0003 1.5C8.43569 1.5 8.8627 1.54188 9.28134 1.62564C9.57247 1.6839 9.85972 1.76244 10.1427 1.86121C10.4465 1.9672 10.7392 2.09421 11.0208 2.24222C11.3577 2.41925 11.6789 2.6264 11.9841 2.86353C12.2668 3.08314 12.5283 3.32246 12.7684 3.58151C12.9998 3.8311 13.2115 4.09909 13.4034 4.38529C13.6161 4.70264 13.7985 5.03342 13.9503 5.37763C14.0397 5.58012 14.1188 5.78821 14.1871 6L11.5 6C11.22 6 11 6.22 11 6.5C11 6.78 11.22 7 11.5 7L15 7C15.0713 7 15.1411 6.99271 15.2093 6.97814C15.2706 6.96504 15.3306 6.94606 15.3894 6.92121C15.4474 6.89667 15.5022 6.86727 15.5537 6.83299C15.6085 6.79654 15.6596 6.75457 15.7071 6.70711C15.7546 6.65964 15.7965 6.60851 15.833 6.55371C15.8672 6.5022 15.8967 6.44739 15.9212 6.3894C15.9461 6.33063 15.965 6.2706 15.9781 6.20932C15.9927 6.14111 16 6.07133 16 6L16 2.5C16 2.22 15.78 2 15.5 2C15.22 2 15 2.22 15 2.5L15 5.30006C14.9563 5.18661 14.9099 5.07437 14.8607 4.96335C14.6863 4.56984 14.4773 4.19138 14.234 3.82842C14.0122 3.49756 13.7675 3.18791 13.4999 2.8995C13.2235 2.60164 12.9227 2.32639 12.5976 2.07381C12.2492 1.80316 11.8829 1.56641 11.4987 1.36357C11.1696 1.18987 10.8275 1.04103 10.4722 0.917047C10.1359 0.799686 9.79475 0.707096 9.44873 0.639275C8.97506 0.546441 8.49217 0.5 8.0003 0.5C7.49604 0.5 7.00156 0.548705 6.51687 0.646116C6.15377 0.719095 5.7961 0.819421 5.44398 0.94707C5.07654 1.08027 4.72372 1.24001 4.3855 1.42627C3.99255 1.6427 3.61909 1.89508 3.26559 2.18314C2.9305 2.4562 2.62304 2.75332 2.34321 3.07452C2.07853 3.37831 1.83857 3.70363 1.62333 4.05049C1.38808 4.42957 1.18938 4.8232 1.02726 5.23133ZM0 9.5L0 13C0 13.28 0.22 13.5 0.5 13.5C0.78 13.5 1 13.28 1 13L1 10.699C1.16216 11.1071 1.38841 11.571 1.62368 11.9501C1.83894 12.2969 2.0789 12.6221 2.34356 12.9259C2.6234 13.247 2.93087 13.5441 3.26594 13.8171C3.6195 14.1052 3.99278 14.3575 4.38579 14.5739C4.72398 14.7601 5.07678 14.9198 5.4442 15.053C5.79627 15.1806 6.15384 15.2809 6.51689 15.3539C7.00157 15.4513 7.49604 15.5 8.0003 15.5C8.49221 15.5 8.97502 15.4536 9.44874 15.3607C9.79483 15.2929 10.1363 15.2002 10.4727 15.0828C10.828 14.9588 11.1701 14.8099 11.4992 14.6362C11.8834 14.4332 12.2499 14.1964 12.5983 13.9256C12.9235 13.6729 13.2244 13.3976 13.5008 13.0995C13.7682 12.8112 14.0131 12.5012 14.2347 12.1705C14.478 11.8075 14.6868 11.4292 14.8611 11.0357C15.0151 10.6879 15.1422 10.3282 15.2424 9.95653C15.3153 9.68618 15.1601 9.4165 14.8898 9.34363C14.6194 9.27076 14.3497 9.42592 14.2769 9.69627C14.191 10.0147 14.0823 10.3231 13.9508 10.6214C13.799 10.9656 13.6167 11.2964 13.404 11.6137C13.2122 11.9 13.0006 12.168 12.7692 12.4177C12.529 12.6768 12.2675 12.9163 11.9847 13.136C11.6794 13.3732 11.3583 13.5804 11.0214 13.7575C10.7397 13.9056 10.4469 14.0326 10.1431 14.1387C9.85999 14.2375 9.5728 14.316 9.28156 14.3743C8.86285 14.4581 8.43577 14.5 8.0003 14.5C7.5546 14.5 7.11788 14.4562 6.69014 14.3686C6.38382 14.3058 6.0821 14.2206 5.78498 14.1129C5.47069 13.9989 5.16871 13.8626 4.87903 13.7038C4.53448 13.5149 4.20734 13.2943 3.8976 13.0419C3.60576 12.8041 3.3381 12.5453 3.09459 12.2655C2.86635 12.0031 2.65909 11.722 2.47332 11.4227C2.26839 11.0925 2.09548 10.7497 1.9546 10.3941C1.84 10.1048 1.74627 9.80616 1.67409 9.5L4.5 9.5C4.78 9.5 5 9.28 5 9C5 8.72 4.78 8.5 4.5 8.5L1 8.5C0.928665 8.5 0.858887 8.50729 0.790667 8.52187C0.729389 8.53496 0.669367 8.55394 0.610602 8.57879C0.55259 8.60333 0.497818 8.63274 0.446287 8.66702C0.391492 8.70347 0.340361 8.74543 0.292893 8.79289C0.245423 8.84036 0.203462 8.8915 0.167009 8.9463C0.132732 8.99782 0.103326 9.05259 0.0787907 9.1106C0.0539351 9.16937 0.0349603 9.22939 0.0218663 9.29067C0.00728876 9.35889 0 9.42866 0 9.5Z" fill="rgb(25,25,25)" fill-rule="evenodd" />
</svg>
