<svg viewBox="0 0 16 16" xmlns="http://www.w3.org/2000/svg" xmlns:xlink="http://www.w3.org/1999/xlink" width="16.000000" height="16.000000" fill="none">
	<rect id="操作图标/前一步(undo)" width="16.000000" height="16.000000" x="0.000000" y="0.000000" />
	<path id="矢量 831" d="M5.3457 8.74926L0.636719 5.25366C0.566406 5.20141 0.503906 5.14233 0.451172 5.07623C0.40625 5.01922 0.367188 4.95703 0.333984 4.88964C0.300781 4.8236 0.277344 4.75573 0.259766 4.68603L0.259766 4.68603C0.242188 4.6098 0.232422 4.53137 0.232422 4.45068C0.232422 4.36999 0.242188 4.29156 0.259766 4.21527L0.259766 4.21527C0.277344 4.14557 0.300781 4.07769 0.333984 4.01172C0.367188 3.94433 0.40625 3.88214 0.451172 3.82513L0.451172 3.82513C0.503906 3.75903 0.566406 3.69989 0.636719 3.6477L5.3457 0.1521C5.57031 -0.0148315 5.87891 0.0307007 6.04492 0.255554C6.21289 0.480346 6.16602 0.788146 5.94141 0.955016L1.90625 3.9508L10.4902 3.9508C10.8926 3.9508 11.2852 3.9934 11.668 4.07873L11.668 4.07873C11.9844 4.14886 12.293 4.24786 12.5938 4.37573C12.9004 4.50482 13.1895 4.65899 13.4609 4.83819C13.7656 5.03875 14.0488 5.27063 14.3125 5.53387C14.5762 5.79705 14.8066 6.08093 15.0078 6.38543L15.0078 6.38543C15.1875 6.65771 15.3418 6.94647 15.4707 7.2517C15.5977 7.55395 15.6973 7.86266 15.7676 8.17773C15.8535 8.56091 15.8965 8.95361 15.8965 9.35571C15.8965 9.7578 15.8535 10.1504 15.7676 10.5336C15.6973 10.8486 15.5977 11.1573 15.4707 11.4597C15.3418 11.7649 15.1875 12.0536 15.0078 12.3258C14.8066 12.6304 14.5762 12.9143 14.3125 13.1775C14.0488 13.4408 13.7656 13.6726 13.4609 13.8732L13.4609 13.8732C13.1895 14.0524 12.9004 14.2065 12.5938 14.3357C12.293 14.4635 11.9844 14.5625 11.668 14.6327C11.2852 14.718 10.8926 14.7606 10.4902 14.7606L6.35156 14.7606C6.07031 14.7606 5.85156 14.5406 5.85156 14.2606C5.85156 13.9806 6.07031 13.7606 6.35156 13.7606L10.4902 13.7606C10.8242 13.7606 11.1523 13.7245 11.4688 13.6522L11.4688 13.6522C11.7207 13.5954 11.9648 13.5162 12.2051 13.4147C12.4512 13.3109 12.6836 13.1872 12.9023 13.0436C13.1543 12.8788 13.3887 12.6877 13.6055 12.4704C13.8223 12.2532 14.0137 12.0187 14.1777 11.7671C14.3223 11.5477 14.4453 11.3154 14.5488 11.0702C14.6504 10.8301 14.7305 10.5848 14.7871 10.3346C14.8594 10.0165 14.8965 9.69018 14.8965 9.35571C14.8965 9.02111 14.8594 8.69482 14.7871 8.3767C14.7305 8.12646 14.6504 7.88134 14.5488 7.64123C14.4453 7.39587 14.3223 7.16351 14.1777 6.94421C14.0137 6.69262 13.8223 6.45819 13.6055 6.24096C13.3887 6.02368 13.1543 5.83264 12.9023 5.66784C12.6836 5.52423 12.4512 5.40051 12.2051 5.29675C11.9648 5.19519 11.7207 5.11602 11.4688 5.0592C11.1523 4.98693 10.8242 4.9508 10.4902 4.9508L1.90625 4.9508L5.94141 7.94628C6.16602 8.11315 6.21289 8.42101 6.04492 8.64575C5.87891 8.8706 5.57031 8.91613 5.3457 8.74926Z" fill="rgb(25,25,25)" fill-rule="evenodd" />
</svg>
