<svg viewBox="0 0 16 16" xmlns="http://www.w3.org/2000/svg" xmlns:xlink="http://www.w3.org/1999/xlink" width="16.000000" height="16.000000" fill="none">
	<rect id="操作图标/合并请求" width="16.000000" height="16.000000" x="0.000000" y="0.000000" />
	<path id="形状结合" d="M3 1C4.10457 1 5 1.89543 5 3C5 3.93155 4.36312 4.71435 3.50102 4.93673L3.50102 11.0633C4.36312 11.2856 5 12.0684 5 13C5 14.1046 4.10457 15 3 15C1.89543 15 1 14.1046 1 13C1 12.0681 1.63738 11.285 2.49998 11.063L2.49998 4.93699C1.63738 4.71496 1 3.93191 1 3C1 1.89543 1.89543 1 3 1ZM9 1L9 2.5L11 2.5C12.3255 2.5 13.41 3.53154 13.4947 4.83562L13.5 5L13.501 11.0633C14.3631 11.2856 15 12.0684 15 13C15 14.1046 14.1046 15 13 15C11.8954 15 11 14.1046 11 13C11 12.0681 11.6374 11.285 12.5 11.063L12.5 5C12.5 4.2203 11.9051 3.57955 11.1445 3.50687L11 3.5L9 3.5L9 5L6 3L9 1ZM13 12C12.4477 12 12 12.4477 12 13C12 13.5523 12.4477 14 13 14C13.5523 14 14 13.5523 14 13C14 12.4477 13.5523 12 13 12ZM3 12C2.44772 12 2 12.4477 2 13C2 13.5523 2.44772 14 3 14C3.55228 14 4 13.5523 4 13C4 12.4477 3.55228 12 3 12ZM3 2C2.44772 2 2 2.44772 2 3C2 3.55228 2.44772 4 3 4C3.55228 4 4 3.55228 4 3C4 2.44772 3.55228 2 3 2Z" fill="rgb(25,25,25)" fill-rule="evenodd" />
	<path id="形状结合" d="M5 3C5 3.93155 4.36312 4.71435 3.50102 4.93673L3.50102 11.0633C4.36312 11.2856 5 12.0684 5 13C5 14.1046 4.10457 15 3 15C1.89543 15 1 14.1046 1 13C1 12.0681 1.63738 11.285 2.49998 11.063L2.49998 4.93699C1.63738 4.71496 1 3.93191 1 3C1 1.89543 1.89543 1 3 1C4.10457 1 5 1.89543 5 3ZM9 2.5L11 2.5C12.3255 2.5 13.41 3.53154 13.4947 4.83562L13.5 5L13.501 11.0633C14.3631 11.2856 15 12.0684 15 13C15 14.1046 14.1046 15 13 15C11.8954 15 11 14.1046 11 13C11 12.0681 11.6374 11.285 12.5 11.063L12.5 5C12.5 4.2203 11.9051 3.57955 11.1445 3.50687L11 3.5L9 3.5L9 5L6 3L9 1L9 2.5ZM12 13C12 13.5523 12.4477 14 13 14C13.5523 14 14 13.5523 14 13C14 12.4477 13.5523 12 13 12C12.4477 12 12 12.4477 12 13ZM2 13C2 13.5523 2.44772 14 3 14C3.55228 14 4 13.5523 4 13C4 12.4477 3.55228 12 3 12C2.44772 12 2 12.4477 2 13ZM2 3C2 3.55228 2.44772 4 3 4C3.55228 4 4 3.55228 4 3C4 2.44772 3.55228 2 3 2C2.44772 2 2 2.44772 2 3Z" fill-rule="evenodd" stroke="rgb(0,0,0)" stroke-opacity="0" stroke-width="1" />
</svg>
