<svg viewBox="0 0 16 16" xmlns="http://www.w3.org/2000/svg" xmlns:xlink="http://www.w3.org/1999/xlink" width="16.000000" height="16.000000" fill="none">
	<rect id="操作图标/图钉" width="16.000000" height="16.000000" x="0.000000" y="0.000000" />
	<path id="形状结合" d="M11.0146 3.12949L11.916 1.77735C11.9434 1.73628 11.9642 1.69213 11.9785 1.64489C11.9821 1.62074 12 1.52467 12 1.5C12 1.43096 11.9878 1.36698 11.9634 1.30806C11.939 1.24913 11.9024 1.19526 11.8536 1.14645C11.8047 1.09763 11.7509 1.06102 11.6919 1.03661C11.633 1.01221 11.569 1 11.5 1L4.5 1C4.45064 1 4.40235 1.00715 4.35511 1.02145C4.30787 1.03576 4.26372 1.0566 4.22265 1.08397C4.16521 1.12227 4.11874 1.16791 4.08325 1.22091C4.04776 1.2739 4.02325 1.33425 4.00971 1.40194C3.99617 1.46964 3.99559 1.53477 4.00797 1.59734C4.02034 1.6599 4.04568 1.71991 4.08397 1.77735L4.9854 3.12949L4.51418 8.07734L3.08397 10.2226C3.0566 10.2637 3.03576 10.3079 3.02145 10.3551C3.00715 10.4023 3 10.4506 3 10.5C3 10.569 3.0122 10.633 3.03661 10.6919C3.06102 10.7509 3.09763 10.8047 3.14645 10.8536C3.19526 10.9024 3.24913 10.939 3.30806 10.9634C3.36698 10.9878 3.43096 11 3.5 11L7.49996 11L7.49996 14.5C7.49996 14.7761 7.72382 15 7.99996 15C8.2761 15 8.49996 14.7761 8.49996 14.5L8.49996 11L12.5 11C12.5494 11 12.5977 10.9928 12.6449 10.9785C12.6921 10.9642 12.7363 10.9434 12.7774 10.916C12.8922 10.8394 12.9632 10.7334 12.9903 10.5981C13.0174 10.4627 12.9926 10.3375 12.916 10.2226L11.4858 8.07734L11.0146 3.12949ZM7.99996 10L11.5657 10L10.584 8.52735C10.5611 8.49299 10.5427 8.45635 10.5289 8.41744C10.515 8.37853 10.5062 8.33852 10.5023 8.29741L10.0023 3.0474C9.9968 2.99019 10.0011 2.93372 10.0151 2.87798C10.0291 2.82225 10.0521 2.77047 10.084 2.72265L10.5657 2L5.43426 2L5.91603 2.72265C5.94791 2.77047 5.97086 2.82225 5.98488 2.87798C5.99891 2.93372 6.0032 2.99019 5.99775 3.0474L5.49775 8.2974C5.49383 8.33852 5.48496 8.37853 5.47113 8.41744C5.4573 8.45635 5.43893 8.49299 5.41603 8.52735L4.43426 10L7.99996 10Z" fill="rgb(25,25,25)" fill-rule="evenodd" />
</svg>
