<svg viewBox="0 0 16 16" xmlns="http://www.w3.org/2000/svg" xmlns:xlink="http://www.w3.org/1999/xlink" width="16.000000" height="16.000000" fill="none" customFrame="#000000">
	<rect id="操作图标/地图" width="16.000000" height="16.000000" x="0.000000" y="0.000000" fill="rgb(255,255,255)" fill-opacity="0" />
	<path id="形状结合" d="M5.14696 2.59158L2.45033 1.23149C1.78523 0.896034 1 1.37944 1 2.12435L1 12.3492C1 12.7448 1.23329 13.1033 1.59507 13.2635L5.1647 14.8444C5.39092 14.9445 5.64624 14.9573 5.88133 14.8802L9.94637 13.5467C10.1489 13.4803 10.3673 13.4803 10.5698 13.5467L13.6883 14.5697C14.3349 14.7818 15 14.3001 15 13.6195L15 3.31315C15 2.86511 14.702 2.47175 14.2707 2.35048L10.5512 1.30462C10.3601 1.2509 10.1574 1.25525 9.96878 1.31711L5.90899 2.64889C5.65741 2.73142 5.38337 2.71081 5.14696 2.59158ZM6.22069 3.59907L9.75781 2.43875L9.75781 12.5604C9.71655 12.5711 9.6755 12.5831 9.63467 12.5965L6.0166 13.7834L6.0166 3.6545C6.08508 3.63972 6.15311 3.62124 6.22069 3.59907ZM5.0166 3.61294C4.90727 3.57972 4.80062 3.53688 4.69664 3.48444L2 2.12435L2 12.3492L5.0166 13.6851L5.0166 3.61294ZM10.7578 12.5602L10.7578 2.40151L14 3.31315L14 13.6195L10.8815 12.5965C10.8405 12.5831 10.7992 12.571 10.7578 12.5602Z" fill="rgb(25,25,25)" fill-rule="evenodd" />
</svg>
