<svg viewBox="0 0 16 16" xmlns="http://www.w3.org/2000/svg" xmlns:xlink="http://www.w3.org/1999/xlink" width="16.000000" height="16.000000" fill="none">
	<rect id="操作图标/夜间模式(mobile-moon-border)" width="16.000000" height="16.000000" x="0.000000" y="0.000000" />
	<path id="合并" d="M13.6601 9.43026C13.1201 9.59026 12.6001 9.67026 12.0901 9.67026C11.2901 9.67026 10.5201 9.51026 9.8001 9.21026C9.0901 8.91026 8.4701 8.49026 7.9301 7.94026C7.6401 7.65026 7.3801 7.34026 7.1601 7.01026C6.9701 6.71026 6.8001 6.40026 6.6601 6.07026C6.5301 5.75026 6.4201 5.42026 6.3501 5.09026C6.2501 4.66026 6.2001 4.23026 6.2001 3.78026C6.2001 3.19026 6.3101 2.58026 6.5301 1.93026C6.5801 1.81026 6.6001 1.69026 6.6101 1.56026C6.6201 1.44026 6.6101 1.31026 6.5901 1.18026C6.5401 0.940258 6.4401 0.720258 6.2901 0.540258C6.1801 0.410258 6.0501 0.300258 5.9101 0.230258C5.8401 0.190258 5.7601 0.160258 5.6801 0.140258C5.5801 0.110258 5.4801 0.0902575 5.3801 0.100258C5.2101 0.100258 5.0501 0.130258 4.8901 0.210258C4.1501 0.550258 3.5001 0.960258 2.9101 1.46026C2.8001 1.56026 2.6901 1.65026 2.5801 1.76026C2.2601 2.06026 1.9701 2.40026 1.7001 2.76026C1.6101 2.88026 1.5201 3.00026 1.4401 3.13026C1.2001 3.49026 1.0001 3.87026 0.820098 4.27026C0.700098 4.53026 0.590098 4.80026 0.500098 5.08026C0.410098 5.35026 0.340098 5.63026 0.280098 5.91026C0.180098 6.37026 0.120098 6.84026 0.100098 7.31026C0.100098 7.41026 0.100098 7.51026 0.100098 7.61026C0.100098 8.22026 0.160098 8.82026 0.290098 9.40026C0.400098 9.87026 0.540098 10.3403 0.740098 10.7903C0.930098 11.2503 1.1601 11.6903 1.4301 12.1003C1.7401 12.5603 2.0901 12.9903 2.4901 13.3803C2.8801 13.7803 3.3101 14.1303 3.7701 14.4403C4.1801 14.7103 4.6201 14.9403 5.0801 15.1303C5.5301 15.3303 6.0001 15.4803 6.4701 15.5803C7.0501 15.7103 7.6501 15.7803 8.2601 15.7803C9.5801 15.7803 10.8001 15.4903 11.9101 14.9303C12.7801 14.4903 13.5901 13.8703 14.3401 13.0603C14.7601 12.6203 15.1401 12.0203 15.4901 11.2703C15.6201 10.9903 15.6501 10.7103 15.5601 10.4203C15.4901 10.1803 15.3501 9.96026 15.1401 9.78026C14.9401 9.61026 14.7201 9.49026 14.4701 9.42026C14.1901 9.35026 13.9201 9.36026 13.6601 9.43026ZM10.5801 10.5003C11.0701 10.6103 11.5701 10.6703 12.0901 10.6703C12.6901 10.6703 13.3101 10.5803 13.9401 10.3903C14.0301 10.3703 14.1201 10.3703 14.2201 10.3903C14.3201 10.4203 14.4101 10.4603 14.4801 10.5303C14.6001 10.6303 14.6401 10.7403 14.5901 10.8403C14.2801 11.5003 13.9501 12.0103 13.6101 12.3803C12.9401 13.1003 12.2301 13.6503 11.4601 14.0403C11.3201 14.1103 11.1701 14.1803 11.0301 14.2403C10.1801 14.6003 9.2601 14.7803 8.2601 14.7803C7.7101 14.7803 7.1901 14.7203 6.6701 14.6003C6.2601 14.5103 5.8601 14.3803 5.4701 14.2103C5.0701 14.0403 4.6901 13.8403 4.3301 13.6103C3.9201 13.3403 3.5401 13.0303 3.1901 12.6803C2.8401 12.3303 2.5301 11.9503 2.2601 11.5403C2.0301 11.1803 1.8301 10.8003 1.6601 10.4003C1.4901 10.0103 1.3601 9.61026 1.2701 9.20026C1.1501 8.68026 1.1001 8.16026 1.1001 7.61026C1.1001 7.20026 1.1301 6.80026 1.2001 6.40026C1.3001 5.81026 1.4801 5.24026 1.7301 4.68026C2.0101 4.05026 2.3701 3.48026 2.8001 2.98026C3.0301 2.71026 3.2801 2.46026 3.5601 2.22026C4.0701 1.78026 4.6501 1.42026 5.3001 1.12026C5.3501 1.10026 5.3901 1.09026 5.4201 1.10026C5.4601 1.16026 5.5901 1.29026 5.6001 1.37026C5.6201 1.45026 5.6101 1.53026 5.5901 1.61026C5.3301 2.36026 5.2001 3.08026 5.2001 3.78026C5.2001 4.30026 5.2601 4.80026 5.3701 5.29026C5.4601 5.69026 5.5801 6.08026 5.7401 6.46026C5.9101 6.85026 6.1001 7.22026 6.3301 7.57026C6.5901 7.95026 6.8801 8.32026 7.2201 8.65026C7.8501 9.29026 8.5801 9.78026 9.4101 10.1303C9.7901 10.2903 10.1801 10.4203 10.5801 10.5003Z" fill="rgb(25,25,25)" fill-rule="evenodd" />
</svg>
