<svg viewBox="0 0 16 16" xmlns="http://www.w3.org/2000/svg" xmlns:xlink="http://www.w3.org/1999/xlink" width="16.000000" height="16.000000" fill="none">
	<rect id="操作图标/学习" width="16.000000" height="16.000000" x="0.000000" y="0.000000" />
	<path id="形状结合" d="M15.5 9C15.5 9.27614 15.2761 9.5 15 9.5C14.7545 9.5 14.5504 9.32312 14.5081 9.08988L14.5 5.708L13 6.244L13 12C13 12.1672 12.9164 12.3233 12.7774 12.416C9.88442 14.3446 6.11558 14.3446 3.22265 12.416C3.11137 12.3418 3.03564 12.2271 3.0098 12.0986L3 6.245L0.831832 5.47087C0.420992 5.32414 0.391647 4.77415 0.743795 4.56981L7.83183 2.02913C7.94058 1.99029 8.05942 1.99029 8.16817 2.02913L15.1682 4.52913C15.3598 4.61726 15.4997 4.81708 15.5 4.999L15.5 9ZM12 6.601L8.16817 7.97087C8.05942 8.00971 7.94058 8.00971 7.83183 7.97087L4 6.602L4 11.726C6.35324 13.1664 9.3245 13.2337 11.7185 11.8926L12 11.725L12 6.601ZM8 3.03L2.485 5L8 6.969L13.514 5L8 3.03Z" fill="rgb(25,25,25)" fill-rule="nonzero" />
	<path id="形状结合" d="M15 9.5C14.7545 9.5 14.5504 9.32312 14.5081 9.08988L14.5 5.708L13 6.244L13 12C13 12.1672 12.9164 12.3233 12.7774 12.416C9.88442 14.3446 6.11558 14.3446 3.22265 12.416C3.11137 12.3418 3.03564 12.2271 3.0098 12.0986L3 6.245L0.831832 5.47087C0.420992 5.32414 0.391647 4.77415 0.743795 4.56981L7.83183 2.02913C7.94058 1.99029 8.05942 1.99029 8.16817 2.02913L15.1682 4.52913C15.3598 4.61726 15.4997 4.81708 15.5 4.999L15.5 9C15.5 9.27614 15.2761 9.5 15 9.5ZM8.16817 7.97087C8.05942 8.00971 7.94058 8.00971 7.83183 7.97087L4 6.602L4 11.726C6.35324 13.1664 9.3245 13.2337 11.7185 11.8926L12 11.725L12 6.601L8.16817 7.97087ZM2.485 5L8 6.969L13.514 5L8 3.03L2.485 5Z" fill-rule="nonzero" stroke="rgb(0,0,0)" stroke-opacity="0" stroke-width="1" />
</svg>
