<svg viewBox="0 0 16 16" xmlns="http://www.w3.org/2000/svg" xmlns:xlink="http://www.w3.org/1999/xlink" width="16.000000" height="16.000000" fill="none" customFrame="#000000">
	<rect id="操作图标/定位" width="16.000000" height="16.000000" x="0.000000" y="0.000000" fill="rgb(255,255,255)" fill-opacity="0" />
	<path id="形状结合" d="M1 6.14286L1 3.5C1 3.31603 1.01932 3.13631 1.05797 2.96084C1.09051 2.81312 1.13674 2.66842 1.19667 2.52673C1.25681 2.38454 1.3287 2.2501 1.41233 2.12342C1.50465 1.98357 1.61129 1.85318 1.73223 1.73223C1.85318 1.61129 1.98357 1.50466 2.12341 1.41234C2.2501 1.3287 2.38454 1.25681 2.52673 1.19667C2.66842 1.13674 2.81313 1.0905 2.96086 1.05797C3.13631 1.01932 3.31603 1 3.5 1L5.83333 1C6.11333 1 6.33333 1.22 6.33333 1.5C6.33333 1.78 6.11333 2 5.83333 2L3.5 2C3.3836 2 3.27017 2.01281 3.15972 2.03843C3.0769 2.05765 2.99576 2.08406 2.91629 2.11767C2.83396 2.15249 2.75594 2.19391 2.68221 2.24193C2.59528 2.29856 2.51432 2.36436 2.43934 2.43934C2.36436 2.51432 2.29856 2.59527 2.24194 2.68221C2.19392 2.75593 2.15249 2.83396 2.11767 2.91629C2.08406 2.99575 2.05765 3.07688 2.03844 3.15968C2.01282 3.27014 2 3.3836 2 3.5L2 6.14286C2 6.42286 1.78 6.64286 1.5 6.64286C1.22 6.64286 1 6.42286 1 6.14286ZM12.5 1L10.1679 1C9.88794 1 9.66794 1.22 9.66794 1.5C9.66794 1.78 9.88794 2 10.1679 2L12.5 2C12.6164 2 12.7298 2.01281 12.8403 2.03843C12.9231 2.05765 13.0042 2.08406 13.0837 2.11767C13.166 2.15249 13.2441 2.19391 13.3178 2.24194C13.4047 2.29856 13.4857 2.36436 13.5607 2.43934C13.6356 2.51432 13.7014 2.59528 13.7581 2.68221C13.8061 2.75593 13.8475 2.83397 13.8823 2.91629C13.9159 2.99574 13.9423 3.07688 13.9616 3.15968C13.9872 3.27015 14 3.38359 14 3.5L14 6.14286C14 6.42286 14.22 6.64286 14.5 6.64286C14.78 6.64286 15 6.42286 15 6.14286L15 3.5C15 3.31604 14.9807 3.13633 14.942 2.96087C14.9095 2.81314 14.8633 2.66843 14.8033 2.52673C14.7432 2.38455 14.6713 2.25012 14.5877 2.12344C14.4954 1.9836 14.3887 1.85317 14.2678 1.73223C14.1468 1.61129 14.0164 1.50465 13.8766 1.41232C13.7499 1.3287 13.6154 1.2568 13.4733 1.19667C13.3316 1.13674 13.1869 1.09051 13.0392 1.05797C12.8637 1.01933 12.684 1 12.5 1ZM8 6C6.89543 6 6 6.89543 6 8C6 9.10457 6.89543 10 8 10C9.10457 10 10 9.10457 10 8C10 6.89543 9.10457 6 8 6ZM14.5 9.33101C14.78 9.33101 15 9.55101 15 9.83101L15 12.5C15 12.6839 14.9807 12.8636 14.942 13.0391C14.9095 13.1868 14.8633 13.3316 14.8033 13.4733C14.7432 13.6155 14.6713 13.7499 14.5877 13.8766C14.4953 14.0164 14.3887 14.1468 14.2678 14.2678C14.1468 14.3887 14.0164 14.4954 13.8765 14.5877C13.7499 14.6713 13.6154 14.7432 13.4733 14.8033C13.3316 14.8633 13.1869 14.9095 13.0392 14.942C12.8637 14.9807 12.684 15 12.5 15L10.3686 15C10.0886 15 9.86858 14.78 9.86858 14.5C9.86858 14.22 10.0886 14 10.3686 14L12.5 14C12.6164 14 12.7298 13.9872 12.8403 13.9616C12.9231 13.9424 13.0042 13.9159 13.0837 13.8823C13.166 13.8475 13.244 13.8061 13.3177 13.7582C13.4046 13.7015 13.4857 13.6357 13.5607 13.5607C13.6356 13.4857 13.7015 13.4047 13.7581 13.3177C13.8061 13.244 13.8475 13.166 13.8823 13.0837C13.9159 13.0042 13.9424 12.9231 13.9616 12.8403C13.9872 12.7298 14 12.6164 14 12.5L14 9.83101C14 9.55101 14.22 9.33101 14.5 9.33101ZM1.5 9.33102C1.78 9.33102 2 9.55102 2 9.83102L2 12.5C2 12.6164 2.01281 12.7298 2.03844 12.8403C2.05765 12.9231 2.08407 13.0043 2.11767 13.0837C2.15248 13.166 2.19389 13.244 2.2419 13.3177C2.29853 13.4047 2.36436 13.4857 2.43934 13.5607C2.51432 13.6356 2.59527 13.7014 2.68221 13.7581C2.75594 13.8061 2.83397 13.8475 2.91629 13.8823C2.99578 13.9159 3.07694 13.9424 3.15977 13.9616C3.27021 13.9872 3.38362 14 3.5 14L6.2358 14C6.5158 14 6.7358 14.22 6.7358 14.5C6.7358 14.78 6.5158 15 6.2358 15L3.5 15C3.31604 15 3.13633 14.9807 2.96087 14.942C2.81314 14.9095 2.66843 14.8633 2.52673 14.8033C2.38455 14.7432 2.25011 14.6713 2.12343 14.5877C1.98358 14.4954 1.85318 14.3887 1.73223 14.2678C1.61129 14.1468 1.50465 14.0164 1.41233 13.8766C1.32871 13.7499 1.2568 13.6154 1.19667 13.4733C1.13674 13.3316 1.09051 13.1869 1.05797 13.0392C1.01932 12.8637 1 12.684 1 12.5L1 9.83102C1 9.55102 1.22 9.33102 1.5 9.33102Z" fill="rgb(25,25,25)" fill-rule="evenodd" />
</svg>
