<svg viewBox="0 0 16 16" xmlns="http://www.w3.org/2000/svg" xmlns:xlink="http://www.w3.org/1999/xlink" width="16.000000" height="16.000000" fill="none">
	<rect id="操作图标/对比" width="16.000000" height="16.000000" x="0.000000" y="0.000000" />
	<path id="形状结合" d="M9 5L6 2.5L9 0L9 2L11.5 2C12.8255 2 13.91 3.03154 13.9947 4.33562L14 4.5L14.0004 11.0501C15.1413 11.2819 16 12.2907 16 13.5C16 14.8807 14.8807 16 13.5 16C12.1193 16 11 14.8807 11 13.5C11 12.2903 11.8592 11.2813 13.0006 11.0499L13 4.5C13 3.7203 12.4051 3.07955 11.6445 3.00687L11.5 3L9 3L9 5ZM2.5 0C3.88071 0 5 1.11929 5 2.5C5 3.70933 4.14134 4.7181 3.00043 4.9499L3 11.5C3 12.2797 3.59489 12.9204 4.35554 12.9931L4.5 13L7 13L7 11L10 13.5L7 16L7 14L4.5 14C3.17452 14 2.08996 12.9685 2.00532 11.6644L2 11.5L2.00057 4.95011C0.859168 4.71869 0 3.70968 0 2.5C0 1.11929 1.11929 0 2.5 0ZM13.5 12C12.6716 12 12 12.6716 12 13.5C12 14.3284 12.6716 15 13.5 15C14.3284 15 15 14.3284 15 13.5C15 12.6716 14.3284 12 13.5 12ZM2.5 1C1.67157 1 1 1.67157 1 2.5C1 3.32843 1.67157 4 2.5 4C3.32843 4 4 3.32843 4 2.5C4 1.67157 3.32843 1 2.5 1Z" fill="rgb(25,25,25)" fill-rule="evenodd" />
	<path id="形状结合" d="M6 2.5L9 0L9 2L11.5 2C12.8255 2 13.91 3.03154 13.9947 4.33562L14 4.5L14.0004 11.0501C15.1413 11.2819 16 12.2907 16 13.5C16 14.8807 14.8807 16 13.5 16C12.1193 16 11 14.8807 11 13.5C11 12.2903 11.8592 11.2813 13.0006 11.0499L13 4.5C13 3.7203 12.4051 3.07955 11.6445 3.00687L11.5 3L9 3L9 5L6 2.5ZM5 2.5C5 3.70933 4.14134 4.7181 3.00043 4.9499L3 11.5C3 12.2797 3.59489 12.9204 4.35554 12.9931L4.5 13L7 13L7 11L10 13.5L7 16L7 14L4.5 14C3.17452 14 2.08996 12.9685 2.00532 11.6644L2 11.5L2.00057 4.95011C0.859168 4.71869 0 3.70968 0 2.5C0 1.11929 1.11929 0 2.5 0C3.88071 0 5 1.11929 5 2.5ZM12 13.5C12 14.3284 12.6716 15 13.5 15C14.3284 15 15 14.3284 15 13.5C15 12.6716 14.3284 12 13.5 12C12.6716 12 12 12.6716 12 13.5ZM1 2.5C1 3.32843 1.67157 4 2.5 4C3.32843 4 4 3.32843 4 2.5C4 1.67157 3.32843 1 2.5 1C1.67157 1 1 1.67157 1 2.5Z" fill-rule="evenodd" stroke="rgb(0,0,0)" stroke-opacity="0" stroke-width="1" />
</svg>
