<svg viewBox="0 0 16 16" xmlns="http://www.w3.org/2000/svg" xmlns:xlink="http://www.w3.org/1999/xlink" width="16.000000" height="16.000000" fill="none">
	<rect id="操作图标/对比视图" width="16.000000" height="16.000000" x="0.000000" y="0.000000" />
	<path id="形状结合" d="M3 14C1.89543 14 1 13.1046 1 12L1 4C1 2.89543 1.89543 2 3 2L13 2C14.1046 2 15 2.89543 15 4L15 12C15 13.1046 14.1046 14 13 14L3 14ZM7.5 3L3 3C2.48716 3 2.06449 3.38604 2.00673 3.88338L2 4L2 12C2 12.5128 2.38604 12.9355 2.88338 12.9933L3 13L7.5 13L7.5 3ZM13 3L8.5 3L8.5 13L13 13C13.5128 13 13.9355 12.614 13.9933 12.1166L14 12L14 4C14 3.48716 13.614 3.06449 13.1166 3.00673L13 3Z" fill="rgb(25,25,25)" fill-rule="evenodd" />
	<path id="形状结合" d="M1 12L1 4C1 2.89543 1.89543 2 3 2L13 2C14.1046 2 15 2.89543 15 4L15 12C15 13.1046 14.1046 14 13 14L3 14C1.89543 14 1 13.1046 1 12ZM3 3C2.48716 3 2.06449 3.38604 2.00673 3.88338L2 4L2 12C2 12.5128 2.38604 12.9355 2.88338 12.9933L3 13L7.5 13L7.5 3L3 3ZM8.5 3L8.5 13L13 13C13.5128 13 13.9355 12.614 13.9933 12.1166L14 12L14 4C14 3.48716 13.614 3.06449 13.1166 3.00673L13 3L8.5 3Z" fill-rule="evenodd" stroke="rgb(0,0,0)" stroke-opacity="0" stroke-width="1" />
</svg>
