<svg viewBox="0 0 16 16" xmlns="http://www.w3.org/2000/svg" xmlns:xlink="http://www.w3.org/1999/xlink" width="16.000000" height="16.000000" fill="none" customFrame="#000000">
	<rect id="操作图标/对比" width="16.000000" height="16.000000" x="0.000000" y="0.000000" fill="rgb(255,255,255)" fill-opacity="0" />
	<path id="形状结" d="M3.07078 12.5424C3.2105 12.5731 3.35357 12.5884 3.5 12.5884L3.5 11.5884C3.42114 11.5884 3.34435 11.5796 3.26964 11.562C3.2159 11.5493 3.1625 11.5318 3.11091 11.51C3.05667 11.4871 3.00522 11.4598 2.95657 11.4283C2.89796 11.3902 2.8434 11.346 2.7929 11.2955C2.7425 11.2451 2.69832 11.1907 2.66037 11.1322C2.62879 11.0835 2.60134 11.0317 2.57838 10.9775C2.55645 10.9256 2.53913 10.8727 2.5264 10.8187C2.50881 10.744 2.5 10.6672 2.5 10.5884L2.5 3.50012C2.5 3.38372 2.51281 3.27028 2.53844 3.15982C2.55765 3.07702 2.58406 2.99587 2.61767 2.91641C2.65249 2.8341 2.6939 2.75609 2.74191 2.68238C2.79853 2.59545 2.86437 2.51444 2.93934 2.43946C3.01431 2.36449 3.09527 2.29869 3.1822 2.24207C3.25592 2.19405 3.33396 2.15261 3.41629 2.11779C3.49566 2.08422 3.5767 2.05783 3.65941 2.03863C3.76987 2.013 3.8836 2.00012 4 2.00012L9.67651 2.00012C9.79021 2.00012 9.89559 2.02022 9.99263 2.06042C10.0897 2.10062 10.1784 2.16092 10.2588 2.24132C10.3392 2.32171 10.3995 2.41044 10.4397 2.50749C10.4799 2.60452 10.5 2.70994 10.5 2.82361L10.5 3.50012L11.5 3.50012L11.5 2.82361C11.5 2.69061 11.4861 2.56063 11.4584 2.43368C11.4347 2.32495 11.4006 2.21796 11.3565 2.11367C11.3124 2.00943 11.2597 1.9109 11.1983 1.8181C11.1312 1.71669 11.0537 1.62196 10.9659 1.53421C10.8781 1.4464 10.7834 1.36892 10.682 1.3018C10.5893 1.24055 10.4905 1.18763 10.3864 1.14363C10.2822 1.09951 10.1756 1.06557 10.0669 1.0418C9.93982 1.01402 9.80968 1.00012 9.67651 1.00012L4 1.00012C3.81603 1.00012 3.63632 1.01944 3.46086 1.05809C3.31314 1.09062 3.16842 1.13686 3.02673 1.19679C2.88454 1.25693 2.7501 1.32882 2.62342 1.41246C2.48359 1.50477 2.35316 1.61143 2.23223 1.73236C2.1113 1.85329 2.00467 1.98367 1.91236 2.1235C1.82872 2.25019 1.75681 2.38466 1.69667 2.52686C1.63674 2.66854 1.59051 2.81325 1.55797 2.96097C1.51932 3.13643 1.5 3.31615 1.5 3.50012L1.5 10.5884C1.5 10.7348 1.51531 10.8779 1.54593 11.0176C1.57199 11.1365 1.60914 11.253 1.65737 11.367C1.70557 11.4809 1.76318 11.5887 1.83023 11.6902C1.90393 11.8017 1.98933 11.9061 2.08578 12.0026C2.18225 12.0991 2.28625 12.1841 2.39777 12.2579C2.49938 12.325 2.60725 12.3827 2.72135 12.431C2.83532 12.4792 2.95196 12.5164 3.07078 12.5424ZM12.5 4.00006C13.6046 4.00006 14.5 4.89549 14.5 6.00006L14.5 13.0001C14.5 14.1046 13.6046 15.0001 12.5 15.0001L6.5 15.0001C5.39543 15.0001 4.5 14.1046 4.5 13.0001L4.5 6.00006C4.5 4.89549 5.39543 4.00006 6.5 4.00006L12.5 4.00006ZM12.5 5.00006C13.0523 5.00006 13.5 5.44778 13.5 6.00006L13.5 13.0001C13.5 13.5523 13.0523 14.0001 12.5 14.0001L6.5 14.0001C5.94772 14.0001 5.5 13.5523 5.5 13.0001L5.5 6.00006C5.5 5.44778 5.94772 5.00006 6.5 5.00006L12.5 5.00006ZM7.5 6.50006L11.5 6.50006C11.78 6.50006 12 6.72006 12 7.00006C12 7.28006 11.78 7.50006 11.5 7.50006L7.5 7.50006C7.22 7.50006 7 7.28006 7 7.00006C7 6.72006 7.22 6.50006 7.5 6.50006ZM11.5 9.00006L7.5 9.00006C7.22 9.00006 7 9.22006 7 9.50006C7 9.78006 7.22 10.0001 7.5 10.0001L11.5 10.0001C11.78 10.0001 12 9.78006 12 9.50006C12 9.22006 11.78 9.00006 11.5 9.00006ZM7.5 11.5L10 11.5C10.28 11.5 10.5 11.72 10.5 12C10.5 12.28 10.28 12.5 10 12.5L7.5 12.5C7.22 12.5 7 12.28 7 12C7 11.72 7.22 11.5 7.5 11.5Z" fill="rgb(25,25,25)" fill-rule="evenodd" />
</svg>
