<svg viewBox="0 0 16 16" xmlns="http://www.w3.org/2000/svg" xmlns:xlink="http://www.w3.org/1999/xlink" width="16.000000" height="16.000000" fill="none">
	<rect id="操作图标/已点踩(unlike-filled)" width="16.000000" height="16.000000" x="0.000000" y="0.000000" />
	<path id="矢量 1" d="M2.60156 1C1.76611 1 1.08008 1.63953 1.00659 2.45581L1 2.60156L1 8.06506C1 8.90039 1.63965 9.58643 2.45581 9.66003L2.60156 9.66663L3.16675 9.66644C3.44287 9.66644 3.6665 9.4425 3.6665 9.16644L3.6665 1.5C3.6665 1.22388 3.44263 1 3.1665 1L2.60156 1ZM5.6665 1L11.552 1L11.7861 1.00342C13.2422 1.04712 14.1792 1.50781 14.4907 2.44861C14.8108 3.41553 15.1758 5.00916 15.2917 6.29297L15.3098 6.51453L15.3308 6.92529L15.3345 7.12988C15.3438 8.74133 14.8638 9.74072 13.6501 9.74072L9.55591 9.74194L9.60107 9.88098C10.02 11.2178 10.1855 12.2474 10.0869 12.9923C9.89819 14.4197 8.75317 15.6334 7.67651 15.2727L7.55713 15.2261C7.11279 14.9865 6.85327 14.5331 6.70117 13.6534L6.54492 12.7217L6.4978 12.5065L6.43872 12.2728C6.37622 12.0485 6.30347 11.8517 6.21558 11.6747C5.91675 11.0725 5.51904 10.535 5.021 10.0604C4.8042 9.85382 4.6665 9.57355 4.6665 9.27405L4.6665 2C4.6665 1.44769 5.11426 1 5.6665 1Z" fill="rgb(25,25,25)" fill-rule="evenodd" />
</svg>
