<svg viewBox="0 0 16 16" xmlns="http://www.w3.org/2000/svg" xmlns:xlink="http://www.w3.org/1999/xlink" width="16.000000" height="16.000000" fill="none">
	<rect id="操作图标/已点赞(like-solid)" width="16.000000" height="16.000000" x="0.000000" y="0.000000" />
	<path id="形状" d="M2 7.00007C2.55228 7.00007 3 7.44779 3 8.00007L3 15.0001C3 15.5524 2.55228 16.0001 2 16.0001C1.44772 16.0001 1 15.5524 1 15.0001L1 8.00007C1 7.44779 1.44772 7.00007 2 7.00007ZM10.5 3.75984C10.5433 4.11092 10.5553 4.69042 10.5359 5.49836C10.5226 6.0505 10.9594 6.50884 11.5116 6.5221L13.4053 6.52239C14.5099 6.52239 15.4053 7.41782 15.4053 8.52239C15.4053 8.69425 15.3831 8.86539 15.3394 9.03159L13.7054 15.238C13.5897 15.6773 13.1926 15.9834 12.7383 15.9834L5 15.9834C4.44772 15.9834 4 15.5357 4 14.9834L4 7.56027C4 7.31117 4.09298 7.07103 4.26073 6.88687C5.18231 5.87516 5.70591 5.08571 5.83154 4.51851L5.9859 3.85472L6.10261 3.40379C6.44503 2.15014 6.89422 1.1232 7.62524 0.909986C8.83875 0.489332 10.303 2.16336 10.5 3.75984Z" fill="rgb(25,25,25)" fill-rule="nonzero" />
</svg>
