<svg viewBox="0 0 16 16" xmlns="http://www.w3.org/2000/svg" xmlns:xlink="http://www.w3.org/1999/xlink" width="16.000000" height="16.000000" fill="none">
	<rect id="操作图标/帮助" width="16.000000" height="16.000000" x="0.000000" y="0.000000" />
	<path id="形状结合" d="M8 1C11.866 1 15 4.13401 15 8C15 11.866 11.866 15 8 15C4.13401 15 1 11.866 1 8C1 4.13401 4.13401 1 8 1ZM8 2C4.68629 2 2 4.68629 2 8C2 11.3137 4.68629 14 8 14C11.3137 14 14 11.3137 14 8C14 4.68629 11.3137 2 8 2ZM8.40625 11.25L8.40625 12.0625L7.59375 12.0625L7.59375 11.25L8.40625 11.25ZM8 3.9375C9.34619 3.9375 10.4375 5.02881 10.4375 6.375C10.4375 7.58278 9.55907 8.58539 8.40625 8.7788L8.40625 10.4375L7.59375 10.4375L7.59375 8.40625C7.59375 8.18188 7.77563 8 8 8C8.89746 8 9.625 7.27246 9.625 6.375C9.625 5.47754 8.89746 4.75 8 4.75C7.10254 4.75 6.375 5.47754 6.375 6.375L5.5625 6.375C5.5625 5.02881 6.65381 3.9375 8 3.9375Z" fill="rgb(25,25,25)" fill-rule="nonzero" />
	<path id="形状结合" d="M15 8C15 11.866 11.866 15 8 15C4.13401 15 1 11.866 1 8C1 4.13401 4.13401 1 8 1C11.866 1 15 4.13401 15 8ZM2 8C2 11.3137 4.68629 14 8 14C11.3137 14 14 11.3137 14 8C14 4.68629 11.3137 2 8 2C4.68629 2 2 4.68629 2 8ZM8.40625 12.0625L7.59375 12.0625L7.59375 11.25L8.40625 11.25L8.40625 12.0625ZM10.4375 6.375C10.4375 7.58278 9.55907 8.58539 8.40625 8.7788L8.40625 10.4375L7.59375 10.4375L7.59375 8.40625C7.59375 8.18188 7.77563 8 8 8C8.89746 8 9.625 7.27246 9.625 6.375C9.625 5.47754 8.89746 4.75 8 4.75C7.10254 4.75 6.375 5.47754 6.375 6.375L5.5625 6.375C5.5625 5.02881 6.65381 3.9375 8 3.9375C9.34619 3.9375 10.4375 5.02881 10.4375 6.375Z" fill-rule="nonzero" stroke="rgb(0,0,0)" stroke-opacity="0" stroke-width="1" />
</svg>
