<svg viewBox="0 0 16 16" xmlns="http://www.w3.org/2000/svg" xmlns:xlink="http://www.w3.org/1999/xlink" width="16.000000" height="16.000000" fill="none">
	<rect id="操作图标/开发者面板" width="16.000000" height="16.000000" x="0.000000" y="0.000000" />
	<path id="形状结合" d="M13.6516 11.8736C13.5373 11.7952 13.4503 11.6683 13.4267 11.5317C13.403 11.3951 13.4355 11.2548 13.5168 11.1425C15.1348 8.33067 14.4066 4.75409 11.8179 2.79876C9.22924 0.843434 5.58984 1.12095 3.32758 3.44617C1.06533 5.7714 0.887811 9.41704 2.91345 11.9511C4.9391 14.4851 8.53432 15.1149 11.3007 13.4203C11.5292 13.2798 11.8262 13.3403 11.9827 13.5574C12.0585 13.6625 12.0903 13.7952 12.0668 13.9226C12.0433 14.0501 11.9688 14.1624 11.8604 14.2336C8.64853 16.1646 4.4052 15.4622 2.09392 12.5121C-0.217348 9.562 0.0321181 5.35199 2.67561 2.6955C5.3191 0.0390179 9.52784 -0.231087 12.4892 2.06569C15.4506 4.36247 16.2362 8.50606 14.321 11.7274C14.2547 11.8391 14.145 11.9183 14.0181 11.9461C13.8911 11.9738 13.7584 11.9475 13.6516 11.8736ZM5.25559 5.64572C5.36754 5.53492 5.6417 5.49494 5.77535 5.64572C5.94098 5.8205 5.88729 6.10607 5.77535 6.22602L4.04703 7.90521L5.73308 9.50216C5.84503 9.61297 5.85988 9.92939 5.73308 10.055C5.58001 10.207 5.26702 10.183 5.16307 10.079L3.19258 8.1154C3.08121 8.00316 3.08121 7.82211 3.19258 7.70988L5.25559 5.64572ZM10.6199 5.64572L12.6829 7.70874C12.7943 7.82097 12.7943 8.00202 12.6829 8.11425L10.7136 10.0802C10.6096 10.183 10.3137 10.2481 10.1424 10.0802C9.98133 9.92025 10.0316 9.59126 10.1424 9.48046L11.8353 7.9075L10.0876 6.21002C9.97562 6.09008 9.93907 5.79422 10.0876 5.64686C10.2326 5.50408 10.5079 5.53492 10.6199 5.64572ZM8.50204 5.23449C8.55801 5.08599 8.8356 4.99232 9.01265 5.05858C9.18172 5.1214 9.2811 5.35558 9.2354 5.50408L7.36201 10.6559C7.30718 10.8044 7.03988 10.8638 6.89024 10.8078C6.73146 10.753 6.55897 10.5337 6.61609 10.3863L8.50204 5.23449Z" fill="rgb(25,25,25)" fill-rule="evenodd" />
	<path id="形状结合" d="M13.4267 11.5317C13.403 11.3951 13.4355 11.2548 13.5168 11.1425C15.1348 8.33067 14.4066 4.75409 11.8179 2.79876C9.22924 0.843434 5.58984 1.12095 3.32758 3.44617C1.06533 5.7714 0.887811 9.41704 2.91345 11.9511C4.9391 14.4851 8.53432 15.1149 11.3007 13.4203C11.5292 13.2798 11.8262 13.3403 11.9827 13.5574C12.0585 13.6625 12.0903 13.7952 12.0668 13.9226C12.0433 14.0501 11.9688 14.1624 11.8604 14.2336C8.64853 16.1646 4.4052 15.4622 2.09392 12.5121C-0.217348 9.562 0.0321181 5.35199 2.67561 2.6955C5.3191 0.0390179 9.52784 -0.231087 12.4892 2.06569C15.4506 4.36247 16.2362 8.50606 14.321 11.7274C14.2547 11.8391 14.145 11.9183 14.0181 11.9461C13.8911 11.9738 13.7584 11.9475 13.6516 11.8736C13.5373 11.7952 13.4503 11.6683 13.4267 11.5317ZM5.77535 5.64572C5.94098 5.8205 5.88729 6.10607 5.77535 6.22602L4.04703 7.90521L5.73308 9.50216C5.84503 9.61297 5.85988 9.92939 5.73308 10.055C5.58001 10.207 5.26702 10.183 5.16307 10.079L3.19258 8.1154C3.08121 8.00316 3.08121 7.82211 3.19258 7.70988L5.25559 5.64572C5.36754 5.53492 5.6417 5.49494 5.77535 5.64572ZM12.6829 7.70874C12.7943 7.82097 12.7943 8.00202 12.6829 8.11425L10.7136 10.0802C10.6096 10.183 10.3137 10.2481 10.1424 10.0802C9.98133 9.92025 10.0316 9.59126 10.1424 9.48046L11.8353 7.9075L10.0876 6.21002C9.97562 6.09008 9.93907 5.79422 10.0876 5.64686C10.2326 5.50408 10.5079 5.53492 10.6199 5.64572L12.6829 7.70874ZM9.01265 5.05858C9.18172 5.1214 9.2811 5.35558 9.2354 5.50408L7.36201 10.6559C7.30718 10.8044 7.03988 10.8638 6.89024 10.8078C6.73146 10.753 6.55897 10.5337 6.61609 10.3863L8.50204 5.23449C8.55801 5.08599 8.8356 4.99232 9.01265 5.05858Z" fill-rule="evenodd" stroke="rgb(0,0,0)" stroke-opacity="0" stroke-width="1" />
</svg>
