<svg viewBox="0 0 16 16" xmlns="http://www.w3.org/2000/svg" xmlns:xlink="http://www.w3.org/1999/xlink" width="16.000000" height="16.000000" fill="none">
	<rect id="操作图标/开发语言" width="16.000000" height="16.000000" x="0.000000" y="0.000000" />
	<path id="形状结合" d="M14 2C15.1046 2 16 2.89543 16 4L16 12C16 13.1046 15.1046 14 14 14L2 14C0.895431 14 0 13.1046 0 12L0 4C0 2.89543 0.895431 2 2 2L14 2ZM14 3L2 3C1.48716 3 1.06449 3.38604 1.00673 3.88338L1 4L1 12C1 12.5128 1.38604 12.9355 1.88338 12.9933L2 13L14 13C14.5128 13 14.9355 12.614 14.9933 12.1166L15 12L15 4C15 3.48716 14.614 3.06449 14.1166 3.00673L14 3ZM9.15811 4.52566C9.39098 4.60328 9.52872 4.83564 9.49512 5.0703L7.47434 11.1581C7.38702 11.4201 7.10386 11.5617 6.84189 11.4743C6.60902 11.3967 6.47128 11.1644 6.50488 10.9297L8.52566 4.84189C8.61298 4.57991 8.89614 4.43833 9.15811 4.52566ZM5.35355 5.64645C5.52712 5.82001 5.5464 6.08944 5.41141 6.28431L3.707 8L5.35355 9.64645C5.52712 9.82001 5.5464 10.0894 5.41141 10.2843C5.23784 10.4579 4.91056 10.5464 4.71569 10.4114L2.64645 8.35355C2.47288 8.17999 2.4536 7.91056 2.58859 7.71569L4.64645 5.64645C4.84171 5.45118 5.15829 5.45118 5.35355 5.64645ZM11.2843 5.58859L13.3536 7.64645C13.5271 7.82001 13.5464 8.08944 13.4114 8.28431L11.3536 10.3536C11.1583 10.5488 10.8417 10.5488 10.6464 10.3536C10.4729 10.18 10.4536 9.91056 10.5886 9.71569L12.293 8L10.6464 6.35355C10.4729 6.17999 10.4536 5.91056 10.5886 5.71569C10.7622 5.54213 11.0894 5.4536 11.2843 5.58859Z" fill="rgb(25,25,25)" fill-rule="evenodd" />
	<path id="形状结合" d="M16 4L16 12C16 13.1046 15.1046 14 14 14L2 14C0.895431 14 0 13.1046 0 12L0 4C0 2.89543 0.895431 2 2 2L14 2C15.1046 2 16 2.89543 16 4ZM2 3C1.48716 3 1.06449 3.38604 1.00673 3.88338L1 4L1 12C1 12.5128 1.38604 12.9355 1.88338 12.9933L2 13L14 13C14.5128 13 14.9355 12.614 14.9933 12.1166L15 12L15 4C15 3.48716 14.614 3.06449 14.1166 3.00673L14 3L2 3ZM9.49512 5.0703L7.47434 11.1581C7.38702 11.4201 7.10386 11.5617 6.84189 11.4743C6.60902 11.3967 6.47128 11.1644 6.50488 10.9297L8.52566 4.84189C8.61298 4.57991 8.89614 4.43833 9.15811 4.52566C9.39098 4.60328 9.52872 4.83564 9.49512 5.0703ZM5.41141 6.28431L3.707 8L5.35355 9.64645C5.52712 9.82001 5.5464 10.0894 5.41141 10.2843C5.23784 10.4579 4.91056 10.5464 4.71569 10.4114L2.64645 8.35355C2.47288 8.17999 2.4536 7.91056 2.58859 7.71569L4.64645 5.64645C4.84171 5.45118 5.15829 5.45118 5.35355 5.64645C5.52712 5.82001 5.5464 6.08944 5.41141 6.28431ZM13.3536 7.64645C13.5271 7.82001 13.5464 8.08944 13.4114 8.28431L11.3536 10.3536C11.1583 10.5488 10.8417 10.5488 10.6464 10.3536C10.4729 10.18 10.4536 9.91056 10.5886 9.71569L12.293 8L10.6464 6.35355C10.4729 6.17999 10.4536 5.91056 10.5886 5.71569C10.7622 5.54213 11.0894 5.4536 11.2843 5.58859L13.3536 7.64645Z" fill-rule="evenodd" stroke="rgb(0,0,0)" stroke-opacity="0" stroke-width="1" />
</svg>
