<svg viewBox="0 0 16 16" xmlns="http://www.w3.org/2000/svg" xmlns:xlink="http://www.w3.org/1999/xlink" width="16.000000" height="16.000000" fill="none">
	<rect id="操作图标/待我处理" width="16.000000" height="16.000000" x="0.000000" y="0.000000" />
	<path id="形状结合" d="M14.042 8.832C14.57 8.832 14.9988 9.2608 14.9988 9.7888L14.9988 10.3872C14.9988 10.9216 14.8036 11.4304 14.4452 11.8272L13.914 12.416L14.4452 13.0048C14.7872 13.3857 14.9834 13.8755 14.9988 14.3872L14.9988 15.0432C15.002 15.5712 14.57 16 14.042 16L10.4612 16C9.9332 16 9.5044 15.5712 9.5044 15.0432L9.5044 14.4448C9.5044 13.9104 9.6996 13.4016 10.058 13.0048L10.5892 12.416L10.058 11.8272C9.71597 11.4463 9.51985 10.9565 9.5044 10.4448L9.5044 9.7888C9.5044 9.2608 9.9332 8.832 10.4612 8.832L14.042 8.832ZM14.042 9.7952L10.4612 9.7952L10.4644 10.4256C10.4708 10.7008 10.5796 10.9728 10.7716 11.184L11.882 12.416L10.7716 13.648C10.5732 13.8688 10.4644 14.1504 10.4644 14.4448L10.4644 15.0432L14.0452 15.04L14.042 14.4064C14.0356 14.1312 13.9268 13.8592 13.7348 13.648L12.6244 12.4192L13.7348 11.1872C13.9332 10.9664 14.042 10.6848 14.042 10.3904L14.042 9.7952ZM12.5769 0C13.3178 0 13.9247 0.569537 13.9935 1.29549L14 1.43333L14 6.64291C14 6.91905 13.7761 7.14291 13.5 7.14291C13.2545 7.14291 13.0504 6.96604 13.0081 6.73279L13 1.43333C13 1.21951 12.8494 1.04343 12.6526 1.00694L2.42308 1C2.21649 1 2.04288 1.15232 2.00686 1.35512L2 13.5667C2 13.7805 2.15065 13.9566 2.34736 13.9931L7.69103 14C7.96717 14 8.19103 14.2239 8.19103 14.5C8.19103 14.7455 8.01416 14.9496 7.78091 14.9919L2.42308 15C1.68219 15 1.07533 14.4305 1.0065 13.7045L1 13.5667L1 1.43333C1 0.689447 1.56328 0.0761518 2.28583 0.00657341L2.42308 0L12.5769 0ZM8.3524 6.56C8.618 6.56 8.8324 6.7744 8.8324 7.04C8.8324 7.3056 8.618 7.52 8.3524 7.52L4.97 7.52C4.7044 7.52 4.49 7.3056 4.49 7.04C4.49 6.7744 4.7044 6.56 4.97 6.56L8.3524 6.56ZM8.3524 4C8.618 4 8.8324 4.2144 8.8324 4.48C8.8324 4.7456 8.618 4.96 8.3524 4.96L4.97 4.96C4.7044 4.96 4.49 4.7456 4.49 4.48C4.49 4.2144 4.7044 4 4.97 4L8.3524 4Z" fill="rgb(25,25,25)" fill-rule="evenodd" />
	<path id="形状结合" d="M14.9988 9.7888L14.9988 10.3872C14.9988 10.9216 14.8036 11.4304 14.4452 11.8272L13.914 12.416L14.4452 13.0048C14.7872 13.3857 14.9834 13.8755 14.9988 14.3872L14.9988 15.0432C15.002 15.5712 14.57 16 14.042 16L10.4612 16C9.9332 16 9.5044 15.5712 9.5044 15.0432L9.5044 14.4448C9.5044 13.9104 9.6996 13.4016 10.058 13.0048L10.5892 12.416L10.058 11.8272C9.71597 11.4463 9.51985 10.9565 9.5044 10.4448L9.5044 9.7888C9.5044 9.2608 9.9332 8.832 10.4612 8.832L14.042 8.832C14.57 8.832 14.9988 9.2608 14.9988 9.7888ZM10.4612 9.7952L10.4644 10.4256C10.4708 10.7008 10.5796 10.9728 10.7716 11.184L11.882 12.416L10.7716 13.648C10.5732 13.8688 10.4644 14.1504 10.4644 14.4448L10.4644 15.0432L14.0452 15.04L14.042 14.4064C14.0356 14.1312 13.9268 13.8592 13.7348 13.648L12.6244 12.4192L13.7348 11.1872C13.9332 10.9664 14.042 10.6848 14.042 10.3904L14.042 9.7952L10.4612 9.7952ZM13.9935 1.29549L14 1.43333L14 6.64291C14 6.91905 13.7761 7.14291 13.5 7.14291C13.2545 7.14291 13.0504 6.96604 13.0081 6.73279L13 1.43333C13 1.21951 12.8494 1.04343 12.6526 1.00694L2.42308 1C2.21649 1 2.04288 1.15232 2.00686 1.35512L2 13.5667C2 13.7805 2.15065 13.9566 2.34736 13.9931L7.69103 14C7.96717 14 8.19103 14.2239 8.19103 14.5C8.19103 14.7455 8.01416 14.9496 7.78091 14.9919L2.42308 15C1.68219 15 1.07533 14.4305 1.0065 13.7045L1 13.5667L1 1.43333C1 0.689447 1.56328 0.0761518 2.28583 0.00657341L2.42308 0L12.5769 0C13.3178 0 13.9247 0.569537 13.9935 1.29549ZM8.8324 7.04C8.8324 7.3056 8.618 7.52 8.3524 7.52L4.97 7.52C4.7044 7.52 4.49 7.3056 4.49 7.04C4.49 6.7744 4.7044 6.56 4.97 6.56L8.3524 6.56C8.618 6.56 8.8324 6.7744 8.8324 7.04ZM8.8324 4.48C8.8324 4.7456 8.618 4.96 8.3524 4.96L4.97 4.96C4.7044 4.96 4.49 4.7456 4.49 4.48C4.49 4.2144 4.7044 4 4.97 4L8.3524 4C8.618 4 8.8324 4.2144 8.8324 4.48Z" fill-rule="evenodd" stroke="rgb(0,0,0)" stroke-opacity="0" stroke-width="1" />
</svg>
