<svg viewBox="0 0 16 16" xmlns="http://www.w3.org/2000/svg" xmlns:xlink="http://www.w3.org/1999/xlink" width="16.000000" height="16.000000" fill="none">
	<rect id="操作图标/我的码豆" width="16.000000" height="16.000000" x="0.000000" y="0.000000" />
	<path id="形状结合" d="M8.87043 1.24472C11.3813 0.410903 14.1141 1.76645 14.8401 4.419C15.4484 6.64111 14.198 9.69863 12.6097 11.5972C11.0919 13.4116 9.22566 14.6509 6.59875 14.9588C3.3111 15.3441 0 13.2099 0 10.5685C0 8.39473 1.11157 7.14213 2.82718 6.56174L2.99175 6.50655L3.196 6.446L3.89254 6.24007C3.93447 6.22679 3.97377 6.21391 4.01135 6.20112L4.129 6.157C4.51151 6.00388 4.94115 5.75934 5.31452 5.41479L5.47709 5.2587C5.53999 5.19603 5.59856 5.12973 5.6558 5.05547C5.68299 5.02019 5.70989 4.98311 5.73681 4.94376L5.6558 5.05547C5.68522 5.01585 5.70745 4.98857 5.73681 4.94376C5.80282 4.8473 5.86898 4.73723 5.94004 4.60671L6.11153 4.27296L6.26276 3.95741L6.41566 3.63836C6.50105 3.46324 6.58658 3.2988 6.67364 3.14436C7.22621 2.16379 7.84038 1.58678 8.87043 1.24472ZM13.8176 4.49051C13.1712 2.53286 11.1035 1.55685 9.18558 2.19376C8.38754 2.45877 7.93118 2.90782 7.4672 3.7767C8.57616 5.38472 8.46548 7.17699 7.31862 8.20521C6.13777 9.2639 4.3924 9.0418 3.09433 7.52957L2.97564 7.57083C1.73702 8.04346 1 8.94459 1 10.5685C1 12.5286 3.72987 14.2882 6.48233 13.9656C8.81706 13.6919 10.4742 12.5916 11.8427 10.9556C13.2416 9.28335 14.3757 6.51014 13.8756 4.68301L13.8176 4.49051ZM6.94207 4.85084C6.70451 5.31009 6.45967 5.69154 6.18306 5.96712L5.98404 6.15759C5.52402 6.58024 5.08769 6.85392 4.59451 7.05134C4.51093 7.0848 4.42934 7.11504 4.34173 7.145C4.30294 7.15786 4.20799 7.18927 4.16574 7.20248C5.03511 8.00636 5.99031 8.05305 6.65108 7.46064C7.29924 6.87952 7.44645 5.88648 6.94207 4.85084Z" fill="rgb(25,25,25)" fill-rule="evenodd" />
	<path id="形状结合" d="M14.8401 4.419C15.4484 6.64111 14.198 9.69863 12.6097 11.5972C11.0919 13.4116 9.22566 14.6509 6.59875 14.9588C3.3111 15.3441 0 13.2099 0 10.5685C0 8.39473 1.11157 7.14213 2.82718 6.56174L2.99175 6.50655L3.196 6.446L3.89254 6.24007C3.93447 6.22679 3.97377 6.21391 4.01135 6.20112L4.129 6.157C4.51151 6.00388 4.94115 5.75934 5.31452 5.41479L5.47709 5.2587C5.53999 5.19603 5.59856 5.12973 5.6558 5.05547C5.68299 5.02019 5.70989 4.98311 5.73681 4.94376C5.80282 4.8473 5.86898 4.73723 5.94004 4.60671L6.11153 4.27296L6.26276 3.95741L6.41566 3.63836C6.50105 3.46324 6.58658 3.2988 6.67364 3.14436C7.22621 2.16379 7.84038 1.58678 8.87043 1.24472C11.3813 0.410903 14.1141 1.76645 14.8401 4.419ZM5.73681 4.94376L5.6558 5.05547M5.6558 5.05547C5.68522 5.01585 5.70745 4.98857 5.73681 4.94376M9.18558 2.19376C8.38754 2.45877 7.93118 2.90782 7.4672 3.7767C8.57616 5.38472 8.46548 7.17699 7.31862 8.20521C6.13777 9.2639 4.3924 9.0418 3.09433 7.52957L2.97564 7.57083C1.73702 8.04346 1 8.94459 1 10.5685C1 12.5286 3.72987 14.2882 6.48233 13.9656C8.81706 13.6919 10.4742 12.5916 11.8427 10.9556C13.2416 9.28335 14.3757 6.51014 13.8756 4.68301L13.8176 4.49051C13.1712 2.53286 11.1035 1.55685 9.18558 2.19376ZM6.18306 5.96712L5.98404 6.15759C5.52402 6.58024 5.08769 6.85392 4.59451 7.05134C4.51093 7.0848 4.42934 7.11504 4.34173 7.145C4.30294 7.15786 4.20799 7.18927 4.16574 7.20248C5.03511 8.00636 5.99031 8.05305 6.65108 7.46064C7.29924 6.87952 7.44645 5.88648 6.94207 4.85084C6.70451 5.31009 6.45967 5.69154 6.18306 5.96712Z" fill-rule="evenodd" stroke="rgb(0,0,0)" stroke-opacity="0" stroke-width="1" />
</svg>
