<svg viewBox="0 0 16 16" xmlns="http://www.w3.org/2000/svg" xmlns:xlink="http://www.w3.org/1999/xlink" width="16.000000" height="16.000000" fill="none">
	<rect id="操作图标/手动触发" width="16.000000" height="16.000000" x="0.000000" y="0.000000" />
	<path id="形状结合" d="M12.3138 5.80971L8.54345 5.64322L8.54345 2.5961C8.46387 1.70166 7.69276 1 6.76172 1C5.83067 1 5.06657 1.70166 4.98696 2.5961L4.97998 7.4259C4.40406 6.91138 3.52919 6.8123 2.83685 7.23789C2.04756 7.72306 1.77856 8.71607 2.19394 9.51581L5.15962 14.1859C5.18115 14.2234 5.20438 14.2598 5.22923 14.2952C5.34913 14.4661 5.68585 14.7343 5.68585 14.7343C5.95916 14.9017 6.29164 15 6.65033 15L12.3137 15C13.245 15 14 14.3379 14 13.5212L14 7.28849C14 6.47178 13.2451 5.80971 12.3138 5.80971ZM4.97998 12.3386L4.76199 11.9963L4.53199 11.644C4.49636 11.5896 4.46276 11.5338 4.43125 11.477L3.07831 9.35234C2.77112 8.79302 2.84365 8.16157 3.25551 7.9084C3.66738 7.65523 4.27399 7.86923 4.65159 8.38526L4.97473 8.88597C4.99235 8.92342 5.02045 8.96966 5.0479 9.00087C5.13327 9.09826 5.2576 9.15426 5.38842 9.15425C5.58863 9.15425 5.75821 9.02568 5.8165 8.84802L5.82493 2.91835C5.86647 2.28412 6.26884 1.78659 6.75467 1.78659C7.2405 1.78659 7.63924 2.28413 7.68077 2.91835L7.68441 6.04636C7.68441 6.11964 7.70468 6.18821 7.73988 6.24714C7.80268 6.35226 7.9132 6.42654 8.04226 6.44113L11.7753 6.60899C12.5296 6.60899 13.141 7.15269 13.141 7.82337L13.141 12.9416C13.141 13.6123 12.5296 14.156 11.7753 14.156L7.18876 14.156C6.60532 14.1284 5.94783 13.8127 5.59184 13.2674L5.34396 12.8878" fill="rgb(25,25,25)" fill-rule="evenodd" />
	<path id="形状结合" d="M8.54345 5.64322L8.54345 2.5961C8.46387 1.70166 7.69276 1 6.76172 1C5.83067 1 5.06657 1.70166 4.98696 2.5961L4.97998 7.4259C4.40406 6.91138 3.52919 6.8123 2.83685 7.23789C2.04756 7.72306 1.77856 8.71607 2.19394 9.51581L5.15962 14.1859C5.18115 14.2234 5.20438 14.2598 5.22923 14.2952C5.34913 14.4661 5.68585 14.7343 5.68585 14.7343C5.95916 14.9017 6.29164 15 6.65033 15L12.3137 15C13.245 15 14 14.3379 14 13.5212L14 7.28849C14 6.47178 13.2451 5.80971 12.3138 5.80971L8.54345 5.64322ZM4.97998 12.3386L4.76199 11.9963L4.53199 11.644C4.49636 11.5896 4.46276 11.5338 4.43125 11.477L3.07831 9.35234C2.77112 8.79302 2.84365 8.16157 3.25551 7.9084C3.66738 7.65523 4.27399 7.86923 4.65159 8.38526L4.97473 8.88597C4.99235 8.92342 5.02045 8.96966 5.0479 9.00087C5.13327 9.09826 5.2576 9.15426 5.38842 9.15425C5.58863 9.15425 5.75821 9.02568 5.8165 8.84802L5.82493 2.91835C5.86647 2.28412 6.26884 1.78659 6.75467 1.78659C7.2405 1.78659 7.63924 2.28413 7.68077 2.91835L7.68441 6.04636C7.68441 6.11964 7.70468 6.18821 7.73988 6.24714C7.80268 6.35226 7.9132 6.42654 8.04226 6.44113L11.7753 6.60899C12.5296 6.60899 13.141 7.15269 13.141 7.82337L13.141 12.9416C13.141 13.6123 12.5296 14.156 11.7753 14.156L7.18876 14.156C6.60532 14.1284 5.94783 13.8127 5.59184 13.2674L5.34396 12.8878" fill-rule="evenodd" stroke="rgb(0,0,0)" stroke-opacity="0" stroke-width="1" />
</svg>
