<svg viewBox="0 0 17 17" xmlns="http://www.w3.org/2000/svg" xmlns:xlink="http://www.w3.org/1999/xlink" width="17.000000" height="17.000000" fill="none">
	<rect id="操作图标/执行时长" width="17.000000" height="17.000000" x="0.000000" y="0.000000" />
	<path id="形状结合" d="M11.0002 1.83331C11.2763 1.83331 11.5002 2.05717 11.5002 2.33331C11.5002 2.57877 11.3233 2.78292 11.09 2.82526L9.4995 2.83331L9.50016 3.66665C9.50016 3.73195 9.48765 3.79432 9.46488 3.8515C12.6533 4.08782 15.1668 6.75036 15.1668 9.99998C15.1668 13.4057 12.4059 16.1666 9.00016 16.1666C5.59441 16.1666 2.8335 13.4057 2.8335 9.99998C2.8335 6.75036 5.34706 4.08782 8.53601 3.85052L8.50016 3.66665L8.4995 2.83331L7.00016 2.83331C6.72402 2.83331 6.50016 2.60946 6.50016 2.33331C6.50016 2.08785 6.67704 1.8837 6.91029 1.84137L11.0002 1.83331ZM9.00016 4.83331C6.14669 4.83331 3.8335 7.14651 3.8335 9.99998C3.8335 12.8535 6.14669 15.1666 9.00016 15.1666C11.8536 15.1666 14.1668 12.8535 14.1668 9.99998C14.1668 7.14651 11.8536 4.83331 9.00016 4.83331ZM9.00016 6.83331C9.24562 6.83331 9.44977 7.01019 9.49211 7.24344L9.4995 9.49931L11.6668 9.49998C11.943 9.49998 12.1668 9.72384 12.1668 9.99998C12.1668 10.2454 11.99 10.4496 11.7567 10.4919L9.00016 10.5C8.7547 10.5 8.55055 10.3231 8.50822 10.0899L8.50016 7.33331C8.50016 7.05717 8.72402 6.83331 9.00016 6.83331Z" fill="rgb(25,25,25)" fill-rule="evenodd" />
	<path id="形状结合" d="M11.5002 2.33331C11.5002 2.57877 11.3233 2.78292 11.09 2.82526L9.4995 2.83331L9.50016 3.66665C9.50016 3.73195 9.48765 3.79432 9.46488 3.8515C12.6533 4.08782 15.1668 6.75036 15.1668 9.99998C15.1668 13.4057 12.4059 16.1666 9.00016 16.1666C5.59441 16.1666 2.8335 13.4057 2.8335 9.99998C2.8335 6.75036 5.34706 4.08782 8.53601 3.85052L8.50016 3.66665L8.4995 2.83331L7.00016 2.83331C6.72402 2.83331 6.50016 2.60946 6.50016 2.33331C6.50016 2.08785 6.67704 1.8837 6.91029 1.84137L11.0002 1.83331C11.2763 1.83331 11.5002 2.05717 11.5002 2.33331ZM3.8335 9.99998C3.8335 12.8535 6.14669 15.1666 9.00016 15.1666C11.8536 15.1666 14.1668 12.8535 14.1668 9.99998C14.1668 7.14651 11.8536 4.83331 9.00016 4.83331C6.14669 4.83331 3.8335 7.14651 3.8335 9.99998ZM9.49211 7.24344L9.4995 9.49931L11.6668 9.49998C11.943 9.49998 12.1668 9.72384 12.1668 9.99998C12.1668 10.2454 11.99 10.4496 11.7567 10.4919L9.00016 10.5C8.7547 10.5 8.55055 10.3231 8.50822 10.0899L8.50016 7.33331C8.50016 7.05717 8.72402 6.83331 9.00016 6.83331C9.24562 6.83331 9.44977 7.01019 9.49211 7.24344Z" fill-rule="evenodd" stroke="rgb(0,0,0)" stroke-opacity="0" stroke-width="1" />
</svg>
