<svg viewBox="0 0 16 16" xmlns="http://www.w3.org/2000/svg" xmlns:xlink="http://www.w3.org/1999/xlink" width="16.000000" height="16.000000" fill="none">
	<rect id="操作图标/扫描(mobile-scans-border)" width="16.000000" height="16.000000" x="0.000000" y="0.000000" />
	<path id="合并" d="M2.2 1.1001L4.8 1.1001C5.1 1.1001 5.3 0.900098 5.3 0.600098C5.3 0.300098 5.1 0.100098 4.8 0.100098L2.2 0.100098C2 0.100098 1.9 0.100098 1.7 0.200098C1.5 0.300098 1.5 0.200098 1.4 0.200098C1.3 0.300098 1.1 0.400098 1 0.400098C0.9 0.500098 0.8 0.600098 0.7 0.700098C0.6 0.800098 0.5 0.900098 0.4 1.0001C0.3 1.2001 0.3 1.3001 0.2 1.4001C0.2 1.5001 0.1 1.7001 0.1 1.8001C0.1 2.0001 0 2.1001 0 2.3001L0 4.8001C0 5.1001 0.2 5.3001 0.5 5.3001C0.8 5.3001 1 5.1001 1 4.8001L1 2.3001C1 2.2001 1 2.1001 1 2.0001C1 1.9001 1 1.9001 1 1.8001C1 1.7001 1.1 1.7001 1.1 1.6001C1.1 1.5001 1.2 1.5001 1.3 1.4001C1.4 1.3001 1.4 1.3001 1.5 1.2001C1.6 1.2001 1.6 1.1001 1.7 1.1001C1.8 1.1001 1.8 1.1001 1.9 1.0001C2.1 1.1001 2.2 1.1001 2.2 1.1001ZM11.2 0.100098L13.8 0.100098C14.1 0.100098 14.4 0.200098 14.6 0.300098C14.9 0.400098 15.1 0.600098 15.3 0.800098C15.5 1.0001 15.7 1.2001 15.8 1.5001C15.8 1.6001 15.9 1.7001 15.9 1.9001C15.9 2.1001 16 2.2001 16 2.4001L16 4.9001C16 5.2001 15.8 5.4001 15.5 5.4001C15.2 5.4001 15 5.2001 15 4.9001L15 2.3001C15 2.1001 15 2.0001 14.9 1.8001C14.9 1.7001 14.9 1.7001 14.8 1.6001C14.7 1.5001 14.7 1.5001 14.6 1.4001C14.5 1.3001 14.4 1.2001 14.2 1.1001C14.1 1.0001 13.9 1.0001 13.7 1.0001L11.1 1.0001C10.8 1.0001 10.6 0.800098 10.6 0.500098C10.7 0.300098 10.9 0.100098 11.2 0.100098ZM3.2 8.0001C3.2 7.7001 3.4 7.5001 3.7 7.5001L12.2 7.5001C12.5 7.5001 12.7 7.7001 12.7 8.0001C12.7 8.3001 12.5 8.5001 12.2 8.5001L3.8 8.5001C3.5 8.5001 3.2 8.3001 3.2 8.0001ZM1 11.2001C1 10.9001 0.8 10.7001 0.5 10.7001C0.2 10.7001 0 10.9001 0 11.2001L0 13.7001C0 14.0001 0.1 14.3001 0.2 14.6001C0.3 14.9001 0.5 15.1001 0.7 15.3001C0.9 15.5001 1.1 15.7001 1.4 15.8001C1.5 15.9001 1.6 15.9001 1.8 15.9001C2 15.9001 2.1 16.0001 2.3 16.0001L4.9 16.0001C5.2 16.0001 5.4 15.8001 5.4 15.5001C5.4 15.2001 5.2 15.0001 4.9 15.0001L2.2 15.0001C2.1 15.0001 2 15.0001 1.9 15.0001C1.8 15.0001 1.8 15.0001 1.7 14.9001C1.6 14.9001 1.6 14.8001 1.5 14.8001C1.4 14.8001 1.4 14.7001 1.3 14.6001C1.2 14.5001 1.1 14.4001 1 14.2001C1.1 14.0001 1 13.9001 1 13.7001L1 11.2001ZM15.9 11.2001C15.9 10.9001 15.7 10.7001 15.4 10.7001C15.1 10.7001 14.9 10.9001 14.9 11.2001L14.9 13.7001C14.9 13.9001 14.9 14.0001 14.8 14.2001C14.8 14.4001 14.7 14.5001 14.5 14.6001C14.4 14.7001 14.3 14.8001 14.1 14.9001C14 15.0001 13.8 15.0001 13.6 15.0001L11 15.0001C10.7 15.0001 10.5 15.2001 10.5 15.5001C10.5 15.8001 10.7 16.0001 11 16.0001L13.6 16.0001C13.9 16.0001 14.2 15.9001 14.4 15.8001C14.7 15.7001 14.9 15.5001 15.1 15.3001C15.3 15.1001 15.5 14.9001 15.6 14.6001C15.7 14.3001 15.8 14.0001 15.8 13.7001L15.9 11.2001Z" fill="rgb(25,25,25)" fill-rule="evenodd" />
</svg>
