<svg viewBox="0 0 16 16" xmlns="http://www.w3.org/2000/svg" xmlns:xlink="http://www.w3.org/1999/xlink" width="16.000000" height="16.000000" fill="none">
	<rect id="操作图标/批量展开" width="16.000000" height="16.000000" x="0.000000" y="0.000000" />
	<path id="形状结合" d="M4.71569 10.5886C4.8862 10.4705 5.1138 10.4705 5.28431 10.5886L8 13.293L10.6464 10.6464C10.8413 10.5114 11.18 10.4729 11.3536 10.6464C11.5271 10.82 11.5464 11.0894 11.4114 11.2843L8.35355 14.3536C8.18304 14.4717 7.8862 14.5295 7.71569 14.4114L4.64645 11.3536C4.52833 11.183 4.47047 10.8862 4.58859 10.7157L4.71569 10.5886ZM14.5 7.5C14.7761 7.5 15 7.72386 15 8C15 8.24546 14.8231 8.44961 14.5899 8.49194L1.5 8.5C1.22386 8.5 1 8.27614 1 8C1 7.75454 1.17688 7.55039 1.41012 7.50806L14.5 7.5ZM8.28431 1.58859L11.3536 4.64645C11.5488 4.84171 11.5488 5.15829 11.3536 5.35355C11.18 5.52712 10.9106 5.5464 10.7157 5.41141L8 2.707L5.35355 5.35355C5.17999 5.52712 4.91056 5.5464 4.71569 5.41141C4.54213 5.23784 4.4536 4.91056 4.58859 4.71569L7.64645 1.64645C7.82001 1.47288 8.08944 1.4536 8.28431 1.58859Z" fill="rgb(25,25,25)" fill-rule="evenodd" />
	<path id="形状结合" d="M5.28431 10.5886L8 13.293L10.6464 10.6464C10.8413 10.5114 11.18 10.4729 11.3536 10.6464C11.5271 10.82 11.5464 11.0894 11.4114 11.2843L8.35355 14.3536C8.18304 14.4717 7.8862 14.5295 7.71569 14.4114L4.64645 11.3536C4.52833 11.183 4.47047 10.8862 4.58859 10.7157L4.71569 10.5886C4.8862 10.4705 5.1138 10.4705 5.28431 10.5886ZM15 8C15 8.24546 14.8231 8.44961 14.5899 8.49194L1.5 8.5C1.22386 8.5 1 8.27614 1 8C1 7.75454 1.17688 7.55039 1.41012 7.50806L14.5 7.5C14.7761 7.5 15 7.72386 15 8ZM11.3536 4.64645C11.5488 4.84171 11.5488 5.15829 11.3536 5.35355C11.18 5.52712 10.9106 5.5464 10.7157 5.41141L8 2.707L5.35355 5.35355C5.17999 5.52712 4.91056 5.5464 4.71569 5.41141C4.54213 5.23784 4.4536 4.91056 4.58859 4.71569L7.64645 1.64645C7.82001 1.47288 8.08944 1.4536 8.28431 1.58859L11.3536 4.64645Z" fill-rule="evenodd" stroke="rgb(0,0,0)" stroke-opacity="0" stroke-width="1" />
</svg>
