<svg viewBox="0 0 16 16" xmlns="http://www.w3.org/2000/svg" xmlns:xlink="http://www.w3.org/1999/xlink" width="16.000000" height="16.000000" fill="none">
	<rect id="操作图标/描述1" width="16.000000" height="16.000000" x="0.000000" y="0.000000" />
	<path id="形状结合" d="M13 2C14.1046 2 15 2.89543 15 4L15 12C15 13.1046 14.1046 14 13 14L3 14C1.89543 14 1 13.1046 1 12L1 4C1 2.89543 1.89543 2 3 2L13 2ZM13 3L3 3C2.48716 3 2.06449 3.38604 2.00673 3.88338L2 4L2 12C2 12.5128 2.38604 12.9355 2.88338 12.9933L3 13L13 13C13.5128 13 13.9355 12.614 13.9933 12.1166L14 12L14 4C14 3.48716 13.614 3.06449 13.1166 3.00673L13 3ZM5 7C5.55228 7 6 7.44772 6 8C6 8.55229 5.55228 9 5 9C4.44772 9 4 8.55229 4 8C4 7.44772 4.44772 7 5 7ZM8 7C8.55228 7 9 7.44772 9 8C9 8.55229 8.55228 9 8 9C7.44772 9 7 8.55229 7 8C7 7.44772 7.44772 7 8 7ZM11 7C11.5523 7 12 7.44772 12 8C12 8.55229 11.5523 9 11 9C10.4477 9 10 8.55229 10 8C10 7.44772 10.4477 7 11 7Z" fill="rgb(25,25,25)" fill-rule="evenodd" />
	<path id="形状结合" d="M15 4L15 12C15 13.1046 14.1046 14 13 14L3 14C1.89543 14 1 13.1046 1 12L1 4C1 2.89543 1.89543 2 3 2L13 2C14.1046 2 15 2.89543 15 4ZM3 3C2.48716 3 2.06449 3.38604 2.00673 3.88338L2 4L2 12C2 12.5128 2.38604 12.9355 2.88338 12.9933L3 13L13 13C13.5128 13 13.9355 12.614 13.9933 12.1166L14 12L14 4C14 3.48716 13.614 3.06449 13.1166 3.00673L13 3L3 3ZM6 8C6 8.55229 5.55228 9 5 9C4.44772 9 4 8.55229 4 8C4 7.44772 4.44772 7 5 7C5.55228 7 6 7.44772 6 8ZM9 8C9 8.55229 8.55228 9 8 9C7.44772 9 7 8.55229 7 8C7 7.44772 7.44772 7 8 7C8.55228 7 9 7.44772 9 8ZM12 8C12 8.55229 11.5523 9 11 9C10.4477 9 10 8.55229 10 8C10 7.44772 10.4477 7 11 7C11.5523 7 12 7.44772 12 8Z" fill-rule="evenodd" stroke="rgb(0,0,0)" stroke-opacity="0" stroke-width="1" />
</svg>
