<svg viewBox="0 0 16 16" xmlns="http://www.w3.org/2000/svg" xmlns:xlink="http://www.w3.org/1999/xlink" width="16.000000" height="16.000000" fill="none">
	<rect id="操作图标/描述" width="16.000000" height="16.000000" x="0.000000" y="0.000000" />
	<rect id="矩形" width="14.000000" height="12.000000" x="1.000000" y="2.000000" rx="2.000000" fill="rgb(223,223,223)" />
	<rect id="矩形" width="14.000000" height="12.000000" x="1.000000" y="2.000000" rx="2.000000" stroke="rgb(0,0,0)" stroke-opacity="0" stroke-width="1" />
	<path id="形状结合" d="M5 9C5.55228 9 6 8.55229 6 8C6 7.44772 5.55228 7 5 7C4.44772 7 4 7.44772 4 8C4 8.55229 4.44772 9 5 9ZM8 9C8.55229 9 9 8.55229 9 8C9 7.44772 8.55229 7 8 7C7.44772 7 7 7.44772 7 8C7 8.55229 7.44772 9 8 9ZM11 9C11.5523 9 12 8.55229 12 8C12 7.44772 11.5523 7 11 7C10.4477 7 10 7.44772 10 8C10 8.55229 10.4477 9 11 9Z" fill="rgb(25,25,25)" fill-rule="evenodd" />
	<path id="形状结合" d="M6 8C6 7.44772 5.55228 7 5 7C4.44772 7 4 7.44772 4 8C4 8.55229 4.44772 9 5 9C5.55228 9 6 8.55229 6 8ZM9 8C9 7.44772 8.55229 7 8 7C7.44772 7 7 7.44772 7 8C7 8.55229 7.44772 9 8 9C8.55229 9 9 8.55229 9 8ZM12 8C12 7.44772 11.5523 7 11 7C10.4477 7 10 7.44772 10 8C10 8.55229 10.4477 9 11 9C11.5523 9 12 8.55229 12 8Z" fill-rule="evenodd" stroke="rgb(0,0,0)" stroke-opacity="0" stroke-width="1" />
</svg>
