<svg viewBox="0 0 16 16" xmlns="http://www.w3.org/2000/svg" xmlns:xlink="http://www.w3.org/1999/xlink" width="16.000000" height="16.000000" fill="none" customFrame="#000000">
	<rect id="操作图标/播放" width="16.000000" height="16.000000" x="0.000000" y="0.000000" />
	<path id="形状结合" d="M0 8C0 3.58172 3.58172 0 8 0C12.4183 0 16 3.58172 16 8C16 12.4183 12.4183 16 8 16C3.58172 16 0 12.4183 0 8ZM1 8C1 4.13401 4.13401 1 8 1C11.866 1 15 4.13401 15 8C15 11.866 11.866 15 8 15C4.13401 15 1 11.866 1 8ZM6.00008 11.5858L6.00008 4.41418C6.00008 4.21579 6.03919 4.04203 6.11741 3.89288C6.15951 3.81262 6.21115 3.7419 6.27233 3.68073C6.32548 3.62759 6.38583 3.58166 6.45339 3.54292C6.60308 3.4571 6.78531 3.41418 7.00008 3.41418C7.06722 3.41418 7.13305 3.42067 7.19758 3.43365C7.25825 3.44584 7.31776 3.46378 7.37612 3.48744C7.43525 3.51142 7.49111 3.54045 7.5437 3.57452C7.60225 3.61245 7.65674 3.65664 7.70718 3.70708L11.293 7.29286C11.3434 7.34331 11.3876 7.39781 11.4255 7.45636C11.4596 7.50894 11.4886 7.5648 11.5126 7.62392C11.5363 7.68228 11.5542 7.74179 11.5664 7.80245C11.5794 7.86698 11.5859 7.93282 11.5859 7.99997C11.5859 8.06711 11.5794 8.13294 11.5664 8.19747C11.5542 8.25814 11.5363 8.31765 11.5126 8.37602C11.4886 8.43514 11.4596 8.491 11.4255 8.54359C11.3876 8.60214 11.3434 8.65663 11.293 8.70708L7.70718 12.2929C7.66031 12.3397 7.60985 12.3812 7.5558 12.4174C7.50171 12.4535 7.44403 12.4843 7.38276 12.5096C7.32149 12.535 7.25895 12.554 7.19516 12.5667C7.13139 12.5794 7.06636 12.5858 7.00008 12.5858C6.92874 12.5858 6.85895 12.5785 6.79073 12.5639C6.72945 12.5508 6.66944 12.5318 6.61067 12.507C6.55265 12.4824 6.49786 12.453 6.44632 12.4187C6.39154 12.3823 6.34042 12.3403 6.29297 12.2929C6.2455 12.2454 6.20353 12.1943 6.16708 12.1394C6.1328 12.0879 6.1034 12.0332 6.07887 11.9752C6.05401 11.9164 6.03504 11.8564 6.02194 11.7951C6.00736 11.7269 6.00008 11.6571 6.00008 11.5858ZM7.00008 11.5858L10.5859 7.99997L7.00008 4.41418L7.00008 11.5858Z" fill="rgb(25,25,25)" fill-rule="evenodd" />
</svg>
