<svg viewBox="0 0 16 16" xmlns="http://www.w3.org/2000/svg" xmlns:xlink="http://www.w3.org/1999/xlink" width="16.000000" height="16.000000" fill="none" customFrame="#000000">
	<rect id="操作图标/收起" width="16.000000" height="16.000000" x="0.000000" y="0.000000" />
	<path id="形状结合" d="M9.8556 0.855599L5.70915 5.00205C5.65871 5.05249 5.60422 5.09667 5.54567 5.1346C5.49308 5.16868 5.43722 5.1977 5.37809 5.22168C5.31972 5.24535 5.2602 5.26328 5.19952 5.27548C5.135 5.28845 5.06918 5.29494 5.00205 5.29494C4.93492 5.29494 4.86909 5.28845 4.80457 5.27548C4.74389 5.26328 4.68437 5.24535 4.626 5.22168C4.56687 5.1977 4.51101 5.16867 4.45842 5.1346C4.39987 5.09667 4.34538 5.05249 4.29494 5.00205L0.148492 0.855599C-0.0494975 0.657609 -0.0494975 0.346482 0.148492 0.148492C0.346482 -0.0494975 0.657609 -0.0494975 0.855599 0.148492L5.00205 4.29494L9.14849 0.148492C9.34648 -0.0494975 9.65761 -0.0494975 9.8556 0.148492C10.0536 0.346481 10.0536 0.65761 9.8556 0.855599Z" fill="rgb(25,25,25)" fill-rule="evenodd" transform="matrix(1,0,0,-1,2.99805,10.7521)" />
</svg>
