<svg viewBox="0 0 16 16" xmlns="http://www.w3.org/2000/svg" xmlns:xlink="http://www.w3.org/1999/xlink" width="16.000000" height="16.000000" fill="none">
	<rect id="操作图标/文件冲突" width="16.000000" height="16.000000" x="0.000000" y="0.000000" />
	<path id="形状结合" d="M5.38197 2C5.76074 2 6.107 2.214 6.27639 2.55279L7 4L13 4C13.5523 4 14 4.44772 14 5L14.0011 6.25644C13.6826 6.14377 13.3476 6.06594 13.0007 6.02754L13 5L7 5C6.66331 5 6.35231 4.83091 6.16839 4.5554L6.10557 4.44721L5.381 3L2 3L2 7L9.67121 7.0001C9.31876 7.28532 9.01026 7.6227 8.75744 8.0005L2 8L2 13L8.75812 13.0005C9.01105 13.3783 9.31967 13.7156 9.67223 14.0007L2 14C1.44772 14 1 13.5523 1 13L1 3C1 2.44772 1.44772 2 2 2L5.38197 2ZM12.5 7C14.433 7 16 8.567 16 10.5C16 12.433 14.433 14 12.5 14C10.567 14 9 12.433 9 10.5C9 8.567 10.567 7 12.5 7ZM13 12L12 12L12 13L13 13L13 12ZM13 8L12 8L12 11L13 11L13 8Z" fill="rgb(25,25,25)" fill-rule="evenodd" />
	<path id="形状结合" d="M6.27639 2.55279L7 4L13 4C13.5523 4 14 4.44772 14 5L14.0011 6.25644C13.6826 6.14377 13.3476 6.06594 13.0007 6.02754L13 5L7 5C6.66331 5 6.35231 4.83091 6.16839 4.5554L6.10557 4.44721L5.381 3L2 3L2 7L9.67121 7.0001C9.31876 7.28532 9.01026 7.6227 8.75744 8.0005L2 8L2 13L8.75812 13.0005C9.01105 13.3783 9.31967 13.7156 9.67223 14.0007L2 14C1.44772 14 1 13.5523 1 13L1 3C1 2.44772 1.44772 2 2 2L5.38197 2C5.76074 2 6.107 2.214 6.27639 2.55279ZM16 10.5C16 12.433 14.433 14 12.5 14C10.567 14 9 12.433 9 10.5C9 8.567 10.567 7 12.5 7C14.433 7 16 8.567 16 10.5ZM12 12L12 13L13 13L13 12L12 12ZM12 8L12 11L13 11L13 8L12 8Z" fill-rule="evenodd" stroke="rgb(0,0,0)" stroke-opacity="0" stroke-width="1" />
</svg>
