<svg viewBox="0 0 16 16" xmlns="http://www.w3.org/2000/svg" xmlns:xlink="http://www.w3.org/1999/xlink" width="16.000000" height="16.000000" fill="none">
	<rect id="操作图标/文档(CodeArts-Documentation)" width="16.000000" height="16.000000" x="0.000000" y="0.000000" />
	<path id="path" d="M2.7002 14.8999L7.7002 14.8999C8.0002 14.8999 8.2002 14.6999 8.2002 14.3999C8.2002 14.0999 8.0002 13.8999 7.7002 13.8999L2.7002 13.8999C2.6002 13.8999 2.4002 13.8999 2.2002 13.7999C2.0002 13.6999 1.8002 13.6999 1.7002 13.5999C1.6002 13.4999 1.5002 13.3999 1.4002 13.2999C1.2002 13.0999 1.1002 12.6999 1.1002 12.3999L1.1002 3.3999C1.1002 3.2999 1.1002 3.1999 1.2002 3.0999C1.2002 2.9999 1.3002 2.8999 1.3002 2.7999C1.4002 2.6999 1.6002 2.4999 1.8002 2.3999C1.9002 2.3999 2.0002 2.2999 2.2002 2.2999L4.0002 2.2999C4.1002 2.2999 4.1002 2.2999 4.2002 2.2999C4.3002 2.3999 4.4002 2.3999 4.5002 2.4999C4.7002 2.5999 5.4002 3.0999 6.6002 3.9999C6.8002 4.0999 7.0002 4.2999 7.3002 4.3999C7.7002 4.5999 8.0002 4.6999 8.2002 4.6999L13.2002 4.6999C13.5002 4.6999 13.8002 4.7999 14.0002 4.8999C14.1002 4.9999 14.2002 4.9999 14.2002 5.0999C14.3002 5.1999 14.3002 5.1999 14.4002 5.2999C14.6002 5.5999 14.7002 6.1999 14.7002 6.7999C14.7002 7.4999 14.7002 8.7999 14.7002 10.9999C14.7002 11.8999 14.7002 12.4999 14.7002 12.8999C14.7002 13.1999 14.9002 13.3999 15.2002 13.3999C15.5002 13.3999 15.7002 13.1999 15.7002 12.8999C15.7002 12.5999 15.7002 11.8999 15.7002 10.9999C15.7002 8.8999 15.7002 7.4999 15.7002 6.8999C15.7002 5.9999 15.6002 5.2999 15.2002 4.7999C15.1002 4.5999 15.0002 4.4999 14.8002 4.2999C14.4002 3.8999 13.9002 3.6999 13.2002 3.6999L8.2002 3.6999C8.10019 3.6999 7.9002 3.6999 7.7002 3.4999C7.5002 3.3999 7.4002 3.3999 7.2002 3.2999C6.0002 2.2999 5.2002 1.7999 5.1002 1.6999C4.9002 1.5999 4.8002 1.5999 4.6002 1.4999C4.5002 1.3999 4.2002 1.3999 4.1002 1.3999L2.2002 1.3999C2.0002 1.3999 1.8002 1.3999 1.6002 1.4999C1.5002 1.4999 1.4002 1.5999 1.3002 1.5999C1.3002 1.5999 1.2002 1.5999 1.2002 1.6999C1.0002 1.7999 0.900195 1.8999 0.700195 2.0999C0.700195 2.1999 0.600195 2.1999 0.600195 2.2999C0.500195 2.4999 0.400195 2.5999 0.400195 2.7999C0.300195 2.9999 0.200195 3.1999 0.200195 3.3999L0.200195 12.3999C0.200195 12.7999 0.300195 13.2999 0.500195 13.5999C0.600195 13.6999 0.600195 13.7999 0.700195 13.9999C0.800195 14.1999 1.0002 14.2999 1.2002 14.3999C1.4002 14.5999 1.7002 14.6999 2.0002 14.7999C2.3002 14.7999 2.5002 14.8999 2.7002 14.8999ZM11.1002 12.5999L11.1002 10.2999C11.1002 10.1999 11.0002 10.0999 10.8002 10.0999C10.7002 10.0999 10.6002 10.1999 10.6002 10.2999L10.6002 13.3999L10.6002 13.4999C10.6002 13.5999 10.7002 13.6999 10.7002 13.7999C10.8002 13.8999 10.8002 13.9999 10.9002 13.9999C11.1002 14.0999 11.3002 14.1999 11.6002 14.1999C11.9002 14.1999 12.1002 14.0999 12.2002 13.9999C12.3002 13.8999 12.4002 13.8999 12.4002 13.6999C12.5002 13.5999 12.5002 13.4999 12.5002 13.3999C12.5002 13.2999 12.5002 13.2999 12.5002 13.2999L12.5002 9.4999C12.5002 9.3999 12.5002 9.3999 12.4002 9.2999C12.3002 9.0999 12.3002 8.8999 12.1002 8.6999C11.8002 8.0999 11.3002 7.8999 10.6002 7.8999C10.1002 7.8999 9.8002 7.9999 9.5002 8.1999C9.6002 8.4999 9.4002 8.6999 9.3002 8.8999C9.2002 8.9999 9.1002 9.1999 9.1002 9.4999C9.1002 9.5999 9.1002 9.6999 9.0002 9.6999L9.0002 12.6999C9.0002 12.9999 8.8002 13.1999 8.5002 13.1999C8.2002 13.1999 8.0002 12.8999 8.0002 12.5999L8.0002 9.5999C8.0002 9.4999 8.0002 9.3999 8.1002 9.1999C8.2002 8.8999 8.3002 8.5999 8.5002 8.2999C8.7002 7.9999 8.8002 7.7999 9.1002 7.5999C9.2002 7.4999 9.3002 7.3999 9.4002 7.3999C9.8002 7.1999 10.4002 6.9999 11.0002 6.9999C11.4002 6.9999 11.8002 7.0999 12.2002 7.2999C12.3002 7.3999 12.5002 7.4999 12.6002 7.4999C12.8002 7.6999 13.0002 7.9999 13.2002 8.3999C13.3002 8.6999 13.5002 8.8999 13.6002 9.2999C13.7002 9.4999 13.7002 9.5999 13.7002 9.6999L13.7002 13.5999C13.7002 13.6999 13.7002 13.7999 13.6002 13.8999C13.5002 14.0999 13.5002 14.2999 13.3002 14.4999C13.1002 14.7999 12.8002 14.9999 12.6002 15.1999C12.3002 15.2999 12.0002 15.3999 11.6002 15.3999C11.2002 15.3999 10.8002 15.2999 10.5002 15.0999C10.2002 14.9999 10.0002 14.6999 9.90019 14.4999C9.80019 14.2999 9.70019 14.0999 9.70019 13.8999C9.70019 13.7999 9.60019 13.6999 9.60019 13.5999L9.60019 10.3999C9.60019 10.2999 9.60019 10.2999 9.60019 10.1999C9.60019 10.0999 9.70019 9.8999 9.70019 9.7999C9.80019 9.6999 9.80019 9.5999 9.90019 9.5999C10.0002 9.4999 10.1002 9.4999 10.1002 9.3999C10.3002 9.2999 10.5002 9.1999 10.8002 9.1999C11.1002 9.1999 11.3002 9.2999 11.5002 9.3999C11.6002 9.4999 11.7002 9.4999 11.7002 9.5999C11.8002 9.6999 11.8002 9.7999 11.9002 9.7999C12.0002 9.8999 12.0002 9.9999 12.0002 10.1999C12.0002 10.2999 12.0002 10.2999 12.0002 10.3999L12.0002 12.6999C12.0002 12.9999 11.8002 13.1999 11.5002 13.1999C11.3002 13.0999 11.1002 12.8999 11.1002 12.5999Z" fill="rgb(25,25,25)" fill-rule="evenodd" />
</svg>
