<svg viewBox="0 0 16 16" xmlns="http://www.w3.org/2000/svg" xmlns:xlink="http://www.w3.org/1999/xlink" width="16.000000" height="16.000000" fill="none">
	<rect id="操作图标/文本内容(text-content)" width="16.000000" height="16.000000" x="0.000000" y="0.000000" />
	<g id="g" style="mix-blend-mode:normal">
		<path id="矢量 408" d="M13.81 1.03C13.71 1.01 13.6 1 13.5 1L2.5 1C2.39 1 2.28 1.01 2.18 1.03C2.09 1.05 2 1.08 1.91 1.11C1.83 1.15 1.74 1.19 1.67 1.24C1.58 1.3 1.51 1.36 1.43 1.43C1.36 1.51 1.3 1.58 1.24 1.67C1.19 1.74 1.15 1.82 1.11 1.91C1.08 2 1.05 2.09 1.03 2.18C1.01 2.28 1 2.39 1 2.5L1 13.5C1 13.6 1.01 13.71 1.03 13.81C1.05 13.9 1.08 13.99 1.11 14.08C1.15 14.17 1.19 14.25 1.24 14.32C1.3 14.41 1.36 14.48 1.43 14.56C1.51 14.63 1.58 14.69 1.67 14.75C1.74 14.8 1.83 14.84 1.91 14.88C2 14.91 2.09 14.94 2.18 14.96C2.28 14.98 2.39 15 2.5 15L13.5 15C13.6 15 13.71 14.98 13.81 14.96C13.9 14.94 13.99 14.91 14.08 14.88C14.16 14.84 14.25 14.8 14.32 14.75C14.41 14.69 14.48 14.63 14.56 14.56C14.63 14.48 14.69 14.41 14.75 14.32C14.8 14.25 14.84 14.17 14.88 14.08C14.91 13.99 14.94 13.9 14.96 13.81C14.98 13.71 15 13.6 15 13.5L15 2.5C15 2.39 14.98 2.28 14.96 2.18C14.94 2.09 14.91 2 14.88 1.91C14.84 1.82 14.8 1.74 14.75 1.67C14.69 1.58 14.63 1.51 14.56 1.43C14.48 1.36 14.41 1.3 14.32 1.24C14.25 1.19 14.16 1.15 14.08 1.11C13.99 1.08 13.9 1.05 13.81 1.03ZM2.5 2L13.5 2C13.56 2 13.63 2.01 13.69 2.03C13.75 2.06 13.8 2.09 13.85 2.14C13.9 2.19 13.93 2.24 13.96 2.3C13.98 2.36 14 2.43 14 2.5L14 13.5C14 13.56 13.98 13.63 13.96 13.69C13.93 13.75 13.9 13.8 13.85 13.85C13.8 13.9 13.75 13.93 13.69 13.96C13.63 13.98 13.56 14 13.5 14L2.5 14C2.43 14 2.36 13.98 2.3 13.96C2.24 13.93 2.19 13.9 2.14 13.85C2.09 13.8 2.06 13.75 2.03 13.69C2.01 13.63 2 13.56 2 13.5L2 2.5C2 2.43 2.01 2.36 2.03 2.3C2.06 2.24 2.09 2.19 2.14 2.14C2.19 2.09 2.24 2.06 2.3 2.03C2.36 2.01 2.43 2 2.5 2ZM5 5.5C5 5.77 5.22 6 5.5 6L7.5 6L7.5 10.5C7.5 10.77 7.72 11 8 11C8.27 11 8.5 10.77 8.5 10.5L8.5 6L10.5 6C10.77 6 11 5.77 11 5.5C11 5.22 10.77 5 10.5 5L5.5 5C5.22 5 5 5.22 5 5.5Z" fill="rgb(25,25,25)" fill-rule="evenodd" />
	</g>
</svg>
