<svg viewBox="0 0 16 16" xmlns="http://www.w3.org/2000/svg" xmlns:xlink="http://www.w3.org/1999/xlink" width="16.000000" height="16.000000" fill="none">
	<rect id="操作图标/新建" width="16.000000" height="16.000000" x="0.000000" y="0.000000" />
	<path id="形状结合" d="M8.50039 1.5C8.50039 1.22 8.28039 1 8.00039 1C7.72039 1 7.50039 1.22 7.50039 1.5L7.50039 7.49976L1.5 7.49976C1.22 7.49976 1 7.71976 1 7.99976C1 8.27976 1.22 8.49976 1.5 8.49976L7.50039 8.49976L7.50039 14.5C7.50039 14.78 7.72039 15 8.00039 15C8.28039 15 8.50039 14.78 8.50039 14.5L8.50039 8.49976L14.5 8.49976C14.78 8.49976 15 8.27976 15 7.99976C15 7.71976 14.78 7.49976 14.5 7.49976L8.50039 7.49976L8.50039 1.5Z" fill="rgb(25,25,25)" fill-rule="evenodd" />
</svg>
