<svg viewBox="0 0 16 16" xmlns="http://www.w3.org/2000/svg" xmlns:xlink="http://www.w3.org/1999/xlink" width="16.000000" height="16.000000" fill="none" customFrame="#000000">
	<rect id="操作图标/日期" width="16.000000" height="16.000000" x="0.000000" y="0.000000" />
	<path id="形状结合" d="M4.99072 1.45093L4.99072 2.2821L3.57397 2.2821Q3.33523 2.2821 3.10683 2.3307Q3.10508 2.33107 3.10333 2.33145L3.10103 2.33194Q3.0969 2.33283 3.09277 2.33374C2.96045 2.36285 2.83057 2.4043 2.70337 2.45801C2.57617 2.5119 2.45557 2.57635 2.34229 2.65131C2.21729 2.73376 2.10083 2.82904 1.99292 2.93701C1.88477 3.04504 1.78955 3.1615 1.70703 3.28638C1.63208 3.39984 1.56763 3.52026 1.51392 3.64764C1.45996 3.77478 1.4187 3.90454 1.3894 4.03705C1.35498 4.19366 1.33789 4.35406 1.33789 4.51819L1.33789 12.7682C1.33789 12.9324 1.35498 13.0928 1.3894 13.2494C1.4187 13.3819 1.45996 13.5117 1.51392 13.6388Q1.59398 13.8283 1.70525 13.9973L1.70527 13.9974L1.70528 13.9974Q1.82962 14.1862 1.99292 14.3494C2.10083 14.4575 2.21729 14.5527 2.34204 14.6352C2.45557 14.7101 2.57617 14.7745 2.70337 14.8284C2.98071 14.9457 3.271 15.0044 3.57397 15.0044L12.4219 15.0044Q12.6606 15.0044 12.889 14.9558Q12.8961 14.9543 12.9031 14.9528C13.0354 14.9236 13.1653 14.8822 13.2922 14.8284C13.5598 14.7153 13.7969 14.5556 14.0029 14.3494Q14.1662 14.1862 14.2906 13.9973Q14.4019 13.8283 14.4819 13.6388C14.5994 13.3615 14.658 13.0714 14.658 12.7682L14.658 7.36908C14.658 7.08905 14.438 6.86908 14.158 6.86908C13.8779 6.86908 13.658 7.08905 13.658 7.36908L13.658 12.7682C13.658 12.9362 13.6255 13.0965 13.561 13.2493C13.4985 13.3971 13.4102 13.5281 13.2959 13.6423C13.1816 13.7565 13.0505 13.8449 12.9028 13.9074C12.75 13.972 12.5896 14.0044 12.4219 14.0044L3.57397 14.0044C3.47729 14.0044 3.3833 13.9937 3.29175 13.9723C3.22412 13.9565 3.15796 13.9349 3.09302 13.9074C2.94507 13.8449 2.81421 13.7565 2.69995 13.6423C2.58569 13.5281 2.49731 13.3971 2.43481 13.2493C2.37012 13.0965 2.33789 12.9362 2.33789 12.7682L2.33789 4.51819C2.33789 4.42163 2.34863 4.32751 2.36987 4.23596C2.38574 4.16833 2.40747 4.10211 2.43481 4.03723C2.46338 3.96967 2.49731 3.9057 2.53662 3.84521Q2.53905 3.84148 2.54151 3.83776Q2.61015 3.73397 2.69995 3.64417C2.76196 3.58209 2.8291 3.52765 2.90088 3.4809C2.96143 3.44153 3.02539 3.40759 3.09302 3.37903C3.15796 3.35162 3.22412 3.32996 3.29175 3.31421C3.3833 3.29279 3.47729 3.2821 3.57397 3.2821L12.4219 3.2821C12.5896 3.2821 12.75 3.31439 12.9028 3.37903C13.0505 3.44159 13.1816 3.52991 13.2959 3.64417C13.4102 3.75836 13.4985 3.8894 13.561 4.03723C13.6255 4.19 13.658 4.35034 13.658 4.51819L13.658 4.83044L3.89111 4.83044C3.61133 4.83044 3.39111 5.05042 3.39111 5.33044C3.39111 5.61041 3.61133 5.83044 3.89111 5.83044L14.158 5.83044C14.4912 5.83044 14.658 5.66376 14.658 5.33044L14.658 4.51819C14.658 4.35406 14.6406 4.19366 14.6062 4.03711C14.5771 3.90454 14.5356 3.77478 14.4819 3.64764C14.428 3.52026 14.3638 3.39984 14.2888 3.28638C14.2063 3.1615 14.1111 3.04504 14.0029 2.93701C13.7969 2.7309 13.5598 2.57123 13.2922 2.45801C13.1653 2.4043 13.0354 2.36285 12.9028 2.33368C12.7463 2.29932 12.5859 2.2821 12.4219 2.2821L11.0098 2.2821L11.0098 1.45093C11.0098 1.20789 10.8186 1.01691 10.5757 1.01691C10.3325 1.01691 10.1416 1.20789 10.1416 1.45093L10.1416 2.2821L5.85889 2.2821L5.85889 1.45093C5.85889 1.20789 5.66772 1.01691 5.4248 1.01691C5.18164 1.01691 4.99072 1.20789 4.99072 1.45093ZM8.51587 7.31238L7.4856 7.31238C7.34351 7.31238 7.22803 7.42773 7.22803 7.57001L7.22803 8.60052C7.22803 8.7428 7.34351 8.85815 7.4856 8.85815L8.51587 8.85815C8.6582 8.85815 8.77344 8.7428 8.77344 8.60052L8.77344 7.57001C8.77344 7.42773 8.6582 7.31238 8.51587 7.31238ZM10.5767 7.31238L11.6067 7.31238C11.749 7.31238 11.8643 7.42773 11.8643 7.57001L11.8643 8.60052C11.8643 8.7428 11.749 8.85815 11.6067 8.85815L10.5767 8.85815C10.4343 8.85815 10.3191 8.7428 10.3191 8.60052L10.3191 7.57001C10.3191 7.42773 10.4343 7.31238 10.5767 7.31238ZM5.42529 10.4039L4.39502 10.4039C4.25269 10.4039 4.13745 10.5192 4.13745 10.6615L4.13745 11.692C4.13745 11.8344 4.25269 11.9496 4.39502 11.9496L5.42529 11.9496C5.56738 11.9496 5.68286 11.8344 5.68286 11.692L5.68286 10.6615C5.68286 10.5192 5.56738 10.4039 5.42529 10.4039ZM7.4856 10.4039L8.51587 10.4039C8.6582 10.4039 8.77344 10.5192 8.77344 10.6615L8.77344 11.692C8.77344 11.8344 8.6582 11.9496 8.51587 11.9496L7.4856 11.9496C7.34351 11.9496 7.22803 11.8344 7.22803 11.692L7.22803 10.6615C7.22803 10.5192 7.34351 10.4039 7.4856 10.4039Z" fill="rgb(25,25,25)" fill-rule="evenodd" />
</svg>
