<svg viewBox="0 0 16 16" xmlns="http://www.w3.org/2000/svg" xmlns:xlink="http://www.w3.org/1999/xlink" width="16.000000" height="16.000000" fill="none" customFrame="#000000">
	<rect id="操作图标/时间" width="16.000000" height="16.000000" x="0.000000" y="0.000000" fill="rgb(255,255,255)" fill-opacity="0" />
	<path id="形状结合" d="M8 1C11.866 1 15 4.13401 15 8C15 11.866 11.866 15 8 15C4.13401 15 1 11.866 1 8C1 4.13401 4.13401 1 8 1ZM8 2C4.68629 2 2 4.68629 2 8C2 11.3137 4.68629 14 8 14C11.3137 14 14 11.3137 14 8C14 4.68629 11.3137 2 8 2ZM8.49194 3.41012C8.44961 3.17687 8.24546 3 8 3C7.72386 3 7.5 3.22386 7.5 3.5L7.5 8C7.5 8.27614 7.72386 8.5 8 8.5L11.5 8.5C11.7332 8.45766 12 8.24546 12 8C12 7.72386 11.7761 7.5 11.5 7.5L8.5 7.5L8.49194 3.41012Z" fill="rgb(25,25,25)" fill-rule="evenodd" />
</svg>
