<svg viewBox="0 0 16 16" xmlns="http://www.w3.org/2000/svg" xmlns:xlink="http://www.w3.org/1999/xlink" width="16.000000" height="16.000000" fill="none">
	<rect id="操作图标/显示字段" width="16.000000" height="16.000000" x="0.000000" y="0.000000" />
	<path id="形状结合" d="M14 2C14.5523 2 15 2.44772 15 3L15 13C15 13.5523 14.5523 14 14 14L2 14C1.44772 14 1 13.5523 1 13L1 3C1 2.44772 1.44772 2 2 2L14 2ZM14 3L2 3L2 13L14 13L14 3ZM9 9.5C9.27614 9.5 9.5 9.72386 9.5 10C9.5 10.2761 9.27614 10.5 9 10.5L4 10.5C3.72386 10.5 3.5 10.2761 3.5 10C3.5 9.72386 3.72386 9.5 4 9.5L9 9.5ZM12 5.5C12.2761 5.5 12.5 5.72386 12.5 6C12.5 6.27614 12.2761 6.5 12 6.5L4 6.5C3.72386 6.5 3.5 6.27614 3.5 6C3.5 5.72386 3.72386 5.5 4 5.5L12 5.5Z" fill="rgb(25,25,25)" fill-rule="evenodd" />
	<path id="形状结合" d="M15 3L15 13C15 13.5523 14.5523 14 14 14L2 14C1.44772 14 1 13.5523 1 13L1 3C1 2.44772 1.44772 2 2 2L14 2C14.5523 2 15 2.44772 15 3ZM2 3L2 13L14 13L14 3L2 3ZM9.5 10C9.5 10.2761 9.27614 10.5 9 10.5L4 10.5C3.72386 10.5 3.5 10.2761 3.5 10C3.5 9.72386 3.72386 9.5 4 9.5L9 9.5C9.27614 9.5 9.5 9.72386 9.5 10ZM12.5 6C12.5 6.27614 12.2761 6.5 12 6.5L4 6.5C3.72386 6.5 3.5 6.27614 3.5 6C3.5 5.72386 3.72386 5.5 4 5.5L12 5.5C12.2761 5.5 12.5 5.72386 12.5 6Z" fill-rule="evenodd" stroke="rgb(0,0,0)" stroke-opacity="0" stroke-width="1" />
</svg>
