<svg viewBox="0 0 16 16" xmlns="http://www.w3.org/2000/svg" xmlns:xlink="http://www.w3.org/1999/xlink" width="16.000000" height="16.000000" fill="none" customFrame="#000000">
	<defs>
		<clipPath id="clipPath_27">
			<rect width="16.000000" height="16.000000" x="0.000000" y="0.000000" fill="rgb(255,255,255)" />
		</clipPath>
	</defs>
	<rect id="操作图标/智能对话专用更多(more)" width="16.000000" height="16.000000" x="0.000000" y="0.000000" fill="rgb(255,255,255)" fill-opacity="0" />
	<g id="操作图标/智能对话专用更多(more)" clip-path="url(#clipPath_27)" customFrame="url(#clipPath_27)">
		<rect id="操作图标/智能对话专用更多(more)" width="16.000000" height="16.000000" x="0.000000" y="0.000000" />
		<path id="形状结合" d="M8.00456 1.34814C9.48258 1.34814 10.8884 1.83094 12.0401 2.70764C12.2598 2.8749 12.3023 3.18862 12.1351 3.40834C11.9678 3.62806 11.6541 3.67058 11.4344 3.50332C10.4553 2.75802 9.26181 2.34814 8.00456 2.34814C4.87513 2.34814 2.33789 4.88519 2.33789 8.01481C2.33789 11.144 4.87537 13.6815 8.00456 13.6815C11.1342 13.6815 13.6712 11.1442 13.6712 8.01481C13.6712 6.75788 13.2618 5.56504 12.5166 4.58555C12.3494 4.36578 12.392 4.05207 12.6118 3.88488C12.8316 3.71768 13.1453 3.7603 13.3125 3.98007C14.1889 5.13213 14.6712 6.53722 14.6712 8.01481C14.6712 11.6965 11.6865 14.6815 8.00456 14.6815C4.32308 14.6815 1.33789 11.6963 1.33789 8.01481C1.33789 4.33289 4.32286 1.34814 8.00456 1.34814ZM4.99982 6.99985C5.55211 6.99985 5.99982 7.44756 5.99982 7.99985C5.99982 8.55213 5.55211 8.99985 4.99982 8.99985C4.44754 8.99985 3.99982 8.55213 3.99982 7.99985C3.99982 7.44756 4.44754 6.99985 4.99982 6.99985ZM7.99982 6.99985C8.55211 6.99985 8.99982 7.44756 8.99982 7.99985C8.99982 8.55213 8.55211 8.99985 7.99982 8.99985C7.44754 8.99985 6.99982 8.55213 6.99982 7.99985C6.99982 7.44756 7.44754 6.99985 7.99982 6.99985ZM10.9998 6.99985C11.5521 6.99985 11.9998 7.44756 11.9998 7.99985C11.9998 8.55213 11.5521 8.99985 10.9998 8.99985C10.4475 8.99985 9.99982 8.55213 9.99982 7.99985C9.99982 7.44756 10.4475 6.99985 10.9998 6.99985Z" fill="rgb(25,25,25)" fill-rule="evenodd" />
	</g>
</svg>
