<svg viewBox="0 0 16 16" xmlns="http://www.w3.org/2000/svg" xmlns:xlink="http://www.w3.org/1999/xlink" width="16.000000" height="16.000000" fill="none">
	<rect id="操作图标/智能推荐" width="16.000000" height="16.000000" x="0.000000" y="0.000000" fill="rgb(255,255,255)" fill-opacity="0" />
	<g id="ai-inspiratior">
		<path id="矢量 802" d="M12.6218 0.596581C12.6863 0.348341 13.0457 0.318008 13.1125 0.565594C13.2234 0.949696 13.5442 1.2907 13.9324 1.38837C14.1841 1.4518 14.1843 1.80975 13.9324 1.87323C13.531 1.97433 13.2146 2.29073 13.1138 2.6919C13.0503 2.94382 12.6924 2.94386 12.6289 2.69195C12.5278 2.29073 12.2114 1.97435 11.8101 1.87335C11.5583 1.80992 11.5581 1.45197 11.8101 1.38849C12.2031 1.28947 12.5154 0.983662 12.6218 0.596581ZM6.58765 2.44759L6.63208 2.27675C6.76099 1.78027 7.46484 1.77676 7.59863 2.27193L7.67017 2.53659C8.43213 5.17212 10.5537 7.22463 13.2161 7.89494C13.72 8.0218 13.72 8.73769 13.2161 8.86465C10.4629 9.55845 8.29468 11.7269 7.60156 14.4799C7.47461 14.9837 6.75879 14.9838 6.63184 14.48C5.93799 11.7267 3.76953 9.55844 1.0166 8.86531C0.512695 8.73846 0.512695 8.02256 1.0166 7.8956C3.71289 7.21611 5.85254 5.12036 6.58765 2.44759ZM12.9722 11.9186C12.8018 12.5379 12.2905 13.0729 11.6619 13.2314C11.2588 13.3329 11.2588 13.9056 11.6619 14.0071C12.3037 14.1687 12.8101 14.6749 12.9717 15.3169C13.0732 15.7199 13.646 15.7199 13.7476 15.3168C13.9092 14.6749 14.4153 14.1687 15.0571 14.0069C15.4602 13.9054 15.4602 13.3326 15.0571 13.2312C14.4365 13.0749 13.9412 12.5957 13.7634 11.9811C13.6562 11.585 13.0754 11.5214 12.9722 11.9186Z" fill="rgb(20,118,255)" fill-rule="nonzero" />
		<path id="矢量 802" d="M11.9254 9.31526C12.3377 9.12874 12.7692 8.97727 13.2161 8.86465C13.72 8.73769 13.72 8.0218 13.2161 7.89494C12.7693 7.78245 12.3377 7.63104 11.9253 7.44447C11.8137 7.39401 11.7036 7.34099 11.5949 7.28546C10.1433 6.54384 8.95453 5.35686 8.21112 3.9026C8.15541 3.79361 8.1022 3.68312 8.05156 3.5712C7.90095 3.23829 7.77314 2.89277 7.67017 2.53659L7.59863 2.27193C7.46484 1.77676 6.76099 1.78027 6.63208 2.27675L6.58765 2.44759C6.48098 2.83541 6.34474 3.21109 6.18152 3.57205C6.13129 3.68316 6.07849 3.79287 6.02321 3.90111C5.28101 5.3545 4.09156 6.54309 2.63771 7.28591C2.52901 7.34145 2.41883 7.3945 2.30724 7.44498C1.89489 7.63153 1.46339 7.78301 1.0166 7.8956C0.512695 8.02256 0.512695 8.73846 1.0166 8.86531C1.46355 8.97785 1.8951 9.12926 2.30743 9.31576C2.41898 9.36621 2.52913 9.41923 2.63779 9.47474C4.09114 10.2172 5.2794 11.4054 6.02212 12.8588C6.07765 12.9675 6.13069 13.0777 6.18117 13.1892C6.36771 13.6015 6.5192 14.033 6.63184 14.48C6.75879 14.9838 7.47461 14.9837 7.60156 14.4799C7.71409 14.0329 7.8655 13.6014 8.05197 13.1891C8.10243 13.0775 8.15546 12.9673 8.21098 12.8587C8.95343 11.4053 10.1416 10.217 11.595 9.47431C11.7037 9.41878 11.8139 9.36574 11.9254 9.31526ZM9.54132 8.37999Q9.45395 8.31905 9.36797 8.25622Q8.82692 7.86091 8.34052 7.3908Q7.85953 6.9259 7.44971 6.40499Q7.27696 6.1854 7.11685 5.95585Q6.9858 6.14371 6.8462 6.32498Q6.42936 6.86621 5.93622 7.34868Q5.45031 7.82407 4.90882 8.22429Q4.80126 8.30379 4.69151 8.38032Q4.83153 8.47796 4.96796 8.58042Q5.51863 8.99398 6.01052 9.48582Q6.50116 9.97642 6.91396 10.5255Q7.01765 10.6635 7.11642 10.8051Q7.21423 10.6648 7.31686 10.5282Q7.73031 9.97769 8.22199 9.48595Q8.71269 8.99518 9.26195 8.58231Q9.39979 8.47869 9.54132 8.37999ZM12.1666 1.2286C12.0594 1.30121 11.9391 1.35599 11.8101 1.38849C11.5581 1.45197 11.5583 1.80992 11.8101 1.87335C11.9391 1.90583 12.0594 1.96059 12.1666 2.03328Q12.1213 1.83945 12.1212 1.63136Q12.1212 1.42284 12.1666 1.2286ZM12.4755 2.34526C12.5449 2.44993 12.5974 2.56681 12.6289 2.69195C12.6924 2.94386 13.0503 2.94382 13.1138 2.6919C13.1443 2.57026 13.1947 2.45641 13.2613 2.35399Q13.139 2.38067 13.0102 2.38997Q12.8946 2.39831 12.78 2.39131Q12.6341 2.3824 12.4898 2.34868Q12.4826 2.347 12.4755 2.34526ZM13.5759 2.03323C13.683 1.96052 13.8033 1.90574 13.9324 1.87323C14.1843 1.80975 14.1841 1.4518 13.9324 1.38837C13.8035 1.35596 13.6821 1.29674 13.5734 1.21804Q13.6211 1.41669 13.6212 1.63036Q13.6212 1.83894 13.5759 2.03323ZM13.2896 0.929989C13.2105 0.81841 13.1497 0.694426 13.1125 0.565594C13.0457 0.318008 12.6863 0.348341 12.6218 0.596581C12.5892 0.715254 12.5372 0.826289 12.4695 0.926067Q12.6632 0.880881 12.8711 0.880859Q13.0881 0.880837 13.2896 0.929989ZM12.8172 12.3035C12.8831 12.1811 12.9355 12.0518 12.9722 11.9186C13.0754 11.5214 13.6562 11.585 13.7634 11.9811C13.7963 12.0949 13.8401 12.204 13.8936 12.3073C13.908 12.3352 13.9231 12.3626 13.9389 12.3896C14.0967 12.6593 14.3224 12.8843 14.592 13.0414C14.6157 13.0552 14.6397 13.0685 14.6641 13.0812C14.7875 13.1458 14.9192 13.1964 15.0571 13.2312C15.4602 13.3326 15.4602 13.9054 15.0571 14.0069C14.9218 14.041 14.7926 14.0904 14.6713 14.1532C14.6435 14.1676 14.616 14.1827 14.589 14.1985C14.3205 14.3557 14.0961 14.5802 13.939 14.8486C13.923 14.8761 13.9076 14.9041 13.8929 14.9325C13.8306 15.0534 13.7815 15.1821 13.7476 15.3168C13.646 15.7199 13.0732 15.7199 12.9717 15.3169C12.9374 15.1806 12.8875 15.0505 12.8242 14.9285C12.8102 14.9015 12.7955 14.8749 12.7802 14.8487C12.623 14.5802 12.3986 14.3558 12.1301 14.1987C12.1031 14.1829 12.0757 14.1677 12.0478 14.1533C11.9265 14.0906 11.7972 14.0412 11.6619 14.0071C11.2588 13.9056 11.2588 13.3329 11.6619 13.2314C11.7955 13.1977 11.9238 13.147 12.0447 13.0821C12.0634 13.072 12.082 13.0616 12.1003 13.0509C12.3748 12.8905 12.6076 12.6563 12.7719 12.383C12.7876 12.3569 12.8027 12.3304 12.8172 12.3035ZM13.3594 13.6191L13.3595 13.6337L13.3596 13.6193L13.3596 13.6191L13.3594 13.6191Z" fill="rgb(151,151,151)" fill-opacity="0" fill-rule="evenodd" />
	</g>
</svg>
