<svg viewBox="0 0 17 17" xmlns="http://www.w3.org/2000/svg" xmlns:xlink="http://www.w3.org/1999/xlink" width="17.000000" height="17.000000" fill="none">
	<rect id="操作图标/暂停" width="17.000000" height="17.000000" x="0.000000" y="0.000000" />
	<path id="形状结合" d="M5.8335 3.83331C6.38578 3.83331 6.8335 4.28103 6.8335 4.83331L6.8335 12.8333C6.8335 13.3856 6.38578 13.8333 5.8335 13.8333C5.28121 13.8333 4.8335 13.3856 4.8335 12.8333L4.8335 4.83331C4.8335 4.28103 5.28121 3.83331 5.8335 3.83331ZM11.8335 3.83331C12.3858 3.83331 12.8335 4.28103 12.8335 4.83331L12.8335 12.8333C12.8335 13.3856 12.3858 13.8333 11.8335 13.8333C11.2812 13.8333 10.8335 13.3856 10.8335 12.8333L10.8335 4.83331C10.8335 4.28103 11.2812 3.83331 11.8335 3.83331Z" fill="rgb(25,25,25)" fill-rule="evenodd" />
	<path id="形状结合" d="M6.8335 4.83331L6.8335 12.8333C6.8335 13.3856 6.38578 13.8333 5.8335 13.8333C5.28121 13.8333 4.8335 13.3856 4.8335 12.8333L4.8335 4.83331C4.8335 4.28103 5.28121 3.83331 5.8335 3.83331C6.38578 3.83331 6.8335 4.28103 6.8335 4.83331ZM12.8335 4.83331L12.8335 12.8333C12.8335 13.3856 12.3858 13.8333 11.8335 13.8333C11.2812 13.8333 10.8335 13.3856 10.8335 12.8333L10.8335 4.83331C10.8335 4.28103 11.2812 3.83331 11.8335 3.83331C12.3858 3.83331 12.8335 4.28103 12.8335 4.83331Z" fill-rule="evenodd" stroke="rgb(0,0,0)" stroke-opacity="0" stroke-width="1" />
</svg>
