<svg viewBox="0 0 16 16" xmlns="http://www.w3.org/2000/svg" xmlns:xlink="http://www.w3.org/1999/xlink" width="16.000000" height="16.000000" fill="none">
	<rect id="操作图标/曲线图(mobile-graphs-border)" width="16.000000" height="16.000000" x="0.000000" y="0.000000" />
	<path id="矢量_190" d="M0.5 0C0.8 0 1 0.2 1 0.5L1 13.5C1 13.6 1 13.7 1 13.8C1 13.9 1.1 14 1.1 14C1.1 14.1 1.2 14.2 1.2 14.2C1.2 14.3 1.3 14.4 1.4 14.4C1.5 14.5 1.5 14.5 1.6 14.6C1.7 14.7 1.7 14.7 1.8 14.7C1.9 14.7 2 14.8 2.1 14.8C2.2 14.8 2.3 14.8 2.4 14.8L15.4 14.8C15.7 14.8 15.9 15 15.9 15.3C15.9 15.6 15.7 15.8 15.4 15.8L2.4 15.8C2.2 15.8 2 15.8 1.9 15.7C1.8 15.7 1.6 15.6 1.5 15.6C1.4 15.5 1.2 15.5 1.1 15.4C1 15.3 0.8 15.2 0.7 15.1C0.6 15 0.5 14.9 0.4 14.7C0.3 14.6 0.2 14.4 0.2 14.3C0.1 14.2 0.1 14 0 13.9C0 13.7 0 13.5 0 13.4L0 0.400001C3.27826e-07 0.2 0.2 0 0.5 0ZM16 3.3C15.4 5.5 14.8 7.1 14.1 8.2C13.4 9.3 12.7 9.9 11.9 10C11.8 10 11.7 10 11.6 10C11.5 10 11.4 10 11.3 10C10.7 9.9 10.3 9.5 9.8 8.9C9.6 8.6 9.4 8.3 9.2 7.9C8.9 7.7 8.8 7.3 8.6 6.8C8.4 6.3 8.2 6 8.1 5.8C7.9 5.5 7.8 5.3 7.6 5.1C7.4 4.8 7.3 4.7 7.2 4.6C7 4.5 6.9 4.4 6.8 4.4C6.6 4.4 6.3 4.5 6.1 4.8C5.8 5.1 5.4 5.5 5.1 6.1C4.5 7.4 3.9 9.4 3.2 12C3.1 12.3 2.9 12.4 2.6 12.4C2.3 12.3 2.2 12.1 2.2 11.8C2.8 9.1 3.5 7.1 4.2 5.7C4.6 5 5 4.4 5.3 4.1C5.7 3.7 6.1 3.5 6.5 3.5C6.6 3.5 6.6 3.5 6.7 3.5C6.8 3.5 6.9 3.5 7 3.5C7.5 3.6 8 3.9 8.4 4.5C8.6 4.7 8.8 5 9 5.4C9.1 5.6 9.3 5.9 9.5 6.4C9.7 6.9 9.9 7.2 10 7.4C10.2 7.7 10.4 8 10.5 8.2C10.7 8.4 10.9 8.6 11 8.7C11.1 8.9 11.3 9 11.4 9C12 9 12.6 8.6 13.2 7.7C13.8 6.7 14.4 5.1 15 3.1C15.1 2.8 15.3 2.7 15.6 2.8C15.9 2.7 16 3 16 3.3Z" fill="rgb(25,25,25)" fill-rule="evenodd" />
</svg>
