<svg viewBox="0 0 16 16" xmlns="http://www.w3.org/2000/svg" xmlns:xlink="http://www.w3.org/1999/xlink" width="16.000000" height="16.000000" fill="none">
	<rect id="操作图标/未分配" width="16.000000" height="16.000000" x="0.000000" y="0.000000" />
	<path id="形状结合" d="M13.6516 1C14.4125 1 15.0312 1.61875 15.0312 2.37969L15.0312 13.6047C15.0312 14.3656 14.4125 14.9844 13.6516 14.9844L2.37969 14.9844C1.61875 14.9844 1 14.3656 1 13.6047L1 2.37969C1 1.61875 1.61875 1 2.37969 1L13.6516 1ZM14.0312 5.00781L2 5.00781L2 13.6047C2 13.8141 2.17031 13.9844 2.37969 13.9844L13.6516 13.9844C13.8609 13.9844 14.0312 13.8141 14.0312 13.6047L14.0312 5.00781ZM3.52344 7.00781C3.79958 7.00781 4.02344 7.23167 4.02344 7.50781C4.02344 7.78396 3.79958 8.00781 3.52344 8.00781C3.2473 8.00781 3.02344 7.78396 3.02344 7.50781C3.02344 7.23167 3.2473 7.00781 3.52344 7.00781ZM6.54688 7.00781C6.82302 7.00781 7.04688 7.23167 7.04688 7.50781C7.04688 7.78396 6.82302 8.00781 6.54688 8.00781C6.27073 8.00781 6.04688 7.78396 6.04688 7.50781C6.04688 7.23167 6.27073 7.00781 6.54688 7.00781ZM9.54688 7.00781C9.82302 7.00781 10.0469 7.23167 10.0469 7.50781C10.0469 7.78396 9.82302 8.00781 9.54688 8.00781C9.27073 8.00781 9.04688 7.78396 9.04688 7.50781C9.04688 7.23167 9.27073 7.00781 9.54688 7.00781ZM12.5234 7.00781C12.7996 7.00781 13.0234 7.23167 13.0234 7.50781C13.0234 7.78396 12.7996 8.00781 12.5234 8.00781C12.2473 8.00781 12.0234 7.78396 12.0234 7.50781C12.0234 7.23167 12.2473 7.00781 12.5234 7.00781ZM13.6516 2L2.37969 2C2.17031 2 2 2.17031 2 2.37969L2 4.00781L14.0312 4.00781L14.0312 2.37969C14.0312 2.17031 13.8609 2 13.6516 2Z" fill="rgb(25,25,25)" fill-rule="evenodd" />
	<path id="形状结合" d="M15.0312 2.37969L15.0312 13.6047C15.0312 14.3656 14.4125 14.9844 13.6516 14.9844L2.37969 14.9844C1.61875 14.9844 1 14.3656 1 13.6047L1 2.37969C1 1.61875 1.61875 1 2.37969 1L13.6516 1C14.4125 1 15.0312 1.61875 15.0312 2.37969ZM2 5.00781L2 13.6047C2 13.8141 2.17031 13.9844 2.37969 13.9844L13.6516 13.9844C13.8609 13.9844 14.0312 13.8141 14.0312 13.6047L14.0312 5.00781L2 5.00781ZM4.02344 7.50781C4.02344 7.78396 3.79958 8.00781 3.52344 8.00781C3.2473 8.00781 3.02344 7.78396 3.02344 7.50781C3.02344 7.23167 3.2473 7.00781 3.52344 7.00781C3.79958 7.00781 4.02344 7.23167 4.02344 7.50781ZM7.04688 7.50781C7.04688 7.78396 6.82302 8.00781 6.54688 8.00781C6.27073 8.00781 6.04688 7.78396 6.04688 7.50781C6.04688 7.23167 6.27073 7.00781 6.54688 7.00781C6.82302 7.00781 7.04688 7.23167 7.04688 7.50781ZM10.0469 7.50781C10.0469 7.78396 9.82302 8.00781 9.54688 8.00781C9.27073 8.00781 9.04688 7.78396 9.04688 7.50781C9.04688 7.23167 9.27073 7.00781 9.54688 7.00781C9.82302 7.00781 10.0469 7.23167 10.0469 7.50781ZM13.0234 7.50781C13.0234 7.78396 12.7996 8.00781 12.5234 8.00781C12.2473 8.00781 12.0234 7.78396 12.0234 7.50781C12.0234 7.23167 12.2473 7.00781 12.5234 7.00781C12.7996 7.00781 13.0234 7.23167 13.0234 7.50781ZM2.37969 2C2.17031 2 2 2.17031 2 2.37969L2 4.00781L14.0312 4.00781L14.0312 2.37969C14.0312 2.17031 13.8609 2 13.6516 2L2.37969 2Z" fill-rule="evenodd" stroke="rgb(0,0,0)" stroke-opacity="0" stroke-width="1" />
</svg>
