<svg viewBox="0 0 16 16" xmlns="http://www.w3.org/2000/svg" xmlns:xlink="http://www.w3.org/1999/xlink" width="16.000000" height="16.000000" fill="none">
	<rect id="操作图标/架构设计" width="16.000000" height="16.000000" x="0.000000" y="0.000000" />
	<path id="形状结合" d="M11.9075 10.4207L13.3294 12.1152C13.539 12.0406 13.7648 12 14 12C15.1046 12 16 12.8954 16 14C16 15.1046 15.1046 16 14 16C12.8954 16 12 15.1046 12 14C12 13.9313 12.0034 13.8635 12.0102 13.7966L4.46219 11.0493C4.0043 11.6284 3.29556 12 2.5 12C1.11929 12 0 10.8807 0 9.5C0 8.11929 1.11929 7 2.5 7C3.13889 7 3.7218 7.23965 4.16376 7.63397L7.48804 4.64075C7.17944 4.16925 7 3.60559 7 3C7 1.34314 8.34314 0 10 0C11.6569 0 13 1.34314 13 3C13 4.65686 11.6569 6 10 6C9.30972 6 8.67392 5.76688 8.16699 5.37506L4.76428 8.43887C4.9155 8.76099 5 9.12064 5 9.5C5 9.72476 4.97034 9.94263 4.9147 10.1498L12.3574 12.8587C12.4008 12.7964 12.4476 12.7366 12.4977 12.6797L11.0852 10.9964C10.5329 10.9964 10 10.5523 10 10C10 9.44772 10.4477 9 11 9C11.5523 9 12 9.44772 12 10C12 10.1503 11.9669 10.2928 11.9075 10.4207ZM10 5C11.1046 5 12 4.10458 12 3C12 1.89542 11.1046 1 10 1C8.89542 1 8 1.89542 8 3C8 4.10458 8.89542 5 10 5ZM2.5 11C3.32843 11 4 10.3284 4 9.5C4 8.67157 3.32843 8 2.5 8C1.67157 8 1 8.67157 1 9.5C1 10.3284 1.67157 11 2.5 11ZM14 15C14.5523 15 15 14.5523 15 14C15 13.4477 14.5523 13 14 13C13.4477 13 13 13.4477 13 14C13 14.5523 13.4477 15 14 15Z" fill="rgb(25,25,25)" fill-rule="evenodd" />
	<path id="形状结合" d="M13.3294 12.1152C13.539 12.0406 13.7648 12 14 12C15.1046 12 16 12.8954 16 14C16 15.1046 15.1046 16 14 16C12.8954 16 12 15.1046 12 14C12 13.9313 12.0034 13.8635 12.0102 13.7966L4.46219 11.0493C4.0043 11.6284 3.29556 12 2.5 12C1.11929 12 0 10.8807 0 9.5C0 8.11929 1.11929 7 2.5 7C3.13889 7 3.7218 7.23965 4.16376 7.63397L7.48804 4.64075C7.17944 4.16925 7 3.60559 7 3C7 1.34314 8.34314 0 10 0C11.6569 0 13 1.34314 13 3C13 4.65686 11.6569 6 10 6C9.30972 6 8.67392 5.76688 8.16699 5.37506L4.76428 8.43887C4.9155 8.76099 5 9.12064 5 9.5C5 9.72476 4.97034 9.94263 4.9147 10.1498L12.3574 12.8587C12.4008 12.7964 12.4476 12.7366 12.4977 12.6797L11.0852 10.9964C10.5329 10.9964 10 10.5523 10 10C10 9.44772 10.4477 9 11 9C11.5523 9 12 9.44772 12 10C12 10.1503 11.9669 10.2928 11.9075 10.4207L13.3294 12.1152ZM12 3C12 1.89542 11.1046 1 10 1C8.89542 1 8 1.89542 8 3C8 4.10458 8.89542 5 10 5C11.1046 5 12 4.10458 12 3ZM4 9.5C4 8.67157 3.32843 8 2.5 8C1.67157 8 1 8.67157 1 9.5C1 10.3284 1.67157 11 2.5 11C3.32843 11 4 10.3284 4 9.5ZM15 14C15 13.4477 14.5523 13 14 13C13.4477 13 13 13.4477 13 14C13 14.5523 13.4477 15 14 15C14.5523 15 15 14.5523 15 14Z" fill-rule="evenodd" stroke="rgb(0,0,0)" stroke-opacity="0" stroke-width="1" />
</svg>
