<svg viewBox="0 0 16 16" xmlns="http://www.w3.org/2000/svg" xmlns:xlink="http://www.w3.org/1999/xlink" width="16.000000" height="16.000000" fill="none">
	<rect id="操作图标/查看报告" width="16.000000" height="16.000000" x="0.000000" y="0.000000" />
	<path id="形状结合" d="M12 1C13.0544 1 13.9182 1.81588 13.9945 2.85074L14 3L14 7.5C14 7.77614 13.7761 8 13.5 8C13.2545 8 13.0504 7.82312 13.0081 7.58988L13 3C13 2.48716 12.614 2.06449 12.1166 2.00673L12 2L4 2C3.48716 2 3.06449 2.38604 3.00673 2.88338L3 3L3 13C3 13.5128 3.38604 13.9355 3.88338 13.9933L4 14L8 14C8.27614 14 8.5 14.2239 8.5 14.5C8.5 14.7455 8.32312 14.9496 8.08988 14.9919L4 15C2.94564 15 2.08183 14.1841 2.00549 13.1493L2 13L2 3C2 1.94564 2.81588 1.08183 3.85074 1.00549L4 1L12 1ZM11.25 9C12.8044 9 14.194 9.83373 15.4007 11.451C15.5331 11.6284 15.5331 11.8716 15.4007 12.049C14.194 13.6663 12.8044 14.5 11.25 14.5C9.69559 14.5 8.30605 13.6663 7.09927 12.049C6.96691 11.8716 6.96691 11.6284 7.09927 11.451C8.30605 9.83373 9.69559 9 11.25 9ZM11.25 10C10.256 10 9.32746 10.4519 8.45442 11.3836L8.26819 11.5907L8.135 11.75L8.26819 11.9093C9.07567 12.8431 9.93087 13.3571 10.8419 13.4741L11.038 13.4931L11.25 13.5C12.244 13.5 13.1725 13.0481 14.0456 12.1164L14.2318 11.9093L14.364 11.75L14.2318 11.5907C13.4243 10.6569 12.5691 10.1429 11.6581 10.0259L11.462 10.0069L11.25 10ZM11.25 10.75C11.8023 10.75 12.25 11.1977 12.25 11.75C12.25 12.3023 11.8023 12.75 11.25 12.75C10.6977 12.75 10.25 12.3023 10.25 11.75C10.25 11.1977 10.6977 10.75 11.25 10.75ZM8.5 7C8.77614 7 9 7.22386 9 7.5C9 7.77614 8.77614 8 8.5 8L5.5 8C5.22386 8 5 7.77614 5 7.5C5 7.22386 5.22386 7 5.5 7L8.5 7ZM10.5 4C10.7761 4 11 4.22386 11 4.5C11 4.77614 10.7761 5 10.5 5L5.5 5C5.22386 5 5 4.77614 5 4.5C5 4.22386 5.22386 4 5.5 4L10.5 4Z" fill="rgb(25,25,25)" fill-rule="nonzero" />
	<path id="形状结合" d="M13.9945 2.85074L14 3L14 7.5C14 7.77614 13.7761 8 13.5 8C13.2545 8 13.0504 7.82312 13.0081 7.58988L13 3C13 2.48716 12.614 2.06449 12.1166 2.00673L12 2L4 2C3.48716 2 3.06449 2.38604 3.00673 2.88338L3 3L3 13C3 13.5128 3.38604 13.9355 3.88338 13.9933L4 14L8 14C8.27614 14 8.5 14.2239 8.5 14.5C8.5 14.7455 8.32312 14.9496 8.08988 14.9919L4 15C2.94564 15 2.08183 14.1841 2.00549 13.1493L2 13L2 3C2 1.94564 2.81588 1.08183 3.85074 1.00549L4 1L12 1C13.0544 1 13.9182 1.81588 13.9945 2.85074ZM15.4007 11.451C15.5331 11.6284 15.5331 11.8716 15.4007 12.049C14.194 13.6663 12.8044 14.5 11.25 14.5C9.69559 14.5 8.30605 13.6663 7.09927 12.049C6.96691 11.8716 6.96691 11.6284 7.09927 11.451C8.30605 9.83373 9.69559 9 11.25 9C12.8044 9 14.194 9.83373 15.4007 11.451ZM8.45442 11.3836L8.26819 11.5907L8.135 11.75L8.26819 11.9093C9.07567 12.8431 9.93087 13.3571 10.8419 13.4741L11.038 13.4931L11.25 13.5C12.244 13.5 13.1725 13.0481 14.0456 12.1164L14.2318 11.9093L14.364 11.75L14.2318 11.5907C13.4243 10.6569 12.5691 10.1429 11.6581 10.0259L11.462 10.0069L11.25 10C10.256 10 9.32746 10.4519 8.45442 11.3836ZM12.25 11.75C12.25 12.3023 11.8023 12.75 11.25 12.75C10.6977 12.75 10.25 12.3023 10.25 11.75C10.25 11.1977 10.6977 10.75 11.25 10.75C11.8023 10.75 12.25 11.1977 12.25 11.75ZM9 7.5C9 7.77614 8.77614 8 8.5 8L5.5 8C5.22386 8 5 7.77614 5 7.5C5 7.22386 5.22386 7 5.5 7L8.5 7C8.77614 7 9 7.22386 9 7.5ZM11 4.5C11 4.77614 10.7761 5 10.5 5L5.5 5C5.22386 5 5 4.77614 5 4.5C5 4.22386 5.22386 4 5.5 4L10.5 4C10.7761 4 11 4.22386 11 4.5Z" fill-rule="nonzero" stroke="rgb(0,0,0)" stroke-opacity="0" stroke-width="1" />
</svg>
