<svg viewBox="0 0 16 16" xmlns="http://www.w3.org/2000/svg" xmlns:xlink="http://www.w3.org/1999/xlink" width="16.000000" height="16.000000" fill="none" customFrame="#000000">
	<rect id="操作图标/比例" width="16.000000" height="16.000000" x="0.000000" y="0.000000" fill="rgb(255,255,255)" fill-opacity="0" />
	<path id="形状结合" d="M1 6.14286L1 3.5C1 3.31603 1.01932 3.13631 1.05797 2.96085C1.09051 2.81313 1.13674 2.66842 1.19667 2.52673C1.25681 2.38454 1.3287 2.2501 1.41233 2.12341C1.50465 1.98357 1.61129 1.85318 1.73223 1.73223C1.85318 1.61129 1.98357 1.50466 2.12341 1.41234C2.2501 1.3287 2.38454 1.25681 2.52673 1.19667C2.66842 1.13674 2.81313 1.0905 2.96086 1.05797C3.13632 1.01932 3.31603 1 3.5 1L5.83333 1C6.11333 1 6.33333 1.22 6.33333 1.5C6.33333 1.78 6.11333 2 5.83333 2L3.5 2C3.3836 2 3.27017 2.01281 3.15971 2.03843C3.0769 2.05765 2.99576 2.08406 2.91629 2.11767C2.83396 2.15249 2.75594 2.19391 2.68221 2.24193C2.59528 2.29856 2.51432 2.36436 2.43934 2.43934C2.36436 2.51432 2.29856 2.59527 2.24194 2.6822C2.19392 2.75593 2.15249 2.83396 2.11767 2.91629C2.08406 2.99576 2.05765 3.07689 2.03844 3.15971C2.01281 3.27016 2 3.3836 2 3.5L2 6.14286C2 6.42286 1.78 6.64286 1.5 6.64286C1.22 6.64286 1 6.42286 1 6.14286ZM12.5 1L10.1679 1C9.88794 1 9.66794 1.22 9.66794 1.5C9.66794 1.78 9.88794 2 10.1679 2L12.5 2C12.6164 2 12.7298 2.01281 12.8403 2.03843C12.9231 2.05765 13.0042 2.08406 13.0837 2.11767C13.166 2.15249 13.2441 2.19392 13.3178 2.24194C13.4047 2.29856 13.4857 2.36436 13.5607 2.43934C13.6992 2.57791 13.8064 2.73689 13.8823 2.91629C13.9608 3.10176 14 3.29633 14 3.5L14 6.14286C14 6.42286 14.22 6.64286 14.5 6.64286C14.78 6.64286 15 6.42286 15 6.14286L15 3.5C15 3.31604 14.9807 3.13633 14.942 2.96087C14.9095 2.81314 14.8633 2.66843 14.8033 2.52673C14.7432 2.38454 14.6713 2.2501 14.5877 2.12342C14.4953 1.98357 14.3887 1.85318 14.2678 1.73223C14.0373 1.50172 13.7724 1.3232 13.4733 1.19667C13.3316 1.13674 13.1869 1.09051 13.0391 1.05797C12.8637 1.01932 12.684 1 12.5 1ZM3.75975 6.99219L3.75975 6.13672L5.49607 5.13672L6.16014 5.13672L6.16014 11L5.28709 11L5.28709 6.12891L3.75975 6.99219ZM8.71975 6.13672L8.71975 6.99219L10.2471 6.12891L10.2471 11L11.1201 11L11.1201 5.13672L10.4561 5.13672L8.71975 6.13672ZM7.62357 7.06699C7.55321 7.04148 7.48902 6.99897 7.431 6.93945C7.33074 6.83529 7.28061 6.71159 7.28061 6.56836C7.28061 6.48414 7.29646 6.40712 7.32818 6.33732C7.35286 6.28304 7.38714 6.23306 7.431 6.1875C7.48904 6.12797 7.55324 6.08545 7.62361 6.05994C7.67638 6.04081 7.73262 6.03125 7.79232 6.03125C7.87574 6.03125 7.95149 6.04742 8.01956 6.07975C8.07366 6.10545 8.12292 6.14137 8.16732 6.1875C8.21293 6.23428 8.2483 6.28565 8.27343 6.34162C8.30423 6.41026 8.31967 6.4859 8.31967 6.56836C8.31967 6.71159 8.26889 6.83529 8.16732 6.93945C8.12292 6.98559 8.07366 7.02151 8.01955 7.04721C7.95149 7.07953 7.87574 7.0957 7.79232 7.0957C7.73262 7.0957 7.67634 7.08612 7.62357 7.06699ZM7.62007 10.0817C7.55108 10.0564 7.48806 10.0148 7.431 9.95703C7.38715 9.91148 7.3529 9.86157 7.32822 9.8073C7.29649 9.73748 7.28061 9.66042 7.28061 9.57617C7.28061 9.43164 7.33074 9.30794 7.431 9.20508C7.48902 9.14557 7.55321 9.10305 7.62357 9.07754C7.67633 9.05841 7.73262 9.04883 7.79232 9.04883C7.87575 9.04883 7.95149 9.06499 8.01955 9.09732C8.07366 9.12303 8.12292 9.15894 8.16732 9.20508C8.26889 9.30794 8.31967 9.43164 8.31967 9.57617C8.31967 9.65863 8.30427 9.73418 8.27347 9.80282C8.24834 9.8588 8.21294 9.91025 8.16732 9.95703C8.12409 10.0014 8.07626 10.0362 8.02383 10.0614C7.95468 10.0947 7.87747 10.1113 7.79232 10.1113C7.73128 10.1113 7.67386 10.1015 7.62007 10.0817ZM14.5 9.33101C14.78 9.33101 15 9.55101 15 9.83101L15 12.5C15 12.684 14.9807 12.8637 14.942 13.0391C14.9095 13.1868 14.8633 13.3316 14.8033 13.4733C14.6768 13.7724 14.4983 14.0373 14.2678 14.2678C14.0373 14.4983 13.7724 14.6768 13.4733 14.8033C13.3316 14.8633 13.1869 14.9095 13.0392 14.942C12.8637 14.9807 12.684 15 12.5 15L10.3686 15C10.0886 15 9.86858 14.78 9.86858 14.5C9.86858 14.22 10.0886 14 10.3686 14L12.5 14C12.6164 14 12.7298 13.9872 12.8403 13.9616C12.9231 13.9424 13.0042 13.9159 13.0837 13.8823C13.2631 13.8065 13.4221 13.6992 13.5607 13.5607C13.6992 13.4221 13.8064 13.2631 13.8823 13.0837C13.9159 13.0042 13.9424 12.9231 13.9616 12.8402C13.9872 12.7298 14 12.6164 14 12.5L14 9.83101C14 9.55101 14.22 9.33101 14.5 9.33101ZM1.5 9.33102C1.78 9.33102 2 9.55102 2 9.83102L2 12.5C2 12.7037 2.03922 12.8982 2.11767 13.0837C2.19355 13.2631 2.30077 13.4221 2.43934 13.5607C2.51432 13.6356 2.59527 13.7014 2.68221 13.7581C2.75593 13.8061 2.83396 13.8475 2.91629 13.8823C2.99578 13.9159 3.07694 13.9424 3.15977 13.9616C3.27021 13.9872 3.38362 14 3.5 14L6.2358 14C6.5158 14 6.7358 14.22 6.7358 14.5C6.7358 14.78 6.5158 15 6.2358 15L3.5 15C3.31603 15 3.13632 14.9807 2.96087 14.942C2.81314 14.9095 2.66843 14.8633 2.52673 14.8033C2.22758 14.6768 1.96274 14.4983 1.73223 14.2678C1.61127 14.1468 1.50463 14.0164 1.4123 13.8765C1.32868 13.7499 1.2568 13.6154 1.19667 13.4733C1.13676 13.3316 1.09054 13.187 1.058 13.0393C1.01936 12.8638 1 12.684 1 12.5L1 9.83102C1 9.55102 1.22 9.33102 1.5 9.33102Z" fill="rgb(25,25,25)" fill-rule="evenodd" />
</svg>
