<svg viewBox="0 0 16 16" xmlns="http://www.w3.org/2000/svg" xmlns:xlink="http://www.w3.org/1999/xlink" width="16.000000" height="16.000000" fill="none">
	<rect id="操作图标/测试任务1" width="16.000000" height="16.000000" x="0.000000" y="0.000000" />
	<path id="形状结合" d="M11.5001 1C11.7763 1 12.0001 1.22386 12.0001 1.5C12.0001 1.77614 11.7763 2 11.5001 2L10.4997 2L10.4997 6.75L14.9637 13.4453C15.27 13.9048 15.1458 14.5257 14.6863 14.8321C14.5221 14.9416 14.329 15 14.1316 15L1.86865 15C1.31637 15 0.868652 14.5523 0.868652 14C0.868652 13.8026 0.92709 13.6096 1.0366 13.4453L5.49965 6.75L5.49965 2L4.50014 2C4.22399 2 4.00014 1.77614 4.00014 1.5C4.00014 1.22386 4.22399 1 4.50014 1L11.5001 1ZM9.63502 10.4812C9.37196 10.5569 9.15336 10.6408 8.94772 10.74L8.75397 10.8396L8.35874 11.0635C7.80209 11.3733 7.32722 11.5 6.49721 11.5C5.51182 11.5 4.68753 11.246 4.04501 10.7356L1.86865 14L14.1316 14L11.7617 10.447L11.6325 10.4016C11.082 10.2332 10.4189 10.2558 9.63502 10.4812ZM9.50014 2L6.49914 2L6.49965 6.75008C6.49964 6.90799 6.46224 7.06306 6.39123 7.20287L6.33173 7.30466L4.60255 9.89917C5.0695 10.2989 5.69304 10.5 6.49721 10.5C7.08157 10.5 7.38975 10.4351 7.7389 10.2604L8.15635 10.0276C8.28462 9.95506 8.39463 9.89654 8.51315 9.83935C8.76924 9.71579 9.04069 9.61162 9.35861 9.52018C9.94142 9.35256 10.4872 9.27618 10.994 9.29369L9.66763 7.30474C9.57999 7.1733 9.52506 7.02346 9.5066 6.86767L9.49965 6.74992L9.50014 2Z" fill="rgb(25,25,25)" fill-rule="evenodd" />
	<path id="形状结合" d="M12.0001 1.5C12.0001 1.77614 11.7763 2 11.5001 2L10.4997 2L10.4997 6.75L14.9637 13.4453C15.27 13.9048 15.1458 14.5257 14.6863 14.8321C14.5221 14.9416 14.329 15 14.1316 15L1.86865 15C1.31637 15 0.868652 14.5523 0.868652 14C0.868652 13.8026 0.92709 13.6096 1.0366 13.4453L5.49965 6.75L5.49965 2L4.50014 2C4.22399 2 4.00014 1.77614 4.00014 1.5C4.00014 1.22386 4.22399 1 4.50014 1L11.5001 1C11.7763 1 12.0001 1.22386 12.0001 1.5ZM8.94772 10.74L8.75397 10.8396L8.35874 11.0635C7.80209 11.3733 7.32722 11.5 6.49721 11.5C5.51182 11.5 4.68753 11.246 4.04501 10.7356L1.86865 14L14.1316 14L11.7617 10.447L11.6325 10.4016C11.082 10.2332 10.4189 10.2558 9.63502 10.4812C9.37196 10.5569 9.15336 10.6408 8.94772 10.74ZM6.49914 2L6.49965 6.75008C6.49964 6.90799 6.46224 7.06306 6.39123 7.20287L6.33173 7.30466L4.60255 9.89917C5.0695 10.2989 5.69304 10.5 6.49721 10.5C7.08157 10.5 7.38975 10.4351 7.7389 10.2604L8.15635 10.0276C8.28462 9.95506 8.39463 9.89654 8.51315 9.83935C8.76924 9.71579 9.04069 9.61162 9.35861 9.52018C9.94142 9.35256 10.4872 9.27618 10.994 9.29369L9.66763 7.30474C9.57999 7.1733 9.52506 7.02346 9.5066 6.86767L9.49965 6.74992L9.50014 2L6.49914 2Z" fill-rule="evenodd" stroke="rgb(0,0,0)" stroke-opacity="0" stroke-width="1" />
</svg>
