<svg viewBox="0 0 16 16" xmlns="http://www.w3.org/2000/svg" xmlns:xlink="http://www.w3.org/1999/xlink" width="16.000000" height="16.000000" fill="none">
	<rect id="操作图标/添加分支" width="16.000000" height="16.000000" x="0.000000" y="0.000000" />
	<path id="形状结合" d="M9.5 1C10.0523 1 10.5 1.44772 10.5 2L10.5 5C10.5 5.55228 10.0523 6 9.5 6L8.5 6L8.5 7.5L12 7.5C12.7797 7.5 13.4204 8.09489 13.4931 8.85554L13.5 9L13.5 10L12.5 10L12.5 9C12.5 8.75454 12.3231 8.55039 12.0899 8.50806L8.5 8.5L8.5 11L9 11C9.55229 11 10 11.4477 10 12L10 14C10 14.5523 9.55229 15 9 15L7 15C6.44772 15 6 14.5523 6 14L6 12C6 11.4477 6.44772 11 7 11L7.5 11L7.5 8.5L4 8.5C3.75454 8.5 3.55039 8.67688 3.50806 8.91013L3.5 11L4 11C4.55228 11 5 11.4477 5 12L5 14C5 14.5523 4.55228 15 4 15L2 15C1.44772 15 1 14.5523 1 14L1 12C1 11.4477 1.44772 11 2 11L2.5 11L2.5 9C2.5 8.2203 3.09489 7.57955 3.85554 7.50687L4 7.5L7.5 7.5L7.5 6L6.5 6C5.94772 6 5.5 5.55228 5.5 5L5.5 2C5.5 1.44772 5.94772 1 6.5 1L9.5 1ZM13.5 11L13.5 12.5L15 12.5L15 13.5L13.5 13.5L13.5 15L12.5 15L12.5 13.5L11 13.5L11 12.5L12.5 12.5L12.5 11L13.5 11ZM4 12L2 12L2 14L4 14L4 12ZM9 12L7 12L7 14L9 14L9 12ZM9.5 2L6.5 2L6.5 5L9.5 5L9.5 2Z" fill="rgb(25,25,25)" fill-rule="evenodd" />
	<path id="形状结合" d="M10.5 2L10.5 5C10.5 5.55228 10.0523 6 9.5 6L8.5 6L8.5 7.5L12 7.5C12.7797 7.5 13.4204 8.09489 13.4931 8.85554L13.5 9L13.5 10L12.5 10L12.5 9C12.5 8.75454 12.3231 8.55039 12.0899 8.50806L8.5 8.5L8.5 11L9 11C9.55229 11 10 11.4477 10 12L10 14C10 14.5523 9.55229 15 9 15L7 15C6.44772 15 6 14.5523 6 14L6 12C6 11.4477 6.44772 11 7 11L7.5 11L7.5 8.5L4 8.5C3.75454 8.5 3.55039 8.67688 3.50806 8.91013L3.5 11L4 11C4.55228 11 5 11.4477 5 12L5 14C5 14.5523 4.55228 15 4 15L2 15C1.44772 15 1 14.5523 1 14L1 12C1 11.4477 1.44772 11 2 11L2.5 11L2.5 9C2.5 8.2203 3.09489 7.57955 3.85554 7.50687L4 7.5L7.5 7.5L7.5 6L6.5 6C5.94772 6 5.5 5.55228 5.5 5L5.5 2C5.5 1.44772 5.94772 1 6.5 1L9.5 1C10.0523 1 10.5 1.44772 10.5 2ZM13.5 12.5L15 12.5L15 13.5L13.5 13.5L13.5 15L12.5 15L12.5 13.5L11 13.5L11 12.5L12.5 12.5L12.5 11L13.5 11L13.5 12.5ZM2 12L2 14L4 14L4 12L2 12ZM7 12L7 14L9 14L9 12L7 12ZM6.5 2L6.5 5L9.5 5L9.5 2L6.5 2Z" fill-rule="evenodd" stroke="rgb(0,0,0)" stroke-opacity="0" stroke-width="1" />
</svg>
