<svg viewBox="0 0 16 16" xmlns="http://www.w3.org/2000/svg" xmlns:xlink="http://www.w3.org/1999/xlink" width="16.000000" height="16.000000" fill="none">
	<rect id="操作图标/添加测试任务" width="16.000000" height="16.000000" x="0.000000" y="0.000000" />
	<path id="形状结合" d="M11.5656 1C11.8417 1 12.0656 1.22386 12.0656 1.5C12.0656 1.77614 11.8417 2 11.5656 2L10.5651 2L10.5651 6.75L12.0651 9L10.8641 9L9.73306 7.30474C9.64542 7.1733 9.59049 7.02346 9.57203 6.86767L9.56508 6.74992L9.56557 2L6.56457 2L6.56508 6.75008C6.56507 6.90799 6.52767 7.06306 6.45666 7.20287L6.39716 7.30466L4.66798 9.89917C5.13493 10.2989 5.75847 10.5 6.56264 10.5C7.147 10.5 7.45518 10.4351 7.80433 10.2604L8.22178 10.0276C8.35005 9.95506 8.46006 9.89654 8.57858 9.83935C8.83467 9.71579 9.10612 9.61162 9.42404 9.52018C9.6433 9.45712 9.85731 9.40697 10.066 9.36988L10.0664 10.3888C9.94745 10.4145 9.82548 10.4453 9.70045 10.4812C9.43739 10.5569 9.21879 10.6408 9.01315 10.74L8.8194 10.8396L8.42417 11.0635C7.86752 11.3733 7.39265 11.5 6.56264 11.5C5.57725 11.5 4.75296 11.246 4.11044 10.7356L1.93408 14L9.06508 14L9.06508 15L1.93408 15C1.3818 15 0.934082 14.5523 0.934082 14C0.934082 13.8026 0.99252 13.6096 1.10203 13.4453L5.56508 6.75L5.56508 2L4.56557 2C4.28942 2 4.06557 1.77614 4.06557 1.5C4.06557 1.22386 4.28942 1 4.56557 1L11.5656 1ZM12.5656 10C12.8417 10 13.0656 10.2239 13.0656 10.5L13.0651 12L14.5656 12C14.8417 12 15.0656 12.2239 15.0656 12.5C15.0656 12.7761 14.8417 13 14.5656 13L13.0651 13L13.0656 14.5C13.0656 14.7761 12.8417 15 12.5656 15C12.2894 15 12.0656 14.7761 12.0656 14.5L12.0651 13L10.5656 13C10.2894 13 10.0656 12.7761 10.0656 12.5C10.0656 12.2239 10.2894 12 10.5656 12L12.0651 12L12.0656 10.5C12.0656 10.2239 12.2894 10 12.5656 10Z" fill="rgb(25,25,25)" fill-rule="evenodd" />
	<path id="形状结合" d="M12.0656 1.5C12.0656 1.77614 11.8417 2 11.5656 2L10.5651 2L10.5651 6.75L12.0651 9L10.8641 9L9.73306 7.30474C9.64542 7.1733 9.59049 7.02346 9.57203 6.86767L9.56508 6.74992L9.56557 2L6.56457 2L6.56508 6.75008C6.56507 6.90799 6.52767 7.06306 6.45666 7.20287L6.39716 7.30466L4.66798 9.89917C5.13493 10.2989 5.75847 10.5 6.56264 10.5C7.147 10.5 7.45518 10.4351 7.80433 10.2604L8.22178 10.0276C8.35005 9.95506 8.46006 9.89654 8.57858 9.83935C8.83467 9.71579 9.10612 9.61162 9.42404 9.52018C9.6433 9.45712 9.85731 9.40697 10.066 9.36988L10.0664 10.3888C9.94745 10.4145 9.82548 10.4453 9.70045 10.4812C9.43739 10.5569 9.21879 10.6408 9.01315 10.74L8.8194 10.8396L8.42417 11.0635C7.86752 11.3733 7.39265 11.5 6.56264 11.5C5.57725 11.5 4.75296 11.246 4.11044 10.7356L1.93408 14L9.06508 14L9.06508 15L1.93408 15C1.3818 15 0.934082 14.5523 0.934082 14C0.934082 13.8026 0.99252 13.6096 1.10203 13.4453L5.56508 6.75L5.56508 2L4.56557 2C4.28942 2 4.06557 1.77614 4.06557 1.5C4.06557 1.22386 4.28942 1 4.56557 1L11.5656 1C11.8417 1 12.0656 1.22386 12.0656 1.5ZM13.0656 10.5L13.0651 12L14.5656 12C14.8417 12 15.0656 12.2239 15.0656 12.5C15.0656 12.7761 14.8417 13 14.5656 13L13.0651 13L13.0656 14.5C13.0656 14.7761 12.8417 15 12.5656 15C12.2894 15 12.0656 14.7761 12.0656 14.5L12.0651 13L10.5656 13C10.2894 13 10.0656 12.7761 10.0656 12.5C10.0656 12.2239 10.2894 12 10.5656 12L12.0651 12L12.0656 10.5C12.0656 10.2239 12.2894 10 12.5656 10C12.8417 10 13.0656 10.2239 13.0656 10.5Z" fill-rule="evenodd" stroke="rgb(0,0,0)" stroke-opacity="0" stroke-width="1" />
</svg>
