<svg viewBox="0 0 16 16" xmlns="http://www.w3.org/2000/svg" xmlns:xlink="http://www.w3.org/1999/xlink" width="16.000000" height="16.000000" fill="none">
	<rect id="操作图标/清理记录" width="16.000000" height="16.000000" x="0.000000" y="0.000000" />
	<path id="形状结合" d="M5.25 1C5.45075 1 5.62897 1.11955 5.70766 1.29855L5.9207 2.12127C5.9694 2.31603 6.1286 2.45992 6.32134 2.49286L9.59422 2.5C9.79498 2.5 9.97319 2.38045 10.0519 2.20145L10.2649 1.37873C10.3136 1.18397 10.4728 1.04008 10.6656 1.00714L12 1C13.0544 1 13.9182 1.81588 13.9945 2.85074L14 3L14 5.8C14 6.07614 13.7761 6.3 13.5 6.3C13.2545 6.3 13.0504 6.12313 13.0081 5.88988L13 3C13 2.48716 12.614 2.06449 12.1166 2.00673L12 2L11.14 2L11.0494 2.3638C10.8936 2.98704 10.3606 3.43665 9.7306 3.49383L9.59422 3.5L6.40578 3.5C5.76336 3.5 5.19789 3.09193 4.98962 2.49462L4.95056 2.3638L4.859 2L4 2C3.48716 2 3.06449 2.38604 3.00673 2.88338L3 3L3 13C3 13.5128 3.38604 13.9355 3.88338 13.9933L4 14L6.5 14C6.77614 14 7 14.2239 7 14.5C7 14.7455 6.82312 14.9496 6.58988 14.9919L4 15C2.94564 15 2.08183 14.1841 2.00549 13.1493L2 13L2 3C2 1.94564 2.81588 1.08183 3.85074 1.00549L4 1L5.25 1ZM11.4916 6.5C12.2871 6.5 12.9404 7.10907 13.0105 7.88634L13.0168 8.02516L12.963 9L14.0005 9C14.4791 9.00023 14.8786 9.33656 14.9768 9.78495L14.995 9.89925L15 10.0089L14.9911 11.0089C14.9882 11.3353 14.8292 11.624 14.5853 11.8044L14.981 13.8059C15.0957 14.3855 14.687 14.9278 14.1162 14.9934L14 15L9 15C8.38539 15 7.92599 14.4546 8.00925 13.863L8.03132 13.7517L8.51218 11.8732C8.23823 11.7198 8.04398 11.4412 8.00654 11.1154L8 10.9911L8.00893 9.99111C8.01347 9.48169 8.39833 9.06398 8.89255 9.0067L9.00842 9L10.027 9L9.97285 8.11796C9.92564 7.37238 10.4236 6.71826 11.124 6.5448L11.2576 6.518L11.4916 6.5ZM13.6043 12L9.51264 12L9 14L9.889 14L10.1097 12.9019C10.1578 12.6612 10.3713 12.4958 10.6083 12.5C10.849 12.5481 11.1042 12.7713 11.1 13.0083L10.91 14L12.129 14L12.0044 13.0661C12.0155 12.8293 12.1906 12.5368 12.4339 12.5044C12.6707 12.5155 12.9632 12.6906 12.9956 12.9339L13.137 14L14 14L13.6043 12ZM6.72752 11C7.00366 11 7.22752 11.2239 7.22752 11.5C7.22752 11.7455 7.05064 11.9496 6.81739 11.9919L4.5 12C4.22386 12 4 11.7761 4 11.5C4 11.2545 4.17688 11.0504 4.41012 11.0081L6.72752 11ZM11.4916 7.5L11.3656 7.51536C11.1554 7.5674 10.9984 7.74563 10.9733 7.96063L11.093 9.999L9.0089 10L9 11L13.9911 11L14 10L11.905 9.999L12.0165 8.04008L12.0083 7.93076C11.9638 7.68577 11.7494 7.5 11.4916 7.5ZM7 8C7.27614 8 7.5 8.22386 7.5 8.5C7.5 8.74546 7.32312 8.94961 7.08988 8.99194L4.5 9C4.22386 9 4 8.77614 4 8.5C4 8.25454 4.17688 8.05039 4.41012 8.00806L7 8ZM9.5 5C9.77614 5 10 5.22386 10 5.5C10 5.74546 9.82312 5.94961 9.58988 5.99194L4.5 6C4.22386 6 4 5.77614 4 5.5C4 5.25454 4.17688 5.05039 4.41012 5.00806L9.5 5ZM9.29092 1C9.56707 1 9.79092 1.22386 9.79092 1.5C9.79092 1.74546 9.61405 1.94961 9.3808 1.99194L6.59533 2C6.31919 2 6.09533 1.77614 6.09533 1.5C6.09533 1.25454 6.27221 1.05039 6.50546 1.00806L9.29092 1Z" fill="rgb(25,25,25)" fill-rule="evenodd" />
	<path id="形状结合" d="M5.70766 1.29855L5.9207 2.12127C5.9694 2.31603 6.1286 2.45992 6.32134 2.49286L9.59422 2.5C9.79498 2.5 9.97319 2.38045 10.0519 2.20145L10.2649 1.37873C10.3136 1.18397 10.4728 1.04008 10.6656 1.00714L12 1C13.0544 1 13.9182 1.81588 13.9945 2.85074L14 3L14 5.8C14 6.07614 13.7761 6.3 13.5 6.3C13.2545 6.3 13.0504 6.12313 13.0081 5.88988L13 3C13 2.48716 12.614 2.06449 12.1166 2.00673L12 2L11.14 2L11.0494 2.3638C10.8936 2.98704 10.3606 3.43665 9.7306 3.49383L9.59422 3.5L6.40578 3.5C5.76336 3.5 5.19789 3.09193 4.98962 2.49462L4.95056 2.3638L4.859 2L4 2C3.48716 2 3.06449 2.38604 3.00673 2.88338L3 3L3 13C3 13.5128 3.38604 13.9355 3.88338 13.9933L4 14L6.5 14C6.77614 14 7 14.2239 7 14.5C7 14.7455 6.82312 14.9496 6.58988 14.9919L4 15C2.94564 15 2.08183 14.1841 2.00549 13.1493L2 13L2 3C2 1.94564 2.81588 1.08183 3.85074 1.00549L4 1L5.25 1C5.45075 1 5.62897 1.11955 5.70766 1.29855ZM13.0105 7.88634L13.0168 8.02516L12.963 9L14.0005 9C14.4791 9.00023 14.8786 9.33656 14.9768 9.78495L14.995 9.89925L15 10.0089L14.9911 11.0089C14.9882 11.3353 14.8292 11.624 14.5853 11.8044L14.981 13.8059C15.0957 14.3855 14.687 14.9278 14.1162 14.9934L14 15L9 15C8.38539 15 7.92599 14.4546 8.00925 13.863L8.03132 13.7517L8.51218 11.8732C8.23823 11.7198 8.04398 11.4412 8.00654 11.1154L8 10.9911L8.00893 9.99111C8.01347 9.48169 8.39833 9.06398 8.89255 9.0067L9.00842 9L10.027 9L9.97285 8.11796C9.92564 7.37238 10.4236 6.71826 11.124 6.5448L11.2576 6.518L11.4916 6.5C12.2871 6.5 12.9404 7.10907 13.0105 7.88634ZM9.51264 12L9 14L9.889 14L10.1097 12.9019C10.1578 12.6612 10.3713 12.4958 10.6083 12.5C10.849 12.5481 11.1042 12.7713 11.1 13.0083L10.91 14L12.129 14L12.0044 13.0661C12.0155 12.8293 12.1906 12.5368 12.4339 12.5044C12.6707 12.5155 12.9632 12.6906 12.9956 12.9339L13.137 14L14 14L13.6043 12L9.51264 12ZM7.22752 11.5C7.22752 11.7455 7.05064 11.9496 6.81739 11.9919L4.5 12C4.22386 12 4 11.7761 4 11.5C4 11.2545 4.17688 11.0504 4.41012 11.0081L6.72752 11C7.00366 11 7.22752 11.2239 7.22752 11.5ZM11.3656 7.51536C11.1554 7.5674 10.9984 7.74563 10.9733 7.96063L11.093 9.999L9.0089 10L9 11L13.9911 11L14 10L11.905 9.999L12.0165 8.04008L12.0083 7.93076C11.9638 7.68577 11.7494 7.5 11.4916 7.5L11.3656 7.51536ZM7.5 8.5C7.5 8.74546 7.32312 8.94961 7.08988 8.99194L4.5 9C4.22386 9 4 8.77614 4 8.5C4 8.25454 4.17688 8.05039 4.41012 8.00806L7 8C7.27614 8 7.5 8.22386 7.5 8.5ZM10 5.5C10 5.74546 9.82312 5.94961 9.58988 5.99194L4.5 6C4.22386 6 4 5.77614 4 5.5C4 5.25454 4.17688 5.05039 4.41012 5.00806L9.5 5C9.77614 5 10 5.22386 10 5.5ZM9.79092 1.5C9.79092 1.74546 9.61405 1.94961 9.3808 1.99194L6.59533 2C6.31919 2 6.09533 1.77614 6.09533 1.5C6.09533 1.25454 6.27221 1.05039 6.50546 1.00806L9.29092 1C9.56707 1 9.79092 1.22386 9.79092 1.5Z" fill-rule="evenodd" stroke="rgb(0,0,0)" stroke-opacity="0" stroke-width="1" />
</svg>
