<svg viewBox="0 0 16 16" xmlns="http://www.w3.org/2000/svg" xmlns:xlink="http://www.w3.org/1999/xlink" width="16.000000" height="16.000000" fill="none">
	<rect id="操作图标/甘特图视图" width="16.000000" height="16.000000" x="0.000000" y="0.000000" fill="rgb(245,245,245)" fill-opacity="0" />
	<path id="形状结合" d="M13.5 1.5C13.7761 1.5 14 1.72386 14 2L14 4C14 4.27614 13.7761 4.5 13.5 4.5L7.5 4.5C7.22386 4.5 7 4.27614 7 4L7 2C7 1.72386 7.22386 1.5 7.5 1.5L13.5 1.5ZM13 2.5L13 3.5L8 3.5L8 2.5L13 2.5ZM12 7C12 6.72386 11.7761 6.5 11.5 6.5L2.5 6.5C2.22386 6.5 2 6.72386 2 7L2 9C2 9.27614 2.22386 9.5 2.5 9.5L11.5 9.5C11.7761 9.5 12 9.27614 12 9L12 7ZM11 8.5L11 7.5L3 7.5L3 8.5L11 8.5ZM13.5 11C13.7761 11 14 11.2239 14 11.5L14 13.5C14 13.7761 13.7761 14 13.5 14L4.5 14C4.22386 14 4 13.7761 4 13.5L4 11.5C4 11.2239 4.22386 11 4.5 11L13.5 11ZM13 12L13 13L5 13L5 12L13 12Z" fill="rgb(25,25,25)" fill-rule="evenodd" />
</svg>
