<svg viewBox="0 0 16 16" xmlns="http://www.w3.org/2000/svg" xmlns:xlink="http://www.w3.org/1999/xlink" width="16.000000" height="16.000000" fill="none">
	<rect id="操作图标/看板视图" width="16.000000" height="16.000000" x="0.000000" y="0.000000" />
	<path id="形状结合" d="M13 2C14.1046 2 15 2.89543 15 4L15 12C15 13.1046 14.1046 14 13 14L3 14C1.89543 14 1 13.1046 1 12L1 4C1 2.89543 1.89543 2 3 2L13 2ZM10 3L6 3L6 13L10 13L10 3ZM11 13L11 3L13 3C13.5523 3 14 3.44772 14 4L14 12C14 12.5523 13.5523 13 13 13L11 13ZM3 3L5 3L5 13L3 13C2.44772 13 2 12.5523 2 12L2 4C2 3.44772 2.44772 3 3 3Z" fill="rgb(25,25,25)" fill-rule="evenodd" />
</svg>
