<svg viewBox="0 0 16 16" xmlns="http://www.w3.org/2000/svg" xmlns:xlink="http://www.w3.org/1999/xlink" width="16.000000" height="16.000000" fill="none">
	<rect id="操作图标/研发桌面(customized-workbench)" width="16.000000" height="16.000000" x="0.000000" y="0.000000" />
	<path id="矢量 689" d="M13.3343 1.2666L2.66709 1.2666C2.48584 1.2666 2.30928 1.28613 2.13584 1.325C1.99834 1.35586 1.86397 1.39922 1.73271 1.45489C1.59365 1.51328 1.46397 1.58301 1.34053 1.66426C1.20771 1.75215 1.08428 1.85371 0.968654 1.96875C0.85459 2.08379 0.753026 2.20781 0.663966 2.34063C0.582714 2.46348 0.513966 2.59375 0.45615 2.73164C0.399902 2.86367 0.356152 2.99844 0.324902 3.13594C0.28584 3.3084 0.26709 3.48535 0.26709 3.6666L0.26709 10.3332C0.26709 10.5102 0.28584 10.683 0.32334 10.8516C0.35459 10.993 0.39834 11.1312 0.45615 11.2668C0.513966 11.4037 0.582714 11.5332 0.662402 11.6551C0.751466 11.7889 0.853026 11.9139 0.968654 12.0297C1.08584 12.1461 1.21084 12.2488 1.34521 12.3375C1.46709 12.4178 1.59521 12.4867 1.73115 12.5443C1.86553 12.601 2.00303 12.6449 2.14209 12.6762C2.3124 12.7142 2.4874 12.7332 2.66709 12.7332L13.3343 12.7332C13.5093 12.7332 13.6796 12.715 13.8468 12.6785C13.989 12.6473 14.1296 12.6025 14.2671 12.5443C14.403 12.4869 14.5311 12.4188 14.6515 12.3392C14.7874 12.2502 14.914 12.1471 15.0296 12.0299C15.1468 11.9127 15.2499 11.7863 15.3405 11.6508C15.4187 11.5303 15.4874 11.4024 15.5452 11.2672C15.603 11.1297 15.6483 10.9892 15.6796 10.8457C15.7155 10.6789 15.7343 10.508 15.7343 10.3332L15.7343 3.6666C15.7343 3.48731 15.714 3.3125 15.6765 3.1418C15.6452 3.00215 15.6015 2.86524 15.5452 2.73125C15.4874 2.59512 15.4187 2.46621 15.3374 2.34492C15.2499 2.21035 15.1468 2.08496 15.0296 1.96856C14.914 1.85293 14.789 1.75078 14.6561 1.6625C14.5343 1.58203 14.4046 1.51289 14.2671 1.45508C14.1311 1.39766 13.9937 1.35352 13.8515 1.32246C13.6827 1.28516 13.5108 1.2666 13.3343 1.2666ZM8.46398 3.65C8.31238 3.6166 8.1577 3.6 7.9999 3.6C7.8421 3.6 7.68742 3.6166 7.53582 3.65C7.40926 3.67793 7.28426 3.71758 7.16238 3.76914C7.04054 3.82071 6.9249 3.88262 6.8171 3.95449C6.69522 4.0338 6.58426 4.1256 6.47958 4.22968C6.3749 4.3338 6.28426 4.44608 6.20458 4.5664C6.1327 4.6754 6.07022 4.79084 6.01866 4.91308C5.9671 5.03456 5.92802 5.1588 5.8999 5.28576C5.8671 5.43672 5.8499 5.5916 5.8499 5.75C5.8499 5.9084 5.8671 6.06328 5.8999 6.21424C5.92802 6.3412 5.9671 6.46544 6.01866 6.58692C6.07022 6.70916 6.1327 6.8246 6.20458 6.9336C6.28426 7.05392 6.3749 7.1662 6.47958 7.27032C6.58426 7.3744 6.69522 7.4662 6.8171 7.54552C6.9249 7.6174 7.04054 7.67928 7.16238 7.73084C7.28426 7.78244 7.40926 7.82208 7.53582 7.85C7.68742 7.8834 7.8421 7.9 7.9999 7.9C8.1577 7.9 8.31238 7.8834 8.46398 7.85C8.59054 7.82208 8.71554 7.78244 8.83742 7.73084C8.95926 7.67928 9.0749 7.6174 9.1827 7.54552C9.30458 7.4662 9.41554 7.3744 9.52022 7.27032C9.6249 7.1662 9.71554 7.05392 9.79522 6.9336C9.8671 6.8246 9.92958 6.70916 9.98114 6.58692C10.0327 6.46544 10.0718 6.3412 10.0999 6.21424C10.1327 6.06328 10.1499 5.9084 10.1499 5.75C10.1499 5.5916 10.1327 5.43672 10.0999 5.28576C10.0718 5.1588 10.0327 5.03456 9.98114 4.91308C9.92958 4.79084 9.8671 4.6754 9.79522 4.5664C9.71554 4.44608 9.6249 4.3338 9.52022 4.22968C9.41554 4.1256 9.30458 4.0338 9.1827 3.95449C9.0749 3.88262 8.95926 3.82071 8.83742 3.76914C8.71554 3.71758 8.59054 3.67793 8.46398 3.65ZM7.69522 4.43436C7.79366 4.41152 7.89522 4.4 7.9999 4.4C8.10458 4.4 8.20614 4.41152 8.30458 4.43436L8.5249 4.50584C8.5999 4.53732 8.67022 4.5748 8.73582 4.61816C8.81398 4.66896 8.88742 4.72812 8.95458 4.79532C9.02178 4.86268 9.08114 4.93536 9.13114 5.01348C9.1749 5.07988 9.21238 5.1504 9.24366 5.2246C9.2749 5.29648 9.29834 5.36992 9.31554 5.44472C9.33898 5.54396 9.3499 5.64572 9.3499 5.75C9.3499 5.85428 9.33898 5.95604 9.31554 6.05528C9.29834 6.13008 9.2749 6.20352 9.24366 6.2754C9.21238 6.3496 9.1749 6.42012 9.13114 6.48652C9.08114 6.56464 9.02178 6.63732 8.95458 6.70468C8.88742 6.77188 8.81398 6.83104 8.73582 6.88184C8.67022 6.9252 8.5999 6.96268 8.5249 6.99416L8.30458 7.06564C8.20614 7.08848 8.10458 7.1 7.9999 7.1C7.89522 7.1 7.79366 7.08848 7.69522 7.06564L7.4749 6.99416C7.3999 6.96268 7.32958 6.9252 7.26398 6.88184C7.18582 6.83104 7.11238 6.77188 7.04522 6.70468C6.97802 6.63732 6.91866 6.56464 6.86866 6.48652C6.8249 6.42012 6.78742 6.3496 6.75614 6.2754C6.7249 6.20352 6.70146 6.13008 6.68426 6.05528C6.66082 5.95604 6.6499 5.85428 6.6499 5.75C6.6499 5.64572 6.66082 5.54396 6.68426 5.44472C6.70146 5.36992 6.7249 5.29648 6.75614 5.2246C6.78742 5.1504 6.8249 5.07988 6.86866 5.01348C6.91866 4.93536 6.97802 4.86268 7.04522 4.79532C7.11238 4.72812 7.18582 4.66896 7.26398 4.61816C7.32958 4.5748 7.3999 4.53732 7.4749 4.50584L7.69522 4.43436ZM4.4827 4.9754C4.59054 4.99904 4.69522 5.0326 4.79834 5.07636C4.76238 5.23612 4.74834 5.4082 4.74834 5.5834C4.74834 5.72284 4.75614 5.86016 4.77178 5.99416L4.64522 5.89688C4.59522 5.86464 4.5421 5.83672 4.48742 5.81308L4.40302 5.78144L4.32334 5.75976C4.24834 5.7422 4.17022 5.7334 4.0921 5.7334C4.01238 5.7334 3.93428 5.7422 3.85928 5.75976L3.69521 5.81308C3.64053 5.83672 3.5874 5.86464 3.5374 5.89688C3.47803 5.93536 3.42334 5.98008 3.37334 6.03124C3.32178 6.08224 3.27647 6.13732 3.23897 6.19648C3.20615 6.24628 3.17803 6.29884 3.15459 6.35448C3.13271 6.4078 3.11397 6.46248 3.10147 6.51816C3.08428 6.59336 3.0749 6.67072 3.0749 6.75C3.0749 6.82948 3.08428 6.90664 3.10147 6.98204C3.11397 7.03768 3.13271 7.0922 3.15459 7.14572C3.17803 7.20116 3.20615 7.25392 3.23897 7.30372C3.27647 7.36288 3.32178 7.41796 3.37334 7.46896L3.4874 7.56816L3.5374 7.60312C3.5874 7.63556 3.64053 7.66348 3.69521 7.68692C3.7499 7.70956 3.80459 7.72736 3.85928 7.74044C3.93428 7.758 4.01238 7.7668 4.0921 7.7668C4.17022 7.7668 4.24834 7.758 4.32334 7.74044C4.37958 7.72736 4.43426 7.70956 4.48742 7.68692C4.5421 7.66348 4.59522 7.63556 4.64522 7.60312C4.70458 7.56464 4.75926 7.51992 4.81082 7.46896C4.86082 7.41796 4.90614 7.36288 4.94522 7.30372C4.97646 7.25392 5.00458 7.20116 5.02802 7.14572C5.05146 7.0922 5.06866 7.03768 5.07178 7.0008C5.18742 7.241 5.3327 7.46464 5.50302 7.6674C5.36238 7.74084 5.2249 7.82128 5.0921 7.909C4.84366 8.07324 4.61238 8.26288 4.39834 8.47736L4.32646 8.55196C4.2499 8.56192 4.17022 8.5668 4.0921 8.5668C3.95771 8.5668 3.82803 8.55272 3.6999 8.5248C3.59365 8.50116 3.4874 8.4674 3.38428 8.42384C3.28115 8.38008 3.18271 8.32772 3.09053 8.2668C2.98897 8.1998 2.89521 8.12248 2.80771 8.03456C2.71865 7.94688 2.64209 7.85216 2.5749 7.7508C2.51397 7.6586 2.46084 7.56076 2.41709 7.45724C2.3749 7.35412 2.34053 7.24864 2.31709 7.141C2.28897 7.01388 2.2749 6.8834 2.2749 6.75C2.2749 6.6166 2.28897 6.48632 2.31709 6.359C2.34053 6.25136 2.3749 6.14608 2.41709 6.04276C2.46084 5.93924 2.51397 5.8416 2.5749 5.7494C2.64209 5.64784 2.71865 5.55332 2.80771 5.46544C2.89521 5.37772 2.98897 5.3004 3.09053 5.2332C3.18271 5.17248 3.28115 5.12012 3.38428 5.07636C3.4874 5.0326 3.59365 4.99904 3.6999 4.9754C3.82803 4.94748 3.95771 4.9334 4.0921 4.9334C4.2249 4.9334 4.35458 4.94748 4.4827 4.9754ZM11.9046 8.5668C11.8249 8.5668 11.7468 8.56192 11.6702 8.55196L11.5968 8.47736C11.4124 8.292 11.2155 8.1256 11.0046 7.97792L10.903 7.909C10.7702 7.82128 10.6327 7.74064 10.4921 7.6674C10.6624 7.46464 10.8077 7.241 10.914 6.98204C10.9265 7.03768 10.9452 7.0922 10.9671 7.14572C10.9905 7.20116 11.0187 7.25392 11.0515 7.30372C11.089 7.36288 11.1343 7.41796 11.1858 7.46896L11.2999 7.56816L11.3499 7.60312C11.3999 7.63556 11.453 7.66348 11.5077 7.68692C11.5624 7.70956 11.6171 7.72736 11.6718 7.74044C11.7468 7.758 11.8249 7.7668 11.9046 7.7668C11.9827 7.7668 12.0608 7.758 12.1358 7.74044C12.1921 7.72736 12.2468 7.70956 12.2999 7.68692C12.3546 7.66348 12.4077 7.63556 12.4577 7.60312C12.5171 7.56464 12.5718 7.51992 12.6233 7.46896C12.6733 7.41796 12.7187 7.36288 12.7577 7.30372C12.789 7.25392 12.8171 7.20116 12.8405 7.14572C12.864 7.0922 12.8811 7.03768 12.8937 6.98204C12.9124 6.90664 12.9202 6.82948 12.9202 6.75C12.9202 6.67072 12.9124 6.59336 12.8937 6.51816C12.8811 6.46248 12.864 6.4078 12.8405 6.35448C12.8171 6.29884 12.789 6.24628 12.7577 6.19648C12.7187 6.13732 12.6733 6.08224 12.6233 6.03124C12.5718 5.98008 12.5171 5.93536 12.4577 5.89688C12.4077 5.86464 12.3546 5.83672 12.2999 5.81308L12.2155 5.78144L12.1358 5.75976C12.0608 5.7422 11.9827 5.7334 11.9046 5.7334C11.8249 5.7334 11.7468 5.7422 11.6718 5.75976L11.5077 5.81308C11.453 5.83672 11.3999 5.86464 11.3499 5.89688C11.3046 5.9258 11.264 5.9582 11.2218 5.99492C11.239 5.86016 11.2468 5.72284 11.2468 5.5834C11.2468 5.41152 11.2327 5.24296 11.1968 5.07636C11.2999 5.0326 11.4061 4.99904 11.5124 4.9754C11.6405 4.94748 11.7702 4.9334 11.9046 4.9334C12.0374 4.9334 12.1671 4.94748 12.2952 4.9754C12.403 4.99904 12.5077 5.0326 12.6108 5.07636C12.7155 5.12012 12.8124 5.17248 12.9046 5.2332C13.0061 5.3004 13.1015 5.37772 13.189 5.46544C13.2765 5.55332 13.3546 5.64784 13.4202 5.7494C13.4811 5.8416 13.5343 5.93924 13.578 6.04276C13.6218 6.14608 13.6546 6.25136 13.678 6.359C13.7061 6.48632 13.7202 6.6166 13.7202 6.75C13.7202 6.8834 13.7061 7.01388 13.678 7.141C13.6546 7.24864 13.6218 7.35412 13.578 7.45724C13.5343 7.56076 13.4811 7.6586 13.4202 7.7508C13.3546 7.85216 13.2765 7.94688 13.189 8.03456C13.1015 8.12248 13.0061 8.1998 12.9046 8.2668C12.8124 8.32772 12.7155 8.38008 12.6108 8.42384C12.5077 8.4674 12.403 8.50116 12.2952 8.5248C12.1671 8.55272 12.0374 8.5668 11.9046 8.5668ZM11.0093 11.8066C11.0093 11.6098 10.9874 11.4178 10.9452 11.2307C10.9124 11.0858 10.8655 10.944 10.8061 10.8049C10.7468 10.6629 10.6749 10.5283 10.5921 10.4012L10.5655 10.3611C10.4749 10.2277 10.3718 10.1029 10.2546 9.98692C10.128 9.86076 9.9921 9.7496 9.84522 9.65372C9.7171 9.56916 9.57958 9.49648 9.43582 9.43536C9.29678 9.37656 9.15458 9.33068 9.00926 9.29748C8.82178 9.25468 8.62958 9.2334 8.4327 9.2334L7.56238 9.2334C7.36554 9.2334 7.17334 9.25468 6.98582 9.29748C6.84054 9.33068 6.69834 9.37656 6.55926 9.43536C6.41554 9.49648 6.27802 9.56916 6.1499 9.65372C6.00302 9.7496 5.8671 9.86076 5.74054 9.98692C5.62334 10.1029 5.52022 10.2277 5.42958 10.3611L5.40302 10.4012C5.3171 10.5358 5.24522 10.6703 5.18742 10.8049C5.12958 10.944 5.0827 11.0858 5.0499 11.2307C5.0077 11.4178 4.98582 11.6098 4.98582 11.8066C4.98582 11.823 4.98898 11.8381 4.99366 11.8522C4.9999 11.8672 5.00926 11.8807 5.02178 11.8932L5.11238 11.9301L10.8827 11.9301L10.9343 11.9201C10.9467 11.9076 10.9952 11.8672 11.0015 11.8522C11.0061 11.8381 11.0093 11.823 11.0093 11.8066ZM13.4999 13.9334L2.4999 13.9334C2.27647 13.9334 2.0999 14.1094 2.0999 14.3334C2.0999 14.5574 2.27647 14.7334 2.4999 14.7334L13.4999 14.7334C13.7233 14.7334 13.8999 14.5574 13.8999 14.3334C13.8999 14.1094 13.7233 13.9334 13.4999 13.9334ZM2.29521 2.10938C2.41553 2.08086 2.54053 2.0666 2.66709 2.0666L13.3343 2.0666C13.4561 2.0666 13.5765 2.08008 13.6937 2.10684C13.7827 2.12735 13.8702 2.15567 13.9561 2.19199C14.0452 2.22949 14.1296 2.27442 14.2093 2.32637C14.2999 2.38613 14.3858 2.45567 14.4655 2.53457C14.5437 2.61407 14.614 2.7 14.6749 2.79219C14.7265 2.87109 14.7702 2.95489 14.8077 3.04317C14.8437 3.12735 14.8718 3.21328 14.8921 3.30098C14.9202 3.41953 14.9343 3.54141 14.9343 3.6666L14.9343 10.3332C14.9343 10.4539 14.9202 10.5717 14.8952 10.6865C14.8843 10.7379 14.8702 10.7889 14.853 10.8391C14.778 10.6557 14.6968 10.5062 14.6046 10.3654C14.4999 10.2066 14.3796 10.0586 14.2421 9.92148C14.1061 9.78612 13.9593 9.6666 13.803 9.56328C13.6608 9.46916 13.5093 9.38808 13.3483 9.32052C13.1905 9.25372 13.0296 9.20216 12.864 9.16564C12.6655 9.12188 12.4624 9.1 12.2561 9.1L12.1171 9.1L12.1655 9.17148C12.3171 9.4 12.4468 9.64256 12.5561 9.8994C12.6046 9.9066 12.6593 9.93964 12.7046 9.95C12.8187 9.9758 12.9296 10.0117 13.0374 10.0574C13.1499 10.1049 13.2561 10.1615 13.3561 10.2274C13.4718 10.3022 13.578 10.3891 13.6765 10.4877C13.7765 10.5881 13.8655 10.6965 13.9421 10.8129C14.0061 10.9115 14.0608 11.0156 14.1077 11.1256C14.153 11.2338 14.189 11.3445 14.2155 11.4572C14.2296 11.519 14.2405 11.581 14.2483 11.6442C14.2327 11.6566 14.2187 11.6662 14.2046 11.6758L13.9561 11.8076C13.8687 11.8447 13.778 11.8736 13.6874 11.8943C13.6093 11.9119 13.5296 11.9236 13.4499 11.9293L12.8874 11.9293L11.8015 11.9332C11.8077 11.8916 11.8093 11.8494 11.8093 11.8066C11.8093 11.5557 11.7827 11.3106 11.7296 11.0715C11.6858 10.8746 11.6233 10.6816 11.5437 10.493C11.4624 10.3029 11.3671 10.1232 11.2561 9.95372C11.1296 9.76308 10.9843 9.58536 10.8202 9.42072C10.6561 9.2578 10.4811 9.11424 10.2921 8.98984C10.1202 8.87676 9.93898 8.77968 9.74678 8.69844C9.5577 8.61856 9.36398 8.55684 9.1671 8.51308C8.92802 8.45996 8.6827 8.4334 8.4327 8.4334L7.56238 8.4334C7.31082 8.4334 7.0671 8.45996 6.82802 8.51308C6.63114 8.55684 6.43742 8.61856 6.24834 8.69844C6.05614 8.77968 5.8749 8.87676 5.70302 8.98984C5.51398 9.11424 5.33898 9.2578 5.1749 9.42072C5.01082 9.58536 4.86554 9.76308 4.73898 9.95372C4.62802 10.1232 4.5327 10.3029 4.45146 10.493C4.37178 10.6816 4.30926 10.8746 4.26554 11.0715C4.21238 11.3106 4.18582 11.5557 4.18582 11.8066C4.18582 11.8494 4.18742 11.8916 4.19366 11.9332L2.66709 11.9332C2.63271 11.9332 2.5999 11.9322 2.56553 11.9301C2.47647 11.9246 2.3874 11.9117 2.30147 11.8918C2.21397 11.8713 2.12803 11.8432 2.04365 11.8076C1.95459 11.7701 1.87178 11.7256 1.79209 11.674C1.77803 11.6646 1.76397 11.6551 1.74834 11.6416C1.75615 11.5774 1.76865 11.5146 1.78271 11.4524C1.80771 11.3412 1.84365 11.232 1.88897 11.1252C1.93584 11.0135 1.99209 10.9076 2.05771 10.8078C2.13271 10.6932 2.22021 10.5863 2.31865 10.4875C2.41709 10.3885 2.5249 10.3016 2.63897 10.2264C2.73897 10.1609 2.84521 10.1047 2.95615 10.0574C3.06397 10.0123 3.17178 9.97696 3.28428 9.95116L3.42959 9.92304C3.53896 9.6662 3.67803 9.4 3.82959 9.17148L3.87803 9.1L3.7374 9.1C3.52803 9.1 3.32334 9.12228 3.1249 9.1668C2.96084 9.20312 2.80147 9.25448 2.64521 9.32052C2.48584 9.38808 2.33428 9.46876 2.19209 9.56268C2.03428 9.6664 1.88897 9.78592 1.75303 9.92168C1.61709 10.0574 1.49678 10.2039 1.39365 10.3608C1.2999 10.5031 1.21865 10.6541 1.15147 10.8139C1.1374 10.7701 1.11865 10.7375 1.10771 10.6928C1.08115 10.576 1.06709 10.4562 1.06709 10.3332L1.06709 3.6666C1.06709 3.53926 1.08115 3.41524 1.10928 3.29473C1.12959 3.20899 1.15771 3.125 1.19209 3.04277C1.23115 2.95293 1.27647 2.86777 1.32803 2.7875L1.53428 2.53438C1.6124 2.45625 1.69678 2.3875 1.7874 2.32793C1.86865 2.2752 1.95303 2.22989 2.04365 2.19199C2.1249 2.15723 2.20928 2.12969 2.29521 2.10938Z" fill="rgb(25,25,25)" fill-rule="evenodd" />
</svg>
