<svg viewBox="0 0 16 16" xmlns="http://www.w3.org/2000/svg" xmlns:xlink="http://www.w3.org/1999/xlink" width="16.000000" height="16.000000" fill="none">
	<rect id="操作图标/移动" width="16.000000" height="16.000000" x="0.000000" y="0.000000" />
	<path id="形状结合" d="M5.6665 4C6.21879 4 6.6665 3.55228 6.6665 3C6.6665 2.44772 6.21879 2 5.6665 2C5.11422 2 4.6665 2.44772 4.6665 3C4.6665 3.55228 5.11422 4 5.6665 4ZM5.6665 9C6.21879 9 6.6665 8.55229 6.6665 8C6.6665 7.44772 6.21879 7 5.6665 7C5.11422 7 4.6665 7.44772 4.6665 8C4.6665 8.55229 5.11422 9 5.6665 9ZM5.6665 14C6.21879 14 6.6665 13.5523 6.6665 13C6.6665 12.4477 6.21879 12 5.6665 12C5.11422 12 4.6665 12.4477 4.6665 13C4.6665 13.5523 5.11422 14 5.6665 14ZM10.3332 4C10.8855 4 11.3332 3.55228 11.3332 3C11.3332 2.44772 10.8855 2 10.3332 2C9.78089 2 9.33317 2.44772 9.33317 3C9.33317 3.55228 9.78089 4 10.3332 4ZM10.3332 9C10.8855 9 11.3332 8.55229 11.3332 8C11.3332 7.44772 10.8855 7 10.3332 7C9.78089 7 9.33317 7.44772 9.33317 8C9.33317 8.55229 9.78089 9 10.3332 9ZM10.3332 14C10.8855 14 11.3332 13.5523 11.3332 13C11.3332 12.4477 10.8855 12 10.3332 12C9.78089 12 9.33317 12.4477 9.33317 13C9.33317 13.5523 9.78089 14 10.3332 14Z" fill="rgb(25,25,25)" fill-rule="evenodd" />
	<path id="形状结合" d="M6.6665 3C6.6665 2.44772 6.21879 2 5.6665 2C5.11422 2 4.6665 2.44772 4.6665 3C4.6665 3.55228 5.11422 4 5.6665 4C6.21879 4 6.6665 3.55228 6.6665 3ZM6.6665 8C6.6665 7.44772 6.21879 7 5.6665 7C5.11422 7 4.6665 7.44772 4.6665 8C4.6665 8.55229 5.11422 9 5.6665 9C6.21879 9 6.6665 8.55229 6.6665 8ZM6.6665 13C6.6665 12.4477 6.21879 12 5.6665 12C5.11422 12 4.6665 12.4477 4.6665 13C4.6665 13.5523 5.11422 14 5.6665 14C6.21879 14 6.6665 13.5523 6.6665 13ZM11.3332 3C11.3332 2.44772 10.8855 2 10.3332 2C9.78089 2 9.33317 2.44772 9.33317 3C9.33317 3.55228 9.78089 4 10.3332 4C10.8855 4 11.3332 3.55228 11.3332 3ZM11.3332 8C11.3332 7.44772 10.8855 7 10.3332 7C9.78089 7 9.33317 7.44772 9.33317 8C9.33317 8.55229 9.78089 9 10.3332 9C10.8855 9 11.3332 8.55229 11.3332 8ZM11.3332 13C11.3332 12.4477 10.8855 12 10.3332 12C9.78089 12 9.33317 12.4477 9.33317 13C9.33317 13.5523 9.78089 14 10.3332 14C10.8855 14 11.3332 13.5523 11.3332 13Z" fill-rule="evenodd" stroke="rgb(0,0,0)" stroke-opacity="0" stroke-width="1" />
</svg>
