<svg viewBox="0 0 16 16" xmlns="http://www.w3.org/2000/svg" xmlns:xlink="http://www.w3.org/1999/xlink" width="16.000000" height="16.000000" fill="none">
	<rect id="操作图标/移动设备" width="16.000000" height="16.000000" x="0.000000" y="0.000000" />
	<path id="形状结合" d="M11 1C12.1046 1 13 1.89543 13 3L13 13C13 14.1046 12.1046 15 11 15L5 15C3.89543 15 3 14.1046 3 13L3 3C3 1.89543 3.89543 1 5 1L11 1ZM11 2L5 2C4.48716 2 4.06449 2.38604 4.00673 2.88338L4 3L4 13C4 13.5128 4.38604 13.9355 4.88338 13.9933L5 14L11 14C11.5128 14 11.9355 13.614 11.9933 13.1166L12 13L12 3C12 2.48716 11.614 2.06449 11.1166 2.00673L11 2ZM10.5 11C10.7761 11 11 11.2239 11 11.5C11 11.7761 10.7761 12 10.5 12L5.5 12C5.22386 12 5 11.7761 5 11.5C5 11.2239 5.22386 11 5.5 11L10.5 11ZM8.5 3C8.77614 3 9 3.22386 9 3.5C9 3.77614 8.77614 4 8.5 4L7.5 4C7.22386 4 7 3.77614 7 3.5C7 3.22386 7.22386 3 7.5 3L8.5 3Z" fill="rgb(25,25,25)" fill-rule="evenodd" />
	<path id="形状结合" d="M13 3L13 13C13 14.1046 12.1046 15 11 15L5 15C3.89543 15 3 14.1046 3 13L3 3C3 1.89543 3.89543 1 5 1L11 1C12.1046 1 13 1.89543 13 3ZM5 2C4.48716 2 4.06449 2.38604 4.00673 2.88338L4 3L4 13C4 13.5128 4.38604 13.9355 4.88338 13.9933L5 14L11 14C11.5128 14 11.9355 13.614 11.9933 13.1166L12 13L12 3C12 2.48716 11.614 2.06449 11.1166 2.00673L11 2L5 2ZM11 11.5C11 11.7761 10.7761 12 10.5 12L5.5 12C5.22386 12 5 11.7761 5 11.5C5 11.2239 5.22386 11 5.5 11L10.5 11C10.7761 11 11 11.2239 11 11.5ZM9 3.5C9 3.77614 8.77614 4 8.5 4L7.5 4C7.22386 4 7 3.77614 7 3.5C7 3.22386 7.22386 3 7.5 3L8.5 3C8.77614 3 9 3.22386 9 3.5Z" fill-rule="evenodd" stroke="rgb(0,0,0)" stroke-opacity="0" stroke-width="1" />
</svg>
