<svg viewBox="0 0 16 16" xmlns="http://www.w3.org/2000/svg" xmlns:xlink="http://www.w3.org/1999/xlink" width="16.000000" height="16.000000" fill="none">
	<rect id="操作图标/筛选" width="16.000000" height="16.000000" x="0.000000" y="0.000000" />
	<path id="形状结合" d="M10.2922 11.9525L10.2922 8.9925C10.2922 8.7125 10.0722 8.4925 9.79219 8.4925C9.51219 8.4925 9.29219 8.7125 9.29219 8.9925L9.29219 11.9525C9.28219 11.9825 9.26219 12.1025 9.24219 12.1325C9.22219 12.1525 9.14219 12.2525 9.11219 12.2725L6.66219 13.8325L6.66219 7.2325C6.66219 7.1625 6.65219 7.1025 6.62219 7.0525C6.60219 6.9925 6.57219 6.9325 6.52219 6.8925L2.60219 2.6325C2.56219 2.5925 2.53219 2.5525 2.52219 2.5025C2.50219 2.4625 2.49219 2.4125 2.50219 2.3625C2.50219 2.3125 2.51219 2.2625 2.53219 2.2225C2.55219 2.1825 2.58219 2.1325 2.62219 2.1025C2.66219 2.0625 2.70219 2.0425 2.74219 2.0225C2.78219 2.0025 2.83219 2.0025 2.89219 2.0025L13.1022 2.0025C13.1622 2.0025 13.2122 2.0125 13.2622 2.0325C13.3022 2.0425 13.3522 2.0725 13.3822 2.1125C13.4222 2.1525 13.4522 2.1925 13.4722 2.2425C13.4922 2.2825 13.5022 2.3325 13.5022 2.3825C13.5022 2.4325 13.4922 2.4725 13.4722 2.5125C13.4522 2.5625 13.4322 2.6025 13.3922 2.6425L9.42219 6.8925C9.23219 7.0925 9.24219 7.4025 9.45219 7.5925C9.65219 7.7825 9.96219 7.7725 10.1522 7.5725L14.1222 3.3225C14.1822 3.2525 14.2422 3.1825 14.2922 3.1125C14.3322 3.0425 14.3722 2.9625 14.4022 2.8825C14.4322 2.8025 14.4622 2.7225 14.4722 2.6325C14.4922 2.5525 14.5022 2.4625 14.5022 2.3825C14.5022 2.2825 14.4822 2.1825 14.4622 2.0925C14.4522 2.0025 14.4222 1.9225 14.3822 1.8425C14.3522 1.7625 14.3122 1.6925 14.2722 1.6225C14.2222 1.5425 14.1522 1.4725 14.0922 1.4025C14.0222 1.3325 13.9522 1.2825 13.8822 1.2325C13.8022 1.1825 13.7322 1.1425 13.6422 1.1025C13.5622 1.0725 13.4822 1.0425 13.4022 1.0325C13.3022 1.0125 13.2022 1.0025 13.1022 1.0025L2.89219 1.0025C2.80219 1.0025 2.71219 1.0025 2.63219 1.0225C2.55219 1.0325 2.46219 1.0625 2.39219 1.0925C2.30219 1.1225 2.22219 1.1625 2.15219 1.2125C2.08219 1.2525 2.01219 1.3025 1.95219 1.3625C1.87219 1.4225 1.81219 1.5025 1.75219 1.5825C1.70219 1.6525 1.66219 1.7225 1.62219 1.8025C1.59219 1.8825 1.56219 1.9625 1.54219 2.0425C1.51219 2.1325 1.50219 2.2225 1.50219 2.3225C1.49219 2.4125 1.50219 2.5025 1.51219 2.5925C1.52219 2.6825 1.55219 2.7625 1.58219 2.8425C1.60219 2.9225 1.64219 3.0025 1.68219 3.0725C1.73219 3.1625 1.79219 3.2425 1.86219 3.3125L5.66219 7.4225L5.66219 14.2025C5.66219 14.2825 5.67219 14.3525 5.69219 14.4225C5.71219 14.5025 5.74219 14.5725 5.79219 14.6325C5.85219 14.7225 5.92219 14.8025 6.00219 14.8625C6.08219 14.9125 6.18219 14.9525 6.29219 14.9825C6.39219 15.0025 6.50219 15.0025 6.60219 14.9825C6.70219 14.9725 6.79219 14.9325 6.88219 14.8725L9.65219 13.1125C9.75219 13.0425 9.84219 12.9725 9.92219 12.8825C10.0022 12.8025 10.0622 12.7125 10.1222 12.6125C10.1822 12.5025 10.2222 12.4025 10.2522 12.2825C10.2722 12.1725 10.2922 12.0625 10.2922 11.9525Z" fill="rgb(25,25,25)" fill-rule="evenodd" />
</svg>
