<svg viewBox="0 0 16 16" xmlns="http://www.w3.org/2000/svg" xmlns:xlink="http://www.w3.org/1999/xlink" width="16.000000" height="16.000000" fill="none">
	<rect id="操作图标/继续执行" width="16.000000" height="16.000000" x="0.000000" y="0.000000" />
	<path id="形状结合" d="M2.5 2C2.77614 2 3 2.22386 3 2.5L3 13.5C3 13.7761 2.77614 14 2.5 14C2.22386 14 2 13.7761 2 13.5L2 2.5C2 2.22386 2.22386 2 2.5 2ZM6.00203 2C6.18895 2 6.37214 2.05228 6.5309 2.15095L14.5267 7.11984C14.9967 7.41194 15.141 8.02981 14.8489 8.49989C14.7686 8.62914 14.6599 8.7384 14.5311 8.81938L6.53532 13.8462C6.0668 14.1407 5.44823 13.9996 5.1537 13.5311C5.05328 13.3713 5 13.1865 5 12.9978L5 3.0021C5 2.44866 5.44863 2 6.00203 2ZM6.03216 3.2563C6.01247 3.28798 6.00203 3.32455 6.00203 3.36186L6.00203 12.6358C6.00203 12.7463 6.09158 12.8358 6.20203 12.8358C6.2397 12.8358 6.27659 12.8252 6.30848 12.8051L13.7269 8.14129C13.8205 8.0825 13.8486 7.95904 13.7898 7.86553L6.3076 3.19199C6.21378 3.13369 6.09046 3.16248 6.03216 3.2563Z" fill="rgb(25,25,25)" fill-rule="evenodd" />
	<path id="形状结合" d="M3 2.5L3 13.5C3 13.7761 2.77614 14 2.5 14C2.22386 14 2 13.7761 2 13.5L2 2.5C2 2.22386 2.22386 2 2.5 2C2.77614 2 3 2.22386 3 2.5ZM6.5309 2.15095L14.5267 7.11984C14.9967 7.41194 15.141 8.02981 14.8489 8.49989C14.7686 8.62914 14.6599 8.7384 14.5311 8.81938L6.53532 13.8462C6.0668 14.1407 5.44823 13.9996 5.1537 13.5311C5.05328 13.3713 5 13.1865 5 12.9978L5 3.0021C5 2.44866 5.44863 2 6.00203 2C6.18895 2 6.37214 2.05228 6.5309 2.15095ZM6.00203 3.36186L6.00203 12.6358C6.00203 12.7463 6.09158 12.8358 6.20203 12.8358C6.2397 12.8358 6.27659 12.8252 6.30848 12.8051L13.7269 8.14129C13.8205 8.0825 13.8486 7.95904 13.7898 7.86553L6.3076 3.19199C6.21378 3.13369 6.09046 3.16248 6.03216 3.2563C6.01247 3.28798 6.00203 3.32455 6.00203 3.36186Z" fill-rule="evenodd" stroke="rgb(0,0,0)" stroke-opacity="0" stroke-width="1" />
</svg>
