<svg viewBox="0 0 16 16" xmlns="http://www.w3.org/2000/svg" xmlns:xlink="http://www.w3.org/1999/xlink" width="16.000000" height="16.000000" fill="none">
	<rect id="操作图标/缩小(zoom-out)" width="16.000000" height="16.000000" x="0.000000" y="0.000000" />
	<path id="形状结合" d="M7.16667 1C10.5724 1 13.3333 3.76092 13.3333 7.16667C13.3333 8.68985 12.7811 10.0841 11.8659 11.16L14.4225 13.7154C14.6178 13.9107 14.6178 14.2273 14.4225 14.4226C14.249 14.5961 13.9795 14.6154 13.7847 14.4804L13.7154 14.4226L11.159 11.8667C10.0832 12.7814 8.68937 13.3333 7.16667 13.3333C3.76092 13.3333 1 10.5724 1 7.16667C1 3.76092 3.76092 1 7.16667 1ZM7.16667 2C4.31321 2 2 4.31321 2 7.16667C2 10.0201 4.31321 12.3333 7.16667 12.3333C10.0201 12.3333 12.3333 10.0201 12.3333 7.16667C12.3333 4.31321 10.0201 2 7.16667 2ZM9.16602 6.66667C9.44216 6.66631 9.66631 6.88987 9.66667 7.16602C9.66699 7.41148 9.49038 7.61585 9.25718 7.65849L9.16732 7.66667L5.17252 7.67187C4.89638 7.67223 4.67223 7.44866 4.67187 7.17252C4.67155 6.92706 4.84816 6.72268 5.08135 6.68004L5.17122 6.67187L9.16602 6.66667Z" fill="rgb(25,25,25)" fill-rule="nonzero" />
</svg>
