<svg viewBox="0 0 16 16" xmlns="http://www.w3.org/2000/svg" xmlns:xlink="http://www.w3.org/1999/xlink" width="16.000000" height="16.000000" fill="none">
	<rect id="操作图标/缺陷" width="16.000000" height="16.000000" x="0.000000" y="0.000000" />
	<path id="形状结合" d="M8.28577 2C9.54813 2 10.5715 2.98497 10.5715 4.2L11.1429 4.2C11.7741 4.2 12.2857 4.69249 12.2857 5.3L12.2847 7.49916L11.1422 7.49916L11.1429 5.3L8.85636 5.29916L8.8572 9.7C8.8572 10.0038 8.60136 10.25 8.28577 10.25C7.99273 10.25 7.7512 10.0377 7.7182 9.76414L7.7138 5.29916L5.42866 5.3L5.42866 9.15C5.42866 10.6125 6.61483 11.8084 8.11173 11.895L8.28577 11.9C8.60136 11.9 8.8572 12.1462 8.8572 12.45C8.8572 12.7234 8.64997 12.9502 8.37846 12.9928C7.01194 12.9928 5.71278 12.3404 4.99124 11.334L4.85724 11.35L3.49611 11.35L3.08264 12.146C2.95159 12.3982 2.64627 12.5112 2.37732 12.4173C2.11522 12.2912 1.93652 11.9719 2.03409 11.7131L2.63187 10.554C2.71791 10.3884 2.88381 10.277 3.07162 10.2543L4.45155 10.2503C4.34372 9.90166 4.28582 9.53234 4.28582 9.15L2.57155 9.15C2.25596 9.15 2.00012 8.90376 2.00012 8.6C2.00012 8.31794 2.22072 8.08547 2.50491 8.0537L4.28582 8.05L4.28582 6.95L3.14297 6.95C3.01668 6.95 2.8947 6.90976 2.79553 6.83666L2.16749 6.23891C1.94434 6.02412 1.94434 5.67588 2.16749 5.46109C2.37348 5.26283 2.69761 5.24757 2.92177 5.41534L3.38011 5.85L4.28582 5.85L4.28582 5.3C4.28582 4.69249 4.79748 4.2 5.42866 4.2L6.00008 4.2C6.00008 2.98497 7.02342 2 8.28577 2ZM13.4286 11.9C13.7442 11.9 14 12.1462 14 12.45C14 12.7321 13.7794 12.9645 13.4952 12.9963L10.5715 13C10.2559 13 10 12.7538 10 12.45C10 12.1679 10.2206 11.9355 10.5048 11.9037L13.4286 11.9ZM13.4286 10.25C13.7442 10.25 14 10.4962 14 10.8C14 11.0821 13.7794 11.3145 13.4952 11.3463L10.5715 11.35C10.2559 11.35 10 11.1038 10 10.8C10 10.5179 10.2206 10.2855 10.5048 10.2537L13.4286 10.25ZM13.4286 8.6C13.7442 8.6 14 8.84624 14 9.15C14 9.43206 13.7794 9.66453 13.4952 9.6963L10.5715 9.7C10.2559 9.7 10 9.45376 10 9.15C10 8.86794 10.2206 8.63547 10.5048 8.6037L13.4286 8.6ZM8.28577 3.1C7.68329 3.1 7.18969 3.54873 7.14606 4.11791L9.42862 4.2C9.42862 3.6201 8.87712 3.14199 8.28577 3.1Z" fill="rgb(25,25,25)" fill-rule="evenodd" />
	<path id="形状结合" d="M10.5715 4.2L11.1429 4.2C11.7741 4.2 12.2857 4.69249 12.2857 5.3L12.2847 7.49916L11.1422 7.49916L11.1429 5.3L8.85636 5.29916L8.8572 9.7C8.8572 10.0038 8.60136 10.25 8.28577 10.25C7.99273 10.25 7.7512 10.0377 7.7182 9.76414L7.7138 5.29916L5.42866 5.3L5.42866 9.15C5.42866 10.6125 6.61483 11.8084 8.11173 11.895L8.28577 11.9C8.60136 11.9 8.8572 12.1462 8.8572 12.45C8.8572 12.7234 8.64997 12.9502 8.37846 12.9928C7.01194 12.9928 5.71278 12.3404 4.99124 11.334L4.85724 11.35L3.49611 11.35L3.08264 12.146C2.95159 12.3982 2.64627 12.5112 2.37732 12.4173C2.11522 12.2912 1.93652 11.9719 2.03409 11.7131L2.63187 10.554C2.71791 10.3884 2.88381 10.277 3.07162 10.2543L4.45155 10.2503C4.34372 9.90166 4.28582 9.53234 4.28582 9.15L2.57155 9.15C2.25596 9.15 2.00012 8.90376 2.00012 8.6C2.00012 8.31794 2.22072 8.08547 2.50491 8.0537L4.28582 8.05L4.28582 6.95L3.14297 6.95C3.01668 6.95 2.8947 6.90976 2.79553 6.83666L2.16749 6.23891C1.94434 6.02412 1.94434 5.67588 2.16749 5.46109C2.37348 5.26283 2.69761 5.24757 2.92177 5.41534L3.38011 5.85L4.28582 5.85L4.28582 5.3C4.28582 4.69249 4.79748 4.2 5.42866 4.2L6.00008 4.2C6.00008 2.98497 7.02342 2 8.28577 2C9.54813 2 10.5715 2.98497 10.5715 4.2ZM14 12.45C14 12.7321 13.7794 12.9645 13.4952 12.9963L10.5715 13C10.2559 13 10 12.7538 10 12.45C10 12.1679 10.2206 11.9355 10.5048 11.9037L13.4286 11.9C13.7442 11.9 14 12.1462 14 12.45ZM14 10.8C14 11.0821 13.7794 11.3145 13.4952 11.3463L10.5715 11.35C10.2559 11.35 10 11.1038 10 10.8C10 10.5179 10.2206 10.2855 10.5048 10.2537L13.4286 10.25C13.7442 10.25 14 10.4962 14 10.8ZM14 9.15C14 9.43206 13.7794 9.66453 13.4952 9.6963L10.5715 9.7C10.2559 9.7 10 9.45376 10 9.15C10 8.86794 10.2206 8.63547 10.5048 8.6037L13.4286 8.6C13.7442 8.6 14 8.84624 14 9.15ZM7.14606 4.11791L9.42862 4.2C9.42862 3.6201 8.87712 3.14199 8.28577 3.1C7.68329 3.1 7.18969 3.54873 7.14606 4.11791Z" fill-rule="evenodd" stroke="rgb(0,0,0)" stroke-opacity="0" stroke-width="1" />
</svg>
