<svg viewBox="0 0 16 16" xmlns="http://www.w3.org/2000/svg" xmlns:xlink="http://www.w3.org/1999/xlink" width="16.000000" height="16.000000" fill="none">
	<rect id="操作图标/自适应" width="16.000000" height="16.000000" x="0.000000" y="0.000000" />
	<path id="形状结合" d="M13 2C14.1046 2 15 2.89543 15 4L15.0011 5.26819C15.6038 5.6127 16 6.25601 16 7L16 13C16 14.1046 15.1046 15 14 15L10 15C9.25601 15 8.60691 14.5938 8.2624 13.991L4.5 14C4.22386 14 4 13.7761 4 13.5C4 13.2239 4.22386 13 4.5 13L8 13L8 12L3 12C1.89543 12 1 11.1046 1 10L1 4C1 2.89543 1.89543 2 3 2L13 2ZM14 6L10 6C9.48716 6 9.06449 6.38604 9.00673 6.88338L9 7L9 13C9 13.5128 9.38604 13.9355 9.88338 13.9933L10 14L14 14C14.5128 14 14.9355 13.614 14.9933 13.1166L15 13L15 7C15 6.48716 14.614 6.06449 14.1166 6.00673L14 6ZM13.5 12C13.7761 12 14 12.2239 14 12.5C14 12.7761 13.7761 13 13.5 13L10.5 13C10.2239 13 10 12.7761 10 12.5C10 12.2239 10.2239 12 10.5 12L13.5 12ZM13 3L3 3C2.48716 3 2.06449 3.38604 2.00673 3.88338L2 4L2 10C2 10.5128 2.38604 10.9355 2.88338 10.9933L3 11L8 11L8 7C8 5.89543 8.89543 5 10 5L14 5L14 4C14 3.48716 13.614 3.06449 13.1166 3.00673L13 3Z" fill="rgb(25,25,25)" fill-rule="nonzero" />
	<path id="形状结合" d="M15 4L15.0011 5.26819C15.6038 5.6127 16 6.25601 16 7L16 13C16 14.1046 15.1046 15 14 15L10 15C9.25601 15 8.60691 14.5938 8.2624 13.991L4.5 14C4.22386 14 4 13.7761 4 13.5C4 13.2239 4.22386 13 4.5 13L8 13L8 12L3 12C1.89543 12 1 11.1046 1 10L1 4C1 2.89543 1.89543 2 3 2L13 2C14.1046 2 15 2.89543 15 4ZM10 6C9.48716 6 9.06449 6.38604 9.00673 6.88338L9 7L9 13C9 13.5128 9.38604 13.9355 9.88338 13.9933L10 14L14 14C14.5128 14 14.9355 13.614 14.9933 13.1166L15 13L15 7C15 6.48716 14.614 6.06449 14.1166 6.00673L14 6L10 6ZM14 12.5C14 12.7761 13.7761 13 13.5 13L10.5 13C10.2239 13 10 12.7761 10 12.5C10 12.2239 10.2239 12 10.5 12L13.5 12C13.7761 12 14 12.2239 14 12.5ZM3 3C2.48716 3 2.06449 3.38604 2.00673 3.88338L2 4L2 10C2 10.5128 2.38604 10.9355 2.88338 10.9933L3 11L8 11L8 7C8 5.89543 8.89543 5 10 5L14 5L14 4C14 3.48716 13.614 3.06449 13.1166 3.00673L13 3L3 3Z" fill-rule="nonzero" stroke="rgb(0,0,0)" stroke-opacity="0" stroke-width="1" />
</svg>
