<svg viewBox="0 0 16 16" xmlns="http://www.w3.org/2000/svg" xmlns:xlink="http://www.w3.org/1999/xlink" width="16.000000" height="16.000000" fill="none" customFrame="#000000">
	<rect id="操作图标/菜单" width="16.000000" height="16.000000" x="0.000000" y="0.000000" fill="rgb(255,255,255)" fill-opacity="0" />
	<path id="形状结合" d="M2.2998 2.5C2.02366 2.5 1.7998 2.72386 1.7998 3C1.7998 3.27614 2.02366 3.5 2.2998 3.5C2.57595 3.5 2.7998 3.27614 2.7998 3C2.7998 2.72386 2.57595 2.5 2.2998 2.5ZM4.2998 3C4.2998 3.28 4.5198 3.5 4.7998 3.5L13.7998 3.5C14.0798 3.5 14.2998 3.28 14.2998 3C14.2998 2.72 14.0798 2.5 13.7998 2.5L4.7998 2.5C4.5198 2.5 4.2998 2.72 4.2998 3ZM1.7998 8C1.7998 7.72386 2.02366 7.5 2.2998 7.5C2.57595 7.5 2.7998 7.72386 2.7998 8C2.7998 8.27614 2.57595 8.5 2.2998 8.5C2.02366 8.5 1.7998 8.27614 1.7998 8ZM4.7998 8.5L13.7998 8.5C14.0798 8.5 14.2998 8.28 14.2998 8C14.2998 7.72 14.0798 7.5 13.7998 7.5L4.7998 7.5C4.5198 7.5 4.2998 7.72 4.2998 8C4.2998 8.28 4.5198 8.5 4.7998 8.5ZM2.2998 12.5C2.02366 12.5 1.7998 12.7239 1.7998 13C1.7998 13.2761 2.02366 13.5 2.2998 13.5C2.57595 13.5 2.7998 13.2761 2.7998 13C2.7998 12.7239 2.57595 12.5 2.2998 12.5ZM13.7998 12.5L4.7998 12.5C4.5198 12.5 4.2998 12.72 4.2998 13C4.2998 13.28 4.5198 13.5 4.7998 13.5L13.7998 13.5C14.0798 13.5 14.2998 13.28 14.2998 13C14.2998 12.72 14.0798 12.5 13.7998 12.5Z" fill="rgb(25,25,25)" fill-rule="evenodd" />
</svg>
