<svg viewBox="0 0 16 16" xmlns="http://www.w3.org/2000/svg" xmlns:xlink="http://www.w3.org/1999/xlink" width="16.000000" height="16.000000" fill="none">
	<rect id="操作图标/菜单2" width="16.000000" height="16.000000" x="0.000000" y="0.000000" />
	<path id="形状结合" d="M6 2C6.55228 2 7 2.44772 7 3L7 6C7 6.55228 6.55228 7 6 7L3 7C2.44772 7 2 6.55228 2 6L2 3C2 2.44772 2.44772 2 3 2L6 2ZM14 3C14 2.44772 13.5523 2 13 2L10 2C9.44772 2 9 2.44772 9 3L9 6C9 6.55228 9.44772 7 10 7L13 7C13.5523 7 14 6.55228 14 6L14 3ZM6 3L6 6L3 6L3 3L6 3ZM13 6L13 3L10 3L10 6L13 6ZM7 10C7 9.44772 6.55228 9 6 9L3 9C2.44772 9 2 9.44772 2 10L2 13C2 13.5523 2.44772 14 3 14L6 14C6.55228 14 7 13.5523 7 13L7 10ZM13 9C13.5523 9 14 9.44772 14 10L14 13C14 13.5523 13.5523 14 13 14L10 14C9.44772 14 9 13.5523 9 13L9 10C9 9.44772 9.44772 9 10 9L13 9ZM6 13L6 10L3 10L3 13L6 13ZM13 10L13 13L10 13L10 10L13 10Z" fill="rgb(25,25,25)" fill-rule="evenodd" />
</svg>
