<svg viewBox="0 0 16 16" xmlns="http://www.w3.org/2000/svg" xmlns:xlink="http://www.w3.org/1999/xlink" width="16.000000" height="16.000000" fill="none">
	<rect id="操作图标/菜单布局" width="16.000000" height="16.000000" x="0.000000" y="0.000000" />
	<path id="形状结合" d="M3 15C1.89543 15 1 14.1046 1 13L1 3C1 1.89543 1.89543 1 3 1L13 1C14.1046 1 15 1.89543 15 3L15 5L15 13C15 14.1046 14.1046 15 13 15L3 15ZM7 2L3 2C2.44772 2 2 2.44772 2 3L2 13C2 13.5523 2.44772 14 3 14L7 14L7 2ZM8 14L13 14C13.5523 14 14 13.5523 14 13L13.999 5L8 5L8 14ZM13 2L8 2L8 4L13.999 4L14 3C14 2.44772 13.5523 2 13 2Z" fill="rgb(25,25,25)" fill-rule="evenodd" />
	<path id="形状结合" d="M1 13L1 3C1 1.89543 1.89543 1 3 1L13 1C14.1046 1 15 1.89543 15 3L15 5L15 13C15 14.1046 14.1046 15 13 15L3 15C1.89543 15 1 14.1046 1 13ZM3 2C2.44772 2 2 2.44772 2 3L2 13C2 13.5523 2.44772 14 3 14L7 14L7 2L3 2ZM13 14C13.5523 14 14 13.5523 14 13L13.999 5L8 5L8 14L13 14ZM8 2L8 4L13.999 4L14 3C14 2.44772 13.5523 2 13 2L8 2Z" fill-rule="evenodd" stroke="rgb(0,0,0)" stroke-opacity="0" stroke-width="1" />
</svg>
