<svg viewBox="0 0 16 16" xmlns="http://www.w3.org/2000/svg" xmlns:xlink="http://www.w3.org/1999/xlink" width="16.000000" height="16.000000" fill="none">
	<rect id="操作图标/表格设置" width="16.000000" height="16.000000" x="0.000000" y="0.000000" />
	<path id="形状结合" d="M12.25 7.28868L14.4976 8.58632C14.807 8.76496 14.9976 9.09509 14.9976 9.45235L14.9976 12.0476C14.9976 12.4049 14.807 12.735 14.4976 12.9137L12.25 14.2113C11.9406 14.39 11.5594 14.39 11.25 14.2113L9.00241 12.9137C8.693 12.735 8.50241 12.4049 8.50241 12.0476L8.50241 9.45235C8.50241 9.09509 8.693 8.76496 9.00241 8.58632L11.25 7.28868C11.5594 7.11004 11.9406 7.11004 12.25 7.28868ZM13 2C13.5523 2 14 2.44772 14 3L14 7C14 7.27614 13.7761 7.5 13.5 7.5C13.2545 7.5 13.0504 7.32312 13.0081 7.08988L13 6.5L7 6.5L7 13L8 13C8.27614 13 8.5 13.2239 8.5 13.5C8.5 13.7455 8.32312 13.9496 8.08988 13.9919L3 14C2.44772 14 2 13.5523 2 13L2 3C2 2.44772 2.44772 2 3 2L13 2ZM11.75 8.1547L9.50241 9.45235L9.50241 12.0476L11.75 13.3453L13.9976 12.0476L13.9976 9.45235L11.75 8.1547ZM5.999 11.5L3 11.5L3 13L6 13L5.999 11.5ZM11.75 9.75C12.3023 9.75 12.75 10.1977 12.75 10.75C12.75 11.3023 12.3023 11.75 11.75 11.75C11.1977 11.75 10.75 11.3023 10.75 10.75C10.75 10.1977 11.1977 9.75 11.75 9.75ZM6 9L3 9L3 10.5L5.999 10.5L6 9ZM6 6.5L3 6.5L3 8L6 8L6 6.5ZM13 3L3 3L3 5.5L13 5.5L13 3Z" fill="rgb(25,25,25)" fill-rule="evenodd" />
	<path id="形状结合" d="M14.4976 8.58632C14.807 8.76496 14.9976 9.09509 14.9976 9.45235L14.9976 12.0476C14.9976 12.4049 14.807 12.735 14.4976 12.9137L12.25 14.2113C11.9406 14.39 11.5594 14.39 11.25 14.2113L9.00241 12.9137C8.693 12.735 8.50241 12.4049 8.50241 12.0476L8.50241 9.45235C8.50241 9.09509 8.693 8.76496 9.00241 8.58632L11.25 7.28868C11.5594 7.11004 11.9406 7.11004 12.25 7.28868L14.4976 8.58632ZM14 3L14 7C14 7.27614 13.7761 7.5 13.5 7.5C13.2545 7.5 13.0504 7.32312 13.0081 7.08988L13 6.5L7 6.5L7 13L8 13C8.27614 13 8.5 13.2239 8.5 13.5C8.5 13.7455 8.32312 13.9496 8.08988 13.9919L3 14C2.44772 14 2 13.5523 2 13L2 3C2 2.44772 2.44772 2 3 2L13 2C13.5523 2 14 2.44772 14 3ZM9.50241 9.45235L9.50241 12.0476L11.75 13.3453L13.9976 12.0476L13.9976 9.45235L11.75 8.1547L9.50241 9.45235ZM3 11.5L3 13L6 13L5.999 11.5L3 11.5ZM12.75 10.75C12.75 11.3023 12.3023 11.75 11.75 11.75C11.1977 11.75 10.75 11.3023 10.75 10.75C10.75 10.1977 11.1977 9.75 11.75 9.75C12.3023 9.75 12.75 10.1977 12.75 10.75ZM3 9L3 10.5L5.999 10.5L6 9L3 9ZM3 6.5L3 8L6 8L6 6.5L3 6.5ZM3 3L3 5.5L13 5.5L13 3L3 3Z" fill-rule="evenodd" stroke="rgb(0,0,0)" stroke-opacity="0" stroke-width="1" />
</svg>
