<svg viewBox="0 0 16 16" xmlns="http://www.w3.org/2000/svg" xmlns:xlink="http://www.w3.org/1999/xlink" width="16.000000" height="16.000000" fill="none">
	<rect id="操作图标/解绑" width="16.000000" height="16.000000" x="0.000000" y="0.000000" />
	<path id="形状结合" d="M10.5 12C10.7455 12 10.9496 12.1769 10.9919 12.4101L11 14.5C11 14.7761 10.7761 15 10.5 15C10.2545 15 10.0504 14.8231 10.0081 14.5899L10 12.5C10 12.2239 10.2239 12 10.5 12ZM11.7843 11.0886L13.8536 13.1464C14.0488 13.3417 14.0488 13.6583 13.8536 13.8536C13.68 14.0271 13.4106 14.0464 13.2157 13.9114L11.1464 11.8536C10.9512 11.6583 10.9512 11.3417 11.1464 11.1464C11.32 10.9729 11.5894 10.9536 11.7843 11.0886ZM5.52513 6.93934C5.69869 7.11291 5.71798 7.38233 5.58298 7.5772L3.75736 9.41421C2.97631 10.1953 2.97631 11.4616 3.75736 12.2426C4.50291 12.9882 5.69062 13.0221 6.47636 12.3443L6.58579 12.2426L8.35355 10.4749C8.54882 10.2796 8.8654 10.2796 9.06066 10.4749C9.23423 10.6484 9.25351 10.9179 9.11852 11.1127L7.29289 12.9497C6.12132 14.1213 4.22183 14.1213 3.05025 12.9497C1.92052 11.82 1.88017 10.0134 2.92921 8.83535L3.05025 8.70711L4.81802 6.93934C5.01328 6.74408 5.32986 6.74408 5.52513 6.93934ZM14.5 10C14.7761 10 15 10.2239 15 10.5C15 10.7455 14.8231 10.9496 14.5899 10.9919L12.5 11C12.2239 11 12 10.7761 12 10.5C12 10.2545 12.1769 10.0504 12.4101 10.0081L14.5 10ZM12.9497 3.05025C14.0795 4.17998 14.1198 5.98657 13.0708 7.16465L12.9497 7.29289L11.182 9.06066C10.9867 9.25592 10.6701 9.25592 10.4749 9.06066C10.3013 8.88709 10.282 8.61767 10.417 8.4228L12.2426 6.58579C13.0237 5.80474 13.0237 4.53841 12.2426 3.75736C11.4971 3.01181 10.3094 2.97792 9.52364 3.65569L9.41421 3.75736L7.64645 5.52513C7.45118 5.72039 7.1346 5.72039 6.93934 5.52513C6.76577 5.35156 6.74649 5.08214 6.88148 4.88727L8.70711 3.05025C9.87868 1.87868 11.7782 1.87868 12.9497 3.05025ZM3.5 5C3.77614 5 4 5.22386 4 5.5C4 5.74546 3.82312 5.94961 3.58988 5.99194L1.5 6C1.22386 6 1 5.77614 1 5.5C1 5.25454 1.17688 5.05039 1.41012 5.00806L3.5 5ZM2.78431 2.08859L4.85355 4.14645C5.04882 4.34171 5.04882 4.65829 4.85355 4.85355C4.67999 5.02712 4.41056 5.0464 4.21569 4.91141L2.14645 2.85355C1.95118 2.65829 1.95118 2.34171 2.14645 2.14645C2.32001 1.97288 2.58944 1.9536 2.78431 2.08859ZM5.5 1C5.74546 1 5.94961 1.17688 5.99194 1.41012L6 3.5C6 3.77614 5.77614 4 5.5 4C5.25454 4 5.05039 3.82312 5.00806 3.58988L5 1.5C5 1.22386 5.22386 1 5.5 1Z" fill="rgb(25,25,25)" fill-rule="nonzero" />
	<path id="形状结合" d="M10.9919 12.4101L11 14.5C11 14.7761 10.7761 15 10.5 15C10.2545 15 10.0504 14.8231 10.0081 14.5899L10 12.5C10 12.2239 10.2239 12 10.5 12C10.7455 12 10.9496 12.1769 10.9919 12.4101ZM13.8536 13.1464C14.0488 13.3417 14.0488 13.6583 13.8536 13.8536C13.68 14.0271 13.4106 14.0464 13.2157 13.9114L11.1464 11.8536C10.9512 11.6583 10.9512 11.3417 11.1464 11.1464C11.32 10.9729 11.5894 10.9536 11.7843 11.0886L13.8536 13.1464ZM5.58298 7.5772L3.75736 9.41421C2.97631 10.1953 2.97631 11.4616 3.75736 12.2426C4.50291 12.9882 5.69062 13.0221 6.47636 12.3443L6.58579 12.2426L8.35355 10.4749C8.54882 10.2796 8.8654 10.2796 9.06066 10.4749C9.23423 10.6484 9.25351 10.9179 9.11852 11.1127L7.29289 12.9497C6.12132 14.1213 4.22183 14.1213 3.05025 12.9497C1.92052 11.82 1.88017 10.0134 2.92921 8.83535L3.05025 8.70711L4.81802 6.93934C5.01328 6.74408 5.32986 6.74408 5.52513 6.93934C5.69869 7.11291 5.71798 7.38233 5.58298 7.5772ZM15 10.5C15 10.7455 14.8231 10.9496 14.5899 10.9919L12.5 11C12.2239 11 12 10.7761 12 10.5C12 10.2545 12.1769 10.0504 12.4101 10.0081L14.5 10C14.7761 10 15 10.2239 15 10.5ZM13.0708 7.16465L12.9497 7.29289L11.182 9.06066C10.9867 9.25592 10.6701 9.25592 10.4749 9.06066C10.3013 8.88709 10.282 8.61767 10.417 8.4228L12.2426 6.58579C13.0237 5.80474 13.0237 4.53841 12.2426 3.75736C11.4971 3.01181 10.3094 2.97792 9.52364 3.65569L9.41421 3.75736L7.64645 5.52513C7.45118 5.72039 7.1346 5.72039 6.93934 5.52513C6.76577 5.35156 6.74649 5.08214 6.88148 4.88727L8.70711 3.05025C9.87868 1.87868 11.7782 1.87868 12.9497 3.05025C14.0795 4.17998 14.1198 5.98657 13.0708 7.16465ZM4 5.5C4 5.74546 3.82312 5.94961 3.58988 5.99194L1.5 6C1.22386 6 1 5.77614 1 5.5C1 5.25454 1.17688 5.05039 1.41012 5.00806L3.5 5C3.77614 5 4 5.22386 4 5.5ZM4.85355 4.14645C5.04882 4.34171 5.04882 4.65829 4.85355 4.85355C4.67999 5.02712 4.41056 5.0464 4.21569 4.91141L2.14645 2.85355C1.95118 2.65829 1.95118 2.34171 2.14645 2.14645C2.32001 1.97288 2.58944 1.9536 2.78431 2.08859L4.85355 4.14645ZM5.99194 1.41012L6 3.5C6 3.77614 5.77614 4 5.5 4C5.25454 4 5.05039 3.82312 5.00806 3.58988L5 1.5C5 1.22386 5.22386 1 5.5 1C5.74546 1 5.94961 1.17688 5.99194 1.41012Z" fill-rule="nonzero" stroke="rgb(0,0,0)" stroke-opacity="0" stroke-width="1" />
</svg>
