<svg viewBox="0 0 16 16" xmlns="http://www.w3.org/2000/svg" xmlns:xlink="http://www.w3.org/1999/xlink" width="16.000000" height="16.000000" fill="none">
	<rect id="操作图标/讨论" width="16.000000" height="16.000000" x="0.000000" y="0.000000" />
	<path id="形状结合" d="M8.74338 5.0649C9.55118 5.0649 10.2145 5.68337 10.2857 6.47262L10.2921 6.61358L10.2921 10.7434C10.2921 11.5512 9.6736 12.2145 8.88435 12.2857L8.74338 12.2921L4.61306 12.2921L2.54868 13.8407L2.54868 12.2921C1.74088 12.2921 1.07754 11.6736 1.00633 10.8843L1 10.7434L1 6.61358C1 5.80579 1.61847 5.14244 2.40772 5.07123L2.54868 5.0649L8.74338 5.0649ZM8.74338 6.09735L2.54868 6.09735C2.29525 6.09735 2.08448 6.27997 2.04077 6.52079L2.03245 10.7434C2.03245 10.9968 2.21507 11.2076 2.45588 11.2513L3.58113 11.2596L3.58113 11.7753L4.26962 11.2596L8.74338 11.2596C8.99681 11.2596 9.20758 11.077 9.25129 10.8362L9.25961 6.61358C9.25961 6.32848 9.02849 6.09735 8.74338 6.09735ZM12.8732 3C13.681 3 14.3443 3.61847 14.4155 4.40772L14.4219 4.54868L14.4219 8.67848C14.4219 9.48627 13.8034 10.1496 13.0142 10.2208L12.8732 10.2272L12.8732 11.7758L10.8083 10.2272L10.8078 9.194L11.1522 9.19471L11.8407 9.71093L11.8407 9.19471L12.8732 9.19471C13.1266 9.19471 13.3374 9.01209 13.3811 8.77127L13.3894 4.54868C13.3894 4.29525 13.2068 4.08448 12.966 4.04077L6.67848 4.03245C6.42506 4.03245 6.21428 4.21507 6.17057 4.45588L5.12981 4.54868C5.12981 3.74088 5.74827 3.07754 6.53752 3.00633L6.67848 3L12.8732 3ZM3.58113 8.16226C3.86623 8.16226 4.09735 8.39338 4.09735 8.67848C4.09735 8.96358 3.86623 9.19471 3.58113 9.19471C3.29602 9.19471 3.0649 8.96358 3.0649 8.67848C3.0649 8.39338 3.29602 8.16226 3.58113 8.16226ZM5.64603 8.16226C5.93113 8.16226 6.16226 8.39338 6.16226 8.67848C6.16226 8.96358 5.93113 9.19471 5.64603 9.19471C5.36093 9.19471 5.12981 8.96358 5.12981 8.67848C5.12981 8.39338 5.36093 8.16226 5.64603 8.16226ZM7.71093 8.16226C7.99604 8.16226 8.22716 8.39338 8.22716 8.67848C8.22716 8.96358 7.99604 9.19471 7.71093 9.19471C7.42583 9.19471 7.19471 8.96358 7.19471 8.67848C7.19471 8.39338 7.42583 8.16226 7.71093 8.16226Z" fill="rgb(25,25,25)" fill-rule="evenodd" />
	<path id="形状结合" d="M10.2857 6.47262L10.2921 6.61358L10.2921 10.7434C10.2921 11.5512 9.6736 12.2145 8.88435 12.2857L8.74338 12.2921L4.61306 12.2921L2.54868 13.8407L2.54868 12.2921C1.74088 12.2921 1.07754 11.6736 1.00633 10.8843L1 10.7434L1 6.61358C1 5.80579 1.61847 5.14244 2.40772 5.07123L2.54868 5.0649L8.74338 5.0649C9.55118 5.0649 10.2145 5.68337 10.2857 6.47262ZM2.54868 6.09735C2.29525 6.09735 2.08448 6.27997 2.04077 6.52079L2.03245 10.7434C2.03245 10.9968 2.21507 11.2076 2.45588 11.2513L3.58113 11.2596L3.58113 11.7753L4.26962 11.2596L8.74338 11.2596C8.99681 11.2596 9.20758 11.077 9.25129 10.8362L9.25961 6.61358C9.25961 6.32848 9.02849 6.09735 8.74338 6.09735L2.54868 6.09735ZM14.4155 4.40772L14.4219 4.54868L14.4219 8.67848C14.4219 9.48627 13.8034 10.1496 13.0142 10.2208L12.8732 10.2272L12.8732 11.7758L10.8083 10.2272L10.8078 9.194L11.1522 9.19471L11.8407 9.71093L11.8407 9.19471L12.8732 9.19471C13.1266 9.19471 13.3374 9.01209 13.3811 8.77127L13.3894 4.54868C13.3894 4.29525 13.2068 4.08448 12.966 4.04077L6.67848 4.03245C6.42506 4.03245 6.21428 4.21507 6.17057 4.45588L5.12981 4.54868C5.12981 3.74088 5.74827 3.07754 6.53752 3.00633L6.67848 3L12.8732 3C13.681 3 14.3443 3.61847 14.4155 4.40772ZM4.09735 8.67848C4.09735 8.96358 3.86623 9.19471 3.58113 9.19471C3.29602 9.19471 3.0649 8.96358 3.0649 8.67848C3.0649 8.39338 3.29602 8.16226 3.58113 8.16226C3.86623 8.16226 4.09735 8.39338 4.09735 8.67848ZM6.16226 8.67848C6.16226 8.96358 5.93113 9.19471 5.64603 9.19471C5.36093 9.19471 5.12981 8.96358 5.12981 8.67848C5.12981 8.39338 5.36093 8.16226 5.64603 8.16226C5.93113 8.16226 6.16226 8.39338 6.16226 8.67848ZM8.22716 8.67848C8.22716 8.96358 7.99604 9.19471 7.71093 9.19471C7.42583 9.19471 7.19471 8.96358 7.19471 8.67848C7.19471 8.39338 7.42583 8.16226 7.71093 8.16226C7.99604 8.16226 8.22716 8.39338 8.22716 8.67848Z" fill-rule="evenodd" stroke="rgb(0,0,0)" stroke-opacity="0" stroke-width="1" />
</svg>
