<svg viewBox="0 0 16 16" xmlns="http://www.w3.org/2000/svg" xmlns:xlink="http://www.w3.org/1999/xlink" width="16.000000" height="16.000000" fill="none">
	<rect id="操作图标/设置" width="16.000000" height="16.000000" x="0.000000" y="0.000000" />
	<path id="形状结合" d="M6.5 3C7.43191 3 8.21496 3.63738 8.43699 4.49998L13.5 4.5C13.7761 4.5 14 4.72386 14 5C14 5.27614 13.7761 5.5 13.5 5.5L8.43673 5.50102C8.21435 6.36312 7.43155 7 6.5 7C5.56845 7 4.78565 6.36312 4.56327 5.50102L2.5 5.5C2.22386 5.5 2 5.27614 2 5C2 4.72386 2.22386 4.5 2.5 4.5L4.56301 4.49998C4.78504 3.63738 5.56809 3 6.5 3ZM5.96391 4.15569C5.94036 4.17219 5.88016 4.21469 5.85799 4.23327C5.83951 4.25367 5.72271 4.3702 5.70598 4.39203L5.63386 4.49987C5.54894 4.64622 5.5 4.8174 5.5 5C5.5 5.18301 5.54916 5.35454 5.635 5.5021C5.65641 5.53901 5.67955 5.57344 5.70535 5.60716C5.71996 5.62228 5.80965 5.72377 5.82478 5.73763C5.83476 5.74474 5.93969 5.82849 5.94972 5.83511C5.96619 5.84449 6.03877 5.88771 6.05555 5.89605C6.07723 5.90406 6.19755 5.95374 6.22009 5.9603C6.2948 5.97807 6.42001 6 6.5 6C6.57999 6 6.65779 5.99061 6.73236 5.97286C6.75483 5.96632 6.82467 5.9464 6.84653 5.93833C6.86286 5.93021 6.97773 5.87892 6.99396 5.86969C7.01286 5.8562 7.11709 5.78728 7.1348 5.77271C7.14585 5.76126 7.24079 5.67193 7.25097 5.66036L7.34431 5.53609C7.42958 5.38951 7.5 5.18301 7.5 5C7.5 4.8174 7.45106 4.64622 7.36557 4.49889C7.34374 4.46115 7.32008 4.42597 7.29367 4.39156C7.272 4.36871 7.18177 4.26777 7.15827 4.2472C7.15104 4.24213 7.05838 4.17024 7.05081 4.16523C7.02516 4.15218 6.90036 4.08289 6.87309 4.07192C6.85777 4.06745 6.74874 4.03104 6.73275 4.02723C6.65779 4.00939 6.57999 4 6.5 4C6.42001 4 6.34221 4.00939 6.26764 4.02714C6.24546 4.03359 6.17533 4.0536 6.15347 4.06167C6.12623 4.07263 5.98993 4.14244 5.96391 4.15569ZM9.5 9C10.4319 9 11.215 9.63738 11.437 10.5L13.5 10.5C13.7761 10.5 14 10.7239 14 11C14 11.2761 13.7761 11.5 13.5 11.5L11.4367 11.501C11.2144 12.3631 10.4316 13 9.5 13C8.56845 13 7.78565 12.3631 7.56327 11.501L2.5 11.5C2.22386 11.5 2 11.2761 2 11C2 10.7239 2.22386 10.5 2.5 10.5L7.56301 10.5C7.78504 9.63738 8.56809 9 9.5 9ZM8.96391 10.1557C8.94036 10.1722 8.88016 10.2147 8.85799 10.2333C8.83951 10.2537 8.72271 10.3702 8.70598 10.392L8.63386 10.4999C8.54894 10.6462 8.5 10.8174 8.5 11C8.5 11.183 8.54916 11.3545 8.635 11.5021C8.65641 11.539 8.67955 11.5734 8.70535 11.6072C8.71996 11.6223 8.80965 11.7238 8.82478 11.7376C8.83476 11.7447 8.93969 11.8285 8.94972 11.8351C8.96619 11.8445 9.03877 11.8877 9.05555 11.896C9.07723 11.9041 9.19755 11.9537 9.22009 11.9603C9.2948 11.9781 9.42001 12 9.5 12C9.57999 12 9.65779 11.9906 9.73236 11.9729C9.75483 11.9663 9.82467 11.9464 9.84653 11.9383C9.86286 11.9302 9.97773 11.8789 9.99396 11.8697C10.0129 11.8562 10.1171 11.7873 10.1348 11.7727C10.1459 11.7613 10.2408 11.6719 10.251 11.6604L10.3443 11.5361C10.4296 11.3895 10.5 11.183 10.5 11C10.5 10.8174 10.4511 10.6462 10.3656 10.4989C10.3437 10.4612 10.3201 10.426 10.2937 10.3916C10.272 10.3687 10.1818 10.2678 10.1583 10.2472C10.151 10.2421 10.0584 10.1702 10.0508 10.1652C10.0252 10.1522 9.90036 10.0829 9.87309 10.0719C9.85777 10.0675 9.74874 10.031 9.73275 10.0272C9.65779 10.0094 9.57999 10 9.5 10C9.42001 10 9.34221 10.0094 9.26764 10.0271C9.24546 10.0336 9.17533 10.0536 9.15347 10.0617C9.12623 10.0726 8.98993 10.1424 8.96391 10.1557Z" fill="rgb(25,25,25)" fill-rule="evenodd" />
	<path id="形状结合" d="M8.43699 4.49998L13.5 4.5C13.7761 4.5 14 4.72386 14 5C14 5.27614 13.7761 5.5 13.5 5.5L8.43673 5.50102C8.21435 6.36312 7.43155 7 6.5 7C5.56845 7 4.78565 6.36312 4.56327 5.50102L2.5 5.5C2.22386 5.5 2 5.27614 2 5C2 4.72386 2.22386 4.5 2.5 4.5L4.56301 4.49998C4.78504 3.63738 5.56809 3 6.5 3C7.43191 3 8.21496 3.63738 8.43699 4.49998ZM5.85799 4.23327C5.83951 4.25367 5.72271 4.3702 5.70598 4.39203L5.63386 4.49987C5.54894 4.64622 5.5 4.8174 5.5 5C5.5 5.18301 5.54916 5.35454 5.635 5.5021C5.65641 5.53901 5.67955 5.57344 5.70535 5.60716C5.71996 5.62228 5.80965 5.72377 5.82478 5.73763C5.83476 5.74474 5.93969 5.82849 5.94972 5.83511C5.96619 5.84449 6.03877 5.88771 6.05555 5.89605C6.07723 5.90406 6.19755 5.95374 6.22009 5.9603C6.2948 5.97807 6.42001 6 6.5 6C6.57999 6 6.65779 5.99061 6.73236 5.97286C6.75483 5.96632 6.82467 5.9464 6.84653 5.93833C6.86286 5.93021 6.97773 5.87892 6.99396 5.86969C7.01286 5.8562 7.11709 5.78728 7.1348 5.77271C7.14585 5.76126 7.24079 5.67193 7.25097 5.66036L7.34431 5.53609C7.42958 5.38951 7.5 5.18301 7.5 5C7.5 4.8174 7.45106 4.64622 7.36557 4.49889C7.34374 4.46115 7.32008 4.42597 7.29367 4.39156C7.272 4.36871 7.18177 4.26777 7.15827 4.2472C7.15104 4.24213 7.05838 4.17024 7.05081 4.16523C7.02516 4.15218 6.90036 4.08289 6.87309 4.07192C6.85777 4.06745 6.74874 4.03104 6.73275 4.02723C6.65779 4.00939 6.57999 4 6.5 4C6.42001 4 6.34221 4.00939 6.26764 4.02714C6.24546 4.03359 6.17533 4.0536 6.15347 4.06167C6.12623 4.07263 5.98993 4.14244 5.96391 4.15569C5.94036 4.17219 5.88016 4.21469 5.85799 4.23327ZM11.437 10.5L13.5 10.5C13.7761 10.5 14 10.7239 14 11C14 11.2761 13.7761 11.5 13.5 11.5L11.4367 11.501C11.2144 12.3631 10.4316 13 9.5 13C8.56845 13 7.78565 12.3631 7.56327 11.501L2.5 11.5C2.22386 11.5 2 11.2761 2 11C2 10.7239 2.22386 10.5 2.5 10.5L7.56301 10.5C7.78504 9.63738 8.56809 9 9.5 9C10.4319 9 11.215 9.63738 11.437 10.5ZM8.85799 10.2333C8.83951 10.2537 8.72271 10.3702 8.70598 10.392L8.63386 10.4999C8.54894 10.6462 8.5 10.8174 8.5 11C8.5 11.183 8.54916 11.3545 8.635 11.5021C8.65641 11.539 8.67955 11.5734 8.70535 11.6072C8.71996 11.6223 8.80965 11.7238 8.82478 11.7376C8.83476 11.7447 8.93969 11.8285 8.94972 11.8351C8.96619 11.8445 9.03877 11.8877 9.05555 11.896C9.07723 11.9041 9.19755 11.9537 9.22009 11.9603C9.2948 11.9781 9.42001 12 9.5 12C9.57999 12 9.65779 11.9906 9.73236 11.9729C9.75483 11.9663 9.82467 11.9464 9.84653 11.9383C9.86286 11.9302 9.97773 11.8789 9.99396 11.8697C10.0129 11.8562 10.1171 11.7873 10.1348 11.7727C10.1459 11.7613 10.2408 11.6719 10.251 11.6604L10.3443 11.5361C10.4296 11.3895 10.5 11.183 10.5 11C10.5 10.8174 10.4511 10.6462 10.3656 10.4989C10.3437 10.4612 10.3201 10.426 10.2937 10.3916C10.272 10.3687 10.1818 10.2678 10.1583 10.2472C10.151 10.2421 10.0584 10.1702 10.0508 10.1652C10.0252 10.1522 9.90036 10.0829 9.87309 10.0719C9.85777 10.0675 9.74874 10.031 9.73275 10.0272C9.65779 10.0094 9.57999 10 9.5 10C9.42001 10 9.34221 10.0094 9.26764 10.0271C9.24546 10.0336 9.17533 10.0536 9.15347 10.0617C9.12623 10.0726 8.98993 10.1424 8.96391 10.1557C8.94036 10.1722 8.88016 10.2147 8.85799 10.2333Z" fill-rule="evenodd" stroke="rgb(0,0,0)" stroke-opacity="0" stroke-width="1" />
</svg>
