<svg viewBox="0 0 16 16" xmlns="http://www.w3.org/2000/svg" xmlns:xlink="http://www.w3.org/1999/xlink" width="16.000000" height="16.000000" fill="none">
	<rect id="操作图标/设置" width="16.000000" height="16.000000" x="0.000000" y="0.000000" />
	<path id="形状结合" d="M9.42284 0.779923C9.52959 0.562227 9.77714 0.452495 10.0101 0.519594C11.1721 0.854227 12.2348 1.47593 13.113 2.3255C13.2671 2.47456 13.309 2.70527 13.2172 2.899C13.1078 3.12988 13.05 3.38495 13.05 3.64981C13.05 4.5846 13.7709 5.33457 14.6463 5.33458C14.8681 5.33294 15.094 5.47745 15.1581 5.68983C15.3839 6.4376 15.5 7.22066 15.5 8.01933C15.5 8.54888 15.449 9.07192 15.3485 9.58285C15.2987 9.83629 15.064 10.0101 14.8071 9.9838C14.7552 9.9785 14.7029 9.97583 14.65 9.97583C13.7709 9.97583 13.05 10.7258 13.05 11.6606C13.05 12.068 13.1872 12.4511 13.4326 12.7537C13.5892 12.9468 13.5801 13.2256 13.4113 13.4082C12.5155 14.3765 11.3927 15.0923 10.1486 15.4777C9.88441 15.5595 9.60396 15.4113 9.52272 15.1469C9.31018 14.4552 8.69614 13.9812 8 13.9812C7.30386 13.9812 6.68982 14.4552 6.47728 15.1469C6.39604 15.4113 6.11559 15.5595 5.85139 15.4777C4.60731 15.0923 3.48446 14.3765 2.58871 13.4082C2.41987 13.2256 2.4108 12.9468 2.56742 12.7537C2.81281 12.4511 2.95 12.068 2.95 11.6606C2.95 10.7258 2.22913 9.97583 1.35 9.97583C1.29716 9.97583 1.24477 9.9785 1.19294 9.9838C0.93599 10.0101 0.701319 9.83629 0.651489 9.58285C0.551035 9.07193 0.5 8.54889 0.5 8.01933C0.5 7.22063 0.616106 6.43757 0.841868 5.68983C0.90599 5.47745 1.10239 5.33272 1.32423 5.33436L1.48741 5.32842C2.30302 5.25511 2.95 4.5354 2.95 3.64981C2.95 3.38495 2.8922 3.12988 2.78278 2.899C2.69097 2.70527 2.73288 2.47456 2.88697 2.3255C3.7652 1.47593 4.8279 0.854227 5.98986 0.519594C6.22286 0.452495 6.47041 0.562227 6.57716 0.779923C6.85089 1.33813 7.39683 1.69331 8 1.69331C8.60317 1.69331 9.14911 1.33813 9.42284 0.779923ZM10.094 1.5967C9.61018 2.21966 8.80638 2.69331 8 2.69331C7.19362 2.69331 6.45508 2.31119 5.97127 1.68823L5.67536 1.68336C5.09533 1.91525 4.55077 2.23319 4.05764 2.62637L3.823 2.8217C3.88157 3.01479 3.92744 3.2398 3.94247 3.44418L3.95 3.64981C3.95 4.95764 3.04261 6.05256 1.83349 6.28781L1.70844 6.30851C1.5706 6.86204 1.5 7.43551 1.5 8.01933C1.5 8.25169 1.51118 8.48248 1.53336 8.71111L1.566 8.9857L1.67703 8.99682C2.90845 9.15611 3.86715 10.2032 3.9449 11.4913L3.95 11.6606C3.95 12.0858 3.85367 12.4966 3.67415 12.8654L3.597 13.0077L3.76572 13.1654C4.30369 13.6478 4.91366 14.036 5.57185 14.3128L5.722 14.3717L5.81808 14.2048C6.255 13.5098 6.99023 13.0463 7.82067 12.9875L8 12.9812C8.96342 12.9812 9.82146 13.5261 10.2709 14.3572L10.4282 14.3128C11.0863 14.036 11.6963 13.6478 12.2343 13.1654L12.402 13.0077L12.3258 12.8653C12.1762 12.558 12.0844 12.2216 12.058 11.8719L12.05 11.6606C12.05 10.2959 13.038 9.16303 14.323 8.99682L14.433 8.9857L14.4666 8.71111C14.4777 8.59679 14.4861 8.48194 14.4916 8.36662L14.5 8.01933C14.5 7.55229 14.4548 7.09186 14.3662 6.64296L14.291 6.3077L14.1639 6.28782C13.0099 6.06279 12.1295 5.05122 12.0551 3.81913L12.05 3.64981C12.05 3.37413 12.0904 3.10388 12.1685 2.84642L11.9424 2.62637C11.4492 2.23319 10.9047 1.91525 10.3246 1.68336L10.094 1.5967ZM8 5.18436C9.56481 5.18436 10.8333 6.45289 10.8333 8.0177C10.8333 9.58251 9.56481 10.851 8 10.851C6.43519 10.851 5.16667 9.58251 5.16667 8.0177C5.16667 6.45289 6.43519 5.18436 8 5.18436ZM8 6.18436C6.98748 6.18436 6.16667 7.00517 6.16667 8.0177C6.16667 9.03022 6.98748 9.85103 8 9.85103C9.01252 9.85103 9.83333 9.03022 9.83333 8.0177C9.83333 7.00517 9.01252 6.18436 8 6.18436Z" fill="rgb(25,25,25)" fill-rule="evenodd" />
	<path id="形状结合" d="M10.0101 0.519594C11.1721 0.854227 12.2348 1.47593 13.113 2.3255C13.2671 2.47456 13.309 2.70527 13.2172 2.899C13.1078 3.12988 13.05 3.38495 13.05 3.64981C13.05 4.5846 13.7709 5.33457 14.6463 5.33458C14.8681 5.33294 15.094 5.47745 15.1581 5.68983C15.3839 6.4376 15.5 7.22066 15.5 8.01933C15.5 8.54888 15.449 9.07192 15.3485 9.58285C15.2987 9.83629 15.064 10.0101 14.8071 9.9838C14.7552 9.9785 14.7029 9.97583 14.65 9.97583C13.7709 9.97583 13.05 10.7258 13.05 11.6606C13.05 12.068 13.1872 12.4511 13.4326 12.7537C13.5892 12.9468 13.5801 13.2256 13.4113 13.4082C12.5155 14.3765 11.3927 15.0923 10.1486 15.4777C9.88441 15.5595 9.60396 15.4113 9.52272 15.1469C9.31018 14.4552 8.69614 13.9812 8 13.9812C7.30386 13.9812 6.68982 14.4552 6.47728 15.1469C6.39604 15.4113 6.11559 15.5595 5.85139 15.4777C4.60731 15.0923 3.48446 14.3765 2.58871 13.4082C2.41987 13.2256 2.4108 12.9468 2.56742 12.7537C2.81281 12.4511 2.95 12.068 2.95 11.6606C2.95 10.7258 2.22913 9.97583 1.35 9.97583C1.29716 9.97583 1.24477 9.9785 1.19294 9.9838C0.93599 10.0101 0.701319 9.83629 0.651489 9.58285C0.551035 9.07193 0.5 8.54889 0.5 8.01933C0.5 7.22063 0.616106 6.43757 0.841868 5.68983C0.90599 5.47745 1.10239 5.33272 1.32423 5.33436L1.48741 5.32842C2.30302 5.25511 2.95 4.5354 2.95 3.64981C2.95 3.38495 2.8922 3.12988 2.78278 2.899C2.69097 2.70527 2.73288 2.47456 2.88697 2.3255C3.7652 1.47593 4.8279 0.854227 5.98986 0.519594C6.22286 0.452495 6.47041 0.562227 6.57716 0.779923C6.85089 1.33813 7.39683 1.69331 8 1.69331C8.60317 1.69331 9.14911 1.33813 9.42284 0.779923C9.52959 0.562227 9.77714 0.452495 10.0101 0.519594ZM8 2.69331C7.19362 2.69331 6.45508 2.31119 5.97127 1.68823L5.67536 1.68336C5.09533 1.91525 4.55077 2.23319 4.05764 2.62637L3.823 2.8217C3.88157 3.01479 3.92744 3.2398 3.94247 3.44418L3.95 3.64981C3.95 4.95764 3.04261 6.05256 1.83349 6.28781L1.70844 6.30851C1.5706 6.86204 1.5 7.43551 1.5 8.01933C1.5 8.25169 1.51118 8.48248 1.53336 8.71111L1.566 8.9857L1.67703 8.99682C2.90845 9.15611 3.86715 10.2032 3.9449 11.4913L3.95 11.6606C3.95 12.0858 3.85367 12.4966 3.67415 12.8654L3.597 13.0077L3.76572 13.1654C4.30369 13.6478 4.91366 14.036 5.57185 14.3128L5.722 14.3717L5.81808 14.2048C6.255 13.5098 6.99023 13.0463 7.82067 12.9875L8 12.9812C8.96342 12.9812 9.82146 13.5261 10.2709 14.3572L10.4282 14.3128C11.0863 14.036 11.6963 13.6478 12.2343 13.1654L12.402 13.0077L12.3258 12.8653C12.1762 12.558 12.0844 12.2216 12.058 11.8719L12.05 11.6606C12.05 10.2959 13.038 9.16303 14.323 8.99682L14.433 8.9857L14.4666 8.71111C14.4777 8.59679 14.4861 8.48194 14.4916 8.36662L14.5 8.01933C14.5 7.55229 14.4548 7.09186 14.3662 6.64296L14.291 6.3077L14.1639 6.28782C13.0099 6.06279 12.1295 5.05122 12.0551 3.81913L12.05 3.64981C12.05 3.37413 12.0904 3.10388 12.1685 2.84642L11.9424 2.62637C11.4492 2.23319 10.9047 1.91525 10.3246 1.68336L10.094 1.5967C9.61018 2.21966 8.80638 2.69331 8 2.69331ZM10.8333 8.0177C10.8333 9.58251 9.56481 10.851 8 10.851C6.43519 10.851 5.16667 9.58251 5.16667 8.0177C5.16667 6.45289 6.43519 5.18436 8 5.18436C9.56481 5.18436 10.8333 6.45289 10.8333 8.0177ZM6.16667 8.0177C6.16667 9.03022 6.98748 9.85103 8 9.85103C9.01252 9.85103 9.83333 9.03022 9.83333 8.0177C9.83333 7.00517 9.01252 6.18436 8 6.18436C6.98748 6.18436 6.16667 7.00517 6.16667 8.0177Z" fill-rule="evenodd" stroke="rgb(0,0,0)" stroke-opacity="0" stroke-width="1" />
</svg>
