<svg viewBox="0 0 16 16" xmlns="http://www.w3.org/2000/svg" xmlns:xlink="http://www.w3.org/1999/xlink" width="16.000000" height="16.000000" fill="none">
	<rect id="操作图标/评分1" width="16.000000" height="16.000000" x="0.000000" y="0.000000" />
	<path id="形状结合" d="M6.86265 0.987691C6.99202 1.05154 7.10167 1.14808 7.18123 1.26697L8.20094 3.31771C8.21846 3.35322 8.23138 3.38981 8.23992 3.42679L8.76442 2.36011C8.96485 1.954 9.45654 1.78727 9.86265 1.98769C10.0244 2.0675 10.1553 2.1984 10.2351 2.36011L11.7407 5.41296L15.1119 5.90331C15.5256 5.96342 15.822 6.32259 15.8139 6.72999L15.8054 6.8327C15.7795 7.01116 15.6955 7.1761 15.5663 7.30198L13.1267 9.67796L13.7035 13.035C13.7742 13.447 13.5242 13.8399 13.1343 13.9581L13.034 13.9818C12.8562 14.0123 12.6734 13.9833 12.5138 13.8994L9.49875 12.314L6.48572 13.8994C6.11828 14.0926 5.67105 13.9792 5.43674 13.6502C5.35282 13.4906 5.26546 13.2127 5.29595 13.035L5.50527 11.8227L3.48572 12.8994C3.08487 13.1102 2.58908 12.956 2.37834 12.5552C2.3112 12.4275 2.27924 12.2849 2.28475 12.142L2.29595 12.035L2.87175 8.67796L0.433178 6.30198C0.135906 6.01221 0.105557 5.55183 0.34605 5.22732C0.446751 5.12401 0.644758 4.96466 0.782383 4.92573L0.887633 4.90331L4.25775 4.41296L5.76442 1.36011C5.96485 0.954003 6.45654 0.787265 6.86265 0.987691ZM9.49975 3.12896L8.03781 6.09194C7.96498 6.23951 7.8242 6.34179 7.66134 6.36546L4.39175 6.83996L6.75782 9.14622C6.85209 9.23812 6.90536 9.36242 6.90866 9.4915L6.34275 12.844L9.26708 11.3074C9.38361 11.2461 9.51828 11.2339 9.64207 11.2706L12.6557 12.844L12.0979 9.58879C12.0756 9.45903 12.1056 9.32716 12.1788 9.22079L14.6067 6.83996L11.3382 6.36546C11.2079 6.34653 11.0917 6.27728 11.0132 6.17478L9.49975 3.12896ZM6.49875 2.12896L5.03781 5.09194C4.97955 5.20999 4.87779 5.29907 4.75604 5.34209L1.39175 5.83996L3.75782 8.14622C3.85209 8.23812 3.90536 8.36242 3.90866 8.4915L3.34275 11.844L4.94485 11.0024C5.16211 10.8882 5.42512 10.9497 5.57114 11.1364L5.87175 9.67796L3.43318 7.30198C3.13591 7.01221 3.10556 6.55183 3.34605 6.22732C3.47193 6.09818 3.70917 5.92924 3.88763 5.90331L7.25775 5.41296L7.95755 3.99283C7.75813 4.04992 7.47467 4.00385 7.35115 3.83721L6.49875 2.12896Z" fill="rgb(25,25,25)" fill-rule="nonzero" />
</svg>
