<svg viewBox="0 0 16 16" xmlns="http://www.w3.org/2000/svg" xmlns:xlink="http://www.w3.org/1999/xlink" width="16.000000" height="16.000000" fill="none" customFrame="#000000">
	<rect id="操作图标/详情视图" width="16.000000" height="16.000000" x="0.000000" y="0.000000" fill="rgb(255,255,255)" fill-opacity="0" />
	<path id="形状结合" d="M14 2.5C14.5523 2.5 15 2.94772 15 3.5L15 12.5C15 13.0523 14.5523 13.5 14 13.5L11 13.5C10.4477 13.5 10 13.0523 10 12.5L10 3.5C10 2.94772 10.4477 2.5 11 2.5L14 2.5ZM1 3.5C1 3.78 1.22 4 1.5 4L8 4C8.28 4 8.5 3.78 8.5 3.5C8.5 3.22 8.28 3 8 3L1.5 3C1.22 3 1 3.22 1 3.5ZM14 3.5L14 12.5L11 12.5L11 3.5L14 3.5ZM1.5 7L8 7C8.28 7 8.5 6.78 8.5 6.5C8.5 6.22 8.28 6 8 6L1.5 6C1.22 6 1 6.22 1 6.5C1 6.78 1.22 7 1.5 7ZM8 9L1.5 9C1.22 9 1 9.22 1 9.5C1 9.78 1.22 10 1.5 10L8 10C8.28 10 8.5 9.78 8.5 9.5C8.5 9.22 8.28 9 8 9ZM1.5 12L8 12C8.28 12 8.5 12.22 8.5 12.5C8.5 12.78 8.28 13 8 13L1.5 13C1.22 13 1 12.78 1 12.5C1 12.22 1.22 12 1.5 12Z" fill="rgb(25,25,25)" fill-rule="evenodd" />
</svg>
