<svg viewBox="0 0 16 16" xmlns="http://www.w3.org/2000/svg" xmlns:xlink="http://www.w3.org/1999/xlink" width="16.000000" height="16.000000" fill="none">
	<rect id="操作图标/部署" width="16.000000" height="16.000000" x="0.000000" y="0.000000" />
	<path id="形状结合" d="M8.49614 0.28349L14.4961 3.71206C14.8077 3.8901 15 4.22145 15 4.58031L15 11.4197C15 11.7785 14.8077 12.1099 14.4961 12.2879L8.49614 15.7165C8.18871 15.8921 7.81129 15.8921 7.50386 15.7165L1.50386 12.2879C1.19229 12.1099 1 11.7785 1 11.4197L1 4.58031C1 4.22145 1.19229 3.8901 1.50386 3.71206L7.50386 0.28349C7.81129 0.107814 8.18871 0.107814 8.49614 0.28349ZM14 5.13255L8.5 8.2895L8.5 14.5625L14 11.4197L14 5.13255ZM7.5 14.5625L7.5 8.29014L2 5.07819L2 11.4197L7.5 14.5625ZM13.4755 4.28059L8 1.15173L2.57131 4.25384L7.99944 7.42379L13.4755 4.28059ZM3.68934 8.68727L5.57367 9.80754C5.84014 9.96596 6.00345 10.253 6.00345 10.5631C6.00345 10.7201 5.8761 10.8475 5.71902 10.8475C5.66786 10.8475 5.61764 10.8337 5.57367 10.8075L3.68934 9.68727C3.42287 9.52884 3.25956 9.24176 3.25956 8.93175C3.25956 8.77467 3.3869 8.64732 3.54399 8.64732C3.59515 8.64732 3.64537 8.66112 3.68934 8.68727Z" fill="rgb(25,25,25)" fill-rule="evenodd" />
	<path id="形状结合" d="M14.4961 3.71206C14.8077 3.8901 15 4.22145 15 4.58031L15 11.4197C15 11.7785 14.8077 12.1099 14.4961 12.2879L8.49614 15.7165C8.18871 15.8921 7.81129 15.8921 7.50386 15.7165L1.50386 12.2879C1.19229 12.1099 1 11.7785 1 11.4197L1 4.58031C1 4.22145 1.19229 3.8901 1.50386 3.71206L7.50386 0.28349C7.81129 0.107814 8.18871 0.107814 8.49614 0.28349L14.4961 3.71206ZM8.5 8.2895L8.5 14.5625L14 11.4197L14 5.13255L8.5 8.2895ZM7.5 8.29014L2 5.07819L2 11.4197L7.5 14.5625L7.5 8.29014ZM8 1.15173L2.57131 4.25384L7.99944 7.42379L13.4755 4.28059L8 1.15173ZM5.57367 9.80754C5.84014 9.96596 6.00345 10.253 6.00345 10.5631C6.00345 10.7201 5.8761 10.8475 5.71902 10.8475C5.66786 10.8475 5.61764 10.8337 5.57367 10.8075L3.68934 9.68727C3.42287 9.52884 3.25956 9.24176 3.25956 8.93175C3.25956 8.77467 3.3869 8.64732 3.54399 8.64732C3.59515 8.64732 3.64537 8.66112 3.68934 8.68727L5.57367 9.80754Z" fill-rule="evenodd" stroke="rgb(0,0,0)" stroke-opacity="0" stroke-width="1" />
</svg>
