<svg viewBox="0 0 16 16" xmlns="http://www.w3.org/2000/svg" xmlns:xlink="http://www.w3.org/1999/xlink" width="16.000000" height="16.000000" fill="none">
	<rect id="操作图标/问题" width="16.000000" height="16.000000" x="0.000000" y="0.000000" />
	<path id="形状结合" d="M7.5 3C7.77614 3 8 3.22386 8 3.5C8 3.77614 7.77614 4 7.5 4L4 4L4 13L12 13L12 8.5C12 8.22386 12.2239 8 12.5 8C12.7761 8 13 8.22386 13 8.5L13 13C13 13.5523 12.5523 14 12 14L4 14C3.44772 14 3 13.5523 3 13L3 4C3 3.44772 3.44772 3 4 3L7.5 3ZM10.5 11C10.7761 11 11 11.2239 11 11.5C11 11.7761 10.7761 12 10.5 12L5.5 12C5.22386 12 5 11.7761 5 11.5C5 11.2239 5.22386 11 5.5 11L10.5 11ZM7.5 9C7.77614 9 8 9.22386 8 9.5C8 9.77614 7.77614 10 7.5 10L5.5 10C5.22386 10 5 9.77614 5 9.5C5 9.22386 5.22386 9 5.5 9L7.5 9ZM13.3536 2.64645C13.5271 2.82001 13.5464 3.08944 13.4114 3.28431L8.35355 8.35355C8.15829 8.54882 7.84171 8.54882 7.64645 8.35355C7.47288 8.17999 7.4536 7.91056 7.58859 7.71569L12.6464 2.64645C12.8417 2.45118 13.1583 2.45118 13.3536 2.64645Z" fill="rgb(25,25,25)" fill-rule="evenodd" />
	<path id="形状结合" d="M4 4L4 13L12 13L12 8.5C12 8.22386 12.2239 8 12.5 8C12.7761 8 13 8.22386 13 8.5L13 13C13 13.5523 12.5523 14 12 14L4 14C3.44772 14 3 13.5523 3 13L3 4C3 3.44772 3.44772 3 4 3L7.5 3C7.77614 3 8 3.22386 8 3.5C8 3.77614 7.77614 4 7.5 4L4 4ZM5.5 12C5.22386 12 5 11.7761 5 11.5C5 11.2239 5.22386 11 5.5 11L10.5 11C10.7761 11 11 11.2239 11 11.5C11 11.7761 10.7761 12 10.5 12L5.5 12ZM5.5 10C5.22386 10 5 9.77614 5 9.5C5 9.22386 5.22386 9 5.5 9L7.5 9C7.77614 9 8 9.22386 8 9.5C8 9.77614 7.77614 10 7.5 10L5.5 10ZM13.4114 3.28431L8.35355 8.35355C8.15829 8.54882 7.84171 8.54882 7.64645 8.35355C7.47288 8.17999 7.4536 7.91056 7.58859 7.71569L12.6464 2.64645C12.8417 2.45118 13.1583 2.45118 13.3536 2.64645C13.5271 2.82001 13.5464 3.08944 13.4114 3.28431Z" fill-rule="evenodd" stroke="rgb(0,0,0)" stroke-opacity="0" stroke-width="1" />
</svg>
