<svg viewBox="0 0 16 16" xmlns="http://www.w3.org/2000/svg" xmlns:xlink="http://www.w3.org/1999/xlink" width="16.000000" height="16.000000" fill="none" customFrame="#000000">
	<rect id="操作图标/顺序" width="16.000000" height="16.000000" x="0.000000" y="0.000000" fill="rgb(255,255,255)" fill-opacity="0" />
	<path id="形状结合" d="M1.5 1L9 1C9.28 1 9.5 1.22 9.5 1.5C9.5 1.78 9.28 2 9 2L1.5 2C1.22 2 1 1.78 1 1.5C1 1.22 1.22 1 1.5 1ZM11.7422 1.5C11.7422 1.22 11.5222 1 11.2422 1C10.9622 1 10.7422 1.22 10.7422 1.5L10.7422 13.4667L10.0432 12.7678L8.42191 11.1464C8.22392 10.9485 7.91279 10.9485 7.7148 11.1464C7.51681 11.3444 7.51681 11.6556 7.7148 11.8536L9.33614 13.4749L10.2504 14.3891C10.3274 14.4661 10.4106 14.5334 10.5001 14.5909C10.5777 14.6408 10.6599 14.6833 10.7468 14.7186C10.8334 14.7537 10.9217 14.7804 11.0117 14.7987C11.1094 14.8185 11.2093 14.8285 11.311 14.8285C11.4128 14.8285 11.5126 14.8185 11.6103 14.7987C11.7003 14.7804 11.7887 14.7537 11.8752 14.7186C11.9622 14.6833 12.0444 14.6408 12.122 14.5909C12.2114 14.5334 12.2947 14.4661 12.3717 14.3891L14.9073 11.8536C15.1053 11.6556 15.1053 11.3444 14.9073 11.1464C14.7093 10.9485 14.3982 10.9485 14.2002 11.1464L11.7422 13.6044L11.7422 1.5ZM6 7L1.5 7C1.22 7 1 7.22 1 7.5C1 7.78 1.22 8 1.5 8L6 8C6.28 8 6.5 7.78 6.5 7.5C6.5 7.22 6.28 7 6 7ZM1.5 13L6 13C6.28 13 6.5 13.22 6.5 13.5C6.5 13.78 6.28 14 6 14L1.5 14C1.22 14 1 13.78 1 13.5C1 13.22 1.22 13 1.5 13Z" fill="rgb(25,25,25)" fill-rule="evenodd" />
</svg>
