<svg viewBox="0 0 24 24" xmlns="http://www.w3.org/2000/svg" xmlns:xlink="http://www.w3.org/1999/xlink" width="24.000000" height="24.000000" fill="none">
	<rect id="操作图标/24/添加图片" width="24.000000" height="24.000000" x="0.000000" y="0.000000" />
	<path id="形状结合" d="M18.75 15C19.1642 15 19.5 15.3358 19.5 15.75L19.5 18L21.75 18C22.1642 18 22.5 18.3358 22.5 18.75C22.5 19.1642 22.1642 19.5 21.75 19.5L19.5 19.5L19.5 21.75C19.5 22.1642 19.1642 22.5 18.75 22.5C18.3358 22.5 18 22.1642 18 21.75L18 19.5L15.75 19.5C15.3358 19.5 15 19.1642 15 18.75C15 18.3358 15.3358 18 15.75 18L18 18L18 15.75C18 15.3358 18.3358 15 18.75 15ZM22.4925 14.3475C22.4859 14.3671 22.4475 14.5271 22.4394 14.5458C22.4304 14.5595 22.3604 14.6861 22.35 14.7L22.1959 14.8531L22.0307 14.9456L21.8596 14.992L21.6525 14.9925L21.8596 14.992L21.6525 14.9925C21.6328 14.9859 21.4729 14.9475 21.4542 14.9394L21.3 14.85L15.864 10.773L11.2242 16.2356C11.0111 16.4865 10.6642 16.5652 10.369 16.4444L6.1515 13.74L2.99998 17.5215L3 18C3 18.7693 3.57906 19.4033 4.32507 19.4899L4.5 19.5L12.75 19.5C13.1642 19.5 13.5 19.8358 13.5 20.25C13.5 20.6182 13.2347 20.9244 12.8848 20.9879L4.5 21C2.91846 21 1.62275 19.7762 1.50823 18.2239L1.5 18L1.5 6C1.5 4.41846 2.72382 3.12275 4.27611 3.00823L4.5 3L19.5 3C21.0815 3 22.3772 4.22382 22.4918 5.77611L22.5 6L22.4925 14.3475ZM19.5 4.5L4.5 4.5C3.73075 4.5 3.09674 5.07906 3.01009 5.82507L3 6L2.99998 15.1755L5.42383 12.2699C5.63608 12.0152 5.98539 11.934 6.28273 12.0552L10.506 14.763L15.1784 9.26441C15.4031 8.99998 15.7739 8.92855 16.0756 9.07421L21 12.75L21 6C21 5.23075 20.4209 4.59674 19.6749 4.51009L19.5 4.5ZM9 7.5C9.82843 7.5 10.5 8.17157 10.5 9C10.5 9.82843 9.82843 10.5 9 10.5C8.17157 10.5 7.5 9.82843 7.5 9C7.5 8.17157 8.17157 7.5 9 7.5Z" fill="rgb(25,25,25)" fill-rule="nonzero" />
	<path id="形状结合" d="M19.5 15.75L19.5 18L21.75 18C22.1642 18 22.5 18.3358 22.5 18.75C22.5 19.1642 22.1642 19.5 21.75 19.5L19.5 19.5L19.5 21.75C19.5 22.1642 19.1642 22.5 18.75 22.5C18.3358 22.5 18 22.1642 18 21.75L18 19.5L15.75 19.5C15.3358 19.5 15 19.1642 15 18.75C15 18.3358 15.3358 18 15.75 18L18 18L18 15.75C18 15.3358 18.3358 15 18.75 15C19.1642 15 19.5 15.3358 19.5 15.75ZM22.4394 14.5458C22.4304 14.5595 22.3604 14.6861 22.35 14.7L22.1959 14.8531L22.0307 14.9456L21.8596 14.992L21.6525 14.9925C21.6328 14.9859 21.4729 14.9475 21.4542 14.9394L21.3 14.85L15.864 10.773L11.2242 16.2356C11.0111 16.4865 10.6642 16.5652 10.369 16.4444L6.1515 13.74L2.99998 17.5215L3 18C3 18.7693 3.57906 19.4033 4.32507 19.4899L4.5 19.5L12.75 19.5C13.1642 19.5 13.5 19.8358 13.5 20.25C13.5 20.6182 13.2347 20.9244 12.8848 20.9879L4.5 21C2.91846 21 1.62275 19.7762 1.50823 18.2239L1.5 18L1.5 6C1.5 4.41846 2.72382 3.12275 4.27611 3.00823L4.5 3L19.5 3C21.0815 3 22.3772 4.22382 22.4918 5.77611L22.5 6L22.4925 14.3475C22.4859 14.3671 22.4475 14.5271 22.4394 14.5458ZM4.5 4.5C3.73075 4.5 3.09674 5.07906 3.01009 5.82507L3 6L2.99998 15.1755L5.42383 12.2699C5.63608 12.0152 5.98539 11.934 6.28273 12.0552L10.506 14.763L15.1784 9.26441C15.4031 8.99998 15.7739 8.92855 16.0756 9.07421L21 12.75L21 6C21 5.23075 20.4209 4.59674 19.6749 4.51009L19.5 4.5L4.5 4.5ZM10.5 9C10.5 9.82843 9.82843 10.5 9 10.5C8.17157 10.5 7.5 9.82843 7.5 9C7.5 8.17157 8.17157 7.5 9 7.5C9.82843 7.5 10.5 8.17157 10.5 9Z" fill-rule="nonzero" stroke="rgb(0,0,0)" stroke-opacity="0" stroke-width="1" />
</svg>
