<svg viewBox="0 0 16 16" xmlns="http://www.w3.org/2000/svg" xmlns:xlink="http://www.w3.org/1999/xlink" width="16.000000" height="16.000000" fill="none" customFrame="#000000">
	<defs>
		<filter id="pixso_custom_mask_type_outline">
			<feColorMatrix type="matrix" values="0 0 0 0 1 0 0 0 0 1 0 0 0 0 1 0 0 0 1 0 " />
		</filter>
	</defs>
	<mask id="mask_42" width="12.000000" height="14.000000" x="2.000000" y="1.000000" maskUnits="userSpaceOnUse">
		<g filter="url(#pixso_custom_mask_type_outline)">
			<path id="蒙版" d="M3.5 1L10 1L14 5L14 13.5C14 14.3284 13.3284 15 12.5 15L3.5 15C2.67157 15 2 14.3284 2 13.5L2 2.5C2 1.67157 2.67157 1 3.5 1Z" fill="rgb(255,255,255)" fill-rule="evenodd" />
			<path id="蒙版" d="M10 1L3.5 1C2.67157 1 2 1.67157 2 2.5L2 13.5C2 14.3284 2.67157 15 3.5 15L12.5 15C13.3284 15 14 14.3284 14 13.5L14 5L10 1ZM9.79289 1.5L13.5 5.20711L13.5 13.5Q13.5 13.6183 13.4736 13.7303Q13.4545 13.8113 13.4216 13.8891Q13.3872 13.9705 13.3399 14.0434Q13.2829 14.1313 13.2071 14.2071Q13.1314 14.2829 13.0435 14.3399Q12.9705 14.3872 12.8891 14.4216Q12.8113 14.4545 12.7303 14.4736Q12.6183 14.5 12.5 14.5L3.5 14.5Q3.38172 14.5 3.26965 14.4736Q3.18866 14.4545 3.11091 14.4216Q3.02953 14.3872 2.95653 14.3399Q2.86863 14.2828 2.79289 14.2071Q2.71714 14.1314 2.66014 14.0435Q2.6128 13.9705 2.57838 13.8891Q2.5455 13.8114 2.52641 13.7304Q2.5 13.6183 2.5 13.5L2.5 2.5Q2.5 2.38171 2.52641 2.26964Q2.5455 2.18865 2.57838 2.11091Q2.6128 2.02952 2.66016 1.95651Q2.71716 1.86863 2.79289 1.79289Q2.86863 1.71716 2.95652 1.66015Q3.02952 1.6128 3.11091 1.57838Q3.18865 1.5455 3.26965 1.52641Q3.38171 1.5 3.5 1.5L9.79289 1.5Z" fill="rgb(223,225,230)" fill-opacity="0" fill-rule="evenodd" />
		</g>
	</mask>
	<rect id="雪碧图/16px/flow chart" width="16.000000" height="16.000000" x="0.000000" y="0.000000" fill="rgb(255,255,255)" fill-opacity="0" />
	<g id="组合 3869">
		<rect id="矩形" width="16.000000" height="16.000000" x="0.000000" y="0.000000" fill="rgb(0,0,0)" fill-opacity="0" />
		<rect id="矩形" width="15.500000" height="15.500000" x="0.250000" y="0.250000" stroke="rgb(151,151,151)" stroke-opacity="0" stroke-width="0.5" />
		<g id="编组 2" showMaskRef="url(#show_mask_36)" mask="url(#mask_42)">
			<g id="show_mask_36">
				<path id="蒙版" d="M3.5 1L10 1L14 5L14 13.5C14 14.3284 13.3284 15 12.5 15L3.5 15C2.67157 15 2 14.3284 2 13.5L2 2.5C2 1.67157 2.67157 1 3.5 1Z" fill="rgb(242,48,48)" fill-rule="evenodd" />
				<path id="蒙版" d="M10 1L3.5 1C2.67157 1 2 1.67157 2 2.5L2 13.5C2 14.3284 2.67157 15 3.5 15L12.5 15C13.3284 15 14 14.3284 14 13.5L14 5L10 1ZM9.79289 1.5L13.5 5.20711L13.5 13.5Q13.5 13.6183 13.4736 13.7303Q13.4545 13.8113 13.4216 13.8891Q13.3872 13.9705 13.3399 14.0434Q13.2829 14.1313 13.2071 14.2071Q13.1314 14.2829 13.0435 14.3399Q12.9705 14.3872 12.8891 14.4216Q12.8113 14.4545 12.7303 14.4736Q12.6183 14.5 12.5 14.5L3.5 14.5Q3.38172 14.5 3.26965 14.4736Q3.18866 14.4545 3.11091 14.4216Q3.02953 14.3872 2.95653 14.3399Q2.86863 14.2828 2.79289 14.2071Q2.71714 14.1314 2.66014 14.0435Q2.6128 13.9705 2.57838 13.8891Q2.5455 13.8114 2.52641 13.7304Q2.5 13.6183 2.5 13.5L2.5 2.5Q2.5 2.38171 2.52641 2.26964Q2.5455 2.18865 2.57838 2.11091Q2.6128 2.02952 2.66016 1.95651Q2.71716 1.86863 2.79289 1.79289Q2.86863 1.71716 2.95652 1.66015Q3.02952 1.6128 3.11091 1.57838Q3.18865 1.5455 3.26965 1.52641Q3.38171 1.5 3.5 1.5L9.79289 1.5Z" fill="rgb(223,225,230)" fill-opacity="0" fill-rule="evenodd" />
			</g>
			<path id="路径" d="M14 5L10.75 5C10.3358 5 10 4.66421 10 4.25L10 1" fill="rgb(250,167,163)" fill-rule="evenodd" />
			<path id="路径" d="M14 5L10.75 5C10.3358 5 10 4.66421 10 4.25L10 1L10.5 1.5L10.5 4.25Q10.5 4.30178 10.5183 4.34597Q10.5366 4.39017 10.5732 4.42678Q10.6098 4.46339 10.654 4.48169Q10.6982 4.5 10.75 4.5L13.5 4.5L14 5Z" fill="rgb(223,225,230)" fill-opacity="0" fill-rule="evenodd" />
			<path id="路径" d="M3.27496 2.5L1.25 2.5C0.559644 2.5 -1.53211e-13 1.94036 -1.53211e-13 1.25C-1.53211e-13 0.559644 0.559644 0 1.25 0L6 0" fill="rgb(216,216,216)" fill-opacity="0" fill-rule="evenodd" transform="matrix(-1,0,0,1,11.75,6.5)" />
			<path id="路径" d="M3.27496 2.5L1.25 2.5C0.559644 2.5 -1.53211e-13 1.94036 -1.53211e-13 1.25C-1.53211e-13 0.559644 0.559644 0 1.25 0L6 0" fill-rule="evenodd" stroke="rgb(255,255,255)" stroke-width="0.75" transform="matrix(-1,0,0,1,11.75,6.5)" />
			<path id="路径备份" d="M4.32281 2.5L1.25 2.5C0.559644 2.5 0 1.94036 0 1.25C0 0.559644 0.559644 0 1.25 0L5.95422 0" fill="rgb(216,216,216)" fill-opacity="0" fill-rule="evenodd" transform="matrix(1,0,0,-1,4.5,11.5)" />
			<path id="路径备份" d="M4.32281 2.5L1.25 2.5C0.559644 2.5 0 1.94036 0 1.25C0 0.559644 0.559644 0 1.25 0L5.95422 0" fill-rule="evenodd" stroke="rgb(255,255,255)" stroke-width="0.75" transform="matrix(1,0,0,-1,4.5,11.5)" />
			<rect id="矩形" width="1.500000" height="1.500000" x="10.250000" y="10.750000" rx="0.750000" fill="rgb(18,119,255)" fill-opacity="0" />
			<rect id="矩形" width="1.500000" height="1.500000" x="10.250000" y="10.750000" rx="0.750000" stroke="rgb(255,255,255)" stroke-width="0.75" />
			<rect id="矩形备份 16" width="1.500000" height="1.500000" x="0.000000" y="0.000000" rx="0.750000" fill="rgb(216,216,216)" fill-opacity="0" transform="matrix(0.707107,0.707107,-0.707107,0.707107,5.25,5.43933)" />
			<rect id="矩形备份 16" width="1.500000" height="1.500000" x="0.000000" y="0.000000" rx="0.750000" stroke="rgb(255,255,255)" stroke-width="0.75" transform="matrix(0.707107,0.707107,-0.707107,0.707107,5.25,5.43933)" />
		</g>
	</g>
</svg>
