<svg viewBox="0 0 16 16" xmlns="http://www.w3.org/2000/svg" xmlns:xlink="http://www.w3.org/1999/xlink" width="16.000000" height="16.000000" fill="none" customFrame="#000000">
	<defs>
		<filter id="pixso_custom_mask_type_outline">
			<feColorMatrix type="matrix" values="0 0 0 0 1 0 0 0 0 1 0 0 0 0 1 0 0 0 1 0 " />
		</filter>
	</defs>
	<mask id="mask_45" width="12.000000" height="14.000000" x="2.000000" y="1.000000" maskUnits="userSpaceOnUse">
		<g filter="url(#pixso_custom_mask_type_outline)">
			<path id="蒙版" d="M3.5 1L10 1L14 5L14 13.5C14 14.3284 13.3284 15 12.5 15L3.5 15C2.67157 15 2 14.3284 2 13.5L2 2.5C2 1.67157 2.67157 1 3.5 1Z" fill="rgb(255,255,255)" fill-rule="evenodd" />
			<path id="蒙版" d="M10 1L3.5 1C2.67157 1 2 1.67157 2 2.5L2 13.5C2 14.3284 2.67157 15 3.5 15L12.5 15C13.3284 15 14 14.3284 14 13.5L14 5L10 1ZM9.79289 1.5L13.5 5.20711L13.5 13.5Q13.5 13.6183 13.4736 13.7303Q13.4545 13.8113 13.4216 13.8891Q13.3872 13.9705 13.3399 14.0434Q13.2829 14.1313 13.2071 14.2071Q13.1314 14.2829 13.0435 14.3399Q12.9705 14.3872 12.8891 14.4216Q12.8113 14.4545 12.7303 14.4736Q12.6183 14.5 12.5 14.5L3.5 14.5Q3.38172 14.5 3.26965 14.4736Q3.18866 14.4545 3.11091 14.4216Q3.02953 14.3872 2.95653 14.3399Q2.86863 14.2828 2.79289 14.2071Q2.71714 14.1314 2.66014 14.0435Q2.6128 13.9705 2.57838 13.8891Q2.5455 13.8114 2.52641 13.7304Q2.5 13.6183 2.5 13.5L2.5 2.5Q2.5 2.38171 2.52641 2.26964Q2.5455 2.18865 2.57838 2.11091Q2.6128 2.02952 2.66016 1.95651Q2.71716 1.86863 2.79289 1.79289Q2.86863 1.71716 2.95652 1.66015Q3.02952 1.6128 3.11091 1.57838Q3.18865 1.5455 3.26965 1.52641Q3.38171 1.5 3.5 1.5L9.79289 1.5Z" fill="rgb(223,225,230)" fill-opacity="0" fill-rule="evenodd" />
		</g>
	</mask>
	<rect id="雪碧图/16px/ppt" width="16.000000" height="16.000000" x="0.000000" y="0.000000" fill="rgb(255,255,255)" fill-opacity="0" />
	<g id="图标/ppt文件">
		<rect id="矩形" width="16.000000" height="16.000000" x="0.000000" y="0.000000" rx="4.000000" fill="rgb(238,240,245)" fill-opacity="0" />
		<rect id="矩形" width="15.500000" height="15.500000" x="0.250000" y="0.250000" rx="3.750000" stroke="rgb(151,151,151)" stroke-opacity="0" stroke-width="0.5" />
		<g id="编组 2">
			<g id="路径" showMaskRef="url(#show_mask_39)" mask="url(#mask_45)">
				<g id="show_mask_39">
					<path id="蒙版" d="M3.5 1L10 1L14 5L14 13.5C14 14.3284 13.3284 15 12.5 15L3.5 15C2.67157 15 2 14.3284 2 13.5L2 2.5C2 1.67157 2.67157 1 3.5 1Z" fill="rgb(255,136,0)" fill-rule="evenodd" />
					<path id="蒙版" d="M10 1L3.5 1C2.67157 1 2 1.67157 2 2.5L2 13.5C2 14.3284 2.67157 15 3.5 15L12.5 15C13.3284 15 14 14.3284 14 13.5L14 5L10 1ZM9.79289 1.5L13.5 5.20711L13.5 13.5Q13.5 13.6183 13.4736 13.7303Q13.4545 13.8113 13.4216 13.8891Q13.3872 13.9705 13.3399 14.0434Q13.2829 14.1313 13.2071 14.2071Q13.1314 14.2829 13.0435 14.3399Q12.9705 14.3872 12.8891 14.4216Q12.8113 14.4545 12.7303 14.4736Q12.6183 14.5 12.5 14.5L3.5 14.5Q3.38172 14.5 3.26965 14.4736Q3.18866 14.4545 3.11091 14.4216Q3.02953 14.3872 2.95653 14.3399Q2.86863 14.2828 2.79289 14.2071Q2.71714 14.1314 2.66014 14.0435Q2.6128 13.9705 2.57838 13.8891Q2.5455 13.8114 2.52641 13.7304Q2.5 13.6183 2.5 13.5L2.5 2.5Q2.5 2.38171 2.52641 2.26964Q2.5455 2.18865 2.57838 2.11091Q2.6128 2.02952 2.66016 1.95651Q2.71716 1.86863 2.79289 1.79289Q2.86863 1.71716 2.95652 1.66015Q3.02952 1.6128 3.11091 1.57838Q3.18865 1.5455 3.26965 1.52641Q3.38171 1.5 3.5 1.5L9.79289 1.5Z" fill="rgb(223,225,230)" fill-opacity="0" fill-rule="evenodd" />
				</g>
				<path id="路径" d="M14 5L10.75 5C10.3358 5 10 4.66421 10 4.25L10 1" fill="rgb(252,213,164)" fill-rule="evenodd" />
				<path id="路径" d="M14 5L10.75 5C10.3358 5 10 4.66421 10 4.25L10 1L10.5 1.5L10.5 4.25Q10.5 4.30178 10.5183 4.34597Q10.5366 4.39017 10.5732 4.42678Q10.6098 4.46339 10.654 4.48169Q10.6982 4.5 10.75 4.5L13.5 4.5L14 5Z" fill="rgb(223,225,230)" fill-opacity="0" fill-rule="evenodd" />
				<g id="组合 3853" opacity="0">
					<path id="矢量 770" d="M0 0L4 0" stroke="rgb(255,255,255)" stroke-linecap="round" stroke-width="0.75" transform="matrix(0,1,-1,0,7.11987,7.25513)" />
					<path id="矢量 771" d="M8.24487 7.25513C8.86619 7.25513 9.36987 7.75881 9.36987 8.38013C9.36987 9.00145 8.86619 9.50513 8.24487 9.50513L7.11987 9.50513L7.11987 7.2774C7.11987 7.2651 7.12985 7.25513 7.14215 7.25513L8.24487 7.25513Z" stroke="rgb(255,255,255)" stroke-width="0.75" />
				</g>
				<g id="编组 28" opacity="0">
					<path id="路径" d="M8 6.5C6.34315 6.5 5 7.84315 5 9.5C5 11.1569 6.34315 12.5 8 12.5C9.65685 12.5 11 11.1569 11 9.5L8 9.5L8 6.5Z" fill="rgb(255,255,255)" fill-rule="evenodd" />
					<path id="路径" d="M8 9L8 6.5C7.82964 6.5 7.6626 6.5142 7.5 6.54148C6.08114 6.77952 5 8.0135 5 9.5C5 11.1569 6.34315 12.5 8 12.5C9.4865 12.5 10.7205 11.4189 10.9585 10C10.9858 9.8374 11 9.67036 11 9.5L8 9.5L8 9ZM10.4505 10L7.5 10L7.5 7.04953Q7.46983 7.05564 7.43984 7.06251Q7.22917 7.11076 7.02704 7.19626Q6.81936 7.2841 6.63361 7.4055Q6.41817 7.5463 6.23223 7.73223Q6.0463 7.91817 5.9055 8.13361Q5.7841 8.31936 5.69626 8.52704Q5.61076 8.72917 5.56251 8.93984Q5.5 9.21276 5.5 9.5Q5.5 9.78724 5.56251 10.0602Q5.61076 10.2708 5.69626 10.473Q5.7841 10.6807 5.90551 10.8664Q6.0463 11.0818 6.23223 11.2678Q6.41817 11.4537 6.63361 11.5945Q6.81936 11.7159 7.02704 11.8037Q7.22917 11.8892 7.43983 11.9375Q7.71276 12 8 12Q8.28724 12 8.56016 11.9375Q8.77083 11.8892 8.97296 11.8037Q9.18065 11.7159 9.36641 11.5945Q9.58184 11.4537 9.76777 11.2678Q9.9537 11.0818 10.0945 10.8664Q10.2159 10.6806 10.3037 10.473Q10.3892 10.2708 10.4375 10.0602Q10.4444 10.0302 10.4505 10Z" fill="rgb(255,255,255)" fill-opacity="0" fill-rule="evenodd" />
					<path id="形状结合" d="M8.75 8.74998L11.4896 8.74998C11.3694 7.29256 10.2074 6.13053 8.75 6.01025L8.75 8.74998Z" fill="rgb(255,255,255)" fill-rule="evenodd" />
					<path id="形状结合" d="M8.75 8.74998L11.4896 8.74998C11.3694 7.29256 10.2074 6.13053 8.75 6.01025L8.75 8.74998ZM10.8858 8.24998L9.25 8.24998L9.25 6.61408Q9.4096 6.66429 9.56307 6.73652Q9.74475 6.82204 9.90847 6.93386L9.90847 6.93386L9.90855 6.93391Q10.1005 7.065 10.2677 7.23224Q10.435 7.39951 10.5661 7.59149L10.5661 7.59149L10.5661 7.5915Q10.6779 7.75521 10.7634 7.93688Q10.8356 8.09036 10.8858 8.24998Z" fill="rgb(255,255,255)" fill-opacity="0" fill-rule="evenodd" />
				</g>
				<g id="编组 28">
					<path id="路径" d="M8 6.5C6.34315 6.5 5 7.84315 5 9.5C5 11.1569 6.34315 12.5 8 12.5C9.65685 12.5 11 11.1569 11 9.5L8 9.5L8 6.5Z" fill="rgb(255,255,255)" fill-rule="evenodd" />
					<path id="路径" d="M8 8.75L8 6.5C7.74102 6.5 7.48971 6.53281 7.25 6.59451C5.95608 6.92755 5 8.10212 5 9.5C5 11.1569 6.34315 12.5 8 12.5C9.39788 12.5 10.5725 11.5439 10.9055 10.25C10.9672 10.0103 11 9.75898 11 9.5L8 9.5L8 8.75ZM10.1223 10.25L7.25 10.25L7.25 7.37772Q7.18676 7.40015 7.12443 7.42651Q6.9392 7.50485 6.77331 7.6129Q6.57771 7.74031 6.40901 7.90901Q6.24031 8.07771 6.1129 8.27331Q6.00485 8.4392 5.92651 8.62443Q5.85088 8.80324 5.80765 8.98957Q5.75 9.2381 5.75 9.5Q5.75 9.76191 5.80766 10.0104Q5.85088 10.1968 5.92651 10.3756Q6.00485 10.5608 6.1129 10.7267Q6.24031 10.9223 6.40901 11.091Q6.57771 11.2597 6.77331 11.3871Q6.9392 11.4951 7.12443 11.5735Q7.30325 11.6491 7.48958 11.6924Q7.7381 11.75 8 11.75Q8.2619 11.75 8.51042 11.6923Q8.69675 11.6491 8.87557 11.5735Q9.0608 11.4951 9.22668 11.3871Q9.42229 11.2597 9.59099 11.091Q9.75969 10.9223 9.8871 10.7267Q9.99515 10.5608 10.0735 10.3756Q10.0999 10.3132 10.1223 10.25Z" fill="rgb(255,255,255)" fill-rule="evenodd" />
					<path id="形状结合" d="M8.75 8.74998L11.4896 8.74998C11.3694 7.29256 10.2074 6.13053 8.75 6.01025L8.75 8.74998Z" fill="rgb(255,255,255)" fill-rule="evenodd" />
				</g>
			</g>
		</g>
	</g>
</svg>
