<svg viewBox="0 0 16 16" xmlns="http://www.w3.org/2000/svg" xmlns:xlink="http://www.w3.org/1999/xlink" width="16.000000" height="16.000000" fill="none" customFrame="#000000">
	<defs>
		<filter id="pixso_custom_mask_type_outline">
			<feColorMatrix type="matrix" values="0 0 0 0 1 0 0 0 0 1 0 0 0 0 1 0 0 0 1 0 " />
		</filter>
		<g id="pixso_custom_effect_13">
			<effect x="0.000000" y="0.000000" visibility="visible" fill="rgb(164,164,164)" fill-opacity="1" effectType="dropShadow" stdDeviation="2.5" radius="0" />
		</g>
		<filter id="filter_13" width="8.000000" height="8.000000" x="8.500000" y="-1.500000" filterUnits="userSpaceOnUse" customEffect="url(#pixso_custom_effect_13)" color-interpolation-filters="sRGB">
			<feFlood flood-opacity="0" result="BackgroundImageFix" />
			<feOffset dx="0.000000" dy="0.000000" in="SourceAlpha" />
			<feGaussianBlur stdDeviation="0.833333313" />
			<feColorMatrix type="matrix" values="0 0 0 0 0.643137 0 0 0 0 0.643137 0 0 0 0 0.643137 0 0 0 1 0 " />
			<feBlend result="effect_dropShadow_1" in2="BackgroundImageFix" mode="normal" />
			<feBlend result="shape" in="SourceGraphic" in2="effect_dropShadow_1" mode="normal" />
		</filter>
	</defs>
	<mask id="mask_35" width="12.000000" height="14.000000" x="2.000000" y="1.000000" maskUnits="userSpaceOnUse">
		<g filter="url(#pixso_custom_mask_type_outline)">
			<path id="蒙版" d="M3.5 1L11 1L14 4L14 13.5C14 14.3284 13.3284 15 12.5 15L3.5 15C2.67157 15 2 14.3284 2 13.5L2 2.5C2 1.67157 2.67157 1 3.5 1Z" fill="rgb(255,255,255)" fill-rule="evenodd" />
			<path id="蒙版" d="M11 1L3.5 1C2.67157 1 2 1.67157 2 2.5L2 13.5C2 14.3284 2.67157 15 3.5 15L12.5 15C13.3284 15 14 14.3284 14 13.5L14 4L11 1ZM10.7929 1.5L13.5 4.20711L13.5 13.5Q13.5 13.6183 13.4736 13.7303Q13.4545 13.8113 13.4216 13.8891Q13.3872 13.9705 13.3399 14.0434Q13.2829 14.1313 13.2071 14.2071Q13.1314 14.2829 13.0435 14.3399Q12.9705 14.3872 12.8891 14.4216Q12.8113 14.4545 12.7303 14.4736Q12.6183 14.5 12.5 14.5L3.5 14.5Q3.38172 14.5 3.26965 14.4736Q3.18866 14.4545 3.11091 14.4216Q3.02953 14.3872 2.95653 14.3399Q2.86863 14.2828 2.79289 14.2071Q2.71714 14.1314 2.66014 14.0435Q2.6128 13.9705 2.57838 13.8891Q2.5455 13.8114 2.52641 13.7304Q2.5 13.6183 2.5 13.5L2.5 2.5Q2.5 2.38171 2.52641 2.26964Q2.5455 2.18865 2.57838 2.11091Q2.6128 2.02952 2.66016 1.95651Q2.71716 1.86863 2.79289 1.79289Q2.86863 1.71716 2.95652 1.66015Q3.02952 1.6128 3.11091 1.57838Q3.18865 1.5455 3.26965 1.52641Q3.38171 1.5 3.5 1.5L10.7929 1.5Z" fill="rgb(223,225,230)" fill-opacity="0" fill-rule="evenodd" />
		</g>
	</mask>
	<rect id="雪碧图/16px/unknown" width="16.000000" height="16.000000" x="0.000000" y="0.000000" fill="rgb(255,255,255)" fill-opacity="0" />
	<g id="图标/未知文件">
		<rect id="矩形" width="16.000000" height="16.000000" x="0.000000" y="0.000000" rx="4.000000" fill="rgb(238,240,245)" fill-opacity="0" />
		<rect id="矩形" width="15.500000" height="15.500000" x="0.250000" y="0.250000" rx="3.750000" stroke="rgb(151,151,151)" stroke-opacity="0" stroke-width="0.5" />
		<g id="路径" showMaskRef="url(#show_mask_29)" mask="url(#mask_35)">
			<g id="show_mask_29">
				<path id="蒙版" d="M3.5 1L11 1L14 4L14 13.5C14 14.3284 13.3284 15 12.5 15L3.5 15C2.67157 15 2 14.3284 2 13.5L2 2.5C2 1.67157 2.67157 1 3.5 1Z" fill="rgb(189,189,189)" fill-rule="evenodd" />
				<path id="蒙版" d="M11 1L3.5 1C2.67157 1 2 1.67157 2 2.5L2 13.5C2 14.3284 2.67157 15 3.5 15L12.5 15C13.3284 15 14 14.3284 14 13.5L14 4L11 1ZM10.7929 1.5L13.5 4.20711L13.5 13.5Q13.5 13.6183 13.4736 13.7303Q13.4545 13.8113 13.4216 13.8891Q13.3872 13.9705 13.3399 14.0434Q13.2829 14.1313 13.2071 14.2071Q13.1314 14.2829 13.0435 14.3399Q12.9705 14.3872 12.8891 14.4216Q12.8113 14.4545 12.7303 14.4736Q12.6183 14.5 12.5 14.5L3.5 14.5Q3.38172 14.5 3.26965 14.4736Q3.18866 14.4545 3.11091 14.4216Q3.02953 14.3872 2.95653 14.3399Q2.86863 14.2828 2.79289 14.2071Q2.71714 14.1314 2.66014 14.0435Q2.6128 13.9705 2.57838 13.8891Q2.5455 13.8114 2.52641 13.7304Q2.5 13.6183 2.5 13.5L2.5 2.5Q2.5 2.38171 2.52641 2.26964Q2.5455 2.18865 2.57838 2.11091Q2.6128 2.02952 2.66016 1.95651Q2.71716 1.86863 2.79289 1.79289Q2.86863 1.71716 2.95652 1.66015Q3.02952 1.6128 3.11091 1.57838Q3.18865 1.5455 3.26965 1.52641Q3.38171 1.5 3.5 1.5L10.7929 1.5Z" fill="rgb(223,225,230)" fill-opacity="0" fill-rule="evenodd" />
			</g>
			<g id="ic_public_questionmark">
				<path id="path4" d="M7.625 11.61C7.625 11.4112 7.78618 11.25 7.985 11.25L8 11.25C8.20711 11.25 8.375 11.4179 8.375 11.625C8.375 11.8321 8.20711 12 8 12L7.985 12C7.78618 12 7.625 11.8388 7.625 11.64L7.625 11.64" fill="rgb(255,255,255)" fill-rule="evenodd" />
				<path id="path4" d="M7.125 11.61Q7.125 11.4354 7.19279 11.2751Q7.2581 11.1207 7.37689 11.0019Q7.49567 10.8831 7.6501 10.8178Q7.81037 10.75 7.985 10.75L8 10.75Q8.17769 10.75 8.34074 10.819Q8.49786 10.8854 8.61872 11.0063Q8.73958 11.1271 8.80603 11.2843Q8.875 11.4473 8.875 11.625Q8.875 11.8027 8.80603 11.9657Q8.73958 12.1229 8.61872 12.2437Q8.49786 12.3646 8.34074 12.431Q8.17769 12.5 8 12.5L7.985 12.5Q7.81037 12.5 7.6501 12.4322Q7.49567 12.3669 7.37689 12.2481Q7.2581 12.1293 7.19279 11.9749Q7.125 11.8146 7.125 11.64L8.125 11.64Q8.125 11.582 8.08399 11.541Q8.04299 11.5 7.985 11.5L8 11.5Q7.94822 11.5 7.91161 11.5366Q7.875 11.5732 7.875 11.625Q7.875 11.6768 7.91161 11.7134Q7.94822 11.75 8 11.75L7.985 11.75Q8.04299 11.75 8.08399 11.709Q8.125 11.668 8.125 11.61L7.125 11.61ZM8.105 11.59L8.125 11.61C8.125 11.89 7.905 12.11 7.625 12.11C7.345 12.11 7.125 11.89 7.125 11.61L7.145 11.59L8.105 11.59ZM-nan -nanL-nan -nanC-nan -nan -nan -nan -nan -nanC-nan -nan -nan -nan -nan -nanL-nan -nanZ" fill="rgb(25,25,25)" fill-opacity="0" fill-rule="nonzero" />
				<path id="path5" d="M8 10.25C8 10.1448 7.98314 9.78972 8 9.63635C8.01401 9.50886 8.04298 9.39936 8.14763 9.22822C8.33596 8.92021 8.918 8.59343 9.00571 8.52984C9.45586 8.20348 9.75 7.66395 9.75 7.05362C9.75 6.05751 8.9665 5.25 8 5.25C7.0335 5.25 6.25 6.05751 6.25 7.05362" fill-rule="evenodd" stroke="rgb(255,255,255)" stroke-linecap="round" stroke-linejoin="round" stroke-width="0.75" />
			</g>
			<g filter="url(#filter_13)">
				<path id="路径" d="M14 4L12 4C11.4477 4 11 3.55228 11 3L11 1" fill="rgb(245,245,246)" fill-rule="evenodd" />
				<path id="路径" d="M14 4L12 4C11.4477 4 11 3.55228 11 3L11 1L11.5 1.5L11.5 3Q11.5 3.10355 11.5366 3.19194Q11.5732 3.28033 11.6464 3.35355Q11.7197 3.42678 11.8081 3.46339Q11.8964 3.5 12 3.5L13.5 3.5L14 4Z" fill="rgb(223,225,230)" fill-opacity="0" fill-rule="evenodd" />
			</g>
		</g>
	</g>
</svg>
