<svg viewBox="0 0 16 16" xmlns="http://www.w3.org/2000/svg" xmlns:xlink="http://www.w3.org/1999/xlink" width="16.000000" height="16.000000" fill="none" customFrame="#000000">
	<defs>
		<filter id="pixso_custom_mask_type_outline">
			<feColorMatrix type="matrix" values="0 0 0 0 1 0 0 0 0 1 0 0 0 0 1 0 0 0 1 0 " />
		</filter>
	</defs>
	<mask id="mask_32" width="12.000000" height="14.000000" x="2.000000" y="1.000000" maskUnits="userSpaceOnUse">
		<g filter="url(#pixso_custom_mask_type_outline)">
			<path id="蒙版" d="M3.5 1L10 1L14 5L14 13.5C14 14.3284 13.3284 15 12.5 15L3.5 15C2.67157 15 2 14.3284 2 13.5L2 2.5C2 1.67157 2.67157 1 3.5 1Z" fill="rgb(255,255,255)" fill-rule="evenodd" />
			<path id="蒙版" d="M10 1L3.5 1C2.67157 1 2 1.67157 2 2.5L2 13.5C2 14.3284 2.67157 15 3.5 15L12.5 15C13.3284 15 14 14.3284 14 13.5L14 5L10 1ZM9.79289 1.5L13.5 5.20711L13.5 13.5Q13.5 13.6183 13.4736 13.7303Q13.4545 13.8113 13.4216 13.8891Q13.3872 13.9705 13.3399 14.0434Q13.2829 14.1313 13.2071 14.2071Q13.1314 14.2829 13.0435 14.3399Q12.9705 14.3872 12.8891 14.4216Q12.8113 14.4545 12.7303 14.4736Q12.6183 14.5 12.5 14.5L3.5 14.5Q3.38172 14.5 3.26965 14.4736Q3.18866 14.4545 3.11091 14.4216Q3.02953 14.3872 2.95653 14.3399Q2.86863 14.2828 2.79289 14.2071Q2.71714 14.1314 2.66014 14.0435Q2.6128 13.9705 2.57838 13.8891Q2.5455 13.8114 2.52641 13.7304Q2.5 13.6183 2.5 13.5L2.5 2.5Q2.5 2.38171 2.52641 2.26964Q2.5455 2.18865 2.57838 2.11091Q2.6128 2.02952 2.66016 1.95651Q2.71716 1.86863 2.79289 1.79289Q2.86863 1.71716 2.95652 1.66015Q3.02952 1.6128 3.11091 1.57838Q3.18865 1.5455 3.26965 1.52641Q3.38171 1.5 3.5 1.5L9.79289 1.5Z" fill="rgb(223,225,230)" fill-opacity="0" fill-rule="evenodd" />
		</g>
	</mask>
	<rect id="雪碧图/16px/zip-sprite" width="16.000000" height="16.000000" x="0.000000" y="0.000000" fill="rgb(255,255,255)" fill-opacity="0" />
	<g id="图标/图片文件">
		<rect id="矩形" width="16.000000" height="16.000000" x="0.000000" y="0.000000" rx="4.000000" fill="rgb(238,240,245)" fill-opacity="0" />
		<rect id="矩形" width="15.500000" height="15.500000" x="0.250000" y="0.250000" rx="3.750000" stroke="rgb(151,151,151)" stroke-opacity="0" stroke-width="0.5" />
		<g id="路径" showMaskRef="url(#show_mask_26)" mask="url(#mask_32)">
			<g id="show_mask_26">
				<path id="蒙版" d="M3.5 1L10 1L14 5L14 13.5C14 14.3284 13.3284 15 12.5 15L3.5 15C2.67157 15 2 14.3284 2 13.5L2 2.5C2 1.67157 2.67157 1 3.5 1Z" fill="rgb(57,121,249)" fill-rule="evenodd" />
				<path id="蒙版" d="M10 1L3.5 1C2.67157 1 2 1.67157 2 2.5L2 13.5C2 14.3284 2.67157 15 3.5 15L12.5 15C13.3284 15 14 14.3284 14 13.5L14 5L10 1ZM9.79289 1.5L13.5 5.20711L13.5 13.5Q13.5 13.6183 13.4736 13.7303Q13.4545 13.8113 13.4216 13.8891Q13.3872 13.9705 13.3399 14.0434Q13.2829 14.1313 13.2071 14.2071Q13.1314 14.2829 13.0435 14.3399Q12.9705 14.3872 12.8891 14.4216Q12.8113 14.4545 12.7303 14.4736Q12.6183 14.5 12.5 14.5L3.5 14.5Q3.38172 14.5 3.26965 14.4736Q3.18866 14.4545 3.11091 14.4216Q3.02953 14.3872 2.95653 14.3399Q2.86863 14.2828 2.79289 14.2071Q2.71714 14.1314 2.66014 14.0435Q2.6128 13.9705 2.57838 13.8891Q2.5455 13.8114 2.52641 13.7304Q2.5 13.6183 2.5 13.5L2.5 2.5Q2.5 2.38171 2.52641 2.26964Q2.5455 2.18865 2.57838 2.11091Q2.6128 2.02952 2.66016 1.95651Q2.71716 1.86863 2.79289 1.79289Q2.86863 1.71716 2.95652 1.66015Q3.02952 1.6128 3.11091 1.57838Q3.18865 1.5455 3.26965 1.52641Q3.38171 1.5 3.5 1.5L9.79289 1.5Z" fill="rgb(223,225,230)" fill-opacity="0" fill-rule="evenodd" />
			</g>
			<path id="路径" d="M14 5L10.75 5C10.3358 5 10 4.66421 10 4.25L10 1" fill="rgb(157,189,252)" fill-rule="evenodd" />
			<path id="路径" d="M14 5L10.75 5C10.3358 5 10 4.66421 10 4.25L10 1L10.5 1.5L10.5 4.25Q10.5 4.30178 10.5183 4.34597Q10.5366 4.39017 10.5732 4.42678Q10.6098 4.46339 10.654 4.48169Q10.6982 4.5 10.75 4.5L13.5 4.5L14 5Z" fill="rgb(223,225,230)" fill-opacity="0" fill-rule="evenodd" />
			<g id="编组">
				<path id="形状结合" d="M10.5643 8C11.081 8 11.4999 8.4797 11.4999 9.07143C11.4999 9.64407 11.1076 10.1118 10.614 10.1414L10.5643 10.1429L9.76631 10.1429L9.76631 10.7857C9.76631 10.9041 9.6693 11 9.54964 11C9.43995 11 9.3493 10.9194 9.33495 10.8148L9.33298 10.7857L9.33298 8.2143C9.33298 8.17053 9.34625 8.12981 9.36903 8.09589C9.39983 8.04578 9.44799 8.01068 9.50349 8.00206L9.53022 8L10.5643 8ZM9.76631 9.69173L10.5643 9.69173C10.8635 9.69173 11.106 9.41401 11.106 9.07143C11.106 8.74442 10.885 8.47651 10.6047 8.45283L10.5643 8.45113L9.76631 8.45113L9.76631 9.69173ZM6.46916 8.00002C6.62187 8.00002 6.7129 8.17859 6.64192 8.31737L6.62668 8.34287L5.09083 10.5714L6.46916 10.5714C6.56885 10.5714 6.65123 10.6521 6.66427 10.7567L6.66607 10.7857C6.66607 10.8942 6.59199 10.9839 6.49588 10.9981L6.46916 11L4.69702 11C4.5443 11 4.45328 10.8214 4.52426 10.6827L4.53949 10.6572L6.07561 8.42859L4.69702 8.42859C4.59733 8.42859 4.51495 8.34797 4.50191 8.24338L4.50011 8.2143C4.50011 8.10582 4.57419 8.01616 4.6703 8.00197L4.69702 8.00002L6.46916 8.00002ZM7.99935 8.00002C8.10904 8.00002 8.19969 8.08063 8.21404 8.18523L8.21602 8.2143L8.21602 10.7857C8.21602 10.9041 8.11901 11 7.99935 11C7.88966 11 7.79901 10.9194 7.78466 10.8148L7.78268 10.7857L7.78268 8.2143C7.78268 8.09596 7.87969 8.00002 7.99935 8.00002Z" opacity="0" fill="rgb(255,255,255)" fill-rule="evenodd" />
				<path id="形状结合" d="M10.5643 8C11.081 8 11.4999 8.4797 11.4999 9.07143C11.4999 9.64407 11.1076 10.1118 10.614 10.1414L10.5643 10.1429L9.76631 10.1429L9.76631 10.7857C9.76631 10.9041 9.6693 11 9.54964 11C9.43995 11 9.3493 10.9194 9.33495 10.8148L9.33298 10.7857L9.33298 8.2143C9.33298 8.17053 9.34625 8.12981 9.36903 8.09589C9.39983 8.04578 9.44799 8.01068 9.50349 8.00206L9.53022 8L10.5643 8ZM9.76631 9.69173L10.5643 9.69173C10.8635 9.69173 11.106 9.41401 11.106 9.07143C11.106 8.74442 10.885 8.47651 10.6047 8.45283L10.5643 8.45113L9.76631 8.45113L9.76631 9.69173ZM6.46916 8.00002C6.62187 8.00002 6.7129 8.17859 6.64192 8.31737L6.62668 8.34287L5.09083 10.5714L6.46916 10.5714C6.56885 10.5714 6.65123 10.6521 6.66427 10.7567L6.66607 10.7857C6.66607 10.8942 6.59199 10.9839 6.49588 10.9981L6.46916 11L4.69702 11C4.5443 11 4.45328 10.8214 4.52426 10.6827L4.53949 10.6572L6.07561 8.42859L4.69702 8.42859C4.59733 8.42859 4.51495 8.34797 4.50191 8.24338L4.50011 8.2143C4.50011 8.10582 4.57419 8.01616 4.6703 8.00197L4.69702 8.00002L6.46916 8.00002ZM7.99935 8.00002C8.10904 8.00002 8.19969 8.08063 8.21404 8.18523L8.21602 8.2143L8.21602 10.7857C8.21602 10.9041 8.11901 11 7.99935 11C7.88966 11 7.79901 10.9194 7.78466 10.8148L7.78268 10.7857L7.78268 8.2143C7.78268 8.09596 7.87969 8.00002 7.99935 8.00002Z" opacity="0" fill-rule="evenodd" stroke="rgb(255,255,255)" stroke-width="0.569999993" />
			</g>
		</g>
		<path id="矢量 768" d="M4.75 8.25L6.64597 8.25C6.68789 8.25 6.7112 8.2985 6.68501 8.33123L4.81499 10.6688C4.7888 10.7015 4.81211 10.75 4.85403 10.75L6.75 10.75" stroke="rgb(255,255,255)" stroke-width="0.75" />
		<path id="矢量 769" d="M0 0L2.5 0" stroke="rgb(255,255,255)" stroke-linecap="round" stroke-width="0.75" transform="matrix(0,1,-1,0,8,8.25)" />
		<path id="矢量 770" d="M0 0L2.5 0" stroke="rgb(255,255,255)" stroke-linecap="round" stroke-width="0.75" transform="matrix(0,1,-1,0,9.5,8.25)" />
		<path id="矢量 771" d="M10.625 8.25C10.9702 8.25 11.25 8.52982 11.25 8.875C11.25 9.22018 10.9702 9.5 10.625 9.5L9.5 9.5L9.5 8.26733L9.51733 8.25L10.625 8.25Z" stroke="rgb(255,255,255)" stroke-width="0.75" />
	</g>
</svg>
