<svg viewBox="0 0 16 16" xmlns="http://www.w3.org/2000/svg" xmlns:xlink="http://www.w3.org/1999/xlink" width="16.000000" height="16.000000" fill="none" customFrame="#000000">
	<defs>
		<clipPath id="clipPath_24">
			<rect width="16.000000" height="16.000000" x="0.000000" y="0.000000" fill="rgb(255,255,255)" />
		</clipPath>
		<clipPath id="clipPath_25">
			<rect width="13.969604" height="13.000000" x="1.015137" y="1.500000" fill="rgb(255,255,255)" />
		</clipPath>
	</defs>
	<rect id="雪碧图/16px/floder-closed" width="16.000000" height="16.000000" x="0.000000" y="0.000000" fill="rgb(255,255,255)" fill-opacity="0" />
	<g id="floder-closed" customFrame="url(#clipPath_24)">
		<rect id="floder-closed" width="16.000000" height="16.000000" x="0.000000" y="0.000000" fill="rgb(255,255,255)" fill-opacity="0" />
		<g id="floder-closed" customFrame="url(#clipPath_25)">
			<rect id="floder-closed" width="13.969604" height="13.000000" x="1.015137" y="1.500000" fill="rgb(255,255,255)" fill-opacity="0" />
			<path id="路径" d="M5.32647 1.5C5.70753 1.5 6.06722 1.66424 6.32041 1.94642L6.4102 2.05768L7.20686 3.15745C7.27189 3.24723 7.36414 3.30619 7.46467 3.32619L12.6374 3.33375C13.342 3.33375 13.9141 3.88281 13.979 4.57725L13.9851 4.70906L13.9851 6.56656L1.98511 6.6481L1.98511 2.87531C1.98511 2.16428 2.51577 1.57339 3.20233 1.50634L3.3328 1.5L5.32647 1.5Z" fill="rgb(10,89,247)" fill-rule="nonzero" />
			<path id="矩形备份" d="M2.51527 5.5L13.4847 5.5C14.3132 5.5 14.9847 6.17157 14.9847 7C14.9847 7.05664 14.9815 7.11323 14.9751 7.1695L14.2928 13.1695C14.2066 13.9275 13.5652 14.5 12.8024 14.5L3.19765 14.5C2.43481 14.5 1.79347 13.9275 1.70726 13.1695L1.02488 7.1695C0.931268 6.34638 1.52265 5.60322 2.34577 5.50961C2.40205 5.50321 2.45864 5.5 2.51527 5.5Z" fill="rgb(77.6591,136.773,255)" fill-rule="evenodd" />
			<path id="矩形备份" d="M13.4847 5.5L2.51527 5.5C2.45864 5.5 2.40205 5.50321 2.34577 5.50961C1.52265 5.60322 0.931268 6.34638 1.02488 7.1695L1.70726 13.1695C1.79347 13.9275 2.43481 14.5 3.19765 14.5L12.8024 14.5C13.5652 14.5 14.2066 13.9275 14.2928 13.1695L14.9751 7.1695C14.9815 7.11323 14.9847 7.05664 14.9847 7C14.9847 6.17157 14.3132 5.5 13.4847 5.5ZM2.51527 6.5L13.4847 6.5C13.5538 6.5 13.6178 6.5122 13.6767 6.53661C13.7356 6.56102 13.7895 6.59763 13.8383 6.64645C13.8871 6.69526 13.9237 6.74913 13.9481 6.80806C13.9725 6.86698 13.9847 6.93096 13.9847 7C13.9847 7.00873 13.9845 7.01745 13.9841 7.02616C13.9835 7.03629 13.9827 7.0464 13.9815 7.0565L13.2992 13.0565C13.292 13.1197 13.2747 13.1776 13.2474 13.2304C13.2201 13.2831 13.1828 13.3307 13.1353 13.373C13.0879 13.4153 13.0365 13.4471 12.981 13.4682C12.9255 13.4894 12.8659 13.5 12.8024 13.5L3.19765 13.5C3.13408 13.5 3.07455 13.4894 3.01905 13.4682C2.96356 13.4471 2.9121 13.4153 2.86468 13.373C2.81725 13.3307 2.77989 13.2831 2.75259 13.2304C2.72528 13.1776 2.70804 13.1197 2.70086 13.0565L2.01848 7.0565C2.01068 6.98791 2.01557 6.92296 2.03316 6.86165C2.05076 6.80034 2.08105 6.74268 2.12403 6.68866C2.16702 6.63464 2.21641 6.59218 2.2722 6.56127C2.32799 6.53036 2.39018 6.511 2.45877 6.5032C2.46807 6.50215 2.47737 6.50135 2.4867 6.50082C2.49621 6.50027 2.50573 6.5 2.51527 6.5Z" fill="rgb(151,151,151)" fill-opacity="0" fill-rule="evenodd" />
		</g>
	</g>
</svg>
