<svg viewBox="0 0 48 48" xmlns="http://www.w3.org/2000/svg" xmlns:xlink="http://www.w3.org/1999/xlink" width="48.000000" height="48.000000" fill="none">
	<defs>
		<radialGradient id="paint_radial_8" cx="0" cy="0" r="1" gradientUnits="userSpaceOnUse" gradientTransform="matrix(0,-24.9856,14.7109,0,12.9586,13.3834)">
			<stop stop-color="rgb(253,173,58)" offset="0" stop-opacity="1" />
			<stop stop-color="rgb(224,126,47)" offset="1" stop-opacity="1" />
		</radialGradient>
		<radialGradient id="paint_radial_9" cx="0" cy="0" r="1" gradientUnits="userSpaceOnUse" gradientTransform="matrix(0,-23.0799,15.9953,0,37.3811,21.0211)">
			<stop stop-color="rgb(50,219,250)" offset="0" stop-opacity="1" />
			<stop stop-color="rgb(47,128,191)" offset="1" stop-opacity="1" />
		</radialGradient>
		<radialGradient id="paint_radial_10" cx="0" cy="0" r="1" gradientUnits="userSpaceOnUse" gradientTransform="matrix(0,-9.84169,28.0785,0,20.1855,37.7722)">
			<stop stop-color="rgb(233,33,33)" offset="0" stop-opacity="1" />
			<stop stop-color="rgb(155,25,25)" offset="1" stop-opacity="1" />
		</radialGradient>
	</defs>
	<rect id="代码仓库/CodeClub" width="48.000000" height="48.000000" x="0.000000" y="0.000000" />
	<g id="模型/CodeClub">
		<g id="编组-2">
			<rect id="矩形" width="60.000000" height="60.000000" x="0.000000" y="0.000000" opacity="0" fill="rgb(216,216,216)" />
			<rect id="矩形" width="60.000000" height="60.000000" x="0.000000" y="0.000000" opacity="0" stroke="rgb(0,0,0)" stroke-opacity="0" stroke-width="1" />
			<g id="编组">
				<path id="形状结合" d="M17.5546 18.6379C16.6734 19.9509 15.7518 20.8429 14.7821 21.7038L14.4743 21.9751C12.402 23.7909 10.1108 25.6514 7.5261 31.2444C6.54453 29.0203 6 26.559 6 23.9703C6 15.1883 12.2667 7.87179 20.5672 6.25879C21.0782 10.3147 20.2609 14.6058 17.5546 18.6379Z" fill="url(#paint_radial_8)" fill-rule="evenodd" />
				<path id="形状结合" d="M14.7821 21.7038L14.4743 21.9751C12.402 23.7909 10.1108 25.6514 7.5261 31.2444C6.54453 29.0203 6 26.559 6 23.9703C6 15.1883 12.2667 7.87179 20.5672 6.25879C21.0782 10.3147 20.2609 14.6058 17.5546 18.6379C16.6734 19.9509 15.7518 20.8429 14.7821 21.7038Z" fill-rule="evenodd" stroke="rgb(0,0,0)" stroke-opacity="0" stroke-width="1" />
				<path id="形状结合" d="M8.81914 28.1432C11.001 31.8609 12.541 32.7271 11.2655 33.9569C10.3603 34.8297 8.76252 33.6672 7.51991 31.2335C6.54247 29.0111 6 26.5542 6 23.9704C6 21.4049 6.53483 18.9644 7.49896 16.7546C7.05148 22.0851 7.49161 25.8813 8.81914 28.1432Z" fill="rgb(254,194,72)" fill-rule="evenodd" />
				<path id="形状结合" d="M11.2655 33.9569C10.3603 34.8297 8.76252 33.6672 7.51991 31.2335C6.54247 29.0111 6 26.5542 6 23.9704C6 21.4049 6.53483 18.9644 7.49896 16.7546C7.05148 22.0851 7.49161 25.8813 8.81914 28.1432C11.001 31.8609 12.541 32.7271 11.2655 33.9569Z" fill-rule="evenodd" stroke="rgb(0,0,0)" stroke-opacity="0" stroke-width="1" />
				<path id="路径" d="M31.7924 20.9225C31.3637 20.0791 31.0732 19.2961 30.849 18.5315L30.75 18.1798C30.7342 18.1214 30.7187 18.063 30.7036 18.0047L30.6157 17.6552L30.5334 17.306L30.3413 16.4285L30.1889 15.7143L30.1087 15.3505L30.0238 14.9812L29.8842 14.4146C29.8678 14.3508 29.8509 14.2865 29.8337 14.222L29.7252 13.8303C29.6495 13.5662 29.5664 13.2958 29.4739 13.0181L29.3278 12.5958C28.6875 10.8118 27.6383 8.71452 25.6694 6.00586C28.0838 6.22299 30.4924 6.93822 32.7479 8.1932C40.4001 12.4509 43.737 21.5001 41.1179 29.5694C37.3366 28.0513 33.9937 25.2534 31.7924 20.9225Z" fill="url(#paint_radial_9)" fill-rule="evenodd" />
				<path id="路径" d="M30.849 18.5315L30.75 18.1798C30.7342 18.1214 30.7187 18.063 30.7036 18.0047L30.6157 17.6552L30.5334 17.306L30.3413 16.4285L30.1889 15.7143L30.1087 15.3505L30.0238 14.9812L29.8842 14.4146C29.8678 14.3508 29.8509 14.2865 29.8337 14.222L29.7252 13.8303C29.6495 13.5662 29.5664 13.2958 29.4739 13.0181L29.3278 12.5958C28.6875 10.8118 27.6383 8.71452 25.6694 6.00586C28.0838 6.22299 30.4924 6.93822 32.7479 8.1932C40.4001 12.4509 43.737 21.5001 41.1179 29.5694C37.3366 28.0513 33.9937 25.2534 31.7924 20.9225C31.3637 20.0791 31.0732 19.2961 30.849 18.5315Z" fill-rule="evenodd" stroke="rgb(0,0,0)" stroke-opacity="0" stroke-width="1" />
				<path id="路径" d="M27.745 8.64526L27.5048 8.65252L27.0419 8.67172L26.6021 8.69624L26.1847 8.72496L25.7893 8.75677L25.236 8.80782L23.9808 8.9369L23.5874 8.9719L23.347 8.98814L23.1234 8.99741C22.1903 9.02084 21.7157 8.81631 21.4934 7.97448C21.2539 7.06776 22.1837 6.37095 23.7982 6.11082L24.1088 6.06722C24.5864 6.00967 25.1158 5.98777 25.6862 6.00659C28.0953 6.22657 30.4977 6.94138 32.7477 8.19331C34.9827 9.43688 36.8496 11.0892 38.3075 13.0065C33.8801 10.0302 30.3594 8.57643 27.745 8.64526Z" fill="rgb(0,168,231)" fill-rule="evenodd" />
				<path id="路径" d="M27.5048 8.65252L27.0419 8.67172L26.6021 8.69624L26.1847 8.72496L25.7893 8.75677L25.236 8.80782L23.9808 8.9369L23.5874 8.9719L23.347 8.98814L23.1234 8.99741C22.1903 9.02084 21.7157 8.81631 21.4934 7.97448C21.2539 7.06776 22.1837 6.37095 23.7982 6.11082L24.1088 6.06722C24.5864 6.00967 25.1158 5.98777 25.6862 6.00659C28.0953 6.22657 30.4977 6.94138 32.7477 8.19331C34.9827 9.43688 36.8496 11.0892 38.3075 13.0065C33.8801 10.0302 30.3594 8.57643 27.745 8.64526L27.5048 8.65252Z" fill-rule="evenodd" stroke="rgb(0,0,0)" stroke-opacity="0" stroke-width="1" />
				<path id="路径" d="M22.6323 32.2068C23.3561 32.2572 24.0073 32.3596 24.6191 32.4956L24.9816 32.5811L25.3363 32.6738L25.6847 32.7728L26.0284 32.8772L26.369 32.9862L26.708 33.0989L28.2576 33.6279L28.6167 33.7451L28.9846 33.8603L29.3629 33.9725L29.7533 34.081L29.9534 34.1335L30.3647 34.2346L30.763 34.3236C32.656 34.7256 35.0458 34.9338 38.5238 34.6212C37.0949 36.5867 35.2436 38.2907 33.0102 39.585C25.4333 43.9761 15.9871 42.1865 10.4453 35.777C13.6891 33.3055 17.8002 31.8703 22.6323 32.2068Z" fill="url(#paint_radial_10)" fill-rule="evenodd" />
				<path id="路径" d="M24.6191 32.4956L24.9816 32.5811L25.3363 32.6738L25.6847 32.7728L26.0284 32.8772L26.369 32.9862L26.708 33.0989L28.2576 33.6279L28.6167 33.7451L28.9846 33.8603L29.3629 33.9725L29.7533 34.081L29.9534 34.1335L30.3647 34.2346L30.763 34.3236C32.656 34.7256 35.0458 34.9338 38.5238 34.6212C37.0949 36.5867 35.2436 38.2907 33.0102 39.585C25.4333 43.9761 15.9871 42.1865 10.4453 35.777C13.6891 33.3055 17.8002 31.8703 22.6323 32.2068C23.3561 32.2572 24.0073 32.3596 24.6191 32.4956Z" fill-rule="evenodd" stroke="rgb(0,0,0)" stroke-opacity="0" stroke-width="1" />
				<path id="路径" d="M35.2004 35.0479L35.4541 34.5889C35.4946 34.5141 35.5343 34.4402 35.5731 34.3671L35.7966 33.9393L36.0019 33.5324L36.1908 33.1466L36.365 32.782L36.8826 31.6747L37.0733 31.2815L37.1942 31.0468C37.214 31.0095 37.2338 30.9731 37.2534 30.9377L37.3704 30.7361C37.7975 30.0377 38.2145 29.7881 38.9931 30.0145C40.1992 30.3651 39.9944 32.3371 38.5141 34.6355C37.0854 36.595 35.2377 38.2939 33.0098 39.585C30.7967 40.8676 28.4242 41.6228 26.0361 41.8897C30.8579 39.6133 33.9127 37.3328 35.2004 35.0479Z" fill="rgb(255,68,59)" fill-rule="evenodd" />
				<path id="路径" d="M35.4541 34.5889C35.4946 34.5141 35.5343 34.4402 35.5731 34.3671L35.7966 33.9393L36.0019 33.5324L36.1908 33.1466L36.365 32.782L36.8826 31.6747L37.0733 31.2815L37.1942 31.0468C37.214 31.0095 37.2338 30.9731 37.2534 30.9377L37.3704 30.7361C37.7975 30.0377 38.2145 29.7881 38.9931 30.0145C40.1992 30.3651 39.9944 32.3371 38.5141 34.6355C37.0854 36.595 35.2377 38.2939 33.0098 39.585C30.7967 40.8676 28.4242 41.6228 26.0361 41.8897C30.8579 39.6133 33.9127 37.3328 35.2004 35.0479L35.4541 34.5889Z" fill-rule="evenodd" stroke="rgb(0,0,0)" stroke-opacity="0" stroke-width="1" />
				<path id="路径-21" d="M15.3896 27.5476L17.5556 22.1575L19.6987 27.5476" stroke="rgb(254,194,72)" stroke-linecap="round" stroke-linejoin="round" stroke-width="1.12565255" />
				<rect id="矩形" width="3.942068" height="1.127655" x="15.573730" y="25.661865" rx="0.563827" fill="rgb(254,194,72)" />
				<rect id="矩形" width="3.942068" height="1.127655" x="15.573730" y="25.661865" rx="0.563827" stroke="rgb(0,0,0)" stroke-opacity="0" stroke-width="1" />
				<path id="路径-26" d="M25.7358 27.3751L26.7775 22.4351L28.7951 27.3751L30.8098 22.4351L31.9565 27.3751" opacity="0.800000012" stroke="rgb(48,153,208)" stroke-linecap="round" stroke-linejoin="round" stroke-width="1.12565255" />
				<path id="路径-22" d="M21.7358 22.1575L21.7358 27.3751L25.7359 27.3751" opacity="0.800000012" stroke="rgb(225,32,32)" stroke-linecap="round" stroke-linejoin="round" stroke-width="1.12565255" />
			</g>
		</g>
	</g>
</svg>
