<svg viewBox="0 0 48 48" xmlns="http://www.w3.org/2000/svg" xmlns:xlink="http://www.w3.org/1999/xlink" width="48.000000" height="48.000000" fill="none">
	<rect id="制品类型图标/hexo48" width="48.000000" height="48.000000" x="0.000000" y="0.000000" />
	<g id="模型/hexo48">
		<path id="形状" d="M24.032 6L8.032 15.0313L8 33.0313L23.968 42L39.968 32.9687L40 14.9687L24.032 6ZM31.44 31.7098L29.968 32.5465L28.48 31.6864L28.48 25.4857L19.52 25.4857L19.52 31.7098L18.048 32.5465L16.56 31.6864L16.56 16.2824L18.04 15.4535L19.52 16.298L19.52 22.5143L28.48 22.5143L28.48 16.2902L29.96 15.4613L31.44 16.3058L31.44 31.7098Z" fill="rgb(14,131,205)" fill-rule="nonzero" />
		<path id="形状" d="M8.032 15.0313L8 33.0313L23.968 42L39.968 32.9687L40 14.9687L24.032 6L8.032 15.0313ZM29.968 32.5465L28.48 31.6864L28.48 25.4857L19.52 25.4857L19.52 31.7098L18.048 32.5465L16.56 31.6864L16.56 16.2824L18.04 15.4535L19.52 16.298L19.52 22.5143L28.48 22.5143L28.48 16.2902L29.96 15.4613L31.44 16.3058L31.44 31.7098L29.968 32.5465Z" fill-rule="nonzero" stroke="rgb(0,0,0)" stroke-opacity="0" stroke-width="1" />
	</g>
</svg>
