<svg viewBox="0 0 48 48" xmlns="http://www.w3.org/2000/svg" xmlns:xlink="http://www.w3.org/1999/xlink" width="48.000000" height="48.000000" fill="none">
	<rect id="制品类型图标/Pypi48" width="48.000000" height="48.000000" x="0.000000" y="0.000000" />
	<g id="模型/Pypi48">
		<g id="Pypi-60x60">
			<g id="编组">
				<path id="路径" d="M16.3257 18.4744L21.411 20.3177L21.411 26.2684L16.3257 24.4251L16.3257 18.4744Z" fill="rgb(233,233,255)" fill-rule="nonzero" />
				<path id="路径" d="M21.411 20.3177L21.411 26.2684L16.3257 24.4251L16.3257 18.4744L21.411 20.3177Z" fill-rule="nonzero" stroke="rgb(204,204,204)" stroke-linejoin="bevel" stroke-width="0.214000002" />
				<path id="路径" d="M11.1655 20.3448L11.1655 26.2956L16.3255 24.4251L16.3255 18.4744L11.1655 20.3448Z" fill="rgb(53,53,100)" fill-rule="nonzero" />
				<path id="路径" d="M11.1655 26.2956L16.3255 24.4251L16.3255 18.4744L11.1655 20.3448L11.1655 26.2956Z" fill-rule="nonzero" stroke="rgb(204,204,204)" stroke-linejoin="bevel" stroke-width="0.214000002" />
				<path id="路径" d="M11.1655 26.2955L16.2503 28.1382L21.4103 26.2683L16.3255 24.425L11.1655 26.2955Z" fill="rgb(175,175,222)" fill-rule="nonzero" />
				<path id="路径" d="M16.2503 28.1382L21.4103 26.2683L16.3255 24.425L11.1655 26.2955L16.2503 28.1382Z" fill-rule="nonzero" stroke="rgb(204,204,204)" stroke-linejoin="bevel" stroke-width="0.214000002" />
				<path id="路径" d="M11.1655 20.3448L16.2503 22.1876L21.4103 20.3177L16.3255 18.4744L11.1655 20.3448Z" fill="rgb(247,247,244)" fill-rule="nonzero" />
				<path id="路径" d="M16.2503 22.1876L21.4103 20.3177L16.3255 18.4744L11.1655 20.3448L16.2503 22.1876Z" fill-rule="nonzero" stroke="rgb(204,204,204)" stroke-linejoin="bevel" stroke-width="0.214000002" />
				<path id="路径" d="M16.25 22.1875L16.25 28.1383L21.41 26.2684L21.41 20.3176L16.25 22.1875Z" fill="rgb(255,255,255)" fill-rule="nonzero" />
				<path id="路径" d="M16.25 28.1383L21.41 26.2684L21.41 20.3176L16.25 22.1875L16.25 28.1383Z" fill-rule="nonzero" stroke="rgb(204,204,204)" stroke-linejoin="bevel" stroke-width="0.214000002" />
				<path id="路径" d="M11.1655 20.3447L16.2503 22.1875L16.2503 28.1383L11.1655 26.2955L11.1655 20.3447Z" fill="rgb(239,238,234)" fill-rule="nonzero" />
				<path id="路径" d="M16.2503 22.1875L16.2503 28.1383L11.1655 26.2955L11.1655 20.3447L16.2503 22.1875Z" fill-rule="nonzero" stroke="rgb(204,204,204)" stroke-linejoin="bevel" stroke-width="0.214000002" />
				<path id="路径" d="M21.4326 14.3142L26.5179 16.157L26.5179 22.1077L21.4326 20.265L21.4326 14.3142Z" fill="rgb(233,233,255)" fill-rule="nonzero" />
				<path id="路径" d="M26.5179 16.157L26.5179 22.1077L21.4326 20.265L21.4326 14.3142L26.5179 16.157Z" fill-rule="nonzero" stroke="rgb(204,204,204)" stroke-linejoin="bevel" stroke-width="0.214000002" />
				<path id="路径" d="M16.2725 16.1841L16.2725 22.1349L21.4325 20.265L21.4325 14.3142L16.2725 16.1841Z" fill="rgb(53,53,100)" fill-rule="nonzero" />
				<path id="路径" d="M16.2725 22.1349L21.4325 20.265L21.4325 14.3142L16.2725 16.1841L16.2725 22.1349Z" fill-rule="nonzero" stroke="rgb(204,204,204)" stroke-linejoin="bevel" stroke-width="0.214000002" />
				<path id="路径" d="M16.2725 22.1348L21.3572 23.9775L26.5177 22.1076L21.4325 20.2649L16.2725 22.1348Z" fill="rgb(175,175,222)" fill-rule="nonzero" />
				<path id="路径" d="M21.3572 23.9775L26.5177 22.1076L21.4325 20.2649L16.2725 22.1348L21.3572 23.9775Z" fill-rule="nonzero" stroke="rgb(204,204,204)" stroke-linejoin="bevel" stroke-width="0.214000002" />
				<path id="路径" d="M16.2725 16.1841L21.3572 18.0269L26.5177 16.157L21.4325 14.3142L16.2725 16.1841Z" fill="rgb(247,247,244)" fill-rule="nonzero" />
				<path id="路径" d="M21.3572 18.0269L26.5177 16.157L21.4325 14.3142L16.2725 16.1841L21.3572 18.0269Z" fill-rule="nonzero" stroke="rgb(204,204,204)" stroke-linejoin="bevel" stroke-width="0.214000002" />
				<path id="路径" d="M21.3574 18.0269L21.3574 23.9782L26.518 22.1083L26.518 16.157L21.3574 18.0269Z" fill="rgb(255,255,255)" fill-rule="nonzero" />
				<path id="路径" d="M21.3574 23.9782L26.518 22.1083L26.518 16.157L21.3574 18.0269L21.3574 23.9782Z" fill-rule="nonzero" stroke="rgb(204,204,204)" stroke-linejoin="bevel" stroke-width="0.214000002" />
				<path id="路径" d="M16.2725 16.1841L21.3572 18.0268L21.3572 23.9782L16.2725 22.1354L16.2725 16.1841Z" fill="rgb(239,238,234)" fill-rule="nonzero" />
				<path id="路径" d="M21.3572 18.0268L21.3572 23.9782L16.2725 22.1354L16.2725 16.1841L21.3572 18.0268Z" fill-rule="nonzero" stroke="rgb(204,204,204)" stroke-linejoin="bevel" stroke-width="0.214000002" />
				<path id="路径" d="M11.2183 26.3335L16.303 28.1762L16.303 34.127L11.2183 32.2843L11.2183 26.3335Z" fill="rgb(233,233,255)" fill-rule="nonzero" />
				<path id="路径" d="M16.303 28.1762L16.303 34.127L11.2183 32.2843L11.2183 26.3335L16.303 28.1762Z" fill-rule="nonzero" stroke="rgb(204,204,204)" stroke-linejoin="bevel" stroke-width="0.214000002" />
				<path id="路径" d="M6.05762 28.2034L6.05762 34.1542L11.2176 32.2843L11.2176 26.3335L6.05762 28.2034Z" fill="rgb(53,53,100)" fill-rule="nonzero" />
				<path id="路径" d="M6.05762 34.1542L11.2176 32.2843L11.2176 26.3335L6.05762 28.2034L6.05762 34.1542Z" fill-rule="nonzero" stroke="rgb(204,204,204)" stroke-linejoin="bevel" stroke-width="0.214000002" />
				<path id="路径" d="M6.05762 34.1543L11.1434 35.9971L16.3034 34.1272L11.2187 32.2844L6.05762 34.1543Z" fill="rgb(175,175,222)" fill-rule="nonzero" />
				<path id="路径" d="M11.1434 35.9971L16.3034 34.1272L11.2187 32.2844L6.05762 34.1543L11.1434 35.9971Z" fill-rule="nonzero" stroke="rgb(204,204,204)" stroke-linejoin="bevel" stroke-width="0.214000002" />
				<path id="路径" d="M6.05762 28.2034L11.1429 30.0462L16.3029 28.1762L11.2182 26.3335L6.05762 28.2034Z" fill="rgb(247,247,244)" fill-rule="nonzero" />
				<path id="路径" d="M11.1429 30.0462L16.3029 28.1762L11.2182 26.3335L6.05762 28.2034L11.1429 30.0462Z" fill-rule="nonzero" stroke="rgb(204,204,204)" stroke-linejoin="bevel" stroke-width="0.214000002" />
				<path id="路径" d="M11.1431 30.0462L11.1431 35.997L16.3031 34.1271L16.3031 28.1763L11.1431 30.0462Z" fill="rgb(255,255,255)" fill-rule="nonzero" />
				<path id="路径" d="M11.1431 35.997L16.3031 34.1271L16.3031 28.1763L11.1431 30.0462L11.1431 35.997Z" fill-rule="nonzero" stroke="rgb(204,204,204)" stroke-linejoin="bevel" stroke-width="0.214000002" />
				<path id="路径" d="M6.05762 28.2036L11.1429 30.0464L11.1429 35.9971L6.05762 34.1544L6.05762 28.2036Z" fill="rgb(239,238,234)" fill-rule="nonzero" />
				<path id="路径" d="M11.1429 30.0464L11.1429 35.9971L6.05762 34.1544L6.05762 28.2036L11.1429 30.0464Z" fill-rule="nonzero" stroke="rgb(204,204,204)" stroke-linejoin="bevel" stroke-width="0.214000002" />
			</g>
			<g id="编组">
				<path id="路径" d="M16.3257 28.1829L21.411 30.0256L21.411 35.9764L16.3257 34.1336L16.3257 28.1829Z" fill="rgb(233,233,255)" fill-rule="nonzero" />
				<path id="路径" d="M21.411 30.0256L21.411 35.9764L16.3257 34.1336L16.3257 28.1829L21.411 30.0256Z" fill-rule="nonzero" stroke="rgb(204,204,204)" stroke-linejoin="bevel" stroke-width="0.214000002" />
				<path id="路径" d="M11.1655 30.0528L11.1655 36.0036L16.3255 34.1336L16.3255 28.1829L11.1655 30.0528Z" fill="rgb(53,53,100)" fill-rule="nonzero" />
				<path id="路径" d="M11.1655 36.0036L16.3255 34.1336L16.3255 28.1829L11.1655 30.0528L11.1655 36.0036Z" fill-rule="nonzero" stroke="rgb(204,204,204)" stroke-linejoin="bevel" stroke-width="0.214000002" />
				<path id="路径" d="M11.1655 36.0034L16.2503 37.8462L21.4103 35.9763L16.3255 34.1335L11.1655 36.0034Z" fill="rgb(175,175,222)" fill-rule="nonzero" />
				<path id="路径" d="M16.2503 37.8462L21.4103 35.9763L16.3255 34.1335L11.1655 36.0034L16.2503 37.8462Z" fill-rule="nonzero" stroke="rgb(204,204,204)" stroke-linejoin="bevel" stroke-width="0.214000002" />
				<path id="路径" d="M11.1655 30.0528L16.2503 31.8955L21.4103 30.0256L16.3255 28.1829L11.1655 30.0528Z" fill="rgb(247,247,244)" fill-rule="nonzero" />
				<path id="路径" d="M16.2503 31.8955L21.4103 30.0256L16.3255 28.1829L11.1655 30.0528L16.2503 31.8955Z" fill-rule="nonzero" stroke="rgb(204,204,204)" stroke-linejoin="bevel" stroke-width="0.214000002" />
				<path id="路径" d="M16.25 31.8955L16.25 37.8463L21.41 35.9764L21.41 30.0256L16.25 31.8955Z" fill="rgb(255,255,255)" fill-rule="nonzero" />
				<path id="路径" d="M16.25 37.8463L21.41 35.9764L21.41 30.0256L16.25 31.8955L16.25 37.8463Z" fill-rule="nonzero" stroke="rgb(204,204,204)" stroke-linejoin="bevel" stroke-width="0.214000002" />
				<path id="路径" d="M11.1655 30.0527L16.2503 31.8955L16.2503 37.8463L11.1655 36.0035L11.1655 30.0527Z" fill="rgb(239,238,234)" fill-rule="nonzero" />
				<path id="路径" d="M16.2503 31.8955L16.2503 37.8463L11.1655 36.0035L11.1655 30.0527L16.2503 31.8955Z" fill-rule="nonzero" stroke="rgb(204,204,204)" stroke-linejoin="bevel" stroke-width="0.214000002" />
			</g>
			<g id="编组">
				<path id="路径" d="M16.3257 22.1729L21.411 24.0156L21.411 29.9664L16.3257 28.1236L16.3257 22.1729Z" fill="rgb(233,233,255)" fill-rule="nonzero" />
				<path id="路径" d="M21.411 24.0156L21.411 29.9664L16.3257 28.1236L16.3257 22.1729L21.411 24.0156Z" fill-rule="nonzero" stroke="rgb(204,204,204)" stroke-linejoin="bevel" stroke-width="0.214000002" />
				<path id="路径" d="M11.1655 24.0433L11.1655 29.9935L16.3255 28.1236L16.3255 22.1729L11.1655 24.0433Z" fill="rgb(53,53,100)" fill-rule="nonzero" />
				<path id="路径" d="M11.1655 29.9935L16.3255 28.1236L16.3255 22.1729L11.1655 24.0433L11.1655 29.9935Z" fill-rule="nonzero" stroke="rgb(204,204,204)" stroke-linejoin="bevel" stroke-width="0.214000002" />
				<path id="路径" d="M11.1655 29.9937L16.2503 31.837L21.4103 29.9665L16.3255 28.1238L11.1655 29.9937Z" fill="rgb(175,175,222)" fill-rule="nonzero" />
				<path id="路径" d="M16.2503 31.837L21.4103 29.9665L16.3255 28.1238L11.1655 29.9937L16.2503 31.837Z" fill-rule="nonzero" stroke="rgb(204,204,204)" stroke-linejoin="bevel" stroke-width="0.214000002" />
				<path id="路径" d="M11.1655 24.0433L16.2503 25.886L21.4103 24.0156L16.3255 22.1729L11.1655 24.0433Z" fill="rgb(247,247,244)" fill-rule="nonzero" />
				<path id="路径" d="M16.2503 25.886L21.4103 24.0156L16.3255 22.1729L11.1655 24.0433L16.2503 25.886Z" fill-rule="nonzero" stroke="rgb(204,204,204)" stroke-linejoin="bevel" stroke-width="0.214000002" />
				<path id="路径" d="M16.25 25.886L16.25 31.8368L21.41 29.9664L21.41 24.0161L16.25 25.886Z" fill="rgb(255,255,255)" fill-rule="nonzero" />
				<path id="路径" d="M16.25 31.8368L21.41 29.9664L21.41 24.0161L16.25 25.886L16.25 31.8368Z" fill-rule="nonzero" stroke="rgb(204,204,204)" stroke-linejoin="bevel" stroke-width="0.214000002" />
				<path id="路径" d="M11.1655 24.0435L16.2503 25.8862L16.2503 31.837L11.1655 29.9937L11.1655 24.0435Z" fill="rgb(239,238,234)" fill-rule="nonzero" />
				<path id="路径" d="M16.2503 25.8862L16.2503 31.837L11.1655 29.9937L11.1655 24.0435L16.2503 25.8862Z" fill-rule="nonzero" stroke="rgb(204,204,204)" stroke-linejoin="bevel" stroke-width="0.214000002" />
			</g>
			<g id="编组">
				<path id="路径" d="M36.7544 24.4844L41.8397 26.3271L41.8397 32.2779L36.7544 30.4352L36.7544 24.4844Z" fill="rgb(233,233,255)" fill-rule="nonzero" />
				<path id="路径" d="M41.8397 26.3271L41.8397 32.2779L36.7544 30.4352L36.7544 24.4844L41.8397 26.3271Z" fill-rule="nonzero" stroke="rgb(204,204,204)" stroke-linejoin="bevel" stroke-width="0.214000002" />
				<path id="路径" d="M31.5942 26.3543L31.5942 32.3051L36.7542 30.4352L36.7542 24.4844L31.5942 26.3543Z" fill="rgb(53,53,100)" fill-rule="nonzero" />
				<path id="路径" d="M31.5942 32.3051L36.7542 30.4352L36.7542 24.4844L31.5942 26.3543L31.5942 32.3051Z" fill-rule="nonzero" stroke="rgb(204,204,204)" stroke-linejoin="bevel" stroke-width="0.214000002" />
				<path id="路径" d="M31.5942 32.305L36.679 34.1483L41.839 32.2778L36.7542 30.4351L31.5942 32.305Z" fill="rgb(175,175,222)" fill-rule="nonzero" />
				<path id="路径" d="M36.679 34.1483L41.839 32.2778L36.7542 30.4351L31.5942 32.305L36.679 34.1483Z" fill-rule="nonzero" stroke="rgb(204,204,204)" stroke-linejoin="bevel" stroke-width="0.214000002" />
				<path id="路径" d="M31.5942 26.3543L36.679 28.1976L41.839 26.3271L36.7542 24.4844L31.5942 26.3543Z" fill="rgb(247,247,244)" fill-rule="nonzero" />
				<path id="路径" d="M36.679 28.1976L41.839 26.3271L36.7542 24.4844L31.5942 26.3543L36.679 28.1976Z" fill-rule="nonzero" stroke="rgb(204,204,204)" stroke-linejoin="bevel" stroke-width="0.214000002" />
				<path id="路径" d="M36.6792 28.1976L36.6792 34.1484L41.8392 32.2779L41.8392 26.3271L36.6792 28.1976Z" fill="rgb(255,255,255)" fill-rule="nonzero" />
				<path id="路径" d="M36.6792 34.1484L41.8392 32.2779L41.8392 26.3271L36.6792 28.1976L36.6792 34.1484Z" fill-rule="nonzero" stroke="rgb(204,204,204)" stroke-linejoin="bevel" stroke-width="0.214000002" />
				<path id="路径" d="M31.5942 26.3542L36.679 28.1975L36.679 34.1483L31.5942 32.305L31.5942 26.3542Z" fill="rgb(239,238,234)" fill-rule="nonzero" />
				<path id="路径" d="M36.679 28.1975L36.679 34.1483L31.5942 32.305L31.5942 26.3542L36.679 28.1975Z" fill-rule="nonzero" stroke="rgb(204,204,204)" stroke-linejoin="bevel" stroke-width="0.214000002" />
			</g>
			<g id="编组">
				<path id="路径" d="M31.6455 26.3328L36.7304 28.1756L36.7304 34.1263L31.6455 32.2835L31.6455 26.3328Z" fill="rgb(233,233,255)" fill-rule="nonzero" />
				<path id="路径" d="M36.7304 28.1756L36.7304 34.1263L31.6455 32.2835L31.6455 26.3328L36.7304 28.1756Z" fill-rule="nonzero" stroke="rgb(204,204,204)" stroke-linejoin="bevel" stroke-width="0.5" />
				<path id="路径" d="M26.4854 28.2027L26.4854 34.1535L31.6456 32.2834L31.6456 26.333L26.4854 28.2027Z" fill="rgb(53,53,100)" fill-rule="nonzero" />
				<path id="路径" d="M26.4854 34.1535L31.6456 32.2834L31.6456 26.333L26.4854 28.2027L26.4854 34.1535Z" fill-rule="nonzero" stroke="rgb(204,204,204)" stroke-linejoin="bevel" stroke-width="0.5" />
				<path id="路径" d="M26.4854 34.1535L31.5702 35.9963L36.7305 34.1263L31.6456 32.2834L26.4854 34.1535Z" fill="rgb(175,175,222)" fill-rule="nonzero" />
				<path id="路径" d="M31.5702 35.9963L36.7305 34.1263L31.6456 32.2834L26.4854 34.1535L31.5702 35.9963Z" fill-rule="nonzero" stroke="rgb(204,204,204)" stroke-linejoin="bevel" stroke-width="0.5" />
				<path id="路径" d="M26.4854 28.2028L31.5702 30.0456L36.7305 28.1756L31.6456 26.3328L26.4854 28.2028Z" fill="rgb(247,247,244)" fill-rule="nonzero" />
				<path id="路径" d="M31.5702 30.0456L36.7305 28.1756L31.6456 26.3328L26.4854 28.2028L31.5702 30.0456Z" fill-rule="nonzero" stroke="rgb(204,204,204)" stroke-linejoin="bevel" stroke-width="0.5" />
				<path id="路径" d="M31.5703 30.0457L31.5703 35.9965L36.7306 34.1264L36.7306 28.176L31.5703 30.0457Z" fill="rgb(255,210,66)" fill-rule="nonzero" />
				<path id="路径" d="M31.5703 35.9965L36.7306 34.1264L36.7306 28.176L31.5703 30.0457L31.5703 35.9965Z" fill-rule="nonzero" stroke="rgb(204,204,204)" stroke-linejoin="bevel" stroke-width="0.5" />
				<path id="路径" d="M26.4854 28.2029L31.5702 30.0457L31.5702 35.9964L26.4854 34.1536L26.4854 28.2029Z" fill="rgb(239,238,234)" fill-rule="nonzero" />
				<path id="路径" d="M31.5702 30.0457L31.5702 35.9964L26.4854 34.1536L26.4854 28.2029L31.5702 30.0457Z" fill-rule="nonzero" stroke="rgb(204,204,204)" stroke-linejoin="bevel" stroke-width="0.5" />
			</g>
			<g id="编组">
				<path id="路径" d="M26.54 28.1829L31.6248 30.0256L31.6248 35.9764L26.54 34.1336L26.54 28.1829Z" fill="rgb(233,233,255)" fill-rule="nonzero" />
				<path id="路径" d="M31.6248 30.0256L31.6248 35.9764L26.54 34.1336L26.54 28.1829L31.6248 30.0256Z" fill-rule="nonzero" stroke="rgb(204,204,204)" stroke-linejoin="bevel" stroke-width="0.214000002" />
				<path id="路径" d="M21.3799 30.0528L21.3799 36.0036L26.5399 34.1336L26.5399 28.1829L21.3799 30.0528Z" fill="rgb(53,53,100)" fill-rule="nonzero" />
				<path id="路径" d="M21.3799 36.0036L26.5399 34.1336L26.5399 28.1829L21.3799 30.0528L21.3799 36.0036Z" fill-rule="nonzero" stroke="rgb(204,204,204)" stroke-linejoin="bevel" stroke-width="0.214000002" />
				<path id="路径" d="M21.3799 36.0034L26.4652 37.8462L31.6252 35.9763L26.5404 34.1335L21.3799 36.0034Z" fill="rgb(175,175,222)" fill-rule="nonzero" />
				<path id="路径" d="M26.4652 37.8462L31.6252 35.9763L26.5404 34.1335L21.3799 36.0034L26.4652 37.8462Z" fill-rule="nonzero" stroke="rgb(204,204,204)" stroke-linejoin="bevel" stroke-width="0.214000002" />
				<path id="路径" d="M21.3799 30.0528L26.4652 31.8955L31.6252 30.0256L26.5404 28.1829L21.3799 30.0528Z" fill="rgb(247,247,244)" fill-rule="nonzero" />
				<path id="路径" d="M26.4652 31.8955L31.6252 30.0256L26.5404 28.1829L21.3799 30.0528L26.4652 31.8955Z" fill-rule="nonzero" stroke="rgb(204,204,204)" stroke-linejoin="bevel" stroke-width="0.214000002" />
				<path id="路径" d="M26.4648 31.8955L26.4648 37.8463L31.6248 35.9764L31.6248 30.0256L26.4648 31.8955Z" fill="rgb(255,210,66)" fill-rule="nonzero" />
				<path id="路径" d="M26.4648 37.8463L31.6248 35.9764L31.6248 30.0256L26.4648 31.8955L26.4648 37.8463Z" fill-rule="nonzero" stroke="rgb(204,204,204)" stroke-linejoin="bevel" stroke-width="0.214000002" />
				<path id="路径" d="M21.3799 30.0527L26.4652 31.8955L26.4652 37.8463L21.3799 36.0035L21.3799 30.0527Z" fill="rgb(239,238,234)" fill-rule="nonzero" />
				<path id="路径" d="M26.4652 31.8955L26.4652 37.8463L21.3799 36.0035L21.3799 30.0527L26.4652 31.8955Z" fill-rule="nonzero" stroke="rgb(204,204,204)" stroke-linejoin="bevel" stroke-width="0.214000002" />
			</g>
			<g id="编组">
				<path id="路径" d="M21.4326 30.0322L26.5179 31.875L26.5179 37.8258L21.4326 35.983L21.4326 30.0322Z" fill="rgb(233,233,255)" fill-rule="nonzero" />
				<path id="路径" d="M26.5179 31.875L26.5179 37.8258L21.4326 35.983L21.4326 30.0322L26.5179 31.875Z" fill-rule="nonzero" stroke="rgb(204,204,204)" stroke-linejoin="bevel" stroke-width="0.214000002" />
				<path id="路径" d="M16.2725 31.9021L16.2725 37.8529L21.4325 35.983L21.4325 30.0322L16.2725 31.9021Z" fill="rgb(53,53,100)" fill-rule="nonzero" />
				<path id="路径" d="M16.2725 37.8529L21.4325 35.983L21.4325 30.0322L16.2725 31.9021L16.2725 37.8529Z" fill-rule="nonzero" stroke="rgb(204,204,204)" stroke-linejoin="bevel" stroke-width="0.214000002" />
				<path id="路径" d="M16.2725 37.8528L21.3572 39.6956L26.5172 37.8257L21.4325 35.9829L16.2725 37.8528Z" fill="rgb(175,175,222)" fill-rule="nonzero" />
				<path id="路径" d="M21.3572 39.6956L26.5172 37.8257L21.4325 35.9829L16.2725 37.8528L21.3572 39.6956Z" fill-rule="nonzero" stroke="rgb(204,204,204)" stroke-linejoin="bevel" stroke-width="0.214000002" />
				<path id="路径" d="M16.2725 31.9021L21.3572 33.7449L26.5172 31.875L21.4325 30.0322L16.2725 31.9021Z" fill="rgb(247,247,244)" fill-rule="nonzero" />
				<path id="路径" d="M21.3572 33.7449L26.5172 31.875L21.4325 30.0322L16.2725 31.9021L21.3572 33.7449Z" fill-rule="nonzero" stroke="rgb(204,204,204)" stroke-linejoin="bevel" stroke-width="0.214000002" />
				<path id="路径" d="M21.3574 33.7449L21.3574 39.6957L26.5174 37.8258L26.5174 31.875L21.3574 33.7449Z" fill="rgb(255,255,255)" fill-rule="nonzero" />
				<path id="路径" d="M21.3574 39.6957L26.5174 37.8258L26.5174 31.875L21.3574 33.7449L21.3574 39.6957Z" fill-rule="nonzero" stroke="rgb(204,204,204)" stroke-linejoin="bevel" stroke-width="0.214000002" />
				<path id="路径" d="M16.2725 31.9021L21.3572 33.7449L21.3572 39.6956L16.2725 37.8529L16.2725 31.9021Z" fill="rgb(239,238,234)" fill-rule="nonzero" />
				<path id="路径" d="M21.3572 33.7449L21.3572 39.6956L16.2725 37.8529L16.2725 31.9021L21.3572 33.7449Z" fill-rule="nonzero" stroke="rgb(204,204,204)" stroke-linejoin="bevel" stroke-width="0.214000002" />
			</g>
			<g id="编组">
				<path id="路径" d="M36.7544 18.4744L41.8397 20.3177L41.8397 26.2684L36.7544 24.4251L36.7544 18.4744Z" fill="rgb(233,233,255)" fill-rule="nonzero" />
				<path id="路径" d="M41.8397 20.3177L41.8397 26.2684L36.7544 24.4251L36.7544 18.4744L41.8397 20.3177Z" fill-rule="nonzero" stroke="rgb(204,204,204)" stroke-linejoin="bevel" stroke-width="0.214000002" />
				<path id="路径" d="M31.5942 20.3448L31.5942 26.2956L36.7542 24.4251L36.7542 18.4744L31.5942 20.3448Z" fill="rgb(53,53,100)" fill-rule="nonzero" />
				<path id="路径" d="M31.5942 26.2956L36.7542 24.4251L36.7542 18.4744L31.5942 20.3448L31.5942 26.2956Z" fill-rule="nonzero" stroke="rgb(204,204,204)" stroke-linejoin="bevel" stroke-width="0.214000002" />
				<path id="路径" d="M31.5942 26.2955L36.679 28.1382L41.839 26.2683L36.7542 24.425L31.5942 26.2955Z" fill="rgb(175,175,222)" fill-rule="nonzero" />
				<path id="路径" d="M36.679 28.1382L41.839 26.2683L36.7542 24.425L31.5942 26.2955L36.679 28.1382Z" fill-rule="nonzero" stroke="rgb(204,204,204)" stroke-linejoin="bevel" stroke-width="0.214000002" />
				<path id="路径" d="M31.5942 20.3448L36.679 22.1876L41.839 20.3177L36.7542 18.4744L31.5942 20.3448Z" fill="rgb(247,247,244)" fill-rule="nonzero" />
				<path id="路径" d="M36.679 22.1876L41.839 20.3177L36.7542 18.4744L31.5942 20.3448L36.679 22.1876Z" fill-rule="nonzero" stroke="rgb(204,204,204)" stroke-linejoin="bevel" stroke-width="0.214000002" />
				<path id="路径" d="M36.6792 22.1875L36.6792 28.1383L41.8392 26.2684L41.8392 20.3176L36.6792 22.1875Z" fill="rgb(255,210,66)" fill-rule="nonzero" />
				<path id="路径" d="M36.6792 28.1383L41.8392 26.2684L41.8392 20.3176L36.6792 22.1875L36.6792 28.1383Z" fill-rule="nonzero" stroke="rgb(204,204,204)" stroke-linejoin="bevel" stroke-width="0.214000002" />
				<path id="路径" d="M31.5942 20.3447L36.679 22.1875L36.679 28.1383L31.5942 26.2955L31.5942 20.3447Z" fill="rgb(239,238,234)" fill-rule="nonzero" />
				<path id="路径" d="M36.679 22.1875L36.679 28.1383L31.5942 26.2955L31.5942 20.3447L36.679 22.1875Z" fill-rule="nonzero" stroke="rgb(204,204,204)" stroke-linejoin="bevel" stroke-width="0.214000002" />
			</g>
			<g id="编组">
				<path id="路径" d="M36.7544 12.4644L41.8397 14.3076L41.8397 20.2579L36.7544 18.4151L36.7544 12.4644Z" fill="rgb(233,233,255)" fill-rule="nonzero" />
				<path id="路径" d="M41.8397 14.3076L41.8397 20.2579L36.7544 18.4151L36.7544 12.4644L41.8397 14.3076Z" fill-rule="nonzero" stroke="rgb(204,204,204)" stroke-linejoin="bevel" stroke-width="0.214000002" />
				<path id="路径" d="M31.5942 14.3348L31.5942 20.2856L36.7542 18.4157L36.7542 12.4644L31.5942 14.3348Z" fill="rgb(53,53,100)" fill-rule="nonzero" />
				<path id="路径" d="M31.5942 20.2856L36.7542 18.4157L36.7542 12.4644L31.5942 14.3348L31.5942 20.2856Z" fill-rule="nonzero" stroke="rgb(204,204,204)" stroke-linejoin="bevel" stroke-width="0.214000002" />
				<path id="路径" d="M31.5942 20.2857L36.679 22.1284L41.839 20.2585L36.7542 18.4158L31.5942 20.2857Z" fill="rgb(175,175,222)" fill-rule="nonzero" />
				<path id="路径" d="M36.679 22.1284L41.839 20.2585L36.7542 18.4158L31.5942 20.2857L36.679 22.1284Z" fill-rule="nonzero" stroke="rgb(204,204,204)" stroke-linejoin="bevel" stroke-width="0.214000002" />
				<path id="路径" d="M31.5942 14.3347L36.679 16.1775L41.839 14.3076L36.7542 12.4648L31.5942 14.3347Z" fill="rgb(255,201,29)" fill-rule="nonzero" />
				<path id="路径" d="M36.679 16.1775L41.839 14.3076L36.7542 12.4648L31.5942 14.3347L36.679 16.1775Z" fill-rule="nonzero" stroke="rgb(204,204,204)" stroke-linejoin="bevel" stroke-width="0.214000002" />
				<path id="路径" d="M36.6792 16.1775L36.6792 22.1283L41.8392 20.2584L41.8392 14.3076L36.6792 16.1775Z" fill="rgb(255,210,66)" fill-rule="nonzero" />
				<path id="路径" d="M36.6792 22.1283L41.8392 20.2584L41.8392 14.3076L36.6792 16.1775L36.6792 22.1283Z" fill-rule="nonzero" stroke="rgb(204,204,204)" stroke-linejoin="bevel" stroke-width="0.214000002" />
				<path id="路径" d="M31.5942 14.3347L36.679 16.1775L36.679 22.1283L31.5942 20.2855L31.5942 14.3347Z" fill="rgb(239,238,234)" fill-rule="nonzero" />
				<path id="路径" d="M36.679 16.1775L36.679 22.1283L31.5942 20.2855L31.5942 14.3347L36.679 16.1775Z" fill-rule="nonzero" stroke="rgb(204,204,204)" stroke-linejoin="bevel" stroke-width="0.214000002" />
			</g>
			<g id="编组">
				<path id="路径" d="M31.6475 20.3237L36.7322 22.1665L36.7322 28.1173L31.6475 26.2745L31.6475 20.3237Z" fill="rgb(233,233,255)" fill-rule="nonzero" />
				<path id="路径" d="M36.7322 22.1665L36.7322 28.1173L31.6475 26.2745L31.6475 20.3237L36.7322 22.1665Z" fill-rule="nonzero" stroke="rgb(204,204,204)" stroke-linejoin="bevel" stroke-width="0.214000002" />
				<path id="路径" d="M26.4873 22.1942L26.4873 28.145L31.6473 26.2745L31.6473 20.3237L26.4873 22.1942Z" fill="rgb(53,53,100)" fill-rule="nonzero" />
				<path id="路径" d="M26.4873 28.145L31.6473 26.2745L31.6473 20.3237L26.4873 22.1942L26.4873 28.145Z" fill-rule="nonzero" stroke="rgb(204,204,204)" stroke-linejoin="bevel" stroke-width="0.214000002" />
				<path id="路径" d="M26.4873 28.1449L31.572 29.9876L36.732 28.1172L31.6473 26.2744L26.4873 28.1449Z" fill="rgb(175,175,222)" fill-rule="nonzero" />
				<path id="路径" d="M31.572 29.9876L36.732 28.1172L31.6473 26.2744L26.4873 28.1449L31.572 29.9876Z" fill-rule="nonzero" stroke="rgb(204,204,204)" stroke-linejoin="bevel" stroke-width="0.214000002" />
				<path id="路径" d="M26.4873 22.1942L31.572 24.0369L36.732 22.1665L31.6473 20.3237L26.4873 22.1942Z" fill="rgb(247,247,244)" fill-rule="nonzero" />
				<path id="路径" d="M31.572 24.0369L36.732 22.1665L31.6473 20.3237L26.4873 22.1942L31.572 24.0369Z" fill-rule="nonzero" stroke="rgb(204,204,204)" stroke-linejoin="bevel" stroke-width="0.214000002" />
				<path id="路径" d="M31.5718 24.0367L31.5718 29.9875L36.7318 28.117L36.7318 22.1663L31.5718 24.0367Z" fill="rgb(255,210,66)" fill-rule="nonzero" />
				<path id="路径" d="M31.5718 29.9875L36.7318 28.117L36.7318 22.1663L31.5718 24.0367L31.5718 29.9875Z" fill-rule="nonzero" stroke="rgb(204,204,204)" stroke-linejoin="bevel" stroke-width="0.214000002" />
				<path id="路径" d="M26.4874 22.1941L31.5721 24.0368L31.5721 29.9876L26.4868 28.1449L26.4874 22.1941Z" fill="rgb(239,238,234)" fill-rule="nonzero" />
				<path id="路径" d="M31.5721 24.0368L31.5721 29.9876L26.4868 28.1449L26.4874 22.1941L31.5721 24.0368Z" fill-rule="nonzero" stroke="rgb(204,204,204)" stroke-linejoin="bevel" stroke-width="0.214000002" />
			</g>
			<g id="编组">
				<path id="路径" d="M31.6475 14.3142L36.7322 16.157L36.7322 22.1077L31.6475 20.265L31.6475 14.3142Z" fill="rgb(233,233,255)" fill-rule="nonzero" />
				<path id="路径" d="M36.7322 16.157L36.7322 22.1077L31.6475 20.265L31.6475 14.3142L36.7322 16.157Z" fill-rule="nonzero" stroke="rgb(204,204,204)" stroke-linejoin="bevel" stroke-width="0.214000002" />
				<path id="路径" d="M26.4873 16.1841L26.4873 22.1349L31.6473 20.265L31.6473 14.3142L26.4873 16.1841Z" fill="rgb(53,53,100)" fill-rule="nonzero" />
				<path id="路径" d="M26.4873 22.1349L31.6473 20.265L31.6473 14.3142L26.4873 16.1841L26.4873 22.1349Z" fill-rule="nonzero" stroke="rgb(204,204,204)" stroke-linejoin="bevel" stroke-width="0.214000002" />
				<path id="路径" d="M26.4873 22.1348L31.572 23.9775L36.732 22.1076L31.6473 20.2649L26.4873 22.1348Z" fill="rgb(175,175,222)" fill-rule="nonzero" />
				<path id="路径" d="M31.572 23.9775L36.732 22.1076L31.6473 20.2649L26.4873 22.1348L31.572 23.9775Z" fill-rule="nonzero" stroke="rgb(204,204,204)" stroke-linejoin="bevel" stroke-width="0.214000002" />
				<path id="路径" d="M26.4873 16.1841L31.572 18.0269L36.732 16.157L31.6473 14.3142L26.4873 16.1841Z" fill="rgb(247,247,244)" fill-rule="nonzero" />
				<path id="路径" d="M31.572 18.0269L36.732 16.157L31.6473 14.3142L26.4873 16.1841L31.572 18.0269Z" fill-rule="nonzero" stroke="rgb(204,204,204)" stroke-linejoin="bevel" stroke-width="0.214000002" />
				<path id="路径" d="M31.5718 18.0269L31.5718 23.9782L36.7318 22.1083L36.7318 16.157L31.5718 18.0269Z" fill="rgb(55,117,169)" fill-rule="nonzero" />
				<path id="路径" d="M31.5718 23.9782L36.7318 22.1083L36.7318 16.157L31.5718 18.0269L31.5718 23.9782Z" fill-rule="nonzero" stroke="rgb(204,204,204)" stroke-linejoin="bevel" stroke-width="0.214000002" />
				<path id="路径" d="M26.4874 16.1841L31.5721 18.0268L31.5721 23.9782L26.4868 22.1354L26.4874 16.1841Z" fill="rgb(239,238,234)" fill-rule="nonzero" />
				<path id="路径" d="M31.5721 18.0268L31.5721 23.9782L26.4868 22.1354L26.4874 16.1841L31.5721 18.0268Z" fill-rule="nonzero" stroke="rgb(204,204,204)" stroke-linejoin="bevel" stroke-width="0.214000002" />
			</g>
			<g id="编组">
				<path id="路径" d="M31.6475 8.3042L36.7322 10.1469L36.7322 16.0977L31.6475 14.255L31.6475 8.3042Z" fill="rgb(233,233,255)" fill-rule="nonzero" />
				<path id="路径" d="M36.7322 10.1469L36.7322 16.0977L31.6475 14.255L31.6475 8.3042L36.7322 10.1469Z" fill-rule="nonzero" stroke="rgb(204,204,204)" stroke-linejoin="bevel" stroke-width="0.214000002" />
				<path id="路径" d="M26.4873 10.1741L26.4873 16.1249L31.6473 14.255L31.6473 8.3042L26.4873 10.1741Z" fill="rgb(53,53,100)" fill-rule="nonzero" />
				<path id="路径" d="M26.4873 16.1249L31.6473 14.255L31.6473 8.3042L26.4873 10.1741L26.4873 16.1249Z" fill-rule="nonzero" stroke="rgb(204,204,204)" stroke-linejoin="bevel" stroke-width="0.214000002" />
				<path id="路径" d="M26.4873 16.1248L31.572 17.9675L36.732 16.0976L31.6473 14.2549L26.4873 16.1248Z" fill="rgb(175,175,222)" fill-rule="nonzero" />
				<path id="路径" d="M31.572 17.9675L36.732 16.0976L31.6473 14.2549L26.4873 16.1248L31.572 17.9675Z" fill-rule="nonzero" stroke="rgb(204,204,204)" stroke-linejoin="bevel" stroke-width="0.214000002" />
				<path id="路径" d="M26.4873 10.1741L31.572 12.0169L36.732 10.1469L31.6473 8.3042L26.4873 10.1741Z" fill="rgb(47,100,145)" fill-rule="nonzero" />
				<path id="路径" d="M31.572 12.0169L36.732 10.1469L31.6473 8.3042L26.4873 10.1741L31.572 12.0169Z" fill-rule="nonzero" stroke="rgb(204,204,204)" stroke-linejoin="bevel" stroke-width="0.214000002" />
				<path id="路径" d="M31.5718 12.0169L31.5718 17.9677L36.7318 16.0978L36.7318 10.147L31.5718 12.0169Z" fill="rgb(55,117,169)" fill-rule="nonzero" />
				<path id="路径" d="M31.5718 17.9677L36.7318 16.0978L36.7318 10.147L31.5718 12.0169L31.5718 17.9677Z" fill-rule="nonzero" stroke="rgb(204,204,204)" stroke-linejoin="bevel" stroke-width="0.214000002" />
				<path id="路径" d="M26.4874 10.1741L31.5721 12.0168L31.5721 17.9676L26.4868 16.1249L26.4874 10.1741Z" fill="rgb(239,238,234)" fill-rule="nonzero" />
				<path id="路径" d="M31.5721 12.0168L31.5721 17.9676L26.4868 16.1249L26.4874 10.1741L31.5721 12.0168Z" fill-rule="nonzero" stroke="rgb(204,204,204)" stroke-linejoin="bevel" stroke-width="0.214000002" />
			</g>
			<g id="编组">
				<path id="路径" d="M26.54 22.1729L31.6248 24.0156L31.6248 29.9664L26.54 28.1236L26.54 22.1729Z" fill="rgb(233,233,255)" fill-rule="nonzero" />
				<path id="路径" d="M31.6248 24.0156L31.6248 29.9664L26.54 28.1236L26.54 22.1729L31.6248 24.0156Z" fill-rule="nonzero" stroke="rgb(204,204,204)" stroke-linejoin="bevel" stroke-width="0.214000002" />
				<path id="路径" d="M21.3799 24.0433L21.3799 29.9935L26.5399 28.1236L26.5399 22.1729L21.3799 24.0433Z" fill="rgb(53,53,100)" fill-rule="nonzero" />
				<path id="路径" d="M21.3799 29.9935L26.5399 28.1236L26.5399 22.1729L21.3799 24.0433L21.3799 29.9935Z" fill-rule="nonzero" stroke="rgb(204,204,204)" stroke-linejoin="bevel" stroke-width="0.214000002" />
				<path id="路径" d="M21.3799 29.9937L26.4652 31.837L31.6252 29.9665L26.5404 28.1238L21.3799 29.9937Z" fill="rgb(175,175,222)" fill-rule="nonzero" />
				<path id="路径" d="M26.4652 31.837L31.6252 29.9665L26.5404 28.1238L21.3799 29.9937L26.4652 31.837Z" fill-rule="nonzero" stroke="rgb(204,204,204)" stroke-linejoin="bevel" stroke-width="0.214000002" />
				<path id="路径" d="M21.3799 24.0433L26.4652 25.886L31.6252 24.0156L26.5404 22.1729L21.3799 24.0433Z" fill="rgb(247,247,244)" fill-rule="nonzero" />
				<path id="路径" d="M26.4652 25.886L31.6252 24.0156L26.5404 22.1729L21.3799 24.0433L26.4652 25.886Z" fill-rule="nonzero" stroke="rgb(204,204,204)" stroke-linejoin="bevel" stroke-width="0.214000002" />
				<path id="路径" d="M26.4648 25.886L26.4648 31.8368L31.6248 29.9664L31.6248 24.0161L26.4648 25.886Z" fill="rgb(255,210,66)" fill-rule="nonzero" />
				<path id="路径" d="M26.4648 31.8368L31.6248 29.9664L31.6248 24.0161L26.4648 25.886L26.4648 31.8368Z" fill-rule="nonzero" stroke="rgb(204,204,204)" stroke-linejoin="bevel" stroke-width="0.214000002" />
				<path id="路径" d="M21.3799 24.0435L26.4652 25.8862L26.4652 31.837L21.3799 29.9937L21.3799 24.0435Z" fill="rgb(239,238,234)" fill-rule="nonzero" />
				<path id="路径" d="M26.4652 25.8862L26.4652 31.837L21.3799 29.9937L21.3799 24.0435L26.4652 25.8862Z" fill-rule="nonzero" stroke="rgb(204,204,204)" stroke-linejoin="bevel" stroke-width="0.214000002" />
			</g>
			<g id="编组">
				<path id="路径" d="M26.54 16.1628L31.6248 18.0061L31.6248 23.9564L26.54 22.1131L26.54 16.1628Z" fill="rgb(233,233,255)" fill-rule="nonzero" />
				<path id="路径" d="M31.6248 18.0061L31.6248 23.9564L26.54 22.1131L26.54 16.1628L31.6248 18.0061Z" fill-rule="nonzero" stroke="rgb(204,204,204)" stroke-linejoin="bevel" stroke-width="0.214000002" />
				<path id="路径" d="M21.3799 18.0333L21.3799 23.9835L26.5399 22.1131L26.5399 16.1628L21.3799 18.0333Z" fill="rgb(53,53,100)" fill-rule="nonzero" />
				<path id="路径" d="M21.3799 23.9835L26.5399 22.1131L26.5399 16.1628L21.3799 18.0333L21.3799 23.9835Z" fill-rule="nonzero" stroke="rgb(204,204,204)" stroke-linejoin="bevel" stroke-width="0.214000002" />
				<path id="路径" d="M21.3799 23.9837L26.4652 25.827L31.6252 23.9571L26.5404 22.1138L21.3799 23.9837Z" fill="rgb(175,175,222)" fill-rule="nonzero" />
				<path id="路径" d="M26.4652 25.827L31.6252 23.9571L26.5404 22.1138L21.3799 23.9837L26.4652 25.827Z" fill-rule="nonzero" stroke="rgb(204,204,204)" stroke-linejoin="bevel" stroke-width="0.214000002" />
				<path id="路径" d="M21.3799 18.0333L26.4652 19.876L31.6252 18.0061L26.5404 16.1628L21.3799 18.0333Z" fill="rgb(247,247,244)" fill-rule="nonzero" />
				<path id="路径" d="M26.4652 19.876L31.6252 18.0061L26.5404 16.1628L21.3799 18.0333L26.4652 19.876Z" fill-rule="nonzero" stroke="rgb(204,204,204)" stroke-linejoin="bevel" stroke-width="0.214000002" />
				<path id="路径" d="M26.4648 19.876L26.4648 25.8268L31.6248 23.9569L31.6248 18.0061L26.4648 19.876Z" fill="rgb(55,117,169)" fill-rule="nonzero" />
				<path id="路径" d="M26.4648 25.8268L31.6248 23.9569L31.6248 18.0061L26.4648 19.876L26.4648 25.8268Z" fill-rule="nonzero" stroke="rgb(204,204,204)" stroke-linejoin="bevel" stroke-width="0.214000002" />
				<path id="路径" d="M21.3799 18.0334L26.4652 19.8762L26.4652 25.827L21.3799 23.9842L21.3799 18.0334Z" fill="rgb(239,238,234)" fill-rule="nonzero" />
				<path id="路径" d="M26.4652 19.8762L26.4652 25.827L21.3799 23.9842L21.3799 18.0334L26.4652 19.8762Z" fill-rule="nonzero" stroke="rgb(204,204,204)" stroke-linejoin="bevel" stroke-width="0.214000002" />
			</g>
			<g id="编组">
				<path id="路径" d="M21.4326 24.0217L26.5179 25.865L26.5179 31.8158L21.4326 29.9731L21.4326 24.0217Z" fill="rgb(233,233,255)" fill-rule="nonzero" />
				<path id="路径" d="M26.5179 25.865L26.5179 31.8158L21.4326 29.9731L21.4326 24.0217L26.5179 25.865Z" fill-rule="nonzero" stroke="rgb(204,204,204)" stroke-linejoin="bevel" stroke-width="0.214000002" />
				<path id="路径" d="M16.2725 25.8922L16.2725 31.843L21.4325 29.9731L21.4325 24.0217L16.2725 25.8922Z" fill="rgb(53,53,100)" fill-rule="nonzero" />
				<path id="路径" d="M16.2725 31.843L21.4325 29.9731L21.4325 24.0217L16.2725 25.8922L16.2725 31.843Z" fill-rule="nonzero" stroke="rgb(204,204,204)" stroke-linejoin="bevel" stroke-width="0.214000002" />
				<path id="路径" d="M16.2725 31.8428L21.3572 33.6856L26.5172 31.8157L21.4325 29.9729L16.2725 31.8428Z" fill="rgb(175,175,222)" fill-rule="nonzero" />
				<path id="路径" d="M21.3572 33.6856L26.5172 31.8157L21.4325 29.9729L16.2725 31.8428L21.3572 33.6856Z" fill-rule="nonzero" stroke="rgb(204,204,204)" stroke-linejoin="bevel" stroke-width="0.214000002" />
				<path id="路径" d="M16.2725 25.8921L21.3572 27.7349L26.5172 25.865L21.4325 24.0222L16.2725 25.8921Z" fill="rgb(247,247,244)" fill-rule="nonzero" />
				<path id="路径" d="M21.3572 27.7349L26.5172 25.865L21.4325 24.0222L16.2725 25.8921L21.3572 27.7349Z" fill-rule="nonzero" stroke="rgb(204,204,204)" stroke-linejoin="bevel" stroke-width="0.214000002" />
				<path id="路径" d="M21.3574 27.7349L21.3574 33.6857L26.5174 31.8158L26.5174 25.865L21.3574 27.7349Z" fill="rgb(55,117,169)" fill-rule="nonzero" />
				<path id="路径" d="M21.3574 33.6857L26.5174 31.8158L26.5174 25.865L21.3574 27.7349L21.3574 33.6857Z" fill-rule="nonzero" stroke="rgb(204,204,204)" stroke-linejoin="bevel" stroke-width="0.214000002" />
				<path id="路径" d="M16.2725 25.8921L21.3572 27.7348L21.3572 33.6856L16.2725 31.8429L16.2725 25.8921Z" fill="rgb(47,100,145)" fill-rule="nonzero" />
				<path id="路径" d="M21.3572 27.7348L21.3572 33.6856L16.2725 31.8429L16.2725 25.8921L21.3572 27.7348Z" fill-rule="nonzero" stroke="rgb(204,204,204)" stroke-linejoin="bevel" stroke-width="0.214000002" />
			</g>
			<g id="编组">
				<path id="路径" d="M21.4326 18.0122L26.5179 19.855L26.5179 25.8057L21.4326 23.963L21.4326 18.0122Z" fill="rgb(233,233,255)" fill-rule="nonzero" />
				<path id="路径" d="M26.5179 19.855L26.5179 25.8057L21.4326 23.963L21.4326 18.0122L26.5179 19.855Z" fill-rule="nonzero" stroke="rgb(204,204,204)" stroke-linejoin="bevel" stroke-width="0.214000002" />
				<path id="路径" d="M16.2725 19.8827L16.2725 25.8334L21.4325 23.963L21.4325 18.0122L16.2725 19.8827Z" fill="rgb(53,53,100)" fill-rule="nonzero" />
				<path id="路径" d="M16.2725 25.8334L21.4325 23.963L21.4325 18.0122L16.2725 19.8827L16.2725 25.8334Z" fill-rule="nonzero" stroke="rgb(204,204,204)" stroke-linejoin="bevel" stroke-width="0.214000002" />
				<path id="路径" d="M16.2725 25.8333L21.3572 27.6761L26.5172 25.8056L21.4325 23.9629L16.2725 25.8333Z" fill="rgb(175,175,222)" fill-rule="nonzero" />
				<path id="路径" d="M21.3572 27.6761L26.5172 25.8056L21.4325 23.9629L16.2725 25.8333L21.3572 27.6761Z" fill-rule="nonzero" stroke="rgb(204,204,204)" stroke-linejoin="bevel" stroke-width="0.214000002" />
				<path id="路径" d="M16.2725 19.8827L21.3572 21.7254L26.5172 19.855L21.4325 18.0122L16.2725 19.8827Z" fill="rgb(47,100,145)" fill-rule="nonzero" />
				<path id="路径" d="M21.3572 21.7254L26.5172 19.855L21.4325 18.0122L16.2725 19.8827L21.3572 21.7254Z" fill-rule="nonzero" stroke="rgb(204,204,204)" stroke-linejoin="bevel" stroke-width="0.214000002" />
				<path id="路径" d="M21.3574 21.7254L21.3574 27.6762L26.5174 25.8058L26.5174 19.855L21.3574 21.7254Z" fill="rgb(55,117,169)" fill-rule="nonzero" />
				<path id="路径" d="M21.3574 27.6762L26.5174 25.8058L26.5174 19.855L21.3574 21.7254L21.3574 27.6762Z" fill-rule="nonzero" stroke="rgb(204,204,204)" stroke-linejoin="bevel" stroke-width="0.214000002" />
				<path id="路径" d="M16.2725 19.8826L21.3572 21.7253L21.3572 27.6761L16.2725 25.8334L16.2725 19.8826Z" fill="rgb(47,100,145)" fill-rule="nonzero" />
				<path id="路径" d="M21.3572 21.7253L21.3572 27.6761L16.2725 25.8334L16.2725 19.8826L21.3572 21.7253Z" fill-rule="nonzero" stroke="rgb(204,204,204)" stroke-linejoin="bevel" stroke-width="0.214000002" />
			</g>
			<g id="编组">
				<path id="路径" d="M26.5381 10.1528L31.6233 11.9956L31.6233 17.9464L26.5381 16.1036L26.5381 10.1528Z" fill="rgb(233,233,255)" fill-rule="nonzero" />
				<path id="路径" d="M31.6233 11.9956L31.6233 17.9464L26.5381 16.1036L26.5381 10.1528L31.6233 11.9956Z" fill-rule="nonzero" stroke="rgb(204,204,204)" stroke-linejoin="bevel" stroke-width="0.5" />
				<path id="路径" d="M21.3779 12.0229L21.3779 17.9736L26.5382 16.1036L26.5382 10.1528L21.3779 12.0229Z" fill="rgb(53,53,100)" fill-rule="nonzero" />
				<path id="路径" d="M21.3779 17.9736L26.5382 16.1036L26.5382 10.1528L21.3779 12.0229L21.3779 17.9736Z" fill-rule="nonzero" stroke="rgb(204,204,204)" stroke-linejoin="bevel" stroke-width="0.5" />
				<path id="路径" d="M21.3779 17.9736L26.4632 19.8164L31.6234 17.9463L26.5382 16.1035L21.3779 17.9736Z" fill="rgb(175,175,222)" fill-rule="nonzero" />
				<path id="路径" d="M26.4632 19.8164L31.6234 17.9463L26.5382 16.1035L21.3779 17.9736L26.4632 19.8164Z" fill-rule="nonzero" stroke="rgb(204,204,204)" stroke-linejoin="bevel" stroke-width="0.5" />
				<path id="路径" d="M21.3779 12.0229L26.4632 13.8657L31.6234 11.9956L26.5382 10.1528L21.3779 12.0229Z" fill="rgb(47,100,145)" fill-rule="nonzero" />
				<path id="路径" d="M26.4632 13.8657L31.6234 11.9956L26.5382 10.1528L21.3779 12.0229L26.4632 13.8657Z" fill-rule="nonzero" stroke="rgb(204,204,204)" stroke-linejoin="bevel" stroke-width="0.5" />
				<path id="路径" d="M26.4634 13.8657L26.4634 19.8164L31.6236 17.9463L31.6236 11.9956L26.4634 13.8657Z" fill="rgb(55,117,169)" fill-rule="nonzero" />
				<path id="路径" d="M26.4634 19.8164L31.6236 17.9463L31.6236 11.9956L26.4634 13.8657L26.4634 19.8164Z" fill-rule="nonzero" stroke="rgb(204,204,204)" stroke-linejoin="bevel" stroke-width="0.5" />
				<path id="路径" d="M21.3779 12.0227L26.4632 13.8655L26.4632 19.8162L21.3779 17.9734L21.3779 12.0227Z" fill="rgb(47,100,145)" fill-rule="nonzero" />
				<path id="路径" d="M26.4632 13.8655L26.4632 19.8162L21.3779 17.9734L21.3779 12.0227L26.4632 13.8655Z" fill-rule="nonzero" stroke="rgb(204,204,204)" stroke-linejoin="bevel" stroke-width="0.5" />
			</g>
		</g>
	</g>
</svg>
