<svg viewBox="0 0 48 48" xmlns="http://www.w3.org/2000/svg" xmlns:xlink="http://www.w3.org/1999/xlink" width="48.000000" height="48.000000" fill="none">
	<rect id="制品类型图标/rpm48" width="48.000000" height="48.000000" x="0.000000" y="0.000000" />
	<g id="模型/rpm48">
		<g id="rpm-60x60">
			<path id="路径" d="M26.2817 28.7686C26.2817 27.6311 26.2817 26.4736 26.2817 25.3361C26.2817 25.0368 26.3609 24.937 26.6777 24.937C31.0528 24.9769 35.4477 24.8771 39.8229 24.9969C40.4564 25.0168 41.0899 25.1166 41.7234 25.2962C42.1985 25.4359 42.4558 25.6754 42.4361 26.2541C42.3965 28.2298 42.4163 30.2054 42.4361 32.1811C42.4361 32.5004 42.3569 32.6002 42.0401 32.6002C41.169 32.5802 40.298 32.5802 39.4269 32.6002C39.0706 32.6201 39.0112 32.4804 39.0112 32.1412C39.031 30.2054 39.0112 28.2896 39.031 26.3539C39.031 25.9348 38.8924 25.7353 38.4965 25.7153C37.7838 25.6953 37.0711 25.6953 36.3782 25.6754C36.0416 25.6754 36.1406 25.9149 36.1406 26.0945C36.1406 28.0103 36.1406 29.926 36.1406 31.8219C36.1406 32.5403 36.1406 32.5403 35.4279 32.5403C34.6361 32.5403 33.8442 32.5203 33.0523 32.5403C32.7355 32.5403 32.6762 32.4405 32.6762 32.1412C32.696 30.1855 32.6762 28.2098 32.696 26.2541C32.696 25.8749 32.5772 25.7153 32.2208 25.6754C31.4883 25.5756 30.7756 25.6355 30.0432 25.6155C29.6868 25.5956 29.8056 25.8749 29.8056 26.0346C29.7858 28.0302 29.7858 30.0258 29.8056 32.0214C29.8056 32.4405 29.7066 32.5403 29.2909 32.5403C28.4396 32.5004 27.5685 32.5203 26.7173 32.5403C26.4203 32.5403 26.3213 32.4605 26.3213 32.1611C26.3015 31.0635 26.2817 29.926 26.2817 28.7686Z" fill="rgb(0,0,0)" fill-rule="nonzero" />
			<path id="路径" d="M26.2817 25.3361C26.2817 25.0368 26.3609 24.937 26.6777 24.937C31.0528 24.9769 35.4477 24.8771 39.8229 24.9969C40.4564 25.0168 41.0899 25.1166 41.7234 25.2962C42.1985 25.4359 42.4558 25.6754 42.4361 26.2541C42.3965 28.2298 42.4163 30.2054 42.4361 32.1811C42.4361 32.5004 42.3569 32.6002 42.0401 32.6002C41.169 32.5802 40.298 32.5802 39.4269 32.6002C39.0706 32.6201 39.0112 32.4804 39.0112 32.1412C39.031 30.2054 39.0112 28.2896 39.031 26.3539C39.031 25.9348 38.8924 25.7353 38.4965 25.7153C37.7838 25.6953 37.0711 25.6953 36.3782 25.6754C36.0416 25.6754 36.1406 25.9149 36.1406 26.0945C36.1406 28.0103 36.1406 29.926 36.1406 31.8219C36.1406 32.5403 36.1406 32.5403 35.4279 32.5403C34.6361 32.5403 33.8442 32.5203 33.0523 32.5403C32.7355 32.5403 32.6762 32.4405 32.6762 32.1412C32.696 30.1855 32.6762 28.2098 32.696 26.2541C32.696 25.8749 32.5772 25.7153 32.2208 25.6754C31.4883 25.5756 30.7756 25.6355 30.0432 25.6155C29.6868 25.5956 29.8056 25.8749 29.8056 26.0346C29.7858 28.0302 29.7858 30.0258 29.8056 32.0214C29.8056 32.4405 29.7066 32.5403 29.2909 32.5403C28.4396 32.5004 27.5685 32.5203 26.7173 32.5403C26.4203 32.5403 26.3213 32.4605 26.3213 32.1611C26.3015 31.0635 26.2817 29.926 26.2817 28.7686C26.2817 27.6311 26.2817 26.4736 26.2817 25.3361Z" fill-rule="nonzero" stroke="rgb(0,0,0)" stroke-opacity="0" stroke-width="1" />
			<path id="路径" d="M30.835 14.5398C28.9938 13.8214 27.1131 13.3424 25.1334 13.2426C21.5898 13.0231 18.1847 13.6018 15.0766 15.4179C13.4532 16.3757 12.107 17.6529 11.4537 19.5089C11.137 20.4069 11.038 21.3249 11.2756 22.2429C11.3943 22.6819 11.3745 22.8615 10.84 22.9413C9.0979 23.2207 7.35576 23.56 5.61363 23.8793C5.27708 23.9391 5.11871 23.9391 5.1583 23.4801C5.31668 21.3847 6.22734 19.6486 7.63292 18.1518C10.1867 15.3979 13.4532 13.9211 17.0167 13.063C21.8471 11.8856 26.6578 11.9854 31.4487 13.2825C31.5476 13.3025 31.6268 13.3424 31.7258 13.3823C31.6268 13.9012 31.3497 14.3203 30.835 14.5398Z" fill="rgb(0,0,0)" fill-rule="nonzero" />
			<path id="路径" d="M25.1334 13.2426C21.5898 13.0231 18.1847 13.6018 15.0766 15.4179C13.4532 16.3757 12.107 17.6529 11.4537 19.5089C11.137 20.4069 11.038 21.3249 11.2756 22.2429C11.3943 22.6819 11.3745 22.8615 10.84 22.9413C9.0979 23.2207 7.35576 23.56 5.61363 23.8793C5.27708 23.9391 5.11871 23.9391 5.1583 23.4801C5.31668 21.3847 6.22734 19.6486 7.63292 18.1518C10.1867 15.3979 13.4532 13.9211 17.0167 13.063C21.8471 11.8856 26.6578 11.9854 31.4487 13.2825C31.5476 13.3025 31.6268 13.3424 31.7258 13.3823C31.6268 13.9012 31.3497 14.3203 30.835 14.5398C28.9938 13.8214 27.1131 13.3424 25.1334 13.2426Z" fill-rule="nonzero" stroke="rgb(0,0,0)" stroke-opacity="0" stroke-width="1" />
			<path id="路径" d="M30.835 14.5397C31.1913 14.2005 31.4289 13.7614 31.7258 13.3623C34.735 14.2603 37.5065 15.6173 39.7238 17.9123C41.2284 19.4489 42.238 21.245 42.4162 23.4601C42.4162 23.5599 42.4558 23.6597 42.4756 23.7395C42.3172 23.8592 42.1192 23.7994 41.9411 23.7794C40.1989 23.4801 38.4766 23.1408 36.7345 22.8415C36.5365 22.8016 36.3385 22.8016 36.2197 22.582C36.8928 19.429 35.2893 17.3934 32.9532 15.6972C32.3197 15.2382 31.5674 14.9189 30.835 14.5397Z" fill="rgb(194,54,47)" fill-rule="nonzero" />
			<path id="路径" d="M31.7258 13.3623C34.735 14.2603 37.5065 15.6173 39.7238 17.9123C41.2284 19.4489 42.238 21.245 42.4162 23.4601C42.4162 23.5599 42.4558 23.6597 42.4756 23.7395C42.3172 23.8592 42.1192 23.7994 41.9411 23.7794C40.1989 23.4801 38.4766 23.1408 36.7345 22.8415C36.5365 22.8016 36.3385 22.8016 36.2197 22.582C36.8928 19.429 35.2893 17.3934 32.9532 15.6972C32.3197 15.2382 31.5674 14.9189 30.835 14.5397C31.1913 14.2005 31.4289 13.7614 31.7258 13.3623Z" fill-rule="nonzero" stroke="rgb(0,0,0)" stroke-opacity="0" stroke-width="1" />
			<path id="路径" d="M12.8197 25.4956C12.2258 25.8748 11.6714 26.234 11.1171 26.5932C10.9983 26.673 10.939 26.653 10.8202 26.5732C10.2461 26.1941 9.61256 26.214 8.97906 26.2739C8.62271 26.3138 8.54353 26.4535 8.56332 26.7728C8.58312 28.509 8.54353 30.2252 8.58312 31.9614C8.60292 32.5002 8.42474 32.6199 7.92982 32.6C7.11814 32.5601 6.30647 32.58 5.51459 32.6C5.23743 32.6 5.11865 32.58 5.11865 32.2408C5.13845 29.9258 5.13845 27.6309 5.11865 25.316C5.11865 24.9967 5.21764 24.9368 5.51459 24.9368C6.34606 24.9568 7.19733 24.857 8.0288 24.9767C8.82068 25.0965 9.59276 24.9568 10.3648 24.8969C11.1963 24.837 11.9882 25.0566 12.8197 25.4956Z" fill="rgb(0,0,0)" fill-rule="nonzero" />
			<path id="路径" d="M11.1171 26.5932C10.9983 26.673 10.939 26.653 10.8202 26.5732C10.2461 26.1941 9.61256 26.214 8.97906 26.2739C8.62271 26.3138 8.54353 26.4535 8.56332 26.7728C8.58312 28.509 8.54353 30.2252 8.58312 31.9614C8.60292 32.5002 8.42474 32.6199 7.92982 32.6C7.11814 32.5601 6.30647 32.58 5.51459 32.6C5.23743 32.6 5.11865 32.58 5.11865 32.2408C5.13845 29.9258 5.13845 27.6309 5.11865 25.316C5.11865 24.9967 5.21764 24.9368 5.51459 24.9368C6.34606 24.9568 7.19733 24.857 8.0288 24.9767C8.82068 25.0965 9.59276 24.9568 10.3648 24.8969C11.1963 24.837 11.9882 25.0566 12.8197 25.4956C12.2258 25.8748 11.6714 26.234 11.1171 26.5932Z" fill-rule="nonzero" stroke="rgb(0,0,0)" stroke-opacity="0" stroke-width="1" />
			<path id="形状" d="M14.0078 29.8263C14.0078 28.3295 14.0078 26.8328 14.0078 25.3361C14.0078 25.0966 14.0276 24.937 14.3444 24.937C15.9677 24.9769 17.6109 24.8372 19.2342 25.0966C20.6398 25.3162 21.9662 25.7153 23.0748 26.7131C24.2824 27.7907 24.3814 29.4271 23.2332 30.5447C22.1048 31.6622 20.6596 32.1412 19.155 32.4605C18.7195 32.5602 18.284 32.6201 17.8484 32.6401C17.5119 32.66 17.4723 32.7997 17.4921 33.0591C17.5119 33.2188 17.4921 33.3984 17.4921 33.5581C17.4921 34.2565 17.4921 34.2565 16.819 34.3563C16.0073 34.4561 15.1956 34.5559 14.384 34.6955C14.0672 34.7355 14.0276 34.6357 14.0276 34.3563C14.0276 32.8396 14.0078 31.323 14.0078 29.8263ZM17.4723 31.4627C17.4723 31.742 17.5317 31.8019 17.8088 31.7221C18.3829 31.5624 18.8779 31.2831 19.3134 30.9039C19.9469 30.385 20.4616 29.7863 20.521 28.8883C20.62 27.3517 18.8977 25.9747 17.6702 25.7951C17.3931 25.7552 17.4723 25.9548 17.4723 26.0745C17.4723 26.9526 17.4723 27.8306 17.4723 28.7087C17.4723 29.6466 17.4921 30.5646 17.4723 31.4627Z" fill="rgb(0,0,0)" fill-rule="nonzero" />
			<path id="形状" d="M14.0078 25.3361C14.0078 25.0966 14.0276 24.937 14.3444 24.937C15.9677 24.9769 17.6109 24.8372 19.2342 25.0966C20.6398 25.3162 21.9662 25.7153 23.0748 26.7131C24.2824 27.7907 24.3814 29.4271 23.2332 30.5447C22.1048 31.6622 20.6596 32.1412 19.155 32.4605C18.7195 32.5602 18.284 32.6201 17.8484 32.6401C17.5119 32.66 17.4723 32.7997 17.4921 33.0591C17.5119 33.2188 17.4921 33.3984 17.4921 33.5581C17.4921 34.2565 17.4921 34.2565 16.819 34.3563C16.0073 34.4561 15.1956 34.5559 14.384 34.6955C14.0672 34.7355 14.0276 34.6357 14.0276 34.3563C14.0276 32.8396 14.0078 31.323 14.0078 29.8263C14.0078 28.3295 14.0078 26.8328 14.0078 25.3361ZM17.8088 31.7221C18.3829 31.5624 18.8779 31.2831 19.3134 30.9039C19.9469 30.385 20.4616 29.7863 20.521 28.8883C20.62 27.3517 18.8977 25.9747 17.6702 25.7951C17.3931 25.7552 17.4723 25.9548 17.4723 26.0745C17.4723 26.9526 17.4723 27.8306 17.4723 28.7087C17.4723 29.6466 17.4921 30.5646 17.4723 31.4627C17.4723 31.742 17.5317 31.8019 17.8088 31.7221Z" fill-rule="nonzero" stroke="rgb(0,0,0)" stroke-opacity="0" stroke-width="1" />
			<path id="路径" d="M23.9059 19.7085C24.2758 19.7085 24.578 20.0007 24.5977 20.3686L43.8372 23.9025L43.7664 24.2952L24.5013 20.7643C24.3804 20.9686 24.159 21.1054 23.9059 21.1054C23.5649 21.1054 23.2814 20.8571 23.2237 20.5301L21.9897 20.304L22.0606 19.9113L23.2684 20.1328C23.3741 19.8833 23.6197 19.7085 23.9059 19.7085Z" fill="rgb(0,0,0)" fill-rule="nonzero" />
			<path id="路径" d="M24.5977 20.3686L43.8372 23.9025L43.7664 24.2952L24.5013 20.7643C24.3804 20.9686 24.159 21.1054 23.9059 21.1054C23.5649 21.1054 23.2814 20.8571 23.2237 20.5301L21.9897 20.304L22.0606 19.9113L23.2684 20.1328C23.3741 19.8833 23.6197 19.7085 23.9059 19.7085C24.2758 19.7085 24.578 20.0007 24.5977 20.3686Z" fill-rule="nonzero" stroke="rgb(0,0,0)" stroke-opacity="0" stroke-width="1" />
		</g>
	</g>
</svg>
