<svg viewBox="0 0 32 32" xmlns="http://www.w3.org/2000/svg" xmlns:xlink="http://www.w3.org/1999/xlink" width="32.000000" height="32.000000" fill="none" customFrame="#000000">
	<defs>
		<filter id="pixso_custom_mask_type_outline">
			<feColorMatrix type="matrix" values="0 0 0 0 1 0 0 0 0 1 0 0 0 0 1 0 0 0 1 0 " />
		</filter>
	</defs>
	<mask id="mask_27" width="24.000000" height="28.000000" x="4.000000" y="2.000000" maskUnits="userSpaceOnUse">
		<g filter="url(#pixso_custom_mask_type_outline)">
			<path id="蒙版" d="M7 2L20 2L28 10L28 27C28 28.6569 26.6569 30 25 30L7 30C5.34315 30 4 28.6569 4 27L4 5C4 3.34315 5.34315 2 7 2Z" fill="rgb(255,255,255)" fill-rule="evenodd" />
			<path id="蒙版" d="M20 2L7 2C5.34315 2 4 3.34315 4 5L4 27C4 28.6569 5.34315 30 7 30L25 30C26.6569 30 28 28.6569 28 27L28 10L20 2ZM19.5858 3L27 10.4142L27 27Q27 27.2366 26.9472 27.4607Q26.909 27.6227 26.8432 27.7782Q26.7744 27.9409 26.6798 28.0869Q26.5657 28.2627 26.4142 28.4142Q26.2627 28.5657 26.0869 28.6797Q25.9409 28.7744 25.7782 28.8432Q25.6227 28.909 25.4607 28.9472Q25.2366 29 25 29L7 29Q6.76343 29 6.53931 28.9472Q6.37731 28.909 6.22182 28.8432Q6.05905 28.7744 5.91306 28.6797Q5.73727 28.5657 5.58579 28.4142Q5.43429 28.2627 5.32027 28.0869Q5.22559 27.9409 5.15676 27.7782Q5.091 27.6227 5.05282 27.4607Q5 27.2366 5 27L5 5Q5 4.76342 5.05282 4.53929Q5.09099 4.3773 5.15676 4.22182Q5.22561 4.05904 5.32031 3.91303Q5.43432 3.73726 5.58579 3.58579Q5.73726 3.43431 5.91303 3.32031Q6.05904 3.22561 6.22182 3.15676Q6.3773 3.09099 6.53929 3.05282Q6.76342 3 7 3L19.5858 3Z" fill="rgb(223,225,230)" fill-opacity="0" fill-rule="evenodd" />
		</g>
	</mask>
	<rect id="雪碧图/32px/image" width="32.000000" height="32.000000" x="0.000000" y="0.000000" fill="rgb(255,255,255)" fill-opacity="0" />
	<g id="组合 3855">
		<rect id="矩形" width="32.000000" height="32.000000" x="0.000000" y="0.000000" rx="6.000000" fill="rgb(238,240,245)" fill-opacity="0" />
		<rect id="矩形" width="31.000000" height="31.000000" x="0.500000" y="0.500000" rx="5.500000" stroke="rgb(151,151,151)" stroke-opacity="0" stroke-width="1" />
		<g id="图标/空文件夹 copy 2" showMaskRef="url(#show_mask_21)" mask="url(#mask_27)">
			<g id="show_mask_21">
				<path id="蒙版" d="M7 2L20 2L28 10L28 27C28 28.6569 26.6569 30 25 30L7 30C5.34315 30 4 28.6569 4 27L4 5C4 3.34315 5.34315 2 7 2Z" fill="rgb(57,121,249)" fill-rule="evenodd" />
				<path id="蒙版" d="M20 2L7 2C5.34315 2 4 3.34315 4 5L4 27C4 28.6569 5.34315 30 7 30L25 30C26.6569 30 28 28.6569 28 27L28 10L20 2ZM19.5858 3L27 10.4142L27 27Q27 27.2366 26.9472 27.4607Q26.909 27.6227 26.8432 27.7782Q26.7744 27.9409 26.6798 28.0869Q26.5657 28.2627 26.4142 28.4142Q26.2627 28.5657 26.0869 28.6797Q25.9409 28.7744 25.7782 28.8432Q25.6227 28.909 25.4607 28.9472Q25.2366 29 25 29L7 29Q6.76343 29 6.53931 28.9472Q6.37731 28.909 6.22182 28.8432Q6.05905 28.7744 5.91306 28.6797Q5.73727 28.5657 5.58579 28.4142Q5.43429 28.2627 5.32027 28.0869Q5.22559 27.9409 5.15676 27.7782Q5.091 27.6227 5.05282 27.4607Q5 27.2366 5 27L5 5Q5 4.76342 5.05282 4.53929Q5.09099 4.3773 5.15676 4.22182Q5.22561 4.05904 5.32031 3.91303Q5.43432 3.73726 5.58579 3.58579Q5.73726 3.43431 5.91303 3.32031Q6.05904 3.22561 6.22182 3.15676Q6.3773 3.09099 6.53929 3.05282Q6.76342 3 7 3L19.5858 3Z" fill="rgb(223,225,230)" fill-opacity="0" fill-rule="evenodd" />
			</g>
			<g id="编组 27">
				<path id="椭圆形" d="M11.5 16.5C12.3284 16.5 13 15.8284 13 15C13 14.1716 12.3284 13.5 11.5 13.5C10.6716 13.5 10 14.1716 10 15C10 15.8284 10.6716 16.5 11.5 16.5Z" fill="rgb(255,255,255)" fill-rule="evenodd" />
				<path id="椭圆形" d="M13 15C13 15.8284 12.3284 16.5 11.5 16.5C10.6716 16.5 10 15.8284 10 15C10 14.1716 10.6716 13.5 11.5 13.5C12.3284 13.5 13 14.1716 13 15ZM11.9634 14.8081Q12 14.8964 12 15Q12 15.1036 11.9634 15.1919Q11.9268 15.2803 11.8536 15.3536Q11.7803 15.4268 11.6919 15.4634Q11.6036 15.5 11.5 15.5Q11.3964 15.5 11.3081 15.4634Q11.2197 15.4268 11.1464 15.3536Q11.0732 15.2803 11.0366 15.1919Q11 15.1036 11 15Q11 14.8964 11.0366 14.8081Q11.0732 14.7197 11.1464 14.6464Q11.2197 14.5732 11.3081 14.5366Q11.3964 14.5 11.5 14.5Q11.6036 14.5 11.6919 14.5366Q11.7803 14.5732 11.8536 14.6464Q11.9268 14.7197 11.9634 14.8081Z" fill="rgb(223,225,230)" fill-opacity="0" fill-rule="evenodd" />
				<path id="路径" d="M22.7002 23.126L18.6447 16.9265C18.3065 16.4096 17.5571 16.3873 17.1888 16.8831L15.2857 19.4454L13.7373 18.0224C13.3287 17.647 12.6798 17.734 12.3846 18.2038L9.28364 23.1397C8.91213 23.731 9.33716 24.5 10.0355 24.5L21.9572 24.5C22.6629 24.5 23.0866 23.7165 22.7002 23.126Z" fill="rgb(255,255,255)" fill-rule="evenodd" />
				<path id="路径" d="M14.5454 18.765L13.7373 18.0224C13.3287 17.647 12.6798 17.734 12.3846 18.2038L9.28364 23.1397C8.91213 23.731 9.33716 24.5 10.0355 24.5L21.9572 24.5C22.6629 24.5 23.0866 23.7165 22.7002 23.126L18.6447 16.9265C18.3065 16.4096 17.5571 16.3873 17.1888 16.8831L15.8852 18.6382L15.2857 19.4454L14.5454 18.765ZM17.8958 17.6084L15.4265 20.9329L13.1597 18.8498L10.2383 23.5L21.7499 23.5L17.8958 17.6084Z" fill="rgb(223,225,230)" fill-opacity="0" fill-rule="evenodd" />
			</g>
			<path id="路径" d="M28 10L21.5 10C20.6716 10 20 9.32843 20 8.5L20 2" fill="rgb(157,189,252)" fill-rule="evenodd" />
			<path id="路径" d="M28 10L21.5 10C20.6716 10 20 9.32843 20 8.5L20 2L21 3L21 8.5Q21 8.60355 21.0366 8.69194Q21.0732 8.78033 21.1464 8.85355Q21.2197 8.92678 21.3081 8.96339Q21.3964 9 21.5 9L27 9L28 10Z" fill="rgb(223,225,230)" fill-opacity="0" fill-rule="evenodd" />
		</g>
	</g>
</svg>
