<svg viewBox="0 0 32 32" xmlns="http://www.w3.org/2000/svg" xmlns:xlink="http://www.w3.org/1999/xlink" width="32.000000" height="32.000000" fill="none" customFrame="#000000">
	<defs>
		<filter id="pixso_custom_mask_type_outline">
			<feColorMatrix type="matrix" values="0 0 0 0 1 0 0 0 0 1 0 0 0 0 1 0 0 0 1 0 " />
		</filter>
	</defs>
	<mask id="mask_14" width="24.000000" height="28.000000" x="4.000000" y="2.000000" maskUnits="userSpaceOnUse">
		<g filter="url(#pixso_custom_mask_type_outline)">
			<path id="蒙版" d="M7 2L20 2L28 10L28 27C28 28.6569 26.6569 30 25 30L7 30C5.34315 30 4 28.6569 4 27L4 5C4 3.34315 5.34315 2 7 2Z" fill="rgb(255,255,255)" fill-rule="evenodd" />
			<path id="蒙版" d="M20 2L7 2C5.34315 2 4 3.34315 4 5L4 27C4 28.6569 5.34315 30 7 30L25 30C26.6569 30 28 28.6569 28 27L28 10L20 2ZM19.5858 3L27 10.4142L27 27Q27 27.2366 26.9472 27.4607Q26.909 27.6227 26.8432 27.7782Q26.7744 27.9409 26.6798 28.0869Q26.5657 28.2627 26.4142 28.4142Q26.2627 28.5657 26.0869 28.6797Q25.9409 28.7744 25.7782 28.8432Q25.6227 28.909 25.4607 28.9472Q25.2366 29 25 29L7 29Q6.76343 29 6.53931 28.9472Q6.37731 28.909 6.22182 28.8432Q6.05905 28.7744 5.91306 28.6797Q5.73727 28.5657 5.58579 28.4142Q5.43429 28.2627 5.32027 28.0869Q5.22559 27.9409 5.15676 27.7782Q5.091 27.6227 5.05282 27.4607Q5 27.2366 5 27L5 5Q5 4.76342 5.05282 4.53929Q5.09099 4.3773 5.15676 4.22182Q5.22561 4.05904 5.32031 3.91303Q5.43432 3.73726 5.58579 3.58579Q5.73726 3.43431 5.91303 3.32031Q6.05904 3.22561 6.22182 3.15676Q6.3773 3.09099 6.53929 3.05282Q6.76342 3 7 3L19.5858 3Z" fill="rgb(223,225,230)" fill-opacity="0" fill-rule="evenodd" />
		</g>
	</mask>
	<rect id="雪碧图/32px/Page" width="32.000000" height="32.000000" x="0.000000" y="0.000000" fill="rgb(255,255,255)" fill-opacity="0" />
	<g id="图标/word文件">
		<rect id="矩形" width="32.000000" height="32.000000" x="0.000000" y="0.000000" rx="4.000000" fill="rgb(238,240,245)" fill-opacity="0" />
		<rect id="矩形" width="31.000000" height="31.000000" x="0.500000" y="0.500000" rx="3.500000" stroke="rgb(151,151,151)" stroke-opacity="0" stroke-width="1" />
		<g id="编组 2" showMaskRef="url(#show_mask_8)" mask="url(#mask_14)">
			<g id="show_mask_8">
				<path id="蒙版" d="M7 2L20 2L28 10L28 27C28 28.6569 26.6569 30 25 30L7 30C5.34315 30 4 28.6569 4 27L4 5C4 3.34315 5.34315 2 7 2Z" fill="rgb(37,194,81)" fill-rule="evenodd" />
				<path id="蒙版" d="M20 2L7 2C5.34315 2 4 3.34315 4 5L4 27C4 28.6569 5.34315 30 7 30L25 30C26.6569 30 28 28.6569 28 27L28 10L20 2ZM19.5858 3L27 10.4142L27 27Q27 27.2366 26.9472 27.4607Q26.909 27.6227 26.8432 27.7782Q26.7744 27.9409 26.6798 28.0869Q26.5657 28.2627 26.4142 28.4142Q26.2627 28.5657 26.0869 28.6797Q25.9409 28.7744 25.7782 28.8432Q25.6227 28.909 25.4607 28.9472Q25.2366 29 25 29L7 29Q6.76343 29 6.53931 28.9472Q6.37731 28.909 6.22182 28.8432Q6.05905 28.7744 5.91306 28.6797Q5.73727 28.5657 5.58579 28.4142Q5.43429 28.2627 5.32027 28.0869Q5.22559 27.9409 5.15676 27.7782Q5.091 27.6227 5.05282 27.4607Q5 27.2366 5 27L5 5Q5 4.76342 5.05282 4.53929Q5.09099 4.3773 5.15676 4.22182Q5.22561 4.05904 5.32031 3.91303Q5.43432 3.73726 5.58579 3.58579Q5.73726 3.43431 5.91303 3.32031Q6.05904 3.22561 6.22182 3.15676Q6.3773 3.09099 6.53929 3.05282Q6.76342 3 7 3L19.5858 3Z" fill="rgb(223,225,230)" fill-opacity="0" fill-rule="evenodd" />
			</g>
			<path id="路径" d="M28 10L21.5 10C20.6716 10 20 9.32843 20 8.5L20 2" fill="rgb(146,224,165)" fill-rule="evenodd" />
			<path id="路径" d="M28 10L21.5 10C20.6716 10 20 9.32843 20 8.5L20 2L21 3L21 8.5Q21 8.60355 21.0366 8.69194Q21.0732 8.78033 21.1464 8.85355Q21.2197 8.92678 21.3081 8.96339Q21.3964 9 21.5 9L27 9L28 10Z" fill="rgb(223,225,230)" fill-opacity="0" fill-rule="evenodd" />
			<g id="编组 34">
				<path id="路径" d="M11.2618 22L10.5 22C9.39543 22 8.5 20.9553 8.5 19.6667L8.5 17.3333C8.5 16.0447 9.39543 15 10.5 15L11.4798 15" fill="rgb(216,216,216)" fill-opacity="0" fill-rule="evenodd" />
				<path id="路径" d="M11.2618 22L10.5 22C9.39543 22 8.5 20.9553 8.5 19.6667L8.5 17.3333C8.5 16.0447 9.39543 15 10.5 15L11.4798 15" fill-rule="evenodd" stroke="rgb(255,255,255)" stroke-width="1.5" />
				<rect id="矩形" width="4.000000" height="3.000000" x="11.500000" y="13.500000" rx="1.500000" fill="rgb(216,216,216)" fill-opacity="0" />
				<rect id="矩形" width="4.000000" height="3.000000" x="11.500000" y="13.500000" rx="1.500000" stroke="rgb(255,255,255)" stroke-width="1.5" />
				<rect id="矩形备份 11" width="4.000000" height="3.000000" x="11.500000" y="20.500000" rx="1.500000" fill="rgb(216,216,216)" fill-opacity="0" />
				<rect id="矩形备份 11" width="4.000000" height="3.000000" x="11.500000" y="20.500000" rx="1.500000" stroke="rgb(255,255,255)" stroke-width="1.5" />
				<path id="矢量 774" d="M19 13.5L23 13.5" stroke="rgb(255,255,255)" stroke-linecap="round" stroke-width="1.5" />
				<path id="矢量 775" d="M19 18.5L23 18.5" stroke="rgb(255,255,255)" stroke-linecap="round" stroke-width="1.5" />
				<path id="矢量 776" d="M19 23.5L23 23.5" stroke="rgb(255,255,255)" stroke-linecap="round" stroke-width="1.5" />
			</g>
		</g>
	</g>
</svg>
