<svg viewBox="0 0 32 32" xmlns="http://www.w3.org/2000/svg" xmlns:xlink="http://www.w3.org/1999/xlink" width="32.000000" height="32.000000" fill="none" customFrame="#000000">
	<defs>
		<filter id="pixso_custom_mask_type_outline">
			<feColorMatrix type="matrix" values="0 0 0 0 1 0 0 0 0 1 0 0 0 0 1 0 0 0 1 0 " />
		</filter>
	</defs>
	<mask id="mask_26" width="24.000000" height="28.000000" x="4.000000" y="2.000000" maskUnits="userSpaceOnUse">
		<g filter="url(#pixso_custom_mask_type_outline)">
			<path id="蒙版" d="M7 2L20 2L28 10L28 27C28 28.6569 26.6569 30 25 30L7 30C5.34315 30 4 28.6569 4 27L4 5C4 3.34315 5.34315 2 7 2Z" fill="rgb(255,255,255)" fill-rule="evenodd" />
			<path id="蒙版" d="M20 2L7 2C5.34315 2 4 3.34315 4 5L4 27C4 28.6569 5.34315 30 7 30L25 30C26.6569 30 28 28.6569 28 27L28 10L20 2ZM19.5858 3L27 10.4142L27 27Q27 27.2366 26.9472 27.4607Q26.909 27.6227 26.8432 27.7782Q26.7744 27.9409 26.6798 28.0869Q26.5657 28.2627 26.4142 28.4142Q26.2627 28.5657 26.0869 28.6797Q25.9409 28.7744 25.7782 28.8432Q25.6227 28.909 25.4607 28.9472Q25.2366 29 25 29L7 29Q6.76343 29 6.53931 28.9472Q6.37731 28.909 6.22182 28.8432Q6.05905 28.7744 5.91306 28.6797Q5.73727 28.5657 5.58579 28.4142Q5.43429 28.2627 5.32027 28.0869Q5.22559 27.9409 5.15676 27.7782Q5.091 27.6227 5.05282 27.4607Q5 27.2366 5 27L5 5Q5 4.76342 5.05282 4.53929Q5.09099 4.3773 5.15676 4.22182Q5.22561 4.05904 5.32031 3.91303Q5.43432 3.73726 5.58579 3.58579Q5.73726 3.43431 5.91303 3.32031Q6.05904 3.22561 6.22182 3.15676Q6.3773 3.09099 6.53929 3.05282Q6.76342 3 7 3L19.5858 3Z" fill="rgb(223,225,230)" fill-opacity="0" fill-rule="evenodd" />
		</g>
	</mask>
	<rect id="雪碧图/32px/ppt" width="32.000000" height="32.000000" x="0.000000" y="0.000000" fill="rgb(255,255,255)" fill-opacity="0" />
	<g id="图标/ppt文件">
		<rect id="矩形" width="32.000000" height="32.000000" x="0.000000" y="0.000000" rx="8.000000" fill="rgb(238,240,245)" fill-opacity="0" />
		<rect id="矩形" width="31.000000" height="31.000000" x="0.500000" y="0.500000" rx="7.500000" stroke="rgb(151,151,151)" stroke-opacity="0" stroke-width="1" />
		<g id="编组 2">
			<g id="路径" showMaskRef="url(#show_mask_20)" mask="url(#mask_26)">
				<g id="show_mask_20">
					<path id="蒙版" d="M7 2L20 2L28 10L28 27C28 28.6569 26.6569 30 25 30L7 30C5.34315 30 4 28.6569 4 27L4 5C4 3.34315 5.34315 2 7 2Z" fill="rgb(255,136,0)" fill-rule="evenodd" />
					<path id="蒙版" d="M20 2L7 2C5.34315 2 4 3.34315 4 5L4 27C4 28.6569 5.34315 30 7 30L25 30C26.6569 30 28 28.6569 28 27L28 10L20 2ZM19.5858 3L27 10.4142L27 27Q27 27.2366 26.9472 27.4607Q26.909 27.6227 26.8432 27.7782Q26.7744 27.9409 26.6798 28.0869Q26.5657 28.2627 26.4142 28.4142Q26.2627 28.5657 26.0869 28.6797Q25.9409 28.7744 25.7782 28.8432Q25.6227 28.909 25.4607 28.9472Q25.2366 29 25 29L7 29Q6.76343 29 6.53931 28.9472Q6.37731 28.909 6.22182 28.8432Q6.05905 28.7744 5.91306 28.6797Q5.73727 28.5657 5.58579 28.4142Q5.43429 28.2627 5.32027 28.0869Q5.22559 27.9409 5.15676 27.7782Q5.091 27.6227 5.05282 27.4607Q5 27.2366 5 27L5 5Q5 4.76342 5.05282 4.53929Q5.09099 4.3773 5.15676 4.22182Q5.22561 4.05904 5.32031 3.91303Q5.43432 3.73726 5.58579 3.58579Q5.73726 3.43431 5.91303 3.32031Q6.05904 3.22561 6.22182 3.15676Q6.3773 3.09099 6.53929 3.05282Q6.76342 3 7 3L19.5858 3Z" fill="rgb(223,225,230)" fill-opacity="0" fill-rule="evenodd" />
				</g>
				<path id="路径" d="M28 10L21.5 10C20.6716 10 20 9.32843 20 8.5L20 2" fill="rgb(252,213,164)" fill-rule="evenodd" />
				<path id="路径" d="M28 10L21.5 10C20.6716 10 20 9.32843 20 8.5L20 2L21 3L21 8.5Q21 8.60355 21.0366 8.69194Q21.0732 8.78033 21.1464 8.85355Q21.2197 8.92678 21.3081 8.96339Q21.3964 9 21.5 9L27 9L28 10Z" fill="rgb(223,225,230)" fill-opacity="0" fill-rule="evenodd" />
				<g id="组合 3853" opacity="0">
					<path id="矢量 770" d="M0 0L8 0" stroke="rgb(255,255,255)" stroke-linecap="round" stroke-width="1.5" transform="matrix(0,1,-1,0,14.2397,14.5103)" />
					<path id="矢量 771" d="M16.4897 14.5103C17.7324 14.5103 18.7397 15.5176 18.7397 16.7603C18.7397 18.0029 17.7324 19.0103 16.4897 19.0103L14.2397 19.0103L14.2397 14.5548C14.2397 14.5302 14.2597 14.5103 14.2843 14.5103L16.4897 14.5103Z" stroke="rgb(255,255,255)" stroke-width="1.5" />
				</g>
				<g id="编组 28" opacity="0">
					<path id="路径" d="M16 13C12.6863 13 10 15.6863 10 19C10 22.3137 12.6863 25 16 25C19.3137 25 22 22.3137 22 19L16 19L16 13Z" fill="rgb(255,255,255)" fill-rule="evenodd" />
					<path id="路径" d="M16 18L16 13C15.6593 13 15.3252 13.0284 15 13.083C12.1623 13.559 10 16.027 10 19C10 22.3137 12.6863 25 16 25C18.973 25 21.441 22.8377 21.917 20C21.9716 19.6748 22 19.3407 22 19L16 19L16 18ZM20.9009 20L15 20L15 14.0991Q14.9397 14.1113 14.8797 14.125Q14.4583 14.2215 14.0541 14.3925Q13.6387 14.5682 13.2672 14.811Q12.8363 15.0926 12.4645 15.4645Q12.0926 15.8363 11.811 16.2672Q11.5682 16.6387 11.3925 17.0541Q11.2215 17.4583 11.125 17.8797Q11 18.4255 11 19Q11 19.5745 11.125 20.1203Q11.2215 20.5417 11.3925 20.9459Q11.5682 21.3613 11.811 21.7328Q12.0926 22.1637 12.4645 22.5355Q12.8363 22.9074 13.2672 23.189Q13.6387 23.4318 14.0541 23.6075Q14.4583 23.7785 14.8797 23.875Q15.4255 24 16 24Q16.5745 24 17.1203 23.875Q17.5417 23.7785 17.9459 23.6075Q18.3613 23.4318 18.7328 23.189Q19.1637 22.9074 19.5355 22.5355Q19.9074 22.1637 20.189 21.7328Q20.4318 21.3613 20.6075 20.9459Q20.7785 20.5417 20.875 20.1203Q20.8887 20.0604 20.9009 20Z" fill="rgb(255,255,255)" fill-opacity="0" fill-rule="evenodd" />
					<path id="形状结合" d="M17.5 17.5L22.9795 17.5C22.739 14.5851 20.4149 12.261 17.5 12.0205L17.5 17.5Z" fill="rgb(255,255,255)" fill-rule="evenodd" />
					<path id="形状结合" d="M17.5 17.5L22.9795 17.5C22.739 14.5851 20.4149 12.261 17.5 12.0205L17.5 17.5ZM21.7719 16.5L18.5 16.5L18.5 13.2281Q18.8192 13.3285 19.1262 13.473Q19.4896 13.644 19.817 13.8677L19.8171 13.8677L19.8171 13.8677Q20.201 14.1299 20.5355 14.4644Q20.8701 14.799 21.1323 15.1829L21.1323 15.1829Q21.3559 15.5104 21.527 15.8737Q21.6714 16.1807 21.7719 16.5Z" fill="rgb(255,255,255)" fill-opacity="0" fill-rule="evenodd" />
				</g>
				<g id="编组 28">
					<path id="路径" d="M16 13C12.6863 13 10 15.6863 10 19C10 22.3137 12.6863 25 16 25C19.3137 25 22 22.3137 22 19L16 19L16 13Z" fill="rgb(255,255,255)" fill-rule="evenodd" />
					<path id="路径" d="M16 17.5L16 13C15.482 13 14.9794 13.0656 14.5 13.189C11.9122 13.8551 10 16.2042 10 19C10 22.3137 12.6863 25 16 25C18.7958 25 21.1449 23.0878 21.811 20.5C21.9344 20.0206 22 19.518 22 19L16 19L16 17.5ZM20.2446 20.5L14.5 20.5L14.5 14.7554Q14.3735 14.8003 14.2489 14.853Q13.8784 15.0097 13.5466 15.2258Q13.1554 15.4806 12.818 15.818Q12.4806 16.1554 12.2258 16.5466Q12.0097 16.8784 11.853 17.2489Q11.7018 17.6065 11.6153 17.9791Q11.5 18.4762 11.5 19Q11.5 19.5238 11.6153 20.0209Q11.7018 20.3935 11.853 20.7511Q12.0097 21.1216 12.2258 21.4534Q12.4806 21.8446 12.818 22.182Q13.1554 22.5194 13.5466 22.7742Q13.8784 22.9903 14.2489 23.147Q14.6065 23.2983 14.9792 23.3847Q15.4762 23.5 16 23.5Q16.5238 23.5 17.0208 23.3847Q17.3935 23.2982 17.7511 23.147Q18.1216 22.9903 18.4534 22.7742Q18.8446 22.5194 19.182 22.182Q19.5194 21.8446 19.7742 21.4534Q19.9903 21.1216 20.147 20.7511Q20.1997 20.6265 20.2446 20.5Z" fill="rgb(255,255,255)" fill-rule="evenodd" />
					<path id="形状结合" d="M17.5 17.5L22.9795 17.5C22.739 14.5851 20.4149 12.261 17.5 12.0205L17.5 17.5Z" fill="rgb(255,255,255)" fill-rule="evenodd" />
				</g>
			</g>
		</g>
	</g>
</svg>
