<svg viewBox="0 0 32 32" xmlns="http://www.w3.org/2000/svg" xmlns:xlink="http://www.w3.org/1999/xlink" width="32.000000" height="32.000000" fill="none" customFrame="#000000">
	<defs>
		<filter id="pixso_custom_mask_type_outline">
			<feColorMatrix type="matrix" values="0 0 0 0 1 0 0 0 0 1 0 0 0 0 1 0 0 0 1 0 " />
		</filter>
		<g id="pixso_custom_effect_12">
			<effect x="0.000000" y="0.000000" visibility="visible" fill="rgb(164,164,164)" fill-opacity="1" effectType="dropShadow" stdDeviation="5" radius="0" />
		</g>
		<filter id="filter_12" width="16.000000" height="16.000000" x="17.000000" y="-3.000000" filterUnits="userSpaceOnUse" customEffect="url(#pixso_custom_effect_12)" color-interpolation-filters="sRGB">
			<feFlood flood-opacity="0" result="BackgroundImageFix" />
			<feOffset dx="0.000000" dy="0.000000" in="SourceAlpha" />
			<feGaussianBlur stdDeviation="1.66666663" />
			<feColorMatrix type="matrix" values="0 0 0 0 0.643137 0 0 0 0 0.643137 0 0 0 0 0.643137 0 0 0 1 0 " />
			<feBlend result="effect_dropShadow_1" in2="BackgroundImageFix" mode="normal" />
			<feBlend result="shape" in="SourceGraphic" in2="effect_dropShadow_1" mode="normal" />
		</filter>
	</defs>
	<mask id="mask_16" width="24.000000" height="28.000000" x="4.000000" y="2.000000" maskUnits="userSpaceOnUse">
		<g filter="url(#pixso_custom_mask_type_outline)">
			<path id="蒙版" d="M7 2L22 2L28 8L28 27C28 28.6569 26.6569 30 25 30L7 30C5.34315 30 4 28.6569 4 27L4 5C4 3.34315 5.34315 2 7 2Z" fill="rgb(255,255,255)" fill-rule="evenodd" />
			<path id="蒙版" d="M22 2L7 2C5.34315 2 4 3.34315 4 5L4 27C4 28.6569 5.34315 30 7 30L25 30C26.6569 30 28 28.6569 28 27L28 8L22 2ZM21.5858 3L27 8.41421L27 27Q27 27.2366 26.9472 27.4607Q26.909 27.6227 26.8432 27.7782Q26.7744 27.9409 26.6798 28.0869Q26.5657 28.2627 26.4142 28.4142Q26.2627 28.5657 26.0869 28.6797Q25.9409 28.7744 25.7782 28.8432Q25.6227 28.909 25.4607 28.9472Q25.2366 29 25 29L7 29Q6.76343 29 6.53931 28.9472Q6.37731 28.909 6.22182 28.8432Q6.05905 28.7744 5.91306 28.6797Q5.73727 28.5657 5.58579 28.4142Q5.43429 28.2627 5.32027 28.0869Q5.22559 27.9409 5.15676 27.7782Q5.091 27.6227 5.05282 27.4607Q5 27.2366 5 27L5 5Q5 4.76342 5.05282 4.53929Q5.09099 4.3773 5.15676 4.22182Q5.22561 4.05904 5.32031 3.91303Q5.43432 3.73726 5.58579 3.58579Q5.73726 3.43431 5.91303 3.32031Q6.05904 3.22561 6.22182 3.15676Q6.3773 3.09099 6.53929 3.05282Q6.76342 3 7 3L21.5858 3Z" fill="rgb(223,225,230)" fill-opacity="0" fill-rule="evenodd" />
		</g>
	</mask>
	<rect id="雪碧图/32px/unknown" width="32.000000" height="32.000000" x="0.000000" y="0.000000" fill="rgb(255,255,255)" fill-opacity="0" />
	<g id="图标/未知文件">
		<rect id="矩形" width="32.000000" height="32.000000" x="0.000000" y="0.000000" rx="8.000000" fill="rgb(238,240,245)" fill-opacity="0" />
		<rect id="矩形" width="31.000000" height="31.000000" x="0.500000" y="0.500000" rx="7.500000" stroke="rgb(151,151,151)" stroke-opacity="0" stroke-width="1" />
		<g id="路径" showMaskRef="url(#show_mask_10)" mask="url(#mask_16)">
			<g id="show_mask_10">
				<path id="蒙版" d="M7 2L22 2L28 8L28 27C28 28.6569 26.6569 30 25 30L7 30C5.34315 30 4 28.6569 4 27L4 5C4 3.34315 5.34315 2 7 2Z" fill="rgb(189,189,189)" fill-rule="evenodd" />
				<path id="蒙版" d="M22 2L7 2C5.34315 2 4 3.34315 4 5L4 27C4 28.6569 5.34315 30 7 30L25 30C26.6569 30 28 28.6569 28 27L28 8L22 2ZM21.5858 3L27 8.41421L27 27Q27 27.2366 26.9472 27.4607Q26.909 27.6227 26.8432 27.7782Q26.7744 27.9409 26.6798 28.0869Q26.5657 28.2627 26.4142 28.4142Q26.2627 28.5657 26.0869 28.6797Q25.9409 28.7744 25.7782 28.8432Q25.6227 28.909 25.4607 28.9472Q25.2366 29 25 29L7 29Q6.76343 29 6.53931 28.9472Q6.37731 28.909 6.22182 28.8432Q6.05905 28.7744 5.91306 28.6797Q5.73727 28.5657 5.58579 28.4142Q5.43429 28.2627 5.32027 28.0869Q5.22559 27.9409 5.15676 27.7782Q5.091 27.6227 5.05282 27.4607Q5 27.2366 5 27L5 5Q5 4.76342 5.05282 4.53929Q5.09099 4.3773 5.15676 4.22182Q5.22561 4.05904 5.32031 3.91303Q5.43432 3.73726 5.58579 3.58579Q5.73726 3.43431 5.91303 3.32031Q6.05904 3.22561 6.22182 3.15676Q6.3773 3.09099 6.53929 3.05282Q6.76342 3 7 3L21.5858 3Z" fill="rgb(223,225,230)" fill-opacity="0" fill-rule="evenodd" />
			</g>
			<g id="ic_public_questionmark">
				<path id="path4" d="M15.25 23.22C15.25 22.8224 15.5724 22.5 15.97 22.5L16 22.5C16.4142 22.5 16.75 22.8358 16.75 23.25C16.75 23.6642 16.4142 24 16 24L15.97 24C15.5724 24 15.25 23.6776 15.25 23.28L15.25 23.28" fill="rgb(255,255,255)" fill-rule="evenodd" />
				<path id="path4" d="M14.25 23.22Q14.25 22.8707 14.3856 22.5502Q14.5162 22.2413 14.7538 22.0038Q14.9913 21.7662 15.3002 21.6356Q15.6207 21.5 15.97 21.5L16 21.5Q16.3554 21.5 16.6815 21.6379Q16.9957 21.7708 17.2374 22.0126Q17.4792 22.2543 17.6121 22.5685Q17.75 22.8946 17.75 23.25Q17.75 23.6054 17.6121 23.9315Q17.4792 24.2457 17.2374 24.4874Q16.9957 24.7292 16.6815 24.8621Q16.3554 25 16 25L15.97 25Q15.6207 25 15.3002 24.8644Q14.9913 24.7338 14.7538 24.4962Q14.5162 24.2587 14.3856 23.9498Q14.25 23.6293 14.25 23.28L16.25 23.28Q16.25 23.164 16.168 23.082Q16.086 23 15.97 23L16 23Q15.8964 23 15.8232 23.0732Q15.75 23.1464 15.75 23.25Q15.75 23.3536 15.8232 23.4268Q15.8964 23.5 16 23.5L15.97 23.5Q16.086 23.5 16.168 23.418Q16.25 23.336 16.25 23.22L14.25 23.22ZM16.23 23.2L16.25 23.22C16.25 23.78 15.81 24.22 15.25 24.22C14.69 24.22 14.25 23.78 14.25 23.22L14.27 23.2L16.23 23.2ZM-nan -nanL-nan -nanC-nan -nan -nan -nan -nan -nanC-nan -nan -nan -nan -nan -nanL-nan -nanZ" fill="rgb(25,25,25)" fill-opacity="0" fill-rule="nonzero" />
				<path id="path5" d="M16 20.5C16 20.2897 15.9663 19.5794 16 19.2727C16.028 19.0177 16.086 18.7987 16.2953 18.4564C16.6719 17.8404 17.836 17.1869 18.0114 17.0597C18.9117 16.407 19.5 15.3279 19.5 14.1072C19.5 12.115 17.933 10.5 16 10.5C14.067 10.5 12.5 12.115 12.5 14.1072" fill-rule="evenodd" stroke="rgb(255,255,255)" stroke-linecap="round" stroke-linejoin="round" stroke-width="1.5" />
			</g>
			<g filter="url(#filter_12)">
				<path id="路径" d="M28 8L24 8C22.8954 8 22 7.10457 22 6L22 2" fill="rgb(245,245,246)" fill-rule="evenodd" />
				<path id="路径" d="M28 8L24 8C22.8954 8 22 7.10457 22 6L22 2L23 3L23 6Q23 6.12394 23.0288 6.24077Q23.0475 6.31634 23.0782 6.38894Q23.1114 6.46755 23.1568 6.5384Q23.2149 6.62912 23.2929 6.70711Q23.3709 6.78511 23.4616 6.84322Q23.5325 6.88858 23.6111 6.92183Q23.6836 6.95253 23.7592 6.97117Q23.876 7 24 7L27 7L28 8Z" fill="rgb(223,225,230)" fill-opacity="0" fill-rule="evenodd" />
			</g>
		</g>
	</g>
</svg>
