<svg viewBox="0 0 32 32" xmlns="http://www.w3.org/2000/svg" xmlns:xlink="http://www.w3.org/1999/xlink" width="32.000000" height="32.000000" fill="none" customFrame="#000000">
	<defs>
		<filter id="pixso_custom_mask_type_outline">
			<feColorMatrix type="matrix" values="0 0 0 0 1 0 0 0 0 1 0 0 0 0 1 0 0 0 1 0 " />
		</filter>
	</defs>
	<mask id="mask_13" width="24.000000" height="28.000000" x="4.000000" y="2.000000" maskUnits="userSpaceOnUse">
		<g filter="url(#pixso_custom_mask_type_outline)">
			<path id="蒙版" d="M7 2L20 2L28 10L28 27C28 28.6569 26.6569 30 25 30L7 30C5.34315 30 4 28.6569 4 27L4 5C4 3.34315 5.34315 2 7 2Z" fill="rgb(255,255,255)" fill-rule="evenodd" />
			<path id="蒙版" d="M20 2L7 2C5.34315 2 4 3.34315 4 5L4 27C4 28.6569 5.34315 30 7 30L25 30C26.6569 30 28 28.6569 28 27L28 10L20 2ZM19.5858 3L27 10.4142L27 27Q27 27.2366 26.9472 27.4607Q26.909 27.6227 26.8432 27.7782Q26.7744 27.9409 26.6798 28.0869Q26.5657 28.2627 26.4142 28.4142Q26.2627 28.5657 26.0869 28.6797Q25.9409 28.7744 25.7782 28.8432Q25.6227 28.909 25.4607 28.9472Q25.2366 29 25 29L7 29Q6.76343 29 6.53931 28.9472Q6.37731 28.909 6.22182 28.8432Q6.05905 28.7744 5.91306 28.6797Q5.73727 28.5657 5.58579 28.4142Q5.43429 28.2627 5.32027 28.0869Q5.22559 27.9409 5.15676 27.7782Q5.091 27.6227 5.05282 27.4607Q5 27.2366 5 27L5 5Q5 4.76342 5.05282 4.53929Q5.09099 4.3773 5.15676 4.22182Q5.22561 4.05904 5.32031 3.91303Q5.43432 3.73726 5.58579 3.58579Q5.73726 3.43431 5.91303 3.32031Q6.05904 3.22561 6.22182 3.15676Q6.3773 3.09099 6.53929 3.05282Q6.76342 3 7 3L19.5858 3Z" fill="rgb(223,225,230)" fill-opacity="0" fill-rule="evenodd" />
		</g>
	</mask>
	<rect id="雪碧图/32px/zip-sprite" width="32.000000" height="32.000000" x="0.000000" y="0.000000" fill="rgb(255,255,255)" fill-opacity="0" />
	<g id="组合 3856">
		<g id="图标/图片文件">
			<rect id="矩形" width="32.000000" height="32.000000" x="0.000000" y="0.000000" rx="8.000000" fill="rgb(238,240,245)" fill-opacity="0" />
			<rect id="矩形" width="31.000000" height="31.000000" x="0.500000" y="0.500000" rx="7.500000" stroke="rgb(151,151,151)" stroke-opacity="0" stroke-width="1" />
			<g id="路径" showMaskRef="url(#show_mask_7)" mask="url(#mask_13)">
				<g id="show_mask_7">
					<path id="蒙版" d="M7 2L20 2L28 10L28 27C28 28.6569 26.6569 30 25 30L7 30C5.34315 30 4 28.6569 4 27L4 5C4 3.34315 5.34315 2 7 2Z" fill="rgb(57,121,249)" fill-rule="evenodd" />
					<path id="蒙版" d="M20 2L7 2C5.34315 2 4 3.34315 4 5L4 27C4 28.6569 5.34315 30 7 30L25 30C26.6569 30 28 28.6569 28 27L28 10L20 2ZM19.5858 3L27 10.4142L27 27Q27 27.2366 26.9472 27.4607Q26.909 27.6227 26.8432 27.7782Q26.7744 27.9409 26.6798 28.0869Q26.5657 28.2627 26.4142 28.4142Q26.2627 28.5657 26.0869 28.6797Q25.9409 28.7744 25.7782 28.8432Q25.6227 28.909 25.4607 28.9472Q25.2366 29 25 29L7 29Q6.76343 29 6.53931 28.9472Q6.37731 28.909 6.22182 28.8432Q6.05905 28.7744 5.91306 28.6797Q5.73727 28.5657 5.58579 28.4142Q5.43429 28.2627 5.32027 28.0869Q5.22559 27.9409 5.15676 27.7782Q5.091 27.6227 5.05282 27.4607Q5 27.2366 5 27L5 5Q5 4.76342 5.05282 4.53929Q5.09099 4.3773 5.15676 4.22182Q5.22561 4.05904 5.32031 3.91303Q5.43432 3.73726 5.58579 3.58579Q5.73726 3.43431 5.91303 3.32031Q6.05904 3.22561 6.22182 3.15676Q6.3773 3.09099 6.53929 3.05282Q6.76342 3 7 3L19.5858 3Z" fill="rgb(223,225,230)" fill-opacity="0" fill-rule="evenodd" />
				</g>
				<path id="路径" d="M28 10L21.5 10C20.6716 10 20 9.32843 20 8.5L20 2" fill="rgb(157,189,252)" fill-rule="evenodd" />
				<path id="路径" d="M28 10L21.5 10C20.6716 10 20 9.32843 20 8.5L20 2L21 3L21 8.5Q21 8.60355 21.0366 8.69194Q21.0732 8.78033 21.1464 8.85355Q21.2197 8.92678 21.3081 8.96339Q21.3964 9 21.5 9L27 9L28 10Z" fill="rgb(223,225,230)" fill-opacity="0" fill-rule="evenodd" />
				<g id="编组">
					<path id="形状结合" d="M21.1284 16C22.1618 16 22.9996 16.9594 22.9996 18.1429C22.9996 19.2881 22.215 20.2236 21.2278 20.2827L21.1284 20.2857L19.5333 20.2857L19.5333 21.5715C19.5333 21.8082 19.3393 22 19.1 22C18.8806 22 18.6993 21.8388 18.6706 21.6296L18.6667 21.5715L18.6667 19.8557C18.6664 19.8487 18.6663 19.8417 18.6663 19.8346C18.6663 19.8275 18.6664 19.8205 18.6667 19.8135L18.6667 16.4722C18.6664 16.4652 18.6663 16.4582 18.6663 16.4511C18.6663 16.4441 18.6664 16.437 18.6667 16.43L18.6667 16.4286C18.6667 16.349 18.6887 16.2744 18.7269 16.2105C18.7877 16.1003 18.889 16.0224 19.0067 16.0041L19.0602 16L21.1284 16ZM19.5333 19.3835L21.1284 19.3835C21.7267 19.3835 22.2117 18.828 22.2117 18.1429C22.2117 17.4888 21.7698 16.953 21.2092 16.9057L21.1284 16.9023L19.5333 16.9023L19.5333 19.3835ZM12.9386 16C13.244 16 13.426 16.3572 13.2841 16.6347L13.2536 16.6857L10.1819 21.1429L12.9386 21.1429C13.1379 21.1429 13.3027 21.3041 13.3288 21.5133L13.3324 21.5715C13.3324 21.7884 13.1842 21.9677 12.992 21.9961L12.9386 22L9.39428 22C9.08885 22 8.9068 21.6429 9.04877 21.3653L9.07923 21.3143L12.1515 16.8572L9.39428 16.8572C9.19491 16.8572 9.03014 16.6959 9.00407 16.4868L9.00047 16.4286C9.00047 16.2116 9.14862 16.0323 9.34084 16.0039L9.39428 16L12.9386 16ZM15.9994 16C16.2188 16 16.4001 16.1613 16.4288 16.3705L16.4328 16.4286L16.4328 21.5715C16.4328 21.8082 16.2388 22 15.9994 22C15.7801 22 15.5987 21.8388 15.5701 21.6296L15.5661 21.5715L15.5661 16.4286C15.5661 16.1919 15.7601 16 15.9994 16Z" opacity="0" fill="rgb(255,255,255)" fill-rule="evenodd" />
					<path id="形状结合" d="M21.1284 16C22.1618 16 22.9996 16.9594 22.9996 18.1429C22.9996 19.2881 22.215 20.2236 21.2278 20.2827L21.1284 20.2857L19.5333 20.2857L19.5333 21.5715C19.5333 21.8082 19.3393 22 19.1 22C18.8806 22 18.6993 21.8388 18.6706 21.6296L18.6667 21.5715L18.6667 19.8557C18.6664 19.8487 18.6663 19.8417 18.6663 19.8346C18.6663 19.8275 18.6664 19.8205 18.6667 19.8135L18.6667 16.4722C18.6664 16.4652 18.6663 16.4582 18.6663 16.4511C18.6663 16.4441 18.6664 16.437 18.6667 16.43L18.6667 16.4286C18.6667 16.349 18.6887 16.2744 18.7269 16.2105C18.7877 16.1003 18.889 16.0224 19.0067 16.0041L19.0602 16L21.1284 16ZM19.5333 19.3835L21.1284 19.3835C21.7267 19.3835 22.2117 18.828 22.2117 18.1429C22.2117 17.4888 21.7698 16.953 21.2092 16.9057L21.1284 16.9023L19.5333 16.9023L19.5333 19.3835ZM12.9386 16C13.244 16 13.426 16.3572 13.2841 16.6347L13.2536 16.6857L10.1819 21.1429L12.9386 21.1429C13.1379 21.1429 13.3027 21.3041 13.3288 21.5133L13.3324 21.5715C13.3324 21.7884 13.1842 21.9677 12.992 21.9961L12.9386 22L9.39428 22C9.08885 22 8.9068 21.6429 9.04877 21.3653L9.07923 21.3143L12.1515 16.8572L9.39428 16.8572C9.19491 16.8572 9.03014 16.6959 9.00407 16.4868L9.00047 16.4286C9.00047 16.2116 9.14862 16.0323 9.34084 16.0039L9.39428 16L12.9386 16ZM15.9994 16C16.2188 16 16.4001 16.1613 16.4288 16.3705L16.4328 16.4286L16.4328 21.5715C16.4328 21.8082 16.2388 22 15.9994 22C15.7801 22 15.5987 21.8388 15.5701 21.6296L15.5661 21.5715L15.5661 16.4286C15.5661 16.1919 15.7601 16 15.9994 16Z" opacity="0" fill-rule="evenodd" stroke="rgb(255,255,255)" stroke-width="1.13999999" />
				</g>
			</g>
		</g>
		<path id="矢量 768" d="M9.5 16.5L13.2919 16.5C13.3758 16.5 13.4224 16.597 13.37 16.6625L9.62998 21.3375C9.57759 21.403 9.62421 21.5 9.70806 21.5L13.5 21.5" stroke="rgb(255,255,255)" stroke-width="1.5" />
		<path id="矢量 769" d="M0 0L5 0" stroke="rgb(255,255,255)" stroke-linecap="round" stroke-width="1.5" transform="matrix(0,1,-1,0,16,16.5)" />
		<path id="矢量 770" d="M0 0L5 0" stroke="rgb(255,255,255)" stroke-linecap="round" stroke-width="1.5" transform="matrix(0,1,-1,0,19,16.5)" />
		<path id="矢量 771" d="M21.25 16.5C21.9404 16.5 22.5 17.0596 22.5 17.75C22.5 18.4404 21.9404 19 21.25 19L19 19L19 16.5347C19 16.5155 19.0155 16.5 19.0347 16.5L21.25 16.5Z" stroke="rgb(255,255,255)" stroke-width="1.5" />
	</g>
</svg>
