<svg viewBox="0 0 48 48" xmlns="http://www.w3.org/2000/svg" xmlns:xlink="http://www.w3.org/1999/xlink" width="48.000000" height="48.000000" fill="none">
	<rect id="代码仓库/Coding" width="48.000000" height="48.000000" x="0.000000" y="0.000000" />
	<g id="模型/Coding-48x48">
		<g id="Coding-60x60">
			<path id="形状" d="M15.4953 25.7878C15.1048 25.7878 14.7881 26.1588 14.7881 26.6166C14.7881 27.0743 15.1048 27.4455 15.4953 27.4455C15.8859 27.4455 16.2026 27.0743 16.2026 26.6166C16.2026 26.1588 15.8859 25.7878 15.4953 25.7878ZM32.2925 25.7878C31.902 25.7878 31.5853 26.1588 31.5853 26.6166C31.5853 27.0743 31.902 27.4455 32.2925 27.4455C32.6831 27.4455 32.9998 27.0743 32.9998 26.6166C32.9998 26.1588 32.6831 25.7878 32.2925 25.7878Z" fill="rgb(32,45,64)" fill-rule="evenodd" />
			<path id="形状" d="M14.7881 26.6166C14.7881 27.0743 15.1048 27.4455 15.4953 27.4455C15.8859 27.4455 16.2026 27.0743 16.2026 26.6166C16.2026 26.1588 15.8859 25.7878 15.4953 25.7878C15.1048 25.7878 14.7881 26.1588 14.7881 26.6166ZM31.5853 26.6166C31.5853 27.0743 31.902 27.4455 32.2925 27.4455C32.6831 27.4455 32.9998 27.0743 32.9998 26.6166C32.9998 26.1588 32.6831 25.7878 32.2925 25.7878C31.902 25.7878 31.5853 26.1588 31.5853 26.6166Z" fill-rule="evenodd" stroke="rgb(0,0,0)" stroke-opacity="0" stroke-width="1" />
			<path id="形状" d="M42.5078 26.7732C41.83 27.0314 41.1584 26.7993 41.0072 26.2553C40.8564 25.7111 41.2835 25.0606 41.9614 24.8026C42.6392 24.5445 43.3111 24.7763 43.462 25.3205C43.6128 25.8648 43.1857 26.5151 42.5078 26.7732ZM23.9999 37.7242C16.5538 37.7127 10.5238 34.2884 10.5238 29.386C10.5238 29.2832 10.5275 29.1814 10.5326 29.0801C10.5345 29.0464 10.5361 29.013 10.5385 28.9798C10.543 28.9104 10.5495 28.8415 10.5564 28.7726C10.5661 28.6804 10.577 28.5885 10.5909 28.4969C10.7407 27.5334 11.1286 26.0358 11.708 25.1885C13.1005 23.2228 15.5842 21.9134 18.4174 21.9134C20.5988 21.9134 22.5713 22.6908 23.9999 23.9446C25.4286 22.6908 27.4011 21.9134 29.5822 21.9134C32.4157 21.9134 34.8994 23.2228 36.2916 25.1885C36.8713 26.0358 37.2549 27.5062 37.4049 28.4698C37.4188 28.5614 37.4338 28.6804 37.4432 28.7726C37.4501 28.8415 37.4566 28.9104 37.4614 28.9798C37.4635 29.013 37.4654 29.0464 37.467 29.0801C37.4721 29.1814 37.4758 29.2832 37.4758 29.386C37.4758 34.2884 31.4458 37.7127 23.9999 37.7242ZM6.99238 26.2553C6.84152 26.7993 6.16958 27.0314 5.49203 26.7732C4.81421 26.5151 4.38703 25.8648 4.53789 25.3205C4.68876 24.7763 5.36043 24.5445 6.03825 24.8026C6.71607 25.0606 7.14325 25.7111 6.99238 26.2553ZM42.4739 21.2935C41.3138 21.2935 40.2973 22.0116 39.7289 23.0886C37.7949 18.996 33.7716 15.2044 28.7995 13.6431C26.1169 12.5984 24.2329 10.5934 23.9999 8.25C23.767 10.5934 21.883 12.5984 19.2001 13.6431C14.228 15.2044 10.2049 18.996 8.27099 23.0886C7.70257 22.0116 6.68584 21.2935 5.52574 21.2935C3.74425 21.2935 2.2998 22.9861 2.2998 25.0739C2.2998 27.1617 3.74425 28.854 5.52574 28.854C6.06767 28.854 6.57804 28.6969 7.02635 28.4202C7.17963 35.1991 14.7164 39.5995 23.9999 39.6113C33.2834 39.5995 40.82 35.1991 40.9735 28.4202C41.4218 28.6969 41.9319 28.854 42.4739 28.854C44.2556 28.854 45.6998 27.1617 45.6998 25.0739C45.6998 22.9861 44.2556 21.2935 42.4739 21.2935Z" fill="rgb(32,45,64)" fill-rule="evenodd" />
			<path id="形状" d="M41.0072 26.2553C40.8564 25.7111 41.2835 25.0606 41.9614 24.8026C42.6392 24.5445 43.3111 24.7763 43.462 25.3205C43.6128 25.8648 43.1857 26.5151 42.5078 26.7732C41.83 27.0314 41.1584 26.7993 41.0072 26.2553ZM10.5238 29.386C10.5238 29.2832 10.5275 29.1814 10.5326 29.0801C10.5345 29.0464 10.5361 29.013 10.5385 28.9798C10.543 28.9104 10.5495 28.8415 10.5564 28.7726C10.5661 28.6804 10.577 28.5885 10.5909 28.4969C10.7407 27.5334 11.1286 26.0358 11.708 25.1885C13.1005 23.2228 15.5842 21.9134 18.4174 21.9134C20.5988 21.9134 22.5713 22.6908 23.9999 23.9446C25.4286 22.6908 27.4011 21.9134 29.5822 21.9134C32.4157 21.9134 34.8994 23.2228 36.2916 25.1885C36.8713 26.0358 37.2549 27.5062 37.4049 28.4698C37.4188 28.5614 37.4338 28.6804 37.4432 28.7726C37.4501 28.8415 37.4566 28.9104 37.4614 28.9798C37.4635 29.013 37.4654 29.0464 37.467 29.0801C37.4721 29.1814 37.4758 29.2832 37.4758 29.386C37.4758 34.2884 31.4458 37.7127 23.9999 37.7242C16.5538 37.7127 10.5238 34.2884 10.5238 29.386ZM5.49203 26.7732C4.81421 26.5151 4.38703 25.8648 4.53789 25.3205C4.68876 24.7763 5.36043 24.5445 6.03825 24.8026C6.71607 25.0606 7.14325 25.7111 6.99238 26.2553C6.84152 26.7993 6.16958 27.0314 5.49203 26.7732ZM39.7289 23.0886C37.7949 18.996 33.7716 15.2044 28.7995 13.6431C26.1169 12.5984 24.2329 10.5934 23.9999 8.25C23.767 10.5934 21.883 12.5984 19.2001 13.6431C14.228 15.2044 10.2049 18.996 8.27099 23.0886C7.70257 22.0116 6.68584 21.2935 5.52574 21.2935C3.74425 21.2935 2.2998 22.9861 2.2998 25.0739C2.2998 27.1617 3.74425 28.854 5.52574 28.854C6.06767 28.854 6.57804 28.6969 7.02635 28.4202C7.17963 35.1991 14.7164 39.5995 23.9999 39.6113C33.2834 39.5995 40.82 35.1991 40.9735 28.4202C41.4218 28.6969 41.9319 28.854 42.4739 28.854C44.2556 28.854 45.6998 27.1617 45.6998 25.0739C45.6998 22.9861 44.2556 21.2935 42.4739 21.2935C41.3138 21.2935 40.2973 22.0116 39.7289 23.0886Z" fill-rule="evenodd" stroke="rgb(0,0,0)" stroke-opacity="0" stroke-width="1" />
		</g>
	</g>
</svg>
