<svg viewBox="0 0 48 48" xmlns="http://www.w3.org/2000/svg" xmlns:xlink="http://www.w3.org/1999/xlink" width="48.000000" height="48.000000" fill="none" customFrame="#000000">
	<rect id="代码仓库/gerrit" width="48.000000" height="48.000000" x="0.000000" y="0.000000" />
	<g id="模型/github 60x60">
		<g id="编组 2">
			<g id="编组">
				<path id="路径" d="M0 2.54896C0 2.54896 1.82223 1.06923 2.61762 0L4.56562 1.15917C4.56562 1.15917 3.22375 2.97166 2.80025 3.21654L0 2.54896Z" fill="rgb(247,251,245)" fill-rule="evenodd" transform="matrix(-1,0,0,1,24.3843,8)" />
				<path id="路径" d="M2.61762 0L4.56562 1.15917C4.56562 1.15917 3.22375 2.97166 2.80025 3.21654L0 2.54896C0 2.54896 1.82223 1.06923 2.61762 0Z" fill-rule="evenodd" stroke="rgb(12,11,17)" stroke-width="0.447368413" transform="matrix(-1,0,0,1,24.3843,8)" />
				<path id="路径" d="M5.05262 0L4.32212 1.27448C4.32212 1.27448 4.26051 1.53988 3.89599 1.45655C3.89599 1.45655 1.94544 1.27011 0 3.51392L0.426124 3.51392C0.426124 3.51392 1.46349 2.05058 3.65249 1.94206C3.65249 1.94206 2.12983 2.59569 1.03487 3.58068C1.03487 3.58068 1.50745 3.65066 1.52187 3.58068C2.26181 2.84786 5.0998 1.62478 6.63537 2.67034C6.63537 2.67034 6.54113 2.11819 5.78312 1.94206C5.78312 1.94206 4.8969 1.70058 6.14837 0.358068L5.05262 0Z" fill="rgb(248,249,8)" fill-rule="evenodd" transform="matrix(-1,0,0,1,30.6543,21.7219)" />
				<path id="路径" d="M4.32212 1.27448C4.32212 1.27448 4.26051 1.53988 3.89599 1.45655C3.89599 1.45655 1.94544 1.27011 0 3.51392L0.426124 3.51392C0.426124 3.51392 1.46349 2.05058 3.65249 1.94206C3.65249 1.94206 2.12983 2.59569 1.03487 3.58068C1.03487 3.58068 1.50745 3.65066 1.52187 3.58068C2.26181 2.84786 5.0998 1.62478 6.63537 2.67034C6.63537 2.67034 6.54113 2.11819 5.78312 1.94206C5.78312 1.94206 4.8969 1.70058 6.14837 0.358068L5.05262 0L4.32212 1.27448Z" fill-rule="evenodd" stroke="rgb(12,11,17)" stroke-width="0.447368413" transform="matrix(-1,0,0,1,30.6543,21.7219)" />
				<path id="路径" d="M0.000323582 2.46058C0.000323582 2.46058 -0.129462 -0.713303 4.80944 0.148306C4.80944 0.148306 2.2936 0.790098 1.82657 1.61092C1.82657 1.61092 1.47855 1.06004 0.426448 2.27851L0.000323582 2.46058Z" fill="rgb(255,255,255)" fill-rule="evenodd" transform="matrix(-1,0,0,1,31.3242,10.4006)" />
				<path id="路径" d="M4.80944 0.148306C4.80944 0.148306 2.2936 0.790098 1.82657 1.61092C1.82657 1.61092 1.47855 1.06004 0.426448 2.27851L0.000323582 2.46058C0.000323582 2.46058 -0.129462 -0.713303 4.80944 0.148306Z" fill-rule="evenodd" stroke="rgb(16,15,22)" stroke-width="0.447368413" transform="matrix(-1,0,0,1,31.3242,10.4006)" />
				<path id="路径" d="M0.0436364 7.75617C0.0436364 7.75617 -0.596463 4.829 3.02651 2.89494C3.02651 2.89494 4.42986 2.0686 6.49638 2.4155C6.49638 2.4155 6.65672 2.51861 6.679 2.53081C6.78212 2.58731 6.9225 2.71288 6.9225 2.71288C6.9225 2.71288 7.31405 2.78443 7.28775 2.34874C7.28775 2.34874 9.2615 -1.6382 17.1495 0.77688C17.1495 0.77688 14.1527 4.35392 9.47925 3.81136C9.47925 3.81136 7.47409 3.54802 6.98338 3.26515C6.98338 3.26515 6.90272 3.35394 6.98599 3.41457C7.27028 3.62158 8.04613 4.13695 9.3575 4.65494C9.3575 4.65494 9.30588 5.53384 10.2097 6.53631C10.2097 6.53631 8.68161 6.91065 7.53125 8.84859C6.80909 10.178 4.70732 11.1023 3.63526 11.0334C3.01202 11.0797 1.94427 10.8809 1.13938 10.1231C0.334497 9.47448 0.0436364 7.75617 0.0436364 7.75617Z" fill="rgb(6,5,240)" fill-rule="evenodd" transform="matrix(-1,0,0,1,37.4551,10.3242)" />
				<path id="路径" d="M3.02651 2.89494C3.02651 2.89494 4.42986 2.0686 6.49638 2.4155C6.49638 2.4155 6.65672 2.51861 6.679 2.53081C6.78212 2.58731 6.9225 2.71288 6.9225 2.71288C6.9225 2.71288 7.31405 2.78443 7.28775 2.34874C7.28775 2.34874 9.2615 -1.6382 17.1495 0.77688C17.1495 0.77688 14.1527 4.35392 9.47925 3.81136C9.47925 3.81136 7.47409 3.54802 6.98338 3.26515C6.98338 3.26515 6.90272 3.35394 6.98599 3.41457C7.27028 3.62158 8.04613 4.13695 9.3575 4.65494C9.3575 4.65494 9.30588 5.53384 10.2097 6.53631C10.2097 6.53631 8.68161 6.91065 7.53125 8.84859C6.80909 10.178 4.70732 11.1023 3.63526 11.0334C3.01202 11.0797 1.94427 10.8809 1.13938 10.1231C0.334497 9.47448 0.0436364 7.75617 0.0436364 7.75617C0.0436364 7.75617 -0.596463 4.829 3.02651 2.89494Z" fill-rule="evenodd" stroke="rgb(12,11,17)" stroke-width="0.447368413" transform="matrix(-1,0,0,1,37.4551,10.3242)" />
				<path id="路径" d="M5.11349 0L4.68737 1.63862C4.68737 1.63862 4.69279 2.026 4.32212 2.00275C4.32212 2.00275 2.11759 1.7762 0 3.82344L0.608749 3.82344C0.610271 3.82289 2.10615 2.39766 3.82161 2.5651C3.71337 2.55503 1.70876 3.18365 1.03487 3.94482L1.7045 3.94482C1.7045 3.94482 4.64883 2.19757 7.00062 2.91917C7.00062 2.91917 6.66519 2.3698 5.94316 2.18082C5.94486 2.18415 5.51216 2.12498 6.20924 0.552275L5.11349 0Z" fill="rgb(248,249,8)" fill-rule="evenodd" transform="matrix(-1,0,0,1,26.7583,22.7476)" />
				<path id="路径" d="M4.68737 1.63862C4.68737 1.63862 4.69279 2.026 4.32212 2.00275C4.32212 2.00275 2.11759 1.7762 0 3.82344L0.608749 3.82344C0.610271 3.82289 2.10615 2.39766 3.82161 2.5651C3.71337 2.55503 1.70876 3.18365 1.03487 3.94482L1.7045 3.94482C1.7045 3.94482 4.64883 2.19757 7.00062 2.91917C7.00062 2.91917 6.66519 2.3698 5.94316 2.18082C5.94486 2.18415 5.51216 2.12498 6.20924 0.552275L5.11349 0L4.68737 1.63862Z" fill-rule="evenodd" stroke="rgb(12,11,17)" stroke-width="0.447368413" transform="matrix(-1,0,0,1,26.7583,22.7476)" />
				<path id="路径" d="M0 4.43033C0 4.43033 3.02073 3.85567 4.20037 2.1302C4.20037 2.1302 5.48501 0.55895 6.81799 0C6.81817 -0.000242758 9.18718 3.05778 10.7749 4.67309C11.3621 5.27058 12.2359 5.95364 12.2359 5.95364C12.2359 5.95364 4.8762 4.35393 3.46987 4.49102C3.46987 4.49102 2.11492 4.57987 0 4.43033Z" fill="rgb(252,99,3)" fill-rule="evenodd" transform="matrix(-1,0,0,1,34.3677,16.8608)" />
				<path id="路径" d="M4.20037 2.1302C4.20037 2.1302 5.48501 0.55895 6.81799 0C6.81817 -0.000242758 9.18718 3.05778 10.7749 4.67309C11.3621 5.27058 12.2359 5.95364 12.2359 5.95364C12.2359 5.95364 4.8762 4.35393 3.46987 4.49102C3.46987 4.49102 2.11492 4.57987 0 4.43033C0 4.43033 3.02073 3.85567 4.20037 2.1302Z" fill-rule="evenodd" stroke="rgb(12,11,17)" stroke-width="0.447368413" transform="matrix(-1,0,0,1,34.3677,16.8608)" />
				<path id="路径" d="M0.0926734 4.04042C0.0926734 4.04042 -0.954132 -0.474334 3.98867 0.0409809C3.98867 0.0409809 4.72148 0.0226526 4.59742 2.94801C4.59742 2.94801 2.62921 2.57034 0.640548 4.04042C0.640548 4.04042 0.356444 4.25769 0.0926734 4.04042Z" fill="rgb(252,253,0)" fill-rule="evenodd" transform="matrix(-1,0,0,1,40,17.4932)" />
				<path id="路径" d="M3.98867 0.0409809C3.98867 0.0409809 4.72148 0.0226526 4.59742 2.94801C4.59742 2.94801 2.62921 2.57034 0.640548 4.04042C0.640548 4.04042 0.356444 4.25769 0.0926734 4.04042C0.0926734 4.04042 -0.954132 -0.474334 3.98867 0.0409809Z" fill-rule="evenodd" stroke="rgb(12,11,17)" stroke-width="0.447368413" transform="matrix(-1,0,0,1,40,17.4932)" />
				<path id="路径" d="M1.27837 0L4.01774 1.52331C4.01774 1.52331 3.99644 4.72019 11.7489 12.144L10.4705 14.2681C10.4705 14.2681 6.29154 9.02884 5.72224 8.49653C5.72224 8.49653 9.40919 14.3577 10.2879 15.1784L8.76599 17.2965C8.76599 17.2965 1.13873 5.43335 1.27837 2.43365L0 0.248827L1.27837 0Z" fill="rgb(0,6,247)" fill-rule="evenodd" transform="matrix(-1,0,0,1,17.7488,22.0193)" />
				<path id="路径" d="M4.01774 1.52331C4.01774 1.52331 3.99644 4.72019 11.7489 12.144L10.4705 14.2681C10.4705 14.2681 6.29154 9.02884 5.72224 8.49653C5.72224 8.49653 9.40919 14.3577 10.2879 15.1784L8.76599 17.2965C8.76599 17.2965 1.13873 5.43335 1.27837 2.43365L0 0.248827L1.27837 0L4.01774 1.52331Z" fill-rule="evenodd" stroke="rgb(12,11,17)" stroke-width="0.447368413" transform="matrix(-1,0,0,1,17.7488,22.0193)" />
				<path id="路径" d="M15.8218 9.39413C15.8218 9.39413 11.6206 -1.47469 3.46417 0.169328C3.46417 0.169328 -1.98547 1.82184 0.785678 6.29897C0.785678 6.29897 4.02447 10.5014 5.71655 11.8885C5.71655 11.8885 6.10085 12.2136 6.32529 12.3133C6.50061 12.4884 6.99419 12.7918 7.11667 12.7988C7.4068 12.9993 8.73831 13.7102 9.18642 13.8852C11.5545 14.8098 14.1772 16.1296 14.9087 16.252L15.6392 15.7058C15.6392 15.7058 15.1996 15.0249 15.0304 14.5527C15.0304 14.5527 11.7797 12.0356 11.6823 11.761C11.6823 11.761 11.9823 10.7742 15.5783 14.2554L15.7 12.4954C15.7 12.4954 13.2727 10.475 12.9607 10.2438C12.5851 9.96559 12.9179 8.7206 15.7609 11.8885L15.7 9.94034L13.752 8.66586C13.752 8.66586 13.5289 7.68706 15.8218 9.39413Z" fill="rgb(3,1,127)" fill-rule="evenodd" transform="matrix(-1,0,0,1,28.3354,10.6831)" />
				<path id="路径" d="M3.46417 0.169328C3.46417 0.169328 -1.98547 1.82184 0.785678 6.29897C0.785678 6.29897 4.02447 10.5014 5.71655 11.8885C5.71655 11.8885 6.10085 12.2136 6.32529 12.3133C6.50061 12.4884 6.99419 12.7918 7.11667 12.7988C7.4068 12.9993 8.73831 13.7102 9.18642 13.8852C11.5545 14.8098 14.1772 16.1296 14.9087 16.252L15.6392 15.7058C15.6392 15.7058 15.1996 15.0249 15.0304 14.5527C15.0304 14.5527 11.7797 12.0356 11.6823 11.761C11.6823 11.761 11.9823 10.7742 15.5783 14.2554L15.7 12.4954C15.7 12.4954 13.2727 10.475 12.9607 10.2438C12.5851 9.96559 12.9179 8.7206 15.7609 11.8885L15.7 9.94034L13.752 8.66586C13.752 8.66586 13.5289 7.68706 15.8218 9.39413C15.8218 9.39413 11.6206 -1.47469 3.46417 0.169328Z" fill-rule="evenodd" stroke="rgb(12,11,17)" stroke-width="0.447368413" transform="matrix(-1,0,0,1,28.3354,10.6831)" />
				<path id="路径" d="M0 2.12459C0 2.12459 4.6716 3.88622 7.91374 1.63907C10.5257 -0.0726777 10.227 0.000453175 10.227 0.000453175L12.5402 1.75438C12.5402 1.75438 8.37444 3.65244 4.99174 3.9392C2.17457 4.17802 0.081268 2.50493 0 2.12459Z" fill="rgb(252,249,249)" fill-rule="evenodd" transform="matrix(-1,0,0,1,30.7761,11.2827)" />
				<path id="路径" d="M7.91374 1.63907C10.5257 -0.0726777 10.227 0.000453175 10.227 0.000453175L12.5402 1.75438C12.5402 1.75438 8.37444 3.65244 4.99174 3.9392C2.17457 4.17802 0.081268 2.50493 0 2.12459C0 2.12459 4.6716 3.88622 7.91374 1.63907Z" fill-rule="evenodd" stroke="rgb(12,11,17)" stroke-width="0.447368413" transform="matrix(-1,0,0,1,30.7761,11.2827)" />
				<path id="路径" d="M0 2.53664C0 2.53664 0.103244 0.335553 2.1915 0.0423017C4.17547 -0.236324 5.35699 0.952645 5.35699 0.952645C5.35699 0.952645 4.67556 2.23028 2.922 2.90078C1.16843 3.68052 0 2.53664 0 2.53664Z" fill="rgb(239,6,7)" fill-rule="evenodd" transform="matrix(-1,0,0,1,35.1592,14.9976)" />
				<path id="路径" d="M2.1915 0.0423017C4.17547 -0.236324 5.35699 0.952645 5.35699 0.952645C5.35699 0.952645 4.67556 2.23028 2.922 2.90078C1.16843 3.68052 0 2.53664 0 2.53664C0 2.53664 0.103244 0.335553 2.1915 0.0423017Z" fill-rule="evenodd" stroke="rgb(12,11,17)" stroke-width="0.447368413" transform="matrix(-1,0,0,1,35.1592,14.9976)" />
				<path id="路径" d="M1.27488 0L0.179132 0.916412C0.179132 0.916412 -0.122869 1.27934 0.0573817 1.76C0.0573817 1.76 1.01994 3.05736 2.12713 2.12413C2.12713 2.12413 2.43217 1.83568 2.49238 1.64469C2.61108 1.43033 2.69479 0.993669 2.37063 0.552275C2.37063 0.552275 2.06236 0.0648771 1.27488 0Z" fill="rgb(245,247,7)" fill-rule="evenodd" transform="matrix(-1,0,0,1,33.999,15.2222)" />
				<path id="路径" d="M0.179132 0.916412C0.179132 0.916412 -0.122869 1.27934 0.0573817 1.76C0.0573817 1.76 1.01994 3.05736 2.12713 2.12413C2.12713 2.12413 2.43217 1.83568 2.49238 1.64469C2.61108 1.43033 2.69479 0.993669 2.37063 0.552275C2.37063 0.552275 2.06236 0.0648771 1.27488 0L0.179132 0.916412Z" fill-rule="evenodd" stroke="rgb(12,11,17)" stroke-width="0.447368413" transform="matrix(-1,0,0,1,33.999,15.2222)" />
				<path id="路径" d="M0.608749 0C0.944961 0 1.2175 0.238206 1.2175 0.606895C1.2175 0.975584 0.789852 1.31721 0.426124 1.15917C0.223594 1.03548 0.0512567 0.952522 0 0.612964C0 0.298896 0.272537 0 0.608749 0Z" fill="rgb(3,3,5)" fill-rule="evenodd" transform="matrix(-1,0,0,1,33.8198,16.2539)" />
				<path id="路径" d="M6.45274 0.176C6.45274 0.176 5.90274 0.0254289 5.47874 0C5.08999 0.0813846 4.52708 0.369356 3.95687 0.606895C2.30685 1.50686 1.05314 2.50957 0.608749 2.73103C0.164362 3.06173 0 3.93875 0 3.93875C0 3.93875 0.533386 3.71893 0.669624 3.6353L6.45274 0.176Z" fill="rgb(254,253,251)" fill-rule="evenodd" transform="matrix(-1,0,0,1,37.2896,12.6792)" />
				<path id="路径" d="M5.47874 0C5.08999 0.0813846 4.52708 0.369356 3.95687 0.606895C2.30685 1.50686 1.05314 2.50957 0.608749 2.73103C0.164362 3.06173 0 3.93875 0 3.93875C0 3.93875 0.533386 3.71893 0.669624 3.6353L6.45274 0.176C6.45274 0.176 5.90274 0.0254289 5.47874 0Z" fill-rule="evenodd" stroke="rgb(12,11,17)" stroke-width="0.447368413" transform="matrix(-1,0,0,1,37.2896,12.6792)" />
				<path id="路径" d="M0.973999 0C0.973999 0 0.283373 0.904638 0 1.08634C0 1.08634 0.0662928 1.4086 0.304375 1.27448C0.304375 1.27448 1.05113 0.569086 1.2175 0.182069C1.2175 0.182069 1.13459 0.0571695 0.973999 0Z" fill="rgb(194,34,43)" fill-rule="evenodd" transform="matrix(-1,0,0,1,22.2537,8.9165)" />
				<path id="路径" d="M0.378402 0.491585C0.378402 0.491585 0.46174 0.530487 0.378402 0.655447L6.49042e-05 0.873929C6.49042e-05 0.873929 -0.00821407 1.09265 0.162236 1.09241L0.540573 0.873929C0.540573 0.873929 0.637243 0.773002 0.75674 0.873929L1.08102 1.09241C1.08102 1.09241 1.33487 1.13392 1.29725 0.98317L1.02696 0.710067C1.02696 0.710067 0.997439 0.609019 1.08102 0.546206L1.45936 0.327723C1.45936 0.327723 1.48973 0.113732 1.29725 0.109241L0.864854 0.382344C0.864854 0.382344 0.737199 0.504391 0.594569 0.382344L0.324346 0C0.324346 0 0.133685 0.0537709 0.108179 0.163862L0.378402 0.491585Z" fill="rgb(16,123,17)" fill-rule="evenodd" transform="matrix(-1,0,0,1,21.158,12.1936)" />
				<path id="路径" d="M0.111183 0C0.111183 0 -0.206888 1.37911 0.232933 2.3062" opacity="0.620000005" stroke="rgb(12,11,17)" stroke-width="0.447368413" transform="matrix(-1,0,0,1,28.0869,13.6501)" />
			</g>
		</g>
	</g>
</svg>
