<svg viewBox="0 0 48 48" xmlns="http://www.w3.org/2000/svg" xmlns:xlink="http://www.w3.org/1999/xlink" width="48.000000" height="48.000000" fill="none">
	<rect id="代码仓库/GitLab" width="48.000000" height="48.000000" x="0.000000" y="0.000000" />
	<path id="矢量 2" d="M42.3818 20.2374L37.1533 6.59912C37.0497 6.33335 36.8633 6.10794 36.6219 5.95626C36.3805 5.80186 36.0965 5.72793 35.8106 5.74509C35.5244 5.75898 35.25 5.86346 35.027 6.04337C34.8039 6.22328 34.6439 6.46943 34.5698 6.74622L31.0825 17.4333L16.9438 17.4333L13.4422 6.74622C13.3675 6.47109 13.207 6.22686 12.9844 6.04876C12.7601 5.87121 12.4864 5.76759 12.2009 5.75229C11.9153 5.73699 11.632 5.81077 11.3903 5.96335C11.1493 6.11584 10.9631 6.341 10.8588 6.60626L5.68478 20.1022C4.93996 22.0489 4.79583 24.3202 5.37095 26.3237C5.94607 28.3272 7.1569 30.0893 8.82107 31.3444L16.7683 37.2941L20.6681 40.2452L23.0404 42.0387C23.3186 42.2498 23.658 42.364 24.0071 42.364C24.3564 42.364 24.6957 42.2498 24.9739 42.0387L27.3463 40.2452L31.2461 37.2941L39.1744 31.3634C40.8388 30.1073 42.0709 28.3301 42.6457 26.3258C43.2204 24.3213 43.1278 22.1844 42.3818 20.2374Z" fill="rgb(226,67,41)" fill-rule="nonzero" />
	<path id="矢量 2" d="M42.3818 20.2374C39.86 20.755 37.4319 21.6884 35.3716 23.2314L24.0061 31.8236L31.2461 37.2941L39.1744 31.3634C40.8386 30.1073 42.0709 28.3302 42.6457 26.3258C43.2202 24.3215 43.1278 22.1844 42.3818 20.2374Z" fill="rgb(226,67,41)" fill-rule="nonzero" />
	<path id="矢量 2" d="M42.3818 20.2374C39.86 20.755 37.4319 21.6884 35.3716 23.2314L24.0061 31.8236L31.2461 37.2941L39.1744 31.3634C40.8386 30.1073 42.0709 28.3302 42.6457 26.3258C43.2202 24.3215 43.1278 22.1844 42.3818 20.2374Z" fill="rgb(252,109,38)" fill-rule="nonzero" />
	<path id="矢量 2" d="M16.7683 37.2941L20.6681 40.2452L23.0404 42.0387C23.3184 42.2498 23.658 42.364 24.0071 42.364C24.3562 42.364 24.696 42.2498 24.9739 42.0387L27.3463 40.2452L31.2461 37.2941L24.0061 31.8236L16.7683 37.2941Z" fill="rgb(226,67,41)" fill-rule="nonzero" />
	<path id="矢量 2" d="M16.7683 37.2941L20.6681 40.2452L23.0404 42.0387C23.3184 42.2498 23.658 42.364 24.0071 42.364C24.3562 42.364 24.696 42.2498 24.9739 42.0387L27.3463 40.2452L31.2461 37.2941L24.0061 31.8236L16.7683 37.2941Z" fill="rgb(252,163,38)" fill-rule="nonzero" />
	<path id="矢量 2" d="M12.6402 23.2314C10.5808 21.6881 8.20589 20.6194 5.68478 20.1022C4.93996 22.0489 4.79583 24.3203 5.37095 26.3237C5.94607 28.3272 7.1569 30.0893 8.82107 31.3444L16.7683 37.2941L24.0061 31.8236L12.6402 23.2314Z" fill="rgb(226,67,41)" fill-rule="nonzero" />
	<path id="矢量 2" d="M12.6402 23.2314C10.5808 21.6881 8.20589 20.6194 5.68478 20.1022C4.93996 22.0489 4.79583 24.3203 5.37095 26.3237C5.94607 28.3272 7.1569 30.0893 8.82107 31.3444L16.7683 37.2941L24.0061 31.8236L12.6402 23.2314Z" fill="rgb(252,109,38)" fill-rule="nonzero" />
</svg>
