<svg viewBox="0 0 16 16" xmlns="http://www.w3.org/2000/svg" xmlns:xlink="http://www.w3.org/1999/xlink" width="16.000000" height="16.000000" fill="none" customFrame="#000000">
	<rect id="线型服务图标/依赖分析报告" width="16.000000" height="16.000000" x="0.000000" y="0.000000" />
	<g id="编组">
		<rect id="矩形" width="16.000000" height="16.000000" x="0.000000" y="0.000000" opacity="0" fill="rgb(216,216,216)" />
		<rect id="矩形" width="15.000000" height="15.000000" x="0.500000" y="0.500000" opacity="0" stroke="rgb(151,151,151)" stroke-opacity="0" stroke-width="1" />
		<g id="grid 2" opacity="0">
			<g id="grid">
				<g id="bg">
					<path id="Fill 1" d="M16 16L0 16L0 0L16 0L16 16ZM15.3333 15.3331L0.666667 15.3331L0.666667 0.666422L15.3333 0.666422L15.3333 15.3331Z" fill="rgb(249,249,249)" fill-opacity="0.400000006" fill-rule="evenodd" />
					<path id="Fill 2" d="M1.3335 14.6668L14.6668 14.6668L14.6668 1.3335L1.3335 1.3335L1.3335 14.6668Z" fill="rgb(247,247,247)" fill-opacity="0.400000006" fill-rule="evenodd" />
					<path id="Fill 3" d="M2 14L14 14L14 2L2 2L2 14Z" fill="rgb(236,236,236)" fill-opacity="0.101960786" fill-rule="evenodd" />
				</g>
				<g id="Group 5">
					<rect id="Rectangle 2" width="13.333333" height="13.333333" x="1.329102" y="1.329102" rx="2.000000" opacity="0.800000012" fill="rgb(216,216,216)" fill-opacity="0" />
					<rect id="Rectangle 2" width="12.833333" height="12.833333" x="1.579102" y="1.579102" rx="1.750000" opacity="0.800000012" stroke="rgb(255,0,84)" stroke-width="0.5" />
					<rect id="Rectangle 2" width="8.000000" height="8.000000" x="3.998047" y="3.998047" opacity="0.800000012" fill="rgb(216,216,216)" fill-opacity="0" />
					<rect id="Rectangle 2" width="7.500000" height="7.500000" x="4.248047" y="4.248047" opacity="0.800000012" stroke="rgb(255,0,84)" stroke-width="0.5" />
					<rect id="Rectangle 2" width="12.000000" height="14.666667" x="1.993652" y="0.664551" rx="2.000000" opacity="0.800000012" fill="rgb(216,216,216)" fill-opacity="0" />
					<rect id="Rectangle 2" width="11.500000" height="14.166667" x="2.243652" y="0.914551" rx="1.750000" opacity="0.800000012" stroke="rgb(255,0,84)" stroke-width="0.5" />
					<rect id="Rectangle 2" width="14.666667" height="12.000000" x="0.664551" y="1.993652" rx="2.000000" opacity="0.800000012" fill="rgb(216,216,216)" fill-opacity="0" />
					<rect id="Rectangle 2" width="14.166667" height="11.500000" x="0.914551" y="2.243652" rx="1.750000" opacity="0.800000012" stroke="rgb(255,0,84)" stroke-width="0.5" />
					<circle id="Oval 2" cx="7.99788427" cy="7.99788427" r="7.33333349" opacity="0.800000012" fill="rgb(216,216,216)" fill-opacity="0" />
					<circle id="Oval 2" cx="7.99788427" cy="7.99788427" r="7.08333349" opacity="0.800000012" stroke="rgb(255,0,84)" stroke-width="0.5" />
					<circle id="Oval 2" cx="7.9977212" cy="7.9977212" r="4.66666651" opacity="0.800000012" fill="rgb(216,216,216)" fill-opacity="0" />
					<circle id="Oval 2" cx="7.9977212" cy="7.9977212" r="4.41666651" opacity="0.800000012" stroke="rgb(255,0,84)" stroke-width="0.5" />
				</g>
				<g id="Group 3">
					<path id="Path 3" d="M0.0178223 8.03369L15.9793 8.03369" opacity="0.300000012" stroke="rgb(0,0,0)" stroke-width="0.5" />
					<path id="Path 3" d="M0 0L15.9615 0" opacity="0.300000012" stroke="rgb(0,0,0)" stroke-width="0.5" transform="matrix(0,-1,1,0,7.99707,15.981)" />
					<path id="Path 7" d="M0 0L22.5872 0" opacity="0.300000012" stroke="rgb(0,0,0)" stroke-width="0.5" transform="matrix(0.707107,-0.707107,0.707107,0.707107,0,15.9717)" />
					<path id="Path 7" d="M0 0L22.5872 0" opacity="0.300000012" stroke="rgb(0,0,0)" stroke-width="0.5" transform="matrix(-0.707107,-0.707107,-0.707107,0.707107,15.9883,15.9883)" />
				</g>
			</g>
			<rect id="矩形" width="14.666667" height="14.666667" x="0.666504" y="0.666504" opacity="0.448823482" fill="rgb(50,197,255)" />
			<rect id="矩形" width="13.666667" height="13.666667" x="1.166504" y="1.166504" opacity="0.448823482" stroke="rgb(151,151,151)" stroke-opacity="0" stroke-width="1" />
			<circle id="椭圆形" cx="7.9998374" cy="7.9998374" r="7.33333349" opacity="0.448823482" fill="rgb(247,181,0)" />
			<circle id="椭圆形" cx="7.9998374" cy="7.9998374" r="6.83333349" opacity="0.448823482" stroke="rgb(151,151,151)" stroke-opacity="0" stroke-width="1" />
		</g>
		<path id="形状结合" d="M4.66602 14.6668C3.60085 14.6668 2.73351 13.8365 2.67268 12.7868L2.66602 12.6668L2.66602 3.3335C2.66602 2.2686 3.49611 1.39774 4.54602 1.33689L4.66602 1.3335L9.08268 1.3335C9.35422 1.3335 9.61523 1.42828 9.82361 1.59935L9.90957 1.67728L12.9942 4.77394C13.1848 4.96455 13.302 5.21491 13.3284 5.48119L13.334 5.59616L13.334 7.2535C13.334 7.52964 13.1102 7.7535 12.834 7.7535C12.5809 7.7535 12.3717 7.56421 12.3386 7.32016L12.334 7.2535L12.334 5.8215L10.36 5.82156C9.56574 5.82156 8.91622 5.20514 8.86347 4.42431L8.86002 4.32156L8.85935 2.3335L4.66602 2.3335C4.14624 2.3335 3.72114 2.73023 3.67268 3.23722L3.66602 3.3335L3.66602 12.6668C3.66602 13.1865 4.0656 13.6184 4.57268 13.6668L7.83268 13.667C8.10882 13.667 8.33268 13.8909 8.33268 14.167C8.33268 14.4202 8.1434 14.6294 7.89935 14.6625L7.83268 14.667L4.66602 14.6668ZM9.85998 4.32134L9.85931 3.04394L11.63 4.82127L10.36 4.82134L10.2921 4.81678C10.0478 4.78372 9.85998 4.57482 9.85998 4.32134ZM7.6667 4.83354C7.94284 4.83354 8.1667 5.05739 8.1667 5.33354C8.1667 5.58667 7.9786 5.79586 7.73454 5.82897L7.6667 5.83354L5.00003 5.83354C4.72389 5.83354 4.50003 5.60968 4.50003 5.33354C4.50003 5.08041 4.68813 4.87121 4.93218 4.8381L5.00003 4.83354L7.6667 4.83354ZM9.33255 6.83354C9.60869 6.83354 9.83255 7.05739 9.83255 7.33354C9.83255 7.58667 9.64445 7.79586 9.4004 7.82897L9.33255 7.83354L4.99922 7.83354C4.72307 7.83354 4.49922 7.60968 4.49922 7.33354C4.49922 7.08041 4.68732 6.87121 4.93137 6.8381L4.99922 6.83354L9.33255 6.83354ZM14.6635 11.3027C14.6635 9.62589 13.3043 8.2669 11.6274 8.2669C11.3528 8.2669 11.1301 8.48953 11.1301 8.76415L11.1301 11.3027L11.1347 11.3702C11.1676 11.6129 11.3756 11.7999 11.6274 11.7999L14.1662 11.7999L14.2337 11.7954C14.4764 11.7625 14.6635 11.5544 14.6635 11.3027ZM9.74633 8.76583C9.98913 8.63429 10.2926 8.72448 10.4241 8.96729C10.5557 9.21008 10.4655 9.51355 10.2227 9.64509C9.55948 10.0044 9.12809 10.6863 9.10129 11.4537C9.06004 12.635 9.9842 13.626 11.1654 13.6672C11.9526 13.6947 12.679 13.2911 13.0771 12.6275C13.2191 12.3907 13.5262 12.3139 13.763 12.4559C13.9998 12.598 14.0767 12.9051 13.9346 13.1419C13.3513 14.1144 12.2849 14.7069 11.1305 14.6666C9.39735 14.6061 8.04138 13.152 8.1019 11.4188C8.1412 10.2935 8.77457 9.29229 9.74633 8.76583ZM7.83255 9.33354C7.83255 9.05739 7.60869 8.83354 7.33255 8.83354L4.99922 8.83354L4.93137 8.8381C4.68732 8.87121 4.49922 9.08041 4.49922 9.33354C4.49922 9.60968 4.72307 9.83354 4.99922 9.83354L7.33255 9.83354L7.4004 9.82897C7.64445 9.79587 7.83255 9.58667 7.83255 9.33354ZM12.1249 10.8049L12.1249 9.32153L12.2549 9.35881C12.8829 9.5606 13.3796 10.0606 13.5772 10.6927L13.6082 10.8049L12.1249 10.8049Z" fill="rgb(81,79,198)" fill-rule="evenodd" />
		<path id="形状结合" d="M4.66602 14.6668C3.60085 14.6668 2.73351 13.8365 2.67268 12.7868L2.66602 12.6668L2.66602 3.3335C2.66602 2.2686 3.49611 1.39774 4.54602 1.33689L4.66602 1.3335L9.08268 1.3335C9.35422 1.3335 9.61523 1.42828 9.82361 1.59935L9.90957 1.67728L12.9942 4.77394C13.1848 4.96455 13.302 5.21491 13.3284 5.48119L13.334 5.59616L13.334 7.2535C13.334 7.52964 13.1102 7.7535 12.834 7.7535C12.5809 7.7535 12.3717 7.56421 12.3386 7.32016L12.334 7.2535L12.334 5.8215L10.36 5.82156C9.56574 5.82156 8.91622 5.20514 8.86347 4.42431L8.86002 4.32156L8.85935 2.3335L4.66602 2.3335C4.14624 2.3335 3.72114 2.73023 3.67268 3.23722L3.66602 3.3335L3.66602 12.6668C3.66602 13.1865 4.0656 13.6184 4.57268 13.6668L7.83268 13.667C8.10882 13.667 8.33268 13.8909 8.33268 14.167C8.33268 14.4202 8.1434 14.6294 7.89935 14.6625L7.83268 14.667L4.66602 14.6668ZM9.85931 3.04394L9.85998 4.32134C9.85998 4.57482 10.0478 4.78372 10.2921 4.81678L10.36 4.82134L11.63 4.82127L9.85931 3.04394ZM7.6667 4.83354C7.94284 4.83354 8.1667 5.05739 8.1667 5.33354C8.1667 5.58667 7.9786 5.79586 7.73454 5.82897L7.6667 5.83354L5.00003 5.83354C4.72389 5.83354 4.50003 5.60968 4.50003 5.33354C4.50003 5.08041 4.68813 4.87121 4.93218 4.8381L5.00003 4.83354L7.6667 4.83354ZM9.33255 6.83354C9.60869 6.83354 9.83255 7.05739 9.83255 7.33354C9.83255 7.58667 9.64445 7.79586 9.4004 7.82897L9.33255 7.83354L4.99922 7.83354C4.72307 7.83354 4.49922 7.60968 4.49922 7.33354C4.49922 7.08041 4.68732 6.87121 4.93137 6.8381L4.99922 6.83354L9.33255 6.83354ZM11.6274 8.2669C13.3043 8.2669 14.6635 9.62589 14.6635 11.3027C14.6635 11.5544 14.4764 11.7625 14.2337 11.7954L14.1662 11.7999L11.6274 11.7999C11.3756 11.7999 11.1676 11.6129 11.1347 11.3702L11.1301 11.3027L11.1301 8.76415C11.1301 8.48953 11.3528 8.2669 11.6274 8.2669ZM9.74633 8.76583C9.98913 8.63429 10.2926 8.72448 10.4241 8.96729C10.4651 9.04298 10.4846 9.12457 10.4846 9.20502C10.4846 9.38259 10.3898 9.55456 10.2227 9.64509C9.55948 10.0044 9.12809 10.6863 9.10129 11.4537C9.1004 11.4791 9.09996 11.5045 9.09996 11.5297C9.09996 12.6772 10.0096 13.6269 11.1654 13.6672C11.9526 13.6947 12.679 13.2911 13.0771 12.6275C13.2191 12.3907 13.5262 12.3139 13.763 12.4559C13.9193 12.5497 14.0059 12.7153 14.0059 12.8852C14.0059 12.9727 13.9829 13.0614 13.9346 13.1419C13.3513 14.1144 12.2849 14.7069 11.1305 14.6666C9.43467 14.6074 8.09995 13.214 8.09995 11.5304C8.09995 11.4933 8.1006 11.4561 8.1019 11.4188C8.1412 10.2935 8.77457 9.29229 9.74633 8.76583ZM7.33255 8.83354C7.60869 8.83354 7.83255 9.05739 7.83255 9.33354C7.83255 9.58667 7.64445 9.79587 7.4004 9.82897L7.33255 9.83354L4.99922 9.83354C4.72307 9.83354 4.49922 9.60968 4.49922 9.33354C4.49922 9.08041 4.68732 8.87121 4.93137 8.8381L4.99922 8.83354L7.33255 8.83354ZM12.1249 9.32153L12.1249 10.8049L13.6082 10.8049L13.5772 10.6927C13.3796 10.0606 12.8829 9.5606 12.2549 9.35881L12.1249 9.32153Z" fill="rgb(151,151,151)" fill-opacity="0" fill-rule="evenodd" />
	</g>
</svg>
