<svg viewBox="0 0 16 16" xmlns="http://www.w3.org/2000/svg" xmlns:xlink="http://www.w3.org/1999/xlink" width="16.000000" height="16.000000" fill="none">
	<rect id="线型服务图标/全量设计" width="16.000000" height="16.000000" x="0.000000" y="0.000000" />
	<g id="页面-1">
		<g id="edevops">
			<g id="编组-50">
				<g id="03-Navigation-导航-/-01-导航菜单-/-基础控件-/-05_横版-/-32px高度_16px图标+文字-/-Click">
					<g id="编组">
						<rect id="矩形" width="16.000000" height="16.000000" x="0.000000" y="0.000000" opacity="0" fill="rgb(216,216,216)" />
						<rect id="矩形" width="16.000000" height="16.000000" x="0.000000" y="0.000000" opacity="0" stroke="rgb(0,0,0)" stroke-opacity="0" stroke-width="1" />
						<path id="形状结合" d="M14.2672 6.89313C14.7728 7.39876 14.7994 8.20201 14.347 8.73896L10.8232 12.2698C10.7932 12.2998 10.7596 12.3259 10.7232 12.3473L8.52483 13.293C8.13091 13.4617 7.73287 13.092 7.84607 12.699L8.78429 10.4941C8.801 10.455 8.82259 10.4183 8.84849 10.3848L12.3344 6.89313C12.8682 6.35942 13.7335 6.35942 14.2672 6.89313ZM12.8332 2.6665C13.8082 2.6665 14.6054 3.42764 14.6632 4.38816L14.6665 4.49984L14.6665 5.53284C14.6665 5.80899 14.4426 6.03284 14.1665 6.03284C13.9134 6.03284 13.7042 5.84474 13.6711 5.60069L13.6665 4.49984C13.6665 4.0396 13.2934 3.6665 12.8332 3.6665C12.4017 3.6665 12.0468 3.99442 12.0041 4.41463L11.9998 5.89951C11.9998 6.17565 11.776 6.39951 11.4998 6.39951C11.2467 6.39951 11.0375 6.21141 11.0044 5.96736L10.9995 4.9995L4.9995 4.9995L5.00016 10.9995C5.00016 11.2143 4.86474 11.3974 4.67463 11.4682L4.50016 11.4995C4.24671 11.4995 4.03751 11.3114 4.0044 11.0674C4.0044 10.6071 3.62674 10.1662 3.1665 10.1662C2.73503 10.1662 2.38015 10.4941 2.33747 10.9143L2.3335 11.3328C2.3335 11.8526 2.73009 12.2798 3.23719 12.3283L6.6665 12.3328C6.94265 12.3328 7.1665 12.5567 7.1665 12.8328C7.1665 13.086 6.9784 13.2952 6.73435 13.3283L3.3335 13.3328C2.26838 13.3328 1.39772 12.5002 1.33689 11.4504L1.3335 11.3328L1.3335 4.49984C1.3335 3.48732 2.15431 2.6665 3.16683 2.6665C4.00597 2.6665 4.71343 3.23028 4.93112 3.99971L11.0689 3.99976C11.2865 3.2303 11.994 2.6665 12.8332 2.6665ZM14.1646 10.0662C14.4178 10.0662 14.627 10.2543 14.6601 10.4983L14.666 11.3105C14.666 12.3756 13.8339 13.2686 12.784 13.3294L12.6665 13.3328L11.6662 13.3328C11.39 13.3328 11.1662 13.109 11.1662 12.8328C11.1662 12.5797 11.3543 12.3705 11.5983 12.3374L12.6665 12.3328C13.1863 12.3328 13.6135 11.9363 13.6619 11.4292L13.6646 10.5662C13.6646 10.29 13.8885 10.0662 14.1646 10.0662ZM12.1624 8.47941L9.66581 10.976L9.27879 11.8815L10.1858 11.4931L12.68 8.9989L12.1624 8.47941ZM3.16683 3.6665C2.73536 3.6665 2.38047 3.99442 2.3378 4.41463L2.33378 9.36577C2.58365 9.23815 2.86667 9.16618 3.1665 9.16618C3.46673 9.16618 3.7501 9.23834 4.00021 9.36627L4.00016 4.49984C4.00016 4.0396 3.62707 3.6665 3.16683 3.6665ZM13.0923 7.55781L12.8657 7.77607L13.3852 8.29368L13.5601 8.11878C13.6746 8.00423 13.6976 7.83274 13.6288 7.69541C13.5015 7.56813 13.2352 7.45881 13.0923 7.55781Z" fill="rgb(55,167,227)" fill-rule="evenodd" />
						<path id="形状结合" d="M14.347 8.73896L10.8232 12.2698C10.7932 12.2998 10.7596 12.3259 10.7232 12.3473L8.52483 13.293C8.13091 13.4617 7.73287 13.092 7.84607 12.699L8.78429 10.4941C8.801 10.455 8.82259 10.4183 8.84849 10.3848L12.3344 6.89313C12.8682 6.35942 13.7335 6.35942 14.2672 6.89313C14.7728 7.39876 14.7994 8.20201 14.347 8.73896ZM14.6632 4.38816L14.6665 4.49984L14.6665 5.53284C14.6665 5.80899 14.4426 6.03284 14.1665 6.03284C13.9134 6.03284 13.7042 5.84474 13.6711 5.60069L13.6665 4.49984C13.6665 4.0396 13.2934 3.6665 12.8332 3.6665C12.4017 3.6665 12.0468 3.99442 12.0041 4.41463L11.9998 5.89951C11.9998 6.17565 11.776 6.39951 11.4998 6.39951C11.2467 6.39951 11.0375 6.21141 11.0044 5.96736L10.9995 4.9995L4.9995 4.9995L5.00016 10.9995C5.00016 11.2143 4.86474 11.3974 4.67463 11.4682L4.50016 11.4995C4.24671 11.4995 4.03751 11.3114 4.0044 11.0674C4.0044 10.6071 3.62674 10.1662 3.1665 10.1662C2.73503 10.1662 2.38015 10.4941 2.33747 10.9143L2.3335 11.3328C2.3335 11.8526 2.73009 12.2798 3.23719 12.3283L6.6665 12.3328C6.94265 12.3328 7.1665 12.5567 7.1665 12.8328C7.1665 13.086 6.9784 13.2952 6.73435 13.3283L3.3335 13.3328C2.26838 13.3328 1.39772 12.5002 1.33689 11.4504L1.3335 11.3328L1.3335 4.49984C1.3335 3.48732 2.15431 2.6665 3.16683 2.6665C4.00597 2.6665 4.71343 3.23028 4.93112 3.99971L11.0689 3.99976C11.2865 3.2303 11.994 2.6665 12.8332 2.6665C13.8082 2.6665 14.6054 3.42764 14.6632 4.38816ZM14.6601 10.4983L14.666 11.3105C14.666 12.3756 13.8339 13.2686 12.784 13.3294L12.6665 13.3328L11.6662 13.3328C11.39 13.3328 11.1662 13.109 11.1662 12.8328C11.1662 12.5797 11.3543 12.3705 11.5983 12.3374L12.6665 12.3328C13.1863 12.3328 13.6135 11.9363 13.6619 11.4292L13.6646 10.5662C13.6646 10.29 13.8885 10.0662 14.1646 10.0662C14.4178 10.0662 14.627 10.2543 14.6601 10.4983ZM9.66581 10.976L9.27879 11.8815L10.1858 11.4931L12.68 8.9989L12.1624 8.47941L9.66581 10.976ZM2.3378 4.41463L2.33378 9.36577C2.58365 9.23815 2.86667 9.16618 3.1665 9.16618C3.46673 9.16618 3.7501 9.23834 4.00021 9.36627L4.00016 4.49984C4.00016 4.0396 3.62707 3.6665 3.16683 3.6665C2.73536 3.6665 2.38047 3.99442 2.3378 4.41463ZM12.8657 7.77607L13.3852 8.29368L13.5601 8.11878C13.6746 8.00423 13.6976 7.83274 13.6288 7.69541C13.5015 7.56813 13.2352 7.45881 13.0923 7.55781L12.8657 7.77607Z" fill-rule="evenodd" stroke="rgb(0,0,0)" stroke-opacity="0" stroke-width="1" />
					</g>
				</g>
			</g>
		</g>
	</g>
</svg>
