<svg viewBox="0 0 16 16" xmlns="http://www.w3.org/2000/svg" xmlns:xlink="http://www.w3.org/1999/xlink" width="16.000000" height="16.000000" fill="none" customFrame="#000000">
	<rect id="线型服务图标/开源备案" width="16.000000" height="16.000000" x="0.000000" y="0.000000" />
	<g id="编组">
		<rect id="矩形" width="16.000000" height="16.000000" x="0.000000" y="0.000000" opacity="0" fill="rgb(216,216,216)" />
		<rect id="矩形" width="15.000000" height="15.000000" x="0.500000" y="0.500000" opacity="0" stroke="rgb(151,151,151)" stroke-opacity="0" stroke-width="1" />
		<g id="grid 2" opacity="0">
			<g id="grid">
				<g id="bg">
					<path id="Fill 1" d="M16 16L0 16L0 0L16 0L16 16ZM15.3333 15.3331L0.666667 15.3331L0.666667 0.666422L15.3333 0.666422L15.3333 15.3331Z" fill="rgb(249,249,249)" fill-opacity="0.400000006" fill-rule="evenodd" />
					<path id="Fill 2" d="M1.3335 14.6668L14.6668 14.6668L14.6668 1.3335L1.3335 1.3335L1.3335 14.6668Z" fill="rgb(247,247,247)" fill-opacity="0.400000006" fill-rule="evenodd" />
					<path id="Fill 3" d="M2 14L14 14L14 2L2 2L2 14Z" fill="rgb(236,236,236)" fill-opacity="0.101960786" fill-rule="evenodd" />
				</g>
				<g id="Group 5">
					<rect id="Rectangle 2" width="13.333333" height="13.333333" x="1.329102" y="1.329102" rx="2.000000" opacity="0.800000012" fill="rgb(216,216,216)" fill-opacity="0" />
					<rect id="Rectangle 2" width="12.833333" height="12.833333" x="1.579102" y="1.579102" rx="1.750000" opacity="0.800000012" stroke="rgb(255,0,84)" stroke-width="0.5" />
					<rect id="Rectangle 2" width="8.000000" height="8.000000" x="3.998047" y="3.998047" opacity="0.800000012" fill="rgb(216,216,216)" fill-opacity="0" />
					<rect id="Rectangle 2" width="7.500000" height="7.500000" x="4.248047" y="4.248047" opacity="0.800000012" stroke="rgb(255,0,84)" stroke-width="0.5" />
					<rect id="Rectangle 2" width="12.000000" height="14.666667" x="1.993652" y="0.664551" rx="2.000000" opacity="0.800000012" fill="rgb(216,216,216)" fill-opacity="0" />
					<rect id="Rectangle 2" width="11.500000" height="14.166667" x="2.243652" y="0.914551" rx="1.750000" opacity="0.800000012" stroke="rgb(255,0,84)" stroke-width="0.5" />
					<rect id="Rectangle 2" width="14.666667" height="12.000000" x="0.664551" y="1.993652" rx="2.000000" opacity="0.800000012" fill="rgb(216,216,216)" fill-opacity="0" />
					<rect id="Rectangle 2" width="14.166667" height="11.500000" x="0.914551" y="2.243652" rx="1.750000" opacity="0.800000012" stroke="rgb(255,0,84)" stroke-width="0.5" />
					<circle id="Oval 2" cx="7.99788427" cy="7.99788427" r="7.33333349" opacity="0.800000012" fill="rgb(216,216,216)" fill-opacity="0" />
					<circle id="Oval 2" cx="7.99788427" cy="7.99788427" r="7.08333349" opacity="0.800000012" stroke="rgb(255,0,84)" stroke-width="0.5" />
					<circle id="Oval 2" cx="7.9977212" cy="7.9977212" r="4.66666651" opacity="0.800000012" fill="rgb(216,216,216)" fill-opacity="0" />
					<circle id="Oval 2" cx="7.9977212" cy="7.9977212" r="4.41666651" opacity="0.800000012" stroke="rgb(255,0,84)" stroke-width="0.5" />
				</g>
				<g id="Group 3">
					<path id="Path 3" d="M0.0178223 8.0332L15.9793 8.0332" opacity="0.300000012" stroke="rgb(0,0,0)" stroke-width="0.5" />
					<path id="Path 3" d="M0 0L15.9615 0" opacity="0.300000012" stroke="rgb(0,0,0)" stroke-width="0.5" transform="matrix(0,-1,1,0,7.99756,15.9805)" />
					<path id="Path 7" d="M0 0L22.5872 0" opacity="0.300000012" stroke="rgb(0,0,0)" stroke-width="0.5" transform="matrix(0.707107,-0.707106,0.707106,0.707107,0,15.9717)" />
					<path id="Path 7" d="M0 0L22.5872 0" opacity="0.300000012" stroke="rgb(0,0,0)" stroke-width="0.5" transform="matrix(-0.707107,-0.707107,-0.707107,0.707107,15.9883,15.9883)" />
				</g>
			</g>
			<rect id="矩形" width="14.666667" height="14.666667" x="0.666504" y="0.666504" opacity="0.448823482" fill="rgb(50,197,255)" />
			<rect id="矩形" width="13.666667" height="13.666667" x="1.166504" y="1.166504" opacity="0.448823482" stroke="rgb(151,151,151)" stroke-opacity="0" stroke-width="1" />
			<circle id="椭圆形" cx="7.9998374" cy="7.9998374" r="7.33333349" opacity="0.448823482" fill="rgb(247,181,0)" />
			<circle id="椭圆形" cx="7.9998374" cy="7.9998374" r="6.83333349" opacity="0.448823482" stroke="rgb(151,151,151)" stroke-opacity="0" stroke-width="1" />
		</g>
		<path id="形状结合" d="M9.64258 14.6676L3.64258 14.6676C2.53991 14.6676 1.64258 13.7702 1.64258 12.6682L1.64258 3.33423C1.64258 2.23156 2.53991 1.33423 3.64258 1.33423L9.64258 1.33423C10.3966 1.33423 11.0786 1.75156 11.4226 2.42289C11.5666 2.70223 11.6426 3.0169 11.6426 3.33423C11.6426 3.61023 11.4186 3.83423 11.1426 3.83423C10.8666 3.83423 10.6426 3.61023 10.6426 3.33423C10.6426 3.17356 10.6059 3.02023 10.5332 2.8789C10.3606 2.5429 10.0192 2.33423 9.64258 2.33423L3.64258 2.33423C3.09124 2.33423 2.64258 2.7829 2.64258 3.33423L2.64258 12.6682C2.64258 13.2189 3.09124 13.6676 3.64258 13.6676L9.64258 13.6676C10.1939 13.6676 10.6426 13.2189 10.6426 12.6676L10.6426 9.87631L8.91892 11.6C8.86492 11.6546 8.80159 11.6993 8.73225 11.732L5.96825 13.0353C5.89559 13.0693 5.82158 13.0846 5.75092 13.0846C5.40759 13.0846 5.13025 12.7186 5.29759 12.364L6.60025 9.59997C6.63292 9.5313 6.67758 9.4673 6.73225 9.4133L11.7296 4.41597C12.0256 4.11997 12.4143 3.97197 12.8043 3.97197C13.2009 3.97197 13.5989 4.12463 13.9029 4.4293C14.5069 5.0333 14.5129 6.00664 13.9163 6.60263L11.6426 8.87631L11.6426 12.6676C11.6426 13.7702 10.7452 14.6676 9.64258 14.6676ZM8.97121 3.43856C9.24735 3.43856 9.47121 3.66242 9.47121 3.93856C9.47121 4.18402 9.29434 4.38817 9.06109 4.4305L8.97121 4.43856L4.31226 4.43856C4.03611 4.43856 3.81226 4.2147 3.81226 3.93856C3.81226 3.6931 3.98913 3.48895 4.22238 3.44661L4.31226 3.43856L8.97121 3.43856ZM12.8046 4.97093C12.9513 4.97093 13.0906 5.0296 13.1966 5.13493C13.3013 5.2396 13.36 5.3776 13.3606 5.5236C13.3606 5.6056 13.342 5.76293 13.21 5.89493L13.0834 6.02149L12.3104 5.2485L12.4366 5.12226C12.568 4.99026 12.7233 4.97093 12.8046 4.97093ZM8.11448 5.94051C8.11448 5.66437 7.89063 5.44051 7.61448 5.44051L4.31156 5.44051L4.22169 5.44857C3.98844 5.4909 3.81156 5.69505 3.81156 5.94051C3.81156 6.21665 4.03542 6.44051 4.31156 6.44051L7.61448 6.44051L7.70436 6.43246C7.93761 6.39012 8.11448 6.18597 8.11448 5.94051ZM11.6034 5.95548L7.48064 10.0783L6.79064 11.5403L8.25331 10.8509L12.3766 6.72815L11.6034 5.95548ZM6.7818 7.93905C6.7818 7.6629 6.55794 7.43905 6.2818 7.43905L4.31221 7.43905L4.22234 7.4471C3.98909 7.48944 3.81221 7.69359 3.81221 7.93905C3.81221 8.21519 4.03607 8.43905 4.31221 8.43905L6.2818 8.43905L6.37168 8.43099C6.60493 8.38865 6.7818 8.18451 6.7818 7.93905Z" fill="rgb(81,79,198)" fill-rule="evenodd" />
		<path id="形状结合" d="M9.64258 14.6676L3.64258 14.6676C2.53991 14.6676 1.64258 13.7702 1.64258 12.6682L1.64258 3.33423C1.64258 2.23156 2.53991 1.33423 3.64258 1.33423L9.64258 1.33423C10.3966 1.33423 11.0786 1.75156 11.4226 2.42289C11.5666 2.70223 11.6426 3.0169 11.6426 3.33423C11.6426 3.61023 11.4186 3.83423 11.1426 3.83423C10.8666 3.83423 10.6426 3.61023 10.6426 3.33423C10.6426 3.17356 10.6059 3.02023 10.5332 2.8789C10.3606 2.5429 10.0192 2.33423 9.64258 2.33423L3.64258 2.33423C3.09124 2.33423 2.64258 2.7829 2.64258 3.33423L2.64258 12.6682C2.64258 13.2189 3.09124 13.6676 3.64258 13.6676L9.64258 13.6676C10.1939 13.6676 10.6426 13.2189 10.6426 12.6676L10.6426 9.87631L8.91892 11.6C8.86492 11.6546 8.80159 11.6993 8.73225 11.732L5.96825 13.0353C5.89559 13.0693 5.82158 13.0846 5.75092 13.0846C5.4784 13.0846 5.24747 12.8541 5.24747 12.5816C5.24747 12.5108 5.26307 12.4371 5.29759 12.364L6.60025 9.59997C6.63292 9.5313 6.67758 9.4673 6.73225 9.4133L11.7296 4.41597C12.0256 4.11997 12.4143 3.97197 12.8043 3.97197C13.2009 3.97197 13.5989 4.12463 13.9029 4.4293C14.2073 4.73373 14.3599 5.13199 14.3599 5.52847C14.3599 5.91861 14.2122 6.30703 13.9163 6.60263L11.6426 8.87631L11.6426 12.6676C11.6426 13.7702 10.7452 14.6676 9.64258 14.6676ZM8.97121 3.43856C9.24735 3.43856 9.47121 3.66242 9.47121 3.93856C9.47121 4.18402 9.29434 4.38817 9.06109 4.4305L8.97121 4.43856L4.31226 4.43856C4.03611 4.43856 3.81226 4.2147 3.81226 3.93856C3.81226 3.6931 3.98913 3.48895 4.22238 3.44661L4.31226 3.43856L8.97121 3.43856ZM13.1966 5.13493C13.0906 5.0296 12.9513 4.97093 12.8046 4.97093C12.7233 4.97093 12.568 4.99026 12.4366 5.12226L12.3104 5.2485L13.0834 6.02149L13.21 5.89493C13.342 5.76293 13.3606 5.6056 13.3606 5.5236C13.36 5.3776 13.3013 5.2396 13.1966 5.13493ZM7.61448 5.44051C7.89063 5.44051 8.11448 5.66437 8.11448 5.94051C8.11448 6.18597 7.93761 6.39012 7.70436 6.43246L7.61448 6.44051L4.31156 6.44051C4.03542 6.44051 3.81156 6.21665 3.81156 5.94051C3.81156 5.69505 3.98844 5.4909 4.22169 5.44857L4.31156 5.44051L7.61448 5.44051ZM11.6034 5.95548L7.48064 10.0783L6.79064 11.5403L8.25331 10.8509L12.3766 6.72815L11.6034 5.95548ZM6.2818 7.43905C6.55794 7.43905 6.7818 7.6629 6.7818 7.93905C6.7818 8.18451 6.60493 8.38865 6.37168 8.43099L6.2818 8.43905L4.31221 8.43905C4.03607 8.43905 3.81221 8.21519 3.81221 7.93905C3.81221 7.69359 3.98909 7.48944 4.22234 7.4471L4.31221 7.43905L6.2818 7.43905Z" fill="rgb(151,151,151)" fill-opacity="0" fill-rule="evenodd" />
	</g>
</svg>
