<svg viewBox="0 0 16 16" xmlns="http://www.w3.org/2000/svg" xmlns:xlink="http://www.w3.org/1999/xlink" width="16.000000" height="16.000000" fill="none" customFrame="#000000">
	<rect id="线型服务图标/接口设计" width="16.000000" height="16.000000" x="0.000000" y="0.000000" />
	<g id="编组">
		<rect id="矩形" width="16.000000" height="16.000000" x="0.000000" y="0.000000" opacity="0" fill="rgb(216,216,216)" />
		<rect id="矩形" width="15.000000" height="15.000000" x="0.500000" y="0.500000" opacity="0" stroke="rgb(151,151,151)" stroke-opacity="0" stroke-width="1" />
		<g id="grid 2" opacity="0">
			<g id="grid">
				<g id="bg">
					<path id="Fill 1" d="M16 16L0 16L0 0L16 0L16 16ZM15.3333 15.3331L0.666667 15.3331L0.666667 0.666422L15.3333 0.666422L15.3333 15.3331Z" fill="rgb(249,249,249)" fill-opacity="0.400000006" fill-rule="evenodd" />
					<path id="Fill 2" d="M1.3335 14.6668L14.6668 14.6668L14.6668 1.3335L1.3335 1.3335L1.3335 14.6668Z" fill="rgb(247,247,247)" fill-opacity="0.400000006" fill-rule="evenodd" />
					<path id="Fill 3" d="M2 14L14 14L14 2L2 2L2 14Z" fill="rgb(236,236,236)" fill-opacity="0.101960786" fill-rule="evenodd" />
				</g>
				<g id="Group 5">
					<rect id="Rectangle 2" width="13.333333" height="13.333333" x="1.329102" y="1.329102" rx="2.000000" opacity="0.800000012" fill="rgb(216,216,216)" fill-opacity="0" />
					<rect id="Rectangle 2" width="12.833333" height="12.833333" x="1.579102" y="1.579102" rx="1.750000" opacity="0.800000012" stroke="rgb(255,0,84)" stroke-width="0.5" />
					<rect id="Rectangle 2" width="8.000000" height="8.000000" x="3.998047" y="3.998047" opacity="0.800000012" fill="rgb(216,216,216)" fill-opacity="0" />
					<rect id="Rectangle 2" width="7.500000" height="7.500000" x="4.248047" y="4.248047" opacity="0.800000012" stroke="rgb(255,0,84)" stroke-width="0.5" />
					<rect id="Rectangle 2" width="12.000000" height="14.666667" x="1.993652" y="0.664551" rx="2.000000" opacity="0.800000012" fill="rgb(216,216,216)" fill-opacity="0" />
					<rect id="Rectangle 2" width="11.500000" height="14.166667" x="2.243652" y="0.914551" rx="1.750000" opacity="0.800000012" stroke="rgb(255,0,84)" stroke-width="0.5" />
					<rect id="Rectangle 2" width="14.666667" height="12.000000" x="0.664551" y="1.993652" rx="2.000000" opacity="0.800000012" fill="rgb(216,216,216)" fill-opacity="0" />
					<rect id="Rectangle 2" width="14.166667" height="11.500000" x="0.914551" y="2.243652" rx="1.750000" opacity="0.800000012" stroke="rgb(255,0,84)" stroke-width="0.5" />
					<circle id="Oval 2" cx="7.99788427" cy="7.99788427" r="7.33333349" opacity="0.800000012" fill="rgb(216,216,216)" fill-opacity="0" />
					<circle id="Oval 2" cx="7.99788427" cy="7.99788427" r="7.08333349" opacity="0.800000012" stroke="rgb(255,0,84)" stroke-width="0.5" />
					<circle id="Oval 2" cx="7.9977212" cy="7.9977212" r="4.66666651" opacity="0.800000012" fill="rgb(216,216,216)" fill-opacity="0" />
					<circle id="Oval 2" cx="7.9977212" cy="7.9977212" r="4.41666651" opacity="0.800000012" stroke="rgb(255,0,84)" stroke-width="0.5" />
				</g>
				<g id="Group 3">
					<path id="Path 3" d="M0.0178223 8.03369L15.9793 8.03369" opacity="0.300000012" stroke="rgb(0,0,0)" stroke-width="0.5" />
					<path id="Path 3" d="M0 0L15.9615 0" opacity="0.300000012" stroke="rgb(0,0,0)" stroke-width="0.5" transform="matrix(0,-1,1,0,7.99756,15.9805)" />
					<path id="Path 7" d="M0 0L22.5872 0" opacity="0.300000012" stroke="rgb(0,0,0)" stroke-width="0.5" transform="matrix(0.707107,-0.707107,0.707107,0.707107,0,15.9717)" />
					<path id="Path 7" d="M0 0L22.5872 0" opacity="0.300000012" stroke="rgb(0,0,0)" stroke-width="0.5" transform="matrix(-0.707107,-0.707107,-0.707107,0.707107,15.9883,15.9883)" />
				</g>
			</g>
			<rect id="矩形" width="14.666667" height="14.666667" x="0.666504" y="0.666504" opacity="0.448823482" fill="rgb(50,197,255)" />
			<rect id="矩形" width="13.666667" height="13.666667" x="1.166504" y="1.166504" opacity="0.448823482" stroke="rgb(151,151,151)" stroke-opacity="0" stroke-width="1" />
			<circle id="椭圆形" cx="7.9998374" cy="7.9998374" r="7.33333349" opacity="0.448823482" fill="rgb(247,181,0)" />
			<circle id="椭圆形" cx="7.9998374" cy="7.9998374" r="6.83333349" opacity="0.448823482" stroke="rgb(151,151,151)" stroke-opacity="0" stroke-width="1" />
		</g>
		<path id="形状结合" d="M7.82571 1.33398C8.79124 1.33398 9.67954 1.79902 10.2245 2.55625L10.2846 2.64427C10.351 2.72955 10.3905 2.83678 10.3905 2.95325C10.3905 3.23124 10.1652 3.45659 9.88721 3.45659C9.72506 3.45659 9.58081 3.37991 9.48876 3.26083L9.47101 3.2345C9.12073 2.68282 8.50266 2.33848 7.82571 2.33848C6.81519 2.33848 5.99938 3.0556 5.89863 3.9955L5.89001 4.10933L5.888 4.21957C5.888 4.49696 5.66313 4.72182 5.38575 4.72182C4.70761 4.72182 4.1597 5.2602 4.1597 5.92196C4.1597 6.55063 4.65419 7.06795 5.28506 7.11811L5.38575 7.1221L10.2555 7.1221C11.1301 7.1221 11.8374 6.42682 11.8374 5.57147C11.8374 5.05196 11.5132 4.53026 11.0378 4.23662L11.0691 4.25846C10.9093 4.1741 10.8005 4.00631 10.8005 3.81309C10.8005 3.5351 11.0258 3.30975 11.3038 3.30975C11.3973 3.30975 11.4849 3.33526 11.5599 3.37969C12.3307 3.85366 12.8419 4.69592 12.8419 5.57147C12.8419 6.90185 11.8112 7.99903 10.4865 8.11633L10.3531 8.12477L10.3334 8.1251L10.3334 10.4492C10.3334 10.57 10.4191 10.6708 10.533 10.6941L10.5834 10.6992L11.7414 10.6992C11.938 10.0999 12.5019 9.66706 13.167 9.66706C13.9954 9.66706 14.667 10.3386 14.667 11.1671C14.667 11.9955 13.9954 12.6671 13.167 12.6671C12.526 12.6671 11.9788 12.2649 11.7641 11.6992L10.5834 11.6992C9.92594 11.6992 9.38702 11.1916 9.33719 10.5469L9.33343 10.4492L9.33343 8.12658L8.5 8.12657L8.5 11.7524C9.0826 11.9583 9.5 12.5139 9.5 13.1671C9.5 13.9955 8.82843 14.6671 8 14.6671C7.17157 14.6671 6.5 13.9955 6.5 13.1671C6.5 12.5139 6.9174 11.9583 7.5 11.7524L7.5 8.12655L6.57152 8.12654L6.57152 10.4492C6.57152 11.1067 6.06391 11.6456 5.41921 11.6954L5.32152 11.6992L4.23588 11.6992C4.02116 12.2649 3.47405 12.6671 2.83301 12.6671C2.00458 12.6671 1.33301 11.9955 1.33301 11.1671C1.33301 10.3386 2.00458 9.66706 2.83301 9.66706C3.49806 9.66706 4.06203 10.0999 4.2586 10.6992L5.32152 10.6992C5.44233 10.6992 5.54313 10.6135 5.56644 10.4996L5.57152 10.4492L5.57152 8.12653L5.36042 8.12652L5.28397 8.12434C4.09617 8.07151 3.1552 7.1029 3.1552 5.92196C3.1552 4.95395 3.78987 4.11995 4.68572 3.82802L4.80402 3.79305L4.91541 3.76635C5.1159 2.45987 6.19704 1.47129 7.53924 1.34716L7.68401 1.33719L7.82571 1.33398ZM2.83301 10.6671C3.10915 10.6671 3.33301 10.8909 3.33301 11.1671C3.33301 11.4432 3.10915 11.6671 2.83301 11.6671C2.55687 11.6671 2.33301 11.4432 2.33301 11.1671C2.33301 10.8909 2.55687 10.6671 2.83301 10.6671ZM13.167 10.6671C12.8909 10.6671 12.667 10.8909 12.667 11.1671C12.667 11.4432 12.8909 11.6671 13.167 11.6671C13.4431 11.6671 13.667 11.4432 13.667 11.1671C13.667 10.8909 13.4431 10.6671 13.167 10.6671ZM8 12.6671C8.27614 12.6671 8.5 12.8909 8.5 13.1671C8.5 13.4432 8.27614 13.6671 8 13.6671C7.72386 13.6671 7.5 13.4432 7.5 13.1671C7.5 12.8909 7.72386 12.6671 8 12.6671Z" fill="rgb(55,167,227)" fill-rule="evenodd" />
		<path id="形状结合" d="M7.82571 1.33398C8.79124 1.33398 9.67954 1.79902 10.2245 2.55625L10.2846 2.64427C10.351 2.72955 10.3905 2.83678 10.3905 2.95325C10.3905 3.23124 10.1652 3.45659 9.88721 3.45659C9.72506 3.45659 9.58081 3.37991 9.48876 3.26083L9.47101 3.2345C9.12073 2.68282 8.50266 2.33848 7.82571 2.33848C6.81519 2.33848 5.99938 3.0556 5.89863 3.9955L5.89001 4.10933L5.888 4.21957C5.888 4.49696 5.66313 4.72182 5.38575 4.72182C4.70761 4.72182 4.1597 5.2602 4.1597 5.92196C4.1597 6.55063 4.65419 7.06795 5.28506 7.11811L5.38575 7.1221L10.2555 7.1221C11.1301 7.1221 11.8374 6.42682 11.8374 5.57147C11.8374 5.05196 11.5132 4.53026 11.0378 4.23662L11.0691 4.25846C10.9093 4.1741 10.8005 4.00631 10.8005 3.81309C10.8005 3.5351 11.0258 3.30975 11.3038 3.30975C11.3973 3.30975 11.4849 3.33526 11.5599 3.37969C12.3307 3.85366 12.8419 4.69592 12.8419 5.57147C12.8419 6.90185 11.8112 7.99903 10.4865 8.11633L10.3531 8.12477L10.3334 8.1251L10.3334 10.4492C10.3334 10.57 10.4191 10.6708 10.533 10.6941L10.5834 10.6992L11.7414 10.6992C11.938 10.0999 12.5019 9.66706 13.167 9.66706C13.9954 9.66706 14.667 10.3386 14.667 11.1671C14.667 11.9955 13.9954 12.6671 13.167 12.6671C12.526 12.6671 11.9788 12.2649 11.7641 11.6992L10.5834 11.6992C9.92594 11.6992 9.38702 11.1916 9.33719 10.5469L9.33343 10.4492L9.33343 8.12658L8.5 8.12657L8.5 11.7524C9.0826 11.9583 9.5 12.5139 9.5 13.1671C9.5 13.9955 8.82843 14.6671 8 14.6671C7.17157 14.6671 6.5 13.9955 6.5 13.1671C6.5 12.5139 6.9174 11.9583 7.5 11.7524L7.5 8.12655L6.57152 8.12654L6.57152 10.4492C6.57152 11.1067 6.06391 11.6456 5.41921 11.6954L5.32152 11.6992L4.23588 11.6992C4.02116 12.2649 3.47405 12.6671 2.83301 12.6671C2.00458 12.6671 1.33301 11.9955 1.33301 11.1671C1.33301 10.3386 2.00458 9.66706 2.83301 9.66706C3.49806 9.66706 4.06203 10.0999 4.2586 10.6992L5.32152 10.6992C5.44233 10.6992 5.54313 10.6135 5.56644 10.4996L5.57152 10.4492L5.57152 8.12653L5.36042 8.12652L5.28397 8.12434C4.09617 8.07151 3.1552 7.1029 3.1552 5.92196C3.1552 4.95395 3.78987 4.11995 4.68572 3.82802L4.80402 3.79305L4.91541 3.76635C5.1159 2.45987 6.19704 1.47129 7.53924 1.34716L7.68401 1.33719L7.82571 1.33398ZM11.5615 3.38855Q11.5491 3.38106 11.5361 3.37419L11.393 3.64511L11.5615 3.38855ZM3.30841 11.0108Q3.28585 10.9421 3.24666 10.8848Q3.22138 10.8487 3.18868 10.8156Q3.18762 10.8146 3.18656 10.8135Q3.1855 10.8124 3.18443 10.8114Q3.17265 10.7997 3.1605 10.789Q3.14519 10.7759 3.12856 10.7636Q3.0661 10.7176 2.9961 10.6936L2.99603 10.6935Q2.91907 10.6671 2.83301 10.6671Q2.7424 10.6671 2.6634 10.6951Q2.65366 10.6985 2.6441 10.7024Q2.64258 10.703 2.64106 10.7037Q2.55396 10.7397 2.48158 10.8114Q2.48052 10.8124 2.47945 10.8135Q2.47839 10.8146 2.47734 10.8156Q2.4057 10.888 2.36962 10.9751Q2.33301 11.0635 2.33301 11.1671Q2.33301 11.2577 2.36104 11.3367Q2.36449 11.3464 2.36837 11.356Q2.36899 11.3575 2.36962 11.359Q2.40165 11.4363 2.46172 11.5021Q2.47031 11.5115 2.47945 11.5206Q2.48052 11.5217 2.48158 11.5227Q2.55396 11.5944 2.64106 11.6304L2.6411 11.6305Q2.72947 11.6671 2.83301 11.6671Q2.91687 11.6671 2.99226 11.6418L2.99231 11.6418Q3.05922 11.6193 3.11945 11.577Q3.13927 11.5631 3.15732 11.5479Q3.17112 11.5359 3.18443 11.5227Q3.1855 11.5217 3.18656 11.5206Q3.18762 11.5195 3.18868 11.5185Q3.21783 11.489 3.24109 11.4571Q3.27767 11.4057 3.30095 11.3444L3.31199 11.3153Q3.33301 11.2455 3.33301 11.1671Q3.33301 11.0994 3.31736 11.0382L3.30841 11.0108ZM12.6826 11.0381Q12.667 11.0994 12.667 11.1671Q12.667 11.2455 12.688 11.3153L12.699 11.3444Q12.7223 11.4056 12.7588 11.457Q12.7821 11.489 12.8113 11.5185Q12.8124 11.5195 12.8134 11.5206Q12.8145 11.5217 12.8156 11.5227Q12.8289 11.5359 12.8427 11.5479Q12.8608 11.5631 12.8806 11.577Q12.9408 11.6194 13.0077 11.6418L13.0077 11.6418L13.0078 11.6418Q13.0832 11.6671 13.167 11.6671Q13.2576 11.6671 13.3366 11.639Q13.3457 11.6358 13.3546 11.6322L13.3551 11.632Q13.357 11.6312 13.3589 11.6304Q13.446 11.5944 13.5184 11.5227Q13.5195 11.5217 13.5205 11.5206Q13.5216 11.5195 13.5227 11.5185Q13.5943 11.4461 13.6304 11.359Q13.667 11.2706 13.667 11.1671Q13.667 11.0764 13.639 10.9974Q13.6351 10.9866 13.6308 10.976L13.6304 10.9751L13.6303 10.975Q13.5937 10.8867 13.5205 10.8135Q13.4473 10.7403 13.3589 10.7037Q13.2705 10.6671 13.167 10.6671Q13.081 10.6671 13.004 10.6935L13.004 10.6935Q12.9339 10.7176 12.8714 10.7636Q12.8548 10.7759 12.8395 10.789Q12.8274 10.7997 12.8156 10.8114Q12.8145 10.8124 12.8134 10.8135Q12.8124 10.8146 12.8113 10.8156Q12.7786 10.8487 12.7533 10.8849Q12.7141 10.9421 12.6916 11.0108L12.6826 11.0381ZM7.83325 12.6952Q7.76818 12.7182 7.7138 12.7562Q7.67982 12.7805 7.64857 12.8114Q7.64751 12.8124 7.64645 12.8135Q7.64539 12.8146 7.64433 12.8156Q7.6319 12.8282 7.62057 12.8412Q7.60638 12.8578 7.59329 12.876Q7.54912 12.9374 7.52586 13.0059Q7.5 13.0821 7.5 13.1671Q7.5 13.2577 7.52803 13.3367Q7.53204 13.348 7.53661 13.359Q7.56865 13.4363 7.62871 13.5021Q7.6373 13.5115 7.64645 13.5206Q7.71967 13.5938 7.80805 13.6304Q7.89644 13.6671 8 13.6671Q8.09061 13.6671 8.16961 13.639Q8.1809 13.635 8.19194 13.6304Q8.27905 13.5944 8.35143 13.5227Q8.35249 13.5217 8.35355 13.5206Q8.35461 13.5195 8.35567 13.5185Q8.42731 13.4461 8.46339 13.359L8.46341 13.3589Q8.5 13.2706 8.5 13.1671Q8.5 13.0822 8.47422 13.0062L8.47414 13.0059Q8.45088 12.9374 8.40671 12.876Q8.39362 12.8578 8.37943 12.8412Q8.3681 12.8282 8.35567 12.8156Q8.35461 12.8146 8.35355 12.8135Q8.35249 12.8124 8.35143 12.8114Q8.32016 12.7804 8.28616 12.7561Q8.2318 12.7182 8.16675 12.6952L8.13848 12.6853Q8.07301 12.6671 8 12.6671Q7.92699 12.6671 7.86152 12.6853L7.83325 12.6952Z" fill="rgb(151,151,151)" fill-opacity="0" fill-rule="evenodd" />
	</g>
</svg>
