<svg viewBox="0 0 16 16" xmlns="http://www.w3.org/2000/svg" xmlns:xlink="http://www.w3.org/1999/xlink" width="16.000000" height="16.000000" fill="none" customFrame="#000000">
	<rect id="线型服务图标/服务导航树" width="16.000000" height="16.000000" x="0.000000" y="0.000000" />
	<g id="ic_expand_tree_lined">
		<rect id="矩形" width="16.000000" height="16.000000" x="0.000000" y="0.000000" opacity="0" fill="rgb(216,216,216)" />
		<path id="形状结合" d="M6.33024 3C6.33024 2.44772 5.88253 2 5.33024 2L3.00024 2C2.44796 2 2.00024 2.44772 2.00024 3L2.00024 4.33C2.00024 4.88228 2.44796 5.33 3.00024 5.33L3.69847 5.33L3.69847 11.3291L3.70193 11.4318C3.75471 12.2123 4.40456 12.8291 5.19847 12.8291L10.5001 12.8349L10.5001 11.8349L5.19847 11.8291L5.13062 11.8246C4.88657 11.7914 4.69847 11.5822 4.69847 11.3291L4.69847 8.40874C4.85486 8.46402 5.02315 8.49409 5.19847 8.49409L10.5001 8.49989L10.5001 7.49989L5.19847 7.49409L5.13062 7.48953C4.88657 7.45642 4.69847 7.24722 4.69847 6.99409L4.69847 5.33L5.33024 5.33C5.88253 5.33 6.33024 4.88228 6.33024 4.33L6.33024 4.20012L10.0002 4.20012L10.0002 3.20012L6.33024 3.20012L6.33024 3ZM3.00024 3L5.33024 3L5.33024 4.33L3.00024 4.33L3.00024 3Z" fill="rgb(250,140,22)" fill-rule="evenodd" />
		<path id="形状结合" d="M5.33024 2C5.88253 2 6.33024 2.44772 6.33024 3L6.33024 3.20012L10.0002 3.20012L10.0002 4.20012L6.33024 4.20012L6.33024 4.33C6.33024 4.88228 5.88253 5.33 5.33024 5.33L4.69847 5.33L4.69847 6.99409C4.69847 7.24722 4.88657 7.45642 5.13062 7.48953L5.19847 7.49409L10.5001 7.49989L10.5001 8.49989L5.19847 8.49409C5.02315 8.49409 4.85486 8.46402 4.69847 8.40874L4.69847 11.3291C4.69847 11.5822 4.88657 11.7914 5.13062 11.8246L5.19847 11.8291L10.5001 11.8349L10.5001 12.8349L5.19847 12.8291C4.40456 12.8291 3.75471 12.2123 3.70193 11.4318L3.69847 11.3291L3.69847 5.33L3.00024 5.33C2.44796 5.33 2.00024 4.88228 2.00024 4.33L2.00024 3C2.00024 2.44772 2.44796 2 3.00024 2L5.33024 2ZM5.33024 3L3.00024 3L3.00024 4.33L5.33024 4.33L5.33024 3Z" fill="rgb(151,151,151)" fill-opacity="0" fill-rule="evenodd" />
		<path id="矩形" d="M14.0004 3C14.0004 2.44772 13.5527 2 13.0004 2L10.6704 2C10.1181 2 9.67041 2.44772 9.67041 3L9.67041 4.33C9.67041 4.88228 10.1181 5.33 10.6704 5.33L13.0004 5.33C13.5527 5.33 14.0004 4.88228 14.0004 4.33L14.0004 3ZM10.6704 3L13.0004 3L13.0004 4.33L10.6704 4.33L10.6704 3Z" fill="rgb(250,140,22)" fill-rule="evenodd" />
		<path id="矩形" d="M14.0004 7.33496C14.0004 6.78268 13.5527 6.33496 13.0004 6.33496L10.6704 6.33496C10.1181 6.33496 9.67041 6.78268 9.67041 7.33496L9.67041 8.66496C9.67041 9.21725 10.1181 9.66496 10.6704 9.66496L13.0004 9.66496C13.5527 9.66496 14.0004 9.21725 14.0004 8.66496L14.0004 7.33496ZM10.6704 7.33496L13.0004 7.33496L13.0004 8.66496L10.6704 8.66496L10.6704 7.33496Z" fill="rgb(250,140,22)" fill-rule="evenodd" />
		<path id="矩形" d="M14.0004 11.6699C14.0004 11.1176 13.5527 10.6699 13.0004 10.6699L10.6704 10.6699C10.1181 10.6699 9.67041 11.1176 9.67041 11.6699L9.67041 12.9999C9.67041 13.5522 10.1181 13.9999 10.6704 13.9999L13.0004 13.9999C13.5527 13.9999 14.0004 13.5522 14.0004 12.9999L14.0004 11.6699ZM10.6704 11.6699L13.0004 11.6699L13.0004 12.9999L10.6704 12.9999L10.6704 11.6699Z" fill="rgb(250,140,22)" fill-rule="evenodd" />
	</g>
</svg>
