<svg viewBox="0 0 16 16" xmlns="http://www.w3.org/2000/svg" xmlns:xlink="http://www.w3.org/1999/xlink" width="16.000000" height="16.000000" fill="none" customFrame="#000000">
	<rect id="线型服务图标/质量报告" width="13.048950" height="15.000000" x="1.475586" y="0.500000" fill="rgb(255,255,255)" fill-opacity="0" />
	<path id="质量报告" d="M3.18211 2.14313L7.30629 0.623691C7.75394 0.45877 8.2457 0.45877 8.69334 0.623691L12.8175 2.14313C13.843 2.52094 14.5243 3.49797 14.5243 4.59086L14.5243 8.53111C14.5243 10.8173 13.2577 12.9152 11.2346 13.98L8.65357 15.3385C8.24435 15.5538 7.75529 15.5538 7.34606 15.3385L4.76502 13.98C2.74196 12.9152 1.47534 10.8173 1.47534 8.53111L1.47534 4.59086C1.47534 3.49797 2.15661 2.52094 3.18211 2.14313ZM8.34764 1.56203L12.4718 3.08147C13.1042 3.31445 13.5243 3.91693 13.5243 4.59086L13.5243 8.53111C13.5243 10.446 12.4634 12.2033 10.7689 13.0951L8.18783 14.4535C8.07014 14.5155 7.9295 14.5155 7.81181 14.4535L5.23077 13.0951C3.53625 12.2033 2.47534 10.446 2.47534 8.53111L2.47534 4.59086C2.47534 3.91693 2.89544 3.31445 3.52782 3.08147L7.652 1.56203C7.8765 1.47932 8.12313 1.47932 8.34764 1.56203ZM9.00074 7.84382L11.4769 7.84382C11.7531 7.84382 11.9769 7.61996 11.9769 7.34382C11.9769 5.52917 10.5059 4.05811 8.69122 4.05811C8.41507 4.05811 8.19122 4.28196 8.19122 4.55811L8.19122 7.0343C8.19122 7.48138 8.55365 7.84382 9.00074 7.84382ZM7.39695 5.00708C7.67142 4.97675 7.91851 5.17466 7.94884 5.44913C7.97918 5.7236 7.78126 5.9707 7.50679 6.00103C6.35597 6.1282 5.47559 7.10502 5.47559 8.27278C5.47559 9.53514 6.49894 10.5585 7.7613 10.5585C8.92896 10.5585 9.90573 9.67824 10.033 8.52754C10.0634 8.25307 10.3105 8.05518 10.585 8.08555C10.8594 8.11591 11.0573 8.36302 11.027 8.63749C10.8438 10.2935 9.44006 11.5585 7.7613 11.5585C5.94665 11.5585 4.47559 10.0874 4.47559 8.27278C4.47559 6.59388 5.74078 5.1901 7.39695 5.00708ZM10.8937 6.73646L10.9183 6.84427L9.1893 6.84427L9.1893 5.11527L9.29722 5.14003C10.0712 5.35292 10.6808 5.96253 10.8937 6.73646Z" fill="rgb(250,140,22)" fill-rule="evenodd" />
	<rect id="矩形" width="16.000000" height="16.000000" x="0.000000" y="0.000000" opacity="0" fill="rgb(250,140,22)" />
	<rect id="矩形" width="15.000000" height="15.000000" x="0.500000" y="0.500000" opacity="0" stroke="rgb(151,151,151)" stroke-opacity="0" stroke-width="1" />
</svg>
