<svg viewBox="0 0 16 16" xmlns="http://www.w3.org/2000/svg" xmlns:xlink="http://www.w3.org/1999/xlink" width="16.000000" height="16.000000" fill="none" customFrame="#000000">
	<rect id="线型服务图标/动态环境" width="16.000000" height="16.000000" x="0.000000" y="0.000000" />
	<rect id="矩形" width="16.000000" height="16.000000" x="0.000000" y="0.000000" fill="rgb(216,216,216)" fill-opacity="0" />
	<rect id="矩形" width="15.000000" height="15.000000" x="0.500000" y="0.500000" stroke="rgb(151,151,151)" stroke-opacity="0" stroke-width="1" />
	<g id="编组 8">
		<g id="编组 7">
			<path id="椭圆形" d="M6.5 2.5127C6.5 1.68427 7.17157 1.0127 8 1.0127C8.82843 1.0127 9.5 1.68427 9.5 2.5127C9.5 3.34112 8.82843 4.0127 8 4.0127C7.17157 4.0127 6.5 3.34112 6.5 2.5127ZM8.5 2.5127C8.5 2.23655 8.27614 2.0127 8 2.0127C7.72386 2.0127 7.5 2.23655 7.5 2.5127C7.5 2.78884 7.72386 3.0127 8 3.0127C8.27614 3.0127 8.5 2.78884 8.5 2.5127Z" fill="rgb(250,140,22)" fill-rule="evenodd" />
			<path id="椭圆形备份 3" d="M1.5 11.876C1.5 11.0475 2.17157 10.376 3 10.376C3.82843 10.376 4.5 11.0475 4.5 11.876C4.5 12.7044 3.82843 13.376 3 13.376C2.17157 13.376 1.5 12.7044 1.5 11.876ZM3.5 11.876C3.5 11.5998 3.27614 11.376 3 11.376C2.72386 11.376 2.5 11.5998 2.5 11.876C2.5 12.1521 2.72386 12.376 3 12.376C3.27614 12.376 3.5 12.1521 3.5 11.876Z" fill="rgb(250,140,22)" fill-rule="evenodd" />
			<path id="椭圆形备份 4" d="M11.5 11.876C11.5 11.0475 12.1716 10.376 13 10.376C13.8284 10.376 14.5 11.0475 14.5 11.876C14.5 12.7044 13.8284 13.376 13 13.376C12.1716 13.376 11.5 12.7044 11.5 11.876ZM13.5 11.876C13.5 11.5998 13.2761 11.376 13 11.376C12.7239 11.376 12.5 11.5998 12.5 11.876C12.5 12.1521 12.7239 12.376 13 12.376C13.2761 12.376 13.5 12.1521 13.5 11.876Z" fill="rgb(250,140,22)" fill-rule="evenodd" />
			<path id="形状" d="M14.5003 8.48714C14.5003 5.12139 11.9314 2.32054 8.602 2.01465L8.51051 3.01046L8.73738 3.03603C11.4423 3.39763 13.5003 5.71635 13.5003 8.48714C13.5003 9.37372 13.2907 10.2292 12.8944 10.9995L13.7836 11.457L13.9176 11.1807C14.2994 10.3432 14.5003 9.42913 14.5003 8.48714ZM7.18205 2.03799L7.30672 3.03018C4.57366 3.37361 2.5 5.70735 2.5 8.48696C2.5 9.31126 2.68122 10.1085 3.02483 10.835L3.16126 11.1041L2.28214 11.5807C1.77138 10.6385 1.5 9.58179 1.5 8.48696C1.5 5.20174 3.95035 2.44407 7.18205 2.03799ZM7.99997 13.9873C6.55163 13.9873 5.19304 13.4257 4.17353 12.438L3.47774 13.1563L3.69437 13.3569C4.87142 14.3987 6.3899 14.9873 7.99997 14.9873C9.70932 14.9873 11.3155 14.3239 12.5194 13.159L11.824 12.4403L11.629 12.6202C10.6347 13.4945 9.35672 13.9873 7.99997 13.9873Z" fill="rgb(250,140,22)" fill-rule="evenodd" />
			<path id="路径" d="M7.8638 11.6388L7.85408 11.6388C7.74389 11.634 7.64667 11.5611 7.61426 11.4541L6.03435 6.3984L5.13501 8.59569C5.0945 8.69453 4.9989 8.75935 4.89195 8.75935L3.8565 8.75935C3.71066 8.75935 3.59399 8.64268 3.59399 8.49684C3.59399 8.351 3.71066 8.23433 3.8565 8.23433L4.71532 8.23433L5.82207 5.52499C5.8642 5.4229 5.96143 5.36295 6.07648 5.36133C6.18667 5.36619 6.28227 5.43911 6.3163 5.54606L7.89297 10.5953L9.25412 7.20537C9.29301 7.10652 9.38862 7.0417 9.49394 7.04008C9.60413 7.04981 9.6965 7.10166 9.73701 7.19888L10.5796 9.15797L11.0042 8.35911C11.0495 8.27322 11.1387 8.21975 11.2359 8.21975L12.1433 8.21975C12.2892 8.21975 12.4058 8.33642 12.4058 8.48226C12.4058 8.6281 12.2892 8.74477 12.1433 8.74477L11.3931 8.74477L10.7854 9.88554C10.7384 9.97466 10.6396 10.0249 10.5424 10.0249C10.4419 10.02 10.3528 9.95846 10.3123 9.8661L9.50367 7.98641L8.10362 11.4752C8.06798 11.574 7.97075 11.6388 7.8638 11.6388L7.8638 11.6388Z" fill="rgb(250,140,22)" fill-rule="evenodd" />
			<path id="路径" d="M7.85408 11.6388C7.74389 11.634 7.64667 11.5611 7.61426 11.4541L6.03435 6.3984L5.13501 8.59569C5.0945 8.69453 4.9989 8.75935 4.89195 8.75935L3.8565 8.75935C3.71066 8.75935 3.59399 8.64268 3.59399 8.49684C3.59399 8.351 3.71066 8.23433 3.8565 8.23433L4.71532 8.23433L5.82207 5.52499C5.8642 5.4229 5.96143 5.36295 6.07648 5.36133C6.18667 5.36619 6.28227 5.43911 6.3163 5.54606L7.89297 10.5953L9.25412 7.20537C9.29301 7.10652 9.38862 7.0417 9.49394 7.04008C9.60413 7.04981 9.6965 7.10166 9.73701 7.19888L10.5796 9.15797L11.0042 8.35911C11.0495 8.27322 11.1387 8.21975 11.2359 8.21975L12.1433 8.21975C12.2892 8.21975 12.4058 8.33642 12.4058 8.48226C12.4058 8.6281 12.2892 8.74477 12.1433 8.74477L11.3931 8.74477L10.7854 9.88554C10.7384 9.97466 10.6396 10.0249 10.5424 10.0249C10.4419 10.02 10.3528 9.95846 10.3123 9.8661L9.50367 7.98641L8.10362 11.4752C8.06798 11.574 7.97075 11.6388 7.8638 11.6388L7.8638 11.6388L7.85408 11.6388Z" fill-rule="evenodd" stroke="rgb(250,140,22)" stroke-width="0.400000006" />
		</g>
	</g>
</svg>
