<svg viewBox="0 0 16 16" xmlns="http://www.w3.org/2000/svg" xmlns:xlink="http://www.w3.org/1999/xlink" width="16.000000" height="16.000000" fill="none" customFrame="#000000">
	<rect id="线型服务图标/开源中心查询" width="16.000000" height="16.000000" x="0.000000" y="0.000000" />
	<g id="编组">
		<rect id="矩形" width="16.000000" height="16.000000" x="0.000000" y="0.000000" opacity="0" fill="rgb(216,216,216)" />
		<rect id="矩形" width="15.000000" height="15.000000" x="0.500000" y="0.500000" opacity="0" stroke="rgb(151,151,151)" stroke-opacity="0" stroke-width="1" />
		<g id="grid 2" opacity="0">
			<g id="grid">
				<g id="bg">
					<path id="Fill 1" d="M16 16L0 16L0 0L16 0L16 16ZM15.3333 15.3331L0.666667 15.3331L0.666667 0.666422L15.3333 0.666422L15.3333 15.3331Z" fill="rgb(249,249,249)" fill-opacity="0.400000006" fill-rule="evenodd" />
					<path id="Fill 2" d="M1.3335 14.6668L14.6668 14.6668L14.6668 1.3335L1.3335 1.3335L1.3335 14.6668Z" fill="rgb(247,247,247)" fill-opacity="0.400000006" fill-rule="evenodd" />
					<path id="Fill 3" d="M2 14L14 14L14 2L2 2L2 14Z" fill="rgb(236,236,236)" fill-opacity="0.101960786" fill-rule="evenodd" />
				</g>
				<g id="Group 5">
					<rect id="Rectangle 2" width="13.333333" height="13.333333" x="1.329102" y="1.329102" rx="2.000000" opacity="0.800000012" fill="rgb(216,216,216)" fill-opacity="0" />
					<rect id="Rectangle 2" width="12.833333" height="12.833333" x="1.579102" y="1.579102" rx="1.750000" opacity="0.800000012" stroke="rgb(255,0,84)" stroke-width="0.5" />
					<rect id="Rectangle 2" width="8.000000" height="8.000000" x="3.998047" y="3.998047" opacity="0.800000012" fill="rgb(216,216,216)" fill-opacity="0" />
					<rect id="Rectangle 2" width="7.500000" height="7.500000" x="4.248047" y="4.248047" opacity="0.800000012" stroke="rgb(255,0,84)" stroke-width="0.5" />
					<rect id="Rectangle 2" width="12.000000" height="14.666667" x="1.993652" y="0.664551" rx="2.000000" opacity="0.800000012" fill="rgb(216,216,216)" fill-opacity="0" />
					<rect id="Rectangle 2" width="11.500000" height="14.166667" x="2.243652" y="0.914551" rx="1.750000" opacity="0.800000012" stroke="rgb(255,0,84)" stroke-width="0.5" />
					<rect id="Rectangle 2" width="14.666667" height="12.000000" x="0.664551" y="1.993652" rx="2.000000" opacity="0.800000012" fill="rgb(216,216,216)" fill-opacity="0" />
					<rect id="Rectangle 2" width="14.166667" height="11.500000" x="0.914551" y="2.243652" rx="1.750000" opacity="0.800000012" stroke="rgb(255,0,84)" stroke-width="0.5" />
					<circle id="Oval 2" cx="7.99788427" cy="7.99788427" r="7.33333349" opacity="0.800000012" fill="rgb(216,216,216)" fill-opacity="0" />
					<circle id="Oval 2" cx="7.99788427" cy="7.99788427" r="7.08333349" opacity="0.800000012" stroke="rgb(255,0,84)" stroke-width="0.5" />
					<circle id="Oval 2" cx="7.9977212" cy="7.9977212" r="4.66666651" opacity="0.800000012" fill="rgb(216,216,216)" fill-opacity="0" />
					<circle id="Oval 2" cx="7.9977212" cy="7.9977212" r="4.41666651" opacity="0.800000012" stroke="rgb(255,0,84)" stroke-width="0.5" />
				</g>
				<g id="Group 3">
					<path id="Path 3" d="M0.0178223 8.03369L15.9793 8.03369" opacity="0.300000012" stroke="rgb(0,0,0)" stroke-width="0.5" />
					<path id="Path 3" d="M0 0L15.9615 0" opacity="0.300000012" stroke="rgb(0,0,0)" stroke-width="0.5" transform="matrix(0,-1,1,0,7.99756,15.981)" />
					<path id="Path 7" d="M0 0L22.5872 0" opacity="0.300000012" stroke="rgb(0,0,0)" stroke-width="0.5" transform="matrix(0.707107,-0.707107,0.707107,0.707107,0,15.9717)" />
					<path id="Path 7" d="M0 0L22.5872 0" opacity="0.300000012" stroke="rgb(0,0,0)" stroke-width="0.5" transform="matrix(-0.707107,-0.707107,-0.707107,0.707107,15.9883,15.9883)" />
				</g>
			</g>
			<rect id="矩形" width="14.666667" height="14.666667" x="0.666504" y="0.666504" opacity="0.448823482" fill="rgb(50,197,255)" />
			<rect id="矩形" width="13.666667" height="13.666667" x="1.166504" y="1.166504" opacity="0.448823482" stroke="rgb(151,151,151)" stroke-opacity="0" stroke-width="1" />
			<circle id="椭圆形" cx="7.9998374" cy="7.9998374" r="7.33333349" opacity="0.448823482" fill="rgb(247,181,0)" />
			<circle id="椭圆形" cx="7.9998374" cy="7.9998374" r="6.83333349" opacity="0.448823482" stroke="rgb(151,151,151)" stroke-opacity="0" stroke-width="1" />
		</g>
		<path id="形状结合" d="M12.0007 2C13.0658 2 13.9365 2.83261 13.9973 3.88248L14.0007 4L14.0007 7.6C14.0007 7.87614 13.7768 8.1 13.5007 8.1C13.2476 8.1 13.0384 7.9119 13.0053 7.66785L13.0007 7.6L13.0007 6.4502L3.0007 6.4502L3.0007 12C3.0007 12.5198 3.39729 12.947 3.9044 12.9954L4.0007 13L7.6007 13C7.87685 13 8.1007 13.2239 8.1007 13.5C8.1007 13.7531 7.9126 13.9623 7.66855 13.9954L7.6007 14L4.0007 14C2.93558 14 2.06493 13.1674 2.0041 12.1175L2.0007 12L2.0007 5.97181C2.0004 5.96464 2.00024 5.95744 2.00024 5.9502C2.00024 5.94295 2.0004 5.93575 2.0007 5.92858L2.0007 4C2.0007 2.93488 2.83332 2.06423 3.88319 2.0034L4.0007 2L12.0007 2ZM3.0007 5.4502L13.0007 5.4502L13.0007 4C13.0007 3.4802 12.6041 3.05303 12.097 3.00458L12.0007 3L4.0007 3C3.48091 3 3.05374 3.39659 3.00528 3.90369L3.0007 4L3.0007 5.4502ZM9.99327 3.82309C9.96227 3.57876 9.75471 3.38886 9.50159 3.38667C9.22546 3.38428 8.99967 3.60619 8.99729 3.88233L8.99152 4.54897L8.9955 4.61685C9.0265 4.86118 9.23406 5.05108 9.48718 5.05327C9.76331 5.05566 9.9891 4.83375 9.99148 4.55761L9.99725 3.89097L9.99327 3.82309ZM12.0021 3.82309C11.9711 3.57876 11.7635 3.38886 11.5104 3.38667C11.2342 3.38428 11.0085 3.60619 11.0061 3.88233L11.0003 4.54897L11.0043 4.61685C11.0353 4.86118 11.2428 5.05108 11.496 5.05327C11.7721 5.05566 11.9979 4.83375 12.0003 4.55761L12.006 3.89097L12.0021 3.82309ZM8.19142 8.19889C7.02005 9.37105 7.02005 11.2702 8.1913 12.4414C9.24429 13.4937 10.8842 13.6006 12.0558 12.7621L13.1468 13.8531L13.2029 13.9015C13.3987 14.0468 13.6764 14.0306 13.8539 13.8531C14.0492 13.6579 14.0492 13.3413 13.8539 13.146L12.7615 12.0536C13.5923 10.8826 13.483 9.24901 12.4337 8.19901C11.2625 7.02777 9.36334 7.02777 8.19142 8.19889ZM11.7265 8.906C12.5074 9.68741 12.5074 10.9536 11.7266 11.7343C10.9459 12.5151 9.67971 12.5151 8.8983 11.7342C8.11766 10.9536 8.11766 9.68741 8.89854 8.906C9.64846 8.15659 10.8454 8.12661 11.6307 8.81618L11.7265 8.906Z" fill="rgb(81,79,198)" fill-rule="evenodd" />
		<path id="形状结合" d="M12.0007 2C13.0658 2 13.9365 2.83261 13.9973 3.88248L14.0007 4L14.0007 7.6C14.0007 7.87614 13.7768 8.1 13.5007 8.1C13.2476 8.1 13.0384 7.9119 13.0053 7.66785L13.0007 7.6L13.0007 6.4502L3.0007 6.4502L3.0007 12C3.0007 12.5198 3.39729 12.947 3.9044 12.9954L4.0007 13L7.6007 13C7.87685 13 8.1007 13.2239 8.1007 13.5C8.1007 13.7531 7.9126 13.9623 7.66855 13.9954L7.6007 14L4.0007 14C2.93558 14 2.06493 13.1674 2.0041 12.1175L2.0007 12L2.0007 5.97181C2.0004 5.96464 2.00024 5.95744 2.00024 5.9502C2.00024 5.94295 2.0004 5.93575 2.0007 5.92858L2.0007 4C2.0007 2.93488 2.83332 2.06423 3.88319 2.0034L4.0007 2L12.0007 2ZM3.0007 5.4502L13.0007 5.4502L13.0007 4C13.0007 3.4802 12.6041 3.05303 12.097 3.00458L12.0007 3L4.0007 3C3.48091 3 3.05374 3.39659 3.00528 3.90369L3.0007 4L3.0007 5.4502ZM9.50159 3.38667C9.75471 3.38886 9.96227 3.57876 9.99327 3.82309L9.99725 3.89097L9.99148 4.55761C9.9891 4.83375 9.76331 5.05566 9.48718 5.05327C9.23406 5.05108 9.0265 4.86118 8.9955 4.61685L8.99152 4.54897L8.99729 3.88233C8.99967 3.60619 9.22546 3.38428 9.50159 3.38667ZM11.5104 3.38667C11.7635 3.38886 11.9711 3.57876 12.0021 3.82309L12.006 3.89097L12.0003 4.55761C11.9979 4.83375 11.7721 5.05566 11.496 5.05327C11.2428 5.05108 11.0353 4.86118 11.0043 4.61685L11.0003 4.54897L11.0061 3.88233C11.0085 3.60619 11.2342 3.38428 11.5104 3.38667ZM11.8565 4.24325Q11.8667 4.23329 11.8761 4.22304Q11.8566 4.2012 11.834 4.18099Q11.7634 4.11773 11.6807 4.08581L11.6806 4.08576Q11.5985 4.05412 11.5046 4.05331Q11.4011 4.05241 11.3124 4.08825L11.3124 4.08826L11.3123 4.08831Q11.2236 4.12416 11.1498 4.19669Q11.1397 4.20665 11.1302 4.2169Q11.1497 4.23874 11.1723 4.25896Q11.243 4.32226 11.3258 4.35418Q11.4078 4.38582 11.5017 4.38663Q11.6052 4.38753 11.6939 4.35173L11.694 4.35168Q11.7827 4.31583 11.8565 4.24325ZM9.84775 4.24325Q9.85788 4.23329 9.86733 4.22304Q9.84781 4.2012 9.82524 4.18099Q9.75457 4.11768 9.6718 4.08576L9.67173 4.08573Q9.58971 4.05412 9.49583 4.05331Q9.39229 4.05241 9.3036 4.08825L9.30357 4.08826Q9.21487 4.12411 9.14102 4.19669Q9.13088 4.20666 9.12144 4.2169Q9.14096 4.23874 9.16353 4.25896Q9.2342 4.32226 9.31697 4.35418Q9.39902 4.38582 9.49294 4.38663Q9.59646 4.38753 9.68514 4.3517L9.6852 4.35168Q9.7739 4.31583 9.84775 4.24325ZM7.31288 10.3206C7.31288 9.55284 7.60572 8.78498 8.19142 8.19889C9.36334 7.02777 11.2625 7.02777 12.4337 8.19901C13.0194 8.78503 13.3122 9.55283 13.3122 10.3205C13.3122 10.9284 13.1286 11.5361 12.7615 12.0536L13.8539 13.146C13.9516 13.2436 14.0004 13.3716 14.0004 13.4996C14.0004 13.6275 13.9516 13.7555 13.8539 13.8531C13.6764 14.0306 13.3987 14.0468 13.2029 13.9015L13.1468 13.8531L12.0558 12.7621C10.8842 13.6006 9.24429 13.4937 8.1913 12.4414C7.60569 11.8558 7.31288 11.0883 7.31288 10.3206ZM12.3122 10.3205C12.3122 9.80864 12.117 9.29672 11.7265 8.906L11.6307 8.81618C10.8454 8.12661 9.64846 8.15659 8.89854 8.906C8.50807 9.29674 8.31285 9.80868 8.31285 10.3205C8.31285 10.8323 8.50801 11.3439 8.8983 11.7342C9.67971 12.5151 10.9459 12.5151 11.7266 11.7343C12.117 11.344 12.3122 10.8323 12.3122 10.3205Z" fill="rgb(151,151,151)" fill-opacity="0" fill-rule="evenodd" />
	</g>
</svg>
