<svg viewBox="0 0 16 16" xmlns="http://www.w3.org/2000/svg" xmlns:xlink="http://www.w3.org/1999/xlink" width="16.000000" height="16.000000" fill="none" customFrame="#000000">
	<rect id="线型服务图标/数据" width="16.000000" height="16.000000" x="0.000000" y="0.000000" />
	<g id="编组">
		<rect id="矩形" width="16.000000" height="16.000000" x="0.000000" y="0.000000" opacity="0" fill="rgb(216,216,216)" />
		<rect id="矩形" width="15.000000" height="15.000000" x="0.500000" y="0.500000" opacity="0" stroke="rgb(151,151,151)" stroke-opacity="0" stroke-width="1" />
		<g id="grid 2" opacity="0">
			<g id="grid">
				<g id="bg">
					<path id="Fill 1" d="M16 16L0 16L0 0L16 0L16 16ZM15.3333 15.3331L0.666667 15.3331L0.666667 0.666422L15.3333 0.666422L15.3333 15.3331Z" fill="rgb(249,249,249)" fill-opacity="0.400000006" fill-rule="evenodd" />
					<path id="Fill 2" d="M1.3335 14.6668L14.6668 14.6668L14.6668 1.3335L1.3335 1.3335L1.3335 14.6668Z" fill="rgb(247,247,247)" fill-opacity="0.400000006" fill-rule="evenodd" />
					<path id="Fill 3" d="M2 14L14 14L14 2L2 2L2 14Z" fill="rgb(236,236,236)" fill-opacity="0.101960786" fill-rule="evenodd" />
				</g>
				<g id="Group 5">
					<rect id="Rectangle 2" width="13.333333" height="13.333333" x="1.329102" y="1.329102" rx="2.000000" opacity="0.800000012" fill="rgb(216,216,216)" fill-opacity="0" />
					<rect id="Rectangle 2" width="12.833333" height="12.833333" x="1.579102" y="1.579102" rx="1.750000" opacity="0.800000012" stroke="rgb(255,0,84)" stroke-width="0.5" />
					<rect id="Rectangle 2" width="8.000000" height="8.000000" x="3.998047" y="3.998047" opacity="0.800000012" fill="rgb(216,216,216)" fill-opacity="0" />
					<rect id="Rectangle 2" width="7.500000" height="7.500000" x="4.248047" y="4.248047" opacity="0.800000012" stroke="rgb(255,0,84)" stroke-width="0.5" />
					<rect id="Rectangle 2" width="12.000000" height="14.666667" x="1.993652" y="0.664551" rx="2.000000" opacity="0.800000012" fill="rgb(216,216,216)" fill-opacity="0" />
					<rect id="Rectangle 2" width="11.500000" height="14.166667" x="2.243652" y="0.914551" rx="1.750000" opacity="0.800000012" stroke="rgb(255,0,84)" stroke-width="0.5" />
					<rect id="Rectangle 2" width="14.666667" height="12.000000" x="0.664551" y="1.993652" rx="2.000000" opacity="0.800000012" fill="rgb(216,216,216)" fill-opacity="0" />
					<rect id="Rectangle 2" width="14.166667" height="11.500000" x="0.914551" y="2.243652" rx="1.750000" opacity="0.800000012" stroke="rgb(255,0,84)" stroke-width="0.5" />
					<circle id="Oval 2" cx="7.99788427" cy="7.99788427" r="7.33333349" opacity="0.800000012" fill="rgb(216,216,216)" fill-opacity="0" />
					<circle id="Oval 2" cx="7.99788427" cy="7.99788427" r="7.08333349" opacity="0.800000012" stroke="rgb(255,0,84)" stroke-width="0.5" />
					<circle id="Oval 2" cx="7.9977212" cy="7.9977212" r="4.66666651" opacity="0.800000012" fill="rgb(216,216,216)" fill-opacity="0" />
					<circle id="Oval 2" cx="7.9977212" cy="7.9977212" r="4.41666651" opacity="0.800000012" stroke="rgb(255,0,84)" stroke-width="0.5" />
				</g>
				<g id="Group 3">
					<path id="Path 3" d="M0.0178223 8.03369L15.9793 8.03369" opacity="0.300000012" stroke="rgb(0,0,0)" stroke-width="0.5" />
					<path id="Path 3" d="M0 0L15.9615 0" opacity="0.300000012" stroke="rgb(0,0,0)" stroke-width="0.5" transform="matrix(0,-1,1,0,7.99756,15.9805)" />
					<path id="Path 7" d="M0 0L22.5872 0" opacity="0.300000012" stroke="rgb(0,0,0)" stroke-width="0.5" transform="matrix(0.707107,-0.707107,0.707107,0.707107,0,15.9717)" />
					<path id="Path 7" d="M0 0L22.5872 0" opacity="0.300000012" stroke="rgb(0,0,0)" stroke-width="0.5" transform="matrix(-0.707107,-0.707107,-0.707107,0.707107,15.9883,15.9883)" />
				</g>
			</g>
			<rect id="矩形" width="14.666667" height="14.666667" x="0.666504" y="0.666504" opacity="0.448823482" fill="rgb(50,197,255)" />
			<rect id="矩形" width="13.666667" height="13.666667" x="1.166504" y="1.166504" opacity="0.448823482" stroke="rgb(151,151,151)" stroke-opacity="0" stroke-width="1" />
			<circle id="椭圆形" cx="7.9998374" cy="7.9998374" r="7.33333349" opacity="0.448823482" fill="rgb(247,181,0)" />
			<circle id="椭圆形" cx="7.9998374" cy="7.9998374" r="6.83333349" opacity="0.448823482" stroke="rgb(151,151,151)" stroke-opacity="0" stroke-width="1" />
		</g>
		<path id="形状结合" d="M8.99909 1.00049C11.6449 1.00049 13.9557 2.72878 14.7292 5.21671C14.7343 5.23304 14.7385 5.24944 14.7418 5.26584C14.9057 5.80807 14.9949 6.3827 14.9976 6.97779L14.9991 7.00049C14.9991 7.0514 14.9915 7.10053 14.9773 7.14681C14.9163 7.35407 14.7246 7.50537 14.4976 7.50537L8.99229 7.50537C8.71615 7.50537 8.49229 7.28151 8.49229 7.00537L8.49229 1.5007C8.49229 1.22883 8.70928 1.00764 8.97952 1.00086C8.98601 1.00061 8.99253 1.00049 8.99909 1.00049ZM9.49869 6.50002L13.9726 6.50044L13.9579 6.36564C13.6705 4.1131 11.8859 2.32882 9.63309 2.04143L9.49869 2.02628L9.49869 6.50002ZM1.12186 10.0416C0.3644 6.14162 3.3075 2.60962 7.19602 2.60962C7.47216 2.60962 7.69602 2.83348 7.69602 3.10962L7.69602 7.54096C7.69602 7.96281 8.0375 8.30429 8.45935 8.30429L12.8907 8.30429C13.1668 8.30429 13.3907 8.52815 13.3907 8.80429C13.3907 12.693 9.85845 15.6366 5.95869 14.8785C3.53789 14.4082 1.59207 12.4624 1.12186 10.0416ZM6.69507 3.63363L6.69553 7.54223L6.699 7.65378C6.75651 8.57591 7.52219 9.30556 8.45887 9.30556L12.3664 9.30496L12.3502 9.45744C11.9872 12.3884 9.20658 14.4925 6.14895 13.8981C4.12833 13.5056 2.49549 11.8728 2.10303 9.85223C1.50912 6.79435 3.613 4.01387 6.5437 3.65091L6.69507 3.63363Z" fill="rgb(250,140,22)" fill-rule="evenodd" />
		<path id="形状结合" d="M8.99909 1.00049C11.6449 1.00049 13.9557 2.72878 14.7292 5.21671C14.7343 5.23304 14.7385 5.24944 14.7418 5.26584C14.9057 5.80807 14.9949 6.3827 14.9976 6.97779L14.9991 7.00049C14.9991 7.0514 14.9915 7.10053 14.9773 7.14681C14.9163 7.35407 14.7246 7.50537 14.4976 7.50537L8.99229 7.50537C8.71615 7.50537 8.49229 7.28151 8.49229 7.00537L8.49229 1.5007C8.49229 1.22883 8.70928 1.00764 8.97952 1.00086C8.98601 1.00061 8.99253 1.00049 8.99909 1.00049ZM9.49869 6.50002L13.9726 6.50044L13.9579 6.36564C13.6705 4.1131 11.8859 2.32882 9.63309 2.04143L9.49869 2.02628L9.49869 6.50002ZM1.12186 10.0416C1.04114 9.62599 1.00244 9.21454 1.00244 8.8111C1.00244 5.42891 3.72191 2.60962 7.19602 2.60962C7.47216 2.60962 7.69602 2.83348 7.69602 3.10962L7.69602 7.54096C7.69602 7.96281 8.0375 8.30429 8.45935 8.30429L12.8907 8.30429C13.1668 8.30429 13.3907 8.52815 13.3907 8.80429C13.3907 12.693 9.85845 15.6366 5.95869 14.8785C3.53789 14.4082 1.59207 12.4624 1.12186 10.0416ZM6.69553 7.54223L6.69507 3.63363L6.5437 3.65091C3.94894 3.97226 2.00232 6.18867 2.00232 8.81482C2.00232 9.15483 2.03495 9.50171 2.10303 9.85223C2.49549 11.8728 4.12833 13.5056 6.14895 13.8981C9.20658 14.4925 11.9872 12.3884 12.3502 9.45744L12.3664 9.30496L8.45887 9.30556C7.52219 9.30556 6.75651 8.57591 6.699 7.65378L6.69553 7.54223Z" fill="rgb(151,151,151)" fill-opacity="0" fill-rule="evenodd" />
	</g>
</svg>
