<svg viewBox="0 0 16 16" xmlns="http://www.w3.org/2000/svg" xmlns:xlink="http://www.w3.org/1999/xlink" width="16.000000" height="16.000000" fill="none" customFrame="#000000">
	<rect id="线型服务图标/数据库设计" width="16.000000" height="16.000000" x="0.000000" y="0.000000" />
	<g id="编组">
		<rect id="矩形" width="16.000000" height="16.000000" x="0.000000" y="0.000000" opacity="0" fill="rgb(216,216,216)" />
		<rect id="矩形" width="15.000000" height="15.000000" x="0.500000" y="0.500000" opacity="0" stroke="rgb(151,151,151)" stroke-opacity="0" stroke-width="1" />
		<g id="grid 2" opacity="0">
			<g id="grid">
				<g id="bg">
					<path id="Fill 1" d="M16 16L0 16L0 0L16 0L16 16ZM15.3333 15.3331L0.666667 15.3331L0.666667 0.666422L15.3333 0.666422L15.3333 15.3331Z" fill="rgb(249,249,249)" fill-opacity="0.400000006" fill-rule="evenodd" />
					<path id="Fill 2" d="M1.3335 14.6668L14.6668 14.6668L14.6668 1.3335L1.3335 1.3335L1.3335 14.6668Z" fill="rgb(247,247,247)" fill-opacity="0.400000006" fill-rule="evenodd" />
					<path id="Fill 3" d="M2 14L14 14L14 2L2 2L2 14Z" fill="rgb(236,236,236)" fill-opacity="0.101960786" fill-rule="evenodd" />
				</g>
				<g id="Group 5">
					<rect id="Rectangle 2" width="13.333333" height="13.333333" x="1.329102" y="1.329102" rx="2.000000" opacity="0.800000012" fill="rgb(216,216,216)" fill-opacity="0" />
					<rect id="Rectangle 2" width="12.833333" height="12.833333" x="1.579102" y="1.579102" rx="1.750000" opacity="0.800000012" stroke="rgb(255,0,84)" stroke-width="0.5" />
					<rect id="Rectangle 2" width="8.000000" height="8.000000" x="3.998047" y="3.998047" opacity="0.800000012" fill="rgb(216,216,216)" fill-opacity="0" />
					<rect id="Rectangle 2" width="7.500000" height="7.500000" x="4.248047" y="4.248047" opacity="0.800000012" stroke="rgb(255,0,84)" stroke-width="0.5" />
					<rect id="Rectangle 2" width="12.000000" height="14.666667" x="1.993652" y="0.664551" rx="2.000000" opacity="0.800000012" fill="rgb(216,216,216)" fill-opacity="0" />
					<rect id="Rectangle 2" width="11.500000" height="14.166667" x="2.243652" y="0.914551" rx="1.750000" opacity="0.800000012" stroke="rgb(255,0,84)" stroke-width="0.5" />
					<rect id="Rectangle 2" width="14.666667" height="12.000000" x="0.664551" y="1.993652" rx="2.000000" opacity="0.800000012" fill="rgb(216,216,216)" fill-opacity="0" />
					<rect id="Rectangle 2" width="14.166667" height="11.500000" x="0.914551" y="2.243652" rx="1.750000" opacity="0.800000012" stroke="rgb(255,0,84)" stroke-width="0.5" />
					<circle id="Oval 2" cx="7.99788427" cy="7.99788427" r="7.33333349" opacity="0.800000012" fill="rgb(216,216,216)" fill-opacity="0" />
					<circle id="Oval 2" cx="7.99788427" cy="7.99788427" r="7.08333349" opacity="0.800000012" stroke="rgb(255,0,84)" stroke-width="0.5" />
					<circle id="Oval 2" cx="7.9977212" cy="7.9977212" r="4.66666651" opacity="0.800000012" fill="rgb(216,216,216)" fill-opacity="0" />
					<circle id="Oval 2" cx="7.9977212" cy="7.9977212" r="4.41666651" opacity="0.800000012" stroke="rgb(255,0,84)" stroke-width="0.5" />
				</g>
				<g id="Group 3">
					<path id="Path 3" d="M0.0178223 8.03369L15.9793 8.03369" opacity="0.300000012" stroke="rgb(0,0,0)" stroke-width="0.5" />
					<path id="Path 3" d="M0 0L15.9615 0" opacity="0.300000012" stroke="rgb(0,0,0)" stroke-width="0.5" transform="matrix(0,-1,1,0,7.99707,15.9805)" />
					<path id="Path 7" d="M0 0L22.5872 0" opacity="0.300000012" stroke="rgb(0,0,0)" stroke-width="0.5" transform="matrix(0.707107,-0.707107,0.707107,0.707107,0,15.9717)" />
					<path id="Path 7" d="M0 0L22.5872 0" opacity="0.300000012" stroke="rgb(0,0,0)" stroke-width="0.5" transform="matrix(-0.707107,-0.707107,-0.707107,0.707107,15.9883,15.9883)" />
				</g>
			</g>
			<rect id="矩形" width="14.666667" height="14.666667" x="0.666504" y="0.666504" opacity="0.448823482" fill="rgb(50,197,255)" />
			<rect id="矩形" width="13.666667" height="13.666667" x="1.166504" y="1.166504" opacity="0.448823482" stroke="rgb(151,151,151)" stroke-opacity="0" stroke-width="1" />
			<circle id="椭圆形" cx="7.9998374" cy="7.9998374" r="7.33333349" opacity="0.448823482" fill="rgb(247,181,0)" />
			<circle id="椭圆形" cx="7.9998374" cy="7.9998374" r="6.83333349" opacity="0.448823482" stroke="rgb(151,151,151)" stroke-opacity="0" stroke-width="1" />
		</g>
		<path id="形状结合" d="M12.3346 10.6665L3.66797 10.6665C2.56336 10.6665 1.66797 11.5622 1.66797 12.6665C1.66797 13.7708 2.56336 14.6665 3.66797 14.6665L12.3346 14.6665C13.4392 14.6665 14.3346 13.7708 14.3346 12.6665C14.3346 11.5622 13.4392 10.6665 12.3346 10.6665ZM3.66797 11.6665L12.3346 11.6665C12.8869 11.6665 13.3346 12.1144 13.3346 12.6665C13.3346 13.2186 12.8869 13.6665 12.3346 13.6665L3.66797 13.6665C3.11571 13.6665 2.66797 13.2186 2.66797 12.6665C2.66797 12.1144 3.11571 11.6665 3.66797 11.6665ZM3.16667 12.6665C3.16667 12.3905 3.39067 12.1665 3.66667 12.1665C3.94267 12.1665 4.16667 12.3905 4.16667 12.6665C4.16667 12.9425 3.94267 13.1665 3.66667 13.1665C3.39067 13.1665 3.16667 12.9425 3.16667 12.6665Z" fill="rgb(55,167,227)" fill-rule="evenodd" />
		<path id="形状结合" d="M3.66797 10.6665L12.3346 10.6665C13.4392 10.6665 14.3346 11.5622 14.3346 12.6665C14.3346 13.7708 13.4392 14.6665 12.3346 14.6665L3.66797 14.6665C2.56336 14.6665 1.66797 13.7708 1.66797 12.6665C1.66797 11.5622 2.56336 10.6665 3.66797 10.6665ZM12.3346 11.6665L3.66797 11.6665C3.11571 11.6665 2.66797 12.1144 2.66797 12.6665C2.66797 13.2186 3.11571 13.6665 3.66797 13.6665L12.3346 13.6665C12.8869 13.6665 13.3346 13.2186 13.3346 12.6665C13.3346 12.1144 12.8869 11.6665 12.3346 11.6665ZM3.16667 12.6665C3.16667 12.3905 3.39067 12.1665 3.66667 12.1665C3.94267 12.1665 4.16667 12.3905 4.16667 12.6665C4.16667 12.9425 3.94267 13.1665 3.66667 13.1665C3.39067 13.1665 3.16667 12.9425 3.16667 12.6665Z" fill="rgb(151,151,151)" fill-opacity="0" fill-rule="evenodd" />
		<path id="Stroke 1" d="M3.66772 1.3335L12.3344 1.3335C13.439 1.3335 14.3344 2.22916 14.3344 3.3335C14.3344 4.43783 13.439 5.3335 12.3344 5.3335L3.66772 5.3335C2.56311 5.3335 1.66772 4.43783 1.66772 3.3335C1.66772 2.22916 2.56311 1.3335 3.66772 1.3335ZM12.3344 2.3335L3.66772 2.3335C3.11546 2.3335 2.66772 2.78137 2.66772 3.3335C2.66772 3.88562 3.11546 4.3335 3.66772 4.3335L12.3344 4.3335C12.8867 4.3335 13.3344 3.88562 13.3344 3.3335C13.3344 2.78137 12.8867 2.3335 12.3344 2.3335Z" fill="rgb(55,167,227)" fill-rule="evenodd" />
		<path id="Stroke 1" d="M3.66772 1.3335L12.3344 1.3335C13.439 1.3335 14.3344 2.22916 14.3344 3.3335C14.3344 4.43783 13.439 5.3335 12.3344 5.3335L3.66772 5.3335C2.56311 5.3335 1.66772 4.43783 1.66772 3.3335C1.66772 2.22916 2.56311 1.3335 3.66772 1.3335ZM12.3344 2.3335L3.66772 2.3335C3.11546 2.3335 2.66772 2.78137 2.66772 3.3335C2.66772 3.88562 3.11546 4.3335 3.66772 4.3335L12.3344 4.3335C12.8867 4.3335 13.3344 3.88562 13.3344 3.3335C13.3344 2.78137 12.8867 2.3335 12.3344 2.3335Z" fill="rgb(151,151,151)" fill-opacity="0" fill-rule="evenodd" />
		<path id="Stroke 3" d="M3.66772 6L12.3344 6C13.439 6 14.3344 6.89566 14.3344 8C14.3344 9.10434 13.439 10 12.3344 10L3.66772 10C2.56311 10 1.66772 9.10434 1.66772 8C1.66772 6.89566 2.56311 6 3.66772 6ZM12.3344 7L3.66772 7C3.11546 7 2.66772 7.44788 2.66772 8C2.66772 8.55212 3.11546 9 3.66772 9L12.3344 9C12.8867 9 13.3344 8.55212 13.3344 8C13.3344 7.44788 12.8867 7 12.3344 7Z" fill="rgb(55,167,227)" fill-rule="evenodd" />
		<path id="Stroke 3" d="M3.66772 6L12.3344 6C13.439 6 14.3344 6.89566 14.3344 8C14.3344 9.10434 13.439 10 12.3344 10L3.66772 10C2.56311 10 1.66772 9.10434 1.66772 8C1.66772 6.89566 2.56311 6 3.66772 6ZM12.3344 7L3.66772 7C3.11546 7 2.66772 7.44788 2.66772 8C2.66772 8.55212 3.11546 9 3.66772 9L12.3344 9C12.8867 9 13.3344 8.55212 13.3344 8C13.3344 7.44788 12.8867 7 12.3344 7Z" fill="rgb(151,151,151)" fill-opacity="0" fill-rule="evenodd" />
		<path id="Fill 9" d="M5.1665 7.99951C5.1665 7.72351 4.9425 7.49951 4.6665 7.49951C4.3905 7.49951 4.1665 7.72351 4.1665 7.99951C4.1665 8.27551 4.3905 8.49951 4.6665 8.49951C4.9425 8.49951 5.1665 8.27551 5.1665 7.99951" fill="rgb(55,167,227)" fill-rule="evenodd" />
		<path id="Fill 9" d="" fill="rgb(151,151,151)" fill-opacity="0" fill-rule="evenodd" />
		<path id="Fill 7" d="M5.1665 3.3335C5.1665 3.0575 4.9425 2.8335 4.6665 2.8335C4.3905 2.8335 4.1665 3.0575 4.1665 3.3335C4.1665 3.6095 4.3905 3.8335 4.6665 3.8335C4.9425 3.8335 5.1665 3.6095 5.1665 3.3335" fill="rgb(55,167,227)" fill-rule="evenodd" />
		<path id="Fill 7" d="" fill="rgb(151,151,151)" fill-opacity="0" fill-rule="evenodd" />
	</g>
</svg>
