<svg viewBox="0 0 16 16" xmlns="http://www.w3.org/2000/svg" xmlns:xlink="http://www.w3.org/1999/xlink" width="16.000000" height="16.000000" fill="none" customFrame="#000000">
	<rect id="线型服务图标/架构建模" width="16.000000" height="16.000000" x="0.000000" y="0.000000" />
	<g id="编组">
		<rect id="矩形" width="16.000000" height="16.000000" x="0.000000" y="0.000000" opacity="0" fill="rgb(216,216,216)" />
		<rect id="矩形" width="15.000000" height="15.000000" x="0.500000" y="0.500000" opacity="0" stroke="rgb(151,151,151)" stroke-opacity="0" stroke-width="1" />
		<g id="grid 2" opacity="0">
			<g id="grid">
				<g id="bg">
					<path id="Fill 1" d="M16 16L0 16L0 0L16 0L16 16ZM15.3333 15.3331L0.666667 15.3331L0.666667 0.666422L15.3333 0.666422L15.3333 15.3331Z" fill="rgb(249,249,249)" fill-opacity="0.400000006" fill-rule="evenodd" />
					<path id="Fill 2" d="M1.3335 14.6668L14.6668 14.6668L14.6668 1.3335L1.3335 1.3335L1.3335 14.6668Z" fill="rgb(247,247,247)" fill-opacity="0.400000006" fill-rule="evenodd" />
					<path id="Fill 3" d="M2 14L14 14L14 2L2 2L2 14Z" fill="rgb(236,236,236)" fill-opacity="0.101960786" fill-rule="evenodd" />
				</g>
				<g id="Group 5">
					<rect id="Rectangle 2" width="13.333333" height="13.333333" x="1.329102" y="1.329102" rx="2.000000" opacity="0.800000012" fill="rgb(216,216,216)" fill-opacity="0" />
					<rect id="Rectangle 2" width="12.833333" height="12.833333" x="1.579102" y="1.579102" rx="1.750000" opacity="0.800000012" stroke="rgb(255,0,84)" stroke-width="0.5" />
					<rect id="Rectangle 2" width="8.000000" height="8.000000" x="3.998047" y="3.998047" opacity="0.800000012" fill="rgb(216,216,216)" fill-opacity="0" />
					<rect id="Rectangle 2" width="7.500000" height="7.500000" x="4.248047" y="4.248047" opacity="0.800000012" stroke="rgb(255,0,84)" stroke-width="0.5" />
					<rect id="Rectangle 2" width="12.000000" height="14.666667" x="1.993652" y="0.664551" rx="2.000000" opacity="0.800000012" fill="rgb(216,216,216)" fill-opacity="0" />
					<rect id="Rectangle 2" width="11.500000" height="14.166667" x="2.243652" y="0.914551" rx="1.750000" opacity="0.800000012" stroke="rgb(255,0,84)" stroke-width="0.5" />
					<rect id="Rectangle 2" width="14.666667" height="12.000000" x="0.664551" y="1.993652" rx="2.000000" opacity="0.800000012" fill="rgb(216,216,216)" fill-opacity="0" />
					<rect id="Rectangle 2" width="14.166667" height="11.500000" x="0.914551" y="2.243652" rx="1.750000" opacity="0.800000012" stroke="rgb(255,0,84)" stroke-width="0.5" />
					<circle id="Oval 2" cx="7.99788427" cy="7.99788427" r="7.33333349" opacity="0.800000012" fill="rgb(216,216,216)" fill-opacity="0" />
					<circle id="Oval 2" cx="7.99788427" cy="7.99788427" r="7.08333349" opacity="0.800000012" stroke="rgb(255,0,84)" stroke-width="0.5" />
					<circle id="Oval 2" cx="7.9977212" cy="7.9977212" r="4.66666651" opacity="0.800000012" fill="rgb(216,216,216)" fill-opacity="0" />
					<circle id="Oval 2" cx="7.9977212" cy="7.9977212" r="4.41666651" opacity="0.800000012" stroke="rgb(255,0,84)" stroke-width="0.5" />
				</g>
				<g id="Group 3">
					<path id="Path 3" d="M0.0178223 8.03369L15.9793 8.03369" opacity="0.300000012" stroke="rgb(0,0,0)" stroke-width="0.5" />
					<path id="Path 3" d="M0 0L15.9615 0" opacity="0.300000012" stroke="rgb(0,0,0)" stroke-width="0.5" transform="matrix(0,-1,1,0,7.99756,15.9805)" />
					<path id="Path 7" d="M0 0L22.5872 0" opacity="0.300000012" stroke="rgb(0,0,0)" stroke-width="0.5" transform="matrix(0.707107,-0.707107,0.707107,0.707107,0,15.9717)" />
					<path id="Path 7" d="M0 0L22.5872 0" opacity="0.300000012" stroke="rgb(0,0,0)" stroke-width="0.5" transform="matrix(-0.707107,-0.707107,-0.707107,0.707107,15.9883,15.9883)" />
				</g>
			</g>
			<rect id="矩形" width="14.666667" height="14.666667" x="0.666504" y="0.666504" opacity="0.448823482" fill="rgb(50,197,255)" />
			<rect id="矩形" width="13.666667" height="13.666667" x="1.166504" y="1.166504" opacity="0.448823482" stroke="rgb(151,151,151)" stroke-opacity="0" stroke-width="1" />
			<circle id="椭圆形" cx="7.9998374" cy="7.9998374" r="7.33333349" opacity="0.448823482" fill="rgb(247,181,0)" />
			<circle id="椭圆形" cx="7.9998374" cy="7.9998374" r="6.83333349" opacity="0.448823482" stroke="rgb(151,151,151)" stroke-opacity="0" stroke-width="1" />
		</g>
		<path id="形状结合" d="M11.4941 2.39502L4.49414 2.39502C3.66571 2.39502 2.99414 3.06659 2.99414 3.89502L2.99414 4.89502C2.99414 5.72345 3.66571 6.39502 4.49414 6.39502L7.5 6.39502L7.5 7.49982L3.90067 7.49982L3.81395 7.50394C3.35736 7.54755 3 7.93202 3 8.39982L3 10.0005L3.00456 10.0683C3.03767 10.3124 3.24687 10.5005 3.5 10.5005L3.56785 10.4959C3.8119 10.4628 4 10.2536 4 10.0005L3.99953 8.49975L7.5 8.49975L7.5 9.9258L7.50456 9.99365C7.53767 10.2377 7.74687 10.4258 8 10.4258C8.27614 10.4258 8.5 10.2019 8.5 9.9258L8.5 8.49975L11.9995 8.49975L12 10.0005L12.0046 10.0683C12.0377 10.3124 12.2469 10.5005 12.5 10.5005C12.7761 10.5005 13 10.2766 13 10.0005L13 8.39982L12.9959 8.31318C12.9522 7.85697 12.5676 7.49982 12.1 7.49982L8.5 7.49982L8.5 6.39502L11.4941 6.39502C12.3226 6.39502 12.9941 5.72345 12.9941 4.89502L12.9941 3.89502C12.9941 3.06659 12.3226 2.39502 11.4941 2.39502ZM4.49414 3.39502L11.4941 3.39502C11.7703 3.39502 11.9941 3.61888 11.9941 3.89502L11.9941 4.89502C11.9941 5.17116 11.7703 5.39502 11.4941 5.39502L4.49414 5.39502C4.218 5.39502 3.99414 5.17116 3.99414 4.89502L3.99414 3.89502C3.99414 3.61888 4.218 3.39502 4.49414 3.39502Z" fill="rgb(55,167,227)" fill-rule="evenodd" />
		<path id="形状结合" d="M4.49414 2.39502L11.4941 2.39502C12.3226 2.39502 12.9941 3.06659 12.9941 3.89502L12.9941 4.89502C12.9941 5.72345 12.3226 6.39502 11.4941 6.39502L8.5 6.39502L8.5 7.49982L12.1 7.49982C12.5676 7.49982 12.9522 7.85697 12.9959 8.31318L13 8.39982L13 10.0005C13 10.2766 12.7761 10.5005 12.5 10.5005C12.2469 10.5005 12.0377 10.3124 12.0046 10.0683L12 10.0005L11.9995 8.49975L8.5 8.49975L8.5 9.9258C8.5 10.2019 8.27614 10.4258 8 10.4258C7.74687 10.4258 7.53767 10.2377 7.50456 9.99365L7.5 9.9258L7.5 8.49975L3.99953 8.49975L4 10.0005C4 10.2536 3.8119 10.4628 3.56785 10.4959L3.5 10.5005C3.24687 10.5005 3.03767 10.3124 3.00456 10.0683L3 10.0005L3 8.39982C3 7.93202 3.35736 7.54755 3.81395 7.50394L3.90067 7.49982L7.5 7.49982L7.5 6.39502L4.49414 6.39502C3.66571 6.39502 2.99414 5.72345 2.99414 4.89502L2.99414 3.89502C2.99414 3.06659 3.66571 2.39502 4.49414 2.39502ZM11.4941 3.39502L4.49414 3.39502C4.218 3.39502 3.99414 3.61888 3.99414 3.89502L3.99414 4.89502C3.99414 5.17116 4.218 5.39502 4.49414 5.39502L11.4941 5.39502C11.7703 5.39502 11.9941 5.17116 11.9941 4.89502L11.9941 3.89502C11.9941 3.61888 11.7703 3.39502 11.4941 3.39502Z" fill="rgb(151,151,151)" fill-opacity="0" fill-rule="evenodd" />
		<path id="Stroke 3" d="M7.16715 9.6001L8.83382 9.6001C9.47863 9.6001 10.0005 10.122 10.0005 10.7668L10.0005 12.4334C10.0005 13.0777 9.47848 13.6001 8.83382 13.6001L7.16715 13.6001C6.52301 13.6001 6.00049 13.0776 6.00049 12.4334L6.00049 10.7668C6.00049 10.1221 6.52286 9.6001 7.16715 9.6001ZM8.83382 10.6001L7.16715 10.6001C7.07499 10.6001 7.00049 10.6745 7.00049 10.7668L7.00049 12.4334C7.00049 12.5253 7.0753 12.6001 7.16715 12.6001L8.83382 12.6001C8.92604 12.6001 9.00049 12.5256 9.00049 12.4334L9.00049 10.7668C9.00049 10.6742 8.92635 10.6001 8.83382 10.6001Z" fill="rgb(55,167,227)" fill-rule="evenodd" />
		<path id="Stroke 3" d="M7.16715 9.6001L8.83382 9.6001C9.47863 9.6001 10.0005 10.122 10.0005 10.7668L10.0005 12.4334C10.0005 13.0777 9.47848 13.6001 8.83382 13.6001L7.16715 13.6001C6.52301 13.6001 6.00049 13.0776 6.00049 12.4334L6.00049 10.7668C6.00049 10.1221 6.52286 9.6001 7.16715 9.6001ZM8.83382 10.6001L7.16715 10.6001C7.07499 10.6001 7.00049 10.6745 7.00049 10.7668L7.00049 12.4334C7.00049 12.5253 7.0753 12.6001 7.16715 12.6001L8.83382 12.6001C8.92604 12.6001 9.00049 12.5256 9.00049 12.4334L9.00049 10.7668C9.00049 10.6742 8.92635 10.6001 8.83382 10.6001Z" fill="rgb(151,151,151)" fill-opacity="0" fill-rule="evenodd" />
		<path id="Stroke 5" d="M2.66618 9.6001L4.33284 9.6001C4.97765 9.6001 5.49951 10.122 5.49951 10.7668L5.49951 12.4334C5.49951 13.0777 4.9775 13.6001 4.33284 13.6001L2.66618 13.6001C2.02204 13.6001 1.49951 13.0776 1.49951 12.4334L1.49951 10.7668C1.49951 10.1221 2.02188 9.6001 2.66618 9.6001ZM4.33285 10.6001L2.66618 10.6001C2.57401 10.6001 2.49951 10.6745 2.49951 10.7668L2.49951 12.4334C2.49951 12.5253 2.57432 12.6001 2.66618 12.6001L4.33285 12.6001C4.42506 12.6001 4.49951 12.5256 4.49951 12.4334L4.49951 10.7668C4.49951 10.6742 4.42537 10.6001 4.33285 10.6001Z" fill="rgb(55,167,227)" fill-rule="evenodd" />
		<path id="Stroke 5" d="M2.66618 9.6001L4.33284 9.6001C4.97765 9.6001 5.49951 10.122 5.49951 10.7668L5.49951 12.4334C5.49951 13.0777 4.9775 13.6001 4.33284 13.6001L2.66618 13.6001C2.02204 13.6001 1.49951 13.0776 1.49951 12.4334L1.49951 10.7668C1.49951 10.1221 2.02188 9.6001 2.66618 9.6001ZM4.33285 10.6001L2.66618 10.6001C2.57401 10.6001 2.49951 10.6745 2.49951 10.7668L2.49951 12.4334C2.49951 12.5253 2.57432 12.6001 2.66618 12.6001L4.33285 12.6001C4.42506 12.6001 4.49951 12.5256 4.49951 12.4334L4.49951 10.7668C4.49951 10.6742 4.42537 10.6001 4.33285 10.6001Z" fill="rgb(151,151,151)" fill-opacity="0" fill-rule="evenodd" />
		<path id="Stroke 7" d="M11.6672 9.6001L13.3338 9.6001C13.9786 9.6001 14.5005 10.122 14.5005 10.7668L14.5005 12.4334C14.5005 13.0777 13.9785 13.6001 13.3338 13.6001L11.6672 13.6001C11.023 13.6001 10.5005 13.0776 10.5005 12.4334L10.5005 10.7668C10.5005 10.1221 11.0229 9.6001 11.6672 9.6001ZM13.3338 10.6001L11.6672 10.6001C11.575 10.6001 11.5005 10.6745 11.5005 10.7668L11.5005 12.4334C11.5005 12.5253 11.5753 12.6001 11.6672 12.6001L13.3338 12.6001C13.426 12.6001 13.5005 12.5256 13.5005 12.4334L13.5005 10.7668C13.5005 10.6742 13.4263 10.6001 13.3338 10.6001Z" fill="rgb(55,167,227)" fill-rule="evenodd" />
		<path id="Stroke 7" d="M11.6672 9.6001L13.3338 9.6001C13.9786 9.6001 14.5005 10.122 14.5005 10.7668L14.5005 12.4334C14.5005 13.0777 13.9785 13.6001 13.3338 13.6001L11.6672 13.6001C11.023 13.6001 10.5005 13.0776 10.5005 12.4334L10.5005 10.7668C10.5005 10.1221 11.0229 9.6001 11.6672 9.6001ZM13.3338 10.6001L11.6672 10.6001C11.575 10.6001 11.5005 10.6745 11.5005 10.7668L11.5005 12.4334C11.5005 12.5253 11.5753 12.6001 11.6672 12.6001L13.3338 12.6001C13.426 12.6001 13.5005 12.5256 13.5005 12.4334L13.5005 10.7668C13.5005 10.6742 13.4263 10.6001 13.3338 10.6001Z" fill="rgb(151,151,151)" fill-opacity="0" fill-rule="evenodd" />
	</g>
</svg>
