<svg viewBox="0 0 16 16" xmlns="http://www.w3.org/2000/svg" xmlns:xlink="http://www.w3.org/1999/xlink" width="16.000000" height="16.000000" fill="none" customFrame="#000000">
	<rect id="线型服务图标/流水线" width="16.000000" height="16.000000" x="0.000000" y="0.000000" />
	<g id="编组">
		<rect id="矩形" width="16.000000" height="16.000000" x="0.000000" y="0.000000" opacity="0" fill="rgb(216,216,216)" />
		<rect id="矩形" width="15.000000" height="15.000000" x="0.500000" y="0.500000" opacity="0" stroke="rgb(151,151,151)" stroke-opacity="0" stroke-width="1" />
		<g id="grid 2" opacity="0">
			<g id="grid">
				<g id="bg">
					<path id="Fill 1" d="M16 16L0 16L0 0L16 0L16 16ZM15.3333 15.3331L0.666667 15.3331L0.666667 0.666422L15.3333 0.666422L15.3333 15.3331Z" fill="rgb(249,249,249)" fill-opacity="0.400000006" fill-rule="evenodd" />
					<path id="Fill 2" d="M1.3335 14.6668L14.6668 14.6668L14.6668 1.3335L1.3335 1.3335L1.3335 14.6668Z" fill="rgb(247,247,247)" fill-opacity="0.400000006" fill-rule="evenodd" />
					<path id="Fill 3" d="M2 14L14 14L14 2L2 2L2 14Z" fill="rgb(236,236,236)" fill-opacity="0.101960786" fill-rule="evenodd" />
				</g>
				<g id="Group 5">
					<rect id="Rectangle 2" width="13.333333" height="13.333333" x="1.329102" y="1.329102" rx="2.000000" opacity="0.800000012" fill="rgb(216,216,216)" fill-opacity="0" />
					<rect id="Rectangle 2" width="12.833333" height="12.833333" x="1.579102" y="1.579102" rx="1.750000" opacity="0.800000012" stroke="rgb(255,0,84)" stroke-width="0.5" />
					<rect id="Rectangle 2" width="8.000000" height="8.000000" x="3.998047" y="3.998047" opacity="0.800000012" fill="rgb(216,216,216)" fill-opacity="0" />
					<rect id="Rectangle 2" width="7.500000" height="7.500000" x="4.248047" y="4.248047" opacity="0.800000012" stroke="rgb(255,0,84)" stroke-width="0.5" />
					<rect id="Rectangle 2" width="12.000000" height="14.666667" x="1.993652" y="0.664551" rx="2.000000" opacity="0.800000012" fill="rgb(216,216,216)" fill-opacity="0" />
					<rect id="Rectangle 2" width="11.500000" height="14.166667" x="2.243652" y="0.914551" rx="1.750000" opacity="0.800000012" stroke="rgb(255,0,84)" stroke-width="0.5" />
					<rect id="Rectangle 2" width="14.666667" height="12.000000" x="0.664551" y="1.993652" rx="2.000000" opacity="0.800000012" fill="rgb(216,216,216)" fill-opacity="0" />
					<rect id="Rectangle 2" width="14.166667" height="11.500000" x="0.914551" y="2.243652" rx="1.750000" opacity="0.800000012" stroke="rgb(255,0,84)" stroke-width="0.5" />
					<circle id="Oval 2" cx="7.99788427" cy="7.99788427" r="7.33333349" opacity="0.800000012" fill="rgb(216,216,216)" fill-opacity="0" />
					<circle id="Oval 2" cx="7.99788427" cy="7.99788427" r="7.08333349" opacity="0.800000012" stroke="rgb(255,0,84)" stroke-width="0.5" />
					<circle id="Oval 2" cx="7.9977212" cy="7.9977212" r="4.66666651" opacity="0.800000012" fill="rgb(216,216,216)" fill-opacity="0" />
					<circle id="Oval 2" cx="7.9977212" cy="7.9977212" r="4.41666651" opacity="0.800000012" stroke="rgb(255,0,84)" stroke-width="0.5" />
				</g>
				<g id="Group 3">
					<path id="Path 3" d="M0.0178223 8.03369L15.9793 8.03369" opacity="0.300000012" stroke="rgb(0,0,0)" stroke-width="0.5" />
					<path id="Path 3" d="M0 0L15.9615 0" opacity="0.300000012" stroke="rgb(0,0,0)" stroke-width="0.5" transform="matrix(0,-1,1,0,7.99707,15.9805)" />
					<path id="Path 7" d="M0 0L22.5872 0" opacity="0.300000012" stroke="rgb(0,0,0)" stroke-width="0.5" transform="matrix(0.707107,-0.707107,0.707107,0.707107,0,15.9717)" />
					<path id="Path 7" d="M0 0L22.5872 0" opacity="0.300000012" stroke="rgb(0,0,0)" stroke-width="0.5" transform="matrix(-0.707107,-0.707107,-0.707107,0.707107,15.9883,15.9883)" />
				</g>
			</g>
			<rect id="矩形" width="14.666667" height="14.666667" x="0.666504" y="0.666504" opacity="0.448823482" fill="rgb(50,197,255)" />
			<rect id="矩形" width="13.666667" height="13.666667" x="1.166504" y="1.166504" opacity="0.448823482" stroke="rgb(151,151,151)" stroke-opacity="0" stroke-width="1" />
			<circle id="椭圆形" cx="7.9998374" cy="7.9998374" r="7.33333349" opacity="0.448823482" fill="rgb(247,181,0)" />
			<circle id="椭圆形" cx="7.9998374" cy="7.9998374" r="6.83333349" opacity="0.448823482" stroke="rgb(151,151,151)" stroke-opacity="0" stroke-width="1" />
		</g>
		<path id="形状" d="M5.5562 4.31263C5.33915 5.07096 4.64073 5.626 3.81267 5.626C2.81172 5.626 2 4.814 2 3.81267C2 2.81186 2.81186 2 3.81267 2C4.6402 2 5.33843 2.5544 5.55587 3.31183L11.4 3.31253C12.8361 3.31253 14 4.47698 14 5.9132C14 7.30446 12.9077 8.44019 11.5338 8.50982L11.4 8.5132L9.73884 8.51317C9.51728 9.26439 8.82234 9.81267 7.99933 9.81267C7.17676 9.81267 6.48199 9.26429 6.26048 8.51311L4.60067 8.5132C3.71622 8.5132 3 9.22926 3 10.1132C3 10.9603 3.65778 11.6532 4.49103 11.7095L4.60067 11.7132L10.4367 11.7126C10.6452 10.9416 11.3499 10.374 12.1867 10.374C13.188 10.374 14 11.1857 14 12.1867C14 13.1881 13.1881 14 12.1867 14C11.3687 14 10.6771 13.4577 10.4516 12.713L4.60067 12.7132C3.16399 12.7132 2 11.5495 2 10.1132C2 8.72181 3.09237 7.5862 4.4668 7.51658L4.60067 7.5132L6.25301 7.51188C6.46601 6.74768 7.16739 6.18667 7.99933 6.18667C8.83196 6.18667 9.53368 6.7479 9.7465 7.5125L11.4 7.5132C12.2839 7.5132 13 6.79706 13 5.9132C13 5.066 12.3421 4.37254 11.5095 4.31623L11.4 4.31253L5.5562 4.31263ZM2.99999 3.81265C2.99999 3.36413 3.36413 2.99999 3.81265 2.99999C4.26178 2.99999 4.62599 3.36407 4.62599 3.81265C4.62599 4.26185 4.26185 4.62599 3.81265 4.62599C3.36407 4.62599 2.99999 4.26178 2.99999 3.81265ZM7.99918 7.18651C7.55065 7.18651 7.18651 7.55065 7.18651 7.99918C7.18651 8.44831 7.55059 8.81251 7.99918 8.81251C8.44837 8.81251 8.81251 8.44837 8.81251 7.99918C8.81251 7.55059 8.44831 7.18651 7.99918 7.18651ZM11.374 12.1867C11.374 11.7382 11.7382 11.374 12.1867 11.374C12.6358 11.374 13 11.7381 13 12.1867C13 12.6359 12.6359 13 12.1867 13C11.7381 13 11.374 12.6358 11.374 12.1867Z" fill="rgb(250,140,22)" fill-rule="evenodd" />
		<path id="形状" d="M5.5562 4.31263C5.33915 5.07096 4.64073 5.626 3.81267 5.626C2.81172 5.626 2 4.814 2 3.81267C2 2.81186 2.81186 2 3.81267 2C4.6402 2 5.33843 2.5544 5.55587 3.31183L11.4 3.31253C12.8361 3.31253 14 4.47698 14 5.9132C14 7.30446 12.9077 8.44019 11.5338 8.50982L11.4 8.5132L9.73884 8.51317C9.51728 9.26439 8.82234 9.81267 7.99933 9.81267C7.17676 9.81267 6.48199 9.26429 6.26048 8.51311L4.60067 8.5132C3.71622 8.5132 3 9.22926 3 10.1132C3 10.9603 3.65778 11.6532 4.49103 11.7095L4.60067 11.7132L10.4367 11.7126C10.6452 10.9416 11.3499 10.374 12.1867 10.374C13.188 10.374 14 11.1857 14 12.1867C14 13.1881 13.1881 14 12.1867 14C11.3687 14 10.6771 13.4577 10.4516 12.713L4.60067 12.7132C3.16399 12.7132 2 11.5495 2 10.1132C2 8.72181 3.09237 7.5862 4.4668 7.51658L4.60067 7.5132L6.25301 7.51188C6.46601 6.74768 7.16739 6.18667 7.99933 6.18667C8.83196 6.18667 9.53368 6.7479 9.7465 7.5125L11.4 7.5132C12.2839 7.5132 13 6.79706 13 5.9132C13 5.066 12.3421 4.37254 11.5095 4.31623L11.4 4.31253L5.5562 4.31263ZM3.81265 2.99999C3.36413 2.99999 2.99999 3.36413 2.99999 3.81265C2.99999 4.26178 3.36407 4.62599 3.81265 4.62599C4.26185 4.62599 4.62599 4.26185 4.62599 3.81265C4.62599 3.36407 4.26178 2.99999 3.81265 2.99999ZM7.99918 7.18651C7.55065 7.18651 7.18651 7.55065 7.18651 7.99918C7.18651 8.44831 7.55059 8.81251 7.99918 8.81251C8.44837 8.81251 8.81251 8.44837 8.81251 7.99918C8.81251 7.55059 8.44831 7.18651 7.99918 7.18651ZM12.1867 11.374C11.7382 11.374 11.374 11.7382 11.374 12.1867C11.374 12.6358 11.7381 13 12.1867 13C12.6359 13 13 12.6359 13 12.1867C13 11.7381 12.6358 11.374 12.1867 11.374Z" fill="rgb(151,151,151)" fill-opacity="0" fill-rule="evenodd" />
	</g>
</svg>
