<svg viewBox="0 0 48 48" xmlns="http://www.w3.org/2000/svg" xmlns:xlink="http://www.w3.org/1999/xlink" width="48.000000" height="48.000000" fill="none">
	<rect id="语言图标/BuildScript" width="48.000000" height="48.000000" x="0.000000" y="0.000000" />
	<g id="模型/BuildScript">
		<g id="编组">
			<path id="路径" d="M36.9863 32.0042L10.7651 32.0042L10.7651 10.8103L12.6382 10.8103L12.6382 8L23.8794 8L25.7531 12.3103L36.9863 12.3103L36.9863 32.0042Z" fill="rgb(205,89,39)" fill-rule="nonzero" />
			<path id="路径" d="M10.7651 32.0042L10.7651 10.8103L12.6382 10.8103L12.6382 8L23.8794 8L25.7531 12.3103L36.9863 12.3103L36.9863 32.0042L10.7651 32.0042Z" fill-rule="nonzero" stroke="rgb(0,0,0)" stroke-opacity="0" stroke-width="1" />
			<path id="路径备份-31" d="M38.8596 34.1395L8.8916 34.1395L8.8916 12.9456L10.7653 12.9456L10.7653 10.1353L22.0065 10.1353L23.8796 14.4456L38.8596 14.4456L38.8596 34.1395Z" fill="rgb(241,101,41)" fill-rule="nonzero" />
			<path id="路径备份-31" d="M8.8916 34.1395L8.8916 12.9456L10.7653 12.9456L10.7653 10.1353L22.0065 10.1353L23.8796 14.4456L38.8596 14.4456L38.8596 34.1395L8.8916 34.1395Z" fill-rule="nonzero" stroke="rgb(0,0,0)" stroke-opacity="0" stroke-width="1" />
			<path id="B" d="M20.7681 20.9199Q23.6443 21.7402 23.6443 24.637Q23.6443 26.698 22.2344 27.8413Q20.8296 28.9846 18.0815 28.9846L12.5752 28.9846L12.5752 13.614L17.4304 13.614Q19.0454 13.614 20.24 14.1165Q21.4397 14.6189 22.0908 15.5674Q22.7419 16.5107 22.7419 17.772Q22.7419 19.9766 20.7681 20.9199ZM14.4465 15.27L14.4465 20.3098L17.1125 20.3098Q18.8557 20.3098 19.8093 19.6382Q20.7681 18.9666 20.7681 17.772Q20.7681 16.6133 19.7991 15.9417Q18.8352 15.27 17.1125 15.27L14.4465 15.27ZM17.7432 27.3491Q19.717 27.3491 20.6912 26.6365Q21.6704 25.9187 21.6704 24.637Q21.6704 23.3347 20.6912 22.6016Q19.717 21.8633 17.7432 21.8633L14.4465 21.8633L14.4465 27.3491L17.7432 27.3491Z" fill="rgb(255,255,255)" fill-rule="nonzero" />
			<path id="B" d="M20.9052 20.4391Q22.5012 20.8943 23.3207 21.9534Q24.1443 23.0177 24.1443 24.637Q24.1443 26.9363 22.5493 28.2297Q21.0073 29.4846 18.0815 29.4846L12.0752 29.4846L12.0752 13.114L17.4304 13.114Q19.1463 13.114 20.4338 13.6556Q21.7686 14.2146 22.503 15.2844Q23.2419 16.3549 23.2419 17.772Q23.2419 19.0181 22.6721 19.9269Q22.1015 20.8368 20.9837 21.371L20.7681 20.9199L20.9052 20.4391ZM20.6309 21.4007L19.3606 21.0384L20.5525 20.4688Q21.4085 20.0597 21.8249 19.3956Q22.2419 18.7305 22.2419 17.772Q22.2419 16.6665 21.6786 15.8504Q21.1108 15.0232 20.0461 14.5773Q18.9445 14.114 17.4304 14.114L12.5752 14.114L12.5752 13.614L13.0752 13.614L13.0752 28.9846L12.5752 28.9846L12.5752 28.4846L18.0815 28.4846Q20.6518 28.4846 21.9195 27.4529Q23.1443 26.4597 23.1443 24.637Q23.1443 23.3595 22.5298 22.5653Q21.9112 21.7659 20.6309 21.4007ZM14.9465 15.27L14.9465 20.3098L14.4465 20.3098L14.4465 19.8098L17.1125 19.8098Q18.6973 19.8098 19.5214 19.2294Q19.9005 18.9638 20.0836 18.6073Q20.2681 18.2483 20.2681 17.772Q20.2681 17.3168 20.0839 16.969Q19.8987 16.619 19.5142 16.3526Q18.6782 15.77 17.1125 15.77L14.4465 15.77L14.4465 15.27L14.9465 15.27ZM13.9465 14.77L17.1125 14.77Q18.9922 14.77 20.0839 15.5307Q20.6685 15.9359 20.9677 16.5011Q21.2681 17.0684 21.2681 17.772Q21.2681 18.4902 20.9731 19.0643Q20.6769 19.6409 20.0972 20.047Q19.0141 20.8098 17.1125 20.8098L13.9465 20.8098L13.9465 15.27L13.9465 14.77ZM17.7432 26.8491Q19.5537 26.8491 20.3959 26.2329Q20.7859 25.9471 20.9766 25.5578Q21.1704 25.162 21.1704 24.637Q21.1704 24.0999 20.975 23.6938Q20.7832 23.2951 20.3915 23.0018Q19.549 22.3633 17.7432 22.3633L14.4465 22.3633L14.4465 21.8633L14.9465 21.8633L14.9465 27.3491L14.4465 27.3491L14.4465 26.8491L17.7432 26.8491ZM17.7432 27.8491L13.9465 27.8491L13.9465 21.3633L17.7432 21.3633Q19.8851 21.3633 20.9908 22.2013Q21.5783 22.6412 21.8762 23.2602Q22.1704 23.8718 22.1704 24.637Q22.1704 25.3937 21.8746 25.9976Q21.5757 26.6081 20.9864 27.04Q19.8804 27.8491 17.7432 27.8491Z" fill="rgb(0,0,0)" fill-opacity="0" fill-rule="nonzero" />
			<path id="" />
			<path id="路径备份-32" d="M38.8594 34.1395L29.8861 34.1395L23.8794 14.4456L38.8594 14.4456L38.8594 34.1395Z" fill="rgb(250,135,135)" fill-rule="nonzero" />
			<path id="路径备份-32" d="M29.8861 34.1395L23.8794 14.4456L38.8594 14.4456L38.8594 34.1395L29.8861 34.1395Z" fill-rule="nonzero" stroke="rgb(0,0,0)" stroke-opacity="0" stroke-width="1" />
			<path id="路径备份-29" d="M7.01758 32.0442L8.89141 26.4646L8.89141 36.7692L7.01758 36.7692L7.01758 32.0442Z" fill="rgb(71,77,85)" fill-rule="nonzero" />
			<path id="路径备份-29" d="M8.89141 26.4646L8.89141 36.7692L7.01758 36.7692L7.01758 32.0442L8.89141 26.4646Z" fill-rule="nonzero" stroke="rgb(0,0,0)" stroke-opacity="0" stroke-width="1" />
			<path id="路径备份-30" d="M0 5.57961L1.87383 0L1.87383 10.3046L0 10.3046L0 5.57961Z" fill="rgb(71,77,85)" fill-rule="nonzero" transform="matrix(-1,0,0,1,40.7334,26.022)" />
			<path id="路径备份-30" d="M1.87383 0L1.87383 10.3046L0 10.3046L0 5.57961L1.87383 0Z" fill-rule="nonzero" stroke="rgb(0,0,0)" stroke-opacity="0" stroke-width="1" transform="matrix(-1,0,0,1,40.7334,26.022)" />
			<path id="路径" d="M7 31.9846L40.7148 31.9846L40.7148 39.6346L7 39.6346L7 31.9846Z" fill="rgb(101,109,120)" fill-rule="nonzero" />
			<path id="路径" d="M40.7148 31.9846L40.7148 39.6346L7 39.6346L7 31.9846L40.7148 31.9846Z" fill-rule="nonzero" stroke="rgb(0,0,0)" stroke-opacity="0" stroke-width="1" />
			<rect id="矩形" width="14.250000" height="1.500000" x="16.750000" y="35.734619" rx="0.750000" fill="rgb(216,216,216)" />
			<rect id="矩形" width="14.250000" height="1.500000" x="16.750000" y="35.734619" rx="0.750000" stroke="rgb(0,0,0)" stroke-opacity="0" stroke-width="1" />
		</g>
	</g>
</svg>
