<svg viewBox="0 0 48 48" xmlns="http://www.w3.org/2000/svg" xmlns:xlink="http://www.w3.org/1999/xlink" width="48.000000" height="48.000000" fill="none">
	<rect id="语言图标/CompileOption" width="48.000000" height="48.000000" x="0.000000" y="0.000000" />
	<g id="CompileOption">
		<g id="编组">
			<path id="路径" d="M36.9863 32.0042L10.7651 32.0042L10.7651 10.8103L12.6382 10.8103L12.6382 8L23.8794 8L25.7531 12.3103L36.9863 12.3103L36.9863 32.0042Z" fill="rgb(71,141,79)" fill-rule="nonzero" />
			<path id="路径" d="M10.7651 32.0042L10.7651 10.8103L12.6382 10.8103L12.6382 8L23.8794 8L25.7531 12.3103L36.9863 12.3103L36.9863 32.0042L10.7651 32.0042Z" fill-rule="nonzero" stroke="rgb(0,0,0)" stroke-opacity="0" stroke-width="1" />
			<path id="路径备份-31" d="M38.8596 34.1395L8.8916 34.1395L8.8916 12.9456L10.7653 12.9456L10.7653 10.1353L22.0065 10.1353L23.8796 14.4456L38.8596 14.4456L38.8596 34.1395Z" fill="rgb(91,178,101)" fill-rule="nonzero" />
			<path id="路径备份-31" d="M8.8916 34.1395L8.8916 12.9456L10.7653 12.9456L10.7653 10.1353L22.0065 10.1353L23.8796 14.4456L38.8596 14.4456L38.8596 34.1395L8.8916 34.1395Z" fill-rule="nonzero" stroke="rgb(0,0,0)" stroke-opacity="0" stroke-width="1" />
			<path id="C" d="M18.7532 27.4927Q21.2705 27.4927 22.4446 25.165L23.957 26.0469Q23.3059 27.5337 21.9421 28.3745Q20.5784 29.2153 18.7942 29.2153Q16.8408 29.2153 15.2412 28.2104Q13.6467 27.2004 12.7239 25.3958Q11.801 23.5859 11.801 21.2788Q11.801 18.9666 12.7239 17.1619Q13.6467 15.3572 15.2412 14.3625Q16.8408 13.3628 18.7942 13.3628Q20.5784 13.3628 21.9421 14.2036Q23.3059 15.0393 23.957 16.5312L22.4446 17.4131Q21.2705 15.0803 18.7532 15.0803Q17.2817 15.0803 16.1436 15.8596Q15.0105 16.6389 14.3901 18.0437Q13.7749 19.4485 13.7749 21.2788Q13.7749 23.104 14.3901 24.5242Q15.0105 25.9392 16.1436 26.7185Q17.2817 27.4927 18.7532 27.4927Z" fill="rgb(255,255,255)" fill-rule="nonzero" />
			<path id="C" d="M18.7532 26.9927Q19.8674 26.9927 20.668 26.4878Q21.4736 25.9799 21.9982 24.9399L22.2374 24.4655L24.5938 25.8393L24.415 26.2474Q23.7013 27.8773 22.2045 28.8001Q20.7201 29.7153 18.7942 29.7153Q16.6968 29.7153 14.9752 28.6338Q13.2638 27.5497 12.2787 25.6234Q11.301 23.7061 11.301 21.2788Q11.301 18.8461 12.2787 16.9342Q13.2646 15.0062 14.9766 13.9383Q16.6974 12.8628 18.7942 12.8628Q20.7201 12.8628 22.2045 13.778Q23.7013 14.6952 24.4153 16.3313L24.5933 16.7391L22.237 18.1129L21.998 17.6379Q21.4732 16.5953 20.6676 16.0862Q19.8671 15.5803 18.7532 15.5803Q17.4365 15.5803 16.426 16.2722Q15.4106 16.9706 14.8475 18.2457Q14.2749 19.5532 14.2749 21.2788Q14.2749 23.0004 14.8489 24.3254Q15.4112 25.608 16.4269 26.3065Q17.4357 26.9927 18.7532 26.9927ZM18.7532 27.9927Q17.1278 27.9927 15.8602 27.1305Q14.6098 26.2704 13.9313 24.7229Q13.2749 23.2076 13.2749 21.2788Q13.2749 19.3438 13.9328 17.8417Q14.6104 16.3073 15.8611 15.4471Q17.127 14.5803 18.7532 14.5803Q20.1566 14.5803 21.2018 15.2408Q22.2418 15.8981 22.8912 17.1883L22.4446 17.4131L22.1927 16.9811L23.7052 16.0993L23.957 16.5312L23.4988 16.7312Q22.9106 15.3835 21.6797 14.6292Q20.4366 13.8628 18.7942 13.8628Q16.9842 13.8628 15.5058 14.7868Q14.0289 15.7081 13.169 17.3895Q12.301 19.087 12.301 21.2788Q12.301 23.4658 13.169 25.1681Q14.0297 26.8512 15.5072 27.7871Q16.9848 28.7153 18.7942 28.7153Q20.4366 28.7153 21.6797 27.9489Q22.9106 27.1901 23.499 25.8463L23.957 26.0469L23.7052 26.4788L22.1927 25.597L22.4446 25.165L22.891 25.3902Q22.2415 26.6778 21.2014 27.3337Q20.1563 27.9927 18.7532 27.9927Z" fill="rgb(0,0,0)" fill-opacity="0" fill-rule="nonzero" />
			<path id="" />
			<path id="路径备份-32" d="M38.8594 34.1395L29.8861 34.1395L23.8794 14.4456L38.8594 14.4456L38.8594 34.1395Z" fill="rgb(119,218,130)" fill-rule="nonzero" />
			<path id="路径备份-32" d="M29.8861 34.1395L23.8794 14.4456L38.8594 14.4456L38.8594 34.1395L29.8861 34.1395Z" fill-rule="nonzero" stroke="rgb(0,0,0)" stroke-opacity="0" stroke-width="1" />
			<path id="路径备份-29" d="M7.01758 32.0442L8.89141 26.4646L8.89141 36.7692L7.01758 36.7692L7.01758 32.0442Z" fill="rgb(71,77,85)" fill-rule="nonzero" />
			<path id="路径备份-29" d="M8.89141 26.4646L8.89141 36.7692L7.01758 36.7692L7.01758 32.0442L8.89141 26.4646Z" fill-rule="nonzero" stroke="rgb(0,0,0)" stroke-opacity="0" stroke-width="1" />
			<path id="路径备份-30" d="M0 5.57961L1.87383 0L1.87383 10.3046L0 10.3046L0 5.57961Z" fill="rgb(71,77,85)" fill-rule="nonzero" transform="matrix(-1,0,0,1,40.7334,26.022)" />
			<path id="路径备份-30" d="M1.87383 0L1.87383 10.3046L0 10.3046L0 5.57961L1.87383 0Z" fill-rule="nonzero" stroke="rgb(0,0,0)" stroke-opacity="0" stroke-width="1" transform="matrix(-1,0,0,1,40.7334,26.022)" />
			<path id="路径" d="M7 31.9846L40.7148 31.9846L40.7148 39.6346L7 39.6346L7 31.9846Z" fill="rgb(101,109,120)" fill-rule="nonzero" />
			<path id="路径" d="M40.7148 31.9846L40.7148 39.6346L7 39.6346L7 31.9846L40.7148 31.9846Z" fill-rule="nonzero" stroke="rgb(0,0,0)" stroke-opacity="0" stroke-width="1" />
			<rect id="矩形" width="14.250000" height="1.500000" x="16.750000" y="35.734619" rx="0.750000" fill="rgb(216,216,216)" />
			<rect id="矩形" width="14.250000" height="1.500000" x="16.750000" y="35.734619" rx="0.750000" stroke="rgb(0,0,0)" stroke-opacity="0" stroke-width="1" />
		</g>
	</g>
</svg>
