<svg viewBox="0 0 48 48" xmlns="http://www.w3.org/2000/svg" xmlns:xlink="http://www.w3.org/1999/xlink" width="48.000000" height="48.000000" fill="none">
	<rect id="语言图标/css#48" width="48.000000" height="48.000000" x="0.000000" y="0.000000" />
	<g id="模型/css#48">
		<g id="编组-2">
			<rect id="矩形" width="40.000000" height="40.000000" x="4.000000" y="4.000000" opacity="0" fill="rgb(216,216,216)" />
			<rect id="矩形" width="40.000000" height="40.000000" x="4.000000" y="4.000000" opacity="0" stroke="rgb(0,0,0)" stroke-opacity="0" stroke-width="1" />
			<g id="编组">
				<path id="路径" d="M12.4167 37.3571L10 7L39 7L36.5833 37.3571L24.5 41L12.4167 37.3571Z" fill="rgb(17,114,184)" fill-rule="nonzero" />
				<path id="路径" d="M10 7L39 7L36.5833 37.3571L24.5 41L12.4167 37.3571L10 7Z" fill-rule="nonzero" stroke="rgb(0,0,0)" stroke-opacity="0" stroke-width="1" />
				<path id="路径" d="M36.5833 9.42847L24.5 9.42847L24.5 39.1785L34.1667 36.1428L36.5833 9.42847Z" fill="rgb(51,170,221)" fill-rule="nonzero" />
				<path id="路径" d="M24.5 9.42847L24.5 39.1785L34.1667 36.1428L36.5833 9.42847L24.5 9.42847Z" fill-rule="nonzero" stroke="rgb(0,0,0)" stroke-opacity="0" stroke-width="1" />
				<path id="路径" d="M28.7292 24.607L16.6458 24.607L16.0417 20.357L25.7083 17.3213L16.0417 17.3213L15.4375 13.6785L34.1667 13.6785L33.5625 17.9285L25.7083 20.9642L32.9583 20.9642L31.75 32.4999L24.5 34.9285L17.25 32.4999L16.6458 26.4285L20.2708 26.4285L20.875 29.4642L24.5 30.6785L28.125 29.4642L28.7292 24.607Z" fill="rgb(255,255,255)" fill-rule="nonzero" />
				<path id="路径" d="M16.6458 24.607L16.0417 20.357L25.7083 17.3213L16.0417 17.3213L15.4375 13.6785L34.1667 13.6785L33.5625 17.9285L25.7083 20.9642L32.9583 20.9642L31.75 32.4999L24.5 34.9285L17.25 32.4999L16.6458 26.4285L20.2708 26.4285L20.875 29.4642L24.5 30.6785L28.125 29.4642L28.7292 24.607L16.6458 24.607Z" fill-rule="nonzero" stroke="rgb(0,0,0)" stroke-opacity="0" stroke-width="1" />
			</g>
		</g>
	</g>
</svg>
