<svg viewBox="0 0 48 48" xmlns="http://www.w3.org/2000/svg" xmlns:xlink="http://www.w3.org/1999/xlink" width="48.000000" height="48.000000" fill="none">
	<rect id="语言图标/Microcode" width="48.000000" height="48.000000" x="0.000000" y="0.000000" />
	<g id="模型/Microcode">
		<g id="编组">
			<path id="路径" d="M36.9863 32.0042L10.7651 32.0042L10.7651 10.8103L12.6382 10.8103L12.6382 8L23.8794 8L25.7531 12.3103L36.9863 12.3103L36.9863 32.0042Z" fill="rgb(62,62,218)" fill-rule="nonzero" />
			<path id="路径" d="M10.7651 32.0042L10.7651 10.8103L12.6382 10.8103L12.6382 8L23.8794 8L25.7531 12.3103L36.9863 12.3103L36.9863 32.0042L10.7651 32.0042Z" fill-rule="nonzero" stroke="rgb(0,0,0)" stroke-opacity="0" stroke-width="1" />
			<path id="路径备份-31" d="M38.8596 34.1395L8.8916 34.1395L8.8916 12.9456L10.7653 12.9456L10.7653 10.1353L22.0065 10.1353L23.8796 14.4456L38.8596 14.4456L38.8596 34.1395Z" fill="rgb(128,128,255)" fill-rule="nonzero" />
			<path id="路径备份-31" d="M8.8916 34.1395L8.8916 12.9456L10.7653 12.9456L10.7653 10.1353L22.0065 10.1353L23.8796 14.4456L38.8596 14.4456L38.8596 34.1395L8.8916 34.1395Z" fill-rule="nonzero" stroke="rgb(0,0,0)" stroke-opacity="0" stroke-width="1" />
			<path id="M" d="M22.8958 16.1088L24.155 16.1088L24.155 28.7346L22.6515 28.7346L22.6515 19.1073L18.6675 25.475L17.7536 25.475L13.7359 19.0736L13.7359 28.7346L12.2493 28.7346L12.2493 16.1088L13.5969 16.1088L18.2548 23.6093L22.8958 16.1088Z" fill="rgb(255,255,255)" fill-rule="nonzero" />
			<path id="M" d="M22.8958 15.6088L24.655 15.6088L24.655 29.2346L22.1515 29.2346L22.1515 19.1073L22.6515 19.1073L23.0754 19.3725L18.9444 25.975L17.4771 25.975L13.3124 19.3394L13.7359 19.0736L14.2359 19.0736L14.2359 29.2346L11.7493 29.2346L11.7493 15.6088L13.875 15.6088L18.6795 23.3455L18.2548 23.6093L17.8296 23.3462L22.6172 15.6088L22.8958 15.6088ZM22.8958 16.6088L22.8958 16.1088L23.3209 16.3719L18.2555 24.5583L13.1722 16.3725L13.5969 16.1088L13.5969 16.6088L12.2493 16.6088L12.2493 16.1088L12.7493 16.1088L12.7493 28.7346L12.2493 28.7346L12.2493 28.2346L13.7359 28.2346L13.7359 28.7346L13.2359 28.7346L13.2359 17.3364L18.1771 25.2092L17.7536 25.475L17.7536 24.975L18.6675 24.975L18.6675 25.475L18.2436 25.2098L23.1515 17.3655L23.1515 28.7346L22.6515 28.7346L22.6515 28.2346L24.155 28.2346L24.155 28.7346L23.655 28.7346L23.655 16.1088L24.155 16.1088L24.155 16.6088L22.8958 16.6088Z" fill="rgb(0,0,0)" fill-opacity="0" fill-rule="nonzero" />
			<path id="" />
			<path id="路径备份-32" d="M38.8594 34.1395L29.8861 34.1395L23.8794 14.4456L38.8594 14.4456L38.8594 34.1395Z" fill="rgb(155,173,247)" fill-rule="nonzero" />
			<path id="路径备份-32" d="M29.8861 34.1395L23.8794 14.4456L38.8594 14.4456L38.8594 34.1395L29.8861 34.1395Z" fill-rule="nonzero" stroke="rgb(0,0,0)" stroke-opacity="0" stroke-width="1" />
			<path id="路径备份-29" d="M7.01758 32.0442L8.89141 26.4646L8.89141 36.7692L7.01758 36.7692L7.01758 32.0442Z" fill="rgb(71,77,85)" fill-rule="nonzero" />
			<path id="路径备份-29" d="M8.89141 26.4646L8.89141 36.7692L7.01758 36.7692L7.01758 32.0442L8.89141 26.4646Z" fill-rule="nonzero" stroke="rgb(0,0,0)" stroke-opacity="0" stroke-width="1" />
			<path id="路径备份-30" d="M0 5.57961L1.87383 0L1.87383 10.3046L0 10.3046L0 5.57961Z" fill="rgb(71,77,85)" fill-rule="nonzero" transform="matrix(-1,0,0,1,40.7334,26.022)" />
			<path id="路径备份-30" d="M1.87383 0L1.87383 10.3046L0 10.3046L0 5.57961L1.87383 0Z" fill-rule="nonzero" stroke="rgb(0,0,0)" stroke-opacity="0" stroke-width="1" transform="matrix(-1,0,0,1,40.7334,26.022)" />
			<path id="路径" d="M7 31.9846L40.7148 31.9846L40.7148 39.6346L7 39.6346L7 31.9846Z" fill="rgb(101,109,120)" fill-rule="nonzero" />
			<path id="路径" d="M40.7148 31.9846L40.7148 39.6346L7 39.6346L7 31.9846L40.7148 31.9846Z" fill-rule="nonzero" stroke="rgb(0,0,0)" stroke-opacity="0" stroke-width="1" />
			<rect id="矩形" width="14.250000" height="1.500000" x="16.750000" y="35.734619" rx="0.750000" fill="rgb(216,216,216)" />
			<rect id="矩形" width="14.250000" height="1.500000" x="16.750000" y="35.734619" rx="0.750000" stroke="rgb(0,0,0)" stroke-opacity="0" stroke-width="1" />
		</g>
	</g>
</svg>
