<svg viewBox="0 0 48 48" xmlns="http://www.w3.org/2000/svg" xmlns:xlink="http://www.w3.org/1999/xlink" width="48.000000" height="48.000000" fill="none">
	<rect id="语言图标/php 48" width="48.000000" height="48.000000" x="0.000000" y="0.000000" />
	<g id="模型/php-48">
		<g id="分组-3">
			<rect id="矩形" width="40.000000" height="40.000000" x="4.000000" y="4.000000" fill="rgb(0,0,0)" fill-opacity="0" />
			<rect id="矩形" width="40.000000" height="40.000000" x="4.000000" y="4.000000" stroke="rgb(0,0,0)" stroke-opacity="0" stroke-width="1" />
			<g id="分组-2">
				<ellipse id="椭圆形" rx="17.666664" ry="7.666666" cx="24.0001602" cy="23.999918" fill="rgb(119,123,179)" />
				<ellipse id="椭圆形" rx="17.666664" ry="7.666666" cx="24.0001602" cy="23.999918" stroke="rgb(64,67,133)" stroke-width="0.666666687" />
				<g id="分组">
					<path id="路径" d="M24.8444 17.75L24.5009 19.4643L26.198 19.4643C26.8193 19.4643 27.3818 19.7161 27.789 20.1233C28.2017 20.5361 28.4549 21.1085 28.4478 21.74L27.538 26.25L25.4745 26.25L26.2627 22.1965L24.0572 21.6786L23.1412 26.25L21.0283 26.25L22.7315 17.75L24.8444 17.75Z" fill="rgb(0,0,0)" fill-rule="evenodd" />
					<path id="路径" d="M24.5009 19.4643L26.198 19.4643C26.8193 19.4643 27.3818 19.7161 27.789 20.1233C28.2017 20.5361 28.4549 21.1085 28.4478 21.74L27.538 26.25L25.4745 26.25L26.2627 22.1965L24.0572 21.6786L23.1412 26.25L21.0283 26.25L22.7315 17.75L24.8444 17.75L24.5009 19.4643Z" fill-rule="evenodd" stroke="rgb(255,255,255)" stroke-width="0.5" />
					<path id="形状" d="M19.1914 19.75C19.9582 19.75 20.6525 20.0608 21.155 20.5634C21.6576 21.0659 21.9684 21.7602 21.9684 22.527C21.7723 23.7068 21.2885 24.6035 20.6309 25.2259C19.9828 25.8395 19.1645 26.1892 18.2776 26.2394L18.0544 26.2457L16.3072 26.2457L15.8126 28.9167L13.6992 28.9167L15.3967 19.75L19.1914 19.75ZM19.3251 21.8852L17.1477 21.8852L16.7109 24.1105L18.6449 24.1105L18.7984 24.1028C19.1021 24.0719 19.3836 23.9487 19.6149 23.7368C19.8747 23.4987 20.0699 23.1518 20.1717 22.7064C20.165 22.4827 20.0716 22.2809 19.924 22.1333C19.7707 21.98 19.559 21.8852 19.3251 21.8852Z" fill="rgb(0,0,0)" fill-rule="evenodd" />
					<path id="形状" d="M21.155 20.5634C21.6576 21.0659 21.9684 21.7602 21.9684 22.527C21.7723 23.7068 21.2885 24.6035 20.6309 25.2259C19.9828 25.8395 19.1645 26.1892 18.2776 26.2394L18.0544 26.2457L16.3072 26.2457L15.8126 28.9167L13.6992 28.9167L15.3967 19.75L19.1914 19.75C19.9582 19.75 20.6525 20.0608 21.155 20.5634ZM17.1477 21.8852L16.7109 24.1105L18.6449 24.1105L18.7984 24.1028C19.1021 24.0719 19.3836 23.9487 19.6149 23.7368C19.8747 23.4987 20.0699 23.1518 20.1717 22.7064C20.165 22.4827 20.0716 22.2809 19.924 22.1333C19.7707 21.98 19.559 21.8852 19.3251 21.8852L17.1477 21.8852Z" fill-rule="evenodd" stroke="rgb(255,255,255)" stroke-width="0.5" />
					<path id="形状" d="M32.7862 19.75C33.5585 19.75 34.2577 20.063 34.7638 20.5691C35.2699 21.0752 35.5829 21.7744 35.5829 22.5467C35.3978 23.7144 34.921 24.6073 34.2682 25.2283C33.6261 25.8391 32.8123 26.1891 31.9292 26.2394L31.707 26.2457L29.6307 26.2457L29.1317 28.9167L26.8228 28.9167L28.8242 19.75L32.7862 19.75ZM32.6885 21.8852L30.4785 21.8852L30.0379 24.1105L32.0023 24.1105L32.1561 24.1028C32.4602 24.0719 32.7423 23.9487 32.9742 23.7365C33.2346 23.4982 33.4305 23.1508 33.5333 22.7044C33.5266 22.4813 33.4334 22.28 33.2862 22.1327C33.1332 21.9798 32.9219 21.8852 32.6885 21.8852Z" fill="rgb(0,0,0)" fill-rule="evenodd" />
					<path id="形状" d="M34.7638 20.5691C35.2699 21.0752 35.5829 21.7744 35.5829 22.5467C35.3978 23.7144 34.921 24.6073 34.2682 25.2283C33.6261 25.8391 32.8123 26.1891 31.9292 26.2394L31.707 26.2457L29.6307 26.2457L29.1317 28.9167L26.8228 28.9167L28.8242 19.75L32.7862 19.75C33.5585 19.75 34.2577 20.063 34.7638 20.5691ZM30.4785 21.8852L30.0379 24.1105L32.0023 24.1105L32.1561 24.1028C32.4602 24.0719 32.7423 23.9487 32.9742 23.7365C33.2346 23.4982 33.4305 23.1508 33.5333 22.7044C33.5266 22.4813 33.4334 22.28 33.2862 22.1327C33.1332 21.9798 32.9219 21.8852 32.6885 21.8852L30.4785 21.8852Z" fill-rule="evenodd" stroke="rgb(255,255,255)" stroke-width="0.5" />
				</g>
			</g>
		</g>
	</g>
</svg>
