<svg viewBox="0 0 48 48" xmlns="http://www.w3.org/2000/svg" xmlns:xlink="http://www.w3.org/1999/xlink" width="48.000000" height="48.000000" fill="none">
	<rect id="语言图标/Resource" width="48.000000" height="48.000000" x="0.000000" y="0.000000" />
	<g id="模型/Resource">
		<g id="编组">
			<path id="路径" d="M36.9863 32.0042L10.7651 32.0042L10.7651 10.8103L12.6382 10.8103L12.6382 8L23.8794 8L25.7531 12.3103L36.9863 12.3103L36.9863 32.0042Z" fill="rgb(11,112,162)" fill-rule="nonzero" />
			<path id="路径" d="M10.7651 32.0042L10.7651 10.8103L12.6382 10.8103L12.6382 8L23.8794 8L25.7531 12.3103L36.9863 12.3103L36.9863 32.0042L10.7651 32.0042Z" fill-rule="nonzero" stroke="rgb(0,0,0)" stroke-opacity="0" stroke-width="1" />
			<path id="路径备份-31" d="M38.8596 34.1395L8.8916 34.1395L8.8916 12.9456L10.7653 12.9456L10.7653 10.1353L22.0065 10.1353L23.8796 14.4456L38.8596 14.4456L38.8596 34.1395Z" fill="rgb(41,168,234)" fill-rule="nonzero" />
			<path id="路径备份-31" d="M8.8916 34.1395L8.8916 12.9456L10.7653 12.9456L10.7653 10.1353L22.0065 10.1353L23.8796 14.4456L38.8596 14.4456L38.8596 34.1395L8.8916 34.1395Z" fill-rule="nonzero" stroke="rgb(0,0,0)" stroke-opacity="0" stroke-width="1" />
			<path id="R" d="M24.2339 28.2346L21.9421 28.2346L17.4919 21.9336L17.3022 21.9336L14.4465 21.9336L14.4465 28.2346L12.5752 28.2346L12.5752 12.864L17.3022 12.864Q18.8762 12.864 20.1016 13.4331Q21.332 13.9971 22.0139 15.0378Q22.7009 16.0735 22.7009 17.4219Q22.7009 18.9292 21.8396 20.0366Q20.9783 21.1389 19.4658 21.6208L24.2339 28.2346ZM14.4465 14.4995L14.4465 20.2981L17.0715 20.2981Q18.8557 20.2981 19.7888 19.5137Q20.7271 18.7241 20.7271 17.4219Q20.7271 16.1196 19.7888 15.3096Q18.8557 14.4995 17.0715 14.4995L14.4465 14.4995Z" fill="rgb(255,255,255)" fill-rule="nonzero" />
			<path id="R" d="M24.2339 28.7346L21.6831 28.7346L17.0835 22.222L17.4919 21.9336L17.4919 22.4336L17.3022 22.4336L14.4465 22.4336L14.4465 21.9336L14.9465 21.9336L14.9465 28.7346L12.0752 28.7346L12.0752 12.364L17.3022 12.364Q18.9867 12.364 20.3122 12.9796Q21.6713 13.6026 22.4321 14.7638Q23.2009 15.9227 23.2009 17.4219Q23.2009 19.1008 22.2343 20.3436Q21.2772 21.5684 19.6176 22.0972L19.4658 21.6208L19.8714 21.3284L25.2107 28.7346L24.2339 28.7346ZM24.2339 27.7346L24.2339 28.2346L23.8283 28.527L18.6569 21.3538L19.314 21.1445Q20.6794 20.7094 21.4449 19.7297Q22.2009 18.7576 22.2009 17.4219Q22.2009 16.2242 21.5957 15.3119Q20.9927 14.3916 19.891 13.8866Q18.7658 13.364 17.3022 13.364L12.5752 13.364L12.5752 12.864L13.0752 12.864L13.0752 28.2346L12.5752 28.2346L12.5752 27.7346L14.4465 27.7346L14.4465 28.2346L13.9465 28.2346L13.9465 21.4336L17.3022 21.4336L17.7509 21.4336L22.3505 27.9462L21.9421 28.2346L21.9421 27.7346L24.2339 27.7346ZM14.9465 14.4995L14.9465 20.2981L14.4465 20.2981L14.4465 19.7981L17.0715 19.7981Q18.6735 19.7981 19.4671 19.1309Q20.2271 18.4914 20.2271 17.4219Q20.2271 16.3485 19.4621 15.688Q18.669 14.9995 17.0715 14.9995L14.4465 14.9995L14.4465 14.4995L14.9465 14.4995ZM13.9465 13.9995L17.0715 13.9995Q19.0425 13.9995 20.1156 14.9311Q21.227 15.8907 21.2271 17.4219Q21.2271 18.9568 20.1106 19.8964Q19.038 20.7981 17.0715 20.7981L13.9465 20.7981L13.9465 14.4995L13.9465 13.9995Z" fill="rgb(0,0,0)" fill-opacity="0" fill-rule="nonzero" />
			<path id="" />
			<path id="路径备份-32" d="M38.8594 34.1395L29.8861 34.1395L23.8794 14.4456L38.8594 14.4456L38.8594 34.1395Z" fill="rgb(41,196,234)" fill-rule="nonzero" />
			<path id="路径备份-32" d="M29.8861 34.1395L23.8794 14.4456L38.8594 14.4456L38.8594 34.1395L29.8861 34.1395Z" fill-rule="nonzero" stroke="rgb(0,0,0)" stroke-opacity="0" stroke-width="1" />
			<path id="路径备份-29" d="M7.01758 32.0442L8.89141 26.4646L8.89141 36.7692L7.01758 36.7692L7.01758 32.0442Z" fill="rgb(71,77,85)" fill-rule="nonzero" />
			<path id="路径备份-29" d="M8.89141 26.4646L8.89141 36.7692L7.01758 36.7692L7.01758 32.0442L8.89141 26.4646Z" fill-rule="nonzero" stroke="rgb(0,0,0)" stroke-opacity="0" stroke-width="1" />
			<path id="路径备份-30" d="M0 5.57961L1.87383 0L1.87383 10.3046L0 10.3046L0 5.57961Z" fill="rgb(71,77,85)" fill-rule="nonzero" transform="matrix(-1,0,0,1,40.7334,26.022)" />
			<path id="路径备份-30" d="M1.87383 0L1.87383 10.3046L0 10.3046L0 5.57961L1.87383 0Z" fill-rule="nonzero" stroke="rgb(0,0,0)" stroke-opacity="0" stroke-width="1" transform="matrix(-1,0,0,1,40.7334,26.022)" />
			<path id="路径" d="M7 31.9846L40.7148 31.9846L40.7148 39.6346L7 39.6346L7 31.9846Z" fill="rgb(101,109,120)" fill-rule="nonzero" />
			<path id="路径" d="M40.7148 31.9846L40.7148 39.6346L7 39.6346L7 31.9846L40.7148 31.9846Z" fill-rule="nonzero" stroke="rgb(0,0,0)" stroke-opacity="0" stroke-width="1" />
			<rect id="矩形" width="14.250000" height="1.500000" x="16.750000" y="35.734619" rx="0.750000" fill="rgb(216,216,216)" />
			<rect id="矩形" width="14.250000" height="1.500000" x="16.750000" y="35.734619" rx="0.750000" stroke="rgb(0,0,0)" stroke-opacity="0" stroke-width="1" />
		</g>
	</g>
</svg>
