<svg viewBox="0 0 48 48" xmlns="http://www.w3.org/2000/svg" xmlns:xlink="http://www.w3.org/1999/xlink" width="48.000000" height="48.000000" fill="none">
	<rect id="语言图标/TypeScrip48" width="48.000000" height="48.000000" x="0.000000" y="0.000000" />
	<g id="模型/TypeScrip48">
		<g id="编组">
			<path id="路径" d="M8 24L8 40L40 40L40 8L8 8L8 24Z" fill="rgb(0,122,204)" fill-rule="nonzero" />
			<path id="路径" d="M8 40L40 40L40 8L8 8L8 24L8 40Z" fill-rule="nonzero" stroke="rgb(0,0,0)" stroke-opacity="0" stroke-width="1" />
			<path id="形状" d="M16 25.7265L20.0864 25.7265L20.0864 37.0857L22.977 37.0857L22.977 25.7265L27.0634 25.7265L27.0634 24.4932C27.0634 23.8106 27.0485 23.2402 27.0286 23.2256C27.0136 23.2061 24.5268 23.1963 21.5118 23.2012L16.025 23.2158L16.0101 24.4687L16 25.7265ZM34.0466 23.3282C34.8337 23.5262 35.434 23.8773 35.985 24.4513C36.2703 24.7581 36.6934 25.3172 36.7279 25.4508C36.7376 25.4903 35.3897 26.4007 34.573 26.9102C34.5435 26.9301 34.4253 26.8014 34.2925 26.6034C33.894 26.0197 33.4758 25.7673 32.8362 25.7229C31.8967 25.6585 31.2914 26.1533 31.2964 26.9794C31.2964 27.2219 31.3308 27.3653 31.4292 27.5633C31.6359 27.9937 32.0196 28.251 33.225 28.7754C35.4438 29.7353 36.3932 30.3685 36.9837 31.2689C37.643 32.2733 37.7905 33.8762 37.3428 35.0686C36.8509 36.3648 35.6308 37.2455 33.9136 37.5374C33.3824 37.6314 32.123 37.6165 31.5522 37.5127C30.3076 37.29 29.1268 36.6716 28.3986 35.8602C28.1132 35.5435 27.5573 34.7173 27.5918 34.6579C27.6066 34.6382 27.7344 34.559 27.877 34.4749C28.0148 34.3958 28.5364 34.0938 29.0283 33.807L29.9188 33.2874L30.1058 33.5645C30.3665 33.9652 30.9372 34.5145 31.2816 34.6975C32.2704 35.222 33.6284 35.1477 34.2974 34.5441C34.5828 34.2819 34.7009 34.0098 34.7009 33.609C34.7009 33.2479 34.6566 33.0896 34.4696 32.8176C34.2287 32.4712 33.7366 32.1792 32.3393 31.5708C30.7404 30.8781 30.0516 30.4477 29.4219 29.7649C29.0579 29.3692 28.7134 28.7358 28.5708 28.2064C28.4527 27.7661 28.4231 26.6628 28.5167 26.2176C28.8463 24.664 30.0123 23.5806 31.6948 23.2589C32.2409 23.1551 33.5102 23.1945 34.0466 23.3282Z" fill="rgb(255,255,255)" fill-rule="nonzero" />
			<path id="形状" d="M20.0864 25.7265L20.0864 37.0857L22.977 37.0857L22.977 25.7265L27.0634 25.7265L27.0634 24.4932C27.0634 23.8106 27.0485 23.2402 27.0286 23.2256C27.0136 23.2061 24.5268 23.1963 21.5118 23.2012L16.025 23.2158L16.0101 24.4687L16 25.7265L20.0864 25.7265ZM35.985 24.4513C36.2703 24.7581 36.6934 25.3172 36.7279 25.4508C36.7376 25.4903 35.3897 26.4007 34.573 26.9102C34.5435 26.9301 34.4253 26.8014 34.2925 26.6034C33.894 26.0197 33.4758 25.7673 32.8362 25.7229C31.8967 25.6585 31.2914 26.1533 31.2964 26.9794C31.2964 27.2219 31.3308 27.3653 31.4292 27.5633C31.6359 27.9937 32.0196 28.251 33.225 28.7754C35.4438 29.7353 36.3932 30.3685 36.9837 31.2689C37.643 32.2733 37.7905 33.8762 37.3428 35.0686C36.8509 36.3648 35.6308 37.2455 33.9136 37.5374C33.3824 37.6314 32.123 37.6165 31.5522 37.5127C30.3076 37.29 29.1268 36.6716 28.3986 35.8602C28.1132 35.5435 27.5573 34.7173 27.5918 34.6579C27.6066 34.6382 27.7344 34.559 27.877 34.4749C28.0148 34.3958 28.5364 34.0938 29.0283 33.807L29.9188 33.2874L30.1058 33.5645C30.3665 33.9652 30.9372 34.5145 31.2816 34.6975C32.2704 35.222 33.6284 35.1477 34.2974 34.5441C34.5828 34.2819 34.7009 34.0098 34.7009 33.609C34.7009 33.2479 34.6566 33.0896 34.4696 32.8176C34.2287 32.4712 33.7366 32.1792 32.3393 31.5708C30.7404 30.8781 30.0516 30.4477 29.4219 29.7649C29.0579 29.3692 28.7134 28.7358 28.5708 28.2064C28.4527 27.7661 28.4231 26.6628 28.5167 26.2176C28.8463 24.664 30.0123 23.5806 31.6948 23.2589C32.2409 23.1551 33.5102 23.1945 34.0466 23.3282C34.8337 23.5262 35.434 23.8773 35.985 24.4513Z" fill-rule="nonzero" stroke="rgb(0,0,0)" stroke-opacity="0" stroke-width="1" />
		</g>
	</g>
</svg>
