<svg viewBox="0 0 48 48" xmlns="http://www.w3.org/2000/svg" xmlns:xlink="http://www.w3.org/1999/xlink" width="48.000000" height="48.000000" fill="none">
	<rect id="语言图标/YAML" width="48.000000" height="48.000000" x="0.000000" y="0.000000" />
	<g id="模型/YAML">
		<g id="编组-2">
			<g id="编组">
				<path id="路径" d="M39.2115 36.6779L11.9892 36.6779C11.6803 36.6802 11.3832 36.5591 11.1639 36.3415C10.9446 36.1238 10.8213 35.8277 10.8213 35.5187L10.8213 11.6158C10.8213 10.7234 11.5447 10 12.4371 10L33.4246 10L40.5375 16.5948L40.5375 35.3431C40.5375 36.0768 39.9453 36.673 39.2115 36.6779Z" fill="rgb(147,50,191)" fill-rule="nonzero" />
				<path id="路径" d="M11.9892 36.6779C11.6803 36.6802 11.3832 36.5591 11.1639 36.3415C10.9446 36.1238 10.8213 35.8277 10.8213 35.5187L10.8213 11.6158C10.8213 10.7234 11.5447 10 12.4371 10L33.4246 10L40.5375 16.5948L40.5375 35.3431C40.5375 36.0768 39.9453 36.673 39.2115 36.6779L11.9892 36.6779Z" fill-rule="nonzero" stroke="rgb(0,0,0)" stroke-opacity="0" stroke-width="1" />
				<path id="路径" d="M33.6971 17.1217L40.5378 16.5948L33.4249 10L32.9419 16.3665C32.9419 16.7836 33.28 17.1217 33.6971 17.1217Z" fill="rgb(101,19,154)" fill-rule="nonzero" />
				<path id="路径" d="M40.5378 16.5948L33.4249 10L32.9419 16.3665C32.9419 16.7836 33.28 17.1217 33.6971 17.1217L40.5378 16.5948Z" fill-rule="nonzero" stroke="rgb(0,0,0)" stroke-opacity="0" stroke-width="1" />
				<path id="路径" d="M34.1801 16.5949L40.5378 16.5949L33.4249 10L33.4249 15.8396C33.4225 16.0406 33.5013 16.2341 33.6435 16.3763C33.7856 16.5184 33.9791 16.5972 34.1801 16.5949Z" fill="rgb(207,106,238)" fill-rule="nonzero" />
				<path id="路径" d="M40.5378 16.5949L33.4249 10L33.4249 15.8396C33.4225 16.0406 33.5013 16.2341 33.6435 16.3763C33.7856 16.5184 33.9791 16.5972 34.1801 16.5949L40.5378 16.5949Z" fill-rule="nonzero" stroke="rgb(0,0,0)" stroke-opacity="0" stroke-width="1" />
			</g>
			<g id="编组">
				<path id="形状" d="M33.7225 32.2681C33.7744 32.2119 33.8036 32.1356 33.8035 32.056L33.8035 30.556C33.8035 30.3903 33.9271 30.256 34.0796 30.256C34.2321 30.256 34.3557 30.1217 34.3557 29.956C34.3557 29.7903 34.2321 29.656 34.0796 29.656C33.6229 29.656 33.2512 30.0598 33.2512 30.556L33.2512 31.9318L33.0559 32.1439C32.9482 32.2611 32.9482 32.451 33.0559 32.5681L33.2512 32.7802L33.2512 34.156C33.2512 34.6522 33.6229 35.056 34.0796 35.056C34.2321 35.056 34.3557 34.9217 34.3557 34.756C34.3557 34.5903 34.2321 34.456 34.0796 34.456C33.9271 34.456 33.8035 34.3217 33.8035 34.156L33.8035 32.656C33.8036 32.5764 33.7744 32.5001 33.7225 32.4439L33.7225 32.2681ZM39.0291 32.2411L38.774 31.9318L38.774 30.556C38.774 30.0598 38.4023 29.656 37.9455 29.656C37.8469 29.656 37.7557 29.7132 37.7064 29.806C37.657 29.8988 37.657 30.0132 37.7064 30.106C37.7557 30.1988 37.8469 30.256 37.9455 30.256C38.0981 30.256 38.2217 30.3903 38.2217 30.556L38.2217 32.056C38.2216 32.1356 38.2508 32.2119 38.3026 32.2681L38.3026 32.4439C38.2507 32.5001 38.2216 32.5764 38.2217 32.656L38.2217 34.156C38.2217 34.3217 38.0981 34.456 37.9455 34.456C37.8469 34.456 37.7557 34.5132 37.7064 34.606C37.657 34.6988 37.657 34.8132 37.7064 34.906C37.7557 34.9988 37.8469 35.056 37.9455 35.056C38.4023 35.056 38.774 34.6522 38.774 34.156L38.774 32.7802L38.9692 32.5681C39.0482 32.4823 39.0718 32.3532 39.0291 32.2411ZM37.0335 30.3412C36.9673 30.2711 36.8733 30.2416 36.7829 30.2624C36.6925 30.2833 36.6176 30.3518 36.5834 30.445L34.9276 34.045C34.9005 34.119 34.9015 34.2016 34.9305 34.2747C34.9595 34.3478 35.0141 34.4054 35.0823 34.4347C35.224 34.4956 35.3844 34.421 35.4418 34.2676L37.0973 30.6676C37.1391 30.5549 37.1137 30.4259 37.0335 30.3412Z" fill="rgb(255,255,255)" fill-rule="nonzero" />
				<path id="形状" d="M33.8035 32.056L33.8035 30.556C33.8035 30.3903 33.9271 30.256 34.0796 30.256C34.2321 30.256 34.3557 30.1217 34.3557 29.956C34.3557 29.7903 34.2321 29.656 34.0796 29.656C33.6229 29.656 33.2512 30.0598 33.2512 30.556L33.2512 31.9318L33.0559 32.1439C32.9482 32.2611 32.9482 32.451 33.0559 32.5681L33.2512 32.7802L33.2512 34.156C33.2512 34.6522 33.6229 35.056 34.0796 35.056C34.2321 35.056 34.3557 34.9217 34.3557 34.756C34.3557 34.5903 34.2321 34.456 34.0796 34.456C33.9271 34.456 33.8035 34.3217 33.8035 34.156L33.8035 32.656C33.8036 32.5764 33.7744 32.5001 33.7225 32.4439L33.7225 32.2681C33.7744 32.2119 33.8036 32.1356 33.8035 32.056ZM38.774 31.9318L38.774 30.556C38.774 30.0598 38.4023 29.656 37.9455 29.656C37.8469 29.656 37.7557 29.7132 37.7064 29.806C37.657 29.8988 37.657 30.0132 37.7064 30.106C37.7557 30.1988 37.8469 30.256 37.9455 30.256C38.0981 30.256 38.2217 30.3903 38.2217 30.556L38.2217 32.056C38.2216 32.1356 38.2508 32.2119 38.3026 32.2681L38.3026 32.4439C38.2507 32.5001 38.2216 32.5764 38.2217 32.656L38.2217 34.156C38.2217 34.3217 38.0981 34.456 37.9455 34.456C37.8469 34.456 37.7557 34.5132 37.7064 34.606C37.657 34.6988 37.657 34.8132 37.7064 34.906C37.7557 34.9988 37.8469 35.056 37.9455 35.056C38.4023 35.056 38.774 34.6522 38.774 34.156L38.774 32.7802L38.9692 32.5681C39.0482 32.4823 39.0718 32.3532 39.0291 32.2411L38.774 31.9318ZM36.7829 30.2624C36.6925 30.2833 36.6176 30.3518 36.5834 30.445L34.9276 34.045C34.9005 34.119 34.9015 34.2016 34.9305 34.2747C34.9595 34.3478 35.0141 34.4054 35.0823 34.4347C35.224 34.4956 35.3844 34.421 35.4418 34.2676L37.0973 30.6676C37.1391 30.5549 37.1137 30.4259 37.0335 30.3412C36.9673 30.2711 36.8733 30.2416 36.7829 30.2624Z" fill-rule="nonzero" stroke="rgb(0,0,0)" stroke-opacity="0" stroke-width="1" />
				<rect id="矩形" width="30.375000" height="13.068000" x="8.000000" y="17.425049" rx="0.891000" fill="rgb(101,19,154)" />
				<rect id="矩形" width="30.375000" height="13.068000" x="8.000000" y="17.425049" rx="0.891000" stroke="rgb(0,0,0)" stroke-opacity="0" stroke-width="1" />
				<path id="YAML" d="M12.7166 23.2771L14.5392 20.1302L15.4552 20.1302L13.0834 24.1261L13.0834 27.0562L12.2436 27.0562L12.2436 24.0984L9.76808 20.1302L10.7694 20.1302L12.7166 23.2771ZM17.9608 20.1394L20.7386 27.0562L19.8042 27.0562L19.0383 25.072L16.1751 25.072L15.4461 27.0562L14.597 27.0562L17.2525 20.1394L17.9608 20.1394ZM18.7452 24.3153L17.5732 21.263L16.4589 24.3153L18.7452 24.3153ZM27.4587 20.1394L28.1485 20.1394L28.1485 27.0562L27.3249 27.0562L27.3249 21.7821L25.1423 25.2704L24.6417 25.2704L22.4407 21.7636L22.4407 27.0562L21.6263 27.0562L21.6263 20.1394L22.3645 20.1394L24.9162 24.2484L27.4587 20.1394ZM29.7911 20.1394L30.6332 20.1394L30.6332 26.2994L34.0454 26.2994L34.0454 27.0562L29.7911 27.0562L29.7911 20.1394Z" fill="rgb(255,255,255)" fill-rule="nonzero" />
				<path id="YAML" d="M12.2839 23.0265L14.251 19.6302L16.3334 19.6302L13.5134 24.3813L13.0834 24.1261L13.5834 24.1261L13.5834 27.5562L11.7436 27.5562L11.7436 24.0984L12.2436 24.0984L11.8194 24.3631L8.86684 19.6302L11.048 19.6302L13.1418 23.014L12.7166 23.2771L12.2839 23.0265ZM12.7308 24.2502L10.3442 20.3932L10.7694 20.1302L10.7694 20.6302L9.76808 20.6302L9.76808 20.1302L10.1923 19.8655L12.7436 23.9552L12.7436 27.0562L12.2436 27.0562L12.2436 26.5562L13.0834 26.5562L13.0834 27.0562L12.5834 27.0562L12.5834 23.9889L15.0252 19.875L15.4552 20.1302L15.4552 20.6302L14.5392 20.6302L14.5392 20.1302L14.9719 20.3807L13.1493 23.5277L12.7308 24.2502ZM18.4248 19.953L21.4782 27.5562L19.4613 27.5562L18.5718 25.2521L19.0383 25.072L19.0383 25.572L16.1751 25.572L16.1751 25.072L16.6444 25.2445L15.795 27.5562L13.8695 27.5562L16.9089 19.6394L18.2988 19.6394L18.4248 19.953ZM17.4968 20.3257L17.9608 20.1394L17.9608 20.6394L17.2525 20.6394L17.2525 20.1394L17.7193 20.3186L15.0638 27.2354L14.597 27.0562L14.597 26.5562L15.4461 26.5562L15.4461 27.0562L14.9767 26.8837L15.8261 24.572L19.3812 24.572L20.2707 26.8761L19.8042 27.0562L19.8042 26.5562L20.7386 26.5562L20.7386 27.0562L20.2746 27.2425L17.4968 20.3257ZM18.2785 24.4945L17.1065 21.4422L17.5732 21.263L18.0429 21.4344L16.9286 24.4868L16.4589 24.3153L16.4589 23.8153L18.7452 23.8153L18.7452 24.3153L18.2785 24.4945ZM19.4728 24.8153L15.7441 24.8153L17.5614 19.8373L19.212 24.1361L19.4728 24.8153ZM27.4587 19.6394L28.6485 19.6394L28.6485 27.5562L26.8249 27.5562L26.8249 21.7821L27.3249 21.7821L27.7487 22.0473L25.4193 25.7704L24.3652 25.7704L22.0172 22.0294L22.4407 21.7636L22.9407 21.7636L22.9407 27.5562L21.1263 27.5562L21.1263 19.6394L22.6426 19.6394L25.341 23.9846L24.9162 24.2484L24.491 23.9853L27.1801 19.6394L27.4587 19.6394ZM27.4587 20.6394L27.4587 20.1394L27.8839 20.4025L24.917 25.1974L21.9398 20.4032L22.3645 20.1394L22.3645 20.6394L21.6263 20.6394L21.6263 20.1394L22.1263 20.1394L22.1263 27.0562L21.6263 27.0562L21.6263 26.5562L22.4407 26.5562L22.4407 27.0562L21.9407 27.0562L21.9407 20.0264L25.0652 25.0046L24.6417 25.2704L24.6417 24.7704L25.1423 24.7704L25.1423 25.2704L24.7185 25.0052L27.8249 20.0402L27.8249 27.0562L27.3249 27.0562L27.3249 26.5562L28.1485 26.5562L28.1485 27.0562L27.6485 27.0562L27.6485 20.1394L28.1485 20.1394L28.1485 20.6394L27.4587 20.6394ZM29.7911 19.6394L31.1332 19.6394L31.1332 26.2994L30.6332 26.2994L30.6332 25.7994L34.5454 25.7994L34.5454 27.5562L29.2911 27.5562L29.2911 19.6394L29.7911 19.6394ZM29.7911 20.6394L29.7911 20.1394L30.2911 20.1394L30.2911 27.0562L29.7911 27.0562L29.7911 26.5562L34.0454 26.5562L34.0454 27.0562L33.5454 27.0562L33.5454 26.2994L34.0454 26.2994L34.0454 26.7994L30.1332 26.7994L30.1332 20.1394L30.6332 20.1394L30.6332 20.6394L29.7911 20.6394Z" fill="rgb(0,0,0)" fill-opacity="0" fill-rule="nonzero" />
				<path id="" />
			</g>
		</g>
	</g>
</svg>
