<svg viewBox="0 0 88 88" xmlns="http://www.w3.org/2000/svg" xmlns:xlink="http://www.w3.org/1999/xlink" width="88.000000" height="88.000000" fill="none" customFrame="#000000">
	<defs>
		<filter id="pixso_custom_mask_type_outline">
			<feColorMatrix type="matrix" values="0 0 0 0 1 0 0 0 0 1 0 0 0 0 1 0 0 0 1 0 " />
		</filter>
	</defs>
	<mask id="mask_48" width="88.000000" height="88.000000" x="0.000000" y="0.000000" maskUnits="userSpaceOnUse">
		<g filter="url(#pixso_custom_mask_type_outline)">
			<circle id="蒙版" cx="44" cy="44" r="44" fill="rgb(255,255,255)" />
		</g>
	</mask>
	<rect id="人物头像/女人3" width="88.000000" height="88.000000" x="0.000000" y="0.000000" />
	<circle id="蒙版" cx="44" cy="44" r="44" fill="rgb(242,239,244)" />
	<g mask="url(#mask_48)">
		<g id="编组 4">
			<g id="编组 3">
				<path id="形状结合" d="M53.6951 29.6569C55.5398 31.5176 58.9838 35.0121 59.1705 35.3528C59.317 35.6201 59.2957 37.0133 59.2507 38.1547C59.329 38.1048 59.4001 38.0341 59.4714 37.9538C59.7841 37.6015 60.0151 37.1954 60.2778 36.8104C60.4557 36.8412 60.6158 36.782 60.7751 36.7231C60.8503 36.6953 60.9252 36.6676 61.0017 36.6494C62.5635 36.2797 63.9555 37.736 64.0167 39.0714C64.0982 40.8483 63.4314 42.3636 62.3825 43.7408C61.6477 44.7057 60.7179 45.3987 59.5174 45.6745C59.0206 45.7886 58.5215 45.8447 58.0058 45.7398C57.5976 45.6569 57.2499 45.5071 56.9604 45.2022C56.6966 44.9245 56.6485 44.9409 56.5579 45.2992C56.2265 46.6086 55.7895 47.8842 55.2028 49.0976C54.3302 50.9022 53.2406 52.5572 51.6536 53.8323C51.6355 53.8469 51.6255 53.8715 51.6117 53.8914C51.5939 54.1154 51.4194 54.2204 51.265 54.3343C50.1198 55.1789 48.8489 55.7715 47.5034 56.2185C46.3528 56.6009 45.1681 56.8043 43.9621 56.8047C41.6947 56.8055 39.5686 56.2383 37.6047 55.0895C37.1113 54.8009 36.6292 54.4969 36.185 54.1357C36.0334 54.0124 35.8791 53.8908 35.8568 53.6752C33.2338 51.3885 32.0197 48.3443 31.2579 45.0529C31.2001 45.0675 31.1556 45.0646 31.1386 45.0849C30.2577 46.1321 29.1361 45.9855 28.0235 45.6579C26.1157 45.0961 25.0239 43.7017 24.3563 41.9051C24.0399 41.0538 23.8536 40.1802 23.8968 39.2709C23.9333 38.5018 24.1336 37.8029 24.7302 37.2426C25.4276 36.5875 26.2258 36.5185 27.0982 36.7071C27.6486 36.8261 28.1542 37.066 28.6669 37.286C28.8179 37.3508 28.9309 37.458 28.939 37.6391C29.3541 37.0887 29.278 36.1202 29.278 36.1202L30.9869 31.6782L35.7199 30.9371C35.7596 30.8832 35.8003 30.8307 35.8436 30.7812C36.8283 29.655 37.9755 28.7289 39.2561 27.9794C41.0291 26.9416 42.9459 26.2752 44.9754 25.9416C45.1148 25.8776 45.1621 25.935 45.1129 26.0642C45.0665 26.1857 44.9463 26.2317 44.8317 26.2768C43.7391 26.7071 42.8342 27.3855 42.0108 28.1801C42.8336 27.3948 43.742 26.7194 44.8353 26.2784C44.93 26.2402 45.0212 26.191 45.1125 26.1419C45.3401 26.0193 45.5682 25.8965 45.8512 25.9425C47.7225 25.4874 48.9221 24.226 49.8465 22.6263C50.4121 21.6475 50.7949 20.6108 50.9106 19.4812C50.912 19.4671 50.944 19.4562 50.9678 19.4395C51.0495 19.5253 51.0309 19.6224 51.0127 19.7171C51.0089 19.7367 51.0051 19.7562 51.0023 19.7756C50.794 21.1962 50.2621 22.4888 49.3962 23.6288C49.1479 23.9557 49.2667 24.1064 49.5145 24.2988C50.6746 25.1993 51.6687 26.2578 52.4677 27.4901C52.9209 28.1892 53.3243 28.9146 53.6951 29.6569ZM28.7772 40.1191C28.6996 40.1048 28.6278 40.0539 28.5594 40.0052C28.545 39.995 28.5307 39.9849 28.5166 39.9752C28.2761 39.8108 28.043 39.6356 27.8035 39.4698C27.4812 39.2468 27.1367 39.0646 26.742 39.0151C26.3285 38.9633 26.0936 39.2388 26.1907 39.6442C26.24 39.8498 26.3536 40.022 26.4776 40.1881C26.7612 40.5678 27.0718 40.9254 27.3856 41.28C27.9504 41.9185 28.3951 42.6469 28.9174 43.3168C29.1775 43.6504 29.4508 43.9752 29.8833 44.1831C29.8731 43.9829 29.7779 43.8557 29.7103 43.7226C29.3808 43.0748 29.1723 42.3938 29.1689 41.664C29.1688 41.6427 29.1678 41.6196 29.1667 41.5957C29.161 41.4703 29.1542 41.3207 29.2783 41.2789L28.7772 40.1191ZM58.6048 40.8987C58.7463 40.988 58.7077 41.1245 58.671 41.2543C58.664 41.2791 58.657 41.3037 58.6514 41.3277C58.4548 42.1682 58.1743 42.9835 57.9015 43.8011C57.8521 43.949 57.7819 44.0924 57.7729 44.2899C57.9708 44.2003 58.0789 44.0449 58.2049 43.909C58.8825 43.1778 59.4012 42.3185 60.0812 41.5883C60.3049 41.3482 60.5226 41.1057 60.7786 40.8985C61.0536 40.676 61.294 40.4191 61.4918 40.1246C61.7175 39.7885 61.7517 39.388 61.5756 39.1724C61.4051 38.9638 61.0005 38.9269 60.6249 39.1211C60.0837 39.4008 59.6009 39.7684 59.1373 40.1631C59.1199 40.1779 59.1023 40.1939 59.0844 40.2101C59.0163 40.2722 58.9442 40.3377 58.8663 40.3524L58.6048 40.8987Z" fill="rgb(255,202,186)" fill-rule="evenodd" />
				<g id="编组 12备份 4">
					<g id="编组 12备份">
						<path id="Fill-29" d="M8.98507 1.80556C8.98507 1.80556 6.74002 0.851007 4.57688 1.07836C2.41375 1.30572 0.144879 2.5525 0.00373501 1.2096C-0.0256807 0.929723 0.106828 0.702435 0.827321 0.459424C1.54781 0.216414 6.38132 -0.969243 8.98507 1.80556Z" fill="rgb(56,34,26)" fill-rule="evenodd" transform="matrix(0.99863,0.0523359,-0.0523359,0.99863,46.7679,33.7812)" />
						<path id="Fill-30" d="M0 1.72975C0 1.72975 1.98141 0.752225 4.24944 1.0307C6.51746 1.30918 8.57645 2.09554 8.93989 1.47136C9.2471 0.943736 8.68179 0.569339 8.08842 0.445016C7.49506 0.320693 2.60375 -1.04505 0 1.72975Z" fill="rgb(56,34,26)" fill-rule="evenodd" transform="matrix(0.99863,-0.0523359,0.0523359,0.99863,32.2766,34.3257)" />
						<path id="路径-233" d="M45.7393 43.3536C46.187 45.547 42.6756 44.4102 42.5496 44.5169C42.4236 44.6236 42.7603 45.3707 43.68 45.547C44.5995 45.7234 45.7302 45.5185 46.176 44.7908C46.6218 44.0632 45.4299 41.8379 45.7393 43.3536Z" fill="rgb(237,154,129)" fill-rule="evenodd" />
						<path id="Fill-246" d="M45.2301 50.8843C45.161 50.9498 44.9797 51.1156 44.4996 51.1559C44.0195 51.1962 43.8137 51.1559 43.5074 51.0536C43.2011 50.9512 43.0604 50.6254 43.3098 50.5415C43.5593 50.4576 43.7685 50.7102 44.373 50.7102C44.9774 50.7102 44.9801 50.5642 45.153 50.5642C45.3259 50.5642 45.3464 50.6379 45.3464 50.7004C45.3464 50.7629 45.2992 50.8189 45.2301 50.8843Z" fill="rgb(237,154,129)" fill-rule="evenodd" />
						<path id="路径-2" d="M40.4753 48.209C41.4536 48.7754 42.7459 49.0587 44.352 49.0587C45.9582 49.0587 47.1077 48.7754 47.8005 48.209" fill-rule="evenodd" stroke="rgb(237,154,129)" stroke-linecap="round" stroke-width="0.5" />
						<path id="路径-101备份-2" d="M35.3973 38.766C35.9908 38.2965 36.7021 38.0591 37.5312 38.0538C38.3604 38.0485 39.0136 38.3127 39.491 38.8465" fill-rule="evenodd" stroke="rgb(56,34,26)" stroke-linecap="round" stroke-width="0.532000005" />
						<path id="路径-101备份-4" d="M48.2729 38.766C48.7654 38.2911 49.4592 38.0537 50.3545 38.0537C51.2497 38.0537 51.8995 38.3179 52.3037 38.8464" fill-rule="evenodd" stroke="rgb(56,34,26)" stroke-linecap="round" stroke-width="0.532000005" />
						<path id="椭圆形备份-35" d="M37.5388 40.066C38.1464 40.066 38.6388 39.5735 38.6388 38.966C38.6388 38.3585 38.1464 37.866 37.5388 37.866C36.9313 37.866 36.4388 38.3585 36.4388 38.966C36.4388 39.5735 36.9313 40.066 37.5388 40.066Z" fill="rgb(56,34,26)" fill-rule="evenodd" />
						<path id="椭圆形备份-36" d="M50.3677 40.066C50.9752 40.066 51.4677 39.5735 51.4677 38.966C51.4677 38.3585 50.9752 37.866 50.3677 37.866C49.7602 37.866 49.2677 38.3585 49.2677 38.966C49.2677 39.5735 49.7602 40.066 50.3677 40.066Z" fill="rgb(56,34,26)" fill-rule="evenodd" />
					</g>
				</g>
				<path id="路径" d="M52.804 52.9262L52.791 53.2924C52.7697 53.8402 52.7334 54.6109 52.6916 55.4182L52.639 56.4002C52.6244 56.6642 52.6048 56.9472 52.5897 57.2294L52.5852 57.3185L52.5793 57.4447C52.5473 58.1855 52.5638 58.8867 52.804 59.1882C53.1583 59.633 53.6278 59.8343 54.3168 59.9623L55.3609 60.1534L55.7849 60.2324C56.781 60.4206 57.7049 60.6193 57.9978 60.8075L58.9151 61.2474C58.9151 61.2474 58.7084 63.4161 58.6908 63.6684C58.5806 65.2466 55.8378 66.0228 55.2956 67.5147C54.7864 68.9158 54.0137 70.0359 53.0078 70.8986L53.2712 70.8985C52.3629 71.6982 51.2661 72.2658 50.0115 72.6343C48.0708 73.2044 46.1277 73.4969 44.1862 73.505L44.0673 73.505L43.977 73.5045L43.8866 73.505L43.7677 73.505C41.8263 73.4969 39.8831 73.2044 37.9425 72.6343C36.6878 72.2658 35.591 71.6982 34.6827 70.8985L34.9462 70.8986C33.9403 70.0359 33.1675 68.9158 32.6583 67.5147C32.1161 66.0228 31.2216 61.3394 30.6034 60.9382C30.5378 60.8385 30.4106 60.7951 30.18 60.8274L29.961 60.8582L29.9562 60.8075C30.2583 60.6133 31.2323 60.408 32.2641 60.2145L32.593 60.1534L33.6371 59.9623C34.3262 59.8343 34.7956 59.633 35.15 59.1882C35.3811 58.8981 35.4051 58.2379 35.3781 57.5283L35.3728 57.4027L35.3688 57.3185L35.3642 57.2294C35.3491 56.9472 35.3295 56.6642 35.3149 56.4002L35.2623 55.4182L35.2181 54.5352C35.1863 53.8758 35.1615 53.2978 35.15 52.9262C35.3731 53.1352 35.5615 53.3792 35.8025 53.5695L35.8207 52.7239C35.9698 53.003 36.7687 53.4522 37.6074 53.9392L37.822 54.0643C38.6988 54.5777 49.2288 54.5943 50.0915 54.088L50.8849 53.6264C51.5037 53.2638 52.0168 52.942 52.1332 52.7239L52.1514 51.8507C52.3924 51.6604 52.5809 53.1352 52.804 52.9262Z" fill="rgb(255,202,186)" fill-rule="evenodd" />
				<path id="形状结合" d="M52.8038 52.927L52.7908 53.2931C52.7695 53.841 52.7332 54.6117 52.6914 55.419L52.6388 56.4009C52.6242 56.665 52.6046 56.948 52.5896 57.2302L52.585 57.3193L52.5791 57.4454C52.5716 57.6176 52.5668 57.7877 52.5668 57.951C52.5668 58.4906 52.6194 58.9576 52.8038 59.189C53.1581 59.6338 53.6276 59.8351 54.3166 59.9631L55.3607 60.1542L55.7847 60.2332C56.7808 60.4214 57.7047 60.62 57.9976 60.8083L58.1535 60.8831C57.6887 62.0337 56.1153 65.5476 56.0768 65.6961C56.0585 65.7669 56.0397 65.8376 56.0205 65.9082L55.9914 66.0141L55.9296 66.2315L55.9128 66.289L55.9123 66.2903L55.8814 66.3947L55.8564 66.4776L55.5705 66.4067C55.1517 66.3021 54.6774 66.1809 54.192 66.0554L53.725 65.9341L52.7069 65.6671C51.8127 65.4311 48.5953 64.7905 44.7352 62.5145C40.8751 60.2384 35.7805 53.8172 35.4198 53.2035C35.5558 53.3482 35.6928 53.492 35.8546 53.6104C38.4984 55.5445 41.4098 56.6154 44.7352 56.444C46.6658 56.3445 48.4285 55.7564 50.0961 54.8188C50.951 54.3382 51.7102 53.7311 52.4514 53.0984L52.6253 52.9491C52.6444 52.9303 52.6636 52.911 52.683 52.8914C52.7224 52.9467 52.7625 52.9656 52.8038 52.927Z" fill="rgb(237,154,129)" fill-rule="evenodd" />
				<g id="编组 16">
					<path id="形状结合" d="M28.9196 36.1658C28.9667 36.2709 28.9803 36.4152 29.085 36.4849L31.3727 45.4536C31.3851 45.5044 31.3923 45.5307 31.3923 45.5307L31.3727 45.4536C31.1749 44.6475 29.6516 37.6727 34.5887 31.8903C34.704 31.8634 34.8198 31.8377 34.936 31.8128C35.133 31.745 35.3131 31.6574 35.446 31.4834C35.9927 30.7668 36.6117 30.1193 37.3046 29.5415C38.2404 28.7615 39.2437 28.0929 40.342 27.5555C41.8147 26.8351 43.3727 26.3954 44.9626 26.043C45.0446 26.0304 45.1261 26.0062 45.2076 25.982C45.2563 25.9675 45.3049 25.953 45.3537 25.9411C45.2163 25.9971 45.08 26.0548 44.9491 26.1231C43.6119 26.8206 42.5758 27.8712 41.6189 29.0083C41.0424 29.6935 40.4858 30.3892 39.7607 30.938C39.4531 31.1708 39.0688 31.2925 38.8199 31.6033C38.8707 31.6232 38.9215 31.6431 38.9723 31.6629C39.0406 31.6415 39.1188 31.6348 39.176 31.5966C40.1618 30.9381 40.9619 30.084 41.7426 29.2013C42.5283 28.313 43.3446 27.4555 44.3531 26.7978C44.8325 26.4853 45.3409 26.2373 45.8539 25.9987C45.8563 26.0002 45.8586 26.0017 45.861 26.0033C46.0066 26.0436 46.1421 25.9982 46.2764 25.9532C46.2803 25.9519 46.2841 25.9506 46.2879 25.9494C47.4754 25.5529 48.42 24.8574 49.1625 23.8269C50.0504 22.5946 50.7044 21.2826 50.9109 19.9669C50.7259 21.2024 50.143 22.4727 49.3019 23.6339C49.0616 23.9656 49.0774 24.0882 49.3947 24.3657C49.6689 24.6055 49.9585 24.8266 50.2275 25.0738C51.5143 26.2562 52.5242 27.6448 53.3067 29.2009C53.8085 30.1988 54.3375 31.1856 54.6748 32.2574C54.793 32.3901 54.9385 32.4764 55.0914 32.5504C55.577 33.5476 55.9721 34.3745 55.9996 34.4801C56.0119 34.5276 56.0735 34.7329 56.1671 35.0449L56.1671 35.045C56.6333 36.5991 57.8936 40.8008 57.8183 41.3389C57.7691 41.6895 57.6249 42.1173 57.5177 42.4354C57.4274 42.7035 57.3633 42.8936 57.4046 42.8936C57.4775 42.8936 58.8788 39.859 59.3279 38.2352C59.7635 37.8453 60.1851 37.4352 60.2773 36.8108C60.7971 35.9215 61.1277 34.9592 61.3868 33.9673C62.0324 31.4972 62.096 28.9995 61.7597 26.4811C61.4287 24.0019 60.7096 21.6618 59.2607 19.5908C59.0914 19.3489 59.1409 19.219 59.3387 19.0494C59.8041 18.6507 60.1979 18.1875 60.4729 17.636C61.4895 15.5984 61.435 13.5222 60.7317 11.4046C60.1973 9.79589 59.0994 8.82946 57.5254 8.28045C55.9285 7.72347 54.3159 7.22897 52.6801 6.80577C50.6286 6.2751 48.5671 5.83072 46.4244 5.94959C44.9976 6.02872 43.721 6.4989 42.6937 7.48163C41.2537 8.85912 40.8305 10.5926 41.1737 12.5239C41.2289 12.8342 41.164 12.9154 40.868 12.9709C39.9491 13.1432 39.0303 13.3245 38.1231 13.549C35.5451 14.1866 33.3549 15.4795 31.6604 17.5407C29.8744 19.7135 28.8877 22.2744 28.2948 24.9809C27.7727 27.3643 27.5907 29.7876 27.9063 32.226C28.0816 33.5807 28.3573 34.9112 28.9196 36.1658Z" fill="rgb(146,75,25)" fill-rule="evenodd" />
					<g id="编组 9备份 7">
						<path id="椭圆形备份 2 (边框)" d="M45.3959 38.5C45.3959 34.798 48.3922 31.7969 52.0884 31.7969C55.7846 31.7969 58.781 34.798 58.781 38.5C58.781 42.202 55.7846 45.2031 52.0884 45.2031C48.3922 45.2031 45.3959 42.202 45.3959 38.5ZM46.1927 38.5C46.1927 35.2381 48.8323 32.5938 52.0884 32.5938C55.3445 32.5938 57.9841 35.2381 57.9841 38.5C57.9841 41.7619 55.3445 44.4062 52.0884 44.4062C48.8323 44.4062 46.1927 41.7619 46.1927 38.5Z" fill="rgb(11,4,8)" fill-rule="evenodd" />
						<path id="矩形备份 2" d="M42.4705 37.6576C42.4705 37.6576 43.2261 37.4216 44.0327 37.4216C44.8394 37.4216 45.6156 37.6576 45.6156 37.6576L45.6156 39.3425C45.6156 39.3425 44.8254 38.6866 43.9914 38.7246C43.1573 38.7627 42.4705 39.3425 42.4705 39.3425L42.4705 37.6576Z" fill="rgb(11,4,8)" fill-rule="evenodd" />
						<path id="矩形备份 2" d="M44.0327 37.4216C43.2261 37.4216 42.4705 37.6576 42.4705 37.6576L42.4705 39.3425C42.4705 39.3425 42.664 39.1791 42.9705 39.0201C43.2412 38.8796 43.6001 38.7425 43.9914 38.7246C44.4081 38.7056 44.8139 38.8598 45.1156 39.0189C45.4178 39.1783 45.6156 39.3425 45.6156 39.3425L45.6156 37.6576C45.6156 37.6576 44.8394 37.4216 44.0327 37.4216ZM45.1156 38.0478Q45.0733 38.0388 45.0283 38.0298Q44.4872 37.9216 44.0327 37.9216Q43.5789 37.9216 43.0488 38.0295Q43.0085 38.0378 42.9705 38.0459L42.9705 38.4664Q43.4746 38.2477 43.9685 38.2252Q44.5187 38.2 45.1156 38.4636L45.1156 38.0478Z" fill="rgb(11,4,8)" fill-rule="evenodd" />
						<path id="椭圆形备份 3 (边框)" d="M29.3046 38.5C29.3046 34.798 32.3009 31.7969 35.9971 31.7969C39.6933 31.7969 42.6897 34.798 42.6897 38.5C42.6897 42.202 39.6933 45.2031 35.9971 45.2031C32.3009 45.2031 29.3046 42.202 29.3046 38.5ZM30.1014 38.5C30.1014 35.2381 32.741 32.5938 35.9971 32.5938C39.2532 32.5938 41.8928 35.2381 41.8928 38.5C41.8928 41.7619 39.2532 44.4062 35.9971 44.4062C32.741 44.4062 30.1014 41.7619 30.1014 38.5Z" fill="rgb(11,4,8)" fill-rule="evenodd" />
					</g>
					<path id="Fill 115备份" d="M38.561 20.1411C39.6696 19.0821 43.6293 17.7285 45.2115 17.8566C44.0476 18.0408 42.8954 18.2713 41.7781 18.6531C40.6535 19.0374 39.5826 19.5348 38.561 20.1411" fill="rgb(230,206,174)" fill-rule="evenodd" />
					<path id="Fill 123备份" d="M28.9403 39.809C29.0747 40.3276 29.2214 40.8424 29.4276 41.3381C29.1947 41.327 29.3052 41.5066 29.3028 41.5941C29.2804 42.433 29.5696 43.1861 29.9515 43.9149C30.0255 44.0559 30.2266 44.2395 30.1007 44.3562C29.9589 44.4877 29.7716 44.286 29.6227 44.2014C29.3344 44.0374 29.0987 43.7945 28.9118 43.5299C28.1198 42.4086 27.2697 41.3342 26.3838 40.2866C26.2434 40.1206 26.1246 39.9361 26.0607 39.7207C25.8992 39.177 26.228 38.7858 26.7867 38.877C27.2532 38.9532 27.6505 39.1887 28.028 39.4606C28.2545 39.6236 28.4844 39.7824 28.7053 39.9529C28.9246 40.1222 28.9268 39.9625 28.9403 39.809" fill="rgb(228,133,94)" fill-rule="evenodd" />
					<path id="Fill 123备份 2" d="M2.98401 0.968474C3.12141 1.49984 3.27119 2.02731 3.48187 2.53517C3.24395 2.52379 3.35686 2.7078 3.3544 2.79741C3.33149 3.65696 3.62695 4.42856 4.01719 5.17529C4.09271 5.31978 4.29817 5.50783 4.16958 5.62746C4.02472 5.76221 3.83337 5.55551 3.68128 5.46882C3.38664 5.30076 3.14588 5.05192 2.95498 4.78078C2.14577 3.63196 1.27723 2.53113 0.372122 1.45784C0.228683 1.28768 0.107335 1.09866 0.0420345 0.877967C-0.122972 0.320926 0.213011 -0.0798809 0.783779 0.0135458C1.26044 0.0916259 1.66635 0.332903 2.05196 0.611462C2.28339 0.778552 2.51825 0.941225 2.74393 1.11588C2.96797 1.28933 2.97028 1.12576 2.98401 0.968474" fill="rgb(228,133,94)" fill-rule="evenodd" transform="matrix(-1,0,0,1,61.7891,38.7578)" />
				</g>
			</g>
			<g id="编组 6备份 4">
				<path id="Fill 4033备份" d="M56.3734 60.5673C56.496 60.2546 56.6458 60.1593 56.9993 60.2252C59.8848 60.7633 62.7604 61.3403 65.5488 62.2783C67.9345 63.0809 70.0219 64.3986 71.9308 66.0213C74.1726 67.9274 75.8467 70.3003 77.4643 72.7222C77.6531 73.0049 77.6088 73.2244 77.3999 73.4663C76.453 74.5629 75.4445 75.6011 74.3789 76.5798C72.9045 77.9339 71.3667 79.2131 69.6967 80.3239C68.4072 81.1815 67.0928 81.999 65.7298 82.735C65.2844 82.9755 65.2808 82.9476 65.236 82.4394C65.0655 80.507 64.88 78.5758 64.6987 76.6442C64.6935 76.5891 64.688 76.5251 64.5916 76.5042C64.4914 76.6861 64.6064 76.8619 64.6188 77.0372C64.706 78.2745 64.7927 79.5118 64.8884 80.7484C64.9379 81.3882 64.9995 82.0273 65.067 82.6655C65.0971 82.9515 64.9911 83.1196 64.7317 83.252C62.4918 84.3961 60.1845 85.3756 57.8065 86.1972C55.6617 86.9381 53.4776 87.5047 51.2358 87.8519C49.954 88.0504 48.6691 88.2248 47.3775 88.3475C47.2753 88.3572 47.1723 88.3559 47.0893 88.4297L39.3731 88.4297C38.7705 88.3458 38.1682 88.2616 37.5655 88.1784C35.1446 87.8445 32.7862 87.2566 30.4611 86.5043C27.633 85.5892 24.895 84.4696 22.2715 83.0722C21.7303 82.7839 21.2028 82.4702 20.665 82.1755C20.4216 82.0421 20.329 81.86 20.3294 81.5736C20.3311 79.9798 20.451 78.3933 20.5854 76.807C20.5993 76.6422 20.639 76.469 20.4644 76.3086C20.395 77.0215 20.3099 77.7333 20.2599 78.4476C20.1896 79.452 20.1413 80.458 20.092 81.4637C20.0714 81.8836 19.8458 81.6413 19.7254 81.5674C18.4056 80.7572 17.1201 79.8978 15.8958 78.945C14.9034 78.1726 13.9409 77.3657 13.0477 76.4844C12.1959 75.6439 11.4023 74.7446 10.578 73.8762C10.3707 73.6578 10.4953 73.482 10.6129 73.29C11.3307 72.1181 12.1125 70.9911 12.9561 69.9065C13.9959 68.5695 15.0359 67.2346 16.2595 66.0533C18.2052 64.1747 20.4311 62.8167 23.0446 62.0365C25.7268 61.2358 28.4682 60.7823 31.2188 60.3445C31.6073 60.2826 31.9969 60.2274 32.3855 60.1663C32.6965 60.1176 32.8664 60.2455 32.9718 60.5467C33.1591 61.0821 33.3371 61.6259 33.6732 62.0956C33.982 62.5412 35.5766 64.5511 36.5766 65.1793C37.8793 65.9974 39.3032 66.5143 40.8007 66.8187C42.1615 67.0955 43.5408 67.2552 44.9326 67.1821C47.131 67.0665 49.2935 66.7737 51.2775 65.72C51.5077 65.5977 51.7896 65.5789 51.9736 65.3678C53.1494 64.7018 54.937 63.1405 55.3396 62.5412C55.7451 61.9151 56.1011 61.2614 56.3734 60.5673Z" fill="rgb(243,200,70)" fill-rule="evenodd" />
				<path id="形状结合" d="M20.8643 75.5703C20.8643 75.5703 20.5102 81.6755 20.5102 83.2519C20.5102 84.8284 19.5179 82.5777 19.5179 82.5777C19.5179 82.5777 20.2816 77.1984 20.2816 76.506C20.2816 75.8136 20.8643 75.5703 20.8643 75.5703ZM64.3812 75.5703C64.3812 75.5703 64.7353 81.6755 64.7353 83.2519C64.7353 84.8284 65.7276 82.5777 65.7276 82.5777C65.7276 82.5777 64.964 77.1984 64.964 76.506C64.964 75.8136 64.3812 75.5703 64.3812 75.5703Z" fill="rgb(224,168,16)" fill-rule="evenodd" />
				<path id="形状结合" d="M20.8643 75.5703C20.8643 75.5703 20.5102 81.6755 20.5102 83.2519C20.5102 84.8284 19.5179 82.5777 19.5179 82.5777C19.5179 82.5777 20.2816 77.1984 20.2816 76.506C20.2816 75.8136 20.8643 75.5703 20.8643 75.5703ZM64.7353 83.2519C64.7353 81.6755 64.3812 75.5703 64.3812 75.5703C64.3812 75.5703 64.964 75.8136 64.964 76.506C64.964 77.1984 65.7276 82.5777 65.7276 82.5777C65.7276 82.5777 64.7353 84.8284 64.7353 83.2519Z" fill="rgb(151,151,151)" fill-opacity="0" fill-rule="evenodd" />
			</g>
		</g>
	</g>
</svg>
