<svg viewBox="0 0 16 16" xmlns="http://www.w3.org/2000/svg" xmlns:xlink="http://www.w3.org/1999/xlink" width="16.000000" height="16.000000" fill="none">
	<rect id="2D 服务图标/Devops策略 " width="16.000000" height="16.000000" x="0.000000" y="0.000000" />
	<g id="资源库">
		<g id="服务图标">
			<g id="编组-87">
				<g id="icon-icon-vmp">
					<rect id="矩形" width="16.000000" height="16.000000" x="0.000000" y="0.000000" opacity="0" fill="rgb(216,216,216)" />
					<rect id="矩形" width="16.000000" height="16.000000" x="0.000000" y="0.000000" opacity="0" stroke="rgb(0,0,0)" stroke-opacity="0" stroke-width="1" />
					<g id="编组">
						<rect id="矩形" width="3.000000" height="1.200000" x="4.000000" y="4.000000" rx="0.600000" fill="rgb(171,229,251)" />
						<rect id="矩形" width="3.000000" height="1.200000" x="4.000000" y="4.000000" rx="0.600000" stroke="rgb(0,0,0)" stroke-opacity="0" stroke-width="1" />
						<rect id="矩形备份" width="6.000000" height="1.200000" x="4.000000" y="6.600098" rx="0.600000" fill="rgb(171,229,251)" />
						<rect id="矩形备份" width="6.000000" height="1.200000" x="4.000000" y="6.600098" rx="0.600000" stroke="rgb(0,0,0)" stroke-opacity="0" stroke-width="1" />
						<rect id="矩形备份-4" width="6.000000" height="1.200000" x="4.000000" y="9.200195" rx="0.600000" fill="rgb(171,229,251)" />
						<rect id="矩形备份-4" width="6.000000" height="1.200000" x="4.000000" y="9.200195" rx="0.600000" stroke="rgb(0,0,0)" stroke-opacity="0" stroke-width="1" />
					</g>
					<g id="编组">
						<path id="形状结合" d="M13 5.666L13 13.8333C13 14.4777 12.4777 15 11.8333 15L2.16667 15C1.52233 15 1 14.4777 1 13.8333L1 2.16667C1 1.52233 1.52233 1 2.16667 1L8.2 1L8.2 3.33333C8.2 4.622 9.27452 5.66667 10.6 5.66667L13 5.666Z" fill="rgb(255,231,186)" fill-rule="evenodd" />
						<path id="形状结合" d="M13 13.8333C13 14.4777 12.4777 15 11.8333 15L2.16667 15C1.52233 15 1 14.4777 1 13.8333L1 2.16667C1 1.52233 1.52233 1 2.16667 1L8.2 1L8.2 3.33333C8.2 4.622 9.27452 5.66667 10.6 5.66667L13 5.666L13 13.8333Z" fill-rule="evenodd" stroke="rgb(0,0,0)" stroke-opacity="0" stroke-width="1" />
						<path id="形状结合" d="M13.3073 9.03906L13.8489 10.06L14.8567 10.1066L16.1046 11.3392L15.4419 12.3047L15.9014 13.1542L15.407 14.8045L14.2049 14.7419L13.6582 15.5536L11.9261 15.9604L11.4023 14.9379L10.3983 14.8915L9.15039 13.6589L9.81317 12.6933L9.35466 11.844L9.84575 10.1952L11.0492 10.2579L11.5955 9.44666L13.3073 9.03906Z" fill="rgb(250,140,22)" fill-rule="nonzero" />
						<path id="形状结合" d="M13.8489 10.06L14.8567 10.1066L16.1046 11.3392L15.4419 12.3047L15.9014 13.1542L15.407 14.8045L14.2049 14.7419L13.6582 15.5536L11.9261 15.9604L11.4023 14.9379L10.3983 14.8915L9.15039 13.6589L9.81317 12.6933L9.35466 11.844L9.84575 10.1952L11.0492 10.2579L11.5955 9.44666L13.3073 9.03906L13.8489 10.06Z" fill-rule="nonzero" stroke="rgb(255,255,255)" stroke-width="0.800000012" />
						<path id="矩形" d="M9.3999 1L12.9999 4.5L10.5666 4.5C9.92224 4.5 9.3999 3.97767 9.3999 3.33333L9.3999 1Z" fill="rgb(255,192,105)" fill-rule="nonzero" />
						<path id="矩形" d="M12.9999 4.5L10.5666 4.5C9.92224 4.5 9.3999 3.97767 9.3999 3.33333L9.3999 1L12.9999 4.5Z" fill-rule="nonzero" stroke="rgb(0,0,0)" stroke-opacity="0" stroke-width="1" />
						<circle id="椭圆形" cx="12.6274414" cy="12.5" r="1" fill="rgb(255,255,255)" />
						<circle id="椭圆形" cx="12.6274414" cy="12.5" r="1" stroke="rgb(0,0,0)" stroke-opacity="0" stroke-width="1" />
						<path id="路径-58" d="M3.0791 4.24121L5.0791 6.24121L3.0791 8.24121" opacity="0" stroke="rgb(255,192,105)" stroke-linecap="round" stroke-linejoin="round" stroke-width="1" />
						<line id="路径-59" x1="0" x2="1.38289011" y1="0" y2="0" stroke="rgb(255,192,105)" stroke-linecap="round" stroke-linejoin="round" stroke-width="1" transform="matrix(0.999944,-0.0105926,0.0105926,0.999944,5.74463,8.51465)" />
					</g>
					<rect id="矩形" width="4.000000" height="1.600000" x="3.000000" y="3.943848" rx="0.800000" fill="rgb(255,192,105)" />
					<rect id="矩形" width="4.000000" height="1.600000" x="3.000000" y="3.943848" rx="0.800000" stroke="rgb(0,0,0)" stroke-opacity="0" stroke-width="1" />
					<rect id="矩形备份" width="6.000000" height="1.600000" x="3.000000" y="7.343750" rx="0.800000" fill="rgb(255,192,105)" />
					<rect id="矩形备份" width="6.000000" height="1.600000" x="3.000000" y="7.343750" rx="0.800000" stroke="rgb(0,0,0)" stroke-opacity="0" stroke-width="1" />
				</g>
			</g>
		</g>
	</g>
</svg>
