<svg viewBox="0 0 16 16" xmlns="http://www.w3.org/2000/svg" xmlns:xlink="http://www.w3.org/1999/xlink" width="16.000000" height="16.000000" fill="none">
	<rect id="2D 服务图标/分析报告 Report" width="16.000000" height="16.000000" x="0.000000" y="0.000000" />
	<g id="资源库">
		<g id="服务图标">
			<g id="icon-icon-report-2d">
				<rect id="矩形" width="16.000000" height="16.000000" x="0.000000" y="0.000000" opacity="0" fill="rgb(216,216,216)" />
				<rect id="矩形" width="16.000000" height="16.000000" x="0.000000" y="0.000000" opacity="0" stroke="rgb(0,0,0)" stroke-opacity="0" stroke-width="1" />
				<g id="编组-37">
					<path id="形状结合" d="M12.5 1.99984C13.6046 1.99984 14.5 2.89527 14.5 3.99984L14.5 12.9998C14.5 14.1044 13.6046 14.9998 12.5 14.9998L3.5 14.9998C2.39543 14.9998 1.5 14.1044 1.5 12.9998L1.5 3.99984C1.5 2.89527 2.39543 1.99984 3.5 1.99984C3.44443 2.1566 3.5 2.32404 3.5 2.49984C3.5 3.32827 4.17157 3.99984 5 3.99984L11 3.99984C11.8284 3.99984 12.5 3.32827 12.5 2.49984C12.5 2.32404 12.5556 2.1566 12.5 1.99984Z" fill="rgb(225,219,255)" fill-rule="evenodd" />
					<path id="形状结合" d="M14.5 3.99984L14.5 12.9998C14.5 14.1044 13.6046 14.9998 12.5 14.9998L3.5 14.9998C2.39543 14.9998 1.5 14.1044 1.5 12.9998L1.5 3.99984C1.5 2.89527 2.39543 1.99984 3.5 1.99984C3.44443 2.1566 3.5 2.32404 3.5 2.49984C3.5 3.32827 4.17157 3.99984 5 3.99984L11 3.99984C11.8284 3.99984 12.5 3.32827 12.5 2.49984C12.5 2.32404 12.5556 2.1566 12.5 1.99984C13.6046 1.99984 14.5 2.89527 14.5 3.99984Z" fill-rule="evenodd" stroke="rgb(0,0,0)" stroke-opacity="0" stroke-width="1" />
					<rect id="矩形" width="4.000000" height="1.000000" x="8.500000" y="6.000000" rx="0.500000" fill="rgb(81,79,198)" />
					<rect id="矩形" width="4.000000" height="1.000000" x="8.500000" y="6.000000" rx="0.500000" stroke="rgb(0,0,0)" stroke-opacity="0" stroke-width="1" />
					<rect id="矩形备份-40" width="4.000000" height="1.000000" x="8.500000" y="9.000000" rx="0.500000" fill="rgb(81,79,198)" />
					<rect id="矩形备份-40" width="4.000000" height="1.000000" x="8.500000" y="9.000000" rx="0.500000" stroke="rgb(0,0,0)" stroke-opacity="0" stroke-width="1" />
					<rect id="矩形备份-41" width="9.000000" height="1.000000" x="3.500000" y="12.000000" rx="0.500000" fill="rgb(81,79,198)" />
					<rect id="矩形备份-41" width="9.000000" height="1.000000" x="3.500000" y="12.000000" rx="0.500000" stroke="rgb(0,0,0)" stroke-opacity="0" stroke-width="1" />
					<rect id="矩形" width="7.000000" height="2.000000" x="4.500000" y="1.000000" rx="1.000000" fill="rgb(167,164,254)" />
					<rect id="矩形" width="7.000000" height="2.000000" x="4.500000" y="1.000000" rx="1.000000" stroke="rgb(0,0,0)" stroke-opacity="0" stroke-width="1" />
					<g id="icon-icon-wiki-2d">
						<path id="路径" d="M7.5 8C7.5 6.89543 6.60457 6 5.5 6C4.39543 6 3.5 6.89543 3.5 8C3.5 9.10457 4.39543 10 5.5 10L5.5 8L7.5 8Z" fill="rgb(167,164,254)" fill-rule="evenodd" />
						<path id="路径" d="M5.5 6C4.39543 6 3.5 6.89543 3.5 8C3.5 9.10457 4.39543 10 5.5 10L5.5 8L7.5 8C7.5 6.89543 6.60457 6 5.5 6Z" fill-rule="evenodd" stroke="rgb(0,0,0)" stroke-opacity="0" stroke-width="1" />
						<path id="路径" d="M6 10.5C7.10457 10.5 8 9.60457 8 8.5L6 8.5L6 10.5Z" fill="rgb(167,164,254)" fill-rule="evenodd" />
						<path id="路径" d="M8 8.5L6 8.5L6 10.5C7.10457 10.5 8 9.60457 8 8.5Z" fill-rule="evenodd" stroke="rgb(0,0,0)" stroke-opacity="0" stroke-width="1" />
					</g>
				</g>
			</g>
		</g>
	</g>
</svg>
