<svg viewBox="0 0 16 16" xmlns="http://www.w3.org/2000/svg" xmlns:xlink="http://www.w3.org/1999/xlink" width="16.000000" height="16.000000" fill="none">
	<rect id="2D 服务图标/插件管理 Plugin" width="16.000000" height="16.000000" x="0.000000" y="0.000000" />
	<g id="资源库">
		<g id="服务图标">
			<g id="icon-icon-work-item-2d">
				<rect id="矩形" width="16.000000" height="16.000000" x="0.000000" y="0.000000" opacity="0" fill="rgb(216,216,216)" />
				<rect id="矩形" width="16.000000" height="16.000000" x="0.000000" y="0.000000" opacity="0" stroke="rgb(0,0,0)" stroke-opacity="0" stroke-width="1" />
				<path id="矩形" d="M10.7745 1.5L13.5 4.25314L13.5 14L3 14.5L2.5 2L10.7745 1.5Z" fill="rgb(255,231,186)" fill-rule="evenodd" />
				<path id="矩形" d="M13.5 4.25314L13.5 14L3 14.5L2.5 2L10.7745 1.5L13.5 4.25314Z" fill-rule="evenodd" stroke="rgb(255,192,105)" stroke-width="1" />
				<rect id="矩形" width="4.000000" height="1.600000" x="5.000000" y="4.000000" rx="0.800000" fill="rgb(249,140,25)" />
				<rect id="矩形" width="4.000000" height="1.600000" x="5.000000" y="4.000000" rx="0.800000" stroke="rgb(0,0,0)" stroke-opacity="0" stroke-width="1" />
				<rect id="矩形备份" width="6.000000" height="1.600000" x="5.000000" y="7.399902" rx="0.800000" fill="rgb(249,140,25)" />
				<rect id="矩形备份" width="6.000000" height="1.600000" x="5.000000" y="7.399902" rx="0.800000" stroke="rgb(0,0,0)" stroke-opacity="0" stroke-width="1" />
				<path id="矩形" d="M4.83536 10.5L5.87292 11.5L10.2461 11.5L11.2513 10.5L14.5 10.5L14.5 14L2 14.5L1.5 10.5L4.83536 10.5Z" fill="rgb(255,192,105)" fill-rule="evenodd" />
				<path id="矩形" d="M5.87292 11.5L10.2461 11.5L11.2513 10.5L14.5 10.5L14.5 14L2 14.5L1.5 10.5L4.83536 10.5L5.87292 11.5Z" fill-rule="evenodd" stroke="rgb(255,192,105)" stroke-width="1" />
				<rect id="矩形" width="4.000000" height="2.000000" x="6.000000" y="12.000000" rx="1.000000" fill="rgb(255,231,186)" />
				<rect id="矩形" width="4.000000" height="2.000000" x="6.000000" y="12.000000" rx="1.000000" stroke="rgb(0,0,0)" stroke-opacity="0" stroke-width="1" />
			</g>
		</g>
	</g>
</svg>
