<svg viewBox="0 0 16 16" xmlns="http://www.w3.org/2000/svg" xmlns:xlink="http://www.w3.org/1999/xlink" width="16.000000" height="16.000000" fill="none">
	<rect id="2D 服务图标/流水线 CloudPipeline" width="16.000000" height="16.000000" x="0.000000" y="0.000000" />
	<g id="资源库">
		<g id="服务图标">
			<g id="icon-icon-cloud-pipeline-2d">
				<rect id="矩形" width="16.000000" height="16.000000" x="0.000000" y="0.000000" opacity="0" fill="rgb(216,216,216)" />
				<rect id="矩形" width="16.000000" height="16.000000" x="0.000000" y="0.000000" opacity="0" stroke="rgb(0,0,0)" stroke-opacity="0" stroke-width="1" />
				<g id="编组-6">
					<g id="编组">
						<path id="路径" d="M0.676391 0L0.676391 2.35309L9.50276 2.35206L9.68312 2.35886C10.0819 2.3989 10.4219 2.73868 10.4643 3.16826L10.4679 3.33734L10.4639 3.86941C10.4221 4.29494 10.0824 4.63494 9.65278 4.6773L9.5454 4.68057L3.34711 4.68239L3.11134 4.68778L2.92639 4.69917L2.68457 4.73185C1.34162 4.97159 0.290428 6.02278 0.0507069 7.36565L0.014977 7.64432C0.0124253 7.67754 0.010285 7.71236 0.00849462 7.74963L0.00146097 8.00933L0 8.61343C0.000865221 8.90868 0.00950164 9.02426 0.0506923 9.25522C0.290303 10.5979 1.34106 11.649 2.68357 11.8891L2.96299 11.9248C2.99626 11.9274 3.03112 11.9295 3.06842 11.9313L3.32822 11.9383L12.492 11.9399L12.492 9.58691L3.27398 9.5842L3.09857 9.57314C2.76313 9.51318 2.49321 9.27081 2.394 8.95117L2.35607 8.77825L2.35337 8.62511L2.35444 8.03811L2.36042 7.84275C2.42704 7.47004 2.72586 7.11443 3.09866 7.04779L3.35938 7.03482L9.60715 7.03213L9.8006 7.02479C11.3449 6.8726 12.6524 5.64223 12.8048 4.09614L12.8149 3.95647L12.8201 3.66982L12.8189 3.21573L12.8117 3.02301C12.6653 1.53783 11.5254 0.266997 10.067 0.0396255L9.82572 0.0109364L9.63704 0.00198305L9.33899 0L0.676391 0Z" fill="rgb(255,231,186)" fill-rule="nonzero" transform="matrix(1,0,0,-1,0.882324,13.8965)" />
						<path id="路径" d="M0.676391 2.35309L9.50276 2.35206L9.68312 2.35886C10.0819 2.3989 10.4219 2.73868 10.4643 3.16826L10.4679 3.33734L10.4639 3.86941C10.4221 4.29494 10.0824 4.63494 9.65278 4.6773L9.5454 4.68057L3.34711 4.68239L3.11134 4.68778L2.92639 4.69917L2.68457 4.73185C1.34162 4.97159 0.290428 6.02278 0.0507069 7.36565L0.014977 7.64432C0.0124253 7.67754 0.010285 7.71236 0.00849462 7.74963L0.00146097 8.00933L0 8.61343C0.000865221 8.90868 0.00950164 9.02426 0.0506923 9.25522C0.290303 10.5979 1.34106 11.649 2.68357 11.8891L2.96299 11.9248C2.99626 11.9274 3.03112 11.9295 3.06842 11.9313L3.32822 11.9383L12.492 11.9399L12.492 9.58691L3.27398 9.5842L3.09857 9.57314C2.76313 9.51318 2.49321 9.27081 2.394 8.95117L2.35607 8.77825L2.35337 8.62511L2.35444 8.03811L2.36042 7.84275C2.42704 7.47004 2.72586 7.11443 3.09866 7.04779L3.35938 7.03482L9.60715 7.03213L9.8006 7.02479C11.3449 6.8726 12.6524 5.64223 12.8048 4.09614L12.8149 3.95647L12.8201 3.66982L12.8189 3.21573L12.8117 3.02301C12.6653 1.53783 11.5254 0.266997 10.067 0.0396255L9.82572 0.0109364L9.63704 0.00198305L9.33899 0L0.676391 0L0.676391 2.35309Z" fill-rule="nonzero" stroke="rgb(0,0,0)" stroke-opacity="0" stroke-width="1" transform="matrix(1,0,0,-1,0.882324,13.8965)" />
						<path id="路径" d="M0 4.44444L3.55556 2.22177L0 0L0 4.44444Z" fill="rgb(255,192,105)" fill-rule="nonzero" transform="matrix(1,0,0,-1,12.439,5.44434)" />
						<path id="路径" d="M3.55556 2.22177L0 0L0 4.44444L3.55556 2.22177Z" fill-rule="nonzero" stroke="rgb(0,0,0)" stroke-opacity="0" stroke-width="1" transform="matrix(1,0,0,-1,12.439,5.44434)" />
						<path id="路径" d="M0 2.66667C0 4.13943 1.19391 5.33333 2.66667 5.33333C4.13943 5.33333 5.33333 4.13943 5.33333 2.66667C5.33333 1.19391 4.13943 0 2.66667 0C1.19391 0 0 1.19391 0 2.66667Z" fill="rgb(255,192,105)" fill-rule="nonzero" transform="matrix(1,0,0,-1,-0.000244141,15.3423)" />
						<path id="路径" d="M2.66667 5.33333C4.13943 5.33333 5.33333 4.13943 5.33333 2.66667C5.33333 1.19391 4.13943 0 2.66667 0C1.19391 0 0 1.19391 0 2.66667C0 4.13943 1.19391 5.33333 2.66667 5.33333Z" fill-rule="nonzero" stroke="rgb(0,0,0)" stroke-opacity="0" stroke-width="1" transform="matrix(1,0,0,-1,-0.000244141,15.3423)" />
					</g>
					<path id="椭圆形" d="M1.55556 0C1.98511 0 2.374 0.174112 2.6555 0.455612C2.937 0.737112 3.11111 1.126 3.11111 1.55556C3.11111 1.98511 2.937 2.374 2.6555 2.6555C2.374 2.937 1.98511 3.11111 1.55556 3.11111C1.126 3.11111 0.737111 2.937 0.455611 2.6555C0.174111 2.374 0 1.98511 0 1.55556C0 1.126 0.174111 0.737112 0.455611 0.455612C0.737111 0.174112 1.126 0 1.55556 0Z" fill="rgb(0,0,0)" fill-opacity="0" fill-rule="evenodd" transform="matrix(1,0,0,-1,8.42529,11.8525)" />
					<path id="椭圆形" d="M2.6555 0.455612C2.937 0.737112 3.11111 1.126 3.11111 1.55556C3.11111 1.98511 2.937 2.374 2.6555 2.6555C2.374 2.937 1.98511 3.11111 1.55556 3.11111C1.126 3.11111 0.737111 2.937 0.455611 2.6555C0.174111 2.374 0 1.98511 0 1.55556C0 1.126 0.174111 0.737112 0.455611 0.455612C0.737111 0.174112 1.126 0 1.55556 0C1.98511 0 2.374 0.174112 2.6555 0.455612Z" fill-rule="evenodd" stroke="rgb(250,140,22)" stroke-width="0.888888896" transform="matrix(1,0,0,-1,8.42529,11.8525)" />
					<path id="椭圆形备份" d="M1.55556 0C1.98511 0 2.374 0.174111 2.6555 0.455611C2.937 0.737111 3.11111 1.126 3.11111 1.55556C3.11111 1.98511 2.937 2.374 2.6555 2.6555C2.374 2.937 1.98511 3.11111 1.55556 3.11111C1.126 3.11111 0.737112 2.937 0.455612 2.6555C0.174112 2.374 0 1.98511 0 1.55556C0 1.126 0.174112 0.737111 0.455612 0.455611C0.737112 0.174111 1.126 0 1.55556 0Z" fill="rgb(0,0,0)" fill-opacity="0" fill-rule="evenodd" transform="matrix(1,0,0,-1,3.22412,6.90479)" />
					<path id="椭圆形备份" d="M2.6555 0.455611C2.937 0.737111 3.11111 1.126 3.11111 1.55556C3.11111 1.98511 2.937 2.374 2.6555 2.6555C2.374 2.937 1.98511 3.11111 1.55556 3.11111C1.126 3.11111 0.737112 2.937 0.455612 2.6555C0.174112 2.374 0 1.98511 0 1.55556C0 1.126 0.174112 0.737111 0.455612 0.455611C0.737112 0.174111 1.126 0 1.55556 0C1.98511 0 2.374 0.174111 2.6555 0.455611Z" fill-rule="evenodd" stroke="rgb(250,140,22)" stroke-width="0.888888896" transform="matrix(1,0,0,-1,3.22412,6.90479)" />
				</g>
			</g>
		</g>
	</g>
</svg>
