<svg viewBox="0 0 16 16" xmlns="http://www.w3.org/2000/svg" xmlns:xlink="http://www.w3.org/1999/xlink" width="16.000000" height="16.000000" fill="none" customFrame="#000000">
	<rect id="2D 服务图标/移送应用 测试" width="16.000000" height="16.000000" x="0.000000" y="0.000000" />
	<g id="icon icon-mobile-app-test-2d">
		<rect id="矩形" width="16.000000" height="16.000000" x="0.000000" y="0.000000" opacity="0" fill="rgb(216,216,216)" />
		<rect id="矩形" width="15.000000" height="15.000000" x="0.500000" y="0.500000" opacity="0" stroke="rgb(151,151,151)" stroke-opacity="0" stroke-width="1" />
		<rect id="矩形" width="12.000000" height="16.000000" x="2.000000" y="0.000000" rx="1.000000" fill="rgb(163,238,125)" />
		<rect id="矩形" width="11.000000" height="15.000000" x="2.500000" y="0.500000" rx="0.500000" stroke="rgb(126,215,82)" stroke-opacity="0" stroke-width="1" />
		<rect id="矩形" width="10.000000" height="11.000000" x="3.000000" y="1.000000" rx="1.000000" fill="rgb(218,255,200)" />
		<rect id="矩形" width="9.000000" height="10.000000" x="3.500000" y="1.500000" rx="0.500000" stroke="rgb(151,151,151)" stroke-opacity="0" stroke-width="1" />
		<rect id="矩形" width="4.000000" height="2.000000" x="6.000000" y="13.000000" rx="1.000000" fill="rgb(218,255,200)" />
		<rect id="矩形" width="3.000000" height="1.000000" x="6.500000" y="13.500000" rx="0.500000" stroke="rgb(151,151,151)" stroke-opacity="0" stroke-width="1" />
		<path id="路径 108" d="M4.11035 6.29545L6.99984 3.40596L9.3659 5.48544L12.0154 2.83594" fill="rgb(216,216,216)" fill-opacity="0" fill-rule="evenodd" />
		<path id="路径 108" d="M4.11035 6.29545L6.99984 3.40596L9.3659 5.48544L12.0154 2.83594" fill-rule="evenodd" stroke="rgb(126,215,82)" stroke-width="1.20000005" />
		<rect id="矩形" width="2.000000" height="3.000000" x="4.000000" y="8.000000" rx="0.400000" fill="rgb(163,238,125)" />
		<rect id="矩形" width="1.000000" height="2.000000" x="4.500000" y="8.500000" rx="-0.100000" stroke="rgb(151,151,151)" stroke-opacity="0" stroke-width="1" />
		<rect id="矩形备份" width="2.000000" height="4.000000" x="7.000000" y="7.000000" rx="0.400000" fill="rgb(163,238,125)" />
		<rect id="矩形备份" width="1.000000" height="3.000000" x="7.500000" y="7.500000" rx="-0.100000" stroke="rgb(151,151,151)" stroke-opacity="0" stroke-width="1" />
		<rect id="矩形备份 2" width="2.000000" height="5.000000" x="10.000000" y="6.000000" rx="0.400000" fill="rgb(163,238,125)" />
		<rect id="矩形备份 2" width="1.000000" height="4.000000" x="10.500000" y="6.500000" rx="-0.100000" stroke="rgb(151,151,151)" stroke-opacity="0" stroke-width="1" />
	</g>
</svg>
