<svg viewBox="0 0 88 88" xmlns="http://www.w3.org/2000/svg" xmlns:xlink="http://www.w3.org/1999/xlink" width="88.000000" height="88.000000" fill="none" customFrame="#000000">
	<defs>
		<filter id="pixso_custom_mask_type_outline">
			<feColorMatrix type="matrix" values="0 0 0 0 1 0 0 0 0 1 0 0 0 0 1 0 0 0 1 0 " />
		</filter>
	</defs>
	<mask id="mask_50" width="88.000000" height="88.000000" x="0.000000" y="0.000000" maskUnits="userSpaceOnUse">
		<g filter="url(#pixso_custom_mask_type_outline)">
			<circle id="蒙版" cx="44" cy="44" r="44" fill="rgb(255,255,255)" />
		</g>
	</mask>
	<rect id="人物头像/男人6" width="88.000000" height="88.000000" x="0.000000" y="0.000000" />
	<circle id="蒙版" cx="44" cy="44" r="44" fill="rgb(252,222,183)" />
	<g mask="url(#mask_50)">
		<g id="编组 4">
			<g id="编组 3">
				<path id="路径" d="M52.804 52.9262L52.791 53.2924C52.7697 53.8402 52.7334 54.6109 52.6916 55.4182L52.639 56.4002C52.6244 56.6642 52.6048 56.9472 52.5897 57.2294L52.5852 57.3185L52.5793 57.4447C52.5473 58.1855 52.5638 58.8867 52.804 59.1882C53.1583 59.633 53.6278 59.8343 54.3168 59.9623L55.3609 60.1534L55.7849 60.2324C56.781 60.4206 57.7049 60.6193 57.9978 60.8075L58.9151 61.2474C58.9151 61.2474 58.7084 63.4161 58.6908 63.6684C58.5806 65.2466 55.8378 66.0228 55.2956 67.5147C54.7864 68.9158 54.0137 70.0359 53.0078 70.8986L53.2712 70.8985C52.3629 71.6982 51.2661 72.2658 50.0115 72.6343C48.0708 73.2044 46.1277 73.4969 44.1862 73.505L44.0673 73.505L43.977 73.5045L43.8866 73.505L43.7677 73.505C41.8263 73.4969 39.8831 73.2044 37.9425 72.6343C36.6878 72.2658 35.591 71.6982 34.6827 70.8985L34.9462 70.8986C33.9403 70.0359 33.1675 68.9158 32.6583 67.5147C32.1161 66.0228 31.2216 61.3394 30.6034 60.9382C30.5378 60.8385 30.4106 60.7951 30.18 60.8274L29.961 60.8582L29.9562 60.8075C30.2583 60.6133 31.2323 60.408 32.2641 60.2145L32.593 60.1534L33.6371 59.9623C34.3262 59.8343 34.7956 59.633 35.15 59.1882C35.3811 58.8981 35.4051 58.2379 35.3781 57.5283L35.3728 57.4027L35.3688 57.3185L35.3642 57.2294C35.3491 56.9472 35.3295 56.6642 35.3149 56.4002L35.2623 55.4182L35.2181 54.5352C35.1863 53.8758 35.1615 53.2978 35.15 52.9262C35.3731 53.1352 35.5615 53.3792 35.8025 53.5695L35.8207 52.7239C35.9698 53.003 36.7687 53.4522 37.6074 53.9392L37.822 54.0643C38.6988 54.5777 49.2288 54.5943 50.0915 54.088L50.8849 53.6264C51.5037 53.2638 52.0168 52.942 52.1332 52.7239L52.1514 51.8507C52.3924 51.6604 52.5809 53.1352 52.804 52.9262Z" fill="rgb(251,174,150)" fill-rule="evenodd" />
				<path id="形状结合" d="M52.8039 52.9263L52.7909 53.2925C52.7696 53.8403 52.7334 54.611 52.6916 55.4183L52.639 56.4003C52.6243 56.6644 52.6047 56.9473 52.5897 57.2296L52.5851 57.3187L52.5792 57.4448C52.5718 57.617 52.5669 57.787 52.5669 57.9504C52.5669 58.49 52.6195 58.9569 52.8039 59.1884C53.1582 59.6332 53.6277 59.8344 54.3167 59.9624L55.3608 60.1536L55.7848 60.2325C56.7809 60.4207 57.7048 60.6194 57.9977 60.8076L58.1535 60.8824C57.6887 62.0332 56.1154 65.5468 56.077 65.6953C56.0586 65.7662 56.0398 65.8369 56.0206 65.9075L55.9915 66.0133L55.9297 66.2307L55.9129 66.2882L55.9124 66.2895L55.8815 66.3939L55.8565 66.4768L55.5706 66.4059C55.1518 66.3013 54.6775 66.1802 54.1921 66.0546L53.7251 65.9333L52.7071 65.6663C51.8128 65.4304 48.5955 64.7897 44.7353 62.5137C40.8752 60.2377 35.7806 53.8164 35.4199 53.2028C35.5559 53.3474 35.6929 53.4912 35.8547 53.6096C38.4985 55.5437 41.4099 56.6147 44.7353 56.4432C46.6659 56.3438 48.4286 55.7556 50.0963 54.818C50.9511 54.3374 51.7103 53.7303 52.4515 53.0976L52.6254 52.9484C52.6445 52.9295 52.6637 52.9102 52.6831 52.8906C52.7225 52.946 52.7626 52.965 52.8039 52.9263Z" fill="rgb(223,132,104)" fill-rule="evenodd" />
				<g id="编组 5">
					<g id="编组 8">
						<path id="Fill 3835备份" d="M58.3133 40.0241C58.5085 40.1598 58.6374 39.9878 58.7646 39.9047C59.1101 39.6796 59.4372 39.4265 59.7757 39.1904C59.8949 39.1074 60.0221 39.0332 60.1526 38.9695C60.6836 38.7097 61.2348 38.5141 61.7589 38.9449C62.2943 39.3849 62.1918 39.9757 62.0661 40.5709C61.9701 40.5172 62.0171 40.4453 62.0159 40.3894C62.0146 40.3299 62.0359 40.2702 62.0453 40.2103C62.1689 39.4214 61.6252 38.9452 60.8995 39.273C59.919 39.7157 59.1174 40.3489 58.9159 41.5156C58.7739 42.3372 58.4145 43.0619 57.7685 43.6181C57.444 43.8975 57.2138 44.2488 56.9888 44.6141C57.302 43.4259 57.6184 42.2457 57.7622 41.0285C57.9459 40.6936 58.1297 40.3588 58.3133 40.0241" fill="rgb(216,124,104)" fill-rule="evenodd" />
						<path id="Fill 3837备份" d="M62.4358 25.6131C62.3553 24.3881 62.0345 23.2252 61.4998 22.1238C60.7048 20.4865 59.5857 19.0979 58.2562 17.8586C57.4056 17.0657 56.4968 16.3697 55.4723 15.8221C55.0277 15.5844 55.0288 15.5825 55.1466 15.1208C55.5269 14.5835 55.9859 14.0952 56.2411 13.3957C55.1221 13.5784 54.1197 13.8839 53.2761 14.5708C53.0884 14.7236 53.0117 14.7053 52.8769 14.5415C52.6528 14.2693 52.416 14.0069 52.1758 13.7486C50.7874 12.2551 49.0897 11.4277 47.0389 11.2923C45.3705 11.182 43.7311 11.3577 42.0974 11.6513C41.4808 11.7621 40.8701 11.9065 40.244 12.0382C40.309 12.2444 40.5243 12.2726 40.5418 12.467C39.4505 12.6692 38.3594 12.847 37.2901 13.1321C35.0129 13.7392 33.0126 14.7937 31.4736 16.6328C30.7049 17.5513 30.0495 18.5451 29.4131 19.5536C28.5501 20.9211 27.559 22.1764 26.2924 23.1969C26.0887 23.361 25.8718 23.5086 25.6442 23.6764C26.0989 23.9524 26.5599 24.1112 27.0023 24.3095C27.0189 24.4366 27.1089 24.5062 27.2171 24.5314C27.5266 24.6037 27.548 24.8153 27.4864 25.0642C27.3303 25.6942 27.3241 26.3427 27.2896 26.982C27.2117 28.4267 27.2609 29.8749 27.405 31.3134C27.5462 32.724 27.8709 34.1026 28.2745 35.4636C28.4153 35.9382 28.6998 36.3676 28.7198 36.879C29.0863 37.962 29.4917 39.0274 30.1229 39.9911C30.2238 40.1452 30.3459 40.2811 30.5027 40.3802C30.9006 40.6315 31.3467 40.4503 31.3552 39.9833C31.3676 39.3035 31.4843 38.6274 31.4289 37.9471C31.4166 37.7962 31.4404 37.658 31.4742 37.5165C31.4321 37.1621 31.6177 36.8328 31.5868 36.4796C31.6553 35.7072 31.7673 34.9468 32.0479 34.2145C32.3947 33.3095 33.0449 32.91 34 32.854C34.7305 32.8113 35.4539 32.8871 36.1814 32.8716C37.027 32.8535 37.741 32.5532 38.3552 31.9843C38.6507 31.7106 38.9062 31.4007 39.1617 31.0929C39.6999 30.4446 40.2014 29.7704 40.4305 28.9939C40.4582 29.9895 40.4486 31.0349 40.2119 32.0598C40.0656 32.6927 39.9787 33.3529 39.5414 33.8808C39.6455 34.1754 39.8997 34.0778 40.1088 34.0963C40.4993 34.1618 40.8803 34.296 41.2851 34.2589C41.6919 34.1856 42.101 34.208 42.5106 34.2296C42.5924 34.2336 42.6687 34.2184 42.7382 34.1719C42.7631 34.1346 42.7873 34.1019 42.8153 34.0738C42.965 34.0637 43.104 34.0141 43.2475 33.9684C44.4111 33.5981 45.2729 32.8317 46.039 31.9173C46.2177 31.704 46.3199 31.4259 46.5416 31.2487C46.5415 31.2497 46.5418 31.25 46.5416 31.2511C46.5402 31.263 46.5415 31.2753 46.5418 31.2841C46.3576 32.0061 46.4329 32.7454 46.433 33.4795C46.433 33.989 46.6961 34.1765 47.1909 34.0469C47.4731 33.9729 47.7459 33.8745 47.9674 33.6719C48.0069 33.5939 48.0541 33.5224 48.1057 33.4544C48.2098 33.3941 48.3145 33.3344 48.4047 33.2577C49.7361 32.1248 50.5803 30.6723 51.1676 29.0528C51.1894 29.0439 51.2132 29.0365 51.2395 29.0312C51.5848 28.7095 51.5591 28.2373 51.7268 27.8441C51.7679 27.7476 51.6931 27.5805 51.8783 27.558C51.9011 27.5659 51.9212 27.5758 51.9405 27.5863C52.4537 29.4428 53.0931 31.2565 53.7922 33.0499C53.7918 33.1139 53.7874 33.1789 53.778 33.2447C53.7616 33.592 53.9294 33.898 54.0049 34.2245C54.0517 34.4266 54.0439 34.7088 54.2897 34.7664C54.5702 34.8321 54.643 34.5323 54.7854 34.3667C54.817 34.3299 54.7835 34.3821 54.8129 34.3429C54.9822 34.2006 55.0961 34.0145 55.2191 33.8353C55.5339 33.4054 55.7446 32.9174 55.9896 32.4373C56.4076 33.6509 56.5533 34.9001 56.6954 36.1493C56.789 36.4289 56.7762 36.7119 56.7187 36.9958C56.7386 37.5789 56.71 38.1633 56.7612 38.7463C56.7036 39.1644 56.7129 39.5873 56.676 40.0074C56.6436 40.378 56.5765 40.7493 56.5922 41.1236C56.6135 41.628 56.953 41.7957 57.3848 41.5277C57.5432 41.4294 57.63 41.262 57.7789 41.1568C58.0767 40.8327 58.2659 40.4449 58.4396 40.0477C58.4719 39.928 58.5654 39.8438 58.6187 39.735C59.0599 38.8348 59.3997 37.8884 59.8671 37.0001C59.923 36.8938 59.9626 36.7748 59.8861 36.6557C59.9221 36.5528 59.9543 36.4485 59.9946 36.3474C60.7828 34.3722 61.3864 32.3487 61.5206 30.214C61.6053 28.8682 61.6296 27.5198 61.4275 26.1537C61.8106 26.2753 62.0425 26.5973 62.3745 26.7799L62.3745 25.8513C62.4443 25.7846 62.4414 25.6987 62.4358 25.6131" fill="rgb(67,67,68)" fill-rule="evenodd" />
						<path id="形状结合" d="M58.3132 40.0251C58.88 38.9221 59.2875 37.7448 59.886 36.6565C61.2052 36.0046 63.0729 36.3385 63.4818 38.2217C63.7702 39.5507 63.4895 40.7718 62.9606 41.9677C62.5096 42.9875 61.911 43.9103 61.0975 44.6872C60.2313 45.5144 59.2221 46.0223 58.0141 46.0723C57.6164 46.0888 57.2265 45.9715 56.8465 45.8573L56.8366 45.8543C56.599 45.7829 56.5038 45.8135 56.4336 46.0821C55.9844 47.802 54.4886 51.141 54.1023 51.7066C53.1255 53.2774 51.6336 54.2552 50.0827 55.1516C48.7399 55.9278 47.2842 56.406 45.74 56.5659C44.3547 56.7095 42.9732 56.6253 41.6064 56.3483C39.3706 55.895 37.3729 54.9294 35.5729 53.5404C35.0877 53.166 33.1562 50.5249 32.6881 49.5727C32.1793 48.5377 31.7294 47.4764 31.4426 46.3548C31.3283 45.9078 31.2331 45.8773 30.7976 45.9877C29.4603 46.327 28.2202 46.1267 27.1294 45.236C25.7294 44.0929 24.8573 42.6179 24.4899 40.8649C24.267 39.8017 24.2201 38.7257 24.6561 37.6772C25.0644 36.6956 26.046 36.154 27.1012 36.3387C27.6448 36.434 28.1574 36.6139 28.67 36.8033C28.7403 36.7683 28.7669 36.8129 28.7934 36.8574C28.7976 36.8644 28.8017 36.8714 28.806 36.8781C28.924 37.0065 28.9705 37.17 29.0329 37.3271C29.369 38.1744 29.6807 39.0333 30.1802 39.805C30.2528 39.9172 30.3238 40.0317 30.4089 40.1342C30.5574 40.3131 30.7471 40.431 30.9849 40.3559C31.2304 40.2782 31.2328 40.0537 31.2401 39.8431C31.2631 39.1747 31.285 38.5064 31.3121 37.8382C31.3165 37.7305 31.3455 37.6237 31.3631 37.5166C31.3467 37.3049 31.3776 37.0973 31.4084 36.8898C31.4305 36.7409 31.4526 36.592 31.4573 36.4416C31.5467 35.587 31.6615 34.7379 32.0052 33.9388C32.2679 33.3281 32.6902 32.9299 33.3296 32.7946L33.3263 32.4957L37.3105 32.4957C37.8037 32.2863 38.2364 31.9428 38.624 31.4926C39.388 30.6054 40.1237 29.7044 40.458 28.5402C40.6285 29.0355 40.6097 29.5365 40.591 30.0334C40.5892 30.0827 40.5873 30.1319 40.5857 30.1811C40.5591 30.9661 40.4644 31.7393 40.2797 32.4957L41.9702 32.4957L42.3714 34.1295C42.4328 34.1249 42.4942 34.1193 42.5555 34.1128C42.6295 34.1008 42.7036 34.0889 42.7776 34.0769C42.8222 34.0149 42.8834 33.9818 42.9573 33.9637C44.0857 33.6882 44.9532 33.01 45.7139 32.1707C45.9574 31.902 46.1892 31.6227 46.398 31.3253C46.4056 31.3145 46.413 31.3032 46.4205 31.2919C46.4724 31.2132 46.5259 31.1322 46.6511 31.1764C46.6295 31.879 46.6078 32.5814 46.5863 33.284C46.5852 33.3167 46.5835 33.3495 46.5818 33.3823C46.5778 33.4585 46.5738 33.5347 46.5787 33.6103C46.5977 33.9108 46.7626 34.0543 47.0252 33.9461C47.3453 33.8142 47.695 33.7445 47.9797 33.5309C48.2993 33.1674 48.7018 32.8891 49.0193 32.5241C49.8281 31.5941 50.4376 30.5427 50.9115 29.4093C50.9758 29.2554 51.0163 29.0836 51.1871 29.0007C51.4455 28.4315 51.5724 27.8209 51.7397 27.2163C51.892 27.2485 51.8142 27.4144 51.9072 27.4696C52.0384 27.6004 52.1281 27.7585 52.1798 27.9333C52.6494 29.5215 53.2282 31.0735 53.7396 32.6477C53.753 32.6893 53.7685 32.7307 53.784 32.7722C53.8397 32.9219 53.8963 33.0739 53.8662 33.242C54.0064 33.7234 54.1466 34.2047 54.2888 34.6928C54.51 34.598 54.5712 34.3555 54.7597 34.2477C54.8794 34.0954 54.9993 33.9431 55.1189 33.7909C55.4176 33.205 55.7583 32.6399 55.9882 32.0091C56.263 32.3782 56.8393 35.2073 56.8196 36.0444C56.8588 36.1965 56.8535 36.3511 56.8482 36.5057C56.8432 36.6546 56.8381 36.8034 56.8727 36.9499C56.91 37.5594 56.9183 38.1691 56.8767 38.7787C56.8947 39.2587 56.8556 39.7357 56.8164 40.2127C56.8003 40.4083 56.7843 40.604 56.7721 40.7998C56.7693 40.8454 56.7653 40.8911 56.7614 40.9367C56.7528 41.0355 56.7443 41.1343 56.747 41.2327C56.7558 41.5487 56.8752 41.6135 57.1594 41.4843C57.396 41.3769 57.5537 41.1708 57.7621 41.0294C57.8689 41.1012 57.8839 41.2139 57.8668 41.3222C57.7183 42.2605 57.5693 43.1992 57.2107 44.0855C57.3191 43.8719 57.4753 43.6907 57.657 43.5284C58.2822 42.9695 58.6286 42.2583 58.7808 41.4469C59.0021 40.2675 59.8206 39.6119 60.8305 39.1526C61.2957 38.941 61.7431 39.059 61.9636 39.3681C61.6284 38.8747 61.1229 38.7322 60.5021 38.9784C60.0222 39.1686 59.6055 39.4664 59.1998 39.7792C59.0355 39.9059 58.8736 40.0384 58.6774 40.1107C58.671 40.113 58.6645 40.1154 58.658 40.1178C58.5305 40.1653 58.3892 40.2179 58.3132 40.0251ZM41.2535 46.8963L41.2535 46.8961C41.252 46.8956 41.2504 46.895 41.2488 46.8944C41.2504 46.8951 41.252 46.8957 41.2535 46.8963ZM47.4629 46.7126C47.4793 46.7035 47.4957 46.6943 47.5119 46.6849C47.5018 46.6943 47.4918 46.7036 47.4821 46.7134C47.4782 46.7129 47.4745 46.7129 47.4707 46.7128L47.4629 46.7126ZM45.9666 47.229C45.9355 47.2368 45.9045 47.2448 45.8732 47.2523C45.8212 47.2646 45.7692 47.2759 45.7172 47.2864C45.8031 47.2844 45.886 47.2644 45.9666 47.229Z" fill="rgb(252,188,165)" fill-rule="evenodd" />
						<path id="Fill 3845备份" d="M25.7719 41.1775C25.5413 40.7031 25.3651 40.2019 25.4924 39.679C25.7249 38.7237 26.3496 38.5468 27.3509 38.7543C28.2013 38.9305 28.885 39.4686 29.5532 40.0011C29.7068 40.1234 29.7345 40.3109 29.7651 40.4913C29.9457 41.5552 30.0529 42.6327 30.3507 43.6749C30.4196 43.9164 30.4961 44.1557 30.5343 44.4137C29.9484 43.5426 28.98 42.9376 28.7841 41.8045C28.7336 41.5126 28.7418 41.2238 28.7482 40.9332C28.7527 40.7291 28.704 40.5536 28.571 40.3946C28.0723 39.7982 27.4522 39.389 26.7022 39.1849C25.9924 38.9917 25.5962 39.3063 25.5932 40.0433C25.5917 40.4321 25.7101 40.7995 25.7719 41.1775" fill="rgb(218,127,105)" fill-rule="evenodd" />
					</g>
					<path id="路径-101备份" d="M48.6542 37.8175C49.2541 37.3794 49.8648 37.1865 50.4863 37.2389C51.1079 37.2912 51.6596 37.4841 52.1414 37.8175" fill-rule="evenodd" stroke="rgb(24,24,24)" stroke-linecap="round" stroke-width="0.5" />
					<path id="路径-101备份-3备份" d="M0 0.444404C0.565821 0.102736 1.1595 -0.0419208 1.78103 0.0104352C2.40257 0.0627911 2.9498 0.275655 3.42272 0.649026" fill-rule="evenodd" stroke="rgb(24,24,24)" stroke-linecap="round" stroke-width="0.5" transform="matrix(-1,0,0,1,39.2587,37.2285)" />
					<path id="椭圆形备份-33备份" d="M37.5436 39.2391C38.1511 39.2391 38.6436 38.7466 38.6436 38.1391C38.6436 37.5315 38.1511 37.0391 37.5436 37.0391C36.9361 37.0391 36.4436 37.5315 36.4436 38.1391C36.4436 38.7466 36.9361 39.2391 37.5436 39.2391Z" fill="rgb(24,24,24)" fill-rule="evenodd" />
					<path id="椭圆形备份-34备份" d="M50.3036 39.2391C50.9111 39.2391 51.4036 38.7466 51.4036 38.1391C51.4036 37.5315 50.9111 37.0391 50.3036 37.0391C49.6961 37.0391 49.2036 37.5315 49.2036 38.1391C49.2036 38.7466 49.6961 39.2391 50.3036 39.2391Z" fill="rgb(24,24,24)" fill-rule="evenodd" />
					<path id="Fill-250备份" d="M0.345325 3.23962e-05C0.0165467 0.00615077 -0.124704 0.0961214 0.133307 0.632645C0.391318 1.16917 1.33476 2.36857 2.8565 2.46268C4.37824 2.55679 5.43503 1.50951 5.83015 1.03101C6.22527 0.552503 6.15583 0.140886 5.54492 0.363624C4.93401 0.586361 4.48529 1.02874 2.93073 0.942565C1.37617 0.856387 0.674103 -0.00608602 0.345325 3.23962e-05Z" fill="rgb(223,132,104)" fill-rule="evenodd" transform="matrix(0.997564,-0.0697565,0.0697565,0.997564,41.0135,42.2754)" />
					<path id="路径-98备份" d="M42.8947 49.5189C43.2823 49.7988 43.7232 49.9387 44.2173 49.9387C44.7115 49.9387 45.1506 49.7988 45.5347 49.5189" fill-rule="evenodd" stroke="rgb(223,132,104)" stroke-linecap="round" stroke-width="0.5" />
					<path id="路径-97备份" d="M40.6484 46.9043C41.7357 47.4645 42.8645 47.7445 44.0349 47.7445C45.2052 47.7445 46.3343 47.4645 47.4221 46.9043" fill-rule="evenodd" stroke="rgb(223,132,104)" stroke-linecap="round" stroke-width="0.5" />
					<path id="Fill 4057备份" d="M54.4257 35.1547C54.0937 34.2255 53.6695 33.369 52.6954 32.9391C52.1195 32.6848 51.5079 32.5907 50.8885 32.5315C49.7953 32.4269 48.7245 32.5545 47.6834 32.8897C47.1263 33.0692 46.9752 33.4652 47.1501 34.1298C47.2671 34.5748 47.4802 34.6772 48.0991 34.5613C48.8523 34.4203 49.6029 34.2594 50.3681 34.2029C51.8122 34.0961 53.2234 34.146 54.4257 35.1547" fill="rgb(11,4,8)" fill-rule="evenodd" />
					<path id="Fill 4063备份" d="M40.0789 32.9254C38.6256 32.4769 37.1405 32.4154 35.6471 32.6893C34.315 32.9336 33.6546 33.8503 33.326 35.0921C34.0141 34.4948 34.8202 34.2212 35.7109 34.1688C36.1018 34.1173 36.4928 34.1193 36.8839 34.167C37.2231 34.2734 37.5803 34.2463 37.928 34.3021C38.4561 34.3868 38.9898 34.4427 39.5076 34.5801C39.9971 34.71 40.4621 34.5005 40.6204 34.0515C40.8135 33.5042 40.6495 33.1015 40.0789 32.9254" fill="rgb(11,4,8)" fill-rule="evenodd" />
					<path id="Fill 4065备份" d="M39.1804 39.0339C39.169 39.1651 39.1364 39.2767 38.9902 39.24C38.8813 39.2127 38.7175 39.1843 38.7238 39.0465C38.7304 38.9014 38.868 38.7673 38.9993 38.7542C39.1782 38.7365 39.1218 38.9434 39.1804 39.0339" fill="rgb(249,179,151)" fill-rule="evenodd" />
					<path id="Fill 4067备份" d="M35.7109 34.2027C36.1016 34.0759 36.4925 34.0895 36.8837 34.2C36.4929 34.2009 36.1019 34.2019 35.7109 34.2027" fill="rgb(249,179,151)" fill-rule="evenodd" />
				</g>
			</g>
			<g id="编组 9">
				<path id="椭圆形备份 2 (边框)" d="M45.3959 37.2109C45.3959 33.5089 48.3922 30.5078 52.0884 30.5078C55.7846 30.5078 58.781 33.5089 58.781 37.2109C58.781 40.913 55.7846 43.9141 52.0884 43.9141C48.3922 43.9141 45.3959 40.913 45.3959 37.2109ZM46.1927 37.2109C46.1927 33.949 48.8323 31.3047 52.0884 31.3047C55.3445 31.3047 57.9841 33.949 57.9841 37.2109C57.9841 40.4729 55.3445 43.1172 52.0884 43.1172C48.8323 43.1172 46.1927 40.4729 46.1927 37.2109Z" fill="rgb(11,4,8)" fill-rule="evenodd" />
				<path id="矩形备份 2" d="M42.4705 36.3685C42.4705 36.3685 43.2261 36.1326 44.0327 36.1326C44.8394 36.1326 45.6156 36.3685 45.6156 36.3685L45.6156 38.0534C45.6156 38.0534 44.8254 37.3975 43.9914 37.4356C43.1573 37.4737 42.4705 38.0534 42.4705 38.0534L42.4705 36.3685Z" fill="rgb(11,4,8)" fill-rule="evenodd" />
				<path id="矩形备份 2" d="M44.0327 36.1326C43.2261 36.1326 42.4705 36.3685 42.4705 36.3685L42.4705 38.0534C42.4705 38.0534 42.664 37.89 42.9705 37.731C43.2412 37.5905 43.6001 37.4534 43.9914 37.4356C44.4081 37.4165 44.8139 37.5708 45.1156 37.7299C45.4178 37.8892 45.6156 38.0534 45.6156 38.0534L45.6156 36.3685C45.6156 36.3685 44.8394 36.1326 44.0327 36.1326ZM45.1156 36.7587Q45.0733 36.7498 45.0283 36.7408Q44.4872 36.6326 44.0327 36.6326Q43.5789 36.6326 43.0488 36.7405Q43.0085 36.7487 42.9705 36.7569L42.9705 37.1773Q43.4746 36.9586 43.9685 36.9361Q44.5187 36.911 45.1156 37.1745L45.1156 36.7587Z" fill="rgb(11,4,8)" fill-rule="evenodd" />
				<path id="椭圆形备份 3 (边框)" d="M29.3046 37.2109C29.3046 33.5089 32.3009 30.5078 35.9971 30.5078C39.6933 30.5078 42.6897 33.5089 42.6897 37.2109C42.6897 40.913 39.6933 43.9141 35.9971 43.9141C32.3009 43.9141 29.3046 40.913 29.3046 37.2109ZM30.1014 37.2109C30.1014 33.949 32.741 31.3047 35.9971 31.3047C39.2532 31.3047 41.8928 33.949 41.8928 37.2109C41.8928 40.4729 39.2532 43.1172 35.9971 43.1172C32.741 43.1172 30.1014 40.4729 30.1014 37.2109Z" fill="rgb(11,4,8)" fill-rule="evenodd" />
			</g>
			<g id="编组 17备份">
				<path id="形状结合" d="M63.5759 61.7844L63.5759 83.8693C61.6728 84.7884 59.7216 85.5917 57.7203 86.2831C55.5755 87.024 53.3914 87.5906 51.1496 87.9379C49.8678 88.1363 48.5829 88.3108 47.2914 88.4335C47.1891 88.4431 47.0861 88.4418 47.0032 88.5156L39.2869 88.5156C38.6843 88.4317 38.082 88.3475 37.4794 88.2643C35.0584 87.9304 32.7 87.3425 30.3749 86.5902C28.1174 85.8598 25.9172 84.9989 23.7869 83.9705L23.7869 61.8863C26.204 61.2287 28.6646 60.8232 31.1327 60.4305C31.5211 60.3686 31.9107 60.3134 32.2993 60.2523C32.6103 60.2036 32.7802 60.3314 32.8856 60.6326C33.073 61.168 33.2509 61.7118 33.587 62.1815C33.8958 62.6272 35.4904 64.6371 36.4904 65.2652C37.7932 66.0834 39.2171 66.6002 40.7145 66.9047C42.0753 67.1814 43.4546 67.3411 44.8464 67.268C47.0448 67.1525 49.2073 66.8597 51.1913 65.8059C51.4215 65.6836 51.7034 65.6648 51.8875 65.4537C53.0632 64.7878 54.8508 63.2265 55.2534 62.6272C55.6589 62.001 56.015 61.3474 56.2872 60.6532C56.4098 60.3405 56.5596 60.2453 56.9131 60.3112C59.1521 60.7287 61.385 61.1696 63.5759 61.7844Z" fill="rgb(243,200,70)" fill-rule="evenodd" />
				<path id="Fill 275" d="M37.4381 70.3296C36.7619 70.132 36.0947 69.9124 35.4969 69.525L35.4985 69.5222C35.7471 69.4969 35.9528 69.6288 36.1692 69.713C38.4238 70.5888 40.7621 70.9715 43.1776 71.0522C45.9631 71.1454 48.6869 70.8981 51.3335 69.9901C52.6296 69.5454 53.8747 68.9888 55.0543 68.2886C55.1475 68.2333 55.2269 68.1279 55.4438 68.1858C52.6672 70.0101 49.6711 70.9584 46.4375 71.2092C46.1486 71.3128 45.8391 71.1763 45.5506 71.2857C45.2592 71.2896 44.9678 71.2936 44.6764 71.2977C42.7862 71.2734 40.9005 71.1944 39.0503 70.7602C38.509 70.6331 37.9753 70.474 37.4381 70.3296" fill="rgb(175,110,20)" fill-rule="evenodd" />
				<path id="Fill 309" d="M32.6629 74.4324C32.6189 73.8773 32.644 73.3183 32.5715 72.7712C32.492 72.1717 32.5475 71.5319 32.1646 70.9944C32.0928 70.8934 32.0575 70.7495 32.1477 70.6208C32.1446 69.8276 32.1415 69.0344 32.1384 68.2413C32.21 66.0456 32.1884 63.8495 32.1643 61.6535C32.1594 61.2017 32.2083 60.747 32.1211 60.2974C31.6802 60.2185 31.2382 60.2368 30.796 60.2841C30.6871 60.2882 30.5782 60.2924 30.4694 60.2965C30.1169 60.415 29.7452 60.2707 29.3916 60.3753C28.7651 60.4663 28.1243 60.4603 27.5055 60.5627C26.2143 60.7763 24.9133 60.9377 23.6392 61.2604C21.9414 61.6905 20.2945 62.2312 18.8115 63.1906C18.5056 63.3924 18.1904 63.5812 17.8955 63.7981C16.3097 64.9646 15.0369 66.3751 14.4837 68.3172C14.3891 68.6492 14.2233 68.8852 13.9679 69.1021C12.8038 70.0908 11.6542 71.0961 10.6845 72.2862C10.4181 72.6703 10.5741 72.9885 10.8192 73.3148C11.11 73.7018 11.4134 74.0758 11.7606 74.4127C12.9169 75.5351 14.1036 76.6177 15.3882 77.5996C17.1261 78.9282 18.8786 80.2276 20.7943 81.2928C21.0523 81.4362 21.3142 81.5737 21.612 81.6005C21.8096 81.6183 22.0354 81.6622 22.125 81.3934C22.1004 81.2073 21.9707 81.08 21.8695 80.9377C21.5459 80.4825 21.1874 80.0539 20.8656 79.597C19.7315 77.9875 18.65 76.3421 17.5172 74.7316C16.607 73.4376 15.6317 72.1892 14.7863 70.8497C14.9691 71.133 15.1539 71.4152 15.3482 71.6905C17.3259 74.4923 19.6241 76.9913 22.3631 79.0681C23.5023 79.9318 24.7185 80.6703 26.0368 81.2336C26.4225 81.3985 26.8466 81.4555 27.2819 81.6519C26.9022 81.9107 26.841 82.2583 26.8829 82.6193C26.958 83.2647 26.8288 83.9493 27.2265 84.5358C27.5547 84.868 28.0182 84.8971 28.4213 85.0596C29.565 85.5204 30.7654 85.8059 31.9405 86.1693C32.4577 86.3293 32.7948 86.0485 32.8046 85.5029C32.8176 84.7712 32.864 84.0389 32.8762 83.3099C32.8984 81.9782 32.8903 80.6451 32.8344 79.3101C32.7665 77.6857 32.7916 76.0549 32.6629 74.4324" fill="rgb(198,124,92)" fill-rule="evenodd" />
				<path id="Fill 311" d="M74.2686 68.8131C74.1311 68.7087 73.9654 68.638 73.915 68.4412C73.5798 67.1329 72.8273 66.0734 71.8914 65.1376C70.0032 63.2496 67.6896 62.1069 65.1609 61.3536C62.8486 60.6647 60.4643 60.4429 58.0731 60.2678C57.8386 60.2684 57.6018 60.2898 57.3701 60.2649C57.0315 60.2285 56.9469 60.3688 56.9449 60.6909C56.926 63.7927 56.8862 66.8944 56.871 69.9961C56.8688 70.4377 56.7847 70.8433 56.5874 71.2253C56.4389 71.5129 56.314 71.8051 56.243 72.1206C56.1493 73.4445 56.135 74.7737 55.9749 76.0931C55.8924 76.2153 56.0899 76.3338 55.9798 76.4565C55.9707 76.8391 55.9618 77.2218 55.9527 77.6044C55.8905 79.028 55.9374 80.4525 55.9292 81.8766C55.9266 82.3298 55.8852 82.7853 55.9606 83.2373C55.9661 83.4992 55.9716 83.7613 55.9773 84.0233C56.0724 84.403 55.9616 84.7941 56.0406 85.1747C56.121 85.4733 56.0142 85.793 56.1436 86.0859L56.151 86.0488C56.4211 85.7914 56.0791 85.5024 56.1931 85.2639C56.2001 85.7808 56.398 85.9389 56.9347 85.7855C58.2101 85.4209 59.4538 84.965 60.6929 84.4906C61.6408 84.1276 61.6217 84.1563 61.4905 83.1221C61.4622 82.2584 60.9386 81.8788 60.1353 81.7628C60.6568 81.6603 61.1558 81.5599 61.6441 81.4061C63.8411 80.714 65.6219 79.3558 67.3298 77.8752C68.0967 77.2106 68.7902 76.4699 69.5388 75.7868C70.9929 74.4601 72.3623 73.0544 73.4537 71.5728C73.2569 71.8634 72.9985 72.2744 72.6968 72.6545C70.578 75.3241 68.5303 78.0509 66.2848 80.6183C66.1305 80.7947 65.9699 80.971 65.9387 81.2194C66.0937 81.569 66.1936 81.6145 66.6198 81.4319C67.6307 80.9993 68.5311 80.3783 69.4357 79.7619C70.8268 78.8141 72.1393 77.7698 73.4103 76.6671C73.8799 76.2598 74.3143 75.8023 74.8605 75.4867C75.9431 74.5135 76.9669 73.4848 77.8418 72.3161C76.8148 70.9809 75.607 69.8305 74.2686 68.8131" fill="rgb(198,124,92)" fill-rule="evenodd" />
				<path id="形状结合" d="M26.0396 81.1577C26.4736 81.3432 26.9325 81.4443 27.3857 81.5658C27.5114 81.5995 27.7248 81.6936 27.4946 81.7932C26.9534 82.0275 26.9927 82.438 27.0309 82.8378C27.0403 82.9351 27.0495 83.0318 27.0503 83.1252C27.0541 83.5759 27.1503 84.0258 27.2059 84.4761C27.2178 84.6705 27.1119 84.7448 26.9326 84.7442C25.298 84.1368 23.747 83.3577 22.2509 82.4659C19.8947 81.1971 17.6776 79.7196 15.5832 78.0537C13.8246 76.6549 12.1754 75.1411 10.6694 73.4723C10.6016 73.3971 10.5204 73.3341 10.4455 73.2654C10.1201 72.8591 10.379 72.6094 10.6847 72.3723C10.6634 73.3287 11.2841 73.9081 11.8846 74.4687C11.9743 74.5524 12.0635 74.6357 12.15 74.7197C12.6723 75.2268 13.1908 75.7473 13.7635 76.2096C16.044 78.0507 18.3575 79.8424 20.9212 81.2812C21.2748 81.4798 21.6465 81.6873 22.0802 81.488L22.0804 81.4879L22.0803 81.4878C21.4044 80.7326 20.8188 79.9073 20.2535 79.0699C18.7094 76.7821 17.1346 74.5163 15.5219 72.2765C15.1323 71.7354 14.7648 71.1739 14.5254 70.5381C14.9014 70.7991 15.0966 71.2056 15.3493 71.5573C16.8098 73.5903 18.4088 75.505 20.2539 77.1972C21.9905 78.7897 23.8483 80.2214 26.0396 81.1577ZM72.444 77.4666C73.1413 76.8402 73.8594 76.2368 74.5684 75.6234C74.5803 75.613 74.5922 75.6018 74.604 75.5907C74.6774 75.5214 74.7512 75.4517 74.8576 75.5734C72.6008 77.6906 70.1684 79.5771 67.5364 81.2095C64.168 83.2985 60.5886 84.9102 56.7897 86.0354C56.7456 86.0485 56.7017 86.0639 56.6577 86.0794C56.4946 86.1367 56.3297 86.1946 56.1483 86.1355L56.1483 84.9522L56.1928 84.9495C56.2048 84.9866 56.2255 85.0233 56.2277 85.0611C56.2728 85.8302 56.3728 85.91 57.1283 85.7052C58.5014 85.3331 59.8233 84.8125 61.1451 84.2931C61.3711 84.2044 61.4738 84.0464 61.4021 83.8084C61.3489 83.6315 61.3494 83.4528 61.3499 83.2737C61.35 83.2333 61.3501 83.1928 61.3496 83.1523C61.3053 82.488 60.9431 82.1376 60.2909 82.0458C60.1081 82.02 59.9353 81.9234 59.7531 81.8577C59.7938 81.6804 59.9388 81.6884 60.0336 81.6776C62.2312 81.4281 64.0512 80.3641 65.7639 79.0534C66.7803 78.2755 67.7232 77.4177 68.6395 76.5264C69.5764 75.6149 70.5597 74.7508 71.453 73.7948C72.1645 73.0335 72.852 72.2509 73.452 71.3959C73.5257 71.2909 73.5909 71.1705 73.7611 71.1259C73.8081 71.3817 73.6833 71.5704 73.5626 71.7531C73.5508 71.771 73.539 71.7888 73.5274 71.8066C72.6936 73.0889 71.6986 74.2491 70.7573 75.4498C69.8068 76.6622 68.849 77.8689 67.8876 79.0728C67.2838 79.8287 66.5742 80.4965 66.0258 81.2992C66.0863 81.6068 66.2529 81.5258 66.4015 81.4536C66.434 81.4378 66.4656 81.4224 66.4951 81.4116C67.3534 81.0974 68.1373 80.6285 68.8821 80.1156C70.1002 79.2766 71.338 78.4602 72.444 77.4666Z" fill="rgb(145,63,28)" fill-rule="evenodd" />
			</g>
		</g>
	</g>
</svg>
