<svg viewBox="0 0 88 88" xmlns="http://www.w3.org/2000/svg" xmlns:xlink="http://www.w3.org/1999/xlink" width="88.000000" height="88.000000" fill="none" customFrame="#000000">
	<defs>
		<filter id="pixso_custom_mask_type_alpha">
			<feColorMatrix type="matrix" values="0 0 0 0 1 0 0 0 0 1 0 0 0 0 1 0 0 0 1 0 " />
		</filter>
	</defs>
	<mask id="mask_52" width="88.000000" height="88.000000" x="0.000000" y="0.000000" maskUnits="userSpaceOnUse">
		<g filter="url(#pixso_custom_mask_type_alpha)">
			<circle id="蒙版" cx="44" cy="44" r="44" fill="rgb(196,196,196)" />
		</g>
	</mask>
	<rect id="人物头像/男人4" width="88.000000" height="88.000000" x="0.000000" y="0.000000" />
	<circle id="蒙版" cx="44" cy="44" r="44" fill="rgb(215,203,253)" />
	<circle id="蒙版" cx="44" cy="44" r="43.5" stroke="rgb(151,151,151)" stroke-opacity="0" stroke-width="1" />
	<g mask="url(#mask_52)">
		<g id="编组 4">
			<g id="编组 3">
				<path id="路径" d="M52.8038 52.9262L52.7909 53.2924C52.7696 53.8402 52.7333 54.6109 52.6915 55.4182L52.6389 56.4002C52.6243 56.6642 52.6047 56.9472 52.5896 57.2294L52.585 57.3185L52.5792 57.4447C52.5471 58.1855 52.5637 58.8867 52.8038 59.1882C53.1582 59.633 53.6276 59.8343 54.3167 59.9623L55.3608 60.1534L55.7848 60.2324C56.7809 60.4206 57.7048 60.6193 57.9976 60.8075L57.9929 60.8582L57.7738 60.8274C57.5432 60.7951 57.416 60.8385 57.3504 60.9382C56.7322 61.3394 56.2676 62.659 56.2499 62.9113C56.1398 64.4894 55.8377 66.0228 55.2955 67.5147C54.7863 68.9158 54.0135 70.0359 53.0076 70.8986L53.2711 70.8985C52.3628 71.6982 51.266 72.2658 50.0114 72.6343C48.0707 73.2044 46.1276 73.4969 44.1861 73.505L44.0672 73.505L43.9768 73.5045L43.8865 73.505L43.7676 73.505C41.8261 73.4969 39.883 73.2044 37.9423 72.6343C36.6877 72.2658 35.5909 71.6982 34.6826 70.8985L34.946 70.8986C33.9402 70.0359 33.1674 68.9158 32.6582 67.5147C32.116 66.0228 31.8139 64.4894 31.7038 62.9113C31.6861 62.659 31.2215 61.3394 30.6033 60.9382C30.5376 60.8385 30.4105 60.7951 30.1799 60.8274L29.9608 60.8582L29.9561 60.8075C30.2582 60.6133 31.2321 60.408 32.264 60.2145L32.5929 60.1534L33.637 59.9623C34.3261 59.8343 34.7955 59.633 35.1499 59.1882C35.381 58.8981 35.405 58.2379 35.3779 57.5283L35.3727 57.4027L35.3687 57.3185L35.3641 57.2294C35.349 56.9472 35.3294 56.6642 35.3148 56.4002L35.2622 55.4182L35.218 54.5352C35.1862 53.8758 35.1614 53.2978 35.1499 52.9262C35.3729 53.1352 35.5614 53.3792 35.8024 53.5695L35.8206 52.7239C35.9697 53.003 36.7686 53.4522 37.6072 53.9392L37.8218 54.0643C38.6986 54.5777 49.2286 54.5943 50.0914 54.088L50.8847 53.6264C51.5035 53.2638 52.0166 52.942 52.1331 52.7239L52.1513 51.8507C52.3923 51.6604 52.5808 53.1352 52.8038 52.9262Z" fill="rgb(252,188,165)" fill-rule="evenodd" />
				<path id="形状结合" d="M52.806 52.9266L52.793 53.2928C52.7718 53.8406 52.7355 54.6113 52.6937 55.4186L52.6411 56.4006C52.6265 56.6646 52.6069 56.9476 52.5918 57.2299L52.5872 57.3189L52.5813 57.4451C52.5739 57.6172 52.5691 57.7873 52.5691 57.9507C52.5691 58.4903 52.6217 58.9572 52.806 59.1887C53.1604 59.6334 53.6298 59.8347 54.3188 59.9627L55.363 60.1538L55.787 60.2328C56.783 60.421 57.7069 60.6197 57.9998 60.8079L57.995 60.8586L57.776 60.8278C57.5454 60.7955 57.4182 60.8389 57.3526 60.9386C56.7344 61.3398 56.2698 62.6594 56.2521 62.9117C56.1686 64.1083 55.9747 65.2792 55.6495 66.4258L55.5706 66.4062C55.1518 66.3016 54.6775 66.1804 54.1921 66.0548L53.7251 65.9336L52.7071 65.6666C51.8128 65.4306 48.5955 64.79 44.7353 62.514C40.8752 60.2379 35.7806 53.8167 35.4199 53.203C35.5559 53.3477 35.6929 53.4915 35.8547 53.6099C38.4985 55.544 41.4099 56.6149 44.7353 56.4435C46.6659 56.344 48.4286 55.7559 50.0963 54.8183C50.9511 54.3377 51.7103 53.7306 52.4515 53.0979L52.6254 52.9486C52.6449 52.9294 52.6645 52.9097 52.6843 52.8896C52.7241 52.946 52.7644 52.9656 52.806 52.9266Z" fill="rgb(223,132,104)" fill-rule="evenodd" />
				<g id="编组 20">
					<path id="Fill 569备份" d="M35.5636 53.2927C34.8968 52.7466 34.259 52.1717 33.67 51.539C32.6361 50.4287 31.8869 49.157 31.3847 47.7293C30.8885 46.3187 30.5404 44.8696 30.2233 43.4116C30.2003 43.3058 30.1653 43.2026 30.1359 43.0982C29.9055 42.9079 29.9172 42.6254 29.8658 42.3702C29.7111 41.6029 29.5872 40.8296 29.4381 40.0611C29.3686 39.5704 29.2884 39.081 29.2295 38.5885C29.1684 37.9376 29.0193 37.2997 28.9548 36.6486C28.9035 36.1299 28.835 35.6112 28.7246 35.1001C28.742 34.9502 28.6816 34.8185 28.6396 34.6786C28.07 32.7821 27.612 30.8651 27.4319 28.8836C27.3285 27.7451 27.2764 26.6081 27.3094 25.4687C27.3339 24.6204 27.4276 23.7741 27.6388 22.9484C27.7074 22.6805 27.6441 22.5476 27.3706 22.4723C26.678 22.2817 26.0244 22.0058 25.4917 21.5015C25.4516 21.438 25.348 21.3993 25.4109 21.2954C25.4326 21.235 25.4762 21.193 25.5304 21.1633C27.3111 20.186 28.4931 18.6404 29.5217 16.9518C29.8255 16.4531 30.1431 15.9635 30.4576 15.4717C31.8917 13.2286 33.9252 11.7656 36.4496 11.0248C38.7475 10.3506 41.0624 9.72339 43.4203 9.28005C45.0976 8.96468 46.7885 8.9304 48.4634 9.23071C50.3406 9.56721 51.6743 10.6633 52.4758 12.3939C52.5826 12.6244 52.7325 12.7813 52.9771 12.8225C54.6886 13.1111 56.1121 13.9776 57.432 15.0451C58.9775 16.2951 60.3163 17.7299 61.2768 19.4851C61.9875 20.784 62.3493 22.1926 62.5195 23.6552C62.5335 23.7761 62.5415 23.9003 62.4335 23.9924C62.3527 24.1295 62.604 24.3892 62.2707 24.4331C62.0731 24.4701 61.8884 24.4178 61.7002 24.3633C61.3829 24.2715 61.3658 24.293 61.3785 24.6106C61.4166 25.5549 61.4898 26.4974 61.4733 27.4445C61.4305 29.8874 60.9485 32.2324 59.9577 34.4694C59.8072 35.4472 59.76 36.4369 59.6128 37.4146C59.4658 38.3396 59.3879 39.2756 59.1782 40.1908C59.045 41.0346 58.8619 41.869 58.6966 42.7068C58.6638 42.8731 58.6211 43.0352 58.5504 43.1891C58.0868 45.3794 57.5954 47.5621 56.4988 49.5471C55.8754 50.6754 55.0309 51.6293 54.0904 52.5002C53.7075 52.8546 53.337 53.225 52.9054 53.5241C50.6572 55.1616 48.1702 56.1635 45.3829 56.4079C42.4097 56.6686 39.6727 55.9587 37.1116 54.4789C36.8498 54.3277 36.6334 54.1047 36.3556 53.976C36.0531 53.7932 35.7211 53.6438 35.5636 53.2927" fill="rgb(64,64,66)" fill-rule="evenodd" />
					<path id="Fill 573备份" d="M28.8441 35.0837C29.0559 35.831 29.0798 36.6068 29.19 37.3694C29.2487 37.7753 29.2939 38.183 29.3452 38.5899C29.0567 38.5751 29.0335 38.3149 28.9485 38.1335C28.5933 37.3755 28.034 36.8681 27.2255 36.6281C26.6868 36.4683 26.2001 36.5416 25.7718 36.8572C26.8675 36.7962 27.7359 37.2759 28.3844 38.1333C28.9887 38.9322 29.3373 39.8513 29.3864 40.8226C29.3508 40.6953 29.3704 40.5205 29.3718 40.3498C29.3726 40.2322 29.3627 40.0687 29.5581 40.0582C29.7507 41.0716 29.9434 42.0851 30.1359 43.0985C29.7741 43.1948 29.4426 43.3917 29.0608 43.4217C28.3288 43.4303 27.6043 43.4151 26.9238 43.0787C25.7161 42.4816 24.8446 41.5789 24.362 40.3151C23.8587 38.9971 23.6519 37.6464 23.9275 36.2441C24.2287 34.7124 25.5558 33.8418 27.0726 34.1957C27.3788 34.2672 27.6739 34.3857 27.9742 34.4826C28.4209 34.4562 28.6426 34.7553 28.8441 35.0837" fill="rgb(252,188,165)" fill-rule="evenodd" />
					<path id="Fill 575备份" d="M59.5052 37.4179C59.5857 36.5148 59.6638 35.6114 59.7501 34.7089C59.7589 34.6168 59.8162 34.5295 59.851 34.4399C60.1526 34.2806 60.4317 34.0498 60.8111 34.1373C61.1242 34.1889 61.4286 34.0817 61.7471 34.1049C62.5934 34.1667 63.149 34.6294 63.5731 35.3099C63.7303 35.789 63.9275 36.249 64.0022 36.761C64.1273 37.618 64.031 38.4491 63.8676 39.2837C63.7139 40.068 63.3652 40.7747 63.0023 41.4762C62.9143 41.7159 62.7323 41.8894 62.577 42.0818C62.3971 42.1612 62.3197 42.3731 62.1239 42.4322C61.8252 42.7677 61.4161 42.9319 61.0328 43.1362C60.5021 43.418 59.9241 43.4167 59.3464 43.4173C58.9815 43.5774 58.6901 43.4528 58.4365 43.1822C58.64 42.2465 58.8485 41.3119 58.9941 40.3647C59.0028 40.3079 59.0401 40.2554 59.0642 40.2009C59.2603 40.0891 59.2662 39.8828 59.308 39.6979C59.4436 39.0979 59.6704 38.5447 60.0816 38.0745C60.6546 37.4193 61.3878 37.1354 62.2535 37.1362C61.9608 36.6748 61.4477 36.5023 60.8065 36.6405C60.4039 36.7272 60.0556 36.9094 59.7894 37.2344C59.7168 37.3231 59.659 37.4489 59.5052 37.4179" fill="rgb(252,188,165)" fill-rule="evenodd" />
					<path id="Fill 577备份" d="M63.0025 41.4762C62.9759 41.3155 63.0821 41.2006 63.1485 41.0756C63.7412 39.9608 64.0061 38.766 64.0177 37.5112C64.024 36.8248 63.8964 36.1634 63.6011 35.5383C63.5686 35.4692 63.4873 35.3973 63.5734 35.3101C64.0766 36.176 64.1551 37.1263 64.0896 38.0929C64.0075 39.3066 63.703 40.4572 63.0025 41.4762" fill="rgb(142,116,105)" fill-rule="evenodd" />
					<path id="Fill 579备份" d="M61.033 43.1361C61.3803 42.8622 61.8039 42.7005 62.1275 42.3916C62.1692 42.4268 62.1703 42.4631 62.1306 42.5005C61.8131 42.7961 61.4593 43.0287 61.033 43.1361" fill="rgb(153,127,110)" fill-rule="evenodd" />
					<path id="Fill 581备份" d="M62.1305 42.5004C62.1294 42.4641 62.1285 42.4278 62.1274 42.3915C62.297 42.3171 62.3298 42.0438 62.5769 42.0817C62.4399 42.2337 62.3097 42.3932 62.1305 42.5004" fill="rgb(132,111,100)" fill-rule="evenodd" />
					<path id="Fill 597备份" d="M50.8206 23.9353C51.1967 24.2035 51.355 24.6212 51.5158 25.0191C51.9299 26.044 52.3092 27.0829 52.7063 28.1146C53.1456 29.2562 53.7427 30.3102 54.4813 31.2845C54.7356 31.62 54.7979 31.6129 54.9846 31.2269C55.2338 30.7117 55.3753 30.1571 55.5832 29.5501C56.2575 31.3047 57.2166 32.8887 57.4103 34.7469C57.5484 36.0717 57.3076 37.3621 57.0506 38.6505C56.8814 39.4989 56.6278 40.3215 56.2942 41.1201C55.6781 42.595 54.6795 43.7312 53.2993 44.5376C52.4633 45.0261 51.6216 45.0286 50.7559 44.6189C50.2274 44.3686 49.7247 44.0737 49.2265 43.7713C48.1492 43.1175 47.0043 42.6259 45.7886 42.2971C45.745 42.1078 45.9021 42.047 46.0115 41.9647C46.2847 41.7592 46.5421 41.5396 46.7385 41.256C46.8946 41.0306 46.9806 40.791 46.921 40.5045C46.7999 40.5457 46.7866 40.6397 46.7496 40.712C46.5644 41.0737 46.282 41.3496 45.912 41.4899C44.721 41.9415 43.5424 41.9589 42.404 41.3051C42.0828 41.1207 41.8469 40.8528 41.656 40.4961C41.4661 40.7788 41.6124 40.9776 41.7224 41.1637C41.9115 41.4835 42.2351 41.6758 42.4975 41.9264C42.5923 42.0169 42.7243 42.0752 42.7441 42.227C42.7349 42.2859 42.7105 42.3285 42.6415 42.3232C42.0084 42.4033 41.4223 42.6404 40.8389 42.878C39.9252 43.2502 39.0711 43.7431 38.2057 44.2122C38.1737 44.2295 38.1434 44.2501 38.1111 44.267C36.5314 45.0973 35.6313 45.2789 33.834 43.6757C32.8035 42.7566 32.3112 41.5261 31.9816 40.2239C31.7943 39.4834 31.644 38.7336 31.4769 37.988C31.3086 37.5802 31.3086 37.1408 31.2533 36.7143C31.1537 35.9471 31.095 35.1763 31.1706 34.4002C31.3262 32.8032 31.9273 31.4396 33.2191 30.4309C33.4394 30.2589 33.606 30.032 33.8184 29.8522C34.1081 29.4029 34.1431 28.8888 34.1541 28.3818C34.1749 27.4216 34.1524 26.4605 34.1647 25.5C34.1722 24.9159 34.2403 24.3368 34.38 23.7666C34.458 23.4481 34.6475 23.2658 34.9623 23.1863C35.6837 23.0043 36.3669 23.1465 37.0209 23.4445C37.9516 23.8686 38.8799 24.2998 39.8903 24.4972C42.5376 25.0145 45.1643 24.8429 47.7782 24.2425C48.5473 24.0658 49.2906 23.7816 50.0803 23.6919C50.3898 23.7201 50.4447 23.9802 50.5198 24.2011C50.6999 24.7306 50.6655 25.2868 50.6159 25.8246C50.497 27.1147 50.1344 28.3414 49.5064 29.4817C49.4365 29.6051 49.3468 29.7177 49.2887 29.8489C49.3407 29.7274 49.4267 29.6258 49.49 29.5102C50.1992 28.1844 50.6177 26.7822 50.6304 25.2689C50.6332 24.9419 50.6693 24.6153 50.6726 24.2874C50.6738 24.1551 50.6859 24.0165 50.8206 23.9353" fill="rgb(252,188,165)" fill-rule="evenodd" />
					<path id="Fill 601备份" d="M42.7131 42.2468C42.3773 42.0448 42.11 41.759 41.8168 41.5057C41.6 41.3185 41.4745 41.0666 41.4105 40.7874C41.3595 40.5649 41.4499 40.3802 41.6491 40.3114C41.9111 40.2207 41.7971 40.4907 41.8555 40.5897C42.1768 41.134 42.6991 41.3994 43.2676 41.5457C44.0814 41.7549 44.907 41.7322 45.7063 41.4423C46.1949 41.2651 46.5767 40.9642 46.7283 40.435C46.753 40.3489 46.7602 40.2099 46.8876 40.2312C47.0173 40.2529 47.0736 40.3738 47.0875 40.5044C47.1455 41.052 46.8313 41.4243 46.4721 41.7622C46.2622 41.9595 46.0175 42.1199 45.7885 42.2969C45.6126 42.327 45.4245 42.2735 45.2588 42.3742C45.1108 42.4973 44.9606 42.6175 44.8015 42.7264C44.3114 43.0616 43.9586 43.0667 43.4726 42.7247C43.2271 42.552 42.9892 42.3696 42.7131 42.2468" fill="rgb(223,132,104)" fill-rule="evenodd" />
					<path id="Fill 603备份" d="M29.5582 40.0582C29.4303 40.351 29.4983 40.678 29.3871 41.0064C29.1543 40.2113 29.0133 39.4168 28.6099 38.7013C28.1505 37.8863 27.5034 37.3313 26.6125 37.0591C26.2351 36.9438 25.8558 36.9182 25.4795 37.0982C25.632 36.6178 26.3378 36.3009 26.9596 36.4234C27.9608 36.6205 28.6771 37.1719 29.0841 38.1171C29.1548 38.2815 29.1999 38.4648 29.3453 38.5899C29.4661 39.0721 29.5147 39.5648 29.5582 40.0582" fill="rgb(223,132,104)" fill-rule="evenodd" />
					<path id="Fill 605备份" d="M59.5052 37.418C59.9832 36.4552 61.399 36.2328 62.0179 36.6766C62.0571 36.7047 62.1074 36.7202 62.1404 36.7535C62.2748 36.8893 62.5293 37.0116 62.4803 37.1904C62.4283 37.3805 62.1656 37.2672 61.9992 37.2721C60.8557 37.3056 59.8299 38.1798 59.5052 39.417C59.4501 39.6272 59.3965 39.8391 59.3635 40.0536C59.3311 40.2638 59.232 40.2898 59.0642 40.201C59.2317 39.2766 59.2811 38.3334 59.5052 37.418" fill="rgb(223,132,104)" fill-rule="evenodd" />
					<path id="Fill 607备份" d="M42.6948 46.5396C41.5238 47.0721 40.0392 47.7198 39.3003 47.5126C39.9767 47.3348 40.5957 47.1786 41.1913 46.9435C42.0318 46.6118 42.8439 46.2351 43.5407 45.6465C43.6149 45.5839 43.6898 45.521 43.7557 45.4499C44.1045 45.0734 44.0833 45.096 44.4576 45.417C45.7072 46.4887 47.1381 47.1977 48.7651 47.4941C48.8091 47.5021 48.8528 47.5127 48.8906 47.5449C47.6914 47.6426 46.6886 47.0979 45.6841 46.5583C45.175 46.5063 44.8552 46.135 44.4975 45.838C44.1845 45.5782 44.212 45.581 43.8953 45.8409C43.5357 46.1361 43.1899 46.471 42.6948 46.5396" fill="rgb(8,7,7)" fill-rule="evenodd" />
					<path id="Fill 609备份" d="M42.6948 46.5397C42.9873 46.3449 43.2847 46.1572 43.5706 45.9531C43.7991 45.79 44.0022 45.5969 44.1438 45.2903C44.5742 45.8326 45.1257 46.1999 45.6842 46.5583C45.2239 46.7548 44.7321 46.703 44.2529 46.7226C43.8541 46.7391 43.4527 46.7001 43.0529 46.6778C42.9227 46.6705 42.7832 46.6655 42.6948 46.5397" fill="rgb(243,182,155)" fill-rule="evenodd" />
					<path id="Fill 611备份" d="M50.8207 23.9351C50.8008 25.635 50.6341 27.3074 49.8817 28.8672C49.7608 29.1179 49.6187 29.3585 49.4864 29.6037C49.426 29.6205 49.3876 29.6162 49.4248 29.5395C50.1224 28.1376 50.5784 26.6749 50.5061 25.0885C50.4836 24.5928 50.4605 24.0844 50.0804 23.6917C50.0347 23.6578 49.9572 23.629 49.9507 23.5888C49.9395 23.5205 50.0275 23.5011 50.0756 23.5017C50.4029 23.5062 50.6879 23.5926 50.8207 23.9351" fill="rgb(25,22,21)" fill-rule="evenodd" />
					<path id="Fill 613备份" d="M33.8181 29.8519C33.7418 30.0546 33.5812 30.1863 33.4196 30.3144C31.6845 31.6899 31.0879 33.5376 31.2233 35.6728C31.2723 36.4466 31.3902 37.2162 31.4766 37.9877C31.4645 38.0328 31.4524 38.0778 31.4157 38.2134C31.1313 36.4838 30.8773 34.8461 31.3163 33.1901C31.6192 32.0481 32.237 31.1183 33.1695 30.3945C33.3518 30.253 33.5204 30.0957 33.6532 29.9042C33.6945 29.8447 33.7318 29.7704 33.8181 29.8519" fill="rgb(39,33,31)" fill-rule="evenodd" />
					<path id="Fill 615备份" d="M42.4785 49.3448C43.7612 49.9693 45.023 50.0542 46.2726 49.2681C45.8628 50.1598 43.2622 50.2673 42.4785 49.3448" fill="rgb(6,7,8)" fill-rule="evenodd" />
					<path id="Fill 617备份" d="M42.7131 42.2471C42.8928 42.2486 43.0541 42.2504 43.2155 42.3874C43.9671 43.0255 44.1812 43.028 44.9941 42.4872C45.0726 42.4349 45.1701 42.4113 45.2587 42.3744C44.802 43.0262 43.9989 43.292 43.3704 42.7948C43.1444 42.616 42.8853 42.4791 42.6414 42.3232C42.6653 42.2978 42.6892 42.2724 42.7131 42.2471" fill="rgb(12,9,7)" fill-rule="evenodd" />
					<path id="Fill 637备份" d="M54.6077 33.0516C53.2524 32.3269 51.8483 32.321 50.4311 32.4203C49.6779 32.4731 48.9383 32.6249 48.1949 32.7504C47.7539 32.8249 47.5455 32.6789 47.3954 32.2566C47.1352 31.5244 47.4702 30.8765 48.2201 30.7449C49.5223 30.5165 50.8327 30.4601 52.1401 30.708C53.4395 30.9543 54.2321 31.7491 54.6077 33.0516" fill="rgb(11,8,9)" fill-rule="evenodd" />
					<path id="Fill 639备份" d="M39.7664 32.6852C39.1514 32.6596 38.5598 32.4782 37.9416 32.4424C36.4859 32.358 35.0542 32.3512 33.7381 33.1127C33.7221 33.1219 33.6944 33.1108 33.6313 33.1062C33.9411 32.05 34.5222 31.2371 35.5815 30.8784C36.5053 30.5656 37.4629 30.4451 38.4412 30.6249C38.6169 30.6572 38.804 30.6284 38.9858 30.6277C39.0116 30.8038 38.8635 30.8342 38.7589 30.8526C38.1736 30.9558 37.7366 31.3415 37.1893 31.6424C37.4201 31.7621 37.6326 31.7825 37.8404 31.8007C38.5441 31.8621 39.2433 31.9377 39.8985 32.2316C40.0551 32.302 40.2276 32.3078 40.3971 32.327C40.5302 32.3422 40.701 32.3172 40.7322 32.5197C40.676 32.5715 40.62 32.6233 40.5638 32.6751C40.2988 32.741 40.0328 32.7266 39.7664 32.6852" fill="rgb(7,5,5)" fill-rule="evenodd" />
					<path id="Fill 641备份" d="M40.7321 32.52C39.6205 32.3366 38.5569 31.9061 37.4156 31.8749C37.3795 31.8739 37.3395 31.8745 37.3083 31.8597C37.1823 31.8 36.961 31.8293 36.9463 31.6764C36.9311 31.5183 37.1385 31.492 37.2687 31.4363C37.302 31.4221 37.3413 31.4152 37.3681 31.3931C37.8418 30.9991 38.4055 30.7962 38.9857 30.628C39.4381 30.6159 39.8757 30.7085 40.2976 30.8545C41.0176 31.1037 41.2197 31.9061 40.7321 32.52" fill="rgb(18,15,15)" fill-rule="evenodd" />
					<path id="Fill 643备份" d="M36.353 35.688C36.497 35.0115 37.2156 34.5867 38.1611 34.5612C39.0904 34.536 39.5852 34.8067 39.7637 35.4684C39.5314 35.355 39.4422 35.0807 39.161 35.0451C39.3421 35.6589 39.3551 36.2367 38.7431 36.6221C38.4223 36.8242 38.0695 36.851 37.7454 36.6269C37.1838 36.2386 37.1021 35.6919 37.3008 35.0547C36.8851 35.1136 36.7049 35.4793 36.353 35.688" fill="rgb(3,1,1)" fill-rule="evenodd" />
					<path id="Fill 645备份" d="M48.7661 35.5145C48.8839 34.9478 49.4758 34.5935 50.2598 34.5942C51.1149 34.595 51.8637 35.0518 51.9855 35.6809C51.6747 35.5459 51.5403 35.1833 51.1678 35.1319C51.1678 35.3341 51.1762 35.5235 51.1663 35.712C51.1334 36.3379 50.6119 36.8218 50.048 36.7564C49.4823 36.6909 49.1236 36.1055 49.256 35.4643C49.2753 35.3714 49.294 35.2783 49.316 35.1692C49.0855 35.2183 49.003 35.4563 48.7661 35.5145" fill="rgb(1,1,1)" fill-rule="evenodd" />
					<path id="Fill 647备份" d="M49.4246 29.5396C49.445 29.5609 49.4656 29.5823 49.4862 29.6036C49.406 29.8091 49.2652 29.9719 49.0615 30.0999C49.1825 29.9131 49.3036 29.7264 49.4246 29.5396" fill="rgb(122,74,60)" fill-rule="evenodd" />
					<path id="Fill 649备份" d="M39.7664 32.6871C40.0322 32.6832 40.2979 32.6792 40.5637 32.6753C40.2999 32.8606 40.0331 32.7745 39.7664 32.6871" fill="rgb(18,15,15)" fill-rule="evenodd" />
				</g>
			</g>
			<g id="编组 21">
				<path id="Fill 759备份" d="M47.2453 88.0861L41.2807 88.0861C40.976 87.9931 40.6633 88.0668 40.3555 88.0413C40.2051 88.0289 40.0401 88.091 39.9108 87.9608C39.7845 87.774 39.8221 87.5713 39.855 87.3694C40.2478 84.9557 40.7469 82.5624 41.2412 80.168C41.4884 78.9706 41.7785 77.7829 42.0382 76.5883C42.1103 76.2562 42.1502 75.8794 42.5686 75.7554C43.1962 75.8085 43.825 75.7674 44.4529 75.7826C44.704 75.7886 44.8809 75.8611 44.8755 76.1568C44.8446 77.8619 44.955 79.5664 44.9163 81.2716C44.9555 79.6556 44.8501 78.0402 44.8759 76.4241C44.8856 75.807 44.8999 75.787 45.5166 75.7805C45.9549 75.7759 46.3934 75.7948 46.8314 75.7617C47.2491 75.9815 47.334 76.1741 47.2559 76.7206C47.0652 77.0536 47.1784 77.4174 47.2221 77.7448C47.2786 78.1688 47.2579 78.5822 47.2454 79.0004C47.2045 80.375 47.4372 81.7224 47.6105 83.0788C47.7484 84.1581 47.885 85.2422 47.8672 86.3386C47.8573 86.9463 47.7083 87.4854 47.3328 87.9617C47.3067 88.0053 47.2776 88.0468 47.2453 88.0861" fill="rgb(93,128,145)" fill-rule="evenodd" />
				<path id="Fill 761备份" d="M47.1592 76.6992C47.1601 77.2718 47.3266 77.8225 47.4472 78.37C47.8251 80.0853 48.075 81.8213 48.3698 83.55C48.6074 84.9431 48.8067 86.3426 49.0231 87.7395C48.4558 87.9697 47.854 87.9726 47.257 88.0071C47.1954 87.9535 47.1641 87.8862 47.2215 87.8186C47.9173 86.9999 47.7134 86.0197 47.6462 85.0995C47.54 83.6432 47.3343 82.1937 47.1527 80.7435C47.0494 79.9176 47.0438 79.0992 47.1367 78.2703C47.1777 77.9054 47.0837 77.5216 47.0235 77.1509C46.9932 76.9643 46.9616 76.8051 47.1592 76.6992" fill="rgb(76,108,122)" fill-rule="evenodd" />
				<path id="Fill 763备份" d="M42.5174 75.8195C42.5061 75.7984 42.4989 75.7759 42.4956 75.7522C42.5215 75.505 42.724 75.5636 42.863 75.5634C43.3999 75.563 43.9349 75.5531 44.4735 75.6206C45.108 75.7003 45.745 75.4952 46.3863 75.5596C46.5952 75.5806 46.8354 75.5431 46.905 75.8304L46.9047 75.831C46.4046 75.9919 45.89 75.8985 45.3832 75.9014C45.0538 75.9033 44.9627 76.0088 44.9654 76.3324C44.978 77.8787 44.9668 79.4251 44.9624 80.9714C44.962 81.1128 44.9508 81.2543 44.8985 81.3958C44.8939 81.3106 44.8867 81.2255 44.8851 81.1404C44.857 79.5517 44.8195 77.963 44.8096 76.3743C44.8074 76.0197 44.715 75.8943 44.3428 75.8968C43.7349 75.9011 43.1187 75.9993 42.5174 75.8195" fill="rgb(47,79,94)" fill-rule="evenodd" />
				<path id="Fill 765备份" d="M29.3131 77.2218C28.7159 76.9213 28.1178 76.6222 27.5202 76.3222C27.0131 76.0674 26.5369 75.7604 26.0738 75.4327C25.8847 75.2988 25.762 75.1378 25.8043 74.8928C25.744 74.7088 25.7498 74.52 25.7716 74.3306C25.9989 72.3478 26.225 70.3652 26.383 68.3748C26.5696 66.0225 26.8635 63.6803 27.1059 61.3333C27.0967 61.158 27.2787 60.878 26.877 60.9185C26.6172 60.9526 26.3558 60.9774 26.0979 61.0224C24.6654 61.2719 23.23 61.5112 21.8706 62.0581C21.3468 62.1994 20.8533 62.4215 20.3678 62.655C18.1553 63.7188 16.3675 65.3161 14.8175 67.1823C13.1943 69.1362 11.7288 71.208 10.3984 73.3731C10.664 73.747 10.9346 74.1168 11.2813 74.4226C12.4185 75.6368 13.6081 76.798 14.8929 77.8554C16.6381 79.2916 18.4152 80.6868 20.3948 81.7983C20.4993 81.6688 20.4489 81.5164 20.4455 81.3766C20.418 80.2396 20.5154 79.1097 20.6295 77.9807C20.6343 77.9324 20.6403 77.8842 20.6463 77.836C20.6149 78.3965 20.5455 78.955 20.5049 79.5134C20.4474 80.301 20.4346 81.0806 20.499 81.8645C20.6929 81.9901 20.8829 82.1222 21.0813 82.2402C22.4468 83.0522 23.8824 83.7254 25.3282 84.3785C26.3222 84.8275 27.3264 85.2493 28.3824 85.5348C28.5359 85.3924 28.4945 85.2119 28.4669 85.0425C28.3242 84.1662 28.1937 83.2878 28.0317 82.4143C27.8333 81.669 27.825 80.8903 27.6413 80.1456C27.4899 79.5318 27.5619 79.0658 28.2129 78.8085C28.3855 78.7403 28.5044 78.5703 28.6774 78.4886C28.8073 78.3957 28.9567 78.3295 29.075 78.2231C29.3046 78.0164 29.6552 77.9312 29.736 77.5741C29.6652 77.3725 29.4795 77.3056 29.3131 77.2218" fill="rgb(61,56,60)" fill-rule="evenodd" />
				<path id="Fill 767备份" d="M20.3949 81.7985C20.2321 81.2249 20.3053 80.6372 20.3291 80.0604C20.3704 79.0634 20.4579 78.0668 20.7068 77.0913C20.8202 77.9204 20.6826 78.7464 20.6382 79.5679C20.601 80.2519 20.6017 80.9342 20.5837 81.6171C20.5814 81.7096 20.6554 81.8256 20.4991 81.8647C20.4644 81.8426 20.4296 81.8206 20.3949 81.7985" fill="rgb(26,23,24)" fill-rule="evenodd" />
				<path id="Fill 769备份" d="M60.5859 84.9156C60.8501 83.402 61.1136 81.8883 61.3796 80.3749C61.3996 80.2616 61.4368 80.1513 61.466 80.0396C61.7118 80.0819 61.696 80.285 61.6782 80.4443C61.5244 81.8154 61.3577 83.185 61.1718 84.5522C61.166 84.5952 61.1297 84.6277 61.1029 84.6621C60.9809 84.7498 60.8587 84.8374 60.7366 84.9251C60.6864 84.9219 60.6362 84.9187 60.5859 84.9156" fill="rgb(37,33,37)" fill-rule="evenodd" />
				<path id="Fill 787备份" d="M76.876 71.3912C77.1217 71.7032 77.3144 72.0448 77.4088 72.4351C77.4022 72.5302 77.4581 72.5883 77.5141 72.6463C77.5478 72.6812 77.5814 72.7162 77.6015 72.7591C77.5116 72.8747 77.4217 72.9903 77.3318 73.1057C77.3316 73.1117 77.3316 73.1181 77.3315 73.1245C77.3315 73.1491 77.3314 73.175 77.3178 73.19C76.673 73.9025 76.0848 74.6708 75.2939 75.2397L75.2916 75.2382C75.2233 75.41 75.0652 75.5071 74.9404 75.6275C73.1858 77.3211 71.2932 78.8475 69.2988 80.2497C69.2646 80.2737 69.2195 80.2824 69.1796 80.2983C68.9644 80.2317 68.9765 80.0524 68.9504 79.8759C68.9429 79.8254 68.9376 79.7747 68.9314 79.7241C68.9432 79.9742 68.9467 80.2274 68.9304 80.4813C67.782 81.3346 66.5393 82.0373 65.298 82.7409C64.1555 83.3886 62.9734 83.9583 61.7632 84.4682C61.722 84.4857 61.6808 84.5046 61.6396 84.5236C61.4711 84.6011 61.2999 84.6799 61.1028 84.662C60.9845 84.2175 61.0644 83.7856 61.1441 83.3542C61.1797 83.162 61.2152 82.9698 61.2332 82.7766C61.3095 81.9568 61.4361 81.1418 61.5378 80.3243C61.5504 80.2237 61.5487 80.1193 61.4658 80.0393C61.6626 79.4371 61.3341 79.1372 60.8561 78.8516C60.2113 78.4663 59.6094 78.0096 58.989 77.5835C59.1039 77.3626 59.334 77.3291 59.5358 77.2557C60.6668 76.8444 61.7142 76.271 62.7307 75.6342C63.0845 75.4127 63.1881 75.1106 63.1598 74.7068C63.0879 73.679 63.0146 72.6509 62.9363 71.6238C62.8612 70.639 62.7702 69.6552 62.7024 68.6695C62.6514 67.9305 62.5971 67.1913 62.54 66.4532C62.4459 65.2366 62.359 64.0194 62.3161 62.8008C62.3089 62.5997 62.2824 62.3992 62.2558 62.1987C62.2041 61.8082 62.1524 61.4178 62.2442 61.0225C65.8034 61.5507 69.0761 62.7087 71.6929 65.3083C71.7334 65.3486 71.7683 65.3943 71.8041 65.4393C71.9824 65.4227 72.0908 65.5396 72.1954 65.6525C72.2042 65.662 72.213 65.6715 72.2218 65.6809C73.0685 66.5826 73.8863 67.5056 74.6676 68.4687C75.4392 69.4196 76.121 70.4317 76.876 71.3912ZM68.8769 77.8014C68.8852 78.1238 68.8769 78.4908 68.8885 78.8764C68.8549 78.5001 68.8332 78.1384 68.8769 77.8014Z" fill="rgb(61,56,60)" fill-rule="evenodd" />
				<path id="Fill 789备份" d="M68.9304 80.4816C68.6933 80.0802 68.8273 79.6295 68.7897 79.2068C68.7235 78.462 68.7711 77.7072 68.8697 76.9446C68.9125 77.3576 68.974 77.7697 68.9942 78.1838C69.0288 78.8915 68.9335 79.6094 69.1795 80.2985C69.0965 80.3595 69.0134 80.4206 68.9304 80.4816" fill="rgb(26,23,24)" fill-rule="evenodd" />
				<path id="Fill 791备份" d="M41.5862 71.1225C40.8722 71.8302 40.2644 72.6299 39.6133 73.392C38.8486 74.287 38.0498 75.1525 37.3001 76.06C37.1721 76.2149 36.9632 76.3636 37.0792 76.61C37.0746 76.6107 37.0701 76.6119 37.0655 76.6124C36.6146 76.645 36.428 76.9755 36.259 77.3259C36.4968 78.379 36.7346 79.4322 36.9725 80.4855C36.9653 80.279 37.0334 80.0974 37.1547 79.9332L37.1547 79.9331C37.71 79.1495 38.2738 78.3716 38.819 77.5811C39.9027 76.0094 40.976 74.4307 42.0536 72.855C42.0384 72.2015 41.8934 71.5644 41.8082 70.9197C41.7057 70.9563 41.6577 71.0516 41.5862 71.1225" fill="rgb(233,225,223)" fill-rule="evenodd" />
				<path id="Fill 793备份" d="M52.4609 77.1081C50.9516 75.3717 49.5252 73.5671 48.0679 71.7878C47.8419 71.512 47.6119 71.2662 47.628 70.8794C47.632 70.7841 47.5878 70.6758 47.4566 70.6614C47.3922 71.6228 47.3277 72.5841 47.2632 73.5455C47.3523 73.5596 47.2814 73.2228 47.4752 73.4537C47.6521 73.6646 47.8627 73.849 48.0281 74.0679C49.0674 75.4441 50.1097 76.8161 51.2345 78.1265C51.5796 78.5284 52.0517 78.832 52.2593 79.3493C52.3969 78.728 52.5347 78.1067 52.6724 77.4854C52.5856 77.3691 52.5601 77.2223 52.4609 77.1081" fill="rgb(233,225,223)" fill-rule="evenodd" />
				<path id="Fill 795备份" d="M25.7502 75.0381C27.0759 75.7606 28.3978 76.4902 29.7299 77.2007C30.0595 77.3765 29.9318 77.4663 29.7088 77.5806C28.6132 76.9996 27.4597 76.529 26.4158 75.8485C26.158 75.6804 25.9017 75.5155 25.6978 75.2816C25.6061 75.1765 25.5551 75.0811 25.7502 75.0381" fill="rgb(33,29,32)" fill-rule="evenodd" />
				<path id="Fill 797备份" d="M37.8966 84.8363C37.5993 83.3838 37.1995 81.9529 36.9725 80.4856C36.9972 79.3853 36.659 78.3495 36.4044 77.2989C36.3274 77.018 36.2874 76.7293 36.2202 76.4459C35.4535 73.2093 34.5722 70.0003 33.879 66.7459C33.4476 64.7205 32.9146 62.7172 32.5462 60.678C32.4276 60.4921 32.5264 60.2337 32.341 60.0703C30.5066 60.2693 28.7012 60.6542 26.8771 60.9187C27.1134 60.9816 26.9357 61.167 26.9856 61.2849C26.9599 61.3525 26.9184 61.4184 26.9108 61.4881C26.731 63.1521 26.5289 64.8143 26.3839 66.4815C26.1492 69.1792 25.8992 71.875 25.5615 74.5618C25.5331 74.7874 25.5825 74.9204 25.7503 75.0381C25.7936 75.2387 25.9722 75.2971 26.1213 75.3801C27.2038 75.9831 28.2987 76.564 29.377 77.1744C29.5366 77.2647 29.7371 77.3324 29.7089 77.5806C29.353 77.8399 28.9971 78.099 28.6412 78.3583C28.2829 78.5822 27.9272 78.8106 27.5649 79.0281C27.3908 79.1327 27.3423 79.2552 27.3794 79.4625C27.5538 80.4361 27.7089 81.4131 27.8708 82.3889L27.8708 82.3889L27.8708 82.3889C28.0414 83.4376 28.212 84.4863 28.3825 85.5349C28.5057 85.589 28.629 85.643 28.7523 85.6971L28.7524 85.697C30.5708 86.335 32.437 86.799 34.3209 87.1898C35.5896 87.4531 36.8638 87.6959 38.1556 87.8253C38.298 87.8396 38.4953 87.9348 38.4934 87.6538C38.294 86.7146 38.0891 85.7767 37.8966 84.8363" fill="rgb(130,122,132)" fill-rule="evenodd" />
				<path id="Fill 799备份" d="M63.185 74.5153C63.131 74.3667 63.1711 74.1965 63.1636 74.0365C63.1386 73.4994 63.0888 72.9636 63.0448 72.4283C62.9784 71.6198 62.8797 70.813 62.8213 70.0042C62.7597 69.151 62.6856 68.2981 62.6179 67.446C62.5283 66.3183 62.4505 65.1902 62.379 64.0615C62.364 63.8272 62.3716 63.594 62.2257 63.3923C62.214 63.3792 62.2015 63.3678 62.1889 63.3568C62.3156 63.2373 62.326 63.076 62.3199 62.9136C62.2956 62.2776 62.2062 61.6464 62.1734 61.0108C62.0617 60.9831 61.9513 60.9471 61.838 60.929C60.0673 60.6446 58.2961 60.3626 56.5253 60.0801C56.4482 60.3879 56.3708 60.6959 56.2933 61.004C56.1332 62.2147 55.8578 63.4028 55.608 64.5964C55.3627 65.7677 55.0123 66.9172 54.8732 68.1105C54.8733 68.1112 54.8735 68.1122 54.8736 68.113C54.8536 68.1141 54.8294 68.1079 54.8022 68.1032C54.4919 68.3878 54.5498 68.7978 54.4621 69.1561C54.3241 69.7196 54.2977 70.3066 54.1163 70.8624C53.9728 71.3531 53.921 71.8624 53.8027 72.3593C53.3973 74.0625 52.9108 75.7458 52.5491 77.4594C52.3904 78.08 52.1624 78.6898 52.2594 79.3493C52.2347 79.5072 52.2197 79.6672 52.1838 79.8224C51.5865 82.402 50.9867 84.981 50.3875 87.5602C50.5055 87.706 50.6543 87.6394 50.7919 87.6117C52.0962 87.3496 53.4031 87.105 54.6945 86.7754C56.6945 86.265 58.66 85.6555 60.5858 84.9157C60.7252 84.8004 60.8135 84.6608 60.8442 84.476C60.9202 84.0195 60.9841 83.5609 61.0545 83.1037C61.2087 82.1026 61.3815 81.1053 61.5809 80.1119C61.7732 79.5283 61.6041 79.1056 61.0526 78.8101C60.7218 78.6328 60.4168 78.405 60.1101 78.1861C59.7829 77.9523 59.4039 77.7856 59.145 77.4583C59.152 77.2412 59.3531 77.2415 59.483 77.173C60.5035 76.6349 61.5689 76.1891 62.5956 75.6632C63.0588 75.4259 63.3954 75.0939 63.185 74.5153" fill="rgb(130,122,132)" fill-rule="evenodd" />
				<path id="Fill 801备份" d="M62.1567 63.3859C62.2109 62.682 62.0711 61.9865 62.0634 61.2852C62.0622 61.174 62.0077 61.0512 62.1734 61.0109C62.1995 61.0003 62.2231 61.0043 62.2443 61.0228C62.4617 61.2664 62.3318 61.5772 62.3881 61.8531C62.4861 62.3329 62.4862 62.8348 62.5049 63.3282C62.574 65.1582 62.712 66.9836 62.8342 68.8104C62.9029 69.8393 62.9878 70.8682 63.0381 71.899C63.0897 72.9584 63.2186 74.0131 63.214 75.0766C63.2127 75.3522 63.1415 75.5734 62.9172 75.7154C61.6837 76.4958 60.431 77.2388 58.9892 77.5839C58.54 77.3718 58.8436 77.2714 59.0548 77.1696C60.2248 76.6055 61.3928 76.0368 62.5698 75.4873C62.977 75.2972 63.1313 75.0705 63.0803 74.576C62.8805 72.6352 62.7484 70.6875 62.5908 68.7424C62.4463 66.9569 62.3015 65.1714 62.1567 63.3859" fill="rgb(32,29,32)" fill-rule="evenodd" />
				<path id="Fill 827备份" d="M42.1594 72.8637C41.8569 72.7343 41.7811 72.9976 41.6704 73.1619C40.7686 74.5007 39.8521 75.8292 38.9361 77.1584C38.301 78.0801 37.6148 78.9662 37.0154 79.9118C36.8721 80.0861 36.854 80.301 36.8249 80.5118C36.8137 80.6586 36.834 80.8031 36.8637 80.946C37.3007 83.0434 37.8115 85.1249 38.2299 87.2264C38.2636 87.3958 38.3054 87.5732 38.4934 87.6538C38.6852 87.9387 39.4408 88.0669 39.9438 87.8997C40.571 83.9968 41.3975 80.1339 42.2839 76.2831C42.3244 76.1075 42.4072 75.9577 42.5173 75.8195C42.5474 75.778 42.5635 75.7316 42.5652 75.6802C42.4956 75.0461 42.4385 74.4107 42.3503 73.7792C42.3074 73.4709 42.4072 73.1302 42.1594 72.8637" fill="rgb(254,253,253)" fill-rule="evenodd" />
				<path id="Fill 829备份" d="M48.2673 74.1322C48.0929 73.8986 47.905 73.6775 47.6943 73.4764C47.3828 73.179 47.3361 73.1907 47.1189 73.6055C47.0001 74.3201 46.8824 75.0348 46.8871 75.7627C46.8932 75.7855 46.8989 75.8083 46.9047 75.8312C47.0851 76.0926 47.1902 76.3761 47.1593 76.6994C47.0776 76.8136 47.0634 76.9387 47.0908 77.0742C47.2577 77.8999 47.3475 78.7378 47.506 79.5661C47.983 82.0583 48.3497 84.5697 48.759 87.0737C48.7974 87.3081 48.7775 87.5808 49.0231 87.7398C49.505 87.8852 49.9472 87.7302 50.3875 87.5601C50.6458 87.4246 50.6516 87.1562 50.7085 86.9236C51.1711 85.0312 51.6048 83.132 52.0459 81.2345C52.187 80.6279 52.382 80.0285 52.3907 79.3958C52.3709 79.1806 52.2566 79.0125 52.1149 78.8635C50.7102 77.3854 49.4847 75.762 48.2673 74.1322" fill="rgb(254,253,253)" fill-rule="evenodd" />
				<path id="Fill 831备份" d="M56.2933 61.0037C55.9818 61.2492 55.8447 61.6263 55.5953 61.9216C54.3251 63.4252 52.7867 64.5868 51.0588 65.5095C49.7503 66.2081 48.3897 66.7576 46.8949 66.9043C46.4684 67.0875 45.9961 66.8749 45.5694 67.0571C44.0672 67.0448 42.5654 67.1131 41.0724 66.8176C40.0509 66.6154 39.1477 66.1497 38.2147 65.74L38.2145 65.7398C38.1416 65.6921 38.0705 65.6413 37.9956 65.597C36.1455 64.5019 34.4992 63.1742 33.2251 61.4233C32.9737 61.0778 32.7368 60.7216 32.4571 60.3184C32.425 60.48 32.4084 60.5636 32.3918 60.6477C32.4447 60.9936 32.4776 61.3436 32.5537 61.6839C32.9486 63.4472 33.367 65.2054 33.7542 66.9705C34.5154 70.4401 35.4391 73.8704 36.259 77.3258C36.5279 77.088 36.7967 76.8502 37.0655 76.6124C37.411 76.1079 37.8277 75.6633 38.2367 75.2111C39.3753 73.9523 40.3951 72.5901 41.5775 71.3693C41.7027 71.2401 41.813 71.1115 41.8083 70.9197C41.8046 70.6082 41.801 70.2966 41.7974 69.9851C41.6479 69.5744 41.9483 69.1973 41.8867 68.7931C41.8065 68.2671 41.9963 67.8936 42.4996 67.6867C42.6194 67.6375 42.7278 67.5587 42.789 67.4346C42.7885 67.4327 42.7878 67.4313 42.7873 67.4296C42.9589 67.5861 43.1637 67.5144 43.3541 67.4888C44.2729 67.365 45.1864 67.3702 46.0977 67.5556C46.2989 67.5966 46.5135 67.6791 46.7008 67.516C46.7964 67.7884 47.0423 67.7441 47.2618 67.7551C47.4696 67.9119 47.6853 68.0646 47.589 68.38C47.4888 68.7383 47.6146 69.1112 47.5179 69.4698C47.6242 69.8735 47.3348 70.2568 47.4567 70.6613C47.5638 70.8218 47.4988 71.001 47.5107 71.1716C47.5198 71.3001 47.506 71.4222 47.6118 71.5345C48.916 72.9188 49.9865 74.4977 51.2548 75.9117C51.7261 76.4372 52.0956 77.0546 52.6724 77.4853C53.0278 76.0877 53.3915 74.6922 53.7356 73.2919C53.9287 72.5058 54.0898 71.7119 54.2654 70.9215C54.2807 70.8859 54.291 70.8534 54.2975 70.8232C54.3226 70.7484 54.3479 70.6737 54.3648 70.5971C54.5464 69.7707 54.6197 68.9223 54.8731 68.1105C55.0413 67.8751 55.0222 67.5858 55.0995 67.3242C55.6609 65.424 56.0386 63.4829 56.3884 61.5357C56.4221 61.349 56.4554 61.1576 56.2933 61.0037" fill="rgb(254,253,253)" fill-rule="evenodd" />
				<path id="Fill 839备份" d="M47.2689 67.7111C47.2461 67.7158 47.2261 67.7223 47.2072 67.7295C47.0446 67.6529 46.8822 67.5762 46.7196 67.4996C45.4101 67.1799 44.095 67.1159 42.7723 67.4163C42.5252 67.5327 42.2693 67.6338 42.0341 67.7705C41.8654 67.8684 41.6736 67.9755 41.6849 68.2238C41.7043 68.6534 41.6846 69.0854 41.7245 69.5137C41.6325 69.6259 41.6934 69.875 41.6361 70.0309C41.6296 70.3299 41.6202 70.6295 41.671 70.9265C41.7213 71.1075 41.7292 71.2925 41.7468 71.4787C41.7909 71.9467 41.7757 72.4363 42.0536 72.8552C42.2111 73.3685 42.14 73.9089 42.241 74.4285C42.3267 74.8696 42.2382 75.3443 42.4955 75.7524C42.5495 75.7409 42.6032 75.7214 42.6576 75.7192C43.6167 75.6817 44.5692 75.87 45.5356 75.7609C45.9804 75.7108 46.4591 75.6232 46.9048 75.8307C47.0509 75.7007 47.0355 75.5163 47.0562 75.3497C47.1311 74.7491 47.1952 74.1471 47.2633 73.5457C47.3774 73.1316 47.4976 72.7271 47.5428 72.2884C47.5983 71.7506 47.4639 71.2132 47.5918 70.6834C47.5919 70.2672 47.72 69.8605 47.6782 69.4415C47.6089 69.091 47.6283 68.7439 47.7172 68.3998C47.7392 68.0587 47.6474 67.7923 47.2689 67.7111" fill="rgb(98,133,149)" fill-rule="evenodd" />
			</g>
		</g>
	</g>
</svg>
