<svg viewBox="0 0 64 64" xmlns="http://www.w3.org/2000/svg" xmlns:xlink="http://www.w3.org/1999/xlink" width="64.000000" height="64.000000" fill="none">
	<defs>
		<clipPath id="clipPath_5">
			<rect width="55.999996" height="56.000000" x="4.000000" y="4.000000" fill="rgb(255,255,255)" />
		</clipPath>
	</defs>
	<rect id="产品图标/Chatapt-64" width="63.999992" height="63.999992" x="0.000000" y="0.000000" />
	<g id="Chatapt" clip-path="url(#clipPath_5)" customFrame="url(#clipPath_5)">
		<rect id="Chatapt" width="55.999996" height="56.000000" x="4.000000" y="4.000000" />
		<path id="矢量 844" d="M7.29752 41.5078C7.29244 40.0927 7.49408 38.7072 7.92238 37.3577C7.98714 37.1538 7.95898 37.0211 7.81521 36.8534C5.98154 34.715 4.83328 32.2558 4.50041 29.4537C3.92942 24.6471 5.44378 20.5592 8.91107 17.2127C10.7185 15.4683 12.9026 14.3701 15.3544 13.8178C15.5531 13.773 15.6318 13.6698 15.6928 13.4955C16.5121 11.1523 17.8331 9.13964 19.7104 7.51081C22.344 5.22575 25.4076 4.05446 28.9011 4.00173C30.7488 3.97385 32.5314 4.28284 34.2483 4.95736C36.2143 5.72964 37.9243 6.88697 39.3583 8.43981C39.5304 8.62611 39.6871 8.66226 39.9216 8.6195C43.0304 8.05284 46.02 8.43804 48.8442 9.85612C52.017 11.4492 54.2646 13.9259 55.6414 17.1969C56.351 18.8828 56.6875 20.6482 56.6994 22.4677C56.7088 23.8878 56.5048 25.2882 56.0606 26.6439C55.9959 26.8413 56.0321 26.9665 56.1661 27.1235C58.1973 29.5015 59.3518 32.2435 59.5775 35.3712C59.766 37.9824 59.2758 40.4623 58.0807 42.7842C56.3588 46.1298 53.7286 48.4665 50.167 49.7231C49.6672 49.8995 49.1516 50.0356 48.6362 50.1605C48.4512 50.2053 48.3688 50.2857 48.3105 50.4558C47.5866 52.567 46.4349 54.4159 44.8332 55.968C42.6631 58.0709 40.0805 59.3638 37.0859 59.8265C34.7102 60.1936 32.3878 59.979 30.1283 59.1745C27.9797 58.4095 26.128 57.1772 24.58 55.4988C24.4477 55.3553 24.3304 55.316 24.1382 55.353C21.5404 55.8537 18.9891 55.6636 16.5176 54.7239C12.7929 53.3078 10.1293 50.7447 8.4899 47.1192C7.68454 45.3381 7.30196 43.4617 7.29752 41.5078ZM35.771 10.0814C35.6899 10.0232 35.6355 9.98741 35.5847 9.94705C33.989 8.67873 32.1728 7.93221 30.1505 7.72664C27.4475 7.45192 24.9765 8.11737 22.809 9.7559C20.0954 11.8072 18.6453 14.5669 18.597 17.9673C18.5356 22.2892 18.5837 26.6127 18.5777 30.9356C18.5774 31.1545 18.6486 31.2792 18.8377 31.3868C19.9429 32.0156 21.0412 32.6567 22.1427 33.2923C22.5404 33.5217 22.9404 33.7472 23.3724 33.9933C23.3724 33.8266 23.3724 33.7132 23.3724 33.5998C23.3747 28.5074 23.376 23.415 23.3805 18.3227C23.3812 17.6095 23.6897 17.0647 24.3123 16.7047C27.2128 15.0274 30.113 13.3496 33.0135 11.6725C33.9163 11.1504 34.8201 10.6299 35.771 10.0814ZM34.5796 23.5128C34.7341 23.6048 34.8525 23.6773 34.9729 23.7465C35.5656 24.0869 36.1599 24.4248 36.7518 24.7667C40.4663 26.9125 44.1731 29.0717 47.8999 31.1959C48.73 31.6691 49.0941 32.3019 49.0887 33.2496C49.0669 37.0591 49.0784 40.8688 49.0777 44.6784C49.0776 45.1709 49.0777 45.6634 49.0777 46.1946C49.2168 46.1462 49.3252 46.1169 49.4266 46.0721C53.0247 44.4859 55.243 41.765 55.802 37.876C56.3816 33.8436 54.9594 30.5085 51.7382 28.0146C50.7396 27.2415 49.5893 26.6601 48.4908 26.0213C45.5372 24.3035 42.5731 22.6039 39.6174 20.8898C39.4237 20.7774 39.278 20.7882 39.0949 20.8972C38.4834 21.2613 37.8638 21.612 37.2478 21.9683C36.3718 22.475 35.4961 22.9822 34.5796 23.5128ZM52.8817 24.3128C52.9261 23.6854 52.9982 23.1388 52.9976 22.5922C52.9951 20.2076 52.2792 18.0565 50.8277 16.1579C48.1978 12.718 43.6915 11.2522 39.5475 12.4744C38.2202 12.8659 37.0564 13.5821 35.8737 14.2644C32.6438 16.1275 29.4154 17.9932 26.1823 19.8508C25.9992 19.956 25.9334 20.074 25.9342 20.2793C25.9406 21.9414 25.9375 23.6035 25.9387 25.2656C25.9387 25.3354 25.9518 25.4051 25.9623 25.5096C26.4115 25.2496 26.8285 25.008 27.2459 24.7669C31.2804 22.4372 35.3179 20.1123 39.3473 17.7736C40.104 17.3344 40.8232 17.3127 41.5725 17.7711C42.2278 18.172 42.8985 18.548 43.5639 18.9323C45.9797 20.3275 48.3963 21.7214 50.8123 23.116C51.4764 23.4994 52.1399 23.8838 52.8817 24.3128ZM38.044 38.476C37.9271 38.538 37.8613 38.5701 37.798 38.6067C35.7596 39.7838 33.722 40.9624 31.6831 42.1385C29.2905 43.5186 26.8945 44.8928 24.505 46.2781C23.8599 46.6521 23.2244 46.6506 22.586 46.2947C22.0221 45.9804 21.4687 45.6476 20.9097 45.3247C18.2385 43.7814 15.5672 42.2384 12.8954 40.6961C12.3234 40.3659 11.7494 40.039 11.1537 39.6976C11.1354 39.775 11.1224 39.818 11.1153 39.8618C10.8285 41.6247 11.0175 43.3419 11.6184 45.0176C13.0484 49.0052 16.8078 51.7542 21.038 51.9157C23.0527 51.9926 24.9381 51.5472 26.6871 50.5413C28.6947 49.3868 30.6996 48.2277 32.7056 47.0704C34.3832 46.1026 36.0584 45.1307 37.7405 44.171C37.9657 44.0425 38.0591 43.8997 38.0507 43.6343C38.0302 42.9889 38.044 42.3424 38.044 41.6963C38.044 40.6426 38.044 39.5889 38.044 38.476ZM29.3975 40.4716C29.292 40.4042 29.2234 40.3568 29.1515 40.3149C28.5447 39.9616 27.938 39.608 27.3299 39.2569C23.5496 37.0747 19.7724 34.887 15.9853 32.7167C15.2398 32.2896 14.8949 31.6901 14.8966 30.8372C14.9051 26.6106 14.8993 22.3839 14.8985 18.1574C14.8985 18.0467 14.8985 17.9361 14.8985 17.8011C14.8153 17.8228 14.7686 17.8273 14.7289 17.8465C14.1917 18.1064 13.623 18.3178 13.1242 18.6381C9.71107 20.8297 7.95259 23.9594 8.10099 28.024C8.23952 31.8191 10.042 34.7273 13.2929 36.6634C16.9773 38.8577 20.7129 40.966 24.432 43.1018C24.5361 43.1616 24.7335 43.1601 24.8389 43.1009C25.9971 42.4505 27.1462 41.7837 28.2966 41.1195C28.655 40.9125 29.01 40.6998 29.3975 40.4716ZM40.6391 29.9971C40.6331 30.1296 40.6259 30.2137 40.6259 30.2977C40.6251 32.9005 40.6246 35.5032 40.6246 38.1059C40.6246 40.5946 40.6262 43.0834 40.6251 45.5722C40.6247 46.3608 40.2954 46.9542 39.5919 47.3404C38.96 47.6873 38.3398 48.0556 37.7156 48.4164C34.9056 50.0405 32.0959 51.6652 29.2863 53.29C28.9455 53.4872 28.6061 53.6869 28.2461 53.8971C28.3251 53.9659 28.3664 54.0044 28.4103 54.0397C29.5363 54.944 30.7942 55.6005 32.1935 55.9504C35.6786 56.8221 38.8567 56.1562 41.6268 53.867C44.0307 51.8803 45.3306 49.2669 45.3834 46.151C45.4576 41.7637 45.4 37.3742 45.4048 32.9856C45.405 32.7936 45.3289 32.6936 45.1721 32.6073C44.7648 32.383 44.3638 32.1473 43.9611 31.9149C42.8693 31.285 41.7778 30.6545 40.6391 29.9971ZM25.9377 31.9786C25.9377 33.0044 25.951 34.0306 25.9298 35.056C25.9233 35.3685 26.0143 35.5389 26.2922 35.6961C28.1089 36.724 29.9165 37.7683 31.7182 38.8223C31.9297 38.946 32.0733 38.9448 32.2778 38.8254C34.1049 37.7583 35.9359 36.6978 37.7727 35.6476C37.9716 35.5338 38.0505 35.4191 38.0494 35.1873C38.0396 33.0407 38.0401 30.894 38.0468 28.7474C38.0474 28.5615 37.9931 28.4526 37.8341 28.3613C35.9574 27.2841 34.0824 26.2041 32.2109 25.1179C32.0461 25.0223 31.924 25.0413 31.7685 25.1315C29.8971 26.2175 28.0234 27.2996 26.1461 28.3755C25.9828 28.469 25.932 28.5751 25.9335 28.7585C25.9423 29.8318 25.9379 30.9052 25.9377 31.9786Z" fill="rgb(0,0,0)" fill-rule="nonzero" />
	</g>
</svg>
