<svg viewBox="0 0 16 16" xmlns="http://www.w3.org/2000/svg" xmlns:xlink="http://www.w3.org/1999/xlink" width="16.000000" height="16.000000" fill="none">
	<defs>
		<clipPath id="clipPath_8">
			<rect width="14.000000" height="14.000000" x="1.000000" y="1.000000" fill="rgb(255,255,255)" />
		</clipPath>
	</defs>
	<rect id="产品图标/Chatapt-16" width="15.999999" height="15.999998" x="0.000000" y="0.000000" />
	<g id="Chatapt" clip-path="url(#clipPath_8)" customFrame="url(#clipPath_8)">
		<rect id="Chatapt" width="14.000000" height="14.000000" x="1.000000" y="1.000000" />
		<path id="矢量 844" d="M1.82438 10.3769C1.82311 10.0232 1.87352 9.6768 1.9806 9.33944C1.99679 9.28844 1.98975 9.25527 1.9538 9.21335C1.49539 8.67874 1.20832 8.06394 1.1251 7.36342C0.982355 6.16178 1.36095 5.13979 2.22777 4.30318C2.67963 3.86707 3.22565 3.59253 3.83859 3.45445C3.88829 3.44324 3.90795 3.41746 3.92319 3.37387C4.12803 2.78806 4.45828 2.28491 4.9276 1.8777C5.586 1.30644 6.35189 1.01362 7.22529 1.00043C7.68721 0.993463 8.13284 1.07071 8.56208 1.23934C9.05358 1.43241 9.48108 1.72174 9.83958 2.10995C9.88259 2.15653 9.92178 2.16556 9.9804 2.15487C10.7576 2.01321 11.505 2.10951 12.2111 2.46403C13.0043 2.8623 13.5662 3.48148 13.9103 4.29922C14.0878 4.72071 14.1719 5.16205 14.1749 5.61693C14.1772 5.97195 14.1262 6.32204 14.0152 6.66097C13.999 6.71032 14.008 6.74163 14.0415 6.78087C14.5493 7.37536 14.838 8.06087 14.8944 8.8428C14.9415 9.4956 14.819 10.1156 14.5202 10.6961C14.0897 11.5324 13.4321 12.1166 12.5417 12.4308C12.4168 12.4749 12.2879 12.5089 12.159 12.5401C12.1128 12.5513 12.0922 12.5714 12.0776 12.6139C11.8967 13.1417 11.6087 13.604 11.2083 13.992C10.6658 14.5177 10.0201 14.841 9.27148 14.9566C8.67754 15.0484 8.09695 14.9947 7.53208 14.7936C6.99492 14.6024 6.532 14.2943 6.14501 13.8747C6.11192 13.8388 6.0826 13.829 6.03456 13.8383C5.38509 13.9634 4.74727 13.9159 4.12939 13.681C3.19822 13.327 2.53234 12.6862 2.12248 11.7798C1.92114 11.3345 1.82549 10.8654 1.82438 10.3769ZM8.94275 2.52034C8.92249 2.50579 8.90886 2.49685 8.89616 2.48676C8.49725 2.16968 8.0432 1.98305 7.53763 1.93166C6.86189 1.86298 6.24413 2.02934 5.70224 2.43897C5.02385 2.95179 4.66132 3.64172 4.64925 4.49182C4.6339 5.57231 4.64592 6.65319 4.64443 7.7339C4.64436 7.78863 4.66214 7.8198 4.70942 7.84669C4.98574 8.00391 5.2603 8.16419 5.53568 8.32307C5.6351 8.38043 5.73511 8.4368 5.84311 8.49833C5.84311 8.45665 5.8431 8.42829 5.84311 8.39994C5.84368 7.12685 5.84399 5.85376 5.84513 4.58068C5.84529 4.40236 5.92244 4.26617 6.07808 4.17617C6.8032 3.75685 7.52824 3.33739 8.25337 2.91811C8.47908 2.78759 8.70503 2.65749 8.94275 2.52034ZM8.6449 5.8782C8.68353 5.90119 8.71313 5.91933 8.74323 5.93662C8.8914 6.02174 9.03998 6.10619 9.18796 6.19168C10.1166 6.72814 11.0433 7.26793 11.975 7.79898C12.1825 7.91727 12.2735 8.07547 12.2722 8.31241C12.2667 9.26478 12.2696 10.2172 12.2694 11.1696C12.2694 11.2927 12.2694 11.4158 12.2694 11.5486C12.3042 11.5366 12.3313 11.5292 12.3567 11.518C13.2562 11.1215 13.8107 10.4413 13.9505 9.469C14.0954 8.4609 13.7398 7.62713 12.9345 7.00366C12.6849 6.81039 12.3973 6.66503 12.1227 6.50532C11.3843 6.07586 10.6433 5.65098 9.90434 5.22244C9.85593 5.19436 9.8195 5.19704 9.77372 5.22431C9.62085 5.31533 9.46596 5.403 9.31194 5.49209C9.09294 5.61876 8.87402 5.74556 8.6449 5.8782ZM13.2204 6.0782C13.2315 5.92134 13.2495 5.7847 13.2494 5.64806C13.2488 5.0519 13.0698 4.51411 12.7069 4.03946C12.0495 3.1795 10.9229 2.81306 9.88687 3.11861C9.55505 3.21648 9.26411 3.39553 8.96842 3.5661C8.16095 4.03188 7.35384 4.49829 6.54556 4.9627C6.4998 4.98899 6.48334 5.01851 6.48354 5.06983C6.48515 5.48535 6.48438 5.90086 6.48466 6.3164C6.48468 6.33384 6.48794 6.35129 6.49057 6.3774C6.60287 6.31241 6.70713 6.25199 6.81146 6.19173C7.82011 5.6093 8.82947 5.02808 9.83681 4.44341C10.026 4.3336 10.2058 4.32818 10.3931 4.44277C10.557 4.543 10.7246 4.63701 10.891 4.73308C11.4949 5.08187 12.0991 5.43035 12.7031 5.77901C12.8691 5.87484 13.035 5.97094 13.2204 6.0782ZM9.51101 9.619C9.48177 9.6345 9.46532 9.64254 9.4495 9.65167C8.93989 9.94595 8.43051 10.2406 7.92077 10.5346C7.32263 10.8797 6.72363 11.2232 6.12624 11.5695C5.96498 11.663 5.80611 11.6626 5.64649 11.5737C5.50554 11.4951 5.36718 11.4119 5.22742 11.3312C4.55962 10.9454 3.89179 10.5596 3.22384 10.174C3.08084 10.0915 2.93735 10.0098 2.78843 9.9244C2.78385 9.94375 2.7806 9.9545 2.77882 9.96546C2.70714 10.4062 2.75437 10.8355 2.9046 11.2544C3.2621 12.2513 4.20195 12.9385 5.25949 12.9789C5.76317 12.9981 6.23453 12.8868 6.67178 12.6353C7.17368 12.3467 7.67491 12.0569 8.17641 11.7676C8.59579 11.5256 9.0146 11.2827 9.43513 11.0428C9.49143 11.0106 9.51479 10.9749 9.51268 10.9086C9.50755 10.7472 9.511 10.5856 9.511 10.4241C9.51101 10.1607 9.51101 9.89723 9.51101 9.619ZM7.34936 10.1179C7.32301 10.1011 7.30585 10.0892 7.28788 10.0787C7.13617 9.9904 6.98451 9.90199 6.83247 9.81423C5.88739 9.26868 4.94311 8.72174 3.99632 8.17918C3.80996 8.07239 3.72373 7.92253 3.72416 7.70929C3.72627 6.65264 3.72482 5.59598 3.72462 4.53934C3.72462 4.51168 3.72462 4.48401 3.72462 4.45026C3.70384 4.45569 3.69215 4.45682 3.68223 4.46162C3.54792 4.52661 3.40574 4.57946 3.28105 4.65953C2.42777 5.20743 1.98815 5.98985 2.02525 7.00601C2.05988 7.95478 2.5105 8.68182 3.32324 9.16586C4.24433 9.71444 5.17824 10.2415 6.108 10.7755C6.13402 10.7904 6.18338 10.79 6.20973 10.7752C6.49929 10.6126 6.78655 10.4459 7.07416 10.2799C7.16374 10.2281 7.25251 10.1749 7.34936 10.1179ZM10.1598 7.49929C10.1583 7.53241 10.1565 7.55343 10.1565 7.57444C10.1563 8.22511 10.1562 8.87579 10.1562 9.52647C10.1562 10.1487 10.1565 10.7709 10.1563 11.3931C10.1562 11.5902 10.0739 11.7386 9.89798 11.8351C9.74001 11.9218 9.58495 12.0139 9.42889 12.1041C8.72639 12.5101 8.02397 12.9163 7.32159 13.3225C7.23637 13.3718 7.15153 13.4217 7.06152 13.4743C7.08127 13.4915 7.0916 13.5011 7.10258 13.5099C7.38408 13.736 7.69855 13.9001 8.04837 13.9876C8.91964 14.2055 9.71417 14.0391 10.4067 13.4667C11.0077 12.9701 11.3327 12.3167 11.3458 11.5378C11.3644 10.4409 11.35 9.34354 11.3512 8.24639C11.3513 8.1984 11.3322 8.17339 11.293 8.15181C11.1912 8.09576 11.091 8.03681 10.9903 7.97872C10.7173 7.82125 10.4444 7.66363 10.1598 7.49929ZM6.48444 7.99464C6.48444 8.25111 6.48774 8.50765 6.48244 8.764C6.48083 8.84211 6.50358 8.88473 6.57304 8.92402C7.02723 9.181 7.47911 9.44208 7.92955 9.70559C7.98242 9.73651 8.01832 9.7362 8.06946 9.70634C8.52624 9.43957 8.98398 9.17446 9.44319 8.91189C9.49291 8.88346 9.51262 8.85477 9.51235 8.79683C9.5099 8.26017 9.51001 7.7235 9.51171 7.18684C9.51185 7.14038 9.49827 7.11314 9.45854 7.09032C8.98936 6.82103 8.5206 6.55101 8.05272 6.27948C8.01151 6.25558 7.98101 6.26031 7.94213 6.28288C7.47427 6.55438 7.00585 6.82491 6.53653 7.09387C6.49571 7.11726 6.483 7.14377 6.48337 7.18962C6.48558 7.45796 6.48446 7.72631 6.48444 7.99464Z" fill="rgb(0,0,0)" fill-rule="nonzero" />
	</g>
</svg>
