<svg viewBox="0 0 48 48" xmlns="http://www.w3.org/2000/svg" xmlns:xlink="http://www.w3.org/1999/xlink" width="48.000000" height="48.000000" fill="none">
	<rect id="产品图标/deepseek-48" width="47.999996" height="48.000000" x="0.000000" y="0.000000" />
	<path id="矢量 752" d="M46.516 9.9159C46.0292 9.67824 45.8183 10.1325 45.5347 10.3644C45.4369 10.4391 45.3545 10.5369 45.2721 10.6251C44.5591 11.386 43.7273 11.8843 42.6406 11.8249C41.0517 11.7367 39.6947 12.235 38.4949 13.4502C38.24 11.9514 37.3928 11.0582 36.1049 10.4832C35.4302 10.1842 34.7479 9.88716 34.2745 9.23742C33.9448 8.77551 33.8548 8.25994 33.6899 7.75395C33.5845 7.44729 33.4791 7.13488 33.1284 7.08313C32.745 7.02371 32.5955 7.34379 32.446 7.61212C31.8461 8.70843 31.6142 9.9159 31.6372 11.1387C31.689 13.891 32.8504 16.0836 35.16 17.6418C35.4226 17.8201 35.4896 18.0002 35.4072 18.2609C35.2501 18.7976 35.0622 19.3189 34.8974 19.8575C34.792 20.2005 34.6348 20.2734 34.2668 20.1258C33.0119 19.5865 31.9028 18.8326 30.9396 17.8642C29.297 16.2772 27.8135 14.5254 25.9621 13.1531C25.5329 12.836 25.0928 12.5351 24.6415 12.2504C22.7536 10.4161 24.8907 8.90967 25.3852 8.73143C25.9027 8.5436 25.5634 7.90344 23.8921 7.91111C22.2208 7.91878 20.6913 8.47652 18.7421 9.22208C18.452 9.33325 18.1549 9.42078 17.8509 9.48466C16.0189 9.13949 14.177 9.07432 12.3253 9.28917C8.71241 9.69166 5.82789 11.4013 3.70618 14.3165C1.15707 17.8201 0.557162 21.8028 1.29123 25.9543C2.06363 30.3318 4.29842 33.9562 7.7311 36.789C11.2922 39.7271 15.3919 41.1665 20.0704 40.8905C22.9108 40.7276 26.0752 40.3462 29.642 37.3256C30.5428 37.7741 31.4858 37.9524 33.0536 38.0865C34.2611 38.1996 35.4226 38.029 36.3215 37.8412C37.7302 37.5422 37.6324 36.237 37.1245 35.9993C32.9942 34.075 33.9008 34.8589 33.0747 34.2245C35.1753 31.7406 38.3377 29.1608 39.5759 20.8024C39.6717 20.1373 39.5893 19.7195 39.5759 19.1828C39.5682 18.857 39.643 18.7286 40.0167 18.6921C41.0637 18.5835 42.0507 18.2801 42.9779 17.7817C45.6535 16.3194 46.7345 13.9197 46.9894 11.041C47.0277 10.6001 46.9817 10.1459 46.516 9.91398L46.516 9.9159ZM23.1964 35.8249C19.1925 32.6778 17.251 31.6409 16.4498 31.685C15.6985 31.731 15.8346 32.5877 15.9994 33.1474C16.1719 33.6994 16.3962 34.0788 16.7105 34.5638C16.929 34.8838 17.0785 35.3611 16.4939 35.7195C15.204 36.5168 12.9635 35.4512 12.8581 35.3994C10.2496 33.8623 8.06651 31.8345 6.53129 29.0611C5.04782 26.3913 4.18534 23.5278 4.04351 20.4708C4.00518 19.731 4.22176 19.4703 4.95774 19.3361C5.93047 19.15 6.90731 19.1251 7.88827 19.2614C11.9745 19.8594 15.4513 21.6859 18.3684 24.5781C20.032 26.2264 21.2912 28.1948 22.5888 30.1191C23.9688 32.1622 25.4522 34.1095 27.342 35.7042C28.009 36.2638 28.5399 36.6893 29.0498 37.0017C27.5126 37.1742 24.9482 37.2125 23.1964 35.8249L23.1964 35.8249ZM25.113 23.4818C25.111 22.9122 25.3761 22.7288 25.9084 22.9317C26.1674 23.0246 26.2951 23.2086 26.2917 23.4837C26.2931 23.8812 26.095 24.0773 25.6976 24.0721C25.3026 24.0735 25.1084 23.8767 25.1149 23.4818L25.113 23.4818ZM31.0737 26.5407C30.6904 26.696 30.309 26.8302 29.9429 26.8474C29.3751 26.8672 28.8653 26.7049 28.4134 26.3606C27.8883 25.9198 27.5126 25.6744 27.3555 24.9078C27.3009 24.5304 27.3111 24.1547 27.3861 23.7808C27.5203 23.1541 27.3708 22.7516 26.9281 22.3874C26.5696 22.0884 26.1116 22.006 25.6094 22.006C25.4349 21.9959 25.2727 21.946 25.1226 21.8565C24.9118 21.753 24.7393 21.4923 24.9041 21.1703C24.9578 21.0668 25.2108 20.8139 25.2721 20.7679C25.9544 20.3807 26.7421 20.5072 27.4685 20.7985C28.1432 21.0745 28.653 21.5805 29.3871 22.2973C30.1365 23.1617 30.2726 23.4013 30.7 24.0491C31.0373 24.557 31.344 25.0784 31.5529 25.6744C31.6813 26.0482 31.5165 26.3529 31.0737 26.5407L31.0737 26.5407Z" fill="rgb(77,107,254)" fill-rule="nonzero" />
</svg>
