<svg viewBox="0 0 32 32" xmlns="http://www.w3.org/2000/svg" xmlns:xlink="http://www.w3.org/1999/xlink" width="32.000000" height="32.000000" fill="none">
	<rect id="产品图标/deepseek-32" width="31.999998" height="32.000000" x="0.000000" y="0.000000" />
	<path id="矢量 752" d="M31.0107 6.6106C30.6862 6.45216 30.5456 6.75499 30.3565 6.9096C30.2914 6.95943 30.2364 7.02459 30.1815 7.08337C29.7062 7.59064 29.1516 7.92285 28.4271 7.88324C27.3679 7.82447 26.4632 8.15668 25.6634 8.96678C25.4934 7.96758 24.9286 7.37214 24.07 6.98882C23.6202 6.78949 23.1653 6.59144 22.8497 6.15828C22.63 5.85034 22.5699 5.50662 22.46 5.1693C22.3898 4.96486 22.3195 4.75658 22.0856 4.72208C21.8301 4.68247 21.7304 4.89586 21.6308 5.07474C21.2308 5.80562 21.0762 6.6106 21.0916 7.42581C21.1261 9.26066 21.9004 10.7224 23.4401 11.7612C23.6151 11.8801 23.6598 12.0002 23.6049 12.1739C23.5001 12.5317 23.3749 12.8793 23.265 13.2383C23.1947 13.467 23.09 13.5156 22.8446 13.4172C22.008 13.0576 21.2686 12.5551 20.6265 11.9094C19.5314 10.8515 18.5424 9.6836 17.3081 8.76873C17.022 8.55734 16.7286 8.35673 16.4278 8.16691C15.1692 6.9441 16.5939 5.93978 16.9235 5.82095C17.2685 5.69573 17.0424 5.26896 15.9282 5.27407C14.814 5.27918 13.7943 5.65101 12.4948 6.14806C12.3014 6.22217 12.1034 6.28052 11.9007 6.32311C10.6794 6.09299 9.45144 6.04955 8.21692 6.19278C5.80836 6.46111 3.88534 7.60086 2.47087 9.54432C0.771459 11.8801 0.371523 14.5352 0.860902 17.3028C1.37584 20.2212 2.8657 22.6375 5.15415 24.526C7.52821 26.4848 10.2613 27.4444 13.3803 27.2604C15.2739 27.1518 17.3835 26.8975 19.7614 24.8837C20.362 25.1827 20.9906 25.3016 22.0358 25.391C22.8408 25.4664 23.6151 25.3527 24.2144 25.2275C25.1535 25.0281 25.0884 24.158 24.7498 23.9995C21.9962 22.7167 22.6006 23.2393 22.0499 22.8163C23.4503 21.1604 25.5586 19.4405 26.384 13.8682C26.4479 13.4249 26.393 13.1463 26.384 12.7885C26.3789 12.5713 26.4287 12.4857 26.6779 12.4614C27.3759 12.389 28.0339 12.1867 28.652 11.8545C30.4358 10.8796 31.1564 9.27982 31.3264 7.36064C31.3519 7.06676 31.3212 6.76393 31.0107 6.60932L31.0107 6.6106ZM15.4643 23.8833C12.7951 21.7852 11.5007 21.0939 10.9666 21.1233C10.4658 21.154 10.5565 21.7251 10.6664 22.0982C10.7814 22.4662 10.9309 22.7192 11.1404 23.0425C11.2861 23.2559 11.3857 23.574 10.996 23.813C10.1361 24.3445 8.64241 23.6341 8.57214 23.5996C6.83312 22.5748 5.37776 21.223 4.35428 19.3741C3.3653 17.5942 2.79031 15.6852 2.69576 13.6472C2.6702 13.154 2.81459 12.9802 3.30524 12.8908C3.95373 12.7667 4.60496 12.7501 5.25893 12.8409C7.98309 13.2396 10.3009 14.4573 12.2457 16.3854C13.3548 17.4843 14.1942 18.7965 15.0593 20.0794C15.9793 21.4415 16.9682 22.7397 18.2281 23.8028C18.6728 24.1759 19.0267 24.4595 19.3666 24.6678C18.3418 24.7828 16.6322 24.8084 15.4643 23.8833L15.4643 23.8833ZM16.7421 15.6545C16.7408 15.2748 16.9175 15.1525 17.2724 15.2878C17.445 15.3498 17.5302 15.4724 17.5279 15.6558C17.5288 15.9208 17.3968 16.0515 17.1318 16.0481C16.8685 16.049 16.739 15.9178 16.7434 15.6545L16.7421 15.6545ZM20.7159 17.6938C20.4603 17.7973 20.2061 17.8868 19.962 17.8983C19.5835 17.9115 19.2436 17.8033 18.9424 17.5737C18.5923 17.2798 18.3418 17.1163 18.2371 16.6052C18.2007 16.3536 18.2075 16.1031 18.2575 15.8539C18.3469 15.436 18.2473 15.1677 17.9521 14.9249C17.7132 14.7256 17.4078 14.6707 17.073 14.6707C16.9567 14.6639 16.8485 14.6307 16.7485 14.571C16.6079 14.502 16.4929 14.3282 16.6028 14.1136C16.6386 14.0446 16.8072 13.8759 16.8481 13.8452C17.303 13.5871 17.8282 13.6715 18.3124 13.8657C18.7622 14.0497 19.1021 14.387 19.5915 14.8649C20.0911 15.4411 20.1818 15.6009 20.4667 16.0327C20.6916 16.3714 20.8961 16.7189 21.0353 17.1163C21.1209 17.3654 21.0111 17.5686 20.7159 17.6938L20.7159 17.6938Z" fill="rgb(77,107,254)" fill-rule="nonzero" />
</svg>
