<svg viewBox="0 0 40 40" xmlns="http://www.w3.org/2000/svg" xmlns:xlink="http://www.w3.org/1999/xlink" width="40.000000" height="40.000000" fill="none">
	<defs>
		<linearGradient id="paint_linear_13" x1="15.8333292" x2="15.8333292" y1="30.0000763" y2="16.666748" gradientUnits="userSpaceOnUse">
			<stop stop-color="rgb(252,200,0)" offset="0" stop-opacity="1" />
			<stop stop-color="rgb(252,215,46)" offset="1" stop-opacity="1" />
		</linearGradient>
	</defs>
	<rect id="产品图标/DSL-file" width="40.000000" height="40.000000" x="0.000000" y="0.000000" fill="rgb(255,255,255)" fill-opacity="0" />
	<path id="矢量 327" d="M22.9413 13.291C22.9413 13.777 23.1088 14.1936 23.4519 14.5284C23.7949 14.8715 24.2074 15.0389 24.6893 15.0389L34.6094 15.0389L34.6094 34.2951C34.6094 34.7811 34.4419 35.1976 34.0989 35.5325C33.7599 35.8797 33.3474 36.0471 32.8614 36.0471L8.35733 36.0471C7.87134 36.0471 7.45477 35.8797 7.11988 35.5366C6.77682 35.1936 6.60938 34.7811 6.60938 34.2992L6.60938 5.12296C6.60938 4.63696 6.77682 4.22039 7.11988 3.8855C7.46293 3.54244 7.87542 3.375 8.35733 3.375L22.9454 3.375L22.9414 13.291L22.9413 13.291ZM25.2733 12.7111L25.2733 4.09787C25.5429 4.26532 25.7593 4.44093 25.9308 4.60837L33.3719 12.0494C33.5394 12.2169 33.715 12.4374 33.8824 12.707L25.2733 12.7111L25.2733 12.7111Z" fill="rgb(223,223,223)" fill-rule="nonzero" />
	<g id="组合 350">
		<path id="矩形 87" d="M4.16667 16.6667L27.5 16.6667C28.4205 16.6667 29.1667 17.4129 29.1667 18.3334L29.1667 28.3334C29.1667 29.2539 28.4205 30.0001 27.5 30.0001L2.5 30.0001L2.5 18.3334C2.5 17.4129 3.24619 16.6667 4.16667 16.6667Z" fill="url(#paint_linear_13)" fill-rule="evenodd" />
		<path id="" d="M9.04346 19.5142Q10.1128 19.5142 10.9771 19.9438Q11.8438 20.3735 12.3418 21.1987Q12.8423 22.0239 12.8423 23.1641Q12.8423 24.3042 12.3418 25.1343Q11.8438 25.9644 10.9819 26.3989Q10.1226 26.8335 9.04346 26.8335L6.60205 26.8335L6.60205 19.5142L9.04346 19.5142ZM8.87256 25.5933Q10.0542 25.5933 10.6841 24.9634Q11.314 24.3335 11.314 23.1641Q11.314 22.0142 10.6768 21.3794Q10.042 20.7446 8.87256 20.7446L8.05225 20.7446L8.05225 25.5933L8.87256 25.5933ZM18.9735 24.7144Q18.9735 25.4639 18.5877 25.9692Q18.202 26.4746 17.5867 26.7139Q16.9739 26.9531 16.2733 26.9531Q15.2528 26.9531 14.4324 26.4795Q13.6121 26.0034 13.3436 25.1343L14.5228 24.4629Q14.762 25.0244 15.221 25.3345Q15.6824 25.6445 16.3221 25.6445Q16.8421 25.6445 17.1473 25.4346Q17.4525 25.2246 17.4525 24.8242Q17.4525 24.5044 17.2474 24.2944Q17.0423 24.0845 16.7371 23.9648Q16.432 23.8428 15.9022 23.6841Q15.1942 23.4741 14.7425 23.269Q14.2933 23.064 13.9735 22.6538Q13.6536 22.2437 13.6536 21.5747Q13.6536 20.8643 14.0272 20.3687Q14.4031 19.873 15.0184 19.6289Q15.6336 19.3823 16.3441 19.3823Q17.3133 19.3823 18.0018 19.8242Q18.6927 20.2637 18.8929 21.0132L17.7137 21.6846Q17.533 21.2134 17.1717 20.9497Q16.8128 20.6836 16.2733 20.6836Q15.7825 20.6836 15.4774 20.9082Q15.1722 21.1328 15.1722 21.5039Q15.1722 21.7847 15.3626 21.9702Q15.553 22.1533 15.8485 22.2681Q16.1439 22.3828 16.6419 22.5342Q17.3621 22.7441 17.8309 22.959Q18.3021 23.1738 18.6365 23.5986Q18.9735 24.0234 18.9735 24.7144ZM19.9521 19.5142L21.4022 19.5142L21.4022 25.5347L24.7323 25.5347L24.7323 26.8335L19.9521 26.8335L19.9521 19.5142Z" fill="rgb(25,25,25)" fill-rule="nonzero" />
		<path id="矢量 328" d="M6.66667 32.5L2.5 30L6.66667 30L6.66667 32.5Z" fill="rgb(209,159,0)" fill-rule="evenodd" />
	</g>
</svg>
