<svg viewBox="0 0 32 32" xmlns="http://www.w3.org/2000/svg" xmlns:xlink="http://www.w3.org/1999/xlink" width="32.000000" height="32.000000" fill="none">
	<defs>
		<linearGradient id="paint_linear_16" x1="2" x2="30.0000935" y1="2" y2="2" gradientUnits="userSpaceOnUse">
			<stop stop-color="rgb(99,54,231)" offset="0" stop-opacity="0.839999974" />
			<stop stop-color="rgb(111,105,247)" offset="1" stop-opacity="0.839999974" />
		</linearGradient>
	</defs>
	<rect id="产品图标/qwen-32" width="31.999998" height="32.000000" x="0.000000" y="0.000000" />
	<path id="矢量 751" d="M16.7692 2.43293C17.2694 3.31111 17.767 4.19183 18.2634 5.07382C18.3075 5.1513 18.3741 5.1899 18.4632 5.18964L25.5293 5.18964C25.7508 5.18964 25.9391 5.32963 26.0969 5.60581L27.9475 8.87669C28.1893 9.3056 28.2529 9.48505 27.978 9.94195C27.6471 10.4892 27.3251 11.0416 27.0107 11.5965L26.5437 12.4339C26.4088 12.6834 26.2598 12.7903 26.4928 13.0856L29.868 18.9871C30.0869 19.3702 30.0093 19.6159 29.8133 19.9671C29.2571 20.9662 28.6907 21.9577 28.1142 22.9453C27.9118 23.2915 27.6662 23.4226 27.2487 23.4162C26.2598 23.3958 25.2735 23.4035 24.2871 23.4366C24.2411 23.4389 24.2068 23.4601 24.184 23.5002C23.046 25.5165 21.8985 27.5274 20.7414 29.5329C20.5263 29.9058 20.2577 29.9949 19.8186 29.9961C18.5497 30 17.2707 30.0012 15.9789 29.9987C15.715 29.9979 15.5177 29.883 15.387 29.6538L13.688 26.6973C13.6659 26.6541 13.6307 26.6334 13.5823 26.6349L7.06857 26.6349C6.70585 26.6731 6.36476 26.6336 6.04404 26.5178L4.00387 22.9924C3.87173 22.7638 3.87088 22.5347 4.00133 22.3051L5.5375 19.607C5.58542 19.5234 5.58542 19.4398 5.5375 19.3562C4.73731 17.9708 3.94186 16.5827 3.15116 15.1919L2.14571 13.4165C1.94208 13.0219 1.92553 12.7852 2.26662 12.1883C2.85843 11.1536 3.44643 10.1201 4.03187 9.08797C4.19987 8.79015 4.41878 8.66288 4.77514 8.66161C5.8735 8.65697 6.97186 8.65655 8.0702 8.66033C8.13105 8.65986 8.17645 8.63313 8.20638 8.58015L11.7776 2.35021C11.8963 2.14235 12.0753 2.03799 12.3147 2.03712C12.9816 2.03585 13.6549 2.03712 14.3294 2.02949L15.6238 2.00021C16.0578 1.99639 16.5452 2.04094 16.7692 2.43293ZM12.4013 2.94584C12.3718 2.94582 12.3498 2.95855 12.3351 2.98402L8.68747 9.36669C8.64913 9.43254 8.59185 9.46563 8.51565 9.46596L4.86805 9.46596C4.79678 9.46596 4.77896 9.49778 4.81587 9.56014L12.2103 22.4858C12.2422 22.5393 12.2269 22.5647 12.1671 22.566L8.60983 22.5851C8.4942 22.5813 8.40936 22.6305 8.35529 22.7327L6.6753 25.6727C6.6193 25.772 6.64858 25.8229 6.76185 25.8229L14.0367 25.8331C14.0952 25.8331 14.1385 25.8585 14.1691 25.9107L15.9547 29.034C16.0132 29.137 16.0718 29.1383 16.1316 29.034L22.5028 17.885L23.4993 16.1261C23.5127 16.1022 23.533 16.0903 23.5604 16.0903C23.5878 16.0903 23.6081 16.1022 23.6215 16.1261L25.4339 19.346C25.4638 19.399 25.5092 19.4253 25.57 19.425L29.0865 19.3995C29.1063 19.3997 29.1212 19.3912 29.1311 19.374C29.1406 19.3571 29.1406 19.3401 29.1311 19.3231L25.4402 12.8501C25.4108 12.8022 25.4108 12.7542 25.4402 12.7063L25.8131 12.061L27.2386 9.54486C27.2691 9.49268 27.2538 9.46596 27.194 9.46596L12.4369 9.46596C12.3618 9.46596 12.344 9.43287 12.3822 9.36796L14.2072 6.1798C14.2377 6.13144 14.2377 6.08308 14.2072 6.03472L12.4687 2.98529C12.4541 2.95875 12.4316 2.9456 12.4013 2.94584ZM20.4066 13.153C20.4652 13.153 20.4804 13.1785 20.4499 13.2294L19.391 15.0939L16.0654 20.9293C16.0516 20.9544 16.0304 20.9667 16.0018 20.9662C15.9735 20.9661 15.9523 20.9538 15.9381 20.9293L11.5434 13.2523C11.518 13.209 11.5307 13.1861 11.5791 13.1836L11.854 13.1683L20.4092 13.153L20.4066 13.153Z" fill="url(#paint_linear_16)" fill-rule="nonzero" />
</svg>
