<svg viewBox="0 0 64 64" xmlns="http://www.w3.org/2000/svg" xmlns:xlink="http://www.w3.org/1999/xlink" width="64.000000" height="64.000000" fill="none">
	<defs>
		<linearGradient id="paint_linear_14" x1="4" x2="60.0001907" y1="4" y2="4" gradientUnits="userSpaceOnUse">
			<stop stop-color="rgb(99,54,231)" offset="0" stop-opacity="0.839999974" />
			<stop stop-color="rgb(111,105,247)" offset="1" stop-opacity="0.839999974" />
		</linearGradient>
	</defs>
	<rect id="产品图标/qwen-64" width="63.999996" height="64.000000" x="0.000000" y="0.000000" />
	<path id="矢量 751" d="M33.5384 4.86587C34.5388 6.62221 35.534 8.38365 36.5268 10.1476C36.6149 10.3026 36.7481 10.3798 36.9264 10.3793L51.0586 10.3793C51.5015 10.3793 51.8783 10.6593 52.1939 11.2116L55.8949 17.7534C56.3786 18.6112 56.5058 18.9701 55.956 19.8839C55.2942 20.9784 54.6502 22.0832 54.0215 23.193L53.0873 24.8679C52.8175 25.3668 52.5197 25.5806 52.9855 26.1711L59.736 37.9743C60.1738 38.7405 60.0185 39.2317 59.6265 39.9343C58.5142 41.9324 57.3815 43.9153 56.2284 45.8906C55.8237 46.5829 55.3324 46.8451 54.4975 46.8324C52.5197 46.7917 50.547 46.8069 48.5743 46.8731C48.4823 46.8779 48.4136 46.9203 48.3681 47.0004C46.092 51.033 43.7969 55.0548 41.4827 59.0657C41.0525 59.8115 40.5154 59.9897 39.6373 59.9923C37.0995 59.9999 34.5413 60.0025 31.9577 59.9974C31.43 59.9959 31.0355 59.766 30.7741 59.3076L27.3759 53.3945C27.3319 53.3083 27.2614 53.2667 27.1647 53.2698L14.1371 53.2698C13.4117 53.3462 12.7295 53.2672 12.0881 53.0356L8.00775 45.9848C7.74346 45.5276 7.74177 45.0694 8.00266 44.6102L11.075 39.2139C11.1708 39.0468 11.1708 38.8796 11.075 38.7125C9.47462 35.9416 7.88372 33.1654 6.30231 30.3838L4.29142 26.8329C3.88415 26.0439 3.85106 25.5704 4.53324 24.3766C5.71686 22.3072 6.89285 20.2403 8.06375 18.1759C8.39975 17.5803 8.83756 17.3258 9.55028 17.3232C11.747 17.3139 13.9437 17.3131 16.1404 17.3207C16.2621 17.3197 16.3529 17.2663 16.4128 17.1603L23.5552 4.70042C23.7926 4.28471 24.1507 4.07598 24.6294 4.07425C25.9632 4.0717 27.3098 4.07425 28.6588 4.05897L31.2475 4.00042C32.1155 3.99278 33.0904 4.08187 33.5384 4.86587ZM24.8025 5.89168C24.7437 5.89164 24.6996 5.91709 24.6701 5.96804L17.3749 18.7334C17.2983 18.8651 17.1837 18.9313 17.0313 18.9319L9.7361 18.9319C9.59355 18.9319 9.55792 18.9956 9.63173 19.1203L24.4207 44.9717C24.4843 45.0786 24.4538 45.1295 24.3341 45.132L17.2197 45.1702C16.9884 45.1625 16.8187 45.2609 16.7106 45.4655L13.3506 51.3454C13.2386 51.544 13.2972 51.6458 13.5237 51.6458L28.0734 51.6662C28.1905 51.6662 28.277 51.7171 28.3381 51.8214L31.9093 58.0679C32.0264 58.2741 32.1435 58.2766 32.2632 58.0679L45.0056 35.7699L46.9987 32.2522C47.0254 32.2044 47.0661 32.1805 47.1208 32.1805C47.1756 32.1805 47.2163 32.2044 47.243 32.2522L50.8677 38.6921C50.9276 38.7981 51.0184 38.8507 51.1401 38.8499L58.1731 38.799C58.2127 38.7994 58.2424 38.7824 58.2622 38.7481C58.2812 38.7142 58.2812 38.6802 58.2622 38.6463L50.8804 25.7002C50.8216 25.6043 50.8216 25.5085 50.8804 25.4126L51.6262 24.122L54.4771 19.0897C54.5382 18.9854 54.5077 18.9319 54.388 18.9319L24.8738 18.9319C24.7236 18.9319 24.688 18.8657 24.7643 18.7359L28.4145 12.3596C28.4754 12.2629 28.4754 12.1662 28.4145 12.0694L24.9374 5.97058C24.9081 5.9175 24.8631 5.8912 24.8025 5.89168ZM40.8133 26.306C40.9303 26.306 40.9609 26.3569 40.8998 26.4588L38.782 30.1878L32.1308 41.8586C32.1032 41.9088 32.0608 41.9334 32.0035 41.9324C31.947 41.9322 31.9045 41.9076 31.8763 41.8586L23.0869 26.5046C23.036 26.418 23.0614 26.3722 23.1582 26.3671L23.708 26.3366L40.8184 26.306L40.8133 26.306Z" fill="url(#paint_linear_14)" fill-rule="nonzero" />
</svg>
