<svg viewBox="0 0 24 24" xmlns="http://www.w3.org/2000/svg" xmlns:xlink="http://www.w3.org/1999/xlink" width="24.000000" height="24.000000" fill="none" customFrame="#000000">
	<mask id="mask_7" width="7.312844" height="9.906736" x="0.000000" y="0.000000" maskUnits="objectBoundingBox">
		<g filter="url(#pixso_custom_mask_type_outline)">
			<path id="路径" d="M3.99375 0C4.60335 0 5.18105 0.136579 5.69792 0.380806C7.03251 1.01142 5.75537 2.99378 5.36042 2.6741C5.06091 2.43167 4.58773 2.25 4.17237 2.25C3.22122 2.25 2.46829 2.97409 2.44934 3.92071L2.44898 3.95629L2.44898 5.87553C2.44898 6.83857 3.20933 7.65674 4.17237 7.65674C5.12353 7.65674 4.93069 6.74437 4.94963 5.79775L4.94999 5.74915L7.31284 5.86251L7.31284 5.87553C7.31284 8.08121 6.19944 9.90674 3.99375 9.90674C1.81012 9.90674 0.035803 8.15426 0.000535048 5.97903L0 5.91299L9.85515e-13 3.99375C9.85515e-13 1.78806 1.78806 0 3.99375 0Z" fill="rgb(255,255,255)" fill-rule="evenodd" transform="matrix(-1,0,0,1,20.9482,9.43726)" />
		</g>
	</mask>
	<mask id="mask_6" width="7.272416" height="9.906736" x="3.060791" y="9.437256" maskUnits="userSpaceOnUse">
		<g filter="url(#pixso_custom_mask_type_outline)">
			<path id="路径" d="M7.05454 9.43726C7.77906 9.43726 8.34249 9.63019 8.77324 9.96747C9.64073 10.6467 8.73251 12.3585 8.31215 12.0401C8.01976 11.8186 7.65538 11.6873 7.26031 11.6873C6.30915 11.6873 5.53587 12.4488 5.51692 13.3954L5.51656 13.431L5.51656 15.3502C5.51656 16.3133 6.29727 17.094 7.26031 17.094C8.21147 17.094 7.99148 15.9804 8.01043 15.0338L8.01079 14.9852L10.3332 15.3372L10.3332 15.3502C10.3332 17.5559 9.26023 19.344 7.05454 19.344C4.87091 19.344 3.09659 17.5915 3.06133 15.4163L3.06079 15.3502L3.06079 13.431C3.06079 11.2253 4.84885 9.43726 7.05454 9.43726Z" fill="rgb(255,255,255)" fill-rule="evenodd" />
		</g>
	</mask>
	<mask id="mask_5" width="18.600323" height="12.663818" x="2.679199" y="7.452881" maskUnits="userSpaceOnUse">
		<g filter="url(#pixso_custom_mask_type_outline)">
			<path id="形状结合" d="M2.6792 15.3357L3.06081 17.3833L5.92956 19.8625L12.0983 20.1167L18.8559 19.3442L20.6318 17.8591L21.2795 16.0879L21.2795 14.3909C21.2795 14.3909 21.1906 11.1415 20.177 10.2644C18.8966 9.15633 17.4442 9.28231 15.9983 8.87498C13.9183 8.28902 11.9427 7.45288 11.2786 7.45288C10.3904 7.45288 9.10885 8.46897 8.57123 8.89522C8.42739 9.00926 8.3368 9.08109 8.32125 9.07992C6.2975 8.92885 4.33772 9.37723 3.73328 10.0358C3.12884 10.6943 2.6792 13.9321 2.6792 13.9321L2.6792 15.3357ZM12.0046 16.6427C7.26222 16.6427 2.6792 14.3908 2.6792 14.3908C2.6792 14.3908 2.74868 15.0588 2.80043 15.1015C5.34949 17.2018 8.62047 17.785 12.0776 17.785C17.3686 17.785 20.9483 15.3144 20.9483 15.3144L21.1682 14.4633C21.1682 14.4633 16.7469 16.6427 12.0046 16.6427Z" fill="rgb(255,255,255)" fill-rule="evenodd" />
			<path id="形状结合" d="M3.06081 17.3833L2.6792 15.3357L2.6792 13.9321C2.6792 13.9321 3.12884 10.6943 3.73328 10.0358C4.33772 9.37723 6.2975 8.92885 8.32125 9.07992C8.3368 9.08109 8.42739 9.00926 8.57123 8.89522C9.10885 8.46897 10.3904 7.45288 11.2786 7.45288C11.9427 7.45288 13.9183 8.28902 15.9983 8.87498C17.4442 9.28231 18.8966 9.15633 20.177 10.2644C21.1906 11.1415 21.2795 14.3909 21.2795 14.3909L21.2795 16.0879L20.6318 17.8591L18.8559 19.3442L12.0983 20.1167L5.92956 19.8625L3.06081 17.3833ZM20.2398 13.787Q20.196 13.279 20.1212 12.816Q20.0052 12.0977 19.8338 11.6116Q19.7449 11.3595 19.6487 11.1923Q19.5768 11.0674 19.5227 11.0205Q19.0724 10.6309 18.4555 10.4256Q18.186 10.3359 17.8286 10.2604Q17.599 10.2119 17.1153 10.1288Q16.6749 10.0531 16.4473 10.0078Q16.051 9.92876 15.7271 9.83752Q15.1258 9.66812 14.3971 9.43166Q13.972 9.29371 13.1878 9.02729Q12.2313 8.70234 11.8683 8.59455Q11.6039 8.51601 11.4345 8.47957Q11.3103 8.45288 11.2786 8.45288Q11.1614 8.45288 10.9296 8.5461Q10.6614 8.65391 10.3181 8.86551Q9.86981 9.14181 9.1925 9.67881Q9.05227 9.79 8.99979 9.82953Q8.9379 9.87614 8.88934 9.90752Q8.70075 10.0294 8.49704 10.0652L8.497 10.0652L8.49691 10.0652Q8.37458 10.0867 8.24681 10.0771Q7.98694 10.0577 7.72678 10.0524L7.72661 10.0524L7.72656 10.0524L7.72645 10.0524Q7.31385 10.0439 6.90053 10.0708Q6.26288 10.1123 5.70471 10.232Q5.18454 10.3436 4.82362 10.5025Q4.67029 10.57 4.56587 10.6379Q4.50767 10.6757 4.47954 10.7023Q4.47783 10.705 4.47576 10.7084Q4.45189 10.7476 4.42197 10.8122Q4.3476 10.9729 4.26574 11.228Q4.11193 11.7072 3.95808 12.4371Q3.84522 12.9726 3.74565 13.5781Q3.72964 13.6756 3.71604 13.7613Q3.78345 13.79 3.8559 13.8204Q4.82481 14.2264 5.87157 14.5654Q7.33422 15.039 8.73585 15.3088Q10.4698 15.6427 12.0046 15.6427Q13.5411 15.6427 15.2514 15.3195Q16.6324 15.0586 18.0592 14.6008Q19.0798 14.2733 20.0175 13.8812Q20.1356 13.8318 20.2398 13.787ZM12.0046 16.6427C7.26222 16.6427 2.6792 14.3908 2.6792 14.3908C2.6792 14.3908 2.74868 15.0588 2.80043 15.1015C5.34949 17.2018 8.62047 17.785 12.0776 17.785C17.3686 17.785 20.9483 15.3144 20.9483 15.3144L21.1682 14.4633C21.1682 14.4633 16.7469 16.6427 12.0046 16.6427ZM4.61915 17.4084L6.3194 18.8777L12.0619 19.1143L18.4444 18.3847L19.7846 17.264L19.8636 17.0482Q19.3822 17.2743 18.866 17.4791Q18.3875 17.669 17.9 17.8318L17.8997 17.832L17.8996 17.832Q16.9208 18.1589 15.9056 18.3767Q14.4789 18.6828 13.04 18.7594L13.04 18.7594L13.0399 18.7594Q12.5595 18.785 12.0776 18.785Q9.09899 18.785 6.84656 18.1986Q5.661 17.89 4.61915 17.4084Z" fill="rgb(151,151,151)" fill-opacity="0" fill-rule="evenodd" />
		</g>
	</mask>
	<defs>
		<clipPath id="clipPath_13">
			<rect width="24.000000" height="24.000000" x="0.000000" y="0.000000" fill="rgb(255,255,255)" />
		</clipPath>
		<linearGradient id="paint_linear_18" x1="7.05444336" x2="7.05444336" y1="6.62475586" y2="8.87475586" gradientUnits="userSpaceOnUse">
			<stop stop-color="rgb(138,168,254)" offset="0" stop-opacity="1" />
			<stop stop-color="rgb(46,90,220)" offset="1" stop-opacity="1" />
		</linearGradient>
		<linearGradient id="paint_linear_19" x1="16.9545898" x2="16.9545898" y1="6.62475586" y2="8.87475586" gradientUnits="userSpaceOnUse">
			<stop stop-color="rgb(138,168,254)" offset="0" stop-opacity="1" />
			<stop stop-color="rgb(46,90,220)" offset="1" stop-opacity="1" />
		</linearGradient>
		<linearGradient id="paint_linear_20" x1="12.0046387" x2="12.0457211" y1="4.5" y2="6.70469093" gradientUnits="userSpaceOnUse">
			<stop stop-color="rgb(200,50,250)" offset="0" stop-opacity="1" />
			<stop stop-color="rgb(63,63,250)" offset="1" stop-opacity="1" />
		</linearGradient>
		<filter id="pixso_custom_mask_type_outline">
			<feColorMatrix type="matrix" values="0 0 0 0 1 0 0 0 0 1 0 0 0 0 1 0 0 0 1 0 " />
		</filter>
		<linearGradient id="paint_linear_21" x1="12.0044918" x2="12.0044918" y1="15.8554688" y2="19.8622398" gradientUnits="userSpaceOnUse">
			<stop stop-color="rgb(138,168,254)" offset="0" stop-opacity="1" />
			<stop stop-color="rgb(103,137,238)" offset="1" stop-opacity="1" />
		</linearGradient>
		<linearGradient id="paint_linear_22" x1="7.05454111" x2="7.05454111" y1="9.43725586" y2="19.3439922" gradientUnits="userSpaceOnUse">
			<stop stop-color="rgb(138,168,254)" offset="0" stop-opacity="1" />
			<stop stop-color="rgb(46,90,220)" offset="1" stop-opacity="1" />
		</linearGradient>
		<linearGradient id="paint_linear_23" x1="6.69699907" x2="6.69699907" y1="11.4130926" y2="15.5337372" gradientUnits="userSpaceOnUse">
			<stop stop-color="rgb(138,168,254)" offset="0" stop-opacity="1" />
			<stop stop-color="rgb(63,63,250)" offset="1" stop-opacity="1" />
		</linearGradient>
		<linearGradient id="paint_linear_24" x1="5.16681147" x2="5.16681147" y1="10.8996582" y2="18.7371998" gradientUnits="userSpaceOnUse">
			<stop stop-color="rgb(28,76,217)" offset="0" stop-opacity="1" />
			<stop stop-color="rgb(153,176,244)" offset="1" stop-opacity="1" />
		</linearGradient>
		<linearGradient id="paint_linear_25" x1="3.65642214" x2="3.65642214" y1="1.97583663" y2="6.09648132" gradientUnits="userSpaceOnUse">
			<stop stop-color="rgb(138,168,254)" offset="0" stop-opacity="1" />
			<stop stop-color="rgb(63,63,250)" offset="1" stop-opacity="1" />
		</linearGradient>
		<linearGradient id="paint_linear_26" x1="3.73422599" x2="3.73422599" y1="0" y2="7.83754206" gradientUnits="userSpaceOnUse">
			<stop stop-color="rgb(28,76,217)" offset="0" stop-opacity="1" />
			<stop stop-color="rgb(153,176,244)" offset="1" stop-opacity="1" />
		</linearGradient>
		<linearGradient id="paint_linear_27" x1="3.99375081" x2="4.11873865" y1="-7.4505806e-09" y2="6.22940636" gradientUnits="userSpaceOnUse">
			<stop stop-color="rgb(200,50,250)" offset="0" stop-opacity="1" />
			<stop stop-color="rgb(63,63,250)" offset="1" stop-opacity="1" />
		</linearGradient>
		<linearGradient id="paint_linear_28" x1="11.97929" x2="11.97929" y1="8.35373592" y2="16.6423531" gradientUnits="userSpaceOnUse">
			<stop stop-color="rgb(236,237,255)" offset="0" stop-opacity="0" />
			<stop stop-color="rgb(126,149,241)" offset="0.645181954" stop-opacity="1" />
			<stop stop-color="rgb(88,113,240)" offset="1" stop-opacity="1" />
		</linearGradient>
	</defs>
	<rect id="产品图标/RoleX" width="24.000000" height="24.000000" x="0.000000" y="0.000000" fill="rgb(255,255,255)" fill-opacity="0" />
	<g id="产品图标/RoleX" customFrame="url(#clipPath_13)">
		<rect id="产品图标/RoleX" width="24.000000" height="24.000000" x="0.000000" y="0.000000" />
		<rect id="矩形" width="24.000000" height="24.000000" x="0.000000" y="0.000000" fill="rgb(255,255,255)" fill-opacity="0" />
		<rect id="矩形" width="23.000000" height="23.000000" x="0.500000" y="0.500000" stroke="rgb(151,151,151)" stroke-opacity="0" stroke-width="1" />
		<g id="编组 6">
			<circle id="椭圆形" cx="7.05444336" cy="7.74975586" r="1.125" fill="url(#paint_linear_18)" />
			<circle id="椭圆形备份 4" cx="16.9545898" cy="7.74975586" r="1.125" fill="url(#paint_linear_19)" />
			<circle id="椭圆形备份 3" cx="12.0046387" cy="5.8125" r="1.3125" fill="url(#paint_linear_20)" />
			<g id="编组 222" mask="url(#mask_5)">
				<g id="编组 221">
					<g id="编组 219">
						<g id="编组 220">
							<path id="路径" d="M13.7482 15.8555L15.9982 15.8555L15.9982 15.8685C15.9982 18.0742 14.2102 19.8622 12.0045 19.8622C9.85395 19.8622 8.10041 18.1625 8.01407 16.0331L8.01074 15.8685L10.2607 15.8685C10.2607 16.8315 11.0414 17.6122 12.0045 17.6122C12.9274 17.6122 13.6829 16.8952 13.7442 15.9879L13.7482 15.8555Z" fill="url(#paint_linear_21)" fill-rule="evenodd" />
							<g id="编组 2">
								<path id="路径" d="M7.05454 9.43726C7.6327 9.43726 8.18217 9.56011 8.67826 9.78114C10.0558 10.3949 8.54033 12.3841 8.13805 12.0647C7.8405 11.8284 7.464 11.6873 7.05454 11.6873C6.10338 11.6873 5.3301 12.4488 5.31115 13.3954L5.31079 13.431L5.31079 15.3502C5.31079 16.3133 6.09149 17.094 7.05454 17.094C8.0057 17.094 8.77899 16.3324 8.79794 15.3858L8.79829 15.3372L11.0483 15.3372L11.0483 15.3502C11.0483 17.5559 9.26023 19.344 7.05454 19.344C4.87091 19.344 3.09659 17.5915 3.06133 15.4163L3.06079 15.3502L3.06079 13.431C3.06079 11.2253 4.84885 9.43726 7.05454 9.43726Z" opacity="0" fill="url(#paint_linear_22)" fill-rule="evenodd" />
								<g showMaskRef="url(#show_mask_1)" mask="url(#mask_6)">
									<path id="show_mask_1" d="M7.05454 9.43726C7.77906 9.43726 8.34249 9.63019 8.77324 9.96747C9.64073 10.6467 8.73251 12.3585 8.31215 12.0401C8.01976 11.8186 7.65538 11.6873 7.26031 11.6873C6.30915 11.6873 5.53587 12.4488 5.51692 13.3954L5.51656 13.431L5.51656 15.3502C5.51656 16.3133 6.29727 17.094 7.26031 17.094C8.21147 17.094 7.99148 15.9804 8.01043 15.0338L8.01079 14.9852L10.3332 15.3372L10.3332 15.3502C10.3332 17.5559 9.26023 19.344 7.05454 19.344C4.87091 19.344 3.09659 17.5915 3.06133 15.4163L3.06079 15.3502L3.06079 13.431C3.06079 11.2253 4.84885 9.43726 7.05454 9.43726Z" fill="url(#paint_linear_23)" fill-rule="evenodd" />
									<path id="路径" d="M5.42333 10.8997C7.60696 10.8997 9.06122 11.9401 9.04305 14.0015L9.04358 14.0675L8.05031 14.3017L7.4714 14.1892L8.46467 13.955C8.46467 12.992 8.26324 13.0372 7.30019 13.0372C6.34903 13.0372 5.57574 13.7987 5.5568 14.7453L5.55644 14.7809L5.4169 14.6309C5.4169 15.594 5.75787 16.3747 6.72092 16.3747C7.67208 16.3747 7.45209 15.2611 7.47104 14.3145L7.4714 14.2659L8.05031 14.3784L8.05031 14.3914C8.05031 16.5971 7.48948 18.7372 5.28379 18.7372C3.10016 18.7372 1.32584 16.9847 1.29057 14.8095L1.29004 14.7434L1.42958 14.8934C1.42958 12.6877 3.21764 10.8997 5.42333 10.8997Z" fill="url(#paint_linear_24)" fill-rule="evenodd" />
								</g>
							</g>
							<g id="编组 2备份" showMaskRef="url(#show_mask_2)" mask="url(#mask_7)">
								<path id="show_mask_2" d="M3.99375 0C4.60335 0 5.18105 0.136579 5.69792 0.380806C7.03251 1.01142 5.75537 2.99378 5.36042 2.6741C5.06091 2.43167 4.58773 2.25 4.17237 2.25C3.22122 2.25 2.46829 2.97409 2.44934 3.92071L2.44898 3.95629L2.44898 5.87553C2.44898 6.83857 3.20933 7.65674 4.17237 7.65674C5.12353 7.65674 4.93069 6.74437 4.94963 5.79775L4.94999 5.74915L7.31284 5.86251L7.31284 5.87553C7.31284 8.08121 6.19944 9.90674 3.99375 9.90674C1.81012 9.90674 0.035803 8.15426 0.000535048 5.97903L0 5.91299L9.85515e-13 3.99375C9.85515e-13 1.78806 1.78806 0 3.99375 0Z" fill="url(#paint_linear_25)" fill-rule="evenodd" transform="matrix(-1,0,0,1,20.9482,9.43726)" />
								<path id="路径" d="M4.31191 0C6.49555 0 7.48609 1.01602 7.46792 3.0774L7.46845 3.14344L7.46845 3.72965L6.88954 3.61715L6.88954 3.03094C6.88954 2.0679 6.94605 2.1375 5.983 2.1375C5.03185 2.1375 4.27892 2.86159 4.25997 3.80821L4.25961 3.84379L4.12007 3.69383C4.12007 4.65688 4.44069 5.47504 5.40374 5.47504C6.35489 5.47504 6.16205 4.56268 6.18099 3.61606L6.18135 3.56745L6.76026 3.67995L6.76026 3.69297C6.76026 5.89866 6.19944 7.83754 3.99375 7.83754C1.81012 7.83754 0.035803 6.08506 0.000535048 3.90983L4.29041e-13 3.84379L0.139541 3.99375C0.139541 1.78806 2.10623 0 4.31191 0Z" fill="url(#paint_linear_26)" fill-rule="evenodd" transform="matrix(-1,0,0,1,22.719,10.8997)" />
							</g>
						</g>
					</g>
				</g>
			</g>
		</g>
		<path id="路径" d="M3.99375 0C6.17738 0 7.9517 1.75248 7.98697 3.92771L7.9875 3.99375L7.9875 7.38273L5.65514 7.38273L5.65514 4.21244C5.65514 3.2494 4.9568 2.46869 3.99375 2.46869C3.04259 2.46869 2.42763 3.23024 2.40868 4.17686L2.40833 4.21244L2.40833 7.417C2.40833 7.417 4.76604e-07 7.384 0.000535525 7.417L4.76599e-07 3.99375C4.76599e-07 1.78806 1.78806 0 3.99375 0Z" fill="url(#paint_linear_27)" fill-rule="evenodd" transform="matrix(-1,0,0,1,15.8999,7.91846)" />
		<path id="椭圆形备份 151" d="M15.3834 7.35618C14.29 7.25283 13.133 7.21143 11.9513 7.21143C11.9251 7.21143 11.8989 7.21146 11.8727 7.21152C13.1047 7.21153 14.2828 7.25974 15.3834 7.35618ZM11.872 7.21152C5.35593 7.21152 0.560547 8.34056 0.560547 11.2628C0.560547 14.185 5.43524 16.6424 11.9513 16.6424C18.4673 16.6424 23.398 13.9662 23.398 11.2628C23.398 9.07065 20.1037 7.76979 15.3834 7.35618C17.0461 7.51333 18.562 7.81369 19.7953 8.32948C19.835 8.34608 19.8743 8.36279 19.9133 8.37959L20.029 8.43027C20.0481 8.43876 20.0671 8.44728 20.086 8.45582L20.1982 8.50733C20.2168 8.51596 20.2352 8.52461 20.2535 8.53328L20.3624 8.58557L20.4689 8.63836L20.5731 8.69162C20.5903 8.70053 20.6074 8.70947 20.6243 8.71842L20.7251 8.77235C20.7748 8.79942 20.8237 8.82666 20.8718 8.85404L20.9666 8.90899L21.0591 8.96432L21.1493 9.02C21.1789 9.03861 21.2082 9.05728 21.237 9.07601L21.3224 9.13233C21.3364 9.14174 21.3503 9.15117 21.3641 9.1606L21.4459 9.21736C21.4593 9.22684 21.4727 9.23633 21.4859 9.24583L21.564 9.30297L21.6397 9.36034C21.6646 9.37949 21.689 9.39869 21.713 9.41791L21.7838 9.47568C22.4103 9.99638 22.771 10.7675 22.771 11.2627C22.771 11.5837 22.5662 11.924 22.2986 12.2655L22.2514 12.3241C22.1788 12.4119 22.0976 12.4998 22.008 12.5873L21.9471 12.6456C21.916 12.6748 21.8839 12.7039 21.851 12.7329L21.7838 12.7909C21.7269 12.8392 21.6673 12.8873 21.6052 12.9352L21.5295 12.9926L21.4514 13.0497L21.3708 13.1066C21.3572 13.1161 21.3435 13.1255 21.3297 13.135L21.2455 13.1914L21.1589 13.2476L21.07 13.3034L20.9787 13.3589C20.9633 13.3682 20.9477 13.3774 20.9321 13.3866L20.8373 13.4415L20.7401 13.4961C20.7237 13.5051 20.7072 13.5142 20.6906 13.5232L20.5898 13.5771L20.4868 13.6306C20.4694 13.6395 20.452 13.6484 20.4344 13.6572L20.3279 13.71C20.3099 13.7187 20.2919 13.7275 20.2737 13.7362L20.1637 13.7882L20.0515 13.8397C20.0326 13.8483 20.0136 13.8568 19.9945 13.8653L19.8788 13.916C19.8398 13.9328 19.8005 13.9495 19.7608 13.9661C17.7164 14.8211 14.93 15.314 11.9513 15.314C8.97255 15.314 6.18608 14.8211 4.14174 13.9661L4.08247 13.9411L3.96563 13.8907L3.85107 13.8397L3.73879 13.7882L3.6288 13.7362C3.61066 13.7275 3.59262 13.7187 3.57467 13.71L3.46814 13.6572L3.36392 13.6039C3.34675 13.595 3.32967 13.5861 3.31269 13.5771L3.21196 13.5232L3.11357 13.4688C3.09737 13.4598 3.08127 13.4506 3.06526 13.4415L2.9704 13.3866C2.95478 13.3774 2.93927 13.3682 2.92385 13.3589L2.83254 13.3034L2.7436 13.2476L2.65704 13.1914L2.57288 13.135C2.55905 13.1255 2.54532 13.1161 2.5317 13.1066L2.45114 13.0497L2.373 12.9926L2.29729 12.9352C2.23521 12.8873 2.17567 12.8392 2.11869 12.7909L2.05154 12.7329C2.01858 12.7039 1.98655 12.6748 1.95545 12.6456L1.89449 12.5873C1.85468 12.5484 1.81653 12.5094 1.78005 12.4704L1.72658 12.4119C1.37855 12.0216 1.1984 11.6295 1.1984 11.2627C1.1984 10.7675 1.41674 10.1274 2.0432 9.60671L2.11403 9.54894C2.13805 9.52971 2.16247 9.51052 2.18731 9.49136L2.26302 9.43399L2.34115 9.37686C2.35438 9.36736 2.3677 9.35786 2.38113 9.34838L2.46289 9.29163C2.47672 9.28219 2.49064 9.27277 2.50467 9.26336L2.59003 9.20703C2.60446 9.19767 2.61898 9.18832 2.63361 9.17899L2.72255 9.12314C2.73757 9.11386 2.75269 9.10459 2.76791 9.09534L2.86041 9.04002L2.95527 8.98506C3.00329 8.95768 3.05219 8.93045 3.10197 8.90338L3.2027 8.84944C3.21968 8.84049 3.23676 8.83156 3.25393 8.82264L3.35815 8.76938Q3.38449 8.75613 3.41113 8.74293L3.51881 8.69039C3.55509 8.67296 3.59176 8.65561 3.6288 8.63836L3.74108 8.58685L3.85564 8.53588C3.9135 8.51054 3.9722 8.48541 4.03175 8.46051C6.05795 7.6131 8.92121 7.21846 11.872 7.21152Z" fill="url(#paint_linear_28)" fill-rule="evenodd" />
	</g>
</svg>
