<svg viewBox="0 0 64 64" xmlns="http://www.w3.org/2000/svg" xmlns:xlink="http://www.w3.org/1999/xlink" width="64.000000" height="64.000000" fill="none">
	<rect id="产品图标/deepseek-64" width="63.999996" height="64.000000" x="0.000000" y="0.000000" />
	<path id="矢量 752" d="M62.0212 13.2212C61.3721 12.9043 61.091 13.51 60.7128 13.8192C60.5825 13.9189 60.4726 14.0492 60.3627 14.1667C59.4121 15.1813 58.303 15.8457 56.854 15.7665C54.7355 15.6489 52.9262 16.3134 51.3265 17.9336C50.9866 15.9352 49.857 14.7443 48.1398 13.9776C47.2402 13.579 46.3305 13.1829 45.6992 12.3166C45.2597 11.7007 45.1396 11.0132 44.9198 10.3386C44.7793 9.92971 44.6387 9.51317 44.1711 9.44417C43.66 9.36495 43.4606 9.79172 43.2613 10.1495C42.4614 11.6112 42.1522 13.2212 42.1829 14.8516C42.2519 18.5213 43.8005 21.4448 46.8799 23.5224C47.23 23.7601 47.3194 24.0003 47.2095 24.3479C47 25.0634 46.7496 25.7585 46.5298 26.4766C46.3892 26.934 46.1797 27.0312 45.689 26.8344C44.0158 26.1153 42.537 25.1101 41.2527 23.8189C39.0626 21.7029 37.0846 19.3672 34.616 17.5375C34.0438 17.1147 33.4569 16.7135 32.8553 16.3338C30.3381 13.8882 33.1875 11.8796 33.8468 11.6419C34.5368 11.3915 34.0845 10.5379 31.8561 10.5481C29.6277 10.5584 27.5884 11.302 24.9894 12.2961C24.6026 12.4443 24.2065 12.561 23.8011 12.6462C21.3585 12.186 18.9026 12.0991 16.4336 12.3856C11.6165 12.9222 7.77044 15.2017 4.94149 19.0886C1.54267 23.7601 0.742801 29.0704 1.72156 34.6057C2.75143 40.4425 5.73115 45.2749 10.3081 49.0519C15.0562 52.9695 20.5224 54.8887 26.7604 54.5207C30.5477 54.3035 34.7668 53.795 39.5226 49.7675C40.7237 50.3655 41.981 50.6031 44.0714 50.782C45.6814 50.9328 47.23 50.7054 48.4285 50.4549C50.3068 50.0563 50.1765 48.316 49.4993 47.9991C43.9922 45.4333 45.2009 46.4785 44.0995 45.6327C46.9003 42.3207 51.1169 38.881 52.7678 27.7365C52.8955 26.8497 52.7857 26.2926 52.7678 25.5771C52.7575 25.1426 52.8572 24.9714 53.3555 24.9229C54.7515 24.778 56.0676 24.3734 57.3038 23.709C60.8713 21.7591 62.3126 18.5596 62.6525 14.7213C62.7036 14.1335 62.6422 13.5279 62.0213 13.2186L62.0212 13.2212ZM30.9284 47.7665C25.59 43.5704 23.0012 42.1879 21.933 42.2466C20.9313 42.308 21.1127 43.4503 21.3325 44.1965C21.5625 44.9325 21.8615 45.4385 22.2806 46.085C22.5719 46.5118 22.7713 47.1481 21.9918 47.626C20.272 48.6891 17.2846 47.2682 17.144 47.1992C13.666 45.1497 10.7553 42.446 8.70831 38.7482C6.73035 35.1883 5.58037 31.3704 5.39127 27.2944C5.34016 26.308 5.62893 25.9604 6.61024 25.7815C7.90721 25.5333 9.20967 25.5001 10.5176 25.6819C15.9659 26.4792 20.6016 28.9146 24.4911 32.7708C26.7093 34.9686 28.3883 37.5931 30.1183 40.1588C31.9583 42.883 33.9362 45.4794 36.456 47.6055C37.3453 48.3517 38.0532 48.9191 38.7329 49.3356C36.6834 49.5656 33.2641 49.6167 30.9284 47.7665L30.9284 47.7665ZM33.4839 31.3091C33.4813 30.5496 33.8348 30.3051 34.5445 30.5756C34.8897 30.6995 35.0601 30.9448 35.0556 31.3116C35.0573 31.8416 34.7933 32.1031 34.2634 32.0962C33.7367 32.098 33.4778 31.8356 33.4865 31.3091L33.4839 31.3091ZM41.4315 35.3877C40.9204 35.5947 40.4119 35.7735 39.9238 35.7965C39.1668 35.8229 38.487 35.6066 37.8845 35.1474C37.1843 34.5597 36.6834 34.2326 36.4739 33.2104C36.4011 32.7071 36.4147 32.2063 36.5148 31.7077C36.6936 30.8721 36.4943 30.3354 35.904 29.8499C35.4261 29.4512 34.8153 29.3413 34.1458 29.3413C33.9132 29.3278 33.6968 29.2614 33.4967 29.142C33.2156 29.004 32.9856 28.6565 33.2054 28.2271C33.2769 28.0891 33.6143 27.7518 33.696 27.6905C34.6058 27.1743 35.6561 27.3429 36.6246 27.7314C37.5242 28.0994 38.2039 28.774 39.1827 29.7298C40.1819 30.8823 40.3633 31.2017 40.9332 32.0655C41.383 32.7427 41.7919 33.4378 42.0704 34.2326C42.2416 34.7309 42.0219 35.1372 41.4315 35.3876L41.4315 35.3877Z" fill="rgb(77,107,254)" fill-rule="nonzero" />
</svg>
