<svg viewBox="0 0 16 16" xmlns="http://www.w3.org/2000/svg" xmlns:xlink="http://www.w3.org/1999/xlink" width="16.000000" height="16.000000" fill="none">
	<rect id="产品图标/deepseek-16" width="15.999999" height="16.000000" x="0.000000" y="0.000000" />
	<path id="矢量 752" d="M15.5052 3.3053C15.343 3.22608 15.2727 3.37749 15.1781 3.4548C15.1456 3.47971 15.1181 3.5123 15.0906 3.54169C14.853 3.79532 14.5757 3.96143 14.2134 3.94162C13.6838 3.91223 13.2315 4.07834 12.8316 4.48339C12.7466 3.98379 12.4642 3.68607 12.0349 3.49441C11.81 3.39474 11.5826 3.29572 11.4248 3.07914C11.3149 2.92517 11.2848 2.75331 11.2299 2.58465C11.1948 2.48243 11.1596 2.37829 11.0427 2.36104C10.9149 2.34124 10.8651 2.44793 10.8153 2.53737C10.6153 2.90281 10.538 3.3053 10.5457 3.7129C10.5629 4.63033 10.9501 5.36121 11.7199 5.88061C11.8074 5.94003 11.8298 6.00008 11.8023 6.08697C11.7499 6.26585 11.6873 6.43963 11.6324 6.61915C11.5972 6.73351 11.5449 6.75779 11.4222 6.7086C11.0039 6.52882 10.6342 6.27753 10.3131 5.95472C9.76559 5.42573 9.2711 4.8418 8.65394 4.38436C8.5109 4.27867 8.36417 4.17837 8.21376 4.08345C7.58446 3.47205 8.29681 2.96989 8.46164 2.91048C8.63414 2.84787 8.52106 2.63448 7.96396 2.63704C7.40686 2.63959 6.89703 2.82551 6.2473 3.07403C6.15059 3.11108 6.05157 3.14026 5.95022 3.16155C5.33956 3.0465 4.7256 3.02477 4.10834 3.09639C2.90406 3.23055 1.94255 3.80043 1.23531 4.77216C0.385608 5.94003 0.185639 7.26761 0.430329 8.65142C0.687796 10.1106 1.43273 11.3187 2.57695 12.263C3.76398 13.2424 5.13054 13.7222 6.69004 13.6302C7.63685 13.5759 8.69164 13.4487 9.88058 12.4419C10.1809 12.5914 10.4952 12.6508 11.0178 12.6955C11.4203 12.7332 11.8074 12.6763 12.1071 12.6137C12.5766 12.5141 12.5441 12.079 12.3748 11.9998C10.998 11.3583 11.3002 11.6196 11.0248 11.4082C11.725 10.5802 12.7792 9.72026 13.1919 6.93412C13.2238 6.71243 13.1964 6.57315 13.1919 6.39427C13.1893 6.28566 13.2142 6.24285 13.3388 6.23071C13.6878 6.19451 14.0168 6.09335 14.3259 5.92725C15.2178 5.43978 15.5781 4.63991 15.6631 3.68032C15.6758 3.53338 15.6605 3.38196 15.5053 3.30466L15.5052 3.3053ZM7.73204 11.9416C6.39743 10.8926 5.75025 10.547 5.4832 10.5617C5.23276 10.577 5.27812 10.8626 5.33306 11.0491C5.39056 11.2331 5.46531 11.3596 5.57009 11.5213C5.64292 11.6279 5.69275 11.787 5.49789 11.9065C5.06793 12.1723 4.32108 11.8171 4.28595 11.7998C3.41644 11.2874 2.68876 10.6115 2.17702 9.68704C1.68253 8.79708 1.39503 7.8426 1.34776 6.82359C1.33498 6.57699 1.40717 6.4901 1.6525 6.44538C1.97674 6.38333 2.30236 6.37503 2.62934 6.42046C3.99143 6.61979 5.15035 7.22864 6.12272 8.19271C6.67726 8.74214 7.097 9.39827 7.52952 10.0397C7.98951 10.7207 8.484 11.3698 9.11393 11.9014C9.33626 12.0879 9.51323 12.2298 9.68317 12.3339C9.17079 12.3914 8.31598 12.4042 7.73204 11.9416L7.73204 11.9416ZM8.37092 7.82727C8.37025 7.63739 8.45863 7.57627 8.63605 7.64391C8.72237 7.67488 8.76497 7.73621 8.76383 7.82791C8.76427 7.9604 8.69826 8.02577 8.56578 8.02404C8.43412 8.02449 8.36939 7.9589 8.37156 7.82727L8.37092 7.82727ZM10.3578 8.84691C10.2301 8.89866 10.1029 8.94338 9.98089 8.94913C9.79163 8.95573 9.62169 8.90164 9.47106 8.78686C9.29601 8.63992 9.17079 8.55814 9.11841 8.30259C9.10021 8.17678 9.10362 8.05156 9.12863 7.92693C9.17335 7.71802 9.12352 7.58386 8.97593 7.46247C8.85647 7.3628 8.70377 7.33533 8.53639 7.33533C8.47823 7.33196 8.42414 7.31535 8.37411 7.2855C8.30384 7.251 8.24634 7.16411 8.30128 7.05678C8.31917 7.02228 8.4035 6.93795 8.42395 6.92262C8.65139 6.79357 8.91396 6.83573 9.1561 6.93284C9.38098 7.02484 9.55092 7.1935 9.79561 7.43244C10.0454 7.72057 10.0908 7.80043 10.2332 8.01637C10.3457 8.18568 10.4479 8.35945 10.5175 8.55814C10.5603 8.68272 10.5054 8.7843 10.3578 8.84691L10.3578 8.84691Z" fill="rgb(77,107,254)" fill-rule="nonzero" />
</svg>
