<svg viewBox="0 0 16 16" xmlns="http://www.w3.org/2000/svg" xmlns:xlink="http://www.w3.org/1999/xlink" width="16.000000" height="16.000000" fill="none">
	<defs>
		<linearGradient id="paint_linear_17" x1="1" x2="15.0000467" y1="1" y2="1" gradientUnits="userSpaceOnUse">
			<stop stop-color="rgb(99,54,231)" offset="0" stop-opacity="0.839999974" />
			<stop stop-color="rgb(111,105,247)" offset="1" stop-opacity="0.839999974" />
		</linearGradient>
	</defs>
	<rect id="产品图标/qwen-16" width="15.999999" height="16.000000" x="0.000000" y="0.000000" />
	<path id="矢量 751" d="M8.38461 1.21647C8.63469 1.65555 8.88351 2.09591 9.13169 2.53691C9.15373 2.57565 9.18703 2.59495 9.2316 2.59482L12.7647 2.59482C12.8754 2.59482 12.9696 2.66482 13.0485 2.80291L13.9737 4.43835C14.0946 4.6528 14.1265 4.74253 13.989 4.97098C13.8236 5.24461 13.6626 5.52079 13.5054 5.79824L13.2718 6.21697C13.2044 6.34169 13.1299 6.39515 13.2464 6.54278L14.934 9.49357C15.0435 9.68511 15.0046 9.80793 14.9066 9.98357C14.6285 10.4831 14.3454 10.9788 14.0571 11.4726C13.9559 11.6457 13.8331 11.7113 13.6244 11.7081C13.1299 11.6979 12.6367 11.7017 12.1436 11.7183C12.1206 11.7195 12.1034 11.7301 12.092 11.7501C11.523 12.7583 10.9492 13.7637 10.3707 14.7664C10.2631 14.9529 10.1289 14.9974 9.90932 14.9981C9.27487 15 8.63533 15.0006 7.98943 14.9993C7.8575 14.999 7.75887 14.9415 7.69352 14.8269L6.84398 13.3486C6.83297 13.3271 6.81536 13.3167 6.79116 13.3174L3.53429 13.3174C3.35292 13.3365 3.18238 13.3168 3.02202 13.2589L2.00194 11.4962C1.93587 11.3819 1.93544 11.2673 2.00066 11.1526L2.76875 9.80348C2.79271 9.76169 2.79271 9.7199 2.76875 9.67812C2.36865 8.98541 1.97093 8.29136 1.57558 7.59595L1.07286 6.70824C0.971038 6.51096 0.962765 6.3926 1.13331 6.09415C1.42922 5.57679 1.72321 5.06007 2.01594 4.54398C2.09994 4.39508 2.20939 4.33144 2.38757 4.3308C2.93675 4.32848 3.48593 4.32827 4.0351 4.33017C4.06553 4.32993 4.08822 4.31657 4.10319 4.29008L5.88881 1.17511C5.94816 1.07118 6.03767 1.019 6.15735 1.01856C6.4908 1.01793 6.82744 1.01856 7.16471 1.01474L7.81188 1.00011C8.02888 0.998196 8.27261 1.02047 8.38461 1.21647ZM6.20063 1.47292C6.18592 1.47291 6.17489 1.47927 6.16753 1.49201L4.34373 4.68334C4.32456 4.71627 4.29593 4.73282 4.25783 4.73298L2.43402 4.73298C2.39839 4.73298 2.38948 4.74889 2.40793 4.78007L6.10517 11.2429C6.12108 11.2696 6.11344 11.2824 6.08354 11.283L4.30492 11.2926C4.2471 11.2906 4.20468 11.3152 4.17764 11.3664L3.33765 12.8364C3.30965 12.886 3.32429 12.9114 3.38092 12.9114L7.01834 12.9165C7.04762 12.9165 7.06925 12.9293 7.08453 12.9554L7.97734 14.517C8.00661 14.5685 8.03588 14.5692 8.06579 14.517L11.2514 8.94248L11.7497 8.06304C11.7563 8.0511 11.7665 8.04513 11.7802 8.04513C11.7939 8.04513 11.8041 8.0511 11.8108 8.06304L12.7169 9.67302C12.7319 9.69952 12.7546 9.71267 12.785 9.71248L14.5433 9.69975C14.5532 9.69984 14.5606 9.6956 14.5655 9.68702C14.5703 9.67854 14.5703 9.67005 14.5655 9.66157L12.7201 6.42505C12.7054 6.40108 12.7054 6.37711 12.7201 6.35314L12.9066 6.03051L13.6193 4.77243C13.6346 4.74634 13.6269 4.73298 13.597 4.73298L6.21844 4.73298C6.1809 4.73298 6.17199 4.71643 6.19108 4.68398L7.10362 3.0899C7.11884 3.06572 7.11884 3.04154 7.10362 3.01736L6.23435 1.49265C6.22703 1.47938 6.21578 1.4728 6.20063 1.47292ZM10.2033 6.57651C10.2326 6.57651 10.2402 6.58924 10.225 6.61469L9.6955 7.54695L8.0327 10.4647C8.0258 10.4772 8.01519 10.4833 8.00088 10.4831C7.98674 10.4831 7.97614 10.4769 7.96906 10.4647L5.77172 6.62614C5.75899 6.60451 5.76536 6.59305 5.78954 6.59178L5.92699 6.58414L10.2046 6.57651L10.2033 6.57651Z" fill="url(#paint_linear_17)" fill-rule="nonzero" />
</svg>
