<svg viewBox="0 0 56 56" xmlns="http://www.w3.org/2000/svg" xmlns:xlink="http://www.w3.org/1999/xlink" width="56.000000" height="56.000000" fill="none">
	<defs>
		<linearGradient id="paint_linear_10" x1="9.9929409" x2="56.8832855" y1="9.57843018" y2="59.8869095" gradientUnits="userSpaceOnUse">
			<stop stop-color="rgb(98,180,46)" offset="0.021285329" stop-opacity="1" />
			<stop stop-color="rgb(49,102,20)" offset="0.9671821" stop-opacity="1" />
		</linearGradient>
		<linearGradient id="paint_linear_11" x1="31.1761093" x2="59.329277" y1="3.38574505" y2="29.8226128" gradientUnits="userSpaceOnUse">
			<stop stop-color="rgb(98,180,46)" offset="0.021285329" stop-opacity="1" />
			<stop stop-color="rgb(49,102,20)" offset="0.9671821" stop-opacity="1" />
		</linearGradient>
	</defs>
	<rect id="产品图标/workflow" width="56.000000" height="56.000000" x="0.000000" y="0.000000" />
	<rect id="矩形 " width="56.000000" height="56.000000" x="0.000000" y="0.000000" rx="8.000000" fill="rgb(242,251,233)" />
	<g id="组合 4664">
		<g style="mix-blend-mode:normal">
			<path id="矢量 773" d="M40.6851 13.0991C42.434 13.0991 43.8518 14.5169 43.8518 16.2658L43.8518 20.0657C43.8518 21.8146 42.434 23.2324 40.6851 23.2324L29.2859 23.2324C27.537 23.2324 26.1192 21.8146 26.1192 20.0657L26.1192 19.3059L16.7734 19.3059C16.6116 19.3059 16.4575 19.324 16.3033 19.3599C16.1949 19.3856 16.0902 19.4203 15.9855 19.4646C15.8751 19.5107 15.7705 19.5657 15.6734 19.6294C15.5535 19.7067 15.4432 19.7966 15.3404 19.8994C15.2376 20.0019 15.1482 20.113 15.0702 20.2322C15.0055 20.3305 14.9522 20.4342 14.9046 20.5438C14.8608 20.648 14.8266 20.7544 14.8018 20.8631C14.7638 21.0153 14.7466 21.1716 14.7466 21.3324L14.7466 25.1323C14.7466 25.2931 14.7638 25.4496 14.8018 25.6019C14.8266 25.7104 14.8608 25.8167 14.9046 25.9209C14.9522 26.0303 15.0055 26.1343 15.0702 26.2325C15.1482 26.3514 15.2376 26.4628 15.3404 26.5653C15.4432 26.6681 15.5535 26.758 15.6734 26.8353C15.7705 26.8988 15.8751 26.954 15.9855 27.0002C16.0902 27.0442 16.1949 27.0791 16.3033 27.1048C16.4575 27.141 16.6116 27.1588 16.7734 27.1588L37.6384 27.1588C37.9543 27.1588 38.2607 27.1919 38.5613 27.2573C38.8202 27.3137 39.0714 27.3936 39.3169 27.4978C39.5623 27.6017 39.7945 27.7264 40.0134 27.871C40.2551 28.0297 40.4777 28.2126 40.6851 28.4203C40.8926 28.6277 41.0753 28.8513 41.2332 29.0911C41.3779 29.3102 41.5035 29.5429 41.6081 29.7888C41.7109 30.0348 41.7927 30.2862 41.8479 30.5427C41.9145 30.8431 41.945 31.1507 41.945 31.4654L41.945 35.2653C41.945 35.58 41.9145 35.8878 41.8479 36.1883C41.7927 36.4447 41.7109 36.6959 41.6081 36.9421C41.5035 37.1881 41.3779 37.4205 41.2332 37.6396C41.0753 37.8796 40.8926 38.103 40.6851 38.3107C40.4777 38.5181 40.2551 38.7013 40.0134 38.8595L40.0134 38.8597L40.0134 38.8599L40.0134 38.8599C39.7945 39.0046 39.5623 39.1292 39.3169 39.2332C39.0714 39.3371 38.8202 39.4173 38.5613 39.4734C38.2607 39.5391 37.9543 39.5719 37.6384 39.5719L30.2013 39.5719L30.2013 40.3319C30.2013 42.0808 28.7835 43.4986 27.0346 43.4986L15.6354 43.4986C13.8865 43.4986 12.4687 42.0808 12.4687 40.3319L12.4687 36.532C12.4687 34.7831 13.8865 33.3654 15.6354 33.3654L27.0346 33.3654C28.7835 33.3654 30.2013 34.7831 30.2013 36.532L30.2013 37.2921L37.6384 37.2921C37.8001 37.2921 37.9581 37.274 38.1084 37.2378C38.2169 37.2121 38.3235 37.1774 38.4281 37.1331C38.5366 37.087 38.6413 37.0321 38.7402 36.9683C38.8582 36.891 38.9705 36.8011 39.0714 36.6985C39.1741 36.5958 39.2655 36.4847 39.3435 36.3655C39.4063 36.2673 39.4615 36.1636 39.5072 36.0539C39.5509 35.9497 39.5871 35.8434 39.6118 35.7349C39.648 35.5829 39.6651 35.4261 39.6651 35.2653L39.6651 31.4654C39.6651 31.3046 39.648 31.1483 39.6118 30.9958C39.5871 30.8874 39.5509 30.7813 39.5072 30.6768C39.4615 30.5674 39.4063 30.4635 39.3435 30.3652C39.2655 30.2463 39.1741 30.1352 39.0714 30.0324C38.9705 29.9296 38.8582 29.8397 38.7402 29.7624C38.6413 29.6989 38.5366 29.644 38.4281 29.5978C38.3235 29.5536 38.2169 29.5186 38.1084 29.4929C37.9581 29.457 37.8001 29.4389 37.6384 29.4389L16.7734 29.4389C16.4594 29.4389 16.1511 29.4061 15.8504 29.3404C15.5954 29.2843 15.3442 29.2041 15.0968 29.0999C14.8513 28.996 14.6172 28.8713 14.4003 28.7267C14.1605 28.5683 13.9359 28.3851 13.7285 28.1777C13.5192 27.97 13.3384 27.7464 13.1785 27.5066C13.0339 27.2875 12.9102 27.0551 12.8055 26.8091C12.7009 26.5629 12.6228 26.3117 12.5658 26.055C12.5011 25.7548 12.4668 25.447 12.4668 25.1323L12.4668 21.3324C12.4668 21.0177 12.5011 20.7099 12.5658 20.4094C12.6228 20.153 12.7009 19.9018 12.8055 19.6556C12.9102 19.4099 13.0339 19.1772 13.1785 18.9581C13.3384 18.7183 13.5192 18.4947 13.7285 18.2873C13.9359 18.0796 14.1605 17.8965 14.4003 17.738C14.6191 17.5932 14.8513 17.4688 15.0968 17.3646C15.3442 17.2606 15.5954 17.1807 15.8504 17.1243C16.1511 17.0586 16.4594 17.0258 16.7734 17.0258L26.1192 17.0258L26.1192 16.2658C26.1192 14.5169 27.537 13.0991 29.2859 13.0991L40.6851 13.0991Z" fill="url(#paint_linear_10)" fill-rule="evenodd" />
		</g>
		<g style="mix-blend-mode:normal">
			<path id="合并" d="M45.8411 7.2416L46.5176 5.49854L47.1497 7.2416L48.9538 7.94522L47.1497 8.62401L46.5176 10.3708L45.8411 8.62401L44.0815 7.94522L45.8411 7.2416ZM38.4288 13.1543L40.7177 7.25697L42.8561 13.1543L48.96 15.5349L42.8561 17.8314L40.7177 23.7415L38.4288 17.8314L32.4755 15.5349L38.4288 13.1543Z" fill="url(#paint_linear_11)" fill-rule="evenodd" />
			<path id="合并" d="M40.7822 1.49469L42.5521 6.37602L44.2719 5.68832L46.5821 -0.263737L48.7404 5.6886L54.6136 7.97919L48.7362 10.1905L47.7584 12.8929L54.6198 15.5688L44.4426 19.3979L40.7822 29.5146L36.8642 19.3981L26.9372 15.5687L36.8597 11.601L40.7822 1.49469ZM46.5176 5.49854L45.8411 7.2416L44.0815 7.94522L45.8411 8.62401L46.5176 10.3708L47.1497 8.62401L48.9538 7.94522L47.1497 7.2416L46.5176 5.49854ZM40.7177 7.25697L38.4288 13.1543L32.4755 15.5349L38.4288 17.8314L40.7177 23.7415L42.8561 17.8314L48.96 15.5349L42.8561 13.1543L40.7177 7.25697ZM43.8799 10.0377L44.2765 10.1907L44.8897 11.774L44.4468 11.6013L43.8799 10.0377Z" fill="rgb(242,251,233)" fill-rule="evenodd" />
		</g>
	</g>
</svg>
