<svg viewBox="0 0 48 48" xmlns="http://www.w3.org/2000/svg" xmlns:xlink="http://www.w3.org/1999/xlink" width="48.000000" height="48.000000" fill="none">
	<rect id="制品类型图标/debian48" width="48.000000" height="48.000000" x="0.000000" y="0.000000" />
	<g id="模型/debian48">
		<g id="资源-1">
			<path id="路径" d="M18.4877 12.0626C18.4691 12.2528 18.3058 12.3953 18.1156 12.3873C17.7103 12.436 17.3266 12.5978 17.0082 12.8544C15.687 13.7993 14.5389 14.9672 13.6151 16.306C13.5487 16.395 13.3803 16.5373 13.6638 16.5729C13.8189 16.5952 13.7436 16.6841 13.7126 16.7553C13.608 17.015 13.4897 17.2689 13.3582 17.5159C12.7577 18.4829 12.4075 19.5854 12.3394 20.7229C12.2862 22.044 12.0382 23.3473 12.1312 24.6817C12.1361 25.1756 12.2722 25.6593 12.5254 26.0828C12.6051 26.2176 12.6181 26.3818 12.5609 26.5276C12.463 26.9369 12.5471 27.3686 12.7912 27.7108C12.8311 27.773 12.9374 27.8575 12.7513 27.902C12.6495 27.902 12.7248 28.0266 12.7513 28.0844C12.8532 28.3557 12.9551 28.6315 13.0658 28.8984C13.1606 29.2653 13.4859 29.5247 13.8632 29.5344C14.0228 29.5481 14.1692 29.6289 14.2663 29.7568C14.6076 30.1881 14.8714 30.6758 15.0459 31.198C14.8178 31.1339 14.616 30.9983 14.47 30.811C14.3992 30.9756 14.47 31.0912 14.5365 31.2024C14.715 31.6136 14.9394 32.0031 15.2054 32.3634C15.2452 32.4256 15.3648 32.4968 15.2895 32.5724C14.9617 32.8838 15.2895 33.0172 15.4357 33.2352C15.4755 33.284 15.52 33.3287 15.5686 33.3686C15.635 33.4265 15.7591 33.4709 15.5686 33.5688C15.5154 33.5999 15.5686 33.7067 15.5952 33.7734C16.0052 34.4748 16.4656 35.1453 16.9728 35.7795C17.1012 35.9574 17.0924 35.6549 17.2031 35.7127C17.3653 36.2654 17.6535 36.7725 18.0447 37.1939C18.0969 37.2862 18.2031 37.3332 18.3061 37.3096C18.5204 37.2604 18.7407 37.3628 18.8421 37.5587C19.1391 37.9905 19.559 38.3223 20.0469 38.5105C19.8166 38.853 19.8166 38.9153 20.2153 39.0665C20.6139 39.2178 20.7778 39.4624 21.1012 39.6136C21.3138 39.7159 21.5441 39.8005 21.7435 39.8939C21.8276 39.7916 21.6682 39.7337 21.7435 39.6581C21.7831 39.6416 21.8289 39.6545 21.8542 39.6893C22.1826 40.0689 22.5379 40.4242 22.9173 40.7523C23.6114 41.1764 24.3906 41.4408 25.1986 41.5263C25.522 41.5841 25.8497 41.6508 26.1731 41.7176C26.0757 41.8332 25.9428 41.7531 25.832 41.7754C25.7213 41.7976 25.5441 41.7042 25.4289 41.8376L24.986 41.8376C24.6269 41.7608 24.2627 41.7103 23.8963 41.6864C22.1845 41.3647 20.5537 40.7039 19.099 39.7426C14.9005 37.0417 11.9186 32.801 10.789 27.9243C10.517 26.8302 10.3786 25.707 10.3771 24.5794C10.3771 23.2449 10.4922 21.875 10.3771 20.5361C10.2442 19.1038 10.696 17.8406 11.1744 16.564C11.3649 16.057 11.5908 15.5632 11.8078 15.0651C11.9009 14.8515 11.9584 14.6203 12.2729 14.5713C12.4501 14.5491 12.5431 14.3311 12.6317 14.1621C12.7008 14.0349 12.76 13.9025 12.8089 13.7662C13.3414 12.3573 14.2171 11.1048 15.356 10.1233C15.8432 9.70075 16.3083 9.23371 16.8 8.7889L16.8576 9.03355C17.4022 8.56234 17.9963 8.15218 18.6295 7.81034C19.7812 7.17428 21.0037 6.70279 22.1997 6.16902C22.3902 6.08451 22.4877 6.29357 22.687 6.24019C23.13 6.12454 23.5729 6.07562 24.0159 6L24.1576 6L23.5065 6.38253C24.0735 6.26243 24.6183 6.48928 25.1587 6.45815C25.0657 6.57379 24.8752 6.53376 24.7512 6.68499C25.5928 6.87181 26.4123 6.31136 27.2185 6.68499C27.3381 6.59603 27.1963 6.47594 27.2849 6.39143C28.4778 6.70717 29.6367 7.14074 30.7445 7.6858C30.9356 7.77454 31.1558 7.77454 31.3469 7.6858C31.6018 7.59033 31.879 7.57178 32.1442 7.63242C32.3472 7.66614 32.5209 7.79737 32.6094 7.98381C32.7998 8.3619 33.2074 8.50868 33.5573 8.74887C33.4997 8.52202 33.4997 8.52202 33.2738 8.30407C34.6337 8.37524 38.2837 12.7254 38.4875 14.5313C38.3944 14.4824 38.4033 14.3445 38.2483 14.3133C38.2365 14.9814 38.357 15.6451 38.6026 16.266C38.4919 15.9991 38.3059 15.75 38.1951 15.4832C38.0552 15.1243 37.8832 14.7789 37.6813 14.4512C37.6281 14.3667 37.5882 14.2066 37.4642 14.4112C37.3933 14.5268 37.2605 14.4913 37.1497 14.469C36.9238 14.4201 36.8574 14.5313 36.8839 14.727C36.9028 14.9458 36.9598 15.1596 37.0523 15.3586C37.0921 15.4387 37.1497 15.6077 37.287 15.4209C37.3491 15.3319 37.3933 15.4209 37.4244 15.452C37.4938 15.5449 37.5476 15.6486 37.5838 15.7589C37.6901 16.2838 37.7876 16.8176 37.8939 17.3869C37.6857 17.2446 37.6591 17.0044 37.4288 16.8532C37.4715 17.2636 37.6063 17.659 37.823 18.0096C37.8898 18.1059 37.8898 18.2337 37.823 18.3299C37.713 18.6709 37.7351 19.041 37.885 19.3663C37.9426 19.5353 38.1065 19.4108 38.235 19.4641C38.0356 20.1091 37.7034 20.714 37.7123 21.4257L37.5528 21.0788C37.5528 21.2167 37.4864 21.3545 37.4864 21.4969C37.3446 21.4969 37.256 21.5947 37.2649 21.7148C37.2409 22.4238 37.0283 23.1134 36.6492 23.712C36.4163 24.0995 36.2655 24.531 36.2062 24.9797L35.8873 24.5705C35.4 24.9886 35.4089 25.5846 35.3646 26.1628C35.1431 26.0872 35.3203 25.9404 35.214 25.8204C34.926 26.0917 34.6425 26.3586 34.3591 26.6343C33.4336 27.5586 32.3113 28.2597 31.0767 28.6849C29.2274 29.2734 27.2379 29.2438 25.4068 28.6004C25.2759 28.538 25.1348 28.5003 24.9904 28.4892C24.9348 28.3317 24.8289 28.1972 24.6892 28.1066C23.8787 27.5095 23.136 26.8249 22.4744 26.065C21.593 25.0327 21.0979 23.7238 21.0746 22.3642C21.0628 21.8206 21.0865 21.2768 21.1455 20.7363C21.1676 20.5406 21.3138 20.4294 21.3758 20.2648C21.5087 19.8956 21.6416 19.522 21.7878 19.1572C21.9166 18.752 22.1541 18.3904 22.4744 18.1119C22.5246 18.0744 22.5655 18.0257 22.594 17.9696C23.6571 15.879 27.1166 14.6692 29.7212 16.7731C29.8453 16.8709 30.0003 16.9466 30.0579 17.1111C29.9339 17.1957 29.8674 17.1111 29.7921 17.0578C28.2753 16.2199 26.4449 16.1855 24.8978 16.9658C23.3508 17.746 22.2854 19.241 22.0491 20.9631C22.0123 21.2954 22.0064 21.6305 22.0314 21.9639C22.0314 22.004 21.9295 22.2664 22.1687 22.0662C22.2175 22.0262 22.2086 22.1507 22.213 22.1997C22.4522 24.9307 23.914 26.7455 26.4123 27.7419C27.532 28.2109 28.792 28.2109 29.9117 27.7419C30.0623 27.6752 30.1996 27.7419 30.3547 27.6974C30.8365 27.5595 31.2755 27.3008 31.6304 26.9457C31.657 26.919 31.7766 26.6121 31.8475 26.9457C31.8475 27.0258 31.9759 26.9457 32.0335 26.9457C32.2513 26.795 32.4613 26.6332 32.6625 26.4609C33.1719 26.0161 33.668 25.5713 34.173 25.1487C34.3537 25.0142 34.4526 24.7956 34.4344 24.5705C34.3391 24.2146 34.5318 23.845 34.8773 23.7209C35.0307 23.6576 35.1477 23.5287 35.1963 23.3695C35.4259 22.8558 35.5825 22.3123 35.6614 21.7549C35.6614 21.5903 35.6924 21.4568 35.4266 21.5947C35.5474 21.3048 35.6062 20.9926 35.5993 20.6784C35.6924 19.8047 35.6924 18.9234 35.5993 18.0497C35.4459 16.5909 34.9658 15.1859 34.1952 13.9397C33.3852 12.6317 32.3126 11.5076 31.0457 10.6393C29.482 9.62068 27.7235 9.30487 25.8985 9.30487C25.3978 9.29069 24.8971 9.33246 24.4057 9.42942C24.3165 9.45864 24.2203 9.45864 24.1311 9.42942C24.1311 9.31822 24.0513 9.35825 24.0026 9.3627C23.3461 9.38906 22.7053 9.57203 22.1333 9.89646C21.6769 10.2044 21.1744 10.4371 20.6449 10.5859C20.5611 10.5976 20.49 10.6537 20.4589 10.7327C20.7202 10.8039 20.9373 10.6348 21.2031 10.6393C21.02 10.841 20.7569 10.9502 20.4855 10.9373C19.6008 10.9688 18.7706 11.3744 18.1998 12.0537C18.1653 12.0894 18.1342 12.1281 18.1068 12.1694C18.2839 12.2406 18.3415 12.0537 18.4877 12.0626Z" fill="rgb(168,2,50)" fill-rule="nonzero" />
			<path id="路径" d="M18.1156 12.3873C17.7103 12.436 17.3266 12.5978 17.0082 12.8544C15.687 13.7993 14.5389 14.9672 13.6151 16.306C13.5487 16.395 13.3803 16.5373 13.6638 16.5729C13.8189 16.5952 13.7436 16.6841 13.7126 16.7553C13.608 17.015 13.4897 17.2689 13.3582 17.5159C12.7577 18.4829 12.4075 19.5854 12.3394 20.7229C12.2862 22.044 12.0382 23.3473 12.1312 24.6817C12.1361 25.1756 12.2722 25.6593 12.5254 26.0828C12.6051 26.2176 12.6181 26.3818 12.5609 26.5276C12.463 26.9369 12.5471 27.3686 12.7912 27.7108C12.8311 27.773 12.9374 27.8575 12.7513 27.902C12.6495 27.902 12.7248 28.0266 12.7513 28.0844C12.8532 28.3557 12.9551 28.6315 13.0658 28.8984C13.1606 29.2653 13.4859 29.5247 13.8632 29.5344C14.0228 29.5481 14.1692 29.6289 14.2663 29.7568C14.6076 30.1881 14.8714 30.6758 15.0459 31.198C14.8178 31.1339 14.616 30.9983 14.47 30.811C14.3992 30.9756 14.47 31.0912 14.5365 31.2024C14.715 31.6136 14.9394 32.0031 15.2054 32.3634C15.2452 32.4256 15.3648 32.4968 15.2895 32.5724C14.9617 32.8838 15.2895 33.0172 15.4357 33.2352C15.4755 33.284 15.52 33.3287 15.5686 33.3686C15.635 33.4265 15.7591 33.4709 15.5686 33.5688C15.5154 33.5999 15.5686 33.7067 15.5952 33.7734C16.0052 34.4748 16.4656 35.1453 16.9728 35.7795C17.1012 35.9574 17.0924 35.6549 17.2031 35.7127C17.3653 36.2654 17.6535 36.7725 18.0447 37.1939C18.0969 37.2862 18.2031 37.3332 18.3061 37.3096C18.5204 37.2604 18.7407 37.3628 18.8421 37.5587C19.1391 37.9905 19.559 38.3223 20.0469 38.5105C19.8166 38.853 19.8166 38.9153 20.2153 39.0665C20.6139 39.2178 20.7778 39.4624 21.1012 39.6136C21.3138 39.7159 21.5441 39.8005 21.7435 39.8939C21.8276 39.7916 21.6682 39.7337 21.7435 39.6581C21.7831 39.6416 21.8289 39.6545 21.8542 39.6893C22.1826 40.0689 22.5379 40.4242 22.9173 40.7523C23.6114 41.1764 24.3906 41.4408 25.1986 41.5263C25.522 41.5841 25.8497 41.6508 26.1731 41.7176C26.0757 41.8332 25.9428 41.7531 25.832 41.7754C25.7213 41.7976 25.5441 41.7042 25.4289 41.8376L24.986 41.8376C24.6269 41.7608 24.2627 41.7103 23.8963 41.6864C22.1845 41.3647 20.5537 40.7039 19.099 39.7426C14.9005 37.0417 11.9186 32.801 10.789 27.9243C10.517 26.8302 10.3786 25.707 10.3771 24.5794C10.3771 23.2449 10.4922 21.875 10.3771 20.5361C10.2442 19.1038 10.696 17.8406 11.1744 16.564C11.3649 16.057 11.5908 15.5632 11.8078 15.0651C11.9009 14.8515 11.9584 14.6203 12.2729 14.5713C12.4501 14.5491 12.5431 14.3311 12.6317 14.1621C12.7008 14.0349 12.76 13.9025 12.8089 13.7662C13.3414 12.3573 14.2171 11.1048 15.356 10.1233C15.8432 9.70075 16.3083 9.23371 16.8 8.7889L16.8576 9.03355C17.4022 8.56234 17.9963 8.15218 18.6295 7.81034C19.7812 7.17428 21.0037 6.70279 22.1997 6.16902C22.3902 6.08451 22.4877 6.29357 22.687 6.24019C23.13 6.12454 23.5729 6.07562 24.0159 6L24.1576 6L23.5065 6.38253C24.0735 6.26243 24.6183 6.48928 25.1587 6.45815C25.0657 6.57379 24.8752 6.53376 24.7512 6.68499C25.5928 6.87181 26.4123 6.31136 27.2185 6.68499C27.3381 6.59603 27.1963 6.47594 27.2849 6.39143C28.4778 6.70717 29.6367 7.14074 30.7445 7.6858C30.9356 7.77454 31.1558 7.77454 31.3469 7.6858C31.6018 7.59033 31.879 7.57178 32.1442 7.63242C32.3472 7.66614 32.5209 7.79737 32.6094 7.98381C32.7998 8.3619 33.2074 8.50868 33.5573 8.74887C33.4997 8.52202 33.4997 8.52202 33.2738 8.30407C34.6337 8.37524 38.2837 12.7254 38.4875 14.5313C38.3944 14.4824 38.4033 14.3445 38.2483 14.3133C38.2365 14.9814 38.357 15.6451 38.6026 16.266C38.4919 15.9991 38.3059 15.75 38.1951 15.4832C38.0552 15.1243 37.8832 14.7789 37.6813 14.4512C37.6281 14.3667 37.5882 14.2066 37.4642 14.4112C37.3933 14.5268 37.2605 14.4913 37.1497 14.469C36.9238 14.4201 36.8574 14.5313 36.8839 14.727C36.9028 14.9458 36.9598 15.1596 37.0523 15.3586C37.0921 15.4387 37.1497 15.6077 37.287 15.4209C37.3491 15.3319 37.3933 15.4209 37.4244 15.452C37.4938 15.5449 37.5476 15.6486 37.5838 15.7589C37.6901 16.2838 37.7876 16.8176 37.8939 17.3869C37.6857 17.2446 37.6591 17.0044 37.4288 16.8532C37.4715 17.2636 37.6063 17.659 37.823 18.0096C37.8898 18.1059 37.8898 18.2337 37.823 18.3299C37.713 18.6709 37.7351 19.041 37.885 19.3663C37.9426 19.5353 38.1065 19.4108 38.235 19.4641C38.0356 20.1091 37.7034 20.714 37.7123 21.4257L37.5528 21.0788C37.5528 21.2167 37.4864 21.3545 37.4864 21.4969C37.3446 21.4969 37.256 21.5947 37.2649 21.7148C37.2409 22.4238 37.0283 23.1134 36.6492 23.712C36.4163 24.0995 36.2655 24.531 36.2062 24.9797L35.8873 24.5705C35.4 24.9886 35.4089 25.5846 35.3646 26.1628C35.1431 26.0872 35.3203 25.9404 35.214 25.8204C34.926 26.0917 34.6425 26.3586 34.3591 26.6343C33.4336 27.5586 32.3113 28.2597 31.0767 28.6849C29.2274 29.2734 27.2379 29.2438 25.4068 28.6004C25.2759 28.538 25.1348 28.5003 24.9904 28.4892C24.9348 28.3317 24.8289 28.1972 24.6892 28.1066C23.8787 27.5095 23.136 26.8249 22.4744 26.065C21.593 25.0327 21.0979 23.7238 21.0746 22.3642C21.0628 21.8206 21.0865 21.2768 21.1455 20.7363C21.1676 20.5406 21.3138 20.4294 21.3758 20.2648C21.5087 19.8956 21.6416 19.522 21.7878 19.1572C21.9166 18.752 22.1541 18.3904 22.4744 18.1119C22.5246 18.0744 22.5655 18.0257 22.594 17.9696C23.6571 15.879 27.1166 14.6692 29.7212 16.7731C29.8453 16.8709 30.0003 16.9466 30.0579 17.1111C29.9339 17.1957 29.8674 17.1111 29.7921 17.0578C28.2753 16.2199 26.4449 16.1855 24.8978 16.9658C23.3508 17.746 22.2854 19.241 22.0491 20.9631C22.0123 21.2954 22.0064 21.6305 22.0314 21.9639C22.0314 22.004 21.9295 22.2664 22.1687 22.0662C22.2175 22.0262 22.2086 22.1507 22.213 22.1997C22.4522 24.9307 23.914 26.7455 26.4123 27.7419C27.532 28.2109 28.792 28.2109 29.9117 27.7419C30.0623 27.6752 30.1996 27.7419 30.3547 27.6974C30.8365 27.5595 31.2755 27.3008 31.6304 26.9457C31.657 26.919 31.7766 26.6121 31.8475 26.9457C31.8475 27.0258 31.9759 26.9457 32.0335 26.9457C32.2513 26.795 32.4613 26.6332 32.6625 26.4609C33.1719 26.0161 33.668 25.5713 34.173 25.1487C34.3537 25.0142 34.4526 24.7956 34.4344 24.5705C34.3391 24.2146 34.5318 23.845 34.8773 23.7209C35.0307 23.6576 35.1477 23.5287 35.1963 23.3695C35.4259 22.8558 35.5825 22.3123 35.6614 21.7549C35.6614 21.5903 35.6924 21.4568 35.4266 21.5947C35.5474 21.3048 35.6062 20.9926 35.5993 20.6784C35.6924 19.8047 35.6924 18.9234 35.5993 18.0497C35.4459 16.5909 34.9658 15.1859 34.1952 13.9397C33.3852 12.6317 32.3126 11.5076 31.0457 10.6393C29.482 9.62068 27.7235 9.30487 25.8985 9.30487C25.3978 9.29069 24.8971 9.33246 24.4057 9.42942C24.3165 9.45864 24.2203 9.45864 24.1311 9.42942C24.1311 9.31822 24.0513 9.35825 24.0026 9.3627C23.3461 9.38906 22.7053 9.57203 22.1333 9.89646C21.6769 10.2044 21.1744 10.4371 20.6449 10.5859C20.5611 10.5976 20.49 10.6537 20.4589 10.7327C20.7202 10.8039 20.9373 10.6348 21.2031 10.6393C21.02 10.841 20.7569 10.9502 20.4855 10.9373C19.6008 10.9688 18.7706 11.3744 18.1998 12.0537C18.1653 12.0894 18.1342 12.1281 18.1068 12.1694C18.2839 12.2406 18.3415 12.0537 18.4877 12.0626C18.4691 12.2528 18.3058 12.3953 18.1156 12.3873Z" fill-rule="nonzero" stroke="rgb(0,0,0)" stroke-opacity="0" stroke-width="1" />
			<path id="路径" d="M25.4424 41.8376C25.5576 41.7042 25.7082 41.802 25.8455 41.7754C25.9828 41.7487 26.0891 41.8332 26.1866 41.7175C26.3406 41.728 26.4911 41.7688 26.6295 41.8376L25.4424 41.8376Z" fill="rgb(194,79,112)" fill-rule="nonzero" />
			<path id="路径" d="M25.8455 41.7754C25.9828 41.7487 26.0891 41.8332 26.1866 41.7175C26.3406 41.728 26.4911 41.7688 26.6295 41.8376L25.4424 41.8376C25.5576 41.7042 25.7082 41.802 25.8455 41.7754Z" fill-rule="nonzero" stroke="rgb(0,0,0)" stroke-opacity="0" stroke-width="1" />
			<path id="路径" d="M24.9906 28.4759C25.2618 28.9109 25.6853 29.2282 26.1778 29.3655C27.1261 29.6531 28.1162 29.7765 29.1058 29.7302L29.3981 29.7302C29.1341 29.8596 28.8457 29.9308 28.5521 29.9393C27.4375 30.0047 26.3244 29.7891 25.314 29.3121C23.8523 28.7426 22.602 27.7326 21.7349 26.4209C22.2753 26.8657 22.6651 27.4528 23.2276 27.8621C23.2276 27.6841 23.0815 27.5996 23.015 27.4617C23.1391 27.3817 23.1789 27.5062 23.2365 27.5551C23.666 27.9343 24.1354 28.2654 24.6363 28.5426C24.7824 28.6271 24.8888 28.6227 24.9906 28.4759Z" fill="rgb(173,16,61)" fill-rule="nonzero" />
			<path id="路径" d="M26.1778 29.3655C27.1261 29.6531 28.1162 29.7765 29.1058 29.7302L29.3981 29.7302C29.1341 29.8596 28.8457 29.9308 28.5521 29.9393C27.4375 30.0047 26.3244 29.7891 25.314 29.3121C23.8523 28.7426 22.602 27.7326 21.7349 26.4209C22.2753 26.8657 22.6651 27.4528 23.2276 27.8621C23.2276 27.6841 23.0815 27.5996 23.015 27.4617C23.1391 27.3817 23.1789 27.5062 23.2365 27.5551C23.666 27.9343 24.1354 28.2654 24.6363 28.5426C24.7824 28.6271 24.8888 28.6227 24.9906 28.4759C25.2618 28.9109 25.6853 29.2282 26.1778 29.3655Z" fill-rule="nonzero" stroke="rgb(0,0,0)" stroke-opacity="0" stroke-width="1" />
			<path id="路径" d="M27.1655 24.8461C27.6701 24.8514 28.1745 24.8261 28.676 24.7705C28.4191 25.3132 27.8521 25.3487 27.1655 24.8461Z" fill="rgb(173,16,61)" fill-rule="nonzero" />
			<path id="路径" d="M28.676 24.7705C28.4191 25.3132 27.8521 25.3487 27.1655 24.8461C27.6701 24.8514 28.1745 24.8261 28.676 24.7705Z" fill-rule="nonzero" stroke="rgb(0,0,0)" stroke-opacity="0" stroke-width="1" />
			<path id="路径" d="M20.8668 25.6824L21.8058 27.3015C21.673 27.1369 21.4515 27.0212 21.323 26.8478C21.1946 26.6743 21.0838 26.483 20.9509 26.314C20.7766 26.1505 20.7413 25.8862 20.8668 25.6824Z" fill="rgb(173,16,61)" fill-rule="nonzero" />
			<path id="路径" d="M21.8058 27.3015C21.673 27.1369 21.4515 27.0212 21.323 26.8478C21.1946 26.6743 21.0838 26.483 20.9509 26.314C20.7766 26.1505 20.7413 25.8862 20.8668 25.6824L21.8058 27.3015Z" fill-rule="nonzero" stroke="rgb(0,0,0)" stroke-opacity="0" stroke-width="1" />
			<path id="路径" d="M10.873 14.2822C10.9799 14.1126 11.041 13.9179 11.0502 13.7173C11.0502 13.535 11.1787 13.5483 11.2806 13.5617C11.3825 13.575 11.3603 13.6906 11.3382 13.7707C11.3041 14.0217 11.1189 14.2254 10.873 14.2822Z" fill="rgb(173,16,61)" fill-rule="nonzero" />
			<path id="路径" d="M11.0502 13.7173C11.0502 13.535 11.1787 13.5483 11.2806 13.5617C11.3825 13.575 11.3603 13.6906 11.3382 13.7707C11.3041 14.0217 11.1189 14.2254 10.873 14.2822C10.9799 14.1126 11.041 13.9179 11.0502 13.7173Z" fill-rule="nonzero" stroke="rgb(0,0,0)" stroke-opacity="0" stroke-width="1" />
			<path id="路径" d="M31.6747 21.0788C31.5418 20.8075 31.3514 20.594 31.5418 20.3138C31.5728 20.2737 31.595 20.2159 31.657 20.2248C31.7076 20.2394 31.7409 20.2878 31.7367 20.3404C31.7809 20.5878 31.7595 20.8424 31.6747 21.0788Z" fill="rgb(173,16,61)" fill-rule="nonzero" />
			<path id="路径" d="M31.5418 20.3138C31.5728 20.2737 31.595 20.2159 31.657 20.2248C31.7076 20.2394 31.7409 20.2878 31.7367 20.3404C31.7809 20.5878 31.7595 20.8424 31.6747 21.0788C31.5418 20.8075 31.3514 20.594 31.5418 20.3138Z" fill-rule="nonzero" stroke="rgb(0,0,0)" stroke-opacity="0" stroke-width="1" />
			<path id="路径" d="M10.1071 17.3424C9.99239 16.9574 10.0979 16.5403 10.3817 16.2571C10.3407 16.6299 10.2482 16.9951 10.1071 17.3424Z" fill="rgb(181,40,81)" fill-rule="nonzero" />
			<path id="路径" d="M10.3817 16.2571C10.3407 16.6299 10.2482 16.9951 10.1071 17.3424C9.99239 16.9574 10.0979 16.5403 10.3817 16.2571Z" fill-rule="nonzero" stroke="rgb(0,0,0)" stroke-opacity="0" stroke-width="1" />
			<path id="路径" d="M30.2485 23.7297C30.4612 23.7608 30.5985 23.5696 30.82 23.5295C30.82 23.7164 30.6782 23.8187 30.6118 23.9743L30.2485 23.7297Z" fill="rgb(181,40,81)" fill-rule="nonzero" />
			<path id="路径" d="M30.82 23.5295C30.82 23.7164 30.6782 23.8187 30.6118 23.9743L30.2485 23.7297C30.4612 23.7608 30.5985 23.5696 30.82 23.5295Z" fill-rule="nonzero" stroke="rgb(0,0,0)" stroke-opacity="0" stroke-width="1" />
			<path id="路径" d="M30.253 23.7208C30.1113 23.6452 30.2043 23.5474 30.253 23.4673C30.3375 23.2659 30.4645 23.0854 30.6251 22.938C30.5675 23.2271 30.3106 23.4273 30.253 23.7208Z" fill="rgb(181,40,81)" fill-rule="nonzero" />
			<path id="路径" d="M30.253 23.4673C30.3375 23.2659 30.4645 23.0854 30.6251 22.938C30.5675 23.2271 30.3106 23.4273 30.253 23.7208C30.1113 23.6452 30.2043 23.5474 30.253 23.4673Z" fill-rule="nonzero" stroke="rgb(0,0,0)" stroke-opacity="0" stroke-width="1" />
			<path id="路径" d="M38.0491 22.8446C38.0175 23.1389 37.9223 23.4228 37.77 23.6763L38.0491 22.8446Z" fill="rgb(222,159,177)" fill-rule="nonzero" />
			<path id="路径" d="M37.77 23.6763L38.0491 22.8446C38.0175 23.1389 37.9223 23.4228 37.77 23.6763Z" fill-rule="nonzero" stroke="rgb(0,0,0)" stroke-opacity="0" stroke-width="1" />
			<path id="路径" d="M38.6914 16.7153C38.8166 16.929 38.8767 17.1749 38.8642 17.4226C38.7695 17.1975 38.7112 16.9588 38.6914 16.7153Z" fill="rgb(194,79,112)" fill-rule="nonzero" />
			<path id="路径" d="M38.8642 17.4226C38.7695 17.1975 38.7112 16.9588 38.6914 16.7153C38.8166 16.929 38.8767 17.1749 38.8642 17.4226Z" fill-rule="nonzero" stroke="rgb(0,0,0)" stroke-opacity="0" stroke-width="1" />
			<path id="路径" d="M0 0L0.420454 0" stroke="rgb(0,0,0)" stroke-opacity="0" stroke-width="1" transform="matrix(0.105354,0.994435,-0.994435,0.105354,37.4336,21.5369)" />
			<path id="路径" d="" stroke="rgb(0,0,0)" stroke-opacity="0" stroke-width="1" />
			<path id="路径" d="" stroke="rgb(0,0,0)" stroke-opacity="0" stroke-width="1" />
			<path id="路径" d="" stroke="rgb(0,0,0)" stroke-opacity="0" stroke-width="1" />
			<path id="路径" d="" stroke="rgb(0,0,0)" stroke-opacity="0" stroke-width="1" />
		</g>
	</g>
</svg>
