<svg viewBox="0 0 48 48" xmlns="http://www.w3.org/2000/svg" xmlns:xlink="http://www.w3.org/1999/xlink" width="48.000000" height="48.000000" fill="none" customFrame="#000000">
	<rect id="项目首字母图标/3-48px*48px" width="48.000000" height="48.000000" x="0.000000" y="0.000000" />
	<rect id="矩形" width="48.000000" height="48.000000" x="0.000000" y="0.000000" opacity="0" fill="rgb(216,216,216)" />
	<rect id="矩形" width="47.000000" height="47.000000" x="0.500000" y="0.500000" opacity="0" stroke="rgb(151,151,151)" stroke-opacity="0" stroke-width="1" />
	<g id="3">
		<path id="形状结合" d="M35.7408 40.7962L33.5054 38.3281C36.3378 36.1977 38.1695 32.8084 38.1695 28.9913L38.1666 28.7306C38.1374 27.3962 37.8843 26.117 37.4434 24.929L40.6068 23.8821C41.1533 25.3801 41.4631 26.985 41.4997 28.6572L41.4997 28.6676C41.4997 32.9391 39.8817 36.6743 37.2787 39.3962C36.7986 39.8983 36.2847 40.3661 35.7408 40.7962Z" fill="rgb(238,186,91)" fill-rule="evenodd" />
		<path id="路径" d="M32.5198 7.33337C34.867 7.33337 36.7698 9.23616 36.7698 11.5834C36.7698 12.7025 36.3285 13.7733 35.5472 14.5663L35.3864 14.7211L31.3775 18.3834L31.5942 18.4866C35.4118 20.3448 38.065 24.2227 38.1638 28.7303L38.1667 28.991C38.1667 35.3522 33.0796 40.5252 26.7517 40.6639L26.4909 40.6667L9 40.6667L9 32.3334L26.4909 32.3334C28.3369 32.3334 29.8333 30.8369 29.8333 28.991C29.8333 27.201 28.4262 25.7396 26.6578 25.6527L26.4909 25.6486L21.8086 25.6486C18.0646 25.6486 16.2474 21.1162 18.87 18.5275L18.9983 18.4058L21.995 15.6667L9.83333 15.6667L9.83333 7.33337L32.5198 7.33337Z" fill="rgb(105,99,240)" fill-rule="evenodd" />
		<path id="形状结合" d="M18.7112 18.6947L21.0043 16.5741L21.9969 15.6668L21.9853 15.6668L30.9964 7.3335L32.5217 7.3335C34.8689 7.3335 36.7717 9.23629 36.7717 11.5835C36.7717 12.6477 36.3727 13.6681 35.6618 14.4475L31.5275 18.2482L31.3794 18.3835L31.38 18.3838L23.4774 25.6487L21.8106 25.6487C19.2845 25.6487 17.6355 23.5855 17.6355 21.448C17.6355 20.4846 17.9705 19.5061 18.7112 18.6947Z" fill="rgb(178,126,245)" fill-rule="evenodd" />
		<path id="路径" d="M32.52 7.33337C34.8672 7.33337 36.77 9.23616 36.77 11.5834C36.77 12.7025 36.3287 13.7733 35.5473 14.5663L35.3866 14.7211L34.351 15.6667L9.8335 15.6667L9.8335 7.33337L32.52 7.33337Z" fill="rgb(255,143,206)" fill-rule="evenodd" />
		<path id="形状结合" d="M21.9942 15.6668L21.9945 15.6666L21.9832 15.6666L30.9939 7.3335L32.52 7.3335C33.0219 7.3335 33.5034 7.42048 33.9504 7.58019C35.5935 8.16768 36.7693 9.73815 36.7693 11.5832C36.7693 12.6481 36.3698 13.6692 35.6579 14.4488L34.333 15.6668L21.9942 15.6668Z" fill="rgb(85,203,170)" fill-rule="evenodd" />
		<path id="路径" d="M32.0581 10.8953C32.3922 10.5788 32.9197 10.5929 33.2362 10.927C33.5285 11.2353 33.5389 11.7085 33.276 12.0285L33.2046 12.1051L22.9066 21.8643C22.5725 22.1809 22.045 22.1667 21.7285 21.8326C21.4362 21.5243 21.4258 21.0511 21.6887 20.7312L21.7601 20.6545L32.0581 10.8953Z" fill="rgb(255,255,255)" fill-rule="evenodd" />
		<path id="形状结合" d="M27.0741 22.3399C30.4878 22.6355 33.1663 25.5002 33.1663 28.9905C33.1663 32.6774 30.1775 35.6662 26.4906 35.6662L12.333 35.6662L12.333 37.3328L26.4906 37.3328L26.7241 37.3296C31.2235 37.206 34.833 33.5197 34.833 28.9905L34.8298 28.757C34.7262 24.9876 32.1223 21.8427 28.617 20.9215L27.0741 22.3399Z" fill="rgb(255,255,255)" fill-rule="evenodd" />
	</g>
</svg>
