<svg viewBox="0 0 48 48" xmlns="http://www.w3.org/2000/svg" xmlns:xlink="http://www.w3.org/1999/xlink" width="48.000000" height="48.000000" fill="none" customFrame="#000000">
	<rect id="项目首字母图标/5-48px*48px" width="48.000000" height="48.000000" x="0.000000" y="0.000000" />
	<rect id="矩形" width="48.000000" height="48.000000" x="0.000000" y="0.000000" opacity="0" fill="rgb(216,216,216)" />
	<rect id="矩形" width="47.000000" height="47.000000" x="0.500000" y="0.500000" opacity="0" stroke="rgb(151,151,151)" stroke-opacity="0" stroke-width="1" />
	<g id="5">
		<path id="形状结合" d="M37.3305 7.33325L37.3305 15.6666L23.0115 15.6666L23.0115 7.33325L37.3305 7.33325ZM18.8448 7.33325L15.5076 7.33325L15.3201 7.3367C12.6455 7.43528 10.5076 9.63459 10.5076 12.3333L10.5076 21.4999L10.511 21.6874C10.6096 24.3619 12.8089 26.4999 15.5076 26.4999L29.0492 26.4999L29.2156 26.504C30.9793 26.5907 32.3826 28.0481 32.3826 29.8333C32.3826 31.6742 30.8902 33.1666 29.0492 33.1666L20.3433 33.1666L20.1673 33.1626C18.1248 33.0706 16.4972 31.3856 16.4972 29.3204L8.16382 29.3204L8.16657 29.5819C8.30567 36.1877 13.7041 41.4999 20.3433 41.4999L29.0492 41.4999L29.3098 41.4971C35.6328 41.3585 40.7159 36.1895 40.7159 29.8333L40.713 29.5727C40.5745 23.2497 35.4055 18.1666 29.0492 18.1666L18.8405 18.1666L18.8405 15.6666L18.8448 15.6666L18.8448 7.33325Z" fill="rgb(231,131,89)" fill-rule="evenodd" />
		<path id="形状结合" d="M24.0009 26.4999L15.5085 26.4999C12.8099 26.4999 10.6106 24.3619 10.512 21.6873L10.5085 21.4999L10.5085 18.1669L24.0009 18.1669L24.0009 26.4999Z" fill="rgb(85,203,170)" fill-rule="evenodd" />
		<path id="形状结合" d="M23.1679 41.4996L20.3443 41.4996C13.7051 41.4996 8.30664 36.1873 8.16755 29.5815L8.16479 29.3201L16.4981 29.3201C16.4981 31.3852 18.1258 33.0702 20.1682 33.1623L20.3443 33.1662L23.1679 33.1662L23.1679 41.4996Z" fill="rgb(234,113,143)" fill-rule="evenodd" />
		<path id="形状结合" d="M29.1975 18.1667C35.2145 18.2422 40.134 22.8726 40.667 28.7687L40.667 30.8963C40.1373 36.756 35.275 41.3656 29.3087 41.4963L29.0482 41.4991L23.167 41.4991L23.167 33.1658L29.0482 33.1658C30.8891 33.1658 32.3815 31.6734 32.3815 29.8325C32.3815 28.0473 30.9782 26.5899 29.2145 26.5032L29.0482 26.4991L23.167 26.4991L23.167 18.1667L29.1975 18.1667Z" fill="rgb(105,99,240)" fill-rule="evenodd" />
		<path id="形状结合" d="M29.8363 41.4735C29.6622 41.4851 29.4869 41.4929 29.3107 41.4967L29.0502 41.4996L23.1697 41.4996L23.1697 33.1662L29.0502 33.1662C29.321 33.1662 29.5843 33.1339 29.8363 33.073L29.8363 41.4735Z" fill="rgb(144,57,121)" fill-rule="evenodd" />
		<rect id="矩形" width="14.322757" height="8.333333" x="23.010986" y="7.333374" fill="rgb(105,99,240)" />
		<rect id="矩形" width="14.322757" height="4.166667" x="23.010986" y="7.333374" fill="rgb(97,212,220)" />
		<path id="形状结合" d="M34.0035 12.3334L34.0129 12.3334L34.0129 10.6667L34.0035 10.6667L34.0035 12.3334ZM29.8375 21.5354L29.8375 23.1671L29.8423 23.1671L29.8423 23.2116C33.158 23.5966 35.7316 26.4145 35.7316 29.8334C35.7316 33.2524 33.158 36.0702 29.8423 36.4552L29.8423 38.131C34.0802 37.739 37.3983 34.1737 37.3983 29.8334C37.3983 25.4915 34.0777 21.9252 29.8375 21.5354ZM23.1756 38.1667L23.1756 36.5001L20.359 36.5001L20.1435 36.4969C17.3466 36.4144 14.9511 34.7323 13.8405 32.3337L12.0393 32.3337C13.2717 35.7359 16.5315 38.1667 20.359 38.1667L23.1756 38.1667Z" fill="rgb(255,255,255)" fill-rule="evenodd" />
	</g>
</svg>
