<svg viewBox="0 0 48 48" xmlns="http://www.w3.org/2000/svg" xmlns:xlink="http://www.w3.org/1999/xlink" width="48.000000" height="48.000000" fill="none" customFrame="#000000">
	<rect id="项目首字母图标/9-48px*48px" width="48.000000" height="48.000000" x="0.000000" y="0.000000" />
	<rect id="矩形" width="48.000000" height="48.000000" x="0.000000" y="0.000000" opacity="0" fill="rgb(216,216,216)" />
	<rect id="矩形" width="47.000000" height="47.000000" x="0.500000" y="0.500000" opacity="0" stroke="rgb(151,151,151)" stroke-opacity="0" stroke-width="1" />
	<g id="9">
		<path id="形状结合" d="M38.9962 23.1666L38.9962 7.33325L30.6628 7.33325L30.6628 7.62383L30.6622 7.62368L30.6622 20.4582L18.058 20.4582L17.9173 20.4541C16.6596 20.3813 15.6622 19.3383 15.6622 18.0624C15.6622 16.7392 16.7348 15.6665 18.058 15.6665L26.4955 15.6665L26.4955 7.33333L18.0561 7.33333L17.7992 7.33635C11.9923 7.47281 7.3269 12.2228 7.3269 18.0625L7.32992 18.3194C7.46638 24.1263 12.2164 28.7917 18.0561 28.7917L30.6602 28.7917L30.6602 29.8333L30.656 29.9802C30.58 31.2926 29.4916 32.3333 28.1602 32.3333L11.4936 32.3333L11.4936 40.6667L28.1602 40.6667L28.416 40.6637C34.2809 40.5279 38.9936 35.7309 38.9936 29.8333L38.9936 23.1666L38.9962 23.1666Z" fill="rgb(234,113,143)" fill-rule="evenodd" />
		<rect id="矩形" width="12.500000" height="8.333333" x="26.500000" y="20.458374" fill="rgb(238,186,91)" />
		<rect id="矩形" width="5.000000" height="8.333333" x="34.000000" y="20.458374" fill="rgb(144,57,121)" />
		<rect id="矩形" width="11.666667" height="8.333333" x="11.500244" y="32.333374" fill="rgb(105,99,240)" />
		<path id="形状结合" d="M26.5 20.4583L26.5 28.7917L18.0592 28.7917C12.2196 28.7917 7.46955 24.1263 7.33309 18.3195L7.33008 18.0625C7.33008 12.2229 11.9955 7.47285 17.8023 7.33639L18.0592 7.33337L26.4982 7.33337L26.4982 15.6666L18.0607 15.6666C16.7375 15.6666 15.6649 16.7392 15.6649 18.0624C15.6649 19.3383 16.6623 20.3813 17.9199 20.4542L18.0607 20.4583L26.5 20.4583Z" fill="rgb(231,131,89)" fill-rule="evenodd" />
		<path id="形状结合" d="M35.6671 20.4583L35.6671 10.6665L34.0004 10.6665L34.0004 20.4583L35.6671 20.4583ZM35.6658 28.7916L33.9998 28.7916L33.9998 29L33.9991 29L33.9991 29.8339L33.9957 30.0344C33.89 33.1632 31.3203 35.6672 28.1658 35.6672L26.5004 35.6672L26.5004 37.3339L28.1658 37.3339L28.3869 37.3307C32.4268 37.2137 35.6658 33.902 35.6658 29.8339L35.6658 28.7916ZM18.0616 10.6672L23.1671 10.6672L23.1671 12.3334L18.0611 12.3334C14.897 12.3334 12.3319 14.8984 12.3319 18.0625C12.3319 21.1607 14.7912 23.6846 17.8642 23.7884L18.0611 23.7917L23.1671 23.7917L23.1671 25.4589L18.0616 25.4589C14.0499 25.4589 10.7843 22.2648 10.6689 18.2811L10.6658 18.063C10.6658 14.0514 13.8598 10.7857 17.8435 10.6703L18.0616 10.6672ZM28.1658 10.6672C29.043 10.6672 29.885 10.8178 30.6674 11.0945L30.6674 12.8957C29.966 12.5622 29.1874 12.3645 28.3658 12.3368L28.1653 12.3334L26.5004 12.3334L26.5004 10.6672L28.1658 10.6672Z" fill="rgb(255,255,255)" fill-rule="evenodd" />
	</g>
</svg>
