<svg viewBox="0 0 48 48" xmlns="http://www.w3.org/2000/svg" xmlns:xlink="http://www.w3.org/1999/xlink" width="48.000000" height="48.000000" fill="none" customFrame="#000000">
	<rect id="项目首字母图标/D-48px*48px" width="48.000000" height="48.000000" x="0.000000" y="0.000000" />
	<rect id="矩形" width="48.000000" height="48.000000" x="0.000000" y="0.000000" opacity="0" fill="rgb(216,216,216)" />
	<rect id="矩形" width="47.000000" height="47.000000" x="0.500000" y="0.500000" opacity="0" stroke="rgb(151,151,151)" stroke-opacity="0" stroke-width="1" />
	<g id="d">
		<rect id="Rectangle" width="8.333333" height="33.333332" x="8.166504" y="7.333374" fill="rgb(178,126,245)" />
		<rect id="Rectangle" width="1.666667" height="21.666666" x="11.500000" y="10.666626" fill="rgb(255,255,255)" />
		<rect id="Rectangle" width="0.666667" height="20.666666" x="12.000000" y="11.166626" stroke="rgb(151,151,151)" stroke-opacity="0" stroke-width="1" />
		<rect id="Rectangle" width="5.833333" height="8.333333" x="10.666504" y="32.333374" fill="rgb(84,59,186)" />
		<rect id="Rectangle" width="2.500000" height="16.666666" x="8.166504" y="24.000000" fill="rgb(255,143,206)" />
		<rect id="Rectangle" width="2.500000" height="16.666666" x="5.666504" y="24.000000" fill="rgb(135,214,220)" />
		<rect id="Rectangle" width="1.500000" height="15.666666" x="6.166504" y="24.500000" stroke="rgb(151,151,151)" stroke-opacity="0" stroke-width="1" />
		<path id="Path" d="M25.6667 7.33337C34.8714 7.33337 42.3333 14.7953 42.3333 24C42.3333 33.1089 35.0261 40.5111 25.9537 40.6643L25.6667 40.6667L16.5 40.6667L16.5 32.3334L25.6667 32.3334C30.269 32.3334 34 28.6024 34 24C34 19.4757 30.3944 15.7934 25.8999 15.6699L25.6667 15.6667L19.8333 15.6667L19.8333 7.33337L25.6667 7.33337Z" fill="rgb(218,95,95)" fill-rule="evenodd" />
		<path id="Path" d="M25.6667 10.6666C33.0305 10.6666 39 16.6362 39 24C39 31.2761 33.1717 37.191 25.9291 37.3308L25.6667 37.3333L16.5 37.3333L16.5 35.6666L25.6667 35.6666C32.11 35.6666 37.3333 30.4433 37.3333 24C37.3333 17.6437 32.2502 12.4747 25.9272 12.3361L25.6667 12.3333L23.1667 12.3333L23.1667 10.6666L25.6667 10.6666Z" fill="rgb(255,255,255)" fill-rule="evenodd" />
		<path id="Path" d="M17.5 35.6666L25.6667 35.6666C32.11 35.6666 37.3333 30.4433 37.3333 24C37.3333 17.6437 32.2502 12.4747 25.9272 12.3361L25.6667 12.3333L23.1667 12.3333L23.1667 10.6666L25.6667 10.6666C33.0305 10.6666 39 16.6362 39 24C39 31.2761 33.1717 37.191 25.9291 37.3308L25.6667 37.3333L16.5 37.3333L16.5 35.6666L17.5 35.6666Z" fill="rgb(151,151,151)" fill-opacity="0" fill-rule="evenodd" />
		<rect id="Rectangle" width="12.500000" height="1.666667" x="4.000000" y="35.666626" fill="rgb(234,216,131)" />
	</g>
</svg>
