<svg viewBox="0 0 48 48" xmlns="http://www.w3.org/2000/svg" xmlns:xlink="http://www.w3.org/1999/xlink" width="48.000000" height="48.000000" fill="none" customFrame="#000000">
	<rect id="项目首字母图标/F-48px*48px" width="48.000000" height="48.000000" x="0.000000" y="0.000000" />
	<rect id="矩形" width="48.000000" height="48.000000" x="0.000000" y="0.000000" opacity="0" fill="rgb(216,216,216)" />
	<rect id="矩形" width="47.000000" height="47.000000" x="0.500000" y="0.500000" opacity="0" stroke="rgb(151,151,151)" stroke-opacity="0" stroke-width="1" />
	<g id="f">
		<path id="Path" d="M39.8335 7.33337L39.8335 15.6667L20.6668 15.6667C19.3354 15.6667 18.2471 16.7075 18.1711 18.0198L18.1668 18.1667L18.1668 40.6667L9.8335 40.6667L9.8335 18.1667C9.8335 12.2691 14.5462 7.47218 20.4111 7.33633L20.6668 7.33337L39.8335 7.33337Z" fill="rgb(234,113,143)" fill-rule="evenodd" />
		<path id="Path" d="M23.1668 7.33337L23.1668 15.6667L20.6668 15.6667C19.3354 15.6667 18.2471 16.7075 18.1711 18.0198L18.1668 18.1667L18.1668 19.8334L9.8335 19.8334L9.8335 18.1667C9.8335 12.2691 14.5462 7.47218 20.4111 7.33633L20.6668 7.33337L23.1668 7.33337Z" fill="rgb(105,99,240)" fill-rule="evenodd" />
		<rect id="Rectangle" width="2.500000" height="16.666666" x="9.833984" y="15.664185" fill="rgb(85,203,170)" />
		<rect id="Rectangle Copy 2" width="15.000000" height="8.333333" x="18.166504" y="19.833374" fill="rgb(108,163,244)" />
		<rect id="Rectangle" width="5.833333" height="8.333333" x="12.333984" y="19.830811" fill="rgb(144,57,121)" />
		<rect id="Rectangle" width="2.500000" height="8.333333" x="9.833984" y="19.830811" fill="rgb(40,133,139)" />
		<rect id="Rectangle" width="2.500000" height="16.666666" x="7.333984" y="15.664185" fill="rgb(135,214,220)" />
		<rect id="Rectangle" width="1.500000" height="15.666666" x="7.833984" y="16.164185" stroke="rgb(151,151,151)" stroke-opacity="0" stroke-width="1" />
		<path id="Path" d="M18.1666 23.1642L18.1666 24.8334L5.66748 24.8313L5.66748 23.1642L18.1666 23.1642Z" fill="rgb(234,216,131)" fill-rule="evenodd" />
		<path id="Path" d="M36.4998 10.6666L36.4998 12.3333L20.6665 12.3333C17.512 12.3333 14.9423 14.8373 14.8366 17.9661L14.8332 18.1666L14.8332 19.8333L13.1665 19.8333L13.1665 18.1666C13.1665 14.0985 16.4055 10.7868 20.4454 10.6698L20.6665 10.6666L36.4998 10.6666Z" fill="rgb(255,255,255)" fill-rule="evenodd" />
		<path id="Path" d="M35.4998 12.3333L20.6665 12.3333C17.512 12.3333 14.9423 14.8373 14.8366 17.9661L14.8332 18.1666L14.8332 19.8333L13.1665 19.8333L13.1665 18.1666C13.1665 14.0985 16.4055 10.7868 20.4454 10.6698L20.6665 10.6666L36.4998 10.6666L36.4998 12.3333L35.4998 12.3333Z" fill="rgb(151,151,151)" fill-opacity="0" fill-rule="evenodd" />
		<rect id="Rectangle" width="11.666667" height="1.666667" x="18.166504" y="23.166626" fill="rgb(255,255,255)" />
		<rect id="Rectangle" width="10.666667" height="0.666667" x="18.666504" y="23.666626" stroke="rgb(151,151,151)" stroke-opacity="0" stroke-width="1" />
	</g>
</svg>
