<svg viewBox="0 0 48 48" xmlns="http://www.w3.org/2000/svg" xmlns:xlink="http://www.w3.org/1999/xlink" width="48.000000" height="48.000000" fill="none" customFrame="#000000">
	<rect id="项目首字母图标/G-48px*48px" width="48.000000" height="48.000000" x="0.000000" y="0.000000" />
	<rect id="矩形" width="48.000000" height="48.000000" x="0.000000" y="0.000000" opacity="0" fill="rgb(216,216,216)" fill-opacity="0" />
	<rect id="矩形" width="47.000000" height="47.000000" x="0.500000" y="0.500000" opacity="0" stroke="rgb(151,151,151)" stroke-opacity="0" stroke-width="1" />
	<g id="g">
		<path id="Path" d="M15.8333 0C21.7309 0 26.5279 4.71266 26.6637 10.5776L26.6667 10.8333L26.6667 22.5C26.6667 28.3976 21.954 33.1945 16.089 33.3304L15.8333 33.3333L5 33.3333L5 25L15.8333 25C17.1647 25 18.253 23.9592 18.3291 22.6469L18.3333 22.5L18.3333 10.8333C18.3333 9.50193 17.2926 8.41362 15.9802 8.33758L15.8333 8.33333L0 8.33333L0 0L15.8333 0Z" fill="rgb(85,203,170)" fill-rule="evenodd" transform="matrix(-1,0,0,1,33.9998,7.33337)" />
		<rect id="Rectangle" width="8.333333" height="2.500000" x="25.666260" y="7.333374" fill="rgb(40,133,139)" />
		<rect id="Rectangle Copy 4" width="8.333333" height="1.666667" x="25.666260" y="5.666748" fill="rgb(234,216,131)" />
		<path id="Path" d="M20.6666 7.33337L20.6666 15.6667L18.1666 15.6667C16.8352 15.6667 15.7469 16.7075 15.6708 18.0198L15.6666 18.1667L15.6666 19.8334L7.33325 19.8334L7.33325 18.1667C7.33325 12.2691 12.0459 7.47218 17.9109 7.33633L18.1666 7.33337L20.6666 7.33337Z" fill="rgb(231,131,89)" fill-rule="evenodd" />
		<rect id="Rectangle Copy 5" width="5.000000" height="8.333333" x="24.000000" y="32.333374" fill="rgb(231,131,89)" />
		<path id="Path" d="M31.4998 19.8334C36.4821 19.8334 40.536 23.8082 40.6634 28.7597L40.6665 29L40.6665 40.6667L32.3332 40.6667L32.3332 29C32.3332 28.5727 32.0115 28.2205 31.597 28.1723L31.4998 28.1667L25.6665 28.1667L25.6665 19.8334L31.4998 19.8334Z" fill="rgb(218,95,95)" fill-rule="evenodd" />
		<path id="Path" d="M5.83333 0C9.9015 0 13.2132 3.23901 13.3301 7.27886L13.3333 7.5L13.3333 19.1667C13.3333 23.2348 10.0943 26.5465 6.05447 26.6635L5.83333 26.6667L0 26.6667L0 25L5.83333 25C8.98788 25 11.5576 22.496 11.6633 19.3672L11.6667 19.1667L11.6667 7.5C11.6667 4.34546 9.16268 1.77575 6.03387 1.67005L5.83333 1.66667L3.33333 1.66667L3.33333 0L5.83333 0Z" fill="rgb(255,255,255)" fill-rule="evenodd" transform="matrix(-1,0,0,1,24.0002,10.6666)" />
		<path id="Path" d="M1 25L5.83333 25C8.98788 25 11.5576 22.496 11.6633 19.3672L11.6667 19.1667L11.6667 7.5C11.6667 4.34546 9.16268 1.77575 6.03387 1.67005L5.83333 1.66667L3.33333 1.66667L3.33333 0L5.83333 0C9.9015 0 13.2132 3.23901 13.3301 7.27886L13.3333 7.5L13.3333 19.1667C13.3333 23.2348 10.0943 26.5465 6.05447 26.6635L5.83333 26.6667L0 26.6667L0 25L1 25Z" fill="rgb(151,151,151)" fill-opacity="0" fill-rule="evenodd" transform="matrix(-1,0,0,1,24.0002,10.6666)" />
		<path id="Path" d="M31.4998 23.1666C34.6543 23.1666 37.224 25.6706 37.3297 28.7994L37.3331 29L37.3331 37.3333L35.6664 37.3333L35.6664 29C35.6664 26.7593 33.8978 24.9318 31.6805 24.8371L31.4998 24.8333L28.9998 24.8333L28.9998 23.1666L31.4998 23.1666Z" fill="rgb(255,255,255)" fill-rule="evenodd" />
		<path id="Path" d="M35.6664 36.3333L35.6664 29C35.6664 26.7593 33.8978 24.9318 31.6805 24.8371L31.4998 24.8333L28.9998 24.8333L28.9998 23.1666L31.4998 23.1666C34.6543 23.1666 37.224 25.6706 37.3297 28.7994L37.3331 29L37.3331 37.3333L35.6664 37.3333L35.6664 36.3333Z" fill="rgb(151,151,151)" fill-opacity="0" fill-rule="evenodd" />
	</g>
</svg>
