<svg viewBox="0 0 48 48" xmlns="http://www.w3.org/2000/svg" xmlns:xlink="http://www.w3.org/1999/xlink" width="48.000000" height="48.000000" fill="none" customFrame="#000000">
	<rect id="项目首字母图标/I-48px*48px" width="48.000000" height="48.000000" x="0.000000" y="0.000000" />
	<rect id="矩形" width="48.000000" height="48.000000" x="0.000000" y="0.000000" opacity="0" fill="rgb(216,216,216)" />
	<rect id="矩形" width="47.000000" height="47.000000" x="0.500000" y="0.500000" opacity="0" stroke="rgb(151,151,151)" stroke-opacity="0" stroke-width="1" />
	<g id="i">
		<rect id="Rectangle" width="8.333333" height="13.333333" x="19.833496" y="19.000000" fill="rgb(108,163,244)" />
		<rect id="Rectangle" width="20.000000" height="8.333333" x="14.000000" y="7.333374" fill="rgb(218,95,95)" />
		<rect id="Rectangle Copy 7" width="20.000000" height="8.333333" x="14.000000" y="32.333374" fill="rgb(178,126,245)" />
		<rect id="Rectangle" width="8.333333" height="3.333333" x="19.833496" y="7.333374" fill="rgb(84,59,186)" />
		<rect id="Rectangle Copy 11" width="8.333333" height="3.333333" x="19.833496" y="12.333374" fill="rgb(36,95,155)" />
		<rect id="Rectangle Copy 8" width="8.333333" height="3.333333" x="19.833496" y="37.333374" fill="rgb(84,59,186)" />
		<rect id="Rectangle Copy 12" width="8.333333" height="3.333333" x="19.833496" y="32.333374" fill="rgb(36,95,155)" />
		<rect id="Rectangle" width="1.666667" height="3.333333" x="23.166504" y="12.333374" fill="rgb(255,255,255)" />
		<rect id="Rectangle" width="0.666667" height="2.333333" x="23.666504" y="12.833374" stroke="rgb(151,151,151)" stroke-opacity="0" stroke-width="1" />
		<rect id="Rectangle Copy 10" width="1.666667" height="13.333333" x="23.166504" y="22.333374" fill="rgb(255,255,255)" />
		<rect id="Rectangle Copy 10" width="0.666667" height="12.333333" x="23.666504" y="22.833374" stroke="rgb(151,151,151)" stroke-opacity="0" stroke-width="1" />
		<rect id="Rectangle" width="20.000000" height="1.666667" x="14.000000" y="10.666626" fill="rgb(255,255,255)" />
		<rect id="Rectangle" width="19.000000" height="0.666667" x="14.500000" y="11.166626" stroke="rgb(151,151,151)" stroke-opacity="0" stroke-width="1" />
		<rect id="Rectangle Copy 9" width="20.000000" height="1.666667" x="14.000000" y="35.666626" fill="rgb(255,255,255)" />
		<rect id="Rectangle Copy 9" width="19.000000" height="0.666667" x="14.500000" y="36.166626" stroke="rgb(151,151,151)" stroke-opacity="0" stroke-width="1" />
	</g>
</svg>
