<svg viewBox="0 0 48 48" xmlns="http://www.w3.org/2000/svg" xmlns:xlink="http://www.w3.org/1999/xlink" width="48.000000" height="48.000000" fill="none" customFrame="#000000">
	<rect id="项目首字母图标/J-48px*48px" width="48.000000" height="48.000000" x="0.000000" y="0.000000" />
	<rect id="矩形" width="48.000000" height="48.000000" x="0.000000" y="0.000000" opacity="0" fill="rgb(216,216,216)" />
	<rect id="矩形" width="47.000000" height="47.000000" x="0.500000" y="0.500000" opacity="0" stroke="rgb(151,151,151)" stroke-opacity="0" stroke-width="1" />
	<g id="j">
		<path id="Path" d="M36.5002 15.6666L36.5002 29.8333C36.5002 35.7309 31.7875 40.5278 25.9225 40.6637L25.6668 40.6666L22.3335 40.6666L22.3335 32.3333L25.6668 32.3333C26.9982 32.3333 28.0865 31.2925 28.1626 29.9802L28.1668 29.8333L28.1668 15.6666L36.5002 15.6666Z" fill="rgb(85,203,170)" fill-rule="evenodd" />
		<rect id="Rectangle" width="8.333333" height="8.333333" x="10.666504" y="32.333374" fill="rgb(218,95,95)" />
		<rect id="Rectangle" width="8.333333" height="20.000000" x="28.166504" y="7.333374" fill="rgb(218,95,95)" />
		<rect id="Rectangle" width="8.333333" height="8.333333" x="28.166504" y="7.333374" fill="rgb(85,203,170)" />
		<rect id="Rectangle" width="8.333333" height="8.333333" x="19.833496" y="7.333374" fill="rgb(108,163,244)" />
		<rect id="Rectangle" width="10.833333" height="1.666667" x="23.166504" y="10.666626" fill="rgb(255,255,255)" />
		<rect id="Rectangle" width="9.833333" height="0.666667" x="23.666504" y="11.166626" stroke="rgb(151,151,151)" stroke-opacity="0" stroke-width="1" />
		<rect id="Rectangle" width="2.500000" height="16.666666" x="34.000000" y="7.333374" fill="rgb(255,143,206)" />
		<rect id="Rectangle Copy 13" width="2.500000" height="16.666666" x="36.500000" y="7.333374" fill="rgb(234,216,131)" />
		<path id="Path" d="M33.1665 15.6666L33.1665 29.8333C33.1665 33.9015 29.9275 37.2131 25.8876 37.3301L25.6665 37.3333L25.6665 35.6666C28.821 35.6666 31.3908 33.1626 31.4965 30.0338L31.4998 29.8333L31.4998 15.6666L33.1665 15.6666Z" fill="rgb(255,255,255)" fill-rule="evenodd" />
		<path id="Path" d="M33.1665 16.6666L33.1665 29.8333C33.1665 33.6364 30.3359 36.7783 26.6665 37.2672C26.4107 37.3013 26.1509 37.3225 25.8876 37.3301L25.6665 37.3333L25.6665 35.6666C28.821 35.6666 31.3908 33.1626 31.4965 30.0338L31.4998 29.8333L31.4998 15.6666L33.1665 15.6666L33.1665 16.6666Z" fill="rgb(151,151,151)" fill-opacity="0" fill-rule="evenodd" />
	</g>
</svg>
