<svg viewBox="0 0 48 48" xmlns="http://www.w3.org/2000/svg" xmlns:xlink="http://www.w3.org/1999/xlink" width="48.000000" height="48.000000" fill="none" customFrame="#000000">
	<rect id="项目首字母图标/M-48px*48px" width="48.000000" height="48.000000" x="0.000000" y="0.000000" />
	<rect id="矩形" width="48.000000" height="48.000000" x="0.000000" y="0.000000" opacity="0" fill="rgb(216,216,216)" />
	<rect id="矩形" width="47.000000" height="47.000000" x="0.500000" y="0.500000" opacity="0" stroke="rgb(151,151,151)" stroke-opacity="0" stroke-width="1" />
	<g id="m">
		<path id="Path" d="M38.291 7.22693C41.662 9.58071 43.8943 13.4528 43.9963 17.8515L43.9999 18.1666L41.4999 18.1666L41.497 17.9109C41.4105 14.1771 39.4348 10.9103 36.4888 9.02919L38.291 7.22693Z" fill="rgb(234,216,131)" fill-rule="evenodd" />
		<path id="Path" d="M30.6667 7.33337C36.5643 7.33337 41.3612 12.046 41.497 17.911L41.5 18.1667L41.5 40.6667L33.1667 40.6667L33.1667 18.1667C33.1667 16.786 32.0474 15.6667 30.6667 15.6667C30.5882 15.6667 30.5105 15.6703 30.4338 15.6774C29.8842 12.7605 28.3825 10.1782 26.2642 8.26616C27.6089 7.66639 29.0989 7.33337 30.6667 7.33337Z" fill="rgb(108,163,244)" fill-rule="evenodd" />
		<path id="Path" d="M30.6668 10.6666C34.735 10.6666 38.0466 13.9056 38.1636 17.9455L38.1668 18.1666L38.1668 37.3333L36.5001 37.3333L36.5001 18.1666C36.5001 14.945 33.8885 12.3333 30.6668 12.3333C30.2295 12.3333 29.8034 12.3814 29.3936 12.4726C29.1471 11.9519 28.8674 11.4486 28.5576 10.9666C29.2265 10.7716 29.9344 10.6666 30.6668 10.6666Z" fill="rgb(255,255,255)" fill-rule="evenodd" />
		<path id="Path" d="M36.5001 36.3333L36.5001 18.1666C36.5001 14.945 33.8885 12.3333 30.6668 12.3333C30.2295 12.3333 29.8034 12.3814 29.3936 12.4726C29.2956 12.2656 29.1923 12.0613 29.084 11.86C28.9199 11.555 28.7442 11.257 28.5576 10.9666C28.8946 10.8684 29.2415 10.793 29.5965 10.7423C29.946 10.6925 30.3034 10.6666 30.6668 10.6666C34.735 10.6666 38.0466 13.9056 38.1636 17.9455L38.1668 18.1666L38.1668 37.3333L36.5001 37.3333L36.5001 36.3333Z" fill="rgb(151,151,151)" fill-opacity="0" fill-rule="evenodd" />
		<path id="Path" d="M17.3333 7.33337C23.2309 7.33337 28.0279 12.046 28.1637 17.911L28.1667 18.1667L28.1667 30.6667L19.8333 30.6667L19.8333 18.1667C19.8333 16.786 18.714 15.6667 17.3333 15.6667C16.0019 15.6667 14.9136 16.7075 14.8376 18.0198L14.8333 18.1667L14.8333 40.6667L6.5 40.6667L6.5 18.1667C6.5 12.1836 11.3502 7.33337 17.3333 7.33337Z" fill="rgb(238,186,91)" fill-rule="evenodd" />
		<path id="Path" d="M17.3333 7.33337L17.3333 15.6667C16.0019 15.6667 14.9136 16.7075 14.8376 18.0198L14.8333 18.1667L6.5 18.1667C6.5 12.2691 11.2127 7.47218 17.0776 7.33633L17.3333 7.33337Z" fill="rgb(178,126,245)" fill-rule="evenodd" />
		<path id="Path" d="M17.3335 10.6666C21.4017 10.6666 24.7133 13.9056 24.8303 17.9455L24.8335 18.1666L24.8335 27.3333L23.1668 27.3333L23.1668 18.1666C23.1668 14.945 20.5552 12.3333 17.3335 12.3333C14.179 12.3333 11.6092 14.8373 11.5035 17.9661L11.5002 18.1666L9.8335 18.1666C9.8335 14.0245 13.1914 10.6666 17.3335 10.6666Z" fill="rgb(255,255,255)" fill-rule="evenodd" />
		<path id="Path" d="M24.8303 17.9455C24.7133 13.9056 21.4017 10.6666 17.3335 10.6666C13.5304 10.6666 10.3885 13.4973 9.89958 17.1666C9.856 17.4938 9.8335 17.8276 9.8335 18.1666L11.5002 18.1666L11.5035 17.9661C11.6092 14.8373 14.179 12.3333 17.3335 12.3333C20.5552 12.3333 23.1668 14.945 23.1668 18.1666L23.1668 27.3333L24.8335 27.3333L24.8335 18.1666L24.8303 17.9455Z" fill="rgb(151,151,151)" fill-opacity="0" fill-rule="evenodd" />
		<rect id="Rectangle" width="8.333333" height="22.500000" x="6.500000" y="18.166626" fill="rgb(97,212,220)" />
		<rect id="Rectangle Copy 14" width="3.333333" height="22.500000" x="6.500000" y="18.166626" fill="rgb(40,133,139)" />
		<rect id="Rectangle" width="8.333333" height="6.666667" x="19.833496" y="34.000000" fill="rgb(255,143,206)" />
	</g>
</svg>
