<svg viewBox="0 0 48 48" xmlns="http://www.w3.org/2000/svg" xmlns:xlink="http://www.w3.org/1999/xlink" width="48.000000" height="48.000000" fill="none" customFrame="#000000">
	<rect id="项目首字母图标/N-48px*48px" width="48.000000" height="48.000000" x="0.000000" y="0.000000" />
	<rect id="矩形" width="48.000000" height="48.000000" x="0.000000" y="0.000000" opacity="0" fill="rgb(216,216,216)" />
	<rect id="矩形" width="47.000000" height="47.000000" x="0.500000" y="0.500000" opacity="0" stroke="rgb(151,151,151)" stroke-opacity="0" stroke-width="1" />
	<g id="n">
		<path id="Path" d="M27.8986 0C31.1202 1.03621e-14 33.7319 2.61167 33.7319 5.83333C33.7319 7.54098 32.9839 9.1587 31.6926 10.2643L31.5132 10.4118L13.0336 25L23.5327 25L23.5327 33.3333L5.83357 33.3333C4.0483 33.3333 2.36132 32.5158 1.25509 31.1146C-0.696832 28.6422 -0.327626 25.0803 2.05352 23.057L2.21898 22.9215L20.6969 8.33333L10.1994 8.33333L10.1994 0L27.8986 0Z" fill="rgb(85,203,170)" fill-rule="evenodd" transform="matrix(0,-1,1,0,7.33276,40.866)" />
		<path id="Path" d="M32.3335 27.8324L40.0613 37.6202C39.6824 38.3856 39.1355 39.0681 38.448 39.6109C36.6493 41.0309 34.2741 41.2225 32.3341 40.3047L32.3335 27.8324Z" fill="rgb(105,99,240)" fill-rule="evenodd" />
		<path id="Path" d="M32.3328 17.3333L40.6661 17.3333L40.6661 35.0324C40.6661 35.9417 40.454 36.8255 40.0608 37.62L32.3329 27.8324L32.3328 17.3333Z" fill="rgb(234,113,143)" fill-rule="evenodd" />
		<path id="Path" d="M2.11083 0L13.4985 0L13.4985 1.66667L0 1.66667L2.11083 0Z" fill="rgb(255,255,255)" fill-rule="evenodd" transform="matrix(0,-1,1,0,35.6667,34.1652)" />
		<path id="Path" d="M13.4985 0.666667L13.4985 0L2.11083 0L1.2665 0.666667L0 1.66667L13.4985 1.66667L13.4985 0.666667Z" fill="rgb(151,151,151)" fill-opacity="0" fill-rule="evenodd" transform="matrix(0,-1,1,0,35.6667,34.1652)" />
		<path id="Path" d="M22.9327 0C24.3134 0 25.4327 1.11929 25.4327 2.5C25.4327 3.21047 25.1306 3.88461 24.6066 4.35688L24.4818 4.46221L2.68917 21.6667L0 21.6667L23.4491 3.15407C23.6492 2.99604 23.766 2.75504 23.766 2.5C23.766 2.07264 23.4443 1.72041 23.0299 1.67227L22.9327 1.66667L8.56684 1.66667L8.56684 0L22.9327 0Z" fill="rgb(255,255,255)" fill-rule="evenodd" transform="matrix(0,-1,1,0,10.6667,35.9001)" />
		<path id="Path" d="M23.0299 1.67227C23.4443 1.72041 23.766 2.07264 23.766 2.5C23.766 2.75504 23.6492 2.99604 23.4491 3.15407L1.26665 20.6667L0 21.6667L2.68917 21.6667L24.4818 4.46221L24.6066 4.35688C25.1306 3.88461 25.4327 3.21047 25.4327 2.5C25.4327 1.11929 24.3134 0 22.9327 0L8.56684 0L8.56684 1.66667L22.9327 1.66667L23.0299 1.67227Z" fill="rgb(151,151,151)" fill-opacity="0" fill-rule="evenodd" transform="matrix(0,-1,1,0,10.6667,35.9001)" />
		<rect id="Rectangle" width="6.666667" height="8.333333" x="0.000000" y="0.000000" fill="rgb(178,126,245)" transform="matrix(0,-1,1,0,32.3333,14)" />
		<rect id="Rectangle" width="6.666667" height="2.500000" x="0.000000" y="0.000000" fill="rgb(84,59,186)" transform="matrix(0,-1,1,0,38.1665,14)" />
		<rect id="Rectangle Copy 19" width="6.666667" height="8.333333" x="0.000000" y="0.000000" fill="rgb(255,143,206)" transform="matrix(0,-1,1,0,7.33325,40.6666)" />
		<rect id="Rectangle Copy 19" width="6.666667" height="2.500000" x="0.000000" y="0.000000" fill="rgb(144,57,121)" transform="matrix(0,-1,1,0,7.3335,40.6666)" />
	</g>
</svg>
