<svg viewBox="0 0 48 48" xmlns="http://www.w3.org/2000/svg" xmlns:xlink="http://www.w3.org/1999/xlink" width="48.000000" height="48.000000" fill="none" customFrame="#000000">
	<rect id="项目首字母图标/Q-48px*48px" width="48.000000" height="48.000000" x="0.000000" y="0.000000" />
	<rect id="矩形" width="48.000000" height="48.000000" x="0.000000" y="0.000000" opacity="0" fill="rgb(216,216,216)" fill-opacity="0" />
	<rect id="矩形" width="47.000000" height="47.000000" x="0.500000" y="0.500000" opacity="0" stroke="rgb(151,151,151)" stroke-opacity="0" stroke-width="1" />
	<g id="q">
		<path id="Path" d="M8.33333 0C8.33333 1.89482 9.59813 3.49423 11.3295 4.00002L5.18881 10.14C2.11136 7.91719 0.0861385 4.32785 0.00268147 0.261523L0 0L8.33333 0Z" fill="rgb(244,176,137)" fill-rule="evenodd" transform="matrix(1,0,0,-1,5.66577,17.3317)" />
		<rect id="Rectangle" width="16.666666" height="8.333333" x="27.333496" y="32.333374" fill="rgb(108,163,244)" />
		<path id="Path Copy" d="M14.1667 0L14.1667 8.33333L10.8333 8.33333C9.50193 8.33333 8.41362 9.3741 8.33758 10.6864L8.33333 10.8333L8.33333 22.5C8.33333 23.8314 9.3741 24.9197 10.6864 24.9958L10.8333 25L14.1667 25L14.1667 33.3333L10.8333 33.3333C4.93572 33.3333 0.13881 28.6207 0.0029587 22.7557L0 22.5L0 10.8333C0 4.93572 4.71266 0.13881 10.5776 0.0029587L10.8333 0L14.1667 0Z" fill="rgb(85,203,170)" fill-rule="evenodd" transform="matrix(-1,0,0,1,39.8335,7.33337)" />
		<path id="Path" d="M39.5431 32.334C38.4341 37.0277 34.2719 40.5416 29.2687 40.6634L28.9998 40.6667L25.6665 40.6667L25.6665 32.3334L39.5431 32.334Z" fill="rgb(84,59,186)" fill-rule="evenodd" />
		<path id="Path Copy 4" d="M34.8291 32.3333L34.8325 18.1641L34.8291 17.9636C34.7428 15.4092 33.0142 13.2713 30.6659 12.5724L30.6658 10.85C33.9332 11.5914 36.3904 14.466 36.4957 17.9322L36.4992 18.1641L36.4992 32.3308L34.8291 32.3333Z" fill="rgb(255,255,255)" fill-rule="evenodd" />
		<path id="Path Copy 4" d="M31.6658 11.152C34.423 12.2012 36.4014 14.8297 36.4957 17.9322L36.4992 18.1641L36.4992 32.3308L35.8291 32.3318L34.8291 32.3333L34.8294 31.3333L34.8325 18.1641L34.8291 17.9636C34.7428 15.4092 33.0142 13.2713 30.6659 12.5724L30.6658 10.85C31.0086 10.9278 31.3426 11.0291 31.6658 11.152Z" fill="rgb(151,151,151)" fill-opacity="0" fill-rule="evenodd" />
		<rect id="Rectangle" width="13.333333" height="1.666667" x="30.666504" y="35.666626" fill="rgb(255,255,255)" />
		<rect id="Rectangle" width="12.333333" height="0.666667" x="31.166504" y="36.166626" stroke="rgb(151,151,151)" stroke-opacity="0" stroke-width="1" />
		<path id="Path" d="M36.8166 37.334L30.6665 37.3334L30.6665 35.6667L38.1302 35.6666C37.8237 36.1455 37.4805 36.5986 37.1046 37.022L36.8166 37.334Z" fill="rgb(238,186,91)" fill-rule="evenodd" />
		<path id="Path" d="M22.3327 7.33337L22.3327 15.6667L18.9993 15.6667C17.6679 15.6667 16.5796 16.7075 16.5036 18.0198L16.4993 18.1667L16.4993 29.8334C16.4993 31.1648 17.5401 32.2531 18.8525 32.3291L18.9993 32.3334L22.3327 32.3334L22.3327 40.6667L18.9993 40.6667C13.1017 40.6667 8.30483 35.954 8.16897 30.0891L8.16602 29.8334L8.16602 18.1667C8.16602 12.2691 12.8787 7.47218 18.7436 7.33633L18.9993 7.33337L22.3327 7.33337Z" fill="rgb(135,214,220)" fill-rule="evenodd" />
		<path id="Path" d="M16.5036 18.0198C16.5796 16.7075 17.6679 15.6667 18.9993 15.6667L22.3327 15.6667L22.3327 7.33337L18.9993 7.33337L18.7436 7.33633C12.8787 7.47218 8.16602 12.2691 8.16602 18.1667L8.16602 29.8334L8.16897 30.0891C8.30483 35.954 13.1017 40.6667 18.9993 40.6667L22.3327 40.6667L22.3327 32.3334L18.9993 32.3334L18.8525 32.3291C17.5401 32.2531 16.4993 31.1648 16.4993 29.8334L16.4993 18.1667L16.5036 18.0198ZM21.3327 33.3334L18.9849 33.3334L18.8091 33.3283L18.7946 33.3275Q18.4412 33.307 18.1057 33.2185Q17.7969 33.1371 17.5033 32.9982Q17.2188 32.8635 16.9667 32.6835Q16.6931 32.4882 16.4577 32.2396Q16.2198 31.9884 16.0386 31.7015Q15.874 31.441 15.7561 31.1509Q15.6385 30.8618 15.5748 30.5612Q15.4993 30.2053 15.4993 29.8334L15.4993 18.1523L15.5044 17.9764L15.5053 17.962Q15.5257 17.6085 15.6142 17.273Q15.6956 16.9643 15.8345 16.6707Q15.9692 16.3862 16.1491 16.1341Q16.3444 15.8605 16.5931 15.625Q16.8443 15.3872 17.1312 15.2059Q17.3918 15.0414 17.6818 14.9235Q17.9709 14.8059 18.2715 14.7422Q18.6274 14.6667 18.9993 14.6667L21.3327 14.6667L21.3327 8.33335L19.0109 8.33331L18.7668 8.33607Q17.6911 8.36098 16.6698 8.60925Q15.8272 8.81406 15.0216 9.17087Q14.2162 9.52759 13.4978 10.0131Q12.6772 10.5676 11.9702 11.2902Q11.2597 12.0164 10.7216 12.8534Q10.2544 13.5799 9.91718 14.3899Q9.58774 15.1811 9.40279 16.0047Q9.16602 17.0591 9.16602 18.1667L9.16595 29.8218L9.16871 30.0659Q9.19362 31.1416 9.4419 32.163Q9.64671 33.0056 10.0035 33.8112Q10.3602 34.6165 10.8457 35.3349Q11.4003 36.1555 12.1229 36.8625Q12.8491 37.5731 13.6862 38.1113Q14.4126 38.5783 15.2225 38.9155Q16.0137 39.245 16.8373 39.4299Q17.8918 39.6667 18.9993 39.6667L21.3327 39.6667L21.3327 33.3334Z" fill="rgb(151,151,151)" fill-opacity="0" fill-rule="evenodd" />
		<path id="Path" d="M14.1667 0L14.1667 8.33333L10.8333 8.33333C9.50193 8.33333 8.41362 9.3741 8.33758 10.6864L8.33333 10.8333L8.33333 20.8333L0 20.8333L0 10.8333C0 4.93572 4.71266 0.13881 10.5776 0.0029587L10.8333 0L14.1667 0Z" fill="rgb(178,126,245)" fill-rule="evenodd" transform="matrix(1,0,0,-1,8.1665,40.6666)" />
		<path id="Path" d="M13.1698 19.8308L13.1664 29.8333L13.1698 30.0339C13.2561 32.5882 14.9847 34.7261 17.333 35.4251L17.3332 37.1475C14.0658 36.4061 11.6086 33.5315 11.5033 30.0653L11.4998 29.8333L11.4998 19.8333L13.1698 19.8308Z" fill="rgb(255,255,255)" fill-rule="evenodd" />
		<path id="Path" d="M16.3331 36.8454C13.576 35.7963 11.5975 33.1677 11.5033 30.0653L11.4998 29.8333L11.4998 19.8333L12.1698 19.8323L13.1698 19.8308L13.1695 20.8308L13.1664 29.8333L13.1698 30.0339C13.2561 32.5882 14.9847 34.7261 17.333 35.4251L17.3331 36.118L17.3332 37.1475C16.9903 37.0697 16.6564 36.9684 16.3331 36.8454Z" fill="rgb(151,151,151)" fill-opacity="0" fill-rule="evenodd" />
	</g>
</svg>
