<svg viewBox="0 0 48 48" xmlns="http://www.w3.org/2000/svg" xmlns:xlink="http://www.w3.org/1999/xlink" width="48.000000" height="48.000000" fill="none" customFrame="#000000">
	<rect id="项目首字母图标/S-48px*48px" width="48.000000" height="48.000000" x="0.000000" y="0.000000" />
	<rect id="矩形" width="48.000000" height="48.000000" x="0.000000" y="0.000000" opacity="0" fill="rgb(216,216,216)" />
	<rect id="矩形" width="47.000000" height="47.000000" x="0.500000" y="0.500000" opacity="0" stroke="rgb(151,151,151)" stroke-opacity="0" stroke-width="1" />
	<g id="s">
		<path id="Path" d="M8.33333 0C8.33333 1.89482 9.59813 3.49423 11.3295 4.00002L5.18881 10.14C2.11136 7.91719 0.0861385 4.32785 0.00268147 0.261523L0 0L8.33333 0Z" fill="rgb(234,216,131)" fill-rule="evenodd" transform="matrix(1,0,0,-1,4.8335,17.3334)" />
		<path id="Path" d="M29.8335 19.8333C35.8166 19.8333 40.6668 24.6836 40.6668 30.6667C40.6668 36.5643 35.9542 41.3612 30.0892 41.497L29.8335 41.5L19.0002 41.5L19.0002 33.1667L29.8335 33.1667C31.2142 33.1667 32.3335 32.0474 32.3335 30.6667C32.3335 29.3353 31.2927 28.247 29.9804 28.1709L29.8335 28.1667L18.1668 28.1667C12.1837 28.1667 7.3335 23.3164 7.3335 17.3333C7.3335 11.4357 12.0462 6.63881 17.9111 6.50296L18.1668 6.5L29.0002 6.5L29.0002 14.8333L18.1668 14.8333C16.7861 14.8333 15.6668 15.9526 15.6668 17.3333C15.6668 18.6647 16.7076 19.7531 18.0199 19.8291L18.1668 19.8333L29.8335 19.8333Z" fill="rgb(218,95,95)" fill-rule="evenodd" />
		<path id="Path" d="M7.3335 17.3333C7.3335 11.4357 12.0462 6.63881 17.9111 6.50296L18.1668 6.5L20.6668 6.5L20.6668 14.8333L18.1668 14.8333C16.8354 14.8333 15.7471 15.8741 15.6711 17.1864L15.6668 17.3333L7.3335 17.3333Z" fill="rgb(178,126,245)" fill-rule="evenodd" />
		<rect id="Rectangle" width="6.666667" height="8.333333" x="32.333496" y="6.500000" fill="rgb(97,212,220)" />
		<rect id="Rectangle Copy 15" width="6.666667" height="8.333333" x="9.000000" y="33.166626" fill="rgb(85,203,170)" />
		<rect id="Rectangle" width="6.666667" height="4.166667" x="32.333496" y="6.500000" fill="rgb(84,59,186)" />
		<rect id="Rectangle Copy 20" width="6.666667" height="2.500000" x="9.000000" y="39.000000" fill="rgb(174,234,131)" />
		<path id="Path Copy 5" d="M0 10.8333C0 4.93572 4.71266 0.13881 10.5776 0.0029587L10.8333 0L13.3333 0L13.3333 8.33333L10.8333 8.33333C9.50193 8.33333 8.41362 9.3741 8.33758 10.6864L8.33333 10.8333L0 10.8333Z" fill="rgb(238,186,91)" fill-rule="evenodd" transform="matrix(-1,0,0,-1,40.6665,41.5)" />
		<path id="Path" d="M15 0L15 1.66667L7.5 1.66667C4.27834 1.66667 1.66667 4.27834 1.66667 7.5C1.66667 10.6545 4.17065 13.2242 7.29946 13.33L7.5 13.3333L19.1667 13.3333C23.3088 13.3333 26.6667 16.6912 26.6667 20.8333L25 20.8333C25 17.6788 22.496 15.1091 19.3672 15.0034L19.1667 15L7.5 15C3.35786 15 0 11.6421 0 7.5C0 3.43183 3.23901 0.120174 7.27886 0.00319759L7.5 0L15 0Z" fill="rgb(255,255,255)" fill-rule="evenodd" transform="matrix(-1,0,0,-1,37.3335,38.1666)" />
		<path id="Path" d="M15 1.66667L15 0L7.5 0L7.27886 0.00319759C3.23901 0.120174 0 3.43183 0 7.5C0 11.6421 3.35786 15 7.5 15L19.1667 15L19.3672 15.0034C22.496 15.1091 25 17.6788 25 20.8333L26.6667 20.8333C26.6667 20.4943 26.6442 20.1605 26.6006 19.8333C26.1117 16.164 22.9697 13.3333 19.1667 13.3333L7.5 13.3333L7.29946 13.33C4.17065 13.2242 1.66667 10.6545 1.66667 7.5C1.66667 4.27834 4.27834 1.66667 7.5 1.66667L15 1.66667Z" fill="rgb(151,151,151)" fill-opacity="0" fill-rule="evenodd" transform="matrix(-1,0,0,-1,37.3335,38.1666)" />
	</g>
</svg>
