<svg viewBox="0 0 48 48" xmlns="http://www.w3.org/2000/svg" xmlns:xlink="http://www.w3.org/1999/xlink" width="48.000000" height="48.000000" fill="none" customFrame="#000000">
	<rect id="项目首字母图标/V-48px*48px" width="48.000000" height="48.000000" x="0.000000" y="0.000000" />
	<rect id="矩形" width="48.000000" height="48.000000" x="0.000000" y="0.000000" opacity="0" fill="rgb(216,216,216)" />
	<rect id="矩形" width="47.000000" height="47.000000" x="0.500000" y="0.500000" opacity="0" stroke="rgb(151,151,151)" stroke-opacity="0" stroke-width="1" />
	<g id="v">
		<path id="Path" d="M19.4255 17.3329L24.0001 30.4837L28.5739 17.3329L37.3964 17.3329L31.0838 35.4841C29.723 39.3964 25.4484 41.4647 21.5362 40.104C19.4514 39.3788 17.7961 37.7739 17.0039 35.7228L16.9164 35.4841L10.603 17.3329L19.4255 17.3329Z" fill="rgb(231,131,89)" fill-rule="evenodd" />
		<path id="Path" d="M10.603 17.3329L19.4255 17.3329L23.9993 30.4831L20.7913 39.7992C19.0594 38.9795 17.6992 37.523 17.0039 35.7228L16.9164 35.4841L10.603 17.3329Z" fill="rgb(238,186,91)" fill-rule="evenodd" />
		<path id="Path" d="M19.4253 17.3329L23.9991 30.4831L22.4443 34.9973C22.2769 34.6959 22.1294 34.3816 22.0037 34.0561L21.9161 33.8175L16.1836 17.3329L19.4253 17.3329Z" fill="rgb(174,234,131)" fill-rule="evenodd" />
		<path id="Path" d="M23.9994 30.4832L27.2075 39.7998C25.4923 40.6114 23.47 40.7766 21.5362 40.104C21.2815 40.0154 21.0331 39.9136 20.792 39.7995L23.9994 30.4832Z" fill="rgb(85,203,170)" fill-rule="evenodd" />
		<path id="Path" d="M15.9467 7.33337L18.2654 13.9995L9.44376 13.9995L7.125 7.33337L15.9467 7.33337Z" fill="rgb(178,126,245)" fill-rule="evenodd" />
		<path id="Path" d="M16.816 9.83337L17.396 11.5L8.57428 11.5L7.99512 9.83337L16.816 9.83337Z" fill="rgb(255,255,255)" fill-rule="evenodd" />
		<path id="Path" d="M17.048 10.5L17.396 11.5L8.57428 11.5L7.99512 9.83337L16.816 9.83337L17.048 10.5Z" fill="rgb(151,151,151)" fill-opacity="0" fill-rule="evenodd" />
		<path id="Path" d="M40.8751 7.33337L38.5556 13.9995L29.7339 13.9995L32.0518 7.33337L40.8751 7.33337Z" fill="rgb(108,163,244)" fill-rule="evenodd" />
		<path id="Path Copy 6" d="M35.0418 7.33337L32.7222 13.9995L29.7339 13.9995L32.0518 7.33337L35.0418 7.33337Z" fill="rgb(249,179,188)" fill-rule="evenodd" />
		<path id="Path" d="M32.7076 20.6663L27.9355 34.389C27.1795 36.5625 24.8047 37.7116 22.6312 36.9556C22.3707 36.865 22.1223 36.7496 21.8887 36.6123L22.4499 34.9816C22.6663 35.1526 22.912 35.2886 23.1788 35.3814C24.4363 35.8188 25.8061 35.1934 26.3091 33.9788L26.3613 33.8415L30.9434 20.6663L32.7076 20.6663Z" fill="rgb(255,255,255)" fill-rule="evenodd" />
		<path id="Path" d="M26.3091 33.9788C25.8291 35.138 24.5595 35.7605 23.3515 35.4347C23.2938 35.4191 23.2361 35.4014 23.1788 35.3814C22.912 35.2886 22.6663 35.1526 22.4499 34.9816L22.1108 35.9668L21.8887 36.6123C22.1223 36.7496 22.3707 36.865 22.6312 36.9556C24.8047 37.7116 27.1795 36.5625 27.9355 34.389L32.3598 21.6663L32.7076 20.6663L30.9434 20.6663L26.3613 33.8415L26.3091 33.9788Z" fill="rgb(151,151,151)" fill-opacity="0" fill-rule="evenodd" />
	</g>
</svg>
