<svg viewBox="0 0 48 48" xmlns="http://www.w3.org/2000/svg" xmlns:xlink="http://www.w3.org/1999/xlink" width="48.000000" height="48.000000" fill="none" customFrame="#000000">
	<rect id="项目首字母图标/W-48px*48px" width="48.000000" height="48.000000" x="0.000000" y="0.000000" />
	<rect id="矩形" width="48.000000" height="48.000000" x="0.000000" y="0.000000" opacity="0" fill="rgb(216,216,216)" />
	<rect id="矩形" width="47.000000" height="47.000000" x="0.500000" y="0.500000" opacity="0" stroke="rgb(151,151,151)" stroke-opacity="0" stroke-width="1" />
	<g id="w">
		<path id="Path" d="M1.80224 0C5.1732 2.35378 7.40549 6.22586 7.50749 10.6246L7.51114 10.9397L5.01114 10.9397L5.00818 10.684C4.92169 6.95016 2.94608 3.68336 0 1.80227L1.80224 0Z" fill="rgb(249,179,188)" fill-rule="evenodd" transform="matrix(1,0,0,-1,36.4885,40.7729)" />
		<path id="Path" d="M4.4025 0C10.3001 0 15.097 4.71266 15.2329 10.5776L15.2358 10.8333L15.2358 23.3333L6.9025 23.3333L6.9025 10.8333C6.9025 9.45262 5.78321 8.33333 4.4025 8.33333C4.324 8.33333 4.24634 8.33695 4.16969 8.34403C3.62001 5.42714 2.11833 2.84485 0 0.932786C1.34476 0.333021 2.83474 0 4.4025 0Z" fill="rgb(231,131,89)" fill-rule="evenodd" transform="matrix(1,0,0,-1,26.2634,40.6666)" />
		<path id="Path" d="M2.10919 0C6.17736 0 9.48902 3.23901 9.60599 7.27886L9.60919 7.5L9.60919 16.6667L7.94252 16.6667L7.94252 7.5C7.94252 4.27834 5.33085 1.66667 2.10919 1.66667C1.67189 1.66667 1.24583 1.71479 0.83601 1.80602C0.58946 1.28526 0.30983 0.782005 0 0.300007C0.668927 0.104979 1.3768 0 2.10919 0Z" fill="rgb(255,255,255)" fill-rule="evenodd" transform="matrix(1,0,0,-1,28.5576,37.3333)" />
		<path id="Path" d="M7.94252 15.6667L7.94252 7.5C7.94252 4.27834 5.33085 1.66667 2.10919 1.66667C1.67189 1.66667 1.24583 1.71479 0.83601 1.80602C0.737975 1.59895 0.634709 1.39465 0.526395 1.19335C0.362308 0.888404 0.186633 0.590349 0 0.300007C0.337015 0.201749 0.683916 0.126348 1.03886 0.0757136C1.38842 0.0258458 1.74579 0 2.10919 0C6.17736 0 9.48902 3.23901 9.60599 7.27886L9.60919 7.5L9.60919 16.6667L7.94252 16.6667L7.94252 15.6667Z" fill="rgb(151,151,151)" fill-opacity="0" fill-rule="evenodd" transform="matrix(1,0,0,-1,28.5576,37.3333)" />
		<path id="Path" d="M10.8333 0C16.7309 0 21.5279 4.71266 21.6637 10.5776L21.6667 10.8333L21.6667 33.3333L13.3333 33.3333L13.3333 10.8333C13.3333 9.45262 12.214 8.33333 10.8333 8.33333C9.50193 8.33333 8.41362 9.3741 8.33758 10.6864L8.33333 10.8333L8.33333 23.3333L0 23.3333L0 10.8333C0 4.85025 4.85025 0 10.8333 0Z" fill="rgb(85,203,170)" fill-rule="evenodd" transform="matrix(1,0,0,-1,6.50024,40.6666)" />
		<path id="Path" d="M10.8333 0L10.8333 8.33333C9.50193 8.33333 8.41362 9.3741 8.33758 10.6864L8.33333 10.8333L0 10.8333C0 4.93572 4.71266 0.13881 10.5776 0.0029587L10.8333 0Z" fill="rgb(231,131,89)" fill-rule="evenodd" transform="matrix(1,0,0,-1,6.49976,40.6666)" />
		<path id="Path" d="M7.5 0C11.5682 0 14.8798 3.23901 14.9968 7.27886L15 7.5L15 26.6667L13.3333 26.6667L13.3333 7.5C13.3333 4.27834 10.7217 1.66667 7.5 1.66667C4.34546 1.66667 1.77575 4.17065 1.67005 7.29946L1.66667 7.5L0 7.5C0 3.35786 3.35786 0 7.5 0Z" fill="rgb(255,255,255)" fill-rule="evenodd" transform="matrix(1,0,0,-1,9.8335,37.3333)" />
		<path id="Path" d="M14.9968 7.27886C14.8798 3.23901 11.5682 0 7.5 0C3.69692 0 0.554978 2.83064 0.0660857 6.5C0.0224991 6.82714 0 7.16094 0 7.5L1.66667 7.5L1.67005 7.29946C1.77575 4.17065 4.34546 1.66667 7.5 1.66667C10.7217 1.66667 13.3333 4.27834 13.3333 7.5L13.3333 26.6667L15 26.6667L15 7.5L14.9968 7.27886Z" fill="rgb(151,151,151)" fill-opacity="0" fill-rule="evenodd" transform="matrix(1,0,0,-1,9.8335,37.3333)" />
		<rect id="Rectangle" width="8.333333" height="12.500000" x="0.000000" y="0.000000" fill="rgb(218,95,95)" transform="matrix(1,0,0,-1,6.49976,29.8333)" />
		<rect id="Rectangle Copy 14" width="3.333333" height="12.500000" x="0.000000" y="0.000000" fill="rgb(234,216,131)" transform="matrix(1,0,0,-1,6.49976,29.8333)" />
		<rect id="Rectangle" width="8.333333" height="6.666667" x="0.000000" y="0.000000" fill="rgb(108,163,244)" transform="matrix(1,0,0,-1,6.49976,14)" />
		<rect id="Rectangle" width="8.333333" height="1.666667" x="0.000000" y="0.000000" fill="rgb(255,255,255)" transform="matrix(1,0,0,-1,6.49976,11.5)" />
		<rect id="Rectangle" width="7.333333" height="0.666667" x="0.500000" y="0.500000" stroke="rgb(151,151,151)" stroke-opacity="0" stroke-width="1" transform="matrix(1,0,0,-1,6.49976,11.5)" />
		<rect id="Rectangle Copy 21" width="8.333333" height="6.666667" x="0.000000" y="0.000000" fill="rgb(178,126,245)" transform="matrix(1,0,0,-1,33.1663,14)" />
		<rect id="Rectangle" width="8.333333" height="3.333333" x="0.000000" y="0.000000" fill="rgb(105,99,240)" transform="matrix(1,0,0,-1,33.1663,10.6666)" />
	</g>
</svg>
