<svg viewBox="0 0 48 48" xmlns="http://www.w3.org/2000/svg" xmlns:xlink="http://www.w3.org/1999/xlink" width="48.000000" height="48.000000" fill="none" customFrame="#000000">
	<rect id="项目首字母图标/X-48px*48px" width="48.000000" height="48.000000" x="0.000000" y="0.000000" />
	<rect id="矩形" width="48.000000" height="48.000000" x="0.000000" y="0.000000" opacity="0" fill="rgb(216,216,216)" />
	<rect id="矩形" width="47.000000" height="47.000000" x="0.500000" y="0.500000" opacity="0" stroke="rgb(151,151,151)" stroke-opacity="0" stroke-width="1" />
	<g id="x">
		<path id="路径" d="M12.2298 7.33337C17.9228 7.33337 23.0521 10.7396 25.2693 15.9621L25.3833 16.2387L30.3544 28.6665C31.2126 30.812 33.2524 32.2419 35.5476 32.3291L35.7705 32.3334L40.6668 32.3334L40.6668 40.6667L35.7705 40.6667C30.0776 40.6667 24.9483 37.2605 22.7311 32.0379L22.6171 31.7614L17.6459 19.3336C16.7878 17.1881 14.7479 15.7582 12.4527 15.6709L12.2298 15.6667L7.3335 15.6667L7.3335 7.33337L12.2298 7.33337Z" fill="rgb(105,99,240)" fill-rule="evenodd" />
		<path id="形状结合" d="M27.2236 20.8413L30.3538 28.6667C31.212 30.8122 33.2518 32.2421 35.547 32.3294L35.7699 32.3336L40.6663 32.3336L40.6663 36.5003L40.6662 36.5003L36.0633 36.5003C32.3029 36.5003 28.9238 34.2037 27.5399 30.7071L23.9995 21.7619L27.2236 20.8413Z" fill="rgb(108,163,244)" fill-rule="evenodd" />
		<path id="形状结合" d="M12.2775 7.3335C17.9512 7.35262 23.0579 10.7544 25.2689 15.9622L25.3828 16.2387L28.4874 24.0002L19.5121 24.0002L17.6455 19.3336C16.7874 17.1882 14.7475 15.7583 12.4523 15.671L12.2294 15.6667L7.33374 15.6667L7.33374 7.3335L12.2775 7.3335Z" fill="rgb(218,95,95)" fill-rule="evenodd" />
		<path id="形状结合" d="M27.82 22.3333L29.1533 25.6666L20.1781 25.6666L18.8447 22.3333L27.82 22.3333Z" fill="rgb(84,59,186)" fill-rule="evenodd" />
		<path id="形状结合" d="M17.719 28.487L17.6472 28.6666C16.789 30.8121 14.7492 32.242 12.4539 32.3293L12.2311 32.3335L7.33472 32.3335L7.33472 40.6668L12.2311 40.6668C15.8297 40.6668 19.2031 39.3058 21.7581 36.9853C20.9197 35.865 20.2081 34.6332 19.6484 33.3071L17.719 28.487ZM30.2823 19.517L30.3556 19.3337C31.2138 17.1883 33.2536 15.7583 35.5488 15.6711L35.7717 15.6668L40.668 15.6668L40.668 7.3335L35.7717 7.3335C32.1723 7.3335 28.7982 8.69514 26.243 11.0166C27.0808 12.1364 27.792 13.3676 28.3515 14.6931L30.2823 19.517Z" fill="rgb(238,186,91)" fill-rule="evenodd" />
		<path id="形状结合" d="M17.6457 28.6669L17.7179 28.4866L19.6474 33.3072C20.2071 34.6333 20.9187 35.865 21.757 36.9853C19.2019 39.306 15.8284 40.6672 12.2296 40.6672L7.33325 40.6672L7.33325 32.3338L12.2296 32.3338L12.4525 32.3296C14.7477 32.2423 16.7875 30.8124 17.6457 28.6669Z" fill="rgb(178,126,245)" fill-rule="evenodd" />
		<path id="形状结合" d="M12.2295 12.3334L10.6665 12.3334L10.6665 10.6667L12.2295 10.6667C16.5689 10.6667 20.48 13.2548 22.1844 17.2266L22.288 17.4767L24.2307 22.3334L22.4356 22.3334L20.7405 18.0957C19.3794 14.6928 16.1266 12.4354 12.4788 12.3368L12.2295 12.3334Z" fill="rgb(255,255,255)" fill-rule="evenodd" />
		<path id="形状结合" d="M35.7702 10.6665L37.3324 10.6665L37.3324 12.3332L35.7702 12.3332L35.5209 12.3365C34.0598 12.3761 32.662 12.7619 31.4238 13.429L31.2655 13.0343C31.0962 12.6534 30.9162 12.2793 30.7261 11.9123C32.2499 11.1103 33.9733 10.6665 35.7702 10.6665ZM40.6666 12.3332L40.6658 12.3332L40.6658 10.6665L40.6666 10.6665L40.6666 12.3332ZM10.6658 37.3332L12.2296 37.3332C14.0265 37.3332 15.75 36.8894 17.2737 36.0874C17.0836 35.7204 16.9037 35.3463 16.7344 34.9654L16.576 34.5707C15.3378 35.2378 13.94 35.6236 12.4789 35.6631L12.2296 35.6665L10.6658 35.6665L10.6658 37.3332Z" fill="rgb(255,255,255)" fill-rule="evenodd" />
	</g>
</svg>
