<svg viewBox="0 0 48 48" xmlns="http://www.w3.org/2000/svg" xmlns:xlink="http://www.w3.org/1999/xlink" width="48.000000" height="48.000000" fill="none" customFrame="#000000">
	<rect id="项目首字母图标/Z-48px*48px" width="48.000000" height="48.000000" x="0.000000" y="0.000000" />
	<rect id="矩形" width="48.000000" height="48.000000" x="0.000000" y="0.000000" opacity="0" fill="rgb(216,216,216)" />
	<rect id="矩形" width="47.000000" height="47.000000" x="0.500000" y="0.500000" opacity="0" stroke="rgb(151,151,151)" stroke-opacity="0" stroke-width="1" />
	<g id="z">
		<path id="路径" d="M35.0327 7.33337C38.2543 7.33337 40.866 9.94505 40.866 13.1667C40.866 14.8744 40.118 16.4921 38.8267 17.5976L38.6473 17.7452L20.2241 32.2887C19.8463 31.2411 19.242 30.3019 18.4701 29.5301C17.1719 28.2318 15.4 27.4073 13.4358 27.3381L13.1668 27.3334C13.1282 27.3334 13.0897 27.3337 13.0513 27.3342L27.831 15.6667L17.3335 15.6667L17.3335 7.33337L35.0327 7.33337Z" fill="rgb(108,163,244)" fill-rule="evenodd" />
		<rect id="Rectangle" width="8.333333" height="8.333333" x="9.000000" y="7.333374" fill="rgb(238,186,91)" />
		<path id="路径" d="M20.2401 32.3335L29.0002 32.3334L29.0002 40.6667L17.8804 40.6674C18.0862 40.5009 18.2831 40.3237 18.4701 40.1367C19.8274 38.7794 20.6668 36.9044 20.6668 34.8334C20.6668 33.9568 20.5164 33.1154 20.2401 32.3335Z" fill="rgb(85,203,170)" fill-rule="evenodd" />
		<path id="椭圆形备份 21" d="M13.1668 40.6667C16.3885 40.6667 19.0002 38.055 19.0002 34.8333C19.0002 31.6117 16.3885 29 13.1668 29C9.94517 29 7.3335 31.6117 7.3335 34.8333C7.3335 38.055 9.94517 40.6667 13.1668 40.6667Z" fill="rgb(218,95,95)" fill-rule="evenodd" />
		<circle id="椭圆形备份 22" cx="13.1665039" cy="34.833374" r="2.5" fill="rgb(255,255,255)" fill-opacity="0" />
		<circle id="椭圆形备份 22" cx="13.1665039" cy="34.833374" r="2.5" stroke="rgb(255,255,255)" stroke-width="1.66666663" />
		<rect id="Rectangle Copy 16" width="4.166667" height="10.833333" x="0.000000" y="0.000000" fill="rgb(105,99,240)" transform="matrix(0,1,-1,0,39.8335,36.5)" />
		<rect id="Rectangle Copy 16备份" width="4.166667" height="10.833333" x="0.000000" y="0.000000" fill="rgb(231,131,89)" transform="matrix(0,1,-1,0,39.8335,32.3334)" />
		<rect id="矩形" width="1.666667" height="8.333333" x="29.000000" y="32.333374" fill="rgb(84,59,186)" />
		<path id="形状结合" d="M17.3328 12.3334L35.0328 12.3334L35.13 12.339C35.5444 12.3872 35.8661 12.7394 35.8661 13.1667C35.8661 13.4218 35.7493 13.6628 35.5491 13.8208L18.7686 27.0684L19.9553 28.2551L36.5819 15.129L36.7067 15.0236C37.2307 14.5514 37.5328 13.8772 37.5328 13.1667C37.5328 11.786 36.4135 10.6667 35.0328 10.6667L17.3328 10.6667L17.3328 12.3334Z" fill="rgb(255,255,255)" fill-rule="evenodd" />
		<path id="形状结合" d="M35.0328 12.3334L17.3328 12.3334L17.3328 10.6667L35.0328 10.6667C36.4135 10.6667 37.5328 11.786 37.5328 13.1667C37.5328 13.8772 37.2307 14.5514 36.7067 15.0236L36.5819 15.129L19.9553 28.2551L18.7686 27.0684L35.5491 13.8208C35.7493 13.6628 35.8661 13.4218 35.8661 13.1667C35.8661 12.7394 35.5444 12.3872 35.13 12.339L35.0328 12.3334Z" fill="rgb(151,151,151)" fill-opacity="0" fill-rule="evenodd" />
	</g>
</svg>
