<svg viewBox="0 0 16 16" xmlns="http://www.w3.org/2000/svg" xmlns:xlink="http://www.w3.org/1999/xlink" width="16.000000" height="16.000000" fill="none" customFrame="#000000">
	<rect id="状态图标/上升" width="16.000000" height="16.000000" x="0.000000" y="0.000000" transform="matrix(-1,0,0,-1,16,16)" />
	<rect id="矩形" width="16.000000" height="16.000000" x="0.000000" y="0.000000" fill="rgb(216,216,216)" fill-opacity="0" transform="matrix(-1,0,0,-1,16,16)" />
	<rect id="矩形" width="15.000000" height="15.000000" x="0.500000" y="0.500000" stroke="rgb(151,151,151)" stroke-opacity="0" stroke-width="1" transform="matrix(-1,0,0,-1,16,16)" />
	<circle id="椭圆形" cx="8" cy="8" r="8" fill="rgb(252,226,224)" transform="matrix(-1,0,0,-1,16,16)" />
	<circle id="椭圆形" cx="8" cy="8" r="7.5" stroke="rgb(151,151,151)" stroke-opacity="0" stroke-width="1" transform="matrix(-1,0,0,-1,16,16)" />
	<path id="形状结合" d="M8.63478 5.20617L8.63478 11.9987C8.63478 12.2787 8.41478 12.4987 8.13478 12.4987C7.85478 12.4987 7.63478 12.2787 7.63478 11.9987L7.63478 5.20617L5.19544 7.64551C4.99745 7.8435 4.68633 7.8435 4.48834 7.64551C4.29035 7.44752 4.29035 7.13639 4.48834 6.9384L7.74764 3.6791C7.80021 3.61513 7.86861 3.56488 7.94737 3.53383Q7.9918 3.51597 8.04004 3.50728C8.07065 3.50162 8.10231 3.49866 8.13478 3.49866C8.16725 3.49866 8.19892 3.50162 8.22952 3.50728Q8.27776 3.51597 8.3222 3.53383C8.40095 3.56488 8.46936 3.61513 8.52193 3.6791L11.7812 6.9384C11.9792 7.13639 11.9792 7.44752 11.7812 7.64551C11.5832 7.8435 11.2721 7.8435 11.0741 7.64551L8.63478 5.20617Z" fill="rgb(242,48,48)" fill-rule="evenodd" />
</svg>
