<svg viewBox="0 0 16 16" xmlns="http://www.w3.org/2000/svg" xmlns:xlink="http://www.w3.org/1999/xlink" width="16.000000" height="16.000000" fill="none" customFrame="#000000">
	<rect id="状态图标/停止" width="16.000000" height="16.000000" x="0.000000" y="0.000000" fill="rgb(255,255,255)" fill-opacity="0" />
	<path id="减去顶层" d="M15 8C15 4.13401 11.866 1 8 1C4.13401 1 1 4.13401 1 8C1 11.866 4.13401 15 8 15C11.866 15 15 11.866 15 8ZM11 8C11 7.72417 10.7884 7.5 10.527 7.5L5.47375 7.5C5.2124 7.5 5 7.72417 5 8C5 8.27667 5.2124 8.5 5.47375 8.5L10.527 8.5C10.7884 8.5 11 8.27667 11 8Z" fill="rgb(147,147,147)" fill-rule="evenodd" />
</svg>
