<svg viewBox="0 0 16 16" xmlns="http://www.w3.org/2000/svg" xmlns:xlink="http://www.w3.org/1999/xlink" width="16.000000" height="16.000000" fill="none">
	<rect id="状态图标/警告" width="16.000000" height="16.000000" x="0.000000" y="0.000000" />
	<path id="减去顶层" d="M8.62195 1.40549C8.84071 1.52854 9.02147 1.7093 9.14452 1.92806L15.024 12.3804C15.395 13.0401 15.1611 13.8756 14.5014 14.2467C14.2963 14.3621 14.0649 14.4227 13.8295 14.4227L2.07064 14.4227C1.31377 14.4227 0.700195 13.8091 0.700195 13.0523C0.700195 12.8169 0.760808 12.5855 0.876194 12.3804L6.75563 1.92806C7.12669 1.26839 7.96228 1.03442 8.62195 1.40549ZM8.40701 9.50145C8.40701 9.74023 8.2022 9.93356 7.95019 9.93356C7.69742 9.93356 7.49338 9.74023 7.49338 9.50145L7.49338 4.8846C7.49338 4.64582 7.69742 4.45177 7.95019 4.45177C8.2022 4.45177 8.40701 4.64582 8.40701 4.8846L8.40701 9.50145ZM7.54808 10.944Q7.45469 10.996 7.37684 11.0759C7.20708 11.2284 7.13281 11.4244 7.13281 11.664C7.13281 11.9036 7.20708 12.0997 7.37684 12.2521C7.52537 12.4046 7.71635 12.4917 7.94977 12.4917C8.18319 12.4917 8.37417 12.4155 8.54393 12.263C8.69247 12.1106 8.77735 11.9036 8.77735 11.664C8.77735 11.4244 8.69247 11.2284 8.54393 11.0759C8.38478 10.9234 8.18319 10.8472 7.94977 10.8472Q7.72198 10.8472 7.54808 10.944Z" fill="rgb(247,132,31)" fill-rule="evenodd" />
</svg>
