<svg viewBox="0 0 16 16" xmlns="http://www.w3.org/2000/svg" xmlns:xlink="http://www.w3.org/1999/xlink" width="16.000000" height="16.000000" fill="none" customFrame="#000000">
	<rect id="状态图标/运行" width="16.000000" height="16.000000" x="0.000000" y="0.000000" />
	<g id="运行">
		<path id="形状结合备份-16" d="M8 1C11.866 1 15 4.13401 15 8C15 11.866 11.866 15 8 15C4.13401 15 1 11.866 1 8C1 4.13401 4.13401 1 8 1Z" fill="rgb(10,89,247)" fill-rule="nonzero" />
		<path id="形状结合备份-16" d="M15 8C15 11.866 11.866 15 8 15C4.13401 15 1 11.866 1 8C1 4.13401 4.13401 1 8 1C11.866 1 15 4.13401 15 8Z" fill-rule="nonzero" stroke="rgb(0,0,0)" stroke-opacity="0" stroke-width="1" />
		<path id="形状结合" d="M3.79868 6.42964L5.14943 7.30095C5.35996 7.43768 5.4198 7.71919 5.28308 7.92973C5.15878 8.12113 4.91483 8.18798 4.71332 8.09583L3.92904 7.59312C3.91578 7.72758 3.90909 7.86332 3.90909 8C3.90909 10.2593 5.74065 12.0909 8 12.0909C8.70655 12.0909 9.38608 11.912 9.98908 11.5757C10.2083 11.4535 10.4852 11.5321 10.6074 11.7514C10.7297 11.9706 10.6511 12.2475 10.4318 12.3697C9.69431 12.781 8.86252 13 8 13C5.23858 13 3 10.7614 3 8C3 7.56653 3.05527 7.13995 3.16339 6.72787C3.21294 6.53901 3.37427 6.40921 3.55778 6.39082C3.61553 6.39441 3.7483 6.40661 3.79868 6.42964ZM8 3C10.7614 3 13 5.23858 13 8C13 8.49339 12.9284 8.97769 12.7889 9.44154C12.7167 9.68195 12.4632 9.81825 12.2228 9.74597C12.2138 9.74141 12.1289 9.70603 12.1204 9.70093L10.8079 8.84889C10.5974 8.71217 10.5376 8.43065 10.6743 8.22012C10.7986 8.02872 11.0425 7.96186 11.244 8.05402L12.0513 8.57195C12.0776 8.38382 12.0909 8.19286 12.0909 8C12.0909 5.74065 10.2593 3.90909 8 3.90909C7.2579 3.90909 6.54579 4.10655 5.92145 4.47565C5.70535 4.60341 5.4266 4.53179 5.29885 4.31569C5.17109 4.09959 5.24271 3.82084 5.45881 3.69309C6.22231 3.24172 7.09402 3 8 3Z" fill="rgb(255,255,255)" fill-rule="nonzero" />
		<path id="形状结合" d="M5.14943 7.30095C5.35996 7.43768 5.4198 7.71919 5.28308 7.92973C5.15878 8.12113 4.91483 8.18798 4.71332 8.09583L3.92904 7.59312C3.91578 7.72758 3.90909 7.86332 3.90909 8C3.90909 10.2593 5.74065 12.0909 8 12.0909C8.70655 12.0909 9.38608 11.912 9.98908 11.5757C10.2083 11.4535 10.4852 11.5321 10.6074 11.7514C10.7297 11.9706 10.6511 12.2475 10.4318 12.3697C9.69431 12.781 8.86252 13 8 13C5.23858 13 3 10.7614 3 8C3 7.56653 3.05527 7.13995 3.16339 6.72787C3.21294 6.53901 3.37427 6.40921 3.55778 6.39082C3.61553 6.39441 3.7483 6.40661 3.79868 6.42964L5.14943 7.30095ZM13 8C13 8.49339 12.9284 8.97769 12.7889 9.44154C12.7167 9.68195 12.4632 9.81825 12.2228 9.74597C12.2138 9.74141 12.1289 9.70603 12.1204 9.70093L10.8079 8.84889C10.5974 8.71217 10.5376 8.43065 10.6743 8.22012C10.7986 8.02872 11.0425 7.96186 11.244 8.05402L12.0513 8.57195C12.0776 8.38382 12.0909 8.19286 12.0909 8C12.0909 5.74065 10.2593 3.90909 8 3.90909C7.2579 3.90909 6.54579 4.10655 5.92145 4.47565C5.70535 4.60341 5.4266 4.53179 5.29885 4.31569C5.17109 4.09959 5.24271 3.82084 5.45881 3.69309C6.22231 3.24172 7.09402 3 8 3C10.7614 3 13 5.23858 13 8Z" fill-rule="nonzero" stroke="rgb(0,0,0)" stroke-opacity="0" stroke-width="1" />
	</g>
</svg>
